0
SECTION
2
HEADER
9
$INSUNITS
70
4
9
$ACADVER
1
AC1014
9
$HANDSEED
5
FFFF
0
ENDSEC
0
SECTION
2
TABLES
0
TABLE
2
VPORT
5
8
100
AcDbSymbolTable
0
ENDTAB
0
TABLE
2
LTYPE
5
5
100
AcDbSymbolTable
0
LTYPE
5
14
100
AcDbSymbolTableRecord
100
AcDbLinetypeTableRecord
2
BYBLOCK
70
0
0
LTYPE
5
15
100
AcDbSymbolTableRecord
100
AcDbLinetypeTableRecord
2
BYLAYER
70
0
0
ENDTAB
0
TABLE
2
LAYER
5
2
100
AcDbSymbolTable
70
2
0
LAYER
5
50
100
AcDbSymbolTableRecord
100
AcDbLayerTableRecord
2
0
70
0
6
CONTINUOUS
0
ENDTAB
0
TABLE
2
STYLE
5
3
100
AcDbSymbolTable
70
1
0
STYLE
5
11
100
AcDbSymbolTableRecord
100
AcDbTextStyleTableRecord
2
STANDARD
70
0
0
ENDTAB
0
TABLE
2
VIEW
5
6
100
AcDbSymbolTable
70
0
0
ENDTAB
0
TABLE
2
UCS
5
7
100
AcDbSymbolTable
70
0
0
ENDTAB
0
TABLE
2
APPID
5
9
100
AcDbSymbolTable
70
2
0
APPID
5
12
100
AcDbSymbolTableRecord
100
AcDbRegAppTableRecord
2
ACAD
70
0
0
ENDTAB
0
TABLE
2
DIMSTYLE
5
A
100
AcDbSymbolTable
70
1
0
ENDTAB
0
TABLE
2
BLOCK_RECORD
5
1
100
AcDbSymbolTable
70
1
0
BLOCK_RECORD
5
1F
100
AcDbSymbolTableRecord
100
AcDbBlockTableRecord
2
*MODEL_SPACE
0
BLOCK_RECORD
5
1B
100
AcDbSymbolTableRecord
100
AcDbBlockTableRecord
2
*PAPER_SPACE
0
ENDTAB
0
ENDSEC
0
SECTION
2
BLOCKS
0
BLOCK
5
20
100
AcDbEntity
100
AcDbBlockBegin
2
*MODEL_SPACE
0
ENDBLK
5
21
100
AcDbEntity
100
AcDbBlockEnd
0
BLOCK
5
1C
100
AcDbEntity
100
AcDbBlockBegin
2
*PAPER_SPACE
0
ENDBLK
5
1D
100
AcDbEntity
100
AcDbBlockEnd
0
ENDSEC
0
SECTION
2
ENTITIES
0
LWPOLYLINE
5
100
100
AcDbEntity
8
0
100
AcDbPolyline
90
24
70
1
43
0.0
10
269.97920036315918
20
-383.97655344010502
42
-0.41421356237310025
10
267.97920036315918
20
-385.97655344010502
10
80.97919820780703
20
-385.97655344010462
42
-0.41421356237309243
10
78.979198207807059
20
-383.97655344010468
10
78.979198207807443
20
-327.97655487060615
42
0.41421356237309243
10
76.979198207807457
20
-325.97655487060615
10
16.979238510132273
20
-325.97655487060581
42
-0.4142135623730937
10
14.97923851013228
20
-323.97655487060575
10
14.979238510134936
20
63.023445606220179
42
-0.41421356237311063
10
16.979238510134991
20
65.023445606220278
10
267.97920036316231
20
65.023445606218388
42
-0.41421356237309503
10
269.97920036316231
20
63.023445606218402
10
269.97920036316179
20
-8.9765548706095188
10
266.97920036316179
20
-8.9765548706095188
10
266.97920036316168
20
-28.976554870609519
10
269.97920036316168
20
-28.976554870609519
10
269.97920036316077
20
-158.97655439377951
10
266.97920036316077
20
-158.97655439377945
10
266.97920036316066
20
-178.97655439377945
10
269.97920036316066
20
-178.97655439377951
10
269.97920036315969
20
-308.97655487060752
10
266.97920036315969
20
-308.97655487060752
10
266.97920036315958
20
-328.97655487060769
10
269.97920036315963
20
-328.97655487060774
0
CIRCLE
5
101
100
AcDbEntity
8
0
100
AcDbCircle
10
88.821104822933876
20
-318.96642685910467
30
-3.5018310029499844e-07
40
2.6999999999999957
210
3.8857575574807864e-16
220
1.9063224910436055e-22
230
1
0
CIRCLE
5
102
100
AcDbEntity
8
0
100
AcDbCircle
10
88.821104822934416
20
-168.91760064728589
30
-3.5018324240354559e-07
40
2.6999999999999957
210
3.8857575574807864e-16
220
1.9063224910436055e-22
230
1
0
CIRCLE
5
103
100
AcDbEntity
8
0
100
AcDbCircle
10
88.821104822934416
20
-18.997408392889454
30
-3.5018331345781917e-07
40
2.6999999999999957
210
3.8857575574807864e-16
220
1.9063224910436055e-22
230
1
0
LWPOLYLINE
5
104
100
AcDbEntity
8
0
100
AcDbPolyline
90
24
70
1
43
0.0
10
76.979198207807457
20
-325.97655487060615
10
16.979238510132273
20
-325.97655487060581
42
-0.4142135623730937
10
14.97923851013228
20
-323.97655487060575
10
14.979238510134936
20
63.023445606220179
42
-0.41421356237310936
10
16.979238510134991
20
65.023445606220278
10
267.97920036316231
20
65.023445606218388
42
-0.41421356237309503
10
269.97920036316231
20
63.023445606218402
10
269.97920036316179
20
-8.9765548706095188
10
266.97920036316179
20
-8.9765548706095188
10
266.97920036316168
20
-28.976554870609519
10
269.97920036316168
20
-28.976554870609519
10
269.97920036316077
20
-158.97655439377951
10
266.97920036316077
20
-158.97655439377945
10
266.97920036316066
20
-178.97655439377945
10
269.97920036316066
20
-178.97655439377951
10
269.97920036315969
20
-308.97655487060752
10
266.97920036315969
20
-308.97655487060752
10
266.97920036315958
20
-328.97655487060769
10
269.97920036315963
20
-328.97655487060774
10
269.97920036315918
20
-383.97655344010514
42
-0.41421356237308982
10
267.97920036315918
20
-385.97655344010502
10
80.97919820780703
20
-385.97655344010462
42
-0.41421356237309243
10
78.979198207807059
20
-383.97655344010468
10
78.979198207807443
20
-327.97655487060615
42
0.41421356237309243
0
CIRCLE
5
105
100
AcDbEntity
8
0
100
AcDbCircle
10
88.821104822934416
20
-18.997408392889454
30
-3.5018331345781917e-07
40
2.6999999999999957
210
3.8857575182653122e-16
220
1.9063224910436055e-22
230
1
0
CIRCLE
5
106
100
AcDbEntity
8
0
100
AcDbCircle
10
88.821104822934416
20
-168.91760064728589
30
-3.5018324240354559e-07
40
2.6999999999999957
210
3.8857575182653122e-16
220
1.9063224910436055e-22
230
1
0
CIRCLE
5
107
100
AcDbEntity
8
0
100
AcDbCircle
10
88.821104822933876
20
-318.96642685910467
30
-3.5018310029499844e-07
40
2.6999999999999957
210
3.8857575182653122e-16
220
1.9063224910436055e-22
230
1
0
ENDSEC
0
SECTION
2
OBJECTS
0
DICTIONARY
5
C
100
AcDbDictionary
3
ACAD_GROUP
350
D
3
ACAD_MLINESTYLE
350
17
0
DICTIONARY
5
D
100
AcDbDictionary
0
DICTIONARY
5
1A
330
C
100
AcDbDictionary
0
DICTIONARY
5
17
100
AcDbDictionary
0
ENDSEC
0
EOF
