0
SECTION
2
HEADER
9
$INSUNITS
70
4
9
$ACADVER
1
AC1014
9
$HANDSEED
5
FFFF
0
ENDSEC
0
SECTION
2
TABLES
0
TABLE
2
VPORT
5
8
100
AcDbSymbolTable
0
ENDTAB
0
TABLE
2
LTYPE
5
5
100
AcDbSymbolTable
0
LTYPE
5
14
100
AcDbSymbolTableRecord
100
AcDbLinetypeTableRecord
2
BYBLOCK
70
0
0
LTYPE
5
15
100
AcDbSymbolTableRecord
100
AcDbLinetypeTableRecord
2
BYLAYER
70
0
0
ENDTAB
0
TABLE
2
LAYER
5
2
100
AcDbSymbolTable
70
2
0
LAYER
5
50
100
AcDbSymbolTableRecord
100
AcDbLayerTableRecord
2
0
70
0
6
CONTINUOUS
0
ENDTAB
0
TABLE
2
STYLE
5
3
100
AcDbSymbolTable
70
1
0
STYLE
5
11
100
AcDbSymbolTableRecord
100
AcDbTextStyleTableRecord
2
STANDARD
70
0
0
ENDTAB
0
TABLE
2
VIEW
5
6
100
AcDbSymbolTable
70
0
0
ENDTAB
0
TABLE
2
UCS
5
7
100
AcDbSymbolTable
70
0
0
ENDTAB
0
TABLE
2
APPID
5
9
100
AcDbSymbolTable
70
2
0
APPID
5
12
100
AcDbSymbolTableRecord
100
AcDbRegAppTableRecord
2
ACAD
70
0
0
ENDTAB
0
TABLE
2
DIMSTYLE
5
A
100
AcDbSymbolTable
70
1
0
ENDTAB
0
TABLE
2
BLOCK_RECORD
5
1
100
AcDbSymbolTable
70
1
0
BLOCK_RECORD
5
1F
100
AcDbSymbolTableRecord
100
AcDbBlockTableRecord
2
*MODEL_SPACE
0
BLOCK_RECORD
5
1B
100
AcDbSymbolTableRecord
100
AcDbBlockTableRecord
2
*PAPER_SPACE
0
ENDTAB
0
ENDSEC
0
SECTION
2
BLOCKS
0
BLOCK
5
20
100
AcDbEntity
100
AcDbBlockBegin
2
*MODEL_SPACE
0
ENDBLK
5
21
100
AcDbEntity
100
AcDbBlockEnd
0
BLOCK
5
1C
100
AcDbEntity
100
AcDbBlockBegin
2
*PAPER_SPACE
0
ENDBLK
5
1D
100
AcDbEntity
100
AcDbBlockEnd
0
ENDSEC
0
SECTION
2
ENTITIES
0
LWPOLYLINE
5
100
100
AcDbEntity
8
0
100
AcDbPolyline
90
24
70
1
43
0.0
10
-267.97920036315907
20
-385.97655344010491
42
-0.41421356237309503
10
-269.97920036315912
20
-383.97655344010491
10
-269.97920036315946
20
-328.97655487060769
10
-266.97920036315952
20
-328.97655487060769
10
-266.97920036315958
20
-308.97655487060729
10
-269.97920036315963
20
-308.97655487060729
10
-269.97920036316054
20
-178.97655439377928
10
-266.97920036316049
20
-178.97655439377925
10
-266.97920036316066
20
-158.97655439377925
10
-269.97920036316066
20
-158.97655439377928
10
-269.97920036316151
20
-28.976554870609306
10
-266.97920036316157
20
-28.976554870609306
10
-266.97920036316168
20
-8.9765548706093057
10
-269.97920036316168
20
-8.9765548706093057
10
-269.97920036316231
20
63.023445606218615
42
-0.41421356237309503
10
-267.97920036316219
20
65.023445606218715
10
-9.429238510134903
20
65.023445606220548
42
-0.41421356237310802
10
-7.4292385101348657
20
63.023445606220463
10
-7.4292385101321479
20
-323.97655487060547
42
-0.4142135623730937
10
-9.4292385101321674
20
-325.97655487060547
10
-76.979198207807343
20
-325.97655487060598
42
0.41421356237309243
10
-78.979198207807329
20
-327.97655487060592
10
-78.979198207806917
20
-383.97655344010445
42
-0.41421356237309243
10
-80.979198207806917
20
-385.97655344010445
0
CIRCLE
5
101
100
AcDbEntity
8
0
100
AcDbCircle
10
-88.821104822933776
20
-318.96642685910444
30
-7.696443766747052e-06
40
2.6999999999999957
210
2.7755575615639893e-16
220
-5.2939300457016859e-23
230
1
0
CIRCLE
5
102
100
AcDbEntity
8
0
100
AcDbCircle
10
-88.821104822934302
20
-168.9176006472857
30
-7.6964438022741888e-06
40
2.6999999999999957
210
2.7755575615639893e-16
220
-5.2939300457016859e-23
230
1
0
CIRCLE
5
103
100
AcDbEntity
8
0
100
AcDbCircle
10
-88.821104822934288
20
-18.997408392889241
30
-7.696443766747052e-06
40
2.6999999999999957
210
2.7755575615639893e-16
220
-5.2939300457016859e-23
230
1
0
LWPOLYLINE
5
104
100
AcDbEntity
8
0
100
AcDbPolyline
90
24
70
1
43
0.0
10
-267.97920036316219
20
65.023445606218715
10
-9.429238510134903
20
65.023445606220548
42
-0.41421356237310802
10
-7.4292385101348657
20
63.023445606220463
10
-7.4292385101321479
20
-323.97655487060547
42
-0.4142135623730937
10
-9.4292385101321674
20
-325.97655487060547
10
-76.979198207807343
20
-325.97655487060598
42
0.41421356237309243
10
-78.979198207807329
20
-327.97655487060592
10
-78.979198207806917
20
-383.97655344010445
42
-0.41421356237309243
10
-80.979198207806917
20
-385.97655344010445
10
-267.97920036315907
20
-385.97655344010491
42
-0.41421356237309503
10
-269.97920036315912
20
-383.97655344010491
10
-269.97920036315946
20
-328.97655487060769
10
-266.97920036315952
20
-328.97655487060769
10
-266.97920036315958
20
-308.97655487060729
10
-269.97920036315963
20
-308.97655487060729
10
-269.97920036316054
20
-178.97655439377928
10
-266.97920036316049
20
-178.97655439377925
10
-266.97920036316066
20
-158.97655439377925
10
-269.97920036316066
20
-158.97655439377928
10
-269.97920036316151
20
-28.976554870609306
10
-266.97920036316157
20
-28.976554870609306
10
-266.97920036316168
20
-8.9765548706093057
10
-269.97920036316168
20
-8.9765548706093057
10
-269.97920036316231
20
63.023445606218615
42
-0.41421356237309503
0
CIRCLE
5
105
100
AcDbEntity
8
0
100
AcDbCircle
10
-88.821104822934288
20
-18.997408392889241
30
-7.696443766747052e-06
40
2.6999999999999957
210
2.7755583458526617e-16
220
-5.2939300457016859e-23
230
1
0
CIRCLE
5
106
100
AcDbEntity
8
0
100
AcDbCircle
10
-88.821104822934302
20
-168.9176006472857
30
-7.6964438022741888e-06
40
2.6999999999999957
210
2.7755583458526617e-16
220
-5.2939300457016859e-23
230
1
0
CIRCLE
5
107
100
AcDbEntity
8
0
100
AcDbCircle
10
-88.821104822933776
20
-318.96642685910444
30
-7.696443766747052e-06
40
2.6999999999999957
210
2.7755583458526617e-16
220
-5.2939300457016859e-23
230
1
0
ENDSEC
0
SECTION
2
OBJECTS
0
DICTIONARY
5
C
100
AcDbDictionary
3
ACAD_GROUP
350
D
3
ACAD_MLINESTYLE
350
17
0
DICTIONARY
5
D
100
AcDbDictionary
0
DICTIONARY
5
1A
330
C
100
AcDbDictionary
0
DICTIONARY
5
17
100
AcDbDictionary
0
ENDSEC
0
EOF
