0
SECTION
2
HEADER
9
$INSUNITS
70
4
9
$ACADVER
1
AC1014
9
$HANDSEED
5
FFFF
0
ENDSEC
0
SECTION
2
TABLES
0
TABLE
2
VPORT
5
8
100
AcDbSymbolTable
0
ENDTAB
0
TABLE
2
LTYPE
5
5
100
AcDbSymbolTable
0
LTYPE
5
14
100
AcDbSymbolTableRecord
100
AcDbLinetypeTableRecord
2
BYBLOCK
70
0
0
LTYPE
5
15
100
AcDbSymbolTableRecord
100
AcDbLinetypeTableRecord
2
BYLAYER
70
0
0
ENDTAB
0
TABLE
2
LAYER
5
2
100
AcDbSymbolTable
70
2
0
LAYER
5
50
100
AcDbSymbolTableRecord
100
AcDbLayerTableRecord
2
0
70
0
6
CONTINUOUS
0
ENDTAB
0
TABLE
2
STYLE
5
3
100
AcDbSymbolTable
70
1
0
STYLE
5
11
100
AcDbSymbolTableRecord
100
AcDbTextStyleTableRecord
2
STANDARD
70
0
0
ENDTAB
0
TABLE
2
VIEW
5
6
100
AcDbSymbolTable
70
0
0
ENDTAB
0
TABLE
2
UCS
5
7
100
AcDbSymbolTable
70
0
0
ENDTAB
0
TABLE
2
APPID
5
9
100
AcDbSymbolTable
70
2
0
APPID
5
12
100
AcDbSymbolTableRecord
100
AcDbRegAppTableRecord
2
ACAD
70
0
0
ENDTAB
0
TABLE
2
DIMSTYLE
5
A
100
AcDbSymbolTable
70
1
0
ENDTAB
0
TABLE
2
BLOCK_RECORD
5
1
100
AcDbSymbolTable
70
1
0
BLOCK_RECORD
5
1F
100
AcDbSymbolTableRecord
100
AcDbBlockTableRecord
2
*MODEL_SPACE
0
BLOCK_RECORD
5
1B
100
AcDbSymbolTableRecord
100
AcDbBlockTableRecord
2
*PAPER_SPACE
0
ENDTAB
0
ENDSEC
0
SECTION
2
BLOCKS
0
BLOCK
5
20
100
AcDbEntity
100
AcDbBlockBegin
2
*MODEL_SPACE
0
ENDBLK
5
21
100
AcDbEntity
100
AcDbBlockEnd
0
BLOCK
5
1C
100
AcDbEntity
100
AcDbBlockBegin
2
*PAPER_SPACE
0
ENDBLK
5
1D
100
AcDbEntity
100
AcDbBlockEnd
0
ENDSEC
0
SECTION
2
ENTITIES
0
CIRCLE
5
100
100
AcDbEntity
8
0
100
AcDbCircle
10
-180
20
-430.09999999999997
30
0
40
2.7500000000000036
210
0
220
-0
230
1
0
CIRCLE
5
101
100
AcDbEntity
8
0
100
AcDbCircle
10
-330
20
-430.09999999999991
30
0
40
2.7500000000000213
210
0
220
-0
230
1
0
CIRCLE
5
102
100
AcDbEntity
8
0
100
AcDbCircle
10
-254.99999999999997
20
-104.09999999999989
30
0
40
7.5000000000000355
210
0
220
-0
230
1
0
LWPOLYLINE
5
103
100
AcDbEntity
8
0
100
AcDbPolyline
90
44
70
1
43
0.0
10
-192.99999999999997
20
-46.199999999999932
42
-0.41421356237308898
10
-189.99999999999997
20
-49.199999999999946
10
-190
20
-367.09999999999991
42
0.41421356237309503
10
-187
20
-370.09999999999997
10
-173
20
-370.09999999999991
42
0.41421356237309503
10
-170
20
-367.09999999999991
10
-169.99999999999986
20
-23.199999999999932
42
-0.41421356237308982
10
-166.99999999999994
20
-20.200000000000031
10
-43.099999999999952
20
-20.200000000000014
42
-0.41421356237309853
10
-40.099999999999945
20
-23.200000000000003
10
-40.099999999999923
20
-60.199999999999889
42
0.4142135623730942
10
-37.099999999999937
20
-63.199999999999861
10
-23.099999999999923
20
-63.199999999999896
42
-0.41421356237309465
10
-20.099999999999916
20
-66.199999999999903
10
-20.099999999999962
20
-451.99999999999994
42
-0.41421356237312101
10
-23.099999999999987
20
-455
10
-37.100000000000009
20
-455
42
0.4142135623730942
10
-40.099999999999994
20
-458
10
-40.099999999999966
20
-486.99999999999994
42
-0.41421356237311757
10
-43.099999999999952
20
-490
10
-466.90000000000003
20
-489.99999999999994
42
-0.41421356237315748
10
-469.90000000000003
20
-486.99999999999989
10
-469.90000000000003
20
-457.99999999999989
42
0.41421356237309503
10
-472.89999999999998
20
-454.99999999999994
10
-486.90000000000009
20
-454.99999999999977
42
-0.41421356237310897
10
-489.90000000000003
20
-451.99999999999989
10
-489.90000000000009
20
-66.199999999999903
42
-0.41421356237310114
10
-486.90000000000009
20
-63.199999999999861
10
-472.89999999999992
20
-63.19999999999996
42
0.41421356237309503
10
-469.89999999999998
20
-60.19999999999996
10
-469.89999999999986
20
-23.19999999999979
42
-0.4142135623731007
10
-466.89999999999998
20
-20.199999999999818
10
-343
20
-20.199999999999836
42
-0.41421356237310025
10
-339.99999999999994
20
-23.199999999999932
10
-340
20
-367.09999999999991
42
0.41421356237309503
10
-337
20
-370.09999999999991
10
-323.00000000000006
20
-370.09999999999991
42
0.41421356237309503
10
-320
20
-367.09999999999991
10
-319.99999999999994
20
-23.199999999999932
42
-0.41421356237308982
10
-316.99999999999994
20
-20.19999999999996
10
-227.99999999999994
20
-20.19999999999996
42
-0.41421356237309853
10
-224.99999999999994
20
-23.199999999999932
10
-224.99999999999994
20
-43.200000000000003
42
0.41421356237309503
10
-221.99999999999991
20
-46.199999999999903
0
ENDSEC
0
SECTION
2
OBJECTS
0
DICTIONARY
5
C
100
AcDbDictionary
3
ACAD_GROUP
350
D
3
ACAD_MLINESTYLE
350
17
0
DICTIONARY
5
D
100
AcDbDictionary
0
DICTIONARY
5
1A
330
C
100
AcDbDictionary
0
DICTIONARY
5
17
100
AcDbDictionary
0
ENDSEC
0
EOF
