<?xml version="1.0" encoding="utf-8"?>
<!-- Generator: Adobe Illustrator 25.4.1, SVG Export Plug-In . SVG Version: 6.00 Build 0)  -->
<svg version="1.1" id="Layer_1" xmlns="http://www.w3.org/2000/svg" xmlns:xlink="http://www.w3.org/1999/xlink" x="0px" y="0px"
	 viewBox="0 0 864 864" style="enable-background:new 0 0 864 864;" xml:space="preserve">
<style type="text/css">
	.st0{fill-rule:evenodd;clip-rule:evenodd;fill:#010203;}
	.st1{fill-rule:evenodd;clip-rule:evenodd;fill:#D3A53D;}
	.st2{fill-rule:evenodd;clip-rule:evenodd;fill:#D02C3B;}
</style>
<g>
	<path class="st0" d="M318,25c5.2,0.2,14.9,7.8,19.2,10.3c12.6,7.3,25.1,14.6,37.7,21.8c4.8,2.6,10.6,4.8,14.2,8.6
		c-0.1,26.6-0.2,53.3-0.2,79.9c-4,4.7-12.2,7-17.5,10.3c-11.6,7.3-23.8,13.6-35.8,20.6c-4.2,2.5-12,9-17.3,9.4
		c-23-13.3-46.1-26.6-69.1-39.8c-0.1-20-0.2-40-0.2-60c0-6.3-1.6-18.1,1.2-22.1C272.7,51,295.4,38,318,25z M685,161.3
		c4.4,0.4,15.9,8.6,19.9,11c16.7,10.1,35.3,18.1,50.9,29.5c0,19.4,0,38.7,0,58.1c0,5.7,1.3,19.6-0.7,23.5
		c-23,13.2-46.1,26.4-69.1,39.6c-5.7-0.8-11.7-6.4-16.3-9.1c-12-7.2-24.3-14.6-36.5-21.1c-4.6-2.5-15-6.7-17.8-10.6
		c0-19.7,0-39.4,0-59c0-6.4-1.7-18.5,1.2-22.6C639.4,187.5,662.2,174.4,685,161.3z M473.3,178.3c6.1,1.2,12.2,6.9,17.3,9.8
		c11.4,6.6,22.7,13.1,34.1,19.7c4,2.5,17.1,7.8,19,11.3c0,26.9,0,53.8,0,80.6c-2.4,3.4-17.5,10.3-22.1,13
		c-15.8,9.2-31.7,18.4-47.5,27.6c-5.2-0.9-10.6-5.9-14.9-8.4c-12.7-7.4-25.4-14.7-38.2-22.1c-3.7-2.1-15.6-7.2-17.3-10.3
		c0-27,0-53.9,0-80.9C426.9,205.2,450.1,191.8,473.3,178.3z M232.3,433c11.9,0,23.8,0,35.8,0c0.3-18.5,0.8-24.6-15.4-27.4
		c-0.3-0.9-0.8-1.7-0.5-2.6c0.4-0.5,0.8-1,1.2-1.4c7.1-0.1,36.3-1.4,40.1,0.7c0,0.2,0,0.3,0,0.5c0.4,1.3,0.2,2-0.5,3.1
		c-15.7-0.3-15.1,11.7-14.9,27.1c11.4,0,22.7,0,34.1,0c-0.1-15.1,0.4-23.7-6-32.4c-2.5-3.4-7.2-6.3-11-8.2c-2.6-1-5.3-1.9-7.9-2.9
		c-0.8-1.2,0.1-2.7,0.5-3.4c6.9-1.3,22.5,3.2,29.8,4.3c0-2.1,0-4.2,0-6.2c-3.2-7-15-5-25-5c-14.7,0-29.4,0-44.2,0
		c-5.5,0-14.4-1.2-18.2,1c-2.9,1.7-3.1,5.1-3.8,9.1c-1.8,0.7-2.3,0.7-3.8-0.2c0-21,0-41.9,0-62.9c-1-5.4-2.1-11-2.6-16.3
		c0.4-0.3,0.8-0.6,1.2-1c5.8,0.3,26.8-1,30.2,1c0.1,1.3,0.3,3-1,3.6c-1.3,0-2.6,0-3.8,0c-4,0.7-7.9,1.9-10.1,4.3
		c-5.3,6-4.1,18.7-4.1,30c11.9,0,23.8,0,35.8,0c0.1-12.4,0.7-22.8-8.2-26.2c-2.5-0.5-5-1-7.4-1.4c0-0.9,0-1.8,0-2.6
		c0.2-0.3,0.3-0.6,0.5-1c10.2-0.1,20.3-0.2,30.5-0.2c3.2,0,8.8-0.8,10.1,1.2c0,0.8,0,1.6,0,2.4c-2.9,0.7-5.8,1.4-8.6,2.2
		c-7.8,4-6.9,13.8-6.7,25.7c11.4,0,22.7,0,34.1,0c0.2-19.2-0.7-30.1-12-37.7c-3.7-2.5-10.1-3.3-13.2-6.5c0-1.6,0.2-2,0.7-2.9
		c0.2-0.1,0.3-0.2,0.5-0.2c9.8,1.6,19.5,3.2,29.3,4.8c0-2.8,0-5.6,0-8.4c-3.3-6.2-14.9-4.3-24.2-4.3c-18,0-36,0-54,0
		c-6.3,0-15.8,2.8-19.2,0.5c0.2-5.4,11-13.8,14.2-17.8c14.3-16.2,28.6-32.5,43-48.7c-11.4,0-22.7,0-34.1,0c-4.4,0-11-0.8-13.7,1.2
		c-3,2.2-1.8,6.4-3.6,9.8c-5.4,0.1-3.6-5.5-3.6-10.3c0-10.8,0-21.6,0-32.4c0-3.7-1.6-12.5,3.4-10.6c0.5,0.3,0.1,0,0.5,0.5
		c2.4,4-0.4,7,4.3,9.6c3.5,1.9,13.1,0.7,18.7,0.7c15.4,0,30.7,0,46.1,0c9,0,26.3-2.8,29.3,2.4c4.1,7.1,4.8,16.5,7,25
		c4.1,17.4,8.2,34.9,12.2,52.3c6.2,26.1,12.5,52.2,18.7,78.2c4.2,15.2,5.6,28.5,10.1,42.5c0.9,4.5,1.8,9,2.6,13.4
		c4.1,16.7,8.2,33.4,12.2,50.2c0.7,3.8,1.4,7.5,2.2,11.3c5,21.5,9.3,44.7,27.8,52.6c7.3,3.1,20.8,1.7,30.7,1.7
		c7.7,0,15.7,0.5,21.6-1.4c26.5-8.6,41.8-28.9,57.8-48c29.8-32.4,59.7-64.8,89.5-97.2c11.3-13.1,24.3-25,35-38.4
		c3.3-4.2,7.9-11.4,14.6-11.8c1,0.8,1.9,1.6,2.9,2.4c0.4,12.2-4.6,21.1-8.4,29.8c-6.8,18.2-13.6,36.3-20.4,54.5
		c-16,41.8-30.8,82.7-46.6,124.3c-7.9,20.7-14.2,40.8-22.8,61c-12.6,29.5-17.8,70.2-46.1,84.2c-10.7,5.3-45.2,2.6-61.4,2.6
		c-47.9,0-95.8,0-143.8,0c-0.3,2-0.6,4-1,6c51.4,0,102.9,0,154.3,0c10,0,20,0,30,0c5.4,0.2,10.7,0.3,16.1,0.5
		c16.9,3.5,29.4,14.1,32.6,31.2c0.1,7.5,0.2,15,0.2,22.6c0,25.4-0.9,38.5-16.1,48.7c-11.7,7.8-28.2,7.2-48.2,7.2
		c-27.3,0-54.6,0-81.8,0c-21.4,0-42.7,0-64.1,0c-6,0-21,1.4-24.7-1c-0.1-27.4-0.2-54.9-0.2-82.3c0,7.7-2.7,16-5.3,22.3
		c-12.1,29-26,47.2-56.9,57.4c-36.4,12-79.3-1.7-97.2-20.9c-11.8-12.6-18.5-26.8-24.7-45.4c-2.3-6.7-1.9-13.4-3.1-21.1
		c-6.3-38.2,8.2-84.8,28.8-101.5c10.9-8.9,22.3-16.6,38.2-20.6c5.9-1,11.8-1.9,17.8-2.9c2.1-0.3,6.2,0.4,8.4-0.5
		c-2.1-1.5-1.2-8.1-1.2-11.5c0-7.5-1.6-32.3,0.7-37c0.2-0.1,0.3-0.2,0.5-0.2c5.5,0.2,2.2,7.6,6.7,9.1c9.1,0,18.2,0,27.4,0
		c28.8,0,49.5,3.7,54-21.1c0.7-4.1-1-9-2.2-11.5c-6.8-15.1-25.4-13.2-47.3-13.2c-5.8,0-30.3-1.1-33.1,0.7c-2.5,1.6-1.4,5.5-2.9,8.2
		c-0.7,0.1-1.4,0.2-2.2,0.2c-1.1-0.3-1-0.3-1.4-1.2c0-10.3,0-20.6,0-31c0.4-0.3,0.8-0.6,1.2-1c1.9,0,2.1,0.5,3.1,1.2
		c0,3.8,0.3,6.3,2.6,7.7c2.7,1.6,27.7,0.5,33.1,0.5c24.6,0,39.9-1,50.4,13.4c1.7,2.3,3.9,4.7,4.6,7.9c0.1,0,0.2,0,0.2,0
		c0-9.9,0-19.8,0-29.8c0-4.8,0.6-9.7-2.2-11.8c-4-3-14.5-1.7-21.1-1.7c-20.9,0.1-41.8,0.2-62.6,0.2c-5.9,1.9-2.8,7.4-5.8,10.1
		c-0.7,0.4-1.4,0.5-2.2,0.2c-0.4-0.2-0.8-0.5-1.2-0.7c0-19.4,0-38.7,0-58.1c-0.3-4.7-0.6-9.4-1-14.2c-0.5-2.2-1.8-4.9-1.4-7.2
		c2.7-1.2,26.2-1.1,30.7-0.2c0.1,0.2,0.2,0.5,0.2,0.7c0.4,1,0.4,2.6-0.5,3.1c-1.7,0.1-3.4,0.2-5,0.2c-4.3,0.8-8.2,2.7-10.3,5.8
		C231,410.3,232.4,423.1,232.3,433z M464.6,348.7c10.2,1.7,6.1,26.9,7.9,38.2c1,22.1,2.1,44.2,3.1,66.2c1.9,11.5,2.6,29.4-0.7,39.1
		c-2.5,7.2-8.9,19.2-19.4,17.5c-11.9-1.9-29.6-3.5-35.8-11.5c-5.4-7.1-6.4-21.3-2.9-30.7c8.2-22.2,16.5-44.3,24.7-66.5
		C446.4,388,454.8,354.8,464.6,348.7z M120.7,809c110.9,0,221.8,0,332.6,0c23.9,0,47.8,0,71.8,0c5,0,9.9,0,14.9,0
		c6.8,1.6,14.1,7.5,12.5,16.8c-2.5,14.2-15.6,13-32.4,13c-23.5,0-47,0-70.6,0c-110-0.1-220-0.2-330-0.2c-8-2.3-14.8-12.2-9.8-21.6
		C112.2,812.2,116.1,811.7,120.7,809z"/>
	<path class="st1" d="M319,195.4c6.5,1.1,7.8,12.3,9.1,18c5.1,22,10.2,44,15.4,66c13.8,58.6,27.7,117.3,41.5,175.9
		c6.6,22.6,6.4,50.2,24,63.8c3.4,2.7,7.3,5.1,12,6.5c13.7,0.1,27.4,0.2,41,0.2c16.6-2.7,28-10.1,38.9-19
		c39.7-43.4,79.4-86.7,119-130.1c9.5-12,21.4-22,31-33.8c4.3-5.3,9-11.7,15.6-13.9c0.6,0.5,0.8,0.5,1.2,1.2c1.3,1.5,0.7,6.1,0,8.4
		c-3.2,9-6.4,17.9-9.6,26.9c-13,34.6-26.1,69.3-39.1,103.9c-18.3,49-36.6,97.9-55,146.9c-10.4,25.3-15,52.5-37.4,65.8
		c-10,5.9-43.5,3.4-60.5,3.4c-49,0-98.1,0-147.1,0c0-0.2,0-0.5,0-0.7c9.3-26.1,25.5-42.4,39.6-63.4c17-25.4,28-49.4,33.4-82.8
		c0.9-5.7,0.7-12.8-0.2-18.2c-4.5-26-10.2-44-32.2-55c-6.5-3.2-18.7-8.2-28.3-6.5c-0.2,0.5-0.3,1-0.5,1.4c6,9,10.9,18.7,13.7,30.5
		c7.7,33-4.9,70.2-14.2,93.8c-2.6,7.4-5.3,14.9-7.9,22.3c-0.9,2.5-1.5,7.8-3.6,9.1c0.1-25.3,0.2-50.6,0.2-75.8
		C319,425.3,319,310.3,319,195.4z M464.6,350.2c8.6,1.3,5.2,30.6,7,41.5c0.8,17.8,1.6,35.5,2.4,53.3c0.2,5.4,0.5,10.9,0.7,16.3
		c1.3,8,1.8,18.8,0,26.6c-1.9,8.6-8,22.6-19.4,20.6c-9.6-1.6-28.8-3.6-33.8-10.3c-4.5-5.9-7.2-16.7-4.3-26.9
		c8.4-22.9,16.8-45.8,25.2-68.6c4.2-11.7,8.5-23.4,12.7-35C458,360.9,458.8,354.1,464.6,350.2z M318.7,801.6
		c0.1-35.8,0.2-71.7,0.2-107.5c51.9,0,103.8,0,155.8,0c23.9,0,51.3-2.7,63.6,8.9c18.4,17.4,11.3,34.9,13,67c0.3,5.6-4.3,12.6-7,15.8
		c-13,16.3-26.3,15.8-55.2,15.8C432.3,801.6,375.5,801.6,318.7,801.6z M121,810.5c108.5,0,217,0,325.4,0c23.8,0,47.7,0,71.5,0
		c9.6,0,23-1.6,28.1,2.6c2.3,1.9,4.5,5.1,5.3,8.4c0,1.7,0,3.4,0,5c-2.8,12.3-15.1,11-30.2,11c-24.2,0-48.5,0-72.7,0
		c-109.4-0.1-218.9-0.2-328.3-0.2c-7.1-2.1-14.9-12.4-8.6-20.6C114,813.3,116.7,812.4,121,810.5z"/>
	<path class="st2" d="M317.8,26.2c8,0,14.5,7.4,19.9,10.8c16.7,9.7,33.4,19.4,50.2,29c0,26.6,0,53.1,0,79.7
		c-16.3,9.4-32.6,18.7-49,28.1c-4.4,2.6-15.7,10.8-20.4,11.5c-22.8-13.2-45.6-26.4-68.4-39.6c0-26.8,0-53.6,0-80.4
		C272.6,52.2,295.2,39.2,317.8,26.2z M292.6,64.6c-8,14.1-16,28.2-24,42.2c7.4,0,14.7,0,22.1,0c8-14.1,16-28.2,24-42.2
		C307.3,64.6,299.9,64.6,292.6,64.6z M331.4,64.6c-15.7,27.4-31.4,54.7-47,82.1c7.2,0,15.6,0.5,22.1-0.5
		c15.7-27.2,31.4-54.4,47-81.6C346.2,64.6,338.8,64.6,331.4,64.6z M347.3,104.4c-8,14.1-16,28.2-24,42.2c7.4,0,14.7,0,22.1,0
		c8-14.1,16-28.2,24-42.2C362,104.4,354.6,104.4,347.3,104.4z M684.7,162.5c4.6,0.7,15.4,8.5,19.7,11c16.6,9.5,33.1,19,49.7,28.6
		c0,26.8,0,53.6,0,80.4c-16.7,9.5-33.4,19-50.2,28.6c-4.7,2.8-13.9,10-19.2,10.8c-22.8-13.3-45.6-26.6-68.4-39.8
		c0-26.6,0-53.3,0-79.9C639.1,188.9,661.9,175.7,684.7,162.5z M472.8,179.8c5.2,0.5,14.9,8.1,19.4,10.8
		c16.8,9.6,33.6,19.2,50.4,28.8c0,26.7,0,53.4,0,80.2c-16.4,9.3-32.8,18.6-49.2,27.8c-4.4,2.6-15.7,10.8-20.4,11.5
		c-22.8-13.2-45.6-26.4-68.4-39.6c-0.1-19.8-0.2-39.7-0.2-59.5c-0.5-3.6-0.6-18.9,0.7-20.4C427.7,206.2,450.2,193,472.8,179.8z
		 M658.8,201.4c-7.9,14-15.8,28-23.8,42c7.2,0,15.6,0.5,22.1-0.5c8-13.8,16-27.7,24-41.5C673.7,201.4,666.2,201.4,658.8,201.4z
		 M697.7,201.4c-15.6,27.3-31.2,54.6-46.8,81.8c7.4,0,14.7,0,22.1,0c15.7-27.3,31.4-54.6,47-81.8
		C712.6,201.4,705.1,201.4,697.7,201.4z M447.1,218.4c-8,14.1-16,28.2-24,42.2c7.4,0,14.7,0,22.1,0c8.1-14.1,16.2-28.2,24.2-42.2
		C462,218.4,454.6,218.4,447.1,218.4z M486,218.4c-15.6,27.3-31.2,54.6-46.8,81.8c7.2,0,15.6,0.5,22.1-0.5
		c15.6-27.1,31.2-54.2,46.8-81.4C500.7,218.4,493.4,218.4,486,218.4z M713.8,241c-8,14.1-16,28.2-24,42.2c7.4,0,14.7,0,22.1,0
		c8.1-14.1,16.2-28.2,24.2-42.2C728.6,241,721.2,241,713.8,241z M502.1,258c-8,14.1-16,28.2-24,42.2c7.4,0,14.7,0,22.1,0
		c8-14.1,16-28.2,24-42.2C516.8,258,509.4,258,502.1,258z M223.4,185.3c0.6,0,1.3,0,1.9,0c1.1,13.6,12.7,11.3,26.9,11.3
		c22.3,0,46.4-0.2,67-1.2c0,1.9,0,3.8,0,5.8c-18.2,20.4-36.5,40.8-54.7,61.2c11.5,0,23,0,34.6,0c4.6,0,11.7,1,15.4-0.5
		c2.2-0.9,2.5-4.1,4.8-5c0,13.4,0,26.7,0,40.1c-0.3,0-0.6,0-1,0c-1.2-7.7-15-5.5-23.8-5.5c-20,0-40,0-60,0c-4.3,0.6-8.6,1.3-13,1.9
		c0-0.9,0-1.8,0-2.6c19.4-21.8,38.9-43.5,58.3-65.3c-11.8,0-23.5,0-35.3,0c-5,0-12.1-0.8-15.4,1.2c-2.9,1.8-3.5,5.7-3.8,10.1
		c-0.6,0-1.3,0-1.9,0C223.4,219.5,223.4,202.4,223.4,185.3z M288.2,301.9c10.3,1.5,20.6,3,31,4.6c0,25.8,0,51.7,0,77.5
		c-0.3,0-0.6,0-1,0c-1.3-8.2-16.5-6-25.9-6c-15,0-29.9,0-44.9,0c-6.5,0-15.1-0.9-19,1.9c-2.6,1.8-2.2,5.3-3.1,8.9
		c-0.6,0-1.3,0-1.9,0c0-17.7,0-35.4,0-53c-1.3-8.4-2-17.6-2.4-25.4c9.8,0.1,19.5,0.2,29.3,0.2c0,0.6,0,1.1,0,1.7
		c-20.1,1-19.4,16-19.2,37c12.7,0,25.4,0,38.2,0c0.3-15.8,0-29.7-15.8-29.5c0-0.6,0-1.3,0-1.9c13,0,26.1,0,39.1,0c0,0.6,0,1.3,0,1.9
		c-15.9-0.2-16.1,13.7-15.8,29.5c12.2,0,24.5,0,36.7,0c0.3-29.7-2.9-37.8-25.2-45.4C288.2,303.2,288.2,302.6,288.2,301.9z
		 M288.2,387.1c10.3,1.5,20.6,3,31,4.6c0,25.8,0,51.7,0,77.5c-0.3,0-0.6,0-1,0c-1.1-8.2-16.5-5.8-25.7-5.8c-15.4,0-30.7,0-46.1,0
		c-5.5,0-14.5-1.1-17.8,1.4c-2.6,2.1-2.4,5.2-3.4,9.1c-0.6,0-1.3,0-1.9,0c0-19.2,0-38.4,0-57.6c-0.7-7-1.4-14.1-2.2-21.1
		c8.9-0.1,21.1-1.7,29,0.5c0,0.6,0,1.1,0,1.7c-20.8,1.6-19.4,15.2-19.2,37c12.7,0,25.4,0,38.2,0c0.3-17.7,0.4-27.7-15.8-29.5
		c0-0.6,0-1.3,0-1.9c0.2,0,0.3,0,0.5,0c12.9,0,25.8,0,38.6,0c0,0.6,0,1.3,0,1.9c-15.8,1.2-16.1,12.7-15.8,29.5c12.2,0,24.5,0,36.7,0
		c0.3-29.4-3-38-25.2-45.4C288.2,388.4,288.2,387.8,288.2,387.1z M223.4,585.6c0-15.5,0-31,0-46.6c0.6,0,1.1,0,1.7,0
		c0.2,3.4,0.8,6.7,2.9,8.2c3.7,2.6,25.6,1,32.2,1c29,0,47,1.8,52.3-22.8c1-4.8-1.3-9.5-2.9-12.2c-9.4-15.9-27.5-13.4-52.1-13.4
		c-10.4,0-24.7-1.5-31.2,2.6c-0.5,2-1,4-1,6.7c-0.7,0-1.4,0-2.2,0c0.1-10.2,0.2-20.5,0.2-30.7c0.6,0,1.1,0,1.7,0c0,0.2,0,0.3,0,0.5
		c1.2,3,0.5,5.6,2.9,7.2c3.4,2.3,11.3,1.4,16.8,1.4c14.3,0,28.6,0,43,0c20.7,3.9,31.4,14.7,31.4,40.3c-0.1,5-0.2,9.9-0.2,14.9
		c-1.2,5.8-2.4,12.1-5,16.6c-5.5,9.5-13.7,14.8-25.9,17c-14.2,0-28.5,0-42.7,0c-5.6,0-13.6-0.9-17,1.4c-2.3,1.6-2.7,4.5-3.1,7.9
		C224.6,585.6,224,585.6,223.4,585.6z M332.4,458.2c10,1.2,18,1.6,25.4,4.8c13.4,5.8,21.2,16.1,27.4,29.3c1.1,2.3,4.9,9.2,4.1,11.8
		c1.5,4.1,2.9,9.5,2.6,14.4c-0.3,7.6,1.6,16.4,0,24.2c-1.5,7.6-3,15.2-4.6,22.8c-8.8,29.3-24.3,51-40.1,73.2
		c-7.8,11-17.9,20.7-23.5,33.8c-2.3,5.3-4.2,11.3-5.5,17.3c-0.1,5-0.2,10.1-0.2,15.1c-1.5,8.5-1.2,18.5-3.6,26.4
		c-11.9,40.1-36.5,70.6-88.3,70.6c-8-0.3-16-0.6-24-1c-34.6-7.3-53.8-30.2-65.5-60.7c-4.3-11.1-4.7-23-5.8-36.2
		c-3.7-44.5,10.9-79.4,35.5-98.2c8.8-6.8,19.8-11.8,31.7-15.4c8-2.4,20.6-4.7,31-2.9c9.3,1.6,17.1,1.4,25,3.8
		c23.8,7.2,42.3,22.5,51.6,44.2c1.8,4.2,3.5,8.3,5.3,12.5c0.1,0,0.2,0,0.2,0c-0.2-6.2,2.2-11,3.6-15.8c1.9-6.7,3.3-13.7,6-20.2
		c1.7-5.4,3.4-10.9,5-16.3c1.9-5.3,3.8-10.6,5.8-15.8c5.4-14,9.4-28.4,12.5-43.2c3.5-17,2.8-40.3-2.9-55c-2.1-4.6-4.2-9.3-6.2-13.9
		c-1.4-2.4-4-4.9-4.6-7.9c0.2-0.5,0.5-1,0.7-1.4C331.4,458.3,331.9,458.2,332.4,458.2z M222.7,645.1c-3.8,0.2-7.7,0.3-11.5,0.5
		c-5.5,0.6-11,1.3-16.6,1.9c-20.2,3-40.6,13.6-47.8,30.5c-3,7-2.5,16.9-2.6,24.5c-0.2,10.6,11.4,22.2,18.5,26.9
		c30.5,20.3,97.1,20.8,126-1.4c15.5-11.9,21.8-42.2,6.7-59.5C280.3,651,253.8,645.5,222.7,645.1z"/>
</g>
</svg>
