<?xml version="1.0" encoding="utf-8"?>
<!-- Generator: Adobe Illustrator 26.0.3, SVG Export Plug-In . SVG Version: 6.00 Build 0)  -->
<svg version="1.1" id="Layer_2" xmlns="http://www.w3.org/2000/svg" xmlns:xlink="http://www.w3.org/1999/xlink" x="0px" y="0px"
	 viewBox="0 0 439.4 504.6" style="enable-background:new 0 0 439.4 504.6;" xml:space="preserve">
<style type="text/css">
	.st0{fill:#D61E39;}
</style>
<path class="st0" d="M220.1,2.5C148.5,43.9,74.9,85.9,3.3,127.3c0,82.9,0,166.8,0,249.7c71.7,41.4,145.1,83.6,216.9,124.9
	C291.9,460.5,365.3,418.4,437,377V127.4C365.1,86,292,43.9,220.1,2.5z M432.5,374.5c-70.8,40.7-141.6,81.5-212.3,122.3
	C149.4,456.1,78.7,415.4,7.9,374.6c0-81.6,0-163.3,0-244.8C78.6,89,149.3,48.3,220.1,7.6C290.9,48.3,361.7,89,432.5,129.9V374.5z"/>
<path class="st0" d="M129.2,122.7c-25.7,44.5-51.9,89.5-77.6,134c24.7,0,49.9,0,74.6,0c25.6-44.4,51.9-89.6,77.5-134H129.2z
	 M123.6,252.2c-21.2,0-43-0.1-64.2-0.1c23.9-41.4,48.5-83.4,72.3-124.8c21.2,0,43.1,0,64.2-0.1C172.1,168.6,147.4,210.8,123.6,252.2
	z"/>
<path class="st0" d="M257.6,122.8C241.9,150.1,108.8,380.4,108,381.6c24.6,0.1,49.9-0.1,74.6-0.1c49.6-85.8,100-172.8,149.6-258.6
	C329.4,122.8,310.1,122.7,257.6,122.8z M180,377c-21.3,0-43,0.1-64.3,0.1c47.8-82.8,96.7-166.9,144.5-249.8h64.3
	C276.8,210.1,227.8,294.2,180,377z"/>
<path class="st0" d="M313.8,247.8c-25.6,44.4-51.6,89.4-77.2,133.7c24.6,0,49.7,0.1,74.4,0.1c25.6-44.4,51.8-89.5,77.4-133.8
	C363.8,247.8,338.5,247.8,313.8,247.8z M308.2,377.1c-21.3,0-42.7-0.1-64-0.1c23.9-41.3,48.5-83.6,72.3-124.9
	c21.2,0,43.1,0,64.2-0.1C356.9,293.3,332,335.8,308.2,377.1z"/>
<g>
</g>
<g>
</g>
<g>
</g>
<g>
</g>
<g>
</g>
</svg>
