<svg id="Layer_1" data-name="Layer 1" xmlns="http://www.w3.org/2000/svg" viewBox="0 0 419.51 476.21"><defs><style>.cls-1{fill:#d61e39;}</style></defs><path class="cls-1" d="M158.05,233.34c1.25.8,3.58,2.19,4-.33.34-1.92-1.42-3.88-1.65-5.75-.27-2.13,3.73-8.64,6-8.9,1.69-.2,5.89,5.06,5.85,6.66,0,1.4-2.11,2.61-3,3.52a20.86,20.86,0,0,0-4.21,6.4c-.54,1.29-.64,3.32-1.72,4.29s-5.41.65-6.05-.82.19-3.71.77-5.07" transform="translate(-1.43 -1.02)"/><path class="cls-1" d="M33.89,228.73c-2.47-.91-6.34-.19-9-.19H4.45v65.92c0,1.15-.46,3.65.56,4.47s3.64.33,4.88.33c5.22,0,10,0,12.74-5.44,1.05-2.1.38-5.7.38-8V270.46c0-2.28-.47-5.15.14-7.36.55-2,2.91-3.69,4.34-5.12,3.65-3.65,9.7-7.84,12-12.48C42.12,240.27,39.58,230.83,33.89,228.73Z" transform="translate(-1.43 -1.02)"/><path class="cls-1" d="M122.53,273.68c-2.94-2.44-6.62-1.89-10.19-1.89-6.39,0-13.34.68-19.52-1.28h0v2.56c-3.52.6-6.73,2.85-10.24,3.34-3.08.43-6.47-3.61-8.81.83-2,3.68,1.55,4.69,2.31,7.67.85,3.34.1,7.76.1,11.2H86.1c1.37,0,3.1.16,3.83-1.3s-.82-2.6-1.32-3.82a5,5,0,0,1,3.25-6.51c3.23-1,6.75,2.27,6.08,5.55-.29,1.39-1.66,2.46-1.77,3.84-.15,1.81,2.31,3.21,3.27,4.48s.83,3,.65,4.48a19.14,19.14,0,0,1-3.41,9c-1.31,1.81-3.5,3.13-3.86,5.44,6.08-.26,12.1-.64,18.24-.64,3.6,0,7.38.46,10.56-1.59,2.82-1.81,4.42-5.18,5.25-8.33a38.81,38.81,0,0,0,.83-9.92C127.7,289.41,128.9,279,122.53,273.68Zm-45.37,4.1c2.1-.58,3,2.76.92,3.4S74.91,278.4,77.16,277.78ZM85,292.08c-3.53,1.74-6.29-.22-6.3-3.65,0-1.3-.59-3.68,1-4.28C82.8,283,88.72,290.27,85,292.08Zm7.27-12.69c-1.13.9-5.52,3.15-6.9,3.14a1.65,1.65,0,0,1-1.14-2.89c1.29-1.19,5.46-2.59,7.21-2.63A1.3,1.3,0,0,1,92.31,279.39Zm26.75-3.65h0c1.57-.38,2.61,1.26,3.27,2.4,1.85,3.15,2.12,6.67,2.12,10.24,0,1.49.21,3.57-1.61,4.06-4.29,1.14-5.9-2.74-4.6-6.3.57-1.55,2.14-2.39,2.3-4.16C120.67,280.44,116.77,276.28,119.06,275.74Zm-3.24,4.16c2.33-.47,3,3.2.62,3.54A1.8,1.8,0,0,1,115.82,279.9Zm-2.9,11.9c-2.88.75-7.58.41-10.55.07a1.82,1.82,0,0,1-1.85-1.89c0-2.78,8.81-4.7,11.13-5C115.22,284.5,115.79,291.05,112.92,291.8Zm-14.07-7.26c-2.75-1.31-4.42-8.24-.92-9.73h0c2.92-1.24,8.31-.19,11.48-.19,1.23,0,3-.3,4.09.24,2.71,1.27-1.61,6.28-3.14,7C107.83,283,101.48,285.78,98.85,284.54Zm14.36,28.66c-2.74.85-6.69.14-9.56.14-1,0-2.53.23-3.33-.56-1.29-1.27,1.34-8.2,3-8.55,3-.63,7.67,2,9.21,4.31C113.35,309.71,115.82,312.4,113.21,313.2ZM112,303.56c-2.42-.17-7.22-1.59-9.15-3.05a3,3,0,0,1-.53-4c1.26-1.48,9-1,10.95-.74h0C116.14,296.09,115.56,303.8,112,303.56Zm4.16,4.51c-2.2,0-2.14-3.45,0-3.51C118.49,304.5,118.47,308.07,116.13,308.07Zm6.84.47c-.56,1.37-1.62,3.61-3.32,3.81a1.22,1.22,0,0,1-1.39-1.58c.49-1.68,2.28-2.54,2.28-4.47,0-2.42-6.12-9.83-.25-10.78C127,294.43,124.51,304.79,123,308.54Z" transform="translate(-1.43 -1.02)"/><path class="cls-1" d="M75.17,323.58c0-3.95.88-9.12-.75-12.8-1.27-2.87-3.86-4.84-5.64-7.36a34,34,0,0,1-5.31-12.8c-1.17-5.84-.46-12.3-.46-18.24,0-2.89.72-5.84-2.24-7.56-2.72-1.58-5.94-1.4-9-1.4-4.69,0-9.39-.05-14.08,0-2.36,0-5.56.46-7.23,2.31-1.89,2.08-.8,5.13-.77,7.61.07,5.9.43,12.12-.8,17.92a32.74,32.74,0,0,1-5.28,12.16c-1.78,2.46-4.4,4.52-5.56,7.36-1.6,3.93-.84,9-.84,13.12v25.92c0,4.83-.65,9.49,2.8,13.39,1.06,1.2,6.24,1.88,7.39.5.83-1,.74-3,1-4.29.62-2.79,2-6.08,4.48-7.63,2-1.23,4.49-1,6.72-1H53.41c2.54,0,5.3-.11,7.33,1.71,3.09,2.76,3.47,7.92,4.19,11.73h0c2.14,0,6.08.81,7.57-1,3.27-4,2.67-8.56,2.67-13.39ZM57.91,267.14c2-.7,3.49,2.27,1.51,3.13C57.29,271.17,55.56,268,57.91,267.14Zm-7.36,26.45c-1.42,0-3.49-.11-4.92-.11.64-1.06,6-9.07,6.78-10.44,1.43.08,3.39,0,4.81.11C56,285.12,51.75,291.83,50.55,293.59ZM54,305.42c-2.22.86-3.44-2.64-1.22-3.39S56,304.62,54,305.42Zm.75-32.61c-4.44,6.86-9,13.93-13.45,20.78l-4.91-.11c2.72-4.09,10.33-15.79,13.56-20.78C51.43,272.7,52.94,272.7,54.76,272.81Zm-13.88-.11c2.32.08,2.67.14,4.7.11-2.86,4.58-3,4.84-6.67,10.34-1.46,0-3.77,0-4.81-.11C35.26,281.36,38.51,276.31,40.88,272.7Zm-7.6-5.56c1.95-.72,3.47,2.28,1.5,3.13C32.64,271.18,31,268,33.28,267.14ZM32,305.66a1.73,1.73,0,1,1-.62,3.4A1.73,1.73,0,0,1,32,305.66Zm23,36.62a16.11,16.11,0,0,1-6.72,2.33c-16.44,2.14-24.76-20.48-10.56-29.28a16.19,16.19,0,0,1,6.4-2.22C60.48,311,69,333.22,55,342.28Zm5.75-33.17a1.73,1.73,0,1,1,.32-3.45C63.21,305.91,62.93,309.28,60.76,309.11Z" transform="translate(-1.43 -1.02)"/><path class="cls-1" d="M192.7,180.22h0c-1.31,2.45-2.74,5.81-5.12,7.37-1.74,1.14-4.11,1.44-6.08,2-8.07,2.3-21.77,2.94-26.71,10.47-5.91,9-10.94,18.8-16.31,28.16-2.3,4-6.22,8.75-6.84,13.44-1,7.39,3.18,16.56,5.11,23.68.6,2.24,1.88,5,1.78,7.36-.13,3.12-2.88,5.88-4.07,8.64l5.12,2.56c2.12-4,4.62-7.84,6.79-11.84.83-1.52,2.4-3.32,2.4-5.12,0-5.09-2.81-11.42-4.21-16.32-.53-1.86-1.71-4.46-1.24-6.4.93-3.92,4.36-8,6.36-11.52,4.72-8.22,9.34-16.52,14.22-24.64,1.74-2.89,4.6-3.35,7.68-4.12,4.94-1.24,11.45-2,16-4.34,1.62-.84,2.46-3.15,3.36-4.66,2.35-4,5-8,6.91-12.16Zm-48.39,80.64c.32,1.68.12,3.53-1.85,4a3,3,0,0,1-3.44-2.1,84.31,84.31,0,0,1-3.51-13.12c-.36-1.76-.28-3.81,1.83-4.34h0a2.78,2.78,0,0,1,3.36,1.79A83.55,83.55,0,0,1,144.31,260.86Zm3.93-33.92c-1.13,4-4.51,8.25-6.64,11.84-.77,1.31-1.42,3.13-3.08,3.45-2,.38-4.18-.44-3.7-2.81.83-4.17,4.75-8.8,6.86-12.48.78-1.35,1.6-3.28,3.25-3.7C147.31,222.64,148.86,224.77,148.24,226.94Zm12.17-21.12c-1.13,4-4.33,7.94-6.39,11.52-.75,1.31-1.5,3.08-3,3.65-2.5.94-4.26-1.32-3.57-3.65,1.17-4,4.38-7.9,6.41-11.52.7-1.24,1.55-3.4,3-4h0C159.33,200.84,161,203.65,160.41,205.82Zm20-7.75c-2.85,2-8.09,2.47-11.45,3.31-1.39.35-3,1.13-4.48,1.07-2.68-.1-3.35-3.88-1.25-5.24,3.39-2.19,10.68-3.57,14.69-4.09C180.7,192.75,183.16,196.13,180.38,198.07Z" transform="translate(-1.43 -1.02)"/><path class="cls-1" d="M23,170.94V150.78c-3.9,0-11.33-1.42-14.69.71s-1.95,8.74-1.95,12.09a19,19,0,0,0,0,3.84,4.9,4.9,0,0,0,2.25,2.93c3.3,2,10.6.59,14.4.59Zm-7.71-4.43c-2.17.72-3.42-2.59-1.23-3.37S17.47,165.79,15.3,166.51Zm0-7.93c-2,.7-3.49-2.25-1.51-3.13C16.07,154.45,17.67,157.74,15.31,158.58Zm6.46,10-3.53.26c-.12-3.46-.16-3.71-.1-7a31.44,31.44,0,0,1,3.63.11Zm0-8.95-.11.1H18.14l-.11-.05c0-2.29.08-4.54.11-6.82h3.52l.11.11Z" transform="translate(-1.43 -1.02)"/><path class="cls-1" d="M226.84,8.8c-2.93-.77-6.48.83-9.26-.64C215.37,7,213.79,3.21,212.77,1l-6.08,3.07-11.52,6.66L159,31.61,35.17,103.1c.81,2.55,3.88,5.28,3.74,8-.16,3-3.32,5.48-4.15,8.32-.74,2.51,2.71,6.54,3.93,8.64.5.87,1,1.91,2,2.32,3,1.29,8.51.24,11.81.24,5,0,11.86,1.23,16.64-.21,2.66-.8,5.29-2.86,7.68-4.27,4.78-2.8,9.62-5.51,14.4-8.32,34.51-20.27,69.38-39.93,104-60,5.43-3.16,10.9-6.24,16.32-9.42,2.45-1.44,5.52-2.65,7.61-4.6,3.6-3.36,5.94-9.7,8.39-14,1.7-2.95,5.06-6.87,5.62-10.24C233.5,17.24,229.16,9.41,226.84,8.8ZM199,12.23c.82-2.46,8.37-6.38,10.86-6.91,2.27-.48,4.15,2,4.41,4,.28,2.23-2.5,7.55-4.74,8.18C206.12,18.49,197.11,18,199,12.23Zm-15.87,9c1.07-2.41,8.19-6.07,10.73-6.6h0c2.4-.51,4.27,1.8,4.52,4s-2.66,7.56-4.85,8.18C190.23,27.74,180.56,27.05,183.16,21.19ZM87.38,88.06c.85-1.48,1.65-3,3.47-3.41,2.2-.45,6.52-.67,8.25.94C102.73,89,103.24,93,100.91,97c-.76,1.3-1.44,2.94-3,3.38-1.92.54-7.27.78-8.78-.64C85.33,96.23,85,92.22,87.38,88.06ZM84.87,106.3c-.74,1.32-1.4,2.94-3,3.38-2,.55-7,.73-8.56-.64-4-3.4-4.14-7.57-1.87-11.7.74-1.36,1.46-2.93,3.08-3.38,2-.55,6.91-.72,8.53.66C87.14,98.07,87.17,102.17,84.87,106.3Zm18.32-27.2c.75-1.3,1.45-2.94,3-3.38,2-.55,7.28-.77,8.84.64,3.71,3.37,4.1,7.35,1.81,11.38-.73,1.29-1.43,3-3,3.38-2,.56-7.25.76-8.85-.64C101.32,87.21,100.93,83.05,103.19,79.1Zm16-9.28c.77-1.34,1.39-2.93,3-3.38,1.94-.54,7.23-.78,8.76.66,3.64,3.43,4.09,7.28,1.87,11.36-.69,1.27-1.44,3.05-3,3.5-1.72.51-7.46.65-8.83-.51C117.26,78.25,116.94,73.74,119.19,69.82Zm15.95-9.28c.77-1.33,1.47-2.94,3.07-3.38,2-.55,7-.73,8.57.64,3.91,3.35,4.27,7.64,1.86,11.7-.78,1.32-1.46,2.93-3.07,3.38-2,.55-7,.73-8.57-.64C133.06,68.87,132.8,64.62,135.14,60.54Zm16-9.28c.84-1.47,1.63-3,3.43-3.41,2.09-.43,6.47-.67,8.2.76,3.92,3.24,4.23,7.61,2,11.61-.76,1.33-1.52,2.94-3.11,3.38-2,.54-7.24.78-8.77-.68C149.06,59.32,148.7,55.47,151.1,51.26Zm17.39-11.45c1.51-1.7,6.32-1.32,8.44-1.1h0c1.82.18,2.64,1.87,3.5,3.27,2.59,4.22,2,8.15-1.7,11.74-1.58,1.51-6.14.94-8.2.71-1.86-.21-2.54-1.7-3.39-3.17C164.66,46.93,165,43.74,168.49,39.81Zm14.58-7.11c.71-1.19,1.38-2.65,2.83-3.06h0c1.93-.55,7.29-.78,8.82.64,3.78,3.48,4.15,7.59,1.73,11.7-.8,1.35-1.59,2.87-3.2,3.34-2.14.62-6.9.75-8.57-.85C180.86,40.82,180.54,36.94,183.07,32.7Zm-15.73-2.53c1.39-2.25,8.83-6.61,11.51-6.53,6.52.19,2.19,9.21.12,11.55-1.55,1.74-5.67,1.15-7.8,1C168.69,36.05,165.82,32.62,167.34,30.17Zm-15.77,9c1.53-2.17,8.31-6.07,11-6.32,2.18-.2,3.9,2.39,4.08,4.34.25,2.7-3.25,8-6,8.29a40.46,40.46,0,0,1-4.8,0C153,45.42,149.53,42.05,151.57,39.16ZM135.25,49c.93-2.48,8.42-6.43,11-6.92,2.29-.44,4.07,2,4.36,4,.32,2.25-2.69,7.81-5,8.25C142.31,55,133.06,54.9,135.25,49Zm-15.9,9.28c.85-2.56,8.29-6.41,10.86-6.92,2.4-.48,4.14,1.85,4.41,4s-2.65,7.8-5.06,8.25C126.17,64.3,117.44,64.13,119.35,58.31Zm-15.87,9c1.1-2.51,7.82-5.88,10.41-6.57s4.59,1.57,4.76,4-2.59,7.5-5.08,8.18C110.3,73.78,101,73,103.48,67.27ZM87.84,75.93c1.51-2.16,8.36-6.13,11-6.26,2.34-.13,3.87,2.55,3.9,4.63,0,2.86-3.18,7.82-6.14,8-1.85.1-4.29.35-6.08-.17C88.34,81.48,86.4,78,87.84,75.93ZM71.47,86.14c.67-2.7,8.43-6.74,11.06-7.23h0c2.31-.43,4,2,4.34,4s-2.73,7.82-5,8.25C78.44,91.83,70,91.94,71.47,86.14Zm-15.9,9c1-2.59,8.33-6.39,11-6.91,2.32-.46,4.16,1.9,4.41,4,.26,2.31-2.75,7.63-5,8.22C62.65,101.26,53.51,100.73,55.57,95.1Zm-15.73,9c.92-2.38,7.93-6,10.37-6.6h0c2.53-.6,4.54,1.61,4.75,4s-2.76,7.54-5.07,8.18C46.38,110.65,37.6,109.88,39.84,104.07Zm13.32,20.47c-.64,1.19-1.31,2.74-2.64,3.28-1.86.75-7.67.85-9.2-.5-3.88-3.42-4.06-7.68-1.67-11.74.66-1.12,1.26-2.51,2.56-3,1.86-.7,7.66-.79,9.15.59C55,116.54,55.36,120.5,53.16,124.54Zm13.68,3.38c-2,.58-8.45.9-10.14-.42-2.44-1.9.13-5.63,2.47-6,2-.37,6.21-.68,7.89.71S69.55,127.15,66.84,127.92ZM69,115.58c-.67,1.15-1.35,2.73-2.75,3.1-2,.52-7.53.76-9.05-.68-3.71-3.5-4-7.27-1.72-11.38.73-1.34,1.52-2.94,3.1-3.38,2.14-.59,7.21-.73,8.85.89C71.05,107.77,71.39,111.38,69,115.58Zm15.9,2.24c-1,2.56-8.07,6.05-10.64,6.78-2.42.69-4.44-1.63-4.73-3.9s2.51-7.54,4.74-8.18C77.47,111.59,87,112.11,84.85,117.82Zm15.78-9c-1.16,2.48-7.83,5.79-10.42,6.53s-4.43-1.55-4.73-4S88,104,90.22,103.26C93.53,102.22,103.31,103.06,100.63,108.85Zm16-9.28c-1.1,2.49-7.83,5.88-10.41,6.57s-4.72-1.54-4.85-4,2.72-7.62,5.17-8.19h0C109.79,93.18,119.15,93.81,116.62,99.57Zm15.91-9.28c-1,2.45-8.4,6.48-11,6.91-2.22.37-3.94-2-4.12-4-.26-2.78,2.51-8,5.4-8.53h0C126.19,84,134.79,84.6,132.53,90.29Zm16-9.27c-.94,2.56-8.08,6.1-10.64,6.83s-4.31-1.75-4.66-3.95,2.58-7.55,4.69-8.18C141.23,74.73,150.64,75.24,148.53,81Zm16-9.28c-1,2.66-8,6.1-10.64,6.84s-4.44-1.6-4.73-4,2.55-7.46,4.74-8.16h0C157.15,65.44,166.57,66.08,164.53,71.74Zm15.73-9c-.94,2.48-8.15,6.11-10.69,6.69-2.33.54-4.33-2-4.57-4.13s3-7.57,5.21-8.18C173.74,56.18,182.45,57,180.26,62.78Zm16-9.28c-1,2.54-8.4,6.4-11,6.86-2.25.39-4.18-2.24-4.31-4.3-.17-2.52,3.1-7.7,5.59-8.21C189.94,47.15,198.38,47.82,196.26,53.5Zm15.68-8.67c-1.54,2.21-8.32,6.11-11,6.35-2.06.18-3.49-1.93-3.77-3.76-.4-2.65,2.44-8.5,5.37-8.76h0c1.9-.16,5.57-.38,7.33.36S213.15,43.09,211.94,44.83Zm-2.69-8.75c-2.13.59-7.15.73-8.77-.95-3.55-3.68-3.92-7.51-1.41-11.71.8-1.33,1.52-2.7,3.14-3.07,2-.47,6.63-.73,8.25.65,3.86,3.28,4.33,7.67,1.93,11.7C211.6,34,210.85,35.64,209.25,36.08Zm8,5.1c-2.33.72-4.4-1.4-4.4-3.68s2.81-7.24,5-7.86C226,27.38,221.26,39.92,217.24,41.18Zm11.08-17.76c-.78,1.32-1.46,2.93-3.07,3.38-2.14.6-7.22.73-8.85-.89-3.63-3.6-4-7.3-1.57-11.45.67-1.17,1.35-2.66,2.75-3.06,1.95-.56,7.57-.8,9.1.64C230.35,15.5,230.72,19.39,228.32,23.42Z" transform="translate(-1.43 -1.02)"/><path class="cls-1" d="M187.44,96.47l-.12-18.26c0-2,.57-5.77-.34-7.62-.59-1.2-3.58-.91-4.6-.51-3.12,1.23-3.82,6.76-6.42,8.94-3,2.5-6.89.64-9.54,2.58-1.92,1.41-1.84,11,.29,12.19s5.22,0,7.66,1.31c4,2.21,6.11,13,12.06,10.07C188.08,104.36,187.44,98.11,187.44,96.47Zm-19.07-7.4c-.81-.13-.58-1.41.23-1.29A.66.66,0,1,1,168.37,89.07Zm7.52,0a.67.67,0,0,1-.23-1.33C176.48,87.59,176.69,88.93,175.89,89.07Zm3.6-4.71H181c-.66,1.11-1.33,2.11-2,3.2h-1.49C178.06,86.59,178.42,86,179.49,84.36Zm-1.28,6.29c1.33-2.09,2.65-4.18,3.95-6.29h1.6c-1,1.56-1,1.68-4,6.29Zm4.27,0h-1.6l1.92-3.09h1.6C183.76,88.56,183.06,89.66,182.48,90.65Z" transform="translate(-1.43 -1.02)"/><path class="cls-1" d="M232.93,117.5c-3.65-1.37-5.58,4.21-6.94,6.72-1.72,3.16-1.77,6.88-3.6,9.92-3.48,5.8-11.51,7.52-16.66,2.85-4.16-3.77-5.37-10-2-14.69,1.67-2.33,4.26-3.71,5.9-6.08,2-2.8,6.38-8.18,2.48-10.8-1.41-1-3.71-2.57-5.4-1.44-2.23,1.49-3.62,5.48-4.92,7.76-3.11,5.46-6.44,10.8-9.44,16.32-1.05,1.94-3,4.17-3.32,6.4-.43,2.89,3.84,3.21,4.76,5.44.73,1.77-1.11,2.9.09,4.8h0l-2.24.32,1,1.92-2.24.32,1,1.92-2.24.32.64,2.24h-1.92l1,1.92-2.24.32,1,1.92-2.24.32,1,1.6-1.92.32.64,1.92-1.92.32.64,1.92-1.6.32c.2,2.17,1.42,2.81,3.2,3.84,3.56,2,8.33,6.12,12.48,6.4l1.6-1,.32-.32-.64-1.92,1.92-.32-1-1.6,2.24-.64-1-1.6,2.24-.32-1-1.92,2.24-.32-1-1.92,1.92-.32-.32-2.24,1.6.32-.64-2.24h1.92l-.64-2.24c2.78-.09,2.74-3.06,5.12-3.58,2.67-.58,5.18,4.08,7.89,2.06,1.82-1.35,2.94-4.55,4.08-6.48,3.28-5.54,6.3-11.08,9.6-16.64,1.17-2,4-5.31,3.89-7.68C238.16,119.86,234.65,118.14,232.93,117.5Zm-26.2-10.37c2.13-.86,3.66,2.26,1.51,3.14S204.58,108,206.73,107.13Zm-13.18,28.41c-2.13.76-3.47-2.53-1.23-3.18S195.76,134.75,193.55,135.54Zm25.26,14.67a1.8,1.8,0,0,1-1.22-3.39C219.76,146,221,149.43,218.81,150.21ZM232.93,125c-2.13.32-2.62-3.08-.62-3.5C234.62,121.06,235.24,124.7,232.93,125Z" transform="translate(-1.43 -1.02)"/><path class="cls-1" d="M265.25,91.88c-2.21-1.36-4.47-2.63-6.72-3.91-9.2-5.23-18.34-10.59-27.52-15.86-7.79-4.47-15.89-10.74-24.32-13.81C203,63.94,199.82,70,196.45,75.9c-1.33,2.31-3.89,5.33-4.26,8-.84,6.11,5.84,12.42,11.62,13,1.87.2,4-.79,5.76-1.29,3.61-1,7.26-1.91,10.88-2.92,1.81-.52,4.52-1.73,6.4-1.25,2.2.56,4.44,2.36,6.4,3.49,4.38,2.5,8.78,5,13.12,7.55,2.1,1.25,5.19,3.85,7.68,4,5.82.28,8.41-3.49,11-7.88.69-1.17,2.54-3.36,2.4-4.77C267.35,92.84,266,92.34,265.25,91.88ZM201.5,87.23c-2.27,1-3.87-2.28-1.51-3.13C201.91,83.41,203.44,86.37,201.5,87.23ZM256,99.74c-2.31.47-3-3.11-.62-3.51S258.15,99.3,256,99.74Z" transform="translate(-1.43 -1.02)"/><path class="cls-1" d="M277.09,37.57c-1.45-.16-2.75.91-4.16.55-1.89-.49-3.76-2-5.44-3-3.37-1.94-7.06-3.68-10.23-5.93-2.7-1.93-2.32-7.82-7.37-5.86-3.11,1.2-1.47,4.05-2.8,6.15-1.83,2.88-5.65,4.18-7.53,7.05-1.69,2.59-1.67,6.84-4.42,8.77-2.25,1.57-6.1-.57-8.61-.27a4.63,4.63,0,0,0-4.14,4.62c-.07,3.52,4,7.74,5.85,10.56,3.34,5,7.57,7.08,12.69,10.06,4.2,2.44,8.78,6,13.44,7.47,1.86.57,3.86.28,5.76.53,3,.39,8,1.32,10.88.21,8.5-3.25-3.06-10.27-1.9-14.11.92-3.09,3.94-4.92,5.32-7.68,1.45-2.91.75-6.67,2.16-9.59,1.1-2.29,4.34-2.66,4.18-5.77A4.13,4.13,0,0,0,277.09,37.57Zm-21.41-5.36a1.75,1.75,0,1,1,.92,3.37C254.42,36.2,253.58,32.75,255.68,32.21Zm-4.19-7a1.77,1.77,0,0,1,0,3.53A1.77,1.77,0,0,1,251.49,25.24Zm-4.44,10.9c1.39-.37,2,1.9.56,2.2A1.14,1.14,0,0,1,247.05,36.14Zm-19.89,15.3a1.8,1.8,0,0,1-.62-3.54C228.82,47.44,229.41,51.1,227.16,51.44Zm7.05,11.9c-2.22.1-2.49-3.34-.32-3.55S236.64,63.22,234.21,63.34Zm-2.88-5.61c-5-.2.41-9.31,2.56-9.42,1.39-.07,6.27.32,6.84,1.74s-.87,2.55-1.62,3.45C236.81,56.23,235.19,57.89,231.33,57.73ZM256,75.63c-2.15.63-3.21-2.89-.92-3.42A1.77,1.77,0,0,1,256,75.63Zm-8-4.25c-12.29-.31-12-19.1.32-18.93S260.33,71.69,248,71.38Zm12.16-25.77c5.87-.63,6.59,8.47.64,9C255,55,254.43,46.22,260.13,45.61Zm5,26.45c-.68,1.22-.7,3.19-2.43,3.35-2.47.24-4.53-4.13-4.14-6.23A27.57,27.57,0,0,1,260,65.66c.39-1.11.56-3.16,2.06-3.31h0c2-.19,5.56,4.66,5.25,6.5C267.1,70.11,265.71,71,265.11,72.06Zm4.62,0a2.08,2.08,0,1,1-.63,4.12C266.33,75.85,267,71.68,269.73,72.05Zm.59-20.68a1.15,1.15,0,0,1-.84-2.14C270.82,48.74,271.65,50.88,270.32,51.37Zm6.76-8.06c-2.12.61-2.95-2.88-.91-3.42A1.77,1.77,0,1,1,277.08,43.31Z" transform="translate(-1.43 -1.02)"/><path class="cls-1" d="M326.45,68.29c-1.25-1.72-4.4-.41-6.16-.39a20.85,20.85,0,0,1-11.2-3.22,21.3,21.3,0,0,1-8.18-9.58c-.53-1.23-1.21-3.44-3-2.93h0c-3.4,1-4.66,8.11-7.16,10.44-1.43,1.35-3.29,1.8-3.66,4-.52,3.09,2.35,4.94.79,8-1.46,2.83-3.22,5.55-4.79,8.32-.64,1.12-1.69,2.45-1.17,3.81s2,1.93,3.18,2.59c2.76,1.63,5.55,3.19,8.32,4.8,2.49,1.46,8.59,6.59,11.51,5.72s5.26-7.69,6.79-10.2c2.31-3.78,4.76-1.76,7.61-4,2.06-1.6,1.24-3.49,1.88-5.62.82-2.67,2.87-5.27,4.26-7.68C326.12,71.22,327.41,69.62,326.45,68.29ZM298,58.22a.67.67,0,0,1,.46,1.25A.67.67,0,0,1,298,58.22Zm-3.86,22c1.94-.83,3.67,2,1.49,2.81C293.73,83.79,292.16,81.1,294.12,80.25Zm-2.33-10.92a1.78,1.78,0,0,1-.62-3.5C293.38,65.45,293.9,69,291.79,69.33ZM295.56,92c-1.08-.64-1.6-.91-2.77-1.71,1.06-1.84,2.56-4.22,3.63-6.07A30.86,30.86,0,0,1,299.3,86C298.17,87.85,296.71,90.19,295.56,92Zm2.35-10.23,3.53-6.08c.85.51,1.92,1.11,2.77,1.6-1,1.89-2.84,4.73-3.63,6C299.81,82.78,298.7,82.28,297.91,81.78ZM303,87.62a1.64,1.64,0,0,1-.59-3.23C304.44,84,304.94,87.27,303,87.62Zm9.6-10.54a2,2,0,1,1-.94-3.89C313.93,72.81,314.79,76.52,312.59,77.08Zm4.78,6.69c-2.09,1-3.52-2.36-1.51-3.2S319.47,82.79,317.37,83.77ZM321.83,72c-.78.35-1.29-1-.46-1.25A.67.67,0,1,1,321.83,72Z" transform="translate(-1.43 -1.02)"/><path class="cls-1" d="M367.16,120.7c-1.68-7.07-11-3-15.83-5-1.67-.7-4.53-1.77-4.64-3.93s2.48-5.18,3.54-7c3-5.26,8.39-11.7,9.74-17.6l-13.76-7.68c-2.19,3.71-4.31,7.46-6.45,11.2-1,1.75-1.91,4-3.5,5.34-2.42,2-6.73.08-9.57.88-2.41.68-4.46,5.31-5.12,7.54,12.26,6.53,24.09,14,36.16,20.85C361.45,127.35,368.67,127,367.16,120.7Zm-4.64,3.44c-3.4.53-4.93-4.78-1.27-5.22C364.47,118.54,366.09,123.59,362.52,124.14Z" transform="translate(-1.43 -1.02)"/><path class="cls-1" d="M420.77,130.3c0-2.58.12-5.08-1.32-7.36-2.07-3.25-6-4.87-9.24-6.72l-18.88-10.88c-4.59-2.64-9.16-5.33-13.76-8-1.24-.71-3.56-2.69-5.06-2.3h0c-1.84.47-6.15,8.2-4.72,9.68s4.1,2.49,5.94,3.54c3.86,2.2,7.66,4.48,11.52,6.68,1.92,1.09,5.69,2.59,5.2,5.39-.63,3.66-7.17,5-9.61,7.21-1.72,1.56-2.75,4.23-3.87,6.23-1.71,3.06-4.4,6.25-5.47,9.6-.73,2.3,2.1,5.71,3.11,7.68,1.8,3.52,3.31,6.6,7.12,8.25,2.88,1.24,7.21.31,10.24.1,5-.34,10.46.66,15.36-.48,2-.46,2.85-2.39,3.79-4,1.78-3.1,3.55-6.21,5.36-9.28,1.35-2.28,3.35-4.8,4.08-7.36S420.77,132.79,420.77,130.3Zm-17,12.6a1.67,1.67,0,1,1-1.21-3.12A1.67,1.67,0,0,1,403.76,142.9Zm4.2-13.4c-2.26.46-2.89-3.15-.62-3.48A1.77,1.77,0,0,1,408,129.5Z" transform="translate(-1.43 -1.02)"/><path class="cls-1" d="M87.65,360.85c-7,1.16-10.86,12.19-4.16,16,1,.55,2.31,1.66,3.49,1.52,1.69-.2,2.91-3.62,3.68-4.91,1.31-2.22,4.25-5.72,4.49-8.31C95.36,362.84,89.53,360.54,87.65,360.85Zm.28,9.9c-2.11.81-3.55-2.29-1.51-3.13S90.21,369.87,87.93,370.75Z" transform="translate(-1.43 -1.02)"/><path class="cls-1" d="M108.45,321.91c-4,1.33-4,8.55-7.37,10.64-2.35,1.44-6.5-4.25-9.27-3.69-1.68.34-2.54,2.33-3.27,3.68-2,3.57-4.09,7-6.1,10.56-.71,1.25-2.52,3.27-1.38,4.69a5.17,5.17,0,0,0,1.47,1.12c4.6,2.76,3.81-5.79,7.68-4.29,1.6.62,7.43,3.32,7.44,5.21s-2.47,3.43-2.41,5.42c0,1.45,2.85,3.09,4.18,2.66,2-.61,3.68-5.43,4.64-7.13,3.1-5.46,6.43-10.8,9.44-16.32,1.07-2,3-4.17,3.45-6.4C117.5,325.37,110.81,321.12,108.45,321.91ZM111,330.1c-2.49.87-3.24-3-.94-3.76C112.6,325.46,113.32,329.29,111,330.1Z" transform="translate(-1.43 -1.02)"/><path class="cls-1" d="M76.51,383.16c-.4-1.63-3.84-2.87-5.18-3.63q-7.71-4.39-15.36-8.91c-2.72-1.6-8.55-6.48-11.84-5.2-3.49,1.36-2.24,8-2.24,11,0,1.6-.42,4,.38,5.41.95,1.72,3.73,2.74,5.38,3.68,4.27,2.45,8.54,4.89,12.8,7.36,1.65,1,6.36,4.84,8.26,4,1.73-.78,2.9-4.16,3.84-5.72C73.56,389.39,77,385.2,76.51,383.16Zm-24.07-2.84c-2.92.78-3.9-3.79-.95-4.43C54.27,375.29,55,379.63,52.44,380.32Zm14,7.76c-2.89.87-4.43-3.34-1.55-4.17C67.66,383.13,69.13,387.29,66.49,388.08Z" transform="translate(-1.43 -1.02)"/><path class="cls-1" d="M116.67,392.38c-1.47-2.27-1.89-5.84-4.07-7.5-2.52-1.91-7.77.08-10.87-.23-1.58-.16-3.22-.87-4.8-.38h0c-3.08,1-3.46,5.35-5,7.79-1.23,2-3.86,3.91-4,6.4s2.45,4.44,3.71,6.4c1.41,2.19,1.87,5.88,4,7.47,2.63,2,7.69-.09,10.85.3,1.64.2,3.49.88,5.12.33,2.89-1,3.21-5.13,4.63-7.46,1.18-1.94,3.64-3.76,4-6.08C120.67,396.39,118.16,394.68,116.67,392.38Zm-11.1,16.55c-13.31,1.73-16.2-18.69-2.88-20.61S119.14,407.16,105.57,408.93Z" transform="translate(-1.43 -1.02)"/><path class="cls-1" d="M242.53,398.14c0-1.74.84-6.24-1.32-6.9-1.27-.39-5.17-.63-6.17.37s-.33,3-2.14,3.73c-2.84,1.19-7.79.24-10.85.24H155.17a10.43,10.43,0,0,1-2.56-.1c-4.31-1.1-.86-7.15-2.57-9.72-.69-1-2.44-.74-3.51-.74-3.32,0-7.69-.75-10.88.18-2.58.76-2.58,6.63-1.73,8.76.92,2.3,4.15.88,5.06,3.23,1.55,4,.19,11,.19,15.35,0,1.51.39,3.72-.38,5.09-1.1,1.95-4,.7-4.87,2.92-.68,1.73-.84,7.55,1.12,8.39,3,1.27,8.29.24,11.49.24.95,0,2.83.34,3.51-.51,1.94-2.45-1.41-7.19,1.68-9.41,1.5-1.07,3.95-.64,5.69-.64H224c2.54,0,6.64-.77,8.95.42,1.67.87,1.06,2.33,1.94,3.6s5.43,1.19,6.64.45c1.72-1,1-4.69,1-6.39Zm-67.21,14.8c-1.72.68-4.24.24-6.07.24h-12.8c-1.88,0-4.69.52-6.39-.38-3.14-1.63-2.94-10.53.63-11.62,5.17-1.57,12.83-.16,18.24-.16,2,0,4.83-.48,6.69.5C178.37,403,178.31,411.77,175.32,412.94Zm28.48.1c-4,1.13-9.59.14-13.75.14-1.54,0-3.75.39-5.08-.56-2.79-2-2.07-10.75,1.56-11.49h0c4-.81,8.75-.11,12.8-.11,1.62,0,3.67-.32,5.11.6C207,403.26,207.18,412.09,203.8,413Zm28.48,0c-3.91,1.21-9.65.16-13.75.16-1.58,0-3.71.36-5.08-.6-2.64-1.89-2.12-10.5,1.24-11.42,3.94-1.08,9.36-.14,13.44-.14,1.49,0,3.47-.33,4.77.56C235.47,403.35,235.7,412,232.28,413Z" transform="translate(-1.43 -1.02)"/><path class="cls-1" d="M210.53,347.71c-1.32-.79-4.37-3.29-6-2.78-1,.32-1.55,1.82-2,2.65-1.41,2.45-2.85,4.9-4.25,7.36s-5.49,7.21-4.9,10.24,3.44,5.12,4.13,8c.51,2.14-2.49,3.77-1.89,5.7.38,1.21,2.39,1.9,3.39,2.49,3.28,1.95,7.16,5,10.88,5.89L222,366.14l4.85-9C221.49,353.9,215.94,350.91,210.53,347.71Zm-12.48,18.63a1.77,1.77,0,0,1,0-3.54C200.36,362.75,200.4,366.41,198.05,366.34Z" transform="translate(-1.43 -1.02)"/><path class="cls-1" d="M243.45,327.49c-.65-1.39-3.17-2.27-4.44-3l-11.84-6.8c-1.55-.89-3.91-3-5.12-.83-4-1.85-4.64.85-6.53,4.16-.59,1-2.17,2.87-1.52,4.09,2.87,5.46,9,7.82,14.45,10.95,2.65,1.52,5.38,3.61,8.32,4.48,1.86-3,3.59-6.18,5.35-9.28C242.68,330.27,244,328.69,243.45,327.49Zm-19.23-1.59c-2.12.94-3.74-2.2-1.5-3.08S226.23,325,224.22,325.9Z" transform="translate(-1.43 -1.02)"/><path class="cls-1" d="M265.89,293.82c-1.95-.78-4.18-.28-5.57-2.27s0-6.23-.28-8.61a21.29,21.29,0,0,0-2.23-7c-.7-1.33-2.06-2.64-2.29-4.16-.54-3.49,2.89-9.28-1.79-11.2-3.69-1.51-5.25,2.25-5.67,5.12-1.05,7.11-.62,16.18-4.6,22.4-2.39,3.73-6.14,6.11-9.57,8.77-3,2.33-11.7,6.72-9.77,11.39,2.6,6.24,8.65-.84,11.69-2.37,2.42-1.23,6.49-.09,9.28-.84,3.53-.94,6.3-4.15,9.6-4.93,2.41-.57,4.5,3.91,6,3.07,2-1.17,4.8-7.08,5.24-9.33Zm-38.08,14.65c-2.24.17-2.48-3.3-.31-3.56A1.79,1.79,0,1,1,227.81,308.47Zm24.64-42.56c-2.3.17-2.49-3.35-.31-3.56S254.92,265.74,252.45,265.91Z" transform="translate(-1.43 -1.02)"/><path class="cls-1" d="M287.58,226.75c-1.52-1.46-4.18-1.17-5.47-2.76s-1.14-7.36-4.06-7.08a2.13,2.13,0,0,0-1.79,2c-.2,3.16,1.13,5.25-.81,8.32-1.19,1.86-3,3.28-4.2,5.12a135,135,0,0,0-9,15.68c-1.85,3.77-2.94,9.27-.77,13.12,1.93,3.43,7.08,5.94,10.38,2.77,1.21-1.15,2-4.42,3.64-4.94,1-.32,5.46,5.06,5.88.88.13-1.32-1.36-2.61-2.13-3.51-1.94-2.25-7.56-6.62-6.57-10a32.76,32.76,0,0,1,6.39-10.8c1.83-2,3.69-2.79,5.34-.35C286.35,233.77,289.86,228.93,287.58,226.75Zm-16.64,31c-2.13.91-3.79-2.25-1.5-3.13C271.49,253.88,272.93,256.93,270.94,257.79Z" transform="translate(-1.43 -1.02)"/><path class="cls-1" d="M320.26,198.47c-2.46-4.2-9.8-4.11-12.18-8.34-1.45-2.58,3.28-6.69,3.76-9.27a3.63,3.63,0,0,0-1.22-3.35c-2.24-2-9-6.6-12.08-5.37-2.37.92-3.89,5-5.08,7.12-3.54,6.2-7.17,12.35-10.7,18.56-1.18,2.08-3.89,5.17-3.61,7.68s3.11,3.53,5,4.62c4.36,2.53,12.68,9.78,17.92,7.71,6.23-2.46,13.17-6.75,16.42-12.65C319.56,203.2,321.63,200.81,320.26,198.47Zm-27.82,10.75c-2.41.5-2.95-3.15-.63-3.55S294.55,208.79,292.44,209.22Zm3.17-13.84c-2.2.83-3.44-2.68-1.22-3.43S297.71,194.59,295.61,195.38Zm6.72-11.78c-2.28.66-3.47-2.65-1.21-3.23S304.59,183,302.33,183.6ZM310,204.54c-2.07.63-3.32-2.51-1.21-3.32A1.77,1.77,0,1,1,310,204.54Z" transform="translate(-1.43 -1.02)"/><path class="cls-1" d="M360.61,133.18a28.57,28.57,0,0,1-3,5.76c-1.17,2.05-3,7.21-5.15,8.28-1.32.66-3.59-1.25-4.68-1.88-3.51-2-8.76-6.62-12.8-7.08-3.09-.36-5.95,3.83-9,4.31-1.69.27-3.43-1.22-4.8-2-.89-.52-2.36-1-2.84-2-.65-1.34,1.24-3.58,1.88-4.69,2.51-4.37,5-8.78,7.55-13.12.69-1.16,1.78-4.21,3.36-4.25,2.38-.07,6.24,3.26,8.29,4.44,7.06,4,14.19,8,21.12,12.29" transform="translate(-1.43 -1.02)"/><path class="cls-1" d="M370.53,168.7c0-2.63.08-5-1.37-7.36-1.33-2.13-3.56-3.26-5.67-4.48s-4.33-2.91-6.72-3.59c-3.9-1.11-9.08-.25-13.12-.25-2.93,0-6.43-.52-9.28.17h0c-4.06,1-7.14,9-9.15,12.31-1.87,3.11-5.71,7.24-6.17,10.88-.63,5,2.56,8.47,5,12.48.81,1.33,1.76,3.67,3.29,4.29s3.8.19,5.41.19c4,0,8.86.73,12.8-.12,3.3-.72,6.68-3.57,9.6-5.23,4.52-2.57,12.34-5.36,14.61-10.33C371,175,370.53,171.6,370.53,168.7Zm-25-.14c-2.29.35-2.59-3.28-.32-3.45S347.66,168.25,345.57,168.56Zm14.07,2.88c-2.38.36-2.53-3.27-.31-3.49S361.75,171.13,359.64,171.44Z" transform="translate(-1.43 -1.02)"/><path class="cls-1" d="M365.14,220.38c-1.9-1.58-1.77-9.73.29-11.12,1.8-1.22,5.25-.56,7.34-.56,0-3-.87-4.69-.24-7.68a1.42,1.42,0,0,0-.5-1.59c-1.93-1.31-7.2-.33-9.5-.33-7.57,0-15.15-.09-22.72,0-2.27,0-7.43,0-9.17,1.49s-1.71,4.6-1.71,6.83c0,5.75-.21,11.54,0,17.28.24,6.25,10.13,5.76,14.39,5.76h21.76c1.44,0,6.44.77,7.34-.51.62-.9-.47-2.38-.58-3.33-.19-1.84.9-3.56.92-5.44C370.58,221.18,366.94,221.87,365.14,220.38Zm-33-18.52a1.49,1.49,0,0,1,1.16,2.75C331.56,205.31,330.41,202.55,332.18,201.86Zm13.45,17.4c-.94,1.33-2.78,1.91-3.57,3.27-1,1.64.57,4.55-1.94,5.23-3.95,1.07-2.4-3.84-3.7-5.5-.77-1-2-1.42-2.84-2.39a8.09,8.09,0,0,1-.29-9.56c.89-1.19,2.58-1.7,3.31-3,1-1.66-.57-4.52,1.94-5.23,4.15-1.18,2.4,3.45,3.7,5.23C344.94,211,349.3,214.09,345.63,219.26Z" transform="translate(-1.43 -1.02)"/><path class="cls-1" d="M420.45,206.46c0-2.55.76-6.57-.19-8.94s-4.44-.75-6.19-1.89c-1.46-1-1.83-3.69-2.9-5.17l1.6-1-1.6-1.6,1.6-.64-1.6-1,1.6-1.6-1.6-1,1.6-1.6-1.6-1v-.64l1.28-.64v-.64l-1.28-.64V178l1.6-.64-1.6-1.28v-.64l1.6-.64-1.6-1.28v-.64l1.6-1-1.6-1.6,1.28-.32c-.91-1.85-2.26-1.92-4.16-1.92-4.12,0-11.06-1.31-14.72.64h0V169l.64.32v.32l-1.6,1,1.6,1v.64l-1.6,1.28,1.6.64v.64l-1.6.64v.64l1.6.64v.64l-1.6.64v.64l1.6.64v.64l-1.6.64v.64l1.6.64v.64l-1.6.64v.32l1.6,1.6-1.6.64V186l1.6,1.6-1.6.64v.32l1.6,1v.32c-2.28,1.43-.77,3.62-2.38,5.34-2,2.12-5.92-.26-7.62,1.8-1.2,1.46-.56,4.85-.56,6.62v17.28c0,2.91-1.53,12.23,1.93,13.26,1.8.53,6.26.74,7.34-1.14s.33-5.83.33-8c0-7.44-4.58-14.92,3.84-20a9.93,9.93,0,0,1,4.16-1.4c6.3-.51,12.47,4,12.53,10.71,0,3.47-1.79,6.63-2.2,10.06-.29,2.42-1,8.15,1.53,9.5,1.73.91,6.29.94,7.15-1.2s.19-5.68.19-8Zm-31.72,24.39c-2.16.8-3.4-2.61-1.22-3.39S390.83,230.07,388.73,230.85Zm0-29.19c-2.17.73-3.41-2.53-1.22-3.32S390.87,201,388.73,201.66Zm29.12,29.19a1.8,1.8,0,0,1-1.22-3.39C418.8,226.68,420,230.07,417.85,230.85Zm0-29.19a1.77,1.77,0,0,1-1.22-3.32C418.82,197.56,420.07,200.93,417.85,201.66Z" transform="translate(-1.43 -1.02)"/><path class="cls-1" d="M399.23,288.7c-.2-1.82-.79-4.91-2-6.33S393.63,280,392,279c-4.13-2.46-8.35-4.78-12.48-7.24-1.57-.93-6.79-5-8.54-4.17-2,.9-3.51,5.48-4.58,7.31-4,6.89-10.07,14.48-12.48,22.08,1.07.56,3.67,1.48,3.7,2.91.06,2.32-3.16,6-4.29,8-2.69,4.7-5.35,9.43-8.11,14.08-1.52,2.54-3.76,5.43-4.42,8.32,2.36,1,4.78,3.45,7.36,3.76a13.25,13.25,0,0,0,7.29-2c1.72-1.43,2.78-4.33,3.91-6.24,2.8-4.77,5.52-9.6,8.27-14.4,1.17-2,2.38-5.18,4.53-6.35,4.6-2.48,11.28-3,16.32-4.44,1.75-.5,4.2-.72,5.64-1.91,1.24-1,1.93-2.9,2.74-4.26C397.83,292.79,399.44,290.74,399.23,288.7Zm-27.42,1.16c-.07-1.84-.14-3.69-.22-5.54l1.92,1.06c0,1.81.08,3.63.11,5.44Zm3.63,2-.64-11.18,1.92,1.06.64,11.08Zm3.2-3.51c-.07-1.81-.13-3.69-.21-5.54l2,1.06c.08,1.81.14,3.62.21,5.44Z" transform="translate(-1.43 -1.02)"/><path class="cls-1" d="M413.73,296.07c4.77-2.39,3.84,4.05,3.84,6.71,0,1.13.36,3.1-.74,3.83-2,1.34-7.43.33-9.82.33-.68,0-2.71.32-3-.51-.4-1,1.49-2.42,2.08-3,2.25-2.26,4.81-5.92,7.68-7.35" transform="translate(-1.43 -1.02)"/><path class="cls-1" d="M342.05,375.74H318.37c-2.78,0-7.41-.88-9.92.38-5.09,2.54-5.76,6.8-5.76,11.78,0,1.49-.31,3.42.38,4.8,1.84,3.69,6.63,7,9.54,9.92,1.95,1.95,4.41,5.56,7,6.53,4.76,1.75,11-.68,16,.51,1.47-5,.32-11.77.32-17h6.08ZM311.64,386c-2.16.63-3.07-2.83-.93-3.38A1.75,1.75,0,1,1,311.64,386Zm16.64,16.84a1.8,1.8,0,0,1-.62-3.55A1.8,1.8,0,0,1,328.28,402.82Z" transform="translate(-1.43 -1.02)"/><path class="cls-1" d="M249.19,436.54c-.17-1.71-.72-3.62-2.5-4.29-1.56-.58-3.8-.19-5.44-.19h-63c-1.58,0-4-.44-5.41.33h0c-1.55.84-2.05,2.85-2.22,4.47-.38,3.83-1.7,14.77,2.83,16.45,1.56.58,3.79.19,5.44.19h63.36c1.51,0,3.77.42,5.06-.51C250.83,450.42,249.58,440.41,249.19,436.54Zm-64.58,10.25c-2.31-.14-2-3.76.32-3.56S186.78,446.92,184.61,446.79Zm22.75-.15c-.86-1.36-1.79-2.81-2.67-4.26h2.13l2.67,4.26Zm3.95.05c-1.88-2.94-3.76-5.78-5.66-8.74h2c1.92,2.88,3.84,5.86,5.77,8.74Zm1-4.26c-.85-1.49-1.85-3-2.78-4.48h2c.86,1.43,2,3.07,2.89,4.48Zm23.42,4.15c-1.94.72-3.46-2.27-1.49-3.12C236.52,442.48,238.11,445.72,235.77,446.58Z" transform="translate(-1.43 -1.02)"/><path class="cls-1" d="M224.83,460.09c-1.22-.6-3.37-.19-4.7-.19H208.61c-2.29,0-8.55-1.11-10.37.33-.85.68-.51,2.56-.51,3.51,0,3-.76,6.85,1.34,9.28,4.22,4.9,8.72,4.16,14.66,4.16,2.42,0,5.24.43,7.26-1.18,4.28-3.4,4.58-6.2,4.58-11.3C225.57,463.55,226.09,460.72,224.83,460.09Zm-12.72,10.16c-2.13.66-3-3-.91-3.48A1.8,1.8,0,0,1,212.11,470.25Z" transform="translate(-1.43 -1.02)"/><path class="cls-1" d="M302.32,404.22c-1.3-2.28-2.65-6-5.07-7.3-2.1-1.1-4.79-.54-7-.75-5.75-.55-12.51-1.67-18.24-.77h0c-10.48,1.64-13,10.69-17.6,18.74-1.55,2.73-4.88,7.35-4.75,10.56s3.55,7.17,5.12,9.92c3.16,5.53,6.15,13.82,14,13,3.07-.33,6.63-3.34,9.28-4.86,7.05-4,14.05-8.18,21.12-12.2,3-1.69,8-3.41,9.25-6.81C311.26,416.16,306,410.63,302.32,404.22ZM254,426.11c-2.1.9-3.74-2.24-1.5-3.13S256,425.25,254,426.11ZM295,398.34c2.2-.81,3.41,2.64,1.21,3.37A1.79,1.79,0,0,1,295,398.34Zm-29.15,43.49c-2,.2-2.6-3.15-.61-3.52C267.59,437.89,268.2,441.6,265.89,441.83Zm13.68-5.61c-.34,2.12-4.27,4.31-6.31,4.1s-5.53-6-4.17-7.82c1.71-2.31,5.43-2.26,8-2.21S279.89,434.22,279.57,436.22Zm-2.8-11.62a14.38,14.38,0,0,1-7-.63c-11.77-4.55-9.46-22.35,2.88-24.13C288.35,397.57,292.52,422.28,276.77,424.6Zm10.52,10.6c-2.25.74-3.47-2.73-1.21-3.32S289.53,434.47,287.29,435.2Zm6.76-6.41c-2.05.3-5.76-1.81-5.71-4.09.06-2.7,3.4-6.41,6-6.89h0c2.41-.44,2.76,2.17,3.71,3.69C300.33,425.07,298.33,428.14,294.05,428.79Zm9-8.39c-2.22.33-2.75-3.14-.61-3.53C304.71,416.46,305.32,420.06,303,420.4Z" transform="translate(-1.43 -1.02)"/><path class="cls-1" d="M80.83,256.06c-.81-1.21-.55-3-1.6-4-1.69-1.63-3.74.34-5.66.11-1.31-.16-2.49-1.13-3.84-.65-2.16.78-1.44,3-2.47,4.56-.58.87-1.5,1.32-2.14,2.11-2.13,2.62,1.63,4.24,2.48,6.21.68,1.6.08,3.3,2.13,4,1.56.53,2.9-.84,4.48-.74s2.7,1.32,4.15.74c2-.79,1.38-2.78,2.28-4.33s2.76-2.09,2.91-3.84C83.7,258.32,81.76,257.45,80.83,256.06Zm-6.3,6.26c-3,.71-4-4.18-1-4.83S77.51,261.62,74.53,262.32Z" transform="translate(-1.43 -1.02)"/><path class="cls-1" d="M102.22,125.21c-3.19-5.83-7.89,4-9.51,6-2.59,3.2-5.29,6.3-8.9,8.36C80,141.8,76.2,142.09,72,142.51c-6.85.69-12.27,1.36-18.88-1.36-4.34-1.78-7.8-7.22-12.16-8.16-3.17-.69-4.69,3.41-7.36,2.91-4.09-.76-5-9.85-5.56-13a3.32,3.32,0,0,0-4-2.69h0c-5.55,1.45.68,9.57,1.86,12.61,2.23,5.76,4.54,11.49,6.68,17.28.84,2.27,2.38,4.94,2.56,7.36.37,5-2.25,11.33-3.75,16-1.25,3.88-3.49,12.31-8,13.24A58.14,58.14,0,0,1,8,187.55c-2.28-.22-5.4-1.55-6.41,1.63a3.33,3.33,0,0,0,2.57,4.21c3.91.52,11.29-4.39,14.49,0,2.79,3.8-6.6,9.19.24,12.43,5.16,2.44,13.28-3.57,18.16,1.37,3.78,3.84-3.09,9.6-3.83,13.05a3.37,3.37,0,0,0,3.9,4c2.56-.63,2.33-3,2.63-5s1.61-6,3.48-7.31c4.56-3.07,8,7.89,13,2.48,2.27-2.48.91-7.51.74-10.53a70.8,70.8,0,0,1,2.33-20.16c3-12.16,14.45-22.18,22.36-31.68,5.4-6.48,10.65-13.09,16.11-19.52C99.56,130.42,104.13,128.69,102.22,125.21Zm-77-.56a1.31,1.31,0,1,1-.88-2.46C25.88,121.67,26.76,124.12,25.2,124.65ZM4.76,191.5a1.32,1.32,0,1,1,0-2.64A1.32,1.32,0,0,1,4.76,191.5Zm16,12c-2.31,0-2.33-3.58,0-3.44S23.08,203.49,20.77,203.49Zm15.39,18.82c-1.8-.21-1.16-3.05.58-2.7S37.86,222.51,36.16,222.31Zm3.5-86.64c2.07-.51,2.94,2.7.93,3.38C38.36,139.81,37.44,136.22,39.66,135.67Zm4.85,29.42,3.85,1.18-7.48,6.39L37,171.49C41.39,167.81,41.56,167.68,44.51,165.09Zm8.88,48.08c-2.17.52-3-2.81-.91-3.36C54.73,209.22,55.49,212.65,53.39,213.17Zm-6-29.86-3.85-1.06v-.11C46,180,48.61,177.85,51,175.75c1.14.33,2.84.89,3.84,1.17C51.11,180.16,50.76,180.38,47.4,183.31Zm-7.16-2C39,181,37.65,180.46,36.4,180c6.54-5.46,7.66-6.42,15.16-12.78,1.51.45,2.54.83,3.84,1.17C47.61,175.15,42.72,179.15,40.24,181.34ZM72.6,148.7c-2,.4-3-2.64-.92-3.22C74.09,144.82,75.06,148.22,72.6,148.7Zm27.17-20.58a1.29,1.29,0,0,1-.88-2.42A1.29,1.29,0,1,1,99.77,128.12Z" transform="translate(-1.43 -1.02)"/><path class="cls-1" d="M305.43,236.8c-25.61,44.43-51.64,89.36-77.23,133.73,24.65,0,49.73.11,74.39.11,25.63-44.4,51.8-89.48,77.44-133.84ZM299.8,366.17c-21.25,0-42.72-.11-64-.11,23.93-41.3,48.45-83.61,72.33-124.95,21.22,0,43.08,0,64.24-.05C348.56,282.37,323.64,324.85,299.8,366.17Z" transform="translate(-1.43 -1.02)"/><path class="cls-1" d="M417.24,344.87c-6.07-4.34-10.9-9.15-13.15-16.49-1.19-3.89.27-11.64-4.76-12.78-4.16-.94-7.12,4.84-9.6,7.34-1.08,1.09-2.41,2.82-4.16,2.42-5.14-1.21.53-6,.75-8.18a3.9,3.9,0,0,0-5.23-3.95h0c-4.31,1.37-1.57,5.1-1.18,7.79.45,3.18-.41,11.08-3,13.12-12.22,9.61-29.56,15.83-45.11,13.7-2-.27-3.19-2.09-5.12-2.38a3.94,3.94,0,0,0-4.26,5c2.06,6.09,7.61-.54,11.29,1.17,2.2,1,2.11,3.9,3.86,5.44,2.48,2.21,5.35,3.72,7.64,6.19,5.51,5.94,5.87,12.11,7.27,19.52.42,2.21,3.25,4.11,3,6.27-.44,3.51-4.83,3.76-5.6,6.85a3.85,3.85,0,0,0,4.67,4.67c3.72-.84,2.17-4.05,2.78-6.59.88-3.7,3.86-8.34,5.94-11.52,6.19-9.49,18.46-17.54,28.72-22,3.07-1.33,10.52,2,13,4,2.2,1.75,3.66,5.48,7.09,3a4,4,0,0,0-1.58-7c-1.52-.31-3,.8-4.48.27a3.2,3.2,0,0,1-2.16-2.64c-.1-2.27,2.38-2.76,4.08-3.16,3.31-.79,9.7-.64,11.31-4.2C420.31,348.51,419.12,346.21,417.24,344.87Zm-91.49,5.06a.87.87,0,1,1,.87-.87A.87.87,0,0,1,325.75,349.93ZM341,355c-2.12.94-3.74-2.22-1.5-3.08C341.55,351.16,343,354.13,341,355Zm12.79,42.56a.76.76,0,0,1-.48-1.44A.76.76,0,0,1,353.81,397.58Zm3.87-13.4c-2,.81-3.46-2.27-1.48-3.12S359.81,383.34,357.68,384.18Zm15.09-30.45-3.53,1.92.64-9.91c1.07-.69,2.25-1.33,3.31-1.92C373.19,346,373.07,347.58,372.77,353.73Zm6.51,6.34c-1.41.79-2.84,1.68-4.27,2.45.61-9.32.65-9.45,1.17-20.88,1.26-.77,2.61-1.56,3.85-2.35C379.85,345.23,380,345.06,379.28,360.07Zm2.86-43.93c.9-.3,1.41,1.15.47,1.34S381.29,316.43,382.14,316.14Zm2.8,40.2-3.42,1.81q.28-4.95.54-9.91l3.31-1.91Q385.16,351.33,384.94,356.34Zm13.43-34.78c-2.23,0-2.18-3.36,0-3.43S400.68,321.56,398.37,321.56Zm11.75,42.17a.69.69,0,0,1-.46,1.3A.69.69,0,0,1,410.12,363.73Zm5.8-13.19c-2.05.85-3.45-2.24-1.48-3.08S417.93,349.7,415.92,350.54Z" transform="translate(-1.43 -1.02)"/><path class="cls-1" d="M417.9,275.09V258.45l-5.89-.51-.51-4.29V241.49H393.26c-2.3,0-5.9-.67-8,.38-5.11,2.55-5.44,6.84-5.44,11.78,0,1.49-.31,3.42.38,4.8,2,3.92,7.1,7.47,10.18,10.56,1.81,1.81,3.77,4.55,6.08,5.7,1.82.91,4.74.38,6.72.38H417.9" transform="translate(-1.43 -1.02)"/></svg>