G04 Layer: TopLayer*
G04 EasyEDA v6.4.25, 2021-12-08T09:20:59--6:00*
G04 69f887db25cf48ce9622c15e18288c25,10*
G04 Gerber Generator version 0.2*
G04 Scale: 100 percent, Rotated: No, Reflected: No *
G04 Dimensions in millimeters *
G04 leading zeros omitted , absolute positions ,4 integer and 5 decimal *
%FSLAX45Y45*%
%MOMM*%

%ADD10C,0.2540*%
%ADD11R,1.3770X1.1325*%
%ADD13R,2.0000X1.5930*%
%ADD14C,1.5240*%
%ADD16C,1.8000*%

%LPD*%
D10*
X2584907Y14496874D02*
G01*
X2765653Y14496874D01*
X2832100Y14563321D01*
X2584907Y14389102D02*
G01*
X2584907Y14496874D01*
X2832100Y14648080D02*
G01*
X2832100Y14563321D01*
X2164892Y14389102D02*
G01*
X2164892Y14496874D01*
X3225800Y15227302D02*
G01*
X3119399Y15333703D01*
X2328900Y15333703D01*
X2222500Y15227302D01*
X2222500Y15227302D02*
G01*
X2222500Y14554481D01*
X2164892Y14496874D01*
X1524000Y15214602D02*
G01*
X1452778Y15143380D01*
X1452778Y13970002D01*
X2159000Y13818110D02*
G01*
X1882673Y13818110D01*
X1730781Y13970002D01*
X1646021Y13970002D02*
G01*
X1730781Y13970002D01*
X2476500Y15227302D02*
G01*
X2777718Y14926083D01*
X2832100Y14926083D01*
X2832100Y14841324D02*
G01*
X2832100Y14926083D01*
G36*
X2900949Y14784699D02*
G01*
X2763250Y14784699D01*
X2763250Y14897953D01*
X2900949Y14897953D01*
G37*
D11*
G01*
X2832100Y14648078D03*
G36*
X1509400Y14038849D02*
G01*
X1509400Y13901150D01*
X1396146Y13901150D01*
X1396146Y14038849D01*
G37*
G36*
X1589399Y14038849D02*
G01*
X1589399Y13901150D01*
X1702653Y13901150D01*
X1702653Y14038849D01*
G37*
D13*
G01*
X2584907Y14389100D03*
G01*
X2164892Y14389100D03*
D14*
G01*
X1524000Y15214600D03*
G36*
X2068992Y13948095D02*
G01*
X2248992Y13948095D01*
X2248992Y13688095D01*
X2068992Y13688095D01*
G37*
G01*
X2222500Y15227300D03*
G01*
X2476500Y15227300D03*
G01*
X3225800Y15227300D03*
G01*
X3479800Y15227300D03*
D16*
X2413000Y13858082D02*
G01*
X2413000Y13778082D01*
X2667025Y13857091D02*
G01*
X2667025Y13777092D01*
M02*
