G04 Layer: TopPasteMaskLayer*
G04 EasyEDA v6.4.25, 2021-12-08T09:20:59--6:00*
G04 69f887db25cf48ce9622c15e18288c25,10*
G04 Gerber Generator version 0.2*
G04 Scale: 100 percent, Rotated: No, Reflected: No *
G04 Dimensions in millimeters *
G04 leading zeros omitted , absolute positions ,4 integer and 5 decimal *
%FSLAX45Y45*%
%MOMM*%

%ADD13R,2.0000X1.5930*%

%LPD*%
G36*
X2809087Y14700199D02*
G01*
X2768092Y14699691D01*
X2763113Y14694712D01*
X2763113Y14579701D01*
X2768092Y14574672D01*
X2896108Y14574672D01*
X2901086Y14579701D01*
X2901086Y14694712D01*
X2896108Y14699691D01*
X2854096Y14699183D01*
X2854096Y14655190D01*
X2809087Y14655190D01*
G37*
G36*
X2768092Y14914676D02*
G01*
X2763113Y14909698D01*
X2763113Y14794687D01*
X2768092Y14789708D01*
X2809087Y14790216D01*
X2809087Y14834209D01*
X2854096Y14834209D01*
X2854096Y14789708D01*
X2896108Y14789708D01*
X2901086Y14794687D01*
X2901086Y14909698D01*
X2896108Y14914676D01*
G37*
G36*
X1599387Y14038986D02*
G01*
X1594408Y14034007D01*
X1594916Y13991996D01*
X1638909Y13991996D01*
X1638909Y13946987D01*
X1593900Y13946987D01*
X1594408Y13905992D01*
X1599387Y13901013D01*
X1714398Y13901013D01*
X1719427Y13905992D01*
X1719427Y14034007D01*
X1714398Y14038986D01*
G37*
G36*
X1384401Y14038986D02*
G01*
X1379423Y14034007D01*
X1379423Y13905992D01*
X1384401Y13901013D01*
X1499412Y13901013D01*
X1504391Y13905992D01*
X1503883Y13946987D01*
X1459890Y13946987D01*
X1459890Y13991996D01*
X1504391Y13991996D01*
X1504391Y14034007D01*
X1499412Y14038986D01*
G37*
D13*
G01*
X2584907Y14389100D03*
G01*
X2164892Y14389100D03*
M02*
