0
SECTION
2
HEADER
9
$INSUNITS
70
4
9
$ACADVER
1
AC1014
9
$HANDSEED
5
FFFF
0
ENDSEC
0
SECTION
2
TABLES
0
TABLE
2
VPORT
5
8
100
AcDbSymbolTable
0
ENDTAB
0
TABLE
2
LTYPE
5
5
100
AcDbSymbolTable
0
LTYPE
5
14
100
AcDbSymbolTableRecord
100
AcDbLinetypeTableRecord
2
BYBLOCK
70
0
0
LTYPE
5
15
100
AcDbSymbolTableRecord
100
AcDbLinetypeTableRecord
2
BYLAYER
70
0
0
ENDTAB
0
TABLE
2
LAYER
5
2
100
AcDbSymbolTable
70
2
0
LAYER
5
50
100
AcDbSymbolTableRecord
100
AcDbLayerTableRecord
2
0
70
0
6
CONTINUOUS
0
ENDTAB
0
TABLE
2
STYLE
5
3
100
AcDbSymbolTable
70
1
0
STYLE
5
11
100
AcDbSymbolTableRecord
100
AcDbTextStyleTableRecord
2
STANDARD
70
0
0
ENDTAB
0
TABLE
2
VIEW
5
6
100
AcDbSymbolTable
70
0
0
ENDTAB
0
TABLE
2
UCS
5
7
100
AcDbSymbolTable
70
0
0
ENDTAB
0
TABLE
2
APPID
5
9
100
AcDbSymbolTable
70
2
0
APPID
5
12
100
AcDbSymbolTableRecord
100
AcDbRegAppTableRecord
2
ACAD
70
0
0
ENDTAB
0
TABLE
2
DIMSTYLE
5
A
100
AcDbSymbolTable
70
1
0
ENDTAB
0
TABLE
2
BLOCK_RECORD
5
1
100
AcDbSymbolTable
70
1
0
BLOCK_RECORD
5
1F
100
AcDbSymbolTableRecord
100
AcDbBlockTableRecord
2
*MODEL_SPACE
0
BLOCK_RECORD
5
1B
100
AcDbSymbolTableRecord
100
AcDbBlockTableRecord
2
*PAPER_SPACE
0
ENDTAB
0
ENDSEC
0
SECTION
2
BLOCKS
0
BLOCK
5
20
100
AcDbEntity
100
AcDbBlockBegin
2
*MODEL_SPACE
0
ENDBLK
5
21
100
AcDbEntity
100
AcDbBlockEnd
0
BLOCK
5
1C
100
AcDbEntity
100
AcDbBlockBegin
2
*PAPER_SPACE
0
ENDBLK
5
1D
100
AcDbEntity
100
AcDbBlockEnd
0
ENDSEC
0
SECTION
2
ENTITIES
0
LWPOLYLINE
5
100
100
AcDbEntity
8
OUTER_PROFILES
100
AcDbPolyline
90
78
70
1
43
0.0
10
-17.408672638014
20
4.4437461352667196
10
-17.456561515200324
20
4.3978373390701408
42
-0.19891236737966117
10
-18.882823342353376
20
3.842028962996404
10
-70.79995099671001
20
4.9380062277042311
42
-0.40804489255430099
10
-73.736634716043554
20
7.9373379947154383
10
-73.736634716043369
20
20.523893421165162
10
-75.736634716043355
20
20.52389342116518
10
-75.736634716043355
20
17.28716322824982
42
-0.08748866352592348
10
-76.339708508184231
20
13.866961794993147
10
-87.305471698594786
20
-16.261224957747764
42
-0.087488663630817518
10
-89.041953477940552
20
-19.268899624546208
10
-91.122483541497388
20
-21.748378800193585
10
-89.590394655794682
20
-23.033954020204614
10
-88.947607045789212
20
-22.267909577353251
10
-81.499911455154574
20
-13.392091598092629
42
-0.40804490210060801
10
-77.322347837101063
20
-12.982134134185639
10
-26.154454829596542
20
-54.10844527973434
42
0.19343254739636853
10
-24.727189820234031
20
-54.541954480978347
10
-21.372237646422512
20
-54.248434202062292
42
-0.19891236711467727
10
-19.912350943519801
20
-54.708734711977101
10
13.509925922699244
20
-82.75335489539421
42
-0.41421356237310003
10
13.756439589966458
20
-85.571019000970097
10
2.1862626175774755
20
-99.359818978763855
42
-0.41421356237309465
10
-0.63140148799829987
20
-99.606332646030964
10
-23.558275132105436
20
-80.368401432791089
42
-0.4142135623730992
10
-23.804788799372652
20
-77.550737327215231
10
-20.590850751486851
20
-73.72051511116139
10
-34.239166638090204
20
-62.26821828784233
10
-37.147069416659036
20
-65.733721789299111
10
-31.742268851076851
20
-70.268887798497346
42
-0.31529878686411233
10
-31.148458824786331
20
-72.485016957856658
10
-36.054010491013983
20
-85.962909680743564
42
-0.41421356439825535
10
-38.617436023966803
20
-87.158254648658755
10
-43.67390148807474
20
-85.317851729128506
42
-0.087488663630816046
10
-45.177738821473937
20
-84.449610839455644
10
-59.531410067260481
20
-72.405450580891738
10
-64.816638966183802
20
-78.704141103540195
42
-0.41421356237309503
10
-71.86079923046799
20
-79.32042526776938
10
-148.73294098731839
20
-14.817039417244786
42
-0.41421356237309531
10
-149.34922515154761
20
-7.7728791529605923
10
-147.42086232153116
20
-5.4747458244064617
10
-144.51295968269423
20
-2.0092424079978444
10
-145.0958987069408
20
-1.5200984873404133
10
-130.08515742589159
20
39.721574231619165
10
-129.32418457425342
20
39.721574231619073
10
-129.32418457425365
20
47.245467652786473
42
-0.41421356237309193
10
-124.32418457425378
20
52.245467652786544
10
-21.264629601903316
20
52.245467652787696
42
-0.41421356237309814
10
-16.264629601903209
20
47.245467652787731
10
-16.26462960190306
20
38.721574231620444
10
-14.264629601903012
20
38.721574231620529
42
-0.08748866352591686
10
-12.095345076960289
20
38.339070841039756
10
2.9397368556148429
20
32.866748547829076
10
6.8811405351932775
20
43.695666158426718
42
-0.41421356237309465
10
13.28970435575112
20
46.684028545727998
10
38.42930103963667
20
37.533963651336684
42
-0.41421356237309798
10
39.624645994557198
20
34.970538123113535
10
37.230504991277606
20
28.392689777612155
42
-0.41421356237309609
10
34.667079463054463
20
27.197344822691633
10
19.864101607813947
20
32.585188140500712
10
17.717645910726759
20
26.687849580893651
42
-0.32924442228768663
10
12.766622084696021
20
23.404333063326689
42
0.18744384008324766
10
4.5160980322500857
20
20.669704680016608
42
-0.17439675249703598
10
1.33094039916547
20
19.523893421165976
10
-6.1158350977775022
20
19.523893421165855
10
-6.1158350977776976
20
15.00000000000005
10
11.700775945578226
20
15.000000000000036
10
11.700775945578263
20
20.000000000000071
42
-0.41421356237309764
10
13.700775945578272
20
22.000000000000046
10
43.629683918609949
20
22.000000000000068
42
-0.41421356237309892
10
45.629683918609985
20
20.000000000000064
10
45.62968391861002
20
1.9999999999999749
42
-0.41421356237310281
10
43.62968391860997
20
-5.3290705182007514e-14
10
2.9698465908722937e-14
20
2.3314683517128287e-14
42
-0.19891236737965778
10
-1.4142135623730629
20
0.58578643762693117
10
-5.242640687118886
20
4.4142135623727716
42
0.19891236737965953
10
-6.656854249491996
20
4.9999999999996696
10
-16.024621664638605
20
4.9999999999996394
42
0.19343253917088929
0
LWPOLYLINE
5
101
100
AcDbEntity
8
INTERIOR_PROFILES
100
AcDbPolyline
90
4
70
1
43
0.0
10
-42.375171199276821
20
-55.441299995624462
10
-45.283073860061421
20
-58.90680343235789
10
-40.686807206885675
20
-62.76352909707721
10
-37.77890454394452
20
-59.298025657773692
0
LWPOLYLINE
5
102
100
AcDbEntity
8
INTERIOR_PROFILES
100
AcDbPolyline
90
4
70
1
43
0.0
10
6.1715728752536769
20
6.0000000000008402
10
6.1715728752536769
20
3.0000000000007798
10
11.700775945580251
20
3.0000000000007665
10
11.700775945580268
20
6.0000000000008313
0
LWPOLYLINE
5
103
100
AcDbEntity
8
INTERIOR_PROFILES
100
AcDbPolyline
90
4
70
1
43
0.0
10
-10.736634716043625
20
15.000000000000826
10
-10.736634716043625
20
19.523893421165933
10
-16.736634716043621
20
19.523893421165862
10
-16.736634716043621
20
15.000000000000821
0
LWPOLYLINE
5
104
100
AcDbEntity
8
INTERIOR_PROFILES
100
AcDbPolyline
90
4
70
1
43
0.0
10
-83.585295969859445
20
-26.767422893030421
10
-78.989029316683684
20
-30.624148557749713
10
-76.081126671713619
20
-27.158645139863317
10
-80.677393327045905
20
-23.301919477714073
0
LWPOLYLINE
5
105
100
AcDbEntity
8
INTERIOR_PROFILES
100
AcDbPolyline
90
4
70
1
43
0.0
10
-14.805762384293821
20
-66.826115192610757
10
-12.877399553219124
20
-64.527981864944564
10
-17.113014836995948
20
-60.973878636189973
10
-19.041377668070627
20
-63.272011963856187
0
CIRCLE
5
106
100
AcDbEntity
8
INTERIOR_PROFILES
100
AcDbCircle
10
-34.668805009774118
20
33.049694523666432
30
0
40
1.5500000000000014
210
0
220
0
230
-1
0
LWPOLYLINE
5
107
100
AcDbEntity
8
INTERIOR_PROFILES
100
AcDbPolyline
90
4
70
1
43
0.0
10
-60.736634716043639
20
15.000000000000833
10
-60.736634716043625
20
19.52389342116544
10
-66.736634716043639
20
19.523893421165361
10
-66.736634716043653
20
15.000000000000837
0
CIRCLE
5
108
100
AcDbEntity
8
INTERIOR_PROFILES
100
AcDbCircle
10
-25.27187880191498
20
36.469895956923004
30
0
40
1.5500000000000014
210
0
220
0
230
-1
0
CIRCLE
5
109
100
AcDbEntity
8
INTERIOR_PROFILES
100
AcDbCircle
10
10.378508698852755
20
-85.55320578143818
30
0
40
1.0500000000000078
210
0
220
0
230
-1
0
CIRCLE
5
110
100
AcDbEntity
8
INTERIOR_PROFILES
100
AcDbCircle
10
75.808109530711292
20
-22.166104463122487
30
0
40
1.7499999999999987
210
0
220
0
230
-1
0
CIRCLE
5
111
100
AcDbEntity
8
INTERIOR_PROFILES
100
AcDbCircle
10
-10.111184483388929
20
-84.470397720145314
30
0
40
1.5500000000000016
210
0
220
0
230
-1
0
CIRCLE
5
112
100
AcDbEntity
8
INTERIOR_PROFILES
100
AcDbCircle
10
-27.129790736763884
20
17.499999999998668
30
0
40
1.0500000000000043
210
0
220
0
230
-1
0
CIRCLE
5
113
100
AcDbEntity
8
INTERIOR_PROFILES
100
AcDbCircle
10
-15.129790736763109
20
4.4999999999993534
30
0
40
1.0500000000000087
210
0
220
0
230
-1
0
CIRCLE
5
114
100
AcDbEntity
8
INTERIOR_PROFILES
100
AcDbCircle
10
13.736634716043277
20
10.999999999999215
30
0
40
1.7499999999999978
210
0
220
0
230
-1
0
CIRCLE
5
115
100
AcDbEntity
8
INTERIOR_PROFILES
100
AcDbCircle
10
-42.129790736763141
20
3.4999999999977405
30
0
40
1.5500000000000114
210
0
220
0
230
-1
0
CIRCLE
5
116
100
AcDbEntity
8
INTERIOR_PROFILES
100
AcDbCircle
10
-0.469370339731352
20
-95.961064368306552
30
0
40
1.5500000000000067
210
0
220
0
230
-1
0
CIRCLE
5
117
100
AcDbEntity
8
INTERIOR_PROFILES
100
AcDbCircle
10
2.0222697743495033
20
-75.594628019698419
30
0
40
1.0500000000000063
210
0
220
0
230
-1
0
CIRCLE
5
118
100
AcDbEntity
8
INTERIOR_PROFILES
100
AcDbCircle
10
-42.129790736764065
20
18.499999999997804
30
0
40
1.5500000000000114
210
0
220
0
230
-1
0
CIRCLE
5
119
100
AcDbEntity
8
INTERIOR_PROFILES
100
AcDbCircle
10
-15.129790736763855
20
17.499999999999378
30
0
40
1.0500000000000087
210
0
220
0
230
-1
0
CIRCLE
5
120
100
AcDbEntity
8
INTERIOR_PROFILES
100
AcDbCircle
10
37.505887356790964
20
-54.305484926032001
30
0
40
1.7499999999999993
210
0
220
0
230
-1
0
CIRCLE
5
121
100
AcDbEntity
8
INTERIOR_PROFILES
100
AcDbCircle
10
19.571042017381792
20
-77.839754466512062
30
0
40
1.0500000000000067
210
0
220
0
230
-1
0
CIRCLE
5
122
100
AcDbEntity
8
INTERIOR_PROFILES
100
AcDbCircle
10
63.736634716043298
20
10.999999999998931
30
0
40
1.7499999999999938
210
0
220
0
230
-1
0
CIRCLE
5
123
100
AcDbEntity
8
INTERIOR_PROFILES
100
AcDbCircle
10
-27.129790736763137
20
4.4999999999986251
30
0
40
1.0500000000000043
210
0
220
0
230
-1
0
CIRCLE
5
124
100
AcDbEntity
8
INTERIOR_PROFILES
100
AcDbCircle
10
11.214803092878558
20
-67.881176704772301
30
0
40
1.0500000000000023
210
0
220
0
230
-1
0
LWPOLYLINE
5
125
100
AcDbEntity
8
INTERIOR_PROFILES
100
AcDbPolyline
90
8
70
1
43
0.0
10
-109.69139215885107
20
0.88058780229779599
42
-0.24913053828175372
10
-109.34286804049165
20
1.194636049052592
10
-97.519669868162481
20
4.1518508583346687
42
-0.60111452508831786
10
-96.928501253803375
20
3.4957827757888471
10
-98.392477663648265
20
-0.52644801443150113
42
-0.24913872215209848
10
-98.74101750731748
20
-0.84049914072371168
10
-110.5640358655013
20
-3.7972507808969169
42
-0.60110235633692177
10
-111.15518875455066
20
-3.1411798188137241
0
LWPOLYLINE
5
126
100
AcDbEntity
8
INTERIOR_PROFILES
100
AcDbPolyline
90
8
70
1
43
0.0
10
-119.24596226406392
20
7.1098520252446962
42
-0.24911742886464575
10
-118.89746160443453
20
7.4238937374573419
10
-94.069512847585329
20
13.635114269320876
42
-0.60113048924296941
10
-93.478320886428833
20
12.979052413782599
10
-94.967233923008195
20
8.8882974662488419
42
-0.24911736691749448
10
-95.315734469470371
20
8.5742557823473078
10
-120.14368569102616
20
2.3630284787583506
42
-0.60113056864740855
10
-120.73487776534984
20
3.019090305985535
0
LWPOLYLINE
5
127
100
AcDbEntity
8
INTERIOR_PROFILES
100
AcDbPolyline
90
8
70
1
43
0.0
10
-115.78802381068948
20
16.610305661991845
42
-0.2491305382817384
10
-115.4394996923301
20
16.924353908746642
10
-103.61630152000092
20
19.881568718028721
42
-0.60111452508832874
10
-103.02513290564185
20
19.225500635482874
10
-104.4891093154867
20
15.203269845262511
42
-0.24913872215203339
10
-104.83764915915586
20
14.889218718970376
10
-116.66066751733979
20
11.932467078797087
42
-0.60110235633687625
10
-117.2518204063891
20
12.588538040880294
0
LWPOLYLINE
5
128
100
AcDbEntity
8
INTERIOR_PROFILES
100
AcDbPolyline
90
4
70
1
43
0.0
10
-128.46606377002195
20
13.917393362614964
10
-125.64698590766419
20
12.891332932637953
42
0.99999999999999989
10
-124.44991540602442
20
16.180257105388673
10
-127.26899326838213
20
17.206317535365592
42
0.99999999999999989
0
LWPOLYLINE
5
129
100
AcDbEntity
8
INTERIOR_PROFILES
100
AcDbPolyline
90
4
70
1
43
0.0
10
-43.910983366482661
20
-75.387916546432535
10
-41.091905504124981
20
-76.413976976409529
42
0.99999999999999989
10
-39.894835002485124
20
-73.125052803658818
10
-42.713912864842882
20
-72.098992373681824
42
0.99999999999999989
0
LINE
5
130
100
AcDbEntity
8
INTERIOR_PROFILES
100
AcDbLine
10
-3.4696897383026659
20
26.952211310040944
30
0
11
-6.2887676006603854
21
27.978271740017888
31
0
0
ARC
5
131
100
AcDbEntity
8
INTERIOR_PROFILES
100
AcDbCircle
10
5.6902323498405138
20
29.622733826393247
30
0
40
1.7500000000000027
210
-0
220
0
230
-1
100
AcDbArc
50
-70.000000000001705
51
109.99999999999925
0
LINE
5
132
100
AcDbEntity
8
INTERIOR_PROFILES
100
AcDbLine
10
-5.0916970990206147
20
31.267195912768596
30
0
11
-2.2726192366628872
21
30.241135482791584
31
0
0
ARC
5
133
100
AcDbEntity
8
INTERIOR_PROFILES
100
AcDbCircle
10
2.8711544874827943
20
28.596673396416247
30
0
40
1.7499999999999938
210
0
220
0
230
-1
100
AcDbArc
50
109.99999999999963
51
289.99999999999892
0
CIRCLE
5
134
100
AcDbEntity
8
INTERIOR_PROFILES
100
AcDbCircle
10
75.736634716043469
20
29.62273382639248
30
0
40
1.7500000000000104
210
0
220
0
230
-1
0
CIRCLE
5
135
100
AcDbEntity
8
INTERIOR_PROFILES
100
AcDbCircle
10
28.723482109896121
20
29.622733826393105
30
0
40
1.7499999999999991
210
0
220
0
230
-1
0
CIRCLE
5
136
100
AcDbEntity
8
INTERIOR_PROFILES
100
AcDbCircle
10
96.97110542115459
20
-28.718494931106278
30
0
40
1.750000000000012
210
0
220
0
230
-1
0
CIRCLE
5
137
100
AcDbEntity
8
INTERIOR_PROFILES
100
AcDbCircle
10
132.98526971720963
20
1.5009770688513457
30
0
40
1.7500000000000089
210
0
220
0
230
-1
0
CIRCLE
5
138
100
AcDbEntity
8
INTERIOR_PROFILES
100
AcDbCircle
10
60.956941126293501
20
-58.937966933635664
30
0
40
1.7499999999999991
210
0
220
0
230
-1
0
CIRCLE
5
139
100
AcDbEntity
8
INTERIOR_PROFILES
100
AcDbCircle
10
122.74978732219088
20
29.622733826391951
30
0
40
1.7500000000000091
210
0
220
0
230
-1
0
LINE
5
140
100
AcDbEntity
8
BEND
100
AcDbLine
10
-145.96691100202924
20
-3.7419941162723536
30
4.9173138869748667e-13
11
-61.434324816110916
21
-74.673256067317155
31
5.5722054203410675e-13
0
LINE
5
141
100
AcDbEntity
8
BEND
100
AcDbLine
10
-35.693118026634885
20
-64.000969993347525
30
2.631319520416746e-08
11
-87.493655755344619
21
-20.5351579030065
31
2.6310833543022565e-08
0
LINE
5
142
100
AcDbEntity
8
BEND
100
AcDbLine
10
19.090470269664497
20
30.459653507952638
30
6.1128945286050122e-13
11
4.055388337089898
21
35.931975801163162
31
5.8185415931818896e-13
0
LINE
5
143
100
AcDbEntity
8
BEND
100
AcDbLine
10
-13.066844267954423
20
-60.452796837000015
30
2.2711523004918563e-07
11
-22.70865841161184
21
-71.943463485161374
31
5.262537223345426e-08
0
LINE
5
144
100
AcDbEntity
8
BEND
100
AcDbLine
10
8.9361744104168039
20
15.000000000000053
30
-6.9275322248911903e-12
11
8.9361744104168217
21
-4.4408920985006262e-15
31
2.1532115252568108e-13
0
LINE
5
145
100
AcDbEntity
8
BEND
100
AcDbLine
10
-73.736634716043511
20
17.261946710583263
30
5.1732918012194376e-13
11
-6.1158350977773956
21
17.26194671058331
31
-3.3539185269627965e-12
0
LINE
5
146
100
AcDbEntity
8
BEND
100
AcDbLine
10
-16.264629601902953
20
41.983520942204073
30
4.9507436483823595e-13
11
-129.32418457425359
21
41.983520942202901
31
4.4991287177807617e-13
0
LINE
5
147
100
AcDbEntity
8
BEND_EXTENT
100
AcDbLine
10
-37.147069416659036
20
-65.733721789299111
30
5.6716395932520371e-13
11
-40.686807206885675
21
-62.76352909707721
31
5.6376454375719866e-13
0
LINE
5
148
100
AcDbEntity
8
BEND_EXTENT
100
AcDbLine
10
-45.283073860061421
20
-58.90680343235789
30
5.6223367943749564e-13
11
-78.989029316683684
21
-30.624148557749713
31
5.5100734109300608e-13
0
LINE
5
149
100
AcDbEntity
8
BEND_EXTENT
100
AcDbLine
10
-83.585295969859445
20
-26.767422893030421
30
5.4947647677330305e-13
11
-88.947607045789212
21
-22.267909577353251
31
5.4769046840679146e-13
0
LINE
5
150
100
AcDbEntity
8
BEND_EXTENT
100
AcDbLine
10
-73.736634716043355
20
19.523893421165184
30
5.5275673991902194e-13
11
-66.736634716043639
21
19.523893421165361
31
5.5508820827073679e-13
0
LINE
5
151
100
AcDbEntity
8
BEND_EXTENT
100
AcDbLine
10
-60.736634716043625
20
19.52389342116544
30
5.5708660971506379e-13
11
-16.736634716043621
21
19.523893421165862
31
5.7174155364012868e-13
0
LINE
5
152
100
AcDbEntity
8
BEND_EXTENT
100
AcDbLine
10
-10.736634716043625
20
19.523893421165933
30
5.7373995508445588e-13
11
-6.1158350977775022
21
19.523893421165855
31
5.7638921354759575e-13
0
LINE
5
153
100
AcDbEntity
8
BEND_EXTENT
100
AcDbLine
10
18.316838931515083
20
28.334118875404542
30
5.8341670570112231e-13
11
3.2817569989404838
21
33.806441168615045
31
5.7840901745951685e-13
0
LINE
5
154
100
AcDbEntity
8
BEND_EXTENT
100
AcDbLine
10
-16.264629601903291
20
39.721574231620444
30
5.718987629237667e-13
11
-129.32418457425342
21
39.721574231619073
31
5.320219205492303e-13
0
LINE
5
155
100
AcDbEntity
8
BEND_EXTENT
100
AcDbLine
10
-144.51295968269423
20
-2.0092424079978444
30
5.2696304219685243e-13
11
-59.980373496054682
21
-72.940504359648173
31
5.5733849530078287e-13
0
LINE
5
156
100
AcDbEntity
8
BEND_EXTENT
100
AcDbLine
10
-86.039704409024807
20
-18.802406162070262
30
5.2625324307263505e-08
11
-80.677393327045905
21
-23.301919477714073
31
5.2625406029329647e-08
0
LINE
5
157
100
AcDbEntity
8
BEND_EXTENT
100
AcDbLine
10
-76.081126671713619
20
-27.158645139863317
30
5.2625398678409775e-08
11
-42.375171199276821
21
-55.441299995624462
31
5.2625418786532319e-08
0
LINE
5
158
100
AcDbEntity
8
BEND_EXTENT
100
AcDbLine
10
-37.77890454394452
20
-59.298025657773692
30
5.2625420317396637e-08
11
-34.239166638090204
21
-62.26821828784233
31
5.262527050603485e-08
0
LINE
5
159
100
AcDbEntity
8
BEND_EXTENT
100
AcDbLine
10
-24.826466038885897
20
-70.166411886726564
30
5.2625309168230715e-08
11
-19.041377668070627
21
-63.272011963856187
31
1.573192623811467e-07
0
LINE
5
160
100
AcDbEntity
8
BEND_EXTENT
100
AcDbLine
10
-17.113014836995948
20
-60.973878636189973
30
1.9221721421890999e-07
11
-15.184651895228463
21
-58.675745238565227
31
2.2711465091318993e-07
0
LINE
5
161
100
AcDbEntity
8
BEND_EXTENT
100
AcDbLine
10
6.1715728752539256
20
-4.4408920985006262e-15
30
-5.1235158490728147e-14
11
6.1715728752536769
21
3.0000000000007798
31
-1.543374903586939e-12
0
LINE
5
162
100
AcDbEntity
8
BEND_EXTENT
100
AcDbLine
10
6.1715728752536769
20
6.0000000000008402
30
-1.1170492621308787e-12
11
6.1715728752538901
21
15.000000000000027
31
4.9943546172334975e-13
0
LINE
5
163
100
AcDbEntity
8
BEND_EXTENT
100
AcDbLine
10
-6.1158350977776976
20
15.00000000000005
30
5.1310650114396183e-13
11
-10.736634716043625
21
15.000000000000826
31
1.0300539264338929e-13
0
LINE
5
164
100
AcDbEntity
8
BEND_EXTENT
100
AcDbLine
10
-16.736634716043621
20
15.000000000000821
30
9.212520700206104e-14
11
-60.736634716043639
21
15.000000000000833
31
6.8588478879994797e-14
0
LINE
5
165
100
AcDbEntity
8
BEND_EXTENT
100
AcDbLine
10
-66.736634716043653
20
15.000000000000837
30
5.7708293238666483e-14
11
-73.736634716043454
21
14.999999999999998
31
4.7282068214601067e-13
0
LINE
5
166
100
AcDbEntity
8
BEND_EXTENT
100
AcDbLine
10
11.700775945578226
20
15.000000000000036
30
1.0000447501031536e-12
11
11.700775945580268
21
6.0000000000008313
31
-5.5676548617747197e-13
0
LINE
5
167
100
AcDbEntity
8
BEND_EXTENT
100
AcDbLine
10
11.700775945580251
20
3.0000000000007665
30
-9.6616022650799845e-13
11
11.700775945578243
21
-1.3322676295501878e-14
31
4.4076990144823073e-13
0
LINE
5
168
100
AcDbEntity
8
BEND_EXTENT
100
AcDbLine
10
-10.949036607829452
20
-62.229848462999968
30
2.2711475085622667e-07
11
-12.877399553219124
21
-64.527981864944564
31
1.9221732248861941e-07
0
LINE
5
169
100
AcDbEntity
8
BEND_EXTENT
100
AcDbLine
10
-14.805762384293821
20
-66.826115192610757
30
1.5731937370396944e-07
11
-20.590850751486851
21
-73.72051511116139
31
5.2625454075299934e-08
0
LINE
5
170
100
AcDbEntity
8
BEND_EXTENT
100
AcDbLine
10
4.82901967523933
20
38.057510433711251
30
6.0556971204503213e-13
11
19.864101607813947
21
32.585188140500712
31
6.1057740028663759e-13
0
LINE
5
171
100
AcDbEntity
8
BEND_EXTENT
100
AcDbLine
10
-129.32418457425365
20
44.245467652786502
30
3.2996133006745166e-13
11
-16.264629601903184
21
44.24546765278771
31
3.8538129478674045e-13
0
LINE
5
172
100
AcDbEntity
8
BEND_EXTENT
100
AcDbLine
10
-62.888276136167335
20
-76.406007774986179
30
4.4978855879744055e-13
11
-147.42086232153116
21
-5.4747458244064617
31
4.5716068853119033e-13
0
ENDSEC
0
SECTION
2
OBJECTS
0
DICTIONARY
5
C
100
AcDbDictionary
3
ACAD_GROUP
350
D
3
ACAD_MLINESTYLE
350
17
0
DICTIONARY
5
D
100
AcDbDictionary
0
DICTIONARY
5
1A
330
C
100
AcDbDictionary
0
DICTIONARY
5
17
100
AcDbDictionary
0
ENDSEC
0
EOF
