M48
;GenerationSoftware,Autodesk,EAGLE,9.6.2*%
;CreationDate,2020-11-18T11:18:14Z*%
FMAT,2
ICI,OFF
METRIC,TZ,000.000
T6C0.500
T5C1.000
T4C1.016
T3C1.200
T2C1.600
T1C3.200
%
G90
M71
T1
X23000Y14500
X-23000Y14500
T2
X13250Y30180
X-5000Y30180
X5000Y30180
X10750Y30180
T3
X-13750Y4250
X-8750Y4250
T4
X-6770Y14250
X-4230Y16790
X-6770Y16790
X-4230Y11710
X-4230Y14250
X-6770Y11710
X12980Y16790
X15520Y16790
X12980Y14250
X15520Y14250
X12980Y11710
X15520Y11710
T5
X-3500Y7750
X12000Y7750
X14500Y7750
X4250Y7750
X6750Y7750
X19750Y7750
X-1000Y7750
X-2500Y20500
X5000Y20500
X22250Y7750
X2500Y20500
X0Y20500
X-5000Y20500
X5000Y23000
X2500Y23000
X0Y23000
X24500Y20750
X-2500Y23000
X19500Y20750
X17000Y20750
X13250Y20500
X10750Y20500
X13250Y23000
X22000Y20750
X-13250Y26000
X-10750Y26000
X-22000Y7750
X-19500Y7750
X-5000Y23000
X10750Y23000
T6
X1250Y11500
X-9500Y11500
X-18500Y11500
M30