<?xml version="1.0" encoding="utf-8"?>
<!-- Generator: Adobe Illustrator 25.4.1, SVG Export Plug-In . SVG Version: 6.00 Build 0)  -->
<svg version="1.1"
	 id="Red_Parts" inkscape:version="1.1 (c68e22c387, 2021-05-23)" xmlns:inkscape="http://www.inkscape.org/namespaces/inkscape" xmlns:sodipodi="http://sodipodi.sourceforge.net/DTD/sodipodi-0.dtd" xmlns:svg="http://www.w3.org/2000/svg"
	 xmlns="http://www.w3.org/2000/svg" xmlns:xlink="http://www.w3.org/1999/xlink" x="0px" y="0px" viewBox="0 0 710.4 537.6"
	 style="enable-background:new 0 0 710.4 537.6;" xml:space="preserve">
<style type="text/css">
	.st0{fill:#D02C3B;}
	.st1{fill:#010203;}
</style>
<path class="st0" d="M355.3,18.2C283.6,59.6,210.1,101.6,138.4,143c0,82.9,0,166.8,0,249.7c71.7,41.4,145.1,83.6,216.9,124.9
	C427,476.1,500.4,434,572.1,392.7V143.1C500.3,101.7,427.1,59.6,355.3,18.2z"/>
<path class="st1" d="M437.6,106.9c1.9-0.8,3.7,2,1.5,2.8C437.2,110.4,435.7,107.7,437.6,106.9z M444.1,109.9c0.8-1.2,2.6-4.1,3.6-6
	c-0.9-0.5-1.9-1.1-2.8-1.6l-3.5,6.1C442.2,108.9,443.3,109.4,444.1,109.9z M441.9,86.1c0.8-0.3,0.4-1.5-0.5-1.3
	C440.7,85.1,441.2,86.4,441.9,86.1z M435.3,96c2.1-0.4,1.6-3.9-0.6-3.5C432.4,92.9,433,96.4,435.3,96z M378.9,86.4
	c-2.2,0.2-1.9,3.6,0.3,3.5C381.7,89.9,381.2,86.2,378.9,86.4z M415.3,78c1.3-0.5,0.5-2.6-0.8-2.1C413.1,76.4,413.9,78.5,415.3,78z
	 M422.1,70c2.4-0.7,1.5-4.1-0.9-3.4C419.2,67.1,420,70.6,422.1,70z M414.1,102.8c2.8,0.3,3.4-3.7,0.6-4.1
	C412.1,98.3,411.4,102.5,414.1,102.8z M400.1,98.9c-2.3,0.5-1.2,4,0.9,3.4C403.2,101.6,402.3,98.3,400.1,98.9z M445.9,111
	c-2.1,0.4-1.6,3.6,0.6,3.2C448.4,113.9,448,110.7,445.9,111z M465.3,98.7c0.9-0.4,0.4-1.6-0.5-1.3C464,97.7,464.6,99,465.3,98.7z
	 M515.9,267.7c-21.2,0-43,0.1-64.2,0.1c-23.9,41.3-48.4,83.6-72.3,124.9c21.3,0,42.7,0.1,64,0.1C467.2,351.5,492.1,309,515.9,267.7z
	 M520.9,319.5l-0.6-11.1l-1.9-1.1l0.6,11.2L520.9,319.5z M524.2,316c-0.1-1.8-0.1-3.6-0.2-5.4l-2-1.1c0.1,1.9,0.1,3.7,0.2,5.5
	L524.2,316z M445.8,210.2c2.3-0.7,0.9-3.8-1.2-3.2C442.4,207.6,443.6,210.9,445.8,210.2z M366.2,349.5c-2.2,0.9-0.6,4,1.5,3.1
	C369.7,351.6,368.3,348.6,366.2,349.5z M407.1,89L407.1,89c-1.5,0.1-1.7,2.2-2.1,3.3c-0.4,1.2-1.2,2.3-1.5,3.5
	c-0.4,2.1,1.7,6.5,4.1,6.2c1.7-0.2,1.8-2.1,2.4-3.4c0.6-1.1,2-2,2.2-3.2C412.7,93.7,409.1,88.8,407.1,89z M460.9,110.4
	c2.1-1,0.6-4.1-1.5-3.2C457.4,108.1,458.8,111.4,460.9,110.4z M453.5,231.2c2.2-0.7,1.1-4.2-1.2-3.3
	C450.2,228.7,451.5,231.8,453.5,231.2z M517.1,317.5c0-1.8-0.1-3.6-0.1-5.4l-1.9-1.1c0.1,1.9,0.1,3.7,0.2,5.5L517.1,317.5z
	 M506,150.8c3.6-0.6,1.9-5.6-1.3-5.2C501.1,146,502.6,151.3,506,150.8z M436.3,116.9c1.2,0.8,1.7,1.1,2.8,1.7c1.1-1.8,2.6-4.2,3.7-6
	c-0.9-0.7-1.9-1.3-2.9-1.8C438.9,112.7,437.4,115.1,436.3,116.9z M456.1,103.7c2.2-0.6,1.3-4.3-0.9-3.9
	C452.4,100.3,453.3,104.4,456.1,103.7z M242.6,112.2c-1.7-1.6-6.1-1.4-8.3-0.9c-1.8,0.4-2.6,1.9-3.5,3.4c-2.4,4.2-2,8.2,1.7,11.7
	c1.5,1.4,6.9,1.2,8.8,0.6c1.6-0.4,2.3-2.1,3-3.4C246.8,119.6,246.2,115.6,242.6,112.2z M306.2,75.3c-1.7-1.4-6.1-1.2-8.2-0.8
	c-1.8,0.4-2.6,1.9-3.4,3.4c-2.4,4.2-2,8.1,1.7,11.7c1.5,1.5,6.8,1.2,8.8,0.7c1.6-0.4,2.4-2.1,3.1-3.4
	C310.5,82.9,310.2,78.5,306.2,75.3z M290.3,84.4c-1.6-1.4-6.6-1.2-8.6-0.6c-1.6,0.4-2.3,2.1-3.1,3.4c-2.3,4.1-2.1,8.3,1.9,11.7
	c1.6,1.4,6.6,1.2,8.6,0.6c1.6-0.4,2.3-2.1,3.1-3.4C294.6,92.1,294.2,87.8,290.3,84.4z M265.7,93.1c-1.6,0.5-2.2,2-3,3.4
	c-2.3,3.9-1.9,8.4,1.9,11.6c1.4,1.2,7.1,1,8.8,0.5c1.5-0.4,2.3-2.2,3-3.5c2.2-4.1,1.8-7.9-1.9-11.4C273,92.3,267.7,92.5,265.7,93.1z
	 M226.6,121.3c-1.6-1.4-6.5-1.2-8.5-0.7c-1.6,0.4-2.3,2-3.1,3.4c-2.3,4.1-2.1,8.3,1.9,11.7c1.6,1.4,6.6,1.2,8.6,0.6
	c1.6-0.4,2.2-2.1,3-3.4C230.7,128.8,230.6,124.7,226.6,121.3z M297.4,93.1L297.4,93.1c-2.2,0.7-5,5.9-4.7,8.2c0.3,2.4,2.2,4.7,4.7,4
	c2.6-0.7,9.7-4.2,10.6-6.8C310.1,92.7,300.7,92.1,297.4,93.1z M281.4,102.4c-2.1,0.6-5,6.1-4.7,8.2c0.3,2.2,2.2,4.6,4.7,4
	c2.6-0.7,9.7-4.3,10.6-6.8C294.2,101.9,284.7,101.4,281.4,102.4z M217.7,139.2c-2.2,0.6-5,5.9-4.7,8.2c0.3,2.3,2.3,4.6,4.7,3.9
	c2.6-0.7,9.7-4.2,10.6-6.8C230.5,138.8,221,138.2,217.7,139.2z M266.4,111.3L266.4,111.3c-2.9,0.5-5.7,5.8-5.4,8.5
	c0.2,2,1.9,4.4,4.1,4c2.6-0.4,10-4.5,11-6.9C278.3,111.2,269.7,110.7,266.4,111.3z M233.7,129.9c-2.3,0.7-5,5.9-4.7,8.2
	c0.3,2.4,2.1,4.7,4.7,4c2.6-0.7,9.3-4,10.4-6.5C246.8,129.7,237,128.9,233.7,129.9z M250,120.6L250,120.6c-2.5,0.6-5.3,5.8-5.2,8.2
	c0.1,2.5,2.4,4.7,4.9,4c2.6-0.7,9.3-4.1,10.4-6.6C262.7,120.5,253.3,119.8,250,120.6z M392.6,65c1.5-0.3,0.8-2.6-0.6-2.2
	C390.7,63.2,391.2,65.3,392.6,65z M336.8,72c1.6-0.5,2.4-2,3.2-3.3c2.4-4.1,2.1-8.2-1.7-11.7c-1.5-1.4-6.9-1.2-8.8-0.6h0
	c-1.4,0.4-2.1,1.9-2.8,3.1c-2.5,4.2-2.2,8.1,1.6,11.8C329.9,72.7,334.6,72.6,336.8,72z M405.8,81.2c6-0.5,5.2-9.6-0.6-9
	C399.5,72.9,400,81.7,405.8,81.2z M396.5,55.4c2.3,0,2.3-3.5,0-3.5C394.2,51.9,394.3,55.4,396.5,55.4z M401.6,62.2
	c2.3-0.7,1.4-4-0.9-3.4C398.6,59.4,399.4,62.8,401.6,62.2z M376.4,84.4c3.9,0.2,5.5-1.5,7.8-4.2c0.8-0.9,2.2-2.1,1.6-3.4
	c-0.6-1.4-5.5-1.8-6.8-1.7C376.8,75.1,371.3,84.2,376.4,84.4z M393,98c12.4,0.3,12.6-18.8,0.3-18.9C381,78.9,380.7,97.7,393,98z
	 M371.6,74.5c-2.2,0.5-1.6,3.9,0.6,3.5C374.4,77.7,373.9,74.1,371.6,74.5z M312,66.5c-3.5,3.9-3.8,7.1-1.3,11.4
	c0.8,1.5,1.5,3,3.4,3.2c2.1,0.2,6.6,0.8,8.2-0.7c3.7-3.6,4.3-7.5,1.7-11.7c-0.9-1.4-1.7-3.1-3.5-3.3h0
	C318.3,65.1,313.5,64.8,312,66.5z M210.9,130.8c-1.6-1.6-6.7-1.5-8.9-0.9c-1.6,0.4-2.4,2-3.1,3.4c-2.3,4.1-2,7.9,1.7,11.4
	c1.5,1.4,7.1,1.2,9,0.7c1.4-0.4,2.1-1.9,2.8-3.1C214.9,138,214.6,134.4,210.9,130.8z M210.6,148.8c-1.7-1.4-5.9-1.1-7.9-0.7
	c-2.3,0.4-4.9,4.2-2.5,6.1c1.7,1.3,8.1,1,10.1,0.4C213.1,153.8,212.3,150.2,210.6,148.8z M258.6,103c-1.6-1.4-6.9-1.2-8.8-0.6
	c-1.6,0.4-2.3,2.1-3,3.4c-2.3,3.9-1.9,8.1,1.8,11.4c1.6,1.4,6.9,1.2,8.8,0.6c1.5-0.4,2.2-2.1,3-3.4
	C262.7,110.4,262.3,106.4,258.6,103z M260,310.1c2.3-0.3,1.7-4-0.6-3.5C257.1,307,257.7,310.4,260,310.1z M242.4,311.2
	c2.6,1.2,9-1.6,11.5-2.7c1.5-0.7,5.9-5.7,3.1-7c-1.1-0.5-2.9-0.2-4.1-0.2c-3.2,0-8.6-1-11.5,0.2v0
	C237.9,302.9,239.6,309.9,242.4,311.2z M327.2,111c-1.3,2.1-2.6,4.2-4,6.3h1.5c3-4.6,3-4.7,4-6.3H327.2z M266.3,319.1
	c1.8-0.5,1.6-2.6,1.6-4.1c0-3.6-0.3-7.1-2.1-10.2c-0.7-1.1-1.7-2.8-3.3-2.4v0c-2.3,0.5,1.6,4.7,1.5,6.2c-0.2,1.8-1.7,2.6-2.3,4.2
	C260.4,316.3,262.1,320.2,266.3,319.1z M259.6,331.2c-2.1,0.1-2.2,3.5,0,3.5C262,334.7,262,331.2,259.6,331.2z M437.9,218.6
	c-2.2,0.7-1,4.3,1.2,3.4C441.2,221.2,440.1,217.9,437.9,218.6z M222.2,315c0,3.4,2.8,5.4,6.3,3.6c3.7-1.8-2.2-9.1-5.3-7.9
	C221.6,311.3,222.2,313.7,222.2,315z M326,111h-1.5c-1.1,1.7-1.4,2.2-2,3.2h1.5C324.7,113.1,325.3,112.1,326,111z M320.7,114.4
	c-0.9,0.2-0.6,1.5,0.2,1.3C321.7,115.6,321.5,114.2,320.7,114.4z M221.5,307.8c2.1-0.6,1.2-4-0.9-3.4
	C218.4,305,219.4,308.4,221.5,307.8z M313.6,114.4c-0.8-0.1-1,1.2-0.2,1.3C314.3,115.9,314.5,114.6,313.6,114.4z M228.9,309.2
	c1.4,0,5.8-2.2,6.9-3.1c1.1-0.9,0.6-2.4-0.8-2.4c-1.8,0-5.9,1.4-7.2,2.6C226.6,307.4,227.3,309.2,228.9,309.2z M531,225
	c-2.2,0.8-1,4.1,1.2,3.3C534.4,227.6,533.1,224.2,531,225z M531,254.1c-2.2,0.8-0.9,4.2,1.2,3.4C534.3,256.7,533.2,253.3,531,254.1z
	 M547.3,169.5c2-0.8,0.8-3.9-1.2-3.1C543.9,167.2,545.1,170.4,547.3,169.5z M560.1,254.1c-2.2,0.8-1,4.2,1.2,3.4
	C563.5,256.7,562.3,253.3,560.1,254.1z M551.5,156.1c2.2-0.5,1.7-3.8-0.6-3.5C548.6,153,549.2,156.6,551.5,156.1z M256.4,318.4
	c2.9-0.8,2.3-7.3-1.3-6.8c-2.3,0.3-11.1,2.2-11.1,5c0,1.2,0.8,1.8,1.9,1.9C248.8,318.9,253.5,319.2,256.4,318.4z M256.7,322.4
	L256.7,322.4c-2-0.2-9.7-0.7-10.9,0.7c-0.9,1.1-0.6,3.2,0.5,4c1.9,1.5,6.7,2.9,9.2,3C259.1,330.4,259.6,322.7,256.7,322.4z
	 M560.1,225c-2.2,0.8-1,4.1,1.2,3.3C563.6,227.6,562.3,224.2,560.1,225z M246.9,330.9c-1.7,0.3-4.3,7.3-3,8.6
	c0.8,0.8,2.3,0.6,3.3,0.6c2.9,0,6.8,0.7,9.6-0.1c2.6-0.8,0.1-3.5-0.7-4.7C254.5,332.9,249.9,330.2,246.9,330.9z M341.6,389.4
	c-2.3,0.1-2.2,3.5,0,3.5C343.9,393.1,343.9,389.4,341.6,389.4z M254.5,356.7c2.3-0.8,1.6-4.6-0.9-3.8
	C251.3,353.8,252,357.6,254.5,356.7z M263.8,322.2c-5.9,1,0.3,8.4,0.3,10.8c0,1.9-1.8,2.8-2.3,4.5c-0.3,0.9,0.4,1.7,1.4,1.6
	c1.7-0.2,2.8-2.4,3.3-3.8C268,331.4,270.5,321.1,263.8,322.2z M502.8,194.6c-2.2,0.2-2.1,3.8,0.3,3.5
	C505.3,197.8,505,194.4,502.8,194.6z M488.8,191.8c-2.3,0.2-2,3.8,0.3,3.5C491.2,194.9,490.9,191.6,488.8,191.8z M218,289
	c3-0.7,2.1-5.5-1-4.8C214.1,284.8,215,289.7,218,289z M459.7,143h-64.3c-47.8,82.9-96.7,167-144.5,249.8c21.3,0,43-0.1,64.3-0.1
	C362.9,309.9,411.9,225.7,459.7,143z M476.8,231.3c1.8-0.7,0.7-3.5-1.2-2.7C473.9,229.2,475.1,232,476.8,231.3z M482.1,228.8
	c-2.5,0.7-1,3.6-1.9,5.2c-0.7,1.3-2.4,1.8-3.3,3c-2,2.7-1.9,7,0.3,9.6c0.8,1,2.1,1.4,2.8,2.4c1.3,1.7-0.2,6.6,3.7,5.5
	c2.5-0.7,1-3.6,1.9-5.2c0.8-1.4,2.6-1.9,3.6-3.3c3.7-5.2-0.7-8.2-3.4-11.9C484.4,232.2,486.2,227.6,482.1,228.8z M435.3,232.3
	c-2.3,0.4-1.8,4,0.6,3.6C438.1,235.4,437.5,231.9,435.3,232.3z M395.6,289c-2.2,0.2-2,3.7,0.3,3.6C398.4,292.4,398,288.8,395.6,289z
	 M371,331.6c-2.2,0.3-1.9,3.7,0.3,3.6C373.9,334.9,373.5,331.2,371,331.6z M345,110.7c-2.4,0.8-0.8,4.1,1.5,3.1
	C348.5,113,346.9,110.1,345,110.7z M325.9,117.3h1.6c0.6-1,1.3-2.1,1.9-3.1h-1.6L325.9,117.3z M413,281.3c-2.3,0.9-0.6,4,1.5,3.1
	C416.4,283.6,415,280.5,413,281.3z M353.3,136.9c2.1-0.9,0.6-4-1.5-3.1C349.6,134.7,351.2,137.8,353.3,136.9z M363.8,176.9
	c2.2-0.8,1-4.2-1.2-3.4C360.4,174.3,361.6,177.7,363.8,176.9z M258.8,267.9c23.8-41.4,48.5-83.6,72.3-124.9c-21.1,0-43,0.1-64.2,0.1
	c-23.8,41.4-48.4,83.4-72.3,124.8C215.8,267.8,237.5,267.9,258.8,267.9z M401,126.4c2.2-0.4,1.6-3.9-0.6-3.5
	C398,123.3,398.7,126.9,401,126.4z M378,151.7c2.3-0.3,1.7-4-0.6-3.5C375.3,148.6,375.8,152,378,151.7z M337.4,159
	c-2.2,0.6-0.9,3.9,1.2,3.2C340.8,161.4,339.6,158.4,337.4,159z M321.4,219.8c-4,0.5-11.3,1.9-14.7,4.1c-2.1,1.4-1.4,5.1,1.2,5.2
	c1.4,0.1,3.1-0.7,4.5-1.1c3.4-0.8,8.6-1.3,11.5-3.3C326.7,222.8,324.2,219.4,321.4,219.8z M300.3,228.5L300.3,228.5
	c-1.4,0.6-2.3,2.7-3,4c-2,3.6-5.2,7.5-6.4,11.5c-0.7,2.3,1.1,4.6,3.6,3.6c1.5-0.6,2.3-2.3,3-3.6c2.1-3.6,5.3-7.5,6.4-11.5
	C304.5,230.3,302.8,227.5,300.3,228.5z M288.4,249.9c-1.7,0.4-2.5,2.3-3.3,3.7c-2.1,3.7-6,8.3-6.9,12.5c-0.5,2.4,1.7,3.2,3.7,2.8
	c1.7-0.3,2.3-2.1,3.1-3.4c2.1-3.6,5.5-7.8,6.6-11.8C292.4,251.4,290.8,249.3,288.4,249.9z M279.5,272L279.5,272
	c-2.1,0.5-2.2,2.6-1.8,4.3c0.9,4.3,1.9,9,3.5,13.1c0.5,1.4,1.9,2.5,3.4,2.1c2-0.5,2.2-2.3,1.9-4c-0.8-4.5-2-9.5-3.6-13.8
	C282.3,272.4,281,271.6,279.5,272z M225.4,117.8c2.3-0.4,5.3-6,5-8.2c-0.3-2.1-2-4.5-4.3-4h0c-2.6,0.5-10.4,4.5-11.1,7.2
	C213.5,118.6,222,118.5,225.4,117.8z M328.9,469.9c-2.3-0.2-2.6,3.4-0.3,3.6C330.7,473.6,331.1,470.1,328.9,469.9z M354.7,493.4
	c-2.1,0.5-1.2,4.1,0.9,3.5C357.8,496.2,357,492.9,354.7,493.4z M318.8,439.6c3-1.2,3-10,0.3-11.4c-1.9-1-4.7-0.5-6.7-0.5
	c-5.4,0-13.1-1.4-18.2,0.2c-3.6,1.1-3.8,10-0.6,11.6c1.7,0.9,4.5,0.4,6.4,0.4h12.8C314.6,439.8,317.1,440.3,318.8,439.6z
	 M328.5,439.3c1.3,0.9,3.5,0.6,5.1,0.6c4.2,0,9.8,1,13.8-0.1c3.4-1,3.2-9.8,0.6-11.4c-1.4-0.9-3.5-0.6-5.1-0.6
	c-4,0-8.8-0.7-12.8,0.1v0C326.4,428.5,325.7,437.3,328.5,439.3z M348.6,469c0.9,1.5,1.8,2.9,2.7,4.3h2.1l-2.7-4.3
	C350.1,469,349.3,469,348.6,469z M396,449.6c-2.2,0.9-0.6,4,1.5,3.1C399.5,451.9,398.1,448.8,396,449.6z M378.2,470.1
	c-2,0.9-0.5,3.8,1.5,3.1C382,472.4,380.5,469.1,378.2,470.1z M357,439.2c1.4,1,3.5,0.6,5.1,0.6c4.1,0,9.8,1,13.8-0.2
	c3.4-1.1,3.2-9.7,0.6-11.4c-1.3-0.9-3.3-0.6-4.8-0.6c-4.1,0-9.5-0.9-13.4,0.1C354.8,428.7,354.3,437.3,357,439.2z M353.5,464.6
	c0.9,1.5,1.9,3,2.8,4.5h2.1c-0.9-1.4-2-3-2.9-4.5C354.8,464.6,354.3,464.6,353.5,464.6z M349.6,464.6c1.9,3,3.8,5.8,5.7,8.7
	c1.9,0,0.3,0,2.1,0c-1.9-2.9-3.8-5.9-5.8-8.7H349.6z M175.5,332.3c-2.2-0.3-2.8,3-0.6,3.4C177.2,336.2,177.8,332.6,175.5,332.3z
	 M182.4,309.8c3.7-5.5,3.8-5.8,6.7-10.3c-2,0-2.4,0-4.7-0.1c-2.4,3.6-5.6,8.7-6.8,10.3C178.7,309.8,181,309.8,182.4,309.8z
	 M178.3,296.9c2-0.8,0.5-3.8-1.5-3.1C174.5,294.6,176.2,297.8,178.3,296.9z M439.8,428.4c2.2-0.7,1-4.2-1.2-3.4
	C436.4,425.8,437.6,429.1,439.8,428.4z M246.2,415c-13.3,1.9-10.4,22.3,2.9,20.6C262.7,433.8,259.7,413,246.2,415z M184.8,320.2
	c4.5-6.8,9-13.9,13.5-20.8c-1.8-0.1-3.3-0.1-4.8-0.1c-3.2,5-10.8,16.7-13.6,20.8L184.8,320.2z M196.3,328.7c-2.2,0.8-1,4.3,1.2,3.4
	C199.6,331.3,198.4,328,196.3,328.7z M229.9,394.3c-2,0.8-0.6,3.9,1.5,3.1C233.7,396.5,232,393.4,229.9,394.3z M187.6,339.8
	c-2.3,0.3-4.5,1-6.4,2.2c-14.2,8.8-5.9,31.4,10.6,29.3c2.4-0.3,4.7-1,6.7-2.3C212.5,359.9,204,337.6,187.6,339.8z M195,402.5
	c-3,0.6-2,5.2,0.9,4.4C198.5,406.3,197.8,401.9,195,402.5z M208.5,410.6c-2.9,0.8-1.3,5,1.6,4.2
	C212.6,413.9,211.2,409.8,208.5,410.6z M408.8,465c-2,0.4-1.4,3.7,0.6,3.5C411.7,468.2,411.1,464.5,408.8,465z M526.1,344.1
	c0.9-0.2,0.4-1.6-0.5-1.3C524.8,343.1,525.3,344.3,526.1,344.1z M525,384.8l3.4-1.8c0.2-3.3,0.3-6.7,0.4-10l-3.3,1.9
	C525.4,378.2,525.2,381.5,525,384.8z M512.8,382.3l3.5-1.9c0.3-6.2,0.4-7.7,0.4-9.9c-1.1,0.6-2.2,1.2-3.3,1.9L512.8,382.3z
	 M499.7,407.7c-2,0.9-0.6,3.9,1.5,3.1C503.3,410,501.8,406.8,499.7,407.7z M567.6,145.5v244.6c-70.8,40.7-141.6,81.5-212.3,122.3
	C284.6,471.8,213.8,431,143,390.2c0-81.6,0-163.3,0-244.8C213.7,104.7,284.5,64,355.3,23.2C427.2,64.6,498,105.4,567.6,145.5z
	 M511.3,131.4c1.5,1.5,4.1,2.5,5.9,3.5c3.9,2.2,7.7,4.5,11.5,6.7c1.9,1.1,5.7,2.6,5.2,5.4c-0.6,3.7-7.2,5-9.6,7.2
	c-1.7,1.6-2.7,4.2-3.9,6.2c-1.7,3.1-4.4,6.2-5.5,9.6c-0.7,2.3,2.1,5.7,3.1,7.7c1.8,3.5,3.3,6.6,7.1,8.2c2.9,1.2,7.2,0.3,10.2,0.1
	c5-0.3,10.5,0.7,15.4-0.5c2-0.5,2.8-2.4,3.8-4c1.8-3.1,3.5-6.2,5.4-9.3c1.4-2.3,3.3-4.8,4.1-7.4c0.7-2.4,0.2-5.5,0.2-8
	c0-2.6,0.1-5.1-1.3-7.4c-2.1-3.3-6-4.9-9.2-6.7L534.8,132c-4.6-2.6-9.2-5.3-13.8-8c-1.2-0.7-3.6-2.7-5.1-2.3l0,0
	C514.2,122.2,509.9,129.9,511.3,131.4z M564,251.3v-18.2c0-2.5,0.8-6.6-0.2-8.9c-0.9-2.3-4.4-0.8-6.2-1.9c-1.5-1-1.8-3.7-2.9-5.2
	l1.6-1l-1.6-1.6l1.6-0.6l-1.6-1l1.6-1.6l-1.6-1l1.6-1.6l-1.6-1v-0.6l1.3-0.6v-0.6l-1.3-0.6v-0.6l1.6-0.6l-1.6-1.3v-0.6l1.6-0.6
	l-1.6-1.3v-0.6l1.6-1l-1.6-1.6l1.3-0.3c-0.9-1.9-2.3-1.9-4.2-1.9c-4.1,0-11.1-1.3-14.7,0.6h0v0.3l0.6,0.3v0.3l-1.6,1l1.6,1v0.6
	l-1.6,1.3l1.6,0.6v0.6l-1.6,0.6v0.6l1.6,0.6v0.6l-1.6,0.6v0.6l1.6,0.6v0.6l-1.6,0.6v0.6l1.6,0.6v0.6l-1.6,0.6v0.3l1.6,1.6l-1.6,0.6
	v0.3l1.6,1.6l-1.6,0.6v0.3l1.6,1v0.3c-2.3,1.4-0.8,3.6-2.4,5.3c-2,2.1-5.9-0.3-7.6,1.8c-1.2,1.5-0.6,4.8-0.6,6.6v17.3
	c0,2.9-1.5,12.2,1.9,13.3c1.8,0.5,6.3,0.7,7.3-1.1c1.1-1.9,0.3-5.8,0.3-8c0-7.4-4.6-14.9,3.8-20c1.2-0.7,2.7-1.3,4.2-1.4
	c6.3-0.5,12.5,4,12.5,10.7c0,3.5-1.8,6.6-2.2,10.1c-0.3,2.4-1,8.1,1.5,9.5c1.7,0.9,6.3,0.9,7.2-1.2C564.6,257.2,564,253.6,564,251.3
	z M339.1,405.5c0.4,1.2,2.4,1.9,3.4,2.5c3.3,1.9,7.2,5,10.9,5.9l12.1-21.1l4.8-9c-5.4-3.3-10.9-6.3-16.3-9.5c-1.3-0.8-4.4-3.3-6-2.8
	c-1,0.3-1.5,1.8-2,2.7c-1.4,2.5-2.8,4.9-4.2,7.4c-1.4,2.5-5.5,7.2-4.9,10.2c0.6,2.9,3.4,5.1,4.1,8
	C341.5,402,338.5,403.6,339.1,405.5z M241.2,376.5c0,2-2.5,3.4-2.4,5.4c0,1.4,2.9,3.1,4.2,2.7c2-0.6,3.7-5.4,4.6-7.1
	c3.1-5.5,6.4-10.8,9.4-16.3c1.1-2,3-4.2,3.5-6.4c0.6-2.7-6.1-6.9-8.5-6.1c-4,1.3-4,8.6-7.4,10.6c-2.3,1.4-6.5-4.3-9.3-3.7
	c-1.7,0.3-2.5,2.3-3.3,3.7c-1.9,3.6-4.1,7-6.1,10.6c-0.7,1.3-2.5,3.3-1.4,4.7c0.4,0.5,1,0.8,1.5,1.1c4.6,2.8,3.8-5.8,7.7-4.3
	C235.3,371.9,241.1,374.6,241.2,376.5z M219.6,322.7h9.9c1.4,0,3.1,0.2,3.8-1.3c0.7-1.4-0.8-2.6-1.3-3.8c-1.1-2.7,0.6-5.7,3.2-6.5
	c3.2-1,6.7,2.3,6.1,5.6c-0.3,1.4-1.7,2.5-1.8,3.8c-0.1,1.8,2.3,3.2,3.3,4.5c0.9,1.3,0.8,3,0.7,4.5c-0.4,3.2-1.5,6.4-3.4,9
	c-1.3,1.8-3.5,3.1-3.9,5.4c6.1-0.3,12.1-0.6,18.2-0.6c3.6,0,7.4,0.5,10.6-1.6c2.8-1.8,4.4-5.2,5.3-8.3c0.8-3.2,0.8-6.6,0.8-9.9
	c0-7.3,1.2-17.8-5.2-23.1c-2.9-2.4-6.6-1.9-10.2-1.9c-6.4,0-13.3,0.7-19.5-1.3h0v2.6c-3.5,0.6-6.7,2.9-10.2,3.3
	c-3.1,0.4-6.5-3.6-8.8,0.8c-1.9,3.7,1.6,4.7,2.3,7.7C220.4,314.8,219.6,319.3,219.6,322.7z M332.4,104.9c0-2,0.6-5.8-0.3-7.6
	c-0.6-1.2-3.6-0.9-4.6-0.5c-3.1,1.2-3.8,6.8-6.4,8.9c-3,2.5-6.9,0.6-9.5,2.6c-1.9,1.4-1.8,11,0.3,12.2c2.3,1.2,5.2,0,7.7,1.3
	c4,2.2,6.1,13,12.1,10.1c1.6-0.8,1-7.1,1-8.7L332.4,104.9z M264.4,138.4c-25.3,43.8-51.5,88.9-77.6,134c24.7,0,49.9,0,74.6,0
	c25.6-44.4,51.9-89.6,77.5-134H264.4z M352.7,180.9c2.8-0.1,2.7-3.1,5.1-3.6c2.7-0.6,5.2,4.1,7.9,2.1c1.8-1.4,2.9-4.6,4.1-6.5
	c3.3-5.5,6.3-11.1,9.6-16.6c1.2-2,4-5.3,3.9-7.7c-0.1-2.1-3.6-3.8-5.3-4.5c-3.7-1.4-5.6,4.2-6.9,6.7c-1.7,3.2-1.8,6.9-3.6,9.9
	c-3.5,5.8-11.5,7.5-16.7,2.8c-4.2-3.8-5.4-9.9-2-14.7c1.7-2.3,4.3-3.7,5.9-6.1c1.9-2.8,6.4-8.2,2.5-10.8c-1.4-1-3.7-2.6-5.4-1.4
	c-2.2,1.5-3.6,5.5-4.9,7.8c-3.1,5.5-6.4,10.8-9.4,16.3c-1.1,1.9-3,4.2-3.3,6.4c-0.4,2.9,3.8,3.2,4.8,5.4c0.7,1.8-1.1,2.9,0.1,4.8h0
	l-2.2,0.3l1,1.9l-2.2,0.3l1,1.9l-2.2,0.3l0.6,2.2h-1.9l1,1.9l-2.2,0.3l1,1.9l-2.2,0.3l1,1.6l-1.9,0.3l0.6,1.9L328,187l0.6,1.9
	l-1.6,0.3c0.2,2.2,1.4,2.8,3.2,3.8c3.6,2,8.3,6.1,12.5,6.4l1.6-1l0.3-0.3l-0.6-1.9l1.9-0.3l-1-1.6l2.2-0.6l-1-1.6l2.2-0.3l-1-1.9
	l2.2-0.3l-1-1.9l1.9-0.3l-0.3-2.2l1.6,0.3l-0.6-2.2h1.9L352.7,180.9z M305.6,259.7c-0.4,2.5-2.8,1.1-4,0.3c-0.6,1.4-1.4,3.6-0.8,5.1
	c0.6,1.5,4.9,1.8,6,0.8c1.1-1,1.2-3,1.7-4.3c1-2.4,2.4-4.5,4.2-6.4c0.9-0.9,3-2.1,3-3.5c0-1.6-4.2-6.9-5.9-6.7
	c-2.2,0.3-6.2,6.8-6,8.9C304.2,255.8,305.9,257.7,305.6,259.7z M329.7,226.2c1.6-0.8,2.5-3.2,3.4-4.7c2.3-4,5-8,6.9-12.2l-5.1-2.6h0
	c-1.3,2.5-2.7,5.8-5.1,7.4c-1.7,1.1-4.1,1.4-6.1,2c-8.1,2.3-21.8,2.9-26.7,10.5c-5.9,9-10.9,18.8-16.3,28.2c-2.3,4-6.2,8.8-6.8,13.4
	c-1,7.4,3.2,16.6,5.1,23.7c0.6,2.2,1.9,5,1.8,7.4c-0.1,3.1-2.9,5.9-4.1,8.6l5.1,2.6c2.1-4,4.6-7.8,6.8-11.8c0.8-1.5,2.4-3.3,2.4-5.1
	c0-5.1-2.8-11.4-4.2-16.3c-0.5-1.9-1.7-4.5-1.2-6.4c0.9-3.9,4.4-8,6.4-11.5c4.7-8.2,9.3-16.5,14.2-24.6c1.7-2.9,4.6-3.3,7.7-4.1
	C318.7,229.3,325.2,228.6,329.7,226.2z M391.4,129.2c2.1,1.2,5.2,3.9,7.7,4c5.8,0.3,8.4-3.5,11-7.9c0.7-1.2,2.5-3.4,2.4-4.8
	c-0.1-1-1.5-1.5-2.2-2c-2.2-1.4-4.5-2.6-6.7-3.9c-9.2-5.2-18.3-10.6-27.5-15.9c-7.8-4.5-15.9-10.7-24.3-13.8
	c-3.7,5.6-6.9,11.7-10.2,17.6c-1.3,2.3-3.9,5.3-4.3,8c-0.8,6.1,5.8,12.4,11.6,13c1.9,0.2,4-0.8,5.8-1.3c3.6-1,7.3-1.9,10.9-2.9
	c1.8-0.5,4.5-1.7,6.4-1.2c2.2,0.6,4.4,2.4,6.4,3.5C382.7,124.1,387.1,126.6,391.4,129.2z M211.1,291c0.7,1.6,0.1,3.3,2.1,4
	c1.6,0.5,2.9-0.8,4.5-0.7c1.4,0.1,2.7,1.3,4.2,0.7c2-0.8,1.4-2.8,2.3-4.3c0.8-1.4,2.8-2.1,2.9-3.8c0.2-1.9-1.8-2.8-2.7-4.2
	c-0.8-1.2-0.6-3-1.6-4c-1.7-1.6-3.7,0.3-5.7,0.1c-1.3-0.2-2.5-1.1-3.8-0.6c-2.2,0.8-1.4,3-2.5,4.6c-0.6,0.9-1.5,1.3-2.1,2.1
	C206.5,287.4,210.3,289.1,211.1,291z M243.1,397.2c24.6,0.1,49.9-0.1,74.6-0.1c49.6-85.8,100-172.8,149.6-258.6
	c-2.8,0-22.1-0.1-74.5,0C377.1,165.8,243.9,396.1,243.1,397.2z M514,195.3c0-2.6,0.1-5-1.4-7.4c-1.3-2.1-3.6-3.3-5.7-4.5
	c-2.1-1.2-4.3-2.9-6.7-3.6c-3.9-1.1-9.1-0.3-13.1-0.3c-2.9,0-6.4-0.5-9.3,0.2v0c-4.1,1-7.1,9-9.2,12.3c-1.9,3.1-5.7,7.2-6.2,10.9
	c-0.6,5,2.6,8.5,5,12.5c0.8,1.3,1.8,3.7,3.3,4.3c1.5,0.6,3.8,0.2,5.4,0.2c4,0,8.9,0.7,12.8-0.1c3.3-0.7,6.7-3.6,9.6-5.2
	c4.5-2.6,12.3-5.4,14.6-10.3C514.5,201.6,514,198.2,514,195.3z M516,227.7c0.1-0.6,0-1.2-0.5-1.6c-1.9-1.3-7.2-0.3-9.5-0.3
	c-7.6,0-15.1-0.1-22.7,0c-2.3,0-7.4,0-9.2,1.5c-1.9,1.6-1.7,4.6-1.7,6.8c0,5.7-0.2,11.5,0,17.3c0.2,6.3,10.1,5.8,14.4,5.8h21.8
	c1.4,0,6.4,0.8,7.3-0.5c0.6-0.9-0.5-2.4-0.6-3.3c-0.2-1.8,0.9-3.6,0.9-5.4c-2.2,0-5.8,0.7-7.6-0.8c-1.9-1.6-1.8-9.7,0.3-11.1
	c1.8-1.2,5.3-0.6,7.3-0.6C516.3,232.4,515.4,230.7,516,227.7z M416.2,273.1c1-3.4,4-8.2,6.4-10.8c1.8-2,3.7-2.8,5.3-0.3
	c1.9-1.5,5.4-6.3,3.1-8.5c-1.5-1.5-4.2-1.2-5.5-2.8c-1.3-1.6-1.1-7.4-4.1-7.1c-1,0.1-1.7,1.1-1.8,2c-0.2,3.2,1.1,5.2-0.8,8.3
	c-1.2,1.9-3,3.3-4.2,5.1c-3.3,4.9-6.4,10.4-9,15.7c-1.9,3.8-2.9,9.3-0.8,13.1c1.9,3.4,7.1,5.9,10.4,2.8c1.2-1.2,2-4.4,3.6-4.9
	c1-0.3,5.5,5.1,5.9,0.9c0.1-1.3-1.4-2.6-2.1-3.5C420.9,280.8,415.2,276.4,416.2,273.1z M397.2,287.2c-3.7-1.5-5.2,2.2-5.7,5.1
	c-1,7.1-0.6,16.2-4.6,22.4c-2.4,3.7-6.1,6.1-9.6,8.8c-3,2.3-11.7,6.7-9.8,11.4c2.6,6.2,8.6-0.8,11.7-2.4c2.4-1.2,6.5-0.1,9.3-0.8
	c3.5-0.9,6.3-4.2,9.6-4.9c2.4-0.6,4.5,3.9,6,3.1c2-1.2,4.8-7.1,5.2-9.3h0c-1.9-0.8-4.2-0.3-5.6-2.3c-1.4-2,0-6.2-0.3-8.6
	c-0.3-2.5-1.1-4.9-2.2-7c-0.7-1.3-2.1-2.6-2.3-4.2C398.5,294.9,401.9,289.1,397.2,287.2z M445.6,244.5c6.2-2.5,13.2-6.8,16.4-12.6
	c1.1-2,3.2-4.4,1.8-6.7c-2.5-4.2-9.8-4.1-12.2-8.3c-1.5-2.6,3.3-6.7,3.8-9.3c0.2-1.3-0.3-2.5-1.2-3.4c-2.2-2.1-9-6.6-12.1-5.4
	c-2.4,0.9-3.9,5-5.1,7.1c-3.5,6.2-7.2,12.4-10.7,18.6c-1.2,2.1-3.9,5.2-3.6,7.7c0.3,2.5,3.1,3.5,5,4.6
	C432,239.3,440.3,246.5,445.6,244.5z M504.1,159.8c-6.9-4.3-14.1-8.2-21.1-12.3c-2-1.2-5.9-4.5-8.3-4.4c-1.6,0-2.7,3.1-3.4,4.3
	c-2.6,4.3-5,8.7-7.6,13.1c-0.6,1.1-2.5,3.4-1.9,4.7c0.5,1,1.9,1.5,2.8,2c1.4,0.8,3.1,2.3,4.8,2c3-0.5,5.9-4.7,9-4.3
	c4,0.5,9.3,5.1,12.8,7.1c1.1,0.6,3.4,2.5,4.7,1.9c2.1-1.1,4-6.2,5.2-8.3C502.2,163.7,503.5,161.9,504.1,159.8z M372,362.7
	c2.6,1.5,5.4,3.6,8.3,4.5c1.9-3,3.6-6.2,5.4-9.3c0.6-1,1.9-2.6,1.3-3.8c-0.6-1.4-3.2-2.3-4.4-3l-11.8-6.8c-1.5-0.9-3.9-3-5.1-0.8
	c-4-1.8-4.6,0.9-6.5,4.2c-0.6,1-2.2,2.9-1.5,4.1C360.4,357.2,366.5,359.6,372,362.7z M371.7,397.2c24.6,0,49.7,0.1,74.4,0.1
	c25.6-44.4,51.8-89.5,77.4-133.8c-24.6,0-49.9,0-74.6,0C423.3,307.9,397.3,352.8,371.7,397.2z M484.3,356.9c2.4,1,4.8,3.4,7.4,3.8
	c1.9,0.2,5.9-0.8,7.3-2c1.7-1.4,2.8-4.3,3.9-6.2c2.8-4.8,5.5-9.6,8.3-14.4c1.2-2,2.4-5.2,4.5-6.3c4.6-2.5,11.3-3,16.3-4.4
	c1.8-0.5,4.2-0.7,5.6-1.9c1.2-1,1.9-2.9,2.7-4.3c1-1.7,2.6-3.7,2.4-5.8c-0.2-1.8-0.8-4.9-2-6.3c-1.3-1.5-3.6-2.3-5.3-3.3
	c-4.1-2.5-8.3-4.8-12.5-7.2c-1.6-0.9-6.8-5-8.5-4.2c-2,0.9-3.5,5.5-4.6,7.3c-4,6.9-10.1,14.5-12.5,22.1c1.1,0.6,3.7,1.5,3.7,2.9
	c0.1,2.3-3.2,6-4.3,8c-2.7,4.7-5.3,9.4-8.1,14.1C487.2,351.2,484.9,354.1,484.3,356.9z M470.2,123.5c-2.4,0.7-4.5,5.3-5.1,7.5
	c12.3,6.5,24.1,14,36.2,20.8c3.7,2.1,10.9,1.8,9.4-4.5c-1.7-7.1-11-3-15.8-5c-1.7-0.7-4.5-1.8-4.6-3.9c-0.1-2.2,2.5-5.2,3.5-7
	c3-5.3,8.4-11.7,9.7-17.6l-13.8-7.7c-2.2,3.7-4.3,7.5-6.4,11.2c-1,1.8-1.9,4-3.5,5.3C477.3,124.6,473,122.7,470.2,123.5z
	 M431.4,101.3c-1.5,2.8-3.2,5.5-4.8,8.3c-0.6,1.1-1.7,2.4-1.2,3.8c0.5,1.3,2.1,1.9,3.2,2.6c2.8,1.6,5.6,3.2,8.3,4.8
	c2.5,1.5,8.6,6.6,11.5,5.7c3-0.9,5.3-7.7,6.8-10.2c2.3-3.8,4.8-1.8,7.6-4c2.1-1.6,1.2-3.5,1.9-5.6c0.8-2.7,2.9-5.3,4.3-7.7
	c0.7-1.2,1.9-2.8,1-4.1c-1.2-1.7-4.4-0.4-6.2-0.4c-4,0-7.8-1.1-11.2-3.2c-3.6-2.2-6.5-5.7-8.2-9.6c-0.5-1.2-1.2-3.4-3-2.9h0
	c-3.4,1-4.7,8.1-7.2,10.4c-1.4,1.3-3.3,1.8-3.7,4C430.1,96.4,432.9,98.2,431.4,101.3z M371.6,71.7c-2.4,0.3-4.1,2.2-4.1,4.6
	c-0.1,3.5,4,7.7,5.8,10.6c3.3,5,7.6,7.1,12.7,10.1c4.2,2.4,8.8,6,13.4,7.5c1.9,0.6,3.9,0.3,5.8,0.5c3,0.4,8,1.3,10.9,0.2
	c8.5-3.3-3.1-10.3-1.9-14.1c0.9-3.1,3.9-4.9,5.3-7.7c1.4-2.9,0.7-6.7,2.2-9.6c1.1-2.3,4.3-2.7,4.2-5.8c-0.1-2-1.8-3.6-3.7-3.8
	c-1.4-0.2-2.7,0.9-4.2,0.6c-1.9-0.5-3.8-2-5.4-3c-3.4-1.9-7.1-3.7-10.2-5.9c-2.7-1.9-2.3-7.8-7.4-5.9c-3.1,1.2-1.5,4.1-2.8,6.2
	c-1.8,2.9-5.7,4.2-7.5,7.1c-1.7,2.6-1.7,6.8-4.4,8.8C377.9,73.5,374.1,71.4,371.6,71.7z M182.2,154.7c0.5,0.9,1,1.9,2,2.3
	c3,1.3,8.5,0.2,11.8,0.2c5,0,11.9,1.2,16.6-0.2c2.7-0.8,5.3-2.9,7.7-4.3c4.8-2.8,9.6-5.5,14.4-8.3c34.5-20.3,69.4-39.9,104-60
	c5.4-3.2,10.9-6.2,16.3-9.4c2.5-1.4,5.5-2.7,7.6-4.6c4.5-4.2,6.2-10.2,8.4-14c1.7-3,5.1-6.9,5.6-10.2c0.4-2.3-4-10.2-6.3-10.8
	c-2.9-0.8-6.5,0.8-9.3-0.6c-2.2-1.2-3.8-5-4.8-7.1l-6.1,3.1l-11.5,6.7l-36.2,20.9l-123.8,71.5c0.8,2.6,3.9,5.3,3.7,8
	c-0.2,3-3.3,5.5-4.1,8.3C177.5,148.6,181,152.6,182.2,154.7z M151.4,190.2c0,1.2-0.3,2.6,0,3.8c0.3,1.2,1.2,2.3,2.2,2.9
	c3.3,2,10.6,0.6,14.4,0.6h0v-20.2c-3.9,0-11.3-1.4-14.7,0.7C150.1,180.2,151.4,186.9,151.4,190.2z M149.2,220
	c3.9,0.5,11.3-4.4,14.5,0c2.8,3.8-6.6,9.2,0.2,12.4c5.2,2.4,13.3-3.6,18.2,1.4c3.8,3.8-3.1,9.6-3.8,13c-0.5,2.3,1.6,4.6,3.9,4
	c2.6-0.6,2.3-3,2.6-5c0.3-2.2,1.6-6.1,3.5-7.3c4.6-3.1,8,7.9,13,2.5c2.3-2.5,0.9-7.5,0.7-10.5c-0.4-6.5,0.8-13.8,2.3-20.2
	c3-12.2,14.4-22.2,22.4-31.7c5.4-6.5,10.6-13.1,16.1-19.5c1.8-2.1,6.4-3.8,4.5-7.3c-3.2-5.8-7.9,4-9.5,6c-2.6,3.2-5.3,6.3-8.9,8.4
	c-3.8,2.2-7.6,2.5-11.8,2.9c-6.9,0.7-12.3,1.4-18.9-1.4c-4.3-1.8-7.8-7.2-12.2-8.2c-3.2-0.7-4.7,3.4-7.4,2.9c-4.1-0.8-5-9.9-5.6-13
	c-0.3-1.9-2.2-3.2-4-2.7v0c-5.6,1.5,0.7,9.6,1.9,12.6c2.2,5.8,4.5,11.5,6.7,17.3c0.8,2.3,2.4,4.9,2.6,7.4c0.4,5-2.3,11.3-3.8,16
	c-1.2,3.9-3.5,12.3-8,13.2c-4.5,0.9-10.7,1.2-15.4,0.8c-2.3-0.2-5.4-1.5-6.4,1.6C146,217.6,147.3,219.8,149.2,220z M153.4,325.9
	c5.2,0,10,0,12.7-5.4c1-2.1,0.4-5.7,0.4-8v-15.4c0-2.3-0.5-5.2,0.1-7.4c0.6-2,2.9-3.7,4.3-5.1c3.7-3.7,9.7-7.8,12-12.5
	c2.6-5.2,0.1-14.7-5.6-16.8c-2.5-0.9-6.3-0.2-9-0.2H148l0,0V308v13.1c0,1.1-0.5,3.7,0.6,4.5C149.5,326.4,152.2,325.9,153.4,325.9z
	 M183.2,377.4h13.8c2.5,0,5.3-0.1,7.3,1.7c3.1,2.8,3.5,7.9,4.2,11.7l0,0c2.1,0,6.1,0.8,7.6-1c3.3-4,2.7-8.6,2.7-13.4v-26.2
	c0-3.9,0.9-9.1-0.8-12.8c-1.3-2.9-3.9-4.8-5.6-7.4c-2.7-3.8-4.4-8.3-5.3-12.8c-1.2-5.8-0.5-12.3-0.5-18.2c0-2.9,0.7-5.8-2.2-7.6
	c-2.7-1.6-5.9-1.4-9-1.4c-4.7,0-9.4-0.1-14.1,0c-2.4,0-5.6,0.5-7.2,2.3c-1.9,2.1-0.8,5.1-0.8,7.6c0.1,5.9,0.4,12.1-0.8,17.9
	c-0.9,4.3-2.7,8.6-5.3,12.2c-1.8,2.5-4.4,4.5-5.6,7.4c-1.6,3.9-0.8,9-0.8,13.1v25.9c0,4.8-0.6,9.5,2.8,13.4c1.1,1.2,6.2,1.9,7.4,0.5
	c0.8-1,0.7-3.1,1-4.3c0.6-2.8,2-6.1,4.5-7.6C178.4,377.2,180.9,377.4,183.2,377.4z M220,409.8c-0.4-1.6-3.8-2.9-5.2-3.6
	c-5.1-2.9-10.3-5.9-15.4-8.9c-2.7-1.6-8.5-6.5-11.8-5.2c-3.5,1.4-2.2,8-2.2,11c0,1.6-0.4,4,0.4,5.4c1,1.7,3.7,2.7,5.4,3.7
	c4.3,2.4,8.5,4.9,12.8,7.4c1.6,1,6.4,4.8,8.3,4c1.7-0.8,2.9-4.2,3.8-5.7C217.1,416,220.5,411.8,220,409.8z M230.5,405.1
	c1.7-0.2,2.9-3.6,3.7-4.9c1.3-2.2,4.3-5.7,4.5-8.3c0.2-2.3-5.6-4.6-7.5-4.3c-7,1.2-10.9,12.2-4.2,16
	C228,404.1,229.3,405.2,230.5,405.1z M260.2,419c-1.5-2.3-1.9-5.8-4.1-7.5c-2.5-1.9-7.8,0.1-10.9-0.2c-1.6-0.2-3.2-0.9-4.8-0.4l0,0
	c-3.1,1-3.5,5.3-4.9,7.8c-1.2,2-3.9,3.9-4,6.4c-0.1,2.5,2.5,4.4,3.7,6.4c1.4,2.2,1.9,5.9,4,7.5c2.6,2,7.7-0.1,10.8,0.3
	c1.6,0.2,3.5,0.9,5.1,0.3c2.9-1,3.2-5.1,4.6-7.5c1.2-1.9,3.6-3.8,4-6.1C264.2,423,261.7,421.3,260.2,419z M300.9,445.3h13.8h52.8
	c2.5,0,6.6-0.8,8.9,0.4c1.7,0.9,1.1,2.3,1.9,3.6c0.9,1.3,5.4,1.2,6.6,0.4c1.7-1,1-4.7,1-6.4v-18.6c0-1.7,0.8-6.2-1.3-6.9
	c-1.3-0.4-5.2-0.6-6.2,0.4c-1.1,1.1-0.3,3-2.1,3.7c-2.8,1.2-7.8,0.2-10.9,0.2h-66.9c-0.8,0-1.8,0.1-2.6-0.1
	c-4.3-1.1-0.9-7.2-2.6-9.7c-0.7-1-2.4-0.7-3.5-0.7c-3.3,0-7.7-0.7-10.9,0.2c-2.6,0.8-2.6,6.6-1.7,8.8c0.9,2.3,4.1,0.9,5.1,3.2
	c1.6,4,0.2,11,0.2,15.4c0,1.5,0.4,3.7-0.4,5.1c-1.1,2-4,0.7-4.9,2.9c-0.7,1.7-0.8,7.5,1.1,8.4c2.9,1.3,8.3,0.2,11.5,0.2
	c1,0,2.8,0.3,3.5-0.5c1.9-2.5-1.4-7.2,1.7-9.4C296.7,444.8,299.2,445.3,300.9,445.3z M368.3,486.7c-1.2-0.6-3.4-0.2-4.7-0.2h-11.5
	c-2.3,0-8.6-1.1-10.4,0.3c-0.9,0.7-0.5,2.6-0.5,3.5c0,3-0.8,6.8,1.3,9.3c4.2,4.9,8.7,4.2,14.7,4.2c2.4,0,5.2,0.4,7.3-1.2
	c4.3-3.4,4.6-6.2,4.6-11.3C369.1,490.2,369.6,487.4,368.3,486.7z M393.1,463.2c-0.2-1.7-0.7-3.6-2.5-4.3c-1.6-0.6-3.8-0.2-5.4-0.2
	H374h-39h-12.8c-1.6,0-4-0.4-5.4,0.3h0c-1.5,0.8-2.1,2.9-2.2,4.5c-0.4,3.8-1.7,14.8,2.8,16.4c1.6,0.6,3.8,0.2,5.4,0.2h11.5h39h12.8
	c1.5,0,3.8,0.4,5.1-0.5C394.8,477.1,393.5,467.1,393.1,463.2z M445.8,430.9c-1.3-2.3-2.7-6-5.1-7.3c-2.1-1.1-4.8-0.5-7-0.8
	c-5.8-0.5-12.5-1.7-18.2-0.8h0c-10.5,1.6-13,10.7-17.6,18.7c-1.5,2.7-4.9,7.4-4.8,10.6c0.1,3.2,3.5,7.2,5.1,9.9
	c3.2,5.5,6.2,13.8,14,13c3.1-0.3,6.6-3.3,9.3-4.9c7.1-4,14.1-8.2,21.1-12.2c3-1.7,8-3.4,9.3-6.8
	C454.8,442.8,449.5,437.3,445.8,430.9z M485.6,402.4h-23.7c-2.8,0-7.4-0.9-9.9,0.4c-5.1,2.5-5.8,6.8-5.8,11.8c0,1.5-0.3,3.4,0.4,4.8
	c1.8,3.7,6.6,7,9.5,9.9c1.9,1.9,4.4,5.6,7,6.5c4.8,1.8,11-0.7,16,0.5c1.5-5,0.3-11.8,0.3-17h6.1V402.4z M560.7,371.5
	c-6.1-4.3-10.9-9.1-13.1-16.5c-1.2-3.9,0.3-11.6-4.8-12.8c-4.2-0.9-7.1,4.8-9.6,7.3c-1.1,1.1-2.4,2.8-4.2,2.4
	c-5.1-1.2,0.5-6,0.8-8.2c0.3-2.9-2.6-4.8-5.2-4h0c-4.3,1.4-1.6,5.1-1.2,7.8c0.5,3.2-0.4,11.1-3,13.1c-12.2,9.6-29.6,15.8-45.1,13.7
	c-2-0.3-3.2-2.1-5.1-2.4c-2.7-0.4-5.1,2.4-4.3,5c2.1,6.1,7.6-0.5,11.3,1.2c2.2,1,2.1,3.9,3.9,5.4c2.5,2.2,5.3,3.7,7.6,6.2
	c5.5,5.9,5.9,12.1,7.3,19.5c0.4,2.2,3.2,4.1,3,6.3c-0.4,3.5-4.8,3.8-5.6,6.9c-0.7,2.9,1.8,5.3,4.7,4.7c3.7-0.8,2.2-4.1,2.8-6.6
	c0.9-3.7,3.9-8.3,5.9-11.5c6.2-9.5,18.5-17.5,28.7-22c3.1-1.3,10.5,2,13.1,4c2.2,1.7,3.7,5.5,7.1,3c2.7-2,1.7-6.3-1.6-7
	c-1.5-0.3-3,0.8-4.5,0.3c-1.1-0.4-2.1-1.4-2.2-2.6c-0.1-2.3,2.4-2.8,4.1-3.2c3.3-0.8,9.7-0.6,11.3-4.2
	C563.8,375.2,562.6,372.9,560.7,371.5z M557.2,322.7c-2.9,1.4-5.4,5.1-7.7,7.4c-0.6,0.6-2.5,2-2.1,3c0.3,0.8,2.4,0.5,3,0.5
	c2.4,0,7.8,1,9.8-0.3c1.1-0.7,0.7-2.7,0.7-3.8C561.1,326.8,562,320.3,557.2,322.7L557.2,322.7z M564.6,285.9l-5.9-0.5l-0.5-4.3
	v-12.2H540c-2.3,0-5.9-0.7-8,0.4c-5.1,2.6-5.4,6.8-5.4,11.8c0,1.5-0.3,3.4,0.4,4.8c2,3.9,7.1,7.5,10.2,10.6c1.8,1.8,3.8,4.5,6.1,5.7
	c1.8,0.9,4.7,0.4,6.7,0.4h14.7V285.9z M541.9,344.8c-2.2,0.1-2.2,3.4,0,3.4C544.2,348.2,544.2,344.7,541.9,344.8z M496.8,422.8
	c-0.9,0.3-0.5,1.7,0.5,1.4C498.2,423.9,497.8,422.5,496.8,422.8z M558,374.1c-2,0.8-0.6,3.9,1.5,3.1
	C561.4,376.3,560,373.2,558,374.1z M553.2,391.7c0.8,0.3,1.3-1,0.5-1.3C552.8,390.1,552.3,391.4,553.2,391.7z M518.5,389.2
	c1.4-0.8,2.9-1.7,4.3-2.5c0.7-15,0.6-14.8,0.7-20.8c-1.2,0.8-2.6,1.6-3.8,2.3C519.2,379.7,519.1,379.8,518.5,389.2z M429.6,458.5
	c-2.3,0.6-1,4.1,1.2,3.3C433,461.1,431.8,458,429.6,458.5z M416.1,426.5c-12.3,1.8-14.6,19.6-2.9,24.1c2.1,0.8,4.8,1,7,0.6
	C436,448.9,431.9,424.2,416.1,426.5z M483,378.6c-2.2,0.9-0.6,4,1.5,3.1C486.5,380.8,485.1,377.8,483,378.6z M437.9,444.5
	L437.9,444.5c-2.6,0.5-6,4.2-6,6.9c-0.1,2.3,3.7,4.4,5.7,4.1c4.3-0.6,6.3-3.7,4-7.3C440.6,446.6,440.3,444,437.9,444.5z
	 M420.6,456.9c-2.6-0.1-6.3-0.1-8,2.2c-1.4,1.9,2.1,7.6,4.2,7.8c2,0.2,6-2,6.3-4.1C423.4,460.9,423.2,457,420.6,456.9z M469.4,374.5
	c-0.5,0-0.9,0.4-0.9,0.9c0,0.5,0.4,0.9,0.9,0.9c0.5,0,0.9-0.4,0.9-0.9C470.3,374.9,469.9,374.5,469.4,374.5z M471.8,429.5
	c2.3-0.4,1.7-3.9-0.6-3.5C468.9,426.3,469.5,429.9,471.8,429.5z M446.5,447c2.3-0.3,1.7-3.9-0.6-3.5
	C443.8,443.9,444.3,447.4,446.5,447z M454.2,409.2c-2.1,0.5-1.2,4,0.9,3.4C457.5,412,456.5,408.7,454.2,409.2z M313.7,83.8
	c-2.2,0.6-5.5,5.9-5.2,8.2c0.2,2.1,2.2,4.7,4.6,4.1c2.5-0.6,9.7-4.2,10.7-6.7C326,83.6,317.2,82.8,313.7,83.8z M234,108.8
	c1.8,0.5,4.2,0.3,6.1,0.2c3-0.2,6.2-5.1,6.1-8c0-2.1-1.6-4.8-3.9-4.6c-2.7,0.1-9.5,4.1-11,6.3C229.9,104.6,231.9,108.1,234,108.8z
	 M159.1,189.8c-2.2,0.8-0.9,4.1,1.2,3.4C162.5,192.4,161.3,189,159.1,189.8z M163.3,195.5l3.5-0.3v-6.7c-1.2-0.1-2.4-0.1-3.6-0.1
	C163.1,191.8,163.2,192,163.3,195.5z M193.4,136.3c2.3-0.6,5.3-5.8,5.1-8.2c-0.2-2.4-2.2-4.6-4.8-4h0c-2.4,0.6-9.4,4.2-10.4,6.6
	C181.1,136.5,189.9,137.3,193.4,136.3z M166.7,186.4l0.1-0.1v-6.7l-0.1-0.1h-3.5c0,2.3-0.1,4.5-0.1,6.8l0.1,0.1H166.7z M209.4,127.1
	c2.3-0.6,5.3-5.9,5-8.2c-0.2-2.1-2.1-4.5-4.4-4c-2.6,0.5-10,4.3-11,6.9C197,127.4,206.2,127.9,209.4,127.1z M184.8,154
	c1.5,1.3,7.3,1.3,9.2,0.5c1.3-0.5,2-2.1,2.6-3.3c2.2-4,1.9-8-1.8-11.4c-1.5-1.4-7.3-1.3-9.2-0.6c-1.3,0.5-1.9,1.9-2.6,3
	C180.8,146.3,181,150.5,184.8,154z M169.4,148.8c-1.7,0.6-0.7,3,0.9,2.5C171.8,150.8,170.9,148.3,169.4,148.8z M197.5,236.5
	c-2.1,0.6-1.3,3.9,0.9,3.4C200.5,239.3,199.8,235.9,197.5,236.5z M217.6,175.3c2.5-0.5,1.5-3.9-0.9-3.2
	C214.6,172.7,215.6,175.7,217.6,175.3z M181.8,246.3c-1.7-0.4-2.4,2.5-0.6,2.7C182.9,249.2,183.5,246.6,181.8,246.3z M160.3,185.2
	c2.4-0.8,0.8-4.1-1.5-3.1C156.9,183,158.4,185.9,160.3,185.2z M244.8,154.8c1.7-0.6,0.8-3.1-0.9-2.4
	C242.4,153,243.2,155.3,244.8,154.8z M353.2,43.7c2.2-0.6,4.8-5.7,4.6-7.9c-0.2-2-2.1-4.3-4.2-3.9c-2.4,0.5-9.7,4.3-10.5,6.7
	C341.2,44.2,349.9,44.7,353.2,43.7z M361.4,56.3c-2.2,0.6-5.1,5.6-5.1,7.9c0,2.3,2.1,4.4,4.4,3.7C364.8,66.6,369.5,54,361.4,56.3z
	 M359.8,51.8c1.6,1.6,6.5,1.4,8.5,0.9c1.6-0.4,2.2-2,3-3.3c2.3-3.9,2-7.6-1.6-11c-1.5-1.4-6.9-1.2-8.8-0.6c-1.3,0.4-2,1.8-2.7,2.9
	C356,44.8,356.3,48.3,359.8,51.8z M354.1,47.1c-1.6-1.3-6-1.1-8-0.6c-1.6,0.4-2.3,1.7-3,3c-2.4,4.1-2.1,7.7,1.4,11.3
	c1.6,1.6,6.4,1.5,8.4,0.9c1.5-0.4,2.3-2,3-3.3C358.3,54.5,357.8,50.2,354.1,47.1z M188.6,208.8v0.1l3.8,1.1c3.4-2.9,3.7-3.2,7.5-6.4
	c-1-0.3-2.7-0.8-3.8-1.2C193.6,204.5,191,206.7,188.6,208.8z M353.4,65.7c-1.8-0.7-5.4-0.5-7.3-0.4h0c-2.9,0.3-5.8,6.1-5.4,8.8
	c0.3,1.8,1.7,3.9,3.8,3.8c2.7-0.2,9.5-4.1,11-6.4C356.7,69.7,355.2,66.4,353.4,65.7z M330,74.5c-2.5,0.5-5.8,5.7-5.6,8.2
	c0.1,2.1,2.1,4.7,4.3,4.3c2.6-0.5,10.1-4.3,11-6.9C341.9,74.5,333.4,73.8,330,74.5z M314.7,62.9c2.1,0.1,6.2,0.7,7.8-1
	c2.1-2.3,6.4-11.4-0.1-11.6c-2.7-0.1-10.1,4.3-11.5,6.5C309.3,59.3,312.2,62.7,314.7,62.9z M273.1,90.3c2.4-0.4,5.3-5.9,5.1-8.2
	c-0.3-2.2-2-4.5-4.4-4c-2.6,0.5-10,4.4-10.9,6.9C260.9,90.8,269.7,90.9,273.1,90.3z M289.1,81c2.3-0.4,5.3-6,5-8.2
	c-0.3-2.1-2.1-4.5-4.4-4c-2.5,0.5-10,4.4-11,6.9C276.6,81.5,285.8,81.6,289.1,81z M257.1,99.5c2.5-0.7,5.3-5.7,5.1-8.2
	c-0.2-2.4-2.2-4.7-4.8-4c-2.6,0.7-9.3,4.1-10.4,6.6C244.5,99.6,253.8,100.4,257.1,99.5z M337.1,53.4c2.2-0.6,5.1-6,4.8-8.2
	c-0.3-2.2-2.1-4.5-4.5-4h0c-2.5,0.5-9.7,4.2-10.7,6.6C324.1,53.7,333.7,54.4,337.1,53.4z M299.3,72.1c1.6,0,3.2,0.1,4.8,0
	c2.8-0.3,6.2-5.6,6-8.3c-0.2-1.9-1.9-4.5-4.1-4.3c-2.7,0.2-9.4,4.1-11,6.3C293,68.7,296.5,72.1,299.3,72.1z M185.6,165.7
	c2-0.7,1.1-3.9-0.9-3.4C182.5,162.9,183.4,166.5,185.6,165.7z M193.4,192.9l-3.8-1.2c-2.9,2.6-3.1,2.7-7.5,6.4l3.8,1.2L193.4,192.9z
	 M204.3,335.8c2.2,0.2,2.5-3.2,0.3-3.5C202.2,332,201.8,335.6,204.3,335.8z M149.8,215.5c-1.8,0-1.8,2.7,0,2.6
	C151.4,218.1,151.5,215.5,149.8,215.5z M165.8,230.1c2.3,0,2.2-3.3,0-3.4C163.5,226.6,163.5,230.1,165.8,230.1z M195.9,309.7
	c-0.8,1.4-6.1,9.4-6.8,10.4c1.4,0,3.5,0.1,4.9,0.1c1.2-1.8,5.4-8.5,6.7-10.4C199.3,309.7,197.4,309.8,195.9,309.7z M200.4,195
	c-1.3-0.3-2.3-0.7-3.8-1.2c-7.5,6.4-8.6,7.3-15.2,12.8c1.3,0.5,2.6,0.9,3.8,1.3C187.8,205.8,192.6,201.8,200.4,195z M202.9,296.9
	c2-0.9,0.4-3.8-1.5-3.1C199.1,294.6,200.8,297.8,202.9,296.9z"/>
</svg>
