<?xml version="1.0" encoding="utf-8"?>
<!-- Generator: Adobe Illustrator 25.4.1, SVG Export Plug-In . SVG Version: 6.00 Build 0)  -->
<svg version="1.1" xmlns="http://www.w3.org/2000/svg" xmlns:xlink="http://www.w3.org/1999/xlink" x="0px" y="0px"
	 viewBox="0 0 710.4 537.6" style="enable-background:new 0 0 710.4 537.6;" xml:space="preserve">
<style type="text/css">
	.st0{fill:#010203;}
	.st1{fill:#D02C3B;}
</style>
<g id="Silohuette">
	<path class="st0" d="M300.6,489.4C246.1,458,191.1,426.3,137,395.1l-1.4-0.8v-253l1.4-0.8c34.1-19.7,69.1-39.8,103.1-59.3
		c37.5-21.5,76.2-43.8,113.8-65.5l1.4-0.8l1.4,0.8c39.3,22.7,79.1,45.5,118.8,68.4c32.8,18.9,65.6,37.8,98.1,56.5l1.4,0.8v252.9
		l-1.4,0.8c-32,18.4-64.8,37.3-96.6,55.6c-39.6,22.8-80.5,46.3-120.3,69.3l-1.4,0.8L300.6,489.4z"/>
</g>
<g id="Red_Parts" sodipodi:docname="Voron_V0.1_Red_Parts_300ppi.svg" xmlns:inkscape="http://www.inkscape.org/namespaces/inkscape" xmlns:sodipodi="http://sodipodi.sourceforge.net/DTD/sodipodi-0.dtd" xmlns:svg="http://www.w3.org/2000/svg">
	<path class="st1" d="M355.3,18.2C283.6,59.6,210.1,101.6,138.4,143c0,82.9,0,166.8,0,249.7c71.7,41.4,145.1,83.6,216.9,124.9
		C427,476.1,500.4,434,572.1,392.7V143.1C500.3,101.7,427.1,59.6,355.3,18.2z M567.6,390.1c-70.8,40.7-141.6,81.5-212.3,122.3
		C284.6,471.8,213.8,431,143,390.2c0-81.6,0-163.3,0-244.8C213.7,104.7,284.5,64,355.3,23.2c70.8,40.7,141.6,81.5,212.3,122.3V390.1
		z M264.4,138.4c-25.7,44.5-51.9,89.5-77.6,134c24.7,0,49.9,0,74.6,0c25.6-44.4,51.9-89.6,77.5-134H264.4z M258.8,267.9
		c-21.2,0-43-0.1-64.2-0.1c23.9-41.4,48.5-83.4,72.3-124.8c21.2,0,43.1,0,64.2-0.1C307.3,184.3,282.6,226.5,258.8,267.9z
		 M392.8,138.5c-15.7,27.3-148.9,257.6-149.7,258.7c24.6,0.1,49.9-0.1,74.6-0.1c49.6-85.8,100-172.8,149.6-258.6
		C464.5,138.5,445.3,138.4,392.8,138.5z M315.2,392.7c-21.3,0-43,0.1-64.3,0.1c47.8-82.8,96.7-166.9,144.5-249.8h64.3
		C411.9,225.7,362.9,309.9,315.2,392.7z M301.6,260c1.3,0.8,3.6,2.2,4-0.3c0.3-1.9-1.4-3.9-1.6-5.7c-0.3-2.1,3.7-8.6,6-8.9
		c1.7-0.2,5.9,5.1,5.9,6.7c0,1.4-2.1,2.6-3,3.5c-1.8,1.9-3.2,4-4.2,6.4c-0.5,1.3-0.6,3.3-1.7,4.3c-1.1,1-5.4,0.7-6-0.8
		C300.2,263.6,301,261.3,301.6,260 M183,272.1c-2.3,4.6-8.4,8.8-12,12.5c-1.4,1.4-3.8,3.1-4.3,5.1c-0.6,2.2-0.1,5.1-0.1,7.4v15.4
		c0,2.3,0.7,5.9-0.4,8c-2.7,5.5-7.5,5.4-12.7,5.4c-1.2,0-3.9,0.5-4.9-0.3c-1-0.8-0.6-3.3-0.6-4.5V308v-52.8l0,0h20.5
		c2.6,0,6.5-0.7,9,0.2C183.1,257.5,185.6,266.9,183,272.1z M266,300.3c-2.9-2.4-6.6-1.9-10.2-1.9c-6.4,0-13.3,0.7-19.5-1.3h0v2.6
		c-3.5,0.6-6.7,2.9-10.2,3.3c-3.1,0.4-6.5-3.6-8.8,0.8c-1.9,3.7,1.6,4.7,2.3,7.7c0.8,3.3,0.1,7.8,0.1,11.2h9.9
		c1.4,0,3.1,0.2,3.8-1.3c0.7-1.4-0.8-2.6-1.3-3.8c-1.1-2.7,0.6-5.7,3.2-6.5c3.2-1,6.7,2.3,6.1,5.6c-0.3,1.4-1.7,2.5-1.8,3.8
		c-0.1,1.8,2.3,3.2,3.3,4.5c0.9,1.3,0.8,3,0.7,4.5c-0.4,3.2-1.5,6.4-3.4,9c-1.3,1.8-3.5,3.1-3.9,5.4c6.1-0.3,12.1-0.6,18.2-0.6
		c3.6,0,7.4,0.5,10.6-1.6c2.8-1.8,4.4-5.2,5.3-8.3c0.8-3.2,0.8-6.6,0.8-9.9C271.2,316.1,272.4,305.6,266,300.3z M220.7,304.4
		c2.1-0.6,3,2.8,0.9,3.4C219.4,308.5,218.4,305,220.7,304.4z M228.5,318.7c-3.5,1.7-6.3-0.2-6.3-3.6c0-1.3-0.6-3.7,1-4.3
		C226.3,309.7,232.2,316.9,228.5,318.7z M235.8,306c-1.1,0.9-5.5,3.2-6.9,3.1c-1.6,0-2.3-1.8-1.1-2.9c1.3-1.2,5.5-2.6,7.2-2.6
		C236.4,303.6,236.9,305.2,235.8,306z M262.6,302.4L262.6,302.4c1.6-0.4,2.6,1.3,3.3,2.4c1.8,3.2,2.1,6.7,2.1,10.2
		c0,1.5,0.2,3.6-1.6,4.1c-4.3,1.1-5.9-2.7-4.6-6.3c0.6-1.6,2.1-2.4,2.3-4.2C264.2,307.1,260.3,302.9,262.6,302.4z M259.3,306.5
		c2.3-0.5,2.9,3.2,0.6,3.5C257.7,310.4,257.1,307,259.3,306.5z M256.4,318.4c-2.9,0.8-7.6,0.4-10.5,0.1c-1.1-0.1-1.9-0.7-1.9-1.9
		c0-2.8,8.8-4.7,11.1-5C258.7,311.1,259.3,317.7,256.4,318.4z M242.4,311.2c-2.7-1.3-4.4-8.2-0.9-9.7v0c2.9-1.2,8.3-0.2,11.5-0.2
		c1.2,0,2.9-0.3,4.1,0.2c2.7,1.3-1.6,6.3-3.1,7C251.3,309.6,245,312.4,242.4,311.2z M256.7,339.8c-2.7,0.8-6.7,0.1-9.6,0.1
		c-1,0-2.5,0.2-3.3-0.6c-1.3-1.3,1.3-8.2,3-8.6c3-0.6,7.7,2,9.2,4.3C256.9,336.4,259.3,339,256.7,339.8z M255.5,330.2
		c-2.4-0.2-7.2-1.6-9.2-3c-1.1-0.8-1.5-2.9-0.5-4c1.3-1.5,9-1,10.9-0.7v0C259.6,322.7,259.1,330.4,255.5,330.2z M259.6,334.7
		c-2.2,0-2.1-3.5,0-3.5C262,331.2,262,334.7,259.6,334.7z M266.5,335.2c-0.6,1.4-1.6,3.6-3.3,3.8c-1,0.1-1.7-0.6-1.4-1.6
		c0.5-1.7,2.3-2.5,2.3-4.5c0-2.4-6.1-9.8-0.3-10.8C270.5,321.1,268,331.4,266.5,335.2z M218.7,350.2c0-3.9,0.9-9.1-0.8-12.8
		c-1.3-2.9-3.9-4.8-5.6-7.4c-2.7-3.8-4.4-8.3-5.3-12.8c-1.2-5.8-0.5-12.3-0.5-18.2c0-2.9,0.7-5.8-2.2-7.6c-2.7-1.6-5.9-1.4-9-1.4
		c-4.7,0-9.4-0.1-14.1,0c-2.4,0-5.6,0.5-7.2,2.3c-1.9,2.1-0.8,5.1-0.8,7.6c0.1,5.9,0.4,12.1-0.8,17.9c-0.9,4.3-2.7,8.6-5.3,12.2
		c-1.8,2.5-4.4,4.5-5.6,7.4c-1.6,3.9-0.8,9-0.8,13.1v25.9c0,4.8-0.6,9.5,2.8,13.4c1.1,1.2,6.2,1.9,7.4,0.5c0.8-1,0.7-3.1,1-4.3
		c0.6-2.8,2-6.1,4.5-7.6c2-1.2,4.5-1,6.7-1h13.8c2.5,0,5.3-0.1,7.3,1.7c3.1,2.8,3.5,7.9,4.2,11.7l0,0c2.1,0,6.1,0.8,7.6-1
		c3.3-4,2.7-8.6,2.7-13.4V350.2z M201.4,293.8c2-0.7,3.5,2.3,1.5,3.1C200.8,297.8,199.1,294.6,201.4,293.8z M194.1,320.2
		c-1.4,0-3.5-0.1-4.9-0.1c0.6-1.1,6-9.1,6.8-10.4c1.4,0.1,3.4,0,4.8,0.1C199.5,311.8,195.3,318.5,194.1,320.2z M197.5,332.1
		c-2.2,0.9-3.4-2.6-1.2-3.4C198.4,328,199.6,331.3,197.5,332.1z M198.3,299.5c-4.4,6.9-9,13.9-13.5,20.8l-4.9-0.1
		c2.7-4.1,10.3-15.8,13.6-20.8C194.9,299.4,196.4,299.4,198.3,299.5z M184.4,299.4c2.3,0.1,2.7,0.1,4.7,0.1c-2.9,4.6-3,4.8-6.7,10.3
		c-1.5,0-3.8,0-4.8-0.1C178.8,308,182,303,184.4,299.4z M176.8,293.8c1.9-0.7,3.5,2.3,1.5,3.1C176.2,297.8,174.5,294.6,176.8,293.8z
		 M175.5,332.3c2.3,0.3,1.8,3.9-0.6,3.4C172.6,335.3,173.3,332,175.5,332.3z M198.5,368.9c-2,1.3-4.4,2-6.7,2.3
		c-16.4,2.1-24.8-20.5-10.6-29.3c1.9-1.2,4.1-1.9,6.4-2.2C204,337.6,212.5,359.9,198.5,368.9z M204.3,335.8
		c-2.4-0.2-2.1-3.7,0.3-3.5C206.7,332.6,206.4,335.9,204.3,335.8z M336.2,206.9L336.2,206.9c-1.3,2.5-2.7,5.8-5.1,7.4
		c-1.7,1.1-4.1,1.4-6.1,2c-8.1,2.3-21.8,2.9-26.7,10.5c-5.9,9-10.9,18.8-16.3,28.2c-2.3,4-6.2,8.8-6.8,13.4
		c-1,7.4,3.2,16.6,5.1,23.7c0.6,2.2,1.9,5,1.8,7.4c-0.1,3.1-2.9,5.9-4.1,8.6l5.1,2.6c2.1-4,4.6-7.8,6.8-11.8
		c0.8-1.5,2.4-3.3,2.4-5.1c0-5.1-2.8-11.4-4.2-16.3c-0.5-1.9-1.7-4.5-1.2-6.4c0.9-3.9,4.4-8,6.4-11.5c4.7-8.2,9.3-16.5,14.2-24.6
		c1.7-2.9,4.6-3.3,7.7-4.1c4.9-1.2,11.5-2,16-4.3c1.6-0.8,2.5-3.2,3.4-4.7c2.3-4,5-8,6.9-12.2L336.2,206.9z M287.8,287.5
		c0.3,1.7,0.1,3.5-1.9,4c-1.6,0.4-2.9-0.7-3.4-2.1c-1.6-4.1-2.6-8.8-3.5-13.1c-0.4-1.8-0.3-3.8,1.8-4.3h0c1.5-0.4,2.8,0.4,3.4,1.8
		C285.8,278,287,283,287.8,287.5z M291.8,253.6c-1.1,4-4.5,8.2-6.6,11.8c-0.8,1.3-1.4,3.1-3.1,3.4c-2,0.4-4.2-0.4-3.7-2.8
		c0.8-4.2,4.8-8.8,6.9-12.5c0.8-1.3,1.6-3.3,3.3-3.7C290.8,249.3,292.4,251.4,291.8,253.6z M303.9,232.5c-1.1,4-4.3,7.9-6.4,11.5
		c-0.8,1.3-1.5,3.1-3,3.6c-2.5,0.9-4.3-1.3-3.6-3.6c1.2-4,4.4-7.9,6.4-11.5c0.7-1.2,1.5-3.4,3-4h0
		C302.8,227.5,304.5,230.3,303.9,232.5z M323.9,224.7c-2.9,2-8.1,2.5-11.5,3.3c-1.4,0.4-3,1.1-4.5,1.1c-2.7-0.1-3.3-3.9-1.2-5.2
		c3.4-2.2,10.7-3.6,14.7-4.1C324.2,219.4,326.7,222.8,323.9,224.7z M166.5,197.6v-20.2c-3.9,0-11.3-1.4-14.7,0.7
		c-3.3,2.1-1.9,8.7-1.9,12.1c0,1.2-0.3,2.6,0,3.8c0.3,1.2,1.2,2.3,2.2,2.9C155.4,199,162.7,197.6,166.5,197.6L166.5,197.6z
		 M158.8,193.2c-2.2,0.7-3.4-2.6-1.2-3.4C159.7,189,161,192.4,158.8,193.2z M158.8,185.2c-2,0.7-3.5-2.2-1.5-3.1
		C159.6,181.1,161.2,184.4,158.8,185.2z M165.3,195.2l-3.5,0.3c-0.1-3.5-0.2-3.7-0.1-7c1.2,0,2.4,0,3.6,0.1V195.2z M165.3,186.3
		l-0.1,0.1h-3.5l-0.1-0.1c0-2.3,0.1-4.5,0.1-6.8h3.5l0.1,0.1V186.3z M370.3,35.4c-2.9-0.8-6.5,0.8-9.3-0.6c-2.2-1.2-3.8-5-4.8-7.1
		l-6.1,3.1l-11.5,6.7l-36.2,20.9l-123.8,71.5c0.8,2.6,3.9,5.3,3.7,8c-0.2,3-3.3,5.5-4.1,8.3c-0.7,2.5,2.7,6.5,3.9,8.6
		c0.5,0.9,1,1.9,2,2.3c3,1.3,8.5,0.2,11.8,0.2c5,0,11.9,1.2,16.6-0.2c2.7-0.8,5.3-2.9,7.7-4.3c4.8-2.8,9.6-5.5,14.4-8.3
		c34.5-20.3,69.4-39.9,104-60c5.4-3.2,10.9-6.2,16.3-9.4c2.5-1.4,5.5-2.7,7.6-4.6c3.6-3.4,5.9-9.7,8.4-14c1.7-3,5.1-6.9,5.6-10.2
		C377,43.9,372.7,36.1,370.3,35.4z M342.5,38.9c0.8-2.5,8.4-6.4,10.9-6.9c2.3-0.5,4.1,2,4.4,4c0.3,2.2-2.5,7.6-4.7,8.2
		C349.6,45.1,340.6,44.7,342.5,38.9z M326.7,47.8c1.1-2.4,8.2-6.1,10.7-6.6h0c2.4-0.5,4.3,1.8,4.5,4c0.2,2.2-2.7,7.6-4.8,8.2
		C333.7,54.4,324.1,53.7,326.7,47.8z M230.9,114.7c0.8-1.5,1.7-3,3.5-3.4c2.2-0.5,6.5-0.7,8.3,0.9c3.6,3.4,4.1,7.4,1.8,11.4
		c-0.8,1.3-1.4,2.9-3,3.4c-1.9,0.5-7.3,0.8-8.8-0.6C228.8,122.9,228.5,118.9,230.9,114.7z M228.4,132.9c-0.7,1.3-1.4,2.9-3,3.4
		c-2,0.6-7,0.7-8.6-0.6c-4-3.4-4.1-7.6-1.9-11.7c0.7-1.4,1.5-2.9,3.1-3.4c2-0.6,6.9-0.7,8.5,0.7
		C230.6,124.7,230.7,128.8,228.4,132.9z M246.7,105.7c0.7-1.3,1.4-2.9,3-3.4c2-0.5,7.3-0.8,8.8,0.6c3.7,3.4,4.1,7.3,1.8,11.4
		c-0.7,1.3-1.4,2.9-3,3.4c-2,0.6-7.3,0.8-8.8-0.6C244.8,113.9,244.4,109.7,246.7,105.7z M262.7,96.5c0.8-1.3,1.4-2.9,3-3.4
		c1.9-0.5,7.2-0.8,8.8,0.7c3.6,3.4,4.1,7.3,1.9,11.4c-0.7,1.3-1.4,3.1-3,3.5c-1.7,0.5-7.5,0.6-8.8-0.5
		C260.8,104.9,260.5,100.4,262.7,96.5z M278.7,87.2c0.8-1.3,1.5-2.9,3.1-3.4c2-0.5,7-0.7,8.6,0.6c3.9,3.3,4.3,7.6,1.9,11.7
		c-0.8,1.3-1.5,2.9-3.1,3.4c-2,0.5-7,0.7-8.6-0.6C276.6,95.5,276.3,91.3,278.7,87.2z M294.6,77.9c0.8-1.5,1.6-3,3.4-3.4
		c2.1-0.4,6.5-0.7,8.2,0.8c3.9,3.2,4.2,7.6,2,11.6c-0.8,1.3-1.5,2.9-3.1,3.4c-2,0.5-7.2,0.8-8.8-0.7C292.6,86,292.2,82.1,294.6,77.9
		z M312,66.5c1.5-1.7,6.3-1.3,8.4-1.1h0c1.8,0.2,2.6,1.9,3.5,3.3c2.6,4.2,2,8.2-1.7,11.7c-1.6,1.5-6.1,0.9-8.2,0.7
		c-1.9-0.2-2.5-1.7-3.4-3.2C308.2,73.6,308.5,70.4,312,66.5z M326.6,59.3c0.7-1.2,1.4-2.7,2.8-3.1h0c1.9-0.5,7.3-0.8,8.8,0.6
		c3.8,3.5,4.1,7.6,1.7,11.7c-0.8,1.4-1.6,2.9-3.2,3.3c-2.1,0.6-6.9,0.8-8.6-0.8C324.4,67.5,324.1,63.6,326.6,59.3z M310.8,56.8
		c1.4-2.2,8.8-6.6,11.5-6.5c6.5,0.2,2.2,9.2,0.1,11.6c-1.5,1.7-5.7,1.2-7.8,1C312.2,62.7,309.3,59.3,310.8,56.8z M295.1,65.8
		c1.5-2.2,8.3-6.1,11-6.3c2.2-0.2,3.9,2.4,4.1,4.3c0.2,2.7-3.2,8-6,8.3c-1.6,0.2-3.2,0.1-4.8,0C296.5,72.1,293,68.7,295.1,65.8z
		 M278.8,75.7c0.9-2.5,8.4-6.4,11-6.9c2.3-0.4,4.1,2,4.4,4c0.3,2.2-2.7,7.8-5,8.2C285.8,81.6,276.6,81.5,278.8,75.7z M262.9,85
		c0.8-2.6,8.3-6.4,10.9-6.9c2.4-0.5,4.1,1.9,4.4,4c0.3,2.3-2.7,7.8-5.1,8.2C269.7,90.9,260.9,90.8,262.9,85z M247,93.9
		c1.1-2.5,7.8-5.9,10.4-6.6c2.6-0.7,4.6,1.6,4.8,4c0.2,2.5-2.6,7.5-5.1,8.2C253.8,100.4,244.5,99.6,247,93.9z M231.4,102.6
		c1.5-2.2,8.4-6.1,11-6.3c2.3-0.1,3.9,2.6,3.9,4.6c0,2.9-3.2,7.8-6.1,8c-1.8,0.1-4.3,0.4-6.1-0.2
		C231.9,108.1,229.9,104.6,231.4,102.6z M215,112.8c0.7-2.7,8.4-6.7,11.1-7.2h0c2.3-0.4,4,2,4.3,4c0.3,2.2-2.7,7.8-5,8.2
		C222,118.5,213.5,118.6,215,112.8z M199.1,121.8c1-2.6,8.3-6.4,11-6.9c2.3-0.5,4.2,1.9,4.4,4c0.3,2.3-2.7,7.6-5,8.2
		C206.2,127.9,197,127.4,199.1,121.8z M183.4,130.7c0.9-2.4,7.9-6,10.4-6.6h0c2.5-0.6,4.5,1.6,4.8,4c0.2,2.3-2.8,7.5-5.1,8.2
		C189.9,137.3,181.1,136.5,183.4,130.7z M196.7,151.2c-0.6,1.2-1.3,2.7-2.6,3.3c-1.9,0.8-7.7,0.8-9.2-0.5c-3.9-3.4-4.1-7.7-1.7-11.7
		c0.7-1.1,1.3-2.5,2.6-3c1.9-0.7,7.7-0.8,9.2,0.6C198.5,143.2,198.9,147.1,196.7,151.2z M210.4,154.6c-2,0.6-8.5,0.9-10.1-0.4
		c-2.4-1.9,0.1-5.6,2.5-6.1c2-0.4,6.2-0.7,7.9,0.7C212.3,150.2,213.1,153.8,210.4,154.6z M212.5,142.2c-0.7,1.2-1.4,2.7-2.8,3.1
		c-2,0.5-7.5,0.8-9-0.7c-3.7-3.5-4-7.3-1.7-11.4c0.7-1.3,1.5-2.9,3.1-3.4c2.1-0.6,7.2-0.7,8.9,0.9
		C214.6,134.4,214.9,138,212.5,142.2z M228.4,144.5c-1,2.6-8.1,6.1-10.6,6.8c-2.4,0.7-4.4-1.6-4.7-3.9c-0.3-2.2,2.5-7.5,4.7-8.2
		C221,138.2,230.5,138.8,228.4,144.5z M244.1,135.5c-1.2,2.5-7.8,5.8-10.4,6.5c-2.6,0.7-4.4-1.5-4.7-4c-0.3-2.3,2.5-7.4,4.7-8.2
		C237,128.9,246.8,129.7,244.1,135.5z M260.1,126.2c-1.1,2.5-7.8,5.9-10.4,6.6c-2.5,0.7-4.7-1.5-4.9-4c-0.1-2.4,2.7-7.6,5.2-8.2v0
		C253.3,119.8,262.7,120.5,260.1,126.2z M276,116.9c-1,2.4-8.4,6.5-11,6.9c-2.2,0.4-3.9-2-4.1-4c-0.3-2.8,2.5-8,5.4-8.5v0
		C269.7,110.7,278.3,111.2,276,116.9z M292,107.7c-0.9,2.6-8.1,6.1-10.6,6.8c-2.4,0.7-4.3-1.8-4.7-4c-0.3-2.1,2.6-7.6,4.7-8.2
		C284.7,101.4,294.2,101.9,292,107.7z M308,98.4c-1,2.7-8,6.1-10.6,6.8c-2.5,0.7-4.4-1.6-4.7-4c-0.3-2.2,2.5-7.5,4.7-8.2h0
		C300.7,92.1,310.1,92.7,308,98.4z M323.8,89.4c-0.9,2.5-8.2,6.1-10.7,6.7c-2.3,0.5-4.3-2-4.6-4.1c-0.3-2.3,3-7.6,5.2-8.2
		C317.2,82.8,326,83.6,323.8,89.4z M339.8,80.1c-1,2.5-8.4,6.4-11,6.9c-2.2,0.4-4.2-2.2-4.3-4.3c-0.2-2.5,3.1-7.7,5.6-8.2
		C333.4,73.8,341.9,74.5,339.8,80.1z M355.4,71.5c-1.5,2.2-8.3,6.1-11,6.4c-2.1,0.2-3.5-1.9-3.8-3.8c-0.4-2.6,2.4-8.5,5.4-8.8h0
		c1.9-0.2,5.6-0.4,7.3,0.4C355.2,66.4,356.7,69.7,355.4,71.5z M352.8,62.7c-2.1,0.6-7.2,0.7-8.8-0.9c-3.6-3.7-3.9-7.5-1.4-11.7
		c0.8-1.3,1.5-2.7,3.1-3.1c2-0.5,6.6-0.7,8.3,0.7c3.9,3.3,4.3,7.7,1.9,11.7C355.1,60.7,354.4,62.3,352.8,62.7z M360.7,67.8
		c-2.3,0.7-4.4-1.4-4.4-3.7c0-2.3,2.8-7.2,5.1-7.9C369.5,54,364.8,66.6,360.7,67.8z M371.8,50.1c-0.8,1.3-1.5,2.9-3.1,3.4
		c-2.1,0.6-7.2,0.7-8.9-0.9c-3.6-3.6-4-7.3-1.6-11.4c0.7-1.2,1.4-2.7,2.8-3.1c2-0.6,7.6-0.8,9.1,0.6C373.9,42.1,374.2,46,371.8,50.1
		z M330.9,123.1l-0.1-18.3c0-2,0.6-5.8-0.3-7.6c-0.6-1.2-3.6-0.9-4.6-0.5c-3.1,1.2-3.8,6.8-6.4,8.9c-3,2.5-6.9,0.6-9.5,2.6
		c-1.9,1.4-1.8,11,0.3,12.2c2.3,1.2,5.2,0,7.7,1.3c4,2.2,6.1,13,12.1,10.1C331.6,131,330.9,124.8,330.9,123.1z M311.9,115.7
		c-0.8-0.1-0.6-1.4,0.2-1.3C313,114.6,312.7,115.9,311.9,115.7z M319.4,115.7c-0.9,0.2-1.1-1.2-0.2-1.3
		C320,114.2,320.2,115.6,319.4,115.7z M323,111h1.5c-0.7,1.1-1.3,2.1-2,3.2H321C321.6,113.2,321.9,112.7,323,111z M321.7,117.3
		c1.3-2.1,2.7-4.2,4-6.3h1.6c-1,1.6-1,1.7-4,6.3H321.7z M326,117.3h-1.6l1.9-3.1h1.6C327.3,115.2,326.6,116.3,326,117.3z
		 M376.4,144.1c-3.7-1.4-5.6,4.2-6.9,6.7c-1.7,3.2-1.8,6.9-3.6,9.9c-3.5,5.8-11.5,7.5-16.7,2.8c-4.2-3.8-5.4-9.9-2-14.7
		c1.7-2.3,4.3-3.7,5.9-6.1c1.9-2.8,6.4-8.2,2.5-10.8c-1.4-1-3.7-2.6-5.4-1.4c-2.2,1.5-3.6,5.5-4.9,7.8c-3.1,5.5-6.4,10.8-9.4,16.3
		c-1.1,1.9-3,4.2-3.3,6.4c-0.4,2.9,3.8,3.2,4.8,5.4c0.7,1.8-1.1,2.9,0.1,4.8h0l-2.2,0.3l1,1.9l-2.2,0.3l1,1.9l-2.2,0.3l0.6,2.2h-1.9
		l1,1.9l-2.2,0.3l1,1.9l-2.2,0.3l1,1.6l-1.9,0.3l0.6,1.9l-1.9,0.3l0.6,1.9l-1.6,0.3c0.2,2.2,1.4,2.8,3.2,3.8c3.6,2,8.3,6.1,12.5,6.4
		l1.6-1l0.3-0.3l-0.6-1.9l1.9-0.3l-1-1.6l2.2-0.6l-1-1.6l2.2-0.3l-1-1.9l2.2-0.3l-1-1.9l1.9-0.3l-0.3-2.2l1.6,0.3l-0.6-2.2h1.9
		l-0.6-2.2c2.8-0.1,2.7-3.1,5.1-3.6c2.7-0.6,5.2,4.1,7.9,2.1c1.8-1.4,2.9-4.6,4.1-6.5c3.3-5.5,6.3-11.1,9.6-16.6
		c1.2-2,4-5.3,3.9-7.7C381.7,146.5,378.2,144.8,376.4,144.1z M350.2,133.8c2.1-0.9,3.7,2.3,1.5,3.1
		C349.6,137.8,348.1,134.7,350.2,133.8z M337.1,162.2c-2.1,0.8-3.5-2.5-1.2-3.2C338,158.4,339.3,161.4,337.1,162.2z M362.3,176.9
		c-2.2,0.8-3.4-2.6-1.2-3.4C363.3,172.7,364.5,176.1,362.3,176.9z M376.4,151.7c-2.1,0.3-2.6-3.1-0.6-3.5
		C378.1,147.7,378.8,151.3,376.4,151.7z M408.8,118.5c-2.2-1.4-4.5-2.6-6.7-3.9c-9.2-5.2-18.3-10.6-27.5-15.9
		c-7.8-4.5-15.9-10.7-24.3-13.8c-3.7,5.6-6.9,11.7-10.2,17.6c-1.3,2.3-3.9,5.3-4.3,8c-0.8,6.1,5.8,12.4,11.6,13
		c1.9,0.2,4-0.8,5.8-1.3c3.6-1,7.3-1.9,10.9-2.9c1.8-0.5,4.5-1.7,6.4-1.2c2.2,0.6,4.4,2.4,6.4,3.5c4.4,2.5,8.8,5,13.1,7.6
		c2.1,1.2,5.2,3.9,7.7,4c5.8,0.3,8.4-3.5,11-7.9c0.7-1.2,2.5-3.4,2.4-4.8C410.9,119.5,409.5,119,408.8,118.5z M345,113.9
		c-2.3,1-3.9-2.3-1.5-3.1C345.4,110.1,346.9,113,345,113.9z M399.5,126.4c-2.3,0.5-2.9-3.1-0.6-3.5
		C401.1,122.5,401.7,125.9,399.5,126.4z M420.6,64.2c-1.4-0.2-2.7,0.9-4.2,0.6c-1.9-0.5-3.8-2-5.4-3c-3.4-1.9-7.1-3.7-10.2-5.9
		c-2.7-1.9-2.3-7.8-7.4-5.9c-3.1,1.2-1.5,4.1-2.8,6.2c-1.8,2.9-5.7,4.2-7.5,7.1c-1.7,2.6-1.7,6.8-4.4,8.8c-2.2,1.6-6.1-0.6-8.6-0.3
		c-2.4,0.3-4.1,2.2-4.1,4.6c-0.1,3.5,4,7.7,5.8,10.6c3.3,5,7.6,7.1,12.7,10.1c4.2,2.4,8.8,6,13.4,7.5c1.9,0.6,3.9,0.3,5.8,0.5
		c3,0.4,8,1.3,10.9,0.2c8.5-3.3-3.1-10.3-1.9-14.1c0.9-3.1,3.9-4.9,5.3-7.7c1.4-2.9,0.7-6.7,2.2-9.6c1.1-2.3,4.3-2.7,4.2-5.8
		C424.2,66,422.5,64.4,420.6,64.2z M399.2,58.9c2.3-0.6,3.2,2.7,0.9,3.4C397.9,62.8,397.1,59.4,399.2,58.9z M395,51.9
		c2.3,0,2.3,3.5,0,3.5C392.7,55.4,392.7,51.9,395,51.9z M390.6,62.8c1.4-0.4,2,1.9,0.6,2.2C389.6,65.3,389.1,63.2,390.6,62.8z
		 M370.7,78.1c-2.3,0.3-2.9-3.1-0.6-3.5C372.3,74.1,372.9,77.7,370.7,78.1z M377.7,90c-2.2,0.1-2.5-3.3-0.3-3.5
		C379.7,86.2,380.2,89.9,377.7,90z M374.8,84.4c-5-0.2,0.4-9.3,2.6-9.4c1.4-0.1,6.3,0.3,6.8,1.7c0.5,1.3-0.9,2.5-1.6,3.4
		C380.3,82.9,378.7,84.5,374.8,84.4z M399.5,102.3c-2.2,0.6-3.2-2.9-0.9-3.4C400.8,98.3,401.7,101.6,399.5,102.3z M391.5,98
		c-12.3-0.3-12-19.1,0.3-18.9C404.1,79.3,403.8,98.3,391.5,98z M403.6,72.3c5.9-0.6,6.6,8.5,0.6,9C398.5,81.7,397.9,72.9,403.6,72.3
		z M408.6,98.7c-0.7,1.2-0.7,3.2-2.4,3.4c-2.5,0.2-4.5-4.1-4.1-6.2c0.2-1.2,1.1-2.3,1.5-3.5c0.4-1.1,0.6-3.2,2.1-3.3l0,0
		c2-0.2,5.6,4.7,5.3,6.5C410.6,96.8,409.2,97.6,408.6,98.7z M413.2,98.7c2.7,0.4,2.2,4.4-0.6,4.1C409.8,102.5,410.5,98.3,413.2,98.7
		z M413.8,78c-1.4,0.5-2.3-1.6-0.8-2.1C414.3,75.4,415.2,77.5,413.8,78z M420.6,70c-2.1,0.6-3-2.9-0.9-3.4
		C422.1,65.9,423,69.3,420.6,70z M470,94.9c-1.2-1.7-4.4-0.4-6.2-0.4c-4,0-7.8-1.1-11.2-3.2c-3.6-2.2-6.5-5.7-8.2-9.6
		c-0.5-1.2-1.2-3.4-3-2.9h0c-3.4,1-4.7,8.1-7.2,10.4c-1.4,1.3-3.3,1.8-3.7,4c-0.5,3.1,2.4,4.9,0.8,8c-1.5,2.8-3.2,5.5-4.8,8.3
		c-0.6,1.1-1.7,2.4-1.2,3.8c0.5,1.3,2.1,1.9,3.2,2.6c2.8,1.6,5.6,3.2,8.3,4.8c2.5,1.5,8.6,6.6,11.5,5.7c3-0.9,5.3-7.7,6.8-10.2
		c2.3-3.8,4.8-1.8,7.6-4c2.1-1.6,1.2-3.5,1.9-5.6c0.8-2.7,2.9-5.3,4.3-7.7C469.6,97.9,470.9,96.3,470,94.9z M441.5,84.9
		c0.8-0.3,1.3,0.9,0.5,1.3C441.2,86.4,440.7,85.1,441.5,84.9z M437.6,106.9c1.9-0.8,3.7,2,1.5,2.8
		C437.2,110.4,435.7,107.7,437.6,106.9z M435.3,96c-2.3,0.4-2.9-3.1-0.6-3.5C436.9,92.1,437.4,95.6,435.3,96z M439.1,118.7
		c-1.1-0.6-1.6-0.9-2.8-1.7c1.1-1.8,2.6-4.2,3.6-6.1c1,0.5,2,1.2,2.9,1.8C441.7,114.5,440.2,116.8,439.1,118.7z M441.4,108.4
		l3.5-6.1c0.9,0.5,1.9,1.1,2.8,1.6c-1,1.9-2.8,4.7-3.6,6C443.3,109.4,442.2,108.9,441.4,108.4z M446.5,114.3
		c-2.1,0.4-2.7-2.8-0.6-3.2C448,110.7,448.4,113.9,446.5,114.3z M456.1,103.7c-2.8,0.7-3.7-3.4-0.9-3.9
		C457.4,99.5,458.3,103.2,456.1,103.7z M460.9,110.4c-2.1,1-3.5-2.4-1.5-3.2C461.5,106.3,463,109.4,460.9,110.4z M465.3,98.7
		c-0.8,0.3-1.3-1-0.5-1.3C465.7,97.1,466.2,98.3,465.3,98.7z M510.7,147.3c-1.7-7.1-11-3-15.8-5c-1.7-0.7-4.5-1.8-4.6-3.9
		c-0.1-2.2,2.5-5.2,3.5-7c3-5.3,8.4-11.7,9.7-17.6l-13.8-7.7c-2.2,3.7-4.3,7.5-6.4,11.2c-1,1.8-1.9,4-3.5,5.3
		c-2.4,2-6.7,0.1-9.6,0.9c-2.4,0.7-4.5,5.3-5.1,7.5c12.3,6.5,24.1,14,36.2,20.8C505,154,512.2,153.7,510.7,147.3z M506,150.8
		c-3.4,0.5-4.9-4.8-1.3-5.2C508,145.2,509.6,150.2,506,150.8z M564.3,156.9c0-2.6,0.1-5.1-1.3-7.4c-2.1-3.3-6-4.9-9.2-6.7L534.8,132
		c-4.6-2.6-9.2-5.3-13.8-8c-1.2-0.7-3.6-2.7-5.1-2.3l0,0c-1.8,0.5-6.2,8.2-4.7,9.7c1.5,1.5,4.1,2.5,5.9,3.5
		c3.9,2.2,7.7,4.5,11.5,6.7c1.9,1.1,5.7,2.6,5.2,5.4c-0.6,3.7-7.2,5-9.6,7.2c-1.7,1.6-2.7,4.2-3.9,6.2c-1.7,3.1-4.4,6.2-5.5,9.6
		c-0.7,2.3,2.1,5.7,3.1,7.7c1.8,3.5,3.3,6.6,7.1,8.2c2.9,1.2,7.2,0.3,10.2,0.1c5-0.3,10.5,0.7,15.4-0.5c2-0.5,2.8-2.4,3.8-4
		c1.8-3.1,3.5-6.2,5.4-9.3c1.4-2.3,3.3-4.8,4.1-7.4C564.8,162.5,564.3,159.4,564.3,156.9z M547.3,169.5c-2.2,0.9-3.4-2.3-1.2-3.1
		C548.1,165.7,549.2,168.8,547.3,169.5z M551.5,156.1c-2.3,0.5-2.9-3.2-0.6-3.5C553.1,152.3,553.7,155.7,551.5,156.1z M231.2,387.5
		c-7,1.2-10.9,12.2-4.2,16c1,0.6,2.3,1.7,3.5,1.5c1.7-0.2,2.9-3.6,3.7-4.9c1.3-2.2,4.3-5.7,4.5-8.3
		C238.9,389.5,233,387.2,231.2,387.5z M231.4,397.4c-2.1,0.8-3.6-2.3-1.5-3.1C232,393.4,233.7,396.5,231.4,397.4z M252,348.6
		c-4,1.3-4,8.6-7.4,10.6c-2.3,1.4-6.5-4.3-9.3-3.7c-1.7,0.3-2.5,2.3-3.3,3.7c-1.9,3.6-4.1,7-6.1,10.6c-0.7,1.3-2.5,3.3-1.4,4.7
		c0.4,0.5,1,0.8,1.5,1.1c4.6,2.8,3.8-5.8,7.7-4.3c1.6,0.6,7.4,3.3,7.4,5.2c0,2-2.5,3.4-2.4,5.4c0,1.4,2.9,3.1,4.2,2.7
		c2-0.6,3.7-5.4,4.6-7.1c3.1-5.5,6.4-10.8,9.4-16.3c1.1-2,3-4.2,3.5-6.4C261,352,254.3,347.8,252,348.6z M254.5,356.7
		c-2.5,0.9-3.2-3-0.9-3.8C256.1,352.1,256.8,355.9,254.5,356.7z M220,409.8c-0.4-1.6-3.8-2.9-5.2-3.6c-5.1-2.9-10.3-5.9-15.4-8.9
		c-2.7-1.6-8.5-6.5-11.8-5.2c-3.5,1.4-2.2,8-2.2,11c0,1.6-0.4,4,0.4,5.4c1,1.7,3.7,2.7,5.4,3.7c4.3,2.4,8.5,4.9,12.8,7.4
		c1.6,1,6.4,4.8,8.3,4c1.7-0.8,2.9-4.2,3.8-5.7C217.1,416,220.5,411.8,220,409.8z M195.9,407c-2.9,0.8-3.9-3.8-0.9-4.4
		C197.8,401.9,198.5,406.3,195.9,407z M210,414.7c-2.9,0.9-4.4-3.3-1.6-4.2C211.2,409.8,212.6,413.9,210,414.7z M260.2,419
		c-1.5-2.3-1.9-5.8-4.1-7.5c-2.5-1.9-7.8,0.1-10.9-0.2c-1.6-0.2-3.2-0.9-4.8-0.4l0,0c-3.1,1-3.5,5.3-4.9,7.8c-1.2,2-3.9,3.9-4,6.4
		c-0.1,2.5,2.5,4.4,3.7,6.4c1.4,2.2,1.9,5.9,4,7.5c2.6,2,7.7-0.1,10.8,0.3c1.6,0.2,3.5,0.9,5.1,0.3c2.9-1,3.2-5.1,4.6-7.5
		c1.2-1.9,3.6-3.8,4-6.1C264.2,423,261.7,421.3,260.2,419z M249.1,435.6c-13.3,1.7-16.2-18.7-2.9-20.6
		C259.7,413,262.7,433.8,249.1,435.6z M386,424.8c0-1.7,0.8-6.2-1.3-6.9c-1.3-0.4-5.2-0.6-6.2,0.4c-1.1,1.1-0.3,3-2.1,3.7
		c-2.8,1.2-7.8,0.2-10.9,0.2h-66.9c-0.8,0-1.8,0.1-2.6-0.1c-4.3-1.1-0.9-7.2-2.6-9.7c-0.7-1-2.4-0.7-3.5-0.7
		c-3.3,0-7.7-0.7-10.9,0.2c-2.6,0.8-2.6,6.6-1.7,8.8c0.9,2.3,4.1,0.9,5.1,3.2c1.6,4,0.2,11,0.2,15.4c0,1.5,0.4,3.7-0.4,5.1
		c-1.1,2-4,0.7-4.9,2.9c-0.7,1.7-0.8,7.5,1.1,8.4c2.9,1.3,8.3,0.2,11.5,0.2c1,0,2.8,0.3,3.5-0.5c1.9-2.5-1.4-7.2,1.7-9.4
		c1.5-1.1,4-0.6,5.7-0.6h13.8h52.8c2.5,0,6.6-0.8,8.9,0.4c1.7,0.9,1.1,2.3,1.9,3.6c0.9,1.3,5.4,1.2,6.6,0.4c1.7-1,1-4.7,1-6.4V424.8
		z M318.8,439.6c-1.7,0.7-4.2,0.2-6.1,0.2H300c-1.9,0-4.7,0.5-6.4-0.4c-3.1-1.6-2.9-10.5,0.6-11.6c5.2-1.6,12.8-0.2,18.2-0.2
		c2,0,4.8-0.5,6.7,0.5C321.9,429.6,321.8,438.4,318.8,439.6z M347.3,439.7c-4,1.1-9.6,0.1-13.8,0.1c-1.5,0-3.7,0.4-5.1-0.6
		c-2.8-2-2.1-10.7,1.6-11.5v0c4-0.8,8.8-0.1,12.8-0.1c1.6,0,3.7-0.3,5.1,0.6C350.5,429.9,350.7,438.7,347.3,439.7z M375.8,439.7
		c-3.9,1.2-9.7,0.2-13.8,0.2c-1.6,0-3.7,0.4-5.1-0.6c-2.6-1.9-2.1-10.5,1.2-11.4c3.9-1.1,9.4-0.1,13.4-0.1c1.5,0,3.5-0.3,4.8,0.6
		C379,430,379.2,438.6,375.8,439.7z M354,374.4c-1.3-0.8-4.4-3.3-6-2.8c-1,0.3-1.5,1.8-2,2.7c-1.4,2.5-2.8,4.9-4.2,7.4
		c-1.4,2.5-5.5,7.2-4.9,10.2c0.6,2.9,3.4,5.1,4.1,8c0.5,2.1-2.5,3.8-1.9,5.7c0.4,1.2,2.4,1.9,3.4,2.5c3.3,1.9,7.2,5,10.9,5.9
		l12.1-21.1l4.8-9C365,380.5,359.4,377.6,354,374.4z M341.6,393c-2.2-0.1-2.3-3.5,0-3.5C343.9,389.4,343.9,393.1,341.6,393z
		 M387,354.1c-0.6-1.4-3.2-2.3-4.4-3l-11.8-6.8c-1.5-0.9-3.9-3-5.1-0.8c-4-1.8-4.6,0.9-6.5,4.2c-0.6,1-2.2,2.9-1.5,4.1
		c2.9,5.5,9,7.8,14.5,10.9c2.6,1.5,5.4,3.6,8.3,4.5c1.9-3,3.6-6.2,5.4-9.3C386.2,356.9,387.5,355.3,387,354.1z M367.7,352.5
		c-2.1,0.9-3.7-2.2-1.5-3.1C368.3,348.6,369.7,351.6,367.7,352.5z M409.4,320.5c-1.9-0.8-4.2-0.3-5.6-2.3c-1.4-2,0-6.2-0.3-8.6
		c-0.3-2.5-1.1-4.9-2.2-7c-0.7-1.3-2.1-2.6-2.3-4.2c-0.5-3.5,2.9-9.3-1.8-11.2c-3.7-1.5-5.2,2.2-5.7,5.1c-1,7.1-0.6,16.2-4.6,22.4
		c-2.4,3.7-6.1,6.1-9.6,8.8c-3,2.3-11.7,6.7-9.8,11.4c2.6,6.2,8.6-0.8,11.7-2.4c2.4-1.2,6.5-0.1,9.3-0.8c3.5-0.9,6.3-4.2,9.6-4.9
		c2.4-0.6,4.5,3.9,6,3.1C406.2,328.6,409,322.7,409.4,320.5L409.4,320.5z M371.3,335.1c-2.2,0.2-2.5-3.3-0.3-3.6
		C373.5,331.2,373.9,334.9,371.3,335.1z M396,292.6c-2.3,0.2-2.5-3.4-0.3-3.6C398,288.8,398.4,292.4,396,292.6z M431.1,253.4
		c-1.5-1.5-4.2-1.2-5.5-2.8c-1.3-1.6-1.1-7.4-4.1-7.1c-1,0.1-1.7,1.1-1.8,2c-0.2,3.2,1.1,5.2-0.8,8.3c-1.2,1.9-3,3.3-4.2,5.1
		c-3.3,4.9-6.4,10.4-9,15.7c-1.9,3.8-2.9,9.3-0.8,13.1c1.9,3.4,7.1,5.9,10.4,2.8c1.2-1.2,2-4.4,3.6-4.9c1-0.3,5.5,5.1,5.9,0.9
		c0.1-1.3-1.4-2.6-2.1-3.5c-1.9-2.3-7.6-6.6-6.6-10c1-3.4,4-8.2,6.4-10.8c1.8-2,3.7-2.8,5.3-0.3
		C429.9,260.4,433.4,255.6,431.1,253.4z M414.4,284.4c-2.1,0.9-3.8-2.3-1.5-3.1C415,280.5,416.4,283.6,414.4,284.4z M463.8,225.1
		c-2.5-4.2-9.8-4.1-12.2-8.3c-1.5-2.6,3.3-6.7,3.8-9.3c0.2-1.3-0.3-2.5-1.2-3.4c-2.2-2.1-9-6.6-12.1-5.4c-2.4,0.9-3.9,5-5.1,7.1
		c-3.5,6.2-7.2,12.4-10.7,18.6c-1.2,2.1-3.9,5.2-3.6,7.7c0.3,2.5,3.1,3.5,5,4.6c4.4,2.5,12.7,9.8,17.9,7.7
		c6.2-2.5,13.2-6.8,16.4-12.6C463.1,229.8,465.1,227.5,463.8,225.1z M435.9,235.9c-2.4,0.5-2.9-3.2-0.6-3.6
		C437.5,231.9,438.1,235.4,435.9,235.9z M439.1,222c-2.2,0.8-3.4-2.7-1.2-3.4C440.1,217.9,441.2,221.2,439.1,222z M445.8,210.2
		c-2.3,0.7-3.5-2.6-1.2-3.2C446.8,206.5,448.1,209.6,445.8,210.2z M453.5,231.2c-2.1,0.6-3.3-2.5-1.2-3.3
		C454.6,227,455.7,230.5,453.5,231.2z M504.1,159.8c-0.6,2.1-1.9,3.9-3,5.8c-1.2,2.1-3,7.2-5.2,8.3c-1.3,0.7-3.6-1.3-4.7-1.9
		c-3.5-2-8.8-6.6-12.8-7.1c-3.1-0.4-6,3.8-9,4.3c-1.7,0.3-3.4-1.2-4.8-2c-0.9-0.5-2.4-1-2.8-2c-0.7-1.3,1.2-3.6,1.9-4.7
		c2.5-4.4,5-8.8,7.6-13.1c0.7-1.2,1.8-4.2,3.4-4.3c2.4-0.1,6.2,3.3,8.3,4.4C490.1,151.6,497.2,155.6,504.1,159.8 M514,195.3
		c0-2.6,0.1-5-1.4-7.4c-1.3-2.1-3.6-3.3-5.7-4.5c-2.1-1.2-4.3-2.9-6.7-3.6c-3.9-1.1-9.1-0.3-13.1-0.3c-2.9,0-6.4-0.5-9.3,0.2v0
		c-4.1,1-7.1,9-9.2,12.3c-1.9,3.1-5.7,7.2-6.2,10.9c-0.6,5,2.6,8.5,5,12.5c0.8,1.3,1.8,3.7,3.3,4.3c1.5,0.6,3.8,0.2,5.4,0.2
		c4,0,8.9,0.7,12.8-0.1c3.3-0.7,6.7-3.6,9.6-5.2c4.5-2.6,12.3-5.4,14.6-10.3C514.5,201.6,514,198.2,514,195.3z M489.1,195.2
		c-2.3,0.3-2.6-3.3-0.3-3.5C490.9,191.6,491.2,194.9,489.1,195.2z M503.2,198.1c-2.4,0.4-2.5-3.3-0.3-3.5
		C505,194.4,505.3,197.8,503.2,198.1z M508.6,247c-1.9-1.6-1.8-9.7,0.3-11.1c1.8-1.2,5.3-0.6,7.3-0.6c0-3-0.9-4.7-0.2-7.7
		c0.1-0.6,0-1.2-0.5-1.6c-1.9-1.3-7.2-0.3-9.5-0.3c-7.6,0-15.1-0.1-22.7,0c-2.3,0-7.4,0-9.2,1.5c-1.9,1.6-1.7,4.6-1.7,6.8
		c0,5.7-0.2,11.5,0,17.3c0.2,6.3,10.1,5.8,14.4,5.8h21.8c1.4,0,6.4,0.8,7.3-0.5c0.6-0.9-0.5-2.4-0.6-3.3c-0.2-1.8,0.9-3.6,0.9-5.4
		C514.1,247.8,510.5,248.5,508.6,247z M475.7,228.5c1.8-0.7,2.9,2,1.2,2.7C475.1,232,473.9,229.2,475.7,228.5z M489.1,245.9
		c-0.9,1.3-2.8,1.9-3.6,3.3c-1,1.6,0.6,4.6-1.9,5.2c-3.9,1.1-2.4-3.8-3.7-5.5c-0.8-1-2-1.4-2.8-2.4c-2.2-2.6-2.3-6.8-0.3-9.6
		c0.9-1.2,2.6-1.7,3.3-3c1-1.7-0.6-4.5,1.9-5.2c4.2-1.2,2.4,3.4,3.7,5.2C488.4,237.7,492.8,240.7,489.1,245.9z M564,233.1
		c0-2.5,0.8-6.6-0.2-8.9c-0.9-2.3-4.4-0.8-6.2-1.9c-1.5-1-1.8-3.7-2.9-5.2l1.6-1l-1.6-1.6l1.6-0.6l-1.6-1l1.6-1.6l-1.6-1l1.6-1.6
		l-1.6-1v-0.6l1.3-0.6v-0.6l-1.3-0.6v-0.6l1.6-0.6l-1.6-1.3v-0.6l1.6-0.6l-1.6-1.3v-0.6l1.6-1l-1.6-1.6l1.3-0.3
		c-0.9-1.9-2.3-1.9-4.2-1.9c-4.1,0-11.1-1.3-14.7,0.6h0v0.3l0.6,0.3v0.3l-1.6,1l1.6,1v0.6l-1.6,1.3l1.6,0.6v0.6l-1.6,0.6v0.6
		l1.6,0.6v0.6l-1.6,0.6v0.6l1.6,0.6v0.6l-1.6,0.6v0.6l1.6,0.6v0.6l-1.6,0.6v0.3l1.6,1.6l-1.6,0.6v0.3l1.6,1.6l-1.6,0.6v0.3l1.6,1
		v0.3c-2.3,1.4-0.8,3.6-2.4,5.3c-2,2.1-5.9-0.3-7.6,1.8c-1.2,1.5-0.6,4.8-0.6,6.6v17.3c0,2.9-1.5,12.2,1.9,13.3
		c1.8,0.5,6.3,0.7,7.3-1.1c1.1-1.9,0.3-5.8,0.3-8c0-7.4-4.6-14.9,3.8-20c1.2-0.7,2.7-1.3,4.2-1.4c6.3-0.5,12.5,4,12.5,10.7
		c0,3.5-1.8,6.6-2.2,10.1c-0.3,2.4-1,8.1,1.5,9.5c1.7,0.9,6.3,0.9,7.2-1.2c0.9-2.2,0.2-5.7,0.2-8V233.1z M532.2,257.5
		c-2.2,0.8-3.4-2.6-1.2-3.4C533.2,253.3,534.3,256.7,532.2,257.5z M532.2,228.3c-2.2,0.7-3.4-2.5-1.2-3.3
		C533.1,224.2,534.4,227.6,532.2,228.3z M561.4,257.5c-2.2,0.8-3.4-2.6-1.2-3.4C562.3,253.3,563.5,256.7,561.4,257.5z M561.4,228.3
		c-2.2,0.7-3.4-2.5-1.2-3.3C562.3,224.2,563.6,227.6,561.4,228.3z M542.7,315.3c-0.2-1.8-0.8-4.9-2-6.3c-1.3-1.5-3.6-2.3-5.3-3.3
		c-4.1-2.5-8.3-4.8-12.5-7.2c-1.6-0.9-6.8-5-8.5-4.2c-2,0.9-3.5,5.5-4.6,7.3c-4,6.9-10.1,14.5-12.5,22.1c1.1,0.6,3.7,1.5,3.7,2.9
		c0.1,2.3-3.2,6-4.3,8c-2.7,4.7-5.3,9.4-8.1,14.1c-1.5,2.5-3.8,5.4-4.4,8.3c2.4,1,4.8,3.4,7.4,3.8c1.9,0.2,5.9-0.8,7.3-2
		c1.7-1.4,2.8-4.3,3.9-6.2c2.8-4.8,5.5-9.6,8.3-14.4c1.2-2,2.4-5.2,4.5-6.3c4.6-2.5,11.3-3,16.3-4.4c1.8-0.5,4.2-0.7,5.6-1.9
		c1.2-1,1.9-2.9,2.7-4.3C541.3,319.4,543,317.4,542.7,315.3z M515.3,316.5c-0.1-1.8-0.1-3.7-0.2-5.5l1.9,1.1c0,1.8,0.1,3.6,0.1,5.4
		L515.3,316.5z M518.9,318.5l-0.6-11.2l1.9,1.1l0.6,11.1L518.9,318.5z M522.1,315c-0.1-1.8-0.1-3.7-0.2-5.5l2,1.1
		c0.1,1.8,0.1,3.6,0.2,5.4L522.1,315z M557.2,322.7c4.8-2.4,3.8,4.1,3.8,6.7c0,1.1,0.4,3.1-0.7,3.8c-2,1.3-7.4,0.3-9.8,0.3
		c-0.7,0-2.7,0.3-3-0.5c-0.4-1,1.5-2.4,2.1-3C551.8,327.8,554.4,324.1,557.2,322.7 M485.6,402.4h-23.7c-2.8,0-7.4-0.9-9.9,0.4
		c-5.1,2.5-5.8,6.8-5.8,11.8c0,1.5-0.3,3.4,0.4,4.8c1.8,3.7,6.6,7,9.5,9.9c1.9,1.9,4.4,5.6,7,6.5c4.8,1.8,11-0.7,16,0.5
		c1.5-5,0.3-11.8,0.3-17h6.1V402.4z M455.1,412.6c-2.2,0.6-3.1-2.8-0.9-3.4C456.5,408.7,457.5,412,455.1,412.6z M471.8,429.5
		c-2.3,0.4-2.9-3.2-0.6-3.5C473.5,425.5,474.1,429.1,471.8,429.5z M392.7,463.2c-0.2-1.7-0.7-3.6-2.5-4.3c-1.6-0.6-3.8-0.2-5.4-0.2
		h-11.2h-39h-12.8c-1.6,0-4-0.4-5.4,0.3h0c-1.5,0.8-2.1,2.9-2.2,4.5c-0.4,3.8-1.7,14.8,2.8,16.4c1.6,0.6,3.8,0.2,5.4,0.2h11.5h39
		h12.8c1.5,0,3.8,0.4,5.1-0.5C394.3,477.1,393.1,467.1,392.7,463.2z M328.1,473.4c-2.3-0.1-2-3.8,0.3-3.6
		C330.6,470.1,330.3,473.6,328.1,473.4z M350.9,473.3c-0.9-1.4-1.8-2.8-2.7-4.3c0.7,0,1.5,0,2.1,0l2.7,4.3H350.9z M354.8,473.3
		c-1.9-2.9-3.8-5.8-5.7-8.7h2c1.9,2.9,3.8,5.9,5.8,8.7C355.2,473.3,356.7,473.3,354.8,473.3z M355.9,469.1c-0.9-1.5-1.9-3-2.8-4.5
		c0.8,0,1.3,0,2,0c0.9,1.4,2,3.1,2.9,4.5H355.9z M379.3,473.2c-1.9,0.7-3.5-2.3-1.5-3.1C380,469.1,381.6,472.4,379.3,473.2z
		 M368.3,486.7c-1.2-0.6-3.4-0.2-4.7-0.2h-11.5c-2.3,0-8.6-1.1-10.4,0.3c-0.9,0.7-0.5,2.6-0.5,3.5c0,3-0.8,6.8,1.3,9.3
		c4.2,4.9,8.7,4.2,14.7,4.2c2.4,0,5.2,0.4,7.3-1.2c4.3-3.4,4.6-6.2,4.6-11.3C369.1,490.2,369.6,487.4,368.3,486.7z M355.6,496.9
		c-2.1,0.7-3-3-0.9-3.5C357,492.9,357.8,496.2,355.6,496.9z M445.8,430.9c-1.3-2.3-2.7-6-5.1-7.3c-2.1-1.1-4.8-0.5-7-0.8
		c-5.8-0.5-12.5-1.7-18.2-0.8h0c-10.5,1.6-13,10.7-17.6,18.7c-1.5,2.7-4.9,7.4-4.8,10.6c0.1,3.2,3.5,7.2,5.1,9.9
		c3.2,5.5,6.2,13.8,14,13c3.1-0.3,6.6-3.3,9.3-4.9c7.1-4,14.1-8.2,21.1-12.2c3-1.7,8-3.4,9.3-6.8
		C454.8,442.8,449.5,437.3,445.8,430.9z M397.5,452.8c-2.1,0.9-3.7-2.2-1.5-3.1C398.1,448.8,399.5,451.9,397.5,452.8z M438.6,425
		c2.2-0.8,3.4,2.6,1.2,3.4C437.6,429.1,436.4,425.8,438.6,425z M409.4,468.5c-2,0.2-2.6-3.2-0.6-3.5
		C411.1,464.5,411.7,468.2,409.4,468.5z M423.1,462.9c-0.3,2.1-4.3,4.3-6.3,4.1c-2.1-0.2-5.5-6-4.2-7.8c1.7-2.3,5.4-2.3,8-2.2
		C423.2,457,423.4,460.9,423.1,462.9z M420.3,451.2c-2.3,0.3-4.9,0.2-7-0.6c-11.8-4.6-9.5-22.4,2.9-24.1
		C431.9,424.2,436,448.9,420.3,451.2z M430.8,461.8c-2.2,0.7-3.5-2.7-1.2-3.3C431.8,458,433,461.1,430.8,461.8z M437.6,455.4
		c-2,0.3-5.8-1.8-5.7-4.1c0.1-2.7,3.4-6.4,6-6.9l0,0c2.4-0.4,2.8,2.2,3.7,3.7C443.8,451.7,441.8,454.8,437.6,455.4z M446.5,447
		c-2.2,0.3-2.7-3.1-0.6-3.5C448.2,443.1,448.8,446.7,446.5,447z M224.3,282.7c-0.8-1.2-0.6-3-1.6-4c-1.7-1.6-3.7,0.3-5.7,0.1
		c-1.3-0.2-2.5-1.1-3.8-0.6c-2.2,0.8-1.4,3-2.5,4.6c-0.6,0.9-1.5,1.3-2.1,2.1c-2.1,2.6,1.6,4.2,2.5,6.2c0.7,1.6,0.1,3.3,2.1,4
		c1.6,0.5,2.9-0.8,4.5-0.7c1.4,0.1,2.7,1.3,4.2,0.7c2-0.8,1.4-2.8,2.3-4.3c0.8-1.4,2.8-2.1,2.9-3.8
		C227.2,285,225.3,284.1,224.3,282.7z M218,289c-3.1,0.7-4-4.2-1-4.8C220.1,283.5,221,288.3,218,289z M245.7,151.9
		c-3.2-5.8-7.9,4-9.5,6c-2.6,3.2-5.3,6.3-8.9,8.4c-3.8,2.2-7.6,2.5-11.8,2.9c-6.9,0.7-12.3,1.4-18.9-1.4c-4.3-1.8-7.8-7.2-12.2-8.2
		c-3.2-0.7-4.7,3.4-7.4,2.9c-4.1-0.8-5-9.9-5.6-13c-0.3-1.9-2.2-3.2-4-2.7v0c-5.6,1.5,0.7,9.6,1.9,12.6c2.2,5.8,4.5,11.5,6.7,17.3
		c0.8,2.3,2.4,4.9,2.6,7.4c0.4,5-2.3,11.3-3.8,16c-1.2,3.9-3.5,12.3-8,13.2c-4.5,0.9-10.7,1.2-15.4,0.8c-2.3-0.2-5.4-1.5-6.4,1.6
		c-0.6,1.8,0.7,4,2.6,4.2c3.9,0.5,11.3-4.4,14.5,0c2.8,3.8-6.6,9.2,0.2,12.4c5.2,2.4,13.3-3.6,18.2,1.4c3.8,3.8-3.1,9.6-3.8,13
		c-0.5,2.3,1.6,4.6,3.9,4c2.6-0.6,2.3-3,2.6-5c0.3-2.2,1.6-6.1,3.5-7.3c4.6-3.1,8,7.9,13,2.5c2.3-2.5,0.9-7.5,0.7-10.5
		c-0.4-6.5,0.8-13.8,2.3-20.2c3-12.2,14.4-22.2,22.4-31.7c5.4-6.5,10.6-13.1,16.1-19.5C243.1,157.1,247.6,155.3,245.7,151.9z
		 M168.7,151.3c-1.6,0.6-2.6-1.9-0.9-2.5C169.4,148.3,170.3,150.8,168.7,151.3z M148.3,218.1c-1.8,0-1.8-2.7,0-2.6
		C150,215.5,149.9,218.1,148.3,218.1z M164.3,230.1c-2.3,0-2.3-3.6,0-3.4C166.5,226.8,166.6,230.1,164.3,230.1z M179.7,249
		c-1.8-0.2-1.2-3.1,0.6-2.7C182,246.6,181.4,249.2,179.7,249z M183.2,162.3c2.1-0.5,2.9,2.7,0.9,3.4
		C181.9,166.5,180.9,162.9,183.2,162.3z M188,191.7l3.8,1.2l-7.5,6.4l-3.8-1.2C184.9,194.5,185.1,194.3,188,191.7z M196.9,239.8
		c-2.2,0.5-3-2.8-0.9-3.4C198.2,235.9,199,239.3,196.9,239.8z M190.9,210l-3.8-1.1v-0.1c2.4-2.1,5.1-4.3,7.5-6.4
		c1.1,0.3,2.8,0.9,3.8,1.2C194.6,206.8,194.3,207,190.9,210z M183.8,208c-1.2-0.4-2.6-0.9-3.8-1.3c6.5-5.5,7.7-6.4,15.2-12.8
		c1.5,0.5,2.5,0.8,3.8,1.2C191.1,201.8,186.2,205.8,183.8,208z M216.1,175.3c-2,0.4-3-2.6-0.9-3.2
		C217.6,171.5,218.6,174.9,216.1,175.3z M243.3,154.8c-1.6,0.6-2.4-1.8-0.9-2.4C244.1,151.7,245,154.2,243.3,154.8z M448.9,263.4
		c-25.6,44.4-51.6,89.4-77.2,133.7c24.6,0,49.7,0.1,74.4,0.1c25.6-44.4,51.8-89.5,77.4-133.8C498.9,263.4,473.6,263.4,448.9,263.4z
		 M443.3,392.8c-21.3,0-42.7-0.1-64-0.1c23.9-41.3,48.5-83.6,72.3-124.9c21.2,0,43.1,0,64.2-0.1C492.1,309,467.2,351.5,443.3,392.8z
		 M561.4,301.7h-14.7c-2,0-4.9,0.5-6.7-0.4c-2.3-1.2-4.3-3.9-6.1-5.7c-3.1-3.1-8.2-6.6-10.2-10.6c-0.7-1.4-0.4-3.3-0.4-4.8
		c0-4.9,0.3-9.2,5.4-11.8c2.1-1,5.7-0.4,8-0.4H555v12.2l0.5,4.3l5.9,0.5V301.7 M560.7,371.5c-6.1-4.3-10.9-9.1-13.1-16.5
		c-1.2-3.9,0.3-11.6-4.8-12.8c-4.2-0.9-7.1,4.8-9.6,7.3c-1.1,1.1-2.4,2.8-4.2,2.4c-5.1-1.2,0.5-6,0.8-8.2c0.3-2.9-2.6-4.8-5.2-4h0
		c-4.3,1.4-1.6,5.1-1.2,7.8c0.5,3.2-0.4,11.1-3,13.1c-12.2,9.6-29.6,15.8-45.1,13.7c-2-0.3-3.2-2.1-5.1-2.4c-2.7-0.4-5.1,2.4-4.3,5
		c2.1,6.1,7.6-0.5,11.3,1.2c2.2,1,2.1,3.9,3.9,5.4c2.5,2.2,5.3,3.7,7.6,6.2c5.5,5.9,5.9,12.1,7.3,19.5c0.4,2.2,3.2,4.1,3,6.3
		c-0.4,3.5-4.8,3.8-5.6,6.9c-0.7,2.9,1.8,5.3,4.7,4.7c3.7-0.8,2.2-4.1,2.8-6.6c0.9-3.7,3.9-8.3,5.9-11.5c6.2-9.5,18.5-17.5,28.7-22
		c3.1-1.3,10.5,2,13.1,4c2.2,1.7,3.7,5.5,7.1,3c2.7-2,1.7-6.3-1.6-7c-1.5-0.3-3,0.8-4.5,0.3c-1.1-0.4-2.1-1.4-2.2-2.6
		c-0.1-2.3,2.4-2.8,4.1-3.2c3.3-0.8,9.7-0.6,11.3-4.2C563.8,375.2,562.6,372.9,560.7,371.5z M469.3,376.6c-0.5,0-0.9-0.4-0.9-0.9
		c0-0.5,0.4-0.9,0.9-0.9c0.5,0,0.9,0.4,0.9,0.9C470.1,376.2,469.7,376.6,469.3,376.6z M484.5,381.7c-2.1,0.9-3.7-2.2-1.5-3.1
		C485.1,377.8,486.5,380.8,484.5,381.7z M497.3,424.2c-0.9,0.3-1.4-1.1-0.5-1.4C497.8,422.5,498.2,423.9,497.3,424.2z M501.2,410.8
		c-2,0.8-3.5-2.3-1.5-3.1C501.8,406.8,503.3,410,501.2,410.8z M516.3,380.4l-3.5,1.9l0.6-9.9c1.1-0.7,2.2-1.3,3.3-1.9
		C516.7,372.7,516.6,374.2,516.3,380.4z M522.8,386.7c-1.4,0.8-2.8,1.7-4.3,2.5c0.6-9.3,0.7-9.5,1.2-20.9c1.3-0.8,2.6-1.6,3.8-2.3
		C523.4,371.9,523.5,371.7,522.8,386.7z M525.6,342.8c0.9-0.3,1.4,1.2,0.5,1.3C525.3,344.3,524.8,343.1,525.6,342.8z M528.5,383
		l-3.4,1.8c0.2-3.3,0.4-6.6,0.5-9.9l3.3-1.9C528.7,376.3,528.6,379.6,528.5,383z M541.9,348.2c-2.2,0-2.2-3.4,0-3.4
		C544.2,344.7,544.2,348.2,541.9,348.2z M553.6,390.4c0.8,0.3,0.4,1.6-0.5,1.3C552.3,391.4,552.8,390.1,553.6,390.4z M559.4,377.2
		c-2.1,0.9-3.5-2.2-1.5-3.1C560,373.2,561.4,376.3,559.4,377.2z"/>
</g>
</svg>
