<?xml version="1.0" encoding="utf-8"?>
<!-- Generator: Adobe Illustrator 25.4.1, SVG Export Plug-In . SVG Version: 6.00 Build 0)  -->
<svg version="1.1" id="WithOut_x5F_Logo_x5F_Outline"
	 xmlns="http://www.w3.org/2000/svg" xmlns:xlink="http://www.w3.org/1999/xlink" x="0px" y="0px" viewBox="0 0 864 864"
	 style="enable-background:new 0 0 864 864;" xml:space="preserve">
<style type="text/css">
	.st0{fill:#010203;}
	.st1{fill:#D02C3B;}
</style>
<path class="st0" d="M72.4,223c6.2-3.6,356.4-209,363-213C437,10.9,796,215.6,800.8,218.3c0,0,0,0,0,0.1c0,0.2,4.5,426.8,4.5,426.8
	C803,646.2,446,856.2,441.2,859c-7.7-4.4-366.8-213.9-367.3-214.9C73.7,643.9,72.4,251.9,72.4,223z"/>
<path class="st1" d="M357,416.5c-1.2,2.7-2.2,5-3.2,7.3c-3.4,7.4-6.8,14.7-10.2,22c-1.3,2.9-1.3,3-4.3,1.6c-3.2-1.4-6.3-2.9-9.5-4.4
	c-1.8-0.8-2.4-2.2-1.5-4c4.2-9.1,8.4-18.1,12.5-27.2c1-2.3,2.5-2.7,4.5-1.8c3.6,1.6,7.1,3.3,10.6,5.1
	C356.4,415.3,356.7,416,357,416.5z M291.2,500.9c-1.3,1.5-3.2,1.5-4.5,0.2c-1.3-1.3-1.2-4,0.3-5.1c1.4-1.1,3.3-0.6,4.4,1
	c0.3,0.4,0.4,1.1,0.8,1.2c0.8,0.3,1.8,0.6,2.7,0.5c0.4,0,1.1-0.8,1.1-1.3c0.1-1.9,0.1-3.7,0.1-5.6c-4.9,0-9.5,0-14.2,0
	c0,1.8,0.1,3.5,0,5.1c-0.4,9.5,2.5,9,9.2,8.9c0.2,0,0.3,0,0.5,0c2.9-0.4,4.8-3,4.3-5.9C292.6,499.4,292.6,499.4,291.2,500.9z
	 M390,402.4c6.2-9.6,12.4-19.1,18.5-28.7c0.2-0.3-0.2-1.5-0.7-1.8c-3.3-2.3-6.6-4.5-9.9-6.7c-1.7-1.1-3.2-0.8-4.4,1
	c-5.4,8.5-10.8,17-16.3,25.4c-1.3,2-1,3.2,1,4.5c3.6,2.3,7.3,4.7,11.1,7.1C389.6,402.9,389.9,402.7,390,402.4z M713.3,205.3
	c1.6,0.9,2.5,0.6,3.3-0.9c1.1-2.2,2.2-4.3,3.5-6.4c0.8-1.4,0.4-2.4-0.8-3.1c-2.4-1.3-4.8-3-7.3-4.2c-0.7-0.3-2.3-0.4-2.5,0
	c-2.3,3.8-4.5,8.4-6.3,12.3c-0.4,0.8-0.1,2.5,1.1,3.4c0.5,0.3,2.2,0.5,2.5,0.1c1.1-0.7,1.3-0.8,1.2-2.5
	C706.8,201.5,706.7,200.7,713.3,205.3z M669,310.6c3.3,0.6,6.5,1.4,9.7,2.1c6.3,1.4,12.7,2.6,19,4.1c2.7,0.6,4,0.1,4.7-2.6
	c0.8-3.3,1.5-6.7,2.2-10.1c0.6-3.1,0.5-3.1-2.7-3.7c-5.9-1.2-11.7-2.6-17.6-3.8c-4.1-0.9-8.2-1.8-12.4-2.5c-0.9-0.1-2.6,0.4-2.8,0.9
	c-1.1,4.2-1.9,8.5-2.8,12.8C666.3,309.6,667.4,310.3,669,310.6z M529.9,426.2c2.4,1.5,4.6,1.1,6-1.2c5-8.1,9.9-16.1,14.8-24.2
	c1.5-2.5,1.4-4.1-0.9-5.8c-4.5-3.2-9.1-6.1-13.9-9.2c-1.5,2.4-2.8,4.5-4.1,6.7c0.7,0.7,1.2,1.3,1.6,1.7c-0.5,2.5-2.1,1.2-3.3,1
	c-2.4,3.8-4.7,7.5-7.2,11.2c-1,1.5-1.5,2.9,0.6,4c-0.4,0.7-0.8,1.2-1.2,1.8c-0.1-0.2-0.2-0.4-0.3-0.7c-0.9,0.3-2.2,0.3-2.7,1
	c-1.2,1.5-2,3.3-3.1,5.3C520.9,420.5,525.4,423.3,529.9,426.2z M257.4,693.5c-3.3-2.1-6.8-4.2-10.1-6.2c-5-3.1-9.9-6.2-15-9.2
	c-2.4-1.5-3.6-1.1-5.1,1.4c-1.7,2.8-3.4,5.5-5.1,8.3c-1.9,3.2-1.9,3.5,1.5,5.4c0.6,0.4,1.3,0.6,1.9,1c8,4.9,15.9,9.8,23.9,14.7
	c1.4,0.9,2.3,0.7,3.1-0.7c1.9-3.3,4-6.5,6-9.8c0.4-0.7,0.7-1.5,1.1-2.6C258.9,695,258.3,694.1,257.4,693.5z M334.2,682.8
	c-1.6,0-3.3,0-4.9,0c-2.6,0-3.7,1-3.7,3.8c0,2.5,0.2,5.1,0.2,7.6c0.1,2.9,0.4,3.2,3.3,3.2c8-0.1,16-0.4,24-0.5c1.9,0,2.5-1,2.4-2.6
	c0-2.9-0.2-5.8-0.2-8.6c0-2.3-0.9-3.2-3.2-3.2c-6,0.1-11.9,0-17.9,0C334.2,682.7,334.2,682.7,334.2,682.8z M420.7,628.5
	c0.2-0.4-0.1-1.4-0.4-1.6c-4.5-2.6-9-5.2-13.6-7.6c-2.1-1.1-4.3-0.3-5.4,1.7c-1.1,2-2.2,4-3.4,6c-2.8,5.1-5.7,10.2-8.4,15.3
	c-1.7,3.1-1.2,5,1.8,6.8c1.7,1.1,3.5,2.1,5.2,3.1c2.8,1.6,5.7,3.1,8.5,4.7c2.6-3.6,2.6-3.6-1.1-5.7c-1.3-0.7-2.5-1.5-3.8-2.3
	c0.4-0.7,0.8-1.3,1.2-1.9c2.3-4.2,2.3-4.2-1.5-6.8c-0.7-0.4-1.4-0.8-2.1-1.2c1.5-2.8,3-5.6,4.6-8.4c2.2,1.2,4.1,2.2,6.1,3.3
	c1.3-2.2,2.6-4.3,3.8-6.4c2.5,1.4,4.6,2.6,7,4C419.7,630.3,420.4,629.5,420.7,628.5z M451.6,653.3c-0.1-2.5-2-4.2-4.3-4.2
	c-7.9,0-15.9-0.1-23.8,0c-2.3,0-4.6,1.7-4.7,3.6c-0.1,5.8,0,11.7,0,17.5c1.4,0,2.6,0,4,0c0-2.7,0-5.2,0-8c2,0,3.8,0.2,5.6-0.1
	c0.6-0.1,1.6-1,1.6-1.7c0.2-1.7,0.1-3.5,0.1-5.3c3.5,0,6.7,0,10.1,0c0,1.8,0,3.4,0,5c0,1.4,0.5,2.1,2.1,2c1.7-0.1,3.4,0,5.3,0
	c0,1.8,0,3.3,0,4.8c0,3.6,0,3.6,4.1,3.2C451.7,664.5,451.8,658.9,451.6,653.3z M356.7,664c-0.4,0-1.2-0.1-1.2,0.3
	c0,0.3,0,1.3-0.3,1.5c-0.3,0.3-1,0.1-1.4,0c-0.9,0.2-0.8-1.1-0.8-1.6c0.1-1.9,0-4.1,0.1-6.1c0-0.6-0.6-1.3-1.2-1.3
	c-2.7-0.1-5.9,0-8.6,0.3c-0.6,0.1-1.7,1.2-1.6,1.8c0.1,3.2,0.1,6.5,0.3,9.6c0.1,1.5,1.2,1.7,2.4,1.7c3.6,0,7.4-0.2,10.7-0.3
	c3.5-0.3,3.8-1.1,3.7-3.6c0-0.6-0.1-2.4-0.6-2.4C357.7,664,357,664,356.7,664z M497.4,777.2c-0.6-1.2-1.2-1.3-2.3-0.8
	c-2.2,1-2.4,1.6-1.2,3.7c2.2,4,4.3,7.9,6.4,11.9c1.5,2.9,4.3,3.8,7.1,2.1c3.3-1.9,6.6-3.9,10-5.5c7.3-3.3,6.9-5.5,3.4-11.4
	c-2.2-3.7-4.1-7.6-6.1-11.4c-3.6,1.9-3.6,1.9-1.9,5.4c0.2,0.4,0.2,0.9,0.5,1.1c1.9,1.9,1.6,3.3-1.2,4.4c0.9,1.7,1.6,3.2,2.4,4.7
	c0.6,1.1,0.5,1.9-0.8,2.5c-2.3,1.1-4.6,2.3-7.1,3.6c-1.2-2-2.3-4-3.4-6c-1,0.5-1.8,0.8-2.8,1.3C499.4,780.7,498.3,779,497.4,777.2z
	 M227.2,636.2c2.6-1.2,3.1-3,2-5.7c-2-4.9-4.1-9.8-6.2-14.7c-1-2.4-3.5-3.6-5.6-2.6c-5.2,2.2-10.2,4.5-15.6,6.9
	c0.6,1.3,1,2.4,1.6,3.8c2.7-1.1,5.3-2.1,7.9-3.1c0.5,2.5,1.6,3.2,3.6,1.8c0.5-0.4,1.2-0.5,1.8-0.8c1.4-0.8,2.4-0.6,3,1.1
	c0.7,1.8,1.5,3.6,2.4,5.4c0.6,1.3,0.3,1.9-1,2.4c-1.5,0.6-3,1.4-4.5,2.1c0.4,1.2,0.7,2,1,2.9c-2.7,1.3-4.9,2.4-7.3,3.5
	c0.5,1.3,0.9,2.4,1.4,3.9C217,640.8,222.2,638.7,227.2,636.2z M186.4,596.5c0.8,0.4,0.6,0.5,1.3,0.9c1.3,1.2,3.7,0.8,4.7-0.6
	c1-1.3,1-2-0.9-2.7c-1.2,0.2-1.7-0.5-2.3-1c-1.9-1.5-3.6-3.2-5.6-4.5c-1.7-1.1-1.8-2-0.7-3.5c2.1-2.8,4-5.8,6-8.7
	c0.8-1.2,1-2.1-0.6-3.2c-2-1.4-3.2-0.9-4.4,1c-1.3,2.1-2.7,4.3-4.1,6.4c-1.9,2.7-2.3,3.8-5.1,2.1c-1.3-0.8-4-1.9-5.3-2.6
	c-0.7-0.4-1.3-0.9-1.8-1.5c-2.4-2.7-3.2-2.9-4.8,0.3c-0.1,0.2-0.1,0.5,0.1,0.6c1.4,1.5,3.2,3.1,4.6,4.7c0.1-0.2,0.5-0.4,0.7-0.8
	c0.1-0.3,0.4-0.3,0.7-0.2c0.4,0.2,0.8,0.7,1.2,0.9c4.6,3,9.3,6,13.9,9.1c0.7,0.5,0.7,0.9,0.9,2.2c0.1,0.5,0.4,0.8,0.9,0.8
	C185.9,596.4,186.3,596.4,186.4,596.5z M197.6,496.3c0-4.9-0.1-9.9,0-14.8c0-2.2-0.8-3.3-2.9-3.3c-4.2,0-8.3-0.1-12.5-0.1
	c-0.5,0-1.4,1.1-1.4,1.7c-0.2,11-0.4,21.9-0.6,32.9c0,1.4,0.4,2.1,1.9,2.1c3.9-0.1,7.9,0,11.8,0c2.2,0,3.7-1,3.7-3.3
	C197.6,506.4,197.6,496.6,197.6,496.3z M144.8,417.3c-0.1-0.1-0.7-0.7-0.7-1.3c0-0.7,0.6-1.4,0.9-1.6c2.5-1.5,2.7-3.6,2.3-5.9
	c-0.3-1.6-0.8-3.2-1.1-4.8c-0.3-1.7-1.2-2.2-2.6-1.6c-1.6,0.7-2.2,0.8-4.1,1.5c-0.6,0.3-2,0.4-2.9,1.5c-0.8,0.9,0.5,2.7,1.2,3
	c2.3,0.9,3.5,2.7,3.7,4.8c0.1,1.3-0.3,3.2-0.5,4.5c-0.2,1.6,0.2,2.4,2.4,2.3c0.6,0,2.1,0.2,2.7,0.2c1.6,0.2,1.7-0.8,1.3-2.3
	C146.2,417.4,145.6,417.6,144.8,417.3z M262.9,162.4c-1.8-3.1-3.8-6.1-5.6-9.2c-1-1.9-2-2.2-3.8-1c-9,5.6-18,11.2-27,16.7
	c-1.4,0.9-1.1,1.8-0.5,2.9c2,3.2,4,6.4,6,9.5c1.9,2.9,2.4,2.9,5.5,1c7.5-4.7,15.2-9.2,22.7-13.9c1.4-0.9,2.6-2.1,3.9-3.2
	C263.6,163.8,263.3,163,262.9,162.4z M468,97.3c0,1.7,0.8,2.5,2.5,2.5c5.8,0,11.6,0,17.4,0c1.8,0,2.8-0.9,2.8-2.7c0-6,0-12.1,0-18.1
	c0-2.2-1.2-3.1-3.5-3.1c-5.3,0.1-10.6,0-16,0c-2.5,0-3.3,0.8-3.3,3.4c0,2.9,0,5.8,0,8.7C468,91.2,468,94.2,468,97.3z M480.1,87
	c0.7,0.6,0.2,2.2-1.1,2.1c-1.1,0-1.7-1.4-0.9-2.1l0,0C478.6,86.4,479.5,86.5,480.1,87z M414.6,58.7c-9.1,7.1-18.3,14.2-27.5,21.3
	c-1.4,1.1-2.8,2.3-4.2,3.4c-2.6,2-2.9,3.7-0.9,6.2c2.5,3.1,5,6.3,7.4,9.5c0.6,0.8,0.8,2,0.7,2.9c-0.1,0.5-1.2,1.4-1.7,1.4
	c-0.8,0-1.9-0.6-2.4-1.2c-1.9-2.2-3.8-4.5-5.4-6.9c-2.5-3.9-6.1-6-10.2-7.5c-1.8-0.6-2.9-1.8-2.6-3.7c0.2-1.2,1.1-2.6,2.1-3.1
	c0.8-0.4,2.4,0.1,3.2,0.8c2.3,1.7,4.2,1.3,6.4-0.6c2.9-2.6,6-5,9.2-7.3c1.6-1.2,1.4-2.2,0.3-3.7c-0.8-1.1-1.6-2.6-1.8-3.9
	c-0.3-2.1,1.4-3.5,3.2-3.5c0.8,0,2.3,1.5,3.1,2.4c2,2.5,3.1,2.7,5.6,0.6c3.3-2.7,6.6-5.3,10-8c1-0.8,1.9-1.8,2.9-2.6
	c0.7-0.5,1.7-1.2,2.4-1.1c0.6,0.1,1.2,1.3,1.4,2C415.9,56.8,416.3,57.2,414.6,58.7z M373,84.4c0-1-0.8-1.8-1.8-1.8
	c-1,0-1.8,0.8-1.8,1.8c0,1,0.8,1.8,1.8,1.8C372.2,86.2,373,85.4,373,84.4z M391.4,65.7c0-0.6-0.6-1.1-1.2-1.1s-1.2,0.5-1.2,1.1
	s0.6,1.1,1.2,1.1S391.4,66.3,391.4,65.7z M427.5,131.6c0,3.2-0.2,3.4-3.3,3.4c-6.1,0-12.1,0-18.2,0c-3.1,0-3.3-0.2-3.3-3.4
	c0-7.3,0-14.5,0-21.8c-0.1,0-0.1,0-0.2,0c0-7.6,0-15.2,0-22.8c0-1.6,0.7-2.2,2.3-2.1c6.7,0,13.4,0,20.1,0c1.5,0,2.2,0.4,2.2,2.1
	c0,3.9,0.1,7.7,0.1,11.6C427.4,109.7,427.5,120.6,427.5,131.6z M422.3,97.5c0,0.8,0.6,1.4,1.4,1.4c0.8,0,1.4-0.6,1.4-1.4
	c0-0.8-0.6-1.4-1.4-1.4C423,96.1,422.3,96.7,422.3,97.5z M425.4,121.9c0-0.8-0.6-1.4-1.4-1.4c-0.8,0-1.4,0.6-1.4,1.4
	c0,0.8,0.6,1.4,1.4,1.4C424.7,123.3,425.4,122.7,425.4,121.9z M483.3,113.8c-5.5-0.2-11-0.1-16.5-0.1c-4,0-5.4,1.5-5.3,5.6
	c0.1,6.1,0,12.2,0,18.3c0,2.4-1.1,3.3-4.4,2.6c-2.1-0.4-4.2-0.3-6.3,0c-2.2,0.4-4,0-4-2.1c0-9.6,0.3-19.2,0.3-29.1
	c23.7,0,25.9,0.1,38.8,0.1c0.1,0.5,0.1,1,0.2,1.5C486.6,112.9,485.8,113.8,483.3,113.8z M456.2,124.7c0-1-0.8-1.8-1.8-1.8
	c-1,0-1.8,0.8-1.8,1.8c0,1,0.8,1.8,1.8,1.8C455.4,126.5,456.2,125.7,456.2,124.7z M456.5,118.7c0-1-0.8-1.8-1.8-1.8
	c-1,0-1.8,0.8-1.8,1.8c0,1,0.8,1.8,1.8,1.8C455.7,120.5,456.5,119.7,456.5,118.7z M551.1,179.4c-2,1.3-4.2,2.4-6.5,3.3
	c-0.5,0.2-1.8-0.7-2.2-1.4c-3.9-7.5-7.7-15-11.5-22.6c-1-1.9-2-2.2-3.8-1.2c-5.2,2.8-10.5,5.5-15.8,8.2c-2.8,1.4-4.9,0.8-6.3-2.1
	c-3.6-7.1-7.1-14.2-10.6-21.3c-1.5-3.1-0.8-5.2,2.2-6.7c6.5-3.4,13.1-6.8,19.7-10.1c4.6-2.3,5.4-2,8.3,2.3
	c4.2,6.1,8.6,12.1,12.6,18.4c2.2,3.4,3.8,7.2,5.5,10.9c0.3,0.6,0,1.9-0.4,2.2c-1.4,0.9-1.3,1.9-0.6,3.1c1.2,2.4,2.4,4.8,3.7,7.2
	c1.6,3.1,1.6,3,4.6,1.6c0.8,1.4,1.4,2.6,2.1,3.8C553.3,176.9,552.6,178.4,551.1,179.4z M518.1,127.8c0,1.1,0.9,2,2,2
	c1.1,0,2-0.9,2-2c0-1.1-0.9-2-2-2C519,125.8,518.1,126.7,518.1,127.8z M499.9,139.3c0-1.2-1-2.2-2.2-2.2c-1.2,0-2.2,1-2.2,2.2
	c0,1.2,1,2.2,2.2,2.2C498.9,141.5,499.9,140.5,499.9,139.3z M511.3,162.2c0-1.2-1-2.3-2.2-2.3c-1.2,0-2.2,1-2.2,2.3
	c0,1.2,1,2.3,2.2,2.3C510.3,164.5,511.3,163.4,511.3,162.2z M527.5,145.6c-0.2-7.3-5.6-13.1-13.1-13.1c-7,0-13.1,5.7-12.9,12.4
	c0.2,7.5,5.3,13.2,12.9,13.3C522,158.3,527.1,153.3,527.5,145.6z M534.5,150.5c0-1.1-1-2-2.2-2c-1.2,0-2.2,0.9-2.2,2
	c0,1.1,1,2,2.2,2C533.5,152.5,534.5,151.6,534.5,150.5z M478.5,171.4c0,3.4-1.1,4.7-4.5,4.8c-5.2,0.2-10.5,0.2-15.7,0.2
	c-2.7,0-4.3-1.8-4.4-4.6c-0.1-4.9-0.2-9.9-0.2-14.8c0-4,1.6-5.6,5.6-5.6c4.3,0,8.5-0.1,12.8-0.2c5-0.1,6.3,1.2,6.3,6.1
	c0,2.1,0,4.3,0,6.4c0,0,0.1,0,0.1,0C478.5,166.2,478.6,168.8,478.5,171.4z M469.3,163.3c0-1.3-1.1-2.4-2.4-2.4
	c-1.3,0-2.4,1.1-2.4,2.4c0,1.3,1.1,2.4,2.4,2.4C468.2,165.8,469.3,164.7,469.3,163.3z M576.8,114.1c-2.8,4.9-5.6,9.8-8.4,14.6
	c-0.6,1-1.1,1.9-1.8,2.9c-0.3,0.5-1,0.7-1.5,0.4c-0.8-0.4-1.5-0.8-2.2-1.2c-1.1-0.6-1.8-1.2-1.1-2.7c0.3-0.6-0.4-2.1-1.1-2.5
	c-5.5-3.3-11.1-6.4-16.7-9.6c-7.4-4.3-14.9-8.7-22.3-12.9c-3.4-2-6.9-3.9-10.5-5.7c-0.6-0.3-2-0.5-2.2-0.2c-1.4,2.7-3,0.8-4.5,0.2
	c-0.4-0.2-0.7-0.4-1.1-0.7c-0.5-0.4-0.5-1-0.2-1.5c0.7-1.1,1.1-2-0.5-3.3c-0.4-0.3,0.3-1.2,0.9-2.3c0.3-0.5,1-0.9,1.6-0.5
	c0.5,0.3,1.2,0.1,1.6-0.4c0.2-0.4,0.4-0.7,0.6-1c2-3.5,1.9-3.5-1.6-5.4c-2.7-1.5-5.4-3-8.1-4.5c-1.7-1-2.3-2.3-1.2-4.1
	c0.6-1,1.2-2.1,1.9-3.2c0.3-0.5,1-0.7,1.6-0.4l0.7,0.4c0.5,0.3,0.7,0.9,0.5,1.5c-0.6,1.7,0.3,2.7,2.2,3.5c2.1,1.4,4.1,2.3,6,3.5
	c1.8,1.2,2.8,0.6,3.7-1.1c0.2-0.5,0.5-0.9,0.8-1.4c0.3-0.5,0.9-0.7,1.5-0.4c0.8,0.4,1.6,0.7,2.2,1.3c0.6,0.6,1.4,0.8,1.7,1.7
	c-0.4,1.7-0.1,2.9,0.5,3.3c7.2,4.2,14.5,8.3,21.8,12.5c8.9,5.1,17.7,10.3,26.5,15.4c1.7,1,2.7,2.4,3.8,0.7c0.3-0.5,1.1-1.6,1.6-1.5
	c0.6,0.1,1.5,0.9,2,1C577.7,111,577.8,112.3,576.8,114.1z M532.1,96.2c0.3-1.5-11.3-8.5-13.8-8.6c-1.4-0.1-5.1,4.5-4.1,6
	c0.9,1.5,12.7,8.9,13.8,8.5C529.7,101.4,531.5,98.8,532.1,96.2z M551,107c0.3-1.5-11.3-8.5-13.8-8.6c-1.4-0.1-5.1,4.5-4.1,6
	c0.9,1.5,12.7,8.9,13.8,8.5C548.6,112.2,550.4,109.6,551,107z M569.1,117.6c0.3-1.5-11.3-8.5-13.8-8.6c-1.4-0.1-5.1,4.5-4.1,6
	c0.9,1.5,12.7,8.9,13.8,8.5C566.7,122.8,568.5,120.2,569.1,117.6z M476.7,59.5c-2.1,2.7-4.5,5.9-7,8.9c-0.3,0.3-1.8,0-2.4-0.4
	c-3-2.3-3-2.4-5.2,0.6c-1.4,1.8-2.6,3.8-4.1,5.5c-1.5,1.6-1.1,2.7,0.4,3.8c3.1,2.3,3,2.3,0.6,5.2c-1.8,2.2-3.6,4.6-4.9,6.4
	c-2.2-0.3-4-0.3-5.7-0.5c-1.8-0.2-3.5-1.2-3.3-4.3c1-5-2.3-7.1-5.1-9.4c-4.1-3.4-8.2-6.7-12.5-9.8c-4.7-3.5-4.6-4.6-1.8-9.7
	c3.1-5.5,7.4-10.3,11.6-15.1c2.7-3.1,5.4-2.8,8.8-0.3c5.3,4,10.6,7.8,16,11.7c2.4,1.7,5,2.4,7.2,0.9c0.3-0.2,0.5-0.2,1.1-0.4
	c1.2-0.5,2.6-0.7,3.6,1.3C474.8,55.4,475.5,57.4,476.7,59.5z M455.6,57.5c0.2-7.1-5.9-13-13.2-12.9c-7.1,0.1-12.9,5.9-12.8,13
	c-0.1,7.5,6.1,13.3,13,13.1C450.7,70.5,455.4,65,455.6,57.5z M450.7,85.6c0-1.2-1.1-2.2-2.4-2.2c-1.3,0-2.4,1-2.4,2.2
	c0,1.2,1.1,2.2,2.4,2.2C449.6,87.9,450.7,86.9,450.7,85.6z M453.7,77.9l-4.7-3.5l-0.3,1.2l1.4,4.8l-3.6-2.7l-0.7,0.8l4.4,3.2h1.1
	v-0.7l-1.6-4.9l3.4,2.5L453.7,77.9z M456.7,72.8l-3.9-2.7l-2.1,2.1V74l2.6,2h1.5l1.7-1.6L456.7,72.8z M460.4,68.9l-4.2-3.1h-0.5
	l-1.9,2.5l2.4,1.8l1-0.4l0.3,2.5l0.8-0.6l-0.8-2.6l0.6-1l2,1.3L460.4,68.9z M463.3,63.5l-3.4-2.5l-2.5,2.1v2l2.8,2h1.5l1.7-2.3V63.5
	z M466.2,60.7l-3.4-4.9l-0.4,0.5l2.8,4.4l-4.3-1.6l-0.4,1l5.3,1.2L466.2,60.7z M471.3,53.5c-1.1-0.2-2.8,0.9-2.5,2.6
	c0.1,0.6,0.7,2.1,2.5,2.1c1.6,0,2.4-1.4,2.5-2C474.2,54.7,472.8,53.7,471.3,53.5z M458,63.4v1.2l3.2,1.9l1.3-1.5v-1.1l-2.7-2
	L458,63.4z M456.1,66.5l-1.3,1.5l1.3,1.2l1.3-1.4L456.1,66.5z M452.8,71.1l-1.1,0.9l-0.4,1.9l3.2,1.7l0.9-1.2l0.3-1.3l-2.3-1.7
	L452.8,71.1z M375.3,114.3c-0.6,0.9-1.3,2.3-2.3,3.1c-6.5,4.6-13.1,9.1-19.6,13.7c-3.1,2.1-4.1,2-6.4-1.1c-3.5-4.8-7-9.7-10.2-14.7
	c-1.2-1.9-2.4-2-4-0.8c-6.5,4.6-13,9.3-19.5,13.9c-2.6,1.9-3.2,1.8-5-1c-0.9-1.4-1.9-2.8-2.8-4.3c-1.1-1.7-0.8-3.2,0.9-4.3
	c1.7-1.1,3.2-3.4,5.5-0.8c0.3,0.3,1.5,0.2,2-0.2c2.6-1.6,5.2-3.4,7.7-5.2c1-0.7,2.2-1.5,1-3.2c-0.3-0.4,0.1-1.9,0.7-2.3
	c8.4-6.6,18-11,27.4-15.9c1.5-0.8,3-1.6,4.5-2.4c1.9-1,3.5-0.3,4.7,1.3c4.9,7,9.8,14.1,14.7,21.2C374.9,112,374.9,112.9,375.3,114.3
	z M354.6,92.4c0,1.3,1.1,2.3,2.5,2.3c1.4,0,2.5-1,2.5-2.3s-1.1-2.3-2.5-2.3C355.7,90.1,354.6,91.2,354.6,92.4z M338.7,106.8
	c0-1.4-1.2-2.5-2.7-2.5c-1.5,0-2.7,1.1-2.7,2.5c0,1.4,1.2,2.5,2.7,2.5C337.5,109.3,338.7,108.2,338.7,106.8z M353.2,127.9
	c0-1.3-1.1-2.4-2.5-2.4c-1.4,0-2.5,1.1-2.5,2.4c0,1.3,1.1,2.4,2.5,2.4C352.1,130.3,353.2,129.2,353.2,127.9z M366.6,110
	c-0.1-5.9-5-11.9-12.5-12.2c-8.1-0.3-13.7,6.4-13.7,13c0,6.8,6,12.6,13,12.6C360.5,123.4,366.7,117.2,366.6,110z M373.9,113
	c0-1.3-1.1-2.4-2.4-2.4c-1.3,0-2.4,1.1-2.4,2.4c0,1.3,1.1,2.4,2.4,2.4C372.8,115.4,373.9,114.4,373.9,113z M313.3,148.4
	c0,4.8-1.7,9.1-4.6,12.9c-1.4,1.8-3.1,2.3-5.2,1.8c-8-1.7-16-3.3-24-5c-1.5-0.3-3-0.5-4.5-0.9c-2.4-0.5-3.4-2.1-2.9-4.5
	c1.1-5.5,2.3-10.9,3.3-16.4c0.8-3.9,1.4-4.5,5.3-3.8c8.9,1.7,17.8,3.5,26.7,5.3c3.9,0.8,5.5,3,5.9,7.9
	C313.4,146.8,313.3,147.6,313.3,148.4z M285,146c0-1.2-1-2.2-2.2-2.2s-2.2,1-2.2,2.2c0,1.2,1,2.2,2.2,2.2S285,147.2,285,146z
	 M298.8,139.9l-3-0.6c-1.1-0.2-2.1,0.5-2.3,1.5l-3.1,12.8c-0.3,1.2,0.4,2.4,1.6,2.6l3.1,0.7c1.3,0.3,2.5-0.5,2.8-1.8l2.6-12.9
	C300.7,141.2,300,140.1,298.8,139.9z M311.6,150.6c0-2.2-2.1-4-4.6-4c-2.5,0-4.6,1.8-4.6,4c0,2.2,2.1,4,4.6,4
	C309.5,154.6,311.6,152.8,311.6,150.6z M398.1,160.4c-4.9,2.6-9.7,5.3-14.6,8c-3.4,1.9-5.9,1.2-7.6-2.3c-0.3-0.7-0.9-1.2-1.4-1.9
	c-0.2,0.1-0.3,0.2-0.5,0.3c0.7,1.4,1.3,2.9,2.1,4.3c1.1,2,0.4,3.3-1.3,4.3c-2.3,1.3-4.7,2.7-7.1,3.9c-3.1,1.6-5.7,0.7-7.3-2.4
	c-4.7-8.8-9.5-17.5-14.2-26.3c-1.6-3-2.2-5.6,2.2-7.8c2.3-1.1,4.5-2.6,6.9-3.7c2.3-1.1,3.4-0.6,4.6,1.8c0.5,1,1,2,1.6,3
	c0.2,0.4,0.5,0.7,0.8,1.1c0.2-0.1,0.4-0.2,0.6-0.3c-0.6-1.2-1.1-2.5-1.7-3.7c-1.3-2.4-1.1-4.3,1.2-5.7c6-3.4,12-6.7,18.1-9.9
	c2.3-1.2,4,0.1,5.1,1.9c2.6,4.5,5,9,7.4,13.6c2.5,4.6,5,9.2,7.5,13.8C402.6,156.2,401.9,158.4,398.1,160.4z M368.4,168.9
	c-0.3-0.8-0.5-1.5-0.9-2.1c-3.6-6.7-7.3-13.3-10.9-20c-1.5-2.7-1.7-2.8-4-0.7c4.4,8.1,8.8,16.1,13.2,24.3
	C366.9,169.8,367.6,169.4,368.4,168.9z M379.7,160.4l-11.2-20.9l-1.5,1v0.9l1.1-0.6l11.6,20.9V160.4z M393.4,153.1
	c-1.5-2.5-2.8-5.2-4.2-7.7c-2.5-4.5-5-9-7.4-13.5c-0.8-1.4-1.5-1.4-2.7-0.7c-2.2,1.3-4.5,2.6-6.8,3.7c-1.3,0.6-1.4,1.3-0.7,2.5
	c2.8,5.2,5.6,10.4,8.4,15.5c1.4,2.5,2.7,5,4.1,7.5c3.1-1.7,5.8-3.1,8.5-4.6C393.8,155.2,394.2,154.4,393.4,153.1z M418.5,155.4v39.7
	c0,2-1.4,3.7-3.4,4c-5.6,1.1-9.8,5.3-14.8,7.9c-5,2.6-10,4.7-15.7,4.7c-8.5-0.1-17-0.1-25.6,0c-9.3,0-18.5,0-27.8,0.3
	c-6,0.2-11.2-2-16.2-4.7c-5.2-2.9-10.3-5.9-15.3-9c-4.7-2.8-7.3-7-6.8-12.5c0.4-5.4,3.5-9.2,8.6-10.9c4.5-1.5,8.6,0.2,12.5,2.5
	c4.9,2.9,9.7,6.2,14.9,8.4c2.8,1.2,6.4,0.7,9.7,0.7c4.8,0,9.7-0.2,14.5-0.2c9.3,0,18.5-0.2,27.8,0.1c3.7,0.1,6.7-1.2,9.6-2.9
	c6.2-3.6,12.4-7.4,18.6-11c2-1.1,2.9-2.5,2.8-4.8c-0.1-2.9-0.1-5.8-0.1-8.7c0-3.4,0.3-3.7,3.6-3.8
	C416.3,155.4,417.3,155.4,418.5,155.4z M306.5,181.9h-10v10.1h10V181.9z M323.6,204c1.2-4.2,2.2-8.6,3.4-13.4
	c-0.5-0.7-0.9-1.8-1.7-2.4l-4.9-2.8c-1.7-1-2.6-0.4-2.7,1.3c-0.1,5-2.3,8.7-6.4,11.4c-1.2,0.8-1.3,1.9,0.1,2.7
	c2.7,1.6,5.4,3.1,8.1,4.6C321.5,206.5,323,206.1,323.6,204z M356.2,203.9l0-11.4l-2-2.1h-20.6c-3.8,0-3.8,1.7-4.2,4.2
	c-0.6,3.4-1.3,6.6-2.3,9.8c-0.8,2.5-0.3,3.5,2.3,3.6c3.8,0,7.7,0,11.5,0c3.8,0,7.5,0,11.3,0C355.2,207.9,356.2,206.8,356.2,203.9z
	 M389.1,205.1l-3.8-13.7l-2-1l-22.2,0.4l-1.1,1.7V206l2.4,1.9l26.1-0.5L389.1,205.1z M412.1,190.4L412,182c0.5-5.8-1.1-6.3-3.5-5.3
	l-18.9,11.7c-2.1,1.3-1.1,3.9,0.2,6l2.3,9.8c1.3,2.1,4.8,0,6.9-1.3l11.1-6.4C412.2,195.3,412.3,193.1,412.1,190.4z M216.6,192.2
	c-4.4,2.7-8.7,5.4-13.1,8.1c-3.4,2-4.5,1.6-6.4-1.7c-2.7-4.7-5.6-9.2-8.4-13.8c-0.3-0.5-0.5-1-0.9-1.7c0.6-0.7,1-1.5,1.7-2
	c5-3.2,10.1-6.3,15.1-9.4c2-1.2,3.2,0.1,4,1.5c3,4.8,5.9,9.8,8.9,14.6C218.6,189.5,218.4,191.1,216.6,192.2z M205.4,186.3
	c0-1.4-1.1-2.5-2.4-2.5c-1.3,0-2.4,1.1-2.4,2.5c0,1.4,1.1,2.5,2.4,2.5C204.4,188.8,205.4,187.7,205.4,186.3z M192.3,225.4
	c-5.3,3.7-10.6,7.3-16,10.8c-2,1.4-4.4,0.8-5.8-1.3c-0.7-0.9-1.4-1.8-2-2.7c-0.2,0.1-0.4,0.3-0.7,0.4c0.8,1.3,1.5,2.5,2.3,3.8
	c1.3,1.9,1,3.5-1,4.8c-2.3,1.5-4.4,3.1-6.6,4.6c-2.8,1.9-5.1,1.3-7-1.5c-5.5-8.2-10.9-16.5-16.5-24.6c-3-4.3-3-5.4,1.2-8.6
	c1.9-1.4,3.8-2.7,5.8-4.1c2.1-1.4,3.5-1.2,5,0.8c0.6,0.8,1.1,1.9,1.7,2.7c0.5,0.6,1.2,1,1.8,1.4c0.1-0.2,0.2-0.4,0.3-0.6
	c-0.8-1.1-1.6-2.2-2.4-3.4c-1.4-2.1-1.2-4.3,0.9-5.8c5.4-3.9,10.9-7.7,16.5-11.5c2-1.3,4.5-0.6,6,1.6c3.3,4.8,6.5,9.6,9.8,14.5
	c2.7,4.1,5.5,8.1,8.1,12.3C195.2,222,194.8,223.7,192.3,225.4z M162.7,237.5c-5.2-7.7-10.3-15.4-15.6-23.1c-1,0.8-1.7,1.5-2.5,2.1
	c4.7,7,9.5,13.8,13.9,20.9C160,239.5,161,239.3,162.7,237.5z M173,228.7l-13.8-20.4l-1.5,0.8l0.4,0.6l1-0.6l12.5,18.9l-0.1,1.2
	L173,228.7z M185.9,219.5c-4.6-6.7-9-13.4-13.7-20.1c-0.3-0.5-1.7-0.9-2.1-0.6c-2.8,1.7-5.4,3.6-8.4,5.7
	c5.3,7.9,10.5,15.6,15.6,23.3c2.9-1.9,5.5-3.8,8.2-5.5C186.7,221.4,186.6,220.6,185.9,219.5z M227.6,215.6c-0.1,0-0.2,0-0.2,0
	c0,3.4,0,6.8,0,10.1c0,2.6-0.8,3.2-3.3,3c-0.8,0-1.6-0.1-2.5,0c-1.5,0.1-2.4-0.4-2.4-2.1c0-2.4-1.3-3.6-3.6-3.9
	c-2-0.2-3.9,1.5-4.1,3.7c-0.2,1.8-1,2.4-2.7,2.2c-0.7-0.1-1.5,0-2.2,0c-2.3,0.1-3.3-1.2-3.3-3.3c-0.1-3.1,0-6.1,0.1-9.2
	c0-0.9,0.5-2.1,1.1-2.6c4.4-3.3,8.8-6.5,14.8-5.6c1.9,0.3,3.9,0.3,5.9,0.2c1.7-0.1,2.4,0.6,2.4,2.3
	C227.6,212.3,227.6,213.9,227.6,215.6z M209.9,224.2c0-1.2-1-2.1-2.3-2.1c-1.3,0-2.3,1-2.3,2.1c0,1.2,1,2.1,2.3,2.1
	C208.9,226.4,209.9,225.4,209.9,224.2z M225.1,224c0-1.2-1-2.1-2.2-2.1c-1.2,0-2.2,1-2.2,2.1c0,1.2,1,2.1,2.2,2.1
	C224.1,226.2,225.1,225.2,225.1,224z M143,240.1c-1.9,2.9-4.9,2.4-7.4,3c-6.8,1.5-12,5.2-15.7,11.1c-2.5,4.1-6.7,6.1-10.5,8.6
	c-0.5,0.3-1.6-0.3-2.4-0.5c0.2-0.6,0.4-1.3,0.7-1.9c0.4-0.7,0.9-1.2,1.3-1.8c-0.1-0.2-0.5-0.7-0.6-0.9c-0.8-0.3-1.4,0-1.9,0.3
	c-2,1.3-2.3,0.4-2.7-1.3c0-0.1,0-0.3,0-0.3c1.3-4.8-1.9-8-4.2-11.4c-0.8-1.2-2.4-3-5.8-2.8c-1.1-0.7-1.1-1.3-1.7-2.2
	c0.6-1.1,2.5-2,2.5-2.2c0-0.2,0.1-1.1-0.3-1.6c-0.9,0.5-1.8,0.9-2.9,1.5c-0.6-0.5-1.3-1-2.2-1.8c4.7-2.5,8-6.6,13.7-7
	c6.9-0.5,12.3-4.4,16.4-10c1.1-1.5,1.7-3.5,3-4.9c1.7-1.8,2.6-1.5,4,0.6c0.4,0.6,0.8,1.2,1.3,1.8c1.1,1.5,2,2.8-0.4,4.2
	c-0.7,0.4-1,2.5-0.6,3.4c2,3.5,4.3,6.8,6.5,10.1c0.8,1.2,2.5,1.5,3.7,0.7c1.7-1.1,2.8-0.5,3.7,1.1
	C141.2,237.3,142.1,238.7,143,240.1z M101.6,236c0-1.2-0.9-2.1-2.1-2.1c-1.2,0-2.1,0.9-2.1,2.1s0.9,2.1,2.1,2.1
	C100.7,238.1,101.6,237.2,101.6,236z M122.3,217.1c0,0.9,0.7,1.6,1.6,1.6c0.9,0,1.6-0.7,1.6-1.6c0-0.9-0.7-1.6-1.6-1.6
	C123,215.5,122.3,216.2,122.3,217.1z M113.4,253.3c0-1.3-1-2.3-2.3-2.3c-1.3,0-2.3,1-2.3,2.3c0,1.3,1,2.3,2.3,2.3
	C112.4,255.6,113.4,254.6,113.4,253.3z M131.7,234.9c-2.2-3.3-4.5-6.6-6.6-10c-1-1.5-2.2-1.5-3.3-0.8c-4.9,3.1-9.6,6.3-14.6,9.5
	c3.3,5,6.4,9.8,9.7,14.8c4.9-3.3,9.5-6.4,14.1-9.4C132.8,237.9,132.8,236.5,131.7,234.9z M139.4,238.9c0-0.8-0.7-1.5-1.5-1.5
	s-1.5,0.7-1.5,1.5c0,0.8,0.7,1.5,1.5,1.5S139.4,239.7,139.4,238.9z M291.2,219.4c-3.7,6.5-7.3,13-11,19.4
	c-4.6,8.1-9.2,16.1-13.7,24.1c-4.7,8.2-9.4,16.3-14,24.5c-1.6,2.8-3.2,5.7-4.8,8.6c-1.5,2.7-4,3.6-6.7,2.1
	c-9.1-5.2-18.2-10.4-27.3-15.7c-1.8-1.1-3.7-2.3-5.2-3.8c-0.7-0.7-0.9-2.7-0.4-3.6c6.4-11.5,12.9-22.9,19.2-34
	c1,0.6,1.3,1.2,2.2,1.3c0.3,0,2-1.7,1.8-2.1c-0.3-0.9-1.3-1.3-2.1-2.4c0.8-1.4,1.9-3.3,2.8-5c1,0.4,1.6,1.3,2.3,1.2
	c0.4,0,1.7-1.8,1.6-2.2c-0.3-0.9-1.3-1.3-2.1-2.3c3.1-5.5,6.5-11.4,9.8-17.3c2.6-4.6,5.4-9.2,7.9-13.9c2.3-4.4,4.3-5,8.7-2.4
	c8.6,4.9,17.2,9.6,25.7,14.5c1.9,1.1,3.7,2.3,5.2,3.9C292.5,215.8,292.2,217.7,291.2,219.4z M217.9,272c0-0.8-0.8-1.5-1.7-1.5
	c-0.9,0-1.7,0.7-1.7,1.5c0,0.8,0.8,1.5,1.7,1.5C217.2,273.6,217.9,272.9,217.9,272z M247.2,288.8c0-0.9-0.7-1.7-1.6-1.7
	c-0.9,0-1.6,0.7-1.6,1.7c0,0.9,0.7,1.7,1.6,1.7C246.4,290.5,247.2,289.7,247.2,288.8z M252.9,204.5c0,0.7,0.6,1.3,1.4,1.3
	s1.4-0.6,1.4-1.3c0-0.7-0.6-1.3-1.4-1.3S252.9,203.8,252.9,204.5z M275.9,227.9l-7.9-4.6c-0.4-0.2-1-0.1-1.2,0.3l-18.2,31.8
	c-0.2,0.4-0.1,1,0.3,1.2l7.9,4.6c0.4,0.2,1,0.1,1.2-0.3l18.2-31.8C276.5,228.6,276.3,228.1,275.9,227.9z M285.1,221.2
	c0-0.8-0.6-1.5-1.3-1.5c-0.7,0-1.3,0.7-1.3,1.5c0,0.8,0.6,1.5,1.3,1.5C284.6,222.6,285.1,222,285.1,221.2z M196.3,292.5
	c-4.9,1.8-9.7,3.8-14.5,5.7c-2.1,0.8-3.7,0.2-4.5-1.9c-2.6-6.4-5-12.8-7.6-19.2c-1.5-3.7-1.7-7.4-1.6-11.4c0-2.4,1.1-3.2,3-3.9
	c4.1-1.5,8.1-3.2,12.3-4.8c5.6,4,8.7,9.5,10.8,15.8c1.5,4.5,3.4,8.9,5.2,13.3C200.7,289.5,199.9,291.2,196.3,292.5z M174.9,273.9
	c0-1.4-1.2-2.6-2.6-2.6c-1.4,0-2.6,1.2-2.6,2.6c0,1.4,1.2,2.6,2.6,2.6C173.7,276.5,174.9,275.3,174.9,273.9z M180.6,289.3
	c0-1.2-1-2.2-2.2-2.2c-1.2,0-2.2,1-2.2,2.2c0,1.2,1,2.2,2.2,2.2C179.7,291.5,180.6,290.5,180.6,289.3z M189.9,268c0-1.1-0.9-2-2-2
	s-2,0.9-2,2c0,1.1,0.9,2,2,2S189.9,269.1,189.9,268z M196.2,283.2c0-1.3-1.1-2.4-2.4-2.4s-2.4,1.1-2.4,2.4s1.1,2.4,2.4,2.4
	S196.2,284.6,196.2,283.2z M152.5,379.9c0,4-1.4,5.4-5.2,5.4c-2.9,0-5.7,0-8.6,0c-2.3,0-4.1-0.6-5-3.1c-0.3-0.8-1.7-1.6-2.6-1.6
	c-4.6-0.1-9.2,0-13.7,0.2c-0.8,0-1.8,0.8-2.1,1.5c-1.2,2.5-3,3.5-5.6,3.4c-2.7,0-5.4,0-8.1,0c-3.6-0.1-5.2-1.7-5.2-5.3
	c0-13.3,0-26.6,0-40.2c1.3,0,2.7,0,4.2,0c0-5.7,0-11.2,0-16.9c-1.5-0.1-2.9-0.2-4.5-0.3c0-1,0-1.9,0-2.8c0-12.2,0-24.5,0-36.7
	c0-4.9,0.9-5.8,5.7-5.8c2.6,0,5.2,0,7.9,0c3.4,0,4.5,0.8,5.7,4.2c5.5,0,10.8,0.1,16.1-0.1c0.7,0,1.8-0.8,2.1-1.5
	c1-2.2,2.6-3,4.9-2.9c3,0.1,6.1,0,9.1,0c3.4,0.1,4.9,1.6,5,5c0,0.2,0,0.5,0,0.7c0.1,22.6,0.1,45.3,0.2,67.9
	C152.4,361,152.5,370.4,152.5,379.9z M140,281.3c0,1.2,0.7,2.2,1.6,2.2s1.6-1,1.6-2.2s-0.7-2.2-1.6-2.2S140,280.1,140,281.3z
	 M132.2,293.1l3.9,7.3l10,0.7l2-2.6v-8.3l-1-1h-12.9l-2,1.4V293.1z M146.3,303.9l-9.6,0.5l-4.6,8.9l4.6,8.2l9.7,0.3l1.6-2.7v-13
	L146.3,303.9z M118.7,293.9l-4.5,7.8v2.3l5.2,7.4h9.5l4.5-8l-0.3-2.3l-4.3-7.2H118.7z M117.2,336.5c0,0.8,0.5,1.4,1.2,1.4
	c0.7,0,1.2-0.6,1.2-1.4s-0.5-1.4-1.2-1.4C117.8,335,117.2,335.7,117.2,336.5z M118.4,328.2c0.6,0,1.1-0.7,1.1-1.5
	c0-0.8-0.5-1.5-1.1-1.5s-1.1,0.7-1.1,1.5C117.2,327.5,117.7,328.2,118.4,328.2z M116.9,341.2h-0.3l-1.2,1.6v1l3.8,5.3l9.2-0.2
	l3.7-5.4v-2.1L116.9,341.2z M132.2,320l-3.6-5.4h-9.2l-3.4,5.1v2H131L132.2,320z M104.6,281.8c0,1.1,0.5,2.1,1.1,2.1
	c0.6,0,1.1-0.9,1.1-2.1c0-1.1-0.5-2.1-1.1-2.1C105.2,279.7,104.6,280.6,104.6,281.8z M99.6,299l1.2,2.1h9.7l5-7.8v-2l-1.3-1.4h-13.4
	l-1.2,1.4V299z M101.6,322.1l9.7-0.7l3.9-7.4v-2.5l-4.4-7.1h-9.6l-1.7,2.7v12.5L101.6,322.1z M99.9,356.7l1.8,2.6h8.7l5.1-7.7v-2.8
	l-4.5-7.3l-9.2,0.2l-1.8,2.3V356.7z M107.3,381.6c0-1.3-0.6-2.4-1.4-2.4c-0.8,0-1.4,1.1-1.4,2.4c0,1.3,0.6,2.4,1.4,2.4
	C106.7,384,107.3,382.9,107.3,381.6z M116,369.7l-5.6-7.7H102l-2.3,3v7.8l1.2,1.3h13l1.6-2.1L116,369.7z M133.7,361.4v-2.2l-4.8-7.5
	h-9.4l-5.1,8.1v2.1l5.4,7.8h8.4L133.7,361.4z M143.4,381.5c0-1.3-0.7-2.3-1.5-2.3s-1.5,1-1.5,2.3c0,1.3,0.7,2.3,1.5,2.3
	S143.4,382.8,143.4,381.5z M148.4,364.8l-1.6-2.8h-9.7l-5,8.2l0.1,1.9l1.5,2.1h12.9l1.5-1.6L148.4,364.8z M148.4,343.6l-1.7-2.4h-9
	l-5.6,8.5v1.3l4.7,7.9h9.9l1.5-2.1L148.4,343.6z M229.3,321.9c-6,10.9-12,21.9-17.9,32.8c-0.4,0.7-0.8,1.6-0.3,2.6
	c0.4,0.8-0.3,2-0.9,2.6c-0.4,0.4-1.7,0.3-2.3-0.1c-7.3-3.9-14.7-7.8-21.8-12.1c-2.9-1.7-5.1-4.5-7.6-6.8c-2.3-2.2-4.5-4.5-6.9-6.6
	c-1.7-1.6-2.4-3.2-1.2-5.4c0.7-1.2,1.1-2.7,2.1-3.6c0.7-0.7,2.4-1.3,3.1-1c1.6,0.8,1,1.1,4,3.5c1,0.8,3.5,2.4,5.1,1.3
	c0.7,0.3,1.4,0.8,1.9,1.2c0.4,0.3,1,0.6,0.9,1.1c-0.2,0.8,0.4,0.9,0.6,1c2.5,1.4,4.9,2.8,7.7,4.3c1.5-2.7,2.9-4.9,4-7.2
	c0.8-1.9,1.9-1.8,3.3-1c1.2,0.6,2.4,1.4,3.8,2.2c3.6-6.7,7.2-13.2,10.9-19.9c-1.7-0.9-3.4-1.8-5-2.7c-1.3-0.7-1.9-1.6-1-3.1
	c0.9-1.5,1.5-3.3,2.4-4.8c0.5-0.7,1.5-1,2.3-0.7c2.3,1.1,4.5,2.3,6.6,3.6c0.9,0.6,2.2,1.1,1.2,2.6c-0.8,1.1-1.2,2.3,0.3,2.7
	c0.8,0.2,1.9-0.8,2.7-1.3c0.3-0.2,0.4-0.7,0.6-1c1.9,0.4,2.4,1.2,1.3,2.9c-1.2,1.9-2.2,3.8-3.3,5.8c-0.8,1.4-0.9,2.5,1.3,2.8
	C230.3,318,230.7,319.2,229.3,321.9z M176,329.2c0-1.2-1-2.2-2.2-2.2c-1.2,0-2.2,1-2.2,2.2c0,1.2,1,2.2,2.2,2.2
	C175.1,331.3,176,330.4,176,329.2z M185.3,334.9c0-1.3-1-2.3-2.3-2.3c-1.3,0-2.3,1-2.3,2.3c0,1.3,1,2.3,2.3,2.3
	C184.2,337.2,185.3,336.1,185.3,334.9z M195.5,347.2c0-1.1-0.9-2-2-2c-1.1,0-2,0.9-2,2c0,1.1,0.9,2,2,2
	C194.6,349.3,195.5,348.4,195.5,347.2z M210.3,338.9L208,337c-1.2-0.9-2.9-0.7-3.8,0.4l-1.6,2c-0.8,1-0.6,2.6,0.4,3.4l3.3,2.3
	c1,0.7,2.4,0.5,3.2-0.5l1.4-1.8C211.7,341.6,211.5,339.8,210.3,338.9z M221.3,304.6c0-1.2-1-2.2-2.2-2.2c-1.2,0-2.2,1-2.2,2.2
	c0,1.2,1,2.2,2.2,2.2C220.3,306.8,221.3,305.8,221.3,304.6z M203.3,370.1c-2.8,5.6-5.8,11-8.4,16.7c-2.2,4.7-5.3,8.4-9.4,11.4
	c-1,0.8-1.7,1.1-3,0.3c-3.9-2.2-8-4-11.8-6.3c-1-0.6-1.2-2.5-1.7-3.8c0-0.3,0-0.1-0.1-0.4c-0.8-6.2,3.4-10.7,5.8-15.7
	c2.2-4.5,4.6-8.8,6.9-13.3c1.3-2.5,3.3-3.3,5.8-1.9c4.7,2.5,9.3,5,14,7.4C204.1,365.9,204.7,367.4,203.3,370.1z M176.7,381.7
	c0-1.1-1-2-2.2-2c-1.2,0-2.2,0.9-2.2,2c0,1.1,1,2,2.2,2C175.7,383.7,176.7,382.8,176.7,381.7z M184,366.3c0-1.1-1-2-2.2-2
	c-1.2,0-2.2,0.9-2.2,2s1,2,2.2,2C183,368.3,184,367.4,184,366.3z M191.2,389c0-1.3-0.9-2.4-2-2.4s-2,1.1-2,2.4c0,1.3,0.9,2.4,2,2.4
	S191.2,390.3,191.2,389z M199.1,374.2c0-1.2-1-2.2-2.2-2.2c-1.2,0-2.2,1-2.2,2.2c0,1.2,1,2.2,2.2,2.2
	C198.1,376.4,199.1,375.4,199.1,374.2z M125.1,416.1c-0.1,2-1,3.2-3.2,3.2c-5.3,0-10.6,0.2-15.9,0.2c-3.2,0-4.4-1.3-4.5-4.5
	c0-3.8,0-7.6,0-11.4c0-2.5,1.4-4.1,3.8-4.1c5.4-0.1,10.8,0,16.2,0c2.3,0,3.5,1.2,3.5,3.5c0,2.2,0,4.5,0,6.7c0,0,0,0,0,0
	C125.1,411.8,125.1,413.9,125.1,416.1z M115.4,406.3c0-0.7-0.6-1.3-1.3-1.3h-2.7c-0.7,0-1.3,0.6-1.3,1.3v6c0,0.7,0.6,1.3,1.3,1.3
	h2.7c0.7,0,1.3-0.6,1.3-1.3V406.3z M183.2,411.8c-0.6,0.3-1.2,0.7-1.8,0.7c-1.3,0-2.6-0.1-3.9-0.2c-2.7-0.2-4.4,1.2-5.3,3.6
	c-1.2,3.3-2.3,6.7-3.3,10c-0.3,1-0.5,2.4,1.3,2.6c0.4,0.1,1,0.9,1,1.3c0,1.2-0.4,2.3-0.7,4.3c-1.3-1.3-2.3-2.1-3-3.1
	c-1.5-2.1-5.1-3.4-7.7-3c-0.8,0.1-1.7-0.4-2.5-0.6c0.5-0.6,0.8-1.5,1.5-1.9c3.2-1.9,6.9-3.3,8.6-6.9c1.3-2.7,1.9-5.8,3.2-8.5
	c0.8-1.7,2.1-3.3,3.6-4.4c1.8-1.2,4.6,0.1,5.3,2.3c0.4,1.2,0.8,2,2.2,2.1C182.2,410.3,182.7,411.3,183.2,411.8z M177.4,408.6
	c0-0.9-0.7-1.6-1.6-1.6h-0.3c-0.9,0-1.6,0.7-1.6,1.6v0.3c0,0.9,0.7,1.6,1.6,1.6h0.3c0.9,0,1.6-0.7,1.6-1.6V408.6z M452.6,206.2
	c0,2.8-1.5,4.3-4.2,4.3c-2.7,0.1-5.4,0-8.1,0c0,0.1,0,0.1,0,0.2c-2.5,0-5.1,0-7.6,0c-2.3,0.1-4.5-1.2-4.6-3.5
	c-0.3-5.9-0.3-11.9-0.2-17.8c0.1-2.3,2.2-3.9,4.9-3.9c5.1-0.1,10.2-0.1,15.2,0c2.7,0,4.5,2,4.5,4.8
	C452.6,195.7,452.6,201,452.6,206.2z M443,198.3c0-1.3-1-2.4-2.3-2.4c-1.3,0-2.3,1.1-2.3,2.4c0,1.3,1,2.4,2.3,2.4
	C442,200.6,443,199.6,443,198.3z M512.8,189c0,0.6-0.9,1.5-1.5,1.6c-4,0.3-8.1,0.4-12.1,0.6c-1.2,0.1-1.9-0.3-1.9-1.6
	c0-2.4,0-4.7,0-7.2c5.2,0,10.2,0,15.3,0C512.6,184.8,512.8,186.9,512.8,189z M506.5,186.8c0-0.9-0.5-1.4-1.7-1.4c-1.1,0-2,0.5-2,1.4
	c0,0.9,0.7,1.8,1.8,1.8C505.7,188.6,506.5,187.6,506.5,186.8z M528.4,205.4c0,1.5-0.7,2.3-2.2,2.3c-6-0.1-12-0.3-18.1-0.5
	c-0.5,0-1.2-0.2-1.4-1.3c0-0.1-0.3-1-0.3-1.1c-0.4-6.5-0.4-6.3,6.6-6.3c4,0,8,0,12,0c0.7,0,1.3,0.1,2,0.1c0.7,0.1,1.3,0.7,1.3,1.4
	C528.4,202.1,528.4,203.8,528.4,205.4z M519,203.5c0-0.7-0.8-1.3-1.7-1.3c-0.9,0-1.7,0.6-1.7,1.3s0.8,1.3,1.7,1.3
	C518.2,204.8,519,204.2,519,203.5z M550.9,206.6c-0.2,2.4-1.4,3.6-3.8,3.6c-3.1,0.1-6.2,0-9.3,0c-2.4,0-3.4-1.4-3.4-3.6
	c-0.1-3.2-0.1-6.4,0-9.6c0-2.2,1.4-3.5,3.9-3.6c3-0.1,6.1-0.1,9.1,0c2.1,0.1,3.5,1.2,3.5,3.6c0,1.6,0,3.1,0,4.7c0,0,0.1,0,0.1,0
	C550.9,203.3,551,205,550.9,206.6z M545.1,201.8c0-1.2-0.9-2.1-2.1-2.1s-2.1,0.9-2.1,2.1s0.9,2.1,2.1,2.1S545.1,203,545.1,201.8z
	 M629.2,149.1c-3.8,6.5-7.6,13.1-11.4,19.7c-1.4,2.4-2.7,4.8-4.1,7.2c-1.7,3-3.7,3.5-6.7,1.8c-5.5-3.1-13.6-7.9-19-11.1
	c-1.1-0.7,2.3-4.3,3-6.7c0.1-0.5-0.5-1-0.9-0.7c-2.1,1.7-3.3,6.7-5.4,5.6c-3.7-2.2-9-5.3-12.4-7.7c-4.6-3.1-7.2-4.3-5.3-7.6
	c5.2-9.1,10.4-18.2,15.7-27.3c2.7-4.6,6.8-3.8,14.6,1.4c3.2,2.2,6,3.1,8.8,5.4c1.2,1-2.4,6.2-3.1,8.1c-0.1,0.3,0.4,0.4,0.6,0.6
	c1.5-1.9,3.8-7.7,5.3-6.9c5.4,2.9,12.9,7.6,18.2,10.6C630.1,143.3,630.9,146.3,629.2,149.1z M596.5,130.7l-7.2-4.2
	c-0.7-0.4-1.7-0.2-2.1,0.6l-12.7,22.2c-0.4,0.7-0.2,1.7,0.6,2.1l7.2,4.2c0.7,0.4,1.7,0.2,2.1-0.6l12.7-22.2
	C597.5,132.1,597.2,131.2,596.5,130.7z M621.4,146.1l-7.4-4.3c-0.7-0.4-1.5-0.2-1.9,0.5l-12.2,21.3c-0.4,0.7-0.2,1.6,0.5,1.9
	l7.4,4.3c0.7,0.4,1.5,0.2,1.9-0.5l12.2-21.3C622.3,147.4,622.1,146.5,621.4,146.1z M630,194.3c-0.1,1.2-0.4,2.6-1.1,3.4
	c-2.8,3.1-5.7,6-8.8,8.9c-0.8,0.7-2.2,1.1-3.3,1.1c-9.1,0.1-18.2,0-27.3,0c-8.9,0-17.8,0-26.8,0c-4.2,0-5.2-1-5.2-5.3
	c0-5.1,0-10.2,0-15.3c0-3.5,1.1-4.7,4.5-4.6c6.9,0.1,13.7,0.1,20.6,0.3c1.8,0.1,3.6,0.9,5.4,1.4c7.7,1.9,15.5,1.8,23.3,1.8
	c5.3,0,10.6,0.1,16,0c2.1,0,2.8,0.8,2.7,2.8C630,190.5,630.2,192.4,630,194.3z M572.3,192.2c0-0.9-0.8-1.7-1.7-1.7h-1.4
	c-0.9,0-1.7,0.8-1.7,1.7v5.5c0,0.9,0.8,1.7,1.7,1.7h1.4c0.9,0,1.7-0.8,1.7-1.7V192.2z M615.1,192.7l-20-1.3v6.6l17.9,1.4l1.6-1.7
	L615.1,192.7z M671.5,202.9c-1.5,3.1-2.4,6-3.8,8.8c-1.1,2.3-2.3,4.5-3.4,6.8c-1.6,3.5-3.5,4.3-6.9,2.7c-4.6-2.2-9.2-4.5-13.8-6.7
	c-2.6-1.3-3.1-3.4-1.8-6.1c2.3-4.6,4.4-9.3,6.7-14c1.2-2.4,3.2-3.4,5.5-2.3c5.1,2.3,10.2,4.8,15.1,7.4
	C670.3,200.1,671.9,201.2,671.5,202.9z M659,206.9c0-1.2-0.9-2.1-1.9-2.1s-1.9,1-1.9,2.1c0,1.2,0.9,2.1,1.9,2.1S659,208,659,206.9z
	 M697.9,193.8c-0.7,0.6-2.6,2.3-5.5,1c-2.1-0.9-4.1-2-6-3.2c-10.9-6.5-21.9-13-32.8-19.5c-5.7-3.4-11.3-6.8-16.9-10.3
	c-3.5-2.2-4.8-5.6-2.9-8.8c2-3.1,6.4-3.6,9.7-1.6c10.1,6.1,20.1,12.1,30.2,18.2c7.8,5,15.5,9.2,23.1,13.6
	C701.4,186.1,701.8,190.7,697.9,193.8z M640.5,157.1c0-0.8-0.8-1.4-1.7-1.4s-1.7,0.6-1.7,1.4c0,0.8,0.8,1.4,1.7,1.4
	S640.5,157.9,640.5,157.1z M687.4,185.3c0-0.9-0.6-1.6-1.5-1.6s-1.4,0.7-1.4,1.6c0,0.9,0.6,1.6,1.4,1.6S687.4,186.2,687.4,185.3z
	 M698.1,189c0-2.2-1.9-4-4.3-4s-4.3,1.8-4.3,4c0,2.2,1.9,4,4.3,4S698.1,191.2,698.1,189z M496.9,209c-5.5,8.4-11.1,16.7-16.7,25
	c-0.8,1.1-2.1,1.8-2.7,2.2c-7.1,0.1-15.9-5.6-18-11.5c-0.5-1.4-0.4-3.6,0.4-4.8c5.1-8.1,10.4-16,15.7-23.9c2.2-3.3,2.6-3.4,6-1.2
	c4.9,3.2,9.7,6.5,14.6,9.8C498.1,205.8,498,207.5,496.9,209z M474.8,227.2c-0.2-2.5-2.4-4.5-4.9-4.3c-2.5,0.2-4.4,2.4-4.3,4.9
	c0.2,2.5,2.4,4.5,4.9,4.3C473,231.9,474.9,229.7,474.8,227.2z M484.5,218.1l-11.4-7.1c-1.1-0.7-2.5-0.3-3.1,0.7l-2,3.2
	c-0.7,1.1-0.3,2.5,0.7,3.1l11.4,7.1c1.1,0.7,2.5,0.3,3.1-0.7l2-3.2C485.9,220.2,485.5,218.8,484.5,218.1z M486.2,206.8
	c-0.1-1.1-1.2-1.9-2.4-1.8s-2.2,1-2.1,2.1c0.1,1.1,1.2,1.9,2.4,1.8C485.3,208.9,486.3,207.9,486.2,206.8z M466.1,257.1
	c-5,8.6-9.7,17.4-16.6,24.8c-1.5,1.7-3.4,3-5.2,4.4c-1.4,1.2-2.8,1.2-4.6,0.1c-5.9-3.9-11.9-7.7-17.9-11.3
	c-4.4-2.7-8.8-5.5-13.2-8.1c-1.5-0.8-2.2-2.4-1.7-4.3c2-7.4,5.5-13.5,9.5-20c2.4-3.9,4.7-7.9,7.3-11.6c2.7-3.8,6.9-5.6,11.4-5.1
	c0.8,0.1,1.9,0,1.9,1.4c-0.8,1.8-0.8,2.1-1.6,4.1c-0.2,0.4-2,1.1-2.2,1.3l-1.1,1.9c-0.2,0.3-0.2,0.7,0.1,0.9l1.5,1.3l1.3,1.3
	c0.9,1.4-0.8,3.2-0.6,3.3c0.3,0.7,0.3,1.7,0.8,2c4.7,3.1,9.5,6.1,14.4,9c0.7,0.4,1.8,0.1,2.2,0.1c0.4-0.6,0.4-1.4,1.3-1.9
	c0.3-0.2,2.7-0.5,3.1,0c0.4,0.4,1.2,1.5,1.8,1.2c1.1-0.7,2.2-1.8,2.2-2.2c-0.1-1.2-0.3-2.4,0.2-3.1c0.5-0.7,1.6-1.8,2.5-2.5
	c0.5-0.4,1.2-0.3,1.7,0.2C467.7,247.4,468.4,253.2,466.1,257.1z M431.7,237.1c-1.3,0-2.3,1.1-2.3,2.4c0,1.3,1,2.4,2.3,2.4
	c1.3,0,2.3-1.1,2.3-2.4C434,238.2,433,237.1,431.7,237.1z M427.5,232.1c0,1.1,1,2,2.2,2c1.2,0,2.2-0.9,2.2-2c0-1.1-1-2-2.2-2
	C428.5,230.1,427.5,231,427.5,232.1z M449,262.9c0.4-7.1-4.9-13.4-11.2-15.1c-9.3-2.6-18.1,3.3-19.7,12.9c-0.9,5.3,1.3,9.8,5.9,12.5
	c2,1.2,3.9,2.6,6,3.8c1,0.6,2.2,1.1,3.3,1.2C441.1,278.9,449.7,270.9,449,262.9z M456.8,253.7c0-1.3-1-2.3-2.3-2.3s-2.3,1-2.3,2.3
	c0,1.3,1,2.3,2.3,2.3S456.8,255,456.8,253.7z M464.1,252.1c0-1-0.8-1.9-1.9-1.9c-1,0-1.9,0.8-1.9,1.9c0,1,0.8,1.9,1.9,1.9
	C463.3,254,464.1,253.2,464.1,252.1z M394,304.9c0.2,0.4,0.3,1,0.2,1.5c-0.5,1.8-1.2,3-1.9,4.3c-2,3.8-3.9,7.6-6,11.3
	c-1.6,2.7-3,2.8-5.7,1.2c-3.3-1.9-6.6-3.6-9.9-5.4c-2.2-1.2-2.9-2.8-1.9-4.9c2.4-4.9,5-9.7,7.7-14.5c1-1.9,2.7-2.4,4.8-1.2
	c3.5,2,7.2,3.8,10.7,5.8C392.8,303.3,393.5,304,394,304.9z M383.7,309.1l-1.1-1.2c-0.2-0.2-0.2-0.5-0.1-0.7l0.3-0.5
	c0.2-0.3,0-0.8-0.3-0.9l-1.6-0.5c-0.1,0-0.3,0-0.4,0l-2.8,1.5c-0.1,0.1-0.2,0.2-0.3,0.3l-0.6,1.8c0,0.1,0,0.2,0,0.3l0.4,1.9
	c0,0.1,0,0.1,0.1,0.2l1.3,2.4h0.9l0.4-1.1c0.1-0.3,0.4-0.5,0.7-0.4l0.7,0.3c0.2,0.1,0.5,0,0.6-0.2l1.8-2.4
	C383.9,309.7,383.9,309.4,383.7,309.1z M395.8,346.7c0.7,1,0.8,2.2,0.4,3.3c-0.3,0.7-0.6,1.4-0.9,2c-2.4,4.4-4.9,8.8-7.4,13.2
	c-1.3,2.2-3.1,2.7-5.3,1.5c-4.6-2.4-9.2-4.8-13.7-7.3c-3.3-1.8-3.7-4.3-1.5-7.8c2-3.2,3.9-6.5,5.4-10c2.2-5,4-6.2,8-4.1
	c4.6,2.4,9.1,5,13.6,7.6C395,345.6,395.4,346.1,395.8,346.7z M383.5,352.1c0-1.3-1-2.3-2.1-2.3c-1.2,0-2.1,1-2.1,2.3
	c0,1.3,1,2.3,2.1,2.3C382.6,354.4,383.5,353.4,383.5,352.1z M382,417.1c-1.1,2.4-2.1,4.6-3.2,6.8c-1.7,3.4-3.4,6.9-5.2,10.3
	c-1.9,3.6-2.5,4.4-6.1,2.2c-2.8-1.7-5.8-2.9-8.7-4.4c-1.8-0.9-2.3-2.1-1.3-4c2.9-5.6,5.7-11.2,8.5-16.8c0.8-1.7,2.1-2.2,3.7-1.5
	c3.6,1.8,7.2,3.7,10.8,5.6C381.1,415.6,381.5,416.5,382,417.1z M371.8,423.5c0-1.4-1-2.6-2.3-2.6s-2.3,1.1-2.3,2.6
	c0,1.4,1,2.6,2.3,2.6S371.8,424.9,371.8,423.5z M363.7,445.5c-1.9,4.1-3.9,8.1-6.1,12.4c-2.5-1.2-4.8-2.2-7.1-3.4
	c-0.3-0.2-0.4-1.3-0.2-1.8c2.1-4.2,4.2-8.3,6.5-12.6c2.4,1.2,4.4,2.2,6.4,3.3C363.6,443.7,363.9,445,363.7,445.5z M358.5,448.9
	c0-1-0.7-1.7-1.5-1.7c-0.8,0-1.5,0.8-1.5,1.7c0,1,0.7,1.7,1.5,1.7C357.8,450.6,358.5,449.8,358.5,448.9z M323,470.2
	c-0.1,3.2-1.3,4.2-4.4,4.3c-4.9,0.1-9.8,0.4-14.7,0.5c-4.2,0.1-5.5-1.4-5.6-5.6c-0.1-4.7-0.2-9.4-0.2-14.1c0-3.6,1.8-5.5,5.4-5.5
	c4.9-0.1,9.8-0.1,14.8,0c2.9,0,4.5,1.6,4.6,4.6c0.1,2.7,0,5.4,0,8.2c0,0,0,0,0,0C323,465.1,323.1,467.7,323,470.2z M312.9,462.4
	c0-1.1-0.9-2-2-2c-1.1,0-2,0.9-2,2c0,1.1,0.9,2,2,2C312,464.4,312.9,463.5,312.9,462.4z M332.4,505c0,3.9-1.3,5.2-5.2,5.2
	c-2.4,0-4.8,0-7.1,0c-2.6,0-5.2,0-7.9,0c-3,0-4.6-1.4-4.6-4.5c-0.1-5.3-0.1-10.6,0-15.8c0-2.9,1.6-4.4,4.4-4.4c5.4,0,10.8,0,16.2,0
	c2.5,0,3.8,1.3,3.9,3.8C332.3,494.5,332.4,499.8,332.4,505z M322.5,498.1c0-1.2-1-2.2-2.2-2.2c-1.2,0-2.2,1-2.2,2.2
	c0,1.2,1,2.2,2.2,2.2C321.5,500.3,322.5,499.3,322.5,498.1z M771.4,222.2c-1.1,2-1.9,3.5-2.8,5.1c-2.6,4.7-5.2,9.4-7.8,14.2
	c-0.9,1.7-1.8,2-3.5,1.1c-8.4-4.7-16.9-9.3-25.4-13.9c-4.6-2.5-9.2-5.2-13.9-7.7c-1.6-0.9-1.9-1.7-1-3.3c3.3-5.9,6.4-11.8,9.6-17.7
	c0.9-1.6,2.2-1.9,3.7-1.1c7.4,4.1,14.8,8.2,22.2,12.3c5.4,3,10.8,5.9,16.2,9C769.6,220.7,770.4,221.5,771.4,222.2z M738.8,206.6
	c0-1-0.7-1.7-1.5-1.7c-0.8,0-1.5,0.8-1.5,1.7c0,1,0.7,1.7,1.5,1.7C738.1,208.3,738.8,207.5,738.8,206.6z M760.6,219.2
	c0-0.9-0.7-1.6-1.6-1.6s-1.6,0.7-1.6,1.6c0,0.9,0.7,1.6,1.6,1.6S760.6,220.1,760.6,219.2z M716.5,236.6c-4.5,3.6-9,7.3-13.5,11
	c-0.5,0.4-1,0.7-1.8,1.2c-0.5-0.4-1.1-0.7-1.5-1.2c-4.7-5.7-9.5-11.4-14.2-17.2c-1-1.2-0.9-2.4,0.3-3.4c4.8-4,9.7-8,14.6-11.8
	c0.4-0.4,1.9-0.1,2.4,0.4c1.6,1.6,3,3.5,4.4,5.2c3.2,4,6.5,7.9,9.7,11.9C718.2,234.2,718,235.4,716.5,236.6z M701.3,219.8
	c0,0.6,0.5,1.2,1.2,1.2c0.6,0,1.2-0.5,1.2-1.2c0-0.6-0.5-1.2-1.2-1.2C701.9,218.6,701.3,219.2,701.3,219.8z M699.5,224.8
	c0,0.8,0.6,1.5,1.4,1.5c0.8,0,1.4-0.7,1.4-1.5c0-0.8-0.6-1.5-1.4-1.5C700.1,223.3,699.5,224,699.5,224.8z M691.2,230.7
	c0-0.7-0.6-1.3-1.2-1.3c-0.7,0-1.2,0.6-1.2,1.3c0,0.7,0.6,1.3,1.2,1.3C690.7,231.9,691.2,231.3,691.2,230.7z M697,229.4
	c0-1-0.8-1.7-1.9-1.7c-1,0-1.9,0.8-1.9,1.7c0,1,0.8,1.7,1.9,1.7C696.2,231.1,697,230.4,697,229.4z M702,243.5c0-0.8-0.7-1.5-1.5-1.5
	c-0.8,0-1.5,0.7-1.5,1.5c0,0.8,0.7,1.5,1.5,1.5C701.4,245,702,244.3,702,243.5z M704.2,238.1c0-1-0.7-1.8-1.5-1.8
	c-0.9,0-1.5,0.8-1.5,1.8s0.7,1.8,1.5,1.8C703.5,239.9,704.2,239.1,704.2,238.1z M710,233.9c0-1-0.9-1.8-1.9-1.8s-1.9,0.8-1.9,1.8
	c0,1,0.9,1.8,1.9,1.8S710,234.9,710,233.9z M714.5,232.8c0-0.7-0.5-1.3-1.2-1.3c-0.7,0-1.2,0.6-1.2,1.3s0.5,1.3,1.2,1.3
	C713.9,234.1,714.5,233.5,714.5,232.8z M719.4,270.1c0.4,0.7,0.4,1.5,0.1,2.2c-0.4,0.8-0.7,1.6-1.2,2.1c-3.6,3.8-7.3,7.5-10.9,11.2
	c-1.9,1.9-4.5,2.1-6.5,0.1c-3.9-3.8-7.8-7.7-11.7-11.6c-1.5-1.5-1.7-3.3-0.3-4.8c4.2-4.4,8.4-8.7,12.7-13c1.8-1.8,3.7-0.9,5.2,0.5
	c3.7,3.6,7.4,7.2,11,10.8C718.5,268.4,718.9,269.3,719.4,270.1z M705.8,271.3c0-1.2-0.8-2.2-1.8-2.2c-1,0-1.8,1-1.8,2.2
	c0,1.2,0.8,2.2,1.8,2.2C705,273.4,705.8,272.5,705.8,271.3z M753.4,330c0,2.8-1.5,4.2-4.3,4.2c-2.7,0-5.4,0-8.1,0
	c-2.7,0-5.4,0-8.1,0c-2.4,0-3.8-1.2-3.9-3.4c-0.2-5.8-0.4-11.7-0.3-17.6c0-2.3,1.8-3.7,4.1-3.8c5.7-0.1,11.3-0.1,17,0
	c2.2,0,3.5,1.4,3.5,3.7C753.3,318.8,753.4,324.4,753.4,330z M743.2,321.5c0-1.4-1.1-2.6-2.5-2.6c-1.4,0-2.5,1.1-2.5,2.6
	c0,1.4,1.1,2.6,2.5,2.6C742.1,324,743.2,322.9,743.2,321.5z M593.3,320.3c-2.6,5-5.3,9.9-8.1,14.8c-0.5,0.8-1.3,1.4-2,2.1
	c-1.1-0.4-1.8-0.6-2.4-1c-4.9-2.6-9.9-5.3-14.8-8c-1.7-0.9-2-2.4-1.1-4.2c2.8-5.2,5.6-10.4,8.4-15.5c0.9-1.6,2.2-1.9,3.7-1.1
	c5,2.8,10,5.7,15.1,8.4C594.3,317,594.2,318.6,593.3,320.3z M581.9,321.7c0-1-0.9-1.8-2-1.8c-1.1,0-2,0.8-2,1.8c0,1,0.9,1.8,2,1.8
	C581,323.6,581.9,322.8,581.9,321.7z M718.9,426.5c-2.6,5.4-5.2,10.7-8,16c-0.5,1-1.6,1-2.2,0.7c-1.9-0.7-3.6-1.7-5.5-2.7
	c-0.4-0.2-0.6-0.8-0.4-1.2c2.9-5.8,5.6-11.2,8.4-16.6c0.3-0.6,1.4-1.4,1.9-1.2c2.1,0.7,4,1.7,5.9,2.8
	C719.3,424.5,719.2,425.9,718.9,426.5z M712,432.6c0-0.7-0.5-1.4-1.2-1.4c-0.7,0-1.2,0.6-1.2,1.4c0,0.7,0.5,1.4,1.2,1.4
	C711.4,434,712,433.4,712,432.6z M158,563.7c0,1.9-1.7,3.1-4.2,3.1c-3.9,0-7.7,0-11.6,0c-2.1,0-4.3,0-6.4,0c-1.7,0-2.8-0.9-2.9-2.7
	c-0.1-3.8,0-7.6,0-11.4c0-2.4,1.3-3.4,3.6-3.3c3.1,0.1,6.2,0,9.3,0c3.2,0,6.4,0.1,9.6,0c1.8-0.1,2.6,0.7,2.6,2.4
	C158.1,555.8,158.1,559.7,158,563.7z M147.3,558.8c0-1.2-0.8-2.3-1.8-2.3c-1,0-1.8,1-1.8,2.3c0,1.2,0.8,2.3,1.8,2.3
	C146.4,561,147.3,560,147.3,558.8z M444.4,723.6c0,5.3,0,10.6,0,15.8c0,2.9-1.5,4.5-4.3,4.5c-5,0.1-10,0.2-14.9,0.2
	c-4.1,0-5.5-1.4-5.5-5.5c0-4.9-0.1-9.7-0.1-14.6c0-3.6,1.7-5.2,5.2-5.2c2.5,0,4.9,0,7.4,0c2.5,0,5.1,0,7.6,0
	C442.6,718.9,444.3,720.6,444.4,723.6z M434.7,731.7c0-1.2-1-2.3-2.2-2.3c-1.2,0-2.2,1-2.2,2.3s1,2.3,2.2,2.3
	C433.7,733.9,434.7,732.9,434.7,731.7z M600.6,734.9c-0.5,0.6-0.9,1.5-1.6,2c-4.9,3.2-9.9,6.3-14.8,9.3c-1.2,0.7-2.5,1-3.4-0.6
	c-3.4-5.6-6.9-11.1-10.1-16.8c-0.4-0.6,0.3-2.5,1-3c4.9-3.2,9.9-6.3,14.9-9.3c1.6-1,3-0.7,3.9,0.8c3.2,5.2,6.4,10.4,9.6,15.7
	C600.3,733.5,600.3,734.1,600.6,734.9z M587.8,731.2c0-1-0.8-1.8-1.8-1.8c-1,0-1.8,0.8-1.8,1.8c0,1,0.8,1.8,1.8,1.8
	C587,733,587.8,732.2,587.8,731.2z M554.2,740c0,1.9-1,3.1-2.9,3.2c-5.1,0.2-10.2,0.4-15.4,0.5c-3.1,0.1-5-1.8-5-5
	c0-3.9,0-7.7,0-11.6c0-2.7,1.4-4.1,4.2-4.2c2.5,0,5.1,0,7.6,0c2.5,0,5.1,0,7.6,0c2.5,0,3.8,1.2,3.9,3.7
	C554.3,731.1,554.2,735.5,554.2,740z M545.7,730.4c0-0.8-0.6-1.4-1.4-1.4h-2.2c-0.8,0-1.4,0.6-1.4,1.4v5.8c0,0.8,0.6,1.4,1.4,1.4
	h2.2c0.8,0,1.4-0.6,1.4-1.4V730.4z M784.5,627.9c0,1.2-1,2.2-2.2,2.3c-3.4,0.2-6.8,0.1-10.2,0.1c-3,0-6,0-9,0
	c-1.8,0-3.3-1.4-3.3-3.2c-0.2-6-0.2-11.9,0-17.9c0-2.1,2.1-3.8,4.3-3.9c5.9-0.1,11.9-0.1,17.8,0c1.4,0,2.6,1.2,2.6,2.6
	C784.6,614.6,784.6,621.3,784.5,627.9z M774.6,617.6c0-1.4-1.1-2.4-2.4-2.4c-1.3,0-2.4,1.1-2.4,2.4s1.1,2.4,2.4,2.4
	C773.5,620,774.6,618.9,774.6,617.6z M679,239.6c-0.1,0.3-0.3,0.6-0.5,1c-3.3,5.5-6.5,10.9-9.8,16.4c-4.6,7.7-9.1,15.5-13.7,23.2
	c-6,10.1-12,20.2-18,30.3c-2.8,4.6-5.6,9.3-8.2,14c-0.9,1.6-2.2,2.2-3.6,1.3c-5.6-3.4-11.3-6.8-16.8-10.1
	c-8.5-5.1-16.6-10.2-25-15.3c-1.2-0.7-2.1-1.9-3.6-2.8c0,0,0,0,0-0.1c1.2-2.2,2.2-4.3,3.4-6.4c4.5-7.7,9.1-15.3,13.6-23
	c4.8-8.1,9.8-16.2,14.6-24.4c5.8-9.8,11.5-19.8,17.3-29.6c0.6-1,1.2-1.9,1.9-2.9c0.6-0.9,1.3-1.3,2.1-1.2c1,0.1,1.5,1.3,1,2.2
	c-2.8,4.8-5.6,9.5-8.4,14.2c-0.8,1.4-1.7,2.8-2.6,4.2c-0.9,1.3-0.1,2.2,0.9,2.9c1.5,1.1,1.3,1,2.9,2.1c0.8,0.5,2.5,1.6,2.8,1.6
	c0.2-0.2,0.5-0.6,0.9-0.8c0.2-0.1,0.6-0.2,0.8-0.1c0.6,0.4,1.1,0.6,1.7,1c0.8,0.6,1.6,1.1,2,1.5c0.2,0.2,0.5,0.5,0.4,0.8
	c-0.1,0.3-0.2,0.4-0.4,0.7c-0.1,0.3,0.2,0.3,0.5,0.5c0.4,0.3,1.3,0.9,1.7,1.1c4.2,2.5,9.2,5.6,13.4,8.1c0.5,0.3,1-1,1.5-0.7
	c1.8,0.8,3.2,1.7,5,2.8c0,0-0.2,0.7-0.3,1c-0.1,0.3,0.9,1,1.2,1.1c1.9,1.2,2.9,1.9,4.7,3.1c1.4,0.9,2.2,0.3,3.1-1.1
	c3.4-6,6.9-11.9,10.4-17.8C676.9,236.5,679.6,237.7,679,239.6z M627.6,251.4v9.5l8.5,5.2l8.8-4.4l0.3-9.9l-9.1-5.3L627.6,251.4z
	 M627.1,264.7l-2.9-0.3l-7,4.6v9.7l8.1,5h1.8l7-4.4v-10L627.1,264.7z M617.8,243l8.7,5.1l5.2-2.9l-0.2-2l-11.4-6.4l-2.3,2.8V243z
	 M607.2,260.3l7.4,5.1h2.9l6.8-4.1v-10.5l-7.3-4.4h-2.5l-7.2,10.8V260.3z M596.4,278.7l8.3,5h1.7l7.6-4.4V269l-8.1-5.1h-1.2
	l-2.4,0.7l-6,10.9V278.7z M591.5,300.4c0-1.1-0.9-2-2-2s-2,0.9-2,2c0,1.1,0.9,2,2,2S591.5,301.5,591.5,300.4z M596.2,299.5h2.8
	l4.2-2.3l0.2-10.3l-7.8-5.1h-2.8l-6.3,10.2l0.2,1.2L596.2,299.5z M613.4,304.9l-8-5l-1.6,0.2l-6.4,3.6v1.7l14.2,8.5h1.8V304.9z
	 M616.6,301.7l7.2-4.4v-9.9l-8-5.6l-1.4,0.3l-7.8,4.8v9.4l8.1,5.4H616.6z M622.1,318.6c0-0.9-0.8-1.7-1.8-1.7s-1.8,0.8-1.8,1.7
	c0,0.9,0.8,1.7,1.8,1.7S622.1,319.6,622.1,318.6z M634.4,305.1l-8.5-5.2l-1.1,0.2l-8,4.6v6.5l9.7,6.4h2.2l5.5-9.1L634.4,305.1z
	 M644.9,287.6l-8.2-5.4h-1.7l-7.8,5v9.8l8.3,5l3-0.4l6.2-11.1L644.9,287.6z M655.6,269.9l-8.3-5.3h-2.5l-6.9,4.6v9.6l7.4,4.8h2.9
	l7.4-11.4V269.9z M661.2,262.3l-0.7-1.6l-10.4-6.7h-1.2l-0.7,0.5l0.4,6.7l8.6,5.3l2.2-0.6L661.2,262.3z M618.7,332.3
	c-2.3,4-4.4,8-6.5,12.1c-1.2,2.4-3.7,2.5-5.7,3.3c-2.4,0.9-5,1.4-7.5,2.1c-4.3,1.2-5.4,0.5-6.2-3.8c-0.1-0.7-0.1-1.5-0.2-2.2
	c0-0.1,0-0.6,0-0.8c1.4-3,2.3-5.5,3.8-8.5c1.7-3.4,3.6-6.8,5.4-10.2c1.1-2.1,2.5-2.8,4.7-1.6c3.8,2.2,7.6,4.3,11.5,6.4
	C619.3,329.9,619.5,330.8,618.7,332.3z M605.8,344.7l-5.2-3.1l-2.8,5.3L605.8,344.7z M573.3,341.5c-7.8,13.9-15.6,27.5-23.5,41.4
	c-3.6-2.1-7.2-4.1-10.8-6.2c7.9-14,15.7-27.7,23.5-41.5C566.2,337.4,569.7,339.4,573.3,341.5z M557.8,356.9
	c-1.1-0.6-2.7,0.1-3.6,1.7c-0.9,1.6-0.8,3.4,0.3,4c1.1,0.6,2.7-0.1,3.6-1.7C559.1,359.3,558.9,357.5,557.8,356.9z M564.6,349.5
	c0.9-1.6,0.8-3.4-0.3-4s-2.7,0.1-3.6,1.7c-0.9,1.6-0.8,3.4,0.3,4C562.1,351.9,563.7,351.1,564.6,349.5z M441.5,304.1
	c-0.3,0.2-1.7,0.4-2,0.6c-0.9,0.7-0.9,1.5-1.4,2.4c-6.5,11-13,22-19.5,33.1c-0.2,0.3-0.4,0.5-0.7,1c-1.1-0.8-2.2-1.6-3.3-2.4
	c-1-0.7-2.3-0.4-3,0.6c-1.1,1.8-2.2,3.6-3.3,5.6c-0.6,1-1.8,1.3-2.8,0.7c-3.7-2.2-7.4-4.5-11.1-6.7c-1-0.6-2.1-1.1-1.5-2.1
	c1-1.8,2.6-5.2,4.1-6.4c0.8-0.7,2,0.7,2.7,1c1.2,0.6,2.5,1.4,3.6,2.2c1,0.6,1.6-0.2,2.2-1.2c3.2-5.3,6.3-10.5,9.5-15.8
	c0.6-1,0.3-2.3-0.7-2.9c-2.2-1.3-4.9-2-5.8-5c-0.9-2.9-0.2-5.2,1.3-7.5c0.6-1,0.4-2.3-0.6-2.9c-1.1-0.7-2.1-1.4-3.6-0.7
	c-0.4,0.2-1.9-0.6-2.1-1.2c0.3-2.4-3.4-4-4.7-3.1c-1.3,0.9-3.9-1.8-5-3.4c-0.4-0.5,0.2-2.9,1.1-4.4c0.6-1,1.3-2.8,2.3-3.4
	c1.3-0.7,3.2-0.4,4.3-0.1c5.7,1.6,11,3.1,16.6,5c3.3,1.2,6.3,3.3,9.4,5.1c4.6,2.7,9.1,5.4,13.6,8.2c0.1,0.1,1,0.6,1.1,0.7
	C443,301.9,442.6,303.2,441.5,304.1z M399.9,286.7c0-1.2-0.9-2.1-2.1-2.1c-1.2,0-2.1,0.9-2.1,2.1c0,1.2,0.9,2.1,2.1,2.1
	C398.9,288.8,399.9,287.9,399.9,286.7z M409.4,292c0-1.2-0.9-2.3-1.9-2.3s-1.9,1-1.9,2.3s0.9,2.3,1.9,2.3S409.4,293.2,409.4,292z
	 M401.3,338.2c0-1.2-0.9-2.1-1.9-2.1c-1.1,0-1.9,0.9-1.9,2.1c0,1.2,0.9,2.1,1.9,2.1C400.4,340.3,401.3,339.4,401.3,338.2z
	 M420.5,294.3c0,1.3,1,2.3,2.3,2.3s2.3-1,2.3-2.3s-1-2.3-2.3-2.3S420.5,293,420.5,294.3z M428.9,307.6l-5.1-2.7
	c-0.7-0.3-1.5-0.1-1.8,0.6l-2,4c-0.3,0.7-0.1,1.5,0.6,1.8l5.1,2.7c0.7,0.3,1.5,0.1,1.8-0.6l2-4C429.8,308.7,429.5,307.9,428.9,307.6
	z M370.6,386.1c-4.2,6.4-8.2,12.8-12.2,19.3c-1.1,1.8-2.3,2.8-4.4,2.5c-2-0.3-2.9-1.7-3.2-3.5c-0.3-1.7,1.6-4.5,3.2-5
	c3.7-1.3,6.5-3.5,8.4-7c3.7-6.8-0.1-15.5-7.3-18.4c-7.8-3.1-17.7,3.5-17.1,12.7c0,0.6,0,1.1-0.1,1.7c-0.3,1.2-0.6,2.5-1.1,3.5
	c-1.2,2.2-3.4,2.9-5.4,2c-1.9-1-2.6-3.3-1.5-5.6c2.4-5.2,4.7-10.4,7.3-15.5c2.9-5.6,6.1-11,9.2-16.4c0.6-1.1,1.2-2.3,2.7-0.8
	c0.4,0.3,1.6,0.5,1.9,0c1.9-2.8,4.6-6.9,6.3-9.9c0.3-0.6-0.2-1.4-0.7-1.8c-2.2-2.1-0.1-3.4,0.7-4.9c0.9-1.6,2.3-2.7,4.2-1.4
	c1.2,0.8,2.4,1.5,3.5,2.2c4.8,3.3,3.1,2.1-2.1,11.6c-2.8,5-6,9.7-9.4,14.4c-1.1,1.5-1,2.3,0.4,3.2c5,3.2,10,6.5,15,9.6
	C372.6,380.6,372.9,382.5,370.6,386.1z M334.5,390.2c0-0.9-0.7-1.6-1.5-1.6c-0.9,0-1.5,0.7-1.5,1.6c0,0.9,0.7,1.6,1.5,1.6
	C333.8,391.8,334.5,391.1,334.5,390.2z M348.2,368.6c0-0.6-0.6-1.2-1.4-1.2c-0.8,0-1.4,0.5-1.4,1.2c0,0.6,0.6,1.2,1.4,1.2
	C347.6,369.7,348.2,369.2,348.2,368.6z M356,404.1c0-0.9-0.7-1.5-1.5-1.5c-0.8,0-1.5,0.7-1.5,1.5c0,0.9,0.7,1.5,1.5,1.5
	C355.3,405.6,356,404.9,356,404.1z M369.9,382.1c0-0.8-0.6-1.4-1.4-1.4c-0.8,0-1.4,0.6-1.4,1.4c0,0.8,0.6,1.4,1.4,1.4
	C369.2,383.6,369.9,382.9,369.9,382.1z M328.4,414.6c-2.9,6.3-6.3,12.5-9.2,18.8c-0.6,1.4-0.7,3.7-1.1,5.3c-0.2,1-0.6,1.2-1.6,0.8
	l-2.8-1.3c-0.9,1.6-1.9,3.2-2.6,4.9c-0.6,1.3-2,1.8-3.2,1.1c-1.8-1.1-3.8-1.8-5.7-2.8c-1.6-0.8-2.1-1.9-1.1-3.8
	c3.4-6.8,6.6-13.7,10-20.5c1.7-3.5,3.6-7,5.5-10.7c4,2,7.8,3.8,11.5,5.8C328.4,412.5,328.6,413.9,328.4,414.6z M307.4,438.4
	c0-1-0.8-1.7-1.7-1.7s-1.7,0.8-1.7,1.7s0.8,1.7,1.7,1.7S307.4,439.4,307.4,438.4z M591.9,369.6c-1,1.9-1.9,3.7-3,5.4
	c-2.3,3.7-4.6,7.3-7,10.9c-2,3-5.1,4.2-8.4,4c-1,0-2.4-1.7-2.8-2.8c-1.1-3.3-1.6-6.8-2.4-10.2c-0.5-2.1-0.3-4,0.9-5.9
	c2.2-3.4,4.5-6.7,6.4-10.3c1-1.9,2.2-2.2,3.8-1.2c3.9,2.4,7.8,4.8,11.6,7.3c0.4,0.3,0.7,0.8,0.9,1.4
	C592.2,368.7,592.2,369.2,591.9,369.6z M576.6,380.6l-5-2.7l1.7,7.3L576.6,380.6z M588,415.1c-0.7,0.7-1.2,1.6-1.9,2.3
	c-1.5,1.5-5.8,0.6-6.3-3.5c-1-1.5-2.6-2.3-3.5-3c-1-1-3.3-2.2-4.4-3.1c-2.3-1.8-2.5-0.6-4.4,1.7c-2.8,3.5-5.8,6.8-8.5,10.4
	c-1.1,1.5-1.4,3,0.7,4.6c3.2,2.4,5.8,5.6,10.1,6.5c2.6,0.5,3.2,3.3,1.6,5.5c-0.5,0.7-0.9,1.4-1.5,1.8c-0.5,0.3-1.1,0.7-1.6,0.8
	c-0.3,0.1-0.7,0-1-0.2c-3.7-2.7-6.7-5.3-10.9-8.6c-1.8-1.7-3.4-4.9-4.1-7.3c-0.4-1.3,0.7-3.6,1.5-4.8c4.1-5.7,8.2-10.5,12.7-16
	c0.8-1,2.2-1.6,3.4-2.2c0.8-0.4,1.7-0.4,2.6-0.1c0.8,0.3,1.4,0.6,2,1.1c3.4,2.8,6.4,4.8,9.8,7.6C588.6,412,590.3,412.9,588,415.1z
	 M566.4,434.3c0,1.2,0.9,2.1,2,2.1s2-1,2-2.1c0-1.2-0.9-2.1-2-2.1S566.4,433.1,566.4,434.3z M586.5,413.9c0-1.3-0.9-2.3-2.1-2.3
	c-1.1,0-2.1,1-2.1,2.3c0,1.3,0.9,2.3,2.1,2.3C585.6,416.2,586.5,415.2,586.5,413.9z M558.4,456.7c-2.8,5.7-5.6,11.4-8.4,17.2
	c-0.8,1.7-1.8,2.1-3.7,1.2c-6.4-3.3-12.8-6.4-19.2-9.6c-8.3-4.1-16.5-8.3-24.8-12.3c-2.6-1.2-2.9-2.8-1.2-5.1
	c-1.4-0.9-2.4-1.6-3.5-2.1c-2.3-1.1-2.5-2.9-1.6-4.9c1.3-2.8,2.7-5.6,4.2-8.4c1.2-2.3,3.2-1.9,5.2-1.3c1,0.3,1.9,0.8,2.9,1.3
	c0.5-0.6,1-1.1,1.3-1.7c0.7-1.3,1.7-1.3,2.9-0.7c12.1,6.1,24.3,12.1,36.5,18.1c2.6,1.3,5.3,2.6,7.9,3.9
	C559.3,453.5,559.6,454.2,558.4,456.7z M503.5,438.9c0-0.8-0.7-1.5-1.5-1.5c-0.8,0-1.5,0.7-1.5,1.5c0,0.8,0.7,1.5,1.5,1.5
	C502.9,440.4,503.5,439.7,503.5,438.9z M543,453.4l-30-15.1c-1.2-0.6-2.6-0.1-3.2,1.1l-2.5,5.1c-0.6,1.2-0.1,2.6,1.1,3.2l30,15.1
	c1.2,0.6,2.6,0.1,3.2-1.1l2.5-5.1C544.7,455.5,544.2,454,543,453.4z M550.4,462.1c0-1.1-0.8-2-1.8-2s-1.8,0.9-1.8,2
	c0,1.1,0.8,2,1.8,2S550.4,463.2,550.4,462.1z M533.2,496.1c-3.3,5.9-6.6,11.7-9.9,17.5c-4.4,7.9-8.8,15.9-13.2,23.8
	c-4.3,7.7-8.6,15.4-12.9,23.1c-4,7.2-8,14.5-12.1,21.7c-1.4,2.5-3.8,3.2-6.2,1.8c-2.7-1.6-5.4-3.3-8.2-4.8c-1.8-1-2.7-2.5-2.4-4.4
	c0.2-1.6-0.2-2.4-1.5-3.2c-4.1-2.2-8-4.6-12.1-6.8c-0.8-0.4-2.4-0.4-3.2,0.1c-2,1.2-3.8,1.2-5.8,0.1c-2.7-1.5-5.4-3-8.1-4.5
	c-2.1-1.3-2.7-3.6-1.4-5.9c6.3-11.4,12.6-22.8,18.8-34.2c0.3-0.6,0.8-1.1,1.2-1.6c0.2,0.1,0.3,0.1,0.5,0.2c3.9,1.8,3.9,1.7,6-2.1
	c1.9-3.5,3.9-7,5.9-10.6c-1.5-0.9-2.8-1.7-4.2-2.6c3.6-6.4,7.1-12.7,10.6-18.9c3-5.4,6.1-10.8,9.1-16.3c1.5-2.7,3.5-3.5,6.2-2.1
	c2.9,1.6,5.8,3.2,8.7,4.8c1.8,1,2.2,2.6,2.2,4.5c0,0.8,0.5,2.1,1.2,2.5c3.9,2.5,8,4.7,12,7.1c1.4,0.9,2.6,1,4-0.2
	c1.2-1.1,2.6-1.3,4.2-0.4c3.1,1.8,6.3,3.4,9.4,5.2C534,491.3,534.5,493.6,533.2,496.1z M496.4,494l8.4,5.2l5.9-3.2v-1.9l-12.5-7.1
	l-1.8,0.7V494z M495.9,497.2h-1.8l-7.6,4.6v10.9l9.1,4.7l8.3-5v-10.7L495.9,497.2z M484.7,535.5l9-5.4l0.6-9.8l-7.8-4.7h-3l-7.7,4.4
	v10.9L484.7,535.5z M475.8,533.3H474l-8.1,5.2v9.7l9.3,5.6l8.8-5.4v-9.7L475.8,533.3z M493.3,474.5c1,0.3,2-0.3,2.3-1.4
	c0.3-1.1-0.2-2.1-1.2-2.4c-1-0.3-2,0.3-2.3,1.4C491.8,473.2,492.3,474.3,493.3,474.5z M475.8,493.4l0.7,1.6l7,4.2h1.8l7.8-4.9
	l0.6-7.8l-10.7-6.1l-1.9,0.7l-5.3,10V493.4z M469.8,504.2l1.3,1.2l0.1,4.8l7.4,4.4h1.3l3.7-2.6v-9.5l-7.7-4.9h-2.8l-3.3,4.1V504.2z
	 M455.4,530.6l7.5,4.9l3.2-0.6l7.1-4.3v-5.3l-6.6-4h-2.7l-1.5,2h-4.5l-2.5,4V530.6z M446.1,558.1c-0.8-0.5-2,0-2.6,1
	c-0.6,1.1-0.4,2.3,0.4,2.8c0.8,0.5,2,0,2.6-1C447.1,559.9,446.9,558.6,446.1,558.1z M457.1,552.4l5.9-3.8v-10.4l-7.6-4.5h-2.9
	l-6.4,10.1v3.1l9.2,5.4H457.1z M473.8,556.2l-9.4-5l-5.1,3.2v2.3l12.6,6.9l1.9-0.9L473.8,556.2z M477.2,575.9
	c-0.7-0.4-1.8,0.1-2.4,1.2c-0.6,1.1-0.5,2.3,0.2,2.7c0.7,0.4,1.8-0.1,2.4-1.2C478,577.5,477.9,576.3,477.2,575.9z M494.4,556.4
	l-7.7-4.9H484l-7.4,5.2v7.6l9.3,5.5h2.4l6-10.5V556.4z M504.8,538.2l-8.4-5.3l-2.1,0.3l-7.8,4.6v10.5l7.2,4.5h3.8l7.4-11.9V538.2z
	 M514.6,519.9l-9.1-5.3l-8.5,5v10.7l8.1,4.7h2.1l7.4-12V519.9z M524.4,504l-9.5-5.8h-2.2l-6.1,4v9.4l8.3,5.3l2.5-0.5l7-11.1V504z
	 M526,488.3c-0.8-0.4-2,0.2-2.6,1.5c-0.6,1.2-0.4,2.5,0.4,2.9c0.8,0.4,2-0.2,2.6-1.5C527,490.1,526.8,488.7,526,488.3z M289.7,464.7
	c0,3.8,0,7.6,0,11.4c0,2.8-0.8,3.6-3.7,3.7c-0.1,0-0.2,0-0.2,0c-6.4,1.6-10-2.7-13.8-6.6c-1.7-1.8-3.7-3.5-5.3-5.4
	c-0.9-1.1-1.6-2.6-1.7-4c-0.2-3.9-0.1-7.7-0.1-11.6c0-3.3,1.5-4.7,4.8-4.7c5,0,10,0,15,0c3.3,0,4.7,1.3,4.9,4.7
	C289.7,456.3,289.6,460.5,289.7,464.7C289.6,464.7,289.6,464.7,289.7,464.7z M270.7,451.3c0-1-0.8-1.8-1.8-1.8c-1,0-1.8,0.8-1.8,1.8
	c0,1,0.8,1.8,1.8,1.8C269.9,453.1,270.7,452.3,270.7,451.3z M287.3,451.4c0-1-0.8-1.9-1.8-1.9s-1.8,0.8-1.8,1.9c0,1,0.8,1.9,1.8,1.9
	S287.3,452.5,287.3,451.4z M251.4,476.2c-0.1,2.3-2,4.5-3.3,6.6c-0.4,0.7-1.6,1.2-2.5,1.2c-4.8,0.2-9.7,0.3-14.5,0.2
	c-1,0-2.2-0.8-2.9-1.6c-3.8-4.9-10.8-4.9-14.3,0.3c-1.6,2.3-3.7,1.6-5.5,1c-1-0.3-2-2.2-2.1-3.4c-0.1-2.4-0.5-4.1-2.8-4.3
	c-0.7-0.1-1.3-0.7-1.3-1.4c0-5.8,0-11.5,0-17.1c0-0.5,0.1-0.9,0.1-1.4c0-0.4,0.3-0.6,0.7-0.7c2.5-0.1,3.3-1.6,3.2-4.2
	c-0.1-2.7,1.2-3.9,3.9-3.9c8.2,0,16.4,0,24.5,0c2.9,0,5.8-0.2,8.7-0.3c5-0.2,7.4,2.8,8,7.7C252.1,462,251.8,469.1,251.4,476.2z
	 M208.5,452.2c0,1,0.8,1.8,1.8,1.8s1.8-0.8,1.8-1.8s-0.8-1.8-1.8-1.8S208.5,451.2,208.5,452.2z M211.6,479.2c0-0.8-0.6-1.4-1.4-1.4
	s-1.4,0.6-1.4,1.4c0,0.8,0.6,1.4,1.4,1.4S211.6,480,211.6,479.2z M213.1,458.2c0-1-0.8-1.8-1.8-1.8c-1,0-1.8,0.8-1.8,1.8
	c0,1,0.8,1.8,1.8,1.8C212.3,460,213.1,459.2,213.1,458.2z M245.2,452.8c0,0.7,0.7,1.2,1.5,1.2c0.8,0,1.5-0.6,1.5-1.2
	c0-0.7-0.7-1.2-1.5-1.2C245.9,451.5,245.2,452.1,245.2,452.8z M219.8,453.1c0,0.9,0.7,1.6,1.5,1.6s1.5-0.7,1.5-1.6
	c0-0.9-0.7-1.6-1.5-1.6S219.8,452.2,219.8,453.1z M223.6,469.7c0-1.8-1.4-3.3-3.1-3.3s-3.1,1.5-3.1,3.3s1.4,3.3,3.1,3.3
	S223.6,471.5,223.6,469.7z M243.8,465.8c0-5.1-4.4-9.3-9.7-9.3s-9.7,4.2-9.7,9.3c0,5.1,4.4,9.3,9.7,9.3S243.8,470.9,243.8,465.8z
	 M248.2,478.5c0-0.8-0.7-1.5-1.5-1.5c-0.8,0-1.5,0.7-1.5,1.5c0,0.8,0.7,1.5,1.5,1.5C247.5,480,248.2,479.3,248.2,478.5z
	 M248.5,472.3c0-0.7-0.6-1.3-1.3-1.3c-0.7,0-1.3,0.6-1.3,1.3s0.6,1.3,1.3,1.3C247.9,473.6,248.5,473,248.5,472.3z M165.2,530.6
	c-0.7,0.9-2.5,2.1-3.1,1.8c-2.5-1.3-4.9-0.3-7.4-0.3c-7.6,0.1-15.2,0-22.9,0c-4.4,0-8.9-0.1-13.3,0c-2.6,0.1-5.2,0.3-7.7,0.8
	c-0.6,0.1-1.4,1.5-1.4,2.3c-0.1,5,0,10.1,0,15.1c0,3.3,0,3.3-3.2,3.3c-1.1,0-2.3,0-3.9,0c-0.3-42.2-0.5-84-0.7-126.1
	c2,0,4-0.2,5.9,0.1c0.6,0.1,1.5,1.6,1.5,2.4c0.1,5.1,0.1,10.2,0,15.4c0,2.1,0.5,2.8,2.7,3c9.2,0.9,18.3,0.2,27.5,0.4
	c5.9,0.1,11.8,0.1,17.7,0c1.5,0,3.1-0.5,4.6-0.5c1.1,0,2.4,0.5,3.1,1.2c0.4,0.5,0.3,2-0.2,2.8c-4.1,6.5-8.3,12.9-12.4,19.3
	c-3.6,5.6-7,11.2-10.6,16.7c-0.9,1.5-0.9,2.5,0.1,4c7.2,11.1,14.3,22.3,21.5,33.5c0.4,0.7,1.2,1.2,1.5,1.9
	C164.8,528.6,165.5,530.1,165.2,530.6z M160.9,450.8c0,0.6,0.5,1.1,1.1,1.1c0.6,0,1.1-0.5,1.1-1.1c0-0.6-0.5-1.1-1.1-1.1
	C161.4,449.8,160.9,450.3,160.9,450.8z M116.9,454.5l19.3,30.2h1.5l18.7-29.9l-1.4-1.9l-36.6,0.4L116.9,454.5z M110.7,451.3
	c0,0.6,0.5,1.1,1.1,1.1c0.6,0,1.1-0.5,1.1-1.1c0-0.6-0.5-1.1-1.1-1.1C111.2,450.1,110.7,450.6,110.7,451.3z M134.1,491.4l-0.7-2.3
	L110.7,454h-2.8l-2.4,3.2v67.3l2.4,2.8h2.8L134.1,491.4z M113.4,530.2c0-0.6-0.5-1.2-1.2-1.2c-0.6,0-1.2,0.5-1.2,1.2
	c0,0.6,0.5,1.2,1.2,1.2C112.9,531.4,113.4,530.8,113.4,530.2z M156.9,525.1l-19.1-29.2l-0.7-0.4l-0.9,0.4l-18.8,30.4v1l0.9,0.5h37.2
	l1-0.5L156.9,525.1z M163.5,529.8c0-0.6-0.5-1.1-1.1-1.1c-0.6,0-1.1,0.5-1.1,1.1s0.5,1.1,1.1,1.1C163,530.9,163.5,530.4,163.5,529.8
	z M234.3,530.9c-1,1.7-2.2,2-3.9,0.9c-2-1.3-4-2.6-6-3.9c-1-0.6-1.9-1.4-2.9-1.8c-3.8-1.5-5.2-4.5-5.8-8.3c-0.4-2.6-1.1-5.1-1.6-7.7
	c-0.6-3,0.2-4,3.2-4.8c3.3-0.9,6.1-0.1,8.9,1.8c4.3,2.9,8.8,5.4,13.1,8.2c2.5,1.6,2.7,2.7,1.1,5.3
	C238.4,524,236.3,527.4,234.3,530.9z M222.3,512.8l-4.3-2.7l-0.8,0.6l-0.4,0.7l1.5,6.2l0.7,0.5L222.3,512.8z M270,503.4
	c-0.2,3.8,0,7.6-0.9,11.2c-0.5,2.1-2.4,4-4,5.6c-1.2,1.3-2.8,0.4-3.9-0.6c-3-2.8-6-5.6-8.7-8.6c-0.8-0.9-1.3-2.3-1.3-3.5
	c-0.2-4.5-0.1-9.1-0.2-13.6c0-1.8,0.6-2.5,2.4-2.5c4.4,0.1,8.8,0.1,13.3,0c2.3-0.1,3.1,1.1,3.1,3.1c0,3,0,5.9,0,8.9
	C269.8,503.4,269.9,503.4,270,503.4z M262.5,510.2h-5.8v1.2l5.1,5h0.7V510.2z M311.4,527.4c-0.9,1.8-1.6,3.1-2.4,4.5
	c-3.7,6.7-7.4,13.3-11.1,20c-2.9,5.1-5.8,10.2-8.6,15.4c-1,1.9-2.4,1.8-3.9,0.9c-4.7-2.6-9.3-5.3-14-7.9c-1.6-0.9-1.8-2.2-0.9-3.7
	c3.6-6.4,7.1-12.9,10.7-19.3c1.7-3.1,3.4-6.3,5.3-9.4c0.7-1.1,1.8-2.3,2.9-2.7c3.6-1.3,7.2-2.4,11-3.2c1.4-0.3,3.1,0.2,4.6,0.8
	c1.6,0.6,3.2,1.6,4.7,2.6C310.4,525.9,310.8,526.8,311.4,527.4z M281.7,558.8c0-1.5-1-2.7-2.3-2.7c-1.3,0-2.3,1.2-2.3,2.7
	c0,1.5,1,2.7,2.3,2.7C280.7,561.6,281.7,560.4,281.7,558.8z M298.1,528.1c0-1.2-0.9-2.1-2.1-2.1c-1.2,0-2.1,0.9-2.1,2.1
	s0.9,2.1,2.1,2.1C297.2,530.2,298.1,529.3,298.1,528.1z M232.9,591.9c-0.3,0.4-1.4,0.7-2,0.5c-3.8-1.2-6.8-3.6-9.2-6.8
	c-1.3-1.7-3.4-3.1-5.4-4c-6.7-3.1-13.5-5.9-20.3-8.7c-2-0.8-3.8-2.1-4.2-4.3c-0.6-3.3,0.2-6.5,1.6-9.7c1.9-4.2,3.4-8.6,5.5-12.7
	c1.2-2.4,2.8-4.5,4.6-6.6c0.2-0.2,1.3-0.8,1.8-1.1c0,0,0.7-0.5,1.6-0.5c-0.1-0.1,2.3,0.2,3.4,0.6c6.5,2.7,13,5.6,19.4,8.4
	c3.4,1.5,6.9,1.7,10.7,1.4c3-0.2,6.1,1.3,9.1,2.2c0.3,0.1,0.6,1.1,0.4,1.4c-0.4,0.9-1,1.8-1.8,2.4c-0.4,0.4-1.2,0.2-1.9,0.4
	c-4.1,1-6.7,4.3-6.9,9.2c2-0.7,3.9-1.5,6.3-2.4l-3.8,8.7c-1-0.7-1.9-1.4-3-2.1l-1.9,4.5c1.3,0.3,2.3,0.6,3.5,0.9l-4.2,9.7
	c-1.1-1.8-2.1-3.4-3.4-5.3c-1.2,2.7-2.3,4.9-3,7.2c-0.2,0.7,0.5,1.8,1,2.5c0.5,0.7,1.3,1.2,1.8,2C233,590.5,233.2,591.5,232.9,591.9
	z M205.8,543.2c1.1,0.5,2.3,0,2.8-1.1c0.5-1.1,0-2.3-1.1-2.8s-2.3,0-2.8,1.1C204.2,541.5,204.7,542.7,205.8,543.2z M197.2,569.2
	c0.5-1.2,0.1-2.5-0.8-2.9c-1-0.4-2.2,0.2-2.7,1.4c-0.5,1.2-0.1,2.5,0.8,2.9C195.5,571,196.7,570.3,197.2,569.2z M228.4,567
	c3.4-7.8,2-16.4-7.9-21c-7.1-3.4-13.2,0.3-13.2,0.3l-7.9,19.1c0,0,0.9,6.3,8.6,9.5C216,578.3,225,574.9,228.4,567z M239.8,551.1
	c-0.3,0.6,0,1.4,0.6,1.6c0.6,0.3,1.3-0.1,1.5-0.7s0-1.4-0.6-1.6C240.7,550.2,240,550.5,239.8,551.1z M227.3,586.8
	c0.3-0.7,0-1.4-0.7-1.7c-0.6-0.3-1.4,0-1.7,0.7s0,1.4,0.7,1.7C226.3,587.8,227,587.5,227.3,586.8z M121.2,619.1
	c0,2.3-0.8,3.3-3.2,3.2c-6.6-0.1-13.1-0.1-19.7,0c-1.6,0-2.3-0.6-2.2-2.1c0-0.2,0-0.5,0-0.7C96,605,96,590.4,95.9,575.9
	c0-3.6,0-3.6,3.7-3.7c6.1-0.1,12.2-0.3,18.4-0.5c2.2-0.1,3.1,0.7,3,3c-0.1,7.4,0,14.9,0,22.3c0.1,0,0.1,0,0.2,0
	C121.1,604.4,121.1,611.8,121.2,619.1z M117.8,609.8c0-0.6-0.5-1.2-1.1-1.2c-0.6,0-1.1,0.5-1.1,1.2s0.5,1.2,1.1,1.2
	C117.3,610.9,117.8,610.4,117.8,609.8z M117.8,584.6c0-0.8-0.5-1.5-1.1-1.5c-0.6,0-1.1,0.7-1.1,1.5s0.5,1.5,1.1,1.5
	C117.3,586.1,117.8,585.4,117.8,584.6z M273.1,597.9c-3,5.5-6,11-9,16.6c-3.7,6.8-7.4,13.7-11,20.5c-2.2,4.3-3.4,4.6-7.6,2.3
	c-1.8-1-3.7-2-5.6-3c-2.9-1.5-3.6-3.4-2.1-6.2c5.7-10.4,11.4-20.8,17.1-31.2c3-5.4,3-12.1-5.1-16.8c1.1-2,2.2-3.8,3.2-5.7
	c1-1.8,2-3.7,3.1-6c3.8,2.2,7.7,4,11.1,6.5c1.5,1.1,2.5,3.4,3.2,5.3c1.3,3.6,2.2,7.4,3.4,11C274.6,593.6,274.2,595.8,273.1,597.9z
	 M256.5,615.1l-2.3-1.4c-1.8-1.1-4.2-0.4-5.2,1.4L245,622c-1.1,1.8-0.4,4.2,1.4,5.3l2.3,1.4c1.8,1.1,4.2,0.4,5.2-1.4l3.9-6.8
	C258.9,618.5,258.3,616.2,256.5,615.1z M264.1,600.5l-2.3-1.4c-1.8-1.1-4.2-0.4-5.2,1.4l-3.2,5.6c-1.1,1.8-0.4,4.2,1.4,5.3l2.3,1.4
	c1.8,1.1,4.2,0.4,5.2-1.4l3.2-5.6C266.5,603.9,265.9,601.5,264.1,600.5z M271,592.6l-4.5-13.6l-0.8-1.4l-1.8-1.1h-2.6l-0.5,0.6
	l-2.5,4.3v2.1l1.2,1.7l0.4,3.3l-0.4,5.3l1.2,1.6l5.2,3.5h2l3-4.4V592.6z M204.6,655c-3.5,2.1-7.1,4.2-10.6,6.4
	c-4.6,2.9-9.1,6.1-13.6,9c-2.3,1.5-2.4,2.6,0,4c7,4.1,14.1,8.1,21.2,12.1c1.8,1,2.8,1.9,1,3.9c-0.9,1-1.3,2.4-2.1,4
	c-32.6-18.5-65.2-36.9-97.9-55.4c1-1.8,1.8-3.5,2.8-5.1c1-1.6,2.1-0.5,3.1,0c6.5,3.6,12.9,7.3,20.2,11.3c1.1-3.3,2.1-6,2.9-8.9
	c3.4-12.4,6.8-24.9,10.1-37.3c0.7-2.5,1-5.2,1.8-7.6c0.3-0.9,1.4-1.8,2.3-2.1c0.7-0.2,2,0.2,2.5,0.8c1.9,2.5,3.6,5.2,5.5,7.7
	c6.1,8,12.2,15.9,18.4,23.9c3.2,4.1,6.1,8.6,9.7,12.4c3,3.1,6.7,5.6,10.3,8c4.2,2.9,8.6,5.5,13,8.2
	C206.7,651.3,206.4,653.9,204.6,655z M145,592.3c0,0.7,0.5,1.2,1,1.2c0.6,0,1-0.6,1-1.2c0-0.7-0.5-1.2-1-1.2
	C145.4,591,145,591.6,145,592.3z M135.4,641.8l0.4,0.6L175,637l0.9-1.4l-27.4-36.3l-1.4-0.7l-1,0.7l-10.6,40.3V641.8z M132.1,645.5
	c0-0.6-0.5-1-1-1s-1,0.5-1,1s0.5,1,1,1S132.1,646,132.1,645.5z M177.4,670.9c0-0.6-0.6-1.1-1.3-1.1c-0.7,0-1.3,0.5-1.3,1.1
	c0,0.6,0.6,1.1,1.3,1.1C176.8,672,177.4,671.5,177.4,670.9z M177.4,644.1l-0.8-1.8l-1.8-0.9l-42.2,6.4v2.8l1.4,1.9l34.4,19.6h3.3
	l1.8-2L177.4,644.1z M179.7,638.3c0,0.7,0.6,1.3,1.3,1.3c0.7,0,1.3-0.6,1.3-1.3c0-0.7-0.6-1.3-1.3-1.3
	C180.3,637,179.7,637.6,179.7,638.3z M198.2,652.7l-1.1-1.2l-12.5-8.5l-1.2-0.2l-1.2,0.7l-2.6,19.7l0.7,1.1l1.3,0.2l16-10.6
	L198.2,652.7z M204.3,652.7c0-0.7-0.6-1.2-1.2-1.2c-0.7,0-1.2,0.6-1.2,1.2c0,0.7,0.6,1.2,1.2,1.2C203.8,654,204.3,653.4,204.3,652.7
	z M308.1,679.1c0,1.9-1.4,2.6-3.2,2.6c-7.4,0-14.7,0-22.1,0c-7.3,0-14.6-0.1-21.9,0c-1.8,0-2.7-0.4-2.7-2.4c0-6.8-0.2-13.5-0.2-20.3
	c0-1.8,0.8-2.7,2.7-2.6c2.9,0.1,5.9,0.1,8.8,0c11.7-0.2,23.4-0.3,35-0.5c2.2,0,3.4,0.5,3.4,3C307.9,665.5,308.1,672.3,308.1,679.1z
	 M271.6,660.1c0-0.7-0.6-1.3-1.3-1.3c-0.7,0-1.3,0.6-1.3,1.3c0,0.7,0.6,1.3,1.3,1.3C271,661.4,271.6,660.8,271.6,660.1z
	 M296.6,660.1c0-0.7-0.6-1.2-1.4-1.2s-1.4,0.6-1.4,1.2s0.6,1.2,1.4,1.2S296.6,660.8,296.6,660.1z M327,723.9
	c-4.9,7.9-9.7,15.9-14.6,23.9c-0.4,0.7-1,1.3-1.4,2c-2.4,3.9-4.5,4.4-8.3,1.9c-4.7-3.1-9.5-6-14.3-9c-2.5-1.6-3.3-4.2-1.8-6.7
	c0.7-1.1,1.3-2.2,1.9-3.3c-0.2-0.2-0.4-0.4-0.5-0.5c-0.6,0.6-1.2,1.2-1.6,1.9c-3,5.2-3,5.3-8.2,2.3c-2-1.1-3.9-2.4-5.8-3.6
	c-1.8-1.2-2.4-3.2-1.2-5.4c1.2-2.3,2.7-4.5,4-6.7c4.3-7,8.5-14,12.8-20.9c2-3.3,3.8-3.7,7.1-1.7c2.4,1.4,4.8,2.8,7.1,4.3
	c1.5,1,2.7,2.2,1.1,4.2c-1,1.3-1.6,2.9-2.4,4.4c0.2,0.1,0.4,0.3,0.6,0.4c0.6-0.9,1.1-1.7,1.7-2.6c1.7-2.7,4-3.3,6.7-1.6
	c5.2,3.2,10.4,6.4,15.5,9.7C328,718.3,329.3,720.1,327,723.9z M295.3,707.3c0.4-0.6,0.2-1.4-0.4-1.8l-0.8-0.5
	c-0.6-0.4-1.4-0.2-1.8,0.4l-14,22.4c-0.4,0.6-0.2,1.4,0.4,1.8l0.8,0.5c0.6,0.4,1.4,0.2,1.8-0.4L295.3,707.3z M293.6,735.3l12.5-20.4
	l-0.6-0.4l-12.6,20.5L293.6,735.3z M319.7,721.3l-7.8-4.9c-0.7-0.5-1.7-0.2-2.2,0.5l-13.4,21.5c-0.5,0.7-0.2,1.7,0.5,2.2l7.8,4.9
	c0.7,0.5,1.7,0.2,2.2-0.5l13.4-21.5C320.6,722.8,320.4,721.8,319.7,721.3z M430.1,692.9c-5.4,7.9-10.8,15.8-16.2,23.6
	c-0.5,0.7-1,1.5-1.6,2.2c-3.2,4-5,4.2-9.1,1.2c-4.4-3.3-8.9-6.5-13.4-9.7c-2.3-1.6-2.9-4.4-1.3-6.7c0.8-1.1,1.5-2.1,2.3-3.2
	c-0.3-0.2-0.6-0.4-0.9-0.5c-1,1.4-1.9,2.9-3,4.3c-1.5,2.1-2.5,2.3-4.6,0.8c-2.4-1.8-4.9-3.5-7.3-5.4c-2.3-1.9-2.6-3.7-0.9-6.2
	c5.5-7.9,11.1-15.8,16.7-23.6c0.8-1.1,1.5-2.3,2.4-3.4c1.7-2,3.9-2,6-0.4c2.2,1.7,4.5,3.2,6.8,4.8c2.1,1.4,2.3,2.6,0.9,4.7
	c-0.9,1.4-1.8,2.7-2.7,4.1c0.2,0.2,0.5,0.3,0.7,0.5c0.7-0.9,1.4-1.7,2-2.6c1.6-2.4,4.2-3,6.6-1.3c5.2,3.6,10.4,7.3,15.6,11
	C431.1,688.5,431.6,690.7,430.1,692.9z M399.1,675.2c0.3-0.4,0.2-1-0.2-1.3l-1.4-1c-0.4-0.3-1-0.2-1.3,0.2l-15.1,21.7
	c-0.3,0.4-0.2,1,0.2,1.3l1.4,1c0.4,0.3,1,0.2,1.3-0.2L399.1,675.2z M395.5,703.3l14-19.7l-0.5-0.4c-0.2,0.2-14,19.7-14,19.7
	L395.5,703.3z M422.5,690.4l-7-5c-0.7-0.5-1.7-0.3-2.1,0.4l-14.5,20.9c-0.5,0.7-0.3,1.7,0.4,2.2l7,5c0.7,0.5,1.7,0.3,2.1-0.4
	l14.5-20.9C423.4,691.8,423.2,690.9,422.5,690.4z M439,766.5c-2.6,4.6-5.3,9.1-7.9,13.6c-3.4,5.7-6.8,11.4-10.1,17.1
	c-2.7,4.7-5.5,9.3-8.1,14.1c-0.9,1.6-2,1.6-3.4,0.8c-5.8-3.5-11.6-6.9-17.4-10.4c-6.4-3.9-12.9-7.7-19.3-11.6
	c-12-7.2-24-14.4-36-21.6c-3.5-2.1-7-4.1-10.5-6.2c-2.4-1.5-2.5-2.3-0.6-4.8c6.2,3.7,12.3,7.4,18.5,11.1c2.4,1.4,3.1,1.2,4.4-1.1
	c0.6-1.1,1.4-2.2,1.9-3.4c0.2-0.5,0-1.3,0.1-1.9c0-0.4,0-1,0.3-1.3c1.4-1.5,1.2-4.4,4.2-4.5c0.2,0,0.4-0.5,0.5-0.8
	c2-3.5,4.1-6.9,6-10.4c0.9-1.7,2.1-3.1,2-5.5c-0.1-1.6,1.5-3.6,3.6-5c2-1.4,3-4.5,4.3-6.9c0.1-0.2-0.6-1-1-1.3
	c-4.3-2.7-8.6-5.3-12.9-7.9c-2.2-1.3-4.4-2.7-6.6-4.1c1.4-2.6,2.4-3,4.4-1.7c7.6,4.6,15.2,9.2,22.8,13.8
	c9.8,5.9,19.7,11.8,29.6,17.7c9.5,5.7,19,11.3,28.5,16.9c0.9,0.5,1.8,1.1,2.7,1.6C440.5,763.8,439.7,765.2,439,766.5z M403.1,761
	l5,7.8h10.4l4.9-7.8v-2.2l-12.4-8.1l-2.9,0.8l-5,8.2V761z M401.3,763.2h-2l-1.8,1.7l-7.6,12.5v1.6l1.5,0.7h7.9l5.7-8.1v-1.4
	L401.3,763.2z M397.5,761c1,0,1.8-0.8,1.8-1.8s-0.8-1.8-1.8-1.8c-1,0-1.8,0.8-1.8,1.8S396.5,761,397.5,761z M369.6,743.7
	c0,1.1,0.9,2,2,2c1.1,0,2-0.9,2-2c0-1.1-0.9-2-2-2C370.5,741.6,369.6,742.5,369.6,743.7z M369.9,758.8l15.2,9.4
	c1.4,0.9,3.2,0.4,4.1-1l11.5-18.9c0.9-1.4,0.4-3.2-1-4.1l-15.2-9.4c-1.4-0.9-3.2-0.4-4.1,1l-11.5,18.9
	C368.1,756.1,368.5,758,369.9,758.8z M379.8,787.9l9.1-14.9L364.4,758l-9.1,14.9L379.8,787.9z M400.7,799.9l4.3-7.8v-1.2l-4.9-8.3
	l-10.2,0.3l-4.7,7.9v1.8l11.6,7.9L400.7,799.9z M414.1,795l-0.6-1.7h-5.9l-4.6,7.6v2l2,2.4l2.6-0.2L414.1,795z M415.6,802.6
	c0-0.8-0.7-1.5-1.5-1.5c-0.8,0-1.5,0.7-1.5,1.5c0,0.8,0.7,1.5,1.5,1.5C414.9,804.1,415.6,803.4,415.6,802.6z M422.8,780.7l-4.4-8.2
	h-10.5l-4.8,7.7v1.1l4.8,8.6H418l4.8-8.1V780.7z M424.7,775.4l6.6-10.4v-1.3l-1.4-1.4h-3.8l-4.9,7.5v1.4l1.4,3.4l1.5,0.9H424.7z
	 M433.8,771.6c0-1-0.7-1.8-1.6-1.8c-0.9,0-1.6,0.8-1.6,1.8s0.7,1.8,1.6,1.8C433.1,773.4,433.8,772.6,433.8,771.6z M454.6,813.7
	c-0.1,3.5-0.2,7.1-0.5,10.6c-0.4,4.7-3,7.5-7.9,8.4c-4.6,0.9-9.3,0.8-13.8-0.8c-3.5-1.2-6.8-4.7-6.4-9.1c0.3-3.5,0.4-7.1,0.3-10.6
	c-0.1-2.3,0.8-3.2,3-3c1,0.1,1.9,0,3.1,0c0.1-2.2,0.3-3.9,0.3-5.6c0-2.2,1.1-3.2,3.2-3.1c3.6,0.2,7.2,0.3,10.7,0.5
	c2.1,0.1,2.4,1.6,2.4,3.3c0,1.7,0,3.5,0,5.4c0.5,0.1,1.1,0.2,1.7,0.2C454.4,810,454.7,810.2,454.6,813.7z M433.1,819l-1.7-2l-2.2,0
	c-0.7-0.1-0.5,0.3-0.8,1l-0.2,1v6l1.1,1.8l2,1.1l1.3,0.7L433.1,819z M442.3,824.4c0-1.1-0.9-2-2-2s-2,0.9-2,2c0,1.1,0.9,2,2,2
	S442.3,825.5,442.3,824.4z M442.8,809c0-1.1-0.9-2.1-2.1-2.1s-2.1,0.9-2.1,2.1s0.9,2.1,2.1,2.1S442.8,810.1,442.8,809z M452.4,818.2
	c0,0-2.9,0-4.5,0.2c-0.3,0-0.4,0.9-0.4,0.9v9.6l2.3-0.8l1.6-1.7l0.9-2.3V818.2z M479.6,813c-3,0.8-5.8-0.6-6.8-3.6
	c-1.4-4.1-4.1-6.8-8.1-8.5c-3.8-1.7-4.7-7-1.5-9.9c2.4-2.2,3.4-4.7,3.3-7.8c-0.1-3-0.2-5.9-0.2-8.9c0-1.9,0.6-3.2,2.8-3
	c1.9,0.1,3.8,0,5.6,0c1.8,0,3.6,0.1,5.4,0c2.2-0.1,2.6,1,2.6,2.9c0,9.1,0.1,18.3,0.2,27.4c0,1.5,0.2,3.1,0.5,4.6
	C484.1,809.1,482.3,812.3,479.6,813z M468.6,794.9c0-1-0.8-1.9-1.9-1.9s-1.9,0.8-1.9,1.9c0,1,0.8,1.9,1.9,1.9S468.6,796,468.6,794.9
	z M475.2,781.7c1.3,0,2.3-1,2.3-2.3s-1-2.3-2.3-2.3c-1.3,0-2.3,1-2.3,2.3S473.9,781.7,475.2,781.7z M480.3,807.1c0-1-0.9-1.8-2-1.8
	c-1.1,0-2,0.8-2,1.8s0.9,1.8,2,1.8C479.4,809,480.3,808.1,480.3,807.1z M570.8,752.8c-0.7,1.1-1.3,2-2.2,2.6
	c-7.9,4.7-15.8,9.2-23.7,13.8c-2.7,1.6-5.6,3-8.2,4.8c-1.5,1-2.1,0.5-2.8-1.1c-1.4-2.8-2.8-5.6-4.7-8.1c-2.1-2.8-0.4-4.4,1.4-5.5
	c8.3-4.9,16.7-9.7,25.1-14.5c2-1.2,4-2.5,6.2-3.3c1.1-0.4,3.2-0.3,3.7,0.4c1.9,2.6,3.5,5.4,5.2,8.4
	C571.3,751.1,571.3,752.1,570.8,752.8z M538.3,768l-0.7-0.7l-2,1.2c0.1,0.1,0.5,0.7,0.5,0.7L538.3,768z M544.9,761.4
	c0-1-0.8-1.7-1.7-1.7c-0.9,0-1.7,0.8-1.7,1.7c0,1,0.8,1.7,1.7,1.7C544.1,763.1,544.9,762.3,544.9,761.4z M551,757.6
	c0-0.9-0.9-1.7-2.1-1.7c-1.2,0-2.1,0.8-2.1,1.7c0,0.9,0.9,1.7,2.1,1.7C550.1,759.3,551,758.5,551,757.6z M562.6,752.2
	c0-2.4-2-4.3-4.5-4.3c-2.5,0-4.5,1.9-4.5,4.3c0,2.4,2,4.3,4.5,4.3C560.6,756.5,562.6,754.5,562.6,752.2z M510.4,747.1
	c-0.1,6.1-0.6,7.9-5.7,7.9c-5.3,0-14.9,0-20.5,0.2c-0.6,0-1-0.4-1.1-1c0-2.2-0.2-6.3-0.3-7.4c-0.2,0-0.9-0.1-0.9,0.1
	c0.2,5.3,0.3,6.1,0,7.7c-0.1,0.4-0.3,1-1.2,1c-4.9,0-13.9,0-18.9,0c-4.5,0-5.1-2.3-5.1-8.1c0-8.2,0-16.2,0.1-24.4
	c0.1-8.4-0.8-9.2,8.2-9.1c4.1,0,7.7,0,12.1,0.1c3.3,0,4.9,0.4,4.8,3.2c0,1.2,0,3.1,0,4.3c0.2,0,0.3,0,0.5,0c0-0.6,0-2,0-2.5
	c0-5.1-0.2-5,4.9-5.1c5.7-0.1,11.4-0.4,17.1-0.5c4.4-0.1,5.5,1.8,5.6,6.5C510.4,729,510.5,738.1,510.4,747.1z M475.3,722.2
	c0-1-0.8-1.8-1.8-1.8h-8.4c-1,0-1.8,0.8-1.8,1.8V747c0,1,0.8,1.8,1.8,1.8h8.4c1,0,1.8-0.8,1.8-1.8V722.2z M504.3,721.5
	c0-0.6-0.5-1.1-1.1-1.1h-9.6c-0.6,0-1.1,0.5-1.1,1.1v26.2c0,0.6,0.5,1.1,1.1,1.1h9.6c0.6,0,1.1-0.5,1.1-1.1V721.5z M702.4,337.2
	c-2,7.3-4,14.5-6.1,21.8c-1,3.5-1.9,7-3,10.4c-0.7,2.2-2.5,3.1-5.1,2.5c-5.7-1.5-11.4-3.2-17.1-4.8c-0.5-0.2-3.6-1.3-4.1-1.3
	c-1.9-0.3,0.8-7.1,1-8.4c0-0.1-0.3-0.2-0.4-0.2c-0.6,0.6-1.4,4.5-2.3,6.5c-0.3,0.7-1.1,1.1-1.9,0.9c-5.6-1.3-13.1-3.4-18.3-4.8
	c-2.4-0.7-3.8-3.3-3.1-5.7c2.5-8.8,4.9-17.7,7.4-26.5c0.5-1.7,0.9-3.5,1.5-5.2c0.7-2.2,2.7-3.3,4.8-2.7c5.4,1.5,13.2,3.3,18.9,5
	c1,0.3,1.1,1.5,0.9,2.4c-0.5,1.9-1.6,5.2-1.6,6.8c0,0.3,0.5,0,0.6,0.2c0.5-1.8,1.7-7.4,2.9-8.2c2.7,0.1,16.1,4.4,22.4,6.2
	C701.7,332.8,702.9,335.4,702.4,337.2z M666,328.8l-8.1-2.1c-0.9-0.2-1.8,0.3-2,1.2l-6.3,24.3c-0.2,0.9,0.3,1.8,1.2,2l8.1,2.1
	c0.9,0.2,1.8-0.3,2-1.2l6.3-24.3C667.4,329.9,666.9,329,666,328.8z M694.4,337.4l-9.4-2.6c-0.6-0.2-1.2,0.2-1.3,0.8l-6.9,25
	c-0.2,0.6,0.2,1.2,0.7,1.3l9.4,2.6c0.6,0.2,1.2-0.2,1.3-0.8l6.9-25C695.3,338.2,695,337.6,694.4,337.4z M773.8,371.5
	c-7.5,3.2-15.1,6.3-22.7,9.4c-2.4,1-5.2-0.2-6.3-2.6c-1.8-4.2-3.5-8.5-5.3-12.7c-0.5-1.2-1.1-2.4-1.5-3.6c-0.6-1.8-1.6-2.4-3.5-1.6
	c-7.9,3.4-15.9,6.7-23.8,10.2c-1.5,0.7-2,0.3-2.5-1c-0.8-2-1.8-3.9-2.5-5.9c-0.3-0.8-0.3-2.3,0.2-2.6c1.8-1.1,3.7-1.9,5.7-2.7
	c0.3-0.1,1,0.4,1.2,0.9c0.9,2.1,2.2,1.6,4.2,0.5c2-1.1,4.2-2.1,6.4-2.7c2.5-0.7,2.3-1.9,1.8-3.6c-0.2-0.9,0.2-1.8,1-2.1
	c8.1-3.3,15.3-5.5,23.3-7.3c3.9-1.2,7.8-2.3,11.6-3.5c2.2-0.7,4.3,0.2,5.1,2.1c0.8,1.9-0.1,4.4-2.2,5.1c-1.6,0.5-3.5,0.8-5.1,0.5
	c-6.4-1.5-13.2,2-15.2,8.1c-2.3,6.8,0.9,13.9,6.9,16.8c6.3,3,14.1-0.4,16.3-5.8c0.8-2,4.3-3.6,6.4-3.2c1.7,0.3,2.8,1.3,3,3.1
	C776.7,369.2,775.7,370.7,773.8,371.5z M761.4,344c0,0.8,0.7,1.5,1.5,1.5c0.8,0,1.5-0.7,1.5-1.5c0-0.8-0.7-1.5-1.5-1.5
	C762.1,342.6,761.4,343.2,761.4,344z M741,354.1c0-0.9-0.7-1.7-1.5-1.7c-0.8,0-1.5,0.8-1.5,1.7c0,0.9,0.7,1.7,1.5,1.7
	C740.4,355.8,741,355,741,354.1z M750.7,377.6c0-0.7-0.6-1.4-1.3-1.4c-0.7,0-1.3,0.6-1.3,1.4c0,0.7,0.6,1.4,1.3,1.4
	C750.1,378.9,750.7,378.3,750.7,377.6z M774.2,367.6c0-0.8-0.5-1.5-1.1-1.5c-0.6,0-1.1,0.7-1.1,1.5c0,0.8,0.5,1.5,1.1,1.5
	C773.7,369.1,774.2,368.5,774.2,367.6z M769.2,407.4c0,1.6-0.6,2.4-2.4,2.4c-3.4,0-6.9,0.3-10.3,0.1c-2.7-0.1-4.7,0.9-6.4,2.8
	c-3.6,3.9-7.7,3.1-10.1-1.6c-1.7-3.4-4.3-6-7.9-7.2c-3-1.1-4.7-3.5-4.4-6.7c0.4-3.1,2.7-5.1,6-5.3c0.1,0,0.2,0,0.2,0
	c2.3,0,4.6,0,6.9,0c0,0,0,0,0,0.1c8.6,0.3,17.1,0.6,25.7,0.9c1.6,0.1,2.4,0.8,2.4,2.4C769.1,399.3,769.2,403.3,769.2,407.4z
	 M735.2,398.3c0-1.4-1-2.5-2.2-2.5s-2.2,1.1-2.2,2.5c0,1.4,1,2.5,2.2,2.5S735.2,399.6,735.2,398.3z M747.6,409.7
	c0-1.4-1.2-2.6-2.6-2.6c-1.4,0-2.6,1.2-2.6,2.6c0,1.4,1.2,2.6,2.6,2.6C746.4,412.3,747.6,411.1,747.6,409.7z M762.6,401.4
	c0-1.4-1.2-2.6-2.6-2.6s-2.6,1.2-2.6,2.6s1.2,2.6,2.6,2.6S762.6,402.8,762.6,401.4z M516.9,697.7c-13.1,0.1-26.2,0-39.3,0.3
	c-5.5,0.1-9-2.9-8.6-8.9c0.1-1,0-2,0-3.4c-2.4,0-4.8,0-7.1,0c-3.3,0-4.5-1.3-4.5-4.6c0-2.9-0.2-5.8-0.1-8.7c0-2.9,1.2-4,4.1-4.1
	c2.4-0.1,4.9,0,7.6,0c0-2.1-0.1-3.9,0-5.7c0.1-4.2,2.7-6.6,6.8-6.7c13.6-0.2,27.3-0.3,40.9-0.5c2.9,0,3.4,0.4,3.4,3.4
	c0.1,11.7,0.1,23.4,0.2,35.2C520.3,697.6,520.2,697.7,516.9,697.7z M466.8,677.4c0-0.7-1.8-1.3-4-1.3c-2.2,0-4,0.6-4,1.3
	c0,0.7,1.8,1.3,4,1.3C465,678.7,466.8,678.1,466.8,677.4z M512.4,663.9c0,1.1,0.8,1.9,1.7,1.9c0.9,0,1.7-0.9,1.7-1.9
	c0-1.1-0.8-1.9-1.7-1.9C513.1,662,512.4,662.8,512.4,663.9z M488.6,665.9c1,0,1.8-0.8,1.8-1.8c0-1-0.8-1.8-1.8-1.8
	c-1,0-1.8,0.8-1.8,1.8C486.8,665.1,487.6,665.9,488.6,665.9z M490.8,690c0-0.9-0.7-1.6-1.6-1.6c-0.9,0-1.6,0.7-1.6,1.6
	s0.7,1.6,1.6,1.6C490,691.6,490.8,690.9,490.8,690z M514.5,676.8c0-7.3-5.9-13.3-13.2-13.3c-7.3,0-13.2,5.9-13.2,13.3
	s5.9,13.3,13.2,13.3C508.6,690.1,514.5,684.1,514.5,676.8z M516.1,690c0-0.9-0.7-1.6-1.6-1.6c-0.9,0-1.6,0.7-1.6,1.6
	s0.7,1.6,1.6,1.6C515.3,691.6,516.1,690.9,516.1,690z M575.3,686.4c0,6.5,0,13-0.3,19.5c-0.1,2-1.7,3.3-3.6,3.3c-11,0.1-22,0.1-33,0
	c-2.8,0-4.6-1.9-4.6-4.7c0-6,0.1-12.1,0.1-18.1c0-2.1,1.2-2.7,3.1-2.7c1.6,0,4.3,0,6,0c0-0.2-0.1-0.4-0.1-0.5c-1.8,0-4.7,0-6.4,0
	c-1.7,0-2.6-1.1-2.6-2.8c0.1-7.3,0.1-14.5,0.2-21.8c0-2,1.1-3.3,3-3.6c1.9-0.3,3.7-0.3,5.6-0.3c9.1,0.1,18.2,0.2,27.3,0.2
	c3.9,0,5.2,1.2,5.2,5.2c0,6.3,0,12.6,0,18.8c0,3.9-0.6,4.8-4.4,4.8c-1.1,0-2.5-0.1-3.7,0c0,0.1,0,0.6,0,0.6s4.9,0,6.5-0.1
	C575.6,684.1,575.3,684.8,575.3,686.4z M568.2,673.9c0.5,0,0.9-0.4,0.9-0.9v-10c0-0.5-0.4-0.9-0.9-0.9h-25.9c-0.5,0-0.9,0.4-0.9,0.9
	v10c0,0.5,0.4,0.9,0.9,0.9H568.2z M569.1,693c0-1.2-1-2.2-2.2-2.2h-23.4c-1.2,0-2.2,1-2.2,2.2v7.6c0,1.2,1,2.2,2.2,2.2h23.4
	c1.2,0,2.2-1,2.2-2.2V693z M716.2,466.6c-0.9,1.9-1.5,3.4-2.3,4.8c-5.7,10.3-11.5,20.5-17.3,30.8c-2.5,4.4-4.8,8.9-7.4,13.2
	c-0.6,1.1-1.9,2.1-3.1,2.4c-2.5,0.6-4,2-5.2,4.1c-6.7,12-13.4,24-20,36c-7,12.6-14.1,25.3-21.1,37.9c-0.9,1.6-1.6,3.2-0.8,5.1
	c1.7,3.9-1,6.8-2.7,9.8c-3.6,6.6-7.4,13.1-11,19.7c-4.1,7.4-8.1,14.8-12.2,22.1c-1.3,2.3-3.5,3.2-5.8,1.9
	c-5.3-2.8-10.6-5.7-15.7-8.8c-2.9-1.7-3.3-4.1-1.7-7c3.8-6.8,7.7-13.7,11.5-20.5c4.6-8.3,9.2-16.6,13.9-24.8
	c0.7-1.2,2.3-2.2,3.6-2.9c2-1,3.7-1.8,4.9-4.1c7.2-13.2,14.7-26.2,22.1-39.4c6.3-11.3,12.4-22.7,18.8-33.9c1.3-2.3,1.8-4.4,1-6.8
	c-0.9-2.6,0.4-4.7,1.6-6.7c5.9-10.7,11.8-21.3,17.8-31.9c2.2-3.9,4.4-7.8,6.7-11.7c1.6-2.8,3.5-3.3,6.4-1.7
	c5.2,2.9,10.5,5.8,15.7,8.9C714.8,464,715.4,465.5,716.2,466.6z M704.7,462l-0.6-0.3c-0.9-0.5-2-0.2-2.5,0.7L600.7,644.2
	c-0.5,0.9-0.2,2,0.7,2.5l0.6,0.3c0.9,0.5,2,0.2,2.5-0.7l100.9-181.8C705.9,463.6,705.5,462.5,704.7,462z M469.2,599.2
	c-0.1,0.5,0.2,0.9,0.7,0.9c0.7-0.1,1.4-0.2,2.1-0.1c0.4,0,0.6,0.4,0.4,0.8c-0.9,1.8-1.3,3.1-2.5,4.8c-0.3,0.6-0.9,1.2-1.5,2
	c-0.3,0.4-0.9,0.5-1.4,0.3c-0.8-0.3-1.9-0.7-2-0.9c-0.9,1.7-1.7,3.4-2.6,5.1c1.9,0.9,1.6,0.9,2.7,1.5c1.2,0.6-0.1,2.7-1,4.7
	c-0.2,0.4-1.7,4.2-2.4,2.9c-0.3-0.5-0.6-1.7-1.1-2.3c-0.3-0.4-0.8-0.3-1,0.1c-1.1,2.1-2,3.2-2.8,5.1c-0.3,0.7,0.6,2,1.1,2.6
	c1.3,1.4,0.4,3.1-0.3,4.2c-0.3,0.5-1.8,0.7-2.3,0.4c-2.9-1.7-6.1-3.1-7.9-6.4c-2.2-4.2-6.5-5.7-10.5-7.6c-5.2-2.6-10.5-5.2-15.1-7.5
	l-2.6-1.5c-0.9-0.6-0.8-1-0.9-1.4l-0.1-4.1c-0.1-3.3,1.1-6.8,2.7-9.8c2-4.1,3.7-8.4,6.2-12.2c3.8-5.8,7.4-6.3,13.5-3
	c5.8,3.1,11.6,6.1,17.7,8.7c2.3,1,5.2,0.4,7.8,0.8c2.2,0.3,4.4,1,6.5,1.5c0.5,0.1,0.9,0.4,1.3,0.6c2.1,0.5,2.6,1.7,1.5,3.6
	C471.4,593.3,470.7,594.2,469.2,599.2z M423.2,602.8l-1.8-0.9c-0.7-0.4-1.6-0.1-2,0.6l0,0c-0.4,0.7-0.1,1.6,0.6,2l1.8,0.9
	c0.7,0.4,1.6,0.1,2-0.6l0,0C424.2,604.1,423.9,603.2,423.2,602.8z M426.3,597.7c0-1.5-1.1-2.7-2.4-2.7c-1.3,0-2.4,1.2-2.4,2.7
	c0,1.5,1.1,2.7,2.4,2.7C425.3,600.4,426.3,599.2,426.3,597.7z M434.8,579.4l-2.8-1.2c-0.6-0.2-1.2,0-1.5,0.6l-0.3,0.8
	c-0.2,0.6,0,1.2,0.6,1.5l2.8,1.2c0.6,0.2,1.2,0,1.5-0.6l0.3-0.8C435.6,580.3,435.3,579.6,434.8,579.4z M451.5,606.5
	c0-1.6-1.1-2.9-2.6-2.9c-1.4,0-2.6,1.3-2.6,2.9s1.1,2.9,2.6,2.9C450.4,609.3,451.5,608.1,451.5,606.5z M452.9,624.9
	c0-1-0.8-1.9-1.8-1.9s-1.8,0.8-1.8,1.9s0.8,1.9,1.8,1.9S452.9,625.9,452.9,624.9z M464.5,599.6l-2.3-1c-0.7-0.3-1.4,0-1.7,0.7
	l-0.3,0.8c-0.3,0.7,0,1.4,0.7,1.7l2.3,1c0.7,0.3,1.4,0,1.7-0.7l0.3-0.8C465.5,600.7,465.2,599.9,464.5,599.6z M469.3,590.7
	c0-0.9-0.8-1.7-1.7-1.7c-0.9,0-1.7,0.8-1.7,1.7c0,0.9,0.8,1.7,1.7,1.7C468.5,592.4,469.3,591.6,469.3,590.7z M651.6,681.2
	c0,4.5,0,8.6,0,12.9c-0.6,0.1-1.2,0.2-1.9,0.3c-3.7,0.1-3.7,0.1-3.6,3.9c0,2.8,0.1,5.6,0.3,8.4c0.1,1.9-0.7,2.6-2.5,2.3
	c-1.9-0.3-4,0.4-5.6-1.6c-0.5-0.6-1.9-0.8-2.9-0.8c-4.8-0.1-9.5,0-14.3,0c-2.8,0-5,1-6.9,3.1c-0.8,0.8-2.1,1.5-3.2,1.5
	c-3.4,0.3-6.7,0.1-9.4-2.5c-3.1-3.1-2.9-5.1,1.1-6.9c0.5-0.2,1-0.5,1.6-0.7c5.9-1.9,5.9-1.9,5.9-8.1c0-4.6-0.1-9.2-0.1-13.9
	c0-2.1-0.9-3.2-2.8-3.7c-2.2-0.6-4.4-1.3-6.5-2.1c-0.6-0.2-1.3-1.1-1.4-1.7c-0.3-2.1,3.3-6.2,5.5-6.3c1.4-0.1,2.8-0.2,4.2-0.3
	c2.2-0.1,4.1-0.1,5.9,2c1,1.2,3.3,1.8,5,1.9c4,0.3,8,0.1,12,0.1c2.4,0,4.7-0.1,7-1.5c1.5-0.9,3.8-0.7,5.7-0.6c0.4,0,1.2,1.2,1.2,1.9
	c0.1,3.1,0.1,6.3,0,9.4c0,2,0.5,3,2.7,2.7C649.4,680.7,650.4,681,651.6,681.2z M606.9,668.5c0-1.3-1-2.3-2.1-2.3
	c-1.2,0-2.1,1-2.1,2.3s1,2.3,2.1,2.3C605.9,670.8,606.9,669.8,606.9,668.5z M607.3,706.9c0-1.2-1-2.2-2.3-2.2c-1.3,0-2.3,1-2.3,2.2
	c0,1.2,1,2.2,2.3,2.2C606.3,709.1,607.3,708.1,607.3,706.9z M643.9,687.2c0-8.8-7.1-16-15.9-16c-8.8,0-15.9,7.2-15.9,16
	s7.1,16,15.9,16C636.8,703.2,643.9,696,643.9,687.2z M707.1,561.5c-1.4,1.8-1.8,3.5-1.4,5.7c0.2,1.1,0,2.5-0.6,3.5
	c-3.5,5.8-7.2,11.5-10.9,17.1c-0.4,0.6-1,1.3-1.6,1.4c-3.1,0.1-4.7,2.1-6,4.4c-1,1.9-2.2,1.6-3.6,0.7c-4.8-3.1-9.5-6.3-14.7-9.7
	c3.3-5.2,6.4-10.2,9.6-15.3c4-6.3,7.9-12.5,11.9-18.8c0.8-1.3,1.4-2.3,3.4-2c1.1,0.2,2.3-1.3,3.6-1.8c0.9-0.3,2.1-0.7,2.8-0.3
	c2.1,1.1,4,2.5,6,3.8c1.4,0.9,1.9,2,1.6,3.7c-0.4,1.7-0.7,3.3,0.7,4.9C708.2,559.1,707.7,560.8,707.1,561.5z M694.7,564.9
	c0.8-1.4,0.4-3.2-0.9-4l-2.2-1.4c-1.4-0.9-3.2-0.4-4,0.9l-10,16.1c-0.8,1.4-0.4,3.2,0.9,4l2.2,1.4c1.4,0.9,3.2,0.4,4-0.9
	L694.7,564.9z M696.1,581.7l-4.1-2.9l-1.2,1.8l4.1,2.9L696.1,581.7z M697.6,576.8c0-1-0.8-1.9-1.7-1.9c-0.9,0-1.7,0.8-1.7,1.9
	c0,1,0.8,1.9,1.7,1.9C696.8,578.7,697.6,577.8,697.6,576.8z M701,573.4l-4-2.8l-1.2,1.7l4,2.8L701,573.4z M774.5,448.7
	c-2.2,3.5-3.5,7.2-3.3,11.4c0.1,2.7,0,5.4,0.1,8.2c0.1,2.1-0.7,3-2.9,2.9c-3.4-0.1-6.7,0-10.1,0c-3.3,0-6.6-0.1-9.8,0
	c-1.9,0.1-2.6-0.8-2.7-2.6c0-3.5-0.2-6.9-0.2-10.4c-0.1-3.8-1.6-6.9-3.8-9.9c-0.6-0.9-1.1-2.1-1.1-3.1c-0.1-7.3-0.1-14.7-0.1-22
	c0-4.1,4.5-6.8,8.2-4.9c0.4,0.2,1,0.8,1,1.2c0.1,2.6,0.9,5.1-1.2,7.5c-3.2,3.6-4.2,8-2.6,12.6c2,5.7,6.1,8.7,12,9.2
	c4.6,0.4,10-3,12-7.8c2-4.8,1.6-9.7-2-13.6c-2.4-2.6-1.6-5.3-1.6-8.1c0-0.3,0.4-0.9,0.6-0.9c2.1-0.1,4.3-0.4,6.3,0.1
	c1.7,0.5,2.3,2.3,2.3,4.3c0,7.3,0.2,14.5,0.1,21.8C775.8,445.8,775.3,447.4,774.5,448.7z M743.8,422.7c0,0.7,0.6,1.3,1.3,1.3
	s1.3-0.6,1.3-1.3s-0.6-1.3-1.3-1.3S743.8,422,743.8,422.7z M746.3,448.3c0-0.7-0.6-1.3-1.3-1.3c-0.7,0-1.3,0.6-1.3,1.3
	c0,0.7,0.6,1.3,1.3,1.3C745.8,449.6,746.3,449,746.3,448.3z M760.4,464.8c0-1.3-0.9-2.3-2-2.3c-1.1,0-2,1-2,2.3c0,1.3,0.9,2.3,2,2.3
	C759.5,467.1,760.4,466,760.4,464.8z M771.9,422.5c0-0.7-0.5-1.2-1.2-1.2s-1.2,0.5-1.2,1.2s0.5,1.2,1.2,1.2S771.9,423.1,771.9,422.5
	z M772.2,448.3c0-0.7-0.6-1.3-1.3-1.3c-0.7,0-1.3,0.6-1.3,1.3c0,0.7,0.6,1.3,1.3,1.3C771.6,449.6,772.2,449,772.2,448.3z
	 M639.5,402.1c-0.3,1.9-2,2.1-4,1.5c-3.4-1.1-7-1.7-10.5-2.7c-0.8-0.2-0.9-1.2-1.3-1.4c-0.1-4.8,0.9-5.9,4.9-4.8
	c2.9,0.8,6.5,1.7,9.4,2.5C641.4,398,639.8,400.4,639.5,402.1z M629.7,398.2c0-1.2-0.9-2.3-2-2.3c-1.1,0-2,1-2,2.3
	c0,1.2,0.9,2.3,2,2.3C628.8,400.5,629.7,399.5,629.7,398.2z M638,400.1c0-1-0.8-1.8-1.8-1.8c-1,0-1.8,0.8-1.8,1.8
	c0,1,0.8,1.8,1.8,1.8C637.1,401.9,638,401.1,638,400.1z M754.5,645.2c-11.4,6.9-22.8,13.9-34.2,20.8c-8.5,5.1-17,10.2-25.5,15.3
	c-7.6,4.6-15.1,9.2-22.7,13.8c-2.7,1.6-3.1,1.5-4.8-1.4c6.2-3.8,12.3-7.4,18.3-11.1c2.8-1.7,2.8-2,1.1-4.8c-0.5-0.8-0.9-1.6-1.4-2.3
	c-0.6-0.9-1.2-1.6-2.4-2.2c-1.4-0.6-3-3.2-2.9-4.7c0.2-2.1-0.8-3.4-1.6-4.8c-2-3.6-4.2-7-6.4-10.4c-0.8-1.1-2.2-1.8-3-2.9
	c-1-1.3-1.3-2.7-1.6-4.5c-0.4-2.5-2.6-4.8-4.2-7c-0.2-0.2-1.5,0.2-2.2,0.6c-5.8,3.4-11.6,6.9-17.4,10.4c-1,0.6-1.6,1.5-2.5,0
	c-0.9-1.4-0.7-2.3,0.8-3.2c7.4-4.4,14.8-9,22.2-13.5c17.5-10.6,35-21.2,52.5-31.8c3.1-1.9,6.1-3.8,9.2-5.7c1.2-0.7,2.1-0.6,2.8,0.7
	c4.2,7.2,8.5,14.5,12.8,21.7c4.6,7.8,9.3,15.6,14,23.3C756.6,643.3,756.3,644.1,754.5,645.2z M733.6,617.8h-9.8l-5.1,9.3l5.1,9
	l10-0.3l4.8-9.4L733.6,617.8z M727.9,605.3c0,1,0.8,1.9,1.9,1.9c1,0,1.9-0.8,1.9-1.9c0-1-0.8-1.9-1.9-1.9
	C728.8,603.4,727.9,604.2,727.9,605.3z M718.8,607.1l0.7,1.3l3.2,6.1l1,0.6h4.6l0.7-0.9v-2l-5.4-8.8l-0.6-0.7h-2l-2.3,2.6V607.1z
	 M700.8,617.8l4,6.8l1.2,1.4h1.3l8.5-0.4l4.3-7.5l0.5-1.7l-0.7-1.8l-3.8-6.2l-0.8-0.5h-3.1l-10.3,6.4l-1.2,1.7V617.8z M699.7,639.9
	l-6.2-10.7l-15,8.7l6.2,10.7L699.7,639.9z M710.3,658l-6.2-10.7l-15,8.7l6.2,10.7L710.3,658z M716.6,645.7l4.1-7.8l0.3-1.2l-5.4-8.1
	h-8.4l-1.1,0.6l-0.5,1.3l0.4,1.2l8.4,14.1l1.2,1L716.6,645.7z M738.7,645.7l-4.1-6.9l-10.7,0.4l-4.8,8.6v1.4l4.8,7.5l3.6,0.3
	l10.5-6.9l0.8-1.2v-1.7V645.7z M747,642.3l-5.7-9.4l-1.8-0.5l-2.4,4.2v2.2l4.9,6.9l1.4,1l2-1l1.6-1.6V642.3z M750.1,636
	c0-1-0.8-1.9-1.9-1.9c-1,0-1.9,0.8-1.9,1.9c0,1,0.8,1.9,1.9,1.9C749.3,637.9,750.1,637.1,750.1,636z M781.9,581.6
	c-0.5,0.7-1.5,1.1-2.3,1.2c-0.3,0-1.2-1-1.2-1.6c-0.1-3.9,0-7.8-0.1-11.6c0-3.3-0.2-6.6-0.1-9.9c0-1.5-0.5-2.1-2-2
	c-2.1,0.1-4.8-0.7-6.2,0.4c-1.7,1.2-3.1,1.1-4.7,1.1c-0.8,0-1.6-0.7-2.5-1c-0.7-0.2-1.4-0.5-2.1-0.4c-4.5,0-9,0-13.5,0.3
	c-2.2,0.1-4.2,1.1-6.4,1.4c-0.8,0.1-1.8-0.7-2.7-0.9c-1.2-0.3-2.5-0.4-3.8-0.4c-5.4,0-5.4,0-5.4,5.5c0,6.5,0,13,0,19.7
	c-3.1,0-3.6-0.4-3.6-3.3c-0.1-7.4-0.1-14.9-0.1-22.3c-0.1-12.2-0.2-24.4-0.2-36.6c-0.1-12.8-0.2-25.6-0.3-38.4
	c0-0.7,0.1-1.4,0.1-2.4c18.7,0,37.4,0,56.1,0c0.1,2.4,0.4,4.7,0.4,7c0.1,9,0.2,18,0.3,27c0.2,21.7,0.3,43.4,0.5,65.1
	C782.1,580,782.3,581,781.9,581.6z M768.7,483.5c0,1.1,0.9,2,2,2c1.1,0,2-0.9,2-2c0-1.1-0.9-2-2-2
	C769.6,481.5,768.7,482.4,768.7,483.5z M764.8,487.3l-3.6,4.7v2l4.7,8.4h9.1l2.3-2.6v-10.9l-1.6-1.6H764.8z M748.2,533.7h9.7
	l5.1-8.5v-1.6l-4.8-7.8h-10l-5.2,8.5v1.4L748.2,533.7z M740,526.1h-9.1l-2.1,2.7v13.8l2.1,2.1l9.4-0.5l4.2-7.1v-3.6L740,526.1z
	 M762.6,504.5V503l-4.7-7.9l-0.9-0.5h-8.3l-1.2,0.5l-4.7,9.1l5,8.7h10L762.6,504.5z M743.6,484.2l4.1,7.8h9.6l4.6-7.6v-1.9h-17.4
	L743.6,484.2z M732.9,483.5c0,1.1,0.9,2,2,2c1.1,0,2-0.9,2-2c0-1.1-0.9-2-2-2C733.8,481.5,732.9,482.4,732.9,483.5z M728.3,500.7
	l1.6,1.7h10l4.7-8.1V492l-2.9-4.3h-11.8l-1.6,1.4V500.7z M728.6,521.4l2,2.5h9.3l4.7-8.1l0.3-3l-4.7-7.2h-9.6l-2.3,2.9L728.6,521.4z
	 M743.6,551.7l-3.5-4.8l-9.2,0.5l-2.2,2.5l0.3,3.9l0.8,0.5l13.1,0l0.7-0.9V551.7z M763.1,545.5v-1.2l-5.1-7.6h-9.5l-4.8,8.5v1
	l4.8,8.1h9.7L763.1,545.5z M777.9,549.1l-2.2-2.4l-8,0.2l-2.4,0.7l-2.3,5.2v1.2l1.2,0.4h11.7l2-1.5V549.1z M777.9,541.4l-0.3-13.1
	l-1.6-2.3h-9.7l-4.8,8.1v2.6l4.8,7.3h8.9L777.9,541.4z M777.9,520.2l-0.6-12.8l-2-1.7h-9.2l-4.9,8.3v1.9l4.9,7.4h8.3L777.9,520.2z
	 M692.5,413.9c0,4.5-1.3,5.7-5.7,5.7c-6.1,0-12.1,0-18.2,0c-6.2,0-12.5,0-18.7,0c-16.6,0.1-33.2,0.3-49.8,0.5c-4,0-5.4-1.3-5.5-5.5
	c-0.1-11.4-0.2-22.8-0.3-34.2c0-3.5,1.4-4.9,4.8-5c11.1-0.2,22.2-0.4,33.3-0.5c11.6-0.1,23.3,0,34.9,0c6.4,0,12.7-0.3,19.1-0.5
	c3.6-0.1,5.5,1.8,5.7,5.4c0.1,1.5,0,3,0,4.5C692.3,394.2,692.4,404,692.5,413.9z M657.4,380h-48.7v33.9h48.7V380z M683.5,399.4
	c0-4.2-2.8-7.7-6.6-8.9c-0.1,0-0.1,0-0.2-0.1h0l-0.1-6.1l-0.8-0.7l-1.3-0.8h-1.2l-1.6,1.4l0,6.2c-3.9,1.1-6.7,4.7-6.7,9
	c0,5.1,4.1,9.3,9.2,9.3C679.3,408.7,683.5,404.5,683.5,399.4z M780.1,231.3c0,32.4,0,64.6,0,97.1c-1.4,0-3.3,0.1-5.1-0.1
	c-0.5,0-1.1-0.6-1.2-1.1c-0.3-0.8-0.2-1.6-0.3-2.4c-0.1-8.3-0.2-16.5-0.2-24.8c0-1.6-0.5-2.3-2-3.2c-1.7-1-3-2.8-4.4-4.3
	c-4.2-4.9-8.4-9.9-12.6-14.8c-2.3-2.7-4.3-2.5-6.6,0.2c-4.2,5.1-8.5,10.1-12.7,15.2c-0.7,0.8-1.2,1.8-1.9,2.4
	c-0.7,0.6-1.6,1.3-2.5,1.5c-0.4,0.1-1.5-0.8-1.4-1.3c0-0.9,0.4-1.8,1-2.5c3.3-4,6.7-8,10.1-12c1.9-2.3,3.7-4.6,5.6-6.8
	c2-2.4,2.2-4.3,0.2-6.6c-5.1-6-10.3-12-15.5-18c-0.3-0.4-2.1-2.2-2-3.2c0.1-0.8,1.4-2.3,2.2-2.2c0.7,0.1,1.6,0.9,2.1,1.5
	c5.3,6.2,10.4,12.5,15.8,18.7c1.7,1.9,3.9,1.7,5.5-0.2c4.7-5.7,9.4-11.3,14-17.1c1.1-1.4,1.7-2.9,3.8-2.9c0.2,0,0.7-1.3,0.7-2.1
	c0.1-3,0.1-5.9,0-8.9c0-1.7,0.6-2.4,2.3-2.3C776.5,231.3,778,231.3,780.1,231.3z M731.4,246.6c0-0.3-0.2-0.6-0.5-0.6
	s-0.5,0.2-0.5,0.6c0,0.3,0.2,0.6,0.5,0.6S731.4,246.9,731.4,246.6z M731.7,294.8c0-0.3-0.3-0.6-0.6-0.6c-0.3,0-0.6,0.3-0.6,0.6
	c0,0.3,0.3,0.6,0.6,0.6C731.5,295.4,731.7,295.1,731.7,294.8z M770.7,246.4c0,0.4,0.3,0.6,0.7,0.6s0.7-0.3,0.7-0.6
	c0-0.4-0.3-0.6-0.7-0.6S770.7,246.1,770.7,246.4z M772.2,294.5c0-0.5-0.3-0.8-0.8-0.8c-0.4,0-0.8,0.4-0.8,0.8c0,0.5,0.3,0.8,0.8,0.8
	C771.8,295.3,772.2,294.9,772.2,294.5z M776.2,251.6c0-0.5-0.2-0.9-0.5-1.2l-1.1-1.2c-0.3-0.3-0.8-0.5-1.3-0.5h-0.8
	c-0.5,0-1,0.2-1.4,0.6l-15.6,18.8c-0.2,0.2-0.3,0.5-0.4,0.8l-0.2,0.9c-0.1,0.4,0,0.8,0.2,1.1l0.6,1.3c0.1,0.1,0.1,0.3,0.2,0.4l16,19
	c0.3,0.4,0.8,0.6,1.4,0.6h1c0.7,0,1.4-0.4,1.6-1.1c0.1-0.2,0.1-0.4,0.1-0.7V251.6z"/>
<g>
</g>
<g>
</g>
<g>
</g>
<g>
</g>
<g>
</g>
<g>
</g>
</svg>
