0
SECTION
2
HEADER
9
$INSUNITS
70
4
9
$ACADVER
1
AC1014
9
$HANDSEED
5
FFFF
0
ENDSEC
0
SECTION
2
TABLES
0
TABLE
2
VPORT
5
8
100
AcDbSymbolTable
0
ENDTAB
0
TABLE
2
LTYPE
5
5
100
AcDbSymbolTable
0
LTYPE
5
14
100
AcDbSymbolTableRecord
100
AcDbLinetypeTableRecord
2
BYBLOCK
70
0
0
LTYPE
5
15
100
AcDbSymbolTableRecord
100
AcDbLinetypeTableRecord
2
BYLAYER
70
0
0
ENDTAB
0
TABLE
2
LAYER
5
2
100
AcDbSymbolTable
70
2
0
LAYER
5
50
100
AcDbSymbolTableRecord
100
AcDbLayerTableRecord
2
0
70
0
6
CONTINUOUS
0
ENDTAB
0
TABLE
2
STYLE
5
3
100
AcDbSymbolTable
70
1
0
STYLE
5
11
100
AcDbSymbolTableRecord
100
AcDbTextStyleTableRecord
2
STANDARD
70
0
0
ENDTAB
0
TABLE
2
VIEW
5
6
100
AcDbSymbolTable
70
0
0
ENDTAB
0
TABLE
2
UCS
5
7
100
AcDbSymbolTable
70
0
0
ENDTAB
0
TABLE
2
APPID
5
9
100
AcDbSymbolTable
70
2
0
APPID
5
12
100
AcDbSymbolTableRecord
100
AcDbRegAppTableRecord
2
ACAD
70
0
0
ENDTAB
0
TABLE
2
DIMSTYLE
5
A
100
AcDbSymbolTable
70
1
0
ENDTAB
0
TABLE
2
BLOCK_RECORD
5
1
100
AcDbSymbolTable
70
1
0
BLOCK_RECORD
5
1F
100
AcDbSymbolTableRecord
100
AcDbBlockTableRecord
2
*MODEL_SPACE
0
BLOCK_RECORD
5
1B
100
AcDbSymbolTableRecord
100
AcDbBlockTableRecord
2
*PAPER_SPACE
0
ENDTAB
0
ENDSEC
0
SECTION
2
BLOCKS
0
BLOCK
5
20
100
AcDbEntity
100
AcDbBlockBegin
2
*MODEL_SPACE
0
ENDBLK
5
21
100
AcDbEntity
100
AcDbBlockEnd
0
BLOCK
5
1C
100
AcDbEntity
100
AcDbBlockBegin
2
*PAPER_SPACE
0
ENDBLK
5
1D
100
AcDbEntity
100
AcDbBlockEnd
0
ENDSEC
0
SECTION
2
ENTITIES
0
CIRCLE
5
100
100
AcDbEntity
8
0
100
AcDbCircle
10
-63.746035962120061
20
106.15647596637416
30
0
40
1.2499999999999936
210
0
220
-0
230
1
0
CIRCLE
5
101
100
AcDbEntity
8
0
100
AcDbCircle
10
-105.74603596212008
20
106.15647596637459
30
0
40
1.2500000000000113
210
0
220
-0
230
1
0
CIRCLE
5
102
100
AcDbEntity
8
0
100
AcDbCircle
10
-200.76976463620491
20
190.91035885788597
30
0
40
2.099999999999993
210
0
220
-0
230
1
0
CIRCLE
5
103
100
AcDbEntity
8
0
100
AcDbCircle
10
-122.76976463620488
20
190.91035885788591
30
0
40
2.099999999999993
210
0
220
-0
230
1
0
CIRCLE
5
104
100
AcDbEntity
8
0
100
AcDbCircle
10
-255.76976463620491
20
165.41035885788597
30
0
40
1.850000000000007
210
0
220
-0
230
1
0
CIRCLE
5
105
100
AcDbEntity
8
0
100
AcDbCircle
10
-103.2697646362049
20
250.41035885788591
30
0
40
1.850000000000007
210
-0
220
0
230
1
0
LWPOLYLINE
5
106
100
AcDbEntity
8
0
100
AcDbPolyline
90
28
70
1
43
0.0
10
-263.40005111694336
20
109.86248397827147
10
-263.40005111694336
20
253.86248397827148
42
-0.41421356237309503
10
-261.40005111694336
20
255.86248397827148
10
-257.90005111694336
20
255.86248397827148
42
0.41421356237319906
10
-257.40005111694336
20
256.36248397827154
10
-257.40005111694336
20
259.86248397827148
42
-0.41421356237310025
10
-255.40005111694336
20
261.86248397827148
10
-62.400051116943359
20
261.86248397827148
42
-0.41421356237310025
10
-60.400051116943345
20
259.86248397827148
10
-60.400051116943352
20
256.36248397827148
42
0.41421356237307422
10
-59.900051116943359
20
255.86248397827148
10
-56.400051116943359
20
255.86248397827148
42
-0.41421356237308982
10
-54.400051116943345
20
253.86248397827154
10
-54.400051116943366
20
91.862483978271499
42
-0.4142135623730937
10
-56.400051116943352
20
89.862483978271484
10
-113.40005111694336
20
89.862483978271484
42
-0.41421356237309503
10
-115.40005111694335
20
91.862483978271484
10
-115.40005111694335
20
111.86248397827148
42
0.41421356237308721
10
-117.40005111694337
20
113.86248397827148
10
-200.40005111694339
20
113.86248397827148
42
0.41421356237308721
10
-202.40005111694336
20
111.86248397827148
10
-202.40005111694336
20
91.862483978271484
42
-0.41421356237309503
10
-204.40005111694336
20
89.862483978271484
10
-246.40005111694336
20
89.862483978271484
42
-0.41421356237309503
10
-248.40005111694336
20
91.862483978271484
10
-248.40005111694339
20
105.86248397827148
42
0.41421356237308982
10
-250.40005111694336
20
107.86248397827148
10
-261.40005111694336
20
107.86248397827148
42
-0.41421356237309503
0
ENDSEC
0
SECTION
2
OBJECTS
0
DICTIONARY
5
C
100
AcDbDictionary
3
ACAD_GROUP
350
D
3
ACAD_MLINESTYLE
350
17
0
DICTIONARY
5
D
100
AcDbDictionary
0
DICTIONARY
5
1A
330
C
100
AcDbDictionary
0
DICTIONARY
5
17
100
AcDbDictionary
0
ENDSEC
0
EOF
