0
SECTION
2
HEADER
9
$INSUNITS
70
4
9
$ACADVER
1
AC1014
9
$HANDSEED
5
FFFF
0
ENDSEC
0
SECTION
2
TABLES
0
TABLE
2
VPORT
5
8
100
AcDbSymbolTable
0
ENDTAB
0
TABLE
2
LTYPE
5
5
100
AcDbSymbolTable
0
LTYPE
5
14
100
AcDbSymbolTableRecord
100
AcDbLinetypeTableRecord
2
BYBLOCK
70
0
0
LTYPE
5
15
100
AcDbSymbolTableRecord
100
AcDbLinetypeTableRecord
2
BYLAYER
70
0
0
ENDTAB
0
TABLE
2
LAYER
5
2
100
AcDbSymbolTable
70
2
0
LAYER
5
50
100
AcDbSymbolTableRecord
100
AcDbLayerTableRecord
2
0
70
0
6
CONTINUOUS
0
ENDTAB
0
TABLE
2
STYLE
5
3
100
AcDbSymbolTable
70
1
0
STYLE
5
11
100
AcDbSymbolTableRecord
100
AcDbTextStyleTableRecord
2
STANDARD
70
0
0
ENDTAB
0
TABLE
2
VIEW
5
6
100
AcDbSymbolTable
70
0
0
ENDTAB
0
TABLE
2
UCS
5
7
100
AcDbSymbolTable
70
0
0
ENDTAB
0
TABLE
2
APPID
5
9
100
AcDbSymbolTable
70
2
0
APPID
5
12
100
AcDbSymbolTableRecord
100
AcDbRegAppTableRecord
2
ACAD
70
0
0
ENDTAB
0
TABLE
2
DIMSTYLE
5
A
100
AcDbSymbolTable
70
1
0
ENDTAB
0
TABLE
2
BLOCK_RECORD
5
1
100
AcDbSymbolTable
70
1
0
BLOCK_RECORD
5
1F
100
AcDbSymbolTableRecord
100
AcDbBlockTableRecord
2
*MODEL_SPACE
0
BLOCK_RECORD
5
1B
100
AcDbSymbolTableRecord
100
AcDbBlockTableRecord
2
*PAPER_SPACE
0
ENDTAB
0
ENDSEC
0
SECTION
2
BLOCKS
0
BLOCK
5
20
100
AcDbEntity
100
AcDbBlockBegin
2
*MODEL_SPACE
0
ENDBLK
5
21
100
AcDbEntity
100
AcDbBlockEnd
0
BLOCK
5
1C
100
AcDbEntity
100
AcDbBlockBegin
2
*PAPER_SPACE
0
ENDBLK
5
1D
100
AcDbEntity
100
AcDbBlockEnd
0
ENDSEC
0
SECTION
2
ENTITIES
0
CIRCLE
5
100
100
AcDbEntity
8
0
100
AcDbCircle
10
209.94218944839614
20
-38.981423453880659
30
0
40
0.99999999999999267
210
-2.4651903288156624e-32
220
1.97215226305253e-31
230
1
0
CIRCLE
5
101
100
AcDbEntity
8
0
100
AcDbCircle
10
258.94218944839616
20
-38.981423453880979
30
0
40
0.99999999999999267
210
-2.4651903288156624e-32
220
1.97215226305253e-31
230
1
0
CIRCLE
5
102
100
AcDbEntity
8
0
100
AcDbCircle
10
209.9421894483965
20
19.018576546119306
30
0
40
0.99999999999999267
210
-2.4651903288156624e-32
220
1.97215226305253e-31
230
1
0
CIRCLE
5
103
100
AcDbEntity
8
0
100
AcDbCircle
10
258.94218944839656
20
19.018576546118982
30
0
40
0.99999999999999267
210
-2.4651903288156624e-32
220
1.97215226305253e-31
230
1
0
CIRCLE
5
104
100
AcDbEntity
8
0
100
AcDbCircle
10
150.99961875482057
20
63.298107585026258
30
0
40
1.2500000000000084
210
0
220
-0
230
1
0
CIRCLE
5
105
100
AcDbEntity
8
0
100
AcDbCircle
10
150.99961875482057
20
-51.701892414973486
30
0
40
1.2499999999999984
210
-2.4651903288156619e-32
220
1.9721522630525295e-31
230
1
0
CIRCLE
5
106
100
AcDbEntity
8
0
100
AcDbCircle
10
58.999618754820403
20
63.298107585026244
30
0
40
1.2499999999999996
210
-2.4651903288156619e-32
220
1.9721522630525295e-31
230
1
0
CIRCLE
5
107
100
AcDbEntity
8
0
100
AcDbCircle
10
58.999618754820418
20
-51.701892414973507
30
0
40
1.2499999999999996
210
-2.4651903288156619e-32
220
1.9721522630525295e-31
230
1
0
LWPOLYLINE
5
108
100
AcDbEntity
8
0
100
AcDbPolyline
90
16
70
1
43
0.0
10
180.90005111694339
20
110.00891685485827
10
271.90005111694342
20
110.00891685485826
42
-0.41421356237309503
10
273.90005111694342
20
108.00891685485826
10
273.90005111694342
20
-57.991083145141751
42
-0.41421356237310025
10
271.90005111694336
20
-59.991083145141758
10
45.900051116943352
20
-59.991083145141708
42
-0.41421356237309503
10
43.900051116943359
20
-57.991083145141715
10
43.900051116943374
20
108.0089168548583
42
-0.41421356237310025
10
45.900051116943423
20
110.00891685485831
10
168.90005111694342
20
110.00891685485827
42
-0.41421356237309503
10
170.90005111694342
20
108.00891685485828
10
170.90005111694342
20
107.00891685485828
42
0.41421356237309764
10
172.90005111694342
20
105.00891685485827
10
176.90005111694342
20
105.00891685485828
42
0.41421356237309764
10
178.90005111694342
20
107.00891685485828
10
178.90005111694342
20
108.00891685485828
42
-0.41421356237308982
0
LWPOLYLINE
5
109
100
AcDbEntity
8
0
100
AcDbPolyline
90
4
70
1
43
0.0
10
122.40005111694336
20
-39.691083145141704
10
126.40005111694336
20
-39.691083145141704
42
0.99999999999999989
10
126.40005111694336
20
-36.291083145141712
10
122.40005111694336
20
-36.291083145141727
42
0.99999999999999989
0
LWPOLYLINE
5
110
100
AcDbEntity
8
0
100
AcDbPolyline
90
4
70
1
43
0.0
10
122.40005111694337
20
23.308916854858278
10
126.40005111694337
20
23.308916854858278
42
0.99999999999999989
10
126.40005111694337
20
26.70891685485828
10
122.40005111694337
20
26.70891685485828
42
0.99999999999999989
0
LWPOLYLINE
5
111
100
AcDbEntity
8
0
100
AcDbPolyline
90
4
70
1
43
0.0
10
122.40005111694339
20
100.8089168548583
10
126.40005111694339
20
100.8089168548583
42
0.99999999999999989
10
126.40005111694339
20
104.20891685485829
10
122.40005111694339
20
104.20891685485827
42
0.99999999999999989
0
LWPOLYLINE
5
112
100
AcDbEntity
8
0
100
AcDbPolyline
90
4
70
1
43
0.0
10
191.40005111694342
20
100.80891685485827
10
195.40005111694342
20
100.80891685485827
42
0.99999999999999989
10
195.40005111694342
20
104.20891685485827
10
191.40005111694342
20
104.20891685485826
42
0.99999999999999989
0
LWPOLYLINE
5
113
100
AcDbEntity
8
0
100
AcDbPolyline
90
4
70
1
43
0.0
10
191.40005111694342
20
23.308916854858268
10
195.40005111694342
20
23.308916854858268
42
0.99999999999999989
10
195.40005111694342
20
26.70891685485827
10
191.40005111694339
20
26.708916854858266
42
0.99999999999999989
0
LWPOLYLINE
5
114
100
AcDbEntity
8
0
100
AcDbPolyline
90
4
70
1
43
0.0
10
191.40005111694336
20
-39.691083145141725
10
195.40005111694339
20
-39.691083145141725
42
0.99999999999999989
10
195.40005111694342
20
-36.291083145141734
10
191.40005111694339
20
-36.291083145141748
42
0.99999999999999989
0
ENDSEC
0
SECTION
2
OBJECTS
0
DICTIONARY
5
C
100
AcDbDictionary
3
ACAD_GROUP
350
D
3
ACAD_MLINESTYLE
350
17
0
DICTIONARY
5
D
100
AcDbDictionary
0
DICTIONARY
5
1A
330
C
100
AcDbDictionary
0
DICTIONARY
5
17
100
AcDbDictionary
0
ENDSEC
0
EOF
