0
SECTION
2
HEADER
9
$INSUNITS
70
4
9
$ACADVER
1
AC1014
9
$HANDSEED
5
FFFF
0
ENDSEC
0
SECTION
2
TABLES
0
TABLE
2
VPORT
5
8
100
AcDbSymbolTable
0
ENDTAB
0
TABLE
2
LTYPE
5
5
100
AcDbSymbolTable
0
LTYPE
5
14
100
AcDbSymbolTableRecord
100
AcDbLinetypeTableRecord
2
BYBLOCK
70
0
0
LTYPE
5
15
100
AcDbSymbolTableRecord
100
AcDbLinetypeTableRecord
2
BYLAYER
70
0
0
ENDTAB
0
TABLE
2
LAYER
5
2
100
AcDbSymbolTable
70
2
0
LAYER
5
50
100
AcDbSymbolTableRecord
100
AcDbLayerTableRecord
2
0
70
0
6
CONTINUOUS
0
ENDTAB
0
TABLE
2
STYLE
5
3
100
AcDbSymbolTable
70
1
0
STYLE
5
11
100
AcDbSymbolTableRecord
100
AcDbTextStyleTableRecord
2
STANDARD
70
0
0
ENDTAB
0
TABLE
2
VIEW
5
6
100
AcDbSymbolTable
70
0
0
ENDTAB
0
TABLE
2
UCS
5
7
100
AcDbSymbolTable
70
0
0
ENDTAB
0
TABLE
2
APPID
5
9
100
AcDbSymbolTable
70
2
0
APPID
5
12
100
AcDbSymbolTableRecord
100
AcDbRegAppTableRecord
2
ACAD
70
0
0
ENDTAB
0
TABLE
2
DIMSTYLE
5
A
100
AcDbSymbolTable
70
1
0
ENDTAB
0
TABLE
2
BLOCK_RECORD
5
1
100
AcDbSymbolTable
70
1
0
BLOCK_RECORD
5
1F
100
AcDbSymbolTableRecord
100
AcDbBlockTableRecord
2
*MODEL_SPACE
0
BLOCK_RECORD
5
1B
100
AcDbSymbolTableRecord
100
AcDbBlockTableRecord
2
*PAPER_SPACE
0
ENDTAB
0
ENDSEC
0
SECTION
2
BLOCKS
0
BLOCK
5
20
100
AcDbEntity
100
AcDbBlockBegin
2
*MODEL_SPACE
0
ENDBLK
5
21
100
AcDbEntity
100
AcDbBlockEnd
0
BLOCK
5
1C
100
AcDbEntity
100
AcDbBlockBegin
2
*PAPER_SPACE
0
ENDBLK
5
1D
100
AcDbEntity
100
AcDbBlockEnd
0
ENDSEC
0
SECTION
2
ENTITIES
0
LWPOLYLINE
5
100
100
AcDbEntity
8
0
100
AcDbPolyline
90
40
70
1
43
0.0
10
-97.900051116943345
20
58.612491607666009
10
-97.900051116943345
20
43.862491607666016
42
-0.41421356237309764
10
-99.900051116943374
20
41.862491607666009
10
-217.90005111694339
20
41.862491607666016
42
-0.41421356237309503
10
-219.90005111694336
20
43.862491607666016
10
-219.90005111694336
20
58.612491607666016
42
-0.41421356237310025
10
-217.90005111694336
20
60.612491607666016
10
-216.90005111694336
20
60.612491607666016
42
0.99999999999999989
10
-216.90005111694342
20
64.112491607666016
10
-217.90005111694339
20
64.11249160766603
42
-0.41421356237309503
10
-219.90005111694336
20
66.112491607666016
10
-219.90005111694336
20
76.862491607666016
42
-0.41421356237309503
10
-217.90005111694339
20
78.862491607666016
10
-214.90005111694336
20
78.862491607666016
42
-0.41421356237309503
10
-212.90005111694339
20
76.862491607666016
10
-212.90005111694336
20
75.862491607666016
42
0.41421356237308854
10
-210.90005111694339
20
73.862491607666016
10
-207.90005111694339
20
73.862491607666016
42
0.41421356237309503
10
-205.90005111694336
20
75.862491607666016
10
-205.90005111694336
20
76.862491607666016
42
-0.41421356237309503
10
-203.90005111694336
20
78.862491607666016
10
-165.90005111694336
20
78.862491607666016
42
-0.41421356237309503
10
-163.90005111694336
20
76.862491607666016
10
-163.90005111694336
20
67.362491607666016
42
-0.41421356237309503
10
-165.90005111694336
20
65.362491607666016
10
-168.90005111694336
20
65.362491607666001
42
0.99999999999999989
10
-168.90005111694336
20
55.362491607666016
10
-148.90005111694336
20
55.362491607666016
42
0.99999999999999989
10
-148.90005111694336
20
65.362491607666016
10
-151.90005111694336
20
65.36249160766603
42
-0.41421356237309503
10
-153.90005111694336
20
67.362491607666016
10
-153.90005111694336
20
76.862491607666016
42
-0.41421356237309503
10
-151.90005111694336
20
78.862491607666016
10
-99.900051116943359
20
78.86249160766603
42
-0.41421356237309503
10
-97.900051116943345
20
76.862491607666016
10
-97.900051116943345
20
66.112491607666016
42
-0.41421356237309503
10
-99.900051116943359
20
64.112491607666016
10
-100.90005111694336
20
64.112491607666016
42
0.99999999999999989
10
-100.90005111694336
20
60.612491607666016
10
-99.900051116943374
20
60.61249160766603
42
-0.41421356237309631
0
ENDSEC
0
SECTION
2
OBJECTS
0
DICTIONARY
5
C
100
AcDbDictionary
3
ACAD_GROUP
350
D
3
ACAD_MLINESTYLE
350
17
0
DICTIONARY
5
D
100
AcDbDictionary
0
DICTIONARY
5
1A
330
C
100
AcDbDictionary
0
DICTIONARY
5
17
100
AcDbDictionary
0
ENDSEC
0
EOF
