0
SECTION
2
HEADER
9
$INSUNITS
70
4
9
$ACADVER
1
AC1014
9
$HANDSEED
5
FFFF
0
ENDSEC
0
SECTION
2
TABLES
0
TABLE
2
VPORT
5
8
100
AcDbSymbolTable
0
ENDTAB
0
TABLE
2
LTYPE
5
5
100
AcDbSymbolTable
0
LTYPE
5
14
100
AcDbSymbolTableRecord
100
AcDbLinetypeTableRecord
2
BYBLOCK
70
0
0
LTYPE
5
15
100
AcDbSymbolTableRecord
100
AcDbLinetypeTableRecord
2
BYLAYER
70
0
0
ENDTAB
0
TABLE
2
LAYER
5
2
100
AcDbSymbolTable
70
2
0
LAYER
5
50
100
AcDbSymbolTableRecord
100
AcDbLayerTableRecord
2
0
70
0
6
CONTINUOUS
0
ENDTAB
0
TABLE
2
STYLE
5
3
100
AcDbSymbolTable
70
1
0
STYLE
5
11
100
AcDbSymbolTableRecord
100
AcDbTextStyleTableRecord
2
STANDARD
70
0
0
ENDTAB
0
TABLE
2
VIEW
5
6
100
AcDbSymbolTable
70
0
0
ENDTAB
0
TABLE
2
UCS
5
7
100
AcDbSymbolTable
70
0
0
ENDTAB
0
TABLE
2
APPID
5
9
100
AcDbSymbolTable
70
2
0
APPID
5
12
100
AcDbSymbolTableRecord
100
AcDbRegAppTableRecord
2
ACAD
70
0
0
ENDTAB
0
TABLE
2
DIMSTYLE
5
A
100
AcDbSymbolTable
70
1
0
ENDTAB
0
TABLE
2
BLOCK_RECORD
5
1
100
AcDbSymbolTable
70
1
0
BLOCK_RECORD
5
1F
100
AcDbSymbolTableRecord
100
AcDbBlockTableRecord
2
*MODEL_SPACE
0
BLOCK_RECORD
5
1B
100
AcDbSymbolTableRecord
100
AcDbBlockTableRecord
2
*PAPER_SPACE
0
ENDTAB
0
ENDSEC
0
SECTION
2
BLOCKS
0
BLOCK
5
20
100
AcDbEntity
100
AcDbBlockBegin
2
*MODEL_SPACE
0
ENDBLK
5
21
100
AcDbEntity
100
AcDbBlockEnd
0
BLOCK
5
1C
100
AcDbEntity
100
AcDbBlockBegin
2
*PAPER_SPACE
0
ENDBLK
5
1D
100
AcDbEntity
100
AcDbBlockEnd
0
ENDSEC
0
SECTION
2
ENTITIES
0
LWPOLYLINE
5
100
100
AcDbEntity
8
0
100
AcDbPolyline
90
22
70
1
43
0.0
10
-258.70005038624538
20
-84.091079838025792
42
-0.41421356237309503
10
-256.70005038624538
20
-82.091079838025806
10
-246.1000511169434
20
-82.091079838025806
42
0.99999999999999989
10
-246.1000511169434
20
-77.891079838025803
10
-256.70005038624538
20
-77.891079838025831
42
-0.41421356237309503
10
-258.70005038624538
20
-75.891079838025803
10
-258.70005038624538
20
-75.791079838025794
42
0.41421356237310542
10
-259.70005038624538
20
-74.791079838025794
10
-262.90005111694342
20
-74.791079838025794
42
-0.41421356237310025
10
-264.90005111694342
20
-72.791079838025752
10
-264.90005111694336
20
171.00891780853274
42
-0.41421356237309503
10
-262.90005111694336
20
173.00891780853274
10
-54.900051116943338
20
173.00891780853274
42
-0.41421356237310025
10
-52.900051116943345
20
171.00891780853271
10
-52.900051116943381
20
-72.991082191467285
42
-0.41421356237309764
10
-54.900051116943374
20
-74.991082191467285
10
-113.90005111694337
20
-74.991082191467285
42
0.41421356237309503
10
-114.90005111694337
20
-75.991082191467285
10
-114.90005111694333
20
-109.99107983802581
42
-0.41421356237309503
10
-116.90005111694336
20
-111.99107983802584
10
-256.70005111694343
20
-111.9910798380258
42
-0.41421356237309503
10
-258.70005111694343
20
-109.99107983802581
0
LWPOLYLINE
5
101
100
AcDbEntity
8
0
100
AcDbPolyline
90
5
70
1
43
0.0
10
-129.77078209195582
20
-21.945686971418805
42
-0.050475686318217652
10
-140.87161391420594
20
-26.718482249003948
10
-141.58025434721108
20
-25.491081014741841
10
-138.11615273207372
20
-19.491081014741631
10
-131.18794950179824
20
-19.491081014741205
0
LWPOLYLINE
5
102
100
AcDbEntity
8
0
100
AcDbPolyline
90
4
70
1
43
0.0
10
-166.07620117340193
20
-29.060392496135261
10
-167.55959384881567
20
-26.49108101474356
10
-174.48779707909114
20
-26.491081014743987
10
-174.95643214908495
20
-27.302780766182199
42
0.037772553128330888
0
LWPOLYLINE
5
103
100
AcDbEntity
8
0
100
AcDbPolyline
90
6
70
1
43
0.0
10
-150.23979707909322
20
1.5089189852575302
10
-153.70389869423056
20
-4.4910810147426794
10
-150.23979707909245
20
-10.491081014742427
10
-143.31159384881698
20
-10.491081014741965
10
-139.84749223367965
20
-4.4910810147417912
10
-143.31159384881775
20
1.5089189852579565
0
LWPOLYLINE
5
104
100
AcDbEntity
8
0
100
AcDbPolyline
90
6
70
1
43
0.0
10
-125.99179707909332
20
3.5089189852591574
10
-119.06359384881785
20
3.5089189852596192
10
-115.59949223368051
20
9.5089189852598075
10
-119.06359384881864
20
15.508918985259537
10
-125.99179707909411
20
15.508918985259111
10
-129.45589869423145
20
9.5089189852589016
0
LWPOLYLINE
5
105
100
AcDbEntity
8
0
100
AcDbPolyline
90
5
70
1
43
0.0
10
-98.908385029056603
20
29.508918985260838
42
-0.050475624059747752
10
-100.32531253450853
20
17.508918985260848
10
-101.74379707909449
20
17.508918985260756
10
-105.20789869423261
20
23.508918985260504
10
-101.74379707909526
20
29.508918985260713
0
LWPOLYLINE
5
106
100
AcDbEntity
8
0
100
AcDbPolyline
90
6
70
1
43
0.0
10
-103.47584788666407
20
30.508918985260674
10
-106.93994950180219
20
36.508918985260387
10
-113.86815273207766
20
36.50891898525996
10
-117.33225434721501
20
30.508918985259751
10
-113.86815273207688
20
24.508918985260003
10
-106.93994950180141
20
24.508918985260465
0
LWPOLYLINE
5
107
100
AcDbEntity
8
0
100
AcDbPolyline
90
6
70
1
43
0.0
10
-138.1161527320757
20
10.508918985258418
10
-131.18794950180023
20
10.50891898525888
10
-127.7238478866629
20
16.508918985259054
10
-131.18794950180103
20
22.508918985258802
10
-138.1161527320765
20
22.508918985258376
10
-141.58025434721384
20
16.508918985258166
0
LWPOLYLINE
5
108
100
AcDbEntity
8
0
100
AcDbPolyline
90
6
70
1
43
0.0
10
-165.82825434721298
20
2.5089189852565674
10
-162.36415273207481
20
-3.4910810147431981
10
-155.43594950179934
20
-3.4910810147427362
10
-151.97184788666203
20
2.5089189852574556
10
-155.43594950180017
20
8.5089189852571856
10
-162.36415273207564
20
8.5089189852567593
0
LWPOLYLINE
5
109
100
AcDbEntity
8
0
100
AcDbPolyline
90
6
70
1
43
0.0
10
-186.61215273207392
20
-17.4910810147448
10
-179.68394950179845
20
-17.491081014744339
10
-176.21984788666114
20
-11.491081014744129
10
-179.68394950179928
20
-5.4910810147444167
10
-186.61215273207475
20
-5.491081014744843
10
-190.07625434721209
20
-11.491081014745053
0
LWPOLYLINE
5
110
100
AcDbEntity
8
0
100
AcDbPolyline
90
4
70
1
43
0.0
10
-214.0760581971301
20
6.9375753093708408
42
-0.03778163359037625
10
-216.99480131004958
20
15.508918985253072
10
-216.05559384881855
20
15.508918985253143
10
-212.59149223368038
20
9.5089189852534126
0
LWPOLYLINE
5
111
100
AcDbEntity
8
0
100
AcDbPolyline
90
6
70
1
43
0.0
10
-191.80759384881864
20
17.508918985254788
10
-188.34349223368125
20
23.508918985254997
10
-191.80759384881941
20
29.508918985254745
10
-198.73579707909488
20
29.508918985254301
10
-202.19989869423219
20
23.508918985254091
10
-198.73579707909411
20
17.508918985254343
0
LWPOLYLINE
5
112
100
AcDbEntity
8
0
100
AcDbPolyline
90
6
70
1
43
0.0
10
-174.48779707909526
20
31.508918985255963
10
-167.55959384881979
20
31.508918985256408
10
-164.09549223368245
20
37.508918985256578
10
-167.55959384882058
20
43.508918985256351
10
-174.48779707909605
20
43.508918985255924
10
-177.95189869423339
20
37.508918985255711
0
LWPOLYLINE
5
113
100
AcDbEntity
8
0
100
AcDbPolyline
90
6
70
1
43
0.0
10
-150.23979707909692
20
57.508918985257509
10
-153.70389869423428
20
51.508918985257282
10
-150.23979707909615
20
45.508918985257552
10
-143.31159384882068
20
45.508918985258013
10
-139.84749223368334
20
51.508918985258205
10
-143.31159384882145
20
57.508918985257971
0
LWPOLYLINE
5
114
100
AcDbEntity
8
0
100
AcDbPolyline
90
6
70
1
43
0.0
10
-129.45589869423515
20
65.508918985258902
10
-125.99179707909701
20
59.508918985259136
10
-119.06359384882154
20
59.508918985259598
10
-115.5994922336842
20
65.508918985259783
10
-119.06359384882234
20
71.508918985259555
10
-125.99179707909781
20
71.508918985259101
0
LWPOLYLINE
5
115
100
AcDbEntity
8
0
100
AcDbPolyline
90
6
70
1
43
0.0
10
-141.58025434721753
20
72.508918985258148
10
-138.1161527320794
20
66.508918985258418
10
-131.18794950180393
20
66.508918985258845
10
-127.72384788666659
20
72.508918985259072
10
-131.18794950180472
20
78.508918985258759
10
-138.1161527320802
20
78.508918985258376
0
LWPOLYLINE
5
116
100
AcDbEntity
8
0
100
AcDbPolyline
90
6
70
1
43
0.0
10
-150.23979707909785
20
71.508918985257495
10
-153.70389869423519
20
65.508918985257267
10
-150.23979707909706
20
59.508918985257537
10
-143.31159384882159
20
59.508918985257999
10
-139.84749223368425
20
65.508918985258191
10
-143.31159384882238
20
71.508918985257964
0
LWPOLYLINE
5
117
100
AcDbEntity
8
0
100
AcDbPolyline
90
6
70
1
43
0.0
10
-174.4877970790962
20
45.508918985255953
10
-167.55959384882073
20
45.508918985256415
10
-164.09549223368339
20
51.508918985256607
10
-167.55959384882149
20
57.508918985256372
10
-174.48779707909696
20
57.50891898525591
10
-177.95189869423433
20
51.508918985255683
0
LWPOLYLINE
5
118
100
AcDbEntity
8
0
100
AcDbPolyline
90
6
70
1
43
0.0
10
-198.73579707909596
20
45.50891898525439
10
-191.80759384882049
20
45.508918985254816
10
-188.34349223368315
20
51.508918985255008
10
-191.80759384882126
20
57.508918985254773
10
-198.73579707909673
20
57.508918985254347
10
-202.19989869423409
20
51.508918985254084
0
LWPOLYLINE
5
119
100
AcDbEntity
8
0
100
AcDbPolyline
90
5
70
1
43
0.0
10
-218.89171720482207
20
31.508918985252979
42
-0.050475624059748092
10
-217.47478969937018
20
43.508918985253047
10
-216.05559384882039
20
43.508918985253118
10
-212.59149223368226
20
37.508918985253402
10
-216.0555938488196
20
31.508918985253228
0
LWPOLYLINE
5
120
100
AcDbEntity
8
0
100
AcDbPolyline
90
6
70
1
43
0.0
10
-202.199898694235
20
65.50891898525407
10
-198.73579707909687
20
59.508918985254375
10
-191.8075938488214
20
59.508918985254802
10
-188.34349223368406
20
65.508918985254994
10
-191.80759384882219
20
71.508918985254752
10
-198.73579707909767
20
71.508918985254326
0
LWPOLYLINE
5
121
100
AcDbEntity
8
0
100
AcDbPolyline
90
4
70
1
43
0.0
10
-174.95643214909302
20
88.320618736693959
42
-0.037772553128331839
10
-166.07620117341003
20
90.078230466648279
10
-167.55959384882348
20
87.5089189852564
10
-174.48779707909895
20
87.508918985255946
0
LWPOLYLINE
5
122
100
AcDbEntity
8
0
100
AcDbPolyline
90
5
70
1
43
0.0
10
-188.02932014192299
20
82.963524941932846
42
-0.050475686318218319
10
-176.92848831967271
20
87.736320219518049
10
-176.21984788666762
20
86.50891898525586
10
-179.68394950180493
20
80.508918985255661
10
-186.6121527320804
20
80.508918985255207
0
LWPOLYLINE
5
123
100
AcDbEntity
8
0
100
AcDbPolyline
90
6
70
1
43
0.0
10
-186.61215273207947
20
66.508918985255178
10
-179.68394950180399
20
66.508918985255647
10
-176.21984788666668
20
72.508918985255875
10
-179.68394950180482
20
78.508918985255576
10
-186.61215273208029
20
78.50891898525515
10
-190.07625434721763
20
72.508918985254951
0
LWPOLYLINE
5
124
100
AcDbEntity
8
0
100
AcDbPolyline
90
4
70
1
43
0.0
10
-216.99480131005157
20
45.508918985253182
10
-216.05559384882054
20
45.508918985253217
10
-212.5914922336832
20
51.508918985253409
10
-214.07605819713322
20
54.080262661135947
42
0.037781633590376278
0
LWPOLYLINE
5
125
100
AcDbEntity
8
0
100
AcDbPolyline
90
6
70
1
43
0.0
10
-210.86015273207738
20
38.508918985253629
10
-203.93194950180191
20
38.508918985254091
10
-200.4678478866646
20
44.508918985254233
10
-203.93194950180273
20
50.508918985254034
10
-210.86015273207821
20
50.508918985253572
10
-214.32425434721554
20
44.508918985253416
0
LWPOLYLINE
5
126
100
AcDbEntity
8
0
100
AcDbPolyline
90
6
70
1
43
0.0
10
-186.61215273207856
20
52.5089189852552
10
-179.68394950180308
20
52.508918985255661
10
-176.21984788666578
20
58.508918985255889
10
-179.68394950180391
20
64.508918985255576
10
-186.61215273207938
20
64.50891898525515
10
-190.07625434721672
20
58.508918985254965
0
LWPOLYLINE
5
127
100
AcDbEntity
8
0
100
AcDbPolyline
90
6
70
1
43
0.0
10
-155.43594950180398
20
66.508918985257253
10
-151.97184788666664
20
72.50891898525748
10
-155.43594950180477
20
78.508918985257168
10
-162.36415273208024
20
78.508918985256742
10
-165.82825434721758
20
72.508918985256543
10
-162.36415273207942
20
66.508918985256784
0
LWPOLYLINE
5
128
100
AcDbEntity
8
0
100
AcDbPolyline
90
5
70
1
43
0.0
10
-140.87161391421341
20
87.736320219520408
42
-0.050475686318217763
10
-129.77078209196264
20
82.963524941936697
10
-131.18794950180487
20
80.508918985258873
10
-138.11615273208034
20
80.508918985258447
10
-141.58025434721847
20
86.508918985258163
0
LWPOLYLINE
5
129
100
AcDbEntity
8
0
100
AcDbPolyline
90
6
70
1
43
0.0
10
-109.46322273970844
20
64.508918985260209
10
-113.86815273207951
20
64.508918985259982
10
-117.33225434721686
20
58.508918985259761
10
-113.86815273207873
20
52.508918985260031
10
-106.93994950180326
20
52.508918985260493
10
-104.73741651191941
20
56.323818029086254
42
0.039442132748760371
0
LWPOLYLINE
5
130
100
AcDbEntity
8
0
100
AcDbPolyline
90
6
70
1
43
0.0
10
-138.11615273207758
20
38.508918985258425
10
-131.18794950180211
20
38.508918985258887
10
-127.72384788666474
20
44.508918985259065
10
-131.18794950180288
20
50.508918985258795
10
-138.11615273207835
20
50.508918985258404
10
-141.58025434721569
20
44.508918985258177
0
LWPOLYLINE
5
131
100
AcDbEntity
8
0
100
AcDbPolyline
90
6
70
1
43
0.0
10
-155.43594950180119
20
24.508918985257267
10
-151.97184788666388
20
30.508918985257459
10
-155.43594950180199
20
36.508918985257189
10
-162.36415273207746
20
36.508918985256763
10
-165.82825434721482
20
30.508918985256553
10
-162.36415273207666
20
24.508918985256805
0
LWPOLYLINE
5
132
100
AcDbEntity
8
0
100
AcDbPolyline
90
6
70
1
43
0.0
10
-186.61215273207577
20
10.508918985255203
10
-179.6839495018003
20
10.508918985255665
10
-176.21984788666299
20
16.508918985255857
10
-179.68394950180112
20
22.508918985255587
10
-186.61215273207659
20
22.508918985255161
10
-190.07625434721393
20
16.508918985254951
0
LWPOLYLINE
5
133
100
AcDbEntity
8
0
100
AcDbPolyline
90
6
70
1
43
0.0
10
-208.3368794941702
20
-3.4910810147462712
10
-203.93194950179915
20
-3.4910810147459337
10
-200.46784788666184
20
2.5089189852542582
10
-203.93194950179998
20
8.5089189852539882
10
-210.86015273207545
20
8.5089189852535618
10
-213.06268572195933
20
4.6940199414277606
42
0.039442132748761259
0
LWPOLYLINE
5
134
100
AcDbEntity
8
0
100
AcDbPolyline
90
6
70
1
43
0.0
10
-202.19989869423034
20
-4.4910810147458946
10
-198.73579707909226
20
-10.491081014745642
10
-191.80759384881679
20
-10.491081014745181
10
-188.3434922336794
20
-4.4910810147449887
10
-191.80759384881756
20
1.5089189852547413
10
-198.73579707909303
20
1.508918985254315
0
LWPOLYLINE
5
135
100
AcDbEntity
8
0
100
AcDbPolyline
90
6
70
1
43
0.0
10
-174.48779707909341
20
3.5089189852559777
10
-167.55959384881794
20
3.508918985256404
10
-164.09549223368057
20
9.5089189852565923
10
-167.55959384881874
20
15.50891898525634
10
-174.48779707909421
20
15.508918985255914
10
-177.95189869423152
20
9.5089189852557041
0
LWPOLYLINE
5
136
100
AcDbEntity
8
0
100
AcDbPolyline
90
6
70
1
43
0.0
10
-150.23979707909507
20
29.508918985257498
10
-153.70389869423241
20
23.508918985257289
10
-150.2397970790943
20
17.508918985257541
10
-143.31159384881883
20
17.508918985258003
10
-139.84749223368146
20
23.508918985258212
10
-143.3115938488196
20
29.50891898525796
0
LWPOLYLINE
5
137
100
AcDbEntity
8
0
100
AcDbPolyline
90
6
70
1
43
0.0
10
-119.06359384881969
20
31.508918985259623
10
-115.59949223368235
20
37.508918985259797
10
-119.06359384882049
20
43.508918985259548
10
-125.99179707909596
20
43.508918985259122
10
-129.4558986942333
20
37.508918985258909
10
-125.99179707909516
20
31.508918985259161
0
LWPOLYLINE
5
138
100
AcDbEntity
8
0
100
AcDbPolyline
90
4
70
1
43
0.0
10
-103.72374154522373
20
54.079554573764185
42
-0.037778420707878402
10
-100.80530092382909
20
45.50891898526082
10
-101.74379707909634
20
45.508918985260749
10
-105.20789869423446
20
51.508918985260514
0
LWPOLYLINE
5
139
100
AcDbEntity
8
0
100
AcDbPolyline
90
6
70
1
43
0.0
10
-104.737416511916
20
4.6940199414348882
10
-106.93994950180034
20
8.508918985260383
10
-113.86815273207581
20
8.5089189852599567
10
-117.33225434721317
20
2.5089189852597471
10
-113.86815273207503
20
-3.4910810147400007
10
-109.46322273970397
20
-3.4910810147397076
42
0.039442132748760551
0
LWPOLYLINE
5
140
100
AcDbEntity
8
0
100
AcDbPolyline
90
6
70
1
43
0.0
10
-138.11615273207465
20
-5.4910810147416278
10
-141.58025434721199
20
-11.491081014741837
10
-138.11615273207383
20
-17.491081014741585
10
-131.18794950179836
20
-17.491081014741123
10
-127.72384788666105
20
-11.491081014740931
10
-131.18794950179918
20
-5.4910810147412015
0
LWPOLYLINE
5
141
100
AcDbEntity
8
0
100
AcDbPolyline
90
6
70
1
43
0.0
10
-154.17360157688103
20
-29.304630271957972
10
-151.97184788666019
20
-25.491081014742552
10
-155.43594950179829
20
-19.491081014742804
10
-162.36415273207376
20
-19.49108101474323
10
-165.82825434721113
20
-25.49108101474344
10
-163.62650065698969
20
-29.304630271958608
42
0.039448372653643808
0
LWPOLYLINE
5
142
100
AcDbEntity
8
0
100
AcDbPolyline
90
4
70
1
43
0.0
10
-142.84305707714634
20
-27.302610508487192
42
-0.037771994852443293
10
-151.72313658069555
20
-29.060300396395586
10
-150.23979707909109
20
-26.491081014742388
10
-143.31159384881562
20
-26.491081014741962
0
LWPOLYLINE
5
143
100
AcDbEntity
8
0
100
AcDbPolyline
90
5
70
1
43
0.0
10
-118.35481669958126
20
-13.718719048459906
10
-119.06359384881679
20
-12.491081014740448
10
-125.99179707909227
20
-12.491081014740892
10
-129.4558986942296
20
-18.491081014741102
10
-128.03872101614357
20
-20.945704756538216
42
0.050475561806990109
0
LWPOLYLINE
5
144
100
AcDbEntity
8
0
100
AcDbPolyline
90
6
70
1
43
0.0
10
-164.09549223367873
20
-18.491081014743393
10
-167.55959384881689
20
-12.491081014743646
10
-174.48779707909236
20
-12.491081014744072
10
-177.95189869422967
20
-18.491081014744282
10
-174.48779707909156
20
-24.491081014744029
10
-167.55959384881609
20
-24.491081014743585
0
LWPOLYLINE
5
145
100
AcDbEntity
8
0
100
AcDbPolyline
90
6
70
1
43
0.0
10
-143.31159384881602
20
-24.491081014741987
10
-139.84749223367871
20
-18.491081014741777
10
-143.31159384881684
20
-12.491081014742047
10
-150.23979707909231
20
-12.491081014742491
10
-153.70389869422962
20
-18.491081014742701
10
-150.23979707909149
20
-24.491081014742431
0
LWPOLYLINE
5
146
100
AcDbEntity
8
0
100
AcDbPolyline
90
6
70
1
43
0.0
10
-125.99179707909317
20
1.5089189852591289
10
-129.45589869423054
20
-4.4910810147410807
10
-125.99179707909241
20
-10.491081014740828
10
-119.06359384881694
20
-10.491081014740367
10
-115.59949223367958
20
-4.4910810147401925
10
-119.0635938488177
20
1.5089189852595553
0
LWPOLYLINE
5
147
100
AcDbEntity
8
0
100
AcDbPolyline
90
4
70
1
43
0.0
10
-100.80530092382713
20
15.508918985260781
10
-101.74379707909435
20
15.508918985260728
10
-105.20789869423169
20
9.508918985260518
10
-103.72374154522063
20
6.9382833967570567
42
0.037778420707878353
0
LWPOLYLINE
5
148
100
AcDbEntity
8
0
100
AcDbPolyline
90
6
70
1
43
0.0
10
-113.8681527320778
20
38.508918985260024
10
-106.93994950180233
20
38.508918985260486
10
-103.47584788666498
20
44.508918985260664
10
-106.93994950180311
20
50.508918985260429
10
-113.86815273207858
20
50.508918985260003
10
-117.33225434721592
20
44.508918985259776
0
LWPOLYLINE
5
149
100
AcDbEntity
8
0
100
AcDbPolyline
90
6
70
1
43
0.0
10
-127.72384788666383
20
30.508918985259076
10
-131.18794950180194
20
36.508918985258788
10
-138.11615273207741
20
36.508918985258362
10
-141.58025434721478
20
30.508918985258152
10
-138.11615273207664
20
24.508918985258404
10
-131.18794950180117
20
24.508918985258866
0
LWPOLYLINE
5
150
100
AcDbEntity
8
0
100
AcDbPolyline
90
6
70
1
43
0.0
10
-165.82825434721389
20
16.508918985256567
10
-162.36415273207572
20
10.50891898525682
10
-155.43594950180028
20
10.508918985257282
10
-151.97184788666294
20
16.508918985257438
10
-155.43594950180108
20
22.508918985257203
10
-162.36415273207655
20
22.508918985256777
0
LWPOLYLINE
5
151
100
AcDbEntity
8
0
100
AcDbPolyline
90
6
70
1
43
0.0
10
-190.07625434721302
20
2.5089189852549509
10
-186.61215273207486
20
-3.4910810147447968
10
-179.68394950179939
20
-3.491081014744335
10
-176.21984788666208
20
2.5089189852558569
10
-179.68394950180021
20
8.5089189852555869
10
-186.61215273207569
20
8.5089189852551605
0
LWPOLYLINE
5
152
100
AcDbEntity
8
0
100
AcDbPolyline
90
4
70
1
43
0.0
10
-200.93689935719391
20
-12.303501993073805
42
-0.037777304164749601
10
-206.90005111693708
20
-5.4910810147461842
10
-203.93194950179904
20
-5.4910810147460154
10
-200.46784788666091
20
-11.491081014745728
0
LWPOLYLINE
5
153
100
AcDbEntity
8
0
100
AcDbPolyline
90
6
70
1
43
0.0
10
-198.73579707909317
20
3.5089189852543612
10
-191.8075938488177
20
3.5089189852548053
10
-188.34349223368034
20
9.5089189852550113
10
-191.8075938488185
20
15.508918985254741
10
-198.73579707909397
20
15.508918985254297
10
-202.19989869423128
20
9.5089189852540876
0
LWPOLYLINE
5
154
100
AcDbEntity
8
0
100
AcDbPolyline
90
6
70
1
43
0.0
10
-167.55959384881888
20
17.508918985256386
10
-164.09549223368148
20
23.508918985256596
10
-167.55959384881965
20
29.508918985256344
10
-174.48779707909512
20
29.5089189852559
10
-177.95189869423243
20
23.50891898525569
10
-174.48779707909435
20
17.508918985255942
0
LWPOLYLINE
5
155
100
AcDbEntity
8
0
100
AcDbPolyline
90
6
70
1
43
0.0
10
-150.23979707909601
20
43.508918985257523
10
-153.70389869423335
20
37.50891898525731
10
-150.23979707909521
20
31.508918985257562
10
-143.31159384881974
20
31.508918985258024
10
-139.8474922336824
20
37.508918985258198
10
-143.31159384882054
20
43.508918985257949
0
LWPOLYLINE
5
156
100
AcDbEntity
8
0
100
AcDbPolyline
90
6
70
1
43
0.0
10
-119.0635938488214
20
57.508918985259569
10
-125.99179707909687
20
57.508918985259108
10
-129.45589869423424
20
51.508918985258916
10
-125.9917970790961
20
45.50891898525915
10
-119.06359384882063
20
45.508918985259612
10
-115.59949223368328
20
51.508918985259804
0
LWPOLYLINE
5
157
100
AcDbEntity
8
0
100
AcDbPolyline
90
5
70
1
43
0.0
10
-128.0387210161503
20
81.963542727056307
10
-129.45589869423605
20
79.50891898525893
10
-125.99179707909795
20
73.508918985259157
10
-119.06359384882248
20
73.508918985259612
10
-118.3548166995871
20
74.736557018979283
42
0.050475561806989692
0
LWPOLYLINE
5
158
100
AcDbEntity
8
0
100
AcDbPolyline
90
6
70
1
43
0.0
10
-150.23979707909876
20
85.508918985257509
10
-153.7038986942361
20
79.508918985257282
10
-150.239797079098
20
73.508918985257552
10
-143.31159384882253
20
73.508918985258006
10
-139.84749223368516
20
79.508918985258163
10
-143.31159384882329
20
85.508918985257935
0
LWPOLYLINE
5
159
100
AcDbEntity
8
0
100
AcDbPolyline
90
6
70
1
43
0.0
10
-177.95189869423524
20
65.508918985255661
10
-174.48779707909711
20
59.508918985255939
10
-167.55959384882163
20
59.5089189852564
10
-164.0954922336843
20
65.508918985256599
10
-167.55959384882243
20
71.508918985256358
10
-174.4877970790979
20
71.508918985255889
0
LWPOLYLINE
5
160
100
AcDbEntity
8
0
100
AcDbPolyline
90
6
70
1
43
0.0
10
-198.73579707909502
20
31.508918985254365
10
-191.80759384881955
20
31.508918985254809
10
-188.34349223368221
20
37.508918985254979
10
-191.80759384882035
20
43.508918985254752
10
-198.73579707909582
20
43.508918985254361
10
-202.19989869423316
20
37.508918985254112
0
LWPOLYLINE
5
161
100
AcDbEntity
8
0
100
AcDbPolyline
90
5
70
1
43
0.0
10
-217.47478969936839
20
17.508918985253118
10
-216.05559384881869
20
17.508918985253207
10
-212.59149223368129
20
23.508918985253416
10
-216.05559384881946
20
29.508918985253164
10
-218.89171720482184
20
29.508918985252972
42
0.050475624059747808
0
LWPOLYLINE
5
162
100
AcDbEntity
8
0
100
AcDbPolyline
90
6
70
1
43
0.0
10
-213.06268572196274
20
56.323818029079071
42
-0.039442132748760933
10
-208.33687949417475
20
64.508918985253729
10
-203.93194950180367
20
64.508918985254013
10
-200.46784788666554
20
58.50891898525429
10
-203.93194950180285
20
52.508918985254063
10
-210.86015273207832
20
52.508918985253601
0
LWPOLYLINE
5
163
100
AcDbEntity
8
0
100
AcDbPolyline
90
6
70
1
43
0.0
10
-163.62650065699756
20
90.322468242471984
10
-165.82825434721852
20
86.508918985256571
10
-162.36415273208036
20
80.508918985256798
10
-155.43594950180488
20
80.508918985257267
10
-151.97184788666758
20
86.508918985257452
10
-154.17360157688898
20
90.322468242472638
42
0.039448372653643628
0
LWPOLYLINE
5
164
100
AcDbEntity
8
0
100
AcDbPolyline
90
5
70
1
43
0.0
10
-199.44482040784146
20
74.736983414389798
10
-198.73579707909781
20
73.508918985254354
10
-191.80759384882234
20
73.508918985254809
10
-188.34349223368497
20
79.508918985254965
10
-189.76085286763856
20
81.963859615910167
42
0.050475499559943397
0
LWPOLYLINE
5
165
100
AcDbEntity
8
0
100
AcDbPolyline
90
6
70
1
43
0.0
10
-174.48779707909881
20
85.508918985255917
10
-177.95189869423615
20
79.508918985255676
10
-174.48779707909804
20
73.508918985255946
10
-167.55959384882257
20
73.508918985256415
10
-164.09549223368521
20
79.508918985256571
10
-167.55959384882334
20
85.508918985256344
0
LWPOLYLINE
5
166
100
AcDbEntity
8
0
100
AcDbPolyline
90
4
70
1
43
0.0
10
-206.90005111694174
20
66.5089189852538
10
-203.93194950180376
20
66.508918985254041
10
-200.46784788666645
20
72.508918985254269
10
-200.93689935719954
20
73.321339963582162
42
0.037777304164748726
0
LWPOLYLINE
5
167
100
AcDbEntity
8
0
100
AcDbPolyline
90
6
70
1
43
0.0
10
-214.32425434721463
20
30.508918985253356
10
-210.86015273207647
20
24.508918985253608
10
-203.931949501801
20
24.50891898525407
10
-200.46784788666369
20
30.508918985254279
10
-203.9319495018018
20
36.508918985253992
10
-210.86015273207727
20
36.508918985253565
0
LWPOLYLINE
5
168
100
AcDbEntity
8
0
100
AcDbPolyline
90
6
70
1
43
0.0
10
-186.61215273207762
20
38.508918985255207
10
-179.68394950180215
20
38.508918985255669
10
-176.21984788666484
20
44.508918985255868
10
-179.68394950180297
20
50.508918985255598
10
-186.61215273207844
20
50.508918985255171
10
-190.07625434721578
20
44.508918985254979
0
LWPOLYLINE
5
169
100
AcDbEntity
8
0
100
AcDbPolyline
90
6
70
1
43
0.0
10
-155.43594950180304
20
52.50891898525726
10
-151.97184788666573
20
58.508918985257488
10
-155.43594950180386
20
64.508918985257182
10
-162.36415273207933
20
64.508918985256756
10
-165.82825434721667
20
58.508918985256564
10
-162.36415273207851
20
52.508918985256798
0
LWPOLYLINE
5
170
100
AcDbEntity
8
0
100
AcDbPolyline
90
4
70
1
43
0.0
10
-151.72313658070379
20
90.078138366910693
42
-0.037771994852443515
10
-142.84305707715424
20
88.320448479003488
10
-143.31159384882343
20
87.508918985258006
10
-150.23979707909891
20
87.508918985257537
0
LWPOLYLINE
5
171
100
AcDbEntity
8
0
100
AcDbPolyline
90
4
70
1
43
0.0
10
-116.86320287668488
20
73.321339963587576
42
-0.03777730416474849
10
-110.9000511169419
20
66.508918985260195
10
-113.86815273207965
20
66.50891898526001
10
-117.33225434721777
20
72.508918985259754
0
LWPOLYLINE
5
172
100
AcDbEntity
8
0
100
AcDbPolyline
90
6
70
1
43
0.0
10
-131.18794950180381
20
64.508918985258788
10
-138.11615273207929
20
64.50891898525839
10
-141.58025434721662
20
58.508918985258163
10
-138.11615273207849
20
52.508918985258433
10
-131.18794950180302
20
52.508918985258859
10
-127.72384788666568
20
58.508918985259086
0
LWPOLYLINE
5
173
100
AcDbEntity
8
0
100
AcDbPolyline
90
6
70
1
43
0.0
10
-155.43594950180213
20
38.508918985257289
10
-151.97184788666479
20
44.508918985257466
10
-155.43594950180292
20
50.508918985257196
10
-162.3641527320784
20
50.50891898525677
10
-165.82825434721573
20
44.508918985256578
10
-162.36415273207757
20
38.508918985256827
0
LWPOLYLINE
5
174
100
AcDbEntity
8
0
100
AcDbPolyline
90
6
70
1
43
0.0
10
-190.07625434721487
20
30.508918985254937
10
-186.61215273207671
20
24.508918985255189
10
-179.68394950180124
20
24.508918985255651
10
-176.21984788666393
20
30.50891898525586
10
-179.68394950180203
20
36.508918985255569
10
-186.6121527320775
20
36.508918985255143
0
LWPOLYLINE
5
175
100
AcDbEntity
8
0
100
AcDbPolyline
90
6
70
1
43
0.0
10
-210.86015273207553
20
10.508918985253604
10
-203.93194950180006
20
10.508918985254066
10
-200.46784788666275
20
16.508918985254258
10
-203.93194950180089
20
22.508918985254006
10
-210.86015273207636
20
22.50891898525358
10
-214.3242543472137
20
16.508918985253352
0
LWPOLYLINE
5
176
100
AcDbEntity
8
0
100
AcDbPolyline
90
5
70
1
43
0.0
10
-189.76085286763177
20
-20.946021645400226
10
-188.34349223367849
20
-18.491081014744992
10
-191.80759384881665
20
-12.491081014745244
10
-198.73579707909212
20
-12.491081014745689
10
-199.44482040783566
20
-13.719145443881139
42
0.050475499559943397
0
LWPOLYLINE
5
177
100
AcDbEntity
8
0
100
AcDbPolyline
90
6
70
1
43
0.0
10
-177.95189869423058
20
-4.4910810147442781
10
-174.4877970790925
20
-10.491081014744026
10
-167.55959384881703
20
-10.491081014743582
10
-164.09549223367964
20
-4.4910810147434077
10
-167.5595938488178
20
1.5089189852563401
10
-174.48779707909327
20
1.5089189852559315
0
LWPOLYLINE
5
178
100
AcDbEntity
8
0
100
AcDbPolyline
90
6
70
1
43
0.0
10
-150.23979707909416
20
15.508918985257512
10
-153.70389869423147
20
9.5089189852573028
10
-150.23979707909336
20
3.5089189852575586
10
-143.31159384881789
20
3.5089189852580205
10
-139.84749223368055
20
9.5089189852582088
10
-143.31159384881869
20
15.508918985257939
0
LWPOLYLINE
5
179
100
AcDbEntity
8
0
100
AcDbPolyline
90
6
70
1
43
0.0
10
-119.06359384881955
20
29.508918985259559
10
-125.99179707909502
20
29.508918985259097
10
-129.45589869423236
20
23.508918985258887
10
-125.99179707909425
20
17.50891898525914
10
-119.06359384881878
20
17.508918985259601
10
-115.59949223368143
20
23.508918985259811
0
LWPOLYLINE
5
180
100
AcDbEntity
8
0
100
AcDbPolyline
90
5
70
1
43
0.0
10
-100.32531253451033
20
43.508918985260735
10
-101.7437970790962
20
43.508918985260721
10
-105.20789869423353
20
37.508918985260522
10
-101.7437970790954
20
31.508918985260777
10
-98.908385029056873
20
31.508918985260959
42
0.050475624059747669
0
LWPOLYLINE
5
181
100
AcDbEntity
8
0
100
AcDbPolyline
90
6
70
1
43
0.0
10
-113.86815273207596
20
10.508918985260017
10
-106.93994950180048
20
10.508918985260461
10
-103.47584788666313
20
16.508918985260653
10
-106.93994950180127
20
22.508918985260401
10
-113.86815273207674
20
22.508918985259974
10
-117.33225434721408
20
16.508918985259765
0
LWPOLYLINE
5
182
100
AcDbEntity
8
0
100
AcDbPolyline
90
6
70
1
43
0.0
10
-141.58025434721293
20
2.5089189852581484
10
-138.1161527320748
20
-3.4910810147415994
10
-131.18794950179932
20
-3.4910810147411375
10
-127.72384788666199
20
2.5089189852590721
10
-131.18794950180012
20
8.5089189852587843
10
-138.11615273207559
20
8.508918985258358
0
LWPOLYLINE
5
183
100
AcDbEntity
8
0
100
AcDbPolyline
90
6
70
1
43
0.0
10
-165.82825434721204
20
-11.491081014743436
10
-162.36415273207388
20
-17.491081014743184
10
-155.43594950179843
20
-17.491081014742722
10
-151.9718478866611
20
-11.491081014742548
10
-155.43594950179923
20
-5.4910810147428002
10
-162.3641527320747
20
-5.4910810147432265
0
LWPOLYLINE
5
184
100
AcDbEntity
8
0
100
AcDbPolyline
90
5
70
1
43
0.0
10
-176.92848831966506
20
-26.71848224900641
10
-176.21984788666023
20
-25.49108101474415
10
-179.68394950179834
20
-19.491081014744402
10
-186.61215273207381
20
-19.491081014744829
10
-188.029320141916
20
-21.945686971422692
42
0.050475686318218568
0
LWPOLYLINE
5
185
100
AcDbEntity
8
0
100
AcDbPolyline
90
4
70
1
43
0.0
10
-110.90005111693684
20
-5.4910810147398585
42
-0.037777304164749267
10
-116.86320287667908
20
-12.303501993068195
10
-117.33225434721223
20
-11.491081014740239
10
-113.86815273207489
20
-5.4910810147400291
0
CIRCLE
5
186
100
AcDbEntity
8
0
100
AcDbCircle
10
106.40005111694339
20
83.008918985253473
30
-7.3642062670131736e-07
40
2.25
210
0
220
0
230
-1
0
CIRCLE
5
187
100
AcDbEntity
8
0
100
AcDbCircle
10
106.40005111694339
20
-21.991081014746534
30
-7.3642062670131736e-07
40
2.25
210
0
220
0
230
-1
0
CIRCLE
5
188
100
AcDbEntity
8
0
100
AcDbCircle
10
211.40005111694339
20
83.008918985253473
30
-7.3642062670131736e-07
40
2.25
210
0
220
0
230
-1
0
CIRCLE
5
189
100
AcDbEntity
8
0
100
AcDbCircle
10
211.40005111694339
20
-21.991081014746534
30
-7.3642062670131736e-07
40
2.25
210
0
220
0
230
-1
0
ENDSEC
0
SECTION
2
OBJECTS
0
DICTIONARY
5
C
100
AcDbDictionary
3
ACAD_GROUP
350
D
3
ACAD_MLINESTYLE
350
17
0
DICTIONARY
5
D
100
AcDbDictionary
0
DICTIONARY
5
1A
330
C
100
AcDbDictionary
0
DICTIONARY
5
17
100
AcDbDictionary
0
ENDSEC
0
EOF
