M48
; DRILL file {KiCad (6.0.6)} date Tue Jul 26 01:14:14 2022
; FORMAT={-:-/ absolute / inch / decimal}
; #@! TF.CreationDate,2022-07-26T01:14:14+02:00
; #@! TF.GenerationSoftware,Kicad,Pcbnew,(6.0.6)
; #@! TF.FileFunction,Plated,1,2,PTH
FMAT,2
INCH
; #@! TA.AperFunction,Plated,PTH,ComponentDrill
T1C0.0374
; #@! TA.AperFunction,Plated,PTH,ComponentDrill
T2C0.0394
; #@! TA.AperFunction,Plated,PTH,ComponentDrill
T3C0.0402
; #@! TA.AperFunction,Plated,PTH,ComponentDrill
T4C0.1260
%
G90
G05
T1
X3.0039Y-3.6781
X3.1024Y-3.6781
X3.2008Y-3.6781
X3.4409Y-3.6781
X3.5394Y-3.6781
X3.6378Y-3.6781
X3.9596Y-3.9902
X3.9596Y-4.0886
X3.9596Y-4.187
X3.9596Y-4.2854
T2
X3.1969Y-3.3583
X3.2953Y-3.3583
X3.5394Y-3.3583
X3.6378Y-3.3583
T3
X2.8346Y-4.0327
X2.9528Y-4.0327
X3.5039Y-4.0346
X3.622Y-4.0346
X4.2329Y-3.248
X4.2329Y-3.3661
X4.2329Y-3.4843
X4.2329Y-3.6024
X4.2329Y-3.7205
X4.2329Y-3.8386
X4.2329Y-3.9567
X4.2329Y-4.0748
X4.2329Y-4.1929
X4.351Y-3.248
X4.351Y-3.3661
X4.351Y-3.4843
X4.351Y-3.6024
X4.351Y-3.7205
X4.351Y-3.8386
X4.351Y-3.9567
X4.351Y-4.0748
X4.351Y-4.1929
T4
X3.2283Y-3.937
X3.9508Y-3.4055
T0
M30
