%TF.GenerationSoftware,KiCad,Pcbnew,(6.0.6)*%
%TF.CreationDate,2022-08-05T00:51:14+02:00*%
%TF.ProjectId,toolhead_pcb,746f6f6c-6865-4616-945f-7063622e6b69,rev?*%
%TF.SameCoordinates,Original*%
%TF.FileFunction,Copper,L1,Top*%
%TF.FilePolarity,Positive*%
%FSLAX46Y46*%
G04 Gerber Fmt 4.6, Leading zero omitted, Abs format (unit mm)*
G04 Created by KiCad (PCBNEW (6.0.6)) date 2022-08-05 00:51:14*
%MOMM*%
%LPD*%
G01*
G04 APERTURE LIST*
G04 Aperture macros list*
%AMRoundRect*
0 Rectangle with rounded corners*
0 $1 Rounding radius*
0 $2 $3 $4 $5 $6 $7 $8 $9 X,Y pos of 4 corners*
0 Add a 4 corners polygon primitive as box body*
4,1,4,$2,$3,$4,$5,$6,$7,$8,$9,$2,$3,0*
0 Add four circle primitives for the rounded corners*
1,1,$1+$1,$2,$3*
1,1,$1+$1,$4,$5*
1,1,$1+$1,$6,$7*
1,1,$1+$1,$8,$9*
0 Add four rect primitives between the rounded corners*
20,1,$1+$1,$2,$3,$4,$5,0*
20,1,$1+$1,$4,$5,$6,$7,0*
20,1,$1+$1,$6,$7,$8,$9,0*
20,1,$1+$1,$8,$9,$2,$3,0*%
G04 Aperture macros list end*
%TA.AperFunction,ComponentPad*%
%ADD10RoundRect,0.250001X0.499999X0.759999X-0.499999X0.759999X-0.499999X-0.759999X0.499999X-0.759999X0*%
%TD*%
%TA.AperFunction,ComponentPad*%
%ADD11O,1.500000X2.020000*%
%TD*%
%TA.AperFunction,ComponentPad*%
%ADD12C,5.600000*%
%TD*%
%TA.AperFunction,ComponentPad*%
%ADD13RoundRect,0.250000X0.600000X0.725000X-0.600000X0.725000X-0.600000X-0.725000X0.600000X-0.725000X0*%
%TD*%
%TA.AperFunction,ComponentPad*%
%ADD14O,1.700000X1.950000*%
%TD*%
%TA.AperFunction,ComponentPad*%
%ADD15RoundRect,0.250000X0.725000X-0.600000X0.725000X0.600000X-0.725000X0.600000X-0.725000X-0.600000X0*%
%TD*%
%TA.AperFunction,ComponentPad*%
%ADD16O,1.950000X1.700000*%
%TD*%
%TA.AperFunction,SMDPad,CuDef*%
%ADD17R,1.000000X1.600000*%
%TD*%
%TA.AperFunction,SMDPad,CuDef*%
%ADD18R,1.200000X1.200000*%
%TD*%
%TA.AperFunction,SMDPad,CuDef*%
%ADD19R,0.500000X0.600000*%
%TD*%
%TA.AperFunction,ComponentPad*%
%ADD20RoundRect,0.250000X0.600000X0.750000X-0.600000X0.750000X-0.600000X-0.750000X0.600000X-0.750000X0*%
%TD*%
%TA.AperFunction,ComponentPad*%
%ADD21O,1.700000X2.000000*%
%TD*%
%TA.AperFunction,SMDPad,CuDef*%
%ADD22R,0.800000X1.600000*%
%TD*%
%TA.AperFunction,ComponentPad*%
%ADD23RoundRect,0.250001X-0.499999X0.499999X-0.499999X-0.499999X0.499999X-0.499999X0.499999X0.499999X0*%
%TD*%
%TA.AperFunction,ComponentPad*%
%ADD24C,1.500000*%
%TD*%
%TA.AperFunction,Conductor*%
%ADD25C,0.508000*%
%TD*%
%TA.AperFunction,Conductor*%
%ADD26C,0.762000*%
%TD*%
G04 APERTURE END LIST*
D10*
%TO.P,Therm 0,1*%
%TO.N,N/C*%
X92000000Y-102480000D03*
D11*
%TO.P,Therm 0,2*%
X89000000Y-102480000D03*
%TD*%
D12*
%TO.P,REF\u002A\u002A,1*%
%TO.N,N/C*%
X100350000Y-86500000D03*
%TD*%
D13*
%TO.P,Neo Pixel,1*%
%TO.N,N/C*%
X81300000Y-93425000D03*
D14*
%TO.P,Neo Pixel,2*%
X78800000Y-93425000D03*
%TO.P,Neo Pixel,3*%
X76300000Y-93425000D03*
%TD*%
D15*
%TO.P,E-Motor,1*%
%TO.N,N/C*%
X100575000Y-108850000D03*
D16*
%TO.P,E-Motor,2*%
X100575000Y-106350000D03*
%TO.P,E-Motor,3*%
X100575000Y-103850000D03*
%TO.P,E-Motor,4*%
X100575000Y-101350000D03*
%TD*%
D17*
%TO.P,Probe filter diode,1*%
%TO.N,N/C*%
X98300000Y-96300000D03*
%TO.P,Probe filter diode,2*%
X101500000Y-96300000D03*
%TD*%
D18*
%TO.P,R1100,1*%
%TO.N,N/C*%
X77700000Y-97600000D03*
%TO.P,R1100,2*%
X77700000Y-100000000D03*
%TD*%
D19*
%TO.P,Thermistor Chamber,1*%
%TO.N,N/C*%
X70598500Y-81699000D03*
%TO.P,Thermistor Chamber,2*%
X71600000Y-81700000D03*
%TD*%
D12*
%TO.P,REF\u002A\u002A,1*%
%TO.N,N/C*%
X82000000Y-100000000D03*
%TD*%
D10*
%TO.P,Hotend,1*%
%TO.N,N/C*%
X75000000Y-102430000D03*
D11*
%TO.P,Hotend,2*%
X72000000Y-102430000D03*
%TD*%
D20*
%TO.P,Fan 1,1*%
%TO.N,N/C*%
X92400000Y-85300000D03*
D21*
%TO.P,Fan 1,2*%
X89900000Y-85300000D03*
%TD*%
D22*
%TO.P,Hotend Led,1*%
%TO.N,N/C*%
X73600000Y-97700000D03*
%TO.P,Hotend Led,2*%
X71200000Y-97700000D03*
%TD*%
D23*
%TO.P,Breakbox In,1*%
%TO.N,N/C*%
X110515000Y-82500000D03*
D24*
%TO.P,Breakbox In,2*%
X110515000Y-85500000D03*
%TO.P,Breakbox In,3*%
X110515000Y-88500000D03*
%TO.P,Breakbox In,4*%
X110515000Y-91500000D03*
%TO.P,Breakbox In,5*%
X110515000Y-94500000D03*
%TO.P,Breakbox In,6*%
X110515000Y-97500000D03*
%TO.P,Breakbox In,7*%
X110515000Y-100500000D03*
%TO.P,Breakbox In,8*%
X110515000Y-103500000D03*
%TO.P,Breakbox In,9*%
X110515000Y-106500000D03*
%TO.P,Breakbox In,10*%
X107515000Y-82500000D03*
%TO.P,Breakbox In,11*%
X107515000Y-85500000D03*
%TO.P,Breakbox In,12*%
X107515000Y-88500000D03*
%TO.P,Breakbox In,13*%
X107515000Y-91500000D03*
%TO.P,Breakbox In,14*%
X107515000Y-94500000D03*
%TO.P,Breakbox In,15*%
X107515000Y-97500000D03*
%TO.P,Breakbox In,16*%
X107515000Y-100500000D03*
%TO.P,Breakbox In,17*%
X107515000Y-103500000D03*
%TO.P,Breakbox In,18*%
X107515000Y-106500000D03*
%TD*%
D20*
%TO.P,Fan 0,1*%
%TO.N,N/C*%
X83700000Y-85300000D03*
D21*
%TO.P,Fan 0,2*%
X81200000Y-85300000D03*
%TD*%
D13*
%TO.P,Probe,1*%
%TO.N,N/C*%
X92400000Y-93425000D03*
D14*
%TO.P,Probe,2*%
X89900000Y-93425000D03*
%TO.P,Probe,3*%
X87400000Y-93425000D03*
%TD*%
D25*
%TO.N,*%
X91300000Y-110400000D02*
X93100000Y-108600000D01*
X107515000Y-87685000D02*
X109000000Y-86200000D01*
X87400000Y-95100000D02*
X87400000Y-93425000D01*
D26*
X110900000Y-109600000D02*
X103300000Y-109600000D01*
D25*
X109015000Y-96000000D02*
X109015000Y-98385000D01*
D26*
X106315000Y-104700000D02*
X105000000Y-104700000D01*
D25*
X86980000Y-104500000D02*
X89000000Y-102480000D01*
X68900000Y-87600000D02*
X68900000Y-107500000D01*
X110515000Y-94500000D02*
X109015000Y-96000000D01*
X91000000Y-98700000D02*
X87400000Y-95100000D01*
X109000000Y-86200000D02*
X109000000Y-84600000D01*
X70600000Y-81700500D02*
X70600000Y-85900000D01*
X84300000Y-91300000D02*
X81200000Y-88200000D01*
X111600000Y-93000000D02*
X112300000Y-93700000D01*
D26*
X112400000Y-81200000D02*
X111700000Y-80500000D01*
X75000000Y-100800000D02*
X75000000Y-102430000D01*
D25*
X104600000Y-81700000D02*
X71600000Y-81700000D01*
X103100000Y-96900000D02*
X102500000Y-96300000D01*
D26*
X110515000Y-103500000D02*
X112600000Y-105585000D01*
D25*
X92425000Y-93400000D02*
X92400000Y-93425000D01*
X110515000Y-88500000D02*
X110515000Y-89485000D01*
D26*
X107515000Y-106500000D02*
X104600000Y-106500000D01*
X73600000Y-97700000D02*
X77600000Y-97700000D01*
D25*
X108300000Y-93000000D02*
X106800000Y-93000000D01*
X93100000Y-108600000D02*
X93100000Y-105100000D01*
X102700000Y-99000000D02*
X101500000Y-97800000D01*
D26*
X103300000Y-109600000D02*
X102550000Y-108850000D01*
D25*
X92500000Y-97800000D02*
X89900000Y-95200000D01*
X110515000Y-91500000D02*
X112000000Y-90015000D01*
X108400000Y-99000000D02*
X102700000Y-99000000D01*
X92400000Y-95600000D02*
X92400000Y-93425000D01*
D26*
X109900000Y-108100000D02*
X104100000Y-108100000D01*
D25*
X69800000Y-103100000D02*
X71200000Y-104500000D01*
X112300000Y-93700000D02*
X112300000Y-100800000D01*
X107000000Y-84100000D02*
X104600000Y-81700000D01*
D26*
X77700000Y-100000000D02*
X75800000Y-100000000D01*
X111700000Y-80500000D02*
X71200000Y-80500000D01*
D25*
X71800000Y-110400000D02*
X91300000Y-110400000D01*
X106800000Y-93000000D02*
X105100000Y-91300000D01*
D26*
X100725000Y-106500000D02*
X100575000Y-106350000D01*
D25*
X105500000Y-90000000D02*
X105100000Y-90400000D01*
D26*
X110515000Y-85500000D02*
X111600000Y-85500000D01*
X112600000Y-107900000D02*
X110900000Y-109600000D01*
D25*
X108500000Y-84100000D02*
X107000000Y-84100000D01*
X71200000Y-104500000D02*
X86980000Y-104500000D01*
X93100000Y-105100000D02*
X92000000Y-104000000D01*
X69800000Y-88000000D02*
X69800000Y-103100000D01*
D26*
X102550000Y-108850000D02*
X100575000Y-108850000D01*
D25*
X106915000Y-96900000D02*
X103100000Y-96900000D01*
D26*
X72000000Y-100300000D02*
X72000000Y-102430000D01*
X105000000Y-104700000D02*
X101650000Y-101350000D01*
D25*
X103400000Y-82600000D02*
X75200000Y-82600000D01*
X75200000Y-82600000D02*
X69800000Y-88000000D01*
D26*
X102350000Y-106350000D02*
X100575000Y-106350000D01*
X104100000Y-108100000D02*
X102350000Y-106350000D01*
D25*
X81200000Y-88200000D02*
X81200000Y-85300000D01*
X93700000Y-96900000D02*
X92400000Y-95600000D01*
X92200000Y-90400000D02*
X89900000Y-88100000D01*
X97300000Y-96300000D02*
X96700000Y-96900000D01*
X70600000Y-85900000D02*
X68900000Y-87600000D01*
D26*
X107515000Y-103500000D02*
X106315000Y-104700000D01*
D25*
X107515000Y-88500000D02*
X107515000Y-87685000D01*
X109000000Y-84600000D02*
X108500000Y-84100000D01*
X92000000Y-104000000D02*
X92000000Y-102480000D01*
X101500000Y-97800000D02*
X92500000Y-97800000D01*
D26*
X71200000Y-99500000D02*
X72000000Y-100300000D01*
D25*
X107515000Y-94500000D02*
X108400000Y-94500000D01*
D26*
X112400000Y-84700000D02*
X112400000Y-81200000D01*
D25*
X101200000Y-98700000D02*
X91000000Y-98700000D01*
D26*
X75800000Y-100000000D02*
X75000000Y-100800000D01*
D25*
X110515000Y-89485000D02*
X109100000Y-90900000D01*
X109100000Y-90900000D02*
X109100000Y-92200000D01*
X112000000Y-87800000D02*
X111200000Y-87000000D01*
X89900000Y-95200000D02*
X89900000Y-93425000D01*
D26*
X112600000Y-105585000D02*
X112600000Y-107900000D01*
D25*
X102500000Y-96300000D02*
X101500000Y-96300000D01*
X104400000Y-101900000D02*
X101200000Y-98700000D01*
D26*
X111600000Y-85500000D02*
X112400000Y-84700000D01*
D25*
X109015000Y-98385000D02*
X108400000Y-99000000D01*
X109800000Y-87000000D02*
X109000000Y-87800000D01*
X68900000Y-107500000D02*
X71800000Y-110400000D01*
X109000000Y-89400000D02*
X108400000Y-90000000D01*
D26*
X77600000Y-97700000D02*
X77700000Y-97600000D01*
X110515000Y-107485000D02*
X109900000Y-108100000D01*
D25*
X106300000Y-85500000D02*
X103400000Y-82600000D01*
D26*
X104600000Y-106500000D02*
X101950000Y-103850000D01*
D25*
X109000000Y-87800000D02*
X109000000Y-89400000D01*
X70598500Y-81699000D02*
X70600000Y-81700500D01*
X96700000Y-96900000D02*
X93700000Y-96900000D01*
X111200000Y-101900000D02*
X104400000Y-101900000D01*
X107515000Y-97500000D02*
X106915000Y-96900000D01*
X105100000Y-91300000D02*
X84300000Y-91300000D01*
D26*
X110515000Y-106500000D02*
X110515000Y-107485000D01*
D25*
X107515000Y-85500000D02*
X106300000Y-85500000D01*
X89900000Y-88100000D02*
X89900000Y-85300000D01*
X108400000Y-94500000D02*
X109900000Y-93000000D01*
X112300000Y-100800000D02*
X111200000Y-101900000D01*
D26*
X70598500Y-81101500D02*
X70598500Y-81699000D01*
D25*
X108400000Y-90000000D02*
X105500000Y-90000000D01*
D26*
X71200000Y-80500000D02*
X70598500Y-81101500D01*
D25*
X109100000Y-92200000D02*
X108300000Y-93000000D01*
X111200000Y-87000000D02*
X109800000Y-87000000D01*
X105100000Y-90400000D02*
X92200000Y-90400000D01*
D26*
X71200000Y-97700000D02*
X71200000Y-99500000D01*
D25*
X109900000Y-93000000D02*
X111600000Y-93000000D01*
X112000000Y-90015000D02*
X112000000Y-87800000D01*
D26*
X101950000Y-103850000D02*
X100575000Y-103850000D01*
X101650000Y-101350000D02*
X100575000Y-101350000D01*
D25*
X98300000Y-96300000D02*
X97300000Y-96300000D01*
%TD*%
M02*
