%TF.GenerationSoftware,KiCad,Pcbnew,(6.0.6)*%
%TF.CreationDate,2022-07-26T01:14:12+02:00*%
%TF.ProjectId,toolhead_pcb,746f6f6c-6865-4616-945f-7063622e6b69,rev?*%
%TF.SameCoordinates,Original*%
%TF.FileFunction,Copper,L2,Bot*%
%TF.FilePolarity,Positive*%
%FSLAX46Y46*%
G04 Gerber Fmt 4.6, Leading zero omitted, Abs format (unit mm)*
G04 Created by KiCad (PCBNEW (6.0.6)) date 2022-07-26 01:14:12*
%MOMM*%
%LPD*%
G01*
G04 APERTURE LIST*
G04 Aperture macros list*
%AMRoundRect*
0 Rectangle with rounded corners*
0 $1 Rounding radius*
0 $2 $3 $4 $5 $6 $7 $8 $9 X,Y pos of 4 corners*
0 Add a 4 corners polygon primitive as box body*
4,1,4,$2,$3,$4,$5,$6,$7,$8,$9,$2,$3,0*
0 Add four circle primitives for the rounded corners*
1,1,$1+$1,$2,$3*
1,1,$1+$1,$4,$5*
1,1,$1+$1,$6,$7*
1,1,$1+$1,$8,$9*
0 Add four rect primitives between the rounded corners*
20,1,$1+$1,$2,$3,$4,$5,0*
20,1,$1+$1,$4,$5,$6,$7,0*
20,1,$1+$1,$6,$7,$8,$9,0*
20,1,$1+$1,$8,$9,$2,$3,0*%
G04 Aperture macros list end*
%TA.AperFunction,ComponentPad*%
%ADD10RoundRect,0.250001X0.499999X0.759999X-0.499999X0.759999X-0.499999X-0.759999X0.499999X-0.759999X0*%
%TD*%
%TA.AperFunction,ComponentPad*%
%ADD11O,1.500000X2.020000*%
%TD*%
%TA.AperFunction,ComponentPad*%
%ADD12C,5.600000*%
%TD*%
%TA.AperFunction,ComponentPad*%
%ADD13RoundRect,0.250000X0.600000X0.725000X-0.600000X0.725000X-0.600000X-0.725000X0.600000X-0.725000X0*%
%TD*%
%TA.AperFunction,ComponentPad*%
%ADD14O,1.700000X1.950000*%
%TD*%
%TA.AperFunction,ComponentPad*%
%ADD15RoundRect,0.250000X0.725000X-0.600000X0.725000X0.600000X-0.725000X0.600000X-0.725000X-0.600000X0*%
%TD*%
%TA.AperFunction,ComponentPad*%
%ADD16O,1.950000X1.700000*%
%TD*%
%TA.AperFunction,ComponentPad*%
%ADD17RoundRect,0.250000X0.600000X0.750000X-0.600000X0.750000X-0.600000X-0.750000X0.600000X-0.750000X0*%
%TD*%
%TA.AperFunction,ComponentPad*%
%ADD18O,1.700000X2.000000*%
%TD*%
%TA.AperFunction,ComponentPad*%
%ADD19RoundRect,0.250001X-0.499999X0.499999X-0.499999X-0.499999X0.499999X-0.499999X0.499999X0.499999X0*%
%TD*%
%TA.AperFunction,ComponentPad*%
%ADD20C,1.500000*%
%TD*%
%TA.AperFunction,Conductor*%
%ADD21C,0.508000*%
%TD*%
%TA.AperFunction,Conductor*%
%ADD22C,1.524000*%
%TD*%
%TA.AperFunction,Conductor*%
%ADD23C,0.762000*%
%TD*%
G04 APERTURE END LIST*
D10*
%TO.P,Therm 0,1*%
%TO.N,N/C*%
X92000000Y-102480000D03*
D11*
%TO.P,Therm 0,2*%
X89000000Y-102480000D03*
%TD*%
D12*
%TO.P,REF\u002A\u002A,1*%
%TO.N,N/C*%
X100350000Y-86500000D03*
%TD*%
D13*
%TO.P,Neo Pixel,1*%
%TO.N,N/C*%
X81300000Y-93425000D03*
D14*
%TO.P,Neo Pixel,2*%
X78800000Y-93425000D03*
%TO.P,Neo Pixel,3*%
X76300000Y-93425000D03*
%TD*%
D15*
%TO.P,E-Motor,1*%
%TO.N,N/C*%
X100575000Y-108850000D03*
D16*
%TO.P,E-Motor,2*%
X100575000Y-106350000D03*
%TO.P,E-Motor,3*%
X100575000Y-103850000D03*
%TO.P,E-Motor,4*%
X100575000Y-101350000D03*
%TD*%
D12*
%TO.P,REF\u002A\u002A,1*%
%TO.N,N/C*%
X82000000Y-100000000D03*
%TD*%
D10*
%TO.P,Hotend,1*%
%TO.N,N/C*%
X75000000Y-102430000D03*
D11*
%TO.P,Hotend,2*%
X72000000Y-102430000D03*
%TD*%
D17*
%TO.P,Fan 1,1*%
%TO.N,N/C*%
X92400000Y-85300000D03*
D18*
%TO.P,Fan 1,2*%
X89900000Y-85300000D03*
%TD*%
D19*
%TO.P,Breakbox In,1*%
%TO.N,N/C*%
X110515000Y-82500000D03*
D20*
%TO.P,Breakbox In,2*%
X110515000Y-85500000D03*
%TO.P,Breakbox In,3*%
X110515000Y-88500000D03*
%TO.P,Breakbox In,4*%
X110515000Y-91500000D03*
%TO.P,Breakbox In,5*%
X110515000Y-94500000D03*
%TO.P,Breakbox In,6*%
X110515000Y-97500000D03*
%TO.P,Breakbox In,7*%
X110515000Y-100500000D03*
%TO.P,Breakbox In,8*%
X110515000Y-103500000D03*
%TO.P,Breakbox In,9*%
X110515000Y-106500000D03*
%TO.P,Breakbox In,10*%
X107515000Y-82500000D03*
%TO.P,Breakbox In,11*%
X107515000Y-85500000D03*
%TO.P,Breakbox In,12*%
X107515000Y-88500000D03*
%TO.P,Breakbox In,13*%
X107515000Y-91500000D03*
%TO.P,Breakbox In,14*%
X107515000Y-94500000D03*
%TO.P,Breakbox In,15*%
X107515000Y-97500000D03*
%TO.P,Breakbox In,16*%
X107515000Y-100500000D03*
%TO.P,Breakbox In,17*%
X107515000Y-103500000D03*
%TO.P,Breakbox In,18*%
X107515000Y-106500000D03*
%TD*%
D17*
%TO.P,Fan 0,1*%
%TO.N,N/C*%
X83700000Y-85300000D03*
D18*
%TO.P,Fan 0,2*%
X81200000Y-85300000D03*
%TD*%
D13*
%TO.P,Probe,1*%
%TO.N,N/C*%
X92400000Y-93425000D03*
D14*
%TO.P,Probe,2*%
X89900000Y-93425000D03*
%TO.P,Probe,3*%
X87400000Y-93425000D03*
%TD*%
D21*
%TO.N,*%
X107515000Y-100500000D02*
X106915000Y-99900000D01*
X84150000Y-94400000D02*
X81800000Y-94400000D01*
D22*
X76700000Y-82500000D02*
X72400000Y-86800000D01*
D23*
X103815000Y-95200000D02*
X107515000Y-91500000D01*
D22*
X75300000Y-80100000D02*
X69800000Y-85600000D01*
D21*
X101200000Y-98700000D02*
X85950000Y-98700000D01*
X109015000Y-99000000D02*
X102900000Y-99000000D01*
D22*
X72400000Y-93900000D02*
X75000000Y-96500000D01*
X110515000Y-82500000D02*
X110515000Y-81115000D01*
D23*
X83700000Y-85300000D02*
X83700000Y-87100000D01*
D22*
X69800000Y-95000000D02*
X72000000Y-97200000D01*
X69800000Y-85600000D02*
X69800000Y-95000000D01*
D21*
X86650000Y-96900000D02*
X84150000Y-94400000D01*
D23*
X95100000Y-91000000D02*
X95100000Y-93600000D01*
X92700000Y-88600000D02*
X93000000Y-88900000D01*
D21*
X79209375Y-96400000D02*
X77709375Y-94900000D01*
X109015000Y-96000000D02*
X105900000Y-96000000D01*
X77709375Y-94900000D02*
X76800000Y-94900000D01*
X81300000Y-93900000D02*
X81300000Y-93425000D01*
D23*
X85200000Y-88600000D02*
X92700000Y-88600000D01*
D21*
X101700000Y-97800000D02*
X86300000Y-97800000D01*
X110515000Y-97500000D02*
X109015000Y-96000000D01*
X79600000Y-95400000D02*
X78800000Y-94600000D01*
X105000000Y-96900000D02*
X86650000Y-96900000D01*
D23*
X96700000Y-95200000D02*
X103815000Y-95200000D01*
X92400000Y-85300000D02*
X92400000Y-88300000D01*
X93000000Y-88900000D02*
X95100000Y-91000000D01*
D21*
X110515000Y-100500000D02*
X109015000Y-99000000D01*
D22*
X107515000Y-82500000D02*
X76700000Y-82500000D01*
D21*
X83650000Y-96400000D02*
X79209375Y-96400000D01*
X76800000Y-94900000D02*
X76300000Y-94400000D01*
D23*
X95100000Y-93600000D02*
X96700000Y-95200000D01*
D21*
X106915000Y-99900000D02*
X102400000Y-99900000D01*
D23*
X83700000Y-87100000D02*
X85200000Y-88600000D01*
D22*
X72400000Y-86800000D02*
X72400000Y-93900000D01*
D21*
X105900000Y-96000000D02*
X105000000Y-96900000D01*
X76300000Y-94400000D02*
X76300000Y-93425000D01*
X83900000Y-95400000D02*
X79600000Y-95400000D01*
X86300000Y-97800000D02*
X83900000Y-95400000D01*
X107515000Y-85500000D02*
X107500000Y-85500000D01*
X85950000Y-98700000D02*
X83650000Y-96400000D01*
D22*
X109500000Y-80100000D02*
X75300000Y-80100000D01*
X72000000Y-97200000D02*
X72000000Y-102430000D01*
X110515000Y-81115000D02*
X109500000Y-80100000D01*
D23*
X92400000Y-88300000D02*
X93000000Y-88900000D01*
D22*
X75000000Y-96500000D02*
X75000000Y-102430000D01*
D21*
X102900000Y-99000000D02*
X101700000Y-97800000D01*
X78800000Y-94600000D02*
X78800000Y-93425000D01*
X81800000Y-94400000D02*
X81300000Y-93900000D01*
X102400000Y-99900000D02*
X101200000Y-98700000D01*
%TD*%
M02*
