%TF.GenerationSoftware,KiCad,Pcbnew,(6.0.6)*%
%TF.CreationDate,2022-07-16T02:41:13+02:00*%
%TF.ProjectId,toolhead_pcb,746f6f6c-6865-4616-945f-7063622e6b69,rev?*%
%TF.SameCoordinates,Original*%
%TF.FileFunction,Soldermask,Bot*%
%TF.FilePolarity,Negative*%
%FSLAX46Y46*%
G04 Gerber Fmt 4.6, Leading zero omitted, Abs format (unit mm)*
G04 Created by KiCad (PCBNEW (6.0.6)) date 2022-07-16 02:41:13*
%MOMM*%
%LPD*%
G01*
G04 APERTURE LIST*
G04 Aperture macros list*
%AMRoundRect*
0 Rectangle with rounded corners*
0 $1 Rounding radius*
0 $2 $3 $4 $5 $6 $7 $8 $9 X,Y pos of 4 corners*
0 Add a 4 corners polygon primitive as box body*
4,1,4,$2,$3,$4,$5,$6,$7,$8,$9,$2,$3,0*
0 Add four circle primitives for the rounded corners*
1,1,$1+$1,$2,$3*
1,1,$1+$1,$4,$5*
1,1,$1+$1,$6,$7*
1,1,$1+$1,$8,$9*
0 Add four rect primitives between the rounded corners*
20,1,$1+$1,$2,$3,$4,$5,0*
20,1,$1+$1,$4,$5,$6,$7,0*
20,1,$1+$1,$6,$7,$8,$9,0*
20,1,$1+$1,$8,$9,$2,$3,0*%
G04 Aperture macros list end*
%ADD10C,3.000000*%
%ADD11RoundRect,0.250001X0.499999X0.759999X-0.499999X0.759999X-0.499999X-0.759999X0.499999X-0.759999X0*%
%ADD12O,1.500000X2.020000*%
%ADD13C,5.600000*%
%ADD14RoundRect,0.250000X0.600000X0.725000X-0.600000X0.725000X-0.600000X-0.725000X0.600000X-0.725000X0*%
%ADD15O,1.700000X1.950000*%
%ADD16RoundRect,0.250000X0.725000X-0.600000X0.725000X0.600000X-0.725000X0.600000X-0.725000X-0.600000X0*%
%ADD17O,1.950000X1.700000*%
%ADD18RoundRect,0.250000X0.600000X0.750000X-0.600000X0.750000X-0.600000X-0.750000X0.600000X-0.750000X0*%
%ADD19O,1.700000X2.000000*%
%ADD20RoundRect,0.250001X-0.499999X0.499999X-0.499999X-0.499999X0.499999X-0.499999X0.499999X0.499999X0*%
%ADD21C,1.500000*%
G04 APERTURE END LIST*
D10*
%TO.C,Therm 0*%
X90500000Y-106800000D03*
D11*
X92000000Y-102480000D03*
D12*
X89000000Y-102480000D03*
%TD*%
D13*
%TO.C,REF\u002A\u002A*%
X100350000Y-86500000D03*
%TD*%
D14*
%TO.C,Neo Pixel*%
X81300000Y-93425000D03*
D15*
X78800000Y-93425000D03*
X76300000Y-93425000D03*
%TD*%
D16*
%TO.C,E-Motor*%
X100575000Y-108850000D03*
D17*
X100575000Y-106350000D03*
X100575000Y-103850000D03*
X100575000Y-101350000D03*
%TD*%
D13*
%TO.C,REF\u002A\u002A*%
X82000000Y-100000000D03*
%TD*%
D10*
%TO.C,Hotend*%
X73500000Y-106750000D03*
D11*
X75000000Y-102430000D03*
D12*
X72000000Y-102430000D03*
%TD*%
D18*
%TO.C,Fan 1*%
X92400000Y-85300000D03*
D19*
X89900000Y-85300000D03*
%TD*%
D10*
%TO.C,Breakbox In*%
X114835000Y-104360000D03*
X114835000Y-84660000D03*
D20*
X110515000Y-82500000D03*
D21*
X110515000Y-85500000D03*
X110515000Y-88500000D03*
X110515000Y-91500000D03*
X110515000Y-94500000D03*
X110515000Y-97500000D03*
X110515000Y-100500000D03*
X110515000Y-103500000D03*
X110515000Y-106500000D03*
X107515000Y-82500000D03*
X107515000Y-85500000D03*
X107515000Y-88500000D03*
X107515000Y-91500000D03*
X107515000Y-94500000D03*
X107515000Y-97500000D03*
X107515000Y-100500000D03*
X107515000Y-103500000D03*
X107515000Y-106500000D03*
%TD*%
D18*
%TO.C,Fan 0*%
X83700000Y-85300000D03*
D19*
X81200000Y-85300000D03*
%TD*%
D14*
%TO.C,Probe*%
X92400000Y-93425000D03*
D15*
X89900000Y-93425000D03*
X87400000Y-93425000D03*
%TD*%
M02*
