%TF.GenerationSoftware,KiCad,Pcbnew,(6.0.6)*%
%TF.CreationDate,2022-07-26T01:14:12+02:00*%
%TF.ProjectId,toolhead_pcb,746f6f6c-6865-4616-945f-7063622e6b69,rev?*%
%TF.SameCoordinates,Original*%
%TF.FileFunction,Legend,Bot*%
%TF.FilePolarity,Positive*%
%FSLAX46Y46*%
G04 Gerber Fmt 4.6, Leading zero omitted, Abs format (unit mm)*
G04 Created by KiCad (PCBNEW (6.0.6)) date 2022-07-26 01:14:12*
%MOMM*%
%LPD*%
G01*
G04 APERTURE LIST*
%ADD10C,0.100000*%
G04 APERTURE END LIST*
D10*
X108214285Y-105442857D02*
X108128571Y-105471428D01*
X107985714Y-105471428D01*
X107928571Y-105442857D01*
X107900000Y-105414285D01*
X107871428Y-105357142D01*
X107871428Y-105300000D01*
X107900000Y-105242857D01*
X107928571Y-105214285D01*
X107985714Y-105185714D01*
X108100000Y-105157142D01*
X108157142Y-105128571D01*
X108185714Y-105100000D01*
X108214285Y-105042857D01*
X108214285Y-104985714D01*
X108185714Y-104928571D01*
X108157142Y-104900000D01*
X108100000Y-104871428D01*
X107957142Y-104871428D01*
X107871428Y-104900000D01*
X107642857Y-104928571D02*
X107614285Y-104900000D01*
X107557142Y-104871428D01*
X107414285Y-104871428D01*
X107357142Y-104900000D01*
X107328571Y-104928571D01*
X107300000Y-104985714D01*
X107300000Y-105042857D01*
X107328571Y-105128571D01*
X107671428Y-105471428D01*
X107300000Y-105471428D01*
X107071428Y-105300000D02*
X106785714Y-105300000D01*
X107128571Y-105471428D02*
X106928571Y-104871428D01*
X106728571Y-105471428D01*
X82000000Y-90988428D02*
X82000000Y-90388428D01*
X81657142Y-90988428D01*
X81657142Y-90388428D01*
X81142857Y-90959857D02*
X81200000Y-90988428D01*
X81314285Y-90988428D01*
X81371428Y-90959857D01*
X81400000Y-90902714D01*
X81400000Y-90674142D01*
X81371428Y-90617000D01*
X81314285Y-90588428D01*
X81200000Y-90588428D01*
X81142857Y-90617000D01*
X81114285Y-90674142D01*
X81114285Y-90731285D01*
X81400000Y-90788428D01*
X80771428Y-90988428D02*
X80828571Y-90959857D01*
X80857142Y-90931285D01*
X80885714Y-90874142D01*
X80885714Y-90702714D01*
X80857142Y-90645571D01*
X80828571Y-90617000D01*
X80771428Y-90588428D01*
X80685714Y-90588428D01*
X80628571Y-90617000D01*
X80600000Y-90645571D01*
X80571428Y-90702714D01*
X80571428Y-90874142D01*
X80600000Y-90931285D01*
X80628571Y-90959857D01*
X80685714Y-90988428D01*
X80771428Y-90988428D01*
X81757142Y-91383000D02*
X81814285Y-91354428D01*
X81900000Y-91354428D01*
X81985714Y-91383000D01*
X82042857Y-91440142D01*
X82071428Y-91497285D01*
X82100000Y-91611571D01*
X82100000Y-91697285D01*
X82071428Y-91811571D01*
X82042857Y-91868714D01*
X81985714Y-91925857D01*
X81900000Y-91954428D01*
X81842857Y-91954428D01*
X81757142Y-91925857D01*
X81728571Y-91897285D01*
X81728571Y-91697285D01*
X81842857Y-91697285D01*
X81471428Y-91954428D02*
X81471428Y-91354428D01*
X81128571Y-91954428D01*
X81128571Y-91354428D01*
X80842857Y-91954428D02*
X80842857Y-91354428D01*
X80700000Y-91354428D01*
X80614285Y-91383000D01*
X80557142Y-91440142D01*
X80528571Y-91497285D01*
X80500000Y-91611571D01*
X80500000Y-91697285D01*
X80528571Y-91811571D01*
X80557142Y-91868714D01*
X80614285Y-91925857D01*
X80700000Y-91954428D01*
X80842857Y-91954428D01*
X84442857Y-82774142D02*
X84642857Y-82774142D01*
X84642857Y-83088428D02*
X84642857Y-82488428D01*
X84357142Y-82488428D01*
X83871428Y-83088428D02*
X83871428Y-82774142D01*
X83900000Y-82717000D01*
X83957142Y-82688428D01*
X84071428Y-82688428D01*
X84128571Y-82717000D01*
X83871428Y-83059857D02*
X83928571Y-83088428D01*
X84071428Y-83088428D01*
X84128571Y-83059857D01*
X84157142Y-83002714D01*
X84157142Y-82945571D01*
X84128571Y-82888428D01*
X84071428Y-82859857D01*
X83928571Y-82859857D01*
X83871428Y-82831285D01*
X83585714Y-82688428D02*
X83585714Y-83088428D01*
X83585714Y-82745571D02*
X83557142Y-82717000D01*
X83500000Y-82688428D01*
X83414285Y-82688428D01*
X83357142Y-82717000D01*
X83328571Y-82774142D01*
X83328571Y-83088428D01*
X82928571Y-82488428D02*
X82871428Y-82488428D01*
X82814285Y-82517000D01*
X82785714Y-82545571D01*
X82757142Y-82602714D01*
X82728571Y-82717000D01*
X82728571Y-82859857D01*
X82757142Y-82974142D01*
X82785714Y-83031285D01*
X82814285Y-83059857D01*
X82871428Y-83088428D01*
X82928571Y-83088428D01*
X82985714Y-83059857D01*
X83014285Y-83031285D01*
X83042857Y-82974142D01*
X83071428Y-82859857D01*
X83071428Y-82717000D01*
X83042857Y-82602714D01*
X83014285Y-82545571D01*
X82985714Y-82517000D01*
X82928571Y-82488428D01*
X84500000Y-83454428D02*
X84300000Y-84054428D01*
X84100000Y-83454428D01*
X83557142Y-83997285D02*
X83585714Y-84025857D01*
X83671428Y-84054428D01*
X83728571Y-84054428D01*
X83814285Y-84025857D01*
X83871428Y-83968714D01*
X83900000Y-83911571D01*
X83928571Y-83797285D01*
X83928571Y-83711571D01*
X83900000Y-83597285D01*
X83871428Y-83540142D01*
X83814285Y-83483000D01*
X83728571Y-83454428D01*
X83671428Y-83454428D01*
X83585714Y-83483000D01*
X83557142Y-83511571D01*
X82957142Y-83997285D02*
X82985714Y-84025857D01*
X83071428Y-84054428D01*
X83128571Y-84054428D01*
X83214285Y-84025857D01*
X83271428Y-83968714D01*
X83300000Y-83911571D01*
X83328571Y-83797285D01*
X83328571Y-83711571D01*
X83300000Y-83597285D01*
X83271428Y-83540142D01*
X83214285Y-83483000D01*
X83128571Y-83454428D01*
X83071428Y-83454428D01*
X82985714Y-83483000D01*
X82957142Y-83511571D01*
X89771428Y-99238428D02*
X89428571Y-99238428D01*
X89600000Y-99838428D02*
X89600000Y-99238428D01*
X89228571Y-99838428D02*
X89228571Y-99238428D01*
X89228571Y-99524142D02*
X88885714Y-99524142D01*
X88885714Y-99838428D02*
X88885714Y-99238428D01*
X88485714Y-99238428D02*
X88428571Y-99238428D01*
X88371428Y-99267000D01*
X88342857Y-99295571D01*
X88314285Y-99352714D01*
X88285714Y-99467000D01*
X88285714Y-99609857D01*
X88314285Y-99724142D01*
X88342857Y-99781285D01*
X88371428Y-99809857D01*
X88428571Y-99838428D01*
X88485714Y-99838428D01*
X88542857Y-99809857D01*
X88571428Y-99781285D01*
X88600000Y-99724142D01*
X88628571Y-99609857D01*
X88628571Y-99467000D01*
X88600000Y-99352714D01*
X88571428Y-99295571D01*
X88542857Y-99267000D01*
X88485714Y-99238428D01*
X89800000Y-100204428D02*
X89600000Y-100804428D01*
X89400000Y-100204428D01*
X88857142Y-100747285D02*
X88885714Y-100775857D01*
X88971428Y-100804428D01*
X89028571Y-100804428D01*
X89114285Y-100775857D01*
X89171428Y-100718714D01*
X89200000Y-100661571D01*
X89228571Y-100547285D01*
X89228571Y-100461571D01*
X89200000Y-100347285D01*
X89171428Y-100290142D01*
X89114285Y-100233000D01*
X89028571Y-100204428D01*
X88971428Y-100204428D01*
X88885714Y-100233000D01*
X88857142Y-100261571D01*
X88257142Y-100747285D02*
X88285714Y-100775857D01*
X88371428Y-100804428D01*
X88428571Y-100804428D01*
X88514285Y-100775857D01*
X88571428Y-100718714D01*
X88600000Y-100661571D01*
X88628571Y-100547285D01*
X88628571Y-100461571D01*
X88600000Y-100347285D01*
X88571428Y-100290142D01*
X88514285Y-100233000D01*
X88428571Y-100204428D01*
X88371428Y-100204428D01*
X88285714Y-100233000D01*
X88257142Y-100261571D01*
X101932142Y-109607142D02*
X101903571Y-109521428D01*
X101903571Y-109378571D01*
X101932142Y-109321428D01*
X101960714Y-109292857D01*
X102017857Y-109264285D01*
X102075000Y-109264285D01*
X102132142Y-109292857D01*
X102160714Y-109321428D01*
X102189285Y-109378571D01*
X102217857Y-109492857D01*
X102246428Y-109550000D01*
X102275000Y-109578571D01*
X102332142Y-109607142D01*
X102389285Y-109607142D01*
X102446428Y-109578571D01*
X102475000Y-109550000D01*
X102503571Y-109492857D01*
X102503571Y-109350000D01*
X102475000Y-109264285D01*
X101903571Y-108692857D02*
X101903571Y-109035714D01*
X101903571Y-108864285D02*
X102503571Y-108864285D01*
X102417857Y-108921428D01*
X102360714Y-108978571D01*
X102332142Y-109035714D01*
X102217857Y-108235714D02*
X102189285Y-108150000D01*
X102160714Y-108121428D01*
X102103571Y-108092857D01*
X102017857Y-108092857D01*
X101960714Y-108121428D01*
X101932142Y-108150000D01*
X101903571Y-108207142D01*
X101903571Y-108435714D01*
X102503571Y-108435714D01*
X102503571Y-108235714D01*
X102475000Y-108178571D01*
X102446428Y-108150000D01*
X102389285Y-108121428D01*
X102332142Y-108121428D01*
X102275000Y-108150000D01*
X102246428Y-108178571D01*
X102217857Y-108235714D01*
X102217857Y-108435714D01*
X79400000Y-90988428D02*
X79400000Y-90388428D01*
X79057142Y-90988428D01*
X79057142Y-90388428D01*
X78542857Y-90959857D02*
X78600000Y-90988428D01*
X78714285Y-90988428D01*
X78771428Y-90959857D01*
X78800000Y-90902714D01*
X78800000Y-90674142D01*
X78771428Y-90617000D01*
X78714285Y-90588428D01*
X78600000Y-90588428D01*
X78542857Y-90617000D01*
X78514285Y-90674142D01*
X78514285Y-90731285D01*
X78800000Y-90788428D01*
X78171428Y-90988428D02*
X78228571Y-90959857D01*
X78257142Y-90931285D01*
X78285714Y-90874142D01*
X78285714Y-90702714D01*
X78257142Y-90645571D01*
X78228571Y-90617000D01*
X78171428Y-90588428D01*
X78085714Y-90588428D01*
X78028571Y-90617000D01*
X78000000Y-90645571D01*
X77971428Y-90702714D01*
X77971428Y-90874142D01*
X78000000Y-90931285D01*
X78028571Y-90959857D01*
X78085714Y-90988428D01*
X78171428Y-90988428D01*
X79285714Y-91925857D02*
X79200000Y-91954428D01*
X79057142Y-91954428D01*
X79000000Y-91925857D01*
X78971428Y-91897285D01*
X78942857Y-91840142D01*
X78942857Y-91783000D01*
X78971428Y-91725857D01*
X79000000Y-91697285D01*
X79057142Y-91668714D01*
X79171428Y-91640142D01*
X79228571Y-91611571D01*
X79257142Y-91583000D01*
X79285714Y-91525857D01*
X79285714Y-91468714D01*
X79257142Y-91411571D01*
X79228571Y-91383000D01*
X79171428Y-91354428D01*
X79028571Y-91354428D01*
X78942857Y-91383000D01*
X78685714Y-91954428D02*
X78685714Y-91554428D01*
X78685714Y-91354428D02*
X78714285Y-91383000D01*
X78685714Y-91411571D01*
X78657142Y-91383000D01*
X78685714Y-91354428D01*
X78685714Y-91411571D01*
X78142857Y-91554428D02*
X78142857Y-92040142D01*
X78171428Y-92097285D01*
X78200000Y-92125857D01*
X78257142Y-92154428D01*
X78342857Y-92154428D01*
X78400000Y-92125857D01*
X78142857Y-91925857D02*
X78200000Y-91954428D01*
X78314285Y-91954428D01*
X78371428Y-91925857D01*
X78400000Y-91897285D01*
X78428571Y-91840142D01*
X78428571Y-91668714D01*
X78400000Y-91611571D01*
X78371428Y-91583000D01*
X78314285Y-91554428D01*
X78200000Y-91554428D01*
X78142857Y-91583000D01*
X108228571Y-93471428D02*
X108228571Y-92871428D01*
X108000000Y-92871428D01*
X107942857Y-92900000D01*
X107914285Y-92928571D01*
X107885714Y-92985714D01*
X107885714Y-93071428D01*
X107914285Y-93128571D01*
X107942857Y-93157142D01*
X108000000Y-93185714D01*
X108228571Y-93185714D01*
X107628571Y-93471428D02*
X107628571Y-93071428D01*
X107628571Y-93185714D02*
X107600000Y-93128571D01*
X107571428Y-93100000D01*
X107514285Y-93071428D01*
X107457142Y-93071428D01*
X107171428Y-93471428D02*
X107228571Y-93442857D01*
X107257142Y-93414285D01*
X107285714Y-93357142D01*
X107285714Y-93185714D01*
X107257142Y-93128571D01*
X107228571Y-93100000D01*
X107171428Y-93071428D01*
X107085714Y-93071428D01*
X107028571Y-93100000D01*
X107000000Y-93128571D01*
X106971428Y-93185714D01*
X106971428Y-93357142D01*
X107000000Y-93414285D01*
X107028571Y-93442857D01*
X107085714Y-93471428D01*
X107171428Y-93471428D01*
X106714285Y-93471428D02*
X106714285Y-92871428D01*
X106714285Y-93100000D02*
X106657142Y-93071428D01*
X106542857Y-93071428D01*
X106485714Y-93100000D01*
X106457142Y-93128571D01*
X106428571Y-93185714D01*
X106428571Y-93357142D01*
X106457142Y-93414285D01*
X106485714Y-93442857D01*
X106542857Y-93471428D01*
X106657142Y-93471428D01*
X106714285Y-93442857D01*
X105942857Y-93442857D02*
X106000000Y-93471428D01*
X106114285Y-93471428D01*
X106171428Y-93442857D01*
X106200000Y-93385714D01*
X106200000Y-93157142D01*
X106171428Y-93100000D01*
X106114285Y-93071428D01*
X106000000Y-93071428D01*
X105942857Y-93100000D01*
X105914285Y-93157142D01*
X105914285Y-93214285D01*
X106200000Y-93271428D01*
X105285714Y-92871428D02*
X105085714Y-93471428D01*
X104885714Y-92871428D01*
X104342857Y-93414285D02*
X104371428Y-93442857D01*
X104457142Y-93471428D01*
X104514285Y-93471428D01*
X104600000Y-93442857D01*
X104657142Y-93385714D01*
X104685714Y-93328571D01*
X104714285Y-93214285D01*
X104714285Y-93128571D01*
X104685714Y-93014285D01*
X104657142Y-92957142D01*
X104600000Y-92900000D01*
X104514285Y-92871428D01*
X104457142Y-92871428D01*
X104371428Y-92900000D01*
X104342857Y-92928571D01*
X103742857Y-93414285D02*
X103771428Y-93442857D01*
X103857142Y-93471428D01*
X103914285Y-93471428D01*
X104000000Y-93442857D01*
X104057142Y-93385714D01*
X104085714Y-93328571D01*
X104114285Y-93214285D01*
X104114285Y-93128571D01*
X104085714Y-93014285D01*
X104057142Y-92957142D01*
X104000000Y-92900000D01*
X103914285Y-92871428D01*
X103857142Y-92871428D01*
X103771428Y-92900000D01*
X103742857Y-92928571D01*
X113028571Y-83871428D02*
X112685714Y-83871428D01*
X112857142Y-84471428D02*
X112857142Y-83871428D01*
X112485714Y-84471428D02*
X112485714Y-83871428D01*
X112485714Y-84157142D02*
X112142857Y-84157142D01*
X112142857Y-84471428D02*
X112142857Y-83871428D01*
X111085714Y-83900000D02*
X111142857Y-83871428D01*
X111228571Y-83871428D01*
X111314285Y-83900000D01*
X111371428Y-83957142D01*
X111400000Y-84014285D01*
X111428571Y-84128571D01*
X111428571Y-84214285D01*
X111400000Y-84328571D01*
X111371428Y-84385714D01*
X111314285Y-84442857D01*
X111228571Y-84471428D01*
X111171428Y-84471428D01*
X111085714Y-84442857D01*
X111057142Y-84414285D01*
X111057142Y-84214285D01*
X111171428Y-84214285D01*
X110800000Y-84471428D02*
X110800000Y-83871428D01*
X110457142Y-84471428D01*
X110457142Y-83871428D01*
X110171428Y-84471428D02*
X110171428Y-83871428D01*
X110028571Y-83871428D01*
X109942857Y-83900000D01*
X109885714Y-83957142D01*
X109857142Y-84014285D01*
X109828571Y-84128571D01*
X109828571Y-84214285D01*
X109857142Y-84328571D01*
X109885714Y-84385714D01*
X109942857Y-84442857D01*
X110028571Y-84471428D01*
X110171428Y-84471428D01*
X108200000Y-96471428D02*
X108200000Y-95871428D01*
X107971428Y-95871428D01*
X107914285Y-95900000D01*
X107885714Y-95928571D01*
X107857142Y-95985714D01*
X107857142Y-96071428D01*
X107885714Y-96128571D01*
X107914285Y-96157142D01*
X107971428Y-96185714D01*
X108200000Y-96185714D01*
X107600000Y-96471428D02*
X107600000Y-96071428D01*
X107600000Y-96185714D02*
X107571428Y-96128571D01*
X107542857Y-96100000D01*
X107485714Y-96071428D01*
X107428571Y-96071428D01*
X107142857Y-96471428D02*
X107200000Y-96442857D01*
X107228571Y-96414285D01*
X107257142Y-96357142D01*
X107257142Y-96185714D01*
X107228571Y-96128571D01*
X107200000Y-96100000D01*
X107142857Y-96071428D01*
X107057142Y-96071428D01*
X107000000Y-96100000D01*
X106971428Y-96128571D01*
X106942857Y-96185714D01*
X106942857Y-96357142D01*
X106971428Y-96414285D01*
X107000000Y-96442857D01*
X107057142Y-96471428D01*
X107142857Y-96471428D01*
X106685714Y-96471428D02*
X106685714Y-95871428D01*
X106685714Y-96100000D02*
X106628571Y-96071428D01*
X106514285Y-96071428D01*
X106457142Y-96100000D01*
X106428571Y-96128571D01*
X106400000Y-96185714D01*
X106400000Y-96357142D01*
X106428571Y-96414285D01*
X106457142Y-96442857D01*
X106514285Y-96471428D01*
X106628571Y-96471428D01*
X106685714Y-96442857D01*
X105914285Y-96442857D02*
X105971428Y-96471428D01*
X106085714Y-96471428D01*
X106142857Y-96442857D01*
X106171428Y-96385714D01*
X106171428Y-96157142D01*
X106142857Y-96100000D01*
X106085714Y-96071428D01*
X105971428Y-96071428D01*
X105914285Y-96100000D01*
X105885714Y-96157142D01*
X105885714Y-96214285D01*
X106171428Y-96271428D01*
X105200000Y-96442857D02*
X105114285Y-96471428D01*
X104971428Y-96471428D01*
X104914285Y-96442857D01*
X104885714Y-96414285D01*
X104857142Y-96357142D01*
X104857142Y-96300000D01*
X104885714Y-96242857D01*
X104914285Y-96214285D01*
X104971428Y-96185714D01*
X105085714Y-96157142D01*
X105142857Y-96128571D01*
X105171428Y-96100000D01*
X105200000Y-96042857D01*
X105200000Y-95985714D01*
X105171428Y-95928571D01*
X105142857Y-95900000D01*
X105085714Y-95871428D01*
X104942857Y-95871428D01*
X104857142Y-95900000D01*
X104600000Y-96471428D02*
X104600000Y-95871428D01*
X104000000Y-95900000D02*
X104057142Y-95871428D01*
X104142857Y-95871428D01*
X104228571Y-95900000D01*
X104285714Y-95957142D01*
X104314285Y-96014285D01*
X104342857Y-96128571D01*
X104342857Y-96214285D01*
X104314285Y-96328571D01*
X104285714Y-96385714D01*
X104228571Y-96442857D01*
X104142857Y-96471428D01*
X104085714Y-96471428D01*
X104000000Y-96442857D01*
X103971428Y-96414285D01*
X103971428Y-96214285D01*
X104085714Y-96214285D01*
X101957142Y-107114285D02*
X101928571Y-107028571D01*
X101928571Y-106885714D01*
X101957142Y-106828571D01*
X101985714Y-106800000D01*
X102042857Y-106771428D01*
X102100000Y-106771428D01*
X102157142Y-106800000D01*
X102185714Y-106828571D01*
X102214285Y-106885714D01*
X102242857Y-107000000D01*
X102271428Y-107057142D01*
X102300000Y-107085714D01*
X102357142Y-107114285D01*
X102414285Y-107114285D01*
X102471428Y-107085714D01*
X102500000Y-107057142D01*
X102528571Y-107000000D01*
X102528571Y-106857142D01*
X102500000Y-106771428D01*
X101928571Y-106200000D02*
X101928571Y-106542857D01*
X101928571Y-106371428D02*
X102528571Y-106371428D01*
X102442857Y-106428571D01*
X102385714Y-106485714D01*
X102357142Y-106542857D01*
X102100000Y-105971428D02*
X102100000Y-105685714D01*
X101928571Y-106028571D02*
X102528571Y-105828571D01*
X101928571Y-105628571D01*
X111457142Y-102442857D02*
X111371428Y-102471428D01*
X111228571Y-102471428D01*
X111171428Y-102442857D01*
X111142857Y-102414285D01*
X111114285Y-102357142D01*
X111114285Y-102300000D01*
X111142857Y-102242857D01*
X111171428Y-102214285D01*
X111228571Y-102185714D01*
X111342857Y-102157142D01*
X111400000Y-102128571D01*
X111428571Y-102100000D01*
X111457142Y-102042857D01*
X111457142Y-101985714D01*
X111428571Y-101928571D01*
X111400000Y-101900000D01*
X111342857Y-101871428D01*
X111200000Y-101871428D01*
X111114285Y-101900000D01*
X110542857Y-102471428D02*
X110885714Y-102471428D01*
X110714285Y-102471428D02*
X110714285Y-101871428D01*
X110771428Y-101957142D01*
X110828571Y-102014285D01*
X110885714Y-102042857D01*
X110085714Y-102157142D02*
X110000000Y-102185714D01*
X109971428Y-102214285D01*
X109942857Y-102271428D01*
X109942857Y-102357142D01*
X109971428Y-102414285D01*
X110000000Y-102442857D01*
X110057142Y-102471428D01*
X110285714Y-102471428D01*
X110285714Y-101871428D01*
X110085714Y-101871428D01*
X110028571Y-101900000D01*
X110000000Y-101928571D01*
X109971428Y-101985714D01*
X109971428Y-102042857D01*
X110000000Y-102100000D01*
X110028571Y-102128571D01*
X110085714Y-102157142D01*
X110285714Y-102157142D01*
X114485714Y-93471428D02*
X114485714Y-92871428D01*
X114257142Y-92871428D01*
X114200000Y-92900000D01*
X114171428Y-92928571D01*
X114142857Y-92985714D01*
X114142857Y-93071428D01*
X114171428Y-93128571D01*
X114200000Y-93157142D01*
X114257142Y-93185714D01*
X114485714Y-93185714D01*
X113885714Y-93471428D02*
X113885714Y-93071428D01*
X113885714Y-93185714D02*
X113857142Y-93128571D01*
X113828571Y-93100000D01*
X113771428Y-93071428D01*
X113714285Y-93071428D01*
X113428571Y-93471428D02*
X113485714Y-93442857D01*
X113514285Y-93414285D01*
X113542857Y-93357142D01*
X113542857Y-93185714D01*
X113514285Y-93128571D01*
X113485714Y-93100000D01*
X113428571Y-93071428D01*
X113342857Y-93071428D01*
X113285714Y-93100000D01*
X113257142Y-93128571D01*
X113228571Y-93185714D01*
X113228571Y-93357142D01*
X113257142Y-93414285D01*
X113285714Y-93442857D01*
X113342857Y-93471428D01*
X113428571Y-93471428D01*
X112971428Y-93471428D02*
X112971428Y-92871428D01*
X112971428Y-93100000D02*
X112914285Y-93071428D01*
X112800000Y-93071428D01*
X112742857Y-93100000D01*
X112714285Y-93128571D01*
X112685714Y-93185714D01*
X112685714Y-93357142D01*
X112714285Y-93414285D01*
X112742857Y-93442857D01*
X112800000Y-93471428D01*
X112914285Y-93471428D01*
X112971428Y-93442857D01*
X112200000Y-93442857D02*
X112257142Y-93471428D01*
X112371428Y-93471428D01*
X112428571Y-93442857D01*
X112457142Y-93385714D01*
X112457142Y-93157142D01*
X112428571Y-93100000D01*
X112371428Y-93071428D01*
X112257142Y-93071428D01*
X112200000Y-93100000D01*
X112171428Y-93157142D01*
X112171428Y-93214285D01*
X112457142Y-93271428D01*
X111142857Y-92900000D02*
X111200000Y-92871428D01*
X111285714Y-92871428D01*
X111371428Y-92900000D01*
X111428571Y-92957142D01*
X111457142Y-93014285D01*
X111485714Y-93128571D01*
X111485714Y-93214285D01*
X111457142Y-93328571D01*
X111428571Y-93385714D01*
X111371428Y-93442857D01*
X111285714Y-93471428D01*
X111228571Y-93471428D01*
X111142857Y-93442857D01*
X111114285Y-93414285D01*
X111114285Y-93214285D01*
X111228571Y-93214285D01*
X110857142Y-93471428D02*
X110857142Y-92871428D01*
X110514285Y-93471428D01*
X110514285Y-92871428D01*
X110228571Y-93471428D02*
X110228571Y-92871428D01*
X110085714Y-92871428D01*
X110000000Y-92900000D01*
X109942857Y-92957142D01*
X109914285Y-93014285D01*
X109885714Y-93128571D01*
X109885714Y-93214285D01*
X109914285Y-93328571D01*
X109942857Y-93385714D01*
X110000000Y-93442857D01*
X110085714Y-93471428D01*
X110228571Y-93471428D01*
X91042857Y-91188428D02*
X91042857Y-90588428D01*
X90814285Y-90588428D01*
X90757142Y-90617000D01*
X90728571Y-90645571D01*
X90700000Y-90702714D01*
X90700000Y-90788428D01*
X90728571Y-90845571D01*
X90757142Y-90874142D01*
X90814285Y-90902714D01*
X91042857Y-90902714D01*
X90442857Y-91188428D02*
X90442857Y-90788428D01*
X90442857Y-90902714D02*
X90414285Y-90845571D01*
X90385714Y-90817000D01*
X90328571Y-90788428D01*
X90271428Y-90788428D01*
X89985714Y-91188428D02*
X90042857Y-91159857D01*
X90071428Y-91131285D01*
X90100000Y-91074142D01*
X90100000Y-90902714D01*
X90071428Y-90845571D01*
X90042857Y-90817000D01*
X89985714Y-90788428D01*
X89900000Y-90788428D01*
X89842857Y-90817000D01*
X89814285Y-90845571D01*
X89785714Y-90902714D01*
X89785714Y-91074142D01*
X89814285Y-91131285D01*
X89842857Y-91159857D01*
X89900000Y-91188428D01*
X89985714Y-91188428D01*
X89528571Y-91188428D02*
X89528571Y-90588428D01*
X89528571Y-90817000D02*
X89471428Y-90788428D01*
X89357142Y-90788428D01*
X89300000Y-90817000D01*
X89271428Y-90845571D01*
X89242857Y-90902714D01*
X89242857Y-91074142D01*
X89271428Y-91131285D01*
X89300000Y-91159857D01*
X89357142Y-91188428D01*
X89471428Y-91188428D01*
X89528571Y-91159857D01*
X88757142Y-91159857D02*
X88814285Y-91188428D01*
X88928571Y-91188428D01*
X88985714Y-91159857D01*
X89014285Y-91102714D01*
X89014285Y-90874142D01*
X88985714Y-90817000D01*
X88928571Y-90788428D01*
X88814285Y-90788428D01*
X88757142Y-90817000D01*
X88728571Y-90874142D01*
X88728571Y-90931285D01*
X89014285Y-90988428D01*
X90357142Y-91583000D02*
X90414285Y-91554428D01*
X90500000Y-91554428D01*
X90585714Y-91583000D01*
X90642857Y-91640142D01*
X90671428Y-91697285D01*
X90700000Y-91811571D01*
X90700000Y-91897285D01*
X90671428Y-92011571D01*
X90642857Y-92068714D01*
X90585714Y-92125857D01*
X90500000Y-92154428D01*
X90442857Y-92154428D01*
X90357142Y-92125857D01*
X90328571Y-92097285D01*
X90328571Y-91897285D01*
X90442857Y-91897285D01*
X90071428Y-92154428D02*
X90071428Y-91554428D01*
X89728571Y-92154428D01*
X89728571Y-91554428D01*
X89442857Y-92154428D02*
X89442857Y-91554428D01*
X89300000Y-91554428D01*
X89214285Y-91583000D01*
X89157142Y-91640142D01*
X89128571Y-91697285D01*
X89100000Y-91811571D01*
X89100000Y-91897285D01*
X89128571Y-92011571D01*
X89157142Y-92068714D01*
X89214285Y-92125857D01*
X89300000Y-92154428D01*
X89442857Y-92154428D01*
X108357142Y-83871428D02*
X108014285Y-83871428D01*
X108185714Y-84471428D02*
X108185714Y-83871428D01*
X107814285Y-84471428D02*
X107814285Y-83871428D01*
X107814285Y-84157142D02*
X107471428Y-84157142D01*
X107471428Y-84471428D02*
X107471428Y-83871428D01*
X107071428Y-83871428D02*
X107014285Y-83871428D01*
X106957142Y-83900000D01*
X106928571Y-83928571D01*
X106900000Y-83985714D01*
X106871428Y-84100000D01*
X106871428Y-84242857D01*
X106900000Y-84357142D01*
X106928571Y-84414285D01*
X106957142Y-84442857D01*
X107014285Y-84471428D01*
X107071428Y-84471428D01*
X107128571Y-84442857D01*
X107157142Y-84414285D01*
X107185714Y-84357142D01*
X107214285Y-84242857D01*
X107214285Y-84100000D01*
X107185714Y-83985714D01*
X107157142Y-83928571D01*
X107128571Y-83900000D01*
X107071428Y-83871428D01*
X106242857Y-83871428D02*
X106042857Y-84471428D01*
X105842857Y-83871428D01*
X105300000Y-84414285D02*
X105328571Y-84442857D01*
X105414285Y-84471428D01*
X105471428Y-84471428D01*
X105557142Y-84442857D01*
X105614285Y-84385714D01*
X105642857Y-84328571D01*
X105671428Y-84214285D01*
X105671428Y-84128571D01*
X105642857Y-84014285D01*
X105614285Y-83957142D01*
X105557142Y-83900000D01*
X105471428Y-83871428D01*
X105414285Y-83871428D01*
X105328571Y-83900000D01*
X105300000Y-83928571D01*
X104700000Y-84414285D02*
X104728571Y-84442857D01*
X104814285Y-84471428D01*
X104871428Y-84471428D01*
X104957142Y-84442857D01*
X105014285Y-84385714D01*
X105042857Y-84328571D01*
X105071428Y-84214285D01*
X105071428Y-84128571D01*
X105042857Y-84014285D01*
X105014285Y-83957142D01*
X104957142Y-83900000D01*
X104871428Y-83871428D01*
X104814285Y-83871428D01*
X104728571Y-83900000D01*
X104700000Y-83928571D01*
X92771428Y-99238428D02*
X92428571Y-99238428D01*
X92600000Y-99838428D02*
X92600000Y-99238428D01*
X92228571Y-99838428D02*
X92228571Y-99238428D01*
X92228571Y-99524142D02*
X91885714Y-99524142D01*
X91885714Y-99838428D02*
X91885714Y-99238428D01*
X91485714Y-99238428D02*
X91428571Y-99238428D01*
X91371428Y-99267000D01*
X91342857Y-99295571D01*
X91314285Y-99352714D01*
X91285714Y-99467000D01*
X91285714Y-99609857D01*
X91314285Y-99724142D01*
X91342857Y-99781285D01*
X91371428Y-99809857D01*
X91428571Y-99838428D01*
X91485714Y-99838428D01*
X91542857Y-99809857D01*
X91571428Y-99781285D01*
X91600000Y-99724142D01*
X91628571Y-99609857D01*
X91628571Y-99467000D01*
X91600000Y-99352714D01*
X91571428Y-99295571D01*
X91542857Y-99267000D01*
X91485714Y-99238428D01*
X92457142Y-100233000D02*
X92514285Y-100204428D01*
X92600000Y-100204428D01*
X92685714Y-100233000D01*
X92742857Y-100290142D01*
X92771428Y-100347285D01*
X92800000Y-100461571D01*
X92800000Y-100547285D01*
X92771428Y-100661571D01*
X92742857Y-100718714D01*
X92685714Y-100775857D01*
X92600000Y-100804428D01*
X92542857Y-100804428D01*
X92457142Y-100775857D01*
X92428571Y-100747285D01*
X92428571Y-100547285D01*
X92542857Y-100547285D01*
X92171428Y-100804428D02*
X92171428Y-100204428D01*
X91828571Y-100804428D01*
X91828571Y-100204428D01*
X91542857Y-100804428D02*
X91542857Y-100204428D01*
X91400000Y-100204428D01*
X91314285Y-100233000D01*
X91257142Y-100290142D01*
X91228571Y-100347285D01*
X91200000Y-100461571D01*
X91200000Y-100547285D01*
X91228571Y-100661571D01*
X91257142Y-100718714D01*
X91314285Y-100775857D01*
X91400000Y-100804428D01*
X91542857Y-100804428D01*
X113257142Y-99471428D02*
X113257142Y-98871428D01*
X112914285Y-99471428D01*
X112914285Y-98871428D01*
X112400000Y-99442857D02*
X112457142Y-99471428D01*
X112571428Y-99471428D01*
X112628571Y-99442857D01*
X112657142Y-99385714D01*
X112657142Y-99157142D01*
X112628571Y-99100000D01*
X112571428Y-99071428D01*
X112457142Y-99071428D01*
X112400000Y-99100000D01*
X112371428Y-99157142D01*
X112371428Y-99214285D01*
X112657142Y-99271428D01*
X112028571Y-99471428D02*
X112085714Y-99442857D01*
X112114285Y-99414285D01*
X112142857Y-99357142D01*
X112142857Y-99185714D01*
X112114285Y-99128571D01*
X112085714Y-99100000D01*
X112028571Y-99071428D01*
X111942857Y-99071428D01*
X111885714Y-99100000D01*
X111857142Y-99128571D01*
X111828571Y-99185714D01*
X111828571Y-99357142D01*
X111857142Y-99414285D01*
X111885714Y-99442857D01*
X111942857Y-99471428D01*
X112028571Y-99471428D01*
X111142857Y-99442857D02*
X111057142Y-99471428D01*
X110914285Y-99471428D01*
X110857142Y-99442857D01*
X110828571Y-99414285D01*
X110800000Y-99357142D01*
X110800000Y-99300000D01*
X110828571Y-99242857D01*
X110857142Y-99214285D01*
X110914285Y-99185714D01*
X111028571Y-99157142D01*
X111085714Y-99128571D01*
X111114285Y-99100000D01*
X111142857Y-99042857D01*
X111142857Y-98985714D01*
X111114285Y-98928571D01*
X111085714Y-98900000D01*
X111028571Y-98871428D01*
X110885714Y-98871428D01*
X110800000Y-98900000D01*
X110542857Y-99471428D02*
X110542857Y-98871428D01*
X109942857Y-98900000D02*
X110000000Y-98871428D01*
X110085714Y-98871428D01*
X110171428Y-98900000D01*
X110228571Y-98957142D01*
X110257142Y-99014285D01*
X110285714Y-99128571D01*
X110285714Y-99214285D01*
X110257142Y-99328571D01*
X110228571Y-99385714D01*
X110171428Y-99442857D01*
X110085714Y-99471428D01*
X110028571Y-99471428D01*
X109942857Y-99442857D01*
X109914285Y-99414285D01*
X109914285Y-99214285D01*
X110028571Y-99214285D01*
X108285714Y-99471428D02*
X108285714Y-98871428D01*
X107942857Y-99471428D01*
X107942857Y-98871428D01*
X107428571Y-99442857D02*
X107485714Y-99471428D01*
X107600000Y-99471428D01*
X107657142Y-99442857D01*
X107685714Y-99385714D01*
X107685714Y-99157142D01*
X107657142Y-99100000D01*
X107600000Y-99071428D01*
X107485714Y-99071428D01*
X107428571Y-99100000D01*
X107400000Y-99157142D01*
X107400000Y-99214285D01*
X107685714Y-99271428D01*
X107057142Y-99471428D02*
X107114285Y-99442857D01*
X107142857Y-99414285D01*
X107171428Y-99357142D01*
X107171428Y-99185714D01*
X107142857Y-99128571D01*
X107114285Y-99100000D01*
X107057142Y-99071428D01*
X106971428Y-99071428D01*
X106914285Y-99100000D01*
X106885714Y-99128571D01*
X106857142Y-99185714D01*
X106857142Y-99357142D01*
X106885714Y-99414285D01*
X106914285Y-99442857D01*
X106971428Y-99471428D01*
X107057142Y-99471428D01*
X106228571Y-98871428D02*
X106028571Y-99471428D01*
X105828571Y-98871428D01*
X105285714Y-99414285D02*
X105314285Y-99442857D01*
X105400000Y-99471428D01*
X105457142Y-99471428D01*
X105542857Y-99442857D01*
X105600000Y-99385714D01*
X105628571Y-99328571D01*
X105657142Y-99214285D01*
X105657142Y-99128571D01*
X105628571Y-99014285D01*
X105600000Y-98957142D01*
X105542857Y-98900000D01*
X105457142Y-98871428D01*
X105400000Y-98871428D01*
X105314285Y-98900000D01*
X105285714Y-98928571D01*
X104685714Y-99414285D02*
X104714285Y-99442857D01*
X104800000Y-99471428D01*
X104857142Y-99471428D01*
X104942857Y-99442857D01*
X105000000Y-99385714D01*
X105028571Y-99328571D01*
X105057142Y-99214285D01*
X105057142Y-99128571D01*
X105028571Y-99014285D01*
X105000000Y-98957142D01*
X104942857Y-98900000D01*
X104857142Y-98871428D01*
X104800000Y-98871428D01*
X104714285Y-98900000D01*
X104685714Y-98928571D01*
X108228571Y-81371428D02*
X108228571Y-80771428D01*
X108228571Y-81057142D02*
X107885714Y-81057142D01*
X107885714Y-81371428D02*
X107885714Y-80771428D01*
X107600000Y-81057142D02*
X107400000Y-81057142D01*
X107314285Y-81371428D02*
X107600000Y-81371428D01*
X107600000Y-80771428D01*
X107314285Y-80771428D01*
X106685714Y-80771428D02*
X106485714Y-81371428D01*
X106285714Y-80771428D01*
X105742857Y-81314285D02*
X105771428Y-81342857D01*
X105857142Y-81371428D01*
X105914285Y-81371428D01*
X106000000Y-81342857D01*
X106057142Y-81285714D01*
X106085714Y-81228571D01*
X106114285Y-81114285D01*
X106114285Y-81028571D01*
X106085714Y-80914285D01*
X106057142Y-80857142D01*
X106000000Y-80800000D01*
X105914285Y-80771428D01*
X105857142Y-80771428D01*
X105771428Y-80800000D01*
X105742857Y-80828571D01*
X105142857Y-81314285D02*
X105171428Y-81342857D01*
X105257142Y-81371428D01*
X105314285Y-81371428D01*
X105400000Y-81342857D01*
X105457142Y-81285714D01*
X105485714Y-81228571D01*
X105514285Y-81114285D01*
X105514285Y-81028571D01*
X105485714Y-80914285D01*
X105457142Y-80857142D01*
X105400000Y-80800000D01*
X105314285Y-80771428D01*
X105257142Y-80771428D01*
X105171428Y-80800000D01*
X105142857Y-80828571D01*
X81942857Y-82774142D02*
X82142857Y-82774142D01*
X82142857Y-83088428D02*
X82142857Y-82488428D01*
X81857142Y-82488428D01*
X81371428Y-83088428D02*
X81371428Y-82774142D01*
X81400000Y-82717000D01*
X81457142Y-82688428D01*
X81571428Y-82688428D01*
X81628571Y-82717000D01*
X81371428Y-83059857D02*
X81428571Y-83088428D01*
X81571428Y-83088428D01*
X81628571Y-83059857D01*
X81657142Y-83002714D01*
X81657142Y-82945571D01*
X81628571Y-82888428D01*
X81571428Y-82859857D01*
X81428571Y-82859857D01*
X81371428Y-82831285D01*
X81085714Y-82688428D02*
X81085714Y-83088428D01*
X81085714Y-82745571D02*
X81057142Y-82717000D01*
X81000000Y-82688428D01*
X80914285Y-82688428D01*
X80857142Y-82717000D01*
X80828571Y-82774142D01*
X80828571Y-83088428D01*
X80428571Y-82488428D02*
X80371428Y-82488428D01*
X80314285Y-82517000D01*
X80285714Y-82545571D01*
X80257142Y-82602714D01*
X80228571Y-82717000D01*
X80228571Y-82859857D01*
X80257142Y-82974142D01*
X80285714Y-83031285D01*
X80314285Y-83059857D01*
X80371428Y-83088428D01*
X80428571Y-83088428D01*
X80485714Y-83059857D01*
X80514285Y-83031285D01*
X80542857Y-82974142D01*
X80571428Y-82859857D01*
X80571428Y-82717000D01*
X80542857Y-82602714D01*
X80514285Y-82545571D01*
X80485714Y-82517000D01*
X80428571Y-82488428D01*
X81657142Y-83483000D02*
X81714285Y-83454428D01*
X81800000Y-83454428D01*
X81885714Y-83483000D01*
X81942857Y-83540142D01*
X81971428Y-83597285D01*
X82000000Y-83711571D01*
X82000000Y-83797285D01*
X81971428Y-83911571D01*
X81942857Y-83968714D01*
X81885714Y-84025857D01*
X81800000Y-84054428D01*
X81742857Y-84054428D01*
X81657142Y-84025857D01*
X81628571Y-83997285D01*
X81628571Y-83797285D01*
X81742857Y-83797285D01*
X81371428Y-84054428D02*
X81371428Y-83454428D01*
X81028571Y-84054428D01*
X81028571Y-83454428D01*
X80742857Y-84054428D02*
X80742857Y-83454428D01*
X80600000Y-83454428D01*
X80514285Y-83483000D01*
X80457142Y-83540142D01*
X80428571Y-83597285D01*
X80400000Y-83711571D01*
X80400000Y-83797285D01*
X80428571Y-83911571D01*
X80457142Y-83968714D01*
X80514285Y-84025857D01*
X80600000Y-84054428D01*
X80742857Y-84054428D01*
X101957142Y-102157142D02*
X101928571Y-102071428D01*
X101928571Y-101928571D01*
X101957142Y-101871428D01*
X101985714Y-101842857D01*
X102042857Y-101814285D01*
X102100000Y-101814285D01*
X102157142Y-101842857D01*
X102185714Y-101871428D01*
X102214285Y-101928571D01*
X102242857Y-102042857D01*
X102271428Y-102100000D01*
X102300000Y-102128571D01*
X102357142Y-102157142D01*
X102414285Y-102157142D01*
X102471428Y-102128571D01*
X102500000Y-102100000D01*
X102528571Y-102042857D01*
X102528571Y-101900000D01*
X102500000Y-101814285D01*
X102471428Y-101585714D02*
X102500000Y-101557142D01*
X102528571Y-101500000D01*
X102528571Y-101357142D01*
X102500000Y-101300000D01*
X102471428Y-101271428D01*
X102414285Y-101242857D01*
X102357142Y-101242857D01*
X102271428Y-101271428D01*
X101928571Y-101614285D01*
X101928571Y-101242857D01*
X102242857Y-100785714D02*
X102214285Y-100700000D01*
X102185714Y-100671428D01*
X102128571Y-100642857D01*
X102042857Y-100642857D01*
X101985714Y-100671428D01*
X101957142Y-100700000D01*
X101928571Y-100757142D01*
X101928571Y-100985714D01*
X102528571Y-100985714D01*
X102528571Y-100785714D01*
X102500000Y-100728571D01*
X102471428Y-100700000D01*
X102414285Y-100671428D01*
X102357142Y-100671428D01*
X102300000Y-100700000D01*
X102271428Y-100728571D01*
X102242857Y-100785714D01*
X102242857Y-100985714D01*
X113885714Y-87157142D02*
X114085714Y-87157142D01*
X114085714Y-87471428D02*
X114085714Y-86871428D01*
X113800000Y-86871428D01*
X113314285Y-87471428D02*
X113314285Y-87157142D01*
X113342857Y-87100000D01*
X113400000Y-87071428D01*
X113514285Y-87071428D01*
X113571428Y-87100000D01*
X113314285Y-87442857D02*
X113371428Y-87471428D01*
X113514285Y-87471428D01*
X113571428Y-87442857D01*
X113600000Y-87385714D01*
X113600000Y-87328571D01*
X113571428Y-87271428D01*
X113514285Y-87242857D01*
X113371428Y-87242857D01*
X113314285Y-87214285D01*
X113028571Y-87071428D02*
X113028571Y-87471428D01*
X113028571Y-87128571D02*
X113000000Y-87100000D01*
X112942857Y-87071428D01*
X112857142Y-87071428D01*
X112800000Y-87100000D01*
X112771428Y-87157142D01*
X112771428Y-87471428D01*
X112371428Y-86871428D02*
X112314285Y-86871428D01*
X112257142Y-86900000D01*
X112228571Y-86928571D01*
X112200000Y-86985714D01*
X112171428Y-87100000D01*
X112171428Y-87242857D01*
X112200000Y-87357142D01*
X112228571Y-87414285D01*
X112257142Y-87442857D01*
X112314285Y-87471428D01*
X112371428Y-87471428D01*
X112428571Y-87442857D01*
X112457142Y-87414285D01*
X112485714Y-87357142D01*
X112514285Y-87242857D01*
X112514285Y-87100000D01*
X112485714Y-86985714D01*
X112457142Y-86928571D01*
X112428571Y-86900000D01*
X112371428Y-86871428D01*
X111142857Y-86900000D02*
X111200000Y-86871428D01*
X111285714Y-86871428D01*
X111371428Y-86900000D01*
X111428571Y-86957142D01*
X111457142Y-87014285D01*
X111485714Y-87128571D01*
X111485714Y-87214285D01*
X111457142Y-87328571D01*
X111428571Y-87385714D01*
X111371428Y-87442857D01*
X111285714Y-87471428D01*
X111228571Y-87471428D01*
X111142857Y-87442857D01*
X111114285Y-87414285D01*
X111114285Y-87214285D01*
X111228571Y-87214285D01*
X110857142Y-87471428D02*
X110857142Y-86871428D01*
X110514285Y-87471428D01*
X110514285Y-86871428D01*
X110228571Y-87471428D02*
X110228571Y-86871428D01*
X110085714Y-86871428D01*
X110000000Y-86900000D01*
X109942857Y-86957142D01*
X109914285Y-87014285D01*
X109885714Y-87128571D01*
X109885714Y-87214285D01*
X109914285Y-87328571D01*
X109942857Y-87385714D01*
X110000000Y-87442857D01*
X110085714Y-87471428D01*
X110228571Y-87471428D01*
X75728571Y-99788428D02*
X75728571Y-99188428D01*
X75728571Y-99474142D02*
X75385714Y-99474142D01*
X75385714Y-99788428D02*
X75385714Y-99188428D01*
X75100000Y-99474142D02*
X74900000Y-99474142D01*
X74814285Y-99788428D02*
X75100000Y-99788428D01*
X75100000Y-99188428D01*
X74814285Y-99188428D01*
X74442857Y-99188428D02*
X74385714Y-99188428D01*
X74328571Y-99217000D01*
X74300000Y-99245571D01*
X74271428Y-99302714D01*
X74242857Y-99417000D01*
X74242857Y-99559857D01*
X74271428Y-99674142D01*
X74300000Y-99731285D01*
X74328571Y-99759857D01*
X74385714Y-99788428D01*
X74442857Y-99788428D01*
X74500000Y-99759857D01*
X74528571Y-99731285D01*
X74557142Y-99674142D01*
X74585714Y-99559857D01*
X74585714Y-99417000D01*
X74557142Y-99302714D01*
X74528571Y-99245571D01*
X74500000Y-99217000D01*
X74442857Y-99188428D01*
X75800000Y-100154428D02*
X75600000Y-100754428D01*
X75400000Y-100154428D01*
X74857142Y-100697285D02*
X74885714Y-100725857D01*
X74971428Y-100754428D01*
X75028571Y-100754428D01*
X75114285Y-100725857D01*
X75171428Y-100668714D01*
X75200000Y-100611571D01*
X75228571Y-100497285D01*
X75228571Y-100411571D01*
X75200000Y-100297285D01*
X75171428Y-100240142D01*
X75114285Y-100183000D01*
X75028571Y-100154428D01*
X74971428Y-100154428D01*
X74885714Y-100183000D01*
X74857142Y-100211571D01*
X74257142Y-100697285D02*
X74285714Y-100725857D01*
X74371428Y-100754428D01*
X74428571Y-100754428D01*
X74514285Y-100725857D01*
X74571428Y-100668714D01*
X74600000Y-100611571D01*
X74628571Y-100497285D01*
X74628571Y-100411571D01*
X74600000Y-100297285D01*
X74571428Y-100240142D01*
X74514285Y-100183000D01*
X74428571Y-100154428D01*
X74371428Y-100154428D01*
X74285714Y-100183000D01*
X74257142Y-100211571D01*
X77000000Y-90988428D02*
X77000000Y-90388428D01*
X76657142Y-90988428D01*
X76657142Y-90388428D01*
X76142857Y-90959857D02*
X76200000Y-90988428D01*
X76314285Y-90988428D01*
X76371428Y-90959857D01*
X76400000Y-90902714D01*
X76400000Y-90674142D01*
X76371428Y-90617000D01*
X76314285Y-90588428D01*
X76200000Y-90588428D01*
X76142857Y-90617000D01*
X76114285Y-90674142D01*
X76114285Y-90731285D01*
X76400000Y-90788428D01*
X75771428Y-90988428D02*
X75828571Y-90959857D01*
X75857142Y-90931285D01*
X75885714Y-90874142D01*
X75885714Y-90702714D01*
X75857142Y-90645571D01*
X75828571Y-90617000D01*
X75771428Y-90588428D01*
X75685714Y-90588428D01*
X75628571Y-90617000D01*
X75600000Y-90645571D01*
X75571428Y-90702714D01*
X75571428Y-90874142D01*
X75600000Y-90931285D01*
X75628571Y-90959857D01*
X75685714Y-90988428D01*
X75771428Y-90988428D01*
X77100000Y-91354428D02*
X76900000Y-91954428D01*
X76700000Y-91354428D01*
X76157142Y-91897285D02*
X76185714Y-91925857D01*
X76271428Y-91954428D01*
X76328571Y-91954428D01*
X76414285Y-91925857D01*
X76471428Y-91868714D01*
X76500000Y-91811571D01*
X76528571Y-91697285D01*
X76528571Y-91611571D01*
X76500000Y-91497285D01*
X76471428Y-91440142D01*
X76414285Y-91383000D01*
X76328571Y-91354428D01*
X76271428Y-91354428D01*
X76185714Y-91383000D01*
X76157142Y-91411571D01*
X75557142Y-91897285D02*
X75585714Y-91925857D01*
X75671428Y-91954428D01*
X75728571Y-91954428D01*
X75814285Y-91925857D01*
X75871428Y-91868714D01*
X75900000Y-91811571D01*
X75928571Y-91697285D01*
X75928571Y-91611571D01*
X75900000Y-91497285D01*
X75871428Y-91440142D01*
X75814285Y-91383000D01*
X75728571Y-91354428D01*
X75671428Y-91354428D01*
X75585714Y-91383000D01*
X75557142Y-91411571D01*
X111414285Y-105442857D02*
X111328571Y-105471428D01*
X111185714Y-105471428D01*
X111128571Y-105442857D01*
X111100000Y-105414285D01*
X111071428Y-105357142D01*
X111071428Y-105300000D01*
X111100000Y-105242857D01*
X111128571Y-105214285D01*
X111185714Y-105185714D01*
X111300000Y-105157142D01*
X111357142Y-105128571D01*
X111385714Y-105100000D01*
X111414285Y-105042857D01*
X111414285Y-104985714D01*
X111385714Y-104928571D01*
X111357142Y-104900000D01*
X111300000Y-104871428D01*
X111157142Y-104871428D01*
X111071428Y-104900000D01*
X110500000Y-105471428D02*
X110842857Y-105471428D01*
X110671428Y-105471428D02*
X110671428Y-104871428D01*
X110728571Y-104957142D01*
X110785714Y-105014285D01*
X110842857Y-105042857D01*
X110271428Y-105300000D02*
X109985714Y-105300000D01*
X110328571Y-105471428D02*
X110128571Y-104871428D01*
X109928571Y-105471428D01*
X90642857Y-82774142D02*
X90842857Y-82774142D01*
X90842857Y-83088428D02*
X90842857Y-82488428D01*
X90557142Y-82488428D01*
X90071428Y-83088428D02*
X90071428Y-82774142D01*
X90100000Y-82717000D01*
X90157142Y-82688428D01*
X90271428Y-82688428D01*
X90328571Y-82717000D01*
X90071428Y-83059857D02*
X90128571Y-83088428D01*
X90271428Y-83088428D01*
X90328571Y-83059857D01*
X90357142Y-83002714D01*
X90357142Y-82945571D01*
X90328571Y-82888428D01*
X90271428Y-82859857D01*
X90128571Y-82859857D01*
X90071428Y-82831285D01*
X89785714Y-82688428D02*
X89785714Y-83088428D01*
X89785714Y-82745571D02*
X89757142Y-82717000D01*
X89700000Y-82688428D01*
X89614285Y-82688428D01*
X89557142Y-82717000D01*
X89528571Y-82774142D01*
X89528571Y-83088428D01*
X88928571Y-83088428D02*
X89271428Y-83088428D01*
X89100000Y-83088428D02*
X89100000Y-82488428D01*
X89157142Y-82574142D01*
X89214285Y-82631285D01*
X89271428Y-82659857D01*
X90357142Y-83483000D02*
X90414285Y-83454428D01*
X90500000Y-83454428D01*
X90585714Y-83483000D01*
X90642857Y-83540142D01*
X90671428Y-83597285D01*
X90700000Y-83711571D01*
X90700000Y-83797285D01*
X90671428Y-83911571D01*
X90642857Y-83968714D01*
X90585714Y-84025857D01*
X90500000Y-84054428D01*
X90442857Y-84054428D01*
X90357142Y-84025857D01*
X90328571Y-83997285D01*
X90328571Y-83797285D01*
X90442857Y-83797285D01*
X90071428Y-84054428D02*
X90071428Y-83454428D01*
X89728571Y-84054428D01*
X89728571Y-83454428D01*
X89442857Y-84054428D02*
X89442857Y-83454428D01*
X89300000Y-83454428D01*
X89214285Y-83483000D01*
X89157142Y-83540142D01*
X89128571Y-83597285D01*
X89100000Y-83711571D01*
X89100000Y-83797285D01*
X89128571Y-83911571D01*
X89157142Y-83968714D01*
X89214285Y-84025857D01*
X89300000Y-84054428D01*
X89442857Y-84054428D01*
X101957142Y-104614285D02*
X101928571Y-104528571D01*
X101928571Y-104385714D01*
X101957142Y-104328571D01*
X101985714Y-104300000D01*
X102042857Y-104271428D01*
X102100000Y-104271428D01*
X102157142Y-104300000D01*
X102185714Y-104328571D01*
X102214285Y-104385714D01*
X102242857Y-104500000D01*
X102271428Y-104557142D01*
X102300000Y-104585714D01*
X102357142Y-104614285D01*
X102414285Y-104614285D01*
X102471428Y-104585714D01*
X102500000Y-104557142D01*
X102528571Y-104500000D01*
X102528571Y-104357142D01*
X102500000Y-104271428D01*
X102471428Y-104042857D02*
X102500000Y-104014285D01*
X102528571Y-103957142D01*
X102528571Y-103814285D01*
X102500000Y-103757142D01*
X102471428Y-103728571D01*
X102414285Y-103700000D01*
X102357142Y-103700000D01*
X102271428Y-103728571D01*
X101928571Y-104071428D01*
X101928571Y-103700000D01*
X102100000Y-103471428D02*
X102100000Y-103185714D01*
X101928571Y-103528571D02*
X102528571Y-103328571D01*
X101928571Y-103128571D01*
X112985714Y-81371428D02*
X112985714Y-80771428D01*
X112985714Y-81057142D02*
X112642857Y-81057142D01*
X112642857Y-81371428D02*
X112642857Y-80771428D01*
X112357142Y-81057142D02*
X112157142Y-81057142D01*
X112071428Y-81371428D02*
X112357142Y-81371428D01*
X112357142Y-80771428D01*
X112071428Y-80771428D01*
X111042857Y-80800000D02*
X111100000Y-80771428D01*
X111185714Y-80771428D01*
X111271428Y-80800000D01*
X111328571Y-80857142D01*
X111357142Y-80914285D01*
X111385714Y-81028571D01*
X111385714Y-81114285D01*
X111357142Y-81228571D01*
X111328571Y-81285714D01*
X111271428Y-81342857D01*
X111185714Y-81371428D01*
X111128571Y-81371428D01*
X111042857Y-81342857D01*
X111014285Y-81314285D01*
X111014285Y-81114285D01*
X111128571Y-81114285D01*
X110757142Y-81371428D02*
X110757142Y-80771428D01*
X110414285Y-81371428D01*
X110414285Y-80771428D01*
X110128571Y-81371428D02*
X110128571Y-80771428D01*
X109985714Y-80771428D01*
X109900000Y-80800000D01*
X109842857Y-80857142D01*
X109814285Y-80914285D01*
X109785714Y-81028571D01*
X109785714Y-81114285D01*
X109814285Y-81228571D01*
X109842857Y-81285714D01*
X109900000Y-81342857D01*
X109985714Y-81371428D01*
X110128571Y-81371428D01*
X93842857Y-91188428D02*
X93842857Y-90588428D01*
X93614285Y-90588428D01*
X93557142Y-90617000D01*
X93528571Y-90645571D01*
X93500000Y-90702714D01*
X93500000Y-90788428D01*
X93528571Y-90845571D01*
X93557142Y-90874142D01*
X93614285Y-90902714D01*
X93842857Y-90902714D01*
X93242857Y-91188428D02*
X93242857Y-90788428D01*
X93242857Y-90902714D02*
X93214285Y-90845571D01*
X93185714Y-90817000D01*
X93128571Y-90788428D01*
X93071428Y-90788428D01*
X92785714Y-91188428D02*
X92842857Y-91159857D01*
X92871428Y-91131285D01*
X92900000Y-91074142D01*
X92900000Y-90902714D01*
X92871428Y-90845571D01*
X92842857Y-90817000D01*
X92785714Y-90788428D01*
X92700000Y-90788428D01*
X92642857Y-90817000D01*
X92614285Y-90845571D01*
X92585714Y-90902714D01*
X92585714Y-91074142D01*
X92614285Y-91131285D01*
X92642857Y-91159857D01*
X92700000Y-91188428D01*
X92785714Y-91188428D01*
X92328571Y-91188428D02*
X92328571Y-90588428D01*
X92328571Y-90817000D02*
X92271428Y-90788428D01*
X92157142Y-90788428D01*
X92100000Y-90817000D01*
X92071428Y-90845571D01*
X92042857Y-90902714D01*
X92042857Y-91074142D01*
X92071428Y-91131285D01*
X92100000Y-91159857D01*
X92157142Y-91188428D01*
X92271428Y-91188428D01*
X92328571Y-91159857D01*
X91557142Y-91159857D02*
X91614285Y-91188428D01*
X91728571Y-91188428D01*
X91785714Y-91159857D01*
X91814285Y-91102714D01*
X91814285Y-90874142D01*
X91785714Y-90817000D01*
X91728571Y-90788428D01*
X91614285Y-90788428D01*
X91557142Y-90817000D01*
X91528571Y-90874142D01*
X91528571Y-90931285D01*
X91814285Y-90988428D01*
X93314285Y-92125857D02*
X93228571Y-92154428D01*
X93085714Y-92154428D01*
X93028571Y-92125857D01*
X93000000Y-92097285D01*
X92971428Y-92040142D01*
X92971428Y-91983000D01*
X93000000Y-91925857D01*
X93028571Y-91897285D01*
X93085714Y-91868714D01*
X93200000Y-91840142D01*
X93257142Y-91811571D01*
X93285714Y-91783000D01*
X93314285Y-91725857D01*
X93314285Y-91668714D01*
X93285714Y-91611571D01*
X93257142Y-91583000D01*
X93200000Y-91554428D01*
X93057142Y-91554428D01*
X92971428Y-91583000D01*
X92714285Y-92154428D02*
X92714285Y-91554428D01*
X92114285Y-91583000D02*
X92171428Y-91554428D01*
X92257142Y-91554428D01*
X92342857Y-91583000D01*
X92400000Y-91640142D01*
X92428571Y-91697285D01*
X92457142Y-91811571D01*
X92457142Y-91897285D01*
X92428571Y-92011571D01*
X92400000Y-92068714D01*
X92342857Y-92125857D01*
X92257142Y-92154428D01*
X92200000Y-92154428D01*
X92114285Y-92125857D01*
X92085714Y-92097285D01*
X92085714Y-91897285D01*
X92200000Y-91897285D01*
X108357142Y-86871428D02*
X108014285Y-86871428D01*
X108185714Y-87471428D02*
X108185714Y-86871428D01*
X107814285Y-87471428D02*
X107814285Y-86871428D01*
X107814285Y-87157142D02*
X107471428Y-87157142D01*
X107471428Y-87471428D02*
X107471428Y-86871428D01*
X106871428Y-87471428D02*
X107214285Y-87471428D01*
X107042857Y-87471428D02*
X107042857Y-86871428D01*
X107100000Y-86957142D01*
X107157142Y-87014285D01*
X107214285Y-87042857D01*
X106242857Y-86871428D02*
X106042857Y-87471428D01*
X105842857Y-86871428D01*
X105300000Y-87414285D02*
X105328571Y-87442857D01*
X105414285Y-87471428D01*
X105471428Y-87471428D01*
X105557142Y-87442857D01*
X105614285Y-87385714D01*
X105642857Y-87328571D01*
X105671428Y-87214285D01*
X105671428Y-87128571D01*
X105642857Y-87014285D01*
X105614285Y-86957142D01*
X105557142Y-86900000D01*
X105471428Y-86871428D01*
X105414285Y-86871428D01*
X105328571Y-86900000D01*
X105300000Y-86928571D01*
X104700000Y-87414285D02*
X104728571Y-87442857D01*
X104814285Y-87471428D01*
X104871428Y-87471428D01*
X104957142Y-87442857D01*
X105014285Y-87385714D01*
X105042857Y-87328571D01*
X105071428Y-87214285D01*
X105071428Y-87128571D01*
X105042857Y-87014285D01*
X105014285Y-86957142D01*
X104957142Y-86900000D01*
X104871428Y-86871428D01*
X104814285Y-86871428D01*
X104728571Y-86900000D01*
X104700000Y-86928571D01*
X72728571Y-99788428D02*
X72728571Y-99188428D01*
X72728571Y-99474142D02*
X72385714Y-99474142D01*
X72385714Y-99788428D02*
X72385714Y-99188428D01*
X72100000Y-99474142D02*
X71900000Y-99474142D01*
X71814285Y-99788428D02*
X72100000Y-99788428D01*
X72100000Y-99188428D01*
X71814285Y-99188428D01*
X71442857Y-99188428D02*
X71385714Y-99188428D01*
X71328571Y-99217000D01*
X71300000Y-99245571D01*
X71271428Y-99302714D01*
X71242857Y-99417000D01*
X71242857Y-99559857D01*
X71271428Y-99674142D01*
X71300000Y-99731285D01*
X71328571Y-99759857D01*
X71385714Y-99788428D01*
X71442857Y-99788428D01*
X71500000Y-99759857D01*
X71528571Y-99731285D01*
X71557142Y-99674142D01*
X71585714Y-99559857D01*
X71585714Y-99417000D01*
X71557142Y-99302714D01*
X71528571Y-99245571D01*
X71500000Y-99217000D01*
X71442857Y-99188428D01*
X72457142Y-100183000D02*
X72514285Y-100154428D01*
X72600000Y-100154428D01*
X72685714Y-100183000D01*
X72742857Y-100240142D01*
X72771428Y-100297285D01*
X72800000Y-100411571D01*
X72800000Y-100497285D01*
X72771428Y-100611571D01*
X72742857Y-100668714D01*
X72685714Y-100725857D01*
X72600000Y-100754428D01*
X72542857Y-100754428D01*
X72457142Y-100725857D01*
X72428571Y-100697285D01*
X72428571Y-100497285D01*
X72542857Y-100497285D01*
X72171428Y-100754428D02*
X72171428Y-100154428D01*
X71828571Y-100754428D01*
X71828571Y-100154428D01*
X71542857Y-100754428D02*
X71542857Y-100154428D01*
X71400000Y-100154428D01*
X71314285Y-100183000D01*
X71257142Y-100240142D01*
X71228571Y-100297285D01*
X71200000Y-100411571D01*
X71200000Y-100497285D01*
X71228571Y-100611571D01*
X71257142Y-100668714D01*
X71314285Y-100725857D01*
X71400000Y-100754428D01*
X71542857Y-100754428D01*
X108257142Y-102442857D02*
X108171428Y-102471428D01*
X108028571Y-102471428D01*
X107971428Y-102442857D01*
X107942857Y-102414285D01*
X107914285Y-102357142D01*
X107914285Y-102300000D01*
X107942857Y-102242857D01*
X107971428Y-102214285D01*
X108028571Y-102185714D01*
X108142857Y-102157142D01*
X108200000Y-102128571D01*
X108228571Y-102100000D01*
X108257142Y-102042857D01*
X108257142Y-101985714D01*
X108228571Y-101928571D01*
X108200000Y-101900000D01*
X108142857Y-101871428D01*
X108000000Y-101871428D01*
X107914285Y-101900000D01*
X107685714Y-101928571D02*
X107657142Y-101900000D01*
X107600000Y-101871428D01*
X107457142Y-101871428D01*
X107400000Y-101900000D01*
X107371428Y-101928571D01*
X107342857Y-101985714D01*
X107342857Y-102042857D01*
X107371428Y-102128571D01*
X107714285Y-102471428D01*
X107342857Y-102471428D01*
X106885714Y-102157142D02*
X106800000Y-102185714D01*
X106771428Y-102214285D01*
X106742857Y-102271428D01*
X106742857Y-102357142D01*
X106771428Y-102414285D01*
X106800000Y-102442857D01*
X106857142Y-102471428D01*
X107085714Y-102471428D01*
X107085714Y-101871428D01*
X106885714Y-101871428D01*
X106828571Y-101900000D01*
X106800000Y-101928571D01*
X106771428Y-101985714D01*
X106771428Y-102042857D01*
X106800000Y-102100000D01*
X106828571Y-102128571D01*
X106885714Y-102157142D01*
X107085714Y-102157142D01*
X113885714Y-90157142D02*
X114085714Y-90157142D01*
X114085714Y-90471428D02*
X114085714Y-89871428D01*
X113800000Y-89871428D01*
X113314285Y-90471428D02*
X113314285Y-90157142D01*
X113342857Y-90100000D01*
X113400000Y-90071428D01*
X113514285Y-90071428D01*
X113571428Y-90100000D01*
X113314285Y-90442857D02*
X113371428Y-90471428D01*
X113514285Y-90471428D01*
X113571428Y-90442857D01*
X113600000Y-90385714D01*
X113600000Y-90328571D01*
X113571428Y-90271428D01*
X113514285Y-90242857D01*
X113371428Y-90242857D01*
X113314285Y-90214285D01*
X113028571Y-90071428D02*
X113028571Y-90471428D01*
X113028571Y-90128571D02*
X113000000Y-90100000D01*
X112942857Y-90071428D01*
X112857142Y-90071428D01*
X112800000Y-90100000D01*
X112771428Y-90157142D01*
X112771428Y-90471428D01*
X112171428Y-90471428D02*
X112514285Y-90471428D01*
X112342857Y-90471428D02*
X112342857Y-89871428D01*
X112400000Y-89957142D01*
X112457142Y-90014285D01*
X112514285Y-90042857D01*
X111142857Y-89900000D02*
X111200000Y-89871428D01*
X111285714Y-89871428D01*
X111371428Y-89900000D01*
X111428571Y-89957142D01*
X111457142Y-90014285D01*
X111485714Y-90128571D01*
X111485714Y-90214285D01*
X111457142Y-90328571D01*
X111428571Y-90385714D01*
X111371428Y-90442857D01*
X111285714Y-90471428D01*
X111228571Y-90471428D01*
X111142857Y-90442857D01*
X111114285Y-90414285D01*
X111114285Y-90214285D01*
X111228571Y-90214285D01*
X110857142Y-90471428D02*
X110857142Y-89871428D01*
X110514285Y-90471428D01*
X110514285Y-89871428D01*
X110228571Y-90471428D02*
X110228571Y-89871428D01*
X110085714Y-89871428D01*
X110000000Y-89900000D01*
X109942857Y-89957142D01*
X109914285Y-90014285D01*
X109885714Y-90128571D01*
X109885714Y-90214285D01*
X109914285Y-90328571D01*
X109942857Y-90385714D01*
X110000000Y-90442857D01*
X110085714Y-90471428D01*
X110228571Y-90471428D01*
X88042857Y-91188428D02*
X88042857Y-90588428D01*
X87814285Y-90588428D01*
X87757142Y-90617000D01*
X87728571Y-90645571D01*
X87700000Y-90702714D01*
X87700000Y-90788428D01*
X87728571Y-90845571D01*
X87757142Y-90874142D01*
X87814285Y-90902714D01*
X88042857Y-90902714D01*
X87442857Y-91188428D02*
X87442857Y-90788428D01*
X87442857Y-90902714D02*
X87414285Y-90845571D01*
X87385714Y-90817000D01*
X87328571Y-90788428D01*
X87271428Y-90788428D01*
X86985714Y-91188428D02*
X87042857Y-91159857D01*
X87071428Y-91131285D01*
X87100000Y-91074142D01*
X87100000Y-90902714D01*
X87071428Y-90845571D01*
X87042857Y-90817000D01*
X86985714Y-90788428D01*
X86900000Y-90788428D01*
X86842857Y-90817000D01*
X86814285Y-90845571D01*
X86785714Y-90902714D01*
X86785714Y-91074142D01*
X86814285Y-91131285D01*
X86842857Y-91159857D01*
X86900000Y-91188428D01*
X86985714Y-91188428D01*
X86528571Y-91188428D02*
X86528571Y-90588428D01*
X86528571Y-90817000D02*
X86471428Y-90788428D01*
X86357142Y-90788428D01*
X86300000Y-90817000D01*
X86271428Y-90845571D01*
X86242857Y-90902714D01*
X86242857Y-91074142D01*
X86271428Y-91131285D01*
X86300000Y-91159857D01*
X86357142Y-91188428D01*
X86471428Y-91188428D01*
X86528571Y-91159857D01*
X85757142Y-91159857D02*
X85814285Y-91188428D01*
X85928571Y-91188428D01*
X85985714Y-91159857D01*
X86014285Y-91102714D01*
X86014285Y-90874142D01*
X85985714Y-90817000D01*
X85928571Y-90788428D01*
X85814285Y-90788428D01*
X85757142Y-90817000D01*
X85728571Y-90874142D01*
X85728571Y-90931285D01*
X86014285Y-90988428D01*
X87700000Y-91554428D02*
X87500000Y-92154428D01*
X87300000Y-91554428D01*
X86757142Y-92097285D02*
X86785714Y-92125857D01*
X86871428Y-92154428D01*
X86928571Y-92154428D01*
X87014285Y-92125857D01*
X87071428Y-92068714D01*
X87100000Y-92011571D01*
X87128571Y-91897285D01*
X87128571Y-91811571D01*
X87100000Y-91697285D01*
X87071428Y-91640142D01*
X87014285Y-91583000D01*
X86928571Y-91554428D01*
X86871428Y-91554428D01*
X86785714Y-91583000D01*
X86757142Y-91611571D01*
X86157142Y-92097285D02*
X86185714Y-92125857D01*
X86271428Y-92154428D01*
X86328571Y-92154428D01*
X86414285Y-92125857D01*
X86471428Y-92068714D01*
X86500000Y-92011571D01*
X86528571Y-91897285D01*
X86528571Y-91811571D01*
X86500000Y-91697285D01*
X86471428Y-91640142D01*
X86414285Y-91583000D01*
X86328571Y-91554428D01*
X86271428Y-91554428D01*
X86185714Y-91583000D01*
X86157142Y-91611571D01*
X93242857Y-82774142D02*
X93442857Y-82774142D01*
X93442857Y-83088428D02*
X93442857Y-82488428D01*
X93157142Y-82488428D01*
X92671428Y-83088428D02*
X92671428Y-82774142D01*
X92700000Y-82717000D01*
X92757142Y-82688428D01*
X92871428Y-82688428D01*
X92928571Y-82717000D01*
X92671428Y-83059857D02*
X92728571Y-83088428D01*
X92871428Y-83088428D01*
X92928571Y-83059857D01*
X92957142Y-83002714D01*
X92957142Y-82945571D01*
X92928571Y-82888428D01*
X92871428Y-82859857D01*
X92728571Y-82859857D01*
X92671428Y-82831285D01*
X92385714Y-82688428D02*
X92385714Y-83088428D01*
X92385714Y-82745571D02*
X92357142Y-82717000D01*
X92300000Y-82688428D01*
X92214285Y-82688428D01*
X92157142Y-82717000D01*
X92128571Y-82774142D01*
X92128571Y-83088428D01*
X91528571Y-83088428D02*
X91871428Y-83088428D01*
X91700000Y-83088428D02*
X91700000Y-82488428D01*
X91757142Y-82574142D01*
X91814285Y-82631285D01*
X91871428Y-82659857D01*
X93300000Y-83454428D02*
X93100000Y-84054428D01*
X92900000Y-83454428D01*
X92357142Y-83997285D02*
X92385714Y-84025857D01*
X92471428Y-84054428D01*
X92528571Y-84054428D01*
X92614285Y-84025857D01*
X92671428Y-83968714D01*
X92700000Y-83911571D01*
X92728571Y-83797285D01*
X92728571Y-83711571D01*
X92700000Y-83597285D01*
X92671428Y-83540142D01*
X92614285Y-83483000D01*
X92528571Y-83454428D01*
X92471428Y-83454428D01*
X92385714Y-83483000D01*
X92357142Y-83511571D01*
X91757142Y-83997285D02*
X91785714Y-84025857D01*
X91871428Y-84054428D01*
X91928571Y-84054428D01*
X92014285Y-84025857D01*
X92071428Y-83968714D01*
X92100000Y-83911571D01*
X92128571Y-83797285D01*
X92128571Y-83711571D01*
X92100000Y-83597285D01*
X92071428Y-83540142D01*
X92014285Y-83483000D01*
X91928571Y-83454428D01*
X91871428Y-83454428D01*
X91785714Y-83483000D01*
X91757142Y-83511571D01*
X113542857Y-96471428D02*
X113542857Y-95871428D01*
X113200000Y-96471428D01*
X113200000Y-95871428D01*
X112685714Y-96442857D02*
X112742857Y-96471428D01*
X112857142Y-96471428D01*
X112914285Y-96442857D01*
X112942857Y-96385714D01*
X112942857Y-96157142D01*
X112914285Y-96100000D01*
X112857142Y-96071428D01*
X112742857Y-96071428D01*
X112685714Y-96100000D01*
X112657142Y-96157142D01*
X112657142Y-96214285D01*
X112942857Y-96271428D01*
X112314285Y-96471428D02*
X112371428Y-96442857D01*
X112400000Y-96414285D01*
X112428571Y-96357142D01*
X112428571Y-96185714D01*
X112400000Y-96128571D01*
X112371428Y-96100000D01*
X112314285Y-96071428D01*
X112228571Y-96071428D01*
X112171428Y-96100000D01*
X112142857Y-96128571D01*
X112114285Y-96185714D01*
X112114285Y-96357142D01*
X112142857Y-96414285D01*
X112171428Y-96442857D01*
X112228571Y-96471428D01*
X112314285Y-96471428D01*
X111085714Y-95900000D02*
X111142857Y-95871428D01*
X111228571Y-95871428D01*
X111314285Y-95900000D01*
X111371428Y-95957142D01*
X111400000Y-96014285D01*
X111428571Y-96128571D01*
X111428571Y-96214285D01*
X111400000Y-96328571D01*
X111371428Y-96385714D01*
X111314285Y-96442857D01*
X111228571Y-96471428D01*
X111171428Y-96471428D01*
X111085714Y-96442857D01*
X111057142Y-96414285D01*
X111057142Y-96214285D01*
X111171428Y-96214285D01*
X110800000Y-96471428D02*
X110800000Y-95871428D01*
X110457142Y-96471428D01*
X110457142Y-95871428D01*
X110171428Y-96471428D02*
X110171428Y-95871428D01*
X110028571Y-95871428D01*
X109942857Y-95900000D01*
X109885714Y-95957142D01*
X109857142Y-96014285D01*
X109828571Y-96128571D01*
X109828571Y-96214285D01*
X109857142Y-96328571D01*
X109885714Y-96385714D01*
X109942857Y-96442857D01*
X110028571Y-96471428D01*
X110171428Y-96471428D01*
X108042857Y-90157142D02*
X108242857Y-90157142D01*
X108242857Y-90471428D02*
X108242857Y-89871428D01*
X107957142Y-89871428D01*
X107471428Y-90471428D02*
X107471428Y-90157142D01*
X107500000Y-90100000D01*
X107557142Y-90071428D01*
X107671428Y-90071428D01*
X107728571Y-90100000D01*
X107471428Y-90442857D02*
X107528571Y-90471428D01*
X107671428Y-90471428D01*
X107728571Y-90442857D01*
X107757142Y-90385714D01*
X107757142Y-90328571D01*
X107728571Y-90271428D01*
X107671428Y-90242857D01*
X107528571Y-90242857D01*
X107471428Y-90214285D01*
X107185714Y-90071428D02*
X107185714Y-90471428D01*
X107185714Y-90128571D02*
X107157142Y-90100000D01*
X107100000Y-90071428D01*
X107014285Y-90071428D01*
X106957142Y-90100000D01*
X106928571Y-90157142D01*
X106928571Y-90471428D01*
X106271428Y-89871428D02*
X106071428Y-90471428D01*
X105871428Y-89871428D01*
X105328571Y-90414285D02*
X105357142Y-90442857D01*
X105442857Y-90471428D01*
X105500000Y-90471428D01*
X105585714Y-90442857D01*
X105642857Y-90385714D01*
X105671428Y-90328571D01*
X105700000Y-90214285D01*
X105700000Y-90128571D01*
X105671428Y-90014285D01*
X105642857Y-89957142D01*
X105585714Y-89900000D01*
X105500000Y-89871428D01*
X105442857Y-89871428D01*
X105357142Y-89900000D01*
X105328571Y-89928571D01*
X104728571Y-90414285D02*
X104757142Y-90442857D01*
X104842857Y-90471428D01*
X104900000Y-90471428D01*
X104985714Y-90442857D01*
X105042857Y-90385714D01*
X105071428Y-90328571D01*
X105100000Y-90214285D01*
X105100000Y-90128571D01*
X105071428Y-90014285D01*
X105042857Y-89957142D01*
X104985714Y-89900000D01*
X104900000Y-89871428D01*
X104842857Y-89871428D01*
X104757142Y-89900000D01*
X104728571Y-89928571D01*
%TO.C,G\u002A\u002A\u002A*%
G36*
X77758940Y-87526875D02*
G01*
X77791568Y-87535250D01*
X77839235Y-87553416D01*
X77905852Y-87583048D01*
X77995331Y-87625820D01*
X78111585Y-87683408D01*
X78258525Y-87757486D01*
X78273424Y-87765041D01*
X78401559Y-87830481D01*
X78518906Y-87891219D01*
X78620634Y-87944695D01*
X78701913Y-87988349D01*
X78757915Y-88019620D01*
X78783808Y-88035947D01*
X78810525Y-88071305D01*
X78812786Y-88123612D01*
X78777924Y-88177768D01*
X78744848Y-88201443D01*
X78702350Y-88206578D01*
X78692089Y-88202889D01*
X78642853Y-88181324D01*
X78569356Y-88145994D01*
X78476972Y-88099756D01*
X78371075Y-88045467D01*
X78257039Y-87985985D01*
X78140239Y-87924167D01*
X78026049Y-87862872D01*
X77919843Y-87804956D01*
X77826995Y-87753277D01*
X77752880Y-87710692D01*
X77702871Y-87680060D01*
X77682344Y-87664236D01*
X77671624Y-87625960D01*
X77684796Y-87571347D01*
X77727425Y-87530085D01*
X77737438Y-87526615D01*
X77758940Y-87526875D01*
G37*
G36*
X71852648Y-84764971D02*
G01*
X71867555Y-84777592D01*
X71876186Y-84793838D01*
X71878201Y-84820610D01*
X71873318Y-84864854D01*
X71861254Y-84933512D01*
X71841728Y-85033527D01*
X71828179Y-85098577D01*
X71803177Y-85200667D01*
X71779944Y-85272348D01*
X71759731Y-85309403D01*
X71759680Y-85309454D01*
X71725316Y-85337647D01*
X71694857Y-85338723D01*
X71651732Y-85313276D01*
X71625047Y-85284767D01*
X71611292Y-85241624D01*
X71610742Y-85178466D01*
X71623353Y-85089690D01*
X71649084Y-84969692D01*
X71652756Y-84954331D01*
X71684028Y-84846982D01*
X71717618Y-84776418D01*
X71755561Y-84740593D01*
X71799892Y-84737459D01*
X71852648Y-84764971D01*
G37*
G36*
X70727897Y-83894120D02*
G01*
X70804300Y-83937045D01*
X70847969Y-83971219D01*
X70878339Y-84008274D01*
X70879599Y-84044280D01*
X70854969Y-84088883D01*
X70841940Y-84104906D01*
X70800924Y-84128448D01*
X70745467Y-84124249D01*
X70668902Y-84092435D01*
X70648282Y-84081104D01*
X70587000Y-84031142D01*
X70560719Y-83976207D01*
X70571447Y-83919856D01*
X70602557Y-83888785D01*
X70658274Y-83877858D01*
X70727897Y-83894120D01*
G37*
G36*
X70023767Y-83539712D02*
G01*
X70084865Y-83565762D01*
X70172231Y-83610324D01*
X70196212Y-83623062D01*
X70264316Y-83661663D01*
X70305556Y-83691433D01*
X70326780Y-83718152D01*
X70334835Y-83747604D01*
X70333094Y-83791184D01*
X70317789Y-83830643D01*
X70303199Y-83844574D01*
X70270355Y-83856154D01*
X70223407Y-83849812D01*
X70156222Y-83824291D01*
X70062668Y-83778334D01*
X70001650Y-83744644D01*
X69931319Y-83695660D01*
X69895478Y-83651434D01*
X69892046Y-83608878D01*
X69918944Y-83564905D01*
X69924092Y-83559362D01*
X69950779Y-83537839D01*
X69981538Y-83530847D01*
X70023767Y-83539712D01*
G37*
G36*
X77140570Y-87201303D02*
G01*
X77190398Y-87217543D01*
X77259282Y-87247845D01*
X77338072Y-87287274D01*
X77417617Y-87330893D01*
X77488765Y-87373768D01*
X77542367Y-87410963D01*
X77569270Y-87437542D01*
X77578677Y-87477693D01*
X77558708Y-87523541D01*
X77527939Y-87554794D01*
X77484050Y-87570608D01*
X77463808Y-87567283D01*
X77409176Y-87547884D01*
X77337971Y-87515340D01*
X77258914Y-87474472D01*
X77180725Y-87430104D01*
X77112122Y-87387057D01*
X77061825Y-87350154D01*
X77038554Y-87324218D01*
X77034689Y-87308694D01*
X77043441Y-87257213D01*
X77077981Y-87216435D01*
X77128550Y-87199846D01*
X77140570Y-87201303D01*
G37*
G36*
X76563804Y-86245912D02*
G01*
X76615296Y-86264692D01*
X76683098Y-86295136D01*
X76756732Y-86331915D01*
X76825716Y-86369698D01*
X76879571Y-86403155D01*
X76907817Y-86426956D01*
X76919333Y-86455404D01*
X76919371Y-86508430D01*
X76899323Y-86551169D01*
X76897915Y-86552542D01*
X76859009Y-86571491D01*
X76802440Y-86568028D01*
X76724111Y-86541258D01*
X76619923Y-86490289D01*
X76601002Y-86480105D01*
X76530820Y-86439994D01*
X76487988Y-86409204D01*
X76465741Y-86382015D01*
X76457319Y-86352704D01*
X76460435Y-86301528D01*
X76490191Y-86258049D01*
X76545082Y-86242461D01*
X76563804Y-86245912D01*
G37*
G36*
X76414431Y-85700092D02*
G01*
X76413119Y-85752512D01*
X76407238Y-85786414D01*
X76395950Y-85809490D01*
X76378418Y-85829429D01*
X76342511Y-85858407D01*
X76312193Y-85871082D01*
X76300525Y-85866973D01*
X76256345Y-85846769D01*
X76182743Y-85811118D01*
X76082779Y-85761599D01*
X75959511Y-85699793D01*
X75816000Y-85627277D01*
X75655304Y-85545633D01*
X75480483Y-85456440D01*
X75294597Y-85361277D01*
X75100705Y-85261724D01*
X74901866Y-85159360D01*
X74701140Y-85055766D01*
X74501586Y-84952520D01*
X74306265Y-84851202D01*
X74118234Y-84753393D01*
X73940554Y-84660671D01*
X73776283Y-84574616D01*
X73628483Y-84496808D01*
X73500211Y-84428826D01*
X73394527Y-84372251D01*
X73314492Y-84328660D01*
X73263163Y-84299635D01*
X73243601Y-84286755D01*
X73234891Y-84268298D01*
X73236533Y-84222847D01*
X73517878Y-84222847D01*
X74857815Y-84910269D01*
X74899839Y-84931826D01*
X75110753Y-85039946D01*
X75310981Y-85142470D01*
X75497848Y-85238035D01*
X75668680Y-85325279D01*
X75820802Y-85402839D01*
X75951540Y-85469353D01*
X76058219Y-85523457D01*
X76138164Y-85563790D01*
X76188702Y-85588989D01*
X76207157Y-85597692D01*
X76212007Y-85583152D01*
X76210956Y-85537860D01*
X76204117Y-85469803D01*
X76192505Y-85387157D01*
X76177139Y-85298098D01*
X76159034Y-85210804D01*
X76120824Y-85072661D01*
X76027376Y-84845872D01*
X75901700Y-84636315D01*
X75746846Y-84447029D01*
X75565865Y-84281051D01*
X75361806Y-84141420D01*
X75137720Y-84031175D01*
X74896657Y-83953354D01*
X74711803Y-83921672D01*
X74504246Y-83910536D01*
X74295638Y-83921352D01*
X74101865Y-83954106D01*
X74047868Y-83968545D01*
X73937568Y-84004548D01*
X73823727Y-84048564D01*
X73716694Y-84096161D01*
X73626816Y-84142905D01*
X73564439Y-84184364D01*
X73517878Y-84222847D01*
X73236533Y-84222847D01*
X73236888Y-84213023D01*
X73277268Y-84151453D01*
X73356103Y-84083461D01*
X73371209Y-84072591D01*
X73605737Y-83928135D01*
X73851139Y-83819673D01*
X74104123Y-83747016D01*
X74361400Y-83709974D01*
X74619676Y-83708357D01*
X74875662Y-83741975D01*
X75126066Y-83810640D01*
X75367597Y-83914160D01*
X75596964Y-84052346D01*
X75810875Y-84225009D01*
X75957079Y-84377083D01*
X76097975Y-84567421D01*
X76220611Y-84786846D01*
X76288770Y-84941664D01*
X76349861Y-85130395D01*
X76388805Y-85329241D01*
X76408756Y-85551006D01*
X76410242Y-85583152D01*
X76412012Y-85621462D01*
X76414431Y-85700092D01*
G37*
G36*
X73310949Y-86413321D02*
G01*
X73369943Y-86462269D01*
X73403360Y-86499179D01*
X73460802Y-86575027D01*
X73486675Y-86635586D01*
X73482108Y-86684656D01*
X73448228Y-86726038D01*
X73420259Y-86743328D01*
X73377837Y-86746221D01*
X73329904Y-86718977D01*
X73270293Y-86659282D01*
X73217892Y-86594125D01*
X73183028Y-86530882D01*
X73178039Y-86480161D01*
X73201405Y-86437059D01*
X73211424Y-86426850D01*
X73259107Y-86401664D01*
X73310949Y-86413321D01*
G37*
G36*
X75301747Y-85602751D02*
G01*
X75349913Y-85623227D01*
X75423195Y-85656916D01*
X75516169Y-85701114D01*
X75623409Y-85753117D01*
X75739492Y-85810220D01*
X75858991Y-85869718D01*
X75976482Y-85928906D01*
X76086540Y-85985080D01*
X76183740Y-86035535D01*
X76262657Y-86077566D01*
X76317866Y-86108468D01*
X76343943Y-86125537D01*
X76353615Y-86139843D01*
X76360914Y-86186513D01*
X76350767Y-86238065D01*
X76325554Y-86275130D01*
X76300928Y-86290584D01*
X76272440Y-86301077D01*
X76272016Y-86301063D01*
X76244130Y-86291433D01*
X76187845Y-86265825D01*
X76108430Y-86227044D01*
X76011158Y-86177895D01*
X75901299Y-86121180D01*
X75784125Y-86059704D01*
X75664906Y-85996271D01*
X75548914Y-85933685D01*
X75441420Y-85874749D01*
X75347696Y-85822267D01*
X75273011Y-85779044D01*
X75222638Y-85747883D01*
X75201847Y-85731588D01*
X75194444Y-85703306D01*
X75206241Y-85654361D01*
X75239534Y-85614292D01*
X75285235Y-85597692D01*
X75301747Y-85602751D01*
G37*
G36*
X71695280Y-85442706D02*
G01*
X71728965Y-85457361D01*
X71753600Y-85492054D01*
X71770837Y-85551526D01*
X71782330Y-85640517D01*
X71789730Y-85763769D01*
X71804168Y-85948225D01*
X71858010Y-86255181D01*
X71947293Y-86554389D01*
X72070098Y-86840912D01*
X72224506Y-87109813D01*
X72408599Y-87356154D01*
X72458156Y-87415581D01*
X72508880Y-87478470D01*
X72545479Y-87526092D01*
X72555302Y-87539684D01*
X72577407Y-87576541D01*
X72577796Y-87603881D01*
X72558391Y-87638438D01*
X72542595Y-87659418D01*
X72503340Y-87685984D01*
X72456968Y-87681360D01*
X72399656Y-87644486D01*
X72327581Y-87574299D01*
X72160804Y-87373801D01*
X71988922Y-87114581D01*
X71843547Y-86832955D01*
X71727001Y-86534179D01*
X71641610Y-86223507D01*
X71589697Y-85906193D01*
X71584931Y-85860243D01*
X71573699Y-85717874D01*
X71572252Y-85609132D01*
X71581243Y-85530564D01*
X71601322Y-85478718D01*
X71633141Y-85450142D01*
X71677350Y-85441384D01*
X71695280Y-85442706D01*
G37*
G36*
X77518000Y-84896697D02*
G01*
X77556438Y-84914991D01*
X77583219Y-84957579D01*
X77604624Y-85031846D01*
X77612718Y-85074923D01*
X77612550Y-85123808D01*
X77595428Y-85162961D01*
X77568743Y-85189925D01*
X77518693Y-85206923D01*
X77517735Y-85206917D01*
X77466717Y-85187800D01*
X77427103Y-85133753D01*
X77401119Y-85047788D01*
X77397812Y-85024886D01*
X77402779Y-84954642D01*
X77433384Y-84909966D01*
X77487680Y-84894307D01*
X77518000Y-84896697D01*
G37*
G36*
X74803346Y-83423058D02*
G01*
X75082196Y-83480369D01*
X75351126Y-83572810D01*
X75606840Y-83699476D01*
X75846038Y-83859463D01*
X76065425Y-84051865D01*
X76117992Y-84106854D01*
X76209172Y-84212861D01*
X76297150Y-84327252D01*
X76377992Y-84443890D01*
X76447766Y-84556637D01*
X76502538Y-84659355D01*
X76538376Y-84745909D01*
X76551348Y-84810161D01*
X76540891Y-84845531D01*
X76508114Y-84883430D01*
X76477058Y-84903946D01*
X76457984Y-84913846D01*
X76445883Y-84911922D01*
X76404527Y-84882316D01*
X76355656Y-84816308D01*
X76298608Y-84713067D01*
X76259023Y-84638454D01*
X76109886Y-84410549D01*
X75930530Y-84203872D01*
X75724968Y-84022119D01*
X75497208Y-83868983D01*
X75251262Y-83748162D01*
X75014005Y-83668807D01*
X74745276Y-83618064D01*
X74468023Y-83605230D01*
X74182841Y-83630328D01*
X73890326Y-83693384D01*
X73856422Y-83702706D01*
X73799952Y-83716574D01*
X73765515Y-83719659D01*
X73742266Y-83711968D01*
X73719365Y-83693509D01*
X73711856Y-83686386D01*
X73680983Y-83637480D01*
X73688943Y-83591237D01*
X73735590Y-83547799D01*
X73820780Y-83507311D01*
X73944369Y-83469917D01*
X74229080Y-83417444D01*
X74517875Y-83401781D01*
X74803346Y-83423058D01*
G37*
G36*
X76484863Y-86556475D02*
G01*
X76512255Y-86580141D01*
X76528438Y-86599677D01*
X76535182Y-86616120D01*
X76534261Y-86630507D01*
X76527447Y-86643878D01*
X76516511Y-86657268D01*
X76503228Y-86671716D01*
X76487121Y-86688142D01*
X76458500Y-86705737D01*
X76423447Y-86706268D01*
X76372836Y-86688892D01*
X76297539Y-86652769D01*
X76238270Y-86623985D01*
X76189275Y-86602404D01*
X76164093Y-86594154D01*
X76146448Y-86607946D01*
X76114463Y-86646486D01*
X76075760Y-86701093D01*
X75939391Y-86878837D01*
X75758567Y-87057596D01*
X75552402Y-87212513D01*
X75325894Y-87340368D01*
X75084040Y-87437943D01*
X74831840Y-87502022D01*
X74713384Y-87519546D01*
X74451088Y-87531133D01*
X74193454Y-87506427D01*
X73943723Y-87447348D01*
X73705138Y-87355817D01*
X73480941Y-87233754D01*
X73274374Y-87083080D01*
X73088679Y-86905717D01*
X72927098Y-86703584D01*
X72792874Y-86478602D01*
X72689248Y-86232692D01*
X72639707Y-86063126D01*
X72595015Y-85798189D01*
X72590875Y-85605037D01*
X72792383Y-85605037D01*
X72808561Y-85856249D01*
X72859880Y-86100856D01*
X72946108Y-86333151D01*
X72968955Y-86380557D01*
X73096777Y-86593621D01*
X73254195Y-86785891D01*
X73436985Y-86953896D01*
X73640927Y-87094166D01*
X73861797Y-87203231D01*
X74095373Y-87277622D01*
X74338193Y-87317739D01*
X74592723Y-87323961D01*
X74840997Y-87293688D01*
X75079763Y-87227833D01*
X75305765Y-87127309D01*
X75515752Y-86993028D01*
X75706469Y-86825902D01*
X75748626Y-86781484D01*
X75811675Y-86710248D01*
X75870495Y-86638851D01*
X75919466Y-86574464D01*
X75952969Y-86524261D01*
X75965385Y-86495412D01*
X75958567Y-86490889D01*
X75921272Y-86470172D01*
X75854166Y-86434219D01*
X75760298Y-86384601D01*
X75642716Y-86322892D01*
X75504468Y-86250664D01*
X75348603Y-86169491D01*
X75178170Y-86080946D01*
X74996215Y-85986601D01*
X74805789Y-85888029D01*
X74609939Y-85786803D01*
X74411714Y-85684496D01*
X74214162Y-85582681D01*
X74020331Y-85482931D01*
X73833270Y-85386819D01*
X73656027Y-85295917D01*
X73491650Y-85211799D01*
X73343189Y-85136037D01*
X73213690Y-85070204D01*
X73106203Y-85015874D01*
X73023776Y-84974618D01*
X72969458Y-84948011D01*
X72946296Y-84937624D01*
X72936393Y-84942129D01*
X72914970Y-84973470D01*
X72892510Y-85025547D01*
X72866391Y-85105631D01*
X72811582Y-85352928D01*
X72792383Y-85605037D01*
X72590875Y-85605037D01*
X72589276Y-85530426D01*
X72622493Y-85259751D01*
X72694664Y-84986081D01*
X72702692Y-84961631D01*
X72723290Y-84894931D01*
X72736119Y-84847033D01*
X72738671Y-84826999D01*
X72738466Y-84826829D01*
X72717459Y-84814942D01*
X72671447Y-84790915D01*
X72610000Y-84759747D01*
X72542332Y-84722270D01*
X72496102Y-84685352D01*
X72475799Y-84649182D01*
X72473487Y-84632961D01*
X72485403Y-84581222D01*
X72518852Y-84539987D01*
X72563836Y-84523527D01*
X72566671Y-84524356D01*
X72597893Y-84538361D01*
X72660935Y-84568795D01*
X72753557Y-84614525D01*
X72873521Y-84674417D01*
X73018588Y-84747340D01*
X73186518Y-84832162D01*
X73375072Y-84927749D01*
X73582012Y-85032969D01*
X73805099Y-85146689D01*
X74042093Y-85267778D01*
X74290755Y-85395103D01*
X74548846Y-85527530D01*
X74636610Y-85572607D01*
X74936771Y-85726774D01*
X75204453Y-85864359D01*
X75441428Y-85986399D01*
X75649470Y-86093933D01*
X75830350Y-86187997D01*
X75985840Y-86269631D01*
X76117714Y-86339870D01*
X76227743Y-86399753D01*
X76317701Y-86450317D01*
X76389358Y-86492600D01*
X76393782Y-86495412D01*
X76444488Y-86527640D01*
X76484863Y-86556475D01*
G37*
G36*
X76684391Y-87297549D02*
G01*
X76731500Y-87315158D01*
X76770040Y-87356258D01*
X76786000Y-87406049D01*
X76785077Y-87413175D01*
X76763853Y-87456195D01*
X76716897Y-87519367D01*
X76647301Y-87598405D01*
X76616632Y-87630703D01*
X76548059Y-87696984D01*
X76497630Y-87734867D01*
X76462136Y-87746923D01*
X76427272Y-87737369D01*
X76388938Y-87704996D01*
X76366289Y-87662315D01*
X76369249Y-87622609D01*
X76372521Y-87617134D01*
X76403493Y-87575162D01*
X76450428Y-87520067D01*
X76506431Y-87458987D01*
X76564610Y-87399058D01*
X76618071Y-87347416D01*
X76659919Y-87311197D01*
X76683262Y-87297538D01*
X76684391Y-87297549D01*
G37*
G36*
X78352931Y-87289256D02*
G01*
X78541138Y-87421131D01*
X78759385Y-87571287D01*
X78923393Y-87683671D01*
X79071257Y-87785581D01*
X79191859Y-87869592D01*
X79287885Y-87937720D01*
X79362023Y-87991980D01*
X79416956Y-88034387D01*
X79455372Y-88066957D01*
X79479956Y-88091706D01*
X79493395Y-88110648D01*
X79498374Y-88125800D01*
X79495410Y-88175368D01*
X79467161Y-88219196D01*
X79416416Y-88234984D01*
X79393645Y-88226600D01*
X79338750Y-88201631D01*
X79254705Y-88161474D01*
X79144323Y-88107530D01*
X79010418Y-88041201D01*
X78855804Y-87963887D01*
X78683295Y-87876988D01*
X78495704Y-87781908D01*
X78295845Y-87680045D01*
X78086532Y-87572802D01*
X77531649Y-87287769D01*
X77977846Y-87287769D01*
X77987616Y-87297538D01*
X77997385Y-87287769D01*
X77987616Y-87278000D01*
X77977846Y-87287769D01*
X77531649Y-87287769D01*
X76798218Y-86911019D01*
X76684580Y-87083513D01*
X76646686Y-87139347D01*
X76454687Y-87380637D01*
X76234723Y-87596762D01*
X75989848Y-87785835D01*
X75723121Y-87945967D01*
X75437597Y-88075271D01*
X75136333Y-88171858D01*
X74822385Y-88233840D01*
X74746327Y-88241681D01*
X74601869Y-88247424D01*
X74440040Y-88245342D01*
X74273574Y-88235982D01*
X74115204Y-88219889D01*
X73977666Y-88197610D01*
X73908017Y-88182370D01*
X73604657Y-88092521D01*
X73319050Y-87969515D01*
X73053143Y-87815620D01*
X72808885Y-87633103D01*
X72588226Y-87424230D01*
X72393113Y-87191269D01*
X72225496Y-86936486D01*
X72087324Y-86662150D01*
X71980544Y-86370525D01*
X71907105Y-86063880D01*
X71868958Y-85744482D01*
X71866393Y-85568483D01*
X71884203Y-85328706D01*
X71923469Y-85084152D01*
X71981871Y-84848508D01*
X72057084Y-84635466D01*
X72113007Y-84502367D01*
X71973003Y-84432094D01*
X71937357Y-84414140D01*
X71850703Y-84370217D01*
X71740191Y-84313949D01*
X71609271Y-84247109D01*
X71461392Y-84171472D01*
X71300004Y-84088810D01*
X71128557Y-84000899D01*
X70950498Y-83909511D01*
X70769279Y-83816420D01*
X70680397Y-83770724D01*
X71149154Y-83770724D01*
X71154519Y-83775076D01*
X71190339Y-83795195D01*
X71254033Y-83829532D01*
X71341992Y-83876173D01*
X71450605Y-83933205D01*
X71576263Y-83998715D01*
X71715357Y-84070791D01*
X71881696Y-84157464D01*
X72039468Y-84241521D01*
X72164761Y-84310582D01*
X72256854Y-84364239D01*
X72315026Y-84402084D01*
X72338557Y-84423709D01*
X72342672Y-84437475D01*
X72340662Y-84475420D01*
X72322875Y-84532329D01*
X72287339Y-84615589D01*
X72197575Y-84839970D01*
X72129330Y-85085282D01*
X72089909Y-85341061D01*
X72077231Y-85617230D01*
X72077282Y-85634917D01*
X72094495Y-85929181D01*
X72143764Y-86206237D01*
X72226791Y-86473192D01*
X72345278Y-86737156D01*
X72409280Y-86852953D01*
X72577659Y-87101139D01*
X72774761Y-87325651D01*
X72997346Y-87524106D01*
X73242171Y-87694125D01*
X73505997Y-87833327D01*
X73785581Y-87939330D01*
X74077684Y-88009755D01*
X74188237Y-88024121D01*
X74337387Y-88034128D01*
X74499879Y-88037562D01*
X74662744Y-88034443D01*
X74813013Y-88024786D01*
X74937719Y-88008609D01*
X74955001Y-88005392D01*
X75157686Y-87955230D01*
X75369066Y-87882628D01*
X75577211Y-87792693D01*
X75770192Y-87690531D01*
X75936077Y-87581249D01*
X76061725Y-87479915D01*
X76263258Y-87285855D01*
X76444682Y-87071011D01*
X76596512Y-86845940D01*
X76608283Y-86826370D01*
X76650929Y-86760790D01*
X76688717Y-86710063D01*
X76714606Y-86683854D01*
X76716867Y-86682695D01*
X76733655Y-86680978D01*
X76761991Y-86687143D01*
X76805167Y-86702663D01*
X76866473Y-86729010D01*
X76949200Y-86767657D01*
X77056639Y-86820077D01*
X77192081Y-86887742D01*
X77358817Y-86972124D01*
X77487434Y-87037190D01*
X77615821Y-87101501D01*
X77727854Y-87156940D01*
X77819849Y-87201717D01*
X77888122Y-87234041D01*
X77928991Y-87252119D01*
X77938770Y-87254160D01*
X77934557Y-87250278D01*
X77900654Y-87220369D01*
X77848438Y-87175350D01*
X77787346Y-87123372D01*
X77718487Y-87060262D01*
X77584338Y-86909421D01*
X77459433Y-86733278D01*
X77349318Y-86541006D01*
X77259540Y-86341778D01*
X77195645Y-86144769D01*
X77179554Y-86071805D01*
X77161430Y-85953774D01*
X77147201Y-85809240D01*
X77136139Y-85631956D01*
X77135239Y-85614447D01*
X77125213Y-85464480D01*
X77111728Y-85319527D01*
X77095978Y-85190944D01*
X77079157Y-85090083D01*
X77077205Y-85080593D01*
X76994529Y-84775605D01*
X76877694Y-84487032D01*
X76728875Y-84217006D01*
X76550245Y-83967661D01*
X76343979Y-83741128D01*
X76112250Y-83539540D01*
X75857234Y-83365029D01*
X75581103Y-83219730D01*
X75286033Y-83105773D01*
X74974197Y-83025292D01*
X74866474Y-83008637D01*
X74697435Y-82994733D01*
X74513137Y-82990574D01*
X74326520Y-82996030D01*
X74150523Y-83010968D01*
X73998088Y-83035256D01*
X73825974Y-83076250D01*
X73605343Y-83145171D01*
X73394905Y-83232530D01*
X73183927Y-83342945D01*
X72961674Y-83481033D01*
X72896222Y-83523638D01*
X72709348Y-83634605D01*
X72534008Y-83719999D01*
X72448552Y-83751307D01*
X72360530Y-83783555D01*
X72179240Y-83829012D01*
X71980463Y-83860107D01*
X71811941Y-83870584D01*
X71589982Y-83860594D01*
X71364436Y-83826811D01*
X71149154Y-83770724D01*
X70680397Y-83770724D01*
X70642629Y-83751307D01*
X71080770Y-83751307D01*
X71090539Y-83761077D01*
X71100308Y-83751307D01*
X71090539Y-83741538D01*
X71080770Y-83751307D01*
X70642629Y-83751307D01*
X70588349Y-83723401D01*
X70411156Y-83632226D01*
X70241151Y-83544670D01*
X70081783Y-83462506D01*
X69936501Y-83387509D01*
X69808754Y-83321451D01*
X69701993Y-83266107D01*
X69619667Y-83223250D01*
X69565225Y-83194655D01*
X69542116Y-83182094D01*
X69512997Y-83153549D01*
X69496948Y-83104369D01*
X69504971Y-83054052D01*
X69534362Y-83014865D01*
X69582420Y-82999077D01*
X69599837Y-83003154D01*
X69651752Y-83019275D01*
X69733449Y-83046398D01*
X69841062Y-83083184D01*
X69970722Y-83128296D01*
X70118563Y-83180397D01*
X70280716Y-83238150D01*
X70453314Y-83300217D01*
X70573673Y-83343464D01*
X70747631Y-83405141D01*
X70912328Y-83462588D01*
X71063195Y-83514262D01*
X71195663Y-83558620D01*
X71305162Y-83594119D01*
X71387123Y-83619217D01*
X71436978Y-83632371D01*
X71466240Y-83637789D01*
X71565673Y-83650868D01*
X71678026Y-83659970D01*
X71784154Y-83663384D01*
X71995746Y-83652474D01*
X72203945Y-83616077D01*
X72405887Y-83551708D01*
X72609208Y-83456907D01*
X72821545Y-83329215D01*
X73028490Y-83199341D01*
X73251937Y-83077542D01*
X73471168Y-82979780D01*
X73695867Y-82901796D01*
X73935720Y-82839334D01*
X74005727Y-82824552D01*
X74082359Y-82811526D01*
X74160787Y-82802701D01*
X74250325Y-82797327D01*
X74360292Y-82794653D01*
X74500000Y-82793931D01*
X74538516Y-82794006D01*
X74706798Y-82796899D01*
X74849281Y-82805177D01*
X74976865Y-82820461D01*
X75100451Y-82844368D01*
X75230940Y-82878520D01*
X75379231Y-82924533D01*
X75448159Y-82948020D01*
X75748923Y-83074924D01*
X76031141Y-83234269D01*
X76292304Y-83423558D01*
X76529906Y-83640297D01*
X76741440Y-83881988D01*
X76924399Y-84146137D01*
X77076276Y-84430248D01*
X77194565Y-84731824D01*
X77207659Y-84772906D01*
X77248425Y-84916478D01*
X77279753Y-85058710D01*
X77303298Y-85209680D01*
X77320717Y-85379468D01*
X77333668Y-85578154D01*
X77334447Y-85592932D01*
X77345648Y-85766301D01*
X77359846Y-85909422D01*
X77378577Y-86030469D01*
X77403377Y-86137622D01*
X77435782Y-86239057D01*
X77477327Y-86342952D01*
X77488101Y-86367672D01*
X77534643Y-86468810D01*
X77582366Y-86560580D01*
X77634154Y-86645745D01*
X77692894Y-86727072D01*
X77761472Y-86807325D01*
X77842773Y-86889269D01*
X77939683Y-86975669D01*
X78055089Y-87069290D01*
X78191876Y-87172897D01*
X78304354Y-87254160D01*
X78350873Y-87287769D01*
X78352931Y-87289256D01*
G37*
G36*
X73073866Y-85155101D02*
G01*
X73113145Y-85178068D01*
X73124293Y-85200257D01*
X73127981Y-85236567D01*
X73124105Y-85294998D01*
X73112643Y-85383654D01*
X73108990Y-85411220D01*
X73097087Y-85574265D01*
X73099814Y-85733789D01*
X73100899Y-85749408D01*
X73105092Y-85831411D01*
X73103664Y-85884644D01*
X73095807Y-85917799D01*
X73080714Y-85939572D01*
X73064246Y-85952679D01*
X73011870Y-85966263D01*
X72959631Y-85949248D01*
X72920941Y-85904573D01*
X72913447Y-85884409D01*
X72900595Y-85815081D01*
X72894087Y-85722313D01*
X72893436Y-85615021D01*
X72898155Y-85502120D01*
X72907755Y-85392526D01*
X72921750Y-85295152D01*
X72939651Y-85218916D01*
X72960972Y-85172730D01*
X72974462Y-85161588D01*
X73021120Y-85149379D01*
X73073866Y-85155101D01*
G37*
G36*
X70643328Y-87272243D02*
G01*
X70585532Y-87392229D01*
X70494534Y-87500877D01*
X70465133Y-87527666D01*
X70393702Y-87583270D01*
X70321452Y-87621004D01*
X70230846Y-87650842D01*
X70155915Y-87661379D01*
X70051838Y-87656755D01*
X69945090Y-87636110D01*
X69852248Y-87601601D01*
X69801201Y-87572437D01*
X69693738Y-87483072D01*
X69614450Y-87374407D01*
X69563899Y-87252380D01*
X69545384Y-87139590D01*
X69744778Y-87139590D01*
X69776220Y-87244522D01*
X69835949Y-87336979D01*
X69919738Y-87406916D01*
X69964763Y-87428391D01*
X70071429Y-87452146D01*
X70183020Y-87447242D01*
X70284625Y-87413414D01*
X70334960Y-87379784D01*
X70405658Y-87300396D01*
X70452156Y-87202914D01*
X70470228Y-87097676D01*
X70455647Y-86995020D01*
X70438832Y-86954786D01*
X70386027Y-86873384D01*
X70317923Y-86803051D01*
X70246433Y-86757320D01*
X70174850Y-86736614D01*
X70066722Y-86735378D01*
X69962620Y-86765681D01*
X69870245Y-86823639D01*
X69797296Y-86905369D01*
X69751475Y-87006985D01*
X69745848Y-87032227D01*
X69744778Y-87139590D01*
X69545384Y-87139590D01*
X69542649Y-87122926D01*
X69551263Y-86991984D01*
X69590304Y-86865491D01*
X69660337Y-86749382D01*
X69761923Y-86649596D01*
X69802434Y-86620783D01*
X69908772Y-86566609D01*
X70024572Y-86540721D01*
X70161245Y-86539986D01*
X70272298Y-86558946D01*
X70395567Y-86610275D01*
X70498471Y-86687271D01*
X70579175Y-86784649D01*
X70635847Y-86897122D01*
X70666652Y-87019403D01*
X70668569Y-87097676D01*
X70669757Y-87146205D01*
X70643328Y-87272243D01*
G37*
G36*
X75610299Y-86585087D02*
G01*
X75652645Y-86612261D01*
X75677671Y-86651629D01*
X75678222Y-86676999D01*
X75651298Y-86734128D01*
X75588667Y-86805261D01*
X75490662Y-86889973D01*
X75423862Y-86938381D01*
X75374721Y-86960717D01*
X75335494Y-86958310D01*
X75297731Y-86933048D01*
X75289351Y-86924917D01*
X75267272Y-86889297D01*
X75268285Y-86849318D01*
X75294552Y-86801961D01*
X75348231Y-86744208D01*
X75431483Y-86673041D01*
X75546467Y-86585441D01*
X75566110Y-86577915D01*
X75610299Y-86585087D01*
G37*
G36*
X79100847Y-86283062D02*
G01*
X79013140Y-86385510D01*
X78965165Y-86424815D01*
X78903287Y-86466785D01*
X78853706Y-86491206D01*
X78837831Y-86495984D01*
X78708960Y-86513471D01*
X78584281Y-86495098D01*
X78470201Y-86443626D01*
X78373128Y-86361814D01*
X78299469Y-86252423D01*
X78265067Y-86158994D01*
X78251305Y-86042515D01*
X78446770Y-86042515D01*
X78460621Y-86116928D01*
X78499653Y-86196675D01*
X78554498Y-86258719D01*
X78598605Y-86282579D01*
X78678517Y-86299458D01*
X78764364Y-86296128D01*
X78839624Y-86271829D01*
X78879364Y-86243268D01*
X78931383Y-86173581D01*
X78958729Y-86088777D01*
X78958466Y-86000573D01*
X78927657Y-85920684D01*
X78920622Y-85910620D01*
X78860118Y-85851597D01*
X78784720Y-85809349D01*
X78710234Y-85793150D01*
X78662121Y-85798915D01*
X78581507Y-85833214D01*
X78512698Y-85890968D01*
X78464763Y-85963596D01*
X78446770Y-86042515D01*
X78251305Y-86042515D01*
X78250399Y-86034844D01*
X78269253Y-85915268D01*
X78321216Y-85808678D01*
X78357337Y-85761395D01*
X78449076Y-85675218D01*
X78553996Y-85622958D01*
X78677978Y-85601194D01*
X78710580Y-85600146D01*
X78845042Y-85615756D01*
X78958895Y-85664508D01*
X79051807Y-85746208D01*
X79123448Y-85860663D01*
X79146031Y-85917878D01*
X79168242Y-86044730D01*
X79162746Y-86088777D01*
X79152865Y-86167963D01*
X79100847Y-86283062D01*
G37*
G36*
X71039541Y-84064431D02*
G01*
X71080179Y-84078372D01*
X71138357Y-84104292D01*
X71219746Y-84144282D01*
X71330016Y-84200434D01*
X71402802Y-84238572D01*
X71499052Y-84291745D01*
X71578321Y-84338844D01*
X71634544Y-84376217D01*
X71661660Y-84400212D01*
X71675628Y-84424030D01*
X71679509Y-84454788D01*
X71658951Y-84493769D01*
X71627675Y-84526008D01*
X71583435Y-84542071D01*
X71560845Y-84536095D01*
X71507012Y-84514131D01*
X71430737Y-84478907D01*
X71338575Y-84433472D01*
X71237077Y-84380878D01*
X71139342Y-84328785D01*
X71056609Y-84283451D01*
X70999386Y-84249502D01*
X70962799Y-84223403D01*
X70941975Y-84201621D01*
X70932039Y-84180621D01*
X70928119Y-84156871D01*
X70926786Y-84129864D01*
X70937805Y-84093800D01*
X70974838Y-84069440D01*
X70988203Y-84064121D01*
X71010772Y-84060378D01*
X71039541Y-84064431D01*
G37*
G36*
X73858694Y-86879607D02*
G01*
X73955868Y-86916210D01*
X74081237Y-86965688D01*
X74231731Y-87002468D01*
X74398665Y-87019478D01*
X74591473Y-87018231D01*
X74682627Y-87014492D01*
X74759765Y-87013424D01*
X74810668Y-87016406D01*
X74842212Y-87023902D01*
X74861274Y-87036372D01*
X74880348Y-87062817D01*
X74888181Y-87117330D01*
X74860834Y-87168375D01*
X74855188Y-87173673D01*
X74831165Y-87189228D01*
X74794127Y-87201752D01*
X74735457Y-87213609D01*
X74646539Y-87227162D01*
X74576346Y-87233270D01*
X74435796Y-87230263D01*
X74279881Y-87212057D01*
X74120625Y-87180741D01*
X73970056Y-87138403D01*
X73840200Y-87087132D01*
X73809365Y-87071984D01*
X73758186Y-87041600D01*
X73731867Y-87013143D01*
X73721935Y-86978857D01*
X73721178Y-86939942D01*
X73740765Y-86891629D01*
X73786798Y-86871465D01*
X73858694Y-86879607D01*
G37*
G36*
X72324635Y-84066591D02*
G01*
X72366418Y-84082170D01*
X72432113Y-84114152D01*
X72434670Y-84115441D01*
X72497913Y-84149356D01*
X72546564Y-84179086D01*
X72570278Y-84198327D01*
X72577100Y-84210959D01*
X72582284Y-84265714D01*
X72554528Y-84316527D01*
X72530311Y-84333926D01*
X72485365Y-84347230D01*
X72475488Y-84346373D01*
X72424730Y-84331460D01*
X72360292Y-84303256D01*
X72296628Y-84268633D01*
X72248193Y-84234464D01*
X72243911Y-84230490D01*
X72216699Y-84180785D01*
X72222819Y-84127175D01*
X72261152Y-84082775D01*
X72270443Y-84076865D01*
X72296173Y-84065470D01*
X72324635Y-84066591D01*
G37*
G36*
X74823596Y-82475650D02*
G01*
X75156754Y-82527067D01*
X75482602Y-82613638D01*
X75797586Y-82735209D01*
X76098151Y-82891630D01*
X76136902Y-82914879D01*
X76245210Y-82983300D01*
X76321675Y-83039066D01*
X76368986Y-83085289D01*
X76389833Y-83125080D01*
X76386906Y-83161549D01*
X76362895Y-83197807D01*
X76353578Y-83207436D01*
X76325585Y-83226028D01*
X76291650Y-83228782D01*
X76245315Y-83213973D01*
X76180121Y-83179874D01*
X76089608Y-83124758D01*
X75972812Y-83054572D01*
X75698862Y-82915441D01*
X75412403Y-82805990D01*
X75103358Y-82722103D01*
X75069588Y-82714712D01*
X74996467Y-82700499D01*
X74925656Y-82690268D01*
X74848879Y-82683394D01*
X74757861Y-82679255D01*
X74644327Y-82677229D01*
X74500000Y-82676692D01*
X74434424Y-82676778D01*
X74304183Y-82677871D01*
X74201221Y-82680719D01*
X74117261Y-82685943D01*
X74044028Y-82694166D01*
X73973247Y-82706012D01*
X73896643Y-82722103D01*
X73877508Y-82726453D01*
X73550320Y-82821131D01*
X73227500Y-82952489D01*
X72914594Y-83118288D01*
X72859013Y-83142430D01*
X72796983Y-83146876D01*
X72750250Y-83125858D01*
X72725812Y-83083039D01*
X72730670Y-83022079D01*
X72731821Y-83019145D01*
X72760669Y-82986647D01*
X72820591Y-82942255D01*
X72907116Y-82888756D01*
X73015768Y-82828941D01*
X73142077Y-82765597D01*
X73172570Y-82751162D01*
X73488959Y-82624542D01*
X73815810Y-82533832D01*
X74149570Y-82478881D01*
X74486684Y-82459538D01*
X74823596Y-82475650D01*
G37*
G36*
X73080846Y-84464472D02*
G01*
X73108235Y-84473876D01*
X73166190Y-84499528D01*
X73250875Y-84539459D01*
X73358452Y-84591696D01*
X73485086Y-84654270D01*
X73626939Y-84725211D01*
X73780173Y-84802546D01*
X73940953Y-84884307D01*
X74105442Y-84968522D01*
X74269802Y-85053220D01*
X74430196Y-85136432D01*
X74582789Y-85216186D01*
X74723742Y-85290512D01*
X74849220Y-85357439D01*
X74955384Y-85414997D01*
X75038399Y-85461215D01*
X75094428Y-85494123D01*
X75119633Y-85511750D01*
X75146177Y-85552286D01*
X75147062Y-85603410D01*
X75108997Y-85651423D01*
X75089297Y-85664589D01*
X75057997Y-85675590D01*
X75043350Y-85669645D01*
X74996405Y-85647388D01*
X74920441Y-85610122D01*
X74818596Y-85559423D01*
X74694011Y-85496871D01*
X74549826Y-85424042D01*
X74389182Y-85342514D01*
X74215219Y-85253865D01*
X74031077Y-85159672D01*
X73950373Y-85118303D01*
X73738580Y-85009525D01*
X73558491Y-84916456D01*
X73407780Y-84837611D01*
X73284117Y-84771507D01*
X73185173Y-84716657D01*
X73108620Y-84671577D01*
X73052130Y-84634783D01*
X73013373Y-84604790D01*
X72990022Y-84580113D01*
X72979748Y-84559268D01*
X72980222Y-84540769D01*
X72989115Y-84523132D01*
X73004100Y-84504873D01*
X73038026Y-84478303D01*
X73080496Y-84464461D01*
X73080846Y-84464472D01*
G37*
G36*
X72852140Y-84326417D02*
G01*
X72866617Y-84335836D01*
X72916006Y-84384821D01*
X72929735Y-84436100D01*
X72906349Y-84485400D01*
X72861848Y-84516181D01*
X72801380Y-84517369D01*
X72726229Y-84483815D01*
X72707650Y-84471920D01*
X72661344Y-84430043D01*
X72650121Y-84387426D01*
X72671456Y-84337310D01*
X72673314Y-84334541D01*
X72718377Y-84296359D01*
X72777562Y-84293677D01*
X72852140Y-84326417D01*
G37*
G36*
X73583323Y-83641929D02*
G01*
X73621187Y-83673656D01*
X73638985Y-83712234D01*
X73626079Y-83760747D01*
X73576378Y-83814407D01*
X73489104Y-83874394D01*
X73411934Y-83922569D01*
X73324019Y-83981027D01*
X73250243Y-84033545D01*
X73192807Y-84072535D01*
X73144852Y-84097662D01*
X73116760Y-84103486D01*
X73105318Y-84099536D01*
X73075231Y-84093230D01*
X73061895Y-84086076D01*
X73042669Y-84053498D01*
X73030868Y-84009847D01*
X73032516Y-83972195D01*
X73046672Y-83950791D01*
X73090111Y-83907779D01*
X73154492Y-83854530D01*
X73232454Y-83796704D01*
X73316631Y-83739961D01*
X73399661Y-83689962D01*
X73476010Y-83651701D01*
X73537356Y-83634432D01*
X73583323Y-83641929D01*
G37*
G36*
X76622489Y-83296994D02*
G01*
X76648514Y-83309637D01*
X76683844Y-83338547D01*
X76734267Y-83387822D01*
X76805573Y-83461559D01*
X76885362Y-83548914D01*
X77066608Y-83779258D01*
X77230551Y-84032755D01*
X77370708Y-84298792D01*
X77480596Y-84566755D01*
X77498936Y-84620107D01*
X77516166Y-84676915D01*
X77521592Y-84713666D01*
X77516240Y-84740367D01*
X77501137Y-84767024D01*
X77471668Y-84799412D01*
X77421752Y-84814747D01*
X77366981Y-84791730D01*
X77363462Y-84788513D01*
X77340145Y-84753035D01*
X77311474Y-84693463D01*
X77282851Y-84620769D01*
X77280211Y-84613353D01*
X77170568Y-84347836D01*
X77035303Y-84096511D01*
X76870144Y-83852308D01*
X76670818Y-83608154D01*
X76646060Y-83580042D01*
X76581634Y-83505054D01*
X76539410Y-83451438D01*
X76515843Y-83413816D01*
X76507385Y-83386809D01*
X76510488Y-83365036D01*
X76535317Y-83330749D01*
X76580473Y-83302201D01*
X76599981Y-83296520D01*
X76622489Y-83296994D01*
G37*
G36*
X76585126Y-85031782D02*
G01*
X76629684Y-85062893D01*
X76656429Y-85103825D01*
X76663811Y-85131526D01*
X76681561Y-85222928D01*
X76695139Y-85329662D01*
X76704332Y-85444015D01*
X76708931Y-85558272D01*
X76708722Y-85664720D01*
X76703496Y-85755645D01*
X76693040Y-85823331D01*
X76677143Y-85860066D01*
X76636451Y-85884023D01*
X76581417Y-85888543D01*
X76535908Y-85867323D01*
X76534090Y-85865156D01*
X76522258Y-85826862D01*
X76514957Y-85752668D01*
X76512462Y-85645190D01*
X76512066Y-85610492D01*
X76506723Y-85494973D01*
X76496448Y-85376887D01*
X76482910Y-85277039D01*
X76474285Y-85223788D01*
X76465769Y-85138611D01*
X76470584Y-85081093D01*
X76489789Y-85044766D01*
X76524441Y-85023163D01*
X76538899Y-85020361D01*
X76585126Y-85031782D01*
G37*
G36*
X72688478Y-87690227D02*
G01*
X72733565Y-87709669D01*
X72795332Y-87745595D01*
X72863843Y-87792459D01*
X72878517Y-87803198D01*
X73156298Y-87982855D01*
X73445621Y-88125583D01*
X73748990Y-88232448D01*
X74068907Y-88304510D01*
X74183064Y-88318270D01*
X74326327Y-88326690D01*
X74484233Y-88329331D01*
X74646095Y-88326394D01*
X74801230Y-88318079D01*
X74938950Y-88304587D01*
X75048572Y-88286118D01*
X75159565Y-88258770D01*
X75472059Y-88157452D01*
X75765598Y-88025279D01*
X76035439Y-87864279D01*
X76040425Y-87860893D01*
X76133110Y-87803611D01*
X76203400Y-87773494D01*
X76255503Y-87769330D01*
X76293631Y-87789907D01*
X76313076Y-87817157D01*
X76316507Y-87862144D01*
X76288484Y-87914063D01*
X76227668Y-87974463D01*
X76132723Y-88044891D01*
X76002308Y-88126896D01*
X75896643Y-88186155D01*
X75643456Y-88305018D01*
X75372786Y-88404186D01*
X75097514Y-88479275D01*
X74830521Y-88525898D01*
X74611251Y-88540971D01*
X74350909Y-88535496D01*
X74084091Y-88508051D01*
X73823374Y-88459976D01*
X73581336Y-88392616D01*
X73452914Y-88345416D01*
X73271092Y-88266354D01*
X73090076Y-88175014D01*
X72919213Y-88076530D01*
X72767850Y-87976033D01*
X72645336Y-87878657D01*
X72614308Y-87844492D01*
X72588438Y-87788406D01*
X72591217Y-87738238D01*
X72621278Y-87702150D01*
X72677251Y-87688307D01*
X72688478Y-87690227D01*
G37*
%TD*%
M02*
