0
SECTION
2
HEADER
9
$INSUNITS
70
4
9
$ACADVER
1
AC1014
9
$HANDSEED
5
FFFF
0
ENDSEC
0
SECTION
2
TABLES
0
TABLE
2
VPORT
5
8
100
AcDbSymbolTable
0
ENDTAB
0
TABLE
2
LTYPE
5
5
100
AcDbSymbolTable
0
LTYPE
5
14
100
AcDbSymbolTableRecord
100
AcDbLinetypeTableRecord
2
BYBLOCK
70
0
0
LTYPE
5
15
100
AcDbSymbolTableRecord
100
AcDbLinetypeTableRecord
2
BYLAYER
70
0
0
ENDTAB
0
TABLE
2
LAYER
5
2
100
AcDbSymbolTable
70
2
0
LAYER
5
50
100
AcDbSymbolTableRecord
100
AcDbLayerTableRecord
2
0
70
0
6
CONTINUOUS
0
ENDTAB
0
TABLE
2
STYLE
5
3
100
AcDbSymbolTable
70
1
0
STYLE
5
11
100
AcDbSymbolTableRecord
100
AcDbTextStyleTableRecord
2
STANDARD
70
0
0
ENDTAB
0
TABLE
2
VIEW
5
6
100
AcDbSymbolTable
70
0
0
ENDTAB
0
TABLE
2
UCS
5
7
100
AcDbSymbolTable
70
0
0
ENDTAB
0
TABLE
2
APPID
5
9
100
AcDbSymbolTable
70
2
0
APPID
5
12
100
AcDbSymbolTableRecord
100
AcDbRegAppTableRecord
2
ACAD
70
0
0
ENDTAB
0
TABLE
2
DIMSTYLE
5
A
100
AcDbSymbolTable
70
1
0
ENDTAB
0
TABLE
2
BLOCK_RECORD
5
1
100
AcDbSymbolTable
70
1
0
BLOCK_RECORD
5
1F
100
AcDbSymbolTableRecord
100
AcDbBlockTableRecord
2
*MODEL_SPACE
0
BLOCK_RECORD
5
1B
100
AcDbSymbolTableRecord
100
AcDbBlockTableRecord
2
*PAPER_SPACE
0
ENDTAB
0
ENDSEC
0
SECTION
2
BLOCKS
0
BLOCK
5
20
100
AcDbEntity
100
AcDbBlockBegin
2
*MODEL_SPACE
0
ENDBLK
5
21
100
AcDbEntity
100
AcDbBlockEnd
0
BLOCK
5
1C
100
AcDbEntity
100
AcDbBlockBegin
2
*PAPER_SPACE
0
ENDBLK
5
1D
100
AcDbEntity
100
AcDbBlockEnd
0
ENDSEC
0
SECTION
2
ENTITIES
0
LWPOLYLINE
5
100
100
AcDbEntity
8
0
100
AcDbPolyline
90
8
70
1
43
0.0
10
317.99989019772727
20
26.106006530112126
42
-0.41421356237309637
10
315.99989019772727
20
24.106006530112122
10
9.999890197727284
20
24.106006530112126
42
-0.41421356237309337
10
7.9998901977272912
20
26.106006530112133
10
7.9998901977272929
20
40.106006530112133
42
-0.41421356237309243
10
9.9998901977272681
20
42.106006530112126
10
315.99989019772727
20
42.106006530112133
42
-0.41421356237309637
10
317.99989019772727
20
40.106006530112133
0
LWPOLYLINE
5
101
100
AcDbEntity
8
0
100
AcDbPolyline
90
4
70
1
43
0.0
10
262.99989019772727
20
37.003120847142142
10
268.73604262043398
20
33.691351701779709
10
268.73604262043398
20
36.289427913133025
10
262.99989019772727
20
39.601197058495458
0
LWPOLYLINE
5
102
100
AcDbEntity
8
0
100
AcDbPolyline
90
4
70
1
43
0.0
10
257.26373777502056
20
37.716813781151195
10
257.26373777502056
20
35.118737569797865
10
268.73604262043392
20
28.495199279073038
10
268.73604262043392
20
31.093275490426361
0
LWPOLYLINE
5
103
100
AcDbEntity
8
0
100
AcDbPolyline
90
4
70
1
43
0.0
10
257.26373777502056
20
32.520661358444556
10
257.26373777502056
20
29.922585147091233
10
262.99989019772727
20
26.610816001728807
10
262.99989019772727
20
29.208892213082116
0
CIRCLE
5
104
100
AcDbEntity
8
0
100
AcDbCircle
10
82.999890197727311
20
33.106006530112133
30
-1.7763568394002505e-14
40
1.7000000000031372
210
1.2621774482090836e-29
220
5.0860193989384275e-56
230
1
0
CIRCLE
5
105
100
AcDbEntity
8
0
100
AcDbCircle
10
122.99989019772731
20
33.106006530112133
30
-1.7763568394002505e-14
40
1.7000000000031417
210
-1.2621774484981541e-29
220
5.0487097934144756e-29
230
1
0
CIRCLE
5
106
100
AcDbEntity
8
0
100
AcDbCircle
10
202.99989019772727
20
33.106006530112133
30
0
40
1.7000000000031501
210
-1.4453524534918922e-39
220
-5.8241340210867749e-66
230
1
0
CIRCLE
5
107
100
AcDbEntity
8
0
100
AcDbCircle
10
242.99989019772727
20
33.106006530112133
30
0
40
1.7000000000031543
210
-1.445352453491891e-39
220
-5.0487097934144756e-29
230
1
0
CIRCLE
5
108
100
AcDbEntity
8
0
100
AcDbCircle
10
282.99989019772727
20
33.106006530112133
30
-1.7763568394002505e-14
40
1.7000000000031288
210
-1.2621774484981544e-29
220
5.0487097934144767e-29
230
1
0
CIRCLE
5
109
100
AcDbEntity
8
0
100
AcDbCircle
10
162.99989019772727
20
33.106006530112133
30
0
40
1.7000000000031457
210
-1.4453524534918889e-39
220
5.0487097934144767e-29
230
1
0
CIRCLE
5
110
100
AcDbEntity
8
0
100
AcDbCircle
10
34.999890197727296
20
33.106006530112133
30
0
40
1
210
-1.2621774483536189e-29
220
-0
230
1
0
CIRCLE
5
111
100
AcDbEntity
8
0
100
AcDbCircle
10
26.999890197727296
20
38.106006530112133
30
0
40
1
210
-1.2621774483536189e-29
220
-0
230
1
0
CIRCLE
5
112
100
AcDbEntity
8
0
100
AcDbCircle
10
26.999890197727296
20
28.106006530112133
30
1.7763568394002505e-14
40
1
210
-1.2621774483536189e-29
220
-0
230
1
0
CIRCLE
5
113
100
AcDbEntity
8
0
100
AcDbCircle
10
42.999890197727311
20
33.106006530112133
30
-1.7763568394002505e-14
40
1.700000000002867
210
-1.4453524534918917e-39
220
-5.8241340210867728e-66
230
1
0
ENDSEC
0
SECTION
2
OBJECTS
0
DICTIONARY
5
C
100
AcDbDictionary
3
ACAD_GROUP
350
D
3
ACAD_MLINESTYLE
350
17
0
DICTIONARY
5
D
100
AcDbDictionary
0
DICTIONARY
5
1A
330
C
100
AcDbDictionary
0
DICTIONARY
5
17
100
AcDbDictionary
0
ENDSEC
0
EOF
