0
SECTION
2
HEADER
9
$INSUNITS
70
4
9
$ACADVER
1
AC1014
9
$HANDSEED
5
FFFF
0
ENDSEC
0
SECTION
2
TABLES
0
TABLE
2
VPORT
5
8
100
AcDbSymbolTable
0
ENDTAB
0
TABLE
2
LTYPE
5
5
100
AcDbSymbolTable
0
LTYPE
5
14
100
AcDbSymbolTableRecord
100
AcDbLinetypeTableRecord
2
BYBLOCK
70
0
0
LTYPE
5
15
100
AcDbSymbolTableRecord
100
AcDbLinetypeTableRecord
2
BYLAYER
70
0
0
ENDTAB
0
TABLE
2
LAYER
5
2
100
AcDbSymbolTable
70
2
0
LAYER
5
50
100
AcDbSymbolTableRecord
100
AcDbLayerTableRecord
2
0
70
0
6
CONTINUOUS
0
ENDTAB
0
TABLE
2
STYLE
5
3
100
AcDbSymbolTable
70
1
0
STYLE
5
11
100
AcDbSymbolTableRecord
100
AcDbTextStyleTableRecord
2
STANDARD
70
0
0
ENDTAB
0
TABLE
2
VIEW
5
6
100
AcDbSymbolTable
70
0
0
ENDTAB
0
TABLE
2
UCS
5
7
100
AcDbSymbolTable
70
0
0
ENDTAB
0
TABLE
2
APPID
5
9
100
AcDbSymbolTable
70
2
0
APPID
5
12
100
AcDbSymbolTableRecord
100
AcDbRegAppTableRecord
2
ACAD
70
0
0
ENDTAB
0
TABLE
2
DIMSTYLE
5
A
100
AcDbSymbolTable
70
1
0
ENDTAB
0
TABLE
2
BLOCK_RECORD
5
1
100
AcDbSymbolTable
70
1
0
BLOCK_RECORD
5
1F
100
AcDbSymbolTableRecord
100
AcDbBlockTableRecord
2
*MODEL_SPACE
0
BLOCK_RECORD
5
1B
100
AcDbSymbolTableRecord
100
AcDbBlockTableRecord
2
*PAPER_SPACE
0
ENDTAB
0
ENDSEC
0
SECTION
2
BLOCKS
0
BLOCK
5
20
100
AcDbEntity
100
AcDbBlockBegin
2
*MODEL_SPACE
0
ENDBLK
5
21
100
AcDbEntity
100
AcDbBlockEnd
0
BLOCK
5
1C
100
AcDbEntity
100
AcDbBlockBegin
2
*PAPER_SPACE
0
ENDBLK
5
1D
100
AcDbEntity
100
AcDbBlockEnd
0
ENDSEC
0
SECTION
2
ENTITIES
0
CIRCLE
5
100
100
AcDbEntity
8
0
100
AcDbCircle
10
25.999890693744057
20
33.106006505618019
30
0
40
1.0000000000031535
210
-1.2621774484981544e-29
220
5.0487097934144767e-29
230
1
0
CIRCLE
5
101
100
AcDbEntity
8
0
100
AcDbCircle
10
9.9998906937440388
20
28.106006505618019
30
0
40
1.0000000000031584
210
-1.4453524535447564e-39
220
-2.5808436461806826e-62
230
1
0
CIRCLE
5
102
100
AcDbEntity
8
0
100
AcDbCircle
10
9.9998906937440388
20
38.106006505618019
30
-1.7763568394002505e-14
40
1.000000000003169
210
-1.4453524535447574e-39
220
-2.5808436461806843e-62
230
1
0
LWPOLYLINE
5
103
100
AcDbEntity
8
0
100
AcDbPolyline
90
8
70
1
43
0.0
10
332.99989069374413
20
26.106006505618005
42
-0.41421356237310542
10
330.99989069374402
20
24.106006505618005
10
-5.0001093062559416
20
24.106006505618019
42
-0.41421356237309243
10
-7.0001093062559345
20
26.106006505618019
10
-7.0001093062559328
20
40.106006505618019
42
-0.41421356237308726
10
-5.0001093062559931
20
42.106006505618012
10
330.99989069374402
20
42.106006505618026
42
-0.41421356237309243
10
332.99989069374408
20
40.106006505618019
0
LWPOLYLINE
5
104
100
AcDbEntity
8
0
100
AcDbPolyline
90
4
70
1
43
0.0
10
262.99989069374408
20
37.003120822648022
10
268.73604311645073
20
33.691351677285589
10
268.73604311645073
20
36.289427888638912
10
262.99989069374408
20
39.601197034001345
0
LWPOLYLINE
5
105
100
AcDbEntity
8
0
100
AcDbPolyline
90
4
70
1
43
0.0
10
257.26373827103737
20
37.716813756657075
10
257.26373827103737
20
35.118737545303745
10
268.73604311645067
20
28.495199254578921
10
268.73604311645067
20
31.093275465932244
0
LWPOLYLINE
5
106
100
AcDbEntity
8
0
100
AcDbPolyline
90
4
70
1
43
0.0
10
257.26373827103737
20
32.520661333950436
10
257.26373827103737
20
29.922585122597116
10
262.99989069374408
20
26.610815977234687
10
262.99989069374408
20
29.208892188587999
0
CIRCLE
5
107
100
AcDbEntity
8
0
100
AcDbCircle
10
82.999890693744078
20
33.106006505618019
30
-1.7763568394002505e-14
40
1.7000000000031372
210
-1.4453524535447582e-39
220
-2.580843646180686e-62
230
1
0
CIRCLE
5
108
100
AcDbEntity
8
0
100
AcDbCircle
10
122.99989069374408
20
33.106006505618019
30
-1.7763568394002505e-14
40
1.7000000000031417
210
-1.4453524535447546e-39
220
-2.5808436461806795e-62
230
1
0
CIRCLE
5
109
100
AcDbEntity
8
0
100
AcDbCircle
10
202.99989069374405
20
33.106006505618019
30
0
40
1.7000000000031501
210
-1.4453524535447569e-39
220
-2.5808436461806834e-62
230
1
0
CIRCLE
5
110
100
AcDbEntity
8
0
100
AcDbCircle
10
242.99989069374405
20
33.106006505618019
30
0
40
1.7000000000031543
210
1.2621774482090836e-29
220
-5.0487097934144756e-29
230
1
0
CIRCLE
5
111
100
AcDbEntity
8
0
100
AcDbCircle
10
282.99989069374408
20
33.106006505618019
30
-1.7763568394002505e-14
40
1.7000000000031288
210
-1.2621774484981544e-29
220
5.0487097934144767e-29
230
1
0
CIRCLE
5
112
100
AcDbEntity
8
0
100
AcDbCircle
10
162.99989069374405
20
33.106006505618019
30
0
40
1.7000000000031457
210
-1.2621774484981544e-29
220
5.0487097934144767e-29
230
1
0
CIRCLE
5
113
100
AcDbEntity
8
0
100
AcDbCircle
10
42.999890693744085
20
33.106006505618019
30
-1.7763568394002505e-14
40
1.70000000000269
210
-1.4453524535447564e-39
220
-2.5808436461806826e-62
230
1
0
CIRCLE
5
114
100
AcDbEntity
8
0
100
AcDbCircle
10
17.999890693744042
20
33.106006505618019
30
-1.7763568394002505e-14
40
1.000000000003143
210
-1.2621774484981541e-29
220
5.0487097934144756e-29
230
1
0
CIRCLE
5
115
100
AcDbEntity
8
0
100
AcDbCircle
10
2.9998906937440797
20
33.106006505618019
30
0
40
1.7000000000031585
210
-1.4453524535447569e-39
220
-2.5808436461806834e-62
230
1
0
CIRCLE
5
116
100
AcDbEntity
8
0
100
AcDbCircle
10
322.99989069374408
20
33.106006505618019
30
-1.7763568394002505e-14
40
1.7000000000031334
210
1.2621774482090836e-29
220
-5.0487097934144756e-29
230
1
0
ENDSEC
0
SECTION
2
OBJECTS
0
DICTIONARY
5
C
100
AcDbDictionary
3
ACAD_GROUP
350
D
3
ACAD_MLINESTYLE
350
17
0
DICTIONARY
5
D
100
AcDbDictionary
0
DICTIONARY
5
1A
330
C
100
AcDbDictionary
0
DICTIONARY
5
17
100
AcDbDictionary
0
ENDSEC
0
EOF
