999
"DXF R12 Output" (www.mydxf.blogspot.com)
 0 
SECTION
 2 
HEADER
 9 
$ACADVER
 1 
AC1009
 9 
$EXTMIN
 10 
 0 
 20 
 0 
 9 
$EXTMAX
 10 
 8.5 
 20 
 11 
 0 
ENDSEC
 0 
SECTION
 2 
ENTITIES
0
LINE
8
Layer 1
10
53.313800
20
45.538600
11
53.231069
21
45.959521
0
LINE
8
Layer 1
10
53.231069
20
45.959521
11
52.913787
21
46.257165
0
LINE
8
Layer 1
10
52.913787
20
46.257165
11
27.022200
21
61.172400
0
LINE
8
Layer 1
10
27.022200
20
61.172400
11
26.650553
21
61.292366
0
LINE
8
Layer 1
10
26.650553
20
61.292366
11
26.278906
21
61.172400
0
LINE
8
Layer 1
10
26.278906
20
61.172400
11
0.403272
21
46.258600
0
LINE
8
Layer 1
10
0.403272
20
46.258600
11
0.084172
21
45.961138
0
LINE
8
Layer 1
10
0.084172
20
45.961138
11
0.001806
21
45.541489
0
LINE
8
Layer 1
10
0.001806
20
45.541489
11
0.009079
21
30.633389
0
LINE
8
Layer 1
10
0.009079
20
30.633389
11
-0.004012
21
15.725289
0
LINE
8
Layer 1
10
-0.004012
20
15.725289
11
0.077674
21
15.322684
0
LINE
8
Layer 1
10
0.077674
20
15.322684
11
0.379999
21
15.044541
0
LINE
8
Layer 1
10
0.379999
20
15.044541
11
26.262900
21
0.123475
0
LINE
8
Layer 1
10
26.262900
20
0.123475
11
26.654184
21
-0.001853
0
LINE
8
Layer 1
10
26.654184
20
-0.001853
11
27.045468
21
0.123475
0
LINE
8
Layer 1
10
27.045468
20
0.123475
11
52.937068
21
15.044575
0
LINE
8
Layer 1
10
52.937068
20
15.044575
11
53.238349
21
15.322448
0
LINE
8
Layer 1
10
53.238349
20
15.322448
11
53.321079
21
15.723869
0
LINE
8
Layer 1
10
53.321079
20
15.723869
11
53.313798
21
45.538469
0
LINE
8
Layer 1
10
53.313798
20
45.538469
11
53.313800
21
45.538600
0
LINE
8
Layer 1
10
7.922030
20
30.653800
11
7.989123
21
30.927445
0
LINE
8
Layer 1
10
7.989123
20
30.927445
11
8.135854
21
31.127995
0
LINE
8
Layer 1
10
8.135854
20
31.127995
11
18.559400
21
46.983000
0
LINE
8
Layer 1
10
18.559400
20
46.983000
11
18.868511
21
47.289435
0
LINE
8
Layer 1
10
18.868511
20
47.289435
11
19.295421
21
47.374284
0
LINE
8
Layer 1
10
19.295421
20
47.374284
11
26.322521
21
47.365555
0
LINE
8
Layer 1
10
26.322521
20
47.365555
11
26.862200
21
47.365500
0
LINE
8
Layer 1
10
26.862200
20
47.365500
11
23.371200
21
42.076600
0
LINE
8
Layer 1
10
23.371200
20
42.076600
11
16.098300
21
31.008700
0
LINE
8
Layer 1
10
16.098300
20
31.008700
11
15.822960
21
30.729467
0
LINE
8
Layer 1
10
15.822960
20
30.729467
11
15.439372
21
30.647964
0
LINE
8
Layer 1
10
15.439372
20
30.647964
11
8.319172
21
30.655245
0
LINE
8
Layer 1
10
8.319172
20
30.655245
11
7.922030
21
30.653800
0
LINE
8
Layer 1
10
19.894730
20
14.270800
11
19.685815
21
14.024793
0
LINE
8
Layer 1
10
19.685815
20
14.024793
11
19.362351
21
13.930426
0
LINE
8
Layer 1
10
19.362351
20
13.930426
11
11.875601
21
13.939147
0
LINE
8
Layer 1
10
11.875601
20
13.939147
11
11.664686
21
13.969694
0
LINE
8
Layer 1
10
11.664686
20
13.969694
11
11.955603
21
14.426434
0
LINE
8
Layer 1
10
11.955603
20
14.426434
11
33.362700
21
46.959700
0
LINE
8
Layer 1
10
33.362700
20
46.959700
11
33.688427
21
47.278011
0
LINE
8
Layer 1
10
33.688427
20
47.278011
11
34.135085
21
47.366985
0
LINE
8
Layer 1
10
34.135085
20
47.366985
11
41.575295
21
47.358259
0
LINE
8
Layer 1
10
41.575295
20
47.358259
11
41.552204
21
47.150253
0
LINE
8
Layer 1
10
41.552204
20
47.150253
11
41.429838
21
46.990248
0
LINE
8
Layer 1
10
41.429838
20
46.990248
11
19.894738
21
14.270748
0
LINE
8
Layer 1
10
19.894738
20
14.270748
11
19.894730
21
14.270800
0
LINE
8
Layer 1
10
45.217630
20
30.232000
11
34.719930
21
14.275200
0
LINE
8
Layer 1
10
34.719930
20
14.275200
11
34.513561
21
14.028103
0
LINE
8
Layer 1
10
34.513561
20
14.028103
11
34.190459
21
13.930463
0
LINE
8
Layer 1
10
34.190459
20
13.930463
11
26.751709
21
13.939184
0
LINE
8
Layer 1
10
26.751709
20
13.939184
11
26.539340
21
13.997367
0
LINE
8
Layer 1
10
26.539340
20
13.997367
11
26.750254
21
14.387197
0
LINE
8
Layer 1
10
26.750254
20
14.387197
11
37.170954
21
30.231997
0
LINE
8
Layer 1
10
37.170954
20
30.231997
11
37.488053
21
30.558550
0
LINE
8
Layer 1
10
37.488053
20
30.558550
11
37.936066
21
30.658189
0
LINE
8
Layer 1
10
37.936066
20
30.658189
11
45.008266
21
30.646561
0
LINE
8
Layer 1
10
45.008266
20
30.646561
11
45.218998
21
30.666562
0
LINE
8
Layer 1
10
45.218998
20
30.666562
11
45.385004
21
30.584015
0
LINE
8
Layer 1
10
45.385004
20
30.584015
11
45.354275
21
30.399828
0
LINE
8
Layer 1
10
45.354275
20
30.399828
11
45.217725
21
30.232005
0
LINE
8
Layer 1
10
45.217725
20
30.232005
11
45.217630
21
30.232000
 0 
ENDSEC
 0 
EOF