0
SECTION
2
HEADER
9
$INSUNITS
70
4
9
$ACADVER
1
AC1014
9
$HANDSEED
5
FFFF
0
ENDSEC
0
SECTION
2
TABLES
0
TABLE
2
VPORT
5
8
100
AcDbSymbolTable
0
ENDTAB
0
TABLE
2
LTYPE
5
5
100
AcDbSymbolTable
0
LTYPE
5
14
100
AcDbSymbolTableRecord
100
AcDbLinetypeTableRecord
2
BYBLOCK
70
0
0
LTYPE
5
15
100
AcDbSymbolTableRecord
100
AcDbLinetypeTableRecord
2
BYLAYER
70
0
0
ENDTAB
0
TABLE
2
LAYER
5
2
100
AcDbSymbolTable
70
2
0
LAYER
5
50
100
AcDbSymbolTableRecord
100
AcDbLayerTableRecord
2
0
70
0
6
CONTINUOUS
0
ENDTAB
0
TABLE
2
STYLE
5
3
100
AcDbSymbolTable
70
1
0
STYLE
5
11
100
AcDbSymbolTableRecord
100
AcDbTextStyleTableRecord
2
STANDARD
70
0
0
ENDTAB
0
TABLE
2
VIEW
5
6
100
AcDbSymbolTable
70
0
0
ENDTAB
0
TABLE
2
UCS
5
7
100
AcDbSymbolTable
70
0
0
ENDTAB
0
TABLE
2
APPID
5
9
100
AcDbSymbolTable
70
2
0
APPID
5
12
100
AcDbSymbolTableRecord
100
AcDbRegAppTableRecord
2
ACAD
70
0
0
ENDTAB
0
TABLE
2
DIMSTYLE
5
A
100
AcDbSymbolTable
70
1
0
ENDTAB
0
TABLE
2
BLOCK_RECORD
5
1
100
AcDbSymbolTable
70
1
0
BLOCK_RECORD
5
1F
100
AcDbSymbolTableRecord
100
AcDbBlockTableRecord
2
*MODEL_SPACE
0
BLOCK_RECORD
5
1B
100
AcDbSymbolTableRecord
100
AcDbBlockTableRecord
2
*PAPER_SPACE
0
ENDTAB
0
ENDSEC
0
SECTION
2
BLOCKS
0
BLOCK
5
20
100
AcDbEntity
100
AcDbBlockBegin
2
*MODEL_SPACE
0
ENDBLK
5
21
100
AcDbEntity
100
AcDbBlockEnd
0
BLOCK
5
1C
100
AcDbEntity
100
AcDbBlockBegin
2
*PAPER_SPACE
0
ENDBLK
5
1D
100
AcDbEntity
100
AcDbBlockEnd
0
ENDSEC
0
SECTION
2
ENTITIES
0
LWPOLYLINE
5
100
100
AcDbEntity
8
0
100
AcDbPolyline
90
4
70
1
43
0.0
10
-36.5
20
-64.700000000000003
42
-0.99999999999999989
10
-36.5
20
-61.300000000000011
10
-32.5
20
-61.300000000000011
42
-0.99999999999999989
10
-32.5
20
-64.700000000000003
0
LWPOLYLINE
5
101
100
AcDbEntity
8
0
100
AcDbPolyline
90
20
70
1
43
0.0
10
114.5
20
-83
10
114.5
20
83
42
0.41421356237309503
10
112.5
20
85
10
44.25
20
85
42
0.41421356237310025
10
42.25
20
83
10
42.25
20
69
10
26.750000000000007
20
69
10
26.750000000000007
20
83
42
0.4142135623730957
10
24.750000000000011
20
85
10
-24.75
20
85
42
0.41421356237309698
10
-26.750000000000004
20
83
10
-26.750000000000004
20
69
10
-42.25
20
69
10
-42.25
20
83
42
0.41421356237310025
10
-44.25
20
85
10
-112.5
20
85
42
0.41421356237309503
10
-114.5
20
83
10
-114.5
20
-83
42
0.41421356237309503
10
-112.5
20
-85
10
112.5
20
-85
42
0.41421356237309503
0
LWPOLYLINE
5
102
100
AcDbEntity
8
0
100
AcDbPolyline
90
4
70
1
43
0.0
10
-36.5
20
1.7000000000000002
10
-32.5
20
1.6999999999999931
42
-0.99999999999999989
10
-32.5
20
-1.7000000000000002
10
-36.5
20
-1.6999999999999931
42
-0.99999999999999989
0
LWPOLYLINE
5
103
100
AcDbEntity
8
0
100
AcDbPolyline
90
4
70
1
43
0.0
10
32.5
20
-64.700000000000003
42
-0.99999999999999989
10
32.5
20
-61.300000000000011
10
36.5
20
-61.300000000000011
42
-0.99999999999999989
10
36.5
20
-64.700000000000003
0
LWPOLYLINE
5
104
100
AcDbEntity
8
0
100
AcDbPolyline
90
4
70
1
43
0.0
10
-32.5
20
64.199999999999989
42
-0.99999999999999989
10
-32.5
20
60.800000000000011
10
-36.5
20
60.800000000000011
42
-0.99999999999999989
10
-36.5
20
64.199999999999989
0
LWPOLYLINE
5
105
100
AcDbEntity
8
0
100
AcDbPolyline
90
4
70
1
43
0.0
10
36.5
20
-1.7000000000000002
10
32.5
20
-1.6999999999999931
42
-0.99999999999999989
10
32.5
20
1.6999999999999931
10
36.5
20
1.6999999999999931
42
-0.99999999999999989
0
LWPOLYLINE
5
106
100
AcDbEntity
8
0
100
AcDbPolyline
90
4
70
1
43
0.0
10
36.5
20
64.199999999999989
42
-0.99999999999999989
10
36.5
20
60.800000000000011
10
32.5
20
60.800000000000011
42
-0.99999999999999989
10
32.5
20
64.199999999999989
0
LWPOLYLINE
5
107
100
AcDbEntity
8
0
100
AcDbPolyline
90
8
70
1
43
0.0
10
-15.548275419491123
20
68.75085311576791
10
-12.548275419491137
20
68.75085311576791
42
0.41421356237309503
10
-12.048275419491139
20
69.25085311576791
10
-12.048275419491139
20
70.417294657049283
42
0.41421356237309631
10
-12.548275419491139
20
70.917294657049283
10
-15.548275419491119
20
70.917294657049283
42
0.41421356237309631
10
-16.048275419491119
20
70.417294657049283
10
-16.048275419491119
20
69.25085311576791
42
0.41421356237309503
0
ENDSEC
0
SECTION
2
OBJECTS
0
DICTIONARY
5
C
100
AcDbDictionary
3
ACAD_GROUP
350
D
3
ACAD_MLINESTYLE
350
17
0
DICTIONARY
5
D
100
AcDbDictionary
0
DICTIONARY
5
1A
330
C
100
AcDbDictionary
0
DICTIONARY
5
17
100
AcDbDictionary
0
ENDSEC
0
EOF
