M48
;GenerationSoftware,Autodesk,EAGLE,9.6.2*%
;CreationDate,2020-11-18T11:17:23Z*%
FMAT,2
ICI,OFF
METRIC,TZ,000.000
T4C0.500
T3C1.000
T2C1.016
T1C3.200
%
G90
M71
T1
X-17500Y-12500
X17500Y-12500
X-17500Y12500
X17500Y12500
T2
X-9040Y730
X-9040Y3270
X-6500Y730
X-6500Y3270
X-3960Y730
X-3960Y3270
X1460Y730
X1460Y3270
X4000Y730
X4000Y3270
X6540Y730
X6540Y3270
T3
X12500Y-7250
X12500Y-4750
X-12500Y-4750
X-12500Y-7250
X16500Y3250
X16500Y750
X10500Y3250
X10500Y750
X-3750Y-7500
X-1250Y-7500
X1250Y-7500
X3750Y-7500
T4
X-11500Y7500
X1500Y7500
X11500Y7500
M30