%TF.GenerationSoftware,KiCad,Pcbnew,(6.0.6)*%
%TF.CreationDate,2022-07-16T02:29:14+02:00*%
%TF.ProjectId,breakbox_pcb,62726561-6b62-46f7-985f-7063622e6b69,rev?*%
%TF.SameCoordinates,Original*%
%TF.FileFunction,Copper,L1,Top*%
%TF.FilePolarity,Positive*%
%FSLAX46Y46*%
G04 Gerber Fmt 4.6, Leading zero omitted, Abs format (unit mm)*
G04 Created by KiCad (PCBNEW (6.0.6)) date 2022-07-16 02:29:14*
%MOMM*%
%LPD*%
G01*
G04 APERTURE LIST*
G04 Aperture macros list*
%AMRoundRect*
0 Rectangle with rounded corners*
0 $1 Rounding radius*
0 $2 $3 $4 $5 $6 $7 $8 $9 X,Y pos of 4 corners*
0 Add a 4 corners polygon primitive as box body*
4,1,4,$2,$3,$4,$5,$6,$7,$8,$9,$2,$3,0*
0 Add four circle primitives for the rounded corners*
1,1,$1+$1,$2,$3*
1,1,$1+$1,$4,$5*
1,1,$1+$1,$6,$7*
1,1,$1+$1,$8,$9*
0 Add four rect primitives between the rounded corners*
20,1,$1+$1,$2,$3,$4,$5,0*
20,1,$1+$1,$4,$5,$6,$7,0*
20,1,$1+$1,$6,$7,$8,$9,0*
20,1,$1+$1,$8,$9,$2,$3,0*%
G04 Aperture macros list end*
%TA.AperFunction,ComponentPad*%
%ADD10C,5.600000*%
%TD*%
%TA.AperFunction,ComponentPad*%
%ADD11RoundRect,0.250001X-0.499999X0.499999X-0.499999X-0.499999X0.499999X-0.499999X0.499999X0.499999X0*%
%TD*%
%TA.AperFunction,ComponentPad*%
%ADD12C,1.500000*%
%TD*%
%TA.AperFunction,ComponentPad*%
%ADD13RoundRect,0.250000X0.600000X0.725000X-0.600000X0.725000X-0.600000X-0.725000X0.600000X-0.725000X0*%
%TD*%
%TA.AperFunction,ComponentPad*%
%ADD14O,1.700000X1.950000*%
%TD*%
%TA.AperFunction,ComponentPad*%
%ADD15RoundRect,0.250000X0.600000X0.750000X-0.600000X0.750000X-0.600000X-0.750000X0.600000X-0.750000X0*%
%TD*%
%TA.AperFunction,ComponentPad*%
%ADD16O,1.700000X2.000000*%
%TD*%
%TA.AperFunction,ComponentPad*%
%ADD17RoundRect,0.250001X-0.499999X-0.759999X0.499999X-0.759999X0.499999X0.759999X-0.499999X0.759999X0*%
%TD*%
%TA.AperFunction,ComponentPad*%
%ADD18O,1.500000X2.020000*%
%TD*%
%TA.AperFunction,Conductor*%
%ADD19C,0.762000*%
%TD*%
%TA.AperFunction,Conductor*%
%ADD20C,0.508000*%
%TD*%
%TA.AperFunction,Conductor*%
%ADD21C,1.524000*%
%TD*%
G04 APERTURE END LIST*
D10*
%TO.P,REF\u002A\u002A,1*%
%TO.N,N/C*%
X54700000Y-95400000D03*
%TD*%
%TO.P,REF\u002A\u002A,1*%
%TO.N,N/C*%
X105500000Y-54600000D03*
%TD*%
D11*
%TO.P,Breakbox Out,1*%
%TO.N,N/C*%
X100000000Y-63000000D03*
D12*
%TO.P,Breakbox Out,2*%
X100000000Y-66000000D03*
%TO.P,Breakbox Out,3*%
X100000000Y-69000000D03*
%TO.P,Breakbox Out,4*%
X100000000Y-72000000D03*
%TO.P,Breakbox Out,5*%
X100000000Y-75000000D03*
%TO.P,Breakbox Out,6*%
X100000000Y-78000000D03*
%TO.P,Breakbox Out,7*%
X100000000Y-81000000D03*
%TO.P,Breakbox Out,8*%
X100000000Y-84000000D03*
%TO.P,Breakbox Out,9*%
X100000000Y-87000000D03*
%TO.P,Breakbox Out,10*%
X97000000Y-63000000D03*
%TO.P,Breakbox Out,11*%
X97000000Y-66000000D03*
%TO.P,Breakbox Out,12*%
X97000000Y-69000000D03*
%TO.P,Breakbox Out,13*%
X97000000Y-72000000D03*
%TO.P,Breakbox Out,14*%
X97000000Y-75000000D03*
%TO.P,Breakbox Out,15*%
X97000000Y-78000000D03*
%TO.P,Breakbox Out,16*%
X97000000Y-81000000D03*
%TO.P,Breakbox Out,17*%
X97000000Y-84000000D03*
%TO.P,Breakbox Out,18*%
X97000000Y-87000000D03*
%TD*%
D13*
%TO.P,Neo Pixel,1*%
%TO.N,N/C*%
X70700000Y-93800000D03*
D14*
%TO.P,Neo Pixel,2*%
X68200000Y-93800000D03*
%TO.P,Neo Pixel,3*%
X65700000Y-93800000D03*
%TD*%
D15*
%TO.P,Fan 1,1*%
%TO.N,N/C*%
X82150000Y-72300000D03*
D16*
%TO.P,Fan 1,2*%
X79650000Y-72300000D03*
%TD*%
D10*
%TO.P,REF\u002A\u002A,1*%
%TO.N,N/C*%
X54700000Y-54600000D03*
%TD*%
D17*
%TO.P,Therm 0 In,1*%
%TO.N,N/C*%
X74100000Y-59970000D03*
D18*
%TO.P,Therm 0 In,2*%
X77100000Y-59970000D03*
%TD*%
D13*
%TO.P,Probe,1*%
%TO.N,N/C*%
X61800000Y-72325000D03*
D14*
%TO.P,Probe,2*%
X59300000Y-72325000D03*
%TO.P,Probe,3*%
X56800000Y-72325000D03*
%TD*%
D15*
%TO.P,Endstop Y,1*%
%TO.N,N/C*%
X82100000Y-83150000D03*
D16*
%TO.P,Endstop Y,2*%
X79600000Y-83150000D03*
%TD*%
D17*
%TO.P,Therm 1 In,1*%
%TO.N,N/C*%
X62700000Y-59970000D03*
D18*
%TO.P,Therm 1 In,2*%
X65700000Y-59970000D03*
%TD*%
D13*
%TO.P,E-Motor,1*%
%TO.N,N/C*%
X88900000Y-93800000D03*
D14*
%TO.P,E-Motor,2*%
X86400000Y-93800000D03*
%TO.P,E-Motor,3*%
X83900000Y-93800000D03*
%TO.P,E-Motor,4*%
X81400000Y-93800000D03*
%TD*%
D17*
%TO.P,HE In,1*%
%TO.N,N/C*%
X85500000Y-59970000D03*
D18*
%TO.P,HE In,2*%
X88500000Y-59970000D03*
%TD*%
D10*
%TO.P,REF\u002A\u002A,1*%
%TO.N,N/C*%
X105500000Y-95400000D03*
%TD*%
D13*
%TO.P,Endstops X/Y,1*%
%TO.N,N/C*%
X63000000Y-83225000D03*
D14*
%TO.P,Endstops X/Y,2*%
X60500000Y-83225000D03*
%TO.P,Endstops X/Y,3*%
X58000000Y-83225000D03*
%TO.P,Endstops X/Y,4*%
X55500000Y-83225000D03*
%TD*%
D15*
%TO.P,Fan 0,1*%
%TO.N,N/C*%
X73350000Y-72300000D03*
D16*
%TO.P,Fan 0,2*%
X70850000Y-72300000D03*
%TD*%
D15*
%TO.P,Endstop X,1*%
%TO.N,N/C*%
X73300000Y-83125000D03*
D16*
%TO.P,Endstop X,2*%
X70800000Y-83125000D03*
%TD*%
D19*
%TO.N,*%
X102400000Y-61000000D02*
X102400000Y-63600000D01*
D20*
X69500000Y-87100000D02*
X86800000Y-87100000D01*
D19*
X74100000Y-59970000D02*
X74100000Y-59300000D01*
D20*
X93800000Y-73500000D02*
X98500000Y-73500000D01*
X94100000Y-75000000D02*
X97000000Y-75000000D01*
X78400000Y-62200000D02*
X82800000Y-66600000D01*
X77100000Y-59970000D02*
X78370000Y-59970000D01*
D19*
X92700000Y-88400000D02*
X92700000Y-85400000D01*
D20*
X79600000Y-85400000D02*
X79200000Y-85800000D01*
D19*
X83900000Y-93800000D02*
X83900000Y-92200000D01*
X94200000Y-87900000D02*
X95100000Y-87000000D01*
X84400000Y-91700000D02*
X91400000Y-91700000D01*
D20*
X92000000Y-75300000D02*
X93800000Y-73500000D01*
X59300000Y-72325000D02*
X59300000Y-73900000D01*
D19*
X100000000Y-88500000D02*
X100000000Y-87000000D01*
D20*
X86800000Y-87100000D02*
X92900000Y-81000000D01*
D19*
X102400000Y-63600000D02*
X100000000Y-66000000D01*
D20*
X73300000Y-83125000D02*
X73300000Y-81525000D01*
D21*
X90000000Y-63000000D02*
X97000000Y-63000000D01*
D19*
X70850000Y-72300000D02*
X70850000Y-70850000D01*
X76600000Y-58000000D02*
X99400000Y-58000000D01*
D20*
X78370000Y-59970000D02*
X83400000Y-65000000D01*
D19*
X87200000Y-95800000D02*
X92700000Y-95800000D01*
D21*
X88500000Y-59970000D02*
X88500000Y-61500000D01*
D20*
X59300000Y-73900000D02*
X60700000Y-75300000D01*
D19*
X79650000Y-72300000D02*
X79650000Y-70450000D01*
X81400000Y-93800000D02*
X81400000Y-92500000D01*
X92700000Y-85400000D02*
X94100000Y-84000000D01*
X62700000Y-59100000D02*
X63800000Y-58000000D01*
X72700000Y-69000000D02*
X81800000Y-69000000D01*
D20*
X68200000Y-90950000D02*
X70550000Y-88600000D01*
D19*
X95100000Y-87000000D02*
X97000000Y-87000000D01*
D20*
X97000000Y-68600000D02*
X97000000Y-69000000D01*
X83400000Y-65000000D02*
X96000000Y-65000000D01*
D19*
X62700000Y-59970000D02*
X62700000Y-59100000D01*
X86400000Y-93800000D02*
X86400000Y-95000000D01*
X92700000Y-95800000D02*
X100000000Y-88500000D01*
X81800000Y-69000000D02*
X94000000Y-69000000D01*
X94100000Y-84000000D02*
X97000000Y-84000000D01*
D20*
X98500000Y-73500000D02*
X100000000Y-75000000D01*
X56800000Y-72325000D02*
X56800000Y-74100000D01*
X60500000Y-85200000D02*
X60500000Y-83225000D01*
X93500000Y-82500000D02*
X98500000Y-82500000D01*
D19*
X83600000Y-90300000D02*
X90800000Y-90300000D01*
X79650000Y-70450000D02*
X81100000Y-69000000D01*
X70850000Y-70850000D02*
X72700000Y-69000000D01*
D20*
X87400000Y-88600000D02*
X93500000Y-82500000D01*
D19*
X94000000Y-69000000D02*
X97000000Y-72000000D01*
X83900000Y-92200000D02*
X84400000Y-91700000D01*
X63800000Y-58000000D02*
X76600000Y-58000000D01*
D20*
X92700000Y-76400000D02*
X94100000Y-75000000D01*
D19*
X90800000Y-90300000D02*
X92700000Y-88400000D01*
D20*
X92900000Y-81000000D02*
X97000000Y-81000000D01*
X56800000Y-74100000D02*
X59100000Y-76400000D01*
X69800000Y-62200000D02*
X78400000Y-62200000D01*
X71150000Y-79800000D02*
X80900000Y-79800000D01*
X70550000Y-88600000D02*
X87400000Y-88600000D01*
D19*
X74100000Y-59300000D02*
X75400000Y-58000000D01*
X99400000Y-58000000D02*
X102400000Y-61000000D01*
D20*
X80900000Y-79800000D02*
X82100000Y-81000000D01*
X59100000Y-76400000D02*
X92700000Y-76400000D01*
X70800000Y-81700000D02*
X70000000Y-80900000D01*
X55500000Y-82400000D02*
X55500000Y-83225000D01*
X61100000Y-85800000D02*
X60500000Y-85200000D01*
X60700000Y-75300000D02*
X92000000Y-75300000D01*
X65700000Y-59970000D02*
X67570000Y-59970000D01*
X71575000Y-79800000D02*
X71150000Y-79800000D01*
D19*
X86400000Y-95000000D02*
X87200000Y-95800000D01*
X91400000Y-91700000D02*
X94200000Y-88900000D01*
D20*
X82800000Y-66600000D02*
X95000000Y-66600000D01*
X79600000Y-83150000D02*
X79600000Y-85400000D01*
D19*
X94200000Y-88900000D02*
X94200000Y-87900000D01*
D20*
X58100000Y-79800000D02*
X55500000Y-82400000D01*
D19*
X81100000Y-69000000D02*
X81800000Y-69000000D01*
D20*
X68200000Y-93800000D02*
X68200000Y-90950000D01*
X65700000Y-93800000D02*
X65700000Y-90900000D01*
X82100000Y-81000000D02*
X82100000Y-83150000D01*
X70800000Y-83125000D02*
X70800000Y-81700000D01*
X58000000Y-82200000D02*
X58000000Y-83225000D01*
D21*
X88500000Y-61500000D02*
X90000000Y-63000000D01*
D20*
X96000000Y-65000000D02*
X97000000Y-66000000D01*
X59300000Y-80900000D02*
X58000000Y-82200000D01*
X98500000Y-82500000D02*
X100000000Y-81000000D01*
D19*
X81400000Y-92500000D02*
X83600000Y-90300000D01*
D20*
X95000000Y-66600000D02*
X97000000Y-68600000D01*
X79200000Y-85800000D02*
X61100000Y-85800000D01*
X71150000Y-79800000D02*
X58100000Y-79800000D01*
X65700000Y-90900000D02*
X69500000Y-87100000D01*
X67570000Y-59970000D02*
X69800000Y-62200000D01*
X70000000Y-80900000D02*
X59300000Y-80900000D01*
X73300000Y-81525000D02*
X71575000Y-79800000D01*
X75400000Y-58000000D02*
X76600000Y-58000000D01*
%TD*%
M02*
