M48
; DRILL file {KiCad (6.0.6)} date Sat Jul 16 02:29:17 2022
; FORMAT={-:-/ absolute / inch / decimal}
; #@! TF.CreationDate,2022-07-16T02:29:17+02:00
; #@! TF.GenerationSoftware,Kicad,Pcbnew,(6.0.6)
; #@! TF.FileFunction,Plated,1,2,PTH
FMAT,2
INCH
; #@! TA.AperFunction,Plated,PTH,ComponentDrill
T1C0.0374
; #@! TA.AperFunction,Plated,PTH,ComponentDrill
T2C0.0394
; #@! TA.AperFunction,Plated,PTH,ComponentDrill
T3C0.0402
; #@! TA.AperFunction,Plated,PTH,ComponentDrill
T4C0.1260
%
G90
G05
T1
X2.185Y-3.2766
X2.2362Y-2.8474
X2.2835Y-3.2766
X2.3346Y-2.8474
X2.3819Y-3.2766
X2.4331Y-2.8474
X2.4803Y-3.2766
X2.5866Y-3.6929
X2.685Y-3.6929
X2.7835Y-3.6929
X3.2047Y-3.6929
X3.3031Y-3.6929
X3.4016Y-3.6929
X3.5Y-3.6929
T2
X2.7874Y-3.2726
X2.7894Y-2.8465
X2.8858Y-3.2726
X2.8878Y-2.8465
X3.1339Y-3.2736
X3.1358Y-2.8465
X3.2323Y-3.2736
X3.2343Y-2.8465
T3
X2.4685Y-2.361
X2.5866Y-2.361
X2.9173Y-2.361
X3.0354Y-2.361
X3.3661Y-2.361
X3.4843Y-2.361
X3.8189Y-2.4803
X3.8189Y-2.5984
X3.8189Y-2.7165
X3.8189Y-2.8346
X3.8189Y-2.9528
X3.8189Y-3.0709
X3.8189Y-3.189
X3.8189Y-3.3071
X3.8189Y-3.4252
X3.937Y-2.4803
X3.937Y-2.5984
X3.937Y-2.7165
X3.937Y-2.8346
X3.937Y-2.9528
X3.937Y-3.0709
X3.937Y-3.189
X3.937Y-3.3071
X3.937Y-3.4252
T4
X2.1535Y-2.1496
X2.1535Y-3.7559
X4.1535Y-2.1496
X4.1535Y-3.7559
T0
M30
