G04 EAGLE Gerber RS-274X export*
G75*
%MOMM*%
%FSLAX34Y34*%
%LPD*%
%INTop Copper*%
%IPPOS*%
%AMOC8*
5,1,8,0,0,1.08239X$1,22.5*%
G01*
%ADD10P,1.649562X8X22.500000*%
%ADD11R,1.508000X1.508000*%
%ADD12C,1.508000*%
%ADD13C,0.484500*%
%ADD14C,0.645000*%
%ADD15R,1.800000X1.600000*%
%ADD16R,1.400000X1.000000*%
%ADD17R,1.500000X1.300000*%
%ADD18C,0.800000*%
%ADD19C,0.906400*%
%ADD20C,1.000000*%
%ADD21C,0.500000*%

G36*
X135046Y-140993D02*
X135046Y-140993D01*
X135087Y-140995D01*
X136824Y-140844D01*
X136918Y-140822D01*
X136995Y-140813D01*
X138679Y-140362D01*
X138768Y-140324D01*
X138843Y-140303D01*
X140422Y-139566D01*
X140503Y-139513D01*
X140573Y-139479D01*
X142001Y-138479D01*
X142072Y-138413D01*
X142134Y-138367D01*
X143367Y-137134D01*
X143425Y-137057D01*
X143479Y-137001D01*
X144479Y-135573D01*
X144518Y-135495D01*
X144563Y-135428D01*
X144563Y-135427D01*
X144566Y-135422D01*
X145303Y-133843D01*
X145331Y-133750D01*
X145362Y-133679D01*
X145813Y-131995D01*
X145825Y-131899D01*
X145844Y-131824D01*
X145995Y-130087D01*
X145993Y-130041D01*
X145999Y-130000D01*
X145999Y-122243D01*
X145995Y-122211D01*
X145997Y-122179D01*
X145975Y-122072D01*
X145959Y-121963D01*
X145946Y-121934D01*
X145940Y-121902D01*
X145888Y-121806D01*
X145843Y-121706D01*
X145822Y-121682D01*
X145807Y-121653D01*
X145731Y-121575D01*
X145660Y-121492D01*
X145633Y-121474D01*
X145610Y-121451D01*
X145515Y-121398D01*
X145424Y-121338D01*
X145393Y-121328D01*
X145365Y-121312D01*
X145258Y-121287D01*
X145154Y-121255D01*
X145122Y-121255D01*
X145091Y-121247D01*
X144981Y-121253D01*
X144872Y-121252D01*
X144841Y-121260D01*
X144809Y-121262D01*
X144706Y-121298D01*
X144600Y-121327D01*
X144573Y-121344D01*
X144542Y-121354D01*
X144469Y-121408D01*
X144360Y-121475D01*
X144328Y-121511D01*
X144293Y-121536D01*
X143829Y-122001D01*
X128171Y-122001D01*
X126999Y-120829D01*
X126999Y-109171D01*
X128171Y-107999D01*
X134101Y-107999D01*
X134195Y-107986D01*
X134292Y-107981D01*
X134335Y-107966D01*
X134380Y-107959D01*
X134467Y-107920D01*
X134558Y-107888D01*
X134593Y-107863D01*
X134637Y-107843D01*
X134734Y-107760D01*
X134807Y-107707D01*
X158707Y-83807D01*
X158764Y-83730D01*
X158829Y-83659D01*
X158849Y-83618D01*
X158876Y-83582D01*
X158910Y-83491D01*
X158952Y-83405D01*
X158958Y-83363D01*
X158975Y-83318D01*
X158984Y-83208D01*
X158987Y-83197D01*
X158988Y-83175D01*
X158999Y-83101D01*
X158999Y-406D01*
X158986Y-311D01*
X158981Y-215D01*
X158966Y-172D01*
X158959Y-127D01*
X158920Y-39D01*
X158888Y52D01*
X158863Y86D01*
X158843Y130D01*
X158760Y228D01*
X158707Y301D01*
X157801Y1207D01*
X157724Y1264D01*
X157653Y1329D01*
X157612Y1349D01*
X157575Y1376D01*
X157485Y1410D01*
X157399Y1452D01*
X157357Y1458D01*
X157311Y1475D01*
X157184Y1485D01*
X157094Y1499D01*
X112906Y1499D01*
X112811Y1486D01*
X112715Y1481D01*
X112672Y1466D01*
X112627Y1459D01*
X112539Y1420D01*
X112448Y1388D01*
X112414Y1363D01*
X112370Y1343D01*
X112272Y1260D01*
X112199Y1207D01*
X110404Y-588D01*
X106898Y-2041D01*
X103102Y-2041D01*
X99596Y-588D01*
X96912Y2096D01*
X95459Y5602D01*
X95459Y9398D01*
X96912Y12904D01*
X99596Y15588D01*
X103102Y17041D01*
X106898Y17041D01*
X110404Y15588D01*
X112199Y13793D01*
X112276Y13736D01*
X112347Y13671D01*
X112388Y13651D01*
X112425Y13624D01*
X112515Y13590D01*
X112601Y13548D01*
X112643Y13542D01*
X112689Y13525D01*
X112816Y13515D01*
X112906Y13501D01*
X157094Y13501D01*
X157189Y13514D01*
X157285Y13519D01*
X157328Y13534D01*
X157373Y13541D01*
X157461Y13580D01*
X157552Y13612D01*
X157586Y13637D01*
X157630Y13657D01*
X157728Y13740D01*
X157801Y13793D01*
X159596Y15588D01*
X163102Y17041D01*
X166898Y17041D01*
X170404Y15588D01*
X173088Y12904D01*
X174541Y9398D01*
X174541Y5602D01*
X173088Y2096D01*
X171293Y301D01*
X171236Y224D01*
X171171Y153D01*
X171151Y112D01*
X171124Y75D01*
X171090Y-15D01*
X171048Y-101D01*
X171042Y-143D01*
X171025Y-189D01*
X171015Y-316D01*
X171001Y-406D01*
X171001Y-87194D01*
X170087Y-89399D01*
X165193Y-94293D01*
X165174Y-94319D01*
X165149Y-94340D01*
X165089Y-94432D01*
X165024Y-94519D01*
X165012Y-94549D01*
X164995Y-94576D01*
X164963Y-94681D01*
X164924Y-94783D01*
X164922Y-94815D01*
X164912Y-94846D01*
X164911Y-94955D01*
X164902Y-95064D01*
X164909Y-95096D01*
X164908Y-95128D01*
X164938Y-95233D01*
X164960Y-95340D01*
X164975Y-95369D01*
X164984Y-95400D01*
X165041Y-95493D01*
X165092Y-95589D01*
X165115Y-95612D01*
X165132Y-95640D01*
X165213Y-95713D01*
X165289Y-95791D01*
X165317Y-95807D01*
X165341Y-95829D01*
X165439Y-95876D01*
X165534Y-95930D01*
X165566Y-95938D01*
X165595Y-95952D01*
X165684Y-95966D01*
X165809Y-95995D01*
X165857Y-95993D01*
X165899Y-95999D01*
X180000Y-95999D01*
X180046Y-95993D01*
X180087Y-95995D01*
X181824Y-95844D01*
X181918Y-95822D01*
X181995Y-95813D01*
X183679Y-95362D01*
X183768Y-95324D01*
X183843Y-95303D01*
X185422Y-94566D01*
X185503Y-94513D01*
X185573Y-94479D01*
X187001Y-93479D01*
X187072Y-93413D01*
X187134Y-93367D01*
X188367Y-92134D01*
X188425Y-92057D01*
X188479Y-92001D01*
X189479Y-90573D01*
X189523Y-90487D01*
X189566Y-90422D01*
X190014Y-89462D01*
X190303Y-88843D01*
X190331Y-88750D01*
X190362Y-88679D01*
X190813Y-86995D01*
X190825Y-86899D01*
X190844Y-86824D01*
X190995Y-85087D01*
X190993Y-85041D01*
X190999Y-85000D01*
X190999Y85000D01*
X190993Y85046D01*
X190995Y85087D01*
X190844Y86824D01*
X190822Y86918D01*
X190813Y86995D01*
X190362Y88679D01*
X190324Y88768D01*
X190303Y88843D01*
X189566Y90422D01*
X189513Y90503D01*
X189479Y90573D01*
X188479Y92001D01*
X188413Y92072D01*
X188367Y92134D01*
X187134Y93367D01*
X187057Y93425D01*
X187001Y93479D01*
X185573Y94479D01*
X185487Y94523D01*
X185422Y94566D01*
X183843Y95303D01*
X183750Y95331D01*
X183679Y95362D01*
X181995Y95813D01*
X181899Y95825D01*
X181824Y95844D01*
X180087Y95995D01*
X180041Y95993D01*
X180000Y95999D01*
X155044Y95999D01*
X153438Y96140D01*
X151923Y96546D01*
X150502Y97208D01*
X149217Y98108D01*
X148108Y99217D01*
X147208Y100502D01*
X146546Y101923D01*
X146140Y103438D01*
X145999Y105044D01*
X145999Y135000D01*
X145993Y135046D01*
X145995Y135087D01*
X145844Y136824D01*
X145824Y136907D01*
X145824Y136920D01*
X145820Y136937D01*
X145813Y136995D01*
X145362Y138679D01*
X145324Y138768D01*
X145303Y138843D01*
X144566Y140422D01*
X144513Y140503D01*
X144479Y140573D01*
X143479Y142001D01*
X143413Y142072D01*
X143367Y142134D01*
X142134Y143367D01*
X142057Y143425D01*
X142001Y143479D01*
X140573Y144479D01*
X140487Y144523D01*
X140422Y144566D01*
X138843Y145303D01*
X138750Y145331D01*
X138679Y145362D01*
X136995Y145813D01*
X136899Y145825D01*
X136824Y145844D01*
X135087Y145995D01*
X135041Y145993D01*
X135000Y145999D01*
X83839Y145999D01*
X83764Y145989D01*
X83689Y145988D01*
X83626Y145969D01*
X83560Y145959D01*
X83491Y145928D01*
X83419Y145907D01*
X83363Y145870D01*
X83303Y145843D01*
X83246Y145794D01*
X83182Y145753D01*
X83139Y145703D01*
X83089Y145660D01*
X83047Y145597D01*
X82998Y145539D01*
X82971Y145479D01*
X82934Y145424D01*
X82912Y145352D01*
X82881Y145283D01*
X82871Y145217D01*
X82852Y145154D01*
X82851Y145079D01*
X82840Y145004D01*
X82849Y144938D01*
X82848Y144872D01*
X82868Y144799D01*
X82879Y144725D01*
X82904Y144669D01*
X82923Y144600D01*
X82975Y144516D01*
X83008Y144445D01*
X83135Y144256D01*
X83569Y143207D01*
X83791Y142093D01*
X83791Y135999D01*
X66000Y135999D01*
X65936Y135990D01*
X65872Y135991D01*
X65798Y135970D01*
X65721Y135959D01*
X65662Y135933D01*
X65600Y135916D01*
X65534Y135875D01*
X65464Y135843D01*
X65415Y135801D01*
X65360Y135768D01*
X65309Y135710D01*
X65250Y135660D01*
X65214Y135606D01*
X65171Y135558D01*
X65138Y135489D01*
X65095Y135424D01*
X65076Y135362D01*
X65048Y135305D01*
X65038Y135235D01*
X65013Y135154D01*
X65012Y135069D01*
X65001Y135000D01*
X65001Y133999D01*
X64999Y133999D01*
X64999Y135000D01*
X64990Y135064D01*
X64991Y135128D01*
X64970Y135203D01*
X64959Y135279D01*
X64933Y135338D01*
X64916Y135400D01*
X64875Y135466D01*
X64843Y135536D01*
X64801Y135585D01*
X64768Y135640D01*
X64710Y135692D01*
X64660Y135750D01*
X64606Y135786D01*
X64558Y135829D01*
X64489Y135862D01*
X64424Y135905D01*
X64362Y135924D01*
X64304Y135952D01*
X64235Y135962D01*
X64154Y135987D01*
X64069Y135988D01*
X64000Y135999D01*
X46209Y135999D01*
X46209Y142093D01*
X46431Y143207D01*
X46865Y144256D01*
X46992Y144445D01*
X47024Y144513D01*
X47066Y144576D01*
X47085Y144639D01*
X47114Y144699D01*
X47126Y144774D01*
X47148Y144846D01*
X47149Y144912D01*
X47160Y144977D01*
X47151Y145052D01*
X47152Y145128D01*
X47134Y145192D01*
X47126Y145257D01*
X47097Y145327D01*
X47077Y145400D01*
X47042Y145456D01*
X47016Y145517D01*
X46968Y145575D01*
X46928Y145640D01*
X46879Y145684D01*
X46837Y145735D01*
X46775Y145778D01*
X46719Y145829D01*
X46660Y145858D01*
X46605Y145895D01*
X46533Y145919D01*
X46465Y145952D01*
X46405Y145961D01*
X46337Y145984D01*
X46239Y145987D01*
X46161Y145999D01*
X-46161Y145999D01*
X-46236Y145989D01*
X-46311Y145988D01*
X-46374Y145969D01*
X-46440Y145959D01*
X-46509Y145928D01*
X-46581Y145907D01*
X-46637Y145870D01*
X-46697Y145843D01*
X-46754Y145794D01*
X-46818Y145753D01*
X-46861Y145703D01*
X-46911Y145660D01*
X-46953Y145597D01*
X-47002Y145539D01*
X-47029Y145479D01*
X-47066Y145424D01*
X-47088Y145352D01*
X-47119Y145283D01*
X-47129Y145217D01*
X-47148Y145154D01*
X-47149Y145079D01*
X-47160Y145004D01*
X-47151Y144938D01*
X-47152Y144872D01*
X-47132Y144799D01*
X-47121Y144725D01*
X-47096Y144669D01*
X-47077Y144600D01*
X-47025Y144516D01*
X-46992Y144445D01*
X-46865Y144256D01*
X-46431Y143207D01*
X-46209Y142093D01*
X-46209Y135999D01*
X-64000Y135999D01*
X-64064Y135990D01*
X-64128Y135991D01*
X-64202Y135970D01*
X-64279Y135959D01*
X-64338Y135933D01*
X-64400Y135916D01*
X-64466Y135875D01*
X-64536Y135843D01*
X-64585Y135801D01*
X-64640Y135768D01*
X-64691Y135710D01*
X-64750Y135660D01*
X-64786Y135606D01*
X-64829Y135558D01*
X-64862Y135489D01*
X-64905Y135424D01*
X-64924Y135362D01*
X-64952Y135305D01*
X-64962Y135235D01*
X-64987Y135154D01*
X-64988Y135069D01*
X-64999Y135000D01*
X-64999Y133999D01*
X-65001Y133999D01*
X-65001Y135000D01*
X-65010Y135064D01*
X-65009Y135128D01*
X-65030Y135203D01*
X-65041Y135279D01*
X-65067Y135338D01*
X-65084Y135400D01*
X-65125Y135466D01*
X-65157Y135536D01*
X-65199Y135585D01*
X-65232Y135640D01*
X-65290Y135692D01*
X-65340Y135750D01*
X-65394Y135786D01*
X-65442Y135829D01*
X-65511Y135862D01*
X-65576Y135905D01*
X-65638Y135924D01*
X-65696Y135952D01*
X-65765Y135962D01*
X-65846Y135987D01*
X-65931Y135988D01*
X-66000Y135999D01*
X-83791Y135999D01*
X-83791Y142093D01*
X-83569Y143207D01*
X-83135Y144256D01*
X-83008Y144445D01*
X-82976Y144513D01*
X-82934Y144576D01*
X-82915Y144639D01*
X-82886Y144699D01*
X-82874Y144774D01*
X-82852Y144846D01*
X-82851Y144912D01*
X-82840Y144977D01*
X-82849Y145052D01*
X-82848Y145128D01*
X-82866Y145192D01*
X-82874Y145257D01*
X-82903Y145327D01*
X-82923Y145400D01*
X-82958Y145456D01*
X-82984Y145517D01*
X-83032Y145575D01*
X-83072Y145640D01*
X-83121Y145684D01*
X-83163Y145735D01*
X-83225Y145778D01*
X-83281Y145829D01*
X-83340Y145858D01*
X-83395Y145895D01*
X-83467Y145919D01*
X-83535Y145952D01*
X-83595Y145961D01*
X-83663Y145984D01*
X-83761Y145987D01*
X-83839Y145999D01*
X-135000Y145999D01*
X-135046Y145993D01*
X-135087Y145995D01*
X-136824Y145844D01*
X-136918Y145822D01*
X-136995Y145813D01*
X-138679Y145362D01*
X-138768Y145324D01*
X-138843Y145303D01*
X-140422Y144566D01*
X-140503Y144513D01*
X-140573Y144479D01*
X-142001Y143479D01*
X-142072Y143413D01*
X-142134Y143367D01*
X-143367Y142134D01*
X-143425Y142057D01*
X-143479Y142001D01*
X-144479Y140573D01*
X-144523Y140487D01*
X-144566Y140422D01*
X-144663Y140214D01*
X-145129Y139215D01*
X-145129Y139214D01*
X-145303Y138843D01*
X-145331Y138750D01*
X-145362Y138679D01*
X-145813Y136995D01*
X-145818Y136953D01*
X-145820Y136946D01*
X-145821Y136935D01*
X-145825Y136899D01*
X-145844Y136824D01*
X-145995Y135087D01*
X-145993Y135041D01*
X-145999Y135000D01*
X-145999Y105044D01*
X-146140Y103438D01*
X-146546Y101923D01*
X-146863Y101243D01*
X-147208Y100502D01*
X-148108Y99217D01*
X-149217Y98108D01*
X-150502Y97208D01*
X-151923Y96546D01*
X-153438Y96140D01*
X-155044Y95999D01*
X-180000Y95999D01*
X-180046Y95993D01*
X-180087Y95995D01*
X-181824Y95844D01*
X-181918Y95822D01*
X-181995Y95813D01*
X-183679Y95362D01*
X-183768Y95324D01*
X-183843Y95303D01*
X-185422Y94566D01*
X-185503Y94513D01*
X-185573Y94479D01*
X-187001Y93479D01*
X-187072Y93413D01*
X-187134Y93367D01*
X-188367Y92134D01*
X-188425Y92057D01*
X-188479Y92001D01*
X-189479Y90573D01*
X-189523Y90487D01*
X-189566Y90422D01*
X-189646Y90252D01*
X-189646Y90251D01*
X-190303Y88843D01*
X-190331Y88750D01*
X-190362Y88679D01*
X-190813Y86995D01*
X-190825Y86899D01*
X-190844Y86824D01*
X-190995Y85087D01*
X-190993Y85041D01*
X-190999Y85000D01*
X-190999Y-85000D01*
X-190993Y-85046D01*
X-190995Y-85087D01*
X-190844Y-86824D01*
X-190822Y-86918D01*
X-190813Y-86995D01*
X-190362Y-88679D01*
X-190324Y-88768D01*
X-190303Y-88843D01*
X-189566Y-90422D01*
X-189513Y-90503D01*
X-189479Y-90573D01*
X-188479Y-92001D01*
X-188413Y-92072D01*
X-188367Y-92134D01*
X-187134Y-93367D01*
X-187057Y-93425D01*
X-187001Y-93479D01*
X-185573Y-94479D01*
X-185487Y-94523D01*
X-185422Y-94566D01*
X-183843Y-95303D01*
X-183750Y-95331D01*
X-183679Y-95362D01*
X-181995Y-95813D01*
X-181899Y-95825D01*
X-181824Y-95844D01*
X-180087Y-95995D01*
X-180041Y-95993D01*
X-180000Y-95999D01*
X-150044Y-95999D01*
X-148438Y-96140D01*
X-146923Y-96546D01*
X-145501Y-97208D01*
X-144573Y-97859D01*
X-144571Y-97860D01*
X-144569Y-97861D01*
X-144546Y-97873D01*
X-144496Y-97897D01*
X-144424Y-97945D01*
X-144371Y-97961D01*
X-144322Y-97986D01*
X-144237Y-98002D01*
X-144154Y-98027D01*
X-144099Y-98028D01*
X-144044Y-98038D01*
X-143959Y-98030D01*
X-143872Y-98031D01*
X-143819Y-98016D01*
X-143764Y-98011D01*
X-143684Y-97979D01*
X-143600Y-97956D01*
X-143553Y-97927D01*
X-143502Y-97906D01*
X-143434Y-97853D01*
X-143360Y-97808D01*
X-143323Y-97767D01*
X-143280Y-97733D01*
X-143252Y-97694D01*
X-143250Y-97692D01*
X-143240Y-97677D01*
X-143229Y-97662D01*
X-143171Y-97598D01*
X-143147Y-97549D01*
X-143115Y-97504D01*
X-143101Y-97466D01*
X-143095Y-97456D01*
X-143083Y-97416D01*
X-143048Y-97345D01*
X-143040Y-97294D01*
X-143021Y-97238D01*
X-143019Y-97206D01*
X-143013Y-97186D01*
X-143012Y-97110D01*
X-143001Y-97040D01*
X-143001Y-82107D01*
X-141935Y-79534D01*
X-134833Y-72433D01*
X-134776Y-72356D01*
X-134711Y-72285D01*
X-134691Y-72244D01*
X-134664Y-72207D01*
X-134630Y-72117D01*
X-134588Y-72031D01*
X-134582Y-71989D01*
X-134565Y-71943D01*
X-134555Y-71816D01*
X-134541Y-71726D01*
X-134541Y-70602D01*
X-133088Y-67096D01*
X-130404Y-64412D01*
X-126898Y-62959D01*
X-124359Y-62959D01*
X-124265Y-62946D01*
X-124168Y-62941D01*
X-124125Y-62926D01*
X-124080Y-62919D01*
X-123993Y-62880D01*
X-123902Y-62848D01*
X-123868Y-62823D01*
X-123823Y-62803D01*
X-123726Y-62720D01*
X-123653Y-62667D01*
X-119733Y-58747D01*
X-119720Y-58729D01*
X-119711Y-58721D01*
X-119706Y-58714D01*
X-119689Y-58700D01*
X-119629Y-58608D01*
X-119564Y-58521D01*
X-119552Y-58491D01*
X-119535Y-58464D01*
X-119503Y-58359D01*
X-119464Y-58257D01*
X-119462Y-58225D01*
X-119452Y-58194D01*
X-119451Y-58085D01*
X-119442Y-57976D01*
X-119449Y-57944D01*
X-119448Y-57912D01*
X-119478Y-57807D01*
X-119500Y-57700D01*
X-119515Y-57671D01*
X-119524Y-57640D01*
X-119581Y-57547D01*
X-119632Y-57451D01*
X-119655Y-57428D01*
X-119672Y-57400D01*
X-119753Y-57327D01*
X-119829Y-57249D01*
X-119857Y-57233D01*
X-119881Y-57211D01*
X-119979Y-57164D01*
X-120074Y-57110D01*
X-120106Y-57102D01*
X-120135Y-57088D01*
X-120224Y-57074D01*
X-120349Y-57045D01*
X-120397Y-57047D01*
X-120439Y-57041D01*
X-133369Y-57041D01*
X-134541Y-55869D01*
X-134541Y-39131D01*
X-133369Y-37959D01*
X-116631Y-37959D01*
X-115459Y-39131D01*
X-115459Y-52061D01*
X-115455Y-52093D01*
X-115457Y-52125D01*
X-115435Y-52232D01*
X-115419Y-52340D01*
X-115406Y-52369D01*
X-115400Y-52401D01*
X-115348Y-52497D01*
X-115303Y-52597D01*
X-115282Y-52621D01*
X-115267Y-52650D01*
X-115191Y-52728D01*
X-115120Y-52811D01*
X-115093Y-52829D01*
X-115070Y-52852D01*
X-114975Y-52906D01*
X-114884Y-52965D01*
X-114853Y-52975D01*
X-114825Y-52991D01*
X-114718Y-53016D01*
X-114614Y-53048D01*
X-114582Y-53048D01*
X-114551Y-53056D01*
X-114441Y-53050D01*
X-114332Y-53052D01*
X-114301Y-53043D01*
X-114269Y-53041D01*
X-114166Y-53006D01*
X-114060Y-52976D01*
X-114033Y-52959D01*
X-114002Y-52949D01*
X-113929Y-52896D01*
X-113820Y-52828D01*
X-113788Y-52792D01*
X-113753Y-52767D01*
X-105228Y-44241D01*
X-103399Y-42413D01*
X-101194Y-41499D01*
X117094Y-41499D01*
X117189Y-41486D01*
X117285Y-41481D01*
X117328Y-41466D01*
X117373Y-41459D01*
X117461Y-41420D01*
X117552Y-41388D01*
X117586Y-41363D01*
X117630Y-41343D01*
X117728Y-41260D01*
X117801Y-41207D01*
X119596Y-39412D01*
X123102Y-37959D01*
X126898Y-37959D01*
X130404Y-39412D01*
X133088Y-42096D01*
X134541Y-45602D01*
X134541Y-49398D01*
X133088Y-52904D01*
X130404Y-55588D01*
X126898Y-57041D01*
X123102Y-57041D01*
X119596Y-55588D01*
X117801Y-53793D01*
X117724Y-53736D01*
X117653Y-53671D01*
X117612Y-53651D01*
X117575Y-53624D01*
X117485Y-53590D01*
X117399Y-53548D01*
X117357Y-53542D01*
X117311Y-53525D01*
X117184Y-53515D01*
X117094Y-53501D01*
X-97101Y-53501D01*
X-97195Y-53514D01*
X-97292Y-53519D01*
X-97335Y-53534D01*
X-97380Y-53541D01*
X-97467Y-53580D01*
X-97558Y-53612D01*
X-97593Y-53637D01*
X-97637Y-53657D01*
X-97734Y-53740D01*
X-97807Y-53793D01*
X-115167Y-71153D01*
X-115224Y-71230D01*
X-115289Y-71301D01*
X-115309Y-71342D01*
X-115336Y-71378D01*
X-115370Y-71469D01*
X-115412Y-71555D01*
X-115418Y-71597D01*
X-115435Y-71642D01*
X-115445Y-71770D01*
X-115459Y-71859D01*
X-115459Y-74398D01*
X-116912Y-77904D01*
X-119596Y-80588D01*
X-123102Y-82041D01*
X-124226Y-82041D01*
X-124321Y-82054D01*
X-124417Y-82059D01*
X-124461Y-82074D01*
X-124506Y-82081D01*
X-124593Y-82120D01*
X-124684Y-82152D01*
X-124718Y-82177D01*
X-124762Y-82197D01*
X-124860Y-82280D01*
X-124933Y-82333D01*
X-128707Y-86107D01*
X-128764Y-86184D01*
X-128829Y-86255D01*
X-128849Y-86296D01*
X-128876Y-86333D01*
X-128910Y-86423D01*
X-128952Y-86509D01*
X-128958Y-86551D01*
X-128975Y-86597D01*
X-128985Y-86724D01*
X-128999Y-86814D01*
X-128999Y-107000D01*
X-128990Y-107064D01*
X-128991Y-107128D01*
X-128970Y-107203D01*
X-128959Y-107279D01*
X-128933Y-107338D01*
X-128916Y-107400D01*
X-128875Y-107466D01*
X-128843Y-107536D01*
X-128801Y-107585D01*
X-128768Y-107640D01*
X-128710Y-107692D01*
X-128660Y-107750D01*
X-128606Y-107786D01*
X-128558Y-107829D01*
X-128489Y-107862D01*
X-128424Y-107905D01*
X-128362Y-107924D01*
X-128305Y-107952D01*
X-128235Y-107963D01*
X-128196Y-107975D01*
X-126999Y-109171D01*
X-126999Y-120829D01*
X-128171Y-122001D01*
X-140000Y-122001D01*
X-140064Y-122010D01*
X-140128Y-122009D01*
X-140203Y-122030D01*
X-140279Y-122041D01*
X-140338Y-122067D01*
X-140400Y-122084D01*
X-140466Y-122125D01*
X-140536Y-122157D01*
X-140585Y-122199D01*
X-140640Y-122232D01*
X-140692Y-122290D01*
X-140750Y-122340D01*
X-140786Y-122394D01*
X-140829Y-122442D01*
X-140862Y-122511D01*
X-140905Y-122576D01*
X-140924Y-122638D01*
X-140952Y-122695D01*
X-140963Y-122765D01*
X-140987Y-122846D01*
X-140988Y-122931D01*
X-140999Y-123000D01*
X-140999Y-130000D01*
X-140993Y-130046D01*
X-140995Y-130087D01*
X-140844Y-131824D01*
X-140822Y-131918D01*
X-140813Y-131995D01*
X-140362Y-133679D01*
X-140324Y-133768D01*
X-140303Y-133843D01*
X-139566Y-135422D01*
X-139513Y-135503D01*
X-139479Y-135573D01*
X-138479Y-137001D01*
X-138413Y-137072D01*
X-138367Y-137134D01*
X-137134Y-138367D01*
X-137057Y-138425D01*
X-137001Y-138479D01*
X-135573Y-139479D01*
X-135487Y-139523D01*
X-135422Y-139566D01*
X-133843Y-140303D01*
X-133750Y-140331D01*
X-133679Y-140362D01*
X-131995Y-140813D01*
X-131899Y-140825D01*
X-131824Y-140844D01*
X-130087Y-140995D01*
X-130041Y-140993D01*
X-130000Y-140999D01*
X135000Y-140999D01*
X135046Y-140993D01*
G37*
%LPC*%
G36*
X-94385Y23079D02*
X-94385Y23079D01*
X-100021Y28715D01*
X-100021Y36685D01*
X-94385Y42321D01*
X-89679Y42321D01*
X-89585Y42334D01*
X-89488Y42339D01*
X-89445Y42354D01*
X-89400Y42361D01*
X-89313Y42400D01*
X-89222Y42432D01*
X-89187Y42457D01*
X-89143Y42477D01*
X-89046Y42560D01*
X-88973Y42613D01*
X-74199Y57387D01*
X-71994Y58301D01*
X-22000Y58301D01*
X-21936Y58310D01*
X-21872Y58309D01*
X-21797Y58330D01*
X-21721Y58341D01*
X-21662Y58367D01*
X-21600Y58384D01*
X-21534Y58425D01*
X-21464Y58457D01*
X-21415Y58499D01*
X-21360Y58532D01*
X-21308Y58590D01*
X-21250Y58640D01*
X-21214Y58694D01*
X-21171Y58742D01*
X-21138Y58811D01*
X-21095Y58876D01*
X-21076Y58938D01*
X-21048Y58995D01*
X-21037Y59065D01*
X-21013Y59146D01*
X-21012Y59231D01*
X-21001Y59300D01*
X-21001Y80000D01*
X-21010Y80064D01*
X-21009Y80128D01*
X-21030Y80203D01*
X-21041Y80279D01*
X-21067Y80338D01*
X-21084Y80400D01*
X-21125Y80466D01*
X-21157Y80536D01*
X-21199Y80585D01*
X-21232Y80640D01*
X-21290Y80692D01*
X-21340Y80750D01*
X-21394Y80786D01*
X-21442Y80829D01*
X-21511Y80862D01*
X-21576Y80905D01*
X-21638Y80924D01*
X-21695Y80952D01*
X-21765Y80963D01*
X-21846Y80987D01*
X-21931Y80988D01*
X-22000Y80999D01*
X-24829Y80999D01*
X-25965Y82136D01*
X-26016Y82174D01*
X-26061Y82220D01*
X-26129Y82258D01*
X-26191Y82305D01*
X-26251Y82327D01*
X-26307Y82359D01*
X-26382Y82377D01*
X-26454Y82404D01*
X-26518Y82409D01*
X-26581Y82424D01*
X-26659Y82420D01*
X-26736Y82426D01*
X-26798Y82413D01*
X-26863Y82410D01*
X-26936Y82384D01*
X-27012Y82369D01*
X-27069Y82338D01*
X-27129Y82317D01*
X-27186Y82276D01*
X-27261Y82236D01*
X-27322Y82177D01*
X-27378Y82136D01*
X-34957Y74557D01*
X-34999Y74501D01*
X-35000Y74499D01*
X-35004Y74494D01*
X-35014Y74480D01*
X-35079Y74409D01*
X-35099Y74368D01*
X-35126Y74332D01*
X-35147Y74275D01*
X-35155Y74263D01*
X-35165Y74232D01*
X-35202Y74155D01*
X-35208Y74113D01*
X-35225Y74068D01*
X-35229Y74021D01*
X-35237Y73994D01*
X-35238Y73921D01*
X-35249Y73851D01*
X-35249Y65840D01*
X-37840Y63249D01*
X-46160Y63249D01*
X-48751Y65840D01*
X-48751Y86160D01*
X-46160Y88751D01*
X-38149Y88751D01*
X-38055Y88764D01*
X-37958Y88769D01*
X-37915Y88784D01*
X-37870Y88791D01*
X-37783Y88830D01*
X-37692Y88862D01*
X-37657Y88887D01*
X-37613Y88907D01*
X-37516Y88990D01*
X-37443Y89043D01*
X-30399Y96087D01*
X-28194Y97001D01*
X-27000Y97001D01*
X-26936Y97010D01*
X-26872Y97009D01*
X-26797Y97030D01*
X-26721Y97041D01*
X-26662Y97067D01*
X-26600Y97084D01*
X-26534Y97125D01*
X-26464Y97157D01*
X-26415Y97199D01*
X-26360Y97232D01*
X-26308Y97290D01*
X-26250Y97340D01*
X-26214Y97394D01*
X-26171Y97442D01*
X-26138Y97511D01*
X-26095Y97576D01*
X-26076Y97638D01*
X-26048Y97695D01*
X-26037Y97765D01*
X-26013Y97846D01*
X-26012Y97931D01*
X-26001Y98000D01*
X-26001Y99829D01*
X-24829Y101001D01*
X-5171Y101001D01*
X-3999Y99829D01*
X-3999Y82171D01*
X-5171Y80999D01*
X-8000Y80999D01*
X-8064Y80990D01*
X-8128Y80991D01*
X-8203Y80970D01*
X-8279Y80959D01*
X-8338Y80933D01*
X-8400Y80916D01*
X-8466Y80875D01*
X-8536Y80843D01*
X-8585Y80801D01*
X-8640Y80768D01*
X-8692Y80710D01*
X-8750Y80660D01*
X-8786Y80606D01*
X-8829Y80558D01*
X-8862Y80489D01*
X-8905Y80424D01*
X-8924Y80362D01*
X-8952Y80305D01*
X-8963Y80235D01*
X-8987Y80154D01*
X-8988Y80069D01*
X-8999Y80000D01*
X-8999Y55199D01*
X-8986Y55105D01*
X-8981Y55008D01*
X-8966Y54965D01*
X-8959Y54920D01*
X-8920Y54833D01*
X-8888Y54742D01*
X-8863Y54707D01*
X-8843Y54663D01*
X-8760Y54566D01*
X-8707Y54493D01*
X6334Y39453D01*
X6385Y39414D01*
X6430Y39368D01*
X6497Y39330D01*
X6559Y39283D01*
X6619Y39261D01*
X6675Y39229D01*
X6751Y39211D01*
X6823Y39184D01*
X6887Y39179D01*
X6950Y39164D01*
X7027Y39168D01*
X7104Y39162D01*
X7167Y39175D01*
X7231Y39178D01*
X7305Y39204D01*
X7380Y39220D01*
X7437Y39250D01*
X7498Y39271D01*
X7555Y39312D01*
X7629Y39352D01*
X7690Y39411D01*
X7747Y39453D01*
X10615Y42321D01*
X18585Y42321D01*
X24221Y36685D01*
X24221Y28715D01*
X18585Y23079D01*
X10615Y23079D01*
X7288Y26407D01*
X7211Y26464D01*
X7139Y26529D01*
X7098Y26549D01*
X7062Y26576D01*
X6972Y26610D01*
X6886Y26652D01*
X6844Y26658D01*
X6798Y26675D01*
X6671Y26685D01*
X6581Y26699D01*
X3406Y26699D01*
X1201Y27613D01*
X-17193Y46007D01*
X-17270Y46064D01*
X-17341Y46129D01*
X-17382Y46149D01*
X-17418Y46176D01*
X-17509Y46210D01*
X-17595Y46252D01*
X-17637Y46258D01*
X-17682Y46275D01*
X-17810Y46285D01*
X-17899Y46299D01*
X-67901Y46299D01*
X-67995Y46286D01*
X-68092Y46281D01*
X-68135Y46266D01*
X-68180Y46259D01*
X-68267Y46220D01*
X-68358Y46188D01*
X-68393Y46163D01*
X-68437Y46143D01*
X-68534Y46060D01*
X-68607Y46007D01*
X-80487Y34127D01*
X-80544Y34050D01*
X-80609Y33979D01*
X-80629Y33938D01*
X-80656Y33902D01*
X-80690Y33811D01*
X-80732Y33725D01*
X-80738Y33683D01*
X-80755Y33638D01*
X-80765Y33510D01*
X-80779Y33421D01*
X-80779Y28715D01*
X-86415Y23079D01*
X-94385Y23079D01*
G37*
%LPD*%
%LPC*%
G36*
X-103329Y-133001D02*
X-103329Y-133001D01*
X-104793Y-131536D01*
X-104819Y-131517D01*
X-104840Y-131492D01*
X-104867Y-131474D01*
X-104890Y-131451D01*
X-104957Y-131413D01*
X-105019Y-131367D01*
X-105049Y-131355D01*
X-105076Y-131338D01*
X-105107Y-131328D01*
X-105135Y-131312D01*
X-105211Y-131294D01*
X-105283Y-131267D01*
X-105315Y-131265D01*
X-105346Y-131255D01*
X-105378Y-131255D01*
X-105410Y-131247D01*
X-105487Y-131251D01*
X-105564Y-131245D01*
X-105595Y-131252D01*
X-105628Y-131252D01*
X-105659Y-131260D01*
X-105691Y-131262D01*
X-105765Y-131287D01*
X-105840Y-131303D01*
X-105868Y-131318D01*
X-105900Y-131327D01*
X-105927Y-131344D01*
X-105958Y-131354D01*
X-106015Y-131396D01*
X-106089Y-131436D01*
X-106112Y-131458D01*
X-106140Y-131475D01*
X-106163Y-131501D01*
X-121829Y-131501D01*
X-123001Y-130329D01*
X-123001Y-118671D01*
X-121829Y-117499D01*
X-106167Y-117499D01*
X-106160Y-117508D01*
X-106133Y-117526D01*
X-106110Y-117549D01*
X-106043Y-117587D01*
X-105981Y-117633D01*
X-105951Y-117645D01*
X-105924Y-117662D01*
X-105893Y-117672D01*
X-105865Y-117688D01*
X-105790Y-117705D01*
X-105717Y-117733D01*
X-105685Y-117735D01*
X-105654Y-117745D01*
X-105622Y-117745D01*
X-105591Y-117753D01*
X-105514Y-117749D01*
X-105436Y-117755D01*
X-105404Y-117748D01*
X-105372Y-117748D01*
X-105341Y-117740D01*
X-105309Y-117738D01*
X-105236Y-117713D01*
X-105160Y-117697D01*
X-105131Y-117682D01*
X-105100Y-117673D01*
X-105073Y-117656D01*
X-105042Y-117646D01*
X-104986Y-117605D01*
X-104911Y-117565D01*
X-104888Y-117542D01*
X-104860Y-117525D01*
X-104828Y-117489D01*
X-104793Y-117464D01*
X-103271Y-115941D01*
X-103239Y-115898D01*
X-103199Y-115862D01*
X-103154Y-115786D01*
X-103101Y-115716D01*
X-103083Y-115666D01*
X-103055Y-115619D01*
X-103033Y-115534D01*
X-103002Y-115452D01*
X-102998Y-115398D01*
X-102984Y-115346D01*
X-102987Y-115258D01*
X-102980Y-115171D01*
X-102991Y-115118D01*
X-102993Y-115065D01*
X-103020Y-114981D01*
X-103038Y-114895D01*
X-103063Y-114847D01*
X-103079Y-114796D01*
X-103129Y-114723D01*
X-103170Y-114646D01*
X-103208Y-114607D01*
X-103238Y-114563D01*
X-103299Y-114514D01*
X-103367Y-114444D01*
X-103430Y-114408D01*
X-103478Y-114369D01*
X-104060Y-114033D01*
X-104533Y-113560D01*
X-104705Y-113263D01*
X-104744Y-113212D01*
X-104776Y-113156D01*
X-104831Y-113102D01*
X-104879Y-113041D01*
X-104931Y-113003D01*
X-104977Y-112958D01*
X-105045Y-112921D01*
X-105108Y-112876D01*
X-105169Y-112855D01*
X-105225Y-112824D01*
X-105301Y-112808D01*
X-105374Y-112782D01*
X-105438Y-112779D01*
X-105501Y-112765D01*
X-105578Y-112771D01*
X-105656Y-112767D01*
X-105718Y-112781D01*
X-105782Y-112786D01*
X-105848Y-112811D01*
X-105930Y-112830D01*
X-105977Y-112856D01*
X-106665Y-113041D01*
X-112001Y-113041D01*
X-112001Y-107499D01*
X-96000Y-107499D01*
X-95936Y-107490D01*
X-95872Y-107491D01*
X-95798Y-107470D01*
X-95721Y-107459D01*
X-95662Y-107433D01*
X-95600Y-107416D01*
X-95534Y-107375D01*
X-95464Y-107343D01*
X-95415Y-107301D01*
X-95360Y-107268D01*
X-95309Y-107210D01*
X-95250Y-107160D01*
X-95214Y-107106D01*
X-95171Y-107058D01*
X-95138Y-106989D01*
X-95095Y-106924D01*
X-95076Y-106862D01*
X-95048Y-106805D01*
X-95038Y-106735D01*
X-95013Y-106654D01*
X-95012Y-106569D01*
X-95001Y-106500D01*
X-95001Y-105499D01*
X-94000Y-105499D01*
X-93936Y-105490D01*
X-93872Y-105491D01*
X-93797Y-105470D01*
X-93721Y-105459D01*
X-93662Y-105433D01*
X-93600Y-105416D01*
X-93534Y-105375D01*
X-93464Y-105343D01*
X-93415Y-105301D01*
X-93360Y-105268D01*
X-93308Y-105210D01*
X-93250Y-105160D01*
X-93214Y-105106D01*
X-93171Y-105058D01*
X-93138Y-104989D01*
X-93095Y-104924D01*
X-93076Y-104862D01*
X-93048Y-104804D01*
X-93038Y-104735D01*
X-93013Y-104654D01*
X-93012Y-104569D01*
X-93001Y-104500D01*
X-93001Y-96459D01*
X-87165Y-96459D01*
X-86519Y-96632D01*
X-85940Y-96967D01*
X-85449Y-97458D01*
X-85438Y-97478D01*
X-85377Y-97541D01*
X-85323Y-97610D01*
X-85279Y-97641D01*
X-85242Y-97680D01*
X-85165Y-97723D01*
X-85094Y-97775D01*
X-85043Y-97792D01*
X-84996Y-97819D01*
X-84911Y-97839D01*
X-84828Y-97868D01*
X-84774Y-97872D01*
X-84722Y-97884D01*
X-84634Y-97879D01*
X-84546Y-97884D01*
X-84494Y-97872D01*
X-84440Y-97870D01*
X-84357Y-97841D01*
X-84271Y-97821D01*
X-84225Y-97795D01*
X-84174Y-97777D01*
X-84110Y-97731D01*
X-84025Y-97683D01*
X-83975Y-97632D01*
X-83925Y-97595D01*
X-83329Y-96999D01*
X-66671Y-96999D01*
X-65499Y-98171D01*
X-65499Y-100000D01*
X-65490Y-100064D01*
X-65491Y-100128D01*
X-65470Y-100203D01*
X-65459Y-100279D01*
X-65433Y-100338D01*
X-65416Y-100400D01*
X-65375Y-100466D01*
X-65343Y-100536D01*
X-65301Y-100585D01*
X-65268Y-100640D01*
X-65210Y-100692D01*
X-65160Y-100750D01*
X-65106Y-100786D01*
X-65058Y-100829D01*
X-64989Y-100862D01*
X-64924Y-100905D01*
X-64862Y-100924D01*
X-64805Y-100952D01*
X-64735Y-100963D01*
X-64654Y-100987D01*
X-64569Y-100988D01*
X-64500Y-100999D01*
X-20278Y-100999D01*
X-20183Y-100986D01*
X-20087Y-100981D01*
X-20044Y-100966D01*
X-19999Y-100959D01*
X-19911Y-100920D01*
X-19821Y-100888D01*
X-19786Y-100863D01*
X-19742Y-100843D01*
X-19645Y-100760D01*
X-19572Y-100707D01*
X2861Y-78274D01*
X2867Y-78266D01*
X2875Y-78260D01*
X2952Y-78153D01*
X3031Y-78048D01*
X3034Y-78039D01*
X3040Y-78031D01*
X3084Y-77908D01*
X3130Y-77784D01*
X3131Y-77775D01*
X3134Y-77766D01*
X3142Y-77634D01*
X3152Y-77503D01*
X3150Y-77494D01*
X3151Y-77484D01*
X3132Y-77409D01*
X3094Y-77227D01*
X3083Y-77206D01*
X3078Y-77185D01*
X2959Y-76898D01*
X2959Y-73102D01*
X4412Y-69596D01*
X7096Y-66912D01*
X10602Y-65459D01*
X14398Y-65459D01*
X17904Y-66912D01*
X20588Y-69596D01*
X22041Y-73102D01*
X22041Y-76898D01*
X20588Y-80404D01*
X17904Y-83088D01*
X14398Y-84541D01*
X10602Y-84541D01*
X10315Y-84422D01*
X10306Y-84420D01*
X10298Y-84415D01*
X10169Y-84384D01*
X10042Y-84352D01*
X10033Y-84352D01*
X10024Y-84350D01*
X9891Y-84357D01*
X9760Y-84361D01*
X9751Y-84364D01*
X9742Y-84364D01*
X9617Y-84408D01*
X9492Y-84448D01*
X9484Y-84454D01*
X9475Y-84457D01*
X9413Y-84502D01*
X9259Y-84607D01*
X9244Y-84626D01*
X9226Y-84639D01*
X-13207Y-107072D01*
X-16136Y-110001D01*
X-64500Y-110001D01*
X-64564Y-110010D01*
X-64628Y-110009D01*
X-64703Y-110030D01*
X-64779Y-110041D01*
X-64838Y-110067D01*
X-64900Y-110084D01*
X-64966Y-110125D01*
X-65036Y-110157D01*
X-65085Y-110199D01*
X-65140Y-110232D01*
X-65192Y-110290D01*
X-65250Y-110340D01*
X-65286Y-110394D01*
X-65329Y-110442D01*
X-65362Y-110511D01*
X-65405Y-110576D01*
X-65424Y-110638D01*
X-65452Y-110695D01*
X-65463Y-110765D01*
X-65487Y-110846D01*
X-65488Y-110931D01*
X-65499Y-111000D01*
X-65499Y-112829D01*
X-66671Y-114001D01*
X-83329Y-114001D01*
X-83925Y-113405D01*
X-83968Y-113372D01*
X-84004Y-113333D01*
X-84080Y-113288D01*
X-84150Y-113235D01*
X-84201Y-113216D01*
X-84247Y-113189D01*
X-84332Y-113167D01*
X-84414Y-113136D01*
X-84468Y-113132D01*
X-84520Y-113118D01*
X-84608Y-113121D01*
X-84695Y-113114D01*
X-84748Y-113125D01*
X-84802Y-113127D01*
X-84885Y-113154D01*
X-84971Y-113172D01*
X-85019Y-113197D01*
X-85070Y-113213D01*
X-85143Y-113263D01*
X-85220Y-113304D01*
X-85259Y-113342D01*
X-85303Y-113372D01*
X-85352Y-113433D01*
X-85423Y-113501D01*
X-85442Y-113535D01*
X-85940Y-114033D01*
X-86522Y-114369D01*
X-86565Y-114402D01*
X-86612Y-114428D01*
X-86675Y-114489D01*
X-86744Y-114543D01*
X-86775Y-114587D01*
X-86814Y-114624D01*
X-86857Y-114701D01*
X-86909Y-114773D01*
X-86926Y-114823D01*
X-86953Y-114870D01*
X-86973Y-114956D01*
X-87002Y-115038D01*
X-87005Y-115092D01*
X-87018Y-115144D01*
X-87013Y-115232D01*
X-87018Y-115320D01*
X-87006Y-115372D01*
X-87003Y-115426D01*
X-86975Y-115509D01*
X-86955Y-115595D01*
X-86929Y-115642D01*
X-86911Y-115692D01*
X-86865Y-115756D01*
X-86817Y-115841D01*
X-86765Y-115892D01*
X-86729Y-115941D01*
X-85707Y-116964D01*
X-85655Y-117003D01*
X-85610Y-117049D01*
X-85543Y-117087D01*
X-85481Y-117133D01*
X-85421Y-117156D01*
X-85365Y-117188D01*
X-85289Y-117205D01*
X-85217Y-117233D01*
X-85153Y-117238D01*
X-85090Y-117253D01*
X-85013Y-117249D01*
X-84936Y-117255D01*
X-84873Y-117241D01*
X-84809Y-117238D01*
X-84736Y-117213D01*
X-84660Y-117197D01*
X-84603Y-117167D01*
X-84542Y-117146D01*
X-84486Y-117104D01*
X-84411Y-117064D01*
X-84350Y-117005D01*
X-84293Y-116964D01*
X-83329Y-115999D01*
X-66671Y-115999D01*
X-65499Y-117171D01*
X-65499Y-131829D01*
X-66671Y-133001D01*
X-83329Y-133001D01*
X-84293Y-132036D01*
X-84345Y-131997D01*
X-84390Y-131951D01*
X-84457Y-131913D01*
X-84519Y-131867D01*
X-84579Y-131844D01*
X-84635Y-131812D01*
X-84710Y-131795D01*
X-84783Y-131767D01*
X-84847Y-131762D01*
X-84909Y-131747D01*
X-84987Y-131751D01*
X-85064Y-131745D01*
X-85127Y-131759D01*
X-85191Y-131762D01*
X-85264Y-131787D01*
X-85340Y-131803D01*
X-85397Y-131833D01*
X-85458Y-131854D01*
X-85514Y-131896D01*
X-85589Y-131935D01*
X-85650Y-131995D01*
X-85707Y-132036D01*
X-86671Y-133001D01*
X-103329Y-133001D01*
G37*
%LPD*%
%LPC*%
G36*
X86519Y-133368D02*
X86519Y-133368D01*
X85940Y-133033D01*
X85449Y-132542D01*
X85438Y-132522D01*
X85377Y-132459D01*
X85323Y-132390D01*
X85279Y-132359D01*
X85242Y-132320D01*
X85165Y-132277D01*
X85094Y-132225D01*
X85043Y-132208D01*
X84996Y-132181D01*
X84911Y-132161D01*
X84828Y-132132D01*
X84774Y-132128D01*
X84722Y-132116D01*
X84634Y-132121D01*
X84546Y-132116D01*
X84494Y-132128D01*
X84440Y-132130D01*
X84357Y-132159D01*
X84271Y-132179D01*
X84225Y-132205D01*
X84174Y-132223D01*
X84110Y-132269D01*
X84025Y-132317D01*
X83975Y-132368D01*
X83925Y-132405D01*
X83329Y-133001D01*
X66671Y-133001D01*
X65499Y-131829D01*
X65499Y-130000D01*
X65490Y-129937D01*
X65491Y-129880D01*
X65491Y-129879D01*
X65491Y-129872D01*
X65470Y-129797D01*
X65459Y-129721D01*
X65433Y-129662D01*
X65416Y-129600D01*
X65375Y-129534D01*
X65343Y-129464D01*
X65301Y-129415D01*
X65268Y-129360D01*
X65210Y-129308D01*
X65160Y-129250D01*
X65106Y-129214D01*
X65058Y-129171D01*
X64989Y-129138D01*
X64924Y-129095D01*
X64862Y-129076D01*
X64805Y-129048D01*
X64735Y-129037D01*
X64654Y-129013D01*
X64569Y-129012D01*
X64500Y-129001D01*
X55136Y-129001D01*
X32999Y-106864D01*
X32999Y-84130D01*
X32998Y-84121D01*
X32999Y-84111D01*
X32978Y-83982D01*
X32959Y-83851D01*
X32956Y-83842D01*
X32954Y-83833D01*
X32897Y-83714D01*
X32843Y-83594D01*
X32837Y-83587D01*
X32833Y-83578D01*
X32745Y-83480D01*
X32660Y-83380D01*
X32652Y-83375D01*
X32646Y-83368D01*
X32580Y-83327D01*
X32424Y-83225D01*
X32401Y-83218D01*
X32382Y-83207D01*
X32096Y-83088D01*
X29412Y-80404D01*
X27959Y-76898D01*
X27959Y-73102D01*
X29412Y-69596D01*
X32096Y-66912D01*
X35602Y-65459D01*
X39398Y-65459D01*
X42904Y-66912D01*
X45588Y-69596D01*
X47041Y-73102D01*
X47041Y-76898D01*
X45588Y-80404D01*
X42904Y-83088D01*
X42618Y-83207D01*
X42609Y-83212D01*
X42600Y-83214D01*
X42488Y-83284D01*
X42375Y-83351D01*
X42368Y-83358D01*
X42360Y-83363D01*
X42272Y-83460D01*
X42182Y-83556D01*
X42178Y-83565D01*
X42171Y-83572D01*
X42114Y-83690D01*
X42054Y-83808D01*
X42052Y-83817D01*
X42048Y-83826D01*
X42036Y-83902D01*
X42002Y-84085D01*
X42004Y-84109D01*
X42001Y-84130D01*
X42001Y-102722D01*
X42014Y-102817D01*
X42019Y-102913D01*
X42034Y-102956D01*
X42041Y-103001D01*
X42080Y-103089D01*
X42112Y-103179D01*
X42137Y-103214D01*
X42157Y-103258D01*
X42240Y-103355D01*
X42293Y-103428D01*
X58572Y-119707D01*
X58648Y-119764D01*
X58720Y-119829D01*
X58761Y-119849D01*
X58797Y-119876D01*
X58887Y-119910D01*
X58974Y-119952D01*
X59016Y-119958D01*
X59061Y-119975D01*
X59189Y-119985D01*
X59278Y-119999D01*
X64500Y-119999D01*
X64564Y-119990D01*
X64628Y-119991D01*
X64703Y-119970D01*
X64779Y-119959D01*
X64838Y-119933D01*
X64900Y-119916D01*
X64966Y-119875D01*
X65036Y-119843D01*
X65085Y-119801D01*
X65140Y-119768D01*
X65192Y-119710D01*
X65250Y-119660D01*
X65286Y-119606D01*
X65329Y-119558D01*
X65362Y-119489D01*
X65405Y-119424D01*
X65424Y-119362D01*
X65452Y-119305D01*
X65463Y-119235D01*
X65487Y-119154D01*
X65488Y-119069D01*
X65499Y-119000D01*
X65499Y-117171D01*
X66671Y-115999D01*
X83329Y-115999D01*
X83925Y-116595D01*
X83968Y-116628D01*
X84004Y-116667D01*
X84080Y-116712D01*
X84150Y-116765D01*
X84201Y-116784D01*
X84247Y-116811D01*
X84332Y-116833D01*
X84414Y-116864D01*
X84468Y-116868D01*
X84520Y-116882D01*
X84608Y-116879D01*
X84695Y-116886D01*
X84748Y-116875D01*
X84802Y-116873D01*
X84885Y-116846D01*
X84971Y-116828D01*
X85019Y-116803D01*
X85070Y-116787D01*
X85143Y-116737D01*
X85220Y-116696D01*
X85259Y-116658D01*
X85303Y-116628D01*
X85352Y-116567D01*
X85423Y-116499D01*
X85442Y-116465D01*
X85940Y-115967D01*
X86522Y-115631D01*
X86564Y-115598D01*
X86612Y-115572D01*
X86675Y-115511D01*
X86744Y-115457D01*
X86775Y-115413D01*
X86814Y-115376D01*
X86857Y-115299D01*
X86909Y-115227D01*
X86926Y-115177D01*
X86953Y-115130D01*
X86973Y-115044D01*
X87002Y-114962D01*
X87005Y-114908D01*
X87018Y-114856D01*
X87013Y-114768D01*
X87018Y-114680D01*
X87006Y-114628D01*
X87004Y-114574D01*
X86975Y-114491D01*
X86955Y-114405D01*
X86929Y-114358D01*
X86911Y-114308D01*
X86865Y-114245D01*
X86817Y-114159D01*
X86765Y-114108D01*
X86729Y-114059D01*
X85707Y-113036D01*
X85655Y-112998D01*
X85610Y-112951D01*
X85543Y-112913D01*
X85481Y-112867D01*
X85421Y-112844D01*
X85365Y-112812D01*
X85290Y-112795D01*
X85217Y-112767D01*
X85153Y-112762D01*
X85091Y-112747D01*
X85013Y-112751D01*
X84936Y-112745D01*
X84873Y-112759D01*
X84809Y-112762D01*
X84736Y-112787D01*
X84660Y-112803D01*
X84603Y-112833D01*
X84542Y-112854D01*
X84486Y-112896D01*
X84411Y-112935D01*
X84350Y-112995D01*
X84293Y-113036D01*
X83329Y-114001D01*
X66671Y-114001D01*
X65499Y-112829D01*
X65499Y-98171D01*
X66671Y-96999D01*
X83329Y-96999D01*
X84293Y-97964D01*
X84345Y-98002D01*
X84390Y-98049D01*
X84457Y-98087D01*
X84519Y-98133D01*
X84579Y-98156D01*
X84635Y-98188D01*
X84710Y-98205D01*
X84783Y-98233D01*
X84847Y-98238D01*
X84910Y-98253D01*
X84987Y-98249D01*
X85064Y-98255D01*
X85127Y-98241D01*
X85191Y-98238D01*
X85264Y-98213D01*
X85340Y-98197D01*
X85397Y-98167D01*
X85458Y-98146D01*
X85514Y-98104D01*
X85589Y-98065D01*
X85650Y-98005D01*
X85707Y-97964D01*
X86671Y-96999D01*
X103329Y-96999D01*
X104793Y-98464D01*
X104819Y-98483D01*
X104840Y-98508D01*
X104867Y-98526D01*
X104890Y-98549D01*
X104957Y-98587D01*
X105019Y-98633D01*
X105049Y-98645D01*
X105076Y-98662D01*
X105107Y-98672D01*
X105135Y-98688D01*
X105211Y-98706D01*
X105283Y-98733D01*
X105315Y-98735D01*
X105346Y-98745D01*
X105378Y-98745D01*
X105410Y-98753D01*
X105487Y-98749D01*
X105564Y-98755D01*
X105595Y-98748D01*
X105628Y-98748D01*
X105659Y-98740D01*
X105691Y-98738D01*
X105765Y-98713D01*
X105840Y-98697D01*
X105868Y-98682D01*
X105900Y-98673D01*
X105927Y-98656D01*
X105958Y-98646D01*
X106015Y-98604D01*
X106089Y-98564D01*
X106112Y-98542D01*
X106140Y-98525D01*
X106163Y-98499D01*
X121829Y-98499D01*
X123001Y-99671D01*
X123001Y-111329D01*
X121829Y-112501D01*
X106167Y-112501D01*
X106160Y-112492D01*
X106133Y-112474D01*
X106110Y-112451D01*
X106043Y-112413D01*
X105981Y-112367D01*
X105951Y-112355D01*
X105924Y-112338D01*
X105893Y-112328D01*
X105865Y-112312D01*
X105790Y-112295D01*
X105717Y-112267D01*
X105685Y-112265D01*
X105654Y-112255D01*
X105622Y-112255D01*
X105591Y-112247D01*
X105514Y-112251D01*
X105436Y-112245D01*
X105404Y-112252D01*
X105372Y-112252D01*
X105341Y-112260D01*
X105309Y-112262D01*
X105236Y-112287D01*
X105160Y-112303D01*
X105131Y-112318D01*
X105100Y-112327D01*
X105073Y-112344D01*
X105042Y-112354D01*
X104986Y-112395D01*
X104911Y-112435D01*
X104888Y-112458D01*
X104860Y-112475D01*
X104828Y-112511D01*
X104793Y-112536D01*
X103271Y-114059D01*
X103239Y-114102D01*
X103199Y-114138D01*
X103154Y-114214D01*
X103101Y-114284D01*
X103083Y-114334D01*
X103055Y-114381D01*
X103033Y-114466D01*
X103002Y-114548D01*
X102998Y-114602D01*
X102984Y-114654D01*
X102987Y-114742D01*
X102980Y-114829D01*
X102991Y-114882D01*
X102993Y-114935D01*
X103020Y-115019D01*
X103038Y-115105D01*
X103063Y-115153D01*
X103079Y-115204D01*
X103129Y-115277D01*
X103170Y-115354D01*
X103208Y-115393D01*
X103238Y-115437D01*
X103299Y-115486D01*
X103367Y-115556D01*
X103430Y-115592D01*
X103478Y-115631D01*
X104060Y-115967D01*
X104533Y-116440D01*
X104705Y-116737D01*
X104744Y-116788D01*
X104776Y-116844D01*
X104831Y-116898D01*
X104879Y-116959D01*
X104931Y-116997D01*
X104977Y-117042D01*
X105045Y-117079D01*
X105108Y-117124D01*
X105169Y-117145D01*
X105225Y-117176D01*
X105301Y-117192D01*
X105374Y-117218D01*
X105438Y-117221D01*
X105501Y-117235D01*
X105578Y-117229D01*
X105656Y-117233D01*
X105718Y-117219D01*
X105782Y-117214D01*
X105848Y-117189D01*
X105930Y-117170D01*
X105977Y-117144D01*
X106665Y-116959D01*
X112001Y-116959D01*
X112001Y-122501D01*
X96000Y-122501D01*
X95936Y-122510D01*
X95872Y-122509D01*
X95798Y-122530D01*
X95721Y-122541D01*
X95662Y-122567D01*
X95600Y-122584D01*
X95534Y-122625D01*
X95464Y-122657D01*
X95415Y-122699D01*
X95360Y-122732D01*
X95309Y-122790D01*
X95250Y-122840D01*
X95214Y-122894D01*
X95171Y-122942D01*
X95138Y-123011D01*
X95095Y-123076D01*
X95076Y-123138D01*
X95048Y-123195D01*
X95038Y-123265D01*
X95013Y-123346D01*
X95012Y-123431D01*
X95001Y-123500D01*
X95001Y-124501D01*
X94000Y-124501D01*
X93936Y-124510D01*
X93872Y-124509D01*
X93797Y-124530D01*
X93721Y-124541D01*
X93662Y-124567D01*
X93600Y-124584D01*
X93534Y-124625D01*
X93464Y-124657D01*
X93415Y-124699D01*
X93360Y-124732D01*
X93308Y-124790D01*
X93250Y-124840D01*
X93214Y-124894D01*
X93171Y-124942D01*
X93138Y-125011D01*
X93095Y-125076D01*
X93076Y-125138D01*
X93048Y-125196D01*
X93038Y-125265D01*
X93013Y-125346D01*
X93012Y-125431D01*
X93001Y-125500D01*
X93001Y-133541D01*
X87165Y-133541D01*
X86519Y-133368D01*
G37*
%LPD*%
%LPC*%
G36*
X83840Y63249D02*
X83840Y63249D01*
X81249Y65840D01*
X81249Y86160D01*
X83840Y88751D01*
X91851Y88751D01*
X91945Y88764D01*
X92042Y88769D01*
X92085Y88784D01*
X92130Y88791D01*
X92217Y88830D01*
X92308Y88862D01*
X92343Y88887D01*
X92387Y88907D01*
X92484Y88990D01*
X92557Y89043D01*
X99601Y96087D01*
X101806Y97001D01*
X103000Y97001D01*
X103064Y97010D01*
X103128Y97009D01*
X103203Y97030D01*
X103279Y97041D01*
X103338Y97067D01*
X103400Y97084D01*
X103466Y97125D01*
X103536Y97157D01*
X103585Y97199D01*
X103640Y97232D01*
X103692Y97290D01*
X103750Y97340D01*
X103786Y97394D01*
X103829Y97442D01*
X103862Y97511D01*
X103905Y97576D01*
X103924Y97638D01*
X103952Y97695D01*
X103963Y97765D01*
X103987Y97846D01*
X103988Y97931D01*
X103999Y98000D01*
X103999Y99829D01*
X105171Y101001D01*
X124829Y101001D01*
X126001Y99829D01*
X126001Y82171D01*
X124829Y80999D01*
X122000Y80999D01*
X121936Y80990D01*
X121872Y80991D01*
X121797Y80970D01*
X121721Y80959D01*
X121662Y80933D01*
X121600Y80916D01*
X121534Y80875D01*
X121464Y80843D01*
X121415Y80801D01*
X121360Y80768D01*
X121308Y80710D01*
X121250Y80660D01*
X121214Y80606D01*
X121171Y80558D01*
X121138Y80489D01*
X121095Y80424D01*
X121076Y80362D01*
X121048Y80305D01*
X121037Y80235D01*
X121013Y80154D01*
X121012Y80069D01*
X121001Y80000D01*
X121001Y77783D01*
X121007Y77741D01*
X121004Y77700D01*
X121024Y77616D01*
X121041Y77503D01*
X121065Y77450D01*
X121077Y77400D01*
X121533Y76299D01*
X121533Y73701D01*
X120538Y71299D01*
X118701Y69462D01*
X116299Y68467D01*
X113701Y68467D01*
X111299Y69462D01*
X109462Y71299D01*
X108467Y73701D01*
X108467Y76299D01*
X108923Y77400D01*
X108934Y77441D01*
X108952Y77478D01*
X108965Y77563D01*
X108993Y77673D01*
X108991Y77732D01*
X108999Y77783D01*
X108999Y80000D01*
X108990Y80064D01*
X108991Y80128D01*
X108970Y80203D01*
X108959Y80279D01*
X108933Y80338D01*
X108916Y80400D01*
X108875Y80466D01*
X108843Y80536D01*
X108801Y80585D01*
X108768Y80640D01*
X108710Y80692D01*
X108660Y80750D01*
X108606Y80786D01*
X108558Y80829D01*
X108489Y80862D01*
X108424Y80905D01*
X108362Y80924D01*
X108305Y80952D01*
X108235Y80963D01*
X108154Y80987D01*
X108069Y80988D01*
X108000Y80999D01*
X105171Y80999D01*
X104035Y82136D01*
X103984Y82174D01*
X103939Y82220D01*
X103871Y82258D01*
X103809Y82305D01*
X103749Y82327D01*
X103693Y82359D01*
X103618Y82377D01*
X103546Y82404D01*
X103482Y82409D01*
X103419Y82424D01*
X103341Y82420D01*
X103264Y82426D01*
X103202Y82413D01*
X103137Y82410D01*
X103064Y82384D01*
X102988Y82369D01*
X102931Y82338D01*
X102871Y82317D01*
X102814Y82276D01*
X102739Y82236D01*
X102678Y82177D01*
X102622Y82136D01*
X95043Y74557D01*
X95001Y74501D01*
X95000Y74499D01*
X94996Y74494D01*
X94986Y74480D01*
X94921Y74409D01*
X94901Y74368D01*
X94874Y74332D01*
X94853Y74275D01*
X94845Y74263D01*
X94835Y74232D01*
X94798Y74155D01*
X94792Y74113D01*
X94775Y74068D01*
X94771Y74021D01*
X94763Y73994D01*
X94762Y73921D01*
X94751Y73851D01*
X94751Y65840D01*
X92160Y63249D01*
X83840Y63249D01*
G37*
%LPD*%
%LPC*%
G36*
X37840Y63249D02*
X37840Y63249D01*
X35249Y65840D01*
X35249Y73851D01*
X35240Y73913D01*
X35241Y73967D01*
X35233Y73996D01*
X35231Y74042D01*
X35216Y74085D01*
X35209Y74130D01*
X35175Y74206D01*
X35166Y74239D01*
X35158Y74253D01*
X35138Y74308D01*
X35113Y74343D01*
X35093Y74387D01*
X35027Y74464D01*
X35018Y74479D01*
X35005Y74490D01*
X34957Y74557D01*
X27378Y82136D01*
X27327Y82174D01*
X27282Y82220D01*
X27215Y82258D01*
X27153Y82305D01*
X27092Y82328D01*
X27037Y82359D01*
X26961Y82377D01*
X26889Y82404D01*
X26825Y82409D01*
X26762Y82424D01*
X26685Y82420D01*
X26608Y82426D01*
X26545Y82413D01*
X26480Y82410D01*
X26407Y82384D01*
X26331Y82369D01*
X26275Y82338D01*
X26214Y82317D01*
X26157Y82276D01*
X26082Y82236D01*
X26022Y82177D01*
X25965Y82136D01*
X24829Y80999D01*
X22000Y80999D01*
X21936Y80990D01*
X21872Y80991D01*
X21797Y80970D01*
X21721Y80959D01*
X21662Y80933D01*
X21600Y80916D01*
X21534Y80875D01*
X21464Y80843D01*
X21415Y80801D01*
X21360Y80768D01*
X21308Y80710D01*
X21250Y80660D01*
X21214Y80606D01*
X21171Y80558D01*
X21138Y80489D01*
X21095Y80424D01*
X21076Y80362D01*
X21048Y80305D01*
X21037Y80235D01*
X21013Y80154D01*
X21012Y80069D01*
X21001Y80000D01*
X21001Y77783D01*
X21007Y77741D01*
X21004Y77700D01*
X21024Y77616D01*
X21041Y77503D01*
X21065Y77450D01*
X21077Y77400D01*
X21533Y76299D01*
X21533Y73701D01*
X20538Y71299D01*
X18701Y69462D01*
X16299Y68467D01*
X13701Y68467D01*
X11299Y69462D01*
X9462Y71299D01*
X8467Y73701D01*
X8467Y76299D01*
X8923Y77400D01*
X8934Y77441D01*
X8952Y77478D01*
X8965Y77563D01*
X8993Y77673D01*
X8991Y77732D01*
X8999Y77783D01*
X8999Y80000D01*
X8990Y80064D01*
X8991Y80128D01*
X8970Y80203D01*
X8959Y80279D01*
X8933Y80338D01*
X8916Y80400D01*
X8875Y80466D01*
X8843Y80536D01*
X8801Y80585D01*
X8768Y80640D01*
X8710Y80692D01*
X8660Y80750D01*
X8606Y80786D01*
X8558Y80829D01*
X8489Y80862D01*
X8424Y80905D01*
X8362Y80924D01*
X8305Y80952D01*
X8235Y80963D01*
X8154Y80987D01*
X8069Y80988D01*
X8000Y80999D01*
X5171Y80999D01*
X3999Y82171D01*
X3999Y99829D01*
X5171Y101001D01*
X24829Y101001D01*
X26001Y99829D01*
X26001Y98000D01*
X26010Y97936D01*
X26009Y97872D01*
X26030Y97797D01*
X26041Y97721D01*
X26067Y97662D01*
X26084Y97600D01*
X26125Y97534D01*
X26157Y97464D01*
X26199Y97415D01*
X26232Y97360D01*
X26290Y97308D01*
X26340Y97250D01*
X26394Y97214D01*
X26442Y97171D01*
X26511Y97138D01*
X26576Y97095D01*
X26638Y97076D01*
X26695Y97048D01*
X26765Y97037D01*
X26846Y97013D01*
X26931Y97012D01*
X27000Y97001D01*
X28194Y97001D01*
X30399Y96087D01*
X37443Y89043D01*
X37520Y88986D01*
X37591Y88921D01*
X37632Y88901D01*
X37668Y88874D01*
X37759Y88840D01*
X37845Y88798D01*
X37887Y88792D01*
X37932Y88775D01*
X38060Y88765D01*
X38149Y88751D01*
X46160Y88751D01*
X48751Y86160D01*
X48751Y65840D01*
X46160Y63249D01*
X37840Y63249D01*
G37*
%LPD*%
%LPC*%
G36*
X-92160Y63249D02*
X-92160Y63249D01*
X-94751Y65840D01*
X-94751Y73851D01*
X-94760Y73913D01*
X-94759Y73967D01*
X-94767Y73996D01*
X-94769Y74042D01*
X-94784Y74085D01*
X-94791Y74130D01*
X-94825Y74206D01*
X-94834Y74239D01*
X-94842Y74253D01*
X-94862Y74308D01*
X-94887Y74343D01*
X-94907Y74387D01*
X-94973Y74464D01*
X-94982Y74479D01*
X-94995Y74490D01*
X-95043Y74557D01*
X-102622Y82136D01*
X-102673Y82174D01*
X-102718Y82220D01*
X-102785Y82258D01*
X-102847Y82305D01*
X-102908Y82328D01*
X-102963Y82359D01*
X-103039Y82377D01*
X-103111Y82404D01*
X-103175Y82409D01*
X-103238Y82424D01*
X-103315Y82420D01*
X-103392Y82426D01*
X-103455Y82413D01*
X-103520Y82410D01*
X-103593Y82384D01*
X-103669Y82369D01*
X-103725Y82338D01*
X-103786Y82317D01*
X-103843Y82276D01*
X-103918Y82236D01*
X-103978Y82177D01*
X-104035Y82136D01*
X-105171Y80999D01*
X-108000Y80999D01*
X-108064Y80990D01*
X-108128Y80991D01*
X-108203Y80970D01*
X-108279Y80959D01*
X-108338Y80933D01*
X-108400Y80916D01*
X-108466Y80875D01*
X-108536Y80843D01*
X-108585Y80801D01*
X-108640Y80768D01*
X-108692Y80710D01*
X-108750Y80660D01*
X-108786Y80606D01*
X-108829Y80558D01*
X-108862Y80489D01*
X-108905Y80424D01*
X-108924Y80362D01*
X-108952Y80305D01*
X-108963Y80235D01*
X-108987Y80154D01*
X-108988Y80069D01*
X-108999Y80000D01*
X-108999Y77783D01*
X-108993Y77741D01*
X-108996Y77700D01*
X-108976Y77616D01*
X-108959Y77503D01*
X-108935Y77450D01*
X-108923Y77400D01*
X-108467Y76299D01*
X-108467Y73701D01*
X-109462Y71299D01*
X-111299Y69462D01*
X-113701Y68467D01*
X-116299Y68467D01*
X-118701Y69462D01*
X-120538Y71299D01*
X-121533Y73701D01*
X-121533Y76299D01*
X-121077Y77400D01*
X-121066Y77441D01*
X-121048Y77478D01*
X-121035Y77563D01*
X-121007Y77673D01*
X-121009Y77732D01*
X-121001Y77783D01*
X-121001Y80000D01*
X-121010Y80064D01*
X-121009Y80128D01*
X-121030Y80203D01*
X-121041Y80279D01*
X-121067Y80338D01*
X-121084Y80400D01*
X-121125Y80466D01*
X-121157Y80536D01*
X-121199Y80585D01*
X-121232Y80640D01*
X-121290Y80692D01*
X-121340Y80750D01*
X-121394Y80786D01*
X-121442Y80829D01*
X-121511Y80862D01*
X-121576Y80905D01*
X-121638Y80924D01*
X-121695Y80952D01*
X-121765Y80963D01*
X-121846Y80987D01*
X-121931Y80988D01*
X-122000Y80999D01*
X-124829Y80999D01*
X-126001Y82171D01*
X-126001Y99829D01*
X-124829Y101001D01*
X-105171Y101001D01*
X-103999Y99829D01*
X-103999Y98000D01*
X-103990Y97936D01*
X-103991Y97872D01*
X-103970Y97797D01*
X-103959Y97721D01*
X-103933Y97662D01*
X-103916Y97600D01*
X-103875Y97534D01*
X-103843Y97464D01*
X-103801Y97415D01*
X-103768Y97360D01*
X-103710Y97308D01*
X-103660Y97250D01*
X-103606Y97214D01*
X-103558Y97171D01*
X-103489Y97138D01*
X-103424Y97095D01*
X-103362Y97076D01*
X-103305Y97048D01*
X-103235Y97037D01*
X-103154Y97013D01*
X-103069Y97012D01*
X-103000Y97001D01*
X-101806Y97001D01*
X-99601Y96087D01*
X-97772Y94259D01*
X-92557Y89043D01*
X-92480Y88986D01*
X-92409Y88921D01*
X-92368Y88901D01*
X-92332Y88874D01*
X-92242Y88840D01*
X-92155Y88798D01*
X-92113Y88792D01*
X-92068Y88775D01*
X-91940Y88765D01*
X-91851Y88751D01*
X-83840Y88751D01*
X-81249Y86160D01*
X-81249Y65840D01*
X-83840Y63249D01*
X-92160Y63249D01*
G37*
%LPD*%
%LPC*%
G36*
X96631Y22959D02*
X96631Y22959D01*
X95459Y24131D01*
X95459Y40869D01*
X96631Y42041D01*
X113369Y42041D01*
X114541Y40869D01*
X114541Y24131D01*
X113369Y22959D01*
X96631Y22959D01*
G37*
%LPD*%
%LPC*%
G36*
X156631Y22959D02*
X156631Y22959D01*
X155459Y24131D01*
X155459Y40869D01*
X156631Y42041D01*
X173369Y42041D01*
X174541Y40869D01*
X174541Y24131D01*
X173369Y22959D01*
X156631Y22959D01*
G37*
%LPD*%
%LPC*%
G36*
X-45869Y-84541D02*
X-45869Y-84541D01*
X-47041Y-83369D01*
X-47041Y-66631D01*
X-45869Y-65459D01*
X-29131Y-65459D01*
X-27959Y-66631D01*
X-27959Y-83369D01*
X-29131Y-84541D01*
X-45869Y-84541D01*
G37*
%LPD*%
%LPC*%
G36*
X116631Y-82041D02*
X116631Y-82041D01*
X115459Y-80869D01*
X115459Y-64131D01*
X116631Y-62959D01*
X133369Y-62959D01*
X134541Y-64131D01*
X134541Y-80869D01*
X133369Y-82041D01*
X116631Y-82041D01*
G37*
%LPD*%
%LPC*%
G36*
X-43585Y23079D02*
X-43585Y23079D01*
X-49221Y28715D01*
X-49221Y36685D01*
X-43585Y42321D01*
X-35615Y42321D01*
X-29979Y36685D01*
X-29979Y28715D01*
X-35615Y23079D01*
X-43585Y23079D01*
G37*
%LPD*%
%LPC*%
G36*
X36015Y23079D02*
X36015Y23079D01*
X30379Y28715D01*
X30379Y36685D01*
X36015Y42321D01*
X43985Y42321D01*
X49621Y36685D01*
X49621Y28715D01*
X43985Y23079D01*
X36015Y23079D01*
G37*
%LPD*%
%LPC*%
G36*
X-68985Y23079D02*
X-68985Y23079D01*
X-74621Y28715D01*
X-74621Y36685D01*
X-68985Y42321D01*
X-61015Y42321D01*
X-55379Y36685D01*
X-55379Y28715D01*
X-61015Y23079D01*
X-68985Y23079D01*
G37*
%LPD*%
%LPC*%
G36*
X61415Y23079D02*
X61415Y23079D01*
X55779Y28715D01*
X55779Y36685D01*
X61415Y42321D01*
X69385Y42321D01*
X75021Y36685D01*
X75021Y28715D01*
X69385Y23079D01*
X61415Y23079D01*
G37*
%LPD*%
%LPC*%
G36*
X-94385Y-2321D02*
X-94385Y-2321D01*
X-100021Y3315D01*
X-100021Y11285D01*
X-94385Y16921D01*
X-86415Y16921D01*
X-80779Y11285D01*
X-80779Y3315D01*
X-86415Y-2321D01*
X-94385Y-2321D01*
G37*
%LPD*%
%LPC*%
G36*
X-68985Y-2321D02*
X-68985Y-2321D01*
X-74621Y3315D01*
X-74621Y11285D01*
X-68985Y16921D01*
X-61015Y16921D01*
X-55379Y11285D01*
X-55379Y3315D01*
X-61015Y-2321D01*
X-68985Y-2321D01*
G37*
%LPD*%
%LPC*%
G36*
X-43585Y-2321D02*
X-43585Y-2321D01*
X-49221Y3315D01*
X-49221Y11285D01*
X-43585Y16921D01*
X-35615Y16921D01*
X-29979Y11285D01*
X-29979Y3315D01*
X-35615Y-2321D01*
X-43585Y-2321D01*
G37*
%LPD*%
%LPC*%
G36*
X10615Y-2321D02*
X10615Y-2321D01*
X4979Y3315D01*
X4979Y11285D01*
X10615Y16921D01*
X18585Y16921D01*
X24221Y11285D01*
X24221Y3315D01*
X18585Y-2321D01*
X10615Y-2321D01*
G37*
%LPD*%
%LPC*%
G36*
X36015Y-2321D02*
X36015Y-2321D01*
X30379Y3315D01*
X30379Y11285D01*
X36015Y16921D01*
X43985Y16921D01*
X49621Y11285D01*
X49621Y3315D01*
X43985Y-2321D01*
X36015Y-2321D01*
G37*
%LPD*%
%LPC*%
G36*
X61415Y-2321D02*
X61415Y-2321D01*
X55779Y3315D01*
X55779Y11285D01*
X61415Y16921D01*
X69385Y16921D01*
X75021Y11285D01*
X75021Y3315D01*
X69385Y-2321D01*
X61415Y-2321D01*
G37*
%LPD*%
%LPC*%
G36*
X-78593Y120709D02*
X-78593Y120709D01*
X-79707Y120931D01*
X-80756Y121365D01*
X-81701Y121997D01*
X-82503Y122799D01*
X-83135Y123744D01*
X-83569Y124793D01*
X-83791Y125907D01*
X-83791Y132001D01*
X-66999Y132001D01*
X-66999Y120709D01*
X-78593Y120709D01*
G37*
%LPD*%
%LPC*%
G36*
X66999Y120709D02*
X66999Y120709D01*
X66999Y132001D01*
X83791Y132001D01*
X83791Y125907D01*
X83569Y124793D01*
X83135Y123744D01*
X82503Y122799D01*
X81701Y121997D01*
X80756Y121365D01*
X79707Y120931D01*
X78593Y120709D01*
X66999Y120709D01*
G37*
%LPD*%
%LPC*%
G36*
X-63001Y120709D02*
X-63001Y120709D01*
X-63001Y132001D01*
X-46209Y132001D01*
X-46209Y125907D01*
X-46431Y124793D01*
X-46865Y123744D01*
X-47497Y122799D01*
X-48299Y121997D01*
X-49244Y121365D01*
X-50293Y120931D01*
X-51407Y120709D01*
X-63001Y120709D01*
G37*
%LPD*%
%LPC*%
G36*
X51407Y120709D02*
X51407Y120709D01*
X50293Y120931D01*
X49244Y121365D01*
X48299Y121997D01*
X47497Y122799D01*
X46865Y123744D01*
X46431Y124793D01*
X46209Y125907D01*
X46209Y132001D01*
X63001Y132001D01*
X63001Y120709D01*
X51407Y120709D01*
G37*
%LPD*%
%LPC*%
G36*
X96999Y-133541D02*
X96999Y-133541D01*
X96999Y-126499D01*
X112001Y-126499D01*
X112001Y-132041D01*
X106665Y-132041D01*
X105987Y-131859D01*
X105955Y-131840D01*
X105880Y-131820D01*
X105808Y-131792D01*
X105744Y-131785D01*
X105682Y-131769D01*
X105605Y-131771D01*
X105528Y-131764D01*
X105464Y-131776D01*
X105400Y-131777D01*
X105326Y-131801D01*
X105250Y-131815D01*
X105193Y-131845D01*
X105132Y-131864D01*
X105068Y-131908D01*
X104999Y-131943D01*
X104952Y-131986D01*
X104898Y-132023D01*
X104854Y-132077D01*
X104792Y-132135D01*
X104749Y-132208D01*
X104705Y-132263D01*
X104533Y-132560D01*
X104060Y-133033D01*
X103481Y-133368D01*
X102835Y-133541D01*
X96999Y-133541D01*
G37*
%LPD*%
%LPC*%
G36*
X-112001Y-103501D02*
X-112001Y-103501D01*
X-112001Y-97959D01*
X-106665Y-97959D01*
X-105987Y-98141D01*
X-105955Y-98160D01*
X-105880Y-98180D01*
X-105808Y-98208D01*
X-105744Y-98215D01*
X-105682Y-98231D01*
X-105605Y-98229D01*
X-105528Y-98236D01*
X-105464Y-98224D01*
X-105400Y-98223D01*
X-105326Y-98199D01*
X-105250Y-98185D01*
X-105193Y-98155D01*
X-105132Y-98136D01*
X-105068Y-98092D01*
X-104999Y-98057D01*
X-104952Y-98014D01*
X-104898Y-97977D01*
X-104854Y-97923D01*
X-104792Y-97865D01*
X-104749Y-97792D01*
X-104705Y-97737D01*
X-104533Y-97440D01*
X-104060Y-96967D01*
X-103481Y-96632D01*
X-102835Y-96459D01*
X-96999Y-96459D01*
X-96999Y-103501D01*
X-112001Y-103501D01*
G37*
%LPD*%
%LPC*%
G36*
X-26541Y120999D02*
X-26541Y120999D01*
X-26541Y127335D01*
X-26368Y127981D01*
X-26033Y128560D01*
X-25560Y129033D01*
X-24981Y129368D01*
X-24335Y129541D01*
X-16999Y129541D01*
X-16999Y120999D01*
X-26541Y120999D01*
G37*
%LPD*%
%LPC*%
G36*
X16999Y120999D02*
X16999Y120999D01*
X16999Y129541D01*
X24335Y129541D01*
X24981Y129368D01*
X25560Y129033D01*
X26033Y128560D01*
X26368Y127981D01*
X26541Y127335D01*
X26541Y120999D01*
X16999Y120999D01*
G37*
%LPD*%
%LPC*%
G36*
X-126541Y120999D02*
X-126541Y120999D01*
X-126541Y127335D01*
X-126368Y127981D01*
X-126033Y128560D01*
X-125560Y129033D01*
X-124981Y129368D01*
X-124335Y129541D01*
X-116999Y129541D01*
X-116999Y120999D01*
X-126541Y120999D01*
G37*
%LPD*%
%LPC*%
G36*
X116999Y120999D02*
X116999Y120999D01*
X116999Y129541D01*
X124335Y129541D01*
X124981Y129368D01*
X125560Y129033D01*
X126033Y128560D01*
X126368Y127981D01*
X126541Y127335D01*
X126541Y120999D01*
X116999Y120999D01*
G37*
%LPD*%
%LPC*%
G36*
X103459Y120999D02*
X103459Y120999D01*
X103459Y127335D01*
X103632Y127981D01*
X103967Y128560D01*
X104440Y129033D01*
X105019Y129368D01*
X105665Y129541D01*
X113001Y129541D01*
X113001Y120999D01*
X103459Y120999D01*
G37*
%LPD*%
%LPC*%
G36*
X-113001Y120999D02*
X-113001Y120999D01*
X-113001Y129541D01*
X-105665Y129541D01*
X-105019Y129368D01*
X-104440Y129033D01*
X-103967Y128560D01*
X-103632Y127981D01*
X-103459Y127335D01*
X-103459Y120999D01*
X-113001Y120999D01*
G37*
%LPD*%
%LPC*%
G36*
X3459Y120999D02*
X3459Y120999D01*
X3459Y127335D01*
X3632Y127981D01*
X3967Y128560D01*
X4440Y129033D01*
X5019Y129368D01*
X5665Y129541D01*
X13001Y129541D01*
X13001Y120999D01*
X3459Y120999D01*
G37*
%LPD*%
%LPC*%
G36*
X-13001Y120999D02*
X-13001Y120999D01*
X-13001Y129541D01*
X-5665Y129541D01*
X-5019Y129368D01*
X-4440Y129033D01*
X-3967Y128560D01*
X-3632Y127981D01*
X-3459Y127335D01*
X-3459Y120999D01*
X-13001Y120999D01*
G37*
%LPD*%
%LPC*%
G36*
X16999Y108459D02*
X16999Y108459D01*
X16999Y117001D01*
X26541Y117001D01*
X26541Y110665D01*
X26368Y110019D01*
X26033Y109440D01*
X25560Y108967D01*
X24981Y108632D01*
X24335Y108459D01*
X16999Y108459D01*
G37*
%LPD*%
%LPC*%
G36*
X116999Y108459D02*
X116999Y108459D01*
X116999Y117001D01*
X126541Y117001D01*
X126541Y110665D01*
X126368Y110019D01*
X126033Y109440D01*
X125560Y108967D01*
X124981Y108632D01*
X124335Y108459D01*
X116999Y108459D01*
G37*
%LPD*%
%LPC*%
G36*
X-124335Y108459D02*
X-124335Y108459D01*
X-124981Y108632D01*
X-125560Y108967D01*
X-126033Y109440D01*
X-126368Y110019D01*
X-126541Y110665D01*
X-126541Y117001D01*
X-116999Y117001D01*
X-116999Y108459D01*
X-124335Y108459D01*
G37*
%LPD*%
%LPC*%
G36*
X-24335Y108459D02*
X-24335Y108459D01*
X-24981Y108632D01*
X-25560Y108967D01*
X-26033Y109440D01*
X-26368Y110019D01*
X-26541Y110665D01*
X-26541Y117001D01*
X-16999Y117001D01*
X-16999Y108459D01*
X-24335Y108459D01*
G37*
%LPD*%
%LPC*%
G36*
X105665Y108459D02*
X105665Y108459D01*
X105019Y108632D01*
X104440Y108967D01*
X103967Y109440D01*
X103632Y110019D01*
X103459Y110665D01*
X103459Y117001D01*
X113001Y117001D01*
X113001Y108459D01*
X105665Y108459D01*
G37*
%LPD*%
%LPC*%
G36*
X-13001Y108459D02*
X-13001Y108459D01*
X-13001Y117001D01*
X-3459Y117001D01*
X-3459Y110665D01*
X-3632Y110019D01*
X-3967Y109440D01*
X-4440Y108967D01*
X-5019Y108632D01*
X-5665Y108459D01*
X-13001Y108459D01*
G37*
%LPD*%
%LPC*%
G36*
X-113001Y108459D02*
X-113001Y108459D01*
X-113001Y117001D01*
X-103459Y117001D01*
X-103459Y110665D01*
X-103632Y110019D01*
X-103967Y109440D01*
X-104440Y108967D01*
X-105019Y108632D01*
X-105665Y108459D01*
X-113001Y108459D01*
G37*
%LPD*%
%LPC*%
G36*
X5665Y108459D02*
X5665Y108459D01*
X5019Y108632D01*
X4440Y108967D01*
X3967Y109440D01*
X3632Y110019D01*
X3459Y110665D01*
X3459Y117001D01*
X13001Y117001D01*
X13001Y108459D01*
X5665Y108459D01*
G37*
%LPD*%
%LPC*%
G36*
X66999Y77999D02*
X66999Y77999D01*
X66999Y89291D01*
X67816Y89291D01*
X68775Y89100D01*
X69678Y88726D01*
X70491Y88183D01*
X71183Y87491D01*
X71726Y86678D01*
X72100Y85775D01*
X72291Y84816D01*
X72291Y77999D01*
X66999Y77999D01*
G37*
%LPD*%
%LPC*%
G36*
X-72291Y77999D02*
X-72291Y77999D01*
X-72291Y84816D01*
X-72100Y85775D01*
X-71726Y86678D01*
X-71183Y87491D01*
X-70491Y88183D01*
X-69678Y88726D01*
X-68775Y89100D01*
X-67816Y89291D01*
X-66999Y89291D01*
X-66999Y77999D01*
X-72291Y77999D01*
G37*
%LPD*%
%LPC*%
G36*
X-67816Y62709D02*
X-67816Y62709D01*
X-68775Y62900D01*
X-69678Y63274D01*
X-70491Y63817D01*
X-71183Y64509D01*
X-71726Y65322D01*
X-72100Y66225D01*
X-72291Y67184D01*
X-72291Y74001D01*
X-66999Y74001D01*
X-66999Y62709D01*
X-67816Y62709D01*
G37*
%LPD*%
%LPC*%
G36*
X66999Y62709D02*
X66999Y62709D01*
X66999Y74001D01*
X72291Y74001D01*
X72291Y67184D01*
X72100Y66225D01*
X71726Y65322D01*
X71183Y64509D01*
X70491Y63817D01*
X69678Y63274D01*
X68775Y62900D01*
X67816Y62709D01*
X66999Y62709D01*
G37*
%LPD*%
%LPC*%
G36*
X57709Y77999D02*
X57709Y77999D01*
X57709Y84816D01*
X57900Y85775D01*
X58274Y86678D01*
X58817Y87491D01*
X59509Y88183D01*
X60322Y88726D01*
X61225Y89100D01*
X62184Y89291D01*
X63001Y89291D01*
X63001Y77999D01*
X57709Y77999D01*
G37*
%LPD*%
%LPC*%
G36*
X-63001Y77999D02*
X-63001Y77999D01*
X-63001Y89291D01*
X-62184Y89291D01*
X-61225Y89100D01*
X-60322Y88726D01*
X-59509Y88183D01*
X-58817Y87491D01*
X-58274Y86678D01*
X-57900Y85775D01*
X-57709Y84816D01*
X-57709Y77999D01*
X-63001Y77999D01*
G37*
%LPD*%
%LPC*%
G36*
X62184Y62709D02*
X62184Y62709D01*
X61225Y62900D01*
X60322Y63274D01*
X59509Y63817D01*
X58817Y64509D01*
X58274Y65322D01*
X57900Y66225D01*
X57709Y67184D01*
X57709Y74001D01*
X63001Y74001D01*
X63001Y62709D01*
X62184Y62709D01*
G37*
%LPD*%
%LPC*%
G36*
X-63001Y62709D02*
X-63001Y62709D01*
X-63001Y74001D01*
X-57709Y74001D01*
X-57709Y67184D01*
X-57900Y66225D01*
X-58274Y65322D01*
X-58817Y64509D01*
X-59509Y63817D01*
X-60322Y63274D01*
X-61225Y62900D01*
X-62184Y62709D01*
X-63001Y62709D01*
G37*
%LPD*%
%LPC*%
G36*
X-14861Y-84833D02*
X-14861Y-84833D01*
X-16370Y-84342D01*
X-17784Y-83622D01*
X-19067Y-82689D01*
X-20189Y-81567D01*
X-21122Y-80284D01*
X-21842Y-78870D01*
X-22333Y-77361D01*
X-22390Y-76999D01*
X-14499Y-76999D01*
X-14499Y-84890D01*
X-14861Y-84833D01*
G37*
%LPD*%
%LPC*%
G36*
X-22390Y-73001D02*
X-22390Y-73001D01*
X-22333Y-72639D01*
X-21842Y-71130D01*
X-21122Y-69716D01*
X-20189Y-68433D01*
X-19067Y-67311D01*
X-17784Y-66378D01*
X-16370Y-65658D01*
X-14861Y-65167D01*
X-14499Y-65110D01*
X-14499Y-73001D01*
X-22390Y-73001D01*
G37*
%LPD*%
%LPC*%
G36*
X-10501Y-76999D02*
X-10501Y-76999D01*
X-2610Y-76999D01*
X-2667Y-77361D01*
X-3158Y-78870D01*
X-3878Y-80284D01*
X-4811Y-81567D01*
X-5933Y-82689D01*
X-7216Y-83622D01*
X-8630Y-84342D01*
X-10139Y-84833D01*
X-10501Y-84890D01*
X-10501Y-76999D01*
G37*
%LPD*%
%LPC*%
G36*
X-10501Y-73001D02*
X-10501Y-73001D01*
X-10501Y-65110D01*
X-10139Y-65167D01*
X-8630Y-65658D01*
X-7216Y-66378D01*
X-5933Y-67311D01*
X-4811Y-68433D01*
X-3878Y-69716D01*
X-3158Y-71130D01*
X-2667Y-72639D01*
X-2610Y-73001D01*
X-10501Y-73001D01*
G37*
%LPD*%
%LPC*%
G36*
X-121335Y-113041D02*
X-121335Y-113041D01*
X-121981Y-112868D01*
X-122560Y-112533D01*
X-123033Y-112060D01*
X-123368Y-111481D01*
X-123541Y-110835D01*
X-123541Y-107499D01*
X-115999Y-107499D01*
X-115999Y-113041D01*
X-121335Y-113041D01*
G37*
%LPD*%
%LPC*%
G36*
X115999Y-132041D02*
X115999Y-132041D01*
X115999Y-126499D01*
X123541Y-126499D01*
X123541Y-129835D01*
X123368Y-130481D01*
X123033Y-131060D01*
X122560Y-131533D01*
X121981Y-131868D01*
X121335Y-132041D01*
X115999Y-132041D01*
G37*
%LPD*%
%LPC*%
G36*
X-123541Y-103501D02*
X-123541Y-103501D01*
X-123541Y-100165D01*
X-123368Y-99519D01*
X-123033Y-98940D01*
X-122560Y-98467D01*
X-121981Y-98132D01*
X-121335Y-97959D01*
X-115999Y-97959D01*
X-115999Y-103501D01*
X-123541Y-103501D01*
G37*
%LPD*%
%LPC*%
G36*
X115999Y-122501D02*
X115999Y-122501D01*
X115999Y-116959D01*
X121335Y-116959D01*
X121981Y-117132D01*
X122560Y-117467D01*
X123033Y-117940D01*
X123368Y-118519D01*
X123541Y-119165D01*
X123541Y-122501D01*
X115999Y-122501D01*
G37*
%LPD*%
%LPC*%
G36*
X-12501Y-75001D02*
X-12501Y-75001D01*
X-12501Y-74999D01*
X-12499Y-74999D01*
X-12499Y-75001D01*
X-12501Y-75001D01*
G37*
%LPD*%
%LPC*%
G36*
X-115001Y118999D02*
X-115001Y118999D01*
X-115001Y119001D01*
X-114999Y119001D01*
X-114999Y118999D01*
X-115001Y118999D01*
G37*
%LPD*%
%LPC*%
G36*
X114999Y118999D02*
X114999Y118999D01*
X114999Y119001D01*
X115001Y119001D01*
X115001Y118999D01*
X114999Y118999D01*
G37*
%LPD*%
%LPC*%
G36*
X14999Y118999D02*
X14999Y118999D01*
X14999Y119001D01*
X15001Y119001D01*
X15001Y118999D01*
X14999Y118999D01*
G37*
%LPD*%
%LPC*%
G36*
X-15001Y118999D02*
X-15001Y118999D01*
X-15001Y119001D01*
X-14999Y119001D01*
X-14999Y118999D01*
X-15001Y118999D01*
G37*
%LPD*%
%LPC*%
G36*
X-65001Y75999D02*
X-65001Y75999D01*
X-65001Y76001D01*
X-64999Y76001D01*
X-64999Y75999D01*
X-65001Y75999D01*
G37*
%LPD*%
%LPC*%
G36*
X64999Y75999D02*
X64999Y75999D01*
X64999Y76001D01*
X65001Y76001D01*
X65001Y75999D01*
X64999Y75999D01*
G37*
%LPD*%
%LPC*%
G36*
X113999Y-124501D02*
X113999Y-124501D01*
X113999Y-124499D01*
X114001Y-124499D01*
X114001Y-124501D01*
X113999Y-124501D01*
G37*
%LPD*%
%LPC*%
G36*
X-114001Y-105501D02*
X-114001Y-105501D01*
X-114001Y-105499D01*
X-113999Y-105499D01*
X-113999Y-105501D01*
X-114001Y-105501D01*
G37*
%LPD*%
D10*
X-90400Y7300D03*
X-90400Y32700D03*
X-65000Y7300D03*
X-65000Y32700D03*
X-39600Y7300D03*
X-39600Y32700D03*
X14600Y7300D03*
X14600Y32700D03*
X40000Y7300D03*
X40000Y32700D03*
X65400Y7300D03*
X65400Y32700D03*
D11*
X125000Y-72500D03*
D12*
X125000Y-47500D03*
D11*
X-125000Y-47500D03*
D12*
X-125000Y-72500D03*
D11*
X165000Y32500D03*
D12*
X165000Y7500D03*
D11*
X105000Y32500D03*
D12*
X105000Y7500D03*
D11*
X-37500Y-75000D03*
D12*
X-12500Y-75000D03*
X12500Y-75000D03*
X37500Y-75000D03*
D13*
X-90328Y67672D02*
X-90328Y84328D01*
X-85672Y84328D01*
X-85672Y67672D01*
X-90328Y67672D01*
X-90328Y72275D02*
X-85672Y72275D01*
X-85672Y76878D02*
X-90328Y76878D01*
X-90328Y81481D02*
X-85672Y81481D01*
X-67328Y84328D02*
X-67328Y67672D01*
X-67328Y84328D02*
X-62672Y84328D01*
X-62672Y67672D01*
X-67328Y67672D01*
X-67328Y72275D02*
X-62672Y72275D01*
X-62672Y76878D02*
X-67328Y76878D01*
X-67328Y81481D02*
X-62672Y81481D01*
X-44328Y84328D02*
X-44328Y67672D01*
X-44328Y84328D02*
X-39672Y84328D01*
X-39672Y67672D01*
X-44328Y67672D01*
X-44328Y72275D02*
X-39672Y72275D01*
X-39672Y76878D02*
X-44328Y76878D01*
X-44328Y81481D02*
X-39672Y81481D01*
D14*
X-51975Y126475D02*
X-51975Y141525D01*
X-51975Y126475D02*
X-78025Y126475D01*
X-78025Y141525D01*
X-51975Y141525D01*
X-51975Y132602D02*
X-78025Y132602D01*
X-78025Y138729D02*
X-51975Y138729D01*
D15*
X-15000Y91000D03*
X-15000Y119000D03*
X-115000Y91000D03*
X-115000Y119000D03*
D13*
X39672Y84328D02*
X39672Y67672D01*
X39672Y84328D02*
X44328Y84328D01*
X44328Y67672D01*
X39672Y67672D01*
X39672Y72275D02*
X44328Y72275D01*
X44328Y76878D02*
X39672Y76878D01*
X39672Y81481D02*
X44328Y81481D01*
X62672Y84328D02*
X62672Y67672D01*
X62672Y84328D02*
X67328Y84328D01*
X67328Y67672D01*
X62672Y67672D01*
X62672Y72275D02*
X67328Y72275D01*
X67328Y76878D02*
X62672Y76878D01*
X62672Y81481D02*
X67328Y81481D01*
X85672Y84328D02*
X85672Y67672D01*
X85672Y84328D02*
X90328Y84328D01*
X90328Y67672D01*
X85672Y67672D01*
X85672Y72275D02*
X90328Y72275D01*
X90328Y76878D02*
X85672Y76878D01*
X85672Y81481D02*
X90328Y81481D01*
D14*
X78025Y126475D02*
X78025Y141525D01*
X78025Y126475D02*
X51975Y126475D01*
X51975Y141525D01*
X78025Y141525D01*
X78025Y132602D02*
X51975Y132602D01*
X51975Y138729D02*
X78025Y138729D01*
D15*
X115000Y91000D03*
X115000Y119000D03*
X15000Y91000D03*
X15000Y119000D03*
D16*
X-114000Y-124500D03*
X-114000Y-105500D03*
X-136000Y-115000D03*
X114000Y-105500D03*
X114000Y-124500D03*
X136000Y-115000D03*
D17*
X-75000Y-105500D03*
X-75000Y-124500D03*
X-95000Y-105500D03*
X-95000Y-124500D03*
X75000Y-124500D03*
X75000Y-105500D03*
X95000Y-124500D03*
X95000Y-105500D03*
D18*
X-42000Y76000D02*
X-27000Y91000D01*
X-15000Y91000D01*
X4600Y32700D02*
X14600Y32700D01*
X4600Y32700D02*
X-15000Y52300D01*
X-15000Y91000D01*
X-70800Y52300D02*
X-90400Y32700D01*
X-70800Y52300D02*
X-15000Y52300D01*
D19*
X-115000Y75000D03*
X15000Y75000D03*
D18*
X-115000Y75000D02*
X-115000Y91000D01*
X15000Y91000D02*
X15000Y75000D01*
X-88000Y76000D02*
X-103000Y91000D01*
X-115000Y91000D01*
X27000Y91000D02*
X42000Y76000D01*
X27000Y91000D02*
X15000Y91000D01*
D19*
X115000Y75000D03*
D18*
X115000Y91000D01*
X103000Y91000D02*
X88000Y76000D01*
X103000Y91000D02*
X115000Y91000D01*
D20*
X-125000Y-72500D02*
X-136000Y-83500D01*
X-136000Y-115000D01*
D18*
X-125000Y-72500D02*
X-100000Y-47500D01*
X125000Y-47500D01*
X105000Y7500D02*
X165000Y7500D01*
X165000Y-86000D02*
X136000Y-115000D01*
X165000Y-86000D02*
X165000Y7500D01*
D21*
X-75000Y-124500D02*
X-95000Y-124500D01*
X-114000Y-124500D01*
X75000Y-105500D02*
X95000Y-105500D01*
X114000Y-105500D01*
X-18000Y-105500D02*
X-75000Y-105500D01*
X-18000Y-105500D02*
X12500Y-75000D01*
X37500Y-75000D02*
X37500Y-105000D01*
X57000Y-124500D02*
X75000Y-124500D01*
X57000Y-124500D02*
X37500Y-105000D01*
M02*
