G04 EAGLE Gerber RS-274X export*
G75*
%MOMM*%
%FSLAX34Y34*%
%LPD*%
%INBottom Copper*%
%IPPOS*%
%AMOC8*
5,1,8,0,0,1.08239X$1,22.5*%
G01*
%ADD10P,1.649562X8X22.500000*%
%ADD11R,1.508000X1.508000*%
%ADD12C,1.508000*%
%ADD13C,0.906400*%
%ADD14C,0.800000*%

G36*
X135046Y-140993D02*
X135046Y-140993D01*
X135087Y-140995D01*
X136824Y-140844D01*
X136918Y-140822D01*
X136995Y-140813D01*
X138679Y-140362D01*
X138768Y-140324D01*
X138843Y-140303D01*
X140422Y-139566D01*
X140503Y-139513D01*
X140573Y-139479D01*
X142001Y-138479D01*
X142072Y-138413D01*
X142134Y-138367D01*
X143367Y-137134D01*
X143425Y-137057D01*
X143479Y-137001D01*
X144479Y-135573D01*
X144518Y-135495D01*
X144563Y-135428D01*
X144563Y-135427D01*
X144566Y-135422D01*
X145303Y-133843D01*
X145331Y-133750D01*
X145362Y-133679D01*
X145813Y-131995D01*
X145825Y-131899D01*
X145844Y-131824D01*
X145995Y-130087D01*
X145993Y-130041D01*
X145999Y-130000D01*
X145999Y-105044D01*
X146140Y-103438D01*
X146546Y-101923D01*
X146765Y-101453D01*
X147208Y-100502D01*
X148108Y-99217D01*
X149217Y-98108D01*
X150502Y-97208D01*
X151923Y-96546D01*
X153438Y-96140D01*
X155044Y-95999D01*
X180000Y-95999D01*
X180046Y-95993D01*
X180087Y-95995D01*
X181824Y-95844D01*
X181918Y-95822D01*
X181995Y-95813D01*
X183679Y-95362D01*
X183768Y-95324D01*
X183843Y-95303D01*
X185422Y-94566D01*
X185503Y-94513D01*
X185573Y-94479D01*
X187001Y-93479D01*
X187072Y-93413D01*
X187134Y-93367D01*
X188367Y-92134D01*
X188425Y-92057D01*
X188479Y-92001D01*
X189479Y-90573D01*
X189523Y-90487D01*
X189566Y-90422D01*
X190014Y-89462D01*
X190303Y-88843D01*
X190331Y-88750D01*
X190362Y-88679D01*
X190813Y-86995D01*
X190825Y-86899D01*
X190844Y-86824D01*
X190995Y-85087D01*
X190993Y-85041D01*
X190999Y-85000D01*
X190999Y85000D01*
X190993Y85046D01*
X190995Y85087D01*
X190844Y86824D01*
X190822Y86918D01*
X190813Y86995D01*
X190362Y88679D01*
X190324Y88768D01*
X190303Y88843D01*
X189566Y90422D01*
X189513Y90503D01*
X189479Y90573D01*
X188479Y92001D01*
X188413Y92072D01*
X188367Y92134D01*
X187134Y93367D01*
X187057Y93425D01*
X187001Y93479D01*
X185573Y94479D01*
X185487Y94523D01*
X185422Y94566D01*
X183843Y95303D01*
X183750Y95331D01*
X183679Y95362D01*
X181995Y95813D01*
X181899Y95825D01*
X181824Y95844D01*
X180087Y95995D01*
X180041Y95993D01*
X180000Y95999D01*
X155044Y95999D01*
X153438Y96140D01*
X151923Y96546D01*
X150502Y97208D01*
X149217Y98108D01*
X148108Y99217D01*
X147208Y100502D01*
X146546Y101923D01*
X146140Y103438D01*
X145999Y105044D01*
X145999Y135000D01*
X145993Y135046D01*
X145995Y135087D01*
X145844Y136824D01*
X145824Y136907D01*
X145824Y136920D01*
X145820Y136937D01*
X145813Y136995D01*
X145362Y138679D01*
X145324Y138768D01*
X145303Y138843D01*
X144566Y140422D01*
X144513Y140503D01*
X144479Y140573D01*
X143479Y142001D01*
X143413Y142072D01*
X143367Y142134D01*
X142134Y143367D01*
X142057Y143425D01*
X142001Y143479D01*
X140573Y144479D01*
X140487Y144523D01*
X140422Y144566D01*
X138843Y145303D01*
X138750Y145331D01*
X138679Y145362D01*
X136995Y145813D01*
X136899Y145825D01*
X136824Y145844D01*
X135087Y145995D01*
X135041Y145993D01*
X135000Y145999D01*
X-135000Y145999D01*
X-135046Y145993D01*
X-135087Y145995D01*
X-136824Y145844D01*
X-136918Y145822D01*
X-136995Y145813D01*
X-138679Y145362D01*
X-138768Y145324D01*
X-138843Y145303D01*
X-140422Y144566D01*
X-140503Y144513D01*
X-140573Y144479D01*
X-142001Y143479D01*
X-142072Y143413D01*
X-142134Y143367D01*
X-143367Y142134D01*
X-143425Y142057D01*
X-143479Y142001D01*
X-144479Y140573D01*
X-144523Y140487D01*
X-144566Y140422D01*
X-144663Y140214D01*
X-145129Y139215D01*
X-145129Y139214D01*
X-145303Y138843D01*
X-145331Y138750D01*
X-145362Y138679D01*
X-145813Y136995D01*
X-145818Y136953D01*
X-145820Y136946D01*
X-145821Y136935D01*
X-145825Y136899D01*
X-145844Y136824D01*
X-145995Y135087D01*
X-145993Y135041D01*
X-145999Y135000D01*
X-145999Y105044D01*
X-146140Y103438D01*
X-146546Y101923D01*
X-146863Y101243D01*
X-147208Y100502D01*
X-148108Y99217D01*
X-149217Y98108D01*
X-150502Y97208D01*
X-151923Y96546D01*
X-153438Y96140D01*
X-155044Y95999D01*
X-180000Y95999D01*
X-180046Y95993D01*
X-180087Y95995D01*
X-181824Y95844D01*
X-181918Y95822D01*
X-181995Y95813D01*
X-183679Y95362D01*
X-183768Y95324D01*
X-183843Y95303D01*
X-185422Y94566D01*
X-185503Y94513D01*
X-185573Y94479D01*
X-187001Y93479D01*
X-187072Y93413D01*
X-187134Y93367D01*
X-188367Y92134D01*
X-188425Y92057D01*
X-188479Y92001D01*
X-189479Y90573D01*
X-189523Y90487D01*
X-189566Y90422D01*
X-189646Y90252D01*
X-189646Y90251D01*
X-190303Y88843D01*
X-190331Y88750D01*
X-190362Y88679D01*
X-190813Y86995D01*
X-190825Y86899D01*
X-190844Y86824D01*
X-190995Y85087D01*
X-190993Y85041D01*
X-190999Y85000D01*
X-190999Y-85000D01*
X-190993Y-85046D01*
X-190995Y-85087D01*
X-190844Y-86824D01*
X-190822Y-86918D01*
X-190813Y-86995D01*
X-190362Y-88679D01*
X-190324Y-88768D01*
X-190303Y-88843D01*
X-189566Y-90422D01*
X-189513Y-90503D01*
X-189479Y-90573D01*
X-188479Y-92001D01*
X-188413Y-92072D01*
X-188367Y-92134D01*
X-187134Y-93367D01*
X-187057Y-93425D01*
X-187001Y-93479D01*
X-185573Y-94479D01*
X-185487Y-94523D01*
X-185422Y-94566D01*
X-183843Y-95303D01*
X-183750Y-95331D01*
X-183679Y-95362D01*
X-181995Y-95813D01*
X-181899Y-95825D01*
X-181824Y-95844D01*
X-180087Y-95995D01*
X-180041Y-95993D01*
X-180000Y-95999D01*
X-150044Y-95999D01*
X-148438Y-96140D01*
X-146923Y-96546D01*
X-145502Y-97208D01*
X-144217Y-98108D01*
X-143108Y-99217D01*
X-142208Y-100502D01*
X-141546Y-101923D01*
X-141140Y-103438D01*
X-140999Y-105044D01*
X-140999Y-130000D01*
X-140993Y-130046D01*
X-140995Y-130087D01*
X-140844Y-131824D01*
X-140822Y-131918D01*
X-140813Y-131995D01*
X-140362Y-133679D01*
X-140324Y-133768D01*
X-140303Y-133843D01*
X-139566Y-135422D01*
X-139513Y-135503D01*
X-139479Y-135573D01*
X-138479Y-137001D01*
X-138413Y-137072D01*
X-138367Y-137134D01*
X-137134Y-138367D01*
X-137057Y-138425D01*
X-137001Y-138479D01*
X-135573Y-139479D01*
X-135487Y-139523D01*
X-135422Y-139566D01*
X-133843Y-140303D01*
X-133750Y-140331D01*
X-133679Y-140362D01*
X-131995Y-140813D01*
X-131899Y-140825D01*
X-131824Y-140844D01*
X-130087Y-140995D01*
X-130041Y-140993D01*
X-130000Y-140999D01*
X135000Y-140999D01*
X135046Y-140993D01*
G37*
%LPC*%
G36*
X116631Y-82041D02*
X116631Y-82041D01*
X115459Y-80869D01*
X115459Y-79500D01*
X115450Y-79436D01*
X115451Y-79372D01*
X115430Y-79297D01*
X115419Y-79221D01*
X115393Y-79162D01*
X115376Y-79100D01*
X115335Y-79034D01*
X115303Y-78964D01*
X115261Y-78915D01*
X115228Y-78860D01*
X115170Y-78808D01*
X115120Y-78750D01*
X115066Y-78714D01*
X115018Y-78671D01*
X114949Y-78638D01*
X114884Y-78595D01*
X114822Y-78576D01*
X114765Y-78548D01*
X114695Y-78537D01*
X114614Y-78513D01*
X114529Y-78512D01*
X114460Y-78501D01*
X86306Y-78501D01*
X84101Y-77587D01*
X62807Y-56293D01*
X62730Y-56236D01*
X62659Y-56171D01*
X62618Y-56151D01*
X62582Y-56124D01*
X62491Y-56090D01*
X62405Y-56048D01*
X62363Y-56042D01*
X62318Y-56025D01*
X62190Y-56015D01*
X62101Y-56001D01*
X16506Y-56001D01*
X14301Y-55087D01*
X12472Y-53259D01*
X-38173Y-2613D01*
X-38250Y-2556D01*
X-38321Y-2491D01*
X-38362Y-2471D01*
X-38398Y-2444D01*
X-38489Y-2410D01*
X-38575Y-2368D01*
X-38617Y-2362D01*
X-38662Y-2345D01*
X-38790Y-2335D01*
X-38879Y-2321D01*
X-43585Y-2321D01*
X-46912Y1007D01*
X-46989Y1064D01*
X-47061Y1129D01*
X-47101Y1149D01*
X-47138Y1176D01*
X-47228Y1210D01*
X-47314Y1252D01*
X-47356Y1258D01*
X-47402Y1275D01*
X-47529Y1285D01*
X-47619Y1299D01*
X-56981Y1299D01*
X-57076Y1286D01*
X-57172Y1281D01*
X-57215Y1266D01*
X-57260Y1259D01*
X-57348Y1220D01*
X-57439Y1188D01*
X-57473Y1163D01*
X-57517Y1143D01*
X-57615Y1060D01*
X-57688Y1007D01*
X-61015Y-2321D01*
X-68985Y-2321D01*
X-72312Y1007D01*
X-72389Y1064D01*
X-72461Y1129D01*
X-72501Y1149D01*
X-72538Y1176D01*
X-72628Y1210D01*
X-72714Y1252D01*
X-72756Y1258D01*
X-72802Y1275D01*
X-72929Y1285D01*
X-73019Y1299D01*
X-82381Y1299D01*
X-82476Y1286D01*
X-82572Y1281D01*
X-82615Y1266D01*
X-82660Y1259D01*
X-82748Y1220D01*
X-82839Y1188D01*
X-82873Y1163D01*
X-82917Y1143D01*
X-83014Y1060D01*
X-83088Y1007D01*
X-84107Y-12D01*
X-84164Y-89D01*
X-84229Y-161D01*
X-84249Y-201D01*
X-84276Y-238D01*
X-84310Y-328D01*
X-84352Y-414D01*
X-84358Y-456D01*
X-84375Y-502D01*
X-84385Y-629D01*
X-84399Y-719D01*
X-84399Y-14094D01*
X-85313Y-16299D01*
X-87141Y-18128D01*
X-115167Y-46153D01*
X-115224Y-46230D01*
X-115289Y-46301D01*
X-115309Y-46342D01*
X-115336Y-46378D01*
X-115370Y-46468D01*
X-115412Y-46555D01*
X-115418Y-46597D01*
X-115435Y-46642D01*
X-115445Y-46770D01*
X-115459Y-46859D01*
X-115459Y-55869D01*
X-116631Y-57041D01*
X-133369Y-57041D01*
X-134541Y-55869D01*
X-134541Y-39131D01*
X-133369Y-37959D01*
X-124359Y-37959D01*
X-124265Y-37946D01*
X-124168Y-37941D01*
X-124125Y-37926D01*
X-124080Y-37919D01*
X-123993Y-37880D01*
X-123902Y-37848D01*
X-123867Y-37823D01*
X-123823Y-37803D01*
X-123726Y-37720D01*
X-123653Y-37667D01*
X-96693Y-10707D01*
X-96636Y-10630D01*
X-96571Y-10559D01*
X-96551Y-10518D01*
X-96524Y-10482D01*
X-96490Y-10391D01*
X-96448Y-10305D01*
X-96442Y-10263D01*
X-96425Y-10218D01*
X-96415Y-10090D01*
X-96401Y-10001D01*
X-96401Y-719D01*
X-96414Y-624D01*
X-96419Y-528D01*
X-96434Y-485D01*
X-96441Y-440D01*
X-96480Y-352D01*
X-96512Y-261D01*
X-96537Y-227D01*
X-96557Y-183D01*
X-96640Y-86D01*
X-96693Y-12D01*
X-100021Y3315D01*
X-100021Y11285D01*
X-94385Y16921D01*
X-86415Y16921D01*
X-83088Y13593D01*
X-83011Y13536D01*
X-82939Y13471D01*
X-82899Y13451D01*
X-82862Y13424D01*
X-82772Y13390D01*
X-82686Y13348D01*
X-82644Y13342D01*
X-82598Y13325D01*
X-82471Y13315D01*
X-82381Y13301D01*
X-73019Y13301D01*
X-72924Y13314D01*
X-72828Y13319D01*
X-72785Y13334D01*
X-72740Y13341D01*
X-72652Y13380D01*
X-72561Y13412D01*
X-72527Y13437D01*
X-72483Y13457D01*
X-72386Y13540D01*
X-72312Y13593D01*
X-68985Y16921D01*
X-61015Y16921D01*
X-57688Y13593D01*
X-57611Y13536D01*
X-57539Y13471D01*
X-57499Y13451D01*
X-57462Y13424D01*
X-57372Y13390D01*
X-57286Y13348D01*
X-57244Y13342D01*
X-57198Y13325D01*
X-57071Y13315D01*
X-56981Y13301D01*
X-47619Y13301D01*
X-47524Y13314D01*
X-47428Y13319D01*
X-47385Y13334D01*
X-47340Y13341D01*
X-47252Y13380D01*
X-47161Y13412D01*
X-47127Y13437D01*
X-47083Y13457D01*
X-46985Y13540D01*
X-46912Y13593D01*
X-43585Y16921D01*
X-35615Y16921D01*
X-29979Y11285D01*
X-29979Y6579D01*
X-29966Y6485D01*
X-29961Y6388D01*
X-29946Y6345D01*
X-29939Y6300D01*
X-29900Y6213D01*
X-29868Y6122D01*
X-29843Y6087D01*
X-29823Y6043D01*
X-29740Y5946D01*
X-29687Y5873D01*
X19893Y-43707D01*
X19970Y-43764D01*
X20041Y-43829D01*
X20082Y-43849D01*
X20118Y-43876D01*
X20209Y-43910D01*
X20295Y-43952D01*
X20337Y-43958D01*
X20382Y-43975D01*
X20510Y-43985D01*
X20599Y-43999D01*
X66194Y-43999D01*
X68399Y-44913D01*
X89693Y-66207D01*
X89770Y-66264D01*
X89841Y-66329D01*
X89882Y-66349D01*
X89918Y-66376D01*
X90009Y-66410D01*
X90095Y-66452D01*
X90137Y-66458D01*
X90182Y-66475D01*
X90310Y-66485D01*
X90399Y-66499D01*
X114460Y-66499D01*
X114524Y-66490D01*
X114588Y-66491D01*
X114663Y-66470D01*
X114739Y-66459D01*
X114798Y-66433D01*
X114860Y-66416D01*
X114926Y-66375D01*
X114996Y-66343D01*
X115045Y-66301D01*
X115100Y-66268D01*
X115152Y-66210D01*
X115210Y-66160D01*
X115246Y-66106D01*
X115289Y-66058D01*
X115322Y-65989D01*
X115365Y-65924D01*
X115384Y-65862D01*
X115412Y-65805D01*
X115423Y-65735D01*
X115447Y-65654D01*
X115448Y-65569D01*
X115459Y-65500D01*
X115459Y-64131D01*
X116631Y-62959D01*
X133369Y-62959D01*
X134541Y-64131D01*
X134541Y-80869D01*
X133369Y-82041D01*
X116631Y-82041D01*
G37*
%LPD*%
%LPC*%
G36*
X-68985Y23079D02*
X-68985Y23079D01*
X-74621Y28715D01*
X-74621Y36685D01*
X-68985Y42321D01*
X-64279Y42321D01*
X-64185Y42334D01*
X-64088Y42339D01*
X-64045Y42354D01*
X-64000Y42361D01*
X-63913Y42400D01*
X-63822Y42432D01*
X-63787Y42457D01*
X-63743Y42477D01*
X-63646Y42560D01*
X-63573Y42613D01*
X-51099Y55087D01*
X-48894Y56001D01*
X87101Y56001D01*
X87195Y56014D01*
X87292Y56019D01*
X87335Y56034D01*
X87380Y56041D01*
X87467Y56080D01*
X87558Y56112D01*
X87593Y56137D01*
X87637Y56157D01*
X87734Y56240D01*
X87807Y56293D01*
X108789Y77276D01*
X108814Y77309D01*
X108845Y77337D01*
X108890Y77410D01*
X108959Y77501D01*
X108979Y77556D01*
X109006Y77600D01*
X109462Y78701D01*
X111299Y80538D01*
X113701Y81533D01*
X116299Y81533D01*
X118701Y80538D01*
X120538Y78701D01*
X121533Y76299D01*
X121533Y73701D01*
X120538Y71299D01*
X118701Y69462D01*
X117600Y69006D01*
X117564Y68985D01*
X117525Y68971D01*
X117455Y68920D01*
X117357Y68862D01*
X117317Y68819D01*
X117276Y68789D01*
X93399Y44913D01*
X91194Y43999D01*
X70883Y43999D01*
X70851Y43995D01*
X70818Y43997D01*
X70712Y43975D01*
X70603Y43959D01*
X70574Y43946D01*
X70542Y43940D01*
X70446Y43888D01*
X70346Y43843D01*
X70322Y43822D01*
X70293Y43807D01*
X70215Y43731D01*
X70132Y43660D01*
X70114Y43633D01*
X70091Y43610D01*
X70038Y43515D01*
X69978Y43424D01*
X69968Y43393D01*
X69952Y43365D01*
X69927Y43258D01*
X69895Y43154D01*
X69895Y43122D01*
X69887Y43091D01*
X69893Y42981D01*
X69892Y42872D01*
X69900Y42841D01*
X69902Y42809D01*
X69938Y42706D01*
X69967Y42600D01*
X69984Y42573D01*
X69994Y42542D01*
X70048Y42469D01*
X70115Y42360D01*
X70151Y42328D01*
X70176Y42293D01*
X75561Y36909D01*
X75561Y34699D01*
X66400Y34699D01*
X66337Y34690D01*
X66272Y34691D01*
X66198Y34670D01*
X66121Y34659D01*
X66062Y34633D01*
X66000Y34616D01*
X65934Y34575D01*
X65864Y34543D01*
X65815Y34501D01*
X65760Y34468D01*
X65709Y34410D01*
X65650Y34360D01*
X65614Y34306D01*
X65571Y34258D01*
X65538Y34189D01*
X65495Y34124D01*
X65476Y34062D01*
X65448Y34005D01*
X65438Y33935D01*
X65413Y33854D01*
X65412Y33769D01*
X65401Y33700D01*
X65401Y32699D01*
X65399Y32699D01*
X65399Y33700D01*
X65390Y33764D01*
X65391Y33828D01*
X65370Y33903D01*
X65359Y33979D01*
X65333Y34038D01*
X65316Y34100D01*
X65275Y34166D01*
X65243Y34236D01*
X65201Y34285D01*
X65168Y34340D01*
X65110Y34392D01*
X65060Y34450D01*
X65006Y34486D01*
X64958Y34529D01*
X64889Y34562D01*
X64824Y34605D01*
X64762Y34624D01*
X64704Y34652D01*
X64635Y34662D01*
X64554Y34687D01*
X64469Y34688D01*
X64400Y34699D01*
X55239Y34699D01*
X55239Y36909D01*
X60624Y42293D01*
X60643Y42319D01*
X60668Y42340D01*
X60728Y42432D01*
X60793Y42519D01*
X60805Y42549D01*
X60822Y42576D01*
X60854Y42681D01*
X60893Y42783D01*
X60895Y42815D01*
X60905Y42846D01*
X60906Y42955D01*
X60915Y43064D01*
X60908Y43096D01*
X60908Y43128D01*
X60879Y43233D01*
X60857Y43340D01*
X60842Y43369D01*
X60833Y43400D01*
X60776Y43493D01*
X60725Y43589D01*
X60702Y43612D01*
X60685Y43640D01*
X60604Y43713D01*
X60528Y43791D01*
X60500Y43807D01*
X60476Y43829D01*
X60378Y43876D01*
X60282Y43930D01*
X60251Y43938D01*
X60222Y43952D01*
X60133Y43966D01*
X60008Y43995D01*
X59959Y43993D01*
X59917Y43999D01*
X47000Y43999D01*
X46936Y43990D01*
X46872Y43991D01*
X46797Y43970D01*
X46721Y43959D01*
X46662Y43933D01*
X46600Y43916D01*
X46534Y43875D01*
X46464Y43843D01*
X46415Y43801D01*
X46360Y43768D01*
X46308Y43710D01*
X46250Y43660D01*
X46214Y43606D01*
X46171Y43558D01*
X46138Y43489D01*
X46095Y43424D01*
X46076Y43362D01*
X46048Y43305D01*
X46037Y43235D01*
X46013Y43154D01*
X46012Y43069D01*
X46001Y43000D01*
X46001Y40719D01*
X46014Y40624D01*
X46019Y40528D01*
X46034Y40485D01*
X46041Y40440D01*
X46080Y40352D01*
X46112Y40261D01*
X46137Y40227D01*
X46157Y40183D01*
X46240Y40085D01*
X46293Y40012D01*
X49621Y36685D01*
X49621Y28715D01*
X43985Y23079D01*
X36015Y23079D01*
X30379Y28715D01*
X30379Y36685D01*
X33707Y40012D01*
X33764Y40089D01*
X33829Y40161D01*
X33849Y40202D01*
X33876Y40238D01*
X33910Y40328D01*
X33952Y40414D01*
X33958Y40456D01*
X33975Y40502D01*
X33985Y40629D01*
X33999Y40719D01*
X33999Y43000D01*
X33990Y43064D01*
X33991Y43128D01*
X33970Y43203D01*
X33959Y43279D01*
X33933Y43338D01*
X33916Y43400D01*
X33875Y43466D01*
X33843Y43536D01*
X33801Y43585D01*
X33768Y43640D01*
X33710Y43692D01*
X33660Y43750D01*
X33606Y43786D01*
X33558Y43829D01*
X33489Y43862D01*
X33424Y43905D01*
X33362Y43924D01*
X33305Y43952D01*
X33235Y43963D01*
X33154Y43987D01*
X33069Y43988D01*
X33000Y43999D01*
X19319Y43999D01*
X19287Y43995D01*
X19255Y43997D01*
X19148Y43975D01*
X19040Y43959D01*
X19010Y43946D01*
X18979Y43940D01*
X18882Y43888D01*
X18783Y43843D01*
X18758Y43822D01*
X18730Y43807D01*
X18652Y43731D01*
X18568Y43660D01*
X18551Y43633D01*
X18528Y43610D01*
X18474Y43515D01*
X18414Y43424D01*
X18405Y43393D01*
X18389Y43365D01*
X18363Y43258D01*
X18332Y43154D01*
X18331Y43122D01*
X18324Y43091D01*
X18329Y42981D01*
X18328Y42872D01*
X18336Y42841D01*
X18338Y42809D01*
X18374Y42706D01*
X18403Y42600D01*
X18420Y42573D01*
X18431Y42542D01*
X18484Y42469D01*
X18551Y42360D01*
X18587Y42328D01*
X18612Y42293D01*
X24221Y36685D01*
X24221Y28715D01*
X18585Y23079D01*
X10615Y23079D01*
X4979Y28715D01*
X4979Y36685D01*
X10588Y42293D01*
X10607Y42319D01*
X10632Y42340D01*
X10691Y42432D01*
X10757Y42519D01*
X10768Y42549D01*
X10786Y42576D01*
X10818Y42681D01*
X10857Y42783D01*
X10859Y42815D01*
X10868Y42846D01*
X10870Y42955D01*
X10878Y43064D01*
X10872Y43096D01*
X10872Y43128D01*
X10843Y43233D01*
X10821Y43340D01*
X10806Y43369D01*
X10797Y43400D01*
X10740Y43493D01*
X10688Y43589D01*
X10666Y43612D01*
X10649Y43640D01*
X10568Y43713D01*
X10491Y43791D01*
X10463Y43807D01*
X10440Y43829D01*
X10341Y43876D01*
X10246Y43930D01*
X10215Y43938D01*
X10186Y43952D01*
X10096Y43966D01*
X9972Y43995D01*
X9923Y43993D01*
X9881Y43999D01*
X-34117Y43999D01*
X-34149Y43995D01*
X-34182Y43997D01*
X-34288Y43975D01*
X-34397Y43959D01*
X-34426Y43946D01*
X-34458Y43940D01*
X-34554Y43888D01*
X-34654Y43843D01*
X-34678Y43822D01*
X-34707Y43807D01*
X-34785Y43731D01*
X-34868Y43660D01*
X-34886Y43633D01*
X-34909Y43610D01*
X-34962Y43515D01*
X-35022Y43424D01*
X-35032Y43393D01*
X-35048Y43365D01*
X-35073Y43258D01*
X-35105Y43154D01*
X-35105Y43122D01*
X-35113Y43091D01*
X-35107Y42981D01*
X-35108Y42872D01*
X-35100Y42841D01*
X-35098Y42809D01*
X-35062Y42706D01*
X-35033Y42600D01*
X-35016Y42573D01*
X-35006Y42542D01*
X-34952Y42469D01*
X-34885Y42360D01*
X-34849Y42328D01*
X-34824Y42293D01*
X-29439Y36909D01*
X-29439Y34699D01*
X-38600Y34699D01*
X-38663Y34690D01*
X-38728Y34691D01*
X-38802Y34670D01*
X-38879Y34659D01*
X-38938Y34633D01*
X-39000Y34616D01*
X-39066Y34575D01*
X-39136Y34543D01*
X-39185Y34501D01*
X-39240Y34468D01*
X-39291Y34410D01*
X-39350Y34360D01*
X-39386Y34306D01*
X-39429Y34258D01*
X-39462Y34189D01*
X-39505Y34124D01*
X-39524Y34062D01*
X-39552Y34005D01*
X-39562Y33935D01*
X-39587Y33854D01*
X-39588Y33769D01*
X-39599Y33700D01*
X-39599Y32699D01*
X-39601Y32699D01*
X-39601Y33700D01*
X-39610Y33764D01*
X-39609Y33828D01*
X-39630Y33903D01*
X-39641Y33979D01*
X-39667Y34038D01*
X-39684Y34100D01*
X-39725Y34166D01*
X-39757Y34236D01*
X-39799Y34285D01*
X-39832Y34340D01*
X-39890Y34392D01*
X-39940Y34450D01*
X-39994Y34486D01*
X-40042Y34529D01*
X-40111Y34562D01*
X-40176Y34605D01*
X-40238Y34624D01*
X-40296Y34652D01*
X-40365Y34662D01*
X-40446Y34687D01*
X-40531Y34688D01*
X-40600Y34699D01*
X-49761Y34699D01*
X-49761Y37041D01*
X-49765Y37073D01*
X-49763Y37105D01*
X-49785Y37212D01*
X-49801Y37320D01*
X-49814Y37349D01*
X-49820Y37381D01*
X-49872Y37477D01*
X-49917Y37577D01*
X-49938Y37601D01*
X-49953Y37630D01*
X-50029Y37708D01*
X-50100Y37791D01*
X-50127Y37809D01*
X-50150Y37832D01*
X-50245Y37886D01*
X-50336Y37945D01*
X-50367Y37955D01*
X-50395Y37971D01*
X-50501Y37996D01*
X-50606Y38028D01*
X-50638Y38028D01*
X-50669Y38036D01*
X-50779Y38030D01*
X-50888Y38032D01*
X-50919Y38023D01*
X-50951Y38021D01*
X-51054Y37986D01*
X-51160Y37956D01*
X-51187Y37939D01*
X-51218Y37929D01*
X-51291Y37876D01*
X-51400Y37808D01*
X-51432Y37772D01*
X-51467Y37747D01*
X-55087Y34127D01*
X-55144Y34050D01*
X-55209Y33979D01*
X-55229Y33938D01*
X-55256Y33902D01*
X-55290Y33811D01*
X-55332Y33725D01*
X-55338Y33683D01*
X-55355Y33638D01*
X-55365Y33510D01*
X-55379Y33421D01*
X-55379Y28715D01*
X-61015Y23079D01*
X-68985Y23079D01*
G37*
%LPD*%
%LPC*%
G36*
X10615Y-2321D02*
X10615Y-2321D01*
X4979Y3315D01*
X4979Y11285D01*
X10615Y16921D01*
X18585Y16921D01*
X21912Y13593D01*
X21989Y13536D01*
X22061Y13471D01*
X22102Y13451D01*
X22138Y13424D01*
X22228Y13390D01*
X22314Y13348D01*
X22356Y13342D01*
X22402Y13325D01*
X22529Y13315D01*
X22619Y13301D01*
X31981Y13301D01*
X32076Y13314D01*
X32172Y13319D01*
X32215Y13334D01*
X32260Y13341D01*
X32348Y13380D01*
X32439Y13412D01*
X32473Y13437D01*
X32517Y13457D01*
X32615Y13540D01*
X32688Y13593D01*
X36015Y16921D01*
X43985Y16921D01*
X47312Y13593D01*
X47389Y13536D01*
X47461Y13471D01*
X47502Y13451D01*
X47538Y13424D01*
X47628Y13390D01*
X47714Y13348D01*
X47756Y13342D01*
X47802Y13325D01*
X47929Y13315D01*
X48019Y13301D01*
X57381Y13301D01*
X57476Y13314D01*
X57572Y13319D01*
X57615Y13334D01*
X57660Y13341D01*
X57748Y13380D01*
X57839Y13412D01*
X57873Y13437D01*
X57917Y13457D01*
X58015Y13540D01*
X58088Y13593D01*
X61415Y16921D01*
X69385Y16921D01*
X72712Y13593D01*
X72789Y13536D01*
X72861Y13471D01*
X72902Y13451D01*
X72938Y13424D01*
X73028Y13390D01*
X73114Y13348D01*
X73156Y13342D01*
X73202Y13325D01*
X73329Y13315D01*
X73419Y13301D01*
X76901Y13301D01*
X76995Y13314D01*
X77092Y13319D01*
X77135Y13334D01*
X77180Y13341D01*
X77267Y13380D01*
X77358Y13412D01*
X77393Y13437D01*
X77437Y13457D01*
X77534Y13540D01*
X77607Y13593D01*
X95167Y31153D01*
X95210Y31211D01*
X95211Y31213D01*
X95224Y31230D01*
X95289Y31301D01*
X95309Y31342D01*
X95336Y31378D01*
X95358Y31436D01*
X95365Y31447D01*
X95374Y31477D01*
X95412Y31555D01*
X95418Y31597D01*
X95435Y31642D01*
X95439Y31690D01*
X95447Y31717D01*
X95448Y31789D01*
X95459Y31859D01*
X95459Y40869D01*
X96631Y42041D01*
X113369Y42041D01*
X114541Y40869D01*
X114541Y39500D01*
X114550Y39436D01*
X114549Y39372D01*
X114570Y39297D01*
X114581Y39221D01*
X114607Y39162D01*
X114624Y39100D01*
X114665Y39034D01*
X114697Y38964D01*
X114739Y38915D01*
X114772Y38860D01*
X114830Y38808D01*
X114880Y38750D01*
X114934Y38714D01*
X114982Y38671D01*
X115051Y38638D01*
X115116Y38595D01*
X115178Y38576D01*
X115235Y38548D01*
X115305Y38537D01*
X115386Y38513D01*
X115471Y38512D01*
X115540Y38501D01*
X154460Y38501D01*
X154524Y38510D01*
X154588Y38509D01*
X154663Y38530D01*
X154739Y38541D01*
X154798Y38567D01*
X154860Y38584D01*
X154926Y38625D01*
X154996Y38657D01*
X155045Y38699D01*
X155100Y38732D01*
X155152Y38790D01*
X155210Y38840D01*
X155246Y38894D01*
X155289Y38942D01*
X155322Y39011D01*
X155365Y39076D01*
X155384Y39138D01*
X155412Y39195D01*
X155423Y39265D01*
X155447Y39346D01*
X155448Y39431D01*
X155459Y39500D01*
X155459Y40869D01*
X156631Y42041D01*
X173369Y42041D01*
X174541Y40869D01*
X174541Y24131D01*
X173369Y22959D01*
X156631Y22959D01*
X155459Y24131D01*
X155459Y25500D01*
X155450Y25564D01*
X155451Y25628D01*
X155430Y25703D01*
X155419Y25779D01*
X155393Y25838D01*
X155376Y25900D01*
X155335Y25966D01*
X155303Y26036D01*
X155261Y26085D01*
X155228Y26140D01*
X155170Y26192D01*
X155120Y26250D01*
X155066Y26286D01*
X155018Y26329D01*
X154949Y26362D01*
X154884Y26405D01*
X154822Y26424D01*
X154765Y26452D01*
X154695Y26463D01*
X154614Y26487D01*
X154529Y26488D01*
X154460Y26499D01*
X115540Y26499D01*
X115476Y26490D01*
X115412Y26491D01*
X115337Y26470D01*
X115261Y26459D01*
X115202Y26433D01*
X115140Y26416D01*
X115074Y26375D01*
X115004Y26343D01*
X114955Y26301D01*
X114900Y26268D01*
X114848Y26210D01*
X114790Y26160D01*
X114754Y26106D01*
X114711Y26058D01*
X114678Y25989D01*
X114635Y25924D01*
X114616Y25862D01*
X114588Y25805D01*
X114577Y25735D01*
X114553Y25654D01*
X114552Y25569D01*
X114541Y25500D01*
X114541Y24131D01*
X113369Y22959D01*
X104359Y22959D01*
X104265Y22946D01*
X104168Y22941D01*
X104125Y22926D01*
X104080Y22919D01*
X103993Y22880D01*
X103902Y22848D01*
X103867Y22823D01*
X103823Y22803D01*
X103726Y22720D01*
X103653Y22667D01*
X83199Y2213D01*
X80994Y1299D01*
X73419Y1299D01*
X73324Y1286D01*
X73228Y1281D01*
X73185Y1266D01*
X73140Y1259D01*
X73052Y1220D01*
X72961Y1188D01*
X72927Y1163D01*
X72883Y1143D01*
X72786Y1060D01*
X72712Y1007D01*
X69385Y-2321D01*
X61415Y-2321D01*
X58088Y1007D01*
X58011Y1064D01*
X57939Y1129D01*
X57899Y1149D01*
X57862Y1176D01*
X57772Y1210D01*
X57686Y1252D01*
X57644Y1258D01*
X57598Y1275D01*
X57471Y1285D01*
X57381Y1299D01*
X48019Y1299D01*
X47924Y1286D01*
X47828Y1281D01*
X47785Y1266D01*
X47740Y1259D01*
X47652Y1220D01*
X47561Y1188D01*
X47527Y1163D01*
X47483Y1143D01*
X47386Y1060D01*
X47312Y1007D01*
X43985Y-2321D01*
X36015Y-2321D01*
X32688Y1007D01*
X32611Y1064D01*
X32539Y1129D01*
X32499Y1149D01*
X32462Y1176D01*
X32372Y1210D01*
X32286Y1252D01*
X32244Y1258D01*
X32198Y1275D01*
X32071Y1285D01*
X31981Y1299D01*
X22619Y1299D01*
X22524Y1286D01*
X22428Y1281D01*
X22385Y1266D01*
X22340Y1259D01*
X22252Y1220D01*
X22161Y1188D01*
X22127Y1163D01*
X22083Y1143D01*
X21986Y1060D01*
X21912Y1007D01*
X18585Y-2321D01*
X10615Y-2321D01*
G37*
%LPD*%
%LPC*%
G36*
X-94385Y23079D02*
X-94385Y23079D01*
X-100021Y28715D01*
X-100021Y36685D01*
X-94385Y42321D01*
X-86415Y42321D01*
X-80779Y36685D01*
X-80779Y28715D01*
X-86415Y23079D01*
X-94385Y23079D01*
G37*
%LPD*%
%LPC*%
G36*
X123102Y-57041D02*
X123102Y-57041D01*
X119596Y-55588D01*
X116912Y-52904D01*
X115459Y-49398D01*
X115459Y-45602D01*
X116912Y-42096D01*
X119596Y-39412D01*
X123102Y-37959D01*
X126898Y-37959D01*
X130404Y-39412D01*
X133088Y-42096D01*
X134541Y-45602D01*
X134541Y-49398D01*
X133088Y-52904D01*
X130404Y-55588D01*
X126898Y-57041D01*
X123102Y-57041D01*
G37*
%LPD*%
%LPC*%
G36*
X-126898Y-82041D02*
X-126898Y-82041D01*
X-130404Y-80588D01*
X-133088Y-77904D01*
X-134541Y-74398D01*
X-134541Y-70602D01*
X-133088Y-67096D01*
X-130404Y-64412D01*
X-126898Y-62959D01*
X-123102Y-62959D01*
X-119596Y-64412D01*
X-116912Y-67096D01*
X-115459Y-70602D01*
X-115459Y-74398D01*
X-116912Y-77904D01*
X-119596Y-80588D01*
X-123102Y-82041D01*
X-126898Y-82041D01*
G37*
%LPD*%
%LPC*%
G36*
X35602Y-84541D02*
X35602Y-84541D01*
X32096Y-83088D01*
X29412Y-80404D01*
X27959Y-76898D01*
X27959Y-73102D01*
X29412Y-69596D01*
X32096Y-66912D01*
X35602Y-65459D01*
X39398Y-65459D01*
X42904Y-66912D01*
X45588Y-69596D01*
X47041Y-73102D01*
X47041Y-76898D01*
X45588Y-80404D01*
X42904Y-83088D01*
X39398Y-84541D01*
X35602Y-84541D01*
G37*
%LPD*%
%LPC*%
G36*
X10602Y-84541D02*
X10602Y-84541D01*
X7096Y-83088D01*
X4412Y-80404D01*
X2959Y-76898D01*
X2959Y-73102D01*
X4412Y-69596D01*
X7096Y-66912D01*
X10602Y-65459D01*
X14398Y-65459D01*
X17904Y-66912D01*
X20588Y-69596D01*
X22041Y-73102D01*
X22041Y-76898D01*
X20588Y-80404D01*
X17904Y-83088D01*
X14398Y-84541D01*
X10602Y-84541D01*
G37*
%LPD*%
%LPC*%
G36*
X-14398Y-84541D02*
X-14398Y-84541D01*
X-17904Y-83088D01*
X-20588Y-80404D01*
X-22041Y-76898D01*
X-22041Y-73102D01*
X-20588Y-69596D01*
X-17904Y-66912D01*
X-14398Y-65459D01*
X-10602Y-65459D01*
X-7096Y-66912D01*
X-4412Y-69596D01*
X-2959Y-73102D01*
X-2959Y-76898D01*
X-4412Y-80404D01*
X-7096Y-83088D01*
X-10602Y-84541D01*
X-14398Y-84541D01*
G37*
%LPD*%
%LPC*%
G36*
X163102Y-2041D02*
X163102Y-2041D01*
X159596Y-588D01*
X156912Y2096D01*
X155459Y5602D01*
X155459Y9398D01*
X156912Y12904D01*
X159596Y15588D01*
X163102Y17041D01*
X166898Y17041D01*
X170404Y15588D01*
X173088Y12904D01*
X174541Y9398D01*
X174541Y5602D01*
X173088Y2096D01*
X170404Y-588D01*
X166898Y-2041D01*
X163102Y-2041D01*
G37*
%LPD*%
%LPC*%
G36*
X103102Y-2041D02*
X103102Y-2041D01*
X99596Y-588D01*
X96912Y2096D01*
X95459Y5602D01*
X95459Y9398D01*
X96912Y12904D01*
X99596Y15588D01*
X103102Y17041D01*
X106898Y17041D01*
X110404Y15588D01*
X113088Y12904D01*
X114541Y9398D01*
X114541Y5602D01*
X113088Y2096D01*
X110404Y-588D01*
X106898Y-2041D01*
X103102Y-2041D01*
G37*
%LPD*%
%LPC*%
G36*
X-45375Y-85081D02*
X-45375Y-85081D01*
X-46021Y-84908D01*
X-46600Y-84573D01*
X-47073Y-84100D01*
X-47408Y-83521D01*
X-47581Y-82875D01*
X-47581Y-76999D01*
X-39499Y-76999D01*
X-39499Y-85081D01*
X-45375Y-85081D01*
G37*
%LPD*%
%LPC*%
G36*
X-35501Y-85081D02*
X-35501Y-85081D01*
X-35501Y-76999D01*
X-27419Y-76999D01*
X-27419Y-82875D01*
X-27592Y-83521D01*
X-27927Y-84100D01*
X-28400Y-84573D01*
X-28979Y-84908D01*
X-29625Y-85081D01*
X-35501Y-85081D01*
G37*
%LPD*%
%LPC*%
G36*
X-47581Y-73001D02*
X-47581Y-73001D01*
X-47581Y-67125D01*
X-47408Y-66479D01*
X-47073Y-65900D01*
X-46600Y-65427D01*
X-46021Y-65092D01*
X-45375Y-64919D01*
X-39499Y-64919D01*
X-39499Y-73001D01*
X-47581Y-73001D01*
G37*
%LPD*%
%LPC*%
G36*
X-35501Y-73001D02*
X-35501Y-73001D01*
X-35501Y-64919D01*
X-29625Y-64919D01*
X-28979Y-65092D01*
X-28400Y-65427D01*
X-27927Y-65900D01*
X-27592Y-66479D01*
X-27419Y-67125D01*
X-27419Y-73001D01*
X-35501Y-73001D01*
G37*
%LPD*%
%LPC*%
G36*
X67399Y22539D02*
X67399Y22539D01*
X67399Y30701D01*
X75561Y30701D01*
X75561Y28491D01*
X69609Y22539D01*
X67399Y22539D01*
G37*
%LPD*%
%LPC*%
G36*
X-43809Y22539D02*
X-43809Y22539D01*
X-49761Y28491D01*
X-49761Y30701D01*
X-41599Y30701D01*
X-41599Y22539D01*
X-43809Y22539D01*
G37*
%LPD*%
%LPC*%
G36*
X61191Y22539D02*
X61191Y22539D01*
X55239Y28491D01*
X55239Y30701D01*
X63401Y30701D01*
X63401Y22539D01*
X61191Y22539D01*
G37*
%LPD*%
%LPC*%
G36*
X-37601Y22539D02*
X-37601Y22539D01*
X-37601Y30701D01*
X-29439Y30701D01*
X-29439Y28491D01*
X-35391Y22539D01*
X-37601Y22539D01*
G37*
%LPD*%
%LPC*%
G36*
X-37501Y-75001D02*
X-37501Y-75001D01*
X-37501Y-74999D01*
X-37499Y-74999D01*
X-37499Y-75001D01*
X-37501Y-75001D01*
G37*
%LPD*%
D10*
X-90400Y7300D03*
X-90400Y32700D03*
X-65000Y7300D03*
X-65000Y32700D03*
X-39600Y7300D03*
X-39600Y32700D03*
X14600Y7300D03*
X14600Y32700D03*
X40000Y7300D03*
X40000Y32700D03*
X65400Y7300D03*
X65400Y32700D03*
D11*
X125000Y-72500D03*
D12*
X125000Y-47500D03*
D11*
X-125000Y-47500D03*
D12*
X-125000Y-72500D03*
D11*
X165000Y32500D03*
D12*
X165000Y7500D03*
D11*
X105000Y32500D03*
D12*
X105000Y7500D03*
D11*
X-37500Y-75000D03*
D12*
X-12500Y-75000D03*
X12500Y-75000D03*
X37500Y-75000D03*
D13*
X-115000Y75000D03*
X15000Y75000D03*
X115000Y75000D03*
D14*
X-47700Y50000D02*
X-65000Y32700D01*
X-47700Y50000D02*
X40000Y50000D01*
X40000Y32700D01*
X40000Y50000D02*
X90000Y50000D01*
X115000Y75000D01*
X-65000Y7300D02*
X-90400Y7300D01*
X-65000Y7300D02*
X-39600Y7300D01*
X-90400Y-12900D02*
X-125000Y-47500D01*
X-90400Y-12900D02*
X-90400Y7300D01*
X-39600Y7300D02*
X17700Y-50000D01*
X65000Y-50000D01*
X87500Y-72500D02*
X125000Y-72500D01*
X87500Y-72500D02*
X65000Y-50000D01*
X40000Y7300D02*
X14600Y7300D01*
X40000Y7300D02*
X65400Y7300D01*
X105000Y32500D02*
X165000Y32500D01*
X79800Y7300D02*
X65400Y7300D01*
X79800Y7300D02*
X105000Y32500D01*
M02*
