G04 EAGLE Gerber RS-274X export*
G75*
%MOMM*%
%FSLAX34Y34*%
%LPD*%
%IN*%
%IPPOS*%
%AMOC8*
5,1,8,0,0,1.08239X$1,22.5*%
G01*
%ADD10C,0.254000*%


D10*
X-200000Y-150000D02*
X200000Y-150000D01*
X200000Y150000D01*
X-200000Y150000D01*
X-200000Y-150000D01*
X-159000Y-125524D02*
X-159069Y-126569D01*
X-159205Y-127608D01*
X-159410Y-128635D01*
X-159681Y-129647D01*
X-160017Y-130639D01*
X-160418Y-131607D01*
X-160882Y-132546D01*
X-161406Y-133454D01*
X-161988Y-134325D01*
X-162625Y-135156D01*
X-163316Y-135943D01*
X-164057Y-136684D01*
X-164844Y-137375D01*
X-165675Y-138013D01*
X-166546Y-138595D01*
X-167454Y-139118D01*
X-168393Y-139582D01*
X-169361Y-139983D01*
X-170353Y-140319D01*
X-171365Y-140590D01*
X-172392Y-140795D01*
X-173431Y-140932D01*
X-174476Y-141000D01*
X-175524Y-141000D01*
X-176569Y-140932D01*
X-177608Y-140795D01*
X-178635Y-140590D01*
X-179647Y-140319D01*
X-180639Y-139983D01*
X-181607Y-139582D01*
X-182546Y-139118D01*
X-183454Y-138595D01*
X-184325Y-138013D01*
X-185156Y-137375D01*
X-185943Y-136684D01*
X-186684Y-135943D01*
X-187375Y-135156D01*
X-188013Y-134325D01*
X-188595Y-133454D01*
X-189118Y-132546D01*
X-189582Y-131607D01*
X-189983Y-130639D01*
X-190319Y-129647D01*
X-190590Y-128635D01*
X-190795Y-127608D01*
X-190932Y-126569D01*
X-191000Y-125524D01*
X-191000Y-124476D01*
X-190932Y-123431D01*
X-190795Y-122392D01*
X-190590Y-121365D01*
X-190319Y-120353D01*
X-189983Y-119361D01*
X-189582Y-118393D01*
X-189118Y-117454D01*
X-188595Y-116546D01*
X-188013Y-115675D01*
X-187375Y-114844D01*
X-186684Y-114057D01*
X-185943Y-113316D01*
X-185156Y-112625D01*
X-184325Y-111988D01*
X-183454Y-111406D01*
X-182546Y-110882D01*
X-181607Y-110418D01*
X-180639Y-110017D01*
X-179647Y-109681D01*
X-178635Y-109410D01*
X-177608Y-109205D01*
X-176569Y-109069D01*
X-175524Y-109000D01*
X-174476Y-109000D01*
X-173431Y-109069D01*
X-172392Y-109205D01*
X-171365Y-109410D01*
X-170353Y-109681D01*
X-169361Y-110017D01*
X-168393Y-110418D01*
X-167454Y-110882D01*
X-166546Y-111406D01*
X-165675Y-111988D01*
X-164844Y-112625D01*
X-164057Y-113316D01*
X-163316Y-114057D01*
X-162625Y-114844D01*
X-161988Y-115675D01*
X-161406Y-116546D01*
X-160882Y-117454D01*
X-160418Y-118393D01*
X-160017Y-119361D01*
X-159681Y-120353D01*
X-159410Y-121365D01*
X-159205Y-122392D01*
X-159069Y-123431D01*
X-159000Y-124476D01*
X-159000Y-125524D01*
X191000Y-125524D02*
X190932Y-126569D01*
X190795Y-127608D01*
X190590Y-128635D01*
X190319Y-129647D01*
X189983Y-130639D01*
X189582Y-131607D01*
X189118Y-132546D01*
X188595Y-133454D01*
X188013Y-134325D01*
X187375Y-135156D01*
X186684Y-135943D01*
X185943Y-136684D01*
X185156Y-137375D01*
X184325Y-138013D01*
X183454Y-138595D01*
X182546Y-139118D01*
X181607Y-139582D01*
X180639Y-139983D01*
X179647Y-140319D01*
X178635Y-140590D01*
X177608Y-140795D01*
X176569Y-140932D01*
X175524Y-141000D01*
X174476Y-141000D01*
X173431Y-140932D01*
X172392Y-140795D01*
X171365Y-140590D01*
X170353Y-140319D01*
X169361Y-139983D01*
X168393Y-139582D01*
X167454Y-139118D01*
X166546Y-138595D01*
X165675Y-138013D01*
X164844Y-137375D01*
X164057Y-136684D01*
X163316Y-135943D01*
X162625Y-135156D01*
X161988Y-134325D01*
X161406Y-133454D01*
X160882Y-132546D01*
X160418Y-131607D01*
X160017Y-130639D01*
X159681Y-129647D01*
X159410Y-128635D01*
X159205Y-127608D01*
X159069Y-126569D01*
X159000Y-125524D01*
X159000Y-124476D01*
X159069Y-123431D01*
X159205Y-122392D01*
X159410Y-121365D01*
X159681Y-120353D01*
X160017Y-119361D01*
X160418Y-118393D01*
X160882Y-117454D01*
X161406Y-116546D01*
X161988Y-115675D01*
X162625Y-114844D01*
X163316Y-114057D01*
X164057Y-113316D01*
X164844Y-112625D01*
X165675Y-111988D01*
X166546Y-111406D01*
X167454Y-110882D01*
X168393Y-110418D01*
X169361Y-110017D01*
X170353Y-109681D01*
X171365Y-109410D01*
X172392Y-109205D01*
X173431Y-109069D01*
X174476Y-109000D01*
X175524Y-109000D01*
X176569Y-109069D01*
X177608Y-109205D01*
X178635Y-109410D01*
X179647Y-109681D01*
X180639Y-110017D01*
X181607Y-110418D01*
X182546Y-110882D01*
X183454Y-111406D01*
X184325Y-111988D01*
X185156Y-112625D01*
X185943Y-113316D01*
X186684Y-114057D01*
X187375Y-114844D01*
X188013Y-115675D01*
X188595Y-116546D01*
X189118Y-117454D01*
X189582Y-118393D01*
X189983Y-119361D01*
X190319Y-120353D01*
X190590Y-121365D01*
X190795Y-122392D01*
X190932Y-123431D01*
X191000Y-124476D01*
X191000Y-125524D01*
X-159000Y124476D02*
X-159069Y123431D01*
X-159205Y122392D01*
X-159410Y121365D01*
X-159681Y120353D01*
X-160017Y119361D01*
X-160418Y118393D01*
X-160882Y117454D01*
X-161406Y116546D01*
X-161988Y115675D01*
X-162625Y114844D01*
X-163316Y114057D01*
X-164057Y113316D01*
X-164844Y112625D01*
X-165675Y111988D01*
X-166546Y111406D01*
X-167454Y110882D01*
X-168393Y110418D01*
X-169361Y110017D01*
X-170353Y109681D01*
X-171365Y109410D01*
X-172392Y109205D01*
X-173431Y109069D01*
X-174476Y109000D01*
X-175524Y109000D01*
X-176569Y109069D01*
X-177608Y109205D01*
X-178635Y109410D01*
X-179647Y109681D01*
X-180639Y110017D01*
X-181607Y110418D01*
X-182546Y110882D01*
X-183454Y111406D01*
X-184325Y111988D01*
X-185156Y112625D01*
X-185943Y113316D01*
X-186684Y114057D01*
X-187375Y114844D01*
X-188013Y115675D01*
X-188595Y116546D01*
X-189118Y117454D01*
X-189582Y118393D01*
X-189983Y119361D01*
X-190319Y120353D01*
X-190590Y121365D01*
X-190795Y122392D01*
X-190932Y123431D01*
X-191000Y124476D01*
X-191000Y125524D01*
X-190932Y126569D01*
X-190795Y127608D01*
X-190590Y128635D01*
X-190319Y129647D01*
X-189983Y130639D01*
X-189582Y131607D01*
X-189118Y132546D01*
X-188595Y133454D01*
X-188013Y134325D01*
X-187375Y135156D01*
X-186684Y135943D01*
X-185943Y136684D01*
X-185156Y137375D01*
X-184325Y138013D01*
X-183454Y138595D01*
X-182546Y139118D01*
X-181607Y139582D01*
X-180639Y139983D01*
X-179647Y140319D01*
X-178635Y140590D01*
X-177608Y140795D01*
X-176569Y140932D01*
X-175524Y141000D01*
X-174476Y141000D01*
X-173431Y140932D01*
X-172392Y140795D01*
X-171365Y140590D01*
X-170353Y140319D01*
X-169361Y139983D01*
X-168393Y139582D01*
X-167454Y139118D01*
X-166546Y138595D01*
X-165675Y138013D01*
X-164844Y137375D01*
X-164057Y136684D01*
X-163316Y135943D01*
X-162625Y135156D01*
X-161988Y134325D01*
X-161406Y133454D01*
X-160882Y132546D01*
X-160418Y131607D01*
X-160017Y130639D01*
X-159681Y129647D01*
X-159410Y128635D01*
X-159205Y127608D01*
X-159069Y126569D01*
X-159000Y125524D01*
X-159000Y124476D01*
X191000Y124476D02*
X190932Y123431D01*
X190795Y122392D01*
X190590Y121365D01*
X190319Y120353D01*
X189983Y119361D01*
X189582Y118393D01*
X189118Y117454D01*
X188595Y116546D01*
X188013Y115675D01*
X187375Y114844D01*
X186684Y114057D01*
X185943Y113316D01*
X185156Y112625D01*
X184325Y111988D01*
X183454Y111406D01*
X182546Y110882D01*
X181607Y110418D01*
X180639Y110017D01*
X179647Y109681D01*
X178635Y109410D01*
X177608Y109205D01*
X176569Y109069D01*
X175524Y109000D01*
X174476Y109000D01*
X173431Y109069D01*
X172392Y109205D01*
X171365Y109410D01*
X170353Y109681D01*
X169361Y110017D01*
X168393Y110418D01*
X167454Y110882D01*
X166546Y111406D01*
X165675Y111988D01*
X164844Y112625D01*
X164057Y113316D01*
X163316Y114057D01*
X162625Y114844D01*
X161988Y115675D01*
X161406Y116546D01*
X160882Y117454D01*
X160418Y118393D01*
X160017Y119361D01*
X159681Y120353D01*
X159410Y121365D01*
X159205Y122392D01*
X159069Y123431D01*
X159000Y124476D01*
X159000Y125524D01*
X159069Y126569D01*
X159205Y127608D01*
X159410Y128635D01*
X159681Y129647D01*
X160017Y130639D01*
X160418Y131607D01*
X160882Y132546D01*
X161406Y133454D01*
X161988Y134325D01*
X162625Y135156D01*
X163316Y135943D01*
X164057Y136684D01*
X164844Y137375D01*
X165675Y138013D01*
X166546Y138595D01*
X167454Y139118D01*
X168393Y139582D01*
X169361Y139983D01*
X170353Y140319D01*
X171365Y140590D01*
X172392Y140795D01*
X173431Y140932D01*
X174476Y141000D01*
X175524Y141000D01*
X176569Y140932D01*
X177608Y140795D01*
X178635Y140590D01*
X179647Y140319D01*
X180639Y139983D01*
X181607Y139582D01*
X182546Y139118D01*
X183454Y138595D01*
X184325Y138013D01*
X185156Y137375D01*
X185943Y136684D01*
X186684Y135943D01*
X187375Y135156D01*
X188013Y134325D01*
X188595Y133454D01*
X189118Y132546D01*
X189582Y131607D01*
X189983Y130639D01*
X190319Y129647D01*
X190590Y128635D01*
X190795Y127608D01*
X190932Y126569D01*
X191000Y125524D01*
X191000Y124476D01*
M02*
