G04 EAGLE Gerber RS-274X export*
G75*
%MOMM*%
%FSLAX34Y34*%
%LPD*%
%INSilkscreen Top*%
%IPPOS*%
%AMOC8*
5,1,8,0,0,1.08239X$1,22.5*%
G01*
%ADD10C,0.100000*%
%ADD11C,0.076200*%
%ADD12C,0.101600*%
%ADD13C,0.152400*%
%ADD14C,0.127000*%
%ADD15C,0.200000*%
%ADD16C,0.203200*%


D10*
X-197500Y-125000D02*
X-197493Y-124448D01*
X-197473Y-123896D01*
X-197439Y-123345D01*
X-197392Y-122795D01*
X-197331Y-122246D01*
X-197256Y-121699D01*
X-197169Y-121153D01*
X-197068Y-120610D01*
X-196953Y-120070D01*
X-196826Y-119533D01*
X-196685Y-118999D01*
X-196531Y-118469D01*
X-196364Y-117942D01*
X-196185Y-117420D01*
X-195992Y-116902D01*
X-195787Y-116390D01*
X-195570Y-115882D01*
X-195340Y-115380D01*
X-195098Y-114884D01*
X-194843Y-114394D01*
X-194577Y-113910D01*
X-194299Y-113433D01*
X-194009Y-112963D01*
X-193708Y-112500D01*
X-193396Y-112044D01*
X-193072Y-111597D01*
X-192738Y-111157D01*
X-192393Y-110726D01*
X-192037Y-110304D01*
X-191671Y-109890D01*
X-191296Y-109485D01*
X-190910Y-109090D01*
X-190515Y-108704D01*
X-190110Y-108329D01*
X-189696Y-107963D01*
X-189274Y-107607D01*
X-188843Y-107262D01*
X-188403Y-106928D01*
X-187956Y-106604D01*
X-187500Y-106292D01*
X-187037Y-105991D01*
X-186567Y-105701D01*
X-186090Y-105423D01*
X-185606Y-105157D01*
X-185116Y-104902D01*
X-184620Y-104660D01*
X-184118Y-104430D01*
X-183610Y-104213D01*
X-183098Y-104008D01*
X-182580Y-103815D01*
X-182058Y-103636D01*
X-181531Y-103469D01*
X-181001Y-103315D01*
X-180467Y-103174D01*
X-179930Y-103047D01*
X-179390Y-102932D01*
X-178847Y-102831D01*
X-178301Y-102744D01*
X-177754Y-102669D01*
X-177205Y-102608D01*
X-176655Y-102561D01*
X-176104Y-102527D01*
X-175552Y-102507D01*
X-175000Y-102500D01*
X-174448Y-102507D01*
X-173896Y-102527D01*
X-173345Y-102561D01*
X-172795Y-102608D01*
X-172246Y-102669D01*
X-171699Y-102744D01*
X-171153Y-102831D01*
X-170610Y-102932D01*
X-170070Y-103047D01*
X-169533Y-103174D01*
X-168999Y-103315D01*
X-168469Y-103469D01*
X-167942Y-103636D01*
X-167420Y-103815D01*
X-166902Y-104008D01*
X-166390Y-104213D01*
X-165882Y-104430D01*
X-165380Y-104660D01*
X-164884Y-104902D01*
X-164394Y-105157D01*
X-163910Y-105423D01*
X-163433Y-105701D01*
X-162963Y-105991D01*
X-162500Y-106292D01*
X-162044Y-106604D01*
X-161597Y-106928D01*
X-161157Y-107262D01*
X-160726Y-107607D01*
X-160304Y-107963D01*
X-159890Y-108329D01*
X-159485Y-108704D01*
X-159090Y-109090D01*
X-158704Y-109485D01*
X-158329Y-109890D01*
X-157963Y-110304D01*
X-157607Y-110726D01*
X-157262Y-111157D01*
X-156928Y-111597D01*
X-156604Y-112044D01*
X-156292Y-112500D01*
X-155991Y-112963D01*
X-155701Y-113433D01*
X-155423Y-113910D01*
X-155157Y-114394D01*
X-154902Y-114884D01*
X-154660Y-115380D01*
X-154430Y-115882D01*
X-154213Y-116390D01*
X-154008Y-116902D01*
X-153815Y-117420D01*
X-153636Y-117942D01*
X-153469Y-118469D01*
X-153315Y-118999D01*
X-153174Y-119533D01*
X-153047Y-120070D01*
X-152932Y-120610D01*
X-152831Y-121153D01*
X-152744Y-121699D01*
X-152669Y-122246D01*
X-152608Y-122795D01*
X-152561Y-123345D01*
X-152527Y-123896D01*
X-152507Y-124448D01*
X-152500Y-125000D01*
X-152507Y-125552D01*
X-152527Y-126104D01*
X-152561Y-126655D01*
X-152608Y-127205D01*
X-152669Y-127754D01*
X-152744Y-128301D01*
X-152831Y-128847D01*
X-152932Y-129390D01*
X-153047Y-129930D01*
X-153174Y-130467D01*
X-153315Y-131001D01*
X-153469Y-131531D01*
X-153636Y-132058D01*
X-153815Y-132580D01*
X-154008Y-133098D01*
X-154213Y-133610D01*
X-154430Y-134118D01*
X-154660Y-134620D01*
X-154902Y-135116D01*
X-155157Y-135606D01*
X-155423Y-136090D01*
X-155701Y-136567D01*
X-155991Y-137037D01*
X-156292Y-137500D01*
X-156604Y-137956D01*
X-156928Y-138403D01*
X-157262Y-138843D01*
X-157607Y-139274D01*
X-157963Y-139696D01*
X-158329Y-140110D01*
X-158704Y-140515D01*
X-159090Y-140910D01*
X-159485Y-141296D01*
X-159890Y-141671D01*
X-160304Y-142037D01*
X-160726Y-142393D01*
X-161157Y-142738D01*
X-161597Y-143072D01*
X-162044Y-143396D01*
X-162500Y-143708D01*
X-162963Y-144009D01*
X-163433Y-144299D01*
X-163910Y-144577D01*
X-164394Y-144843D01*
X-164884Y-145098D01*
X-165380Y-145340D01*
X-165882Y-145570D01*
X-166390Y-145787D01*
X-166902Y-145992D01*
X-167420Y-146185D01*
X-167942Y-146364D01*
X-168469Y-146531D01*
X-168999Y-146685D01*
X-169533Y-146826D01*
X-170070Y-146953D01*
X-170610Y-147068D01*
X-171153Y-147169D01*
X-171699Y-147256D01*
X-172246Y-147331D01*
X-172795Y-147392D01*
X-173345Y-147439D01*
X-173896Y-147473D01*
X-174448Y-147493D01*
X-175000Y-147500D01*
X-175552Y-147493D01*
X-176104Y-147473D01*
X-176655Y-147439D01*
X-177205Y-147392D01*
X-177754Y-147331D01*
X-178301Y-147256D01*
X-178847Y-147169D01*
X-179390Y-147068D01*
X-179930Y-146953D01*
X-180467Y-146826D01*
X-181001Y-146685D01*
X-181531Y-146531D01*
X-182058Y-146364D01*
X-182580Y-146185D01*
X-183098Y-145992D01*
X-183610Y-145787D01*
X-184118Y-145570D01*
X-184620Y-145340D01*
X-185116Y-145098D01*
X-185606Y-144843D01*
X-186090Y-144577D01*
X-186567Y-144299D01*
X-187037Y-144009D01*
X-187500Y-143708D01*
X-187956Y-143396D01*
X-188403Y-143072D01*
X-188843Y-142738D01*
X-189274Y-142393D01*
X-189696Y-142037D01*
X-190110Y-141671D01*
X-190515Y-141296D01*
X-190910Y-140910D01*
X-191296Y-140515D01*
X-191671Y-140110D01*
X-192037Y-139696D01*
X-192393Y-139274D01*
X-192738Y-138843D01*
X-193072Y-138403D01*
X-193396Y-137956D01*
X-193708Y-137500D01*
X-194009Y-137037D01*
X-194299Y-136567D01*
X-194577Y-136090D01*
X-194843Y-135606D01*
X-195098Y-135116D01*
X-195340Y-134620D01*
X-195570Y-134118D01*
X-195787Y-133610D01*
X-195992Y-133098D01*
X-196185Y-132580D01*
X-196364Y-132058D01*
X-196531Y-131531D01*
X-196685Y-131001D01*
X-196826Y-130467D01*
X-196953Y-129930D01*
X-197068Y-129390D01*
X-197169Y-128847D01*
X-197256Y-128301D01*
X-197331Y-127754D01*
X-197392Y-127205D01*
X-197439Y-126655D01*
X-197473Y-126104D01*
X-197493Y-125552D01*
X-197500Y-125000D01*
X152500Y-125000D02*
X152507Y-124448D01*
X152527Y-123896D01*
X152561Y-123345D01*
X152608Y-122795D01*
X152669Y-122246D01*
X152744Y-121699D01*
X152831Y-121153D01*
X152932Y-120610D01*
X153047Y-120070D01*
X153174Y-119533D01*
X153315Y-118999D01*
X153469Y-118469D01*
X153636Y-117942D01*
X153815Y-117420D01*
X154008Y-116902D01*
X154213Y-116390D01*
X154430Y-115882D01*
X154660Y-115380D01*
X154902Y-114884D01*
X155157Y-114394D01*
X155423Y-113910D01*
X155701Y-113433D01*
X155991Y-112963D01*
X156292Y-112500D01*
X156604Y-112044D01*
X156928Y-111597D01*
X157262Y-111157D01*
X157607Y-110726D01*
X157963Y-110304D01*
X158329Y-109890D01*
X158704Y-109485D01*
X159090Y-109090D01*
X159485Y-108704D01*
X159890Y-108329D01*
X160304Y-107963D01*
X160726Y-107607D01*
X161157Y-107262D01*
X161597Y-106928D01*
X162044Y-106604D01*
X162500Y-106292D01*
X162963Y-105991D01*
X163433Y-105701D01*
X163910Y-105423D01*
X164394Y-105157D01*
X164884Y-104902D01*
X165380Y-104660D01*
X165882Y-104430D01*
X166390Y-104213D01*
X166902Y-104008D01*
X167420Y-103815D01*
X167942Y-103636D01*
X168469Y-103469D01*
X168999Y-103315D01*
X169533Y-103174D01*
X170070Y-103047D01*
X170610Y-102932D01*
X171153Y-102831D01*
X171699Y-102744D01*
X172246Y-102669D01*
X172795Y-102608D01*
X173345Y-102561D01*
X173896Y-102527D01*
X174448Y-102507D01*
X175000Y-102500D01*
X175552Y-102507D01*
X176104Y-102527D01*
X176655Y-102561D01*
X177205Y-102608D01*
X177754Y-102669D01*
X178301Y-102744D01*
X178847Y-102831D01*
X179390Y-102932D01*
X179930Y-103047D01*
X180467Y-103174D01*
X181001Y-103315D01*
X181531Y-103469D01*
X182058Y-103636D01*
X182580Y-103815D01*
X183098Y-104008D01*
X183610Y-104213D01*
X184118Y-104430D01*
X184620Y-104660D01*
X185116Y-104902D01*
X185606Y-105157D01*
X186090Y-105423D01*
X186567Y-105701D01*
X187037Y-105991D01*
X187500Y-106292D01*
X187956Y-106604D01*
X188403Y-106928D01*
X188843Y-107262D01*
X189274Y-107607D01*
X189696Y-107963D01*
X190110Y-108329D01*
X190515Y-108704D01*
X190910Y-109090D01*
X191296Y-109485D01*
X191671Y-109890D01*
X192037Y-110304D01*
X192393Y-110726D01*
X192738Y-111157D01*
X193072Y-111597D01*
X193396Y-112044D01*
X193708Y-112500D01*
X194009Y-112963D01*
X194299Y-113433D01*
X194577Y-113910D01*
X194843Y-114394D01*
X195098Y-114884D01*
X195340Y-115380D01*
X195570Y-115882D01*
X195787Y-116390D01*
X195992Y-116902D01*
X196185Y-117420D01*
X196364Y-117942D01*
X196531Y-118469D01*
X196685Y-118999D01*
X196826Y-119533D01*
X196953Y-120070D01*
X197068Y-120610D01*
X197169Y-121153D01*
X197256Y-121699D01*
X197331Y-122246D01*
X197392Y-122795D01*
X197439Y-123345D01*
X197473Y-123896D01*
X197493Y-124448D01*
X197500Y-125000D01*
X197493Y-125552D01*
X197473Y-126104D01*
X197439Y-126655D01*
X197392Y-127205D01*
X197331Y-127754D01*
X197256Y-128301D01*
X197169Y-128847D01*
X197068Y-129390D01*
X196953Y-129930D01*
X196826Y-130467D01*
X196685Y-131001D01*
X196531Y-131531D01*
X196364Y-132058D01*
X196185Y-132580D01*
X195992Y-133098D01*
X195787Y-133610D01*
X195570Y-134118D01*
X195340Y-134620D01*
X195098Y-135116D01*
X194843Y-135606D01*
X194577Y-136090D01*
X194299Y-136567D01*
X194009Y-137037D01*
X193708Y-137500D01*
X193396Y-137956D01*
X193072Y-138403D01*
X192738Y-138843D01*
X192393Y-139274D01*
X192037Y-139696D01*
X191671Y-140110D01*
X191296Y-140515D01*
X190910Y-140910D01*
X190515Y-141296D01*
X190110Y-141671D01*
X189696Y-142037D01*
X189274Y-142393D01*
X188843Y-142738D01*
X188403Y-143072D01*
X187956Y-143396D01*
X187500Y-143708D01*
X187037Y-144009D01*
X186567Y-144299D01*
X186090Y-144577D01*
X185606Y-144843D01*
X185116Y-145098D01*
X184620Y-145340D01*
X184118Y-145570D01*
X183610Y-145787D01*
X183098Y-145992D01*
X182580Y-146185D01*
X182058Y-146364D01*
X181531Y-146531D01*
X181001Y-146685D01*
X180467Y-146826D01*
X179930Y-146953D01*
X179390Y-147068D01*
X178847Y-147169D01*
X178301Y-147256D01*
X177754Y-147331D01*
X177205Y-147392D01*
X176655Y-147439D01*
X176104Y-147473D01*
X175552Y-147493D01*
X175000Y-147500D01*
X174448Y-147493D01*
X173896Y-147473D01*
X173345Y-147439D01*
X172795Y-147392D01*
X172246Y-147331D01*
X171699Y-147256D01*
X171153Y-147169D01*
X170610Y-147068D01*
X170070Y-146953D01*
X169533Y-146826D01*
X168999Y-146685D01*
X168469Y-146531D01*
X167942Y-146364D01*
X167420Y-146185D01*
X166902Y-145992D01*
X166390Y-145787D01*
X165882Y-145570D01*
X165380Y-145340D01*
X164884Y-145098D01*
X164394Y-144843D01*
X163910Y-144577D01*
X163433Y-144299D01*
X162963Y-144009D01*
X162500Y-143708D01*
X162044Y-143396D01*
X161597Y-143072D01*
X161157Y-142738D01*
X160726Y-142393D01*
X160304Y-142037D01*
X159890Y-141671D01*
X159485Y-141296D01*
X159090Y-140910D01*
X158704Y-140515D01*
X158329Y-140110D01*
X157963Y-139696D01*
X157607Y-139274D01*
X157262Y-138843D01*
X156928Y-138403D01*
X156604Y-137956D01*
X156292Y-137500D01*
X155991Y-137037D01*
X155701Y-136567D01*
X155423Y-136090D01*
X155157Y-135606D01*
X154902Y-135116D01*
X154660Y-134620D01*
X154430Y-134118D01*
X154213Y-133610D01*
X154008Y-133098D01*
X153815Y-132580D01*
X153636Y-132058D01*
X153469Y-131531D01*
X153315Y-131001D01*
X153174Y-130467D01*
X153047Y-129930D01*
X152932Y-129390D01*
X152831Y-128847D01*
X152744Y-128301D01*
X152669Y-127754D01*
X152608Y-127205D01*
X152561Y-126655D01*
X152527Y-126104D01*
X152507Y-125552D01*
X152500Y-125000D01*
D11*
X-86381Y-21015D02*
X-86381Y-18269D01*
X-86383Y-18184D01*
X-86389Y-18100D01*
X-86399Y-18016D01*
X-86412Y-17933D01*
X-86430Y-17850D01*
X-86451Y-17768D01*
X-86476Y-17687D01*
X-86505Y-17608D01*
X-86537Y-17529D01*
X-86573Y-17453D01*
X-86612Y-17378D01*
X-86655Y-17305D01*
X-86701Y-17234D01*
X-86751Y-17166D01*
X-86803Y-17099D01*
X-86859Y-17035D01*
X-86917Y-16974D01*
X-86978Y-16916D01*
X-87042Y-16860D01*
X-87109Y-16808D01*
X-87177Y-16758D01*
X-87248Y-16712D01*
X-87321Y-16669D01*
X-87396Y-16630D01*
X-87472Y-16594D01*
X-87551Y-16562D01*
X-87630Y-16533D01*
X-87711Y-16508D01*
X-87793Y-16487D01*
X-87876Y-16469D01*
X-87959Y-16456D01*
X-88043Y-16446D01*
X-88127Y-16440D01*
X-88212Y-16438D01*
X-88212Y-16439D02*
X-89127Y-16439D01*
X-89127Y-16438D02*
X-89212Y-16440D01*
X-89296Y-16446D01*
X-89380Y-16456D01*
X-89463Y-16469D01*
X-89546Y-16487D01*
X-89628Y-16508D01*
X-89709Y-16533D01*
X-89788Y-16562D01*
X-89867Y-16594D01*
X-89943Y-16630D01*
X-90018Y-16669D01*
X-90091Y-16712D01*
X-90162Y-16758D01*
X-90230Y-16808D01*
X-90297Y-16860D01*
X-90361Y-16916D01*
X-90422Y-16974D01*
X-90480Y-17035D01*
X-90536Y-17099D01*
X-90588Y-17166D01*
X-90638Y-17234D01*
X-90684Y-17305D01*
X-90727Y-17378D01*
X-90766Y-17453D01*
X-90802Y-17529D01*
X-90834Y-17608D01*
X-90863Y-17687D01*
X-90888Y-17768D01*
X-90909Y-17850D01*
X-90927Y-17933D01*
X-90940Y-18016D01*
X-90950Y-18100D01*
X-90956Y-18184D01*
X-90958Y-18269D01*
X-90958Y-21015D01*
X-94619Y-21015D01*
X-94619Y-16439D01*
X-94619Y-13373D02*
X-86381Y-10627D01*
X-94619Y-7881D01*
X-69619Y-26827D02*
X-67788Y-29115D01*
X-69619Y-26827D02*
X-61381Y-26827D01*
X-61381Y-29115D02*
X-61381Y-24539D01*
X-67560Y-16438D02*
X-67650Y-16440D01*
X-67740Y-16446D01*
X-67829Y-16456D01*
X-67918Y-16469D01*
X-68006Y-16487D01*
X-68093Y-16508D01*
X-68179Y-16533D01*
X-68265Y-16562D01*
X-68348Y-16595D01*
X-68431Y-16631D01*
X-68511Y-16671D01*
X-68590Y-16714D01*
X-68667Y-16761D01*
X-68742Y-16811D01*
X-68814Y-16864D01*
X-68884Y-16920D01*
X-68952Y-16979D01*
X-69017Y-17041D01*
X-69079Y-17106D01*
X-69138Y-17174D01*
X-69194Y-17244D01*
X-69247Y-17316D01*
X-69297Y-17391D01*
X-69344Y-17468D01*
X-69387Y-17547D01*
X-69427Y-17627D01*
X-69463Y-17710D01*
X-69496Y-17793D01*
X-69525Y-17879D01*
X-69550Y-17965D01*
X-69571Y-18052D01*
X-69589Y-18140D01*
X-69602Y-18229D01*
X-69612Y-18318D01*
X-69618Y-18408D01*
X-69620Y-18498D01*
X-69619Y-18498D02*
X-69617Y-18599D01*
X-69611Y-18699D01*
X-69602Y-18800D01*
X-69588Y-18900D01*
X-69571Y-18999D01*
X-69550Y-19098D01*
X-69525Y-19196D01*
X-69497Y-19292D01*
X-69465Y-19388D01*
X-69429Y-19482D01*
X-69390Y-19575D01*
X-69347Y-19666D01*
X-69301Y-19756D01*
X-69251Y-19844D01*
X-69198Y-19930D01*
X-69142Y-20013D01*
X-69083Y-20095D01*
X-69020Y-20174D01*
X-68955Y-20251D01*
X-68887Y-20325D01*
X-68816Y-20397D01*
X-68742Y-20466D01*
X-68666Y-20531D01*
X-68587Y-20595D01*
X-68506Y-20655D01*
X-68423Y-20711D01*
X-68338Y-20765D01*
X-68250Y-20815D01*
X-68161Y-20862D01*
X-68070Y-20906D01*
X-67978Y-20946D01*
X-67884Y-20982D01*
X-67788Y-21015D01*
X-65958Y-17125D02*
X-66021Y-17062D01*
X-66087Y-17001D01*
X-66155Y-16943D01*
X-66225Y-16887D01*
X-66298Y-16835D01*
X-66372Y-16785D01*
X-66449Y-16738D01*
X-66527Y-16695D01*
X-66607Y-16655D01*
X-66689Y-16618D01*
X-66772Y-16584D01*
X-66856Y-16554D01*
X-66941Y-16527D01*
X-67028Y-16504D01*
X-67115Y-16484D01*
X-67203Y-16468D01*
X-67292Y-16455D01*
X-67381Y-16446D01*
X-67470Y-16441D01*
X-67560Y-16439D01*
X-65958Y-17125D02*
X-61381Y-21015D01*
X-61381Y-16439D01*
X-61381Y-10627D02*
X-69619Y-13373D01*
X-69619Y-7881D02*
X-61381Y-10627D01*
X-44620Y-26598D02*
X-44618Y-26508D01*
X-44612Y-26418D01*
X-44602Y-26329D01*
X-44589Y-26240D01*
X-44571Y-26152D01*
X-44550Y-26065D01*
X-44525Y-25979D01*
X-44496Y-25893D01*
X-44463Y-25810D01*
X-44427Y-25727D01*
X-44387Y-25647D01*
X-44344Y-25568D01*
X-44297Y-25491D01*
X-44247Y-25416D01*
X-44194Y-25344D01*
X-44138Y-25274D01*
X-44079Y-25206D01*
X-44017Y-25141D01*
X-43952Y-25079D01*
X-43884Y-25020D01*
X-43814Y-24964D01*
X-43742Y-24911D01*
X-43667Y-24861D01*
X-43590Y-24814D01*
X-43511Y-24771D01*
X-43431Y-24731D01*
X-43348Y-24695D01*
X-43265Y-24662D01*
X-43179Y-24633D01*
X-43093Y-24608D01*
X-43006Y-24587D01*
X-42918Y-24569D01*
X-42829Y-24556D01*
X-42740Y-24546D01*
X-42650Y-24540D01*
X-42560Y-24538D01*
X-44619Y-26598D02*
X-44617Y-26699D01*
X-44611Y-26799D01*
X-44602Y-26900D01*
X-44588Y-27000D01*
X-44571Y-27099D01*
X-44550Y-27198D01*
X-44525Y-27296D01*
X-44497Y-27392D01*
X-44465Y-27488D01*
X-44429Y-27582D01*
X-44390Y-27675D01*
X-44347Y-27766D01*
X-44301Y-27856D01*
X-44251Y-27944D01*
X-44198Y-28030D01*
X-44142Y-28113D01*
X-44083Y-28195D01*
X-44020Y-28274D01*
X-43955Y-28351D01*
X-43887Y-28425D01*
X-43816Y-28497D01*
X-43742Y-28566D01*
X-43666Y-28631D01*
X-43587Y-28695D01*
X-43506Y-28755D01*
X-43423Y-28811D01*
X-43338Y-28865D01*
X-43250Y-28915D01*
X-43161Y-28962D01*
X-43070Y-29006D01*
X-42978Y-29046D01*
X-42884Y-29082D01*
X-42788Y-29115D01*
X-40958Y-25225D02*
X-41021Y-25162D01*
X-41087Y-25101D01*
X-41155Y-25043D01*
X-41225Y-24987D01*
X-41298Y-24935D01*
X-41372Y-24885D01*
X-41449Y-24838D01*
X-41527Y-24795D01*
X-41607Y-24755D01*
X-41689Y-24718D01*
X-41772Y-24684D01*
X-41856Y-24654D01*
X-41941Y-24627D01*
X-42028Y-24604D01*
X-42115Y-24584D01*
X-42203Y-24568D01*
X-42292Y-24555D01*
X-42381Y-24546D01*
X-42470Y-24541D01*
X-42560Y-24539D01*
X-40958Y-25225D02*
X-36381Y-29115D01*
X-36381Y-24539D01*
X-38212Y-21015D02*
X-44619Y-19185D01*
X-38212Y-21015D02*
X-38212Y-16439D01*
X-40042Y-17812D02*
X-36381Y-17812D01*
X-36381Y-10627D02*
X-44619Y-13373D01*
X-44619Y-7881D02*
X-36381Y-10627D01*
D10*
X-197500Y125000D02*
X-197493Y125552D01*
X-197473Y126104D01*
X-197439Y126655D01*
X-197392Y127205D01*
X-197331Y127754D01*
X-197256Y128301D01*
X-197169Y128847D01*
X-197068Y129390D01*
X-196953Y129930D01*
X-196826Y130467D01*
X-196685Y131001D01*
X-196531Y131531D01*
X-196364Y132058D01*
X-196185Y132580D01*
X-195992Y133098D01*
X-195787Y133610D01*
X-195570Y134118D01*
X-195340Y134620D01*
X-195098Y135116D01*
X-194843Y135606D01*
X-194577Y136090D01*
X-194299Y136567D01*
X-194009Y137037D01*
X-193708Y137500D01*
X-193396Y137956D01*
X-193072Y138403D01*
X-192738Y138843D01*
X-192393Y139274D01*
X-192037Y139696D01*
X-191671Y140110D01*
X-191296Y140515D01*
X-190910Y140910D01*
X-190515Y141296D01*
X-190110Y141671D01*
X-189696Y142037D01*
X-189274Y142393D01*
X-188843Y142738D01*
X-188403Y143072D01*
X-187956Y143396D01*
X-187500Y143708D01*
X-187037Y144009D01*
X-186567Y144299D01*
X-186090Y144577D01*
X-185606Y144843D01*
X-185116Y145098D01*
X-184620Y145340D01*
X-184118Y145570D01*
X-183610Y145787D01*
X-183098Y145992D01*
X-182580Y146185D01*
X-182058Y146364D01*
X-181531Y146531D01*
X-181001Y146685D01*
X-180467Y146826D01*
X-179930Y146953D01*
X-179390Y147068D01*
X-178847Y147169D01*
X-178301Y147256D01*
X-177754Y147331D01*
X-177205Y147392D01*
X-176655Y147439D01*
X-176104Y147473D01*
X-175552Y147493D01*
X-175000Y147500D01*
X-174448Y147493D01*
X-173896Y147473D01*
X-173345Y147439D01*
X-172795Y147392D01*
X-172246Y147331D01*
X-171699Y147256D01*
X-171153Y147169D01*
X-170610Y147068D01*
X-170070Y146953D01*
X-169533Y146826D01*
X-168999Y146685D01*
X-168469Y146531D01*
X-167942Y146364D01*
X-167420Y146185D01*
X-166902Y145992D01*
X-166390Y145787D01*
X-165882Y145570D01*
X-165380Y145340D01*
X-164884Y145098D01*
X-164394Y144843D01*
X-163910Y144577D01*
X-163433Y144299D01*
X-162963Y144009D01*
X-162500Y143708D01*
X-162044Y143396D01*
X-161597Y143072D01*
X-161157Y142738D01*
X-160726Y142393D01*
X-160304Y142037D01*
X-159890Y141671D01*
X-159485Y141296D01*
X-159090Y140910D01*
X-158704Y140515D01*
X-158329Y140110D01*
X-157963Y139696D01*
X-157607Y139274D01*
X-157262Y138843D01*
X-156928Y138403D01*
X-156604Y137956D01*
X-156292Y137500D01*
X-155991Y137037D01*
X-155701Y136567D01*
X-155423Y136090D01*
X-155157Y135606D01*
X-154902Y135116D01*
X-154660Y134620D01*
X-154430Y134118D01*
X-154213Y133610D01*
X-154008Y133098D01*
X-153815Y132580D01*
X-153636Y132058D01*
X-153469Y131531D01*
X-153315Y131001D01*
X-153174Y130467D01*
X-153047Y129930D01*
X-152932Y129390D01*
X-152831Y128847D01*
X-152744Y128301D01*
X-152669Y127754D01*
X-152608Y127205D01*
X-152561Y126655D01*
X-152527Y126104D01*
X-152507Y125552D01*
X-152500Y125000D01*
X-152507Y124448D01*
X-152527Y123896D01*
X-152561Y123345D01*
X-152608Y122795D01*
X-152669Y122246D01*
X-152744Y121699D01*
X-152831Y121153D01*
X-152932Y120610D01*
X-153047Y120070D01*
X-153174Y119533D01*
X-153315Y118999D01*
X-153469Y118469D01*
X-153636Y117942D01*
X-153815Y117420D01*
X-154008Y116902D01*
X-154213Y116390D01*
X-154430Y115882D01*
X-154660Y115380D01*
X-154902Y114884D01*
X-155157Y114394D01*
X-155423Y113910D01*
X-155701Y113433D01*
X-155991Y112963D01*
X-156292Y112500D01*
X-156604Y112044D01*
X-156928Y111597D01*
X-157262Y111157D01*
X-157607Y110726D01*
X-157963Y110304D01*
X-158329Y109890D01*
X-158704Y109485D01*
X-159090Y109090D01*
X-159485Y108704D01*
X-159890Y108329D01*
X-160304Y107963D01*
X-160726Y107607D01*
X-161157Y107262D01*
X-161597Y106928D01*
X-162044Y106604D01*
X-162500Y106292D01*
X-162963Y105991D01*
X-163433Y105701D01*
X-163910Y105423D01*
X-164394Y105157D01*
X-164884Y104902D01*
X-165380Y104660D01*
X-165882Y104430D01*
X-166390Y104213D01*
X-166902Y104008D01*
X-167420Y103815D01*
X-167942Y103636D01*
X-168469Y103469D01*
X-168999Y103315D01*
X-169533Y103174D01*
X-170070Y103047D01*
X-170610Y102932D01*
X-171153Y102831D01*
X-171699Y102744D01*
X-172246Y102669D01*
X-172795Y102608D01*
X-173345Y102561D01*
X-173896Y102527D01*
X-174448Y102507D01*
X-175000Y102500D01*
X-175552Y102507D01*
X-176104Y102527D01*
X-176655Y102561D01*
X-177205Y102608D01*
X-177754Y102669D01*
X-178301Y102744D01*
X-178847Y102831D01*
X-179390Y102932D01*
X-179930Y103047D01*
X-180467Y103174D01*
X-181001Y103315D01*
X-181531Y103469D01*
X-182058Y103636D01*
X-182580Y103815D01*
X-183098Y104008D01*
X-183610Y104213D01*
X-184118Y104430D01*
X-184620Y104660D01*
X-185116Y104902D01*
X-185606Y105157D01*
X-186090Y105423D01*
X-186567Y105701D01*
X-187037Y105991D01*
X-187500Y106292D01*
X-187956Y106604D01*
X-188403Y106928D01*
X-188843Y107262D01*
X-189274Y107607D01*
X-189696Y107963D01*
X-190110Y108329D01*
X-190515Y108704D01*
X-190910Y109090D01*
X-191296Y109485D01*
X-191671Y109890D01*
X-192037Y110304D01*
X-192393Y110726D01*
X-192738Y111157D01*
X-193072Y111597D01*
X-193396Y112044D01*
X-193708Y112500D01*
X-194009Y112963D01*
X-194299Y113433D01*
X-194577Y113910D01*
X-194843Y114394D01*
X-195098Y114884D01*
X-195340Y115380D01*
X-195570Y115882D01*
X-195787Y116390D01*
X-195992Y116902D01*
X-196185Y117420D01*
X-196364Y117942D01*
X-196531Y118469D01*
X-196685Y118999D01*
X-196826Y119533D01*
X-196953Y120070D01*
X-197068Y120610D01*
X-197169Y121153D01*
X-197256Y121699D01*
X-197331Y122246D01*
X-197392Y122795D01*
X-197439Y123345D01*
X-197473Y123896D01*
X-197493Y124448D01*
X-197500Y125000D01*
X152500Y125000D02*
X152507Y125552D01*
X152527Y126104D01*
X152561Y126655D01*
X152608Y127205D01*
X152669Y127754D01*
X152744Y128301D01*
X152831Y128847D01*
X152932Y129390D01*
X153047Y129930D01*
X153174Y130467D01*
X153315Y131001D01*
X153469Y131531D01*
X153636Y132058D01*
X153815Y132580D01*
X154008Y133098D01*
X154213Y133610D01*
X154430Y134118D01*
X154660Y134620D01*
X154902Y135116D01*
X155157Y135606D01*
X155423Y136090D01*
X155701Y136567D01*
X155991Y137037D01*
X156292Y137500D01*
X156604Y137956D01*
X156928Y138403D01*
X157262Y138843D01*
X157607Y139274D01*
X157963Y139696D01*
X158329Y140110D01*
X158704Y140515D01*
X159090Y140910D01*
X159485Y141296D01*
X159890Y141671D01*
X160304Y142037D01*
X160726Y142393D01*
X161157Y142738D01*
X161597Y143072D01*
X162044Y143396D01*
X162500Y143708D01*
X162963Y144009D01*
X163433Y144299D01*
X163910Y144577D01*
X164394Y144843D01*
X164884Y145098D01*
X165380Y145340D01*
X165882Y145570D01*
X166390Y145787D01*
X166902Y145992D01*
X167420Y146185D01*
X167942Y146364D01*
X168469Y146531D01*
X168999Y146685D01*
X169533Y146826D01*
X170070Y146953D01*
X170610Y147068D01*
X171153Y147169D01*
X171699Y147256D01*
X172246Y147331D01*
X172795Y147392D01*
X173345Y147439D01*
X173896Y147473D01*
X174448Y147493D01*
X175000Y147500D01*
X175552Y147493D01*
X176104Y147473D01*
X176655Y147439D01*
X177205Y147392D01*
X177754Y147331D01*
X178301Y147256D01*
X178847Y147169D01*
X179390Y147068D01*
X179930Y146953D01*
X180467Y146826D01*
X181001Y146685D01*
X181531Y146531D01*
X182058Y146364D01*
X182580Y146185D01*
X183098Y145992D01*
X183610Y145787D01*
X184118Y145570D01*
X184620Y145340D01*
X185116Y145098D01*
X185606Y144843D01*
X186090Y144577D01*
X186567Y144299D01*
X187037Y144009D01*
X187500Y143708D01*
X187956Y143396D01*
X188403Y143072D01*
X188843Y142738D01*
X189274Y142393D01*
X189696Y142037D01*
X190110Y141671D01*
X190515Y141296D01*
X190910Y140910D01*
X191296Y140515D01*
X191671Y140110D01*
X192037Y139696D01*
X192393Y139274D01*
X192738Y138843D01*
X193072Y138403D01*
X193396Y137956D01*
X193708Y137500D01*
X194009Y137037D01*
X194299Y136567D01*
X194577Y136090D01*
X194843Y135606D01*
X195098Y135116D01*
X195340Y134620D01*
X195570Y134118D01*
X195787Y133610D01*
X195992Y133098D01*
X196185Y132580D01*
X196364Y132058D01*
X196531Y131531D01*
X196685Y131001D01*
X196826Y130467D01*
X196953Y129930D01*
X197068Y129390D01*
X197169Y128847D01*
X197256Y128301D01*
X197331Y127754D01*
X197392Y127205D01*
X197439Y126655D01*
X197473Y126104D01*
X197493Y125552D01*
X197500Y125000D01*
X197493Y124448D01*
X197473Y123896D01*
X197439Y123345D01*
X197392Y122795D01*
X197331Y122246D01*
X197256Y121699D01*
X197169Y121153D01*
X197068Y120610D01*
X196953Y120070D01*
X196826Y119533D01*
X196685Y118999D01*
X196531Y118469D01*
X196364Y117942D01*
X196185Y117420D01*
X195992Y116902D01*
X195787Y116390D01*
X195570Y115882D01*
X195340Y115380D01*
X195098Y114884D01*
X194843Y114394D01*
X194577Y113910D01*
X194299Y113433D01*
X194009Y112963D01*
X193708Y112500D01*
X193396Y112044D01*
X193072Y111597D01*
X192738Y111157D01*
X192393Y110726D01*
X192037Y110304D01*
X191671Y109890D01*
X191296Y109485D01*
X190910Y109090D01*
X190515Y108704D01*
X190110Y108329D01*
X189696Y107963D01*
X189274Y107607D01*
X188843Y107262D01*
X188403Y106928D01*
X187956Y106604D01*
X187500Y106292D01*
X187037Y105991D01*
X186567Y105701D01*
X186090Y105423D01*
X185606Y105157D01*
X185116Y104902D01*
X184620Y104660D01*
X184118Y104430D01*
X183610Y104213D01*
X183098Y104008D01*
X182580Y103815D01*
X182058Y103636D01*
X181531Y103469D01*
X181001Y103315D01*
X180467Y103174D01*
X179930Y103047D01*
X179390Y102932D01*
X178847Y102831D01*
X178301Y102744D01*
X177754Y102669D01*
X177205Y102608D01*
X176655Y102561D01*
X176104Y102527D01*
X175552Y102507D01*
X175000Y102500D01*
X174448Y102507D01*
X173896Y102527D01*
X173345Y102561D01*
X172795Y102608D01*
X172246Y102669D01*
X171699Y102744D01*
X171153Y102831D01*
X170610Y102932D01*
X170070Y103047D01*
X169533Y103174D01*
X168999Y103315D01*
X168469Y103469D01*
X167942Y103636D01*
X167420Y103815D01*
X166902Y104008D01*
X166390Y104213D01*
X165882Y104430D01*
X165380Y104660D01*
X164884Y104902D01*
X164394Y105157D01*
X163910Y105423D01*
X163433Y105701D01*
X162963Y105991D01*
X162500Y106292D01*
X162044Y106604D01*
X161597Y106928D01*
X161157Y107262D01*
X160726Y107607D01*
X160304Y107963D01*
X159890Y108329D01*
X159485Y108704D01*
X159090Y109090D01*
X158704Y109485D01*
X158329Y109890D01*
X157963Y110304D01*
X157607Y110726D01*
X157262Y111157D01*
X156928Y111597D01*
X156604Y112044D01*
X156292Y112500D01*
X155991Y112963D01*
X155701Y113433D01*
X155423Y113910D01*
X155157Y114394D01*
X154902Y114884D01*
X154660Y115380D01*
X154430Y115882D01*
X154213Y116390D01*
X154008Y116902D01*
X153815Y117420D01*
X153636Y117942D01*
X153469Y118469D01*
X153315Y118999D01*
X153174Y119533D01*
X153047Y120070D01*
X152932Y120610D01*
X152831Y121153D01*
X152744Y121699D01*
X152669Y122246D01*
X152608Y122795D01*
X152561Y123345D01*
X152527Y123896D01*
X152507Y124448D01*
X152500Y125000D01*
D11*
X62441Y-24538D02*
X62351Y-24540D01*
X62261Y-24546D01*
X62172Y-24556D01*
X62083Y-24569D01*
X61995Y-24587D01*
X61908Y-24608D01*
X61822Y-24633D01*
X61736Y-24662D01*
X61653Y-24695D01*
X61570Y-24731D01*
X61490Y-24771D01*
X61411Y-24814D01*
X61334Y-24861D01*
X61259Y-24911D01*
X61187Y-24964D01*
X61117Y-25020D01*
X61049Y-25079D01*
X60984Y-25141D01*
X60922Y-25206D01*
X60863Y-25274D01*
X60807Y-25344D01*
X60754Y-25416D01*
X60704Y-25491D01*
X60657Y-25568D01*
X60614Y-25647D01*
X60574Y-25727D01*
X60538Y-25810D01*
X60505Y-25893D01*
X60476Y-25979D01*
X60451Y-26065D01*
X60430Y-26152D01*
X60412Y-26240D01*
X60399Y-26329D01*
X60389Y-26418D01*
X60383Y-26508D01*
X60381Y-26598D01*
X60383Y-26699D01*
X60389Y-26799D01*
X60398Y-26900D01*
X60412Y-27000D01*
X60429Y-27099D01*
X60450Y-27198D01*
X60475Y-27296D01*
X60503Y-27392D01*
X60535Y-27488D01*
X60571Y-27582D01*
X60610Y-27675D01*
X60653Y-27766D01*
X60699Y-27856D01*
X60749Y-27944D01*
X60802Y-28030D01*
X60858Y-28113D01*
X60917Y-28195D01*
X60980Y-28274D01*
X61045Y-28351D01*
X61113Y-28425D01*
X61184Y-28497D01*
X61258Y-28566D01*
X61334Y-28631D01*
X61413Y-28695D01*
X61494Y-28755D01*
X61577Y-28811D01*
X61662Y-28865D01*
X61750Y-28915D01*
X61839Y-28962D01*
X61930Y-29006D01*
X62022Y-29046D01*
X62116Y-29082D01*
X62212Y-29115D01*
X64043Y-25226D02*
X63980Y-25162D01*
X63914Y-25101D01*
X63846Y-25043D01*
X63776Y-24987D01*
X63703Y-24935D01*
X63629Y-24885D01*
X63552Y-24838D01*
X63474Y-24795D01*
X63394Y-24755D01*
X63312Y-24718D01*
X63229Y-24684D01*
X63145Y-24654D01*
X63060Y-24627D01*
X62973Y-24604D01*
X62886Y-24584D01*
X62798Y-24568D01*
X62709Y-24555D01*
X62620Y-24546D01*
X62531Y-24541D01*
X62441Y-24539D01*
X64042Y-25225D02*
X68619Y-29115D01*
X68619Y-24539D01*
X66788Y-21015D02*
X60381Y-19185D01*
X66788Y-21015D02*
X66788Y-16439D01*
X64958Y-17812D02*
X68619Y-17812D01*
X68619Y-10627D02*
X60381Y-13373D01*
X60381Y-7881D02*
X68619Y-10627D01*
X37212Y-29115D02*
X35381Y-26827D01*
X43619Y-26827D01*
X43619Y-29115D02*
X43619Y-24539D01*
X37441Y-16438D02*
X37351Y-16440D01*
X37261Y-16446D01*
X37172Y-16456D01*
X37083Y-16469D01*
X36995Y-16487D01*
X36908Y-16508D01*
X36822Y-16533D01*
X36736Y-16562D01*
X36653Y-16595D01*
X36570Y-16631D01*
X36490Y-16671D01*
X36411Y-16714D01*
X36334Y-16761D01*
X36259Y-16811D01*
X36187Y-16864D01*
X36117Y-16920D01*
X36049Y-16979D01*
X35984Y-17041D01*
X35922Y-17106D01*
X35863Y-17174D01*
X35807Y-17244D01*
X35754Y-17316D01*
X35704Y-17391D01*
X35657Y-17468D01*
X35614Y-17547D01*
X35574Y-17627D01*
X35538Y-17710D01*
X35505Y-17793D01*
X35476Y-17879D01*
X35451Y-17965D01*
X35430Y-18052D01*
X35412Y-18140D01*
X35399Y-18229D01*
X35389Y-18318D01*
X35383Y-18408D01*
X35381Y-18498D01*
X35383Y-18599D01*
X35389Y-18699D01*
X35398Y-18800D01*
X35412Y-18900D01*
X35429Y-18999D01*
X35450Y-19098D01*
X35475Y-19196D01*
X35503Y-19292D01*
X35535Y-19388D01*
X35571Y-19482D01*
X35610Y-19575D01*
X35653Y-19666D01*
X35699Y-19756D01*
X35749Y-19844D01*
X35802Y-19930D01*
X35858Y-20013D01*
X35917Y-20095D01*
X35980Y-20174D01*
X36045Y-20251D01*
X36113Y-20325D01*
X36184Y-20397D01*
X36258Y-20466D01*
X36334Y-20531D01*
X36413Y-20595D01*
X36494Y-20655D01*
X36577Y-20711D01*
X36662Y-20765D01*
X36750Y-20815D01*
X36839Y-20862D01*
X36930Y-20906D01*
X37022Y-20946D01*
X37116Y-20982D01*
X37212Y-21015D01*
X39043Y-17126D02*
X38980Y-17062D01*
X38914Y-17001D01*
X38846Y-16943D01*
X38776Y-16887D01*
X38703Y-16835D01*
X38629Y-16785D01*
X38552Y-16738D01*
X38474Y-16695D01*
X38394Y-16655D01*
X38312Y-16618D01*
X38229Y-16584D01*
X38145Y-16554D01*
X38060Y-16527D01*
X37973Y-16504D01*
X37886Y-16484D01*
X37798Y-16468D01*
X37709Y-16455D01*
X37620Y-16446D01*
X37531Y-16441D01*
X37441Y-16439D01*
X39042Y-17125D02*
X43619Y-21015D01*
X43619Y-16439D01*
X43619Y-10627D02*
X35381Y-13373D01*
X35381Y-7881D02*
X43619Y-10627D01*
X18619Y-18269D02*
X18619Y-21015D01*
X18619Y-18269D02*
X18617Y-18184D01*
X18611Y-18100D01*
X18601Y-18016D01*
X18588Y-17933D01*
X18570Y-17850D01*
X18549Y-17768D01*
X18524Y-17687D01*
X18495Y-17608D01*
X18463Y-17529D01*
X18427Y-17453D01*
X18388Y-17378D01*
X18345Y-17305D01*
X18299Y-17234D01*
X18249Y-17166D01*
X18197Y-17099D01*
X18141Y-17035D01*
X18083Y-16974D01*
X18022Y-16916D01*
X17958Y-16860D01*
X17891Y-16808D01*
X17823Y-16758D01*
X17752Y-16712D01*
X17679Y-16669D01*
X17604Y-16630D01*
X17528Y-16594D01*
X17449Y-16562D01*
X17370Y-16533D01*
X17289Y-16508D01*
X17207Y-16487D01*
X17124Y-16469D01*
X17041Y-16456D01*
X16957Y-16446D01*
X16873Y-16440D01*
X16788Y-16438D01*
X16788Y-16439D02*
X15873Y-16439D01*
X15873Y-16438D02*
X15788Y-16440D01*
X15704Y-16446D01*
X15620Y-16456D01*
X15537Y-16469D01*
X15454Y-16487D01*
X15372Y-16508D01*
X15291Y-16533D01*
X15212Y-16562D01*
X15133Y-16594D01*
X15057Y-16630D01*
X14982Y-16669D01*
X14909Y-16712D01*
X14838Y-16758D01*
X14770Y-16808D01*
X14703Y-16860D01*
X14639Y-16916D01*
X14578Y-16974D01*
X14520Y-17035D01*
X14464Y-17099D01*
X14412Y-17166D01*
X14362Y-17234D01*
X14316Y-17305D01*
X14273Y-17378D01*
X14234Y-17453D01*
X14198Y-17529D01*
X14166Y-17608D01*
X14137Y-17687D01*
X14112Y-17768D01*
X14091Y-17850D01*
X14073Y-17933D01*
X14060Y-18016D01*
X14050Y-18100D01*
X14044Y-18184D01*
X14042Y-18269D01*
X14042Y-21015D01*
X10381Y-21015D01*
X10381Y-16439D01*
X10381Y-13373D02*
X18619Y-10627D01*
X10381Y-7881D01*
X-39560Y-58540D02*
X-39650Y-58542D01*
X-39740Y-58548D01*
X-39829Y-58558D01*
X-39918Y-58571D01*
X-40006Y-58589D01*
X-40093Y-58610D01*
X-40179Y-58635D01*
X-40265Y-58664D01*
X-40348Y-58697D01*
X-40431Y-58733D01*
X-40511Y-58773D01*
X-40590Y-58816D01*
X-40667Y-58863D01*
X-40742Y-58913D01*
X-40814Y-58966D01*
X-40884Y-59022D01*
X-40952Y-59081D01*
X-41017Y-59143D01*
X-41079Y-59208D01*
X-41138Y-59276D01*
X-41194Y-59346D01*
X-41247Y-59418D01*
X-41297Y-59493D01*
X-41344Y-59570D01*
X-41387Y-59649D01*
X-41427Y-59729D01*
X-41463Y-59812D01*
X-41496Y-59895D01*
X-41525Y-59981D01*
X-41550Y-60067D01*
X-41571Y-60154D01*
X-41589Y-60242D01*
X-41602Y-60331D01*
X-41612Y-60420D01*
X-41618Y-60510D01*
X-41620Y-60600D01*
X-41619Y-60600D02*
X-41617Y-60701D01*
X-41611Y-60801D01*
X-41602Y-60902D01*
X-41588Y-61002D01*
X-41571Y-61101D01*
X-41550Y-61200D01*
X-41525Y-61298D01*
X-41497Y-61394D01*
X-41465Y-61490D01*
X-41429Y-61584D01*
X-41390Y-61677D01*
X-41347Y-61768D01*
X-41301Y-61858D01*
X-41251Y-61946D01*
X-41198Y-62032D01*
X-41142Y-62115D01*
X-41083Y-62197D01*
X-41020Y-62276D01*
X-40955Y-62353D01*
X-40887Y-62427D01*
X-40816Y-62499D01*
X-40742Y-62568D01*
X-40666Y-62633D01*
X-40587Y-62697D01*
X-40506Y-62757D01*
X-40423Y-62813D01*
X-40338Y-62867D01*
X-40250Y-62917D01*
X-40161Y-62964D01*
X-40070Y-63008D01*
X-39978Y-63048D01*
X-39884Y-63084D01*
X-39788Y-63117D01*
X-37958Y-59227D02*
X-38021Y-59164D01*
X-38087Y-59103D01*
X-38155Y-59045D01*
X-38225Y-58989D01*
X-38298Y-58937D01*
X-38372Y-58887D01*
X-38449Y-58840D01*
X-38527Y-58797D01*
X-38607Y-58757D01*
X-38689Y-58720D01*
X-38772Y-58686D01*
X-38856Y-58656D01*
X-38941Y-58629D01*
X-39028Y-58606D01*
X-39115Y-58586D01*
X-39203Y-58570D01*
X-39292Y-58557D01*
X-39381Y-58548D01*
X-39470Y-58543D01*
X-39560Y-58541D01*
X-37958Y-59227D02*
X-33381Y-63117D01*
X-33381Y-58540D01*
X-35212Y-55017D02*
X-41619Y-53187D01*
X-35212Y-55017D02*
X-35212Y-50441D01*
X-37042Y-51814D02*
X-33381Y-51814D01*
X-33381Y-44629D02*
X-41619Y-47375D01*
X-41619Y-41883D02*
X-33381Y-44629D01*
X-12958Y-58852D02*
X-12958Y-60225D01*
X-12958Y-58852D02*
X-8381Y-58852D01*
X-8381Y-61598D01*
X-8383Y-61683D01*
X-8389Y-61767D01*
X-8399Y-61851D01*
X-8412Y-61934D01*
X-8430Y-62017D01*
X-8451Y-62099D01*
X-8476Y-62180D01*
X-8505Y-62259D01*
X-8537Y-62338D01*
X-8573Y-62414D01*
X-8612Y-62489D01*
X-8655Y-62562D01*
X-8701Y-62633D01*
X-8751Y-62701D01*
X-8803Y-62768D01*
X-8859Y-62832D01*
X-8917Y-62893D01*
X-8978Y-62951D01*
X-9042Y-63007D01*
X-9109Y-63059D01*
X-9177Y-63109D01*
X-9248Y-63155D01*
X-9321Y-63198D01*
X-9396Y-63237D01*
X-9472Y-63273D01*
X-9551Y-63305D01*
X-9630Y-63334D01*
X-9711Y-63359D01*
X-9793Y-63380D01*
X-9876Y-63398D01*
X-9959Y-63411D01*
X-10043Y-63421D01*
X-10127Y-63427D01*
X-10212Y-63429D01*
X-10212Y-63428D02*
X-14788Y-63428D01*
X-14788Y-63429D02*
X-14873Y-63427D01*
X-14957Y-63421D01*
X-15041Y-63411D01*
X-15124Y-63398D01*
X-15207Y-63380D01*
X-15289Y-63359D01*
X-15370Y-63334D01*
X-15449Y-63305D01*
X-15528Y-63273D01*
X-15604Y-63237D01*
X-15679Y-63198D01*
X-15752Y-63155D01*
X-15823Y-63109D01*
X-15891Y-63059D01*
X-15958Y-63007D01*
X-16022Y-62951D01*
X-16083Y-62893D01*
X-16141Y-62832D01*
X-16197Y-62768D01*
X-16249Y-62701D01*
X-16299Y-62633D01*
X-16345Y-62562D01*
X-16388Y-62489D01*
X-16427Y-62414D01*
X-16463Y-62338D01*
X-16495Y-62259D01*
X-16524Y-62180D01*
X-16549Y-62099D01*
X-16570Y-62017D01*
X-16588Y-61934D01*
X-16601Y-61851D01*
X-16611Y-61767D01*
X-16617Y-61683D01*
X-16619Y-61598D01*
X-16619Y-58852D01*
X-16619Y-54788D02*
X-8381Y-54788D01*
X-8381Y-50212D02*
X-16619Y-54788D01*
X-16619Y-50212D02*
X-8381Y-50212D01*
X-8381Y-46148D02*
X-16619Y-46148D01*
X-16619Y-43860D01*
X-16617Y-43765D01*
X-16611Y-43671D01*
X-16601Y-43577D01*
X-16588Y-43483D01*
X-16570Y-43390D01*
X-16549Y-43298D01*
X-16524Y-43207D01*
X-16495Y-43117D01*
X-16462Y-43028D01*
X-16426Y-42941D01*
X-16387Y-42855D01*
X-16343Y-42771D01*
X-16297Y-42689D01*
X-16246Y-42609D01*
X-16193Y-42531D01*
X-16137Y-42455D01*
X-16077Y-42381D01*
X-16014Y-42310D01*
X-15949Y-42242D01*
X-15881Y-42177D01*
X-15810Y-42114D01*
X-15736Y-42054D01*
X-15661Y-41998D01*
X-15582Y-41945D01*
X-15502Y-41894D01*
X-15420Y-41848D01*
X-15336Y-41804D01*
X-15250Y-41765D01*
X-15163Y-41729D01*
X-15074Y-41696D01*
X-14984Y-41667D01*
X-14893Y-41642D01*
X-14801Y-41621D01*
X-14708Y-41603D01*
X-14614Y-41590D01*
X-14520Y-41580D01*
X-14426Y-41574D01*
X-14331Y-41572D01*
X-10669Y-41572D01*
X-10574Y-41574D01*
X-10480Y-41580D01*
X-10386Y-41590D01*
X-10292Y-41603D01*
X-10199Y-41621D01*
X-10107Y-41642D01*
X-10016Y-41667D01*
X-9926Y-41696D01*
X-9837Y-41729D01*
X-9750Y-41765D01*
X-9664Y-41804D01*
X-9580Y-41848D01*
X-9498Y-41894D01*
X-9418Y-41945D01*
X-9339Y-41998D01*
X-9264Y-42054D01*
X-9190Y-42114D01*
X-9119Y-42177D01*
X-9051Y-42242D01*
X-8986Y-42310D01*
X-8923Y-42381D01*
X-8863Y-42455D01*
X-8807Y-42531D01*
X-8754Y-42609D01*
X-8703Y-42689D01*
X-8657Y-42771D01*
X-8613Y-42855D01*
X-8574Y-42941D01*
X-8538Y-43028D01*
X-8505Y-43117D01*
X-8476Y-43207D01*
X-8451Y-43298D01*
X-8430Y-43390D01*
X-8412Y-43483D01*
X-8399Y-43577D01*
X-8389Y-43671D01*
X-8383Y-43765D01*
X-8381Y-43860D01*
X-8381Y-46148D01*
X8881Y-64312D02*
X16119Y-64312D01*
X8881Y-64312D02*
X8881Y-62302D01*
X8883Y-62213D01*
X8889Y-62124D01*
X8899Y-62036D01*
X8912Y-61948D01*
X8930Y-61861D01*
X8951Y-61774D01*
X8977Y-61689D01*
X9006Y-61605D01*
X9038Y-61522D01*
X9075Y-61441D01*
X9115Y-61361D01*
X9158Y-61284D01*
X9205Y-61208D01*
X9255Y-61134D01*
X9308Y-61063D01*
X9364Y-60994D01*
X9424Y-60928D01*
X9486Y-60864D01*
X9551Y-60804D01*
X9618Y-60746D01*
X9688Y-60691D01*
X9761Y-60639D01*
X9836Y-60591D01*
X9912Y-60546D01*
X9991Y-60504D01*
X10071Y-60466D01*
X10153Y-60432D01*
X10237Y-60401D01*
X10322Y-60374D01*
X10407Y-60350D01*
X10494Y-60331D01*
X10582Y-60315D01*
X10670Y-60303D01*
X10759Y-60295D01*
X10848Y-60291D01*
X10936Y-60291D01*
X11025Y-60295D01*
X11114Y-60303D01*
X11202Y-60315D01*
X11290Y-60331D01*
X11377Y-60350D01*
X11462Y-60374D01*
X11547Y-60401D01*
X11631Y-60432D01*
X11713Y-60466D01*
X11793Y-60504D01*
X11872Y-60546D01*
X11948Y-60591D01*
X12023Y-60639D01*
X12096Y-60691D01*
X12166Y-60746D01*
X12233Y-60804D01*
X12298Y-60864D01*
X12360Y-60928D01*
X12420Y-60994D01*
X12476Y-61063D01*
X12529Y-61134D01*
X12579Y-61208D01*
X12626Y-61284D01*
X12669Y-61361D01*
X12709Y-61441D01*
X12746Y-61522D01*
X12778Y-61605D01*
X12807Y-61689D01*
X12833Y-61774D01*
X12854Y-61861D01*
X12872Y-61948D01*
X12885Y-62036D01*
X12895Y-62124D01*
X12901Y-62213D01*
X12903Y-62302D01*
X12902Y-62302D02*
X12902Y-64312D01*
X8881Y-57715D02*
X16119Y-56107D01*
X11294Y-54498D01*
X16119Y-52890D01*
X8881Y-51282D01*
X8881Y-48031D02*
X16119Y-48031D01*
X12902Y-45618D02*
X8881Y-48031D01*
X12902Y-45618D02*
X8881Y-43206D01*
X16119Y-43206D01*
X10489Y-39709D02*
X8881Y-37698D01*
X16119Y-37698D01*
X16119Y-35688D02*
X16119Y-39709D01*
X36381Y-64312D02*
X43619Y-64312D01*
X36381Y-64312D02*
X36381Y-62302D01*
X36383Y-62213D01*
X36389Y-62124D01*
X36399Y-62036D01*
X36412Y-61948D01*
X36430Y-61861D01*
X36451Y-61774D01*
X36477Y-61689D01*
X36506Y-61605D01*
X36538Y-61522D01*
X36575Y-61441D01*
X36615Y-61361D01*
X36658Y-61284D01*
X36705Y-61208D01*
X36755Y-61134D01*
X36808Y-61063D01*
X36864Y-60994D01*
X36924Y-60928D01*
X36986Y-60864D01*
X37051Y-60804D01*
X37118Y-60746D01*
X37188Y-60691D01*
X37261Y-60639D01*
X37336Y-60591D01*
X37412Y-60546D01*
X37491Y-60504D01*
X37571Y-60466D01*
X37653Y-60432D01*
X37737Y-60401D01*
X37822Y-60374D01*
X37907Y-60350D01*
X37994Y-60331D01*
X38082Y-60315D01*
X38170Y-60303D01*
X38259Y-60295D01*
X38348Y-60291D01*
X38436Y-60291D01*
X38525Y-60295D01*
X38614Y-60303D01*
X38702Y-60315D01*
X38790Y-60331D01*
X38877Y-60350D01*
X38962Y-60374D01*
X39047Y-60401D01*
X39131Y-60432D01*
X39213Y-60466D01*
X39293Y-60504D01*
X39372Y-60546D01*
X39448Y-60591D01*
X39523Y-60639D01*
X39596Y-60691D01*
X39666Y-60746D01*
X39733Y-60804D01*
X39798Y-60864D01*
X39860Y-60928D01*
X39920Y-60994D01*
X39976Y-61063D01*
X40029Y-61134D01*
X40079Y-61208D01*
X40126Y-61284D01*
X40169Y-61361D01*
X40209Y-61441D01*
X40246Y-61522D01*
X40278Y-61605D01*
X40307Y-61689D01*
X40333Y-61774D01*
X40354Y-61861D01*
X40372Y-61948D01*
X40385Y-62036D01*
X40395Y-62124D01*
X40401Y-62213D01*
X40403Y-62302D01*
X40402Y-62302D02*
X40402Y-64312D01*
X36381Y-57715D02*
X43619Y-56107D01*
X38794Y-54498D01*
X43619Y-52890D01*
X36381Y-51282D01*
X36381Y-48031D02*
X43619Y-48031D01*
X40402Y-45618D02*
X36381Y-48031D01*
X40402Y-45618D02*
X36381Y-43206D01*
X43619Y-43206D01*
X36381Y-37497D02*
X36383Y-37413D01*
X36389Y-37330D01*
X36398Y-37247D01*
X36412Y-37164D01*
X36429Y-37083D01*
X36450Y-37002D01*
X36475Y-36922D01*
X36503Y-36843D01*
X36535Y-36766D01*
X36571Y-36690D01*
X36610Y-36616D01*
X36652Y-36544D01*
X36698Y-36474D01*
X36747Y-36406D01*
X36799Y-36341D01*
X36853Y-36278D01*
X36911Y-36217D01*
X36972Y-36159D01*
X37035Y-36105D01*
X37100Y-36053D01*
X37168Y-36004D01*
X37238Y-35958D01*
X37310Y-35916D01*
X37384Y-35877D01*
X37460Y-35841D01*
X37537Y-35809D01*
X37616Y-35781D01*
X37696Y-35756D01*
X37777Y-35735D01*
X37858Y-35718D01*
X37941Y-35704D01*
X38024Y-35695D01*
X38107Y-35689D01*
X38191Y-35687D01*
X36381Y-37497D02*
X36383Y-37591D01*
X36389Y-37685D01*
X36398Y-37779D01*
X36412Y-37873D01*
X36429Y-37965D01*
X36450Y-38057D01*
X36474Y-38148D01*
X36502Y-38238D01*
X36534Y-38327D01*
X36570Y-38415D01*
X36609Y-38500D01*
X36651Y-38585D01*
X36697Y-38667D01*
X36746Y-38748D01*
X36798Y-38826D01*
X36854Y-38902D01*
X36912Y-38976D01*
X36974Y-39048D01*
X37038Y-39117D01*
X37105Y-39183D01*
X37175Y-39247D01*
X37247Y-39307D01*
X37322Y-39365D01*
X37399Y-39420D01*
X37478Y-39471D01*
X37559Y-39519D01*
X37642Y-39564D01*
X37726Y-39606D01*
X37813Y-39644D01*
X37901Y-39678D01*
X37990Y-39709D01*
X39599Y-36290D02*
X39537Y-36228D01*
X39473Y-36169D01*
X39406Y-36113D01*
X39336Y-36060D01*
X39264Y-36010D01*
X39190Y-35963D01*
X39114Y-35920D01*
X39036Y-35880D01*
X38957Y-35844D01*
X38876Y-35812D01*
X38793Y-35783D01*
X38709Y-35757D01*
X38625Y-35736D01*
X38539Y-35718D01*
X38453Y-35705D01*
X38366Y-35695D01*
X38278Y-35689D01*
X38191Y-35687D01*
X39598Y-36291D02*
X43619Y-39709D01*
X43619Y-35688D01*
D12*
X-121339Y-31220D02*
X-128661Y-31220D01*
X-125000Y-27559D02*
X-125000Y-34882D01*
X121339Y-88720D02*
X128661Y-88720D01*
X125000Y-85059D02*
X125000Y-92382D01*
D11*
X-180422Y80381D02*
X-180422Y89619D01*
X-176317Y89619D01*
X-176317Y85513D02*
X-180422Y85513D01*
X-171276Y83974D02*
X-168966Y83974D01*
X-171276Y83973D02*
X-171359Y83971D01*
X-171442Y83965D01*
X-171524Y83956D01*
X-171606Y83942D01*
X-171687Y83925D01*
X-171767Y83904D01*
X-171847Y83880D01*
X-171925Y83852D01*
X-172001Y83820D01*
X-172077Y83785D01*
X-172150Y83746D01*
X-172221Y83704D01*
X-172291Y83659D01*
X-172358Y83610D01*
X-172423Y83559D01*
X-172486Y83504D01*
X-172546Y83447D01*
X-172603Y83387D01*
X-172658Y83324D01*
X-172709Y83259D01*
X-172758Y83192D01*
X-172803Y83122D01*
X-172845Y83051D01*
X-172884Y82978D01*
X-172919Y82902D01*
X-172951Y82826D01*
X-172979Y82748D01*
X-173003Y82668D01*
X-173024Y82588D01*
X-173041Y82507D01*
X-173055Y82425D01*
X-173064Y82343D01*
X-173070Y82260D01*
X-173072Y82177D01*
X-173070Y82094D01*
X-173064Y82011D01*
X-173055Y81929D01*
X-173041Y81847D01*
X-173024Y81766D01*
X-173003Y81686D01*
X-172979Y81606D01*
X-172951Y81528D01*
X-172919Y81452D01*
X-172884Y81376D01*
X-172845Y81303D01*
X-172803Y81232D01*
X-172758Y81162D01*
X-172709Y81095D01*
X-172658Y81030D01*
X-172603Y80967D01*
X-172546Y80907D01*
X-172486Y80850D01*
X-172423Y80795D01*
X-172358Y80744D01*
X-172291Y80695D01*
X-172221Y80650D01*
X-172150Y80608D01*
X-172077Y80569D01*
X-172001Y80534D01*
X-171925Y80502D01*
X-171847Y80474D01*
X-171767Y80450D01*
X-171687Y80429D01*
X-171606Y80412D01*
X-171524Y80398D01*
X-171442Y80389D01*
X-171359Y80383D01*
X-171276Y80381D01*
X-168966Y80381D01*
X-168966Y85000D01*
X-168968Y85076D01*
X-168973Y85151D01*
X-168983Y85226D01*
X-168996Y85300D01*
X-169012Y85374D01*
X-169032Y85447D01*
X-169056Y85519D01*
X-169083Y85589D01*
X-169114Y85658D01*
X-169148Y85726D01*
X-169185Y85792D01*
X-169226Y85856D01*
X-169269Y85917D01*
X-169316Y85977D01*
X-169365Y86034D01*
X-169417Y86089D01*
X-169472Y86141D01*
X-169529Y86190D01*
X-169589Y86237D01*
X-169650Y86280D01*
X-169714Y86321D01*
X-169780Y86358D01*
X-169848Y86392D01*
X-169917Y86423D01*
X-169987Y86450D01*
X-170059Y86474D01*
X-170132Y86494D01*
X-170206Y86510D01*
X-170280Y86523D01*
X-170355Y86533D01*
X-170430Y86538D01*
X-170506Y86540D01*
X-172559Y86540D01*
X-164627Y86540D02*
X-164627Y80381D01*
X-164627Y86540D02*
X-162061Y86540D01*
X-161983Y86538D01*
X-161905Y86532D01*
X-161828Y86522D01*
X-161751Y86508D01*
X-161675Y86491D01*
X-161600Y86469D01*
X-161526Y86444D01*
X-161454Y86415D01*
X-161383Y86383D01*
X-161314Y86346D01*
X-161246Y86307D01*
X-161181Y86264D01*
X-161118Y86218D01*
X-161058Y86168D01*
X-161000Y86116D01*
X-160945Y86061D01*
X-160893Y86003D01*
X-160843Y85943D01*
X-160797Y85880D01*
X-160754Y85815D01*
X-160715Y85747D01*
X-160678Y85678D01*
X-160646Y85607D01*
X-160617Y85535D01*
X-160592Y85461D01*
X-160570Y85386D01*
X-160553Y85310D01*
X-160539Y85233D01*
X-160529Y85156D01*
X-160523Y85078D01*
X-160521Y85000D01*
X-160521Y80381D01*
X-151210Y80381D02*
X-151210Y89619D01*
X-148644Y89619D01*
X-148545Y89617D01*
X-148445Y89611D01*
X-148346Y89602D01*
X-148248Y89588D01*
X-148150Y89571D01*
X-148052Y89550D01*
X-147956Y89525D01*
X-147861Y89496D01*
X-147766Y89464D01*
X-147674Y89428D01*
X-147582Y89389D01*
X-147492Y89346D01*
X-147404Y89300D01*
X-147318Y89250D01*
X-147234Y89197D01*
X-147152Y89141D01*
X-147072Y89081D01*
X-146995Y89019D01*
X-146920Y88953D01*
X-146847Y88885D01*
X-146778Y88814D01*
X-146711Y88740D01*
X-146647Y88664D01*
X-146586Y88585D01*
X-146528Y88504D01*
X-146473Y88421D01*
X-146422Y88336D01*
X-146374Y88249D01*
X-146329Y88160D01*
X-146288Y88069D01*
X-146250Y87977D01*
X-146216Y87884D01*
X-146186Y87789D01*
X-146159Y87693D01*
X-146136Y87596D01*
X-146117Y87499D01*
X-146102Y87400D01*
X-146090Y87301D01*
X-146082Y87202D01*
X-146078Y87103D01*
X-146078Y87003D01*
X-146082Y86904D01*
X-146090Y86805D01*
X-146102Y86706D01*
X-146117Y86607D01*
X-146136Y86510D01*
X-146159Y86413D01*
X-146186Y86317D01*
X-146216Y86222D01*
X-146250Y86129D01*
X-146288Y86037D01*
X-146329Y85946D01*
X-146374Y85857D01*
X-146422Y85770D01*
X-146473Y85685D01*
X-146528Y85602D01*
X-146586Y85521D01*
X-146647Y85442D01*
X-146711Y85366D01*
X-146778Y85292D01*
X-146847Y85221D01*
X-146920Y85153D01*
X-146995Y85087D01*
X-147072Y85025D01*
X-147152Y84965D01*
X-147234Y84909D01*
X-147318Y84856D01*
X-147404Y84806D01*
X-147492Y84760D01*
X-147582Y84717D01*
X-147674Y84678D01*
X-147766Y84642D01*
X-147861Y84610D01*
X-147956Y84581D01*
X-148052Y84556D01*
X-148150Y84535D01*
X-148248Y84518D01*
X-148346Y84504D01*
X-148445Y84495D01*
X-148545Y84489D01*
X-148644Y84487D01*
X-151210Y84487D01*
X-140613Y80381D02*
X-138560Y80381D01*
X-140613Y80381D02*
X-140703Y80383D01*
X-140792Y80389D01*
X-140881Y80399D01*
X-140969Y80412D01*
X-141057Y80430D01*
X-141144Y80451D01*
X-141230Y80476D01*
X-141315Y80505D01*
X-141399Y80537D01*
X-141481Y80573D01*
X-141561Y80613D01*
X-141640Y80656D01*
X-141716Y80703D01*
X-141791Y80752D01*
X-141863Y80805D01*
X-141933Y80861D01*
X-142000Y80920D01*
X-142065Y80982D01*
X-142127Y81047D01*
X-142186Y81114D01*
X-142242Y81184D01*
X-142295Y81256D01*
X-142344Y81331D01*
X-142391Y81408D01*
X-142434Y81486D01*
X-142474Y81566D01*
X-142510Y81648D01*
X-142542Y81732D01*
X-142571Y81817D01*
X-142596Y81903D01*
X-142617Y81990D01*
X-142635Y82078D01*
X-142648Y82166D01*
X-142658Y82255D01*
X-142664Y82344D01*
X-142666Y82434D01*
X-142665Y82434D02*
X-142665Y87566D01*
X-142666Y87566D02*
X-142664Y87656D01*
X-142658Y87745D01*
X-142648Y87834D01*
X-142635Y87922D01*
X-142617Y88010D01*
X-142596Y88097D01*
X-142571Y88183D01*
X-142542Y88268D01*
X-142510Y88352D01*
X-142474Y88434D01*
X-142434Y88514D01*
X-142391Y88593D01*
X-142344Y88669D01*
X-142295Y88744D01*
X-142242Y88816D01*
X-142186Y88886D01*
X-142127Y88953D01*
X-142065Y89018D01*
X-142000Y89080D01*
X-141933Y89139D01*
X-141863Y89195D01*
X-141791Y89248D01*
X-141716Y89297D01*
X-141640Y89344D01*
X-141561Y89387D01*
X-141481Y89427D01*
X-141399Y89463D01*
X-141315Y89495D01*
X-141230Y89524D01*
X-141144Y89549D01*
X-141057Y89570D01*
X-140969Y89588D01*
X-140881Y89601D01*
X-140792Y89611D01*
X-140703Y89617D01*
X-140613Y89619D01*
X-138560Y89619D01*
X-134710Y85513D02*
X-132144Y85513D01*
X-132045Y85511D01*
X-131945Y85505D01*
X-131846Y85496D01*
X-131748Y85482D01*
X-131650Y85465D01*
X-131552Y85444D01*
X-131456Y85419D01*
X-131361Y85390D01*
X-131266Y85358D01*
X-131174Y85322D01*
X-131082Y85283D01*
X-130992Y85240D01*
X-130904Y85194D01*
X-130818Y85144D01*
X-130734Y85091D01*
X-130652Y85035D01*
X-130572Y84975D01*
X-130495Y84913D01*
X-130420Y84847D01*
X-130347Y84779D01*
X-130278Y84708D01*
X-130211Y84634D01*
X-130147Y84558D01*
X-130086Y84479D01*
X-130028Y84398D01*
X-129973Y84315D01*
X-129922Y84230D01*
X-129874Y84143D01*
X-129829Y84054D01*
X-129788Y83963D01*
X-129750Y83871D01*
X-129716Y83778D01*
X-129686Y83683D01*
X-129659Y83587D01*
X-129636Y83490D01*
X-129617Y83393D01*
X-129602Y83294D01*
X-129590Y83195D01*
X-129582Y83096D01*
X-129578Y82997D01*
X-129578Y82897D01*
X-129582Y82798D01*
X-129590Y82699D01*
X-129602Y82600D01*
X-129617Y82501D01*
X-129636Y82404D01*
X-129659Y82307D01*
X-129686Y82211D01*
X-129716Y82116D01*
X-129750Y82023D01*
X-129788Y81931D01*
X-129829Y81840D01*
X-129874Y81751D01*
X-129922Y81664D01*
X-129973Y81579D01*
X-130028Y81496D01*
X-130086Y81415D01*
X-130147Y81336D01*
X-130211Y81260D01*
X-130278Y81186D01*
X-130347Y81115D01*
X-130420Y81047D01*
X-130495Y80981D01*
X-130572Y80919D01*
X-130652Y80859D01*
X-130734Y80803D01*
X-130818Y80750D01*
X-130904Y80700D01*
X-130992Y80654D01*
X-131082Y80611D01*
X-131174Y80572D01*
X-131266Y80536D01*
X-131361Y80504D01*
X-131456Y80475D01*
X-131552Y80450D01*
X-131650Y80429D01*
X-131748Y80412D01*
X-131846Y80398D01*
X-131945Y80389D01*
X-132045Y80383D01*
X-132144Y80381D01*
X-134710Y80381D01*
X-134710Y89619D01*
X-132144Y89619D01*
X-132054Y89617D01*
X-131965Y89611D01*
X-131876Y89601D01*
X-131788Y89588D01*
X-131700Y89570D01*
X-131613Y89549D01*
X-131527Y89524D01*
X-131442Y89495D01*
X-131358Y89463D01*
X-131276Y89427D01*
X-131196Y89387D01*
X-131118Y89344D01*
X-131041Y89297D01*
X-130966Y89248D01*
X-130894Y89195D01*
X-130824Y89139D01*
X-130757Y89080D01*
X-130692Y89018D01*
X-130630Y88953D01*
X-130571Y88886D01*
X-130515Y88816D01*
X-130462Y88744D01*
X-130413Y88669D01*
X-130366Y88593D01*
X-130323Y88514D01*
X-130283Y88434D01*
X-130247Y88352D01*
X-130215Y88268D01*
X-130186Y88183D01*
X-130161Y88097D01*
X-130140Y88010D01*
X-130122Y87922D01*
X-130109Y87834D01*
X-130099Y87745D01*
X-130093Y87656D01*
X-130091Y87566D01*
X-130093Y87476D01*
X-130099Y87387D01*
X-130109Y87298D01*
X-130122Y87210D01*
X-130140Y87122D01*
X-130161Y87035D01*
X-130186Y86949D01*
X-130215Y86864D01*
X-130247Y86780D01*
X-130283Y86698D01*
X-130323Y86618D01*
X-130366Y86540D01*
X-130413Y86463D01*
X-130462Y86388D01*
X-130515Y86316D01*
X-130571Y86246D01*
X-130630Y86179D01*
X-130692Y86114D01*
X-130757Y86052D01*
X-130824Y85993D01*
X-130894Y85937D01*
X-130966Y85884D01*
X-131041Y85835D01*
X-131118Y85788D01*
X-131196Y85745D01*
X-131276Y85705D01*
X-131358Y85669D01*
X-131442Y85637D01*
X-131527Y85608D01*
X-131613Y85583D01*
X-131700Y85562D01*
X-131788Y85544D01*
X-131876Y85531D01*
X-131965Y85521D01*
X-132054Y85515D01*
X-132144Y85513D01*
X-171363Y74619D02*
X-171363Y65381D01*
X-171363Y74619D02*
X-167257Y74619D01*
X-167257Y70513D02*
X-171363Y70513D01*
X-164014Y71540D02*
X-164014Y65381D01*
X-164271Y74106D02*
X-164271Y74619D01*
X-163758Y74619D01*
X-163758Y74106D01*
X-164271Y74106D01*
X-160245Y74619D02*
X-160245Y66921D01*
X-160243Y66843D01*
X-160237Y66765D01*
X-160227Y66688D01*
X-160213Y66611D01*
X-160196Y66535D01*
X-160174Y66460D01*
X-160149Y66386D01*
X-160120Y66314D01*
X-160088Y66243D01*
X-160051Y66174D01*
X-160012Y66106D01*
X-159969Y66041D01*
X-159923Y65978D01*
X-159873Y65918D01*
X-159821Y65860D01*
X-159766Y65805D01*
X-159708Y65753D01*
X-159648Y65703D01*
X-159585Y65657D01*
X-159520Y65614D01*
X-159452Y65575D01*
X-159383Y65538D01*
X-159312Y65506D01*
X-159240Y65477D01*
X-159166Y65452D01*
X-159091Y65430D01*
X-159015Y65413D01*
X-158938Y65399D01*
X-158861Y65389D01*
X-158783Y65383D01*
X-158705Y65381D01*
X-156325Y71540D02*
X-153246Y71540D01*
X-155299Y74619D02*
X-155299Y66921D01*
X-155297Y66843D01*
X-155291Y66765D01*
X-155281Y66688D01*
X-155267Y66611D01*
X-155250Y66535D01*
X-155228Y66460D01*
X-155203Y66386D01*
X-155174Y66314D01*
X-155142Y66243D01*
X-155105Y66174D01*
X-155066Y66106D01*
X-155023Y66041D01*
X-154977Y65978D01*
X-154927Y65918D01*
X-154875Y65860D01*
X-154820Y65805D01*
X-154762Y65753D01*
X-154702Y65703D01*
X-154639Y65657D01*
X-154574Y65614D01*
X-154506Y65575D01*
X-154437Y65538D01*
X-154366Y65506D01*
X-154294Y65477D01*
X-154220Y65452D01*
X-154145Y65430D01*
X-154069Y65413D01*
X-153992Y65399D01*
X-153915Y65389D01*
X-153837Y65383D01*
X-153759Y65381D01*
X-153246Y65381D01*
X-148328Y65381D02*
X-145762Y65381D01*
X-148328Y65381D02*
X-148404Y65383D01*
X-148479Y65388D01*
X-148554Y65398D01*
X-148628Y65411D01*
X-148702Y65427D01*
X-148775Y65447D01*
X-148847Y65471D01*
X-148917Y65498D01*
X-148986Y65529D01*
X-149054Y65563D01*
X-149120Y65600D01*
X-149184Y65641D01*
X-149245Y65684D01*
X-149305Y65731D01*
X-149362Y65780D01*
X-149417Y65832D01*
X-149469Y65887D01*
X-149518Y65944D01*
X-149565Y66004D01*
X-149608Y66065D01*
X-149649Y66129D01*
X-149686Y66195D01*
X-149720Y66263D01*
X-149751Y66332D01*
X-149778Y66402D01*
X-149802Y66474D01*
X-149822Y66547D01*
X-149838Y66621D01*
X-149851Y66695D01*
X-149861Y66770D01*
X-149866Y66845D01*
X-149868Y66921D01*
X-149867Y66921D02*
X-149867Y69487D01*
X-149865Y69577D01*
X-149859Y69666D01*
X-149849Y69755D01*
X-149836Y69843D01*
X-149818Y69931D01*
X-149797Y70018D01*
X-149772Y70104D01*
X-149743Y70189D01*
X-149711Y70273D01*
X-149675Y70355D01*
X-149635Y70435D01*
X-149592Y70514D01*
X-149545Y70590D01*
X-149496Y70665D01*
X-149443Y70737D01*
X-149387Y70807D01*
X-149328Y70874D01*
X-149266Y70939D01*
X-149201Y71001D01*
X-149134Y71060D01*
X-149064Y71116D01*
X-148992Y71169D01*
X-148917Y71218D01*
X-148841Y71265D01*
X-148762Y71308D01*
X-148682Y71348D01*
X-148600Y71384D01*
X-148516Y71416D01*
X-148431Y71445D01*
X-148345Y71470D01*
X-148258Y71491D01*
X-148170Y71509D01*
X-148082Y71522D01*
X-147993Y71532D01*
X-147904Y71538D01*
X-147814Y71540D01*
X-147724Y71538D01*
X-147635Y71532D01*
X-147546Y71522D01*
X-147458Y71509D01*
X-147370Y71491D01*
X-147283Y71470D01*
X-147197Y71445D01*
X-147112Y71416D01*
X-147028Y71384D01*
X-146946Y71348D01*
X-146866Y71308D01*
X-146788Y71265D01*
X-146711Y71218D01*
X-146636Y71169D01*
X-146564Y71116D01*
X-146494Y71060D01*
X-146427Y71001D01*
X-146362Y70939D01*
X-146300Y70874D01*
X-146241Y70807D01*
X-146185Y70737D01*
X-146132Y70665D01*
X-146083Y70590D01*
X-146036Y70514D01*
X-145993Y70435D01*
X-145953Y70355D01*
X-145917Y70273D01*
X-145885Y70189D01*
X-145856Y70104D01*
X-145831Y70018D01*
X-145810Y69931D01*
X-145792Y69843D01*
X-145779Y69755D01*
X-145769Y69666D01*
X-145763Y69577D01*
X-145761Y69487D01*
X-145762Y69487D02*
X-145762Y68460D01*
X-149867Y68460D01*
X-141716Y65381D02*
X-141716Y71540D01*
X-138637Y71540D01*
X-138637Y70513D01*
X-172844Y50381D02*
X-174897Y50381D01*
X-174987Y50383D01*
X-175076Y50389D01*
X-175165Y50399D01*
X-175253Y50412D01*
X-175341Y50430D01*
X-175428Y50451D01*
X-175514Y50476D01*
X-175599Y50505D01*
X-175683Y50537D01*
X-175765Y50573D01*
X-175845Y50613D01*
X-175924Y50656D01*
X-176000Y50703D01*
X-176075Y50752D01*
X-176147Y50805D01*
X-176217Y50861D01*
X-176284Y50920D01*
X-176349Y50982D01*
X-176411Y51047D01*
X-176470Y51114D01*
X-176526Y51184D01*
X-176579Y51256D01*
X-176628Y51331D01*
X-176675Y51408D01*
X-176718Y51486D01*
X-176758Y51566D01*
X-176794Y51648D01*
X-176826Y51732D01*
X-176855Y51817D01*
X-176880Y51903D01*
X-176901Y51990D01*
X-176919Y52078D01*
X-176932Y52166D01*
X-176942Y52255D01*
X-176948Y52344D01*
X-176950Y52434D01*
X-176950Y57566D01*
X-176948Y57656D01*
X-176942Y57745D01*
X-176932Y57834D01*
X-176919Y57922D01*
X-176901Y58010D01*
X-176880Y58097D01*
X-176855Y58183D01*
X-176826Y58268D01*
X-176794Y58352D01*
X-176758Y58434D01*
X-176718Y58514D01*
X-176675Y58593D01*
X-176628Y58669D01*
X-176579Y58744D01*
X-176526Y58816D01*
X-176470Y58886D01*
X-176411Y58953D01*
X-176349Y59018D01*
X-176284Y59080D01*
X-176217Y59139D01*
X-176147Y59195D01*
X-176075Y59248D01*
X-176000Y59297D01*
X-175924Y59344D01*
X-175845Y59387D01*
X-175765Y59427D01*
X-175683Y59463D01*
X-175599Y59495D01*
X-175514Y59524D01*
X-175428Y59549D01*
X-175341Y59570D01*
X-175253Y59588D01*
X-175165Y59601D01*
X-175076Y59611D01*
X-174987Y59617D01*
X-174897Y59619D01*
X-172844Y59619D01*
X-169511Y54487D02*
X-169511Y52434D01*
X-169511Y54487D02*
X-169509Y54577D01*
X-169503Y54666D01*
X-169493Y54755D01*
X-169480Y54843D01*
X-169462Y54931D01*
X-169441Y55018D01*
X-169416Y55104D01*
X-169387Y55189D01*
X-169355Y55273D01*
X-169319Y55355D01*
X-169279Y55435D01*
X-169236Y55514D01*
X-169189Y55590D01*
X-169140Y55665D01*
X-169087Y55737D01*
X-169031Y55807D01*
X-168972Y55874D01*
X-168910Y55939D01*
X-168845Y56001D01*
X-168778Y56060D01*
X-168708Y56116D01*
X-168636Y56169D01*
X-168561Y56218D01*
X-168485Y56265D01*
X-168406Y56308D01*
X-168326Y56348D01*
X-168244Y56384D01*
X-168160Y56416D01*
X-168075Y56445D01*
X-167989Y56470D01*
X-167902Y56491D01*
X-167814Y56509D01*
X-167726Y56522D01*
X-167637Y56532D01*
X-167548Y56538D01*
X-167458Y56540D01*
X-167368Y56538D01*
X-167279Y56532D01*
X-167190Y56522D01*
X-167102Y56509D01*
X-167014Y56491D01*
X-166927Y56470D01*
X-166841Y56445D01*
X-166756Y56416D01*
X-166672Y56384D01*
X-166590Y56348D01*
X-166510Y56308D01*
X-166432Y56265D01*
X-166355Y56218D01*
X-166280Y56169D01*
X-166208Y56116D01*
X-166138Y56060D01*
X-166071Y56001D01*
X-166006Y55939D01*
X-165944Y55874D01*
X-165885Y55807D01*
X-165829Y55737D01*
X-165776Y55665D01*
X-165727Y55590D01*
X-165680Y55514D01*
X-165637Y55435D01*
X-165597Y55355D01*
X-165561Y55273D01*
X-165529Y55189D01*
X-165500Y55104D01*
X-165475Y55018D01*
X-165454Y54931D01*
X-165436Y54843D01*
X-165423Y54755D01*
X-165413Y54666D01*
X-165407Y54577D01*
X-165405Y54487D01*
X-165405Y52434D01*
X-165407Y52344D01*
X-165413Y52255D01*
X-165423Y52166D01*
X-165436Y52078D01*
X-165454Y51990D01*
X-165475Y51903D01*
X-165500Y51817D01*
X-165529Y51732D01*
X-165561Y51648D01*
X-165597Y51566D01*
X-165637Y51486D01*
X-165680Y51407D01*
X-165727Y51331D01*
X-165776Y51256D01*
X-165829Y51184D01*
X-165885Y51114D01*
X-165944Y51047D01*
X-166006Y50982D01*
X-166071Y50920D01*
X-166138Y50861D01*
X-166208Y50805D01*
X-166280Y50752D01*
X-166355Y50703D01*
X-166432Y50656D01*
X-166510Y50613D01*
X-166590Y50573D01*
X-166672Y50537D01*
X-166756Y50505D01*
X-166841Y50476D01*
X-166927Y50451D01*
X-167014Y50430D01*
X-167102Y50412D01*
X-167190Y50399D01*
X-167279Y50389D01*
X-167368Y50383D01*
X-167458Y50381D01*
X-167548Y50383D01*
X-167637Y50389D01*
X-167726Y50399D01*
X-167814Y50412D01*
X-167902Y50430D01*
X-167989Y50451D01*
X-168075Y50476D01*
X-168160Y50505D01*
X-168244Y50537D01*
X-168326Y50573D01*
X-168406Y50613D01*
X-168485Y50656D01*
X-168561Y50703D01*
X-168636Y50752D01*
X-168708Y50805D01*
X-168778Y50861D01*
X-168845Y50920D01*
X-168910Y50982D01*
X-168972Y51047D01*
X-169031Y51114D01*
X-169087Y51184D01*
X-169140Y51256D01*
X-169189Y51331D01*
X-169236Y51408D01*
X-169279Y51486D01*
X-169319Y51566D01*
X-169355Y51648D01*
X-169387Y51732D01*
X-169416Y51817D01*
X-169441Y51903D01*
X-169462Y51990D01*
X-169480Y52078D01*
X-169493Y52166D01*
X-169503Y52255D01*
X-169509Y52344D01*
X-169511Y52434D01*
X-161711Y52434D02*
X-161711Y54487D01*
X-161709Y54577D01*
X-161703Y54666D01*
X-161693Y54755D01*
X-161680Y54843D01*
X-161662Y54931D01*
X-161641Y55018D01*
X-161616Y55104D01*
X-161587Y55189D01*
X-161555Y55273D01*
X-161519Y55355D01*
X-161479Y55435D01*
X-161436Y55514D01*
X-161389Y55590D01*
X-161340Y55665D01*
X-161287Y55737D01*
X-161231Y55807D01*
X-161172Y55874D01*
X-161110Y55939D01*
X-161045Y56001D01*
X-160978Y56060D01*
X-160908Y56116D01*
X-160836Y56169D01*
X-160761Y56218D01*
X-160685Y56265D01*
X-160606Y56308D01*
X-160526Y56348D01*
X-160444Y56384D01*
X-160360Y56416D01*
X-160275Y56445D01*
X-160189Y56470D01*
X-160102Y56491D01*
X-160014Y56509D01*
X-159926Y56522D01*
X-159837Y56532D01*
X-159748Y56538D01*
X-159658Y56540D01*
X-159568Y56538D01*
X-159479Y56532D01*
X-159390Y56522D01*
X-159302Y56509D01*
X-159214Y56491D01*
X-159127Y56470D01*
X-159041Y56445D01*
X-158956Y56416D01*
X-158872Y56384D01*
X-158790Y56348D01*
X-158710Y56308D01*
X-158632Y56265D01*
X-158555Y56218D01*
X-158480Y56169D01*
X-158408Y56116D01*
X-158338Y56060D01*
X-158271Y56001D01*
X-158206Y55939D01*
X-158144Y55874D01*
X-158085Y55807D01*
X-158029Y55737D01*
X-157976Y55665D01*
X-157927Y55590D01*
X-157880Y55514D01*
X-157837Y55435D01*
X-157797Y55355D01*
X-157761Y55273D01*
X-157729Y55189D01*
X-157700Y55104D01*
X-157675Y55018D01*
X-157654Y54931D01*
X-157636Y54843D01*
X-157623Y54755D01*
X-157613Y54666D01*
X-157607Y54577D01*
X-157605Y54487D01*
X-157605Y52434D01*
X-157607Y52344D01*
X-157613Y52255D01*
X-157623Y52166D01*
X-157636Y52078D01*
X-157654Y51990D01*
X-157675Y51903D01*
X-157700Y51817D01*
X-157729Y51732D01*
X-157761Y51648D01*
X-157797Y51566D01*
X-157837Y51486D01*
X-157880Y51407D01*
X-157927Y51331D01*
X-157976Y51256D01*
X-158029Y51184D01*
X-158085Y51114D01*
X-158144Y51047D01*
X-158206Y50982D01*
X-158271Y50920D01*
X-158338Y50861D01*
X-158408Y50805D01*
X-158480Y50752D01*
X-158555Y50703D01*
X-158632Y50656D01*
X-158710Y50613D01*
X-158790Y50573D01*
X-158872Y50537D01*
X-158956Y50505D01*
X-159041Y50476D01*
X-159127Y50451D01*
X-159214Y50430D01*
X-159302Y50412D01*
X-159390Y50399D01*
X-159479Y50389D01*
X-159568Y50383D01*
X-159658Y50381D01*
X-159748Y50383D01*
X-159837Y50389D01*
X-159926Y50399D01*
X-160014Y50412D01*
X-160102Y50430D01*
X-160189Y50451D01*
X-160275Y50476D01*
X-160360Y50505D01*
X-160444Y50537D01*
X-160526Y50573D01*
X-160606Y50613D01*
X-160685Y50656D01*
X-160761Y50703D01*
X-160836Y50752D01*
X-160908Y50805D01*
X-160978Y50861D01*
X-161045Y50920D01*
X-161110Y50982D01*
X-161172Y51047D01*
X-161231Y51114D01*
X-161287Y51184D01*
X-161340Y51256D01*
X-161389Y51331D01*
X-161436Y51408D01*
X-161479Y51486D01*
X-161519Y51566D01*
X-161555Y51648D01*
X-161587Y51732D01*
X-161616Y51817D01*
X-161641Y51903D01*
X-161662Y51990D01*
X-161680Y52078D01*
X-161693Y52166D01*
X-161703Y52255D01*
X-161709Y52344D01*
X-161711Y52434D01*
X-153789Y51921D02*
X-153789Y59619D01*
X-153789Y51921D02*
X-153787Y51843D01*
X-153781Y51765D01*
X-153771Y51688D01*
X-153757Y51611D01*
X-153740Y51535D01*
X-153718Y51460D01*
X-153693Y51386D01*
X-153664Y51314D01*
X-153632Y51243D01*
X-153595Y51174D01*
X-153556Y51106D01*
X-153513Y51041D01*
X-153467Y50978D01*
X-153417Y50918D01*
X-153365Y50860D01*
X-153310Y50805D01*
X-153252Y50753D01*
X-153192Y50703D01*
X-153129Y50657D01*
X-153064Y50614D01*
X-152996Y50575D01*
X-152927Y50538D01*
X-152856Y50506D01*
X-152784Y50477D01*
X-152710Y50452D01*
X-152635Y50430D01*
X-152559Y50413D01*
X-152482Y50399D01*
X-152405Y50389D01*
X-152327Y50383D01*
X-152249Y50381D01*
X-149158Y50381D02*
X-149158Y56540D01*
X-149415Y59106D02*
X-149415Y59619D01*
X-148901Y59619D01*
X-148901Y59106D01*
X-149415Y59106D01*
X-145211Y56540D02*
X-145211Y50381D01*
X-145211Y56540D02*
X-142645Y56540D01*
X-142567Y56538D01*
X-142489Y56532D01*
X-142412Y56522D01*
X-142335Y56508D01*
X-142259Y56491D01*
X-142184Y56469D01*
X-142110Y56444D01*
X-142038Y56415D01*
X-141967Y56383D01*
X-141898Y56346D01*
X-141830Y56307D01*
X-141765Y56264D01*
X-141702Y56218D01*
X-141642Y56168D01*
X-141584Y56116D01*
X-141529Y56061D01*
X-141477Y56003D01*
X-141427Y55943D01*
X-141381Y55880D01*
X-141338Y55815D01*
X-141299Y55747D01*
X-141262Y55678D01*
X-141230Y55607D01*
X-141201Y55535D01*
X-141176Y55461D01*
X-141154Y55386D01*
X-141137Y55310D01*
X-141123Y55233D01*
X-141113Y55156D01*
X-141107Y55078D01*
X-141105Y55000D01*
X-141105Y50381D01*
X-135617Y50381D02*
X-133050Y50381D01*
X-135617Y50381D02*
X-135693Y50383D01*
X-135768Y50388D01*
X-135843Y50398D01*
X-135917Y50411D01*
X-135991Y50427D01*
X-136064Y50447D01*
X-136136Y50471D01*
X-136206Y50498D01*
X-136275Y50529D01*
X-136343Y50563D01*
X-136409Y50600D01*
X-136473Y50641D01*
X-136534Y50684D01*
X-136594Y50731D01*
X-136651Y50780D01*
X-136706Y50832D01*
X-136758Y50887D01*
X-136807Y50944D01*
X-136854Y51004D01*
X-136897Y51065D01*
X-136938Y51129D01*
X-136975Y51195D01*
X-137009Y51263D01*
X-137040Y51332D01*
X-137067Y51402D01*
X-137091Y51474D01*
X-137111Y51547D01*
X-137127Y51621D01*
X-137140Y51695D01*
X-137150Y51770D01*
X-137155Y51845D01*
X-137157Y51921D01*
X-137156Y51921D02*
X-137156Y55000D01*
X-137157Y55000D02*
X-137155Y55076D01*
X-137150Y55151D01*
X-137140Y55226D01*
X-137127Y55300D01*
X-137111Y55374D01*
X-137091Y55447D01*
X-137067Y55519D01*
X-137040Y55589D01*
X-137009Y55658D01*
X-136975Y55726D01*
X-136938Y55792D01*
X-136897Y55856D01*
X-136854Y55917D01*
X-136807Y55977D01*
X-136758Y56034D01*
X-136706Y56089D01*
X-136651Y56141D01*
X-136594Y56190D01*
X-136534Y56237D01*
X-136473Y56280D01*
X-136409Y56321D01*
X-136343Y56358D01*
X-136275Y56392D01*
X-136206Y56423D01*
X-136136Y56450D01*
X-136064Y56474D01*
X-135991Y56494D01*
X-135917Y56510D01*
X-135843Y56523D01*
X-135768Y56533D01*
X-135693Y56538D01*
X-135617Y56540D01*
X-133050Y56540D01*
X-133050Y48841D01*
X-133052Y48765D01*
X-133057Y48690D01*
X-133067Y48615D01*
X-133080Y48541D01*
X-133096Y48467D01*
X-133116Y48394D01*
X-133140Y48322D01*
X-133167Y48252D01*
X-133198Y48183D01*
X-133232Y48115D01*
X-133269Y48049D01*
X-133310Y47985D01*
X-133353Y47924D01*
X-133400Y47864D01*
X-133449Y47807D01*
X-133501Y47752D01*
X-133556Y47700D01*
X-133613Y47651D01*
X-133673Y47604D01*
X-133734Y47561D01*
X-133798Y47520D01*
X-133864Y47483D01*
X-133932Y47449D01*
X-134001Y47418D01*
X-134071Y47391D01*
X-134143Y47367D01*
X-134216Y47347D01*
X-134290Y47331D01*
X-134364Y47318D01*
X-134439Y47308D01*
X-134514Y47303D01*
X-134590Y47301D01*
X-134590Y47302D02*
X-136643Y47302D01*
X-188498Y43079D02*
X-188498Y35381D01*
X-188499Y43079D02*
X-188497Y43157D01*
X-188491Y43235D01*
X-188481Y43312D01*
X-188467Y43389D01*
X-188450Y43465D01*
X-188428Y43540D01*
X-188403Y43614D01*
X-188374Y43686D01*
X-188342Y43757D01*
X-188306Y43826D01*
X-188266Y43894D01*
X-188223Y43959D01*
X-188177Y44022D01*
X-188128Y44082D01*
X-188075Y44140D01*
X-188020Y44195D01*
X-187962Y44247D01*
X-187902Y44297D01*
X-187839Y44343D01*
X-187774Y44386D01*
X-187706Y44425D01*
X-187637Y44462D01*
X-187566Y44494D01*
X-187494Y44523D01*
X-187420Y44548D01*
X-187345Y44570D01*
X-187269Y44587D01*
X-187192Y44601D01*
X-187115Y44611D01*
X-187037Y44617D01*
X-186959Y44619D01*
X-186445Y44619D01*
X-186445Y41540D02*
X-189525Y41540D01*
X-183894Y39487D02*
X-183894Y37434D01*
X-183894Y39487D02*
X-183892Y39577D01*
X-183886Y39666D01*
X-183876Y39755D01*
X-183863Y39843D01*
X-183845Y39931D01*
X-183824Y40018D01*
X-183799Y40104D01*
X-183770Y40189D01*
X-183738Y40273D01*
X-183702Y40355D01*
X-183662Y40435D01*
X-183619Y40514D01*
X-183572Y40590D01*
X-183523Y40665D01*
X-183470Y40737D01*
X-183414Y40807D01*
X-183355Y40874D01*
X-183293Y40939D01*
X-183228Y41001D01*
X-183161Y41060D01*
X-183091Y41116D01*
X-183019Y41169D01*
X-182944Y41218D01*
X-182868Y41265D01*
X-182789Y41308D01*
X-182709Y41348D01*
X-182627Y41384D01*
X-182543Y41416D01*
X-182458Y41445D01*
X-182372Y41470D01*
X-182285Y41491D01*
X-182197Y41509D01*
X-182109Y41522D01*
X-182020Y41532D01*
X-181931Y41538D01*
X-181841Y41540D01*
X-181751Y41538D01*
X-181662Y41532D01*
X-181573Y41522D01*
X-181485Y41509D01*
X-181397Y41491D01*
X-181310Y41470D01*
X-181224Y41445D01*
X-181139Y41416D01*
X-181055Y41384D01*
X-180973Y41348D01*
X-180893Y41308D01*
X-180815Y41265D01*
X-180738Y41218D01*
X-180663Y41169D01*
X-180591Y41116D01*
X-180521Y41060D01*
X-180454Y41001D01*
X-180389Y40939D01*
X-180327Y40874D01*
X-180268Y40807D01*
X-180212Y40737D01*
X-180159Y40665D01*
X-180110Y40590D01*
X-180063Y40514D01*
X-180020Y40435D01*
X-179980Y40355D01*
X-179944Y40273D01*
X-179912Y40189D01*
X-179883Y40104D01*
X-179858Y40018D01*
X-179837Y39931D01*
X-179819Y39843D01*
X-179806Y39755D01*
X-179796Y39666D01*
X-179790Y39577D01*
X-179788Y39487D01*
X-179788Y37434D01*
X-179790Y37344D01*
X-179796Y37255D01*
X-179806Y37166D01*
X-179819Y37078D01*
X-179837Y36990D01*
X-179858Y36903D01*
X-179883Y36817D01*
X-179912Y36732D01*
X-179944Y36648D01*
X-179980Y36566D01*
X-180020Y36486D01*
X-180063Y36407D01*
X-180110Y36331D01*
X-180159Y36256D01*
X-180212Y36184D01*
X-180268Y36114D01*
X-180327Y36047D01*
X-180389Y35982D01*
X-180454Y35920D01*
X-180521Y35861D01*
X-180591Y35805D01*
X-180663Y35752D01*
X-180738Y35703D01*
X-180815Y35656D01*
X-180893Y35613D01*
X-180973Y35573D01*
X-181055Y35537D01*
X-181139Y35505D01*
X-181224Y35476D01*
X-181310Y35451D01*
X-181397Y35430D01*
X-181485Y35412D01*
X-181573Y35399D01*
X-181662Y35389D01*
X-181751Y35383D01*
X-181841Y35381D01*
X-181931Y35383D01*
X-182020Y35389D01*
X-182109Y35399D01*
X-182197Y35412D01*
X-182285Y35430D01*
X-182372Y35451D01*
X-182458Y35476D01*
X-182543Y35505D01*
X-182627Y35537D01*
X-182709Y35573D01*
X-182789Y35613D01*
X-182868Y35656D01*
X-182944Y35703D01*
X-183019Y35752D01*
X-183091Y35805D01*
X-183161Y35861D01*
X-183228Y35920D01*
X-183293Y35982D01*
X-183355Y36047D01*
X-183414Y36114D01*
X-183470Y36184D01*
X-183523Y36256D01*
X-183572Y36331D01*
X-183619Y36408D01*
X-183662Y36486D01*
X-183702Y36566D01*
X-183738Y36648D01*
X-183770Y36732D01*
X-183799Y36817D01*
X-183824Y36903D01*
X-183845Y36990D01*
X-183863Y37078D01*
X-183876Y37166D01*
X-183886Y37255D01*
X-183892Y37344D01*
X-183894Y37434D01*
X-175743Y35381D02*
X-175743Y41540D01*
X-172664Y41540D01*
X-172664Y40513D01*
X-165421Y44619D02*
X-162341Y35381D01*
X-159262Y44619D01*
X-155994Y39487D02*
X-155994Y37434D01*
X-155994Y39487D02*
X-155992Y39577D01*
X-155986Y39666D01*
X-155976Y39755D01*
X-155963Y39843D01*
X-155945Y39931D01*
X-155924Y40018D01*
X-155899Y40104D01*
X-155870Y40189D01*
X-155838Y40273D01*
X-155802Y40355D01*
X-155762Y40435D01*
X-155719Y40514D01*
X-155672Y40590D01*
X-155623Y40665D01*
X-155570Y40737D01*
X-155514Y40807D01*
X-155455Y40874D01*
X-155393Y40939D01*
X-155328Y41001D01*
X-155261Y41060D01*
X-155191Y41116D01*
X-155119Y41169D01*
X-155044Y41218D01*
X-154968Y41265D01*
X-154889Y41308D01*
X-154809Y41348D01*
X-154727Y41384D01*
X-154643Y41416D01*
X-154558Y41445D01*
X-154472Y41470D01*
X-154385Y41491D01*
X-154297Y41509D01*
X-154209Y41522D01*
X-154120Y41532D01*
X-154031Y41538D01*
X-153941Y41540D01*
X-153851Y41538D01*
X-153762Y41532D01*
X-153673Y41522D01*
X-153585Y41509D01*
X-153497Y41491D01*
X-153410Y41470D01*
X-153324Y41445D01*
X-153239Y41416D01*
X-153155Y41384D01*
X-153073Y41348D01*
X-152993Y41308D01*
X-152915Y41265D01*
X-152838Y41218D01*
X-152763Y41169D01*
X-152691Y41116D01*
X-152621Y41060D01*
X-152554Y41001D01*
X-152489Y40939D01*
X-152427Y40874D01*
X-152368Y40807D01*
X-152312Y40737D01*
X-152259Y40665D01*
X-152210Y40590D01*
X-152163Y40514D01*
X-152120Y40435D01*
X-152080Y40355D01*
X-152044Y40273D01*
X-152012Y40189D01*
X-151983Y40104D01*
X-151958Y40018D01*
X-151937Y39931D01*
X-151919Y39843D01*
X-151906Y39755D01*
X-151896Y39666D01*
X-151890Y39577D01*
X-151888Y39487D01*
X-151888Y37434D01*
X-151890Y37344D01*
X-151896Y37255D01*
X-151906Y37166D01*
X-151919Y37078D01*
X-151937Y36990D01*
X-151958Y36903D01*
X-151983Y36817D01*
X-152012Y36732D01*
X-152044Y36648D01*
X-152080Y36566D01*
X-152120Y36486D01*
X-152163Y36407D01*
X-152210Y36331D01*
X-152259Y36256D01*
X-152312Y36184D01*
X-152368Y36114D01*
X-152427Y36047D01*
X-152489Y35982D01*
X-152554Y35920D01*
X-152621Y35861D01*
X-152691Y35805D01*
X-152763Y35752D01*
X-152838Y35703D01*
X-152915Y35656D01*
X-152993Y35613D01*
X-153073Y35573D01*
X-153155Y35537D01*
X-153239Y35505D01*
X-153324Y35476D01*
X-153410Y35451D01*
X-153497Y35430D01*
X-153585Y35412D01*
X-153673Y35399D01*
X-153762Y35389D01*
X-153851Y35383D01*
X-153941Y35381D01*
X-154031Y35383D01*
X-154120Y35389D01*
X-154209Y35399D01*
X-154297Y35412D01*
X-154385Y35430D01*
X-154472Y35451D01*
X-154558Y35476D01*
X-154643Y35505D01*
X-154727Y35537D01*
X-154809Y35573D01*
X-154889Y35613D01*
X-154968Y35656D01*
X-155044Y35703D01*
X-155119Y35752D01*
X-155191Y35805D01*
X-155261Y35861D01*
X-155328Y35920D01*
X-155393Y35982D01*
X-155455Y36047D01*
X-155514Y36114D01*
X-155570Y36184D01*
X-155623Y36256D01*
X-155672Y36331D01*
X-155719Y36408D01*
X-155762Y36486D01*
X-155802Y36566D01*
X-155838Y36648D01*
X-155870Y36732D01*
X-155899Y36817D01*
X-155924Y36903D01*
X-155945Y36990D01*
X-155963Y37078D01*
X-155976Y37166D01*
X-155986Y37255D01*
X-155992Y37344D01*
X-155994Y37434D01*
X-147843Y35381D02*
X-147843Y41540D01*
X-144764Y41540D01*
X-144764Y40513D01*
X-141894Y39487D02*
X-141894Y37434D01*
X-141894Y39487D02*
X-141892Y39577D01*
X-141886Y39666D01*
X-141876Y39755D01*
X-141863Y39843D01*
X-141845Y39931D01*
X-141824Y40018D01*
X-141799Y40104D01*
X-141770Y40189D01*
X-141738Y40273D01*
X-141702Y40355D01*
X-141662Y40435D01*
X-141619Y40514D01*
X-141572Y40590D01*
X-141523Y40665D01*
X-141470Y40737D01*
X-141414Y40807D01*
X-141355Y40874D01*
X-141293Y40939D01*
X-141228Y41001D01*
X-141161Y41060D01*
X-141091Y41116D01*
X-141019Y41169D01*
X-140944Y41218D01*
X-140868Y41265D01*
X-140789Y41308D01*
X-140709Y41348D01*
X-140627Y41384D01*
X-140543Y41416D01*
X-140458Y41445D01*
X-140372Y41470D01*
X-140285Y41491D01*
X-140197Y41509D01*
X-140109Y41522D01*
X-140020Y41532D01*
X-139931Y41538D01*
X-139841Y41540D01*
X-139751Y41538D01*
X-139662Y41532D01*
X-139573Y41522D01*
X-139485Y41509D01*
X-139397Y41491D01*
X-139310Y41470D01*
X-139224Y41445D01*
X-139139Y41416D01*
X-139055Y41384D01*
X-138973Y41348D01*
X-138893Y41308D01*
X-138815Y41265D01*
X-138738Y41218D01*
X-138663Y41169D01*
X-138591Y41116D01*
X-138521Y41060D01*
X-138454Y41001D01*
X-138389Y40939D01*
X-138327Y40874D01*
X-138268Y40807D01*
X-138212Y40737D01*
X-138159Y40665D01*
X-138110Y40590D01*
X-138063Y40514D01*
X-138020Y40435D01*
X-137980Y40355D01*
X-137944Y40273D01*
X-137912Y40189D01*
X-137883Y40104D01*
X-137858Y40018D01*
X-137837Y39931D01*
X-137819Y39843D01*
X-137806Y39755D01*
X-137796Y39666D01*
X-137790Y39577D01*
X-137788Y39487D01*
X-137789Y39487D02*
X-137789Y37434D01*
X-137788Y37434D02*
X-137790Y37344D01*
X-137796Y37255D01*
X-137806Y37166D01*
X-137819Y37078D01*
X-137837Y36990D01*
X-137858Y36903D01*
X-137883Y36817D01*
X-137912Y36732D01*
X-137944Y36648D01*
X-137980Y36566D01*
X-138020Y36486D01*
X-138063Y36407D01*
X-138110Y36331D01*
X-138159Y36256D01*
X-138212Y36184D01*
X-138268Y36114D01*
X-138327Y36047D01*
X-138389Y35982D01*
X-138454Y35920D01*
X-138521Y35861D01*
X-138591Y35805D01*
X-138663Y35752D01*
X-138738Y35703D01*
X-138815Y35656D01*
X-138893Y35613D01*
X-138973Y35573D01*
X-139055Y35537D01*
X-139139Y35505D01*
X-139224Y35476D01*
X-139310Y35451D01*
X-139397Y35430D01*
X-139485Y35412D01*
X-139573Y35399D01*
X-139662Y35389D01*
X-139751Y35383D01*
X-139841Y35381D01*
X-139931Y35383D01*
X-140020Y35389D01*
X-140109Y35399D01*
X-140197Y35412D01*
X-140285Y35430D01*
X-140372Y35451D01*
X-140458Y35476D01*
X-140543Y35505D01*
X-140627Y35537D01*
X-140709Y35573D01*
X-140789Y35613D01*
X-140868Y35656D01*
X-140944Y35703D01*
X-141019Y35752D01*
X-141091Y35805D01*
X-141161Y35861D01*
X-141228Y35920D01*
X-141293Y35982D01*
X-141355Y36047D01*
X-141414Y36114D01*
X-141470Y36184D01*
X-141523Y36256D01*
X-141572Y36331D01*
X-141619Y36408D01*
X-141662Y36486D01*
X-141702Y36566D01*
X-141738Y36648D01*
X-141770Y36732D01*
X-141799Y36817D01*
X-141824Y36903D01*
X-141845Y36990D01*
X-141863Y37078D01*
X-141876Y37166D01*
X-141886Y37255D01*
X-141892Y37344D01*
X-141894Y37434D01*
X-133794Y35381D02*
X-133794Y41540D01*
X-131228Y41540D01*
X-131150Y41538D01*
X-131072Y41532D01*
X-130995Y41522D01*
X-130918Y41508D01*
X-130842Y41491D01*
X-130767Y41469D01*
X-130693Y41444D01*
X-130621Y41415D01*
X-130550Y41383D01*
X-130481Y41346D01*
X-130413Y41307D01*
X-130348Y41264D01*
X-130285Y41218D01*
X-130225Y41168D01*
X-130167Y41116D01*
X-130112Y41061D01*
X-130060Y41003D01*
X-130010Y40943D01*
X-129964Y40880D01*
X-129921Y40815D01*
X-129882Y40747D01*
X-129845Y40678D01*
X-129813Y40607D01*
X-129784Y40535D01*
X-129759Y40461D01*
X-129737Y40386D01*
X-129720Y40310D01*
X-129706Y40233D01*
X-129696Y40156D01*
X-129690Y40078D01*
X-129688Y40000D01*
X-129689Y40000D02*
X-129689Y35381D01*
X-125608Y40000D02*
X-125606Y40182D01*
X-125599Y40363D01*
X-125588Y40545D01*
X-125573Y40726D01*
X-125554Y40907D01*
X-125530Y41087D01*
X-125502Y41266D01*
X-125470Y41445D01*
X-125433Y41623D01*
X-125392Y41800D01*
X-125347Y41976D01*
X-125298Y42151D01*
X-125244Y42325D01*
X-125187Y42497D01*
X-125125Y42668D01*
X-125059Y42838D01*
X-124990Y43006D01*
X-124916Y43172D01*
X-124838Y43336D01*
X-124837Y43336D02*
X-124808Y43415D01*
X-124776Y43492D01*
X-124740Y43568D01*
X-124701Y43643D01*
X-124658Y43716D01*
X-124612Y43786D01*
X-124564Y43855D01*
X-124512Y43921D01*
X-124457Y43985D01*
X-124400Y44046D01*
X-124340Y44105D01*
X-124277Y44162D01*
X-124212Y44215D01*
X-124145Y44265D01*
X-124075Y44313D01*
X-124004Y44357D01*
X-123930Y44398D01*
X-123855Y44436D01*
X-123778Y44470D01*
X-123700Y44501D01*
X-123621Y44528D01*
X-123540Y44552D01*
X-123458Y44573D01*
X-123376Y44589D01*
X-123293Y44602D01*
X-123209Y44612D01*
X-123125Y44617D01*
X-123041Y44619D01*
X-122957Y44617D01*
X-122873Y44612D01*
X-122789Y44602D01*
X-122706Y44589D01*
X-122624Y44573D01*
X-122542Y44552D01*
X-122461Y44528D01*
X-122382Y44501D01*
X-122304Y44470D01*
X-122227Y44436D01*
X-122152Y44398D01*
X-122078Y44357D01*
X-122007Y44313D01*
X-121937Y44265D01*
X-121870Y44215D01*
X-121805Y44162D01*
X-121742Y44105D01*
X-121682Y44047D01*
X-121625Y43985D01*
X-121570Y43921D01*
X-121518Y43855D01*
X-121470Y43786D01*
X-121424Y43716D01*
X-121381Y43643D01*
X-121342Y43569D01*
X-121306Y43492D01*
X-121274Y43415D01*
X-121245Y43336D01*
X-121167Y43172D01*
X-121093Y43006D01*
X-121024Y42838D01*
X-120958Y42668D01*
X-120896Y42497D01*
X-120839Y42325D01*
X-120785Y42151D01*
X-120736Y41976D01*
X-120691Y41800D01*
X-120650Y41623D01*
X-120613Y41445D01*
X-120581Y41266D01*
X-120553Y41087D01*
X-120529Y40907D01*
X-120510Y40726D01*
X-120495Y40545D01*
X-120484Y40363D01*
X-120477Y40182D01*
X-120475Y40000D01*
X-125607Y40000D02*
X-125605Y39818D01*
X-125598Y39637D01*
X-125587Y39455D01*
X-125572Y39274D01*
X-125553Y39093D01*
X-125529Y38913D01*
X-125501Y38734D01*
X-125469Y38555D01*
X-125432Y38377D01*
X-125391Y38200D01*
X-125346Y38024D01*
X-125297Y37849D01*
X-125243Y37675D01*
X-125186Y37503D01*
X-125124Y37332D01*
X-125058Y37162D01*
X-124989Y36995D01*
X-124915Y36828D01*
X-124837Y36664D01*
X-124808Y36585D01*
X-124776Y36508D01*
X-124740Y36431D01*
X-124701Y36357D01*
X-124658Y36284D01*
X-124612Y36214D01*
X-124564Y36145D01*
X-124512Y36079D01*
X-124457Y36015D01*
X-124400Y35953D01*
X-124340Y35895D01*
X-124277Y35838D01*
X-124212Y35785D01*
X-124145Y35735D01*
X-124075Y35687D01*
X-124004Y35643D01*
X-123930Y35602D01*
X-123855Y35564D01*
X-123778Y35530D01*
X-123700Y35499D01*
X-123621Y35472D01*
X-123540Y35448D01*
X-123458Y35427D01*
X-123376Y35411D01*
X-123293Y35398D01*
X-123209Y35388D01*
X-123125Y35383D01*
X-123041Y35381D01*
X-121245Y36664D02*
X-121167Y36828D01*
X-121093Y36994D01*
X-121024Y37162D01*
X-120958Y37332D01*
X-120896Y37503D01*
X-120839Y37675D01*
X-120785Y37849D01*
X-120736Y38024D01*
X-120691Y38200D01*
X-120650Y38377D01*
X-120613Y38555D01*
X-120581Y38734D01*
X-120553Y38913D01*
X-120529Y39093D01*
X-120510Y39274D01*
X-120495Y39455D01*
X-120484Y39637D01*
X-120477Y39818D01*
X-120475Y40000D01*
X-121245Y36664D02*
X-121274Y36585D01*
X-121306Y36508D01*
X-121342Y36431D01*
X-121381Y36357D01*
X-121424Y36284D01*
X-121470Y36214D01*
X-121518Y36145D01*
X-121570Y36079D01*
X-121625Y36015D01*
X-121682Y35953D01*
X-121742Y35895D01*
X-121805Y35838D01*
X-121870Y35785D01*
X-121937Y35735D01*
X-122007Y35687D01*
X-122078Y35643D01*
X-122152Y35602D01*
X-122227Y35564D01*
X-122304Y35530D01*
X-122382Y35499D01*
X-122461Y35472D01*
X-122542Y35448D01*
X-122624Y35427D01*
X-122706Y35411D01*
X-122789Y35398D01*
X-122873Y35388D01*
X-122957Y35383D01*
X-123041Y35381D01*
X-125094Y37434D02*
X-120989Y42566D01*
X-168623Y29619D02*
X-165543Y20381D01*
X-162464Y29619D01*
X-159110Y27566D02*
X-156543Y29619D01*
X-156543Y20381D01*
X-153977Y20381D02*
X-159110Y20381D01*
X-150500Y20381D02*
X-150500Y20894D01*
X-149987Y20894D01*
X-149987Y20381D01*
X-150500Y20381D01*
X-146510Y25000D02*
X-146508Y25182D01*
X-146501Y25363D01*
X-146490Y25545D01*
X-146475Y25726D01*
X-146456Y25907D01*
X-146432Y26087D01*
X-146404Y26266D01*
X-146372Y26445D01*
X-146335Y26623D01*
X-146294Y26800D01*
X-146249Y26976D01*
X-146200Y27151D01*
X-146146Y27325D01*
X-146089Y27497D01*
X-146027Y27668D01*
X-145961Y27838D01*
X-145892Y28006D01*
X-145818Y28172D01*
X-145740Y28336D01*
X-145739Y28336D02*
X-145710Y28415D01*
X-145678Y28492D01*
X-145642Y28568D01*
X-145603Y28643D01*
X-145560Y28716D01*
X-145514Y28786D01*
X-145466Y28855D01*
X-145414Y28921D01*
X-145359Y28985D01*
X-145302Y29046D01*
X-145242Y29105D01*
X-145179Y29162D01*
X-145114Y29215D01*
X-145047Y29265D01*
X-144977Y29313D01*
X-144906Y29357D01*
X-144832Y29398D01*
X-144757Y29436D01*
X-144680Y29470D01*
X-144602Y29501D01*
X-144523Y29528D01*
X-144442Y29552D01*
X-144360Y29573D01*
X-144278Y29589D01*
X-144195Y29602D01*
X-144111Y29612D01*
X-144027Y29617D01*
X-143943Y29619D01*
X-143859Y29617D01*
X-143775Y29612D01*
X-143691Y29602D01*
X-143608Y29589D01*
X-143526Y29573D01*
X-143444Y29552D01*
X-143363Y29528D01*
X-143284Y29501D01*
X-143206Y29470D01*
X-143129Y29436D01*
X-143054Y29398D01*
X-142980Y29357D01*
X-142909Y29313D01*
X-142839Y29265D01*
X-142772Y29215D01*
X-142707Y29162D01*
X-142644Y29105D01*
X-142584Y29047D01*
X-142527Y28985D01*
X-142472Y28921D01*
X-142420Y28855D01*
X-142372Y28786D01*
X-142326Y28716D01*
X-142283Y28643D01*
X-142244Y28569D01*
X-142208Y28492D01*
X-142176Y28415D01*
X-142147Y28336D01*
X-142069Y28172D01*
X-141995Y28006D01*
X-141926Y27838D01*
X-141860Y27668D01*
X-141798Y27497D01*
X-141741Y27325D01*
X-141687Y27151D01*
X-141638Y26976D01*
X-141593Y26800D01*
X-141552Y26623D01*
X-141515Y26445D01*
X-141483Y26266D01*
X-141455Y26087D01*
X-141431Y25907D01*
X-141412Y25726D01*
X-141397Y25545D01*
X-141386Y25363D01*
X-141379Y25182D01*
X-141377Y25000D01*
X-146509Y25000D02*
X-146507Y24818D01*
X-146500Y24637D01*
X-146489Y24455D01*
X-146474Y24274D01*
X-146455Y24093D01*
X-146431Y23913D01*
X-146403Y23734D01*
X-146371Y23555D01*
X-146334Y23377D01*
X-146293Y23200D01*
X-146248Y23024D01*
X-146199Y22849D01*
X-146145Y22675D01*
X-146088Y22503D01*
X-146026Y22332D01*
X-145960Y22162D01*
X-145891Y21995D01*
X-145817Y21828D01*
X-145739Y21664D01*
X-145710Y21585D01*
X-145678Y21508D01*
X-145642Y21431D01*
X-145603Y21357D01*
X-145560Y21284D01*
X-145514Y21214D01*
X-145466Y21145D01*
X-145414Y21079D01*
X-145359Y21015D01*
X-145302Y20953D01*
X-145242Y20895D01*
X-145179Y20838D01*
X-145114Y20785D01*
X-145047Y20735D01*
X-144977Y20687D01*
X-144906Y20643D01*
X-144832Y20602D01*
X-144757Y20564D01*
X-144680Y20530D01*
X-144602Y20499D01*
X-144523Y20472D01*
X-144442Y20448D01*
X-144360Y20427D01*
X-144278Y20411D01*
X-144195Y20398D01*
X-144111Y20388D01*
X-144027Y20383D01*
X-143943Y20381D01*
X-142147Y21664D02*
X-142069Y21828D01*
X-141995Y21994D01*
X-141926Y22162D01*
X-141860Y22332D01*
X-141798Y22503D01*
X-141741Y22675D01*
X-141687Y22849D01*
X-141638Y23024D01*
X-141593Y23200D01*
X-141552Y23377D01*
X-141515Y23555D01*
X-141483Y23734D01*
X-141455Y23913D01*
X-141431Y24093D01*
X-141412Y24274D01*
X-141397Y24455D01*
X-141386Y24637D01*
X-141379Y24818D01*
X-141377Y25000D01*
X-142147Y21664D02*
X-142176Y21585D01*
X-142208Y21508D01*
X-142244Y21431D01*
X-142283Y21357D01*
X-142326Y21284D01*
X-142372Y21214D01*
X-142420Y21145D01*
X-142472Y21079D01*
X-142527Y21015D01*
X-142584Y20953D01*
X-142644Y20895D01*
X-142707Y20838D01*
X-142772Y20785D01*
X-142839Y20735D01*
X-142909Y20687D01*
X-142980Y20643D01*
X-143054Y20602D01*
X-143129Y20564D01*
X-143206Y20530D01*
X-143284Y20499D01*
X-143363Y20472D01*
X-143444Y20448D01*
X-143526Y20427D01*
X-143608Y20411D01*
X-143691Y20398D01*
X-143775Y20388D01*
X-143859Y20383D01*
X-143943Y20381D01*
X-145996Y22434D02*
X-141891Y27566D01*
X-181213Y7119D02*
X-181213Y-66D01*
X-181215Y-156D01*
X-181221Y-245D01*
X-181231Y-334D01*
X-181244Y-422D01*
X-181262Y-510D01*
X-181283Y-597D01*
X-181308Y-683D01*
X-181337Y-768D01*
X-181369Y-852D01*
X-181405Y-934D01*
X-181445Y-1014D01*
X-181488Y-1093D01*
X-181535Y-1169D01*
X-181584Y-1244D01*
X-181637Y-1316D01*
X-181693Y-1386D01*
X-181752Y-1453D01*
X-181814Y-1518D01*
X-181879Y-1580D01*
X-181946Y-1639D01*
X-182016Y-1695D01*
X-182088Y-1748D01*
X-182163Y-1797D01*
X-182240Y-1844D01*
X-182318Y-1887D01*
X-182398Y-1927D01*
X-182480Y-1963D01*
X-182564Y-1995D01*
X-182649Y-2024D01*
X-182735Y-2049D01*
X-182822Y-2070D01*
X-182910Y-2088D01*
X-182998Y-2101D01*
X-183087Y-2111D01*
X-183176Y-2117D01*
X-183266Y-2119D01*
X-184292Y-2119D01*
X-176781Y-2119D02*
X-176781Y7119D01*
X-171649Y-2119D01*
X-171649Y7119D01*
X-167051Y7119D02*
X-167051Y-2119D01*
X-167051Y7119D02*
X-164485Y7119D01*
X-164386Y7117D01*
X-164286Y7111D01*
X-164187Y7102D01*
X-164089Y7088D01*
X-163991Y7071D01*
X-163893Y7050D01*
X-163797Y7025D01*
X-163702Y6996D01*
X-163607Y6964D01*
X-163515Y6928D01*
X-163423Y6889D01*
X-163333Y6846D01*
X-163245Y6800D01*
X-163159Y6750D01*
X-163075Y6697D01*
X-162993Y6641D01*
X-162913Y6581D01*
X-162836Y6519D01*
X-162761Y6453D01*
X-162688Y6385D01*
X-162619Y6314D01*
X-162552Y6240D01*
X-162488Y6164D01*
X-162427Y6085D01*
X-162369Y6004D01*
X-162314Y5921D01*
X-162263Y5836D01*
X-162215Y5749D01*
X-162170Y5660D01*
X-162129Y5569D01*
X-162091Y5477D01*
X-162057Y5384D01*
X-162027Y5289D01*
X-162000Y5193D01*
X-161977Y5096D01*
X-161958Y4999D01*
X-161943Y4900D01*
X-161931Y4801D01*
X-161923Y4702D01*
X-161919Y4603D01*
X-161919Y4503D01*
X-161923Y4404D01*
X-161931Y4305D01*
X-161943Y4206D01*
X-161958Y4107D01*
X-161977Y4010D01*
X-162000Y3913D01*
X-162027Y3817D01*
X-162057Y3722D01*
X-162091Y3629D01*
X-162129Y3537D01*
X-162170Y3446D01*
X-162215Y3357D01*
X-162263Y3270D01*
X-162314Y3185D01*
X-162369Y3102D01*
X-162427Y3021D01*
X-162488Y2942D01*
X-162552Y2866D01*
X-162619Y2792D01*
X-162688Y2721D01*
X-162761Y2653D01*
X-162836Y2587D01*
X-162913Y2525D01*
X-162993Y2465D01*
X-163075Y2409D01*
X-163159Y2356D01*
X-163245Y2306D01*
X-163333Y2260D01*
X-163423Y2217D01*
X-163515Y2178D01*
X-163607Y2142D01*
X-163702Y2110D01*
X-163797Y2081D01*
X-163893Y2056D01*
X-163991Y2035D01*
X-164089Y2018D01*
X-164187Y2004D01*
X-164286Y1995D01*
X-164386Y1989D01*
X-164485Y1987D01*
X-167051Y1987D01*
X-158394Y1474D02*
X-152236Y1474D01*
X-147894Y-2119D02*
X-147894Y7119D01*
X-144815Y1987D01*
X-141736Y7119D01*
X-141736Y-2119D01*
X-137568Y-66D02*
X-137568Y1987D01*
X-137566Y2077D01*
X-137560Y2166D01*
X-137550Y2255D01*
X-137537Y2343D01*
X-137519Y2431D01*
X-137498Y2518D01*
X-137473Y2604D01*
X-137444Y2689D01*
X-137412Y2773D01*
X-137376Y2855D01*
X-137336Y2935D01*
X-137293Y3014D01*
X-137246Y3090D01*
X-137197Y3165D01*
X-137144Y3237D01*
X-137088Y3307D01*
X-137029Y3374D01*
X-136967Y3439D01*
X-136902Y3501D01*
X-136835Y3560D01*
X-136765Y3616D01*
X-136693Y3669D01*
X-136618Y3718D01*
X-136542Y3765D01*
X-136463Y3808D01*
X-136383Y3848D01*
X-136301Y3884D01*
X-136217Y3916D01*
X-136132Y3945D01*
X-136046Y3970D01*
X-135959Y3991D01*
X-135871Y4009D01*
X-135783Y4022D01*
X-135694Y4032D01*
X-135605Y4038D01*
X-135515Y4040D01*
X-135425Y4038D01*
X-135336Y4032D01*
X-135247Y4022D01*
X-135159Y4009D01*
X-135071Y3991D01*
X-134984Y3970D01*
X-134898Y3945D01*
X-134813Y3916D01*
X-134729Y3884D01*
X-134647Y3848D01*
X-134567Y3808D01*
X-134489Y3765D01*
X-134412Y3718D01*
X-134337Y3669D01*
X-134265Y3616D01*
X-134195Y3560D01*
X-134128Y3501D01*
X-134063Y3439D01*
X-134001Y3374D01*
X-133942Y3307D01*
X-133886Y3237D01*
X-133833Y3165D01*
X-133784Y3090D01*
X-133737Y3014D01*
X-133694Y2935D01*
X-133654Y2855D01*
X-133618Y2773D01*
X-133586Y2689D01*
X-133557Y2604D01*
X-133532Y2518D01*
X-133511Y2431D01*
X-133493Y2343D01*
X-133480Y2255D01*
X-133470Y2166D01*
X-133464Y2077D01*
X-133462Y1987D01*
X-133462Y-66D01*
X-133464Y-156D01*
X-133470Y-245D01*
X-133480Y-334D01*
X-133493Y-422D01*
X-133511Y-510D01*
X-133532Y-597D01*
X-133557Y-683D01*
X-133586Y-768D01*
X-133618Y-852D01*
X-133654Y-934D01*
X-133694Y-1014D01*
X-133737Y-1093D01*
X-133784Y-1169D01*
X-133833Y-1244D01*
X-133886Y-1316D01*
X-133942Y-1386D01*
X-134001Y-1453D01*
X-134063Y-1518D01*
X-134128Y-1580D01*
X-134195Y-1639D01*
X-134265Y-1695D01*
X-134337Y-1748D01*
X-134412Y-1797D01*
X-134489Y-1844D01*
X-134567Y-1887D01*
X-134647Y-1927D01*
X-134729Y-1963D01*
X-134813Y-1995D01*
X-134898Y-2024D01*
X-134984Y-2049D01*
X-135071Y-2070D01*
X-135159Y-2088D01*
X-135247Y-2101D01*
X-135336Y-2111D01*
X-135425Y-2117D01*
X-135515Y-2119D01*
X-135605Y-2117D01*
X-135694Y-2111D01*
X-135783Y-2101D01*
X-135871Y-2088D01*
X-135959Y-2070D01*
X-136046Y-2049D01*
X-136132Y-2024D01*
X-136217Y-1995D01*
X-136301Y-1963D01*
X-136383Y-1927D01*
X-136463Y-1887D01*
X-136542Y-1844D01*
X-136618Y-1797D01*
X-136693Y-1748D01*
X-136765Y-1695D01*
X-136835Y-1639D01*
X-136902Y-1580D01*
X-136967Y-1518D01*
X-137029Y-1453D01*
X-137088Y-1386D01*
X-137144Y-1316D01*
X-137197Y-1244D01*
X-137246Y-1169D01*
X-137293Y-1092D01*
X-137336Y-1014D01*
X-137376Y-934D01*
X-137412Y-852D01*
X-137444Y-768D01*
X-137473Y-683D01*
X-137498Y-597D01*
X-137519Y-510D01*
X-137537Y-422D01*
X-137550Y-334D01*
X-137560Y-245D01*
X-137566Y-156D01*
X-137568Y-66D01*
X-125708Y-2119D02*
X-125708Y7119D01*
X-125708Y-2119D02*
X-128274Y-2119D01*
X-128350Y-2117D01*
X-128425Y-2112D01*
X-128500Y-2102D01*
X-128574Y-2089D01*
X-128648Y-2073D01*
X-128721Y-2053D01*
X-128793Y-2029D01*
X-128863Y-2002D01*
X-128932Y-1971D01*
X-129000Y-1937D01*
X-129066Y-1900D01*
X-129130Y-1859D01*
X-129191Y-1816D01*
X-129251Y-1769D01*
X-129308Y-1720D01*
X-129363Y-1668D01*
X-129415Y-1613D01*
X-129464Y-1556D01*
X-129511Y-1496D01*
X-129554Y-1435D01*
X-129595Y-1371D01*
X-129632Y-1305D01*
X-129666Y-1237D01*
X-129697Y-1168D01*
X-129724Y-1098D01*
X-129748Y-1026D01*
X-129768Y-953D01*
X-129784Y-879D01*
X-129797Y-805D01*
X-129807Y-730D01*
X-129812Y-655D01*
X-129814Y-579D01*
X-129813Y-579D02*
X-129813Y2500D01*
X-129814Y2500D02*
X-129812Y2576D01*
X-129807Y2651D01*
X-129797Y2726D01*
X-129784Y2800D01*
X-129768Y2874D01*
X-129748Y2947D01*
X-129724Y3019D01*
X-129697Y3089D01*
X-129666Y3158D01*
X-129632Y3226D01*
X-129595Y3292D01*
X-129554Y3356D01*
X-129511Y3417D01*
X-129464Y3477D01*
X-129415Y3534D01*
X-129363Y3589D01*
X-129308Y3641D01*
X-129251Y3690D01*
X-129191Y3737D01*
X-129130Y3780D01*
X-129066Y3821D01*
X-129000Y3858D01*
X-128932Y3892D01*
X-128863Y3923D01*
X-128793Y3950D01*
X-128721Y3974D01*
X-128648Y3994D01*
X-128574Y4010D01*
X-128500Y4023D01*
X-128425Y4033D01*
X-128350Y4038D01*
X-128274Y4040D01*
X-125708Y4040D01*
D13*
X-103100Y950D02*
X-96750Y-5400D01*
X-84050Y-5400D02*
X-77700Y950D01*
X-71350Y-5400D01*
X-58650Y-5400D02*
X-52300Y950D01*
X-103100Y950D02*
X-103100Y39050D01*
X-96750Y45400D01*
X-84050Y45400D01*
X-77700Y39050D01*
X-71350Y45400D01*
X-58650Y45400D01*
X-52300Y39050D01*
X-77700Y39050D02*
X-77700Y950D01*
X-52300Y950D02*
X-52300Y39050D01*
X-58650Y-5400D02*
X-71350Y-5400D01*
X-84050Y-5400D02*
X-96750Y-5400D01*
X-52300Y950D02*
X-45950Y-5400D01*
X-33250Y-5400D02*
X-26900Y950D01*
X-52300Y39050D02*
X-45950Y45400D01*
X-33250Y45400D01*
X-26900Y39050D01*
X-26900Y950D01*
X-33250Y-5400D02*
X-45950Y-5400D01*
D11*
X-109934Y13460D02*
X-117119Y13460D01*
X-109934Y13460D02*
X-109844Y13458D01*
X-109755Y13452D01*
X-109666Y13442D01*
X-109578Y13429D01*
X-109490Y13411D01*
X-109403Y13390D01*
X-109317Y13365D01*
X-109232Y13336D01*
X-109148Y13304D01*
X-109066Y13268D01*
X-108986Y13228D01*
X-108908Y13185D01*
X-108831Y13138D01*
X-108756Y13089D01*
X-108684Y13036D01*
X-108614Y12980D01*
X-108547Y12921D01*
X-108482Y12859D01*
X-108420Y12794D01*
X-108361Y12727D01*
X-108305Y12657D01*
X-108252Y12585D01*
X-108203Y12510D01*
X-108156Y12434D01*
X-108113Y12355D01*
X-108073Y12275D01*
X-108037Y12193D01*
X-108005Y12109D01*
X-107976Y12024D01*
X-107951Y11938D01*
X-107930Y11851D01*
X-107912Y11763D01*
X-107899Y11675D01*
X-107889Y11586D01*
X-107883Y11497D01*
X-107881Y11407D01*
X-107881Y10381D01*
X-107881Y18023D02*
X-117119Y18023D01*
X-117119Y20589D01*
X-117117Y20688D01*
X-117111Y20788D01*
X-117102Y20887D01*
X-117088Y20985D01*
X-117071Y21083D01*
X-117050Y21181D01*
X-117025Y21277D01*
X-116996Y21372D01*
X-116964Y21467D01*
X-116928Y21559D01*
X-116889Y21651D01*
X-116846Y21741D01*
X-116800Y21829D01*
X-116750Y21915D01*
X-116697Y21999D01*
X-116641Y22081D01*
X-116581Y22161D01*
X-116519Y22238D01*
X-116453Y22313D01*
X-116385Y22386D01*
X-116314Y22455D01*
X-116240Y22522D01*
X-116164Y22586D01*
X-116085Y22647D01*
X-116004Y22705D01*
X-115921Y22760D01*
X-115836Y22811D01*
X-115749Y22859D01*
X-115660Y22904D01*
X-115569Y22945D01*
X-115477Y22983D01*
X-115384Y23017D01*
X-115289Y23047D01*
X-115193Y23074D01*
X-115096Y23097D01*
X-114999Y23116D01*
X-114900Y23131D01*
X-114801Y23143D01*
X-114702Y23151D01*
X-114603Y23155D01*
X-114503Y23155D01*
X-114404Y23151D01*
X-114305Y23143D01*
X-114206Y23131D01*
X-114107Y23116D01*
X-114010Y23097D01*
X-113913Y23074D01*
X-113817Y23047D01*
X-113722Y23017D01*
X-113629Y22983D01*
X-113537Y22945D01*
X-113446Y22904D01*
X-113357Y22859D01*
X-113270Y22811D01*
X-113185Y22760D01*
X-113102Y22705D01*
X-113021Y22647D01*
X-112942Y22586D01*
X-112866Y22522D01*
X-112792Y22455D01*
X-112721Y22386D01*
X-112653Y22313D01*
X-112587Y22238D01*
X-112525Y22161D01*
X-112465Y22081D01*
X-112409Y21999D01*
X-112356Y21915D01*
X-112306Y21829D01*
X-112260Y21741D01*
X-112217Y21651D01*
X-112178Y21559D01*
X-112142Y21467D01*
X-112110Y21372D01*
X-112081Y21277D01*
X-112056Y21181D01*
X-112035Y21083D01*
X-112018Y20985D01*
X-112004Y20887D01*
X-111995Y20788D01*
X-111989Y20688D01*
X-111987Y20589D01*
X-111987Y18023D01*
X-115066Y26592D02*
X-117119Y29158D01*
X-107881Y29158D01*
X-107881Y26592D02*
X-107881Y31725D01*
X-102566Y50381D02*
X-100513Y50381D01*
X-102566Y50381D02*
X-102656Y50383D01*
X-102745Y50389D01*
X-102834Y50399D01*
X-102922Y50412D01*
X-103010Y50430D01*
X-103097Y50451D01*
X-103183Y50476D01*
X-103268Y50505D01*
X-103352Y50537D01*
X-103434Y50573D01*
X-103514Y50613D01*
X-103593Y50656D01*
X-103669Y50703D01*
X-103744Y50752D01*
X-103816Y50805D01*
X-103886Y50861D01*
X-103953Y50920D01*
X-104018Y50982D01*
X-104080Y51047D01*
X-104139Y51114D01*
X-104195Y51184D01*
X-104248Y51256D01*
X-104297Y51331D01*
X-104344Y51408D01*
X-104387Y51486D01*
X-104427Y51566D01*
X-104463Y51648D01*
X-104495Y51732D01*
X-104524Y51817D01*
X-104549Y51903D01*
X-104570Y51990D01*
X-104588Y52078D01*
X-104601Y52166D01*
X-104611Y52255D01*
X-104617Y52344D01*
X-104619Y52434D01*
X-104619Y57566D01*
X-104617Y57656D01*
X-104611Y57745D01*
X-104601Y57834D01*
X-104588Y57922D01*
X-104570Y58010D01*
X-104549Y58097D01*
X-104524Y58183D01*
X-104495Y58268D01*
X-104463Y58352D01*
X-104427Y58434D01*
X-104387Y58514D01*
X-104344Y58593D01*
X-104297Y58669D01*
X-104248Y58744D01*
X-104195Y58816D01*
X-104139Y58886D01*
X-104080Y58953D01*
X-104018Y59018D01*
X-103953Y59080D01*
X-103886Y59139D01*
X-103816Y59195D01*
X-103744Y59248D01*
X-103669Y59297D01*
X-103593Y59344D01*
X-103514Y59387D01*
X-103434Y59427D01*
X-103352Y59463D01*
X-103268Y59495D01*
X-103183Y59524D01*
X-103097Y59549D01*
X-103010Y59570D01*
X-102922Y59588D01*
X-102834Y59601D01*
X-102745Y59611D01*
X-102656Y59617D01*
X-102566Y59619D01*
X-100513Y59619D01*
X-97180Y54487D02*
X-97180Y52434D01*
X-97180Y54487D02*
X-97178Y54577D01*
X-97172Y54666D01*
X-97162Y54755D01*
X-97149Y54843D01*
X-97131Y54931D01*
X-97110Y55018D01*
X-97085Y55104D01*
X-97056Y55189D01*
X-97024Y55273D01*
X-96988Y55355D01*
X-96948Y55435D01*
X-96905Y55514D01*
X-96858Y55590D01*
X-96809Y55665D01*
X-96756Y55737D01*
X-96700Y55807D01*
X-96641Y55874D01*
X-96579Y55939D01*
X-96514Y56001D01*
X-96447Y56060D01*
X-96377Y56116D01*
X-96305Y56169D01*
X-96230Y56218D01*
X-96154Y56265D01*
X-96075Y56308D01*
X-95995Y56348D01*
X-95913Y56384D01*
X-95829Y56416D01*
X-95744Y56445D01*
X-95658Y56470D01*
X-95571Y56491D01*
X-95483Y56509D01*
X-95395Y56522D01*
X-95306Y56532D01*
X-95217Y56538D01*
X-95127Y56540D01*
X-95037Y56538D01*
X-94948Y56532D01*
X-94859Y56522D01*
X-94771Y56509D01*
X-94683Y56491D01*
X-94596Y56470D01*
X-94510Y56445D01*
X-94425Y56416D01*
X-94341Y56384D01*
X-94259Y56348D01*
X-94179Y56308D01*
X-94101Y56265D01*
X-94024Y56218D01*
X-93949Y56169D01*
X-93877Y56116D01*
X-93807Y56060D01*
X-93740Y56001D01*
X-93675Y55939D01*
X-93613Y55874D01*
X-93554Y55807D01*
X-93498Y55737D01*
X-93445Y55665D01*
X-93396Y55590D01*
X-93349Y55514D01*
X-93306Y55435D01*
X-93266Y55355D01*
X-93230Y55273D01*
X-93198Y55189D01*
X-93169Y55104D01*
X-93144Y55018D01*
X-93123Y54931D01*
X-93105Y54843D01*
X-93092Y54755D01*
X-93082Y54666D01*
X-93076Y54577D01*
X-93074Y54487D01*
X-93075Y54487D02*
X-93075Y52434D01*
X-93074Y52434D02*
X-93076Y52344D01*
X-93082Y52255D01*
X-93092Y52166D01*
X-93105Y52078D01*
X-93123Y51990D01*
X-93144Y51903D01*
X-93169Y51817D01*
X-93198Y51732D01*
X-93230Y51648D01*
X-93266Y51566D01*
X-93306Y51486D01*
X-93349Y51407D01*
X-93396Y51331D01*
X-93445Y51256D01*
X-93498Y51184D01*
X-93554Y51114D01*
X-93613Y51047D01*
X-93675Y50982D01*
X-93740Y50920D01*
X-93807Y50861D01*
X-93877Y50805D01*
X-93949Y50752D01*
X-94024Y50703D01*
X-94101Y50656D01*
X-94179Y50613D01*
X-94259Y50573D01*
X-94341Y50537D01*
X-94425Y50505D01*
X-94510Y50476D01*
X-94596Y50451D01*
X-94683Y50430D01*
X-94771Y50412D01*
X-94859Y50399D01*
X-94948Y50389D01*
X-95037Y50383D01*
X-95127Y50381D01*
X-95217Y50383D01*
X-95306Y50389D01*
X-95395Y50399D01*
X-95483Y50412D01*
X-95571Y50430D01*
X-95658Y50451D01*
X-95744Y50476D01*
X-95829Y50505D01*
X-95913Y50537D01*
X-95995Y50573D01*
X-96075Y50613D01*
X-96154Y50656D01*
X-96230Y50703D01*
X-96305Y50752D01*
X-96377Y50805D01*
X-96447Y50861D01*
X-96514Y50920D01*
X-96579Y50982D01*
X-96641Y51047D01*
X-96700Y51114D01*
X-96756Y51184D01*
X-96809Y51256D01*
X-96858Y51331D01*
X-96905Y51408D01*
X-96948Y51486D01*
X-96988Y51566D01*
X-97024Y51648D01*
X-97056Y51732D01*
X-97085Y51817D01*
X-97110Y51903D01*
X-97131Y51990D01*
X-97149Y52078D01*
X-97162Y52166D01*
X-97172Y52255D01*
X-97178Y52344D01*
X-97180Y52434D01*
X-89380Y52434D02*
X-89380Y54487D01*
X-89378Y54577D01*
X-89372Y54666D01*
X-89362Y54755D01*
X-89349Y54843D01*
X-89331Y54931D01*
X-89310Y55018D01*
X-89285Y55104D01*
X-89256Y55189D01*
X-89224Y55273D01*
X-89188Y55355D01*
X-89148Y55435D01*
X-89105Y55514D01*
X-89058Y55590D01*
X-89009Y55665D01*
X-88956Y55737D01*
X-88900Y55807D01*
X-88841Y55874D01*
X-88779Y55939D01*
X-88714Y56001D01*
X-88647Y56060D01*
X-88577Y56116D01*
X-88505Y56169D01*
X-88430Y56218D01*
X-88354Y56265D01*
X-88275Y56308D01*
X-88195Y56348D01*
X-88113Y56384D01*
X-88029Y56416D01*
X-87944Y56445D01*
X-87858Y56470D01*
X-87771Y56491D01*
X-87683Y56509D01*
X-87595Y56522D01*
X-87506Y56532D01*
X-87417Y56538D01*
X-87327Y56540D01*
X-87237Y56538D01*
X-87148Y56532D01*
X-87059Y56522D01*
X-86971Y56509D01*
X-86883Y56491D01*
X-86796Y56470D01*
X-86710Y56445D01*
X-86625Y56416D01*
X-86541Y56384D01*
X-86459Y56348D01*
X-86379Y56308D01*
X-86301Y56265D01*
X-86224Y56218D01*
X-86149Y56169D01*
X-86077Y56116D01*
X-86007Y56060D01*
X-85940Y56001D01*
X-85875Y55939D01*
X-85813Y55874D01*
X-85754Y55807D01*
X-85698Y55737D01*
X-85645Y55665D01*
X-85596Y55590D01*
X-85549Y55514D01*
X-85506Y55435D01*
X-85466Y55355D01*
X-85430Y55273D01*
X-85398Y55189D01*
X-85369Y55104D01*
X-85344Y55018D01*
X-85323Y54931D01*
X-85305Y54843D01*
X-85292Y54755D01*
X-85282Y54666D01*
X-85276Y54577D01*
X-85274Y54487D01*
X-85275Y54487D02*
X-85275Y52434D01*
X-85274Y52434D02*
X-85276Y52344D01*
X-85282Y52255D01*
X-85292Y52166D01*
X-85305Y52078D01*
X-85323Y51990D01*
X-85344Y51903D01*
X-85369Y51817D01*
X-85398Y51732D01*
X-85430Y51648D01*
X-85466Y51566D01*
X-85506Y51486D01*
X-85549Y51407D01*
X-85596Y51331D01*
X-85645Y51256D01*
X-85698Y51184D01*
X-85754Y51114D01*
X-85813Y51047D01*
X-85875Y50982D01*
X-85940Y50920D01*
X-86007Y50861D01*
X-86077Y50805D01*
X-86149Y50752D01*
X-86224Y50703D01*
X-86301Y50656D01*
X-86379Y50613D01*
X-86459Y50573D01*
X-86541Y50537D01*
X-86625Y50505D01*
X-86710Y50476D01*
X-86796Y50451D01*
X-86883Y50430D01*
X-86971Y50412D01*
X-87059Y50399D01*
X-87148Y50389D01*
X-87237Y50383D01*
X-87327Y50381D01*
X-87417Y50383D01*
X-87506Y50389D01*
X-87595Y50399D01*
X-87683Y50412D01*
X-87771Y50430D01*
X-87858Y50451D01*
X-87944Y50476D01*
X-88029Y50505D01*
X-88113Y50537D01*
X-88195Y50573D01*
X-88275Y50613D01*
X-88354Y50656D01*
X-88430Y50703D01*
X-88505Y50752D01*
X-88577Y50805D01*
X-88647Y50861D01*
X-88714Y50920D01*
X-88779Y50982D01*
X-88841Y51047D01*
X-88900Y51114D01*
X-88956Y51184D01*
X-89009Y51256D01*
X-89058Y51331D01*
X-89105Y51408D01*
X-89148Y51486D01*
X-89188Y51566D01*
X-89224Y51648D01*
X-89256Y51732D01*
X-89285Y51817D01*
X-89310Y51903D01*
X-89331Y51990D01*
X-89349Y52078D01*
X-89362Y52166D01*
X-89372Y52255D01*
X-89378Y52344D01*
X-89380Y52434D01*
X-81458Y51921D02*
X-81458Y59619D01*
X-81459Y51921D02*
X-81457Y51843D01*
X-81451Y51765D01*
X-81441Y51688D01*
X-81427Y51611D01*
X-81410Y51535D01*
X-81388Y51460D01*
X-81363Y51386D01*
X-81334Y51314D01*
X-81302Y51243D01*
X-81265Y51174D01*
X-81226Y51106D01*
X-81183Y51041D01*
X-81137Y50978D01*
X-81087Y50918D01*
X-81035Y50860D01*
X-80980Y50805D01*
X-80922Y50753D01*
X-80862Y50703D01*
X-80799Y50657D01*
X-80734Y50614D01*
X-80666Y50575D01*
X-80597Y50538D01*
X-80526Y50506D01*
X-80454Y50477D01*
X-80380Y50452D01*
X-80305Y50430D01*
X-80229Y50413D01*
X-80152Y50399D01*
X-80075Y50389D01*
X-79997Y50383D01*
X-79919Y50381D01*
X-76827Y50381D02*
X-76827Y56540D01*
X-77084Y59106D02*
X-77084Y59619D01*
X-76571Y59619D01*
X-76571Y59106D01*
X-77084Y59106D01*
X-72880Y56540D02*
X-72880Y50381D01*
X-72880Y56540D02*
X-70314Y56540D01*
X-70236Y56538D01*
X-70158Y56532D01*
X-70081Y56522D01*
X-70004Y56508D01*
X-69928Y56491D01*
X-69853Y56469D01*
X-69779Y56444D01*
X-69707Y56415D01*
X-69636Y56383D01*
X-69567Y56346D01*
X-69499Y56307D01*
X-69434Y56264D01*
X-69371Y56218D01*
X-69311Y56168D01*
X-69253Y56116D01*
X-69198Y56061D01*
X-69146Y56003D01*
X-69096Y55943D01*
X-69050Y55880D01*
X-69007Y55815D01*
X-68968Y55747D01*
X-68931Y55678D01*
X-68899Y55607D01*
X-68870Y55535D01*
X-68845Y55461D01*
X-68823Y55386D01*
X-68806Y55310D01*
X-68792Y55233D01*
X-68782Y55156D01*
X-68776Y55078D01*
X-68774Y55000D01*
X-68775Y55000D02*
X-68775Y50381D01*
X-63286Y50381D02*
X-60720Y50381D01*
X-63286Y50381D02*
X-63362Y50383D01*
X-63437Y50388D01*
X-63512Y50398D01*
X-63586Y50411D01*
X-63660Y50427D01*
X-63733Y50447D01*
X-63805Y50471D01*
X-63875Y50498D01*
X-63944Y50529D01*
X-64012Y50563D01*
X-64078Y50600D01*
X-64142Y50641D01*
X-64203Y50684D01*
X-64263Y50731D01*
X-64320Y50780D01*
X-64375Y50832D01*
X-64427Y50887D01*
X-64476Y50944D01*
X-64523Y51004D01*
X-64566Y51065D01*
X-64607Y51129D01*
X-64644Y51195D01*
X-64678Y51263D01*
X-64709Y51332D01*
X-64736Y51402D01*
X-64760Y51474D01*
X-64780Y51547D01*
X-64796Y51621D01*
X-64809Y51695D01*
X-64819Y51770D01*
X-64824Y51845D01*
X-64826Y51921D01*
X-64826Y55000D01*
X-64824Y55076D01*
X-64819Y55151D01*
X-64809Y55226D01*
X-64796Y55300D01*
X-64780Y55374D01*
X-64760Y55447D01*
X-64736Y55519D01*
X-64709Y55589D01*
X-64678Y55658D01*
X-64644Y55726D01*
X-64607Y55792D01*
X-64566Y55856D01*
X-64523Y55917D01*
X-64476Y55977D01*
X-64427Y56034D01*
X-64375Y56089D01*
X-64320Y56141D01*
X-64263Y56190D01*
X-64203Y56237D01*
X-64142Y56280D01*
X-64078Y56321D01*
X-64012Y56358D01*
X-63944Y56392D01*
X-63875Y56423D01*
X-63805Y56450D01*
X-63733Y56474D01*
X-63660Y56494D01*
X-63586Y56510D01*
X-63512Y56523D01*
X-63437Y56533D01*
X-63362Y56538D01*
X-63286Y56540D01*
X-60720Y56540D01*
X-60720Y48841D01*
X-60722Y48765D01*
X-60727Y48690D01*
X-60737Y48615D01*
X-60750Y48541D01*
X-60766Y48467D01*
X-60786Y48394D01*
X-60810Y48322D01*
X-60837Y48252D01*
X-60868Y48183D01*
X-60902Y48115D01*
X-60939Y48049D01*
X-60980Y47985D01*
X-61023Y47924D01*
X-61070Y47864D01*
X-61119Y47807D01*
X-61171Y47752D01*
X-61226Y47700D01*
X-61283Y47651D01*
X-61343Y47604D01*
X-61404Y47561D01*
X-61468Y47520D01*
X-61534Y47483D01*
X-61602Y47449D01*
X-61671Y47418D01*
X-61741Y47391D01*
X-61813Y47367D01*
X-61886Y47347D01*
X-61960Y47331D01*
X-62034Y47318D01*
X-62109Y47308D01*
X-62184Y47303D01*
X-62260Y47301D01*
X-62260Y47302D02*
X-64312Y47302D01*
X-51476Y50381D02*
X-51476Y59619D01*
X-47371Y59619D01*
X-47371Y55513D02*
X-51476Y55513D01*
X-42329Y53974D02*
X-40020Y53974D01*
X-42329Y53973D02*
X-42412Y53971D01*
X-42495Y53965D01*
X-42577Y53956D01*
X-42659Y53942D01*
X-42740Y53925D01*
X-42820Y53904D01*
X-42900Y53880D01*
X-42978Y53852D01*
X-43054Y53820D01*
X-43130Y53785D01*
X-43203Y53746D01*
X-43274Y53704D01*
X-43344Y53659D01*
X-43411Y53610D01*
X-43476Y53559D01*
X-43539Y53504D01*
X-43599Y53447D01*
X-43656Y53387D01*
X-43711Y53324D01*
X-43762Y53259D01*
X-43811Y53192D01*
X-43856Y53122D01*
X-43898Y53051D01*
X-43937Y52978D01*
X-43972Y52902D01*
X-44004Y52826D01*
X-44032Y52748D01*
X-44056Y52668D01*
X-44077Y52588D01*
X-44094Y52507D01*
X-44108Y52425D01*
X-44117Y52343D01*
X-44123Y52260D01*
X-44125Y52177D01*
X-44123Y52094D01*
X-44117Y52011D01*
X-44108Y51929D01*
X-44094Y51847D01*
X-44077Y51766D01*
X-44056Y51686D01*
X-44032Y51606D01*
X-44004Y51528D01*
X-43972Y51452D01*
X-43937Y51376D01*
X-43898Y51303D01*
X-43856Y51232D01*
X-43811Y51162D01*
X-43762Y51095D01*
X-43711Y51030D01*
X-43656Y50967D01*
X-43599Y50907D01*
X-43539Y50850D01*
X-43476Y50795D01*
X-43411Y50744D01*
X-43344Y50695D01*
X-43274Y50650D01*
X-43203Y50608D01*
X-43130Y50569D01*
X-43054Y50534D01*
X-42978Y50502D01*
X-42900Y50474D01*
X-42820Y50450D01*
X-42740Y50429D01*
X-42659Y50412D01*
X-42577Y50398D01*
X-42495Y50389D01*
X-42412Y50383D01*
X-42329Y50381D01*
X-40020Y50381D01*
X-40020Y55000D01*
X-40022Y55076D01*
X-40027Y55151D01*
X-40037Y55226D01*
X-40050Y55300D01*
X-40066Y55374D01*
X-40086Y55447D01*
X-40110Y55519D01*
X-40137Y55589D01*
X-40168Y55658D01*
X-40202Y55726D01*
X-40239Y55792D01*
X-40280Y55856D01*
X-40323Y55917D01*
X-40370Y55977D01*
X-40419Y56034D01*
X-40471Y56089D01*
X-40526Y56141D01*
X-40583Y56190D01*
X-40643Y56237D01*
X-40704Y56280D01*
X-40768Y56321D01*
X-40834Y56358D01*
X-40902Y56392D01*
X-40971Y56423D01*
X-41041Y56450D01*
X-41113Y56474D01*
X-41186Y56494D01*
X-41260Y56510D01*
X-41334Y56523D01*
X-41409Y56533D01*
X-41484Y56538D01*
X-41560Y56540D01*
X-43612Y56540D01*
X-35680Y56540D02*
X-35680Y50381D01*
X-35680Y56540D02*
X-33114Y56540D01*
X-33036Y56538D01*
X-32958Y56532D01*
X-32881Y56522D01*
X-32804Y56508D01*
X-32728Y56491D01*
X-32653Y56469D01*
X-32579Y56444D01*
X-32507Y56415D01*
X-32436Y56383D01*
X-32367Y56346D01*
X-32299Y56307D01*
X-32234Y56264D01*
X-32171Y56218D01*
X-32111Y56168D01*
X-32053Y56116D01*
X-31998Y56061D01*
X-31946Y56003D01*
X-31896Y55943D01*
X-31850Y55880D01*
X-31807Y55815D01*
X-31768Y55747D01*
X-31731Y55678D01*
X-31699Y55607D01*
X-31670Y55535D01*
X-31645Y55461D01*
X-31623Y55386D01*
X-31606Y55310D01*
X-31592Y55233D01*
X-31582Y55156D01*
X-31576Y55078D01*
X-31574Y55000D01*
X-31575Y55000D02*
X-31575Y50381D01*
X-28054Y61415D02*
X-26001Y62955D01*
X-22011Y53974D02*
X-19445Y52947D01*
X-22010Y53973D02*
X-22077Y54002D01*
X-22142Y54034D01*
X-22205Y54070D01*
X-22266Y54109D01*
X-22324Y54152D01*
X-22381Y54197D01*
X-22434Y54246D01*
X-22485Y54297D01*
X-22534Y54351D01*
X-22579Y54408D01*
X-22621Y54467D01*
X-22659Y54528D01*
X-22695Y54591D01*
X-22727Y54656D01*
X-22755Y54723D01*
X-22780Y54791D01*
X-22800Y54860D01*
X-22818Y54931D01*
X-22831Y55002D01*
X-22840Y55074D01*
X-22845Y55146D01*
X-22847Y55218D01*
X-22844Y55291D01*
X-22838Y55363D01*
X-22828Y55434D01*
X-22814Y55505D01*
X-22796Y55576D01*
X-22774Y55645D01*
X-22748Y55712D01*
X-22719Y55779D01*
X-22686Y55843D01*
X-22650Y55906D01*
X-22610Y55967D01*
X-22568Y56025D01*
X-22522Y56081D01*
X-22473Y56134D01*
X-22421Y56185D01*
X-22366Y56233D01*
X-22310Y56278D01*
X-22250Y56319D01*
X-22189Y56357D01*
X-22125Y56392D01*
X-22060Y56424D01*
X-21993Y56452D01*
X-21925Y56476D01*
X-21855Y56496D01*
X-21785Y56513D01*
X-21714Y56525D01*
X-21642Y56534D01*
X-21569Y56539D01*
X-21497Y56540D01*
X-21498Y56539D02*
X-21349Y56535D01*
X-21200Y56528D01*
X-21052Y56516D01*
X-20904Y56501D01*
X-20756Y56481D01*
X-20609Y56458D01*
X-20462Y56432D01*
X-20317Y56401D01*
X-20172Y56367D01*
X-20028Y56329D01*
X-19885Y56288D01*
X-19743Y56243D01*
X-19602Y56194D01*
X-19463Y56141D01*
X-19325Y56086D01*
X-19188Y56026D01*
X-19445Y52948D02*
X-19378Y52919D01*
X-19313Y52887D01*
X-19250Y52851D01*
X-19189Y52812D01*
X-19131Y52769D01*
X-19074Y52724D01*
X-19021Y52675D01*
X-18970Y52624D01*
X-18921Y52570D01*
X-18876Y52513D01*
X-18834Y52454D01*
X-18796Y52393D01*
X-18760Y52330D01*
X-18728Y52265D01*
X-18700Y52198D01*
X-18675Y52130D01*
X-18655Y52061D01*
X-18637Y51990D01*
X-18624Y51919D01*
X-18615Y51847D01*
X-18610Y51775D01*
X-18608Y51703D01*
X-18611Y51630D01*
X-18617Y51558D01*
X-18627Y51487D01*
X-18641Y51416D01*
X-18659Y51345D01*
X-18681Y51276D01*
X-18707Y51209D01*
X-18736Y51142D01*
X-18769Y51078D01*
X-18805Y51015D01*
X-18845Y50954D01*
X-18887Y50896D01*
X-18933Y50840D01*
X-18982Y50787D01*
X-19034Y50736D01*
X-19089Y50688D01*
X-19145Y50643D01*
X-19205Y50602D01*
X-19266Y50564D01*
X-19330Y50529D01*
X-19395Y50497D01*
X-19462Y50469D01*
X-19530Y50445D01*
X-19600Y50425D01*
X-19670Y50408D01*
X-19741Y50396D01*
X-19813Y50387D01*
X-19886Y50382D01*
X-19958Y50381D01*
X-19957Y50382D02*
X-20163Y50387D01*
X-20369Y50398D01*
X-20574Y50413D01*
X-20779Y50433D01*
X-20983Y50457D01*
X-21187Y50487D01*
X-21390Y50521D01*
X-21592Y50561D01*
X-21793Y50605D01*
X-21993Y50653D01*
X-22192Y50707D01*
X-22389Y50765D01*
X-22585Y50828D01*
X-22780Y50895D01*
D13*
X1900Y950D02*
X8250Y-5400D01*
X20950Y-5400D02*
X27300Y950D01*
X33650Y-5400D01*
X46350Y-5400D02*
X52700Y950D01*
X1900Y950D02*
X1900Y39050D01*
X8250Y45400D01*
X20950Y45400D01*
X27300Y39050D01*
X33650Y45400D01*
X46350Y45400D01*
X52700Y39050D01*
X27300Y39050D02*
X27300Y950D01*
X52700Y950D02*
X52700Y39050D01*
X46350Y-5400D02*
X33650Y-5400D01*
X20950Y-5400D02*
X8250Y-5400D01*
X52700Y950D02*
X59050Y-5400D01*
X71750Y-5400D02*
X78100Y950D01*
X52700Y39050D02*
X59050Y45400D01*
X71750Y45400D01*
X78100Y39050D01*
X78100Y950D01*
X71750Y-5400D02*
X59050Y-5400D01*
D11*
X-4934Y13460D02*
X-12119Y13460D01*
X-4934Y13460D02*
X-4844Y13458D01*
X-4755Y13452D01*
X-4666Y13442D01*
X-4578Y13429D01*
X-4490Y13411D01*
X-4403Y13390D01*
X-4317Y13365D01*
X-4232Y13336D01*
X-4148Y13304D01*
X-4066Y13268D01*
X-3986Y13228D01*
X-3907Y13185D01*
X-3831Y13138D01*
X-3756Y13089D01*
X-3684Y13036D01*
X-3614Y12980D01*
X-3547Y12921D01*
X-3482Y12859D01*
X-3420Y12794D01*
X-3361Y12727D01*
X-3305Y12657D01*
X-3252Y12585D01*
X-3203Y12510D01*
X-3156Y12434D01*
X-3113Y12355D01*
X-3073Y12275D01*
X-3037Y12193D01*
X-3005Y12109D01*
X-2976Y12024D01*
X-2951Y11938D01*
X-2930Y11851D01*
X-2912Y11763D01*
X-2899Y11675D01*
X-2889Y11586D01*
X-2883Y11497D01*
X-2881Y11407D01*
X-2881Y10381D01*
X-2881Y18023D02*
X-12119Y18023D01*
X-12119Y20589D01*
X-12117Y20688D01*
X-12111Y20788D01*
X-12102Y20887D01*
X-12088Y20985D01*
X-12071Y21083D01*
X-12050Y21181D01*
X-12025Y21277D01*
X-11996Y21372D01*
X-11964Y21467D01*
X-11928Y21559D01*
X-11889Y21651D01*
X-11846Y21741D01*
X-11800Y21829D01*
X-11750Y21915D01*
X-11697Y21999D01*
X-11641Y22081D01*
X-11581Y22161D01*
X-11519Y22238D01*
X-11453Y22313D01*
X-11385Y22386D01*
X-11314Y22455D01*
X-11240Y22522D01*
X-11164Y22586D01*
X-11085Y22647D01*
X-11004Y22705D01*
X-10921Y22760D01*
X-10836Y22811D01*
X-10749Y22859D01*
X-10660Y22904D01*
X-10569Y22945D01*
X-10477Y22983D01*
X-10384Y23017D01*
X-10289Y23047D01*
X-10193Y23074D01*
X-10096Y23097D01*
X-9999Y23116D01*
X-9900Y23131D01*
X-9801Y23143D01*
X-9702Y23151D01*
X-9603Y23155D01*
X-9503Y23155D01*
X-9404Y23151D01*
X-9305Y23143D01*
X-9206Y23131D01*
X-9107Y23116D01*
X-9010Y23097D01*
X-8913Y23074D01*
X-8817Y23047D01*
X-8722Y23017D01*
X-8629Y22983D01*
X-8537Y22945D01*
X-8446Y22904D01*
X-8357Y22859D01*
X-8270Y22811D01*
X-8185Y22760D01*
X-8102Y22705D01*
X-8021Y22647D01*
X-7942Y22586D01*
X-7866Y22522D01*
X-7792Y22455D01*
X-7721Y22386D01*
X-7653Y22313D01*
X-7587Y22238D01*
X-7525Y22161D01*
X-7465Y22081D01*
X-7409Y21999D01*
X-7356Y21915D01*
X-7306Y21829D01*
X-7260Y21741D01*
X-7217Y21651D01*
X-7178Y21559D01*
X-7142Y21467D01*
X-7110Y21372D01*
X-7081Y21277D01*
X-7056Y21181D01*
X-7035Y21083D01*
X-7018Y20985D01*
X-7004Y20887D01*
X-6995Y20788D01*
X-6989Y20688D01*
X-6987Y20589D01*
X-6987Y18023D01*
X-12119Y29415D02*
X-12117Y29510D01*
X-12111Y29606D01*
X-12101Y29701D01*
X-12087Y29795D01*
X-12070Y29889D01*
X-12048Y29982D01*
X-12023Y30074D01*
X-11994Y30165D01*
X-11961Y30255D01*
X-11924Y30343D01*
X-11884Y30430D01*
X-11841Y30514D01*
X-11793Y30597D01*
X-11743Y30678D01*
X-11689Y30757D01*
X-11632Y30834D01*
X-11572Y30908D01*
X-11509Y30980D01*
X-11442Y31048D01*
X-11374Y31115D01*
X-11302Y31178D01*
X-11228Y31238D01*
X-11151Y31295D01*
X-11072Y31349D01*
X-10991Y31399D01*
X-10908Y31447D01*
X-10824Y31490D01*
X-10737Y31530D01*
X-10649Y31567D01*
X-10559Y31600D01*
X-10468Y31629D01*
X-10376Y31654D01*
X-10283Y31676D01*
X-10189Y31693D01*
X-10095Y31707D01*
X-10000Y31717D01*
X-9904Y31723D01*
X-9809Y31725D01*
X-12119Y29415D02*
X-12117Y29308D01*
X-12111Y29202D01*
X-12102Y29096D01*
X-12088Y28990D01*
X-12071Y28885D01*
X-12050Y28780D01*
X-12026Y28677D01*
X-11997Y28574D01*
X-11965Y28472D01*
X-11930Y28372D01*
X-11890Y28273D01*
X-11847Y28175D01*
X-11801Y28079D01*
X-11751Y27985D01*
X-11698Y27892D01*
X-11642Y27802D01*
X-11582Y27713D01*
X-11520Y27627D01*
X-11454Y27543D01*
X-11385Y27462D01*
X-11314Y27383D01*
X-11239Y27306D01*
X-11162Y27233D01*
X-11082Y27162D01*
X-11000Y27094D01*
X-10916Y27029D01*
X-10829Y26967D01*
X-10740Y26909D01*
X-10649Y26853D01*
X-10556Y26801D01*
X-10461Y26752D01*
X-10364Y26707D01*
X-10266Y26665D01*
X-10167Y26627D01*
X-10066Y26592D01*
X-8012Y30955D02*
X-8080Y31023D01*
X-8150Y31088D01*
X-8222Y31151D01*
X-8297Y31211D01*
X-8374Y31268D01*
X-8453Y31321D01*
X-8534Y31372D01*
X-8617Y31420D01*
X-8701Y31464D01*
X-8788Y31505D01*
X-8876Y31543D01*
X-8965Y31577D01*
X-9056Y31608D01*
X-9147Y31635D01*
X-9240Y31659D01*
X-9334Y31679D01*
X-9428Y31696D01*
X-9523Y31708D01*
X-9618Y31718D01*
X-9713Y31723D01*
X-9809Y31725D01*
X-8013Y30955D02*
X-2881Y26592D01*
X-2881Y31725D01*
X5381Y50381D02*
X5381Y59619D01*
X9487Y59619D01*
X9487Y55513D02*
X5381Y55513D01*
X12730Y56540D02*
X12730Y50381D01*
X12473Y59106D02*
X12473Y59619D01*
X12986Y59619D01*
X12986Y59106D01*
X12473Y59106D01*
X16499Y59619D02*
X16499Y51921D01*
X16501Y51845D01*
X16506Y51770D01*
X16516Y51695D01*
X16529Y51621D01*
X16545Y51547D01*
X16565Y51474D01*
X16589Y51402D01*
X16616Y51332D01*
X16647Y51263D01*
X16681Y51195D01*
X16718Y51129D01*
X16759Y51065D01*
X16802Y51004D01*
X16849Y50944D01*
X16898Y50887D01*
X16950Y50832D01*
X17005Y50780D01*
X17062Y50731D01*
X17122Y50684D01*
X17183Y50641D01*
X17247Y50600D01*
X17313Y50563D01*
X17381Y50529D01*
X17450Y50498D01*
X17520Y50471D01*
X17592Y50447D01*
X17665Y50427D01*
X17739Y50411D01*
X17813Y50398D01*
X17888Y50388D01*
X17963Y50383D01*
X18039Y50381D01*
X20419Y56540D02*
X23498Y56540D01*
X21445Y59619D02*
X21445Y51921D01*
X21447Y51845D01*
X21452Y51770D01*
X21462Y51695D01*
X21475Y51621D01*
X21491Y51547D01*
X21511Y51474D01*
X21535Y51402D01*
X21562Y51332D01*
X21593Y51263D01*
X21627Y51195D01*
X21664Y51129D01*
X21705Y51065D01*
X21748Y51004D01*
X21795Y50944D01*
X21844Y50887D01*
X21896Y50832D01*
X21951Y50780D01*
X22008Y50731D01*
X22068Y50684D01*
X22129Y50641D01*
X22193Y50600D01*
X22259Y50563D01*
X22327Y50529D01*
X22396Y50498D01*
X22466Y50471D01*
X22538Y50447D01*
X22611Y50427D01*
X22685Y50411D01*
X22759Y50398D01*
X22834Y50388D01*
X22909Y50383D01*
X22985Y50381D01*
X23498Y50381D01*
X28416Y50381D02*
X30983Y50381D01*
X28416Y50381D02*
X28340Y50383D01*
X28265Y50388D01*
X28190Y50398D01*
X28116Y50411D01*
X28042Y50427D01*
X27969Y50447D01*
X27897Y50471D01*
X27827Y50498D01*
X27758Y50529D01*
X27690Y50563D01*
X27624Y50600D01*
X27560Y50641D01*
X27499Y50684D01*
X27439Y50731D01*
X27382Y50780D01*
X27327Y50832D01*
X27275Y50887D01*
X27226Y50944D01*
X27179Y51004D01*
X27136Y51065D01*
X27095Y51129D01*
X27058Y51195D01*
X27024Y51263D01*
X26993Y51332D01*
X26966Y51402D01*
X26942Y51474D01*
X26922Y51547D01*
X26906Y51621D01*
X26893Y51695D01*
X26883Y51770D01*
X26878Y51845D01*
X26876Y51921D01*
X26877Y51921D02*
X26877Y54487D01*
X26879Y54577D01*
X26885Y54666D01*
X26895Y54755D01*
X26908Y54843D01*
X26926Y54931D01*
X26947Y55018D01*
X26972Y55104D01*
X27001Y55189D01*
X27033Y55273D01*
X27069Y55355D01*
X27109Y55435D01*
X27152Y55514D01*
X27199Y55590D01*
X27248Y55665D01*
X27301Y55737D01*
X27357Y55807D01*
X27416Y55874D01*
X27478Y55939D01*
X27543Y56001D01*
X27610Y56060D01*
X27680Y56116D01*
X27752Y56169D01*
X27827Y56218D01*
X27904Y56265D01*
X27982Y56308D01*
X28062Y56348D01*
X28144Y56384D01*
X28228Y56416D01*
X28313Y56445D01*
X28399Y56470D01*
X28486Y56491D01*
X28574Y56509D01*
X28662Y56522D01*
X28751Y56532D01*
X28840Y56538D01*
X28930Y56540D01*
X29020Y56538D01*
X29109Y56532D01*
X29198Y56522D01*
X29286Y56509D01*
X29374Y56491D01*
X29461Y56470D01*
X29547Y56445D01*
X29632Y56416D01*
X29716Y56384D01*
X29798Y56348D01*
X29878Y56308D01*
X29957Y56265D01*
X30033Y56218D01*
X30108Y56169D01*
X30180Y56116D01*
X30250Y56060D01*
X30317Y56001D01*
X30382Y55939D01*
X30444Y55874D01*
X30503Y55807D01*
X30559Y55737D01*
X30612Y55665D01*
X30661Y55590D01*
X30708Y55514D01*
X30751Y55435D01*
X30791Y55355D01*
X30827Y55273D01*
X30859Y55189D01*
X30888Y55104D01*
X30913Y55018D01*
X30934Y54931D01*
X30952Y54843D01*
X30965Y54755D01*
X30975Y54666D01*
X30981Y54577D01*
X30983Y54487D01*
X30983Y53460D01*
X26877Y53460D01*
X35028Y50381D02*
X35028Y56540D01*
X38107Y56540D01*
X38107Y55513D01*
X46273Y58079D02*
X46273Y50381D01*
X46272Y58079D02*
X46274Y58157D01*
X46280Y58235D01*
X46290Y58312D01*
X46304Y58389D01*
X46321Y58465D01*
X46343Y58540D01*
X46368Y58614D01*
X46397Y58686D01*
X46429Y58757D01*
X46466Y58826D01*
X46505Y58894D01*
X46548Y58959D01*
X46594Y59022D01*
X46644Y59082D01*
X46696Y59140D01*
X46751Y59195D01*
X46809Y59247D01*
X46869Y59297D01*
X46932Y59343D01*
X46997Y59386D01*
X47065Y59425D01*
X47134Y59462D01*
X47205Y59494D01*
X47277Y59523D01*
X47351Y59548D01*
X47426Y59570D01*
X47502Y59587D01*
X47579Y59601D01*
X47656Y59611D01*
X47734Y59617D01*
X47812Y59619D01*
X48325Y59619D01*
X48325Y56540D02*
X45246Y56540D01*
X52628Y53974D02*
X54937Y53974D01*
X52628Y53973D02*
X52545Y53971D01*
X52462Y53965D01*
X52380Y53956D01*
X52298Y53942D01*
X52217Y53925D01*
X52137Y53904D01*
X52057Y53880D01*
X51979Y53852D01*
X51903Y53820D01*
X51827Y53785D01*
X51754Y53746D01*
X51683Y53704D01*
X51613Y53659D01*
X51546Y53610D01*
X51481Y53559D01*
X51418Y53504D01*
X51358Y53447D01*
X51301Y53387D01*
X51246Y53324D01*
X51195Y53259D01*
X51146Y53192D01*
X51101Y53122D01*
X51059Y53051D01*
X51020Y52978D01*
X50985Y52902D01*
X50953Y52826D01*
X50925Y52748D01*
X50901Y52668D01*
X50880Y52588D01*
X50863Y52507D01*
X50849Y52425D01*
X50840Y52343D01*
X50834Y52260D01*
X50832Y52177D01*
X50834Y52094D01*
X50840Y52011D01*
X50849Y51929D01*
X50863Y51847D01*
X50880Y51766D01*
X50901Y51686D01*
X50925Y51606D01*
X50953Y51528D01*
X50985Y51452D01*
X51020Y51376D01*
X51059Y51303D01*
X51101Y51232D01*
X51146Y51162D01*
X51195Y51095D01*
X51246Y51030D01*
X51301Y50967D01*
X51358Y50907D01*
X51418Y50850D01*
X51481Y50795D01*
X51546Y50744D01*
X51613Y50695D01*
X51683Y50650D01*
X51754Y50608D01*
X51827Y50569D01*
X51903Y50534D01*
X51979Y50502D01*
X52057Y50474D01*
X52137Y50450D01*
X52217Y50429D01*
X52298Y50412D01*
X52380Y50398D01*
X52462Y50389D01*
X52545Y50383D01*
X52628Y50381D01*
X54937Y50381D01*
X54937Y55000D01*
X54938Y55000D02*
X54936Y55076D01*
X54931Y55151D01*
X54921Y55226D01*
X54908Y55300D01*
X54892Y55374D01*
X54872Y55447D01*
X54848Y55519D01*
X54821Y55589D01*
X54790Y55658D01*
X54756Y55726D01*
X54719Y55792D01*
X54678Y55856D01*
X54635Y55917D01*
X54588Y55977D01*
X54539Y56034D01*
X54487Y56089D01*
X54432Y56141D01*
X54375Y56190D01*
X54315Y56237D01*
X54254Y56280D01*
X54190Y56321D01*
X54124Y56358D01*
X54056Y56392D01*
X53987Y56423D01*
X53917Y56450D01*
X53845Y56474D01*
X53772Y56494D01*
X53698Y56510D01*
X53624Y56523D01*
X53549Y56533D01*
X53474Y56538D01*
X53398Y56540D01*
X51345Y56540D01*
X59277Y56540D02*
X59277Y50381D01*
X59277Y56540D02*
X61843Y56540D01*
X61919Y56538D01*
X61994Y56533D01*
X62069Y56523D01*
X62143Y56510D01*
X62217Y56494D01*
X62290Y56474D01*
X62362Y56450D01*
X62432Y56423D01*
X62501Y56392D01*
X62569Y56358D01*
X62635Y56321D01*
X62699Y56280D01*
X62760Y56237D01*
X62820Y56190D01*
X62877Y56141D01*
X62932Y56089D01*
X62984Y56034D01*
X63033Y55977D01*
X63080Y55917D01*
X63123Y55856D01*
X63164Y55792D01*
X63201Y55726D01*
X63235Y55658D01*
X63266Y55589D01*
X63293Y55519D01*
X63317Y55447D01*
X63337Y55374D01*
X63353Y55300D01*
X63366Y55226D01*
X63376Y55151D01*
X63381Y55076D01*
X63383Y55000D01*
X63382Y55000D02*
X63382Y50381D01*
X66903Y61415D02*
X68956Y62955D01*
X72946Y53974D02*
X75513Y52947D01*
X72947Y53973D02*
X72880Y54002D01*
X72815Y54034D01*
X72752Y54070D01*
X72691Y54109D01*
X72633Y54152D01*
X72576Y54197D01*
X72523Y54246D01*
X72472Y54297D01*
X72423Y54351D01*
X72378Y54408D01*
X72336Y54467D01*
X72298Y54528D01*
X72262Y54591D01*
X72230Y54656D01*
X72202Y54723D01*
X72177Y54791D01*
X72157Y54860D01*
X72139Y54931D01*
X72126Y55002D01*
X72117Y55074D01*
X72112Y55146D01*
X72110Y55218D01*
X72113Y55291D01*
X72119Y55363D01*
X72129Y55434D01*
X72143Y55505D01*
X72161Y55576D01*
X72183Y55645D01*
X72209Y55712D01*
X72238Y55779D01*
X72271Y55843D01*
X72307Y55906D01*
X72347Y55967D01*
X72389Y56025D01*
X72435Y56081D01*
X72484Y56134D01*
X72536Y56185D01*
X72591Y56233D01*
X72647Y56278D01*
X72707Y56319D01*
X72768Y56357D01*
X72832Y56392D01*
X72897Y56424D01*
X72964Y56452D01*
X73032Y56476D01*
X73102Y56496D01*
X73172Y56513D01*
X73243Y56525D01*
X73315Y56534D01*
X73388Y56539D01*
X73460Y56540D01*
X73459Y56539D02*
X73608Y56535D01*
X73757Y56528D01*
X73905Y56516D01*
X74053Y56501D01*
X74201Y56481D01*
X74348Y56458D01*
X74495Y56432D01*
X74640Y56401D01*
X74785Y56367D01*
X74929Y56329D01*
X75072Y56288D01*
X75214Y56243D01*
X75355Y56194D01*
X75494Y56141D01*
X75632Y56086D01*
X75769Y56026D01*
X75512Y52948D02*
X75579Y52919D01*
X75644Y52887D01*
X75707Y52851D01*
X75768Y52812D01*
X75826Y52769D01*
X75883Y52724D01*
X75936Y52675D01*
X75987Y52624D01*
X76036Y52570D01*
X76081Y52513D01*
X76123Y52454D01*
X76161Y52393D01*
X76197Y52330D01*
X76229Y52265D01*
X76257Y52198D01*
X76282Y52130D01*
X76302Y52061D01*
X76320Y51990D01*
X76333Y51919D01*
X76342Y51847D01*
X76347Y51775D01*
X76349Y51703D01*
X76346Y51630D01*
X76340Y51558D01*
X76330Y51487D01*
X76316Y51416D01*
X76298Y51345D01*
X76276Y51276D01*
X76250Y51209D01*
X76221Y51142D01*
X76188Y51078D01*
X76152Y51015D01*
X76112Y50954D01*
X76070Y50896D01*
X76024Y50840D01*
X75975Y50787D01*
X75923Y50736D01*
X75868Y50688D01*
X75812Y50643D01*
X75752Y50602D01*
X75691Y50564D01*
X75627Y50529D01*
X75562Y50497D01*
X75495Y50469D01*
X75427Y50445D01*
X75357Y50425D01*
X75287Y50408D01*
X75216Y50396D01*
X75144Y50387D01*
X75071Y50382D01*
X74999Y50381D01*
X75000Y50381D02*
X74794Y50386D01*
X74588Y50397D01*
X74383Y50412D01*
X74178Y50432D01*
X73974Y50456D01*
X73770Y50486D01*
X73567Y50520D01*
X73365Y50560D01*
X73164Y50604D01*
X72964Y50652D01*
X72765Y50706D01*
X72567Y50764D01*
X72371Y50827D01*
X72177Y50894D01*
D10*
X199000Y-22750D02*
X199000Y-47300D01*
X199000Y-72700D01*
X199000Y-97250D01*
X137700Y-97250D01*
X137700Y-22750D01*
X199000Y-22750D01*
X199000Y-47300D02*
X175800Y-47300D01*
X175800Y-72700D01*
X199000Y-72700D01*
D11*
X126540Y-25381D02*
X120381Y-34619D01*
X126540Y-34619D02*
X120381Y-25381D01*
X129894Y-27434D02*
X132460Y-25381D01*
X132460Y-34619D01*
X129894Y-34619D02*
X135026Y-34619D01*
D10*
X-199000Y-72700D02*
X-199000Y-97250D01*
X-199000Y-72700D02*
X-199000Y-47300D01*
X-199000Y-22750D01*
X-137700Y-22750D01*
X-137700Y-97250D01*
X-199000Y-97250D01*
X-199000Y-72700D02*
X-175800Y-72700D01*
X-175800Y-47300D01*
X-199000Y-47300D01*
D11*
X-172119Y-17119D02*
X-165960Y-7881D01*
X-172119Y-7881D02*
X-165960Y-17119D01*
X-157473Y-10191D02*
X-157475Y-10096D01*
X-157481Y-10000D01*
X-157491Y-9905D01*
X-157505Y-9811D01*
X-157522Y-9717D01*
X-157544Y-9624D01*
X-157569Y-9532D01*
X-157598Y-9441D01*
X-157631Y-9351D01*
X-157668Y-9263D01*
X-157708Y-9176D01*
X-157751Y-9092D01*
X-157799Y-9009D01*
X-157849Y-8928D01*
X-157903Y-8849D01*
X-157960Y-8772D01*
X-158020Y-8698D01*
X-158083Y-8627D01*
X-158150Y-8558D01*
X-158218Y-8492D01*
X-158290Y-8428D01*
X-158364Y-8368D01*
X-158441Y-8311D01*
X-158520Y-8257D01*
X-158601Y-8207D01*
X-158684Y-8159D01*
X-158768Y-8116D01*
X-158855Y-8076D01*
X-158943Y-8039D01*
X-159033Y-8006D01*
X-159124Y-7977D01*
X-159216Y-7952D01*
X-159309Y-7930D01*
X-159403Y-7913D01*
X-159497Y-7899D01*
X-159592Y-7889D01*
X-159687Y-7883D01*
X-159783Y-7881D01*
X-159889Y-7883D01*
X-159996Y-7889D01*
X-160102Y-7898D01*
X-160208Y-7912D01*
X-160313Y-7929D01*
X-160418Y-7950D01*
X-160521Y-7974D01*
X-160624Y-8003D01*
X-160726Y-8035D01*
X-160826Y-8070D01*
X-160925Y-8110D01*
X-161023Y-8153D01*
X-161119Y-8199D01*
X-161213Y-8249D01*
X-161306Y-8302D01*
X-161396Y-8358D01*
X-161485Y-8418D01*
X-161571Y-8480D01*
X-161655Y-8546D01*
X-161736Y-8615D01*
X-161815Y-8686D01*
X-161892Y-8761D01*
X-161965Y-8838D01*
X-162036Y-8918D01*
X-162104Y-9000D01*
X-162169Y-9084D01*
X-162231Y-9171D01*
X-162289Y-9260D01*
X-162345Y-9351D01*
X-162397Y-9444D01*
X-162446Y-9539D01*
X-162491Y-9636D01*
X-162533Y-9734D01*
X-162571Y-9833D01*
X-162606Y-9934D01*
X-158244Y-11987D02*
X-158176Y-11920D01*
X-158110Y-11850D01*
X-158048Y-11777D01*
X-157988Y-11703D01*
X-157931Y-11626D01*
X-157877Y-11547D01*
X-157827Y-11466D01*
X-157779Y-11383D01*
X-157735Y-11298D01*
X-157694Y-11212D01*
X-157656Y-11124D01*
X-157622Y-11035D01*
X-157591Y-10944D01*
X-157564Y-10852D01*
X-157540Y-10760D01*
X-157520Y-10666D01*
X-157503Y-10572D01*
X-157491Y-10477D01*
X-157481Y-10382D01*
X-157476Y-10287D01*
X-157474Y-10191D01*
X-158243Y-11987D02*
X-162606Y-17119D01*
X-157474Y-17119D01*
D10*
X37000Y-149000D02*
X62000Y-149000D01*
X30000Y-149000D02*
X-30000Y-149000D01*
X-37000Y-149000D02*
X-62000Y-149000D01*
X-62000Y-87700D01*
X62000Y-87700D01*
X62000Y-149000D01*
X37000Y-149000D02*
X37000Y-121000D01*
X30000Y-121000D01*
X30000Y-149000D01*
X-37000Y-149000D02*
X-37000Y-121000D01*
X-30000Y-121000D01*
X-30000Y-149000D01*
D11*
X-65019Y-79219D02*
X-58860Y-69981D01*
X-65019Y-69981D02*
X-58860Y-79219D01*
X-55506Y-79219D02*
X-52427Y-79219D01*
X-52337Y-79217D01*
X-52248Y-79211D01*
X-52159Y-79201D01*
X-52071Y-79188D01*
X-51983Y-79170D01*
X-51896Y-79149D01*
X-51810Y-79124D01*
X-51725Y-79095D01*
X-51641Y-79063D01*
X-51559Y-79027D01*
X-51479Y-78987D01*
X-51401Y-78944D01*
X-51324Y-78897D01*
X-51249Y-78848D01*
X-51177Y-78795D01*
X-51107Y-78739D01*
X-51040Y-78680D01*
X-50975Y-78618D01*
X-50913Y-78553D01*
X-50854Y-78486D01*
X-50798Y-78416D01*
X-50745Y-78344D01*
X-50696Y-78269D01*
X-50649Y-78193D01*
X-50606Y-78114D01*
X-50566Y-78034D01*
X-50530Y-77952D01*
X-50498Y-77868D01*
X-50469Y-77783D01*
X-50444Y-77697D01*
X-50423Y-77610D01*
X-50405Y-77523D01*
X-50392Y-77434D01*
X-50382Y-77345D01*
X-50376Y-77256D01*
X-50374Y-77166D01*
X-50374Y-76140D01*
X-50376Y-76050D01*
X-50382Y-75961D01*
X-50392Y-75872D01*
X-50405Y-75784D01*
X-50423Y-75696D01*
X-50444Y-75609D01*
X-50469Y-75523D01*
X-50498Y-75438D01*
X-50530Y-75354D01*
X-50566Y-75272D01*
X-50606Y-75192D01*
X-50649Y-75114D01*
X-50696Y-75037D01*
X-50745Y-74962D01*
X-50798Y-74890D01*
X-50854Y-74820D01*
X-50913Y-74753D01*
X-50975Y-74688D01*
X-51040Y-74626D01*
X-51107Y-74567D01*
X-51177Y-74511D01*
X-51249Y-74458D01*
X-51324Y-74409D01*
X-51401Y-74362D01*
X-51479Y-74319D01*
X-51559Y-74279D01*
X-51641Y-74243D01*
X-51725Y-74211D01*
X-51810Y-74182D01*
X-51896Y-74157D01*
X-51983Y-74136D01*
X-52071Y-74118D01*
X-52159Y-74105D01*
X-52248Y-74095D01*
X-52337Y-74089D01*
X-52427Y-74087D01*
X-55506Y-74087D01*
X-55506Y-69981D01*
X-50374Y-69981D01*
D14*
X-35250Y87500D02*
X-32500Y87500D01*
X-32500Y122500D01*
X-46950Y122500D01*
X-94750Y87500D02*
X-97500Y87500D01*
X-97500Y122500D01*
X-83050Y122500D01*
D15*
X-90000Y60000D02*
X-89998Y60063D01*
X-89992Y60125D01*
X-89982Y60187D01*
X-89969Y60249D01*
X-89951Y60309D01*
X-89930Y60368D01*
X-89905Y60426D01*
X-89876Y60482D01*
X-89844Y60536D01*
X-89809Y60588D01*
X-89771Y60637D01*
X-89729Y60685D01*
X-89685Y60729D01*
X-89637Y60771D01*
X-89588Y60809D01*
X-89536Y60844D01*
X-89482Y60876D01*
X-89426Y60905D01*
X-89368Y60930D01*
X-89309Y60951D01*
X-89249Y60969D01*
X-89187Y60982D01*
X-89125Y60992D01*
X-89063Y60998D01*
X-89000Y61000D01*
X-88937Y60998D01*
X-88875Y60992D01*
X-88813Y60982D01*
X-88751Y60969D01*
X-88691Y60951D01*
X-88632Y60930D01*
X-88574Y60905D01*
X-88518Y60876D01*
X-88464Y60844D01*
X-88412Y60809D01*
X-88363Y60771D01*
X-88315Y60729D01*
X-88271Y60685D01*
X-88229Y60637D01*
X-88191Y60588D01*
X-88156Y60536D01*
X-88124Y60482D01*
X-88095Y60426D01*
X-88070Y60368D01*
X-88049Y60309D01*
X-88031Y60249D01*
X-88018Y60187D01*
X-88008Y60125D01*
X-88002Y60063D01*
X-88000Y60000D01*
X-88002Y59937D01*
X-88008Y59875D01*
X-88018Y59813D01*
X-88031Y59751D01*
X-88049Y59691D01*
X-88070Y59632D01*
X-88095Y59574D01*
X-88124Y59518D01*
X-88156Y59464D01*
X-88191Y59412D01*
X-88229Y59363D01*
X-88271Y59315D01*
X-88315Y59271D01*
X-88363Y59229D01*
X-88412Y59191D01*
X-88464Y59156D01*
X-88518Y59124D01*
X-88574Y59095D01*
X-88632Y59070D01*
X-88691Y59049D01*
X-88751Y59031D01*
X-88813Y59018D01*
X-88875Y59008D01*
X-88937Y59002D01*
X-89000Y59000D01*
X-89063Y59002D01*
X-89125Y59008D01*
X-89187Y59018D01*
X-89249Y59031D01*
X-89309Y59049D01*
X-89368Y59070D01*
X-89426Y59095D01*
X-89482Y59124D01*
X-89536Y59156D01*
X-89588Y59191D01*
X-89637Y59229D01*
X-89685Y59271D01*
X-89729Y59315D01*
X-89771Y59363D01*
X-89809Y59412D01*
X-89844Y59464D01*
X-89876Y59518D01*
X-89905Y59574D01*
X-89930Y59632D01*
X-89951Y59691D01*
X-89969Y59751D01*
X-89982Y59813D01*
X-89992Y59875D01*
X-89998Y59937D01*
X-90000Y60000D01*
D11*
X-39619Y137947D02*
X-39619Y144619D01*
X-39619Y137947D02*
X-39617Y137848D01*
X-39611Y137748D01*
X-39602Y137649D01*
X-39588Y137551D01*
X-39571Y137453D01*
X-39550Y137355D01*
X-39525Y137259D01*
X-39496Y137164D01*
X-39464Y137069D01*
X-39428Y136977D01*
X-39389Y136885D01*
X-39346Y136795D01*
X-39300Y136707D01*
X-39250Y136621D01*
X-39197Y136537D01*
X-39141Y136455D01*
X-39081Y136375D01*
X-39019Y136298D01*
X-38953Y136223D01*
X-38885Y136150D01*
X-38814Y136081D01*
X-38740Y136014D01*
X-38664Y135950D01*
X-38585Y135889D01*
X-38504Y135831D01*
X-38421Y135776D01*
X-38336Y135725D01*
X-38249Y135677D01*
X-38160Y135632D01*
X-38069Y135591D01*
X-37977Y135553D01*
X-37884Y135519D01*
X-37789Y135489D01*
X-37693Y135462D01*
X-37596Y135439D01*
X-37499Y135420D01*
X-37400Y135405D01*
X-37301Y135393D01*
X-37202Y135385D01*
X-37103Y135381D01*
X-37003Y135381D01*
X-36904Y135385D01*
X-36805Y135393D01*
X-36706Y135405D01*
X-36607Y135420D01*
X-36510Y135439D01*
X-36413Y135462D01*
X-36317Y135489D01*
X-36222Y135519D01*
X-36129Y135553D01*
X-36037Y135591D01*
X-35946Y135632D01*
X-35857Y135677D01*
X-35770Y135725D01*
X-35685Y135776D01*
X-35602Y135831D01*
X-35521Y135889D01*
X-35442Y135950D01*
X-35366Y136014D01*
X-35292Y136081D01*
X-35221Y136150D01*
X-35153Y136223D01*
X-35087Y136298D01*
X-35025Y136375D01*
X-34965Y136455D01*
X-34909Y136537D01*
X-34856Y136621D01*
X-34806Y136707D01*
X-34760Y136795D01*
X-34717Y136885D01*
X-34678Y136977D01*
X-34642Y137069D01*
X-34610Y137164D01*
X-34581Y137259D01*
X-34556Y137355D01*
X-34535Y137453D01*
X-34518Y137551D01*
X-34504Y137649D01*
X-34495Y137748D01*
X-34489Y137848D01*
X-34487Y137947D01*
X-34487Y144619D01*
X-30319Y142566D02*
X-27753Y144619D01*
X-27753Y135381D01*
X-30319Y135381D02*
X-25187Y135381D01*
X-17566Y135381D02*
X-15513Y135381D01*
X-17566Y135381D02*
X-17656Y135383D01*
X-17745Y135389D01*
X-17834Y135399D01*
X-17922Y135412D01*
X-18010Y135430D01*
X-18097Y135451D01*
X-18183Y135476D01*
X-18268Y135505D01*
X-18352Y135537D01*
X-18434Y135573D01*
X-18514Y135613D01*
X-18593Y135656D01*
X-18669Y135703D01*
X-18744Y135752D01*
X-18816Y135805D01*
X-18886Y135861D01*
X-18953Y135920D01*
X-19018Y135982D01*
X-19080Y136047D01*
X-19139Y136114D01*
X-19195Y136184D01*
X-19248Y136256D01*
X-19297Y136331D01*
X-19344Y136408D01*
X-19387Y136486D01*
X-19427Y136566D01*
X-19463Y136648D01*
X-19495Y136732D01*
X-19524Y136817D01*
X-19549Y136903D01*
X-19570Y136990D01*
X-19588Y137078D01*
X-19601Y137166D01*
X-19611Y137255D01*
X-19617Y137344D01*
X-19619Y137434D01*
X-19619Y142566D01*
X-19617Y142656D01*
X-19611Y142745D01*
X-19601Y142834D01*
X-19588Y142922D01*
X-19570Y143010D01*
X-19549Y143097D01*
X-19524Y143183D01*
X-19495Y143268D01*
X-19463Y143352D01*
X-19427Y143434D01*
X-19387Y143514D01*
X-19344Y143593D01*
X-19297Y143669D01*
X-19248Y143744D01*
X-19195Y143816D01*
X-19139Y143886D01*
X-19080Y143953D01*
X-19018Y144018D01*
X-18953Y144080D01*
X-18886Y144139D01*
X-18816Y144195D01*
X-18744Y144248D01*
X-18669Y144297D01*
X-18593Y144344D01*
X-18514Y144387D01*
X-18434Y144427D01*
X-18352Y144463D01*
X-18268Y144495D01*
X-18183Y144524D01*
X-18097Y144549D01*
X-18010Y144570D01*
X-17922Y144588D01*
X-17834Y144601D01*
X-17745Y144611D01*
X-17656Y144617D01*
X-17566Y144619D01*
X-15513Y144619D01*
X-12094Y142566D02*
X-9527Y144619D01*
X-9527Y135381D01*
X-6961Y135381D02*
X-12094Y135381D01*
X-115513Y132881D02*
X-117566Y132881D01*
X-117656Y132883D01*
X-117745Y132889D01*
X-117834Y132899D01*
X-117922Y132912D01*
X-118010Y132930D01*
X-118097Y132951D01*
X-118183Y132976D01*
X-118268Y133005D01*
X-118352Y133037D01*
X-118434Y133073D01*
X-118514Y133113D01*
X-118593Y133156D01*
X-118669Y133203D01*
X-118744Y133252D01*
X-118816Y133305D01*
X-118886Y133361D01*
X-118953Y133420D01*
X-119018Y133482D01*
X-119080Y133547D01*
X-119139Y133614D01*
X-119195Y133684D01*
X-119248Y133756D01*
X-119297Y133831D01*
X-119344Y133908D01*
X-119387Y133986D01*
X-119427Y134066D01*
X-119463Y134148D01*
X-119495Y134232D01*
X-119524Y134317D01*
X-119549Y134403D01*
X-119570Y134490D01*
X-119588Y134578D01*
X-119601Y134666D01*
X-119611Y134755D01*
X-119617Y134844D01*
X-119619Y134934D01*
X-119619Y140066D01*
X-119617Y140156D01*
X-119611Y140245D01*
X-119601Y140334D01*
X-119588Y140422D01*
X-119570Y140510D01*
X-119549Y140597D01*
X-119524Y140683D01*
X-119495Y140768D01*
X-119463Y140852D01*
X-119427Y140934D01*
X-119387Y141014D01*
X-119344Y141093D01*
X-119297Y141169D01*
X-119248Y141244D01*
X-119195Y141316D01*
X-119139Y141386D01*
X-119080Y141453D01*
X-119018Y141518D01*
X-118953Y141580D01*
X-118886Y141639D01*
X-118816Y141695D01*
X-118744Y141748D01*
X-118669Y141797D01*
X-118593Y141844D01*
X-118514Y141887D01*
X-118434Y141927D01*
X-118352Y141963D01*
X-118268Y141995D01*
X-118183Y142024D01*
X-118097Y142049D01*
X-118010Y142070D01*
X-117922Y142088D01*
X-117834Y142101D01*
X-117745Y142111D01*
X-117656Y142117D01*
X-117566Y142119D01*
X-115513Y142119D01*
X-112094Y132881D02*
X-109527Y132881D01*
X-109428Y132883D01*
X-109328Y132889D01*
X-109229Y132898D01*
X-109131Y132912D01*
X-109033Y132929D01*
X-108935Y132950D01*
X-108839Y132975D01*
X-108744Y133004D01*
X-108649Y133036D01*
X-108557Y133072D01*
X-108465Y133111D01*
X-108375Y133154D01*
X-108287Y133200D01*
X-108201Y133250D01*
X-108117Y133303D01*
X-108035Y133359D01*
X-107955Y133419D01*
X-107878Y133481D01*
X-107803Y133547D01*
X-107730Y133615D01*
X-107661Y133686D01*
X-107594Y133760D01*
X-107530Y133836D01*
X-107469Y133915D01*
X-107411Y133996D01*
X-107356Y134079D01*
X-107305Y134164D01*
X-107257Y134251D01*
X-107212Y134340D01*
X-107171Y134431D01*
X-107133Y134523D01*
X-107099Y134616D01*
X-107069Y134711D01*
X-107042Y134807D01*
X-107019Y134904D01*
X-107000Y135001D01*
X-106985Y135100D01*
X-106973Y135199D01*
X-106965Y135298D01*
X-106961Y135397D01*
X-106961Y135497D01*
X-106965Y135596D01*
X-106973Y135695D01*
X-106985Y135794D01*
X-107000Y135893D01*
X-107019Y135990D01*
X-107042Y136087D01*
X-107069Y136183D01*
X-107099Y136278D01*
X-107133Y136371D01*
X-107171Y136463D01*
X-107212Y136554D01*
X-107257Y136643D01*
X-107305Y136730D01*
X-107356Y136815D01*
X-107411Y136898D01*
X-107469Y136979D01*
X-107530Y137058D01*
X-107594Y137134D01*
X-107661Y137208D01*
X-107730Y137279D01*
X-107803Y137347D01*
X-107878Y137413D01*
X-107955Y137475D01*
X-108035Y137535D01*
X-108117Y137591D01*
X-108201Y137644D01*
X-108287Y137694D01*
X-108375Y137740D01*
X-108465Y137783D01*
X-108557Y137822D01*
X-108649Y137858D01*
X-108744Y137890D01*
X-108839Y137919D01*
X-108935Y137944D01*
X-109033Y137965D01*
X-109131Y137982D01*
X-109229Y137996D01*
X-109328Y138005D01*
X-109428Y138011D01*
X-109527Y138013D01*
X-109014Y142119D02*
X-112094Y142119D01*
X-109014Y142119D02*
X-108924Y142117D01*
X-108835Y142111D01*
X-108746Y142101D01*
X-108658Y142088D01*
X-108570Y142070D01*
X-108483Y142049D01*
X-108397Y142024D01*
X-108312Y141995D01*
X-108228Y141963D01*
X-108146Y141927D01*
X-108066Y141887D01*
X-107988Y141844D01*
X-107911Y141797D01*
X-107836Y141748D01*
X-107764Y141695D01*
X-107694Y141639D01*
X-107627Y141580D01*
X-107562Y141518D01*
X-107500Y141453D01*
X-107441Y141386D01*
X-107385Y141316D01*
X-107332Y141244D01*
X-107283Y141169D01*
X-107236Y141093D01*
X-107193Y141014D01*
X-107153Y140934D01*
X-107117Y140852D01*
X-107085Y140768D01*
X-107056Y140683D01*
X-107031Y140597D01*
X-107010Y140510D01*
X-106992Y140422D01*
X-106979Y140334D01*
X-106969Y140245D01*
X-106963Y140156D01*
X-106961Y140066D01*
X-106963Y139976D01*
X-106969Y139887D01*
X-106979Y139798D01*
X-106992Y139710D01*
X-107010Y139622D01*
X-107031Y139535D01*
X-107056Y139449D01*
X-107085Y139364D01*
X-107117Y139280D01*
X-107153Y139198D01*
X-107193Y139118D01*
X-107236Y139040D01*
X-107283Y138963D01*
X-107332Y138888D01*
X-107385Y138816D01*
X-107441Y138746D01*
X-107500Y138679D01*
X-107562Y138614D01*
X-107627Y138552D01*
X-107694Y138493D01*
X-107764Y138437D01*
X-107836Y138384D01*
X-107911Y138335D01*
X-107988Y138288D01*
X-108066Y138245D01*
X-108146Y138205D01*
X-108228Y138169D01*
X-108312Y138137D01*
X-108397Y138108D01*
X-108483Y138083D01*
X-108570Y138062D01*
X-108658Y138044D01*
X-108746Y138031D01*
X-108835Y138021D01*
X-108924Y138015D01*
X-109014Y138013D01*
X-111067Y138013D01*
D14*
X94750Y87500D02*
X97500Y87500D01*
X97500Y122500D01*
X83050Y122500D01*
X35250Y87500D02*
X32500Y87500D01*
X32500Y122500D01*
X46950Y122500D01*
D15*
X40000Y60000D02*
X40002Y60063D01*
X40008Y60125D01*
X40018Y60187D01*
X40031Y60249D01*
X40049Y60309D01*
X40070Y60368D01*
X40095Y60426D01*
X40124Y60482D01*
X40156Y60536D01*
X40191Y60588D01*
X40229Y60637D01*
X40271Y60685D01*
X40315Y60729D01*
X40363Y60771D01*
X40412Y60809D01*
X40464Y60844D01*
X40518Y60876D01*
X40574Y60905D01*
X40632Y60930D01*
X40691Y60951D01*
X40751Y60969D01*
X40813Y60982D01*
X40875Y60992D01*
X40937Y60998D01*
X41000Y61000D01*
X41063Y60998D01*
X41125Y60992D01*
X41187Y60982D01*
X41249Y60969D01*
X41309Y60951D01*
X41368Y60930D01*
X41426Y60905D01*
X41482Y60876D01*
X41536Y60844D01*
X41588Y60809D01*
X41637Y60771D01*
X41685Y60729D01*
X41729Y60685D01*
X41771Y60637D01*
X41809Y60588D01*
X41844Y60536D01*
X41876Y60482D01*
X41905Y60426D01*
X41930Y60368D01*
X41951Y60309D01*
X41969Y60249D01*
X41982Y60187D01*
X41992Y60125D01*
X41998Y60063D01*
X42000Y60000D01*
X41998Y59937D01*
X41992Y59875D01*
X41982Y59813D01*
X41969Y59751D01*
X41951Y59691D01*
X41930Y59632D01*
X41905Y59574D01*
X41876Y59518D01*
X41844Y59464D01*
X41809Y59412D01*
X41771Y59363D01*
X41729Y59315D01*
X41685Y59271D01*
X41637Y59229D01*
X41588Y59191D01*
X41536Y59156D01*
X41482Y59124D01*
X41426Y59095D01*
X41368Y59070D01*
X41309Y59049D01*
X41249Y59031D01*
X41187Y59018D01*
X41125Y59008D01*
X41063Y59002D01*
X41000Y59000D01*
X40937Y59002D01*
X40875Y59008D01*
X40813Y59018D01*
X40751Y59031D01*
X40691Y59049D01*
X40632Y59070D01*
X40574Y59095D01*
X40518Y59124D01*
X40464Y59156D01*
X40412Y59191D01*
X40363Y59229D01*
X40315Y59271D01*
X40271Y59315D01*
X40229Y59363D01*
X40191Y59412D01*
X40156Y59464D01*
X40124Y59518D01*
X40095Y59574D01*
X40070Y59632D01*
X40049Y59691D01*
X40031Y59751D01*
X40018Y59813D01*
X40008Y59875D01*
X40002Y59937D01*
X40000Y60000D01*
D11*
X90381Y137947D02*
X90381Y144619D01*
X90381Y137947D02*
X90383Y137848D01*
X90389Y137748D01*
X90398Y137649D01*
X90412Y137551D01*
X90429Y137453D01*
X90450Y137355D01*
X90475Y137259D01*
X90504Y137164D01*
X90536Y137069D01*
X90572Y136977D01*
X90611Y136885D01*
X90654Y136795D01*
X90700Y136707D01*
X90750Y136621D01*
X90803Y136537D01*
X90859Y136455D01*
X90919Y136375D01*
X90981Y136298D01*
X91047Y136223D01*
X91115Y136150D01*
X91186Y136081D01*
X91260Y136014D01*
X91336Y135950D01*
X91415Y135889D01*
X91496Y135831D01*
X91579Y135776D01*
X91664Y135725D01*
X91751Y135677D01*
X91840Y135632D01*
X91931Y135591D01*
X92023Y135553D01*
X92116Y135519D01*
X92211Y135489D01*
X92307Y135462D01*
X92404Y135439D01*
X92501Y135420D01*
X92600Y135405D01*
X92699Y135393D01*
X92798Y135385D01*
X92897Y135381D01*
X92997Y135381D01*
X93096Y135385D01*
X93195Y135393D01*
X93294Y135405D01*
X93393Y135420D01*
X93490Y135439D01*
X93587Y135462D01*
X93683Y135489D01*
X93778Y135519D01*
X93871Y135553D01*
X93963Y135591D01*
X94054Y135632D01*
X94143Y135677D01*
X94230Y135725D01*
X94315Y135776D01*
X94398Y135831D01*
X94479Y135889D01*
X94558Y135950D01*
X94634Y136014D01*
X94708Y136081D01*
X94779Y136150D01*
X94847Y136223D01*
X94913Y136298D01*
X94975Y136375D01*
X95035Y136455D01*
X95091Y136537D01*
X95144Y136621D01*
X95194Y136707D01*
X95240Y136795D01*
X95283Y136885D01*
X95322Y136977D01*
X95358Y137069D01*
X95390Y137164D01*
X95419Y137259D01*
X95444Y137355D01*
X95465Y137453D01*
X95482Y137551D01*
X95496Y137649D01*
X95505Y137748D01*
X95511Y137848D01*
X95513Y137947D01*
X95513Y144619D01*
X102504Y144619D02*
X102597Y144617D01*
X102690Y144612D01*
X102782Y144602D01*
X102875Y144589D01*
X102966Y144572D01*
X103057Y144552D01*
X103147Y144528D01*
X103236Y144500D01*
X103323Y144469D01*
X103409Y144434D01*
X103494Y144396D01*
X103578Y144354D01*
X103659Y144310D01*
X103739Y144261D01*
X103816Y144210D01*
X103892Y144156D01*
X103965Y144098D01*
X104036Y144038D01*
X104104Y143975D01*
X104170Y143909D01*
X104233Y143841D01*
X104293Y143770D01*
X104351Y143697D01*
X104405Y143621D01*
X104456Y143544D01*
X104505Y143464D01*
X104549Y143383D01*
X104591Y143299D01*
X104629Y143214D01*
X104664Y143128D01*
X104695Y143041D01*
X104723Y142952D01*
X104747Y142862D01*
X104767Y142771D01*
X104784Y142680D01*
X104797Y142587D01*
X104807Y142495D01*
X104812Y142402D01*
X104814Y142309D01*
X102504Y144619D02*
X102397Y144617D01*
X102291Y144611D01*
X102185Y144602D01*
X102079Y144588D01*
X101974Y144571D01*
X101869Y144550D01*
X101766Y144526D01*
X101663Y144497D01*
X101561Y144465D01*
X101461Y144430D01*
X101362Y144390D01*
X101264Y144347D01*
X101168Y144301D01*
X101074Y144251D01*
X100981Y144198D01*
X100891Y144142D01*
X100802Y144082D01*
X100716Y144020D01*
X100632Y143954D01*
X100551Y143885D01*
X100472Y143814D01*
X100395Y143739D01*
X100322Y143662D01*
X100251Y143583D01*
X100183Y143500D01*
X100118Y143416D01*
X100056Y143329D01*
X99998Y143240D01*
X99942Y143149D01*
X99890Y143056D01*
X99841Y142961D01*
X99796Y142865D01*
X99754Y142766D01*
X99716Y142667D01*
X99681Y142566D01*
X104044Y140512D02*
X104112Y140580D01*
X104177Y140650D01*
X104240Y140722D01*
X104300Y140797D01*
X104357Y140874D01*
X104410Y140953D01*
X104461Y141034D01*
X104509Y141117D01*
X104553Y141201D01*
X104594Y141288D01*
X104632Y141376D01*
X104666Y141465D01*
X104697Y141556D01*
X104724Y141647D01*
X104748Y141740D01*
X104768Y141834D01*
X104785Y141928D01*
X104797Y142023D01*
X104807Y142118D01*
X104812Y142213D01*
X104814Y142309D01*
X104043Y140513D02*
X99681Y135381D01*
X104813Y135381D01*
X112434Y135381D02*
X114487Y135381D01*
X112434Y135381D02*
X112344Y135383D01*
X112255Y135389D01*
X112166Y135399D01*
X112078Y135412D01*
X111990Y135430D01*
X111903Y135451D01*
X111817Y135476D01*
X111732Y135505D01*
X111648Y135537D01*
X111566Y135573D01*
X111486Y135613D01*
X111408Y135656D01*
X111331Y135703D01*
X111256Y135752D01*
X111184Y135805D01*
X111114Y135861D01*
X111047Y135920D01*
X110982Y135982D01*
X110920Y136047D01*
X110861Y136114D01*
X110805Y136184D01*
X110752Y136256D01*
X110703Y136331D01*
X110656Y136408D01*
X110613Y136486D01*
X110573Y136566D01*
X110537Y136648D01*
X110505Y136732D01*
X110476Y136817D01*
X110451Y136903D01*
X110430Y136990D01*
X110412Y137078D01*
X110399Y137166D01*
X110389Y137255D01*
X110383Y137344D01*
X110381Y137434D01*
X110381Y142566D01*
X110383Y142656D01*
X110389Y142745D01*
X110399Y142834D01*
X110412Y142922D01*
X110430Y143010D01*
X110451Y143097D01*
X110476Y143183D01*
X110505Y143268D01*
X110537Y143352D01*
X110573Y143434D01*
X110613Y143514D01*
X110656Y143592D01*
X110703Y143669D01*
X110752Y143744D01*
X110805Y143816D01*
X110861Y143886D01*
X110920Y143953D01*
X110982Y144018D01*
X111047Y144080D01*
X111114Y144139D01*
X111184Y144195D01*
X111256Y144248D01*
X111331Y144297D01*
X111407Y144344D01*
X111486Y144387D01*
X111566Y144427D01*
X111648Y144463D01*
X111732Y144495D01*
X111817Y144524D01*
X111903Y144549D01*
X111990Y144570D01*
X112077Y144588D01*
X112166Y144601D01*
X112255Y144611D01*
X112344Y144617D01*
X112434Y144619D01*
X114487Y144619D01*
X120729Y144619D02*
X120822Y144617D01*
X120915Y144612D01*
X121007Y144602D01*
X121100Y144589D01*
X121191Y144572D01*
X121282Y144552D01*
X121372Y144528D01*
X121461Y144500D01*
X121548Y144469D01*
X121634Y144434D01*
X121719Y144396D01*
X121803Y144354D01*
X121884Y144310D01*
X121964Y144261D01*
X122041Y144210D01*
X122117Y144156D01*
X122190Y144098D01*
X122261Y144038D01*
X122329Y143975D01*
X122395Y143909D01*
X122458Y143841D01*
X122518Y143770D01*
X122576Y143697D01*
X122630Y143621D01*
X122681Y143544D01*
X122730Y143464D01*
X122774Y143383D01*
X122816Y143299D01*
X122854Y143214D01*
X122889Y143128D01*
X122920Y143041D01*
X122948Y142952D01*
X122972Y142862D01*
X122992Y142771D01*
X123009Y142680D01*
X123022Y142587D01*
X123032Y142495D01*
X123037Y142402D01*
X123039Y142309D01*
X120729Y144619D02*
X120622Y144617D01*
X120516Y144611D01*
X120410Y144602D01*
X120304Y144588D01*
X120199Y144571D01*
X120094Y144550D01*
X119991Y144526D01*
X119888Y144497D01*
X119786Y144465D01*
X119686Y144430D01*
X119587Y144390D01*
X119489Y144347D01*
X119393Y144301D01*
X119299Y144251D01*
X119206Y144198D01*
X119116Y144142D01*
X119027Y144082D01*
X118941Y144020D01*
X118857Y143954D01*
X118776Y143885D01*
X118697Y143814D01*
X118620Y143739D01*
X118547Y143662D01*
X118476Y143583D01*
X118408Y143500D01*
X118343Y143416D01*
X118281Y143329D01*
X118223Y143240D01*
X118167Y143149D01*
X118115Y143056D01*
X118066Y142961D01*
X118021Y142865D01*
X117979Y142766D01*
X117941Y142667D01*
X117906Y142566D01*
X122269Y140512D02*
X122337Y140580D01*
X122402Y140650D01*
X122465Y140722D01*
X122525Y140797D01*
X122582Y140874D01*
X122635Y140953D01*
X122686Y141034D01*
X122734Y141117D01*
X122778Y141201D01*
X122819Y141288D01*
X122857Y141376D01*
X122891Y141465D01*
X122922Y141556D01*
X122949Y141647D01*
X122973Y141740D01*
X122993Y141834D01*
X123010Y141928D01*
X123022Y142023D01*
X123032Y142118D01*
X123037Y142213D01*
X123039Y142309D01*
X122269Y140513D02*
X117906Y135381D01*
X123039Y135381D01*
X14487Y135381D02*
X12434Y135381D01*
X12344Y135383D01*
X12255Y135389D01*
X12166Y135399D01*
X12078Y135412D01*
X11990Y135430D01*
X11903Y135451D01*
X11817Y135476D01*
X11732Y135505D01*
X11648Y135537D01*
X11566Y135573D01*
X11486Y135613D01*
X11407Y135656D01*
X11331Y135703D01*
X11256Y135752D01*
X11184Y135805D01*
X11114Y135861D01*
X11047Y135920D01*
X10982Y135982D01*
X10920Y136047D01*
X10861Y136114D01*
X10805Y136184D01*
X10752Y136256D01*
X10703Y136331D01*
X10656Y136408D01*
X10613Y136486D01*
X10573Y136566D01*
X10537Y136648D01*
X10505Y136732D01*
X10476Y136817D01*
X10451Y136903D01*
X10430Y136990D01*
X10412Y137078D01*
X10399Y137166D01*
X10389Y137255D01*
X10383Y137344D01*
X10381Y137434D01*
X10381Y142566D01*
X10383Y142656D01*
X10389Y142745D01*
X10399Y142834D01*
X10412Y142922D01*
X10430Y143010D01*
X10451Y143097D01*
X10476Y143183D01*
X10505Y143268D01*
X10537Y143352D01*
X10573Y143434D01*
X10613Y143514D01*
X10656Y143592D01*
X10703Y143669D01*
X10752Y143744D01*
X10805Y143816D01*
X10861Y143886D01*
X10920Y143953D01*
X10982Y144018D01*
X11047Y144080D01*
X11114Y144139D01*
X11184Y144195D01*
X11256Y144248D01*
X11331Y144297D01*
X11407Y144344D01*
X11486Y144387D01*
X11566Y144427D01*
X11648Y144463D01*
X11732Y144495D01*
X11817Y144524D01*
X11903Y144549D01*
X11990Y144570D01*
X12077Y144588D01*
X12166Y144601D01*
X12255Y144611D01*
X12344Y144617D01*
X12434Y144619D01*
X14487Y144619D01*
X19959Y144619D02*
X17906Y137434D01*
X23039Y137434D01*
X21499Y139487D02*
X21499Y135381D01*
D16*
X-123476Y-129224D02*
X-131604Y-129224D01*
X-131604Y-122636D01*
X-131604Y-100776D02*
X-123476Y-100776D01*
X-131604Y-100776D02*
X-131604Y-107364D01*
D11*
X-129619Y-137947D02*
X-129619Y-142053D01*
X-129619Y-137947D02*
X-129617Y-137848D01*
X-129611Y-137748D01*
X-129602Y-137649D01*
X-129588Y-137551D01*
X-129571Y-137453D01*
X-129550Y-137355D01*
X-129525Y-137259D01*
X-129496Y-137164D01*
X-129464Y-137069D01*
X-129428Y-136977D01*
X-129389Y-136885D01*
X-129346Y-136795D01*
X-129300Y-136707D01*
X-129250Y-136621D01*
X-129197Y-136537D01*
X-129141Y-136455D01*
X-129081Y-136375D01*
X-129019Y-136298D01*
X-128953Y-136223D01*
X-128885Y-136150D01*
X-128814Y-136081D01*
X-128740Y-136014D01*
X-128664Y-135950D01*
X-128585Y-135889D01*
X-128504Y-135831D01*
X-128421Y-135776D01*
X-128336Y-135725D01*
X-128249Y-135677D01*
X-128160Y-135632D01*
X-128069Y-135591D01*
X-127977Y-135553D01*
X-127884Y-135519D01*
X-127789Y-135489D01*
X-127693Y-135462D01*
X-127596Y-135439D01*
X-127499Y-135420D01*
X-127400Y-135405D01*
X-127301Y-135393D01*
X-127202Y-135385D01*
X-127103Y-135381D01*
X-127003Y-135381D01*
X-126904Y-135385D01*
X-126805Y-135393D01*
X-126706Y-135405D01*
X-126607Y-135420D01*
X-126510Y-135439D01*
X-126413Y-135462D01*
X-126317Y-135489D01*
X-126222Y-135519D01*
X-126129Y-135553D01*
X-126037Y-135591D01*
X-125946Y-135632D01*
X-125857Y-135677D01*
X-125770Y-135725D01*
X-125685Y-135776D01*
X-125602Y-135831D01*
X-125521Y-135889D01*
X-125442Y-135950D01*
X-125366Y-136014D01*
X-125292Y-136081D01*
X-125221Y-136150D01*
X-125153Y-136223D01*
X-125087Y-136298D01*
X-125025Y-136375D01*
X-124965Y-136455D01*
X-124909Y-136537D01*
X-124856Y-136621D01*
X-124806Y-136707D01*
X-124760Y-136795D01*
X-124717Y-136885D01*
X-124678Y-136977D01*
X-124642Y-137069D01*
X-124610Y-137164D01*
X-124581Y-137259D01*
X-124556Y-137355D01*
X-124535Y-137453D01*
X-124518Y-137551D01*
X-124504Y-137649D01*
X-124495Y-137748D01*
X-124489Y-137848D01*
X-124487Y-137947D01*
X-124487Y-142053D01*
X-124489Y-142152D01*
X-124495Y-142252D01*
X-124504Y-142351D01*
X-124518Y-142449D01*
X-124535Y-142547D01*
X-124556Y-142645D01*
X-124581Y-142741D01*
X-124610Y-142836D01*
X-124642Y-142931D01*
X-124678Y-143023D01*
X-124717Y-143115D01*
X-124760Y-143205D01*
X-124806Y-143293D01*
X-124856Y-143379D01*
X-124909Y-143463D01*
X-124965Y-143545D01*
X-125025Y-143625D01*
X-125087Y-143702D01*
X-125153Y-143777D01*
X-125221Y-143850D01*
X-125292Y-143919D01*
X-125366Y-143986D01*
X-125442Y-144050D01*
X-125521Y-144111D01*
X-125602Y-144169D01*
X-125685Y-144224D01*
X-125770Y-144275D01*
X-125857Y-144323D01*
X-125946Y-144368D01*
X-126037Y-144409D01*
X-126129Y-144447D01*
X-126222Y-144481D01*
X-126317Y-144511D01*
X-126413Y-144538D01*
X-126510Y-144561D01*
X-126607Y-144580D01*
X-126706Y-144595D01*
X-126805Y-144607D01*
X-126904Y-144615D01*
X-127003Y-144619D01*
X-127103Y-144619D01*
X-127202Y-144615D01*
X-127301Y-144607D01*
X-127400Y-144595D01*
X-127499Y-144580D01*
X-127596Y-144561D01*
X-127693Y-144538D01*
X-127789Y-144511D01*
X-127884Y-144481D01*
X-127977Y-144447D01*
X-128069Y-144409D01*
X-128160Y-144368D01*
X-128249Y-144323D01*
X-128336Y-144275D01*
X-128421Y-144224D01*
X-128504Y-144169D01*
X-128585Y-144111D01*
X-128664Y-144050D01*
X-128740Y-143986D01*
X-128814Y-143919D01*
X-128885Y-143850D01*
X-128953Y-143777D01*
X-129019Y-143702D01*
X-129081Y-143625D01*
X-129141Y-143545D01*
X-129197Y-143463D01*
X-129250Y-143379D01*
X-129300Y-143293D01*
X-129346Y-143205D01*
X-129389Y-143115D01*
X-129428Y-143023D01*
X-129464Y-142931D01*
X-129496Y-142836D01*
X-129525Y-142741D01*
X-129550Y-142645D01*
X-129571Y-142547D01*
X-129588Y-142449D01*
X-129602Y-142351D01*
X-129611Y-142252D01*
X-129617Y-142152D01*
X-129619Y-142053D01*
X-125513Y-142566D02*
X-123460Y-144619D01*
X-120832Y-137434D02*
X-118266Y-135381D01*
X-118266Y-144619D01*
X-120832Y-144619D02*
X-115700Y-144619D01*
D16*
X123476Y-100776D02*
X131604Y-100776D01*
X131604Y-107364D01*
X131604Y-129224D02*
X123476Y-129224D01*
X131604Y-129224D02*
X131604Y-122636D01*
D11*
X120381Y-137947D02*
X120381Y-142053D01*
X120381Y-137947D02*
X120383Y-137848D01*
X120389Y-137748D01*
X120398Y-137649D01*
X120412Y-137551D01*
X120429Y-137453D01*
X120450Y-137355D01*
X120475Y-137259D01*
X120504Y-137164D01*
X120536Y-137069D01*
X120572Y-136977D01*
X120611Y-136885D01*
X120654Y-136795D01*
X120700Y-136707D01*
X120750Y-136621D01*
X120803Y-136537D01*
X120859Y-136455D01*
X120919Y-136375D01*
X120981Y-136298D01*
X121047Y-136223D01*
X121115Y-136150D01*
X121186Y-136081D01*
X121260Y-136014D01*
X121336Y-135950D01*
X121415Y-135889D01*
X121496Y-135831D01*
X121579Y-135776D01*
X121664Y-135725D01*
X121751Y-135677D01*
X121840Y-135632D01*
X121931Y-135591D01*
X122023Y-135553D01*
X122116Y-135519D01*
X122211Y-135489D01*
X122307Y-135462D01*
X122404Y-135439D01*
X122501Y-135420D01*
X122600Y-135405D01*
X122699Y-135393D01*
X122798Y-135385D01*
X122897Y-135381D01*
X122997Y-135381D01*
X123096Y-135385D01*
X123195Y-135393D01*
X123294Y-135405D01*
X123393Y-135420D01*
X123490Y-135439D01*
X123587Y-135462D01*
X123683Y-135489D01*
X123778Y-135519D01*
X123871Y-135553D01*
X123963Y-135591D01*
X124054Y-135632D01*
X124143Y-135677D01*
X124230Y-135725D01*
X124315Y-135776D01*
X124398Y-135831D01*
X124479Y-135889D01*
X124558Y-135950D01*
X124634Y-136014D01*
X124708Y-136081D01*
X124779Y-136150D01*
X124847Y-136223D01*
X124913Y-136298D01*
X124975Y-136375D01*
X125035Y-136455D01*
X125091Y-136537D01*
X125144Y-136621D01*
X125194Y-136707D01*
X125240Y-136795D01*
X125283Y-136885D01*
X125322Y-136977D01*
X125358Y-137069D01*
X125390Y-137164D01*
X125419Y-137259D01*
X125444Y-137355D01*
X125465Y-137453D01*
X125482Y-137551D01*
X125496Y-137649D01*
X125505Y-137748D01*
X125511Y-137848D01*
X125513Y-137947D01*
X125513Y-142053D01*
X125511Y-142152D01*
X125505Y-142252D01*
X125496Y-142351D01*
X125482Y-142449D01*
X125465Y-142547D01*
X125444Y-142645D01*
X125419Y-142741D01*
X125390Y-142836D01*
X125358Y-142931D01*
X125322Y-143023D01*
X125283Y-143115D01*
X125240Y-143205D01*
X125194Y-143293D01*
X125144Y-143379D01*
X125091Y-143463D01*
X125035Y-143545D01*
X124975Y-143625D01*
X124913Y-143702D01*
X124847Y-143777D01*
X124779Y-143850D01*
X124708Y-143919D01*
X124634Y-143986D01*
X124558Y-144050D01*
X124479Y-144111D01*
X124398Y-144169D01*
X124315Y-144224D01*
X124230Y-144275D01*
X124143Y-144323D01*
X124054Y-144368D01*
X123963Y-144409D01*
X123871Y-144447D01*
X123778Y-144481D01*
X123683Y-144511D01*
X123587Y-144538D01*
X123490Y-144561D01*
X123393Y-144580D01*
X123294Y-144595D01*
X123195Y-144607D01*
X123096Y-144615D01*
X122997Y-144619D01*
X122897Y-144619D01*
X122798Y-144615D01*
X122699Y-144607D01*
X122600Y-144595D01*
X122501Y-144580D01*
X122404Y-144561D01*
X122307Y-144538D01*
X122211Y-144511D01*
X122116Y-144481D01*
X122023Y-144447D01*
X121931Y-144409D01*
X121840Y-144368D01*
X121751Y-144323D01*
X121664Y-144275D01*
X121579Y-144224D01*
X121496Y-144169D01*
X121415Y-144111D01*
X121336Y-144050D01*
X121260Y-143986D01*
X121186Y-143919D01*
X121115Y-143850D01*
X121047Y-143777D01*
X120981Y-143702D01*
X120919Y-143625D01*
X120859Y-143545D01*
X120803Y-143463D01*
X120750Y-143379D01*
X120700Y-143293D01*
X120654Y-143205D01*
X120611Y-143115D01*
X120572Y-143023D01*
X120536Y-142931D01*
X120504Y-142836D01*
X120475Y-142741D01*
X120450Y-142645D01*
X120429Y-142547D01*
X120412Y-142449D01*
X120398Y-142351D01*
X120389Y-142252D01*
X120383Y-142152D01*
X120381Y-142053D01*
X124487Y-142566D02*
X126540Y-144619D01*
X134301Y-137691D02*
X134299Y-137596D01*
X134293Y-137500D01*
X134283Y-137405D01*
X134269Y-137311D01*
X134252Y-137217D01*
X134230Y-137124D01*
X134205Y-137032D01*
X134176Y-136941D01*
X134143Y-136851D01*
X134106Y-136763D01*
X134066Y-136676D01*
X134023Y-136592D01*
X133975Y-136509D01*
X133925Y-136428D01*
X133871Y-136349D01*
X133814Y-136272D01*
X133754Y-136198D01*
X133691Y-136127D01*
X133624Y-136058D01*
X133556Y-135992D01*
X133484Y-135928D01*
X133410Y-135868D01*
X133333Y-135811D01*
X133254Y-135757D01*
X133173Y-135707D01*
X133090Y-135659D01*
X133006Y-135616D01*
X132919Y-135576D01*
X132831Y-135539D01*
X132741Y-135506D01*
X132650Y-135477D01*
X132558Y-135452D01*
X132465Y-135430D01*
X132371Y-135413D01*
X132277Y-135399D01*
X132182Y-135389D01*
X132087Y-135383D01*
X131991Y-135381D01*
X131885Y-135383D01*
X131778Y-135389D01*
X131672Y-135398D01*
X131566Y-135412D01*
X131461Y-135429D01*
X131356Y-135450D01*
X131253Y-135474D01*
X131150Y-135503D01*
X131048Y-135535D01*
X130948Y-135570D01*
X130849Y-135610D01*
X130751Y-135653D01*
X130655Y-135699D01*
X130561Y-135749D01*
X130468Y-135802D01*
X130378Y-135858D01*
X130289Y-135918D01*
X130203Y-135980D01*
X130119Y-136046D01*
X130038Y-136115D01*
X129959Y-136186D01*
X129882Y-136261D01*
X129809Y-136338D01*
X129738Y-136418D01*
X129670Y-136500D01*
X129605Y-136584D01*
X129543Y-136671D01*
X129485Y-136760D01*
X129429Y-136851D01*
X129377Y-136944D01*
X129328Y-137039D01*
X129283Y-137136D01*
X129241Y-137234D01*
X129203Y-137333D01*
X129168Y-137434D01*
X133531Y-139488D02*
X133599Y-139420D01*
X133664Y-139350D01*
X133727Y-139278D01*
X133787Y-139203D01*
X133844Y-139126D01*
X133897Y-139047D01*
X133948Y-138966D01*
X133996Y-138883D01*
X134040Y-138799D01*
X134081Y-138712D01*
X134119Y-138624D01*
X134153Y-138535D01*
X134184Y-138444D01*
X134211Y-138353D01*
X134235Y-138260D01*
X134255Y-138166D01*
X134272Y-138072D01*
X134284Y-137977D01*
X134294Y-137882D01*
X134299Y-137787D01*
X134301Y-137691D01*
X133531Y-139487D02*
X129168Y-144619D01*
X134300Y-144619D01*
X-70381Y-92119D02*
X-79619Y-92119D01*
X-79619Y-89553D01*
X-79617Y-89454D01*
X-79611Y-89354D01*
X-79602Y-89255D01*
X-79588Y-89157D01*
X-79571Y-89059D01*
X-79550Y-88961D01*
X-79525Y-88865D01*
X-79496Y-88770D01*
X-79464Y-88675D01*
X-79428Y-88583D01*
X-79389Y-88491D01*
X-79346Y-88401D01*
X-79300Y-88313D01*
X-79250Y-88227D01*
X-79197Y-88143D01*
X-79141Y-88061D01*
X-79081Y-87981D01*
X-79019Y-87904D01*
X-78953Y-87829D01*
X-78885Y-87756D01*
X-78814Y-87687D01*
X-78740Y-87620D01*
X-78664Y-87556D01*
X-78585Y-87495D01*
X-78504Y-87437D01*
X-78421Y-87382D01*
X-78336Y-87331D01*
X-78249Y-87283D01*
X-78160Y-87238D01*
X-78069Y-87197D01*
X-77977Y-87159D01*
X-77884Y-87125D01*
X-77789Y-87095D01*
X-77693Y-87068D01*
X-77596Y-87045D01*
X-77499Y-87026D01*
X-77400Y-87011D01*
X-77301Y-86999D01*
X-77202Y-86991D01*
X-77103Y-86987D01*
X-77003Y-86987D01*
X-76904Y-86991D01*
X-76805Y-86999D01*
X-76706Y-87011D01*
X-76607Y-87026D01*
X-76510Y-87045D01*
X-76413Y-87068D01*
X-76317Y-87095D01*
X-76222Y-87125D01*
X-76129Y-87159D01*
X-76037Y-87197D01*
X-75946Y-87238D01*
X-75857Y-87283D01*
X-75770Y-87331D01*
X-75685Y-87382D01*
X-75602Y-87437D01*
X-75521Y-87495D01*
X-75442Y-87556D01*
X-75366Y-87620D01*
X-75292Y-87687D01*
X-75221Y-87756D01*
X-75153Y-87829D01*
X-75087Y-87904D01*
X-75025Y-87981D01*
X-74965Y-88061D01*
X-74909Y-88143D01*
X-74856Y-88227D01*
X-74806Y-88313D01*
X-74760Y-88401D01*
X-74717Y-88491D01*
X-74678Y-88583D01*
X-74642Y-88675D01*
X-74610Y-88770D01*
X-74581Y-88865D01*
X-74556Y-88961D01*
X-74535Y-89059D01*
X-74518Y-89157D01*
X-74504Y-89255D01*
X-74495Y-89354D01*
X-74489Y-89454D01*
X-74487Y-89553D01*
X-74487Y-92119D01*
X-74487Y-89040D02*
X-70381Y-86987D01*
X-77566Y-83176D02*
X-79619Y-80610D01*
X-70381Y-80610D01*
X-70381Y-83176D02*
X-70381Y-78043D01*
X-90381Y-92119D02*
X-99619Y-92119D01*
X-99619Y-89553D01*
X-99617Y-89454D01*
X-99611Y-89354D01*
X-99602Y-89255D01*
X-99588Y-89157D01*
X-99571Y-89059D01*
X-99550Y-88961D01*
X-99525Y-88865D01*
X-99496Y-88770D01*
X-99464Y-88675D01*
X-99428Y-88583D01*
X-99389Y-88491D01*
X-99346Y-88401D01*
X-99300Y-88313D01*
X-99250Y-88227D01*
X-99197Y-88143D01*
X-99141Y-88061D01*
X-99081Y-87981D01*
X-99019Y-87904D01*
X-98953Y-87829D01*
X-98885Y-87756D01*
X-98814Y-87687D01*
X-98740Y-87620D01*
X-98664Y-87556D01*
X-98585Y-87495D01*
X-98504Y-87437D01*
X-98421Y-87382D01*
X-98336Y-87331D01*
X-98249Y-87283D01*
X-98160Y-87238D01*
X-98069Y-87197D01*
X-97977Y-87159D01*
X-97884Y-87125D01*
X-97789Y-87095D01*
X-97693Y-87068D01*
X-97596Y-87045D01*
X-97499Y-87026D01*
X-97400Y-87011D01*
X-97301Y-86999D01*
X-97202Y-86991D01*
X-97103Y-86987D01*
X-97003Y-86987D01*
X-96904Y-86991D01*
X-96805Y-86999D01*
X-96706Y-87011D01*
X-96607Y-87026D01*
X-96510Y-87045D01*
X-96413Y-87068D01*
X-96317Y-87095D01*
X-96222Y-87125D01*
X-96129Y-87159D01*
X-96037Y-87197D01*
X-95946Y-87238D01*
X-95857Y-87283D01*
X-95770Y-87331D01*
X-95685Y-87382D01*
X-95602Y-87437D01*
X-95521Y-87495D01*
X-95442Y-87556D01*
X-95366Y-87620D01*
X-95292Y-87687D01*
X-95221Y-87756D01*
X-95153Y-87829D01*
X-95087Y-87904D01*
X-95025Y-87981D01*
X-94965Y-88061D01*
X-94909Y-88143D01*
X-94856Y-88227D01*
X-94806Y-88313D01*
X-94760Y-88401D01*
X-94717Y-88491D01*
X-94678Y-88583D01*
X-94642Y-88675D01*
X-94610Y-88770D01*
X-94581Y-88865D01*
X-94556Y-88961D01*
X-94535Y-89059D01*
X-94518Y-89157D01*
X-94504Y-89255D01*
X-94495Y-89354D01*
X-94489Y-89454D01*
X-94487Y-89553D01*
X-94487Y-92119D01*
X-94487Y-89040D02*
X-90381Y-86987D01*
X-97309Y-78043D02*
X-97404Y-78045D01*
X-97500Y-78051D01*
X-97595Y-78061D01*
X-97689Y-78075D01*
X-97783Y-78092D01*
X-97876Y-78114D01*
X-97968Y-78139D01*
X-98059Y-78168D01*
X-98149Y-78201D01*
X-98237Y-78238D01*
X-98324Y-78278D01*
X-98408Y-78321D01*
X-98491Y-78369D01*
X-98572Y-78419D01*
X-98651Y-78473D01*
X-98728Y-78530D01*
X-98802Y-78590D01*
X-98874Y-78653D01*
X-98942Y-78720D01*
X-99009Y-78788D01*
X-99072Y-78860D01*
X-99132Y-78934D01*
X-99189Y-79011D01*
X-99243Y-79090D01*
X-99293Y-79171D01*
X-99341Y-79254D01*
X-99384Y-79338D01*
X-99424Y-79425D01*
X-99461Y-79513D01*
X-99494Y-79603D01*
X-99523Y-79694D01*
X-99548Y-79786D01*
X-99570Y-79879D01*
X-99587Y-79973D01*
X-99601Y-80067D01*
X-99611Y-80162D01*
X-99617Y-80258D01*
X-99619Y-80353D01*
X-99617Y-80460D01*
X-99611Y-80566D01*
X-99602Y-80672D01*
X-99588Y-80778D01*
X-99571Y-80883D01*
X-99550Y-80988D01*
X-99526Y-81091D01*
X-99497Y-81194D01*
X-99465Y-81296D01*
X-99430Y-81396D01*
X-99390Y-81495D01*
X-99347Y-81593D01*
X-99301Y-81689D01*
X-99251Y-81783D01*
X-99198Y-81876D01*
X-99142Y-81966D01*
X-99082Y-82055D01*
X-99020Y-82141D01*
X-98954Y-82225D01*
X-98885Y-82306D01*
X-98814Y-82385D01*
X-98739Y-82462D01*
X-98662Y-82535D01*
X-98582Y-82606D01*
X-98500Y-82674D01*
X-98416Y-82739D01*
X-98329Y-82801D01*
X-98240Y-82859D01*
X-98149Y-82915D01*
X-98056Y-82967D01*
X-97961Y-83016D01*
X-97864Y-83061D01*
X-97766Y-83103D01*
X-97667Y-83141D01*
X-97566Y-83176D01*
X-95513Y-78814D02*
X-95580Y-78746D01*
X-95650Y-78680D01*
X-95723Y-78618D01*
X-95797Y-78558D01*
X-95874Y-78501D01*
X-95953Y-78447D01*
X-96034Y-78397D01*
X-96117Y-78349D01*
X-96202Y-78305D01*
X-96288Y-78264D01*
X-96376Y-78226D01*
X-96465Y-78192D01*
X-96556Y-78161D01*
X-96648Y-78134D01*
X-96740Y-78110D01*
X-96834Y-78090D01*
X-96928Y-78073D01*
X-97023Y-78061D01*
X-97118Y-78051D01*
X-97213Y-78046D01*
X-97309Y-78044D01*
X-95513Y-78813D02*
X-90381Y-83176D01*
X-90381Y-78043D01*
X70381Y-92119D02*
X79619Y-92119D01*
X70381Y-92119D02*
X70381Y-89553D01*
X70383Y-89454D01*
X70389Y-89354D01*
X70398Y-89255D01*
X70412Y-89157D01*
X70429Y-89059D01*
X70450Y-88961D01*
X70475Y-88865D01*
X70504Y-88770D01*
X70536Y-88675D01*
X70572Y-88583D01*
X70611Y-88491D01*
X70654Y-88401D01*
X70700Y-88313D01*
X70750Y-88227D01*
X70803Y-88143D01*
X70859Y-88061D01*
X70919Y-87981D01*
X70981Y-87904D01*
X71047Y-87829D01*
X71115Y-87756D01*
X71186Y-87687D01*
X71260Y-87620D01*
X71336Y-87556D01*
X71415Y-87495D01*
X71496Y-87437D01*
X71579Y-87382D01*
X71664Y-87331D01*
X71751Y-87283D01*
X71840Y-87238D01*
X71931Y-87197D01*
X72023Y-87159D01*
X72116Y-87125D01*
X72211Y-87095D01*
X72307Y-87068D01*
X72404Y-87045D01*
X72501Y-87026D01*
X72600Y-87011D01*
X72699Y-86999D01*
X72798Y-86991D01*
X72897Y-86987D01*
X72997Y-86987D01*
X73096Y-86991D01*
X73195Y-86999D01*
X73294Y-87011D01*
X73393Y-87026D01*
X73490Y-87045D01*
X73587Y-87068D01*
X73683Y-87095D01*
X73778Y-87125D01*
X73871Y-87159D01*
X73963Y-87197D01*
X74054Y-87238D01*
X74143Y-87283D01*
X74230Y-87331D01*
X74315Y-87382D01*
X74398Y-87437D01*
X74479Y-87495D01*
X74558Y-87556D01*
X74634Y-87620D01*
X74708Y-87687D01*
X74779Y-87756D01*
X74847Y-87829D01*
X74913Y-87904D01*
X74975Y-87981D01*
X75035Y-88061D01*
X75091Y-88143D01*
X75144Y-88227D01*
X75194Y-88313D01*
X75240Y-88401D01*
X75283Y-88491D01*
X75322Y-88583D01*
X75358Y-88675D01*
X75390Y-88770D01*
X75419Y-88865D01*
X75444Y-88961D01*
X75465Y-89059D01*
X75482Y-89157D01*
X75496Y-89255D01*
X75505Y-89354D01*
X75511Y-89454D01*
X75513Y-89553D01*
X75513Y-92119D01*
X75513Y-89040D02*
X79619Y-86987D01*
X79619Y-83176D02*
X79619Y-80610D01*
X79617Y-80511D01*
X79611Y-80411D01*
X79602Y-80312D01*
X79588Y-80214D01*
X79571Y-80116D01*
X79550Y-80018D01*
X79525Y-79922D01*
X79496Y-79827D01*
X79464Y-79732D01*
X79428Y-79640D01*
X79389Y-79548D01*
X79346Y-79458D01*
X79300Y-79370D01*
X79250Y-79284D01*
X79197Y-79200D01*
X79141Y-79118D01*
X79081Y-79038D01*
X79019Y-78961D01*
X78953Y-78886D01*
X78885Y-78813D01*
X78814Y-78744D01*
X78740Y-78677D01*
X78664Y-78613D01*
X78585Y-78552D01*
X78504Y-78494D01*
X78421Y-78439D01*
X78336Y-78388D01*
X78249Y-78340D01*
X78160Y-78295D01*
X78069Y-78254D01*
X77977Y-78216D01*
X77884Y-78182D01*
X77789Y-78152D01*
X77693Y-78125D01*
X77596Y-78102D01*
X77499Y-78083D01*
X77400Y-78068D01*
X77301Y-78056D01*
X77202Y-78048D01*
X77103Y-78044D01*
X77003Y-78044D01*
X76904Y-78048D01*
X76805Y-78056D01*
X76706Y-78068D01*
X76607Y-78083D01*
X76510Y-78102D01*
X76413Y-78125D01*
X76317Y-78152D01*
X76222Y-78182D01*
X76129Y-78216D01*
X76037Y-78254D01*
X75946Y-78295D01*
X75857Y-78340D01*
X75770Y-78388D01*
X75685Y-78439D01*
X75602Y-78494D01*
X75521Y-78552D01*
X75442Y-78613D01*
X75366Y-78677D01*
X75292Y-78744D01*
X75221Y-78813D01*
X75153Y-78886D01*
X75087Y-78961D01*
X75025Y-79038D01*
X74965Y-79118D01*
X74909Y-79200D01*
X74856Y-79284D01*
X74806Y-79370D01*
X74760Y-79458D01*
X74717Y-79548D01*
X74678Y-79640D01*
X74642Y-79732D01*
X74610Y-79827D01*
X74581Y-79922D01*
X74556Y-80018D01*
X74535Y-80116D01*
X74518Y-80214D01*
X74504Y-80312D01*
X74495Y-80411D01*
X74489Y-80511D01*
X74487Y-80610D01*
X70381Y-80096D02*
X70381Y-83176D01*
X70381Y-80096D02*
X70383Y-80006D01*
X70389Y-79917D01*
X70399Y-79828D01*
X70412Y-79740D01*
X70430Y-79652D01*
X70451Y-79565D01*
X70476Y-79479D01*
X70505Y-79394D01*
X70537Y-79310D01*
X70573Y-79228D01*
X70613Y-79148D01*
X70656Y-79070D01*
X70703Y-78993D01*
X70752Y-78918D01*
X70805Y-78846D01*
X70861Y-78776D01*
X70920Y-78709D01*
X70982Y-78644D01*
X71047Y-78582D01*
X71114Y-78523D01*
X71184Y-78467D01*
X71256Y-78414D01*
X71331Y-78365D01*
X71408Y-78318D01*
X71486Y-78275D01*
X71566Y-78235D01*
X71648Y-78199D01*
X71732Y-78167D01*
X71817Y-78138D01*
X71903Y-78113D01*
X71990Y-78092D01*
X72078Y-78074D01*
X72166Y-78061D01*
X72255Y-78051D01*
X72344Y-78045D01*
X72434Y-78043D01*
X72524Y-78045D01*
X72613Y-78051D01*
X72702Y-78061D01*
X72790Y-78074D01*
X72878Y-78092D01*
X72965Y-78113D01*
X73051Y-78138D01*
X73136Y-78167D01*
X73220Y-78199D01*
X73302Y-78235D01*
X73382Y-78275D01*
X73461Y-78318D01*
X73537Y-78365D01*
X73612Y-78414D01*
X73684Y-78467D01*
X73754Y-78523D01*
X73821Y-78582D01*
X73886Y-78644D01*
X73948Y-78709D01*
X74007Y-78776D01*
X74063Y-78846D01*
X74116Y-78918D01*
X74165Y-78993D01*
X74212Y-79070D01*
X74255Y-79148D01*
X74295Y-79228D01*
X74331Y-79310D01*
X74363Y-79394D01*
X74392Y-79479D01*
X74417Y-79565D01*
X74438Y-79652D01*
X74456Y-79740D01*
X74469Y-79828D01*
X74479Y-79917D01*
X74485Y-80006D01*
X74487Y-80096D01*
X74487Y-82149D01*
X90381Y-92119D02*
X99619Y-92119D01*
X90381Y-92119D02*
X90381Y-89553D01*
X90383Y-89454D01*
X90389Y-89354D01*
X90398Y-89255D01*
X90412Y-89157D01*
X90429Y-89059D01*
X90450Y-88961D01*
X90475Y-88865D01*
X90504Y-88770D01*
X90536Y-88675D01*
X90572Y-88583D01*
X90611Y-88491D01*
X90654Y-88401D01*
X90700Y-88313D01*
X90750Y-88227D01*
X90803Y-88143D01*
X90859Y-88061D01*
X90919Y-87981D01*
X90981Y-87904D01*
X91047Y-87829D01*
X91115Y-87756D01*
X91186Y-87687D01*
X91260Y-87620D01*
X91336Y-87556D01*
X91415Y-87495D01*
X91496Y-87437D01*
X91579Y-87382D01*
X91664Y-87331D01*
X91751Y-87283D01*
X91840Y-87238D01*
X91931Y-87197D01*
X92023Y-87159D01*
X92116Y-87125D01*
X92211Y-87095D01*
X92307Y-87068D01*
X92404Y-87045D01*
X92501Y-87026D01*
X92600Y-87011D01*
X92699Y-86999D01*
X92798Y-86991D01*
X92897Y-86987D01*
X92997Y-86987D01*
X93096Y-86991D01*
X93195Y-86999D01*
X93294Y-87011D01*
X93393Y-87026D01*
X93490Y-87045D01*
X93587Y-87068D01*
X93683Y-87095D01*
X93778Y-87125D01*
X93871Y-87159D01*
X93963Y-87197D01*
X94054Y-87238D01*
X94143Y-87283D01*
X94230Y-87331D01*
X94315Y-87382D01*
X94398Y-87437D01*
X94479Y-87495D01*
X94558Y-87556D01*
X94634Y-87620D01*
X94708Y-87687D01*
X94779Y-87756D01*
X94847Y-87829D01*
X94913Y-87904D01*
X94975Y-87981D01*
X95035Y-88061D01*
X95091Y-88143D01*
X95144Y-88227D01*
X95194Y-88313D01*
X95240Y-88401D01*
X95283Y-88491D01*
X95322Y-88583D01*
X95358Y-88675D01*
X95390Y-88770D01*
X95419Y-88865D01*
X95444Y-88961D01*
X95465Y-89059D01*
X95482Y-89157D01*
X95496Y-89255D01*
X95505Y-89354D01*
X95511Y-89454D01*
X95513Y-89553D01*
X95513Y-92119D01*
X95513Y-89040D02*
X99619Y-86987D01*
X97566Y-83176D02*
X90381Y-81123D01*
X97566Y-83176D02*
X97566Y-78043D01*
X95513Y-79583D02*
X99619Y-79583D01*
M02*
