G04 EAGLE Gerber RS-274X export*
G75*
%MOMM*%
%FSLAX34Y34*%
%LPD*%
%INSolderpaste Top*%
%IPPOS*%
%AMOC8*
5,1,8,0,0,1.08239X$1,22.5*%
G01*
%ADD10C,0.484500*%
%ADD11C,0.645000*%
%ADD12R,1.800000X1.600000*%
%ADD13R,1.400000X1.000000*%
%ADD14R,1.500000X1.300000*%


D10*
X-90328Y67672D02*
X-90328Y84328D01*
X-85672Y84328D01*
X-85672Y67672D01*
X-90328Y67672D01*
X-90328Y72275D02*
X-85672Y72275D01*
X-85672Y76878D02*
X-90328Y76878D01*
X-90328Y81481D02*
X-85672Y81481D01*
X-67328Y84328D02*
X-67328Y67672D01*
X-67328Y84328D02*
X-62672Y84328D01*
X-62672Y67672D01*
X-67328Y67672D01*
X-67328Y72275D02*
X-62672Y72275D01*
X-62672Y76878D02*
X-67328Y76878D01*
X-67328Y81481D02*
X-62672Y81481D01*
X-44328Y84328D02*
X-44328Y67672D01*
X-44328Y84328D02*
X-39672Y84328D01*
X-39672Y67672D01*
X-44328Y67672D01*
X-44328Y72275D02*
X-39672Y72275D01*
X-39672Y76878D02*
X-44328Y76878D01*
X-44328Y81481D02*
X-39672Y81481D01*
D11*
X-51975Y126475D02*
X-51975Y141525D01*
X-51975Y126475D02*
X-78025Y126475D01*
X-78025Y141525D01*
X-51975Y141525D01*
X-51975Y132602D02*
X-78025Y132602D01*
X-78025Y138729D02*
X-51975Y138729D01*
D12*
X-15000Y91000D03*
X-15000Y119000D03*
X-115000Y91000D03*
X-115000Y119000D03*
D10*
X39672Y84328D02*
X39672Y67672D01*
X39672Y84328D02*
X44328Y84328D01*
X44328Y67672D01*
X39672Y67672D01*
X39672Y72275D02*
X44328Y72275D01*
X44328Y76878D02*
X39672Y76878D01*
X39672Y81481D02*
X44328Y81481D01*
X62672Y84328D02*
X62672Y67672D01*
X62672Y84328D02*
X67328Y84328D01*
X67328Y67672D01*
X62672Y67672D01*
X62672Y72275D02*
X67328Y72275D01*
X67328Y76878D02*
X62672Y76878D01*
X62672Y81481D02*
X67328Y81481D01*
X85672Y84328D02*
X85672Y67672D01*
X85672Y84328D02*
X90328Y84328D01*
X90328Y67672D01*
X85672Y67672D01*
X85672Y72275D02*
X90328Y72275D01*
X90328Y76878D02*
X85672Y76878D01*
X85672Y81481D02*
X90328Y81481D01*
D11*
X78025Y126475D02*
X78025Y141525D01*
X78025Y126475D02*
X51975Y126475D01*
X51975Y141525D01*
X78025Y141525D01*
X78025Y132602D02*
X51975Y132602D01*
X51975Y138729D02*
X78025Y138729D01*
D12*
X115000Y91000D03*
X115000Y119000D03*
X15000Y91000D03*
X15000Y119000D03*
D13*
X-114000Y-124500D03*
X-114000Y-105500D03*
X-136000Y-115000D03*
X114000Y-105500D03*
X114000Y-124500D03*
X136000Y-115000D03*
D14*
X-75000Y-105500D03*
X-75000Y-124500D03*
X-95000Y-105500D03*
X-95000Y-124500D03*
X75000Y-124500D03*
X75000Y-105500D03*
X95000Y-124500D03*
X95000Y-105500D03*
M02*
