G04 EAGLE Gerber RS-274X export*
G75*
%MOMM*%
%FSLAX34Y34*%
%LPD*%
%INSoldermask Top*%
%IPPOS*%
%AMOC8*
5,1,8,0,0,1.08239X$1,22.5*%
G01*
%ADD10C,3.403200*%
%ADD11P,1.869504X8X22.500000*%
%ADD12R,1.711200X1.711200*%
%ADD13C,1.711200*%
%ADD14C,0.691919*%
%ADD15C,0.847150*%
%ADD16R,2.003200X1.803200*%
%ADD17R,1.603200X1.203200*%
%ADD18R,1.703200X1.503200*%
%ADD19C,1.109600*%


D10*
X-175000Y-125000D03*
X175000Y-125000D03*
X-175000Y125000D03*
X175000Y125000D03*
D11*
X-90400Y7300D03*
X-90400Y32700D03*
X-65000Y7300D03*
X-65000Y32700D03*
X-39600Y7300D03*
X-39600Y32700D03*
X14600Y7300D03*
X14600Y32700D03*
X40000Y7300D03*
X40000Y32700D03*
X65400Y7300D03*
X65400Y32700D03*
D12*
X125000Y-72500D03*
D13*
X125000Y-47500D03*
D12*
X-125000Y-47500D03*
D13*
X-125000Y-72500D03*
D12*
X165000Y32500D03*
D13*
X165000Y7500D03*
D12*
X105000Y32500D03*
D13*
X105000Y7500D03*
D12*
X-37500Y-75000D03*
D13*
X-12500Y-75000D03*
X12500Y-75000D03*
X37500Y-75000D03*
D14*
X-90307Y67693D02*
X-90307Y84307D01*
X-85693Y84307D01*
X-85693Y67693D01*
X-90307Y67693D01*
X-90307Y74266D02*
X-85693Y74266D01*
X-85693Y80839D02*
X-90307Y80839D01*
X-67307Y84307D02*
X-67307Y67693D01*
X-67307Y84307D02*
X-62693Y84307D01*
X-62693Y67693D01*
X-67307Y67693D01*
X-67307Y74266D02*
X-62693Y74266D01*
X-62693Y80839D02*
X-67307Y80839D01*
X-44307Y84307D02*
X-44307Y67693D01*
X-44307Y84307D02*
X-39693Y84307D01*
X-39693Y67693D01*
X-44307Y67693D01*
X-44307Y74266D02*
X-39693Y74266D01*
X-39693Y80839D02*
X-44307Y80839D01*
D15*
X-51970Y126470D02*
X-51970Y141530D01*
X-51970Y126470D02*
X-78030Y126470D01*
X-78030Y141530D01*
X-51970Y141530D01*
X-51970Y134518D02*
X-78030Y134518D01*
D16*
X-15000Y91000D03*
X-15000Y119000D03*
X-115000Y91000D03*
X-115000Y119000D03*
D14*
X39693Y84307D02*
X39693Y67693D01*
X39693Y84307D02*
X44307Y84307D01*
X44307Y67693D01*
X39693Y67693D01*
X39693Y74266D02*
X44307Y74266D01*
X44307Y80839D02*
X39693Y80839D01*
X62693Y84307D02*
X62693Y67693D01*
X62693Y84307D02*
X67307Y84307D01*
X67307Y67693D01*
X62693Y67693D01*
X62693Y74266D02*
X67307Y74266D01*
X67307Y80839D02*
X62693Y80839D01*
X85693Y84307D02*
X85693Y67693D01*
X85693Y84307D02*
X90307Y84307D01*
X90307Y67693D01*
X85693Y67693D01*
X85693Y74266D02*
X90307Y74266D01*
X90307Y80839D02*
X85693Y80839D01*
D15*
X78030Y126470D02*
X78030Y141530D01*
X78030Y126470D02*
X51970Y126470D01*
X51970Y141530D01*
X78030Y141530D01*
X78030Y134518D02*
X51970Y134518D01*
D16*
X115000Y91000D03*
X115000Y119000D03*
X15000Y91000D03*
X15000Y119000D03*
D17*
X-114000Y-124500D03*
X-114000Y-105500D03*
X-136000Y-115000D03*
X114000Y-105500D03*
X114000Y-124500D03*
X136000Y-115000D03*
D18*
X-75000Y-105500D03*
X-75000Y-124500D03*
X-95000Y-105500D03*
X-95000Y-124500D03*
X75000Y-124500D03*
X75000Y-105500D03*
X95000Y-124500D03*
X95000Y-105500D03*
D19*
X-115000Y75000D03*
X15000Y75000D03*
X115000Y75000D03*
M02*
