                                                                        S      1
,,17HLCD Door Bezel v2,17HLCD Door Bezel v2,7Hunknown,7Hunknown,32,38,7,G      1
99,15,,1.,2,2HMM,1,0.08,15H20200527.082026,0.01,10000.,7Hunknown,7HunknoG      2
wn,11,0,15H20200523.113335;                                             G      3
     186       1                                                00000000D      1
     186            -239       1       0                               0D      2
     514       2                                                00010000D      3
     514                       2       1                               0D      4
     510       4                                                00010000D      5
     510            -239       1       1                               0D      6
     510       5                                                00010000D      7
     510            -239       1       1                               0D      8
     510       6                                                00010000D      9
     510            -239       1       1                               0D     10
     510       7                                                00010000D     11
     510            -239       1       1                               0D     12
     510       8                                                00010000D     13
     510            -239       1       1                               0D     14
     510       9                                                00010000D     15
     510            -239       1       1                               0D     16
     510      10                                                00010000D     17
     510            -239       1       1                               0D     18
     510      11                                                00010000D     19
     510            -239       1       1                               0D     20
     510      12                                                00010000D     21
     510            -239       1       1                               0D     22
     510      13                                                00010000D     23
     510            -239       1       1                               0D     24
     510      14                                                00010000D     25
     510            -239       1       1                               0D     26
     510      15                                                00010000D     27
     510            -239       1       1                               0D     28
     510      16                                                00010000D     29
     510            -239       1       1                               0D     30
     510      17                                                00010000D     31
     510            -239       1       1                               0D     32
     510      18                                                00010000D     33
     510            -239       1       1                               0D     34
     510      19                                                00010000D     35
     510            -239       1       1                               0D     36
     510      20                                                00010000D     37
     510            -239       1       1                               0D     38
     510      21                                                00010000D     39
     510            -239       1       1                               0D     40
     510      22                                                00010000D     41
     510            -239       1       1                               0D     42
     510      23                                                00010000D     43
     510            -239       1       1                               0D     44
     508      24                                                00010000D     45
     508                       1       1                               0D     46
     508      25                                                00010000D     47
     508                       1       1                               0D     48
     508      26                                                00010000D     49
     508                       3       1                               0D     50
     508      29                                                00010000D     51
     508                       1       1                               0D     52
     508      30                                                00010000D     53
     508                       1       1                               0D     54
     508      31                                                00010000D     55
     508                       3       1                               0D     56
     508      34                                                00010000D     57
     508                       1       1                               0D     58
     508      35                                                00010000D     59
     508                       1       1                               0D     60
     508      36                                                00010000D     61
     508                       1       1                               0D     62
     508      37                                                00010000D     63
     508                       1       1                               0D     64
     508      38                                                00010000D     65
     508                       1       1                               0D     66
     508      39                                                00010000D     67
     508                       1       1                               0D     68
     508      40                                                00010000D     69
     508                       1       1                               0D     70
     508      41                                                00010000D     71
     508                       1       1                               0D     72
     508      42                                                00010000D     73
     508                       1       1                               0D     74
     508      43                                                00010000D     75
     508                       3       1                               0D     76
     508      46                                                00010000D     77
     508                       2       1                               0D     78
     508      48                                                00010000D     79
     508                       1       1                               0D     80
     508      49                                                00010000D     81
     508                       2       1                               0D     82
     508      51                                                00010000D     83
     508                       1       1                               0D     84
     126      52                                                00010000D     85
     126       0               5       0                               0D     86
     126      57                                                00010000D     87
     126       0               2       0                               0D     88
     126      59                                                00010000D     89
     126       0               5       0                               0D     90
     126      64                                                00010000D     91
     126       0               2       0                               0D     92
     126      66                                                00010000D     93
     126       0               2       0                               0D     94
     126      68                                                00010000D     95
     126       0               2       0                               0D     96
     126      70                                                00010000D     97
     126       0               2       0                               0D     98
     126      72                                                00010000D     99
     126       0               2       0                               0D    100
     126      74                                                00010000D    101
     126       0               4       0                               0D    102
     126      78                                                00010000D    103
     126       0               2       0                               0D    104
     126      80                                                00010000D    105
     126       0               2       0                               0D    106
     126      82                                                00010000D    107
     126       0               2       0                               0D    108
     126      84                                                00010000D    109
     126       0               4       0                               0D    110
     126      88                                                00010000D    111
     126       0               2       0                               0D    112
     126      90                                                00010000D    113
     126       0               4       0                               0D    114
     126      94                                                00010000D    115
     126       0               2       0                               0D    116
     126      96                                                00010000D    117
     126       0               2       0                               0D    118
     126      98                                                00010000D    119
     126       0               4       0                               0D    120
     126     102                                                00010000D    121
     126       0               2       0                               0D    122
     126     104                                                00010000D    123
     126       0               2       0                               0D    124
     126     106                                                00010000D    125
     126       0               2       0                               0D    126
     126     108                                                00010000D    127
     126       0               2       0                               0D    128
     126     110                                                00010000D    129
     126       0               2       0                               0D    130
     126     112                                                00010000D    131
     126       0               4       0                               0D    132
     126     116                                                00010000D    133
     126       0               2       0                               0D    134
     126     118                                                00010000D    135
     126       0               2       0                               0D    136
     126     120                                                00010000D    137
     126       0               2       0                               0D    138
     126     122                                                00010000D    139
     126       0               4       0                               0D    140
     126     126                                                00010000D    141
     126       0               2       0                               0D    142
     126     128                                                00010000D    143
     126       0               5       0                               0D    144
     126     133                                                00010000D    145
     126       0               2       0                               0D    146
     126     135                                                00010000D    147
     126       0               2       0                               0D    148
     126     137                                                00010000D    149
     126       0               4       0                               0D    150
     126     141                                                00010000D    151
     126       0               2       0                               0D    152
     126     143                                                00010000D    153
     126       0               2       0                               0D    154
     126     145                                                00010000D    155
     126       0               2       0                               0D    156
     126     147                                                00010000D    157
     126       0               2       0                               0D    158
     126     149                                                00010000D    159
     126       0               2       0                               0D    160
     126     151                                                00010000D    161
     126       0               2       0                               0D    162
     126     153                                                00010000D    163
     126       0               2       0                               0D    164
     126     155                                                00010000D    165
     126       0               4       0                               0D    166
     126     159                                                00010000D    167
     126       0               2       0                               0D    168
     126     161                                                00010000D    169
     126       0               2       0                               0D    170
     126     163                                                00010000D    171
     126       0               2       0                               0D    172
     126     165                                                00010000D    173
     126       0               2       0                               0D    174
     126     167                                                00010000D    175
     126       0               5       0                               0D    176
     126     172                                                00010000D    177
     126       0               2       0                               0D    178
     126     174                                                00010000D    179
     126       0               2       0                               0D    180
     126     176                                                00010000D    181
     126       0               2       0                               0D    182
     126     178                                                00010000D    183
     126       0               2       0                               0D    184
     126     180                                                00010000D    185
     126       0               2       0                               0D    186
     126     182                                                00010000D    187
     126       0               2       0                               0D    188
     126     184                                                00010000D    189
     126       0               2       0                               0D    190
     126     186                                                00010000D    191
     126       0               2       0                               0D    192
     128     188                                                00010000D    193
     128       0    -239       6       0                               0D    194
     128     194                                                00010000D    195
     128       0    -239       4       0                               0D    196
     128     198                                                00010000D    197
     128       0    -239       4       0                               0D    198
     128     202                                                00010000D    199
     128       0    -239       7       0                               0D    200
     128     209                                                00010000D    201
     128       0    -239       3       0                               0D    202
     128     212                                                00010000D    203
     128       0    -239       4       0                               0D    204
     128     216                                                00010000D    205
     128       0    -239       6       0                               0D    206
     128     222                                                00010000D    207
     128       0    -239       3       0                               0D    208
     128     225                                                00010000D    209
     128       0    -239       6       0                               0D    210
     128     231                                                00010000D    211
     128       0    -239       4       0                               0D    212
     128     235                                                00010000D    213
     128       0    -239       6       0                               0D    214
     128     241                                                00010000D    215
     128       0    -239       3       0                               0D    216
     128     244                                                00010000D    217
     128       0    -239       6       0                               0D    218
     128     250                                                00010000D    219
     128       0    -239       4       0                               0D    220
     128     254                                                00010000D    221
     128       0    -239       4       0                               0D    222
     128     258                                                00010000D    223
     128       0    -239       4       0                               0D    224
     128     262                                                00010000D    225
     128       0    -239       4       0                               0D    226
     128     266                                                00010000D    227
     128       0    -239       3       0                               0D    228
     128     269                                                00010000D    229
     128       0    -239       3       0                               0D    230
     128     272                                                00010000D    231
     128       0    -239       3       0                               0D    232
     502     275                                                00010000D    233
     502                       9       1                               0D    234
     504     284                                                00010001D    235
     504                      16       1                               0D    236
     406     300                                                00000000D    237
     406                       1      15                               0D    238
     314     301                                                00000200D    239
     314                       2       0                               0D    240
186,3,1,0,0,1,237;                                                     1P      1
514,20,5,1,7,1,9,1,11,1,13,1,15,1,17,1,19,1,21,1,23,1,25,1,27,1,       3P      2
29,1,31,1,33,1,35,1,37,1,39,1,41,1,43,1;                               3P      3
510,193,1,1,45;                                                        5P      4
510,195,1,1,47;                                                        7P      5
510,197,1,1,49;                                                        9P      6
510,199,1,1,51;                                                       11P      7
510,201,1,1,53;                                                       13P      8
510,203,1,1,55;                                                       15P      9
510,205,1,1,57;                                                       17P     10
510,207,1,1,59;                                                       19P     11
510,209,1,1,61;                                                       21P     12
510,211,1,1,63;                                                       23P     13
510,213,1,1,65;                                                       25P     14
510,215,1,1,67;                                                       27P     15
510,217,1,1,69;                                                       29P     16
510,219,1,1,71;                                                       31P     17
510,221,1,1,73;                                                       33P     18
510,223,1,1,75;                                                       35P     19
510,225,1,1,77;                                                       37P     20
510,227,1,1,79;                                                       39P     21
510,229,1,1,81;                                                       41P     22
510,231,1,1,83;                                                       43P     23
508,4,0,235,1,1,0,0,235,2,1,0,0,235,3,1,0,0,235,4,1,0;                45P     24
508,4,0,235,4,0,0,0,235,5,1,0,0,235,6,1,0,0,235,7,0,0;                47P     25
508,12,0,235,3,0,0,0,235,8,0,0,0,235,9,0,0,0,235,10,0,0,0,235,        49P     26
11,0,0,0,235,12,1,0,0,235,13,0,0,0,235,14,1,0,0,235,15,0,0,0,         49P     27
235,16,1,0,0,235,17,0,0,0,235,5,0,0;                                  49P     28
508,4,0,235,18,1,0,0,235,19,1,0,0,235,15,1,0,0,235,20,1,0;            51P     29
508,4,0,235,19,0,0,0,235,21,0,0,0,235,22,0,0,0,235,16,0,0;            53P     30
508,12,0,235,18,0,0,0,235,23,1,0,0,235,24,0,0,0,235,25,1,0,0,         55P     31
235,26,1,0,0,235,27,1,0,0,235,28,0,0,0,235,29,1,0,0,235,30,0,0,       55P     32
0,235,31,1,0,0,235,32,1,0,0,235,21,1,0;                               55P     33
508,4,0,235,33,1,0,0,235,34,1,0,0,235,9,1,0,0,235,35,1,0;             57P     34
508,4,0,235,34,0,0,0,235,36,0,0,0,235,37,0,0,0,235,10,1,0;            59P     35
508,4,0,235,24,1,0,0,235,38,1,0,0,235,13,1,0,0,235,39,1,0;            61P     36
508,4,0,235,39,0,0,0,235,12,0,0,0,235,40,1,0,0,235,25,0,0;            63P     37
508,4,0,235,41,1,0,0,235,42,1,0,0,235,28,1,0,0,235,43,1,0;            65P     38
508,4,0,235,42,0,0,0,235,44,0,0,0,235,45,0,0,0,235,29,0,0;            67P     39
508,4,0,235,46,1,0,0,235,47,1,0,0,235,30,1,0,0,235,45,1,0;            69P     40
508,4,0,235,47,0,0,0,235,48,0,0,0,235,49,1,0,0,235,31,0,0;            71P     41
508,4,0,235,2,0,0,0,235,50,0,0,0,235,35,0,0,0,235,8,1,0;              73P     42
508,12,0,235,1,0,0,0,235,7,1,0,0,235,51,1,0,0,235,48,1,0,0,235,       75P     43
46,0,0,0,235,44,1,0,0,235,41,0,0,0,235,52,1,0,0,235,53,1,0,0,         75P     44
235,36,1,0,0,235,33,0,0,0,235,50,1,0;                                 75P     45
508,6,0,235,54,0,0,0,235,26,0,0,0,235,40,0,0,0,235,11,1,0,0,235,      77P     46
37,1,0,0,235,53,0,0;                                                  77P     47
508,4,0,235,20,0,0,0,235,14,0,0,0,235,38,0,0,0,235,23,0,0;            79P     48
508,6,0,235,22,1,0,0,235,32,0,0,0,235,49,0,0,0,235,51,0,0,0,235,      81P     49
6,0,0,0,235,17,1,0;                                                   81P     50
508,4,0,235,43,0,0,0,235,27,0,0,0,235,54,1,0,0,235,52,0,0;            83P     51
126,2,2,0,0,0,0,-0.785398163397449,-0.785398163397449,                85P     52
-0.785398163397449,0.785398163397444,0.785398163397444,               85P     53
0.785398163397444,1.,0.707106781186548,1.,-4.,-2.,49.,-4.,-2.,        85P     54
54.,0.999999999999979,-2.,54.,-0.785398163397449,                     85P     55
0.785398163397444,0.,0.,0.;                                           85P     56
126,1,1,0,0,1,0,-0.2,-0.2,0.,0.,1.,1.,0.999999999999996,-2.,54.,      87P     57
0.999999999999996,0.,54.,-0.2,0.,0.,0.,0.;                            87P     58
126,2,2,0,0,0,0,-0.785398163397444,-0.785398163397444,                89P     59
-0.785398163397444,0.785398163397449,0.785398163397449,               89P     60
0.785398163397449,1.,0.707106781186548,1.,0.999999999999979,0.,       89P     61
54.,-4.,0.,54.,-4.,0.,49.,-0.785398163397444,0.785398163397449,       89P     62
0.,0.,0.;                                                             89P     63
126,1,1,0,0,1,0,0.,0.,0.2,0.2,1.,1.,-4.,0.,49.,-4.,-2.,49.,0.,        91P     64
0.2,0.,0.,0.;                                                         91P     65
126,1,1,0,0,1,0,0.5,0.5,5.4,5.4,1.,1.,-4.,0.,49.,-4.,0.,0.,0.5,       93P     66
5.4,0.,0.,0.;                                                         93P     67
126,1,1,0,0,1,0,0.,0.,0.2,0.2,1.,1.,-4.,0.,0.,-4.,-2.,0.,0.,0.2,      95P     68
0.,0.,0.;                                                             95P     69
126,1,1,0,0,1,0,0.5,0.5,5.4,5.4,1.,1.,-4.,-2.,49.,-4.,-2.,0.,         97P     70
0.5,5.4,0.,0.,0.;                                                     97P     71
126,1,1,0,0,1,0,0.5,0.5,16.1,16.1,1.,1.,157.,0.,54.,                  99P     72
0.999999999999979,0.,54.,0.5,16.1,0.,0.,0.;                           99P     73
126,2,2,0,0,0,0,-0.785398163397448,-0.785398163397448,               101P     74
-0.785398163397448,0.785398163397448,0.785398163397448,              101P     75
0.785398163397448,1.,0.707106781186545,1.,162.,0.,49.,162.,0.,       101P     76
54.,157.,0.,54.,-0.785398163397448,0.785398163397448,0.,0.,0.;       101P     77
126,1,1,0,0,1,0,0.,0.,4.9,4.9,1.,1.,162.,0.,0.,162.,0.,49.,0.,       103P     78
4.9,0.,0.,0.;                                                        103P     79
126,1,1,0,0,1,0,16.2,16.2,16.6,16.6,1.,1.,158.,0.,0.,162.,0.,0.,     105P     80
16.2,16.6,0.,0.,0.;                                                  105P     81
126,1,1,0,0,1,0,0.,0.,4.5,4.5,1.,1.,158.,0.,0.,158.,0.,45.,0.,       107P     82
4.5,0.,0.,0.;                                                        107P     83
126,2,2,0,0,0,0,-0.785398163397448,-0.785398163397448,               109P     84
-0.785398163397448,0.785398163397448,0.785398163397448,              109P     85
0.785398163397448,1.,0.707106781186545,1.,153.,0.,50.,158.,0.,       109P     86
50.,158.,0.,45.,-0.785398163397448,0.785398163397448,0.,0.,0.;       109P     87
126,1,1,0,0,1,0,0.5,0.5,15.3,15.3,1.,1.,153.,0.,50.,5.,0.,50.,       111P     88
0.5,15.3,0.,0.,0.;                                                   111P     89
126,2,2,0,0,0,0,-0.785398163397448,-0.785398163397448,               113P     90
-0.785398163397448,0.785398163397448,0.785398163397448,              113P     91
0.785398163397448,1.,0.707106781186548,1.,0.,0.,45.,0.,0.,50.,       113P     92
5.,0.,50.,-0.785398163397448,0.785398163397448,0.,0.,0.;             113P     93
126,1,1,0,0,1,0,0.5,0.5,5.,5.,1.,1.,0.,0.,45.,0.,0.,0.,0.5,5.,       115P     94
0.,0.,0.;                                                            115P     95
126,1,1,0,0,1,0,0.,0.,0.4,0.4,1.,1.,-4.,0.,0.,0.,0.,0.,0.,0.4,       117P     96
0.,0.,0.;                                                            117P     97
126,2,2,0,0,0,0,-0.785398163397448,-0.785398163397448,               119P     98
-0.785398163397448,0.785398163397448,0.785398163397448,              119P     99
0.785398163397448,1.,0.707106781186548,1.,5.,3.,50.,0.,3.,50.,       119P    100
0.,3.,45.,-0.785398163397448,0.785398163397448,0.,0.,0.;             119P    101
126,1,1,0,0,1,0,-0.3,-0.3,0.,0.,1.,1.,0.,3.,45.,0.,0.,45.,-0.3,      121P    102
0.,0.,0.,0.;                                                         121P    103
126,1,1,0,0,1,0,0.,0.,0.3,0.3,1.,1.,5.,0.,50.,5.,3.,50.,0.,0.3,      123P    104
0.,0.,0.;                                                            123P    105
126,1,1,0,0,1,0,-5.,-5.,-0.5,-0.5,1.,1.,0.,3.,0.,0.,3.,45.,-5.,      125P    106
-0.5,0.,0.,0.;                                                       125P    107
126,1,1,0,0,1,0,0.,0.,0.3,0.3,1.,1.,0.,0.,0.,0.,3.,0.,0.,0.3,0.,     127P    108
0.,0.;                                                               127P    109
126,1,1,0,0,1,0,-15.3,-15.3,-0.5,-0.5,1.,1.,5.,3.,50.,153.,3.,       129P    110
50.,-15.3,-0.5,0.,0.,0.;                                             129P    111
126,2,2,0,0,0,0,-0.785398163397448,-0.785398163397448,               131P    112
-0.785398163397448,0.785398163397448,0.785398163397448,              131P    113
0.785398163397448,1.,0.707106781186545,1.,158.,3.,45.,158.,3.,       131P    114
50.,153.,3.,50.,-0.785398163397448,0.785398163397448,0.,0.,0.;       131P    115
126,1,1,0,0,1,0,-4.5,-4.5,0.,0.,1.,1.,158.,3.,45.,158.,3.,0.,        133P    116
-4.5,0.,0.,0.,0.;                                                    133P    117
126,1,1,0,0,1,0,-16.2,-16.2,-16.,-16.,1.,1.,158.,3.,0.,156.,3.,      135P    118
0.,-16.2,-16.,0.,0.,0.;                                              135P    119
126,1,1,0,0,1,0,0.,0.,4.3,4.3,1.,1.,156.,3.,0.,156.,3.,43.,0.,       137P    120
4.3,0.,0.,0.;                                                        137P    121
126,2,2,0,0,0,0,-0.785398163397448,-0.785398163397448,               139P    122
-0.785398163397448,0.785398163397448,0.785398163397448,              139P    123
0.785398163397448,1.,0.707106781186545,1.,151.,3.,48.,156.,3.,       139P    124
48.,156.,3.,43.,-0.785398163397448,0.785398163397448,0.,0.,0.;       139P    125
126,1,1,0,0,1,0,0.5,0.5,14.9,14.9,1.,1.,151.,3.,48.,                 141P    126
6.99999999999999,3.,48.,0.5,14.9,0.,0.,0.;                           141P    127
126,2,2,0,0,0,0,-0.785398163397448,-0.785398163397448,               143P    128
-0.785398163397448,0.785398163397447,0.785398163397447,              143P    129
0.785398163397447,1.,0.707106781186545,1.,2.,3.,43.,2.,3.,48.,       143P    130
6.99999999999999,3.,48.,-0.785398163397448,0.785398163397447,0.,     143P    131
0.,0.;                                                               143P    132
126,1,1,0,0,1,0,0.5,0.5,4.8,4.8,1.,1.,2.,3.,43.,2.,3.,0.,0.5,        145P    133
4.8,0.,0.,0.;                                                        145P    134
126,1,1,0,0,1,0,-0.6,-0.6,-0.4,-0.4,1.,1.,2.,3.,0.,0.,3.,0.,         147P    135
-0.6,-0.4,0.,0.,0.;                                                  147P    136
126,2,2,0,0,0,0,-0.785398163397448,-0.785398163397448,               149P    137
-0.785398163397448,0.785398163397448,0.785398163397448,              149P    138
0.785398163397448,1.,0.707106781186545,1.,157.,-2.,54.,162.,-2.,     149P    139
54.,162.,-2.,49.,-0.785398163397448,0.785398163397448,0.,0.,0.;      149P    140
126,1,1,0,0,1,0,-0.2,-0.2,0.,0.,1.,1.,162.,-2.,49.,162.,0.,49.,      151P    141
-0.2,0.,0.,0.,0.;                                                    151P    142
126,1,1,0,0,1,0,0.,0.,0.2,0.2,1.,1.,157.,0.,54.,157.,-2.,54.,0.,     153P    143
0.2,0.,0.,0.;                                                        153P    144
126,1,1,0,0,1,0,0.,0.,4.9,4.9,1.,1.,162.,-2.,0.,162.,-2.,49.,0.,     155P    145
4.9,0.,0.,0.;                                                        155P    146
126,1,1,0,0,1,0,0.,0.,0.2,0.2,1.,1.,162.,0.,0.,162.,-2.,0.,0.,       157P    147
0.2,0.,0.,0.;                                                        157P    148
126,1,1,0,0,1,0,-0.3,-0.3,0.,0.,1.,1.,153.,3.,50.,153.,0.,50.,       159P    149
-0.3,0.,0.,0.,0.;                                                    159P    150
126,1,1,0,0,1,0,0.,0.,0.3,0.3,1.,1.,158.,0.,45.,158.,3.,45.,0.,      161P    151
0.3,0.,0.,0.;                                                        161P    152
126,1,1,0,0,1,0,0.,0.,0.3,0.3,1.,1.,158.,0.,0.,158.,3.,0.,0.,        163P    153
0.3,0.,0.,0.;                                                        163P    154
126,2,2,0,0,0,0,-0.785398163397448,-0.785398163397448,               165P    155
-0.785398163397448,0.785398163397448,0.785398163397448,              165P    156
0.785398163397448,1.,0.707106781186545,1.,156.,-2.,43.,156.,-2.,     165P    157
48.,151.,-2.,48.,-0.785398163397448,0.785398163397448,0.,0.,0.;      165P    158
126,1,1,0,0,1,0,-0.2,-0.2,0.3,0.3,1.,1.,151.,-2.,48.,151.,3.,        167P    159
48.,-0.2,0.3,0.,0.,0.;                                               167P    160
126,1,1,0,0,1,0,-0.3,-0.3,0.2,0.2,1.,1.,156.,3.,43.,156.,-2.,        169P    161
43.,-0.3,0.2,0.,0.,0.;                                               169P    162
126,1,1,0,0,1,0,-14.9,-14.9,-0.5,-0.5,1.,1.,6.99999999999999,        171P    163
-2.,48.,151.,-2.,48.,-14.9,-0.5,0.,0.,0.;                            171P    164
126,1,1,0,0,1,0,-0.3,-0.3,0.2,0.2,1.,1.,7.,3.,48.,7.,-2.,48.,        173P    165
-0.3,0.2,0.,0.,0.;                                                   173P    166
126,2,2,0,0,0,0,-0.785398163397447,-0.785398163397447,               175P    167
-0.785398163397447,0.785398163397448,0.785398163397448,              175P    168
0.785398163397448,1.,0.707106781186545,1.,6.99999999999999,-2.,      175P    169
48.,2.,-2.,48.,2.,-2.,43.,-0.785398163397447,0.785398163397448,      175P    170
0.,0.,0.;                                                            175P    171
126,1,1,0,0,1,0,-0.2,-0.2,0.3,0.3,1.,1.,2.,-2.,43.,2.,3.,43.,        177P    172
-0.2,0.3,0.,0.,0.;                                                   177P    173
126,1,1,0,0,1,0,-4.8,-4.8,-0.5,-0.5,1.,1.,2.,-2.,0.,2.,-2.,43.,      179P    174
-4.8,-0.5,0.,0.,0.;                                                  179P    175
126,1,1,0,0,1,0,-0.2,-0.2,0.3,0.3,1.,1.,2.,-2.,0.,2.,3.,0.,-0.2,     181P    176
0.3,0.,0.,0.;                                                        181P    177
126,1,1,0,0,1,0,0.5,0.5,16.1,16.1,1.,1.,157.,-2.,54.,                183P    178
0.999999999999979,-2.,54.,0.5,16.1,0.,0.,0.;                         183P    179
126,1,1,0,0,1,0,0.,0.,0.6,0.6,1.,1.,-4.,-2.,0.,2.,-2.,0.,0.,0.6,     185P    180
0.,0.,0.;                                                            185P    181
126,1,1,0,0,1,0,-4.3,-4.3,0.,0.,1.,1.,156.,-2.,43.,156.,-2.,0.,      187P    182
-4.3,0.,0.,0.,0.;                                                    187P    183
126,1,1,0,0,1,0,16.,16.,16.6,16.6,1.,1.,156.,-2.,0.,162.,-2.,0.,     189P    184
16.,16.6,0.,0.,0.;                                                   189P    185
126,1,1,0,0,1,0,-0.3,-0.3,0.2,0.2,1.,1.,156.,3.,0.,156.,-2.,0.,      191P    186
-0.3,0.2,0.,0.,0.;                                                   191P    187
128,1,2,1,2,0,0,0,0,0,0.,0.,0.4,0.4,-0.785398163397448,              193P    188
-0.785398163397448,-0.785398163397448,0.785398163397449,             193P    189
0.785398163397449,0.785398163397449,1.,1.,0.707106781186548,         193P    190
0.707106781186548,1.,1.,0.999999999999998,-2.,54.,                   193P    191
0.999999999999998,0.,54.,-4.,-2.,54.,-4.,0.,54.,-4.,-2.,49.,-4.,     193P    192
0.,49.,0.,0.4,-0.785398163397448,0.785398163397449;                  193P    193
128,1,1,1,1,0,0,1,0,0,0.499,0.499,5.401,5.401,-0.001,-0.001,         195P    194
0.201,0.201,1.,1.,1.,1.,-4.,0.01,49.01,-4.,0.01,                     195P    195
-0.0100000000000033,-4.,-2.01,49.01,-4.,-2.01,                       195P    196
-0.0100000000000033,0.499,5.401,-0.001,0.201;                        195P    197
128,1,1,1,1,0,0,1,0,0,-8.301,-8.301,8.301,8.301,-2.701,-2.701,       197P    198
2.701,2.701,1.,1.,1.,1.,-4.01000000000001,0.,54.01,162.01,0.,        197P    199
54.01,-4.01000000000001,0.,-0.0099999999999989,162.01,0.,            197P    200
-0.00999999999999446,-8.301,8.301,-2.701,2.701;                      197P    201
128,1,2,1,2,0,0,0,0,0,0.,0.,0.6,0.6,-0.785398163397448,              199P    202
-0.785398163397448,-0.785398163397448,0.785398163397448,             199P    203
0.785398163397448,0.785398163397448,1.,1.,0.707106781186548,         199P    204
0.707106781186548,1.,1.,-1.66533453693773D-15,3.,45.,                199P    205
-1.66533453693773D-15,0.,45.,1.11022302462516D-15,3.,50.,            199P    206
1.11022302462516D-15,0.,50.,5.,3.,50.,5.,0.,50.,0.,0.6,              199P    207
-0.785398163397448,0.785398163397448;                                199P    208
128,1,1,1,1,0,0,1,0,0,-0.001,-0.001,4.501,4.501,-0.001,-0.001,       201P    209
0.301,0.301,1.,1.,1.,1.,0.,-0.01,-0.01,0.,-0.01,45.01,0.,3.01,       201P    210
-0.01,0.,3.01,45.01,-0.001,4.501,-0.001,0.301;                       201P    211
128,1,1,1,1,0,0,1,0,0,-2.501,-2.501,2.501,2.501,-7.901,-7.901,       203P    212
7.901,7.901,1.,1.,1.,1.,-0.0100000000000033,3.,                      203P    213
-0.0099999999999989,-0.0100000000000033,3.,50.01,158.01,3.,          203P    214
-0.0099999999999989,158.01,3.,50.01,-2.501,2.501,-7.901,7.901;       203P    215
128,1,2,1,2,0,0,0,0,0,0.,0.,0.4,0.4,-0.785398163397448,              205P    216
-0.785398163397448,-0.785398163397448,0.785398163397448,             205P    217
0.785398163397448,0.785398163397448,1.,1.,0.707106781186548,         205P    218
0.707106781186548,1.,1.,162.,-2.,49.,162.,0.,49.,162.,-2.,54.,       205P    219
162.,0.,54.,157.,-2.,54.,157.,0.,54.,0.,0.4,-0.785398163397448,      205P    220
0.785398163397448;                                                   205P    221
128,1,1,1,1,0,0,1,0,0,-0.001,-0.001,4.901,4.901,-0.001,-0.001,       207P    222
0.201,0.201,1.,1.,1.,1.,162.,0.01,-0.01,162.,0.01,49.01,162.,        207P    223
-2.01,-0.01,162.,-2.01,49.01,-0.001,4.901,-0.001,0.201;              207P    224
128,1,2,1,2,0,0,0,0,0,0.,0.,0.6,0.6,-0.785398163397448,              209P    225
-0.785398163397448,-0.785398163397448,0.785398163397448,             209P    226
0.785398163397448,0.785398163397448,1.,1.,0.707106781186548,         209P    227
0.707106781186548,1.,1.,153.,3.,50.,153.,0.,50.,158.,3.,50.,         209P    228
158.,0.,50.,158.,3.,45.,158.,0.,45.,0.,0.6,-0.785398163397448,       209P    229
0.785398163397448;                                                   209P    230
128,1,1,1,1,0,0,1,0,0,0.499,0.499,5.001,5.001,-0.001,-0.001,         211P    231
0.301,0.301,1.,1.,1.,1.,158.,-0.01,45.01,158.,-0.01,                 211P    232
-0.0100000000000033,158.,3.01,45.01,158.,3.01,                       211P    233
-0.0100000000000033,0.499,5.001,-0.001,0.301;                        211P    234
128,1,2,1,2,0,0,0,0,0,-0.4,-0.4,0.6,0.6,-0.785398163397448,          213P    235
-0.785398163397448,-0.785398163397448,0.785398163397448,             213P    236
0.785398163397448,0.785398163397448,1.,1.,0.707106781186548,         213P    237
0.707106781186548,1.,1.,151.,-2.,48.,151.,3.,48.,156.,-2.,48.,       213P    238
156.,3.,48.,156.,-2.,43.,156.,3.,43.,-0.4,0.6,                       213P    239
-0.785398163397448,0.785398163397448;                                213P    240
128,1,1,1,1,0,0,1,0,0,0.499,0.499,14.901,14.901,-0.201,-0.201,       215P    241
0.301,0.301,1.,1.,1.,1.,151.01,-2.01,48.,6.99,-2.01,48.,151.01,      215P    242
3.01,48.,6.99,3.01,48.,0.499,14.901,-0.201,0.301;                    215P    243
128,1,2,1,2,0,0,0,0,0,-0.4,-0.4,0.6,0.6,-0.785398163397448,          217P    244
-0.785398163397448,-0.785398163397448,0.785398163397448,             217P    245
0.785398163397448,0.785398163397448,1.,1.,0.707106781186548,         217P    246
0.707106781186548,1.,1.,2.,-2.,43.,2.,3.,43.,2.,-2.,48.,2.,3.,       217P    247
48.,7.,-2.,48.,7.,3.,48.,-0.4,0.6,-0.785398163397448,                217P    248
0.785398163397448;                                                   217P    249
128,1,1,1,1,0,0,1,0,0,0.499,0.499,4.801,4.801,-0.201,-0.201,         219P    250
0.301,0.301,1.,1.,1.,1.,2.,-2.01,43.01,2.,-2.01,                     219P    251
-0.0100000000000033,2.,3.01,43.01,2.,3.01,-0.0100000000000033,       219P    252
0.499,4.801,-0.201,0.301;                                            219P    253
128,1,1,1,1,0,0,1,0,0,0.499,0.499,16.101,16.101,-0.001,-0.001,       221P    254
0.201,0.201,1.,1.,1.,1.,157.01,0.01,54.,0.989999999999966,0.01,      221P    255
54.,157.01,-2.01,54.,0.989999999999966,-2.01,54.,0.499,16.101,       221P    256
-0.001,0.201;                                                        221P    257
128,1,1,1,1,0,0,1,0,0,-2.701,-2.701,2.701,2.701,-8.301,-8.301,       223P    258
8.301,8.301,1.,1.,1.,1.,-4.01000000000001,-2.,54.01,                 223P    259
-4.01000000000001,-2.,-0.0099999999999989,162.01,-2.,54.01,          223P    260
162.01,-2.,-0.00999999999999446,-2.701,2.701,-8.301,8.301;           223P    261
128,1,1,1,1,0,0,1,0,0,-0.401,-0.401,0.200999999999999,               225P    262
0.200999999999999,-0.201,-0.201,0.301,0.301,1.,1.,1.,1.,162.01,      225P    263
-2.01,0.,155.99,-2.01,0.,162.01,3.01,0.,155.99,3.01,0.,-0.401,       225P    264
0.200999999999999,-0.201,0.301;                                      225P    265
128,1,1,1,1,0,0,1,0,0,0.499,0.499,15.301,15.301,-0.001,-0.001,       227P    266
0.301,0.301,1.,1.,1.,1.,4.99,-0.01,50.,153.01,-0.01,50.,4.99,        227P    267
3.01,50.,153.01,3.01,50.,0.499,15.301,-0.001,0.301;                  227P    268
128,1,1,1,1,0,0,1,0,0,-0.001,-0.001,0.601,0.601,-0.201,-0.201,       229P    269
0.301,0.301,1.,1.,1.,1.,2.01,-2.01,0.,-4.01,-2.01,0.,2.01,3.01,      229P    270
0.,-4.01,3.01,0.,-0.001,0.601,-0.201,0.301;                          229P    271
128,1,1,1,1,0,0,1,0,0,-0.001,-0.001,4.301,4.301,-0.201,-0.201,       231P    272
0.301,0.301,1.,1.,1.,1.,156.,-2.01,-0.01,156.,-2.01,43.01,156.,      231P    273
3.01,-0.01,156.,3.01,43.01,-0.001,4.301,-0.201,0.301;                231P    274
502,36,-4.,-2.,49.,0.999999999999979,-2.,54.,0.999999999999979,      233P    275
0.,54.,-4.,0.,49.,-4.,0.,0.,-4.,-2.,0.,157.,0.,54.,162.,0.,49.,      233P    276
162.,0.,0.,158.,0.,0.,158.,0.,45.,153.,0.,50.,5.,0.,50.,0.,0.,       233P    277
45.,0.,0.,0.,5.,3.,50.,0.,3.,45.,0.,3.,0.,153.,3.,50.,158.,3.,       233P    278
45.,158.,3.,0.,156.,3.,0.,156.,3.,43.,151.,3.,48.,                   233P    279
6.99999999999999,3.,48.,2.,3.,43.,2.00000000000001,3.,0.,157.,       233P    280
-2.,54.,162.,-2.,49.,162.,-2.,0.,156.,-2.,43.,151.,-2.,48.,          233P    281
6.99999999999999,-2.,48.,2.,-2.,43.,2.00000000000001,-2.,0.,         233P    282
156.,-2.,0.;                                                         233P    283
504,54,85,233,1,233,2,87,233,2,233,3,89,233,3,233,4,91,233,4,        235P    284
233,1,93,233,4,233,5,95,233,5,233,6,97,233,1,233,6,99,233,7,233,     235P    285
3,101,233,8,233,7,103,233,9,233,8,105,233,10,233,9,107,233,10,       235P    286
233,11,109,233,12,233,11,111,233,12,233,13,113,233,14,233,13,        235P    287
115,233,14,233,15,117,233,5,233,15,119,233,16,233,17,121,233,17,     235P    288
233,14,123,233,13,233,16,125,233,18,233,17,127,233,15,233,18,        235P    289
129,233,16,233,19,131,233,20,233,19,133,233,20,233,21,135,233,       235P    290
21,233,22,137,233,22,233,23,139,233,24,233,23,141,233,24,233,25,     235P    291
143,233,26,233,25,145,233,26,233,27,147,233,27,233,18,149,233,       235P    292
28,233,29,151,233,29,233,8,153,233,7,233,28,155,233,30,233,29,       235P    293
157,233,9,233,30,159,233,19,233,12,161,233,11,233,20,163,233,10,     235P    294
233,21,165,233,31,233,32,167,233,32,233,24,169,233,23,233,31,        235P    295
171,233,33,233,32,173,233,25,233,33,175,233,33,233,34,177,233,       235P    296
34,233,26,179,233,35,233,34,181,233,35,233,27,183,233,28,233,2,      235P    297
185,233,6,233,35,187,233,31,233,36,189,233,36,233,30,191,233,22,     235P    298
233,36;                                                              235P    299
406,1,5HBody1;                                                       237P    300
314,62.7450980392157,62.7450980392157,62.7450980392157,13HSteel      239P    301
- Satin;                                                             239P    302
S      1G      3D    240P    302                                        T      1
