<svg xmlns="http://www.w3.org/2000/svg" viewBox="0 0 973.1 1116.48"><defs><style>.cls-1{fill:#d61e39;}.cls-2{fill:#231f20;}</style></defs><g id="Layer_2" data-name="Layer 2"><g id="_0" data-name="0"><g id="Layer_2-2" data-name="Layer 2"><path class="cls-1" d="M75,823.87l-5.64-21a14.21,14.21,0,0,0-6.63-8.65l-15-8.67a21.08,21.08,0,0,0-28.8,7.72c-.17.3-.34.6-.49.9l-13,25.33a14.6,14.6,0,0,0,6.31,19.66l.17.09,44.05,21.92,13.35-3.58-.13-.49-7.54-28.13L74,825.62a1.44,1.44,0,0,0,.8-.56l.15-.28.09-.31v-.31ZM17.47,811.42A2.5,2.5,0,1,1,15,813.91,2.49,2.49,0,0,1,17.47,811.42Zm5.8,19.6-6.67,1.79-4.89-4.89,1.79-6.67,6.68-1.79,4.88,4.89Zm13.9-10.44A16.81,16.81,0,1,1,54,803.77,16.81,16.81,0,0,1,37.17,820.58Zm20,30.73a2.5,2.5,0,1,1,2.49-2.49A2.5,2.5,0,0,1,57.17,851.31Zm3.21-43.58a2.49,2.49,0,1,1,2.49-2.49A2.48,2.48,0,0,1,60.38,807.73Z"/><path class="cls-2" d="M92.41,759.28,85,728.63A4.24,4.24,0,0,0,83,726l-5.79-3.52a4.27,4.27,0,0,0-5.87,1.42L46.18,765.27a4.27,4.27,0,0,0,1.43,5.87l26.77,16.29a2.85,2.85,0,0,0,3.91-.95l13.28-21.82A7.1,7.1,0,0,0,92.41,759.28Zm-6.77-3.72a1.46,1.46,0,0,1-1.08-.16l-6.58-4a1.41,1.41,0,0,1-.48-2l4-6.59a1.43,1.43,0,0,1,2-.48,1.46,1.46,0,0,1,.64.88l2.58,10.6A1.42,1.42,0,0,1,85.64,755.56Z"/><path class="cls-2" d="M341.8,637.49l-14.56-8.4a110,110,0,0,0-25.52-10.73,56.57,56.57,0,0,1-13.19-5.54L229.89,579a39.69,39.69,0,0,0-27.68-4.55l-54.52,10.92a14.24,14.24,0,0,0-9.54,6.84L90.48,674.75a14.24,14.24,0,0,0-1.16,11.68l17.8,52.68a39.78,39.78,0,0,0,17.78,21.7l58.64,33.85a56.87,56.87,0,0,1,11.4,8.66,110.58,110.58,0,0,0,22,16.74l14.56,8.4a5.71,5.71,0,0,0,7.56-1.72h0l105-181.85h0A5.69,5.69,0,0,0,341.8,637.49Zm-237.94,27-.09.5-.15.5-.21.47-.26.44-.31.41-.36.37-.4.33-.44.26-.24.1-.25.08-.25.05-.25,0h-.26l-.26-.05a1.54,1.54,0,0,1-.76-.44l-.17-.2-.14-.22-.1-.23-.08-.25-.06-.25,0-.25v-.52l.07-.51.15-.49.2-.48.25-.44.31-.42.35-.38.39-.33.44-.27.24-.11.24-.08.25-.06.26,0h.25l.26,0,.25.08.23.11.21.14.19.18.16.2.12.23.11.23.07.25,0,.25,0,.26Zm71.14-34,.08-.51.15-.49.2-.48.25-.44.31-.42.35-.38.39-.33.44-.27.23-.1.25-.09.25-.06.25,0h.26l.26,0,.24.08.24.11.21.14.18.18.16.21.13.22.1.24.08.24,0,.26,0,.25,0,.52-.08.5-.16.5-.2.47-.27.44-.31.41-.35.38-.4.32-.45.26-.23.1-.25.08-.25.05-.26,0h-.25l-.26,0a1.57,1.57,0,0,1-.77-.44l-.16-.2-.14-.22-.11-.23-.08-.24-.05-.26,0-.25Zm-41.95-24.22.08-.51.14-.49.2-.48.26-.44.3-.42.35-.38.4-.33.44-.27.23-.11.25-.08.25-.06.25,0h.26l.25,0,.25.08.23.11.22.14.18.18.16.2.13.23.1.23.07.25,0,.25,0,.26v.52l-.09.5-.15.5-.21.47-.26.44-.31.41-.35.37-.41.33-.44.26-.24.1-.24.08-.25,0-.26,0h-.26l-.25,0a1.66,1.66,0,0,1-.77-.44l-.17-.2-.13-.22-.11-.23-.08-.25,0-.25,0-.25Zm-6.38,75.37-.67-.14-.67-.17-.65-.2-.65-.22-.65-.24-.59-.48-.58-.51-.55-.54-.53-.56-.51-.57-.49-.6-.46-.62-.44-.63-.42-.65-.39-.67-.38-.67-.35-.69-.33-.71-.31-.71-.55-1.44-.24-.74-.21-.73-.36-1.5-.29-1.52-.22-1.52L115,663l-.14-1.54-.13-1.54-.17-1.53,22-38,1.41-.63,1.4-.65,1.41-.64,1.41-.62,1.44-.57,1.45-.51,1.48-.44.75-.18L148,616l1.53-.25.77-.09.77-.06.77,0,.78,0h.77l.77,0,.77.07.77.09.76.12.75.15.75.18.74.21.73.25.72.27.53.44.51.45.5.47.48.49.46.51.45.52.83,1.09.77,1.13.69,1.19.62,1.22.55,1.25.48,1.29.41,1.3.35,1.33.29,1.34.23,1.35.16,1.36.12,1.36.06,1.37v1.37l0,1.37-.09,1.37-.14,1.37-.18,1.35-.22,1.36-.26,1.34-.31,1.34-.34,1.32-.38,1.32-.42,1.31-.45,1.29-.49,1.28-.53,1.26-.55,1.26-.59,1.23a54.2,54.2,0,0,1-3.39,5.87l-.78,1.13-.8,1.11-.84,1.08-.86,1.07-.89,1-.93,1-.94,1-1,1-1,.93-1,.9-1.06.87-1.09.84-1.11.79-1.14.77-1.17.72-1.19.67-1.21.64-1.24.58-1.26.53-1.29.48-1.3.42-1.32.36-1.34.3-1.35.22-1.37.16-1.36.07h-1.38l-1.36-.09-1.36-.18Zm19.15,6.54v.52l-.09.5-.15.5-.21.47-.26.44-.31.41-.36.38-.4.32-.44.26-.24.1-.24.08-.26,0-.25,0h-.26l-.25-.05a1.53,1.53,0,0,1-.77-.44l-.17-.2-.13-.22-.11-.23-.08-.24-.06-.26,0-.25v-.52l.08-.51.14-.49.2-.48.26-.44.3-.42.35-.38.4-.33.44-.27.23-.1.24-.09.25-.06.26,0h.26l.25,0,.25.07.23.11.21.14.19.18.16.21.13.22.1.24.07.24.05.26ZM210.07,790a3.92,3.92,0,0,1-7.83,0h0a3.92,3.92,0,1,1,7.83,0Zm12.82,23.2a3.35,3.35,0,1,1,3.35-3.34A3.34,3.34,0,0,1,222.89,813.16Zm57.89-87.86a7.41,7.41,0,1,1-14.82,0h0a7.41,7.41,0,0,1,14.82,0Zm10.45-81.59L211.64,781.56a4.29,4.29,0,0,1-4.42,2.07,6.41,6.41,0,0,0-6.57,3,4.28,4.28,0,0,1-5.81,1.52l-61.7-35.62c-.46-.27-.92-.55-1.37-.85a7.12,7.12,0,0,1-2.27-9.52l86.58-150a7.12,7.12,0,0,1,9.37-2.8c.48.24,1,.5,1.43.77l61.69,35.62a4.28,4.28,0,0,1,1.59,5.79,6.4,6.4,0,0,0,.66,7.21A4.29,4.29,0,0,1,291.23,643.71Zm8.44-9a3.92,3.92,0,1,1-7.83,0h0a3.92,3.92,0,0,1,7.83,0Zm21.66,7.91a3.35,3.35,0,1,1,3.35-3.35A3.35,3.35,0,0,1,321.33,642.67Z"/><path class="cls-2" d="M124.38,582.93l-8.65-5a6.26,6.26,0,0,0-4.75-.62l-8.15,2.18A6.26,6.26,0,0,0,99,582.41l-12.13,21a6.28,6.28,0,0,0-.62,4.76l2.18,8.15a6.27,6.27,0,0,0,2.92,3.8l8.65,5a5.14,5.14,0,0,0,7-1.88l19.23-33.31A5.11,5.11,0,0,0,124.38,582.93Zm-15.31,16.84a4.27,4.27,0,0,1-8.54,0v0a4.27,4.27,0,1,1,8.54,0Z"/><path class="cls-2" d="M44.83,559.56H2.09v15.1H1v8.55H2.09v10h8.45a7.15,7.15,0,0,0,5-2.08l.67-.67a7.08,7.08,0,0,1,5-2.09H44.83a4.27,4.27,0,0,0,4.27-4.27V563.84A4.28,4.28,0,0,0,44.83,559.56Zm-9.69,14.25a3.85,3.85,0,1,1-7.69,0v-1.14a3.85,3.85,0,1,1,7.69,0Z"/><path class="cls-2" d="M107.28,534.72a14.23,14.23,0,0,0-4-.56h-.26a.85.85,0,0,1-.85-.85.81.81,0,0,1,.16-.5,5.41,5.41,0,0,0-4-8.55,2.86,2.86,0,0,1-2.66-2.85V491.6a2.85,2.85,0,0,1,2.66-2.84,5.42,5.42,0,0,0,5-5.77,5.48,5.48,0,0,0-1-2.78.84.84,0,0,1,.2-1.19.78.78,0,0,1,.49-.16h.26a14.23,14.23,0,0,0,4-.56l12.55-3.63a19.39,19.39,0,0,0-17.62-11.31H76.37a128.55,128.55,0,0,0-17.86,1.25,62.21,62.21,0,0,0-20.65,6.71v25.07l-.44.53-.48.55-1,1.09-.51.5-.5.46-.53.45-.52.42-.19.17-.13.19-.08.19,0,.16v10.82l0,.16.08.19.13.19.19.17.52.42.53.45.5.46.51.5,1,1.09.48.55.44.52V543.7q2.7.9,5.45,1.64a128.59,128.59,0,0,0,33.06,4.32h25.84a19.39,19.39,0,0,0,17.62-11.31Zm-.12-64.48a3.35,3.35,0,1,1-3.35,3.35A3.35,3.35,0,0,1,107.16,470.24ZM51,527.35l-.46-.36h0l-.5-.39h0l-.29-.22-1-.85.12.1-.22-.19-.09-.08-.34-.34.27.28-1-1-.19-.21.08.09-.61-.69.08.1-.39-.44-.41-.53.15.19-.61-.77.05.06-.14-.17-.88-1.27,0,0c.16.24.34.48.51.72l-.42-.6-.55-.89c.09.14.16.29.25.43l-.58-1-.17-.32c0,.08.09.16.14.24l-.52-1c0,.05.05.11.08.17l-.26-.49-.33-.73.22.45-.46-1L42,515.28c.18.49.37,1,.58,1.46l-.09-.2L42,515.1l0-.08c0,.09.07.17.1.26l-.36-1.11c.05.17.1.35.16.53l-.35-1.08-.1-.39c0,.12.08.25.11.37l-.3-1.14a1.29,1.29,0,0,1,0,.19l-.13-.52-.16-.82c0,.23.1.46.15.69l-.23-1.15-.21-1.41c.06.45.11.9.19,1.34l0-.17-.2-1.54V509c0,.11,0,.22.05.34l-.11-1.28c0,.15,0,.3,0,.44l-.07-1v-.41c0,.16,0,.31,0,.47l0-1.28V506l0-.88c0,.36,0,.72,0,1.07l0-1.41.11-1.16c0,.31-.08.63-.1.95v-.11l.16-1.54,0-.17c0,.13,0,.26,0,.39l.18-1.16a2,2,0,0,0-.05.24l.14-.83.13-.57c0,.17-.06.34-.1.5l.23-1.06.14-.54c0,.18-.1.35-.14.53l.08-.37.43-1.48c0,.1-.05.21-.09.32l.47-1.38.58-1.42.65-1.38.74-1.34.81-1.29.89-1.24,1-1.19,1-1.13c.4-.42.81-.82,1.24-1.2l-.25.25a27.19,27.19,0,0,0,.68,38.44,29.85,29.85,0,0,0,2.64,2.25c-.51-.34-1-.71-1.47-1.08Zm6.08,4.83c-2.62-1.14-4.52-2.59-4.79-5.65-.25-2.74.31-4.53,3.53-5.07,1.73-.29,2.3-2.21,2.29-4.09-.06-7.27,0-14.53,0-21.8,0-1.93-1-3-2.49-4.06-4.64-3.17-4.27-7.34,1-9.63,10.57-4.6,27.59,1.92,31.27,10.35,2.13,4.88,4.42,9.56,3.89,14.86C93.4,526.49,70.78,538.11,57.11,532.18ZM93.7,483.34a4.28,4.28,0,0,1,8.55,0v0a4.28,4.28,0,0,1-8.55,0ZM98,533.94a4.28,4.28,0,0,1-4.27-4.28v0a4.28,4.28,0,0,1,8.55,0h0A4.28,4.28,0,0,1,98,533.94Zm9.19,8.84a3.35,3.35,0,1,1,3.35-3.35A3.34,3.34,0,0,1,107.16,542.78Z"/><path class="cls-2" d="M80,317.39a4.27,4.27,0,0,0-4.63-3.88L52,315.56a7.17,7.17,0,0,1-5.2-1.64l-.73-.61a7.17,7.17,0,0,0-5.2-1.64l-8.41.74.87,9.93-1.14.1L32.9,331l1.13-.1,1.32,15,42.57-3.73a4.28,4.28,0,0,0,3.89-4.63ZM63.63,334.13a3.84,3.84,0,0,1-4.16-3.5l-.1-1.13a3.84,3.84,0,1,1,7.66-.67l.1,1.13A3.85,3.85,0,0,1,63.63,334.13Z"/><path class="cls-1" d="M114.5,261l-.06-.33-.1-.31-.12-.31-.15-.29L99.17,234a4.65,4.65,0,0,0,.34-.56l.12-.33,0-.36,0-.35-.14-.33-3.37-5.83-.22-.29-.28-.22-.32-.14-.36-.06A5.4,5.4,0,0,0,89.65,229l-11,6.38-.34.17-.35.15-.73.24-.73.17-.75.1a5.39,5.39,0,0,0-4.91,5.64v.42l0,.42-.06.4-.08.39-.11.38-.13.36-.17.35-.2.33a15.43,15.43,0,0,1-5,4.53L38.14,265a4.47,4.47,0,0,0-2.24,3.88v14.81l0,.38.06.38.09.38.11.37.14.36.16.35.18.34L40.58,293l.17.28.2.25.23.24.25.21.26.18.28.17.3.13.3.11.6.14.64.07h.67l.69-.08.69-.15.7-.21.68-.29.66-.34,41.93-24.21a4.27,4.27,0,0,1,5.43,1l.33.37.35.36.38.32.4.29.35.2.36.17.26.08.27.06.27,0h.27l.27,0,.26-.06.26-.09.24-.13,13.31-7.68.28-.18.26-.2.24-.23.22-.25.19-.27.16-.29.13-.3.1-.31.07-.32,0-.33v-.33ZM73.78,241.59a2.43,2.43,0,1,1,4.85,0h0a2.43,2.43,0,0,1-4.85,0ZM91.2,260.46,59.07,279a5.71,5.71,0,0,1-7.79-2.09l-1.42-2.46a5.7,5.7,0,0,1,2.08-7.79l32.14-18.55a5.7,5.7,0,0,1,7.78,2.08l1.43,2.47A5.71,5.71,0,0,1,91.2,260.46Zm5.93-29.53a2.42,2.42,0,0,1-4.84,0h0a2.42,2.42,0,1,1,4.84,0Z"/><path class="cls-1" d="M135.55,286.36l-9.26-16a1.43,1.43,0,0,0-2-.52l-7.4,4.28a7.12,7.12,0,0,0-2.61,9.72L117.9,290a7.12,7.12,0,0,0,9.73,2.61l7.4-4.27A1.43,1.43,0,0,0,135.55,286.36Zm-8-3.73a4,4,0,0,1-8,0v0a4,4,0,1,1,8,0Z"/><path class="cls-2" d="M161.09,312.4h3a1.42,1.42,0,0,0,1.42-1.43V301a1.41,1.41,0,0,0-1.42-1.42h-3.73a5.77,5.77,0,0,0-2.84.75,42.73,42.73,0,0,1-40.73,1,15.84,15.84,0,0,0-7.24-1.74h-15A1.42,1.42,0,0,0,93.15,301v1.14a1.43,1.43,0,0,0,1.42,1.43h2.85a2.42,2.42,0,0,1,0,4.84H94.57a1.43,1.43,0,0,0-1.42,1.42v.49A5.73,5.73,0,0,0,94.48,314l3.17,3.77c.11.13.21.27.31.41l-.1.1-.54.64-.59.65-.61.63-.6.58-.38.41-.36.39-.33.38-.32.36-.19.26-.13.29-.07.31,0,.31v9.17l0,.32.07.31.13.28.19.27.32.36.33.37.36.39.38.41.6.58.61.63.59.65.54.64.1.1c-.1.14-.2.28-.31.41l-3.17,3.78a5.68,5.68,0,0,0-1.33,3.66v.49a1.43,1.43,0,0,0,1.42,1.43h2.85a2.42,2.42,0,1,1,0,4.84H94.57A1.43,1.43,0,0,0,93.15,354v1.14a1.42,1.42,0,0,0,.57,1.14,1.37,1.37,0,0,0,.85.29h15a15.85,15.85,0,0,0,7.24-1.75,42.73,42.73,0,0,1,40.73,1,5.67,5.67,0,0,0,2.84.76h3.73a1.42,1.42,0,0,0,1.42-1.43v-10a1.41,1.41,0,0,0-1.42-1.42h-3a4.28,4.28,0,0,1-4.27-4.28V316.67A4.27,4.27,0,0,1,161.09,312.4Zm-53.45,36.25a2.49,2.49,0,1,1,2.49-2.49A2.49,2.49,0,0,1,107.64,348.65Zm0-36.18a2.5,2.5,0,1,1,2.49-2.49A2.49,2.49,0,0,1,107.64,312.47Zm43.55,28.42a2.85,2.85,0,0,1-2.85,2.85H116.08a2.87,2.87,0,0,1-2.28-1.14,1.37,1.37,0,0,1,.85-.29h2.28a1.43,1.43,0,0,0,1.43-1.42V315.25a1.43,1.43,0,0,0-1.43-1.43h-2.28a1.42,1.42,0,0,1-.85-.28,2.84,2.84,0,0,1,2.28-1.14h32.26a2.84,2.84,0,0,1,2.85,2.85Zm7.91,7.83a2.5,2.5,0,1,1-2.49,2.5A2.5,2.5,0,0,1,159.1,348.72Zm-2.49-43.8a2.5,2.5,0,1,1,2.49,2.49A2.49,2.49,0,0,1,156.61,304.92Z"/><path class="cls-2" d="M226.93,341.74v-.23l-.1-.2-.17-.15-4.93-2.85-.79.22-.07.12-3.7-2.13,8.73-15.12a1.14,1.14,0,0,0-.42-1.55l-22-12.68a1.43,1.43,0,0,0-1.95.52L193,322.56a1.43,1.43,0,0,0,.52,1.95l14.06,8.12a.72.72,0,0,1,.27,1l-3.56,6.16,1,.58-4.56,7.9-1-.58-2.56,4.44,1,.58-4.56,7.9-1-.59L189,366.17a.72.72,0,0,1-1,.26l-17.77-10.26a1.42,1.42,0,0,0-1.94.52l-14.09,24.4a7.13,7.13,0,0,0,1,8.43A56.76,56.76,0,0,0,168.36,400l20,11.54a1.42,1.42,0,0,0,1.95-.52l1-1.78a4.22,4.22,0,0,0,.43-3.24l-.12-.46-1.09-.63L226.85,342ZM170,387.8a4.27,4.27,0,1,1-8.54,0v0a4.27,4.27,0,1,1,8.54,0Zm24.15-4.67-2.1,3.64a4.26,4.26,0,0,1-5.83,1.57l-8.39-4.85a4.26,4.26,0,0,1-1.57-5.83l2.1-3.64a4.27,4.27,0,0,1,5.84-1.57l8.39,4.85A4.27,4.27,0,0,1,194.19,383.13Zm14.45-62.06a4.28,4.28,0,1,1,4.28-4.27A4.27,4.27,0,0,1,208.64,321.07Z"/><path class="cls-2" d="M173.58,427.16l-33.31-19.23a5.13,5.13,0,0,0-7,1.87l-5,8.66a6.26,6.26,0,0,0-.63,4.75l10,37.34a6.26,6.26,0,0,0,2.92,3.81l8.65,5a5.11,5.11,0,0,0,7-1.88l19.23-33.31A5.12,5.12,0,0,0,173.58,427.16Zm-34,.45a4.28,4.28,0,0,1-4.27-4.28h0a4.28,4.28,0,1,1,8.55,0v0A4.26,4.26,0,0,1,139.59,427.61Zm12.62,26.87a4.27,4.27,0,1,1-8.54,0v0a4.27,4.27,0,0,1,8.54,0Z"/><path class="cls-2" d="M267.92,159.09l-10-17.27a7.12,7.12,0,0,0-9.73-2.61l-105.72,61a7.12,7.12,0,0,0-2.61,9.73l8.55,14.8a1.43,1.43,0,0,1-.52,1.95l-20.33,11.73A4.28,4.28,0,0,0,126,244.3L146,278.84a4.27,4.27,0,0,0,5.84,1.57h0L175.09,267l.06,0,.42-.29.39-.34.35-.39.29-.42,0-.05a32.78,32.78,0,0,1,11.82-11.69l.54-.31a5.14,5.14,0,0,0,2.15-2.41A28.47,28.47,0,0,1,203,237.67l32.52-18.78a14.27,14.27,0,0,0,6.64-8.65L251.38,176a7.1,7.1,0,0,1,3.32-4.32l11.66-6.74A4.27,4.27,0,0,0,267.92,159.09ZM142.64,248.42a3.85,3.85,0,1,1,3.84-3.84A3.84,3.84,0,0,1,142.64,248.42Zm7-39.39-.26-.39-.2-.42-.15-.45-.08-.46v-.47l.06-.46.11-.45.19-.44.24-.4.29-.36.35-.32.38-.26.42-.21.45-.15.46-.08.46,0,.47.05a3.31,3.31,0,0,1,2.67,3.83,2.72,2.72,0,0,1-.15.54l-.19.43-.25.4-.3.35-.35.31-.39.26-.42.2-.45.14-.46.08H152l-.46-.05-.45-.13-.43-.18-.4-.25-.36-.3ZM154,268.16a3.85,3.85,0,1,1,3.85-3.84A3.84,3.84,0,0,1,154,268.16ZM170.32,199a2.49,2.49,0,1,1,2.49-2.49A2.48,2.48,0,0,1,170.32,199Zm24.29-19,.12-.45.18-.43.24-.4.29-.37.35-.31.38-.27.42-.21.45-.14.46-.09H198l.46,0a4.26,4.26,0,0,1,.54.15,3.31,3.31,0,0,1,2,4.23l-.19.42-.25.4-.31.36-.34.31-.4.26-.42.2-.45.14-.46.07h-.46l-.47-.06-.45-.12-.43-.19-.4-.24-.36-.3-.31-.35-.27-.39-.2-.42-.15-.44-.07-.46,0-.47Zm.28,54.72a2.49,2.49,0,1,1-5,0h0a2.49,2.49,0,1,1,5,0Zm21.83-28.05a16.38,16.38,0,1,1-21.83-17.51,2.82,2.82,0,0,1,1.47-.13,8.5,8.5,0,0,0,4.78-.53,2.8,2.8,0,0,1,1.46-.19A16.37,16.37,0,0,1,216.72,206.72Zm16.42,6a2.5,2.5,0,0,1-5,0h0a2.5,2.5,0,0,1,5,0Zm-2-40.05a3.85,3.85,0,1,1,3.85-3.85A3.85,3.85,0,0,1,231.17,172.64Zm19.74-11.4a3.85,3.85,0,1,1,3.84-3.84A3.84,3.84,0,0,1,250.91,161.24Z"/><path class="cls-2" d="M278.84,255l-32.21-18.59a14.29,14.29,0,0,0-8.36-1.86l-4.19.37a5.75,5.75,0,0,1-3.35-.74l-3-1.74a5.7,5.7,0,0,0-7.79,2.08l-3,5.28a1.41,1.41,0,0,0,.52,1.94l7.4,4.27a1.43,1.43,0,0,1,.52,2l-18.52,32.08-1.94.52-5.4-3.12-.27-.13-.29-.08-.3,0-.3,0-.29.08-.27.13-.23.19-.19.24-3.43,6-.11.22-.06.23,0,.25,0,.24.08.22.13.21.17.17.19.15,4.4,2.64,4.38,2.62,2.24,1.34,2.27,1.36,4.54,2.72.64.37.65.34.67.32.67.29.69.27.7.24.7.22.72.19.49.1.51.05h.5l.51,0,.58-.12.57-.15.56-.19.56-.22.55-.26.54-.29.52-.32.52-.35.5-.39.48-.41.46-.44.44-.46.42-.49.39-.51.36-.52.33-.54,2.9-5a2.85,2.85,0,0,1,3.89-1.05l19.74,11.4a4.28,4.28,0,0,0,5.84-1.56l20.65-35.78A4.28,4.28,0,0,0,278.84,255Zm-46.32,13.56-7.12,12.34a3.71,3.71,0,0,1-6.42-3.71l7.12-12.33a3.7,3.7,0,0,1,6.42,3.7ZM252,285.35a3.85,3.85,0,1,1,3.85-3.85A3.85,3.85,0,0,1,252,285.35Zm11.4-19.74a3.85,3.85,0,1,1,3.84-3.84A3.84,3.84,0,0,1,263.44,265.61Z"/><path class="cls-2" d="M318.1,209.72H269.67a4.27,4.27,0,0,0-4.28,4.27v6.78a4.28,4.28,0,0,0,1.25,3L289,246.1a7.11,7.11,0,0,0,5,2.08h25.54a2.84,2.84,0,0,0,2.85-2.85h0V214A4.27,4.27,0,0,0,318.1,209.72Zm-28.39,27.66a1.43,1.43,0,0,1-1.43,1.42,1.4,1.4,0,0,1-1-.42l-7.71-7.71a1.41,1.41,0,0,1,0-2,1.38,1.38,0,0,1,1-.42h7.71a1.43,1.43,0,0,1,1.43,1.42Z"/><path class="cls-2" d="M333.25,120.79l-11.4-19.74a2.84,2.84,0,0,0-3.89-1l-45,26a2.85,2.85,0,0,0-1,3.89l13.27,23a11.37,11.37,0,0,1,1.52,6.08,19.23,19.23,0,1,0,37.9-3.93,42.75,42.75,0,0,1,.23-21.23l.32-1.18a11.37,11.37,0,0,1,5.31-6.92l1.77-1A2.85,2.85,0,0,0,333.25,120.79Zm-43,15.52a3.85,3.85,0,1,1,3.85-3.85A3.84,3.84,0,0,1,290.23,136.31Zm24.54,23.31a8.87,8.87,0,1,1-17.73,0v0a8.87,8.87,0,0,1,17.73,0Zm.75-37.91a3.85,3.85,0,1,1,3.85-3.85A3.84,3.84,0,0,1,315.52,121.71Z"/><path class="cls-2" d="M474.57,132.36l-.14-.6-.21-.59-.28-.56L455,97.88a1.41,1.41,0,0,0-1.94-.52l-23,13.24a.57.57,0,0,1-.78-.2L415.55,86.46a.58.58,0,0,1,.21-.78h0l22.95-13.24a1.43,1.43,0,0,0,.52-2l-18.9-32.74-.34-.52-.41-.47-.45-.43-.49-.36-.53-.29-.55-.23-.57-.14-.58-.07h-.57l-.56.09-.54.17-.5.24L382.6,54l-.61.4-.57.48-.51.53-.43.59-.37.64-.3.68L372.57,77l-.3.68-.36.64-.44.59-.51.53-.56.47-.62.41-30.2,17.44-.62.4-.57.48-.5.53-.44.59-.37.63-.3.68-.55,1.49-.2.68-.14.68-.05.7,0,.69.1.68.17.68.25.65.32.63,34.62,60,.38.59.44.54.5.48.55.43.58.36.63.3.66.23.69.16,1.56.27.74.08h.74l.73-.08.71-.18.69-.25.66-.33,30.2-17.44.67-.33.69-.26.71-.17.73-.08h.74l.74.08,20.67,3.57.73.09h.74l.73-.09.71-.17.69-.25.67-.34,31.63-18.26.46-.32.42-.38.35-.43.3-.49.23-.54.16-.56.08-.6V133ZM393.66,85.29a4.28,4.28,0,1,1-4.28,4.27A4.27,4.27,0,0,1,393.66,85.29Zm-38.25,30.63a4.28,4.28,0,1,1,4.28-4.28A4.28,4.28,0,0,1,355.41,115.92Zm22.08,38.24a4.28,4.28,0,1,1,4.28-4.27A4.27,4.27,0,0,1,377.49,154.16Zm26.6-34.43a18.52,18.52,0,1,1-37,0h0a18.52,18.52,0,1,1,37,0Zm5.07-60.5h0a7.12,7.12,0,0,1,14.24,0h0a7.12,7.12,0,1,1-14.24,0Zm6.58,72.85a4.28,4.28,0,1,1,4.27-4.27A4.28,4.28,0,0,1,415.74,132.08Zm44.7-8.69a7.13,7.13,0,0,1-14.25,0h0a7.13,7.13,0,0,1,14.25,0Z"/><path class="cls-1" d="M397.21,183.85l-5.76-2.09L391,183.1l-7.41,20.34a1.44,1.44,0,0,1-1.83.86l-38-13.84a1.43,1.43,0,0,1-.85-1.83l7.4-20.34.49-1.34-5.76-2.1a4.27,4.27,0,0,0-5.47,2.56l-7.8,21.41a8.55,8.55,0,0,0,5.11,11L381,215.86a8.56,8.56,0,0,0,11-5.11l7.79-21.42A4.27,4.27,0,0,0,397.21,183.85Zm-33.84,18.62a2.5,2.5,0,1,1-5,0h0a2.5,2.5,0,0,1,5,0Z"/><path class="cls-2" d="M401.48,232.94H339a1.43,1.43,0,0,0-1.42,1.43v11.39a1.43,1.43,0,0,0,1.42,1.43h62.48a1.43,1.43,0,0,0,1.42-1.43V234.37A1.43,1.43,0,0,0,401.48,232.94Zm-28.82,10a2.42,2.42,0,1,1-4.84,0h0a2.42,2.42,0,0,1,4.84,0Z"/><path class="cls-2" d="M472.81,174.15H435.62a14.24,14.24,0,0,0-8.17,2.58L424,179.14a5.71,5.71,0,0,1-3.27,1h-3.48a5.7,5.7,0,0,0-5.7,5.7V192a1.43,1.43,0,0,0,1.42,1.43h8.55a1.41,1.41,0,0,1,1.42,1.42v37l-1.42,1.42H415.3l-.3,0-.3.07-.27.12-.26.16-.21.21-.16.26-.11.28,0,.3v6.87l0,.25.07.23.1.22.15.19.19.16.21.11.24.07.24,0,5.13.09,5.11.08,2.6,0,2.65.05,5.29.08h.74l.73,0,.74-.06.73-.08.73-.11.73-.14.71-.17.72-.19.48-.16.46-.21.43-.26.41-.3.45-.39.41-.42.4-.44.37-.47.35-.5.32-.52.29-.54.27-.56.24-.59.22-.6.18-.61.14-.62.12-.63.08-.63,0-.64,0-.63v-5.8A2.86,2.86,0,0,1,450,224h22.79a4.28,4.28,0,0,0,4.28-4.27V178.43A4.28,4.28,0,0,0,472.81,174.15ZM439.48,223.3a3.71,3.71,0,0,1-7.41,0V209.06a3.71,3.71,0,0,1,7.41,0Zm23.36-9a3.85,3.85,0,1,1,3.85-3.85A3.86,3.86,0,0,1,462.84,214.33Zm0-22.8a3.85,3.85,0,1,1,3.85-3.84A3.85,3.85,0,0,1,462.84,191.53Z"/><path class="cls-2" d="M586.78,54.87l-.36-1.38L583.86,52l-4.76-2.74L545.62,29.93l-4.76-2.74-3.17-1.83-1.38.36a1.43,1.43,0,0,0-.87.67l-2.23,3.87a2.85,2.85,0,0,0,1,3.89l7.56,4.36a7.16,7.16,0,0,1,3.32,4.33l3.68,13.76a7.09,7.09,0,0,1-.71,5.4l-1.23,2.13A4.27,4.27,0,0,0,548.44,70l2.46,1.43a1.43,1.43,0,0,0,2-.53l11-19a.56.56,0,0,1,.78-.21l15.92,9.19a2.85,2.85,0,0,0,3.89-1L586.64,56A1.41,1.41,0,0,0,586.78,54.87Zm-45.18-21a2.5,2.5,0,1,1,2.49-2.49A2.49,2.49,0,0,1,541.6,33.89Zm40.74,19.59a2.5,2.5,0,0,1-5,0h0a2.5,2.5,0,0,1,5,0Z"/><path class="cls-2" d="M773.7,161.78,598,60.34a5.69,5.69,0,0,0-6.94,1,110.08,110.08,0,0,0-16.22,21.51l-8.41,14.55a5.71,5.71,0,0,0,2.09,7.79l11.35,6.55,158.4,91.45,11.35,6.56a5.71,5.71,0,0,0,7.79-2.09l8.4-14.56a109.94,109.94,0,0,0,10.52-24.8A5.7,5.7,0,0,0,773.7,161.78Zm-65.16-24.29a1.41,1.41,0,0,1,1.43,0l20.88,12a1.43,1.43,0,0,1-.71,2.66H717a2.84,2.84,0,0,1-2.47-1.43L708,139.43A1.42,1.42,0,0,1,708.54,137.49ZM681.9,122.1a1.44,1.44,0,0,1,1.42,0l20.88,12.06a1.42,1.42,0,0,1-.71,2.65h-13.1a2.82,2.82,0,0,1-2.46-1.42l-6.55-11.34A1.42,1.42,0,0,1,681.9,122.1Zm-26.65-15.38a1.39,1.39,0,0,1,1.42,0l20.89,12a1.43,1.43,0,0,1-.72,2.66H663.75a2.85,2.85,0,0,1-2.47-1.42l-6.55-11.35A1.42,1.42,0,0,1,655.25,106.72ZM628.6,91.33a1.46,1.46,0,0,1,1.43,0l20.88,12.06a1.43,1.43,0,0,1-.71,2.66H637.1a2.86,2.86,0,0,1-2.47-1.43l-6.55-11.34A1.43,1.43,0,0,1,628.6,91.33ZM602,76a1.39,1.39,0,0,1,1.42,0l20.88,12a1.43,1.43,0,0,1,.52,2,1.41,1.41,0,0,1-1.23.71h-13.1A2.85,2.85,0,0,1,608,89.24l-6.55-11.35A1.42,1.42,0,0,1,602,76Zm-19.3,12.78a2.42,2.42,0,1,1,4.84,0h0a2.42,2.42,0,1,1-4.84,0Zm.32,13L595.32,80.4a2.85,2.85,0,0,1,3.89-1,2.88,2.88,0,0,1,1,1l5.76,10a2.83,2.83,0,0,1,0,2.84l-6.58,11.4a2.86,2.86,0,0,1-2.47,1.43H585.45a2.86,2.86,0,0,1-2.47-4.28ZM605.46,123a1.46,1.46,0,0,1-1.43,0L583.15,111a1.42,1.42,0,0,1-.52-1.94,1.45,1.45,0,0,1,1.23-.72H597a2.86,2.86,0,0,1,2.47,1.43L606,121.09A1.43,1.43,0,0,1,605.46,123Zm2.52-3-6.58-11.4a2.89,2.89,0,0,1,0-2.85L608,94.36a2.85,2.85,0,0,1,2.47-1.42h13.16a2.85,2.85,0,0,1,2.47,1.42l6.58,11.4a2.85,2.85,0,0,1,0,2.85L626.08,120a2.85,2.85,0,0,1-2.47,1.42H610.45A2.85,2.85,0,0,1,608,120Zm24.13,18.41a1.41,1.41,0,0,1-1.43,0l-20.88-12a1.43,1.43,0,0,1-.52-2,1.41,1.41,0,0,1,1.23-.71h13.1a2.85,2.85,0,0,1,2.47,1.42l6.55,11.35A1.42,1.42,0,0,1,632.11,138.42Zm2.52-3L628.05,124a2.83,2.83,0,0,1,0-2.84l6.58-11.4a2.86,2.86,0,0,1,2.47-1.43h13.16a2.83,2.83,0,0,1,2.46,1.43l6.58,11.39a2.85,2.85,0,0,1,0,2.85l-6.58,11.4a2.82,2.82,0,0,1-2.46,1.42H637.1A2.85,2.85,0,0,1,634.63,135.39Zm24.12,18.42a1.44,1.44,0,0,1-1.42,0l-20.88-12.06a1.43,1.43,0,0,1,.71-2.66h13.1a2.83,2.83,0,0,1,2.46,1.43l6.55,11.34A1.43,1.43,0,0,1,658.75,153.81Zm2.53-3-6.58-11.39a2.85,2.85,0,0,1,0-2.85l6.58-11.4a2.85,2.85,0,0,1,2.47-1.42H676.9a2.85,2.85,0,0,1,2.47,1.42l6.58,11.4a2.85,2.85,0,0,1,0,2.85l-6.58,11.39a2.84,2.84,0,0,1-2.47,1.43H663.75A2.84,2.84,0,0,1,661.28,150.77Zm24.12,18.42a1.39,1.39,0,0,1-1.42,0l-20.89-12.05a1.43,1.43,0,0,1,.72-2.66H676.9a2.85,2.85,0,0,1,2.47,1.42l6.55,11.35A1.42,1.42,0,0,1,685.4,169.19Zm2.53-3-6.58-11.4a2.85,2.85,0,0,1,0-2.85l6.58-11.39a2.83,2.83,0,0,1,2.46-1.43h13.16a2.86,2.86,0,0,1,2.47,1.43l6.58,11.39a2.85,2.85,0,0,1,0,2.85L706,166.16a2.85,2.85,0,0,1-2.47,1.42H690.39A2.82,2.82,0,0,1,687.93,166.16Zm24.12,18.42a1.46,1.46,0,0,1-1.43,0l-20.88-12.06a1.42,1.42,0,0,1-.52-1.94,1.4,1.4,0,0,1,1.23-.72h13.1a2.86,2.86,0,0,1,2.47,1.43l6.55,11.34A1.43,1.43,0,0,1,712.05,184.58Zm2.52-3L708,170.15a2.85,2.85,0,0,1,0-2.85l6.58-11.4a2.85,2.85,0,0,1,2.47-1.42H730.2a2.85,2.85,0,0,1,2.47,1.42l6.58,11.4a2.89,2.89,0,0,1,0,2.85l-6.58,11.39A2.84,2.84,0,0,1,730.2,183H717A2.84,2.84,0,0,1,714.57,181.54ZM738.69,200a1.39,1.39,0,0,1-1.42,0l-20.88-12.05a1.43,1.43,0,0,1-.52-1.95,1.41,1.41,0,0,1,1.23-.71h13.1a2.85,2.85,0,0,1,2.47,1.42L739.22,198A1.42,1.42,0,0,1,738.69,200Zm16.88-10.37a2.42,2.42,0,1,1,2.42-2.42A2.42,2.42,0,0,1,755.57,189.59Zm2.1-15.45L745.33,195.5a2.84,2.84,0,0,1-4.93,0l-5.76-10a2.85,2.85,0,0,1,0-2.85l6.58-11.39a2.86,2.86,0,0,1,2.47-1.43H755.2a2.86,2.86,0,0,1,2.85,2.85A2.89,2.89,0,0,1,757.67,174.14Zm.35-7.27a1.44,1.44,0,0,1-1.23.71h-13.1a2.85,2.85,0,0,1-2.47-1.42l-6.55-11.34a1.43,1.43,0,0,1,.52-1.95,1.46,1.46,0,0,1,1.43,0l20.88,12.06A1.42,1.42,0,0,1,758,166.87Z"/><path class="cls-2" d="M705.2,198.49,690,193.79a28.76,28.76,0,0,1-5.83-2.54L612,149.57a28.64,28.64,0,0,1-5.12-3.77L595.22,135a4.35,4.35,0,0,0-5.91,6.38l7.13,6.6a14.22,14.22,0,0,1,4.45,12.2,8.56,8.56,0,0,0,4.21,8.45l66,38.12a8.53,8.53,0,0,0,9.42-.58,14.26,14.26,0,0,1,12.79-2.24l9.28,2.87a4.34,4.34,0,0,0,2.57-8.3ZM592.27,140.25a2.07,2.07,0,1,1,2.06-2.07A2.07,2.07,0,0,1,592.27,140.25Zm20.9,20.53a1.71,1.71,0,1,1-3.42,0h0a1.71,1.71,0,0,1,3.42,0Zm33.45,20.3a2.86,2.86,0,0,1-3.89,1l-26.34-15.21a2.85,2.85,0,1,1,2.85-4.93l26.34,15.2A2.86,2.86,0,0,1,646.62,181.08Zm5.41,2.14a1.71,1.71,0,0,1-3.42,0h0a1.71,1.71,0,1,1,3.42,0Zm18.83,11.85a2.85,2.85,0,0,1-3.89,1l-11.9-6.87a2.84,2.84,0,0,1,2.84-4.93l11.91,6.87A2.85,2.85,0,0,1,670.86,195.07Zm33,9.64a2.07,2.07,0,1,1,2.07-2.07A2.07,2.07,0,0,1,703.91,204.71Z"/><path class="cls-2" d="M726.66,228a4.35,4.35,0,0,0-5.19-3.29h0l-15.5,3.52a28,28,0,0,1-6.32.71H616.28a28,28,0,0,1-6.32-.71l-15.51-3.52a4.35,4.35,0,0,0-2,8.47h0l9.47,2.16a14.21,14.21,0,0,1,10,8.33,8.56,8.56,0,0,0,7.88,5.22h76.24a8.54,8.54,0,0,0,7.87-5.22,14.24,14.24,0,0,1,10-8.33l9.47-2.16A4.35,4.35,0,0,0,726.66,228Zm-133.17,3a2.07,2.07,0,1,1,2.07-2.07A2.07,2.07,0,0,1,593.49,231Zm49,10.76H628.75a2.85,2.85,0,0,1,0-5.7h13.74a2.85,2.85,0,1,1,0,5.7Zm8.84-2.85a1.71,1.71,0,1,1-3.42,0h0a1.71,1.71,0,1,1,3.42,0Zm35.82,2.85H656.74a2.85,2.85,0,0,1,0-5.7h30.41a2.85,2.85,0,1,1,0,5.7Zm9.05-2.85a1.71,1.71,0,0,1-3.42,0h0a1.71,1.71,0,1,1,3.42,0ZM722.41,231a2.07,2.07,0,1,1,2.06-2.07A2.07,2.07,0,0,1,722.41,231Z"/><path class="cls-1" d="M616.85,196.48h-7.12a7.12,7.12,0,0,0-7.12,7.12v8.55a1.42,1.42,0,0,0,1.42,1.42h18.52a1.42,1.42,0,0,0,1.43-1.42V203.6A7.13,7.13,0,0,0,616.85,196.48ZM613.29,209a4,4,0,1,1,4-4A4,4,0,0,1,613.29,209Z"/><path class="cls-2" d="M549,289.94l-2.47-1.43-.3-.13-.32-.06-.34,0-.31.09a2.87,2.87,0,0,0-1.19-1.34L475,247.2l-2.47-1.42a2.86,2.86,0,0,0-3.9,1L459,263.48a1.14,1.14,0,0,0-1.56.41l-48,83.15a1.14,1.14,0,0,0,.41,1.56l-10.68,18.5a2.86,2.86,0,0,0,1,3.9l2.47,1.42,4.84,2.79a4.3,4.3,0,0,1,2.14,3.71v13.15a8.56,8.56,0,0,0,4.27,7.41l11.4,6.58a8.57,8.57,0,0,0,8.54,0l11.4-6.58a4.24,4.24,0,0,1,4.27,0l22.22,12.83a3,3,0,0,0,1.77.36l.07.31.15.3.21.25.27.2,2.47,1.43a2.86,2.86,0,0,0,3.89-1.05l69.45-120.28h0A2.85,2.85,0,0,0,549,289.94Zm-63.83-29.46a1.38,1.38,0,0,1,.19-.71,1.42,1.42,0,0,1,1.94-.52l22.79,13.16a1.39,1.39,0,0,1,.53.52,1.43,1.43,0,0,1-.53,1.95L503,279a4.28,4.28,0,0,1-4.27,0l-11.4-6.58a4.27,4.27,0,0,1-2.13-3.7Zm0,15.63,11.39,6.58a4.27,4.27,0,0,1,2.14,3.7v13.16a4.27,4.27,0,0,1-2.14,3.7l-11.39,6.58a4.3,4.3,0,0,1-4.28,0l-11.39-6.58a4.25,4.25,0,0,1-2.14-3.7V286.39a4.25,4.25,0,0,1,2.14-3.7l11.39-6.58A4.3,4.3,0,0,1,485.17,276.11Zm-4.28,41.12v13.16a4.26,4.26,0,0,1-2.13,3.7l-11.4,6.58a4.24,4.24,0,0,1-4.27,0l-11.4-6.58a4.27,4.27,0,0,1-2.14-3.7V317.23a4.28,4.28,0,0,1,2.14-3.7l11.4-6.58a4.28,4.28,0,0,1,4.27,0l11.4,6.58A4.27,4.27,0,0,1,480.89,317.23Zm-20.05-42.67.06-.12,11.76-20.36a.75.75,0,0,1,.07-.12,2.85,2.85,0,0,1,3.82-.92l2.21,1.28a4.26,4.26,0,0,1,2.13,3.7v10.69a4.27,4.27,0,0,1-2.13,3.7L467.36,279a4.28,4.28,0,0,1-4.27,0l-1.14-.66A2.84,2.84,0,0,1,460.84,274.56ZM443,305.41a.54.54,0,0,1,.07-.13l12.82-22.21L456,283a2.86,2.86,0,0,1,3.82-.92l1.14.66a4.27,4.27,0,0,1,2.14,3.7v13.16a4.27,4.27,0,0,1-2.14,3.7l-11.4,6.58a4.28,4.28,0,0,1-4.27,0l-1.14-.66A2.85,2.85,0,0,1,443,305.41Zm-17.81,30.84c0-.05,0-.09.07-.13l12.82-22.2.08-.13a2.84,2.84,0,0,1,3.81-.92l1.14.66a4.28,4.28,0,0,1,2.14,3.7v13.16a4.27,4.27,0,0,1-2.14,3.7l-11.39,6.58a4.25,4.25,0,0,1-4.28,0l-1.14-.66A2.85,2.85,0,0,1,425.22,336.25Zm-15.55,35.26-1.14-.65a2.84,2.84,0,0,1-1.11-3.77l.06-.13,12.83-22.2a.75.75,0,0,1,.07-.12,2.86,2.86,0,0,1,3.82-.93l1.14.66a4.29,4.29,0,0,1,2.13,3.7v13.16a4.26,4.26,0,0,1-2.13,3.7l-11.4,6.58A4.24,4.24,0,0,1,409.67,371.51Zm13.53,24.93-6-11.95,2.69-4.65,6,12Zm10.95,3.38-12-23.9,2.69-4.65,12,23.9Zm5-8.57-6-11.95,2.68-4.65,6,12Zm6.18-19.74-11.4-6.58a4.26,4.26,0,0,1-2.13-3.7V348.07a4.29,4.29,0,0,1,2.13-3.7l11.4-6.58a4.28,4.28,0,0,1,4.27,0l11.4,6.58a4.3,4.3,0,0,1,2.14,3.7v13.16a4.27,4.27,0,0,1-2.14,3.7l-11.4,6.58A4.24,4.24,0,0,1,445.28,371.51Zm35.61,20.56a4.29,4.29,0,0,1-2.13,3.71l-11.4,6.57a4.24,4.24,0,0,1-4.27,0l-11.4-6.57a4.3,4.3,0,0,1-2.14-3.71V378.92a4.3,4.3,0,0,1,2.14-3.71l11.4-6.58a4.28,4.28,0,0,1,4.27,0l11.4,6.58a4.29,4.29,0,0,1,2.13,3.71Zm17.81-30.84a4.27,4.27,0,0,1-2.14,3.7l-11.39,6.58a4.25,4.25,0,0,1-4.28,0l-11.39-6.58a4.25,4.25,0,0,1-2.14-3.7V348.07a4.27,4.27,0,0,1,2.14-3.7l11.39-6.58a4.3,4.3,0,0,1,4.28,0l11.39,6.58a4.3,4.3,0,0,1,2.14,3.7Zm17.8-30.84a4.26,4.26,0,0,1-2.13,3.7L503,340.67a4.24,4.24,0,0,1-4.27,0l-11.4-6.58a4.26,4.26,0,0,1-2.13-3.7V317.23a4.27,4.27,0,0,1,2.13-3.7L498.7,307a4.28,4.28,0,0,1,4.27,0l11.4,6.58a4.27,4.27,0,0,1,2.13,3.7Zm17.81-30.84a4.25,4.25,0,0,1-2.14,3.7l-11.39,6.58a4.3,4.3,0,0,1-4.28,0l-11.39-6.58a4.27,4.27,0,0,1-2.14-3.7V286.39a4.27,4.27,0,0,1,2.14-3.7l9.26-5.35a4.28,4.28,0,0,1,4.27,0l13.53,7.82a4.25,4.25,0,0,1,2.14,3.7Z"/><path class="cls-1" d="M454.34,436.52l-62.92-36.33a6.4,6.4,0,0,0-8.75,2.35l-36.33,62.92a6.4,6.4,0,0,0,2.35,8.75l62.92,36.33a6.4,6.4,0,0,0,8.75-2.35l36.33-62.92A6.4,6.4,0,0,0,454.34,436.52Zm-30.29-15.35-4.18-2.42A40.49,40.49,0,0,1,424.05,421.17Zm-20.4-1.92a4.27,4.27,0,0,1,4.27-4.27,4.56,4.56,0,0,1,.75.06,41.36,41.36,0,0,1,7.56,2.1l1.12.46,8.95,5.17c.33.24.65.49,1,.74a41.51,41.51,0,0,1,5.6,5.49,4.29,4.29,0,0,1-.52,6,4.55,4.55,0,0,1-.62.43l-10.26,5.92a4.25,4.25,0,0,1-4.28,0l-11.39-6.58a4.27,4.27,0,0,1-2.14-3.7Zm-8.73,27.47,2.4-4.16,10.73,21.36-2.4,4.16Zm3.34,14.18-2.4,4.16-5.37-10.68,2.4-4.16Zm6.45-11.16,2.4-4.16,5.36,10.68-2.4,4.16ZM370.17,429a41,41,0,0,1,24.19-14,4.52,4.52,0,0,1,.74-.06,4.28,4.28,0,0,1,4.28,4.27V431.1a4.27,4.27,0,0,1-2.14,3.7l-11.4,6.58a4.24,4.24,0,0,1-4.27,0l-10.27-5.92a5.16,5.16,0,0,1-.61-.43A4.28,4.28,0,0,1,370.17,429Zm-1.68,42.89a4.28,4.28,0,0,1-5.48-2.56,41,41,0,0,1,0-27.93,6,6,0,0,1,.32-.68,4.28,4.28,0,0,1,5.84-1.56l10.26,5.92a4.28,4.28,0,0,1,2.14,3.71V462a4.27,4.27,0,0,1-2.14,3.7l-10.26,5.92A4.66,4.66,0,0,1,368.49,471.89ZM379,489.56l4.18,2.42A40.49,40.49,0,0,1,379,489.56Zm20.4,1.92a4.28,4.28,0,0,1-4.28,4.28,4.53,4.53,0,0,1-.74-.07,41.36,41.36,0,0,1-7.56-2.1l-1.12-.46-9-5.16-1-.75a41.51,41.51,0,0,1-5.6-5.49,4.28,4.28,0,0,1,.52-6,5.16,5.16,0,0,1,.61-.43l10.27-5.92a4.24,4.24,0,0,1,4.27,0l11.4,6.58a4.27,4.27,0,0,1,2.14,3.7Zm33.48-9.75a41,41,0,0,1-24.19,14,4.54,4.54,0,0,1-.75.07,4.28,4.28,0,0,1-4.27-4.28V479.63a4.27,4.27,0,0,1,2.14-3.7l11.39-6.58a4.25,4.25,0,0,1,4.28,0l10.26,5.92a4.55,4.55,0,0,1,.62.43A4.29,4.29,0,0,1,432.86,481.73Zm7.16-12.4a6,6,0,0,1-.32.68,4.28,4.28,0,0,1-5.84,1.56l-10.27-5.92a4.29,4.29,0,0,1-2.13-3.7V448.79a4.29,4.29,0,0,1,2.13-3.71l10.27-5.92a4.66,4.66,0,0,1,.68-.32A4.28,4.28,0,0,1,440,441.4,41,41,0,0,1,440,469.33Z"/><path class="cls-2" d="M406.47,539.51,404,538.09l-1.42,2.47a2.86,2.86,0,0,0-1-3.9l-22.23-12.83a4.26,4.26,0,0,1-2.13-3.7V507a8.55,8.55,0,0,0-4.28-7.4L361.51,493a8.59,8.59,0,0,0-8.55,0l-11.4,6.58a4.24,4.24,0,0,1-4.27,0L330,495.35a2.85,2.85,0,0,0-3.89,1l-4.27,7.4a1.14,1.14,0,0,0-1.56.42h0l-18.8,32.56a1.14,1.14,0,0,0,.41,1.56l-4.27,7.4a1.15,1.15,0,0,0-1.56.42l-13.68,23.7a1.13,1.13,0,0,0,.42,1.55l-4.27,7.41a1.41,1.41,0,0,0,.52,1.94,1.38,1.38,0,0,0,1.05.15,7.81,7.81,0,0,1,5.79.83l11,6.35.18.11a7.7,7.7,0,0,0,6.59.52,4.28,4.28,0,0,1,3.66.29l24.45,14.12a4.31,4.31,0,0,1,2.09,3,7.69,7.69,0,0,0,3.74,5.44l.18.1,11,6.36a7.79,7.79,0,0,1,3.61,4.6,1.42,1.42,0,0,0,1.77,1A1.38,1.38,0,0,0,355,623l-.84,1.47,2.46,1.42a2.84,2.84,0,0,0,3.89-1l47-81.42A2.86,2.86,0,0,0,406.47,539.51ZM341.56,507a4.3,4.3,0,0,1,2.14-3.7l11.4-6.58a4.28,4.28,0,0,1,4.27,0l11.4,6.58a4.29,4.29,0,0,1,2.13,3.7v13.16a4.26,4.26,0,0,1-2.13,3.7l-11.4,6.58a4.24,4.24,0,0,1-4.27,0l-11.4-6.58a4.27,4.27,0,0,1-2.14-3.7Zm0,20.57,11.4,6.58a4.27,4.27,0,0,1,2.14,3.7V551a4.3,4.3,0,0,1-2.14,3.7l-11.4,6.58a4.28,4.28,0,0,1-4.27,0l-11.39-6.58a4.27,4.27,0,0,1-2.14-3.7V537.82a4.25,4.25,0,0,1,2.14-3.7l11.39-6.58A4.24,4.24,0,0,1,341.56,527.54Zm-24.26-1.68,12.82-22.2a2.85,2.85,0,0,1,3.89-1h0l1.13.65a4.27,4.27,0,0,1,2.14,3.7v13.16a4.25,4.25,0,0,1-2.14,3.7l-11.39,6.58a4.25,4.25,0,0,1-4.28,0l-1.13-.65A2.86,2.86,0,0,1,317.3,525.86ZM301.68,582a2.86,2.86,0,0,1-2.85,2.85,2.89,2.89,0,0,1-1.43-.38l-8-4.61a2.86,2.86,0,0,1-1.05-3.89l6.13-10.61a2.85,2.85,0,0,1,3.89-1h0l1.14.66a4.27,4.27,0,0,1,2.14,3.7Zm0-20.72-1.14-.66a2.85,2.85,0,0,1-1-3.89l12.82-22.21a2.84,2.84,0,0,1,3.89-1l1.14.66a4.26,4.26,0,0,1,2.13,3.7V551a4.29,4.29,0,0,1-2.13,3.7L306,561.26A4.28,4.28,0,0,1,301.68,561.26Zm17.8,30.84-11.39-6.58a4.3,4.3,0,0,1-2.14-3.7V568.66a4.27,4.27,0,0,1,2.14-3.7l11.39-6.58a4.25,4.25,0,0,1,4.28,0L335.15,565a4.25,4.25,0,0,1,2.14,3.7v13.16a4.27,4.27,0,0,1-2.14,3.7l-11.39,6.58A4.3,4.3,0,0,1,319.48,592.1Zm35.62,20.72a2.85,2.85,0,0,1-2.85,2.85,2.89,2.89,0,0,1-1.43-.38l-11.52-6.65a4.26,4.26,0,0,1-2.08-3,7.7,7.7,0,0,0-3.75-5.45l-3.3-1.9a2.85,2.85,0,0,1,0-4.94l7.12-4.11a4.28,4.28,0,0,1,4.27,0L353,595.8a4.27,4.27,0,0,1,2.14,3.7Zm17.8-31a4.29,4.29,0,0,1-2.13,3.7l-11.4,6.58a4.28,4.28,0,0,1-4.27,0l-11.4-6.58a4.3,4.3,0,0,1-2.14-3.7V568.66a4.27,4.27,0,0,1,2.14-3.7l11.4-6.58a4.24,4.24,0,0,1,4.27,0l11.4,6.58a4.26,4.26,0,0,1,2.13,3.7ZM390.71,551a4.27,4.27,0,0,1-2.14,3.7l-11.39,6.58a4.3,4.3,0,0,1-4.28,0l-11.39-6.58a4.3,4.3,0,0,1-2.14-3.7V537.82a4.27,4.27,0,0,1,2.14-3.7l11.39-6.58a4.25,4.25,0,0,1,4.28,0l11.39,6.58a4.25,4.25,0,0,1,2.14,3.7Z"/><path class="cls-2" d="M267.23,639.05l-.1-.26-.15-.24-.2-.2-.23-.17-32.79-18.93-.26-.12-.27-.06-.28,0-.28.05-.26.09-.25.15-.2.19-.17.23-3.56,6.17-.11.25-.07.28v.28l0,.28.1.26.15.24.2.2.23.16,1.25.73.23.15.23.18.21.2.18.21.16.22.14.25.12.27.09.26.06.27,0,.28v.29l0,.28,0,.27-.08.28-.11.27-.12.24-50.57,87.59-.15.23-.18.23-.21.2-.21.18-.23.16-.25.13-.27.11-.26.08-.27.06-.29,0H178l-.27,0-.28,0-.27-.08-.27-.11-.25-.13L165,714.42a1.42,1.42,0,0,0-1.94.52h0l-5.7,9.87-4.28,7.4a1.43,1.43,0,0,0,.53,1.95l8.88,5.13a1.42,1.42,0,0,0,1.94-.53l2.14-3.7a2.85,2.85,0,0,1,3.89-1l28.38,16.38a2.85,2.85,0,0,1,1,3.89h0L197.72,758a1.42,1.42,0,0,0,.52,1.94l8.89,5.13a1.42,1.42,0,0,0,1.94-.52l4.28-7.4,5.69-9.87a1.42,1.42,0,0,0-.52-1.95l-11.63-6.71-.23-.15-.23-.18-.21-.2-.18-.21-.16-.23-.14-.25-.12-.26-.09-.26-.06-.27,0-.29V736l0-.27.05-.27.08-.28.1-.27.13-.25,50.57-87.59.15-.23.18-.22.2-.21.21-.18.23-.15.26-.14.26-.11.26-.08.28,0,.29,0H259l.28,0,.27.06.28.08.26.11.25.12,1.26.73.25.11.28.07h.28l.28,0,.26-.1.24-.14.21-.19.17-.23,3.56-6.17.11-.26.06-.27v-.28ZM213.5,707.89l-11.4,19.73a4.27,4.27,0,0,1-5.84,1.57l-1.23-.71-3.7-2.14-1.24-.71a4.28,4.28,0,0,1-1.56-5.84l11.39-19.74a4.28,4.28,0,0,1,5.84-1.56l6.17,3.56A4.27,4.27,0,0,1,213.5,707.89Zm18.23-31.59-10,17.28a4.28,4.28,0,0,1-5.84,1.56l-6.17-3.56a4.28,4.28,0,0,1-1.56-5.84l10-17.27A4.27,4.27,0,0,1,224,666.9l6.16,3.57A4.26,4.26,0,0,1,231.73,676.3ZM249.82,645l-10,17.27A4.28,4.28,0,0,1,234,663.8l-6.17-3.56a4.27,4.27,0,0,1-1.56-5.83l10-17.28a4.28,4.28,0,0,1,5.84-1.56l6.17,3.56A4.28,4.28,0,0,1,249.82,645Z"/><path class="cls-1" d="M139.55,655.35l4.62.81a2.84,2.84,0,0,0,2.41-.71,59.41,59.41,0,0,0,10-11.93,1.43,1.43,0,0,0-.44-2l-.05,0-10.84-6.26a1.41,1.41,0,0,0-1.9.46c-.5.76-1,1.51-1.58,2.25a1.42,1.42,0,0,0-.15,1.46,8.13,8.13,0,0,1-1.93,9.55,50.17,50.17,0,0,1-8.42,6,1.42,1.42,0,0,0-.54,1.91l3.1,5.78a1.43,1.43,0,0,0,1.93.58l0,0c.67-.38,1.33-.77,2-1.18a.87.87,0,0,0,.28-1.18l0,0L137,659.32a2.56,2.56,0,0,1,2.56-4Z"/><path class="cls-2" d="M172.24,800.42l-54.1-31.24a1.43,1.43,0,0,0-2,.52h0l-5.7,9.87a1.43,1.43,0,0,0,.52,1.95l11.06,6.38,3.7,2.14,10.45,6,3.7,2.13,10.44,6,3.7,2.14,11.06,6.39a1.43,1.43,0,0,0,1.95-.53l5.69-9.87A1.41,1.41,0,0,0,172.24,800.42Zm-29.61-7a2.43,2.43,0,0,1-4.85,0v0a2.43,2.43,0,0,1,4.85,0Z"/><path class="cls-2" d="M239.1,892.36,232.52,881a4.3,4.3,0,0,1,0-4.28l4.22-7.3a2.86,2.86,0,0,0-1-3.9L115.42,796.05a2.86,2.86,0,0,0-3.9,1L70.21,868.64a2.86,2.86,0,0,0,1.05,3.9h0L191.54,942a2.85,2.85,0,0,0,3.89-1l12.83-22.22a4.25,4.25,0,0,1,3.7-2.14h13.16a8.55,8.55,0,0,0,7.4-4.27l6.58-11.4A8.54,8.54,0,0,0,239.1,892.36ZM112,863.16l-6.58,11.4a4.26,4.26,0,0,1-3.7,2.13H88.59a4.29,4.29,0,0,1-3.7-2.13l-5.34-9.26a4.25,4.25,0,0,1,0-4.28l7.81-13.53a4.28,4.28,0,0,1,3.7-2.14h10.69a4.27,4.27,0,0,1,3.7,2.14l6.58,11.4A4.24,4.24,0,0,1,112,863.16Zm0-35.61-6.58,11.39a4.25,4.25,0,0,1-3.7,2.14H93.53a1.41,1.41,0,0,1-1.23-2.14l13.15-22.79a1.43,1.43,0,0,1,2-.52,1.3,1.3,0,0,1,.52.52l4.11,7.12A4.25,4.25,0,0,1,112,827.55Zm3.71-6.41-5.35-9.26a4.3,4.3,0,0,1,0-4.28l1.27-2.2a2.86,2.86,0,0,1,3.9-1l20.35,11.76a2.84,2.84,0,0,1,1,3.89l-.65,1.14a4.29,4.29,0,0,1-3.7,2.13H119.44A4.26,4.26,0,0,1,115.74,821.14Zm10.55,33.53a3.35,3.35,0,1,1-3.35-3.34A3.35,3.35,0,0,1,126.29,854.67Zm20.87,41.38-27.75-16a4.85,4.85,0,0,1-1.78-6.62l18.88-32.69h0a4.84,4.84,0,0,1,6.61-1.77l27.76,16a4.83,4.83,0,0,1,1.77,6.61l-18.87,32.69A4.85,4.85,0,0,1,147.16,896.05ZM167.35,877a3.35,3.35,0,1,1-3.35,3.34A3.35,3.35,0,0,1,167.35,877Zm23.92,45.53-27.14-15.67,24.57-42.56,27.14,15.67Z"/><path class="cls-1" d="M206.93,823.19l-6.17-3.56a7.13,7.13,0,0,0-9.73,2.6l-4.27,7.41a1.42,1.42,0,0,0,.52,1.94l16,9.26a1.41,1.41,0,0,0,1.94-.52l4.28-7.4A7.13,7.13,0,0,0,206.93,823.19Zm-3.34,5.63a4,4,0,0,1-8,0h0a4,4,0,0,1,8,0Z"/><path class="cls-1" d="M265.85,967.07v.2l0,.2-.05.21-.08.21-.11.21-2.49,4.32-.12.19-.14.16-.14.13-.16.12-.17.09-.18.06-.19.05-.21,0h-.22l-.23,0-.25-.05-.25-.07-.27-.1-.28-.12-.3-.15-.31-.17-.3-.18-.28-.18-.24-.19-.23-.18-.19-.19-.17-.19-.14-.19-.12-.19-.09-.19-.06-.19,0-.19v-.19l0-.19,0-.2.08-.19.1-.2,2.49-4.32.14-.22.15-.19.16-.16.17-.13.18-.1.19-.07.2,0,.22,0h.22l.23,0,.25.06.25.08.27.09.28.12.28.15.3.16.3.18.28.19.24.19.22.18.2.19.16.19.14.2.11.19.08.2.06.2Zm-18.38-10.8-.06-.2-.08-.19-.11-.2-.14-.19-.16-.19-.2-.19-.22-.19-.24-.19-.28-.18-.3-.18-.3-.17-.29-.14-.27-.12-.27-.1-.25-.08-.25,0-.23,0h-.44l-.2,0-.19.08-.18.1-.17.13-.16.16-.15.19-.14.21-2.5,4.33-.1.19-.07.2,0,.19,0,.19v.2l0,.19.06.19.09.19.11.19.15.19.17.18.19.19.22.19.25.18.28.18.3.19.31.17.29.14.29.12.27.1.25.08.25.05.23,0h.22l.21,0,.19,0,.18-.07.17-.09.16-.11.14-.14.13-.16.12-.18,2.5-4.33.11-.21.08-.2.05-.21,0-.2v-.21Zm8.49,4.58-.18-.26-.26-.25-.33-.25-.4-.26-1.9-1.1-2,3.42,1.78,1,.48.26.42.18.37.11.32,0,.28,0,.25-.12.23-.2.2-.28.72-1.26.11-.25,0-.26,0-.26Zm28.48,6.37c-3.05,5.45-3,10-.29,15.14,3.17,6,2,8.8-4.89,10.88-1.21.36-2.63.53-3,1.69-1.44,4.93-4.41,2.77-7,1.52-2.79-1.35-5.42-3.05-8.13-4.58-7.65-4.3-7.91-4.42-4.38-12,1.31-2.83.69-3.63-1.65-4.89-4.61-2.51-9.16-5.16-13.51-8.09-3.78-2.54-5.75.18-6.79,2.6-2.29,5.34-5.37,4.14-8.95,1.91-1.62-1-3.19-2.08-4.85-3-9.66-5.45-10.58-7.41-8.19-18.11.72-3.22,2.73-5.16,6.1-5,8.06.38,12.7-3.9,16.22-10.67,5.46-10.49,12.44-20.14,17.4-30.93,1.65-3.58,5.09-3.79,9.48-3.63,3.33,1.2,7.77,1.43,11.8,4.24a166.87,166.87,0,0,0,20.05,11.6c5,2.54,8,6.58,10.8,11.14a5.77,5.77,0,0,1-.14,6.09C297.06,944,290.89,955.68,284.44,967.22ZM223,951.14c-.68-1.54-1.46-2.91-3.49-3-2.31-.15-4.75,0-5,2.79-.21,2.08,1.83,3.74,3.55,4.13C220.53,955.58,221.56,953.06,223,951.14Zm18.13-.38-1.34-.77-7.41,6.11-.13-.07,1.59-9.48-1.41-.81-1.72,11.12,1.57.9ZM246,962.6l2.49-4.31.17-.32.12-.32.08-.32,0-.31v-.31l0-.31-.08-.31-.13-.3-.17-.3-.21-.29-.25-.3-.29-.29-.34-.29-.37-.28-.42-.28-.46-.28-.47-.26-.45-.22-.43-.18-.41-.14-.4-.11-.38-.07-.35,0H243l-.33,0-.3.08-.29.12-.27.16-.25.19-.23.24-.22.27-.19.3-2.49,4.3-.15.31-.12.3-.07.3,0,.31v.29l0,.3.09.29.13.3.17.29.21.29.25.28.29.29.34.28.37.28.41.28.46.27.43.24.41.2.41.17.39.15.38.11.38.09.36.05.36,0,.34,0,.31-.05.3-.09.28-.14.26-.18.24-.23.22-.26Zm10.19,1.84.14-.17.13-.19.9-1.57.18-.35.11-.33.05-.31,0-.29-.07-.28-.15-.28-.2-.27-.27-.27-.33-.28-.41-.3-.49-.32-.56-.34-3.2-1.84-5.24,9.09,1.36.78L250.4,963l1.31.76.37,5.38,1.66,1-.57-5.73.5.25.49.18.48.09h.47l.22,0,.21,0,.19-.08.18-.09.17-.12Zm8.16,8.76,2.49-4.32.17-.32.12-.32.08-.31.05-.32v-.31l0-.31-.08-.3-.13-.3-.17-.3-.21-.3-.25-.29-.29-.29-.34-.29-.37-.29-.42-.28-.46-.28-.47-.25-.45-.22-.43-.18-.41-.15-.4-.1-.37-.07-.36,0h-.34l-.33,0-.3.08-.29.12-.27.16-.25.19-.23.23-.22.27-.19.31-2.48,4.29-.16.31-.12.31-.07.3,0,.3v.3l0,.3.09.29.13.29.17.29.21.29.25.29.29.28.34.28.37.28.42.28.45.28.43.23.41.2.41.18.39.14.39.12.37.08.36.06.36,0h.34l.32-.05.3-.1.27-.14.26-.18.24-.22.22-.27Zm13.78-1.07-1.19-.68-4.34,7.5L272,968.59l-1.63-.94-5.25,9.08,1.19.69,4.41-7.63.53,10.48,1.64,1Zm1.07,11c-2.14.16-4,1.24-3.37,3.51.49,1.8,1.2,4.41,4.16,3.74,3.14.21,3.78-2.43,3.86-4.22C284,983.41,281.55,983,279.24,983.12Zm13.81-49c0-13-11.56-24.82-24.41-23.89-13.8,1-23.31,9.64-23.76,24.6-.41,13.43,10,23.48,23.67,23.5C283.18,958.35,293.06,948.59,293.05,934.13Z"/><path class="cls-1" d="M299.47,880.4a5.92,5.92,0,0,0-2.5-10.57l-4.22-.74a7.12,7.12,0,0,0-3.08.13l-11.35,3A21.36,21.36,0,0,1,263,870.59L254.17,866a2.14,2.14,0,0,0-2,3.79l1.48.77a2.87,2.87,0,0,1,1.44,1.79l2.37,8.85a2.84,2.84,0,0,1-.44,2.4c-.44.61-.85,1.25-1.23,1.9a5.73,5.73,0,0,0-.64,4.15,1.44,1.44,0,0,0,1.71,1.07,1.36,1.36,0,0,0,.41-.17c1.58-.94,3.21-1.82,4.86-2.61a1.06,1.06,0,0,0,.14-1.85,2.15,2.15,0,0,1-.32-3.3l.21-.2a5.76,5.76,0,0,1,2.47-1.4L282,876.58l.79-.17.8-.11.81,0,.8,0,.8.11.79.17.77.24.75.31.71.37.69.44.64.49.59.54.55.6.49.64.43.68.38.72,3,6.36a2.14,2.14,0,1,0,3.87-1.81l-1.06-2.27A2.85,2.85,0,0,1,299.47,880.4Zm-1-4.74a2.49,2.49,0,1,1-5,0h0a2.49,2.49,0,0,1,5,0Z"/><path class="cls-1" d="M383,866.08H319.41a4.27,4.27,0,0,0-4.27,4.27v3.13a.57.57,0,0,0,.57.57h20.23v-.42a2.42,2.42,0,1,1,3.43,0h0v.42h16.25a4.85,4.85,0,0,1,4.84,4.85v12.82a2.85,2.85,0,0,0,2.85,2.85H383a5.7,5.7,0,0,0,5.7-5.7v-17.1A5.7,5.7,0,0,0,383,866.08Zm-8.54,18.16a3.92,3.92,0,1,1,3.91-3.92A3.91,3.91,0,0,1,374.42,884.24Z"/><path class="cls-2" d="M350.58,893.35H312.11a5.13,5.13,0,0,0-5.12,5.13v10a6.28,6.28,0,0,0,1.83,4.43l6,6a6.28,6.28,0,0,0,4.43,1.83h24.25a6.28,6.28,0,0,0,4.43-1.83l6-6a6.28,6.28,0,0,0,1.84-4.43v-10A5.13,5.13,0,0,0,350.58,893.35ZM331.35,911.3a4.28,4.28,0,1,1,4.27-4.27A4.28,4.28,0,0,1,331.35,911.3Z"/><path class="cls-2" d="M412,997.8l-22.33-12.89a1.43,1.43,0,0,1-.52-1.95L402,960.63a1.42,1.42,0,0,0-.52-1.94l-54.33-31.37-.56-.28-.58-.21-.61-.14-.6-.07h-.61l-.59.09-.57.15-.53.23-.49.3-.44.36-.38.41-.31.46-42.8,74.12a4.41,4.41,0,0,0-.28,3.8l1.17,3a4.47,4.47,0,0,0,1.9,2.21L375.68,1055l.51.24.53.17.56.09h.57l.58-.06.57-.15.56-.22.52-.3.5-.36.45-.42.4-.48.34-.52,30.73-53.22A1.42,1.42,0,0,0,412,997.8Zm-33.64-43.16a7.13,7.13,0,1,1-7.13,7.12A7.12,7.12,0,0,1,378.34,954.64Zm-6.65,32.89A4.27,4.27,0,1,1,376,991.8,4.27,4.27,0,0,1,371.69,987.53Zm7.77,38.74-2.15,3.72-4.81-9.56,2.15-3.72Zm-33.57-90.36a7.12,7.12,0,1,1-7.12,7.12A7.12,7.12,0,0,1,345.89,935.91Zm-8.17,25.27a4.27,4.27,0,1,1-4.28,4.27A4.27,4.27,0,0,1,337.72,961.18ZM315.64,1008a4.28,4.28,0,1,1,4.27-4.28A4.28,4.28,0,0,1,315.64,1008Zm38.24,22.08a4.28,4.28,0,1,1,4.27-4.28A4.28,4.28,0,0,1,353.88,1030.05Zm10.44-34.43a18.52,18.52,0,0,1-37,0h0a18.52,18.52,0,1,1,37,0Zm8.49,51.5a7.13,7.13,0,1,1,7.12-7.13A7.13,7.13,0,0,1,372.81,1047.12Zm13.26-14.43-9.61-19.12,2.15-3.72,9.61,19.12Zm4-6.85-4.8-9.56,2.15-3.73,4.8,9.57Zm3.72-15a7.13,7.13,0,1,1,7.12-7.13A7.13,7.13,0,0,1,393.75,1010.85Z"/><path class="cls-2" d="M882.56,227l-81.43-47a2.85,2.85,0,0,0-3.89,1h0l-1.42,2.47,2.47,1.42a2.86,2.86,0,0,0-3.9,1.05l-12.83,22.22a4.27,4.27,0,0,1-3.7,2.14H764.7a8.54,8.54,0,0,0-7.4,4.27L750.72,226a8.57,8.57,0,0,0,0,8.54l6.58,11.4a4.24,4.24,0,0,1,0,4.27l-4.22,7.31a2.85,2.85,0,0,0,1,3.89l7.4,4.27a1.14,1.14,0,0,0,.41,1.56L794.51,286a1.15,1.15,0,0,0,1.56-.42l7.4,4.27a1.14,1.14,0,0,0,.42,1.56l23.7,13.68a1.12,1.12,0,0,0,1.55-.42l7.41,4.28a1.42,1.42,0,0,0,1.94-.52,1.4,1.4,0,0,0,.15-1.06,7.83,7.83,0,0,1,.82-5.78l6.36-11,.11-.18a7.68,7.68,0,0,0,.52-6.58,4.28,4.28,0,0,1,.29-3.66l14.12-24.46a4.3,4.3,0,0,1,3-2.08,7.73,7.73,0,0,0,5.44-3.75l.1-.18,6.36-11a7.87,7.87,0,0,1,4.6-3.61,1.43,1.43,0,0,0,.32-2.6l1.46.85,1.43-2.47A2.85,2.85,0,0,0,882.56,227Zm-56.17-12.4h13.16a4.27,4.27,0,0,1,3.7,2.14l6.58,11.39a4.3,4.3,0,0,1,0,4.28l-6.58,11.39a4.3,4.3,0,0,1-3.7,2.14H826.39a4.27,4.27,0,0,1-3.7-2.14l-6.58-11.39a4.25,4.25,0,0,1,0-4.28l6.58-11.39A4.25,4.25,0,0,1,826.39,214.59ZM819,250.2l-6.58,11.4a4.29,4.29,0,0,1-3.71,2.13H795.55a4.29,4.29,0,0,1-3.71-2.13l-6.57-11.4a4.24,4.24,0,0,1,0-4.27l6.57-11.4a4.29,4.29,0,0,1,3.71-2.13H808.7a4.29,4.29,0,0,1,3.71,2.13l6.58,11.4A4.28,4.28,0,0,1,819,250.2Zm-33.72-39.88,6.57-11.4a4.3,4.3,0,0,1,3.71-2.14H808.7a4.3,4.3,0,0,1,3.71,2.14l6.58,11.4a4.28,4.28,0,0,1,0,4.27L812.41,226a4.29,4.29,0,0,1-3.71,2.13H795.55a4.29,4.29,0,0,1-3.71-2.13l-6.57-11.4A4.24,4.24,0,0,1,785.27,210.32ZM754.42,232.4a4.3,4.3,0,0,1,0-4.28L761,216.73a4.27,4.27,0,0,1,3.7-2.14h13.16a4.25,4.25,0,0,1,3.7,2.14l6.58,11.39a4.25,4.25,0,0,1,0,4.28l-6.58,11.39a4.27,4.27,0,0,1-3.7,2.14H764.7a4.3,4.3,0,0,1-3.7-2.14ZM788.14,268l-.65,1.14a2.86,2.86,0,0,1-3.9,1l-22.2-12.82a2.85,2.85,0,0,1-1-3.89h0l.65-1.14a4.3,4.3,0,0,1,3.7-2.14h13.16a4.27,4.27,0,0,1,3.7,2.14l6.58,11.39A4.25,4.25,0,0,1,788.14,268ZM819,285.81l-.66,1.14a2.85,2.85,0,0,1-3.89,1.05l-22.21-12.82a2.86,2.86,0,0,1-1-3.9l.65-1.13a4.28,4.28,0,0,1,3.71-2.14H808.7a4.28,4.28,0,0,1,3.71,2.14L819,281.54A4.28,4.28,0,0,1,819,285.81Zm23.19,4.28-4.61,8a2.85,2.85,0,0,1-3.89,1L823.07,293a2.84,2.84,0,0,1-1-3.89l.66-1.14a4.27,4.27,0,0,1,3.7-2.14h13.32a2.86,2.86,0,0,1,2.47,4.28ZM849.83,268l-6.58,11.39a4.27,4.27,0,0,1-3.7,2.14H826.39a4.25,4.25,0,0,1-3.7-2.14L816.11,268a4.25,4.25,0,0,1,0-4.28l6.58-11.39a4.27,4.27,0,0,1,3.7-2.14h13.16a4.3,4.3,0,0,1,3.7,2.14l6.58,11.39A4.3,4.3,0,0,1,849.83,268ZM873,236.67l-6.65,11.52a4.28,4.28,0,0,1-3,2.08A7.73,7.73,0,0,0,857.9,254l-1.9,3.3a2.84,2.84,0,0,1-4.94,0L847,250.2a4.24,4.24,0,0,1,0-4.27l6.58-11.4a4.26,4.26,0,0,1,3.7-2.13h13.32a2.85,2.85,0,0,1,2.47,4.27Z"/><path class="cls-1" d="M962.72,271.08,899.8,234.75a6.4,6.4,0,0,0-8.75,2.35L854.72,300a6.41,6.41,0,0,0,2.35,8.76L920,345.1a6.41,6.41,0,0,0,8.75-2.35l36.33-62.92A6.4,6.4,0,0,0,962.72,271.08Zm-66.79-19.66a41,41,0,0,1,27.93,0,4.66,4.66,0,0,1,.68.32,4.28,4.28,0,0,1,1.56,5.84l-5.92,10.26a4.3,4.3,0,0,1-3.71,2.14H903.32a4.3,4.3,0,0,1-3.71-2.14l-5.92-10.26a4.66,4.66,0,0,1-.32-.68A4.28,4.28,0,0,1,895.93,251.42Zm5.41,45-4.16-2.4,21.36-10.74,4.16,2.4Zm18.34-.95L909,300.88l-4.16-2.4,10.68-5.37ZM900.2,284.27l10.68-5.37,4.16,2.4-10.68,5.37Zm-24.5-16.88-2.42,4.18A40.49,40.49,0,0,1,875.7,267.39Zm-6.13,15.38a41.36,41.36,0,0,1,2.1-7.56c.15-.38.3-.75.46-1.13l5.17-8.95c.24-.32.49-.64.74-.95a41.51,41.51,0,0,1,5.49-5.6,4.28,4.28,0,0,1,6,.52,5.16,5.16,0,0,1,.43.61L895.91,270a4.24,4.24,0,0,1,0,4.27l-6.58,11.4a4.27,4.27,0,0,1-3.7,2.14H873.78a4.28,4.28,0,0,1-4.27-4.28A4.52,4.52,0,0,1,869.57,282.77Zm20,38a4.29,4.29,0,0,1-6,.52,41,41,0,0,1-14-24.19,4.74,4.74,0,0,1-.06-.75,4.27,4.27,0,0,1,4.27-4.27h11.85a4.25,4.25,0,0,1,3.7,2.14l6.58,11.39a4.25,4.25,0,0,1,0,4.28L890,320.13A5.27,5.27,0,0,1,889.56,320.75Zm34.3,7.67a40.87,40.87,0,0,1-27.93,0,4.6,4.6,0,0,1-.68-.31,4.28,4.28,0,0,1-1.56-5.84L899.61,312a4.29,4.29,0,0,1,3.71-2.13h13.15a4.29,4.29,0,0,1,3.71,2.13l5.92,10.27a4.22,4.22,0,0,1,.32.68A4.27,4.27,0,0,1,923.86,328.42Zm20.23-16,2.42-4.19A40.64,40.64,0,0,1,944.09,312.46Zm6.13-15.38a41,41,0,0,1-2.1,7.55c-.15.38-.3.76-.46,1.13l-5.16,8.95-.75,1a41.51,41.51,0,0,1-5.49,5.6,4.29,4.29,0,0,1-6-.52,5.27,5.27,0,0,1-.43-.62l-5.92-10.26a4.25,4.25,0,0,1,0-4.28l6.58-11.39a4.25,4.25,0,0,1,3.7-2.14H946a4.28,4.28,0,0,1,4.28,4.27A4.76,4.76,0,0,1,950.22,297.08ZM946,287.79H934.16a4.27,4.27,0,0,1-3.7-2.14l-6.58-11.4a4.24,4.24,0,0,1,0-4.27l5.92-10.27a5.16,5.16,0,0,1,.43-.61,4.28,4.28,0,0,1,6-.52,41,41,0,0,1,14,24.19,4.53,4.53,0,0,1,.07.74A4.28,4.28,0,0,1,946,287.79Z"/><path class="cls-2" d="M810.6,315.53a5.54,5.54,0,0,0-2.57-3.38l-14.63-8.44,0-.2L808.12,312l-35.41-20.44a24.4,24.4,0,0,1-9.33-9.68,7.07,7.07,0,0,1-.62-1.6,5.64,5.64,0,0,0-2.63-3.5,6.75,6.75,0,0,1-1-.69c-1.28-1.07-2.61-2.08-4-3.07l-.09.15q-2.69-1.95-5.54-3.68a1.25,1.25,0,0,0-1.71.43v0l-1.54,2.66-.12-.15L734.48,292.7l-1.23,2.13-.17.33-.16.35-.25.73-.22.74-.19.71,0,.28.06.28.12.25.09.1.12.09,4,2.31-5.29,9.15-4-2.31-.13-.06-.13,0-.28,0-.27.08-.26.12-.51.52-.54.56-.5.59-.23.31-.2.31-1.23,2.13-.88,1.54.1-.16.13-.16.15-.13.15-.11L719.52,319l-.23,0L721,316.1l-8.45,14.64h.21l-2.66,4.6a1.24,1.24,0,0,0,.45,1.7h0a76.47,76.47,0,0,0,10.58,4.84,8.1,8.1,0,0,1,1.12.52,5.41,5.41,0,0,0,4.2.52,7.33,7.33,0,0,1,1.74-.27,24.39,24.39,0,0,1,13.14,3.27l35.41,20.44a5.53,5.53,0,0,0,4.21.54,24,24,0,0,0,14.47-11.16l12.76-22.11A24,24,0,0,0,810.6,315.53Zm-82.12,22.16a3.53,3.53,0,0,1-7.06,0h0a3.53,3.53,0,0,1,7.06,0Zm6.67-45.78,0-.2,0-.19.07-.19.09-.17,3.94-6.83.1.19Zm8.64,6.47a4.27,4.27,0,1,1,4.27,4.27A4.28,4.28,0,0,1,743.79,298.38Zm8.56,31.16a6.24,6.24,0,1,1,6.24-6.23A6.23,6.23,0,0,1,752.35,329.54Zm5-44.54a3.35,3.35,0,1,1,3.34-3.35A3.35,3.35,0,0,1,757.31,285Zm15.12,47.88-2.13-4.24,1-1.65,2.13,4.24Zm-.37-7.28,1-1.66,4.26,8.49-.95,1.65Zm4.84-.46,2.13,4.25-.95,1.65-2.14-4.24Zm10.92,37a4.28,4.28,0,0,1-5.84,1.56l-.86-.5a4.27,4.27,0,0,1,4.27-7.4l.87.5A4.28,4.28,0,0,1,787.82,362.13Zm1.58-7a4.28,4.28,0,1,1,4.27-4.28A4.28,4.28,0,0,1,789.4,355.12Zm20.49-31.24a4.28,4.28,0,0,1-5.83,1.57l-.86-.5a4.27,4.27,0,0,1,4.27-7.4l.87.49A4.27,4.27,0,0,1,809.89,323.88Z"/><path class="cls-2" d="M870.61,331.58l-.56-.56H824.44l-.55.56V366l.26.28.29.3h45.62l.28-.3.27-.28Zm-33.9,26.67a4.28,4.28,0,0,1-8.55,0v0a4.28,4.28,0,0,1,8.55,0Zm29.63,0a4.28,4.28,0,0,1-8.55,0v0a4.28,4.28,0,0,1,8.55,0Z"/><path class="cls-2" d="M966.34,364.72H950.67a13.63,13.63,0,0,1-6.29-1.54,11.32,11.32,0,0,0-5.29-1.31H923.44a11.49,11.49,0,0,1-4.18-.79,19.23,19.23,0,0,0-14.11,35.78c.28.11.57.22.86.31a59.2,59.2,0,0,0,19.11,3.17h41.22a4.28,4.28,0,0,0,4.27-4.28V369A4.28,4.28,0,0,0,966.34,364.72ZM921.29,379a9.09,9.09,0,1,1-18.17,0v0a9.09,9.09,0,1,1,18.17,0Zm16.56,3.82a3.85,3.85,0,1,1,3.84-3.84A3.84,3.84,0,0,1,937.85,382.81Zm22.79,0a3.85,3.85,0,1,1,3.84-3.84A3.84,3.84,0,0,1,960.64,382.81Z"/><path class="cls-2" d="M746.6,391.66l-19.74-11.4a2.84,2.84,0,0,1-1-3.89l2.9-5,.29-.54.27-.56.24-.58.21-.58.18-.6.15-.6.12-.61.09-.61.06-.62,0-.62,0-.62,0-.62-.09-.62-.12-.6-.15-.6-.2-.59-.21-.46-.24-.44-.3-.41-.33-.39-.52-.52-.54-.5-.56-.48-.58-.46-.59-.44-.61-.42-.62-.39-.64-.37-4.63-2.58-2.31-1.28-2.28-1.27-8.95-5-.22-.1-.23-.06h-.25l-.24,0-.22.1-.2.13-.17.17-.14.2-3.44,6-.12.28-.05.29,0,.31.08.28.14.28.17.23.23.21.24.18,5.4,3.11.52,1.95L688.82,392a1.41,1.41,0,0,1-1.94.52l-7.41-4.27a1.42,1.42,0,0,0-1.94.52l-3,5.27a5.71,5.71,0,0,0,2.09,7.79l3,1.74a5.63,5.63,0,0,1,2.32,2.53l1.78,3.81a14.15,14.15,0,0,0,5.79,6.31l32.2,18.6a4.27,4.27,0,0,0,5.84-1.57l20.65-35.77A4.28,4.28,0,0,0,746.6,391.66Zm-41.41-2.36a3.72,3.72,0,0,1-1.35-5.06L711,371.91a3.7,3.7,0,1,1,6.42,3.7L710.25,388A3.71,3.71,0,0,1,705.19,389.3ZM719.8,422a3.85,3.85,0,1,1,3.85-3.85A3.84,3.84,0,0,1,719.8,422Zm11.4-19.74a3.85,3.85,0,1,1,3.84-3.85A3.85,3.85,0,0,1,731.2,402.24Z"/><path class="cls-2" d="M740.81,461.26l-.49-3.2a4.4,4.4,0,0,0-2.15-3.15l-74.12-42.79-.5-.24-.54-.17-.56-.09h-.57l-.58.07-.57.14-.55.23-.53.29-.49.36-.45.42-.41.48-.34.52L626.6,468.45a1.41,1.41,0,0,0,.52,1.94l22.33,12.9a1.42,1.42,0,0,1,.52,1.94l-12.89,22.33a1.43,1.43,0,0,0,.52,1.95l53.21,30.72.56.28.59.21.6.14.61.07h.6l.59-.08.57-.16.54-.23.49-.3.43-.35.38-.42.32-.46,43.18-74.79A4.42,4.42,0,0,0,740.81,461.26Zm-55.6-23.12a4.28,4.28,0,1,1-4.27,4.28A4.28,4.28,0,0,1,685.21,438.14ZM666.92,420a7.12,7.12,0,1,1-7.12,7.12A7.12,7.12,0,0,1,666.92,420Zm8.5,83.29,3.72,2.15-9.56,4.81-3.73-2.15Zm-27.23-36.6a7.13,7.13,0,1,1,7.12-7.13A7.13,7.13,0,0,1,648.19,466.66Zm7.63,44a7.12,7.12,0,1,1,7.13-7.12A7.12,7.12,0,0,1,655.82,510.7Zm3-30a4.28,4.28,0,1,1,4.27,4.27A4.27,4.27,0,0,1,658.86,480.66Zm4.29,36.17,19.12-9.61,3.72,2.15L666.87,519Zm10.58,6.11L670,520.79l9.56-4.8,3.72,2.14Zm18.36,8.7a7.12,7.12,0,1,1,7.13-7.12A7.12,7.12,0,0,1,692.09,531.64ZM701.38,507a4.27,4.27,0,1,1,4.27-4.27A4.28,4.28,0,0,1,701.38,507ZM693.3,491.1a18.52,18.52,0,0,1-18.52-18.52v0A18.52,18.52,0,1,1,693.3,491.1Zm30.16-22.33a4.28,4.28,0,1,1,4.27-4.27A4.28,4.28,0,0,1,723.46,468.77Z"/><path class="cls-2" d="M663.78,541.09l-45-26a2.86,2.86,0,0,0-3.89,1l-11.39,19.74a2.86,2.86,0,0,0,1,3.9l1.77,1a11.37,11.37,0,0,1,5.31,6.92l.32,1.17a42.64,42.64,0,0,1,.22,21.23,19.23,19.23,0,1,0,37.9,3.94,11.44,11.44,0,0,1,1.52-6.08l13.28-23A2.85,2.85,0,0,0,663.78,541.09ZM617.35,533h0a3.85,3.85,0,1,1,7.69,0h0a3.85,3.85,0,1,1-7.69,0Zm22.33,41.75a8.87,8.87,0,1,1-17.73,0h0a8.87,8.87,0,0,1,17.73,0Zm6.8-23.3a3.85,3.85,0,1,1,3.85-3.85A3.85,3.85,0,0,1,646.48,551.4Z"/><path class="cls-2" d="M635,616.73,613.61,604.4a11.4,11.4,0,0,1-4-3.82l-.45-.71-.45-.65-.45-.62-.44-.59a31.46,31.46,0,0,0-8.93-7.88,6.28,6.28,0,0,1-2.09-2,.57.57,0,1,0-1,.61,7.39,7.39,0,0,0,2.53,2.41,1.21,1.21,0,0,1,.42.42,1.15,1.15,0,0,1-.42,1.56l-1.89,1.09-1.21.69a1.39,1.39,0,0,1-1.42,0l-2.56-1.47a1.43,1.43,0,0,1-.52-1.95l3.58-6.2.11-.22.06-.23,0-.24v-.24l-.06-.23-.09-.23-.14-.2-.16-.17a5.63,5.63,0,0,0-1-.74l-11.38-6.57-.18-.1-.79-.46-.48-.23-.51-.14-.52-.06-.52,0-.49.12-.47.2-.42.28-.36.34-.28.41-19,32.85-.59,1.07-.56,1.11-.52,1.14L555.6,614l-.44,1.19-.4,1.22-.36,1.24-.31,1.26-.72,3.08-.16.69-1.29,5.57a12.17,12.17,0,0,0-.19,4.38,4.29,4.29,0,0,0,2.1,3.1l52.64,30.39a5.69,5.69,0,0,0,7.78-2.08l22.8-39.48A5.69,5.69,0,0,0,635,616.73Zm-28,5a2.42,2.42,0,1,1,4.84,0h0a2.42,2.42,0,1,1-4.84,0Zm-14-22.38h6.91l3.45,6-3.45,6H593l-3.45-6Zm-21.18,16.95H564.9l-3.45-6,3.45-6h6.91l3.46,6Zm7.52-21.15a3.84,3.84,0,0,1-3.84-3.85h0a3.85,3.85,0,1,1,7.69,0h0A3.84,3.84,0,0,1,579.33,595.12Zm6.54,35-3.45-6,3.45-6h6.91l3.45,6-3.45,6Zm9.7,11.28h0a2.42,2.42,0,1,1,4.84,0h0a2.42,2.42,0,0,1-4.84,0Zm13.14,12.77a2.84,2.84,0,0,1-3.89,1l-3.7-2.14a2.84,2.84,0,0,1-1-3.89l17.09-29.61a2.85,2.85,0,0,1,3.89-1l3.71,2.14a2.85,2.85,0,0,1,1,3.89Zm10.21-2.08a2.42,2.42,0,1,1-4.84,0h0a2.42,2.42,0,0,1,4.84,0Zm11.4-19.74a2.43,2.43,0,1,1-4.85,0h0a2.43,2.43,0,0,1,4.85,0Z"/><path class="cls-1" d="M590,672.13l-40.22-23.22A8.54,8.54,0,0,0,538.07,652l-.24.41-2.23,3.87L471.45,767.43l-2.24,3.87-.23.4a8.55,8.55,0,0,0,3.13,11.68l40.21,23.22A8.55,8.55,0,0,0,524,803.47l.32-.55,2.07-3.58,64.31-111.4,2.07-3.58.32-.55A8.55,8.55,0,0,0,590,672.13ZM493.59,792.64l-2.4-4.78,1.07-1.86,2.41,4.78ZM498,794l-4.8-9.56,1.07-1.87,4.81,9.57Zm2-3.43-2.4-4.78,1.07-1.86,2.41,4.78Zm67.38-67.85L551,751l-8.55,14.81L526.16,794a1.42,1.42,0,0,1-1.94.52L476.6,767.06a1.43,1.43,0,0,1-.52-1.95l41.16-71.31a1.43,1.43,0,0,1,2-.52l.31.18L559,716.25l7.83,4.53A1.42,1.42,0,0,1,567.33,722.72Zm10.56-28a3.57,3.57,0,0,1-4.87,1.3h0l-6-3.49-2.29-1.32a2.86,2.86,0,0,0-3.89,1L558.66,696a1.42,1.42,0,0,1-1.94.52L537,685.13a1.41,1.41,0,0,1-.52-1.94l10.68-18.51a1.43,1.43,0,0,1,2-.52l19.74,11.39a1.43,1.43,0,0,1,.52,2l-2.14,3.7a2.84,2.84,0,0,0,1,3.89l2.29,1.32,6,3.49A3.57,3.57,0,0,1,577.89,694.77Z"/><path class="cls-2" d="M453.54,939.31a14.41,14.41,0,0,0,14-14.78v-.18l-1.09-28.46a20.91,20.91,0,0,0-21.69-20.08l-1,.06-17.28,1.51a14.05,14.05,0,0,0-9.54,5L403,899a1.24,1.24,0,0,0,.15,1.75l10,8.36L394,931.84l10.4,8.72Zm5.08-9.83-6.69,2.43-5.45-4.58,1.24-7,6.69-2.43,5.45,4.58Zm.55-17.52a2.25,2.25,0,1,1-2.25,2.25A2.24,2.24,0,0,1,459.17,912Zm-24.63-24.55a2.86,2.86,0,0,1,4-.35l2.32,2a.73.73,0,0,0,.79.08,8.93,8.93,0,0,1,1.4-.57l-.16-.14a8.6,8.6,0,0,1,3.9-.34l-.14.16a8.33,8.33,0,0,1,1.48.33.72.72,0,0,0,.76-.23l1.95-2.32a2.85,2.85,0,0,1,4.37,3.66l-2,2.33a.7.7,0,0,0-.09.78,9,9,0,0,1,.58,1.4l.13-.16a8.6,8.6,0,0,1,.34,3.9l-.16-.14a8.41,8.41,0,0,1-.32,1.49.69.69,0,0,0,.22.75l2.33,2a2.85,2.85,0,1,1-3.67,4.36l-2.32-2a.71.71,0,0,0-.79-.09,9,9,0,0,1-1.4.58l.16.13a8.74,8.74,0,0,1-3.9.35l.14-.17a8.31,8.31,0,0,1-1.48-.32.7.7,0,0,0-.76.22l-2,2.33a2.85,2.85,0,0,1-4.37-3.67l1.95-2.32a.71.71,0,0,0,.09-.79,8.93,8.93,0,0,1-.57-1.4l-.14.16a8.59,8.59,0,0,1-.34-3.9l.16.14a8.31,8.31,0,0,1,.32-1.48.71.71,0,0,0-.22-.76l-2.32-2A2.85,2.85,0,0,1,434.54,887.41ZM423.94,886a2.25,2.25,0,1,1-2.25,2.24A2.24,2.24,0,0,1,423.94,886Zm-15.5,40.85a2.25,2.25,0,1,1-2.25,2.25A2.24,2.24,0,0,1,408.44,926.82Z"/><path class="cls-2" d="M513.21,836.53l-3.38-1.95a1.57,1.57,0,0,1-.68-1.92,34,34,0,0,1,5.35-9.28,2.81,2.81,0,0,0,.61-2,5.35,5.35,0,0,0-2.64-4l-3-1.72-1-.56-.29-.13-.4-.1h-.4l-.37.08-.32.14-.12.08A14.74,14.74,0,0,1,483.86,802v-.14l0-.35-.12-.36-.2-.34-.29-.3-.26-.18-1-.56-23.17-13.38a5.73,5.73,0,0,0-4.36-.56,24.24,24.24,0,0,0-14.57,11.25l-12.76,22.1a24.25,24.25,0,0,0-2.46,18.25,5.72,5.72,0,0,0,2.67,3.49l53.65,31a5.4,5.4,0,0,0,4.77.29,2.83,2.83,0,0,0,1.47-1.55,33.73,33.73,0,0,1,5.36-9.28,1.57,1.57,0,0,1,2-.36l3.38,1.95h0l.5.29a1.43,1.43,0,0,0,1.95-.52l1.92-3.33,10-17.27,1.93-3.33a1.42,1.42,0,0,0-.53-1.95l-.5-.29Zm-80.93-3.63a2.5,2.5,0,0,1-3.41.91l-.86-.5A2.49,2.49,0,0,1,430.5,829l.86.5A2.5,2.5,0,0,1,432.28,832.9Zm16.89-41.24a2.5,2.5,0,0,1,3.41-.91l.86.5a2.49,2.49,0,1,1-2.49,4.31l-.86-.49A2.5,2.5,0,0,1,449.17,791.66Zm-6.54,10.39a3.42,3.42,0,0,1,6.84,0h0a3.42,3.42,0,1,1-6.84,0ZM470.52,855a2.5,2.5,0,0,1-3.41.92l-.86-.5a2.49,2.49,0,0,1,2.49-4.32l.87.5A2.5,2.5,0,0,1,470.52,855Zm3.69-23.37a16.09,16.09,0,0,1-22,5.91l-.86-.5a16.09,16.09,0,0,1,16.09-27.88l.87.5A16.09,16.09,0,0,1,474.21,831.6Zm3.05-2a5.84,5.84,0,1,1,5.84,5.84A5.84,5.84,0,0,1,477.26,829.59Zm6.33,37.5a3.42,3.42,0,1,1,3.42-3.42A3.42,3.42,0,0,1,483.59,867.09Zm3.8-9.88a2.69,2.69,0,1,1,2.7-2.69A2.69,2.69,0,0,1,487.39,857.21Zm19.28-31a2.5,2.5,0,1,1,2.49-2.5A2.5,2.5,0,0,1,506.67,826.2Z"/><path class="cls-2" d="M518.68,980.93,466,950.54a4.26,4.26,0,0,0-3.73-.26,12.06,12.06,0,0,0-3.7,2.35l-4.17,3.9-.52.49-2.31,2.16-.93.9-.9.93-.85,1-.82,1-.77,1-.73,1-.69,1-.63,1-19,32.85-.2.45-.12.49,0,.5.06.5.15.49.23.47.31.42.38.36.44.3.79.46.18.11,11.38,6.57a5.73,5.73,0,0,0,3,.76c.82,0,1.64-.08,2.46-.17a6.2,6.2,0,0,1,3.8.76,31.62,31.62,0,0,0,14.42,4.06,11.48,11.48,0,0,1,5.29,1.52l21.35,12.33a5.69,5.69,0,0,0,7.78-2.09l22.79-39.47A5.7,5.7,0,0,0,518.68,980.93Zm-28,5a2.43,2.43,0,0,1,4.85,0h0a2.43,2.43,0,0,1-4.85,0Zm-46.5,8.93a3.85,3.85,0,0,1-7.69,0h0a3.85,3.85,0,0,1,7.69,0Zm3.67-13-3.45-6,3.45-6h6.91l3.46,6-3.46,6Zm16.64,26.82h-6.91l-3.45-6,3.45-6h6.91l3.45,6ZM470.37,993l-3.45-6,3.45-6h6.91l3.45,6-3.45,6Zm8.92,12.64h0a2.42,2.42,0,1,1,4.84,0h0a2.42,2.42,0,0,1-4.84,0Zm13.14,12.77a2.85,2.85,0,0,1-3.89,1l-3.7-2.14a2.85,2.85,0,0,1-1-3.89l17.1-29.61a2.84,2.84,0,0,1,3.89-1l3.7,2.14a2.84,2.84,0,0,1,1,3.89Zm10.21-2.09a2.43,2.43,0,0,1-4.85,0h0a2.43,2.43,0,0,1,4.85,0ZM514,996.59a2.42,2.42,0,1,1-4.84,0h0a2.42,2.42,0,1,1,4.84,0Z"/><path class="cls-1" d="M510.66,886.37l-5.58-2a6.71,6.71,0,0,0-9,6.29v1.08a4.7,4.7,0,0,1-1.25,3.2,5.66,5.66,0,0,0-1.52,3.87v5.47l.64.64h1.09a2.14,2.14,0,0,1,1.09,4.13,2.23,2.23,0,0,1-1.09,0H494l-.64.64v8.85a4.53,4.53,0,0,0,2,3.75l4.42,3a7.11,7.11,0,0,1,3.08,5.86v17.35a1.43,1.43,0,0,0,1.42,1.42h0a60.12,60.12,0,0,0,6.95-.58V887.13Zm-7.87,6.54a2.28,2.28,0,0,1-2.28-2.28h0a2.28,2.28,0,1,1,2.28,2.28Z"/><path class="cls-2" d="M582.17,902.61H553.68l-.48,0-.49-.06-.48-.1-.49-.14-.45-.11L550,902l-.13-.37-.21-.36-.24-.31-.29-.29-.49-.46-.47-.51-.23-.29-.22-.36-.2-.41-.17-.46-.14-.5-.1-.53-.07-.55,0-.56v-4.6l0-.56.07-.55.1-.53.14-.5.17-.46.2-.41.22-.36.23-.29.47-.51.49-.46.29-.29.24-.31.21-.35.13-.37,1.3-.22.45-.11.21-.06.45-.11.53-.08.6,0,.67,0H556l2.08,0h22.64a2.83,2.83,0,0,0,2.83-2.83V869.84a2.83,2.83,0,0,0-2.83-2.82H536.45a4.3,4.3,0,0,0-2.36.71l-5.56,3.71a4.25,4.25,0,0,0-1.9,3.54v48.13a4.25,4.25,0,0,0,1.9,3.54l5.56,3.71a4.22,4.22,0,0,0,2.36.71h44.29a2.83,2.83,0,0,0,2.83-2.82V904A1.42,1.42,0,0,0,582.17,902.61Zm-15.32-26.72a2.5,2.5,0,1,1,5,0h0a2.5,2.5,0,0,1-5,0Zm4.83,47.38a2.5,2.5,0,1,1-5,0h0a2.5,2.5,0,0,1,5,0Z"/><path class="cls-2" d="M651.67,867.61H603.24a4.28,4.28,0,0,0-4.28,4.28v31.34a2.86,2.86,0,0,0,2.85,2.85h25.54a7.12,7.12,0,0,0,5-2.09l22.3-22.3a4.28,4.28,0,0,0,1.25-3v-6.77A4.28,4.28,0,0,0,651.67,867.61Zm-9.9,20.95-7.71,7.72a1.42,1.42,0,0,1-2.43-1v-7.71a1.41,1.41,0,0,1,1.42-1.43h7.71a1.43,1.43,0,0,1,1.43,1.43A1.38,1.38,0,0,1,641.77,888.56Z"/><path class="cls-2" d="M623.4,983.17l-34.55-19.94A4.27,4.27,0,0,0,583,964.8l-11.73,20.32a1.42,1.42,0,0,1-1.94.52l-14.81-8.55a7.13,7.13,0,0,0-9.73,2.61l-61,105.72a7.12,7.12,0,0,0,2.61,9.73l17.27,10a4.27,4.27,0,0,0,5.84-1.57l6.73-11.66a7.12,7.12,0,0,1,4.33-3.32l34.26-9.18a14.25,14.25,0,0,0,8.65-6.63l18.77-32.53a28.49,28.49,0,0,1,13.37-11.9,5.22,5.22,0,0,0,2.38-2.1,32.71,32.71,0,0,1,11.52-11.53,4.23,4.23,0,0,0,1.52-1.54L625,989A4.28,4.28,0,0,0,623.4,983.17ZM505.8,1088.11a3.85,3.85,0,1,1-3.85-3.84,3.85,3.85,0,0,1,3.85,3.84Zm7.55-15.89a3.85,3.85,0,1,1,3.84-3.85A3.85,3.85,0,0,1,513.35,1072.22Zm34.35-82.83a3.85,3.85,0,1,1,7.69,0h0a3.85,3.85,0,1,1-7.69,0ZM541.08,1005a2.49,2.49,0,1,1-2.5,2.49A2.5,2.5,0,0,1,541.08,1005Zm-15.86,33.87a3.85,3.85,0,1,1,3.84-3.85A3.85,3.85,0,0,1,525.22,1038.9Zm32,31.44a2.5,2.5,0,1,1,2.49-2.49A2.49,2.49,0,0,1,557.24,1070.34Zm7.31-27.06a16.38,16.38,0,0,1-31.64-3.48,2.92,2.92,0,0,1,.2-1.46,8.5,8.5,0,0,0,.52-4.78,2.94,2.94,0,0,1,.13-1.47,16.38,16.38,0,0,1,30.79,11.19Zm17.26-13.67a2.49,2.49,0,1,1-5,0h0a2.49,2.49,0,1,1,5,0ZM593,979.85a3.85,3.85,0,0,1-7.69,0h0a3.85,3.85,0,1,1,7.69,0Zm19.74,11.39a3.85,3.85,0,0,1-7.7,0h0a3.85,3.85,0,0,1,7.7,0Z"/><path class="cls-2" d="M676.66,983.34l-2.77-4.79a1.42,1.42,0,0,0-1.91-.48l-.36.21-.22.08h-.24l-.11,0-.11-.05-.09-.08-.07-.09.93-.54.45-.25a1.43,1.43,0,0,0,.52-2l-16.81-29.11a1.43,1.43,0,0,0-2-.52l-.44.25-.94.54h0l0-.11,0-.12v-.12l0-.11.12-.21.19-.15.35-.21a1.42,1.42,0,0,0,.55-1.9L651,938.81a2.84,2.84,0,0,0-3.85-1L626.7,949.6a7.09,7.09,0,0,0-3.31,4.32l-1.61,6a7.13,7.13,0,0,0,.72,5.4l17,29.44a7.14,7.14,0,0,0,4.32,3.32l6,1.6a7.12,7.12,0,0,0,5.4-.71l20.4-11.78A2.85,2.85,0,0,0,676.66,983.34Zm-8.93-3.09,0,.11-.12.2-.19.16-7.63,4.4a2.85,2.85,0,0,1-3.89-1l-6.78-11.75a5.27,5.27,0,0,1-2.39-4.13l-6.78-11.75a2.86,2.86,0,0,1,1-3.9l7.63-4.4.23-.08h.23l.12,0,.11.06.09.07.07.1h0l-1,.58-6.73,3.89a2.84,2.84,0,0,0-1.27,3.4l6.89,11.94.33-.19a4.28,4.28,0,1,1,4.28,4.27,4.34,4.34,0,0,1-2.14-.57l-.33.19,6.89,11.93a2.85,2.85,0,0,0,3.58.61l6.74-3.89,1-.58,0,.11,0,.11Z"/><path class="cls-1" d="M711.55,837.41A18.52,18.52,0,1,1,730.08,856a18.52,18.52,0,0,1-18.53-18.54v0Zm22.28-6.24,5.86,11.65,2.51-4.36-5.85-11.64Zm-11-3.38,11.86,23.6,2.51-4.35-11.86-23.6Zm.9,20.22,2.52-4.35L720.44,832l-2.51,4.36Z"/><path class="cls-2" d="M820.87,899.8l0-.23-.1-.23-2.49-4.48-2.48-4.47-1.27-2.27-1.28-2.32-2.58-4.62-.37-.64-.39-.62-.42-.61-.44-.59-.46-.58-.48-.56-.5-.54-.53-.52-.38-.33-.41-.3-.44-.25-.46-.2-.56-.19-.58-.15-.58-.12-.59-.09-.6,0-.62,0-.61,0-.63,0L800,875l-.63.11-.62.15-.61.19-.6.21-.59.24-.58.28-.56.3-5,2.9a2.85,2.85,0,0,1-3.89-1l-11.39-19.74a4.27,4.27,0,0,0-5.84-1.57l-35.78,20.66a4.28,4.28,0,0,0-1.56,5.84l18.59,32.2a14.28,14.28,0,0,0,6.32,5.79l3.81,1.78a5.71,5.71,0,0,1,2.53,2.31l1.74,3a5.69,5.69,0,0,0,7.78,2.08l5.28-3a1.43,1.43,0,0,0,.52-1.95l-4.28-7.4a1.42,1.42,0,0,1,.53-1.94l32.07-18.52,2,.52,3.11,5.39.17.25.21.22.24.18.28.14.28.08h.31l.29,0,.28-.11,6-3.44.2-.14.18-.17.13-.2.09-.23,0-.24ZM749,889.21a3.85,3.85,0,1,1,3.85-3.84A3.84,3.84,0,0,1,749,889.21Zm19.74-11.39a3.85,3.85,0,1,1,3.85-3.85A3.85,3.85,0,0,1,768.72,877.82Zm26.49,16.39-12.34,7.12a3.7,3.7,0,0,1-3.7-6.42l12.34-7.12a3.7,3.7,0,0,1,3.7,6.42Z"/><path class="cls-2" d="M888.2,879.09l-6.06-10.5-10.83-18.76a5.7,5.7,0,0,0-7.78-2.08l-27.14,15.67a5.69,5.69,0,0,0-2.08,7.78L845.13,890l6.06,10.51a5.72,5.72,0,0,0,5.87,2.77,5.82,5.82,0,0,0,1.92-.69l27.14-15.67a5.8,5.8,0,0,0,1.56-1.32A5.69,5.69,0,0,0,888.2,879.09Zm-18.65,3a4.28,4.28,0,0,1-8.55,0v0a4.28,4.28,0,0,1,8.55,0Z"/><path class="cls-1" d="M963,828.23l-.09-.16-14.11-24.74A21.09,21.09,0,0,0,920,795.46c-.3.17-.59.35-.88.54l-14.63,9.31a14.29,14.29,0,0,0-6.25,8.93l-4.71,21.27,0,.29,0,.31.1.3.16.28a1.41,1.41,0,0,0,.82.52L907.12,840l-6.31,28.43-.11.5,13.49,3,43.06-23.82A14.61,14.61,0,0,0,963,828.23Zm-12.39-7.67a2.49,2.49,0,1,1-2.49,2.49A2.48,2.48,0,0,1,950.56,820.56Zm-43.25-1.81a2.5,2.5,0,1,1,2.49-2.49A2.49,2.49,0,0,1,907.31,818.75Zm5.11,43.4a2.5,2.5,0,1,1,2.49-2.5A2.5,2.5,0,0,1,912.42,862.15Zm18-31.56a16.81,16.81,0,1,1,16.81-16.81A16.81,16.81,0,0,1,930.44,830.59Zm21.81,11.3-6.74-1.49-2.08-6.59,4.67-5.1,6.74,1.5,2.08,6.59Z"/><path class="cls-2" d="M791.5,760.4h0l-27.14-15.67a1.42,1.42,0,0,0-1.94.52l-29.26,50.67-1.32,2.3L730,801.39a1.42,1.42,0,0,0,.52,1.94L757.67,819a1.43,1.43,0,0,0,2-.52l1.83-3.17,1.32-2.3L792,762.35A1.43,1.43,0,0,0,791.5,760.4Zm-17.94,22.54-9.9,17.15a4.28,4.28,0,0,1-5.84,1.56l-12.34-7.12a4.28,4.28,0,0,1-1.56-5.84l9.9-17.15a4.28,4.28,0,0,1,5.84-1.56L772,777.1A4.27,4.27,0,0,1,773.56,782.94Zm2.24-24.25a2.42,2.42,0,1,1,2.42-2.42A2.42,2.42,0,0,1,775.8,758.69Z"/><path class="cls-2" d="M822.48,702.61l-1.61-6a7.09,7.09,0,0,0-3.31-4.32l-20.4-11.77a2.84,2.84,0,0,0-3.85,1l-2.77,4.79a1.42,1.42,0,0,0,.55,1.9l.35.21.18.15.13.2,0,.12V689l0,.12,0,.1-.93-.54-.44-.26a1.43,1.43,0,0,0-2,.52l-16.81,29.12a1.42,1.42,0,0,0,.52,1.94l.44.26.94.54h0l-.08.09-.09.08-.11,0-.11,0h-.24l-.22-.08-.36-.21a1.43,1.43,0,0,0-1.92.48l-2.76,4.79a2.85,2.85,0,0,0,1.07,3.83l20.4,11.78a7.12,7.12,0,0,0,5.4.71l6-1.6a7.14,7.14,0,0,0,4.32-3.32l17-29.44A7.13,7.13,0,0,0,822.48,702.61Zm-18.14-3.45-6.78,11.75a5.27,5.27,0,0,1-2.39,4.13l-6.78,11.75a2.85,2.85,0,0,1-3.89,1l-7.63-4.4-.19-.16-.12-.2,0-.12v-.12l0-.11.05-.11h0l1,.58,6.73,3.89a2.86,2.86,0,0,0,3.59-.61l6.89-11.94-.33-.18A4.28,4.28,0,1,1,796,708.5a4.2,4.2,0,0,1,.57,2.13l.33.19,6.89-11.93a2.86,2.86,0,0,0-1.26-3.41l-6.74-3.88-1-.58.07-.09.09-.07.11-.06.12,0h.23l.23.09,7.63,4.4A2.86,2.86,0,0,1,804.34,699.16Z"/><path class="cls-2" d="M857.34,726.87l-2.18-8.15a6.27,6.27,0,0,0-2.92-3.8l-8.65-5a5.14,5.14,0,0,0-7,1.88l-19.23,33.31a5.13,5.13,0,0,0,1.88,7l8.65,5a6.23,6.23,0,0,0,4.76.62l8.15-2.18a6.27,6.27,0,0,0,3.8-2.92l12.13-21A6.28,6.28,0,0,0,857.34,726.87Zm-14.26,8.44a4.27,4.27,0,1,1-8.54,0h0a4.27,4.27,0,1,1,8.54,0Z"/><path class="cls-2" d="M894.92,755.27h-1.59v-.12l0-.11.06-.1.09-.08.2-.12.24,0h.41a1.42,1.42,0,0,0,1.42-1.37v-5.54A2.85,2.85,0,0,0,893,745H869.42a7.15,7.15,0,0,0-5,2.08L860,751.47a7.1,7.1,0,0,0-2.09,5v34a7.12,7.12,0,0,0,2.09,5l4.37,4.37a7.12,7.12,0,0,0,5,2.09H893a2.85,2.85,0,0,0,2.85-2.78v-5.54a1.43,1.43,0,0,0-1.42-1.37H894l-.24,0-.2-.12-.09-.08-.06-.1,0-.11v-.11h1.59a1.43,1.43,0,0,0,1.43-1.43V756.7A1.43,1.43,0,0,0,894.92,755.27Zm-5.19,36.58,0,.11-.07.1-.08.08-.21.12-.23,0h-8.81a2.84,2.84,0,0,1-2.85-2.85V775.88a5.27,5.27,0,0,1,0-4.77V757.54a2.85,2.85,0,0,1,2.85-2.85h8.81l.23,0,.21.12.08.08.07.1,0,.11,0,.12h-8.93a2.85,2.85,0,0,0-2.8,2.32v13.78h.38a4.29,4.29,0,1,1,0,4.27H878v13.78a2.85,2.85,0,0,0,2.8,2.32h8.93Z"/><path class="cls-2" d="M858.64,651.13l-10-37.15a5.13,5.13,0,0,0-6.28-3.63l-9.64,2.59a6.26,6.26,0,0,0-3.81,2.92l-19.33,33.48a6.26,6.26,0,0,0-.63,4.75l2.59,9.65a5.13,5.13,0,0,0,6.28,3.63l37.15-10A5.13,5.13,0,0,0,858.64,651.13Zm-33.16,1.2a4.28,4.28,0,1,1-8.55,0h0a4.28,4.28,0,1,1,8.55,0Zm16.11-27.91a4.28,4.28,0,0,1-8.55,0v0a4.28,4.28,0,0,1,8.55,0Z"/><path class="cls-1" d="M966.42,741.24h-6.13v23.07a1.42,1.42,0,0,1-1.42,1.43H918.41a1.43,1.43,0,0,1-1.42-1.43V741.24h-6.13a4.27,4.27,0,0,0-4.27,4.27V768.3a8.55,8.55,0,0,0,8.55,8.55h47a8.54,8.54,0,0,0,8.54-8.55V745.51A4.27,4.27,0,0,0,966.42,741.24Zm-27.78,32.41a2.5,2.5,0,1,1,2.49-2.5A2.49,2.49,0,0,1,938.64,773.65Z"/><path class="cls-1" d="M954.62,543.38h-72.9a4.28,4.28,0,0,0-4.28,4.28V708.34a4.28,4.28,0,0,0,4.28,4.28h72.9a4.28,4.28,0,0,0,4.28-4.28h0V547.66A4.28,4.28,0,0,0,954.62,543.38ZM918.1,646.24,902,635.64v-7.75l16.13,10.6Zm16.12-3.68L902,621.36v-7.75l32.25,21.2Zm0-14.28-16.12-10.6v-7.75l16.12,10.6Z"/><path class="cls-1" d="M970.25,536.5l-.14-.61-.23-.59-.31-.57-.39-.53-.47-.48-.54-.44-.59-.38-.66-.32-.69-.26-.72-.18-.75-.11-.76,0H878.94a30.87,30.87,0,0,0-6.77.75l-.56.15-.56.18-.54.21-.53.25-.51.28-.49.31-.47.34-.44.38-.42.41-.38.43-.34.47-.29.5-.25.52-.18.55-.12.56,0,.57v178.3l0,.53.1.51.16.5.21.49.25.46.3.44.34.44.39.42.44.4.48.38.52.35.54.32.57.27.58.24.6.2.61.16a30.87,30.87,0,0,0,6.77.75H964l.76,0,.75-.12.72-.18.69-.25.66-.32.59-.39.54-.43.47-.49.39-.53.31-.57.23-.59.14-.61,0-.62V537.12Zm-15.63,179h-72.9a7.12,7.12,0,0,1-7.12-7.13V547.66a7.11,7.11,0,0,1,7.12-7.12h72.9a7.12,7.12,0,0,1,7.13,7.12V708.34A7.13,7.13,0,0,1,954.62,715.47Zm9.26,4.63a2.5,2.5,0,1,1,2.5-2.5A2.5,2.5,0,0,1,963.88,720.1Zm0-179.21a2.49,2.49,0,1,1,2.5-2.49A2.49,2.49,0,0,1,963.88,540.89Z"/><path class="cls-2" d="M772.67,499H747.13a7.15,7.15,0,0,0-5,2.08l-22.3,22.3a4.3,4.3,0,0,0-1.25,3v6.77a4.28,4.28,0,0,0,4.27,4.28h48.43a4.28,4.28,0,0,0,4.28-4.28V501.85A2.85,2.85,0,0,0,772.67,499Zm-29.81,18.51a1.43,1.43,0,0,1-1.43,1.43h-7.71a1.43,1.43,0,0,1-1.43-1.43,1.4,1.4,0,0,1,.42-1l7.71-7.72a1.44,1.44,0,0,1,2,0,1.42,1.42,0,0,1,.42,1Z"/><path class="cls-2" d="M847.39,489.81h-10a6.26,6.26,0,0,0-4.43,1.84L805.64,519a6.27,6.27,0,0,0-1.84,4.44v10a5.13,5.13,0,0,0,5.13,5.13h38.46a5.13,5.13,0,0,0,5.13-5.13V494.94A5.13,5.13,0,0,0,847.39,489.81Zm-27.06,35.06a4.28,4.28,0,1,1-8.55,0v0a4.28,4.28,0,0,1,8.55,0Zm22.79-22.79a4.28,4.28,0,0,1-8.55,0v0a4.28,4.28,0,1,1,8.55,0Z"/><path class="cls-1" d="M879.94,466.28a18.52,18.52,0,0,1,37,0v0a18.52,18.52,0,1,1-37,0ZM902.23,460l5.85,11.65,2.52-4.36-5.86-11.64Zm-11-3.38,11.86,23.6,2.52-4.35-11.86-23.6Zm.91,20.22,2.51-4.36-5.85-11.64-2.51,4.35Z"/><path class="cls-2" d="M969.54,506.52H956a11.39,11.39,0,0,1-11.4-11.4v-52.7A11.39,11.39,0,0,1,956,431h13.53a3.56,3.56,0,1,0,0-7.12h-69.8a3.56,3.56,0,0,0,0,7.12h13.53a11.4,11.4,0,0,1,11.4,11.4v52.7a11.4,11.4,0,0,1-11.4,11.4H899.74a3.56,3.56,0,1,0,0,7.12h69.81a3.56,3.56,0,1,0,0-7.12Zm-1.35-79.07a1.35,1.35,0,1,1,2.7,0h0a1.35,1.35,0,1,1-2.7,0Zm-67.1,0a1.36,1.36,0,0,1-2.71,0h0a1.36,1.36,0,1,1,2.71,0Zm0,82.62a1.36,1.36,0,0,1-2.71,0h0a1.36,1.36,0,0,1,2.71,0Zm33.55-79.57a1.71,1.71,0,1,1-1.71,1.71A1.72,1.72,0,0,1,934.64,430.52ZM937.49,498a2.85,2.85,0,0,1-5.7,0V484.23a2.85,2.85,0,0,1,5.7,0Zm-4.56-20.87a1.71,1.71,0,1,1,1.71,1.71A1.71,1.71,0,0,1,932.93,477.1Zm4.56-7.12a2.85,2.85,0,0,1-5.7,0V439.57a2.85,2.85,0,0,1,5.7,0Zm33.4,40.11a1.35,1.35,0,1,1-2.7,0h0a1.35,1.35,0,0,1,2.7,0Z"/><path class="cls-2" d="M872.43,477.29a1.55,1.55,0,0,0,1.52-1.57,1.59,1.59,0,0,0-.42-1.08,8.76,8.76,0,0,1-2.33-6V454.46a8.56,8.56,0,0,0-3-6.56,4.76,4.76,0,0,1-1.68-3.64V413.2a4.76,4.76,0,0,1,1.68-3.64,8.56,8.56,0,0,0,3-6.56V388.79a8.76,8.76,0,0,1,2.33-6,1.59,1.59,0,0,0,0-2.21,1.49,1.49,0,0,0-1.05-.44h-9.12a1.23,1.23,0,0,0-1.21-1.25H832.92a1.23,1.23,0,0,0-1.22,1.25h-9.11a1.24,1.24,0,0,0-1.22-1.25H781.26a1.23,1.23,0,0,0-1.21,1.25h-9.12a3.09,3.09,0,0,0-3,3.14v9.27a4.73,4.73,0,0,1-2.28,4.07l-12.15,7.24A9.46,9.46,0,0,0,748.9,412V426.5a9.44,9.44,0,0,0,4.56,8.13l12.15,7.24a4.73,4.73,0,0,1,2.28,4.07v28.21a3.09,3.09,0,0,0,3,3.14h-3v3.13a3.08,3.08,0,0,0,3,3.13H871.2a3.08,3.08,0,0,0,3-3.13v-3.13Zm-24-86.15a3.09,3.09,0,0,1,3-3.14h13.07a3.09,3.09,0,0,1,3,3.14v10.13a3.08,3.08,0,0,1-3,3.13A3,3,0,0,1,863,404l-12.31-7.33a4.73,4.73,0,0,1-2.28-4.07Zm-38,0a3.09,3.09,0,0,1,3-3.14h27.35a3.09,3.09,0,0,1,3,3.14v1.44a4.72,4.72,0,0,1-2.27,4.07l-12.16,7.24a4.44,4.44,0,0,1-4.56,0l-12.15-7.24a4.73,4.73,0,0,1-2.28-4.07Zm-38,0a3.09,3.09,0,0,1,3-3.14h27.35a3.09,3.09,0,0,1,3,3.14v1.44a4.71,4.71,0,0,1-2.28,4.07l-12.15,7.24a4.44,4.44,0,0,1-4.56,0l-12.15-7.24a4.73,4.73,0,0,1-2.28-4.07Zm-4.56,46.66-12.15-7.23a4.74,4.74,0,0,1-2.28-4.07V412a4.73,4.73,0,0,1,2.28-4.07l12.15-7.24a4.44,4.44,0,0,1,4.56,0L784.6,408a4.71,4.71,0,0,1,2.28,4.07V426.5a4.72,4.72,0,0,1-2.28,4.07l-12.15,7.23A4.44,4.44,0,0,1,767.89,437.8Zm38,22.61a4.71,4.71,0,0,1-2.28,4.07l-12.15,7.23a4.44,4.44,0,0,1-4.56,0l-12.15-7.23a4.73,4.73,0,0,1-2.28-4.07V445.94a4.73,4.73,0,0,1,2.28-4.07l12.15-7.24a4.49,4.49,0,0,1,4.56,0l12.15,7.24a4.71,4.71,0,0,1,2.28,4.07Zm0-22.61-12.15-7.23a4.74,4.74,0,0,1-2.28-4.07V412a4.73,4.73,0,0,1,2.28-4.07l12.15-7.24a4.44,4.44,0,0,1,4.56,0L822.59,408a4.72,4.72,0,0,1,2.27,4.07V426.5a4.73,4.73,0,0,1-2.27,4.07l-12.16,7.23A4.44,4.44,0,0,1,805.87,437.8Zm38,22.61a4.72,4.72,0,0,1-2.27,4.07l-12.16,7.23a4.44,4.44,0,0,1-4.56,0l-12.15-7.23a4.73,4.73,0,0,1-2.28-4.07V445.94a4.73,4.73,0,0,1,2.28-4.07l12.15-7.24a4.49,4.49,0,0,1,4.56,0l12.16,7.24a4.72,4.72,0,0,1,2.27,4.07Zm0-22.61-12.15-7.23a4.74,4.74,0,0,1-2.28-4.07V412A4.73,4.73,0,0,1,831.7,408l12.15-7.24a4.44,4.44,0,0,1,4.56,0L860.57,408a4.72,4.72,0,0,1,2.27,4.07V426.5a4.73,4.73,0,0,1-2.27,4.07l-12.16,7.23A4.44,4.44,0,0,1,843.85,437.8Zm23.7,31.29a3.08,3.08,0,0,1-3,3.13,2.9,2.9,0,0,1-1.52-.42l-12.31-7.32a4.73,4.73,0,0,1-2.28-4.07V445.94a4.73,4.73,0,0,1,2.28-4.07l7.6-4.52a3,3,0,0,1,4.15,1.14,3.3,3.3,0,0,1,.4,1.57v4.2a8.59,8.59,0,0,0,3,6.56,4.73,4.73,0,0,1,1.68,3.64Z"/><path class="cls-2" d="M15.55,494.81q0,17.87,0,35.73c0,2.66.42,5.47-3.79,5.47-4,0-5.69-1.58-5.84-5.6-.32-8.67-.73-17.35-1.47-26C3.18,489.84,1.62,475.3.23,460.75c-.08-.83-.12-1.67-.12-2.5,0-28.12-.33-56.24.13-84.35C.47,359.71,2.05,345.55,3,331.37c.55-8.42,1-16.85,1.52-25.27C5,298.89,5.4,291.67,6,284.48c.31-3.65,3.23-6.44,6-6,3.55.63,3.55,3.43,3.55,6.18q0,35.51,0,71a17.27,17.27,0,0,0,.24,3.05c.75,4.15,2.66,5.54,7.31,5.66,3.64.09,7.29-.09,10.93.07,1.62.07,3.86.14,4.7,1.14,3.2,3.82,7.35,3.16,11.42,3.18,5.84,0,11.67-.06,17.51,0,4.14.06,8-.05,11.66-2.78,1.89-1.4,5-1.2,7.57-1.61,4.66-.73,9.69,1.57,14.14-1.77.37-.27,3.18,1.37,3.27,2.28,1.36,13.15,3.26,26.31.72,39.52a22.4,22.4,0,0,0-.37,4.62c.43,7.87,1.22,15.73,1.27,23.59,0,5.75-.94,11.5-1.41,17.25-.22,2.74-2,3.43-4,2.48-6.17-3-12.71-2.47-19.21-2.54-1,0-2.15.08-2.83-.43-9.67-7.21-20.72-2.73-31.11-3.76a1.57,1.57,0,0,0-1.11.32c-6.71,5.19-14.83,3.15-22.37,4.25-6.85,1-8.28,3.26-8.3,10.29C15.53,472,15.56,483.39,15.55,494.81ZM37.61,392.55l-.25,0c-3.44,0-7.1,0-8.83,1.73a27.51,27.51,0,0,0-7.16,10.55c-1.19,2.94-.42,7.26,1.94,10,1.48,2.58,7.24,8.8,14.54,8.09,7.09-.68,15.88-8.68,14.51-15.48-1-4.68-3.79-9.28-6.83-13.09C44.22,392.7,40.39,393.07,37.61,392.55Zm29.47,48.54.29,0c3.53,0,7.72-.91,9.82-3,3.23-3.24,7.09-8.21,6.74-12.08-.45-5-4.41-9.89-7.72-14.16-1.14-1.48-4.84-1.26-7.38-1.3-8.77-.16-17.31,6.77-16.47,14.53.5,4.65,3.35,9.42,6.28,13.27C59.94,440,63.67,440.53,67.08,441.09Zm-.55-36.76c4.3.29,8.69.21,10.28-1.52,3.31-3.58,7.07-8.46,7.13-12.84s-3.73-9.16-6.83-12.94c-1.32-1.6-5.22-1.54-7.91-1.43-3.7.15-8.48-.16-10.77,1.94-3.12,2.84-5.83,7.74-5.91,11.81s2.59,8.84,5.45,12C59.93,403.6,64.33,404.33,66.53,404.33ZM28.93,445a.79.79,0,0,0,.22,0c3-.38,6.59.06,8.92-1.42,2.92-1.86,5.39-3.71,9.06-3.49.79.05,2.34-1.6,2.4-2.55.23-3.23-4.26-7.86-7.54-8.05-2.4-.14-4.86.25-7.22-.1-5.66-.83-8.62,1.95-11,6.73C19.48,444.74,19.26,444.68,28.93,445Zm1.48-73.94s-2.74-.3-2.85-.05l-3.26.28a2.35,2.35,0,0,0-2,3.28c.84,1.95,1.64,3.9,2.44,5.88,2.07,5.14,5.95,6.5,11.06,5.86,1.67-.22,3.4,0,5.1-.05,3.77-.13,8.79-5.2,8.6-8.76,0-.6-.49-1.56-1-1.71A171.07,171.07,0,0,0,30.41,371.1ZM94.91,408h0c0-4.1.16-8.21-.06-12.3-.15-2.62-2.56-3.53-4.51-2-.17.13-.23.41-.34.61-2.38,4.14-5,8.16-7,12.47-1.15,2.5,6.26,14.75,9.13,15.46.72.18,2.59-1.22,2.64-2C95.05,416.25,94.91,412.14,94.91,408Zm0,29.33a9.38,9.38,0,0,0-1.1-6.31,1.59,1.59,0,0,0-2.08-.78,8.65,8.65,0,0,0-3.12,1.91c-1.36,1.57-2.06,3.73-3,5.65-.62,1.25-1.22,2.52-1.81,3.78a1.59,1.59,0,0,0,1.07,2.22,22.12,22.12,0,0,0,4.73.77C94.94,444.67,94.94,444.53,95,437.37Zm.54-57.88,0-.55c0-.47.24-1.57.06-1.62.07-1.81,1.39-4.52-.61-5.33-1.21-.48-.92-1.06-3.41-.84-1.19.11-2.31.23-3.4.39a3.86,3.86,0,0,0-3,5.24c.34.82.64,1.26,1.16,2.36.31.64.28.65.91,1.92s2.35,6.37,6,4.79C94.63,385.24,94.83,381.83,95.5,379.49Z"/><path class="cls-2" d="M530.61,164.47c5.4-.15,7.81,2.88,6.53,8.24-3.08,13-3.15,13.07,7.85,19.92,5.5,3.42,11.37,6.25,17,9.54,4.52,2.67,8.25,1.56,11.72-1.82,1.39-1.36,2.72-2.78,4.15-4.09,4-3.63,6.4-3.38,9.35,1.05,3.3,4.94,4.55,10,.45,15.21a22.82,22.82,0,0,0-2.85,5c-1.2,2.81-2.84,4.15-6.1,5.12s-6.39,4.15-8.54,7.12a117.81,117.81,0,0,0-10,16.66c-1.72,3.47-2,7.63-3.31,11.34-1.22,3.37-2.54,6.9-4.73,9.63-.89,1.13-4.46,1.08-6.29.31A102.73,102.73,0,0,1,533.16,261c-2.76-1.65-4.51-2-6.1,1.6-1.42,3.28-4.24,3.16-7.13,1.34-4.46-2.82-9-5.55-13.52-8.23-2.54-1.5-3.36-3.18-1.53-5.88,1.72-2.53,1.87-4.65-1.77-6-2.65-1-4.91-3-7.45-4.33-9.41-4.94-10.38-11.39-1.57-17.25,4.16-2.78,6.29-6.17,8.45-10.16,2.74-5.06,5.72-10,8.84-14.83a16.17,16.17,0,0,0,2.24-11.83C512.15,176.19,521.39,164.74,530.61,164.47Zm3.47,86.07C549,252.48,561.23,238,560.69,224c-.62-15.94-11.67-26.63-26.59-26.36s-25.83,10.47-26.6,26.75C506.82,238.59,519.73,252,534.08,250.54Z"/><path class="cls-2" d="M837.1,911.3c-.67.6-1.18,1.31-1.54,1.56-12.45,8.58-25,17.07-37.22,25.95-24.36,17.66-50.54,32.32-76.73,46.93q-29.9,16.68-60.41,32.23c-13.25,6.78-27,12.64-40.44,19-2.8,1.31-5.16,2.49-7.06-1.46s.62-5.06,3.25-6.57q30.54-17.66,61-35.42c5.32-3.1,6.28-6.34,3.57-12-1.14-2.38-3-4.42-4-6.82-1.36-3.11-4.33-5.81-2.15-10,.65-1.26-.37-3.78-1.25-5.38-3.47-6.31-7-12.62-10.9-18.65-1.71-2.63-3-5.7-7.1-6.63-2.25-.52-3.91-4-5.63-6.25-2.85-3.78-5.3-7.88-8.37-11.46-2.5-2.92-.65-4.6,1.28-6,6.42-4.47,12.88-8.94,19.62-12.91,4.47-2.63,9.57-4.18,14.16-6.64,2.43-1.29,4.18-3.8,6.57-5.19,7.67-4.46,15.47-8.69,23.26-12.93,1.46-.8,3.15-1.15,4.67-1.85,5.76-2.66,5.62-2.64,7.35,3.22.6,2,2,3.78,3.06,5.68,2.72,5,6.13,9.81,5.62,16.07a9.56,9.56,0,0,0,1.4,4.76c3.16,5.94,6.28,11.92,9.81,17.65a20.39,20.39,0,0,0,8,7.73c3.75,2,5.92,7.26,8.41,11.31,4.16,6.79,6.87,7.45,13.77,3.47,18.09-10.44,36.27-20.73,54.4-31.09,2.5-1.43,4.84-3.19,7.46-4.33a5,5,0,0,1,6.7,3.61c0,.16-.16,1-.1,1.13ZM712.17,928.65a3.92,3.92,0,0,0,1.6,0c2.82-.67,6.43-.82,8-2.69,3.12-3.7,6.62-8.67,6.53-13s-3.76-9.29-7-13c-1.55-1.75-5.76-1.62-8.73-1.52-3.17.11-7.52.13-9.21,2.06-3.17,3.63-6.63,8.65-6.54,13s3.77,9.26,7,13C705.3,928.16,708.88,928,712.17,928.65Zm-31.65,17.49a3.76,3.76,0,0,0,1.53,0c3.31-.64,7.13-.55,8.77-2.4,3.06-3.43,5.78-8.1,6.39-12.55.94-6.81-8.68-15.62-15.76-15.29-3.22.15-7.52.51-9.33,2.55-3.21,3.63-6.65,8.59-6.71,13,0,4.1,3.65,8.8,6.83,12.16C674,945.46,677.54,945.5,680.52,946.14ZM714,934.21a3.87,3.87,0,0,0-1.66,0c-3.41.67-7.08.63-8.91,2.44-3.28,3.26-7.26,8-7.11,12,.16,4.69,3.78,9.77,7.13,13.6,1.75,2,6.14,2.17,9.35,2.22,3,.05,7.08-.17,8.7-2,3.2-3.66,6.75-8.45,6.92-12.9.16-4.16-3.25-9-6.3-12.52C720.48,935.08,716.89,934.91,714,934.21Zm-29.45,18a4.25,4.25,0,0,1-.79.09c-6.3,0-6.32.24-4.13,6,.5,1.31,1.39,2.79,1.17,4-1.18,6.41,3.07,10.82,5.42,16,1.3,2.83,2.8,2.88,4.93,1a14.7,14.7,0,0,0,3.48-18.4,26.15,26.15,0,0,0-2-3.83C690.5,954,688.08,951.48,684.54,952.19Zm58-6.27c-1.47-.13.9.31,2.77.3s2-.29,3.76-.86c1-.35,2.51-2.76,2.18-3.36-2-3.76-4-7.93-7.06-10.66s-6.72-6.24-9.21-7.25c-1.81-.66-3.06-.8-3.27-.65-3.39,2.42-4.73,5.81-3.65,8.81,1,4.45,3.84,8.84,7,12.29C736.49,946.16,739.72,945.53,742.54,945.92Zm-61.38-35.43c7.38.08,15.51-7.45,16.35-15,.35-3.25-1.22-4.44-4.4-2.73-6.12,3.28-12.07,6.86-18,10.47l-.28.18a3.61,3.61,0,0,0,.23,6.11,14.3,14.3,0,0,0,1.78.92C678.06,910.92,679.7,910.49,681.16,910.49Zm-15,4.69a3.26,3.26,0,0,0,.52-2.12c-.32-2.46-2.32-3.49-4.73-2.39a43.34,43.34,0,0,0-8,4.78c-1,.74-2,2.9-1.6,3.68a46.51,46.51,0,0,0,5.18,7.3c.17.21,1.61-.1,1.89-.54C661.87,922.23,664.14,918.51,666.18,915.18Zm45.14-23.75a4.65,4.65,0,0,0,.9.13,40,40,0,0,0,6-.09,4.52,4.52,0,0,0,2.38-1.79c-1.35-2.78-2.57-5.79-4.66-7.94-.75-.77-4,.1-5.6,1.11-2.62,1.71-7.93,1.6-7.17,5.87C704.05,893.65,708.72,890.9,711.32,891.43Z"/><path class="cls-2" d="M540.58,97.06c3.27-.29,5.61,1.06,7.66,3.44,5.29,6.18,9,13.51,12,20.76,4.39,10.72,6.81,22.25,9.88,33.49,1.24,4.58-4.65,6.86-10.81,7.84-5.23.84-8.8,1.88-12.64,2.5-5.87,1.24-5.66-.29-6.33-2.22-1.54-4.44-.77-10.34-4.65-13.17s-9.09.31-13.77.33c-6.81,0-13.34-1.74-20.11-1.89-6-.14-11-8.76-9-14.55,3.57-10.21,10.13-18.87,15.28-28.26,1.41-2.56,4.19-4.69,7-4.73C523.71,100.45,532.26,99.67,540.58,97.06Zm3.83,14.07c-.11-3.7-1.87-6.32-5-6.28-2.85.05-6.41,1-6.71,5-.28,3.7,1.78,6,5.36,6.33C541.82,116.59,543.6,114.14,544.41,111.13Zm-12.63,28.93a6.23,6.23,0,0,0-.75-6.56,5.49,5.49,0,0,0-5.08-2.44c-3.53.3-5.13,3-5,6.67.17,4.39,3.37,4.77,6.51,4.75A4.59,4.59,0,0,0,531.78,140.06Zm-12.16-32.62c-4.43,0-7.14,1.76-7.17,5.26,0,3.11,2.46,4.76,5.77,5.11,3.84.41,5.36-2,5.5-4.9S522.73,107.21,519.62,107.44Zm-14.54,33.62c3.62.13,5.41-1.95,5.5-4.83.1-3.16-2.12-5.24-5.48-5.33s-5.74,1.88-5.8,5C499.25,139.21,501.23,141.21,505.08,141.06ZM551,131.23c-.51-2.09-1.07-3.66-3.45-3.21-1.87.36-3.33,1.45-2.9,3.34a3.21,3.21,0,0,0,3.92,2.36C550.11,133.46,551.06,132.67,551,131.23Zm5,21.57c0-1.47-.11-2.91-2.14-2.88s-3.36,1-3.39,2.81,1.45,2.79,3.31,2.88C555.82,155.7,556,154.31,556,152.8Z"/><path class="cls-2" d="M811.45,838.26c-4.62,2.6-7,4.7-.38,7.93-5.68-1.16-10.53.28-15.51-1.23-5.61-1.69-8-5.11-8.07-10.39a38.91,38.91,0,0,0-3.84-16.65c-2.95-6.12-1.57-11.17,3.21-16.1,5.5-5.67,10-12.33,15.45-18,7.91-8.24,16.92-6.81,21.94,3.6,3.73,7.73,7.36,15.7,9.41,24,1.5,6.08,4.49,6.22,8.77,4.82a21.14,21.14,0,0,1,7.15-.76c4.08,0,6.26,2.25,6.3,6.31a73.7,73.7,0,0,0,1.35,15.79c.94,4.16-.49,7.81-5.58,8.36-9.53,1-19.07,2.09-28.63,2.92C813.15,849.64,813.07,849.47,811.45,838.26Zm-12.3-12.83c-2.57,1.36-4.7,3.12-4.57,7s2.14,4.86,5.6,4.88c4.24,0,5.7-3.12,5.76-6C806,827.89,803.07,826.06,799.15,825.43Zm27.06-13.55c-.53-3.32-1.69-6.37-5.33-6.61s-5.55,2.24-5.8,5.85c-.23,3.34.7,5.46,4.64,5.75S825.26,814.84,826.21,811.88Zm-25.67-.25c-1.08-1.47-.36-5-4.64-5.15-3.63-.08-6.54,1.34-6.83,4.83s2.49,5.37,6.12,5.49C798.22,816.9,800.43,816.08,800.54,811.63ZM818,791.32c-.7-2.53-1.07-5.38-5.07-5.28-3.63.09-6.35,1.72-6.41,5.2,0,3,2.33,4.86,5.71,5.17C816,796.76,817.21,794.53,818,791.32Zm29.16,40c0-1.5-.2-2.9-2.24-2.79-1.86.1-3.34,1-3.29,2.9s1.52,2.78,3.4,2.79S847.18,832.78,847.2,831.3Zm-22,1.38a2.72,2.72,0,0,0-3-2.48c-1.8.18-2.74,1.68-2.63,3.56s1.64,1.94,3.06,2C824.25,835.75,825.4,835.25,825.17,832.68Z"/><path class="cls-2" d="M77.37,610.15c.15-5-2.22-6.18-6.68-6.11-11.91.18-23.83.33-35.74-.06-6.13-.2-8.21,2.82-8.59,8.09-.16,2.18,0,4.38,0,6.56,0,14.51,0,14.51-14.23,14.65-8.6.09-10.56,2-10.57,10.72,0,19.69,0,39.39,0,59.08,0,20.19.09,40.37-.06,60.55,0,5.87,2.32,8.48,8.22,8.25,5.1-.21,10.22,0,15.32,0,8.49,0,9-.07,8.4-8.49-.59-9,2.52-15.8,9.09-21.73,6.31-5.69,12-12.05,18.16-17.94a15.23,15.23,0,0,0,5.07-12.19c-.26-10,.1-19.94-.14-29.91-.19-7.83.71-15.27,5-22.06,2-3.1.5-4.36-2.81-4.33-4.86,0-9.74-.18-14.59.05-3.65.17-5.38-.88-5.12-4.87.24-3.56-.06-7,5.06-7s10.22,0,15.32,0c6.75-.07,8.65-1.73,8.82-8.46C77.45,626.68,77.11,618.4,77.37,610.15ZM57,665a2.06,2.06,0,1,1-2.06,2A2.05,2.05,0,0,1,57,665Zm0,33.61a2.06,2.06,0,1,1-2.06,2A2.05,2.05,0,0,1,57,698.59ZM37.86,615.86c2.37-.22,3,.79,3,2.48,0,1.4.13,3-1.88,3.14s-3.4-.78-3.64-2.54A2.76,2.76,0,0,1,37.86,615.86ZM12,643.57c1.42-.13,2.26.41,2.39.93.22,2.39-.46,3.2-1.94,3.24a1.89,1.89,0,0,1-2.13-2.23C10.38,644.48,10.77,643.69,12,643.57ZM9.54,667a2.06,2.06,0,1,1,2.06,2.06A2.05,2.05,0,0,1,9.54,667Zm3.21,34.69c-1.7.06-2.46-.68-2.44-2.14s.88-2.13,2.34-2a1.76,1.76,0,0,1,1.83,1.78C14.1,700.82,13.63,701.49,12.75,701.72ZM19,760.94a2.67,2.67,0,0,1-2.86-2.8c-.05-1.88.88-3.35,2.72-3.48a2.75,2.75,0,0,1,2.91,2.54C22,759.88,20.55,761,19,760.94ZM19,738c-1.89.06-2.88-1.44-2.93-3.3s.94-3.37,2.8-3.44,2.77,1.46,3,3.24C21.79,736.47,20.9,738,19,738ZM51,689.5c-.46,8.77-6.57,16-16.14,15.29-11.63-.14-14.76-6.31-15.74-15.51-.9-8.41,7.29-15.33,16.34-15.22C44,674.16,51.47,681.26,51,689.5Zm8.33-70.15a1.76,1.76,0,1,1,1.76-1.76A1.76,1.76,0,0,1,59.36,619.35Z"/><path class="cls-2" d="M536,60.38c-3.39-4.21-5.64-9.49-11.41-11.59-3.88-1.41-6.59-4.67-8.69-8.18-6.4-10.67-12.66-21.42-19-32.13C492.35.83,486.81-1.89,478.32,1.33a134.82,134.82,0,0,0-34.09,19.5c-6.9,5.31-7.44,11.73-3.29,19.58,3,5.71,6.62,11.12,9.53,16.88,4.25,8.43,11.78,15.57,11.27,25.94-.32,6.6,2.14,12.2,5,17.77.83,1.62,1.46,3.94,4.11,3,2.13-.76,2.39-2.62,2.57-4.69.8-9.12,2.22-10.64,11.33-12.73a.06.06,0,0,1,.07,0c.94,2.71-.43,5.73,1.3,8.95a.05.05,0,0,0,.08,0l16.15-9.09a.06.06,0,0,0,0-.1c-2.34-1.64-4.78-2.68-4-5.68a3.17,3.17,0,0,1,3.09-2.6c3,.06,4.47,1.25,3.47,4.62-.34,1.16,1.6,1.27,2,.87,3.88-3.52,10.06-3.86,13.29-9.17a.06.06,0,0,0,0-.08l-10-2.88a.05.05,0,0,1,0-.09c6.22-5.31,11.91-9.4,19.53-3.85,2.19,1.6,4.47,1,6.47-.72C538.89,64.57,537.36,62.08,536,60.38ZM443.66,34.8c-2.1.06-3.42-1-3.45-3.14s1.57-3.3,3.68-3.24a3.17,3.17,0,0,1,3.23,2.2v0C447.27,32.83,446,34.74,443.66,34.8Zm40.06-29c.68-2.42,2.41-3,3.3-2.89,1.77.29,4,1.12,4,3.64A3.65,3.65,0,0,1,486.45,10,3.35,3.35,0,0,1,483.72,5.79ZM468.9,91.26a2.15,2.15,0,1,1,2.15-2.14A2.14,2.14,0,0,1,468.9,91.26Zm28.82-32.12a27.32,27.32,0,0,1-28.89,6.29c-10.94-4.28-17.12-12.79-17.33-26.06-1.07-4.79,2.06-8,6.19-10.4,6.58-3.9,13.31-7.53,19.88-11.44a13.15,13.15,0,0,1,12.27-1c4.48,1.65,6.84,7,12.49,6.6.78-.05,2.63,2.68,2.53,4C504.1,38.1,506.8,49.72,497.72,59.14Zm28.15.25A2.15,2.15,0,1,1,528,57.25,2.14,2.14,0,0,1,525.87,59.39Z"/><path class="cls-1" d="M480.37,1108c-7.25-4.21-14.56-8.32-21.83-12.49-3.46-2-5.9-4.3-6.17-8.93-.7-12.4.65-24.77,2.05-36.9,1.61-13.88,3.44-16.44-10.52-23.22-.65-.31-5.22-2.7-6-3.22-5.19-3.43-5.55-4.7-9.14-4.31-4.15.45-4.62,7.19-7.29,10.89-5.43,7.49-4.83,10.78,3,15.63,4,2.49,4.56,5.44,4.86,9.54.55,7.57-1.57,14.88-1.69,23.93-.86,4.9,1.52,9.5,7.32,12.75q20.68,11.58,41.12,23.6c3.28,1.93,5.16,1.59,7.26-1.72C486,1109.42,482.39,1109.21,480.37,1108Zm-36-65.93a1.14,1.14,0,1,1-1.13,1.14A1.14,1.14,0,0,1,444.35,1042.1Zm-11.25,26.74a1.14,1.14,0,1,1,1.14-1.13A1.14,1.14,0,0,1,433.1,1068.84Zm.74-19a1.14,1.14,0,1,1,1.13-1.13A1.13,1.13,0,0,1,433.84,1049.81Zm-.37-8.56c-1.5.21-5-2.87-6.42-4.84-.45-.62.58-2.38,2.45-3.65,1.5-1,8.12,3.14,8.39,5A5.6,5.6,0,0,1,433.47,1041.25Zm5.26,23.46c-2.44,0-2.41-2-2.22-3.67.38-3.21.71-6.6.87-9.72a2.42,2.42,0,0,1,2-2.25c7.75-1.35,5.9,2.68,5.89,4.71,0,1,0,1.91,0,2.87l.21,0c-.23,2.36.13,5-.85,7C443.56,1065.9,440.77,1064.74,438.73,1064.71Zm7.89,5.27a1.14,1.14,0,1,1,1.14-1.14A1.14,1.14,0,0,1,446.62,1070Z"/></g></g></g></svg>