<svg xmlns="http://www.w3.org/2000/svg" viewBox="0 0 742.58 851.99"><defs><style>.cls-1{fill:#d61e39;}.cls-2{fill:#231f20;}</style></defs><g id="Layer_2" data-name="Layer 2"><g id="_0" data-name="0"><g id="Layer_2-2" data-name="Layer 2"><path class="cls-1" d="M57.23,628.7l-4.3-16.05a10.85,10.85,0,0,0-5.06-6.6l-11.46-6.62a16.09,16.09,0,0,0-22,5.89c-.13.23-.26.46-.38.69L4.12,625.34a11.14,11.14,0,0,0,4.82,15l.13.07,33.61,16.73,10.19-2.73-.1-.38L47,632.57,56.47,630a1,1,0,0,0,.6-.42l.12-.22.06-.23,0-.24Zm-43.9-9.5a1.91,1.91,0,1,1-1.9,1.9A1.9,1.9,0,0,1,13.33,619.2Zm4.43,15-5.09,1.36L8.94,631.8l1.36-5.1,5.1-1.36,3.72,3.73Zm10.6-8a12.83,12.83,0,1,1,12.83-12.83A12.82,12.82,0,0,1,28.36,626.19Zm15.26,23.45a1.9,1.9,0,1,1,1.91-1.9A1.9,1.9,0,0,1,43.62,649.64Zm2.46-33.25a1.91,1.91,0,1,1,1.9-1.91A1.92,1.92,0,0,1,46.08,616.39Z"/><path class="cls-2" d="M70.52,579.41,64.83,556a3.3,3.3,0,0,0-1.47-2l-4.42-2.69a3.25,3.25,0,0,0-4.48,1.09L35.24,584a3.26,3.26,0,0,0,1.09,4.48L56.76,600.9a2.18,2.18,0,0,0,3-.73l10.13-16.65A5.43,5.43,0,0,0,70.52,579.41Zm-5.17-2.83a1.12,1.12,0,0,1-.82-.13l-5-3.06a1.1,1.1,0,0,1-.36-1.5l3.06-5a1.08,1.08,0,0,1,1.49-.37,1.11,1.11,0,0,1,.5.68l2,8.08A1.09,1.09,0,0,1,65.35,576.58Z"/><path class="cls-2" d="M260.83,486.47l-11.11-6.41a84.4,84.4,0,0,0-19.48-8.18,43.36,43.36,0,0,1-10.06-4.23l-44.75-25.84a30.34,30.34,0,0,0-21.12-3.47l-41.61,8.34a10.87,10.87,0,0,0-7.28,5.22l-36.37,63a10.83,10.83,0,0,0-.89,8.91L81.75,564a30.34,30.34,0,0,0,13.56,16.56l44.75,25.83a43.42,43.42,0,0,1,8.7,6.61,84.32,84.32,0,0,0,16.82,12.77l11.11,6.42a4.36,4.36,0,0,0,5.77-1.32h0l80.11-138.77h0A4.35,4.35,0,0,0,260.83,486.47ZM79.25,507l-.06.39-.12.38-.16.36-.2.34-.23.31-.28.28-.3.25-.34.2-.18.08-.19.06-.19,0-.2,0h-.19l-.2,0a1.21,1.21,0,0,1-.58-.33l-.13-.15-.1-.17-.09-.18-.06-.19,0-.19,0-.19v-.4l.06-.39.11-.37.16-.36.19-.35.23-.31.27-.29.3-.25.34-.21.17-.08.19-.07.19,0,.2,0H78l.2,0,.19.06.17.08.17.11.14.14.12.15.1.17.07.18.06.19,0,.19V507Zm54.3-25.93.06-.39.11-.37.15-.37.19-.34.24-.32.26-.28.31-.26.33-.2.18-.08.18-.07.2,0,.19,0h.2l.19,0,.19.05.18.09.16.11.14.14.12.15.1.17.08.18.05.19,0,.19,0,.2v.39l-.07.39-.11.38-.16.35-.2.34-.24.32-.27.28-.31.25-.34.2-.18.08-.18.06-.2,0h-.39l-.19,0a1.14,1.14,0,0,1-.59-.34l-.13-.15-.1-.16-.08-.18-.06-.19,0-.19,0-.2Zm-32-18.48.06-.39.11-.38.16-.36.19-.34.23-.32.27-.29.3-.25.34-.21.17-.08.19-.06.19-.05.2,0h.19l.2,0,.19,0,.17.09.16.11.15.13.12.16.1.17.07.18.06.19,0,.19v.59l-.06.39-.12.37-.16.36-.2.34-.23.31-.28.29-.3.24-.34.2-.18.08-.19.06-.19,0-.2,0h-.19l-.2,0a1.23,1.23,0,0,1-.58-.34l-.13-.15-.1-.17-.09-.18-.06-.18,0-.19,0-.2Zm-4.87,57.52-.51-.12-.51-.13-.5-.15-.5-.16-.48-.19L93.7,519l-.44-.39-.42-.4-.41-.43-.39-.44-.37-.46-.35-.47L91,516l-.31-.5-.31-.5-.28-.52-.27-.53-.25-.53-.24-.55-.41-1.1-.19-.56-.16-.56-.28-1.14-.21-1.16-.17-1.17L87.76,506l-.11-1.17-.1-1.18-.13-1.17,16.77-29,1.07-.48,1.07-.5,1.07-.49,1.09-.47,1.09-.44,1.11-.39,1.13-.33.57-.14.57-.12,1.17-.19.59-.07.58-.05.6,0h1.18l.58,0,.59.05.59.07.58.09.57.12.57.13.57.17.55.18.55.21.41.33.39.35.38.36.36.37.36.39.34.4.63.83.59.86.53.91.47.93.42,1,.37,1,.31,1,.27,1,.22,1,.17,1,.13,1,.09,1,0,1v1.05l0,1-.07,1.05-.1,1-.14,1-.17,1-.2,1-.23,1-.26,1-.3,1-.31,1-.35,1-.37,1-.4,1-.43,1-.45.94a38.32,38.32,0,0,1-2.59,4.48l-.59.86-.61.85-.64.83-.66.81-.68.79-.7.78-.73.75-.74.73-.77.71-.79.69-.81.67-.83.63-.85.61-.87.58-.89.55-.9.52-.93.48-1,.45-1,.4-1,.37-1,.32-1,.28-1,.22-1,.17-1,.12-1,.05h-1l-1-.07-1-.14Zm14.62,5v.4l-.07.38-.11.38-.16.36-.2.34-.24.31-.27.29-.31.24-.34.2-.18.08-.18.06-.2,0-.19,0h-.2l-.19,0a1.29,1.29,0,0,1-.59-.34l-.13-.15-.1-.17-.08-.18-.06-.18,0-.2,0-.19v-.39l.06-.39.11-.38.15-.36.19-.34.24-.32.26-.29.31-.25.33-.21.18-.08.18-.06.2-.05.19,0h.2l.19,0,.19.06.18.08.16.12.14.13.12.16.1.17.08.18,0,.19,0,.19Zm49,77.69a3,3,0,1,1-6,0h0a3,3,0,0,1,6,0Zm9.78,17.71a2.56,2.56,0,1,1,2.56-2.55A2.55,2.55,0,0,1,170.09,620.53Zm44.17-67a5.65,5.65,0,1,1-11.3,0h0a5.65,5.65,0,1,1,11.3,0Zm8-62.26L161.5,596.41a3.27,3.27,0,0,1-3.37,1.59,4.89,4.89,0,0,0-5,2.32,3.25,3.25,0,0,1-4.43,1.15L101.6,574.29c-.35-.2-.7-.42-1-.64a5.45,5.45,0,0,1-1.73-7.27L164.89,452a5.43,5.43,0,0,1,7.15-2.13c.37.18.73.38,1.09.58l47.08,27.18a3.26,3.26,0,0,1,1.22,4.42,4.9,4.9,0,0,0,.49,5.51A3.26,3.26,0,0,1,222.24,491.22Zm6.44-6.83a3,3,0,0,1-6,0h0a3,3,0,1,1,6,0Zm16.53,6a2.56,2.56,0,1,1,2.55-2.56A2.56,2.56,0,0,1,245.21,490.43Z"/><path class="cls-2" d="M94.92,444.84,88.32,441a4.8,4.8,0,0,0-3.63-.47l-6.22,1.66a4.8,4.8,0,0,0-2.91,2.23l-9.25,16a4.75,4.75,0,0,0-.48,3.63l1.67,6.22a4.78,4.78,0,0,0,2.23,2.9l6.6,3.81a3.91,3.91,0,0,0,5.34-1.43l14.68-25.42A3.91,3.91,0,0,0,94.92,444.84ZM83.23,457.69a3.26,3.26,0,0,1-6.52,0h0a3.26,3.26,0,0,1,6.52,0Z"/><path class="cls-2" d="M34.21,427H1.6v11.52H.73v6.52H1.6v7.61H8a5.45,5.45,0,0,0,3.85-1.59l.51-.51A5.43,5.43,0,0,1,16.24,449h18a3.26,3.26,0,0,0,3.26-3.26V430.27A3.26,3.26,0,0,0,34.21,427Zm-7.39,10.87a2.94,2.94,0,0,1-5.87,0V437a2.94,2.94,0,1,1,5.87,0Z"/><path class="cls-2" d="M81.87,408.05a11,11,0,0,0-3-.43h-.19A.66.66,0,0,1,78,407a.65.65,0,0,1,.13-.38,4.14,4.14,0,0,0-3.08-6.53,2.17,2.17,0,0,1-2-2.16V375.15a2.18,2.18,0,0,1,2-2.17,4.15,4.15,0,0,0,3.84-4.41,4.19,4.19,0,0,0-.76-2.12.65.65,0,0,1,.15-.91.64.64,0,0,1,.38-.12h.19a10.65,10.65,0,0,0,3-.43l9.57-2.76A14.79,14.79,0,0,0,78,353.59H58.28a97.07,97.07,0,0,0-13.63,1,47.43,47.43,0,0,0-15.76,5.12V378.8l-.34.41-.36.42-.78.82-.39.39-.38.35-.4.34-.4.32-.14.13-.11.15-.05.14,0,.12v8.26l0,.12.05.15.11.14.14.13.4.32.4.34.38.36.39.38.78.83.36.42.34.4V414.9c1.37.46,2.76.88,4.16,1.25a98.11,98.11,0,0,0,25.23,3.3H78a14.78,14.78,0,0,0,13.44-8.63Zm-.09-49.2a2.56,2.56,0,1,1-2.56,2.55A2.55,2.55,0,0,1,81.78,358.85ZM38.94,402.42l-.35-.27h0l-.38-.29h0l-.22-.17-.73-.64.09.07-.16-.14-.08-.07-.26-.26.21.21-.79-.78-.14-.16.06.06-.47-.53a.27.27,0,0,0,.07.08l-.3-.34-.32-.39.12.14-.47-.59,0,0-.1-.13-.68-1v0c.12.19.26.37.39.55l-.33-.46-.41-.68c.06.11.12.22.19.33l-.45-.73-.12-.24.1.18-.39-.74.06.13-.2-.37-.25-.55c0,.11.11.22.16.34l-.34-.74-.43-1.09c.13.38.28.75.44,1.12l-.07-.15L32,393.07l0-.05a1.54,1.54,0,0,0,.08.19l-.28-.85.12.41-.26-.82-.08-.3.09.28-.23-.87,0,.15-.11-.4-.12-.62.12.52-.18-.87L31,388.75c0,.35.09.69.14,1l0-.13L31,388.48v-.07l0,.26-.08-1c0,.11,0,.22,0,.34l-.05-.74V387c0,.12,0,.24,0,.36l0-1s0,.06,0,.1v-.35l0-.67c0,.27,0,.54,0,.82l0-1.08.09-.89c0,.24-.06.48-.08.72v-.08l.13-1.17,0-.13c0,.1,0,.2,0,.3l.13-.89,0,.18.1-.63.1-.44c0,.13-.05.26-.07.39l.17-.81.11-.41c0,.13-.08.27-.11.4l.06-.28.33-1.13a2.17,2.17,0,0,1-.07.24l.36-1.05.44-1.08.5-1.06.56-1,.62-1,.68-.95.73-.91.78-.86c.31-.32.62-.63.94-.92l-.18.19a20.75,20.75,0,0,0,.51,29.34,22,22,0,0,0,2,1.71c-.39-.26-.76-.54-1.12-.82Zm4.64,3.69c-2-.87-3.45-2-3.66-4.31-.18-2.09.24-3.45,2.7-3.87,1.32-.22,1.75-1.69,1.74-3.12,0-5.55,0-11.09,0-16.64a3.52,3.52,0,0,0-1.9-3.09c-3.54-2.42-3.26-5.6.76-7.35,8.06-3.51,21.05,1.46,23.86,7.9,1.62,3.72,3.38,7.29,3,11.34C71.27,401.77,54,410.63,43.58,406.11Zm27.93-37.27a3.26,3.26,0,0,1,6.52,0h0a3.26,3.26,0,0,1-6.52,0Zm3.25,38.61a3.25,3.25,0,0,1-3.25-3.26v0a3.26,3.26,0,0,1,6.52,0h0A3.26,3.26,0,0,1,74.76,407.45Zm7,6.75a2.56,2.56,0,1,1,2.55-2.56A2.56,2.56,0,0,1,81.78,414.2Z"/><path class="cls-2" d="M61.08,242.2a3.26,3.26,0,0,0-3.53-3l-17.9,1.57a5.46,5.46,0,0,1-4-1.26l-.55-.46a5.41,5.41,0,0,0-4-1.25l-6.42.56L25.4,246l-.86.08.56,6.49.87-.07L27,264l32.49-2.85a3.26,3.26,0,0,0,3-3.53ZM48.56,255a2.93,2.93,0,0,1-3.18-2.66l-.08-.87a2.94,2.94,0,0,1,5.85-.51l.08.87A2.93,2.93,0,0,1,48.56,255Z"/><path class="cls-1" d="M87.38,199.18l0-.25-.07-.24-.1-.23-.12-.23L75.68,178.55a4.64,4.64,0,0,0,.25-.42l.1-.26,0-.27,0-.27-.11-.25-2.57-4.45-.16-.22-.22-.17-.25-.11-.26,0a4.13,4.13,0,0,0-4,2.66L60,179.62l-.26.13-.27.12-.56.18-.55.13-.57.07a4.15,4.15,0,0,0-3.59,2.95,3.91,3.91,0,0,0-.16,1.36v.32l0,.32,0,.31-.06.29-.09.29-.1.28-.13.27-.15.25a11.85,11.85,0,0,1-3.77,3.45L29.1,202.22a3.41,3.41,0,0,0-1.7,2.95v11.31l0,.29.05.29.07.29.08.28.11.27.12.27.14.26,3,5.14.13.21.15.19.17.18.19.16.21.15.21.12.22.1.24.09.46.1.48.06h.51l.53,0,.53-.12.53-.16.52-.22.5-.26,32-18.47a3.26,3.26,0,0,1,4.15.75l.24.28.27.27.29.24.31.22.27.16.27.12.2.07.2.05.21,0h.21l.2,0,.2-.05.2-.07.18-.09,10.16-5.86.21-.14.2-.15.18-.18.17-.19.14-.2.13-.22.1-.23.08-.24.05-.25,0-.25v-.25ZM56.3,184.36a1.85,1.85,0,1,1,3.7,0h0a1.85,1.85,0,0,1-3.7,0Zm13.3,14.4L45.07,212.91a4.34,4.34,0,0,1-5.94-1.59l-1.08-1.88a4.35,4.35,0,0,1,1.59-5.94l24.52-14.16a4.35,4.35,0,0,1,5.94,1.59l1.09,1.89A4.35,4.35,0,0,1,69.6,198.76Zm4.52-22.54a1.85,1.85,0,1,1-3.69,0h0a1.85,1.85,0,1,1,3.69,0Z"/><path class="cls-1" d="M103.44,218.52l-7.07-12.23a1.08,1.08,0,0,0-1.48-.4l-5.65,3.26a5.43,5.43,0,0,0-2,7.42L90,221.28a5.43,5.43,0,0,0,7.42,2L103,220A1.09,1.09,0,0,0,103.44,218.52Zm-6.12-2.84a3.07,3.07,0,1,1-6.13,0h0a3.07,3.07,0,0,1,6.13,0Z"/><path class="cls-2" d="M122.93,238.39h2.29a1.08,1.08,0,0,0,1.08-1.08V229.7a1.08,1.08,0,0,0-1.08-1.09h-2.85a4.32,4.32,0,0,0-2.16.58,32.64,32.64,0,0,1-31.09.75,12.18,12.18,0,0,0-5.52-1.33H72.17a1.1,1.1,0,0,0-1.09,1.09v.87a1.08,1.08,0,0,0,1.09,1.08h2.17a1.85,1.85,0,1,1,0,3.7H72.17a1.09,1.09,0,0,0-1.09,1.09v.37a4.37,4.37,0,0,0,1,2.8l2.42,2.88a3.55,3.55,0,0,1,.23.31l-.07.07-.42.49-.45.5-.46.48-.46.44-.29.32-.27.29-.26.29-.24.28-.14.2-.1.21-.06.24,0,.24v7l0,.24.06.24.1.21.14.21.24.27.26.29.27.3.29.31.46.44.46.48.45.5.42.49.07.07a3.55,3.55,0,0,1-.23.31L72.1,261.1a4.32,4.32,0,0,0-1,2.79v.37a1.09,1.09,0,0,0,1.09,1.09h2.17a1.85,1.85,0,1,1,0,3.7H72.17a1.08,1.08,0,0,0-1.09,1.08V271a1.06,1.06,0,0,0,.44.87,1,1,0,0,0,.65.22H83.6a12,12,0,0,0,5.52-1.33,32.64,32.64,0,0,1,31.09.75,4.32,4.32,0,0,0,2.16.58h2.85A1.08,1.08,0,0,0,126.3,271v-7.6a1.08,1.08,0,0,0-1.08-1.09h-2.29a3.26,3.26,0,0,1-3.26-3.26v-17.4A3.26,3.26,0,0,1,122.93,238.39ZM82.14,266.06a1.91,1.91,0,1,1,1.9-1.9A1.9,1.9,0,0,1,82.14,266.06Zm0-27.61a1.91,1.91,0,1,1,1.9-1.91A1.9,1.9,0,0,1,82.14,238.45Zm33.24,21.68a2.19,2.19,0,0,1-2.18,2.18H88.58a2.16,2.16,0,0,1-1.74-.87,1.11,1.11,0,0,1,.65-.22h1.74a1.09,1.09,0,0,0,1.09-1.09V240.57a1.09,1.09,0,0,0-1.09-1.09H87.49a1.11,1.11,0,0,1-.65-.22,2.16,2.16,0,0,1,1.74-.87H113.2a2.19,2.19,0,0,1,2.18,2.18Zm6,6a1.91,1.91,0,1,1-1.9,1.91A1.9,1.9,0,0,1,121.41,266.11Zm-1.9-33.42a1.9,1.9,0,1,1,1.9,1.9A1.91,1.91,0,0,1,119.51,232.69Z"/><path class="cls-2" d="M173.17,260.78v-.17l-.07-.15-.13-.12-3.77-2.17-.59.17-.06.09-2.82-1.63,6.66-11.53a.88.88,0,0,0-.32-1.19L155.3,234.4a1.08,1.08,0,0,0-1.48.4l-6.56,11.35a1.08,1.08,0,0,0,.4,1.48l10.73,6.2a.54.54,0,0,1,.2.74l-2.71,4.7.77.45-3.48,6-.77-.44-2,3.39.78.44-3.48,6-.78-.45-2.72,4.72a.54.54,0,0,1-.74.19l-13.56-7.82a1.08,1.08,0,0,0-1.48.4l-10.75,18.62a5.44,5.44,0,0,0,.73,6.43,43.81,43.81,0,0,0,10,8L143.73,314a1.08,1.08,0,0,0,1.48-.4l.78-1.35a3.26,3.26,0,0,0,.33-2.48l-.1-.35-.83-.48,27.72-48Zm-43.41,35.15a3.26,3.26,0,0,1-6.52,0v0a3.26,3.26,0,1,1,6.52,0Zm18.43-3.56-1.6,2.78a3.27,3.27,0,0,1-4.46,1.19l-6.4-3.69a3.27,3.27,0,0,1-1.19-4.46l1.6-2.77a3.27,3.27,0,0,1,4.46-1.2l6.4,3.7A3.25,3.25,0,0,1,148.19,292.37Zm11-47.36a3.26,3.26,0,1,1,3.26-3.26A3.26,3.26,0,0,1,159.22,245Z"/><path class="cls-2" d="M132.46,326,107,311.29a3.91,3.91,0,0,0-5.35,1.44l-3.81,6.6A4.84,4.84,0,0,0,97.4,323L105,351.45a4.75,4.75,0,0,0,2.23,2.9l6.6,3.82a3.93,3.93,0,0,0,5.35-1.44l14.67-25.42A3.91,3.91,0,0,0,132.46,326Zm-25.94.35a3.26,3.26,0,0,1-3.25-3.27h0a3.26,3.26,0,1,1,6.52,0h0A3.27,3.27,0,0,1,106.52,326.32Zm9.64,20.5a3.27,3.27,0,1,1-6.53,0h0a3.27,3.27,0,0,1,6.53,0Z"/><path class="cls-2" d="M204.45,121.4l-7.61-13.18a5.43,5.43,0,0,0-7.42-2l-80.68,46.58a5.44,5.44,0,0,0-2,7.43l6.52,11.29a1.09,1.09,0,0,1-.39,1.49L97.37,182a3.27,3.27,0,0,0-1.2,4.46l15.22,26.36a3.27,3.27,0,0,0,4.46,1.19h0l17.76-10.26,0,0,.32-.23.3-.26.26-.29.23-.32,0,0a25,25,0,0,1,9-8.92l.42-.24a3.92,3.92,0,0,0,1.64-1.84,21.73,21.73,0,0,1,9.08-10.19L179.76,167a10.84,10.84,0,0,0,5.06-6.6l7-26.15a5.42,5.42,0,0,1,2.53-3.3l8.9-5.13A3.27,3.27,0,0,0,204.45,121.4Zm-95.6,68.17a2.94,2.94,0,1,1,2.93-2.93A2.94,2.94,0,0,1,108.85,189.57Zm5.31-30.06-.2-.3-.16-.32-.11-.34-.06-.35v-.36l0-.35.09-.35.14-.33.19-.3.22-.28.26-.24.3-.2.32-.16.34-.12.35-.06h.35l.36,0a2.52,2.52,0,0,1,2,2.92c0,.14-.07.28-.11.41l-.15.33-.19.3-.23.27-.27.24-.29.2-.33.15-.34.11-.35.05H116l-.35,0-.35-.1-.32-.14-.31-.19-.27-.23Zm3.39,45.13a2.94,2.94,0,1,1,2.93-2.94A2.94,2.94,0,0,1,117.55,204.64ZM130,151.87a1.91,1.91,0,1,1,1.9-1.9A1.9,1.9,0,0,1,130,151.87Zm18.54-14.47.09-.35.14-.32.18-.31.23-.28.26-.24.29-.2.32-.16.34-.11.35-.07h.36l.35,0a2,2,0,0,1,.42.11,2.51,2.51,0,0,1,1.51,3.22l-.14.33-.19.3-.23.27-.27.24-.3.2-.32.15-.34.11-.36.05h-.35l-.36,0-.34-.1-.33-.14-.3-.19-.28-.22-.24-.27-.2-.29-.16-.33-.1-.34-.06-.35v-.35Zm.21,41.76a1.9,1.9,0,1,1-3.8,0h0a1.9,1.9,0,1,1,3.8,0Zm16.66-21.41a12.5,12.5,0,1,1-16.66-13.36,2,2,0,0,1,1.12-.1,6.51,6.51,0,0,0,3.65-.4,2.14,2.14,0,0,1,1.12-.15A12.49,12.49,0,0,1,165.38,157.75Zm12.53,4.56a1.91,1.91,0,0,1-3.81,0h0a1.91,1.91,0,0,1,3.81,0Zm-1.5-30.57a2.94,2.94,0,1,1,2.93-2.93A2.94,2.94,0,0,1,176.41,131.74Zm15.06-8.69a2.94,2.94,0,1,1,2.94-2.94A2.94,2.94,0,0,1,191.47,123.05Z"/><path class="cls-2" d="M212.78,194.62l-24.57-14.19a10.9,10.9,0,0,0-6.39-1.42l-3.19.28a4.41,4.41,0,0,1-2.56-.56l-2.3-1.33a4.35,4.35,0,0,0-5.94,1.59l-2.32,4a1.09,1.09,0,0,0,.4,1.49l5.64,3.26a1.08,1.08,0,0,1,.4,1.48l-14.13,24.48-1.48.4-4.12-2.38-.21-.1-.22-.06-.23,0h-.23l-.22.06-.21.11-.17.14-.14.18L148,216.6l-.08.17,0,.18,0,.18,0,.18.06.18.1.16.13.13.15.11,3.36,2,3.34,2,1.71,1,1.73,1,3.46,2.07.49.28.5.26.51.24.51.23.53.2.53.19.54.16.54.15.38.07.39,0h.38l.39,0,.44-.09.44-.12.42-.14.43-.17.42-.2.41-.22.4-.24.4-.27.38-.3.37-.31.35-.34.33-.35.32-.37.3-.39.27-.4.26-.41,2.21-3.83a2.18,2.18,0,0,1,3-.8l15.06,8.7a3.27,3.27,0,0,0,4.46-1.2L214,199.07A3.26,3.26,0,0,0,212.78,194.62ZM177.44,205,172,214.38a2.82,2.82,0,1,1-4.89-2.83l5.43-9.41a2.83,2.83,0,0,1,4.9,2.82Zm14.89,12.79a2.94,2.94,0,1,1,2.94-2.93A2.93,2.93,0,0,1,192.33,217.75Zm8.7-15.06a2.94,2.94,0,1,1,2.94-2.93A2.93,2.93,0,0,1,201,202.69Z"/><path class="cls-2" d="M242.74,160h-37a3.26,3.26,0,0,0-3.26,3.26v5.17a3.27,3.27,0,0,0,1,2.31l17,17a5.43,5.43,0,0,0,3.84,1.59h19.49a2.17,2.17,0,0,0,2.17-2.17h0V163.3A3.26,3.26,0,0,0,242.74,160Zm-21.66,21.1a1.09,1.09,0,0,1-1.09,1.09,1.07,1.07,0,0,1-.77-.32L213.34,176a1.08,1.08,0,0,1,0-1.54,1.1,1.1,0,0,1,.77-.32H220a1.09,1.09,0,0,1,1.09,1.09Z"/><path class="cls-2" d="M254.31,92.17l-8.7-15.06a2.16,2.16,0,0,0-3-.79L208.28,96.15a2.18,2.18,0,0,0-.8,3l10.13,17.55a8.72,8.72,0,0,1,1.16,4.63,14.67,14.67,0,0,0,29.33,1,14.52,14.52,0,0,0-.41-4,32.67,32.67,0,0,1,.18-16.2l.24-.9a8.7,8.7,0,0,1,4-5.28l1.35-.78A2.18,2.18,0,0,0,254.31,92.17ZM221.48,104a2.94,2.94,0,1,1,2.93-2.94A2.94,2.94,0,0,1,221.48,104Zm18.72,17.79a6.77,6.77,0,0,1-13.53,0v0a6.77,6.77,0,1,1,13.53,0Zm.58-28.93a2.94,2.94,0,1,1,2.93-2.94A2.94,2.94,0,0,1,240.78,92.88Z"/><path class="cls-2" d="M362.15,101l-.11-.46-.16-.45-.21-.43-14.42-25a1.09,1.09,0,0,0-1.49-.4L328.25,84.4a.43.43,0,0,1-.59-.16L317.11,66a.43.43,0,0,1,.16-.59h0l17.51-10.11a1.09,1.09,0,0,0,.4-1.49l-14.42-25-.27-.4-.3-.36-.35-.32-.37-.28-.41-.22-.42-.17-.43-.12-.44-.05h-.44l-.43.07-.41.13-.38.18L292,41.22l-.47.31-.44.36-.38.41-.34.45-.28.48-.22.52-5.53,15-.22.51-.29.49-.33.45-.39.41-.43.36-.47.31-23.05,13.3-.47.31-.43.36-.39.41-.33.45-.28.49-.23.52-.42,1.13-.16.52-.1.52,0,.53,0,.53.07.52.13.51.19.5.25.48,26.42,45.76.29.45.34.42.37.37.42.32.45.28.48.23.5.17.53.12,1.19.21.56.06h.57l.55-.06.55-.13.52-.2.51-.25,23.05-13.31.5-.25.53-.19.54-.14.56-.06h.56l.57.06L333.27,119l.56.06h.56L335,119l.54-.13.53-.2.51-.25,24.14-13.94.35-.24.32-.29.27-.33.23-.38.17-.4.12-.44.06-.45v-.46ZM300.4,65.09a3.26,3.26,0,1,1-3.26,3.26A3.26,3.26,0,0,1,300.4,65.09ZM271.22,88.46a3.26,3.26,0,1,1,3.26-3.26A3.26,3.26,0,0,1,271.22,88.46Zm16.85,29.18a3.26,3.26,0,1,1,3.26-3.26A3.26,3.26,0,0,1,288.07,117.64Zm20.3-26.27a14.14,14.14,0,1,1-28.27,0h0a14.14,14.14,0,0,1,28.27,0Zm3.86-46.17h0a5.44,5.44,0,1,1,10.87,0h0a5.44,5.44,0,1,1-10.87,0Zm5,55.59a3.26,3.26,0,1,1,3.26-3.26A3.26,3.26,0,0,1,317.25,100.79Zm34.12-6.63a5.44,5.44,0,0,1-10.88,0h0a5.44,5.44,0,0,1,10.88,0Z"/><path class="cls-1" d="M303.11,140.3l-4.39-1.6-.37,1-5.65,15.53a1.1,1.1,0,0,1-1.4.65l-29-10.56a1.09,1.09,0,0,1-.65-1.39l5.66-15.53.37-1-4.4-1.6a3.26,3.26,0,0,0-4.18,2l-5.94,16.34a6.51,6.51,0,0,0,3.89,8.36l33.71,12.27a6.52,6.52,0,0,0,8.36-3.9l5.95-16.34A3.25,3.25,0,0,0,303.11,140.3Zm-25.82,14.21a1.91,1.91,0,1,1-3.81,0h0a1.91,1.91,0,0,1,3.81,0Z"/><path class="cls-2" d="M306.37,177.76H258.7a1.09,1.09,0,0,0-1.09,1.09v8.69a1.09,1.09,0,0,0,1.09,1.09h47.67a1.09,1.09,0,0,0,1.09-1.09v-8.69A1.09,1.09,0,0,0,306.37,177.76Zm-22,7.61a1.85,1.85,0,1,1-3.69,0h0a1.85,1.85,0,1,1,3.69,0Z"/><path class="cls-2" d="M360.81,132.9H332.43a11,11,0,0,0-6.24,2l-2.63,1.85a4.35,4.35,0,0,1-2.49.78h-2.66a4.35,4.35,0,0,0-4.35,4.35v4.65a1.08,1.08,0,0,0,1.09,1.08h6.52a1.09,1.09,0,0,1,1.09,1.09v28.27L321.67,178h-4.75l-.23,0-.23.06-.2.08-.2.13-.16.16-.13.2-.08.21,0,.23v5.25l0,.18.05.18.08.17.11.14.14.12.17.09.17.05.19,0,3.91.07,3.9.06,2,0,2,0,4,.07H333l.56,0,.56,0,.56-.06.56-.09.55-.1.55-.13.54-.15.37-.12.35-.16.34-.2.31-.23.34-.29.31-.32.31-.34.28-.36.26-.38.25-.4.22-.41.21-.43.18-.45.17-.45.13-.47.12-.47.09-.48.06-.49,0-.48v-4.91a2.17,2.17,0,0,1,2.17-2.17h17.4a3.26,3.26,0,0,0,3.26-3.27V136.16A3.26,3.26,0,0,0,360.81,132.9Zm-25.44,37.5a2.83,2.83,0,1,1-5.65,0V159.53a2.83,2.83,0,0,1,5.65,0Zm17.83-6.85a2.94,2.94,0,1,1,2.93-2.93A2.94,2.94,0,0,1,353.2,163.55Zm0-17.39a2.94,2.94,0,1,1,2.93-2.93A2.94,2.94,0,0,1,353.2,146.16Z"/><path class="cls-2" d="M447.78,41.87l-.28-1-1.95-1.13-3.63-2.09L416.36,22.84l-3.63-2.09-2.42-1.4-1.05.28a1.09,1.09,0,0,0-.66.51l-1.7,2.95a2.17,2.17,0,0,0,.79,3l5.77,3.33a5.42,5.42,0,0,1,2.53,3.3l2.81,10.5a5.4,5.4,0,0,1-.54,4.12l-.94,1.63a3.27,3.27,0,0,0,1.2,4.46l1.88,1.08a1.08,1.08,0,0,0,1.48-.4l8.37-14.49a.44.44,0,0,1,.6-.16l12.15,7a2.17,2.17,0,0,0,3-.79l1.7-3A1.12,1.12,0,0,0,447.78,41.87Zm-34.48-16a1.9,1.9,0,1,1,1.9-1.9A1.9,1.9,0,0,1,413.3,25.86Zm31.09,15a1.91,1.91,0,0,1-3.81,0h0a1.91,1.91,0,0,1,3.81,0Z"/><path class="cls-2" d="M590.42,123.46,456.34,46.05a4.35,4.35,0,0,0-5.3.74,84.32,84.32,0,0,0-12.38,16.42l-6.41,11.1a4.35,4.35,0,0,0,1.59,5.94l8.66,5L563.38,155l8.66,5a4.35,4.35,0,0,0,5.94-1.59l6.42-11.11a83.87,83.87,0,0,0,8-18.92A4.35,4.35,0,0,0,590.42,123.46ZM540.7,104.92a1,1,0,0,1,1.08,0l15.94,9.2a1.08,1.08,0,0,1,.4,1.48,1.09,1.09,0,0,1-1,.54h-10a2.15,2.15,0,0,1-1.88-1.08l-5-8.66A1.08,1.08,0,0,1,540.7,104.92ZM520.36,93.18a1.07,1.07,0,0,1,1.09,0l15.93,9.2a1.08,1.08,0,0,1,.4,1.48,1.07,1.07,0,0,1-.94.54h-10a2.18,2.18,0,0,1-1.88-1.08l-5-8.66A1.08,1.08,0,0,1,520.36,93.18ZM500,81.44a1,1,0,0,1,1.08,0l15.94,9.2a1.08,1.08,0,0,1-.54,2h-10a2.17,2.17,0,0,1-1.88-1.08l-5-8.66A1.08,1.08,0,0,1,500,81.44ZM479.69,69.7a1.07,1.07,0,0,1,1.09,0l15.93,9.2a1.08,1.08,0,0,1,.4,1.48,1.07,1.07,0,0,1-.94.54h-10a2.18,2.18,0,0,1-1.89-1.08l-5-8.66A1.08,1.08,0,0,1,479.69,69.7ZM459.36,58a1,1,0,0,1,1.08,0l15.94,9.2a1.08,1.08,0,0,1-.54,2h-10A2.17,2.17,0,0,1,464,68.1l-5-8.66A1.08,1.08,0,0,1,459.36,58Zm-14.73,9.75a1.85,1.85,0,0,1,3.7,0h0a1.85,1.85,0,1,1-3.7,0Zm.25,10,9.41-16.3a2.17,2.17,0,0,1,3.77,0L462.45,69a2.16,2.16,0,0,1,0,2.17l-5,8.7a2.18,2.18,0,0,1-1.88,1.08h-8.79a2.17,2.17,0,0,1-2.17-2.17A2.2,2.2,0,0,1,444.88,77.66ZM462,93.89a1.07,1.07,0,0,1-1.09,0L445,84.69a1.09,1.09,0,0,1,.54-2h10a2.19,2.19,0,0,1,1.88,1.09l5,8.66A1.08,1.08,0,0,1,462,93.89ZM464,91.58l-5-8.7a2.16,2.16,0,0,1,0-2.17l5-8.7a2.18,2.18,0,0,1,1.88-1.09h10A2.19,2.19,0,0,1,477.77,72l5,8.7a2.21,2.21,0,0,1,0,2.17l-5,8.7a2.18,2.18,0,0,1-1.89,1.08h-10A2.17,2.17,0,0,1,464,91.58Zm18.4,14a1,1,0,0,1-1.08,0l-15.94-9.2a1.09,1.09,0,0,1,.55-2h10a2.19,2.19,0,0,1,1.89,1.09l5,8.66A1.08,1.08,0,0,1,482.36,105.63Zm1.93-2.31-5-8.7a2.16,2.16,0,0,1,0-2.17l5-8.7a2.19,2.19,0,0,1,1.89-1.09h10a2.19,2.19,0,0,1,1.88,1.09l5,8.7a2.16,2.16,0,0,1,0,2.17l-5,8.7a2.18,2.18,0,0,1-1.88,1.08h-10A2.18,2.18,0,0,1,484.29,103.32Zm18.41,14.05a1.07,1.07,0,0,1-1.09,0l-15.93-9.2a1.09,1.09,0,0,1,.54-2h10a2.19,2.19,0,0,1,1.88,1.09l5,8.66A1.08,1.08,0,0,1,502.7,117.37Zm1.93-2.31-5-8.7a2.16,2.16,0,0,1,0-2.17l5-8.7a2.18,2.18,0,0,1,1.88-1.09h10a2.16,2.16,0,0,1,1.88,1.09l5,8.7a2.21,2.21,0,0,1,0,2.17l-5,8.7a2.15,2.15,0,0,1-1.88,1.08h-10A2.17,2.17,0,0,1,504.63,115.06ZM523,129.11a1,1,0,0,1-1.08,0L506,119.91a1.08,1.08,0,0,1-.4-1.48,1.1,1.1,0,0,1,.95-.55h10a2.16,2.16,0,0,1,1.88,1.09l5,8.66A1.08,1.08,0,0,1,523,129.11ZM525,126.8l-5-8.7a2.16,2.16,0,0,1,0-2.17l5-8.7a2.19,2.19,0,0,1,1.88-1.09h10a2.19,2.19,0,0,1,1.88,1.09l5,8.7a2.16,2.16,0,0,1,0,2.17l-5,8.7a2.18,2.18,0,0,1-1.88,1.08h-10A2.18,2.18,0,0,1,525,126.8Zm18.41,14a1.07,1.07,0,0,1-1.09,0l-15.93-9.2a1.09,1.09,0,0,1,.54-2h10a2.19,2.19,0,0,1,1.88,1.09l5,8.66A1.08,1.08,0,0,1,543.37,140.85Zm1.93-2.31-5-8.7a2.16,2.16,0,0,1,0-2.17l5-8.7a2.16,2.16,0,0,1,1.88-1.09h10A2.16,2.16,0,0,1,559.1,119l5,8.7a2.16,2.16,0,0,1,0,2.17l-5,8.7a2.15,2.15,0,0,1-1.88,1.08h-10A2.15,2.15,0,0,1,545.3,138.54Zm18.4,14.05a1,1,0,0,1-1.08,0l-15.94-9.2a1.08,1.08,0,0,1-.4-1.48,1.1,1.1,0,0,1,1-.55h10a2.16,2.16,0,0,1,1.88,1.09l5,8.66A1.08,1.08,0,0,1,563.7,152.59Zm12.88-7.91a1.85,1.85,0,1,1,1.85-1.85A1.85,1.85,0,0,1,576.58,144.68Zm1.6-11.79-9.41,16.3a2.17,2.17,0,0,1-3.77,0l-4.39-7.61a2.16,2.16,0,0,1,0-2.17l5-8.7a2.19,2.19,0,0,1,1.88-1.09h8.79a2.18,2.18,0,0,1,2.17,2.18A2.22,2.22,0,0,1,578.18,132.89Zm.27-5.55a1.07,1.07,0,0,1-.94.54h-10a2.18,2.18,0,0,1-1.88-1.08l-5-8.66a1.08,1.08,0,0,1,.4-1.48,1.07,1.07,0,0,1,1.09,0l15.93,9.2A1.08,1.08,0,0,1,578.45,127.34Z"/><path class="cls-2" d="M538.14,151.47l-11.59-3.59a22,22,0,0,1-4.45-1.94L467,114.14a22,22,0,0,1-3.9-2.88l-8.9-8.25a3.32,3.32,0,0,0-4.51,4.87l5.44,5a10.88,10.88,0,0,1,3.4,9.31,6.52,6.52,0,0,0,3.21,6.45l50.39,29.09a6.52,6.52,0,0,0,7.19-.45,10.89,10.89,0,0,1,9.76-1.71l7.08,2.19a3.31,3.31,0,1,0,2-6.33ZM452,107a1.58,1.58,0,0,1,0-3.15,1.58,1.58,0,1,1,0,3.15Zm16,15.67a1.32,1.32,0,0,1-1.31,1.31,1.31,1.31,0,0,1-1.3-1.31h0a1.31,1.31,0,1,1,2.61,0Zm25.52,15.49a2.18,2.18,0,0,1-3,.8l-20.1-11.61a2.17,2.17,0,0,1,2.18-3.76l20.1,11.6A2.17,2.17,0,0,1,493.44,138.18Zm4.13,1.63a1.31,1.31,0,1,1-2.61,0h0a1.31,1.31,0,0,1,2.61,0Zm14.37,9.05a2.18,2.18,0,0,1-3,.8l-9.08-5.25a2.17,2.17,0,1,1,2.17-3.76l9.08,5.24A2.18,2.18,0,0,1,511.94,148.86Zm25.22,7.35a1.58,1.58,0,0,1,0-3.15,1.58,1.58,0,1,1,0,3.15Z"/><path class="cls-2" d="M554.52,174a3.31,3.31,0,0,0-4-2.5h0l-11.83,2.69a21.72,21.72,0,0,1-4.82.54h-63.6a21.8,21.8,0,0,1-4.83-.54l-11.83-2.69a3.31,3.31,0,0,0-1.48,6.46h0l7.23,1.65a10.87,10.87,0,0,1,7.6,6.36,6.52,6.52,0,0,0,6,4h58.19a6.54,6.54,0,0,0,6-4,10.85,10.85,0,0,1,7.59-6.36l7.23-1.65A3.31,3.31,0,0,0,554.52,174ZM452.9,176.28a1.58,1.58,0,1,1,0-3.15,1.58,1.58,0,0,1,0,3.15Zm37.39,8.21H479.8a2.18,2.18,0,0,1,0-4.35h10.49a2.18,2.18,0,1,1,0,4.35Zm6.74-2.18a1.31,1.31,0,1,1-2.61,0h0a1.31,1.31,0,0,1,2.61,0Zm27.34,2.18H501.16a2.18,2.18,0,0,1,0-4.35h23.21a2.18,2.18,0,1,1,0,4.35Zm6.9-2.18a1.31,1.31,0,1,1-2.61,0h0a1.31,1.31,0,0,1,2.61,0Zm20-6a1.58,1.58,0,1,1,0-3.15,1.58,1.58,0,0,1,0,3.15Z"/><path class="cls-1" d="M470.73,149.94h-5.44a5.43,5.43,0,0,0-5.43,5.43v6.52a1.08,1.08,0,0,0,1.08,1.09h14.13a1.09,1.09,0,0,0,1.09-1.09v-6.52A5.43,5.43,0,0,0,470.73,149.94ZM468,159.52a3.07,3.07,0,1,1,3.06-3.06A3.07,3.07,0,0,1,468,159.52Z"/><path class="cls-2" d="M419,221.25l-1.89-1.08-.23-.1-.24,0-.26,0-.24.07a2.17,2.17,0,0,0-.91-1l-52.71-30.44-1.89-1.08a2.17,2.17,0,0,0-3,.79l-7.34,12.71a.86.86,0,0,0-1.18.32l-36.64,63.45a.87.87,0,0,0,.32,1.19l-8.15,14.12a2.17,2.17,0,0,0,.79,3l1.89,1.09,3.69,2.13a3.25,3.25,0,0,1,1.63,2.82V299.2a6.5,6.5,0,0,0,3.26,5.64l8.7,5a6.49,6.49,0,0,0,6.52,0l8.7-5a3.27,3.27,0,0,1,3.26,0l17,9.79a2.09,2.09,0,0,0,1.34.28l.06.24.11.23.16.19.21.15,1.88,1.09a2.18,2.18,0,0,0,3-.8l53-91.79h0A2.16,2.16,0,0,0,419,221.25Zm-48.72-22.47a1.09,1.09,0,0,1,1.63-.94l17.4,10a1.1,1.1,0,0,1,.4.4,1.08,1.08,0,0,1-.4,1.48l-5.44,3.14a3.27,3.27,0,0,1-3.26,0l-8.7-5a3.29,3.29,0,0,1-1.63-2.83Zm0,11.92,8.7,5a3.27,3.27,0,0,1,1.63,2.83v10a3.25,3.25,0,0,1-1.63,2.82l-8.7,5a3.22,3.22,0,0,1-3.26,0l-8.69-5a3.25,3.25,0,0,1-1.63-2.82v-10a3.27,3.27,0,0,1,1.63-2.83l8.69-5A3.27,3.27,0,0,1,370.23,210.7ZM367,242.08v10a3.26,3.26,0,0,1-1.63,2.83l-8.69,5a3.29,3.29,0,0,1-3.27,0l-8.69-5a3.26,3.26,0,0,1-1.63-2.83v-10a3.25,3.25,0,0,1,1.63-2.82l8.69-5a3.24,3.24,0,0,1,3.27,0l8.69,5A3.25,3.25,0,0,1,367,242.08Zm-15.3-32.56a.41.41,0,0,1,.05-.09l9-15.54.05-.09a2.18,2.18,0,0,1,2.92-.7l1.68,1a3.25,3.25,0,0,1,1.63,2.82v8.16a3.27,3.27,0,0,1-1.63,2.83l-8.69,5a3.29,3.29,0,0,1-3.27,0l-.86-.5A2.17,2.17,0,0,1,351.67,209.52Zm-13.59,23.54s0-.07.05-.1L347.91,216l.06-.1a2.17,2.17,0,0,1,2.91-.7l.87.5a3.27,3.27,0,0,1,1.63,2.83v10a3.25,3.25,0,0,1-1.63,2.82l-8.69,5a3.22,3.22,0,0,1-3.26,0l-.87-.5A2.16,2.16,0,0,1,338.08,233.06Zm-13.59,23.53.05-.09,9.79-16.95a.41.41,0,0,1,.05-.09,2.18,2.18,0,0,1,2.92-.7l.87.5a3.28,3.28,0,0,1,1.63,2.82v10a3.28,3.28,0,0,1-1.63,2.83l-8.7,5a3.27,3.27,0,0,1-3.26,0l-.87-.5A2.18,2.18,0,0,1,324.49,256.59ZM312.62,283.5l-.87-.5a2.17,2.17,0,0,1-.85-2.87.47.47,0,0,0,.05-.1l9.79-16.94a.31.31,0,0,0,.05-.1,2.18,2.18,0,0,1,2.92-.7l.87.5a3.27,3.27,0,0,1,1.63,2.83v10a3.25,3.25,0,0,1-1.63,2.82l-8.7,5A3.22,3.22,0,0,1,312.62,283.5Zm10.33,19-4.59-9.12,2.05-3.55L325,299Zm8.36,2.58-9.17-18.24,2.05-3.55,9.17,18.24Zm3.77-6.54-4.58-9.12,2.05-3.55,4.58,9.12Zm4.72-15.07-8.7-5a3.25,3.25,0,0,1-1.63-2.82v-10a3.27,3.27,0,0,1,1.63-2.83l8.7-5a3.27,3.27,0,0,1,3.26,0l8.69,5a3.27,3.27,0,0,1,1.63,2.83v10a3.25,3.25,0,0,1-1.63,2.82l-8.69,5A3.22,3.22,0,0,1,339.8,283.5ZM367,299.2a3.25,3.25,0,0,1-1.63,2.82l-8.69,5a3.29,3.29,0,0,1-3.27,0l-8.69-5a3.25,3.25,0,0,1-1.63-2.82V289.15a3.25,3.25,0,0,1,1.63-2.82l8.69-5a3.29,3.29,0,0,1,3.27,0l8.69,5a3.25,3.25,0,0,1,1.63,2.82Zm13.59-23.54a3.25,3.25,0,0,1-1.63,2.82l-8.7,5a3.22,3.22,0,0,1-3.26,0l-8.69-5a3.25,3.25,0,0,1-1.63-2.82v-10a3.27,3.27,0,0,1,1.63-2.83l8.69-5a3.27,3.27,0,0,1,3.26,0l8.7,5a3.27,3.27,0,0,1,1.63,2.83Zm13.59-23.54a3.26,3.26,0,0,1-1.63,2.83l-8.7,5a3.27,3.27,0,0,1-3.26,0l-8.7-5a3.28,3.28,0,0,1-1.63-2.83v-10a3.28,3.28,0,0,1,1.63-2.82l8.7-5a3.22,3.22,0,0,1,3.26,0l8.7,5a3.25,3.25,0,0,1,1.63,2.82Zm13.59-23.53a3.25,3.25,0,0,1-1.63,2.82l-8.7,5a3.22,3.22,0,0,1-3.26,0l-8.7-5a3.25,3.25,0,0,1-1.63-2.82v-10a3.27,3.27,0,0,1,1.63-2.83l7.07-4.08a3.27,3.27,0,0,1,3.26,0l10.33,6a3.24,3.24,0,0,1,1.63,2.82Z"/><path class="cls-1" d="M346.71,333.11l-48-27.72a4.89,4.89,0,0,0-6.68,1.79l-27.72,48a4.9,4.9,0,0,0,1.79,6.69l48,27.72a4.9,4.9,0,0,0,6.68-1.79l27.72-48A4.89,4.89,0,0,0,346.71,333.11ZM323.59,321.4l-3.19-1.85A29.73,29.73,0,0,1,323.59,321.4ZM308,319.93a3.26,3.26,0,0,1,3.26-3.26,3.66,3.66,0,0,1,.57.05,31,31,0,0,1,5.76,1.61l.86.34,6.84,3.95c.24.18.49.37.73.57a31.3,31.3,0,0,1,4.27,4.19,3.25,3.25,0,0,1-.4,4.59,3.06,3.06,0,0,1-.47.33l-7.83,4.52a3.22,3.22,0,0,1-3.26,0l-8.7-5A3.25,3.25,0,0,1,308,329Zm-6.67,21,1.84-3.18,8.19,16.3-1.83,3.18Zm2.56,10.82-1.84,3.17L298,346.74l1.83-3.17Zm4.91-8.52,1.84-3.17,4.09,8.15-1.83,3.17Zm-26.35-15.82a31.23,31.23,0,0,1,18.46-10.66,3.66,3.66,0,0,1,.57-.05,3.26,3.26,0,0,1,3.26,3.26V329a3.25,3.25,0,0,1-1.63,2.82l-8.7,5a3.22,3.22,0,0,1-3.26,0l-7.83-4.52a2.64,2.64,0,0,1-.47-.33A3.25,3.25,0,0,1,282.48,327.38ZM281.2,360.1a3.26,3.26,0,0,1-4.18-2,31.21,31.21,0,0,1,0-21.31,2.45,2.45,0,0,1,.24-.52,3.27,3.27,0,0,1,4.46-1.2l7.83,4.53a3.25,3.25,0,0,1,1.63,2.82v10a3.26,3.26,0,0,1-1.63,2.83l-7.83,4.52A2.71,2.71,0,0,1,281.2,360.1Zm8,13.49,3.2,1.84A30.8,30.8,0,0,1,289.2,373.59Zm15.57,1.46a3.26,3.26,0,0,1-3.26,3.27,3.66,3.66,0,0,1-.57-.05,31.28,31.28,0,0,1-5.77-1.61l-.86-.35-6.83-3.94-.73-.57a31.9,31.9,0,0,1-4.27-4.19,3.27,3.27,0,0,1,.4-4.6,2.59,2.59,0,0,1,.47-.32l7.83-4.53a3.27,3.27,0,0,1,3.26,0l8.7,5a3.27,3.27,0,0,1,1.63,2.83Zm25.55-7.44a31.31,31.31,0,0,1-18.46,10.66,3.66,3.66,0,0,1-.57.05,3.26,3.26,0,0,1-3.26-3.27v-9a3.27,3.27,0,0,1,1.63-2.83l8.7-5a3.27,3.27,0,0,1,3.26,0l7.83,4.53a3,3,0,0,1,.47.32A3.27,3.27,0,0,1,330.32,367.61Zm5.46-9.46a4.9,4.9,0,0,1-.24.52,3.27,3.27,0,0,1-4.46,1.19l-7.83-4.52a3.26,3.26,0,0,1-1.63-2.83v-10a3.25,3.25,0,0,1,1.63-2.82l7.83-4.53a4.9,4.9,0,0,1,.52-.24,3.27,3.27,0,0,1,4.18,2A31.21,31.21,0,0,1,335.78,358.15Z"/><path class="cls-2" d="M310.18,411.71l-1.88-1.09-1.09,1.88a2.17,2.17,0,0,0-.79-3l-17-9.79a3.25,3.25,0,0,1-1.63-2.82v-10a6.53,6.53,0,0,0-3.26-5.65l-8.7-5a6.49,6.49,0,0,0-6.52,0l-8.7,5a3.27,3.27,0,0,1-3.26,0L251.81,378a2.17,2.17,0,0,0-3,.79l-3.26,5.65a.87.87,0,0,0-1.19.32h0L230,409.62a.88.88,0,0,0,.32,1.19l-3.26,5.65a.87.87,0,0,0-1.19.32l-10.44,18.08a.88.88,0,0,0,.32,1.19l-3.26,5.65a1.08,1.08,0,0,0,.4,1.48,1,1,0,0,0,.8.12,6,6,0,0,1,4.42.63l8.4,4.85.14.08a5.86,5.86,0,0,0,5,.4,3.28,3.28,0,0,1,2.8.22l18.66,10.78a3.26,3.26,0,0,1,1.59,2.3,5.88,5.88,0,0,0,2.86,4.16l.14.08,8.4,4.85a6,6,0,0,1,2.75,3.51,1.09,1.09,0,0,0,1.35.74,1.11,1.11,0,0,0,.64-.5l-.65,1.12,1.88,1.09a2.18,2.18,0,0,0,3-.8L311,414.68A2.18,2.18,0,0,0,310.18,411.71Zm-49.53-24.83a3.26,3.26,0,0,1,1.63-2.83l8.7-5a3.27,3.27,0,0,1,3.26,0l8.7,5a3.28,3.28,0,0,1,1.63,2.83v10a3.28,3.28,0,0,1-1.63,2.82l-8.7,5a3.22,3.22,0,0,1-3.26,0l-8.7-5a3.25,3.25,0,0,1-1.63-2.82Zm0,15.69,8.7,5a3.25,3.25,0,0,1,1.63,2.82v10a3.26,3.26,0,0,1-1.63,2.83l-8.7,5a3.27,3.27,0,0,1-3.26,0l-8.7-5a3.26,3.26,0,0,1-1.63-2.83v-10a3.25,3.25,0,0,1,1.63-2.82l8.7-5A3.22,3.22,0,0,1,260.65,402.57Zm-18.51-1.28,9.78-16.94a2.18,2.18,0,0,1,3-.8h0l.87.5a3.26,3.26,0,0,1,1.63,2.83v10a3.25,3.25,0,0,1-1.63,2.82l-8.7,5a3.22,3.22,0,0,1-3.26,0l-.87-.5A2.17,2.17,0,0,1,242.14,401.29Zm-11.93,42.82a2.17,2.17,0,0,1-2.17,2.18A2.2,2.2,0,0,1,227,446l-6.09-3.52a2.17,2.17,0,0,1-.79-3l4.67-8.09a2.18,2.18,0,0,1,3-.8h0l.87.5a3.27,3.27,0,0,1,1.63,2.83Zm0-15.81-.87-.5a2.17,2.17,0,0,1-.79-3l9.78-16.95a2.17,2.17,0,0,1,3-.79l.87.5a3.25,3.25,0,0,1,1.63,2.82v10a3.26,3.26,0,0,1-1.63,2.83l-8.7,5A3.27,3.27,0,0,1,230.21,428.3Zm13.59,23.53-8.7-5a3.28,3.28,0,0,1-1.63-2.82V434a3.29,3.29,0,0,1,1.63-2.83l8.7-5a3.27,3.27,0,0,1,3.26,0l8.7,5a3.27,3.27,0,0,1,1.63,2.83v10a3.25,3.25,0,0,1-1.63,2.82l-8.7,5A3.22,3.22,0,0,1,243.8,451.83ZM271,467.65a2.17,2.17,0,0,1-3.26,1.88l-8.79-5.07a3.25,3.25,0,0,1-1.59-2.31,5.87,5.87,0,0,0-2.86-4.15L252,456.54a2.17,2.17,0,0,1-.79-3,2.14,2.14,0,0,1,.79-.79l5.44-3.14a3.27,3.27,0,0,1,3.26,0l8.7,5a3.25,3.25,0,0,1,1.63,2.82ZM284.57,444a3.28,3.28,0,0,1-1.63,2.82l-8.7,5a3.22,3.22,0,0,1-3.26,0l-8.7-5a3.25,3.25,0,0,1-1.63-2.82V434a3.27,3.27,0,0,1,1.63-2.83l8.7-5a3.27,3.27,0,0,1,3.26,0l8.7,5a3.29,3.29,0,0,1,1.63,2.83Zm13.58-23.54a3.26,3.26,0,0,1-1.63,2.83l-8.69,5a3.27,3.27,0,0,1-3.26,0l-8.7-5a3.26,3.26,0,0,1-1.63-2.83v-10a3.25,3.25,0,0,1,1.63-2.82l8.7-5a3.22,3.22,0,0,1,3.26,0l8.69,5a3.25,3.25,0,0,1,1.63,2.82Z"/><path class="cls-2" d="M203.93,487.66l-.08-.2-.12-.18-.15-.15-.17-.13-25-14.45-.19-.08-.21-.06h-.21l-.22,0-.2.07-.18.11-.16.15-.13.17-2.71,4.71-.09.2-.05.2v.22l0,.21.08.2.12.18.15.16.17.12,1,.56.18.11.17.14.16.15.14.16.12.17.11.19.09.2.07.2,0,.21,0,.22v.43l0,.21-.06.21-.08.2-.09.19-38.59,66.84-.12.18-.14.17-.15.16-.16.13-.18.12-.19.1-.21.09-.2.06-.2,0-.22,0h-.22l-.21,0-.21,0-.21-.06-.21-.08-.19-.1-8.87-5.12a1.09,1.09,0,0,0-1.49.4h0l-4.34,7.53-3.27,5.65a1.08,1.08,0,0,0,.4,1.48l6.78,3.92a1.09,1.09,0,0,0,1.49-.4l1.63-2.83a2.17,2.17,0,0,1,3-.79l21.65,12.5a2.16,2.16,0,0,1,.79,3h0l-1.63,2.82a1.09,1.09,0,0,0,.4,1.49l6.78,3.91a1.1,1.1,0,0,0,1.49-.4l3.26-5.65,4.34-7.53a1.08,1.08,0,0,0-.39-1.48l-8.88-5.13-.18-.11-.17-.14-.16-.15-.14-.16-.12-.17-.11-.19-.09-.2-.07-.2,0-.21,0-.22v-.43l0-.2.06-.22.08-.2.09-.19,38.59-66.84.12-.18.14-.17.15-.16.16-.13.18-.12.19-.1.21-.09.2-.06.21,0,.21,0h.22l.21,0,.21,0,.21.06.21.08.19.1.95.55.2.09.21.05h.21l.22,0,.2-.08.18-.11.16-.14.13-.18,2.71-4.7.09-.2.05-.21v-.21Zm-41,52.53-8.7,15.07a3.25,3.25,0,0,1-4.45,1.19l-.94-.54L146,554.28l-.94-.55a3.25,3.25,0,0,1-1.19-4.45l8.69-15.07A3.27,3.27,0,0,1,157,533l4.71,2.72A3.25,3.25,0,0,1,162.92,540.19Zm13.91-24.1-7.61,13.18a3.26,3.26,0,0,1-4.45,1.2l-4.71-2.72a3.27,3.27,0,0,1-1.19-4.46l7.61-13.18a3.25,3.25,0,0,1,4.45-1.19l4.71,2.72A3.25,3.25,0,0,1,176.83,516.09Zm13.81-23.91L183,505.36a3.25,3.25,0,0,1-4.45,1.19l-4.71-2.71a3.27,3.27,0,0,1-1.2-4.46l7.61-13.18a3.27,3.27,0,0,1,4.46-1.19l4.71,2.72A3.25,3.25,0,0,1,190.64,492.18Z"/><path class="cls-1" d="M106.49,500.1l3.53.62a2.15,2.15,0,0,0,1.84-.54,45.4,45.4,0,0,0,7.65-9.11,1.08,1.08,0,0,0-.33-1.5l0,0-8.27-4.78a1.1,1.1,0,0,0-1.45.35c-.38.59-.78,1.16-1.2,1.72a1.08,1.08,0,0,0-.11,1.12,6.2,6.2,0,0,1-1.48,7.28,38.27,38.27,0,0,1-6.42,4.62,1.09,1.09,0,0,0-.42,1.46l2.36,4.41a1.11,1.11,0,0,0,1.48.44h0c.51-.29,1-.59,1.51-.91a.64.64,0,0,0,.21-.89v0l-.82-1.2a1.95,1.95,0,0,1,1.95-3Z"/><path class="cls-2" d="M131.44,610.81,90.15,587a1.08,1.08,0,0,0-1.48.4h0l-4.35,7.53a1.08,1.08,0,0,0,.4,1.48l8.44,4.87L96,602.89l8,4.6,2.82,1.63,8,4.6,2.83,1.63,8.43,4.87a1.09,1.09,0,0,0,1.49-.4l4.35-7.53A1.08,1.08,0,0,0,131.44,610.81Zm-22.6-5.32a1.85,1.85,0,0,1-3.7,0h0a1.85,1.85,0,1,1,3.7,0Z"/><path class="cls-2" d="M182.46,681l-5-8.7a3.27,3.27,0,0,1,0-3.26l3.22-5.57a2.18,2.18,0,0,0-.8-3l-91.79-53a2.18,2.18,0,0,0-3,.8l-31.52,54.6a2.18,2.18,0,0,0,.8,3h0l91.78,53a2.17,2.17,0,0,0,3-.79l9.79-17a3.27,3.27,0,0,1,2.83-1.63h10a6.53,6.53,0,0,0,5.65-3.26l5-8.7A6.49,6.49,0,0,0,182.46,681Zm-97-22.29-5,8.7A3.25,3.25,0,0,1,77.65,669h-10a3.27,3.27,0,0,1-2.83-1.63l-4.08-7.06a3.29,3.29,0,0,1,0-3.27l6-10.32a3.24,3.24,0,0,1,2.82-1.63h8.16a3.25,3.25,0,0,1,2.82,1.63l5,8.69A3.22,3.22,0,0,1,85.49,658.68Zm0-27.17-5,8.69a3.26,3.26,0,0,1-2.82,1.64H71.37a1.08,1.08,0,0,1-1.08-1.09,1.18,1.18,0,0,1,.14-.55l10-17.39a1.09,1.09,0,0,1,1.49-.4,1.27,1.27,0,0,1,.4.4l3.13,5.44A3.22,3.22,0,0,1,85.49,631.51Zm2.83-4.89-4.08-7.07a3.27,3.27,0,0,1,0-3.26l1-1.69a2.17,2.17,0,0,1,3-.79l15.53,9a2.18,2.18,0,0,1,.8,3l-.5.87a3.26,3.26,0,0,1-2.83,1.63h-10A3.25,3.25,0,0,1,88.32,626.62Zm8.05,25.59a2.56,2.56,0,1,1-2.55-2.56A2.55,2.55,0,0,1,96.37,652.21Zm15.93,31.57L91.12,671.55a3.69,3.69,0,0,1-1.35-5l14.4-25h0a3.7,3.7,0,0,1,5-1.35l21.18,12.23a3.69,3.69,0,0,1,1.35,5.05l-14.4,24.95A3.69,3.69,0,0,1,112.3,683.78Zm15.41-14.56a2.56,2.56,0,1,1-2.56,2.55A2.55,2.55,0,0,1,127.71,669.22ZM146,704l-20.71-12L144,659.53l20.71,12Z"/><path class="cls-1" d="M157.91,628.18l-4.71-2.72a5.43,5.43,0,0,0-7.42,2l-3.26,5.65a1.1,1.1,0,0,0,.39,1.49l12.24,7.06a1.09,1.09,0,0,0,1.49-.39l3.26-5.65A5.44,5.44,0,0,0,157.91,628.18Zm-2.55,4.3a3.07,3.07,0,1,1-6.13,0h0a3.07,3.07,0,0,1,6.13,0Z"/><path class="cls-1" d="M202.87,738v.15l0,.16,0,.15-.06.16-.08.16-1.91,3.3-.09.14-.1.13-.11.1-.12.09-.13.07-.14,0-.15,0h-.32l-.18,0-.18,0-.2-.06-.21-.07-.21-.09-.23-.12-.23-.12-.23-.14-.21-.14-.19-.15-.17-.14-.15-.14-.13-.14-.11-.15-.09-.14-.07-.15,0-.14,0-.15v-.29l0-.15.05-.15.08-.15,1.9-3.3.11-.16.11-.15.12-.12.13-.1.14-.07.15-.06.15,0h.33l.18,0,.19,0,.19.06.21.07.21.1.22.1.23.13.23.14.2.14.19.14.17.15.15.14.12.15.11.14.08.15.07.15,0,.16Zm-14-8.24,0-.15-.06-.15-.09-.15-.1-.15-.13-.14-.14-.15-.17-.14-.19-.14-.21-.15-.23-.13-.23-.13-.22-.11-.21-.09-.2-.08-.2-.06-.18,0-.18,0h-.33l-.16,0-.14.05-.14.08-.13.1-.12.12-.12.14-.1.17-1.91,3.3-.07.15-.06.15,0,.14,0,.15v.15l0,.14.05.15.07.14.09.15.1.14.13.14.15.15.17.14.19.14.21.14.24.14.23.13.22.11.22.09.21.08.19.06.19,0,.17,0h.17l.16,0,.15,0,.14,0,.13-.07.12-.08.11-.11.1-.12.09-.14,1.9-3.3.09-.16.06-.16,0-.16,0-.15v-.16Zm6.49,3.49-.14-.19-.2-.2-.25-.19-.31-.2-1.45-.83-1.51,2.6,1.36.79.36.19.33.14.28.09.24,0,.22,0,.19-.09.17-.15.15-.22.56-1,.08-.19,0-.2,0-.19Zm21.73,4.86c-2.33,4.16-2.29,7.66-.22,11.56,2.42,4.55,1.49,6.71-3.74,8.3-.91.28-2,.41-2.26,1.29-1.1,3.76-3.36,2.11-5.33,1.16-2.13-1-4.13-2.33-6.2-3.49-5.84-3.29-6-3.38-3.34-9.18,1-2.16.52-2.77-1.26-3.73-3.52-1.91-7-3.94-10.31-6.17-2.89-1.94-4.39.14-5.18,2-1.75,4.07-4.1,3.16-6.83,1.46-1.24-.77-2.44-1.59-3.71-2.3-7.37-4.16-8.07-5.65-6.24-13.82.54-2.45,2.07-3.94,4.65-3.82,6.15.28,9.69-3,12.38-8.14,4.17-8,9.49-15.37,13.28-23.61,1.26-2.73,3.88-2.89,7.23-2.76,2.54.91,5.93,1.08,9,3.23a127.52,127.52,0,0,0,15.3,8.85c3.82,1.94,6.14,5,8.23,8.5a4.41,4.41,0,0,1-.1,4.65C226.69,720.38,222,729.28,217.06,738.09Zm-46.87-12.27c-.52-1.17-1.12-2.22-2.67-2.32-1.76-.11-3.62,0-3.84,2.13-.16,1.59,1.4,2.85,2.7,3.15C168.29,729.21,169.08,727.29,170.19,725.82Zm13.84-.28-1-.6-5.66,4.67-.09-.05,1.21-7.24-1.08-.62-1.31,8.49,1.2.69Zm3.73,9,1.9-3.29.12-.25.1-.24.06-.24,0-.24v-.24l0-.23-.07-.24-.09-.23-.13-.23-.16-.22-.19-.23-.23-.22-.25-.22-.29-.22-.32-.21-.35-.21-.36-.2-.34-.17-.33-.13-.31-.11-.3-.08-.29-.06-.28,0h-.26l-.24,0-.24.06-.21.09-.21.12-.19.15-.18.18-.16.2-.15.24-1.9,3.27-.12.24-.09.23,0,.23,0,.23v.23l0,.23.07.22.1.22.12.23.17.22.19.21.22.22.25.22.29.21.32.21.34.21.33.18.31.16.31.13.3.11.3.09.28.06.28,0,.27,0h.26l.24,0,.23-.07.22-.11.19-.13.19-.17.16-.21Zm7.77,1.4.11-.12.09-.15.7-1.2.13-.27.09-.25,0-.24v-.22l-.06-.21-.11-.21-.15-.21-.21-.21-.25-.21-.31-.23-.38-.24-.43-.26-2.43-1.41-4,6.94,1,.59,1.71-3,1,.58.28,4.1,1.27.74-.44-4.37.39.19.37.13.37.07h.36l.17,0,.15,0,.15,0,.14-.08.13-.09Zm6.23,6.68,1.9-3.29.13-.24.09-.25.06-.24,0-.24v-.23l0-.24-.06-.23-.1-.23-.13-.23-.16-.23-.19-.22-.22-.22-.26-.22-.29-.22-.32-.22-.35-.21-.35-.19-.35-.17-.32-.14-.32-.11-.3-.08-.29,0-.27,0h-.26l-.25,0-.23.07-.22.09-.21.12-.19.14-.18.18-.16.21-.15.23-1.89,3.28-.12.23-.09.24-.06.23,0,.23v.23l0,.22.07.23.1.22.13.22.16.22.19.22.22.22.26.21.28.22.32.21.35.21.32.18.32.15.31.13.3.11.29.09.29.07.28,0,.27,0h.25l.25,0,.23-.08.21-.1.2-.14.18-.17.17-.2Zm10.51-.81-.91-.52-3.3,5.72-.47-7.9-1.25-.72-4,6.93.91.53,3.36-5.83.41,8,1.25.72Zm.82,8.39c-1.63.12-3.05.94-2.57,2.68.38,1.37.91,3.36,3.17,2.85,2.4.16,2.89-1.85,2.95-3.22C216.73,750.45,214.85,750.1,213.09,750.23Zm10.54-37.39c0-9.93-8.82-18.94-18.63-18.23-10.53.76-17.79,7.36-18.13,18.77-.31,10.26,7.65,17.92,18.06,17.94C216.1,731.33,223.64,723.88,223.63,712.84Z"/><path class="cls-1" d="M228.53,671.84a4.51,4.51,0,0,0-1.91-8.06l-3.22-.57a5.49,5.49,0,0,0-2.35.1l-8.66,2.32a16.35,16.35,0,0,1-11.73-1.27l-6.7-3.48a1.63,1.63,0,0,0-1.5,2.9l1.12.58a2.16,2.16,0,0,1,1.1,1.37l1.81,6.75a2.17,2.17,0,0,1-.33,1.83,17.09,17.09,0,0,0-.94,1.45,4.39,4.39,0,0,0-.49,3.17,1.09,1.09,0,0,0,1.31.81.91.91,0,0,0,.31-.12c1.21-.72,2.44-1.39,3.71-2a.8.8,0,0,0,.38-1.08.75.75,0,0,0-.28-.33,1.63,1.63,0,0,1-.45-2.26,1.71,1.71,0,0,1,.21-.26l.16-.15a4.33,4.33,0,0,1,1.89-1.06l13.24-3.55.61-.14.61-.08.61,0,.62,0,.61.08.6.14.59.18.56.24.55.28.52.33.49.38.46.41.41.46.38.48.33.52.28.55,2.27,4.86a1.63,1.63,0,0,0,3-1.38l-.81-1.74A2.16,2.16,0,0,1,228.53,671.84Zm-.79-3.62a1.91,1.91,0,0,1-3.81,0h0a1.91,1.91,0,0,1,3.81,0Z"/><path class="cls-1" d="M292.24,660.91H243.75a3.26,3.26,0,0,0-3.26,3.26v2.39a.44.44,0,0,0,.43.44h15.44v-.32a1.85,1.85,0,1,1,2.62,0h0V667h12.4a3.69,3.69,0,0,1,3.69,3.7v9.78a2.19,2.19,0,0,0,2.18,2.18h15a4.35,4.35,0,0,0,4.35-4.35v-13A4.35,4.35,0,0,0,292.24,660.91Zm-6.52,13.86a3,3,0,1,1,3-3A3,3,0,0,1,285.72,674.77Z"/><path class="cls-2" d="M267.53,681.72H238.18a3.93,3.93,0,0,0-3.92,3.92v7.62a4.79,4.79,0,0,0,1.4,3.38l4.56,4.56a4.79,4.79,0,0,0,3.38,1.4h18.51a4.83,4.83,0,0,0,3.38-1.4l4.55-4.56a4.75,4.75,0,0,0,1.4-3.38v-7.62A3.92,3.92,0,0,0,267.53,681.72Zm-14.68,13.7a3.26,3.26,0,1,1,3.26-3.26A3.26,3.26,0,0,1,252.85,695.42Z"/><path class="cls-2" d="M314.38,761.43l-17-9.84a1.08,1.08,0,0,1-.39-1.48l9.83-17a1.09,1.09,0,0,0-.39-1.49l-41.46-23.93-.43-.22-.44-.16-.46-.11-.47,0h-.46l-.45.06-.43.12-.41.18-.37.23-.34.27-.29.31-.24.36-32.65,56.56a3.33,3.33,0,0,0-.22,2.9l.89,2.3a3.38,3.38,0,0,0,1.45,1.69l57.08,32.95.38.18.41.13.43.07h.43l.44-.05.44-.11.42-.17.41-.23.37-.27.35-.33.3-.36.27-.4,23.44-40.61A1.08,1.08,0,0,0,314.38,761.43Zm-25.67-32.94a5.44,5.44,0,1,1-5.43,5.44A5.45,5.45,0,0,1,288.71,728.49Zm-5.07,25.1a3.26,3.26,0,1,1,3.26,3.26A3.26,3.26,0,0,1,283.64,753.59Zm5.93,29.56L287.93,786l-3.67-7.29,1.64-2.84ZM264,714.2a5.44,5.44,0,1,1-5.43,5.43A5.44,5.44,0,0,1,264,714.2Zm-6.24,19.28a3.26,3.26,0,1,1-3.26,3.26A3.26,3.26,0,0,1,257.71,733.48Zm-16.85,35.71a3.26,3.26,0,1,1,3.27-3.26A3.26,3.26,0,0,1,240.86,769.19ZM270.05,786a3.26,3.26,0,1,1,3.26-3.26A3.26,3.26,0,0,1,270.05,786Zm8-26.27a14.13,14.13,0,0,1-28.26,0h0a14.13,14.13,0,1,1,28.26,0Zm6.49,39.29a5.44,5.44,0,1,1,5.43-5.43A5.43,5.43,0,0,1,284.5,799.06Zm10.12-11-7.34-14.6,1.64-2.84,7.33,14.6Zm3-5.24L294,775.53l1.64-2.84,3.67,7.3Zm2.83-11.43a5.44,5.44,0,1,1,5.44-5.44A5.44,5.44,0,0,1,300.47,771.39Z"/><path class="cls-2" d="M673.49,173.22l-62.14-35.88a2.18,2.18,0,0,0-3,.8h0L607.3,140l1.88,1.09a2.18,2.18,0,0,0-3,.8l-9.79,17a3.26,3.26,0,0,1-2.83,1.63h-10a6.55,6.55,0,0,0-5.65,3.26l-5,8.7a6.54,6.54,0,0,0,0,6.52l5,8.7a3.22,3.22,0,0,1,0,3.26l-3.22,5.58a2.18,2.18,0,0,0,.8,3l5.65,3.26a.87.87,0,0,0,.32,1.19l24.85,14.35a.88.88,0,0,0,1.19-.32l5.65,3.26a.88.88,0,0,0,.31,1.19l18.09,10.44a.87.87,0,0,0,1.19-.32l5.65,3.26a1.08,1.08,0,0,0,1.48-.4,1.06,1.06,0,0,0,.11-.8,6,6,0,0,1,.63-4.42l4.85-8.4.08-.14a5.83,5.83,0,0,0,.4-5,3.28,3.28,0,0,1,.23-2.8l10.77-18.66a3.28,3.28,0,0,1,2.31-1.59,5.87,5.87,0,0,0,4.15-2.86l.08-.14,4.85-8.4a6,6,0,0,1,3.51-2.75,1.08,1.08,0,0,0,.74-1.35,1,1,0,0,0-.5-.64l1.12.65,1.09-1.88A2.17,2.17,0,0,0,673.49,173.22Zm-42.87-9.47h10a3.27,3.27,0,0,1,2.83,1.64l5,8.69a3.27,3.27,0,0,1,0,3.26l-5,8.7a3.26,3.26,0,0,1-2.83,1.63h-10A3.25,3.25,0,0,1,627.8,186l-5-8.7a3.27,3.27,0,0,1,0-3.26l5-8.69A3.26,3.26,0,0,1,630.62,163.75ZM625,190.93l-5,8.7a3.25,3.25,0,0,1-2.82,1.63h-10a3.27,3.27,0,0,1-2.83-1.63l-5-8.7a3.27,3.27,0,0,1,0-3.26l5-8.7a3.27,3.27,0,0,1,2.83-1.63h10A3.25,3.25,0,0,1,620,179l5,8.7A3.22,3.22,0,0,1,625,190.93Zm-25.73-30.44,5-8.69a3.27,3.27,0,0,1,2.83-1.63h10A3.25,3.25,0,0,1,620,151.8l5,8.69a3.22,3.22,0,0,1,0,3.26l-5,8.7a3.25,3.25,0,0,1-2.82,1.63h-10a3.27,3.27,0,0,1-2.83-1.63l-5-8.7A3.27,3.27,0,0,1,599.24,160.49Zm-23.53,16.85a3.22,3.22,0,0,1,0-3.26l5-8.69a3.26,3.26,0,0,1,2.82-1.64h10a3.27,3.27,0,0,1,2.83,1.64l5,8.69a3.27,3.27,0,0,1,0,3.26l-5,8.7a3.26,3.26,0,0,1-2.83,1.63h-10a3.25,3.25,0,0,1-2.82-1.63Zm25.73,27.18-.5.87a2.17,2.17,0,0,1-3,.79l-17-9.78a2.17,2.17,0,0,1-.79-3h0l.5-.87a3.25,3.25,0,0,1,2.82-1.63h10a3.26,3.26,0,0,1,2.83,1.63l5,8.7A3.27,3.27,0,0,1,601.44,204.52ZM625,218.11l-.5.87a2.17,2.17,0,0,1-3,.79L604.56,210a2.18,2.18,0,0,1-.8-3l.5-.87a3.27,3.27,0,0,1,2.83-1.63h10a3.25,3.25,0,0,1,2.82,1.63l5,8.7A3.22,3.22,0,0,1,625,218.11Zm17.7,3.26-3.51,6.09a2.17,2.17,0,0,1-3,.79l-8.1-4.67a2.17,2.17,0,0,1-.79-3l.5-.87a3.25,3.25,0,0,1,2.82-1.63h10.17a2.17,2.17,0,0,1,2.17,2.17A2.2,2.2,0,0,1,642.67,221.37Zm5.84-16.85-5,8.7a3.28,3.28,0,0,1-2.83,1.63h-10a3.28,3.28,0,0,1-2.82-1.63l-5-8.7a3.27,3.27,0,0,1,0-3.26l5-8.7a3.25,3.25,0,0,1,2.82-1.63h10a3.26,3.26,0,0,1,2.83,1.63l5,8.7A3.27,3.27,0,0,1,648.51,204.52Zm17.7-23.92-5.08,8.8a3.24,3.24,0,0,1-2.3,1.58,5.9,5.9,0,0,0-4.16,2.87l-1.45,2.52a2.19,2.19,0,0,1-3.77,0l-3.14-5.44a3.27,3.27,0,0,1,0-3.26l5-8.7a3.27,3.27,0,0,1,2.83-1.63h10.17a2.17,2.17,0,0,1,1.88,3.26Z"/><path class="cls-1" d="M734.66,206.86l-48-27.72a4.89,4.89,0,0,0-6.68,1.79l-27.72,48a4.89,4.89,0,0,0,1.79,6.68l48,27.72a4.88,4.88,0,0,0,6.68-1.79l27.72-48A4.89,4.89,0,0,0,734.66,206.86Zm-51-15a31.33,31.33,0,0,1,21.31,0,4.12,4.12,0,0,1,.52.24,3.27,3.27,0,0,1,1.2,4.46l-4.53,7.83a3.25,3.25,0,0,1-2.82,1.63h-10a3.27,3.27,0,0,1-2.83-1.63L682,196.56a2.71,2.71,0,0,1-.24-.52A3.26,3.26,0,0,1,683.69,191.86Zm4.13,34.37-3.17-1.83,16.3-8.19,3.17,1.83Zm14-.72-8.15,4.1-3.17-1.84,8.15-4.09ZM687,216.93l8.15-4.1,3.17,1.83-8.15,4.1Zm-18.7-12.88-1.84,3.19A29.66,29.66,0,0,1,668.25,204.05Zm-4.67,11.73a30.94,30.94,0,0,1,1.6-5.76c.11-.29.23-.58.35-.86l3.94-6.83.57-.73a31.39,31.39,0,0,1,4.19-4.28,3.27,3.27,0,0,1,4.6.4,4,4,0,0,1,.33.47l4.52,7.83a3.27,3.27,0,0,1,0,3.26l-5,8.7a3.26,3.26,0,0,1-2.83,1.63h-9a3.26,3.26,0,0,1-3.26-3.26A2.75,2.75,0,0,1,663.58,215.78Zm15.25,29a3.27,3.27,0,0,1-4.6.4,31.27,31.27,0,0,1-10.65-18.46,2.63,2.63,0,0,1-.05-.57,3.26,3.26,0,0,1,3.26-3.26h9a3.26,3.26,0,0,1,2.83,1.63l5,8.7a3.27,3.27,0,0,1,0,3.26l-4.52,7.84A3.83,3.83,0,0,1,678.83,244.76ZM705,250.62a31.21,31.21,0,0,1-21.31,0,2.71,2.71,0,0,1-.52-.24,3.25,3.25,0,0,1-1.19-4.45l4.52-7.84a3.27,3.27,0,0,1,2.83-1.63h10a3.25,3.25,0,0,1,2.82,1.63l4.53,7.84a4.74,4.74,0,0,1,.24.51A3.26,3.26,0,0,1,705,250.62Zm15.45-12.18,1.84-3.19A33.78,33.78,0,0,1,720.45,238.44Zm4.67-11.74a32.06,32.06,0,0,1-1.6,5.77l-.35.86-3.94,6.83c-.19.25-.38.49-.58.73a31.3,31.3,0,0,1-4.19,4.27,3.25,3.25,0,0,1-4.59-.4,3.83,3.83,0,0,1-.33-.46L705,236.46a3.27,3.27,0,0,1,0-3.26l5-8.7a3.25,3.25,0,0,1,2.82-1.63h9a3.26,3.26,0,0,1,3.26,3.26A3.45,3.45,0,0,1,725.12,226.7Zm-3.21-7.09h-9A3.25,3.25,0,0,1,710,218l-5-8.7a3.27,3.27,0,0,1,0-3.26l4.52-7.83a4,4,0,0,1,.33-.47,3.25,3.25,0,0,1,4.59-.4,31.26,31.26,0,0,1,10.66,18.46,3.66,3.66,0,0,1,0,.57A3.26,3.26,0,0,1,721.91,219.61Z"/><path class="cls-2" d="M618.58,240.79a4.2,4.2,0,0,0-2-2.58l-11.16-6.45s0-.1,0-.15l11.21,6.48-27-15.6a18.65,18.65,0,0,1-7.12-7.38,5.89,5.89,0,0,1-.47-1.23,4.33,4.33,0,0,0-2-2.67,4.36,4.36,0,0,1-.75-.52c-1-.82-2-1.59-3-2.34l-.06.11c-1.37-1-2.78-1.93-4.23-2.81a1,1,0,0,0-1.31.33h0l-1.18,2-.09-.11-8.92,15.45-.94,1.63-.13.25-.12.26-.2.56-.17.57-.14.54,0,.21.05.21.09.19.07.08.08.07,3.06,1.77-4,7-3.06-1.77-.1,0-.1,0-.21,0-.21.06-.19.09-.4.4-.41.43-.38.45-.17.23-.15.24-.94,1.63-.68,1.17.08-.12.1-.12.11-.1.12-.09-2.47,4.27-.18,0,1.28-2.22-6.44,11.17h.16l-2,3.51a1,1,0,0,0,.35,1.3h0a59.36,59.36,0,0,0,8.07,3.69,5.08,5.08,0,0,1,.85.4,4.14,4.14,0,0,0,3.21.39,6,6,0,0,1,1.33-.21,18.74,18.74,0,0,1,10,2.5l27,15.6a4.19,4.19,0,0,0,3.21.41,18.31,18.31,0,0,0,11-8.52l9.74-16.86A18.34,18.34,0,0,0,618.58,240.79ZM555.91,257.7a2.7,2.7,0,0,1-5.39,0h0a2.7,2.7,0,1,1,5.39,0ZM561,222.76v-.15l0-.15.05-.14.07-.13,3-5.21a.64.64,0,0,1,.08.14Zm6.59,4.93a3.26,3.26,0,1,1,3.26,3.27A3.26,3.26,0,0,1,567.59,227.69Zm6.54,23.79a4.76,4.76,0,1,1,4.75-4.76A4.76,4.76,0,0,1,574.13,251.48Zm3.78-34a2.55,2.55,0,1,1,2.55-2.55A2.56,2.56,0,0,1,577.91,217.48ZM589.45,254l-1.63-3.23.73-1.26,1.63,3.23Zm-.29-5.56.73-1.26,3.25,6.48-.72,1.26Zm3.7-.34,1.62,3.24-.72,1.26-1.63-3.24Zm8.33,28.22a3.25,3.25,0,0,1-4.45,1.19l-.66-.38a3.26,3.26,0,0,1,3.26-5.64l.66.38A3.25,3.25,0,0,1,601.19,276.34ZM602.4,271a3.26,3.26,0,1,1,3.26-3.26A3.26,3.26,0,0,1,602.4,271ZM618,247.16a3.27,3.27,0,0,1-4.45,1.19l-.66-.38a3.26,3.26,0,0,1,3.26-5.65l.66.38A3.27,3.27,0,0,1,618,247.16Z"/><path class="cls-2" d="M664.37,253l-.42-.43H629.14l-.43.43v26.29l.21.22.22.23H664l.22-.22.2-.22ZM638.5,273.38a3.26,3.26,0,0,1-6.52,0v0a3.26,3.26,0,0,1,6.52,0Zm22.61,0a3.26,3.26,0,0,1-6.52,0v0a3.26,3.26,0,0,1,6.52,0Z"/><path class="cls-2" d="M737.42,278.32h-12a10.26,10.26,0,0,1-4.79-1.18,8.74,8.74,0,0,0-4-1H704.69a8.7,8.7,0,0,1-3.19-.61,14.67,14.67,0,1,0-10.77,27.3c.21.09.43.17.66.25A45.44,45.44,0,0,0,706,305.5h31.45a3.26,3.26,0,0,0,3.26-3.26V281.58A3.26,3.26,0,0,0,737.42,278.32ZM703,289.21a6.93,6.93,0,1,1-13.86,0v0a6.93,6.93,0,0,1,13.86,0Zm12.64,2.92a2.94,2.94,0,1,1,2.93-2.94A2.94,2.94,0,0,1,715.68,292.13Zm17.39,0a2.94,2.94,0,1,1,2.94-2.94A2.94,2.94,0,0,1,733.07,292.13Z"/><path class="cls-2" d="M569.74,298.88l-15.07-8.7a2.17,2.17,0,0,1-.79-3l2.21-3.83.23-.41.2-.43.18-.44.16-.45.14-.45.12-.46.09-.47.06-.46.05-.48v-.94l0-.48-.07-.46-.09-.47-.12-.45-.15-.45-.15-.35-.19-.34-.23-.32-.25-.29-.4-.39-.41-.39-.43-.37-.44-.35-.45-.33-.47-.32-.47-.3-.49-.29-3.53-2-1.76-1-1.74-1-6.83-3.79-.17-.08-.18,0h-.18l-.19,0-.17.06-.15.11-.13.13-.11.15-2.62,4.55-.09.21,0,.22v.24l.06.21.11.21.13.19.17.16.19.13,4.12,2.37.4,1.49-14.14,24.48a1.08,1.08,0,0,1-1.48.39l-5.65-3.26a1.08,1.08,0,0,0-1.48.4l-2.33,4a4.36,4.36,0,0,0,1.59,5.94L518.6,308a4.33,4.33,0,0,1,1.76,1.93l1.36,2.91a10.85,10.85,0,0,0,4.42,4.82l24.57,14.19a3.27,3.27,0,0,0,4.46-1.19l15.76-27.31A3.25,3.25,0,0,0,569.74,298.88Zm-31.6-1.8a2.83,2.83,0,0,1-1-3.86l5.43-9.41a2.83,2.83,0,1,1,4.9,2.82L542,296.05A2.83,2.83,0,0,1,538.14,297.08ZM549.29,322a2.94,2.94,0,1,1,2.93-2.94A2.94,2.94,0,0,1,549.29,322ZM558,307a2.94,2.94,0,1,1,2.94-2.93A2.93,2.93,0,0,1,558,307Z"/><path class="cls-2" d="M565.32,352l-.37-2.44a3.36,3.36,0,0,0-1.65-2.4l-56.56-32.66-.38-.18-.41-.13-.43-.07h-.43l-.44,0-.44.12-.42.17-.4.22-.38.28-.35.32-.3.36-.26.4-23.94,41.46a1.08,1.08,0,0,0,.4,1.48l17,9.84a1.08,1.08,0,0,1,.4,1.48l-9.84,17a1.09,1.09,0,0,0,.4,1.49l40.61,23.44.42.22.45.16.46.11.46.05h.46l.46-.06.43-.12.41-.18.37-.22.33-.28.29-.31.24-.36,33-57.07A3.4,3.4,0,0,0,565.32,352Zm-42.43-17.64a3.26,3.26,0,1,1-3.26,3.26A3.26,3.26,0,0,1,522.89,334.35Zm-13.95-13.87a5.44,5.44,0,1,1-5.44,5.43A5.43,5.43,0,0,1,508.94,320.48ZM515.42,384l2.84,1.64-7.3,3.67-2.84-1.64Zm-20.78-27.93a5.44,5.44,0,1,1,5.44-5.44A5.43,5.43,0,0,1,494.64,356.11Zm5.82,33.61a5.44,5.44,0,1,1,5.44-5.43A5.43,5.43,0,0,1,500.46,389.72Zm2.32-22.92a3.26,3.26,0,1,1,3.26,3.26A3.26,3.26,0,0,1,502.78,366.8Zm3.28,27.6,14.59-7.33,2.84,1.63L508.89,396Zm8.07,4.66-2.84-1.64,7.29-3.67,2.84,1.64Zm14,6.64a5.44,5.44,0,1,1,5.44-5.43A5.43,5.43,0,0,1,528.14,405.7Zm7.09-18.79a3.27,3.27,0,1,1,3.26-3.26A3.26,3.26,0,0,1,535.23,386.91Zm-6.17-12.15a14.13,14.13,0,0,1-14.13-14.13v0a14.13,14.13,0,1,1,14.13,14.15Zm23-17a3.26,3.26,0,1,1,3.26-3.26A3.26,3.26,0,0,1,552.08,357.72Z"/><path class="cls-2" d="M506.54,412.91l-34.36-19.84a2.18,2.18,0,0,0-3,.8l-8.7,15.06a2.18,2.18,0,0,0,.8,3l1.35.78a8.68,8.68,0,0,1,4,5.28l.24.9a32.56,32.56,0,0,1,.17,16.2,14.68,14.68,0,1,0,28.93,3,8.6,8.6,0,0,1,1.16-4.64l10.12-17.54A2.17,2.17,0,0,0,506.54,412.91ZM471.1,406.7h0a2.94,2.94,0,0,1,5.87,0h0a2.94,2.94,0,0,1-5.87,0Zm17,31.86a6.76,6.76,0,1,1-13.52,0h0a6.76,6.76,0,0,1,13.52,0Zm5.2-17.79a2.94,2.94,0,1,1,2.93-2.93A2.94,2.94,0,0,1,493.34,420.77Z"/><path class="cls-2" d="M484.54,470.63l-16.29-9.41a8.62,8.62,0,0,1-3-2.92l-.35-.53-.34-.5-.34-.48-.34-.44a24.21,24.21,0,0,0-6.81-6,4.88,4.88,0,0,1-1.6-1.53.43.43,0,0,0-.59-.14.44.44,0,0,0-.14.61,5.76,5.76,0,0,0,1.93,1.84.86.86,0,0,1,0,1.5l-1.44.83-.92.54a1.11,1.11,0,0,1-1.09,0l-1.95-1.13a1.08,1.08,0,0,1-.4-1.48l2.74-4.74.07-.17,0-.17,0-.19v-.18l0-.18-.08-.17-.1-.15-.12-.13a3.72,3.72,0,0,0-.76-.56l-8.69-5-.13-.08-.61-.35-.37-.17-.38-.11-.4,0-.4,0-.38.09-.35.15-.32.21-.27.27-.22.31-14.48,25.07-.45.82-.42.84-.4.87-.37.9-.33.91-.31.93-.27.95-.24.95-.55,2.36-.12.53-1,4.24a9,9,0,0,0-.15,3.35,3.25,3.25,0,0,0,1.6,2.36l40.17,23.19a4.34,4.34,0,0,0,5.94-1.59l17.39-30.12A4.34,4.34,0,0,0,484.54,470.63Zm-21.36,3.79a1.85,1.85,0,0,1,3.7,0h0a1.85,1.85,0,0,1-3.7,0Zm-10.66-17.07h5.27l2.63,4.56-2.63,4.57h-5.27l-2.64-4.57Zm-16.16,12.93h-5.28l-2.63-4.57,2.63-4.56h5.28l2.63,4.56Zm5.73-16.14a2.93,2.93,0,0,1-2.93-2.94h0a2.94,2.94,0,0,1,5.87,0h0A2.93,2.93,0,0,1,442.09,454.14Zm5,26.74-2.63-4.56,2.63-4.57h5.27l2.64,4.57-2.64,4.56Zm7.4,8.61h0a1.85,1.85,0,0,1,3.7,0h0a1.85,1.85,0,0,1-3.7,0Zm10,9.74a2.18,2.18,0,0,1-3,.8l-2.82-1.63a2.18,2.18,0,0,1-.8-3L471,472.83a2.17,2.17,0,0,1,3-.79l2.82,1.63a2.18,2.18,0,0,1,.8,3Zm7.79-1.59a1.85,1.85,0,1,1-3.69,0h0a1.85,1.85,0,1,1,3.69,0Zm8.7-15.06a1.85,1.85,0,0,1-3.7,0h0a1.85,1.85,0,0,1,3.7,0Z"/><path class="cls-1" d="M450.2,512.91l-30.69-17.72a6.53,6.53,0,0,0-8.91,2.39l-.18.31-1.7,2.95-49,84.79-1.71,3-.18.31a6.52,6.52,0,0,0,2.39,8.91L391,615.52a6.52,6.52,0,0,0,8.91-2.38l.24-.43,1.58-2.73,49.08-85,1.58-2.73.24-.42A6.52,6.52,0,0,0,450.2,512.91Zm-73.54,92-1.83-3.64.82-1.42,1.83,3.64Zm3.35,1-3.67-7.3.82-1.42,3.67,7.3Zm1.51-2.62-1.84-3.65.82-1.42,1.84,3.65Zm51.42-51.77-12.45,21.55L414,584.37l-12.45,21.56a1.09,1.09,0,0,1-1.49.4l-36.33-21a1.09,1.09,0,0,1-.4-1.49l31.41-54.41a1.09,1.09,0,0,1,1.49-.4l.23.14,30.13,17.39,6,3.45A1.09,1.09,0,0,1,432.94,551.52ZM441,530.18a2.72,2.72,0,0,1-3.71,1h0l-4.62-2.67-1.74-1a2.17,2.17,0,0,0-3,.79l-1.63,2.83a1.08,1.08,0,0,1-1.48.4l-15.07-8.7a1.09,1.09,0,0,1-.39-1.49l8.15-14.12a1.07,1.07,0,0,1,1.48-.39l15.07,8.69a1.09,1.09,0,0,1,.39,1.49l-1.63,2.82a2.18,2.18,0,0,0,.8,3l1.74,1,4.62,2.66A2.71,2.71,0,0,1,441,530.18Z"/><path class="cls-2" d="M346.1,716.8a11,11,0,0,0,10.72-11.28s0-.1,0-.14L356,683.66a16,16,0,0,0-16.55-15.33l-.78,0-13.18,1.16a10.74,10.74,0,0,0-7.29,3.79L307.5,686.06a1,1,0,0,0,.12,1.34l7.6,6.38L300.68,711.1l7.93,6.65Zm3.88-7.51-5.11,1.86-4.16-3.49,1-5.35,5.1-1.86,4.16,3.49Zm.41-13.36a1.72,1.72,0,1,1-1.71,1.71A1.71,1.71,0,0,1,350.39,695.93ZM331.6,677.19a2.17,2.17,0,0,1,3.07-.26l1.77,1.49a.55.55,0,0,0,.6.06,6.68,6.68,0,0,1,1.07-.44l-.12-.1a6.66,6.66,0,0,1,3-.26l-.1.12a6.35,6.35,0,0,1,1.13.25.55.55,0,0,0,.58-.17l1.49-1.78a2.18,2.18,0,0,1,3.33,2.8l-1.49,1.77a.55.55,0,0,0-.07.6,6.18,6.18,0,0,1,.44,1.07l.11-.12a6.69,6.69,0,0,1,.26,3l-.13-.11a7.33,7.33,0,0,1-.24,1.13.53.53,0,0,0,.17.58l1.77,1.49a2.17,2.17,0,0,1-2.79,3.33l-1.78-1.49a.55.55,0,0,0-.6-.07,5.87,5.87,0,0,1-1.07.44l.13.11a6.69,6.69,0,0,1-3,.26l.1-.13a6.32,6.32,0,0,1-1.13-.24.54.54,0,0,0-.58.17L336,692.44a2.17,2.17,0,0,1-3.33-2.79l1.49-1.78a.55.55,0,0,0,.07-.6,6.68,6.68,0,0,1-.44-1.07l-.1.13a6.55,6.55,0,0,1-.27-3l.13.11a6.26,6.26,0,0,1,.25-1.14.54.54,0,0,0-.17-.57l-1.78-1.49A2.18,2.18,0,0,1,331.6,677.19Zm-8.09-1.1a1.72,1.72,0,1,1-1.71,1.71A1.72,1.72,0,0,1,323.51,676.09Zm-11.83,31.17A1.72,1.72,0,1,1,310,709,1.72,1.72,0,0,1,311.68,707.26Z"/><path class="cls-2" d="M391.64,638.36l-2.58-1.49a1.19,1.19,0,0,1-.52-1.46,25.65,25.65,0,0,1,4.08-7.08,2.22,2.22,0,0,0,.47-1.57,4.11,4.11,0,0,0-2-3l-2.27-1.32-.74-.42-.22-.1-.31-.08h-.29l-.29.06-.24.11-.1.06a11.24,11.24,0,0,1-17.37-10v-.11l0-.27-.1-.27-.15-.26-.22-.23-.2-.14-.74-.42-17.68-10.21a4.33,4.33,0,0,0-3.32-.43,18.48,18.48,0,0,0-11.13,8.58l-9.74,16.87A18.5,18.5,0,0,0,324.07,639a4.38,4.38,0,0,0,2,2.67l40.95,23.64a4.14,4.14,0,0,0,3.64.22,2.19,2.19,0,0,0,1.12-1.18,25.94,25.94,0,0,1,4.09-7.08,1.18,1.18,0,0,1,1.52-.28l2.59,1.49h0l.38.22a1.09,1.09,0,0,0,1.49-.4l1.46-2.54L391,642.62l1.46-2.54a1.09,1.09,0,0,0-.4-1.49l-.38-.22Zm-61.77-2.77a1.91,1.91,0,0,1-2.6.7l-.65-.38a1.9,1.9,0,0,1,1.9-3.3l.66.38A1.9,1.9,0,0,1,329.87,635.59Zm12.9-31.47a1.9,1.9,0,0,1,2.6-.69l.66.38a1.9,1.9,0,1,1-1.91,3.29l-.66-.38A1.9,1.9,0,0,1,342.77,604.12Zm-5,7.93a2.61,2.61,0,0,1,5.22,0h0a2.61,2.61,0,1,1-5.22,0Zm21.28,40.39a1.91,1.91,0,0,1-2.6.7l-.66-.39a1.9,1.9,0,1,1,1.9-3.29l.66.38A1.91,1.91,0,0,1,359.06,652.44Zm2.82-17.84a12.28,12.28,0,0,1-16.78,4.51l-.66-.38a12.29,12.29,0,0,1,12.29-21.28l.65.38A12.29,12.29,0,0,1,361.88,634.6Zm2.32-1.53a4.46,4.46,0,1,1,4.46,4.45A4.46,4.46,0,0,1,364.2,633.07ZM369,661.68a2.61,2.61,0,1,1,2.61-2.6A2.6,2.6,0,0,1,369,661.68Zm2.9-7.53a2.06,2.06,0,1,1,2.06-2.06A2.05,2.05,0,0,1,371.93,654.15Zm14.71-23.67a1.91,1.91,0,1,1,1.9-1.91A1.91,1.91,0,0,1,386.64,630.48Z"/><path class="cls-2" d="M395.81,748.56l-40.18-23.2a3.26,3.26,0,0,0-2.84-.2A9.15,9.15,0,0,0,350,727l-3.18,3-.4.37L344.62,732l-.71.68-.68.71-.66.73-.62.75-.59.76-.56.78-.52.79-.48.8L325.32,763l-.15.35-.1.37,0,.38,0,.38.12.38.17.35.24.32.29.28.33.23.61.35.14.08,8.68,5a4.33,4.33,0,0,0,2.28.58c.63,0,1.26-.06,1.89-.13a4.74,4.74,0,0,1,2.9.58,24.1,24.1,0,0,0,11,3.1,8.66,8.66,0,0,1,4,1.16l16.29,9.4a4.34,4.34,0,0,0,5.94-1.59l17.4-30.12A4.35,4.35,0,0,0,395.81,748.56Zm-21.37,3.79a1.85,1.85,0,0,1,3.7,0h0a1.85,1.85,0,0,1-3.7,0ZM339,759.17a2.94,2.94,0,0,1-5.87,0h0a2.94,2.94,0,0,1,5.87,0Zm2.8-9.95-2.63-4.56,2.63-4.57H347l2.64,4.57L347,749.22Zm12.7,20.46h-5.28l-2.63-4.56,2.63-4.57h5.28l2.63,4.57Zm4.48-11.9-2.63-4.57,2.63-4.56h5.28l2.63,4.56-2.63,4.57Zm6.81,9.64h0a1.85,1.85,0,1,1,3.69,0h0a1.85,1.85,0,0,1-3.69,0Zm10,9.74a2.18,2.18,0,0,1-3,.8L370,776.33a2.17,2.17,0,0,1-.79-3l13-22.6a2.17,2.17,0,0,1,3-.79L388,751.6a2.17,2.17,0,0,1,.79,3Zm7.78-1.59a1.85,1.85,0,1,1-3.69,0h0a1.85,1.85,0,1,1,3.69,0Zm8.7-15.06a1.85,1.85,0,1,1-3.69,0h0a1.85,1.85,0,1,1,3.69,0Z"/><path class="cls-1" d="M389.69,676.39l-4.26-1.55a5.12,5.12,0,0,0-6.55,3.06,5.2,5.2,0,0,0-.31,1.75v.82a3.61,3.61,0,0,1-.95,2.44,4.33,4.33,0,0,0-1.17,3V690l.49.49h.84a1.63,1.63,0,0,1,.83,3.15,1.67,1.67,0,0,1-.83,0h-.84l-.49.49v6.75a3.49,3.49,0,0,0,1.51,2.86l3.37,2.33a5.43,5.43,0,0,1,2.35,4.48v13.23a1.09,1.09,0,0,0,1.09,1.09h0a44.93,44.93,0,0,0,5.3-.45V677Zm-6,5a1.74,1.74,0,0,1-1.74-1.74h0a1.74,1.74,0,1,1,1.74,1.75Z"/><path class="cls-2" d="M444.26,688.79H422.52l-.37,0-.37,0-.37-.08-.37-.11-.35-.08-1-.17-.1-.28-.15-.27-.19-.24-.22-.22-.37-.35-.37-.39-.17-.23L418,686l-.15-.31-.13-.35-.11-.38-.08-.41,0-.41,0-.43v-3.52l0-.42,0-.42.08-.41.11-.38.13-.35.15-.31.17-.27.17-.23.37-.39.37-.35.22-.22.18-.24.16-.27.1-.28,1-.16.35-.09.16-.05.34-.08.4-.06.46,0h1.9l1.59,0h17.28a2.16,2.16,0,0,0,2.16-2.16v-9.24a2.16,2.16,0,0,0-2.16-2.15h-33.8a3.28,3.28,0,0,0-1.8.54L403.32,665a3.23,3.23,0,0,0-1.44,2.69v36.73a3.24,3.24,0,0,0,1.44,2.7l4.25,2.84a3.28,3.28,0,0,0,1.8.54h33.8a2.16,2.16,0,0,0,2.16-2.16V689.87A1.08,1.08,0,0,0,444.26,688.79ZM432.57,668.4a1.9,1.9,0,1,1,3.8,0h0a1.9,1.9,0,1,1-3.8,0Zm3.68,36.15a1.9,1.9,0,0,1-3.8,0h0a1.9,1.9,0,1,1,3.8,0Z"/><path class="cls-2" d="M497.29,662.08h-37a3.26,3.26,0,0,0-3.26,3.26v23.92a2.18,2.18,0,0,0,2.18,2.17h19.49a5.43,5.43,0,0,0,3.84-1.59l17-17a3.26,3.26,0,0,0,1-2.3v-5.18A3.26,3.26,0,0,0,497.29,662.08Zm-7.55,16L483.85,684a1.09,1.09,0,0,1-1.53,0,1.07,1.07,0,0,1-.32-.77V677.3a1.08,1.08,0,0,1,1.09-1.08H489a1.08,1.08,0,0,1,1.09,1.08A1.1,1.1,0,0,1,489.74,678.07Z"/><path class="cls-2" d="M475.72,750.27l-26.36-15.22a3.27,3.27,0,0,0-4.46,1.19L436,751.75a1.09,1.09,0,0,1-1.49.4l-11.29-6.52a5.44,5.44,0,0,0-7.43,2L369.16,828.3a5.43,5.43,0,0,0,2,7.42l13.18,7.61a3.27,3.27,0,0,0,4.46-1.19l5.13-8.9a5.44,5.44,0,0,1,3.31-2.53l26.14-7a10.91,10.91,0,0,0,6.6-5.06l14.33-24.82a21.72,21.72,0,0,1,10.2-9.09,3.8,3.8,0,0,0,1.81-1.6,25.14,25.14,0,0,1,8.8-8.8,3.25,3.25,0,0,0,1.16-1.17l10.64-18.44A3.25,3.25,0,0,0,475.72,750.27ZM386,830.35a2.94,2.94,0,1,1-2.94-2.94,2.94,2.94,0,0,1,2.94,2.94Zm5.76-12.13a2.94,2.94,0,1,1,2.93-2.94A2.94,2.94,0,0,1,391.74,818.22ZM418,755a2.94,2.94,0,0,1,5.87,0h0a2.94,2.94,0,1,1-5.87,0ZM412.9,767a1.9,1.9,0,1,1-1.9,1.9A1.9,1.9,0,0,1,412.9,767Zm-12.1,25.84a2.94,2.94,0,1,1,2.93-2.93A2.94,2.94,0,0,1,400.8,792.79Zm24.43,24a1.9,1.9,0,1,1,1.91-1.9A1.9,1.9,0,0,1,425.23,816.78Zm5.59-20.65a12.5,12.5,0,0,1-24.15-2.65,2.11,2.11,0,0,1,.15-1.11,6.52,6.52,0,0,0,.4-3.65,2.13,2.13,0,0,1,.1-1.12,12.5,12.5,0,0,1,23.5,8.53ZM444,785.7a1.91,1.91,0,0,1-3.81,0h0a1.91,1.91,0,1,1,3.81,0Zm8.52-38a2.94,2.94,0,0,1-5.87,0h0a2.94,2.94,0,0,1,5.87,0Zm15.06,8.7a2.94,2.94,0,1,1-5.87,0h0a2.94,2.94,0,1,1,5.87,0Z"/><path class="cls-2" d="M516.37,750.4l-2.12-3.66a1.08,1.08,0,0,0-1.46-.37l-.27.16-.17.06h-.18l-.09,0-.08,0-.07-.06-.05-.06.71-.42.34-.19a1.09,1.09,0,0,0,.4-1.49L500.5,722.1a1.09,1.09,0,0,0-1.49-.4l-.33.19-.72.42h0l0-.08V722l0-.09.09-.16.14-.11.27-.16a1.09,1.09,0,0,0,.42-1.45l-2.12-3.66a2.18,2.18,0,0,0-2.94-.75l-15.56,9a5.39,5.39,0,0,0-2.53,3.3l-1.22,4.56a5.44,5.44,0,0,0,.54,4.12l13,22.46a5.42,5.42,0,0,0,3.3,2.53l4.56,1.23a5.44,5.44,0,0,0,4.12-.55l15.56-9A2.17,2.17,0,0,0,516.37,750.4ZM509.55,748l0,.09-.1.16-.14.11-5.82,3.37a2.18,2.18,0,0,1-3-.8l-5.18-9a4,4,0,0,1-1.82-3.15l-5.17-9a2.16,2.16,0,0,1,.79-3l5.82-3.36.18-.06h.18l.08,0,.09,0,.07.05,0,.08h0l-.77.44-5.14,3a2.17,2.17,0,0,0-1,2.6l5.26,9.11.25-.15a3.26,3.26,0,1,1,3.26,3.26,3.31,3.31,0,0,1-1.63-.43l-.25.14,5.26,9.11a2.17,2.17,0,0,0,2.73.46l5.14-3,.76-.44,0,.08,0,.09Z"/><path class="cls-1" d="M543,639a14.13,14.13,0,1,1,14.14,14.14A14.12,14.12,0,0,1,543,639v0Zm17-4.76,4.47,8.88,1.92-3.32L561.91,631Zm-8.36-2.58,9,18,1.92-3.32-9.05-18Zm.69,15.43,1.92-3.33-4.46-8.89-1.92,3.33Z"/><path class="cls-2" d="M626.42,686.65l0-.18-.07-.17-1.9-3.43-1.9-3.4-1-1.74-1-1.77-2-3.52-.28-.49-.3-.48-.32-.46-.34-.45-.35-.44-.36-.43-.39-.41-.4-.4-.29-.26-.31-.22-.34-.19-.35-.15-.43-.15-.44-.12-.44-.09-.45-.06-.46,0-.47,0h-.47l-.48,0-.47.06-.48.09-.47.12L609,668l-.46.16-.45.19-.44.2-.43.24L603.42,671a2.18,2.18,0,0,1-3-.8l-8.69-15.06A3.27,3.27,0,0,0,587.3,654L560,669.75a3.25,3.25,0,0,0-1.19,4.45L573,698.78a10.91,10.91,0,0,0,4.82,4.42l2.91,1.35a4.33,4.33,0,0,1,1.92,1.77l1.33,2.3a4.35,4.35,0,0,0,5.94,1.59l4-2.32a1.08,1.08,0,0,0,.39-1.49l-3.26-5.64a1.09,1.09,0,0,1,.4-1.49L616,685.14l1.48.4,2.38,4.11.13.19.16.17.18.14.21.1.22.06.23,0,.23,0,.21-.09,4.54-2.62.16-.11.13-.13.1-.16.07-.17,0-.18Zm-54.86-8.09a2.94,2.94,0,1,1,2.93-2.93A2.93,2.93,0,0,1,571.56,678.56Zm15.06-8.69a2.94,2.94,0,1,1,2.93-2.94A2.94,2.94,0,0,1,586.62,669.87Zm20.21,12.51-9.41,5.43a2.82,2.82,0,1,1-2.83-4.89l9.42-5.44a2.83,2.83,0,0,1,2.82,4.9Z"/><path class="cls-2" d="M677.8,670.84l-4.63-8-8.26-14.3a4.35,4.35,0,0,0-5.94-1.6l-20.71,12a4.35,4.35,0,0,0-1.6,5.94l8.27,14.31,4.62,8a4.35,4.35,0,0,0,4.48,2.12,4.26,4.26,0,0,0,1.46-.52l20.71-12a4.13,4.13,0,0,0,1.19-1A4.35,4.35,0,0,0,677.8,670.84Zm-14.24,2.32a3.26,3.26,0,0,1-6.52,0h0a3.26,3.26,0,0,1,6.52,0Z"/><path class="cls-1" d="M734.84,632a.75.75,0,0,1-.07-.12L724,613a16.09,16.09,0,0,0-22-6l-.67.41-11.16,7.11a10.86,10.86,0,0,0-4.77,6.82l-3.6,16.22,0,.23,0,.23.08.23.12.21a1.15,1.15,0,0,0,.63.4l9.55,2.12-4.81,21.69-.09.38,10.3,2.28,32.85-18.17A11.14,11.14,0,0,0,734.84,632Zm-9.46-5.85a1.9,1.9,0,1,1-1.9,1.9A1.9,1.9,0,0,1,725.38,626.18Zm-33-1.39a1.9,1.9,0,1,1,1.9-1.9A1.91,1.91,0,0,1,692.38,624.79Zm3.9,33.12a1.9,1.9,0,1,1,1.9-1.9A1.91,1.91,0,0,1,696.28,657.91ZM710,633.83A12.83,12.83,0,1,1,722.85,621,12.83,12.83,0,0,1,710,633.83Zm16.65,8.62-5.14-1.14-1.59-5,3.56-3.89,5.15,1.14,1.58,5Z"/><path class="cls-2" d="M604,580.27h0l-20.71-12a1.08,1.08,0,0,0-1.48.4l-22.33,38.66-1,1.76-1.39,2.41a1.09,1.09,0,0,0,.39,1.49l20.71,12a1.09,1.09,0,0,0,1.49-.4l1.4-2.42,1-1.75,22.32-38.67A1.08,1.08,0,0,0,604,580.27Zm-13.69,17.2-7.56,13.08a3.26,3.26,0,0,1-4.45,1.2l-9.42-5.44a3.25,3.25,0,0,1-1.19-4.45l7.55-13.09a3.27,3.27,0,0,1,4.46-1.19l9.41,5.43A3.27,3.27,0,0,1,590.31,597.47ZM592,579a1.85,1.85,0,1,1,1.84-1.85A1.85,1.85,0,0,1,592,579Z"/><path class="cls-2" d="M627.64,536.17l-1.22-4.56a5.44,5.44,0,0,0-2.54-3.3l-15.56-9a2.17,2.17,0,0,0-2.94.75l-2.11,3.66a1.08,1.08,0,0,0,.42,1.45l.26.16.15.11.09.16,0,.09v.09l0,.09,0,.08-.71-.42-.34-.19a1.09,1.09,0,0,0-1.49.4L588.81,548a1.09,1.09,0,0,0,.39,1.49l.34.19.72.42h0l0,.07-.07.06-.08,0-.09,0h-.18l-.17-.06-.27-.16a1.09,1.09,0,0,0-1.47.37l-2.11,3.66a2.18,2.18,0,0,0,.82,2.92l15.56,9a5.47,5.47,0,0,0,4.13.55l4.56-1.23a5.42,5.42,0,0,0,3.3-2.53l13-22.46A5.4,5.4,0,0,0,627.64,536.17Zm-13.84-2.64-5.18,9a4,4,0,0,1-1.82,3.15l-5.17,9a2.18,2.18,0,0,1-3,.8l-5.83-3.37-.14-.11-.09-.16,0-.09v-.18l0-.08h0l.77.44,5.13,3a2.18,2.18,0,0,0,2.74-.46l5.26-9.11-.25-.15a3.26,3.26,0,1,1,1.19-4.45,3.35,3.35,0,0,1,.44,1.63l.25.15,5.26-9.11a2.18,2.18,0,0,0-1-2.6l-5.14-3-.76-.44.05-.07.07,0,.08,0,.09,0H607l.17.06,5.83,3.36A2.17,2.17,0,0,1,613.8,533.53Z"/><path class="cls-2" d="M654.25,554.68l-1.67-6.22a4.78,4.78,0,0,0-2.23-2.9l-6.6-3.81a3.92,3.92,0,0,0-5.35,1.43L623.73,568.6a3.91,3.91,0,0,0,1.43,5.34l6.6,3.82a4.8,4.8,0,0,0,3.63.47l6.22-1.66a4.8,4.8,0,0,0,2.91-2.23l9.25-16A4.84,4.84,0,0,0,654.25,554.68Zm-10.89,6.44a3.26,3.26,0,0,1-6.52,0v0a3.26,3.26,0,1,1,6.52,0Z"/><path class="cls-2" d="M682.92,576.35h-1.21v-.09l0-.09,0-.07.06-.07.16-.09.18,0h.31a1.08,1.08,0,0,0,1.09-1v-4.23a2.17,2.17,0,0,0-2.17-2.12h-18a5.43,5.43,0,0,0-3.84,1.59l-3.34,3.34a5.43,5.43,0,0,0-1.59,3.84v25.94a5.43,5.43,0,0,0,1.59,3.84l3.34,3.34a5.43,5.43,0,0,0,3.84,1.59h18a2.17,2.17,0,0,0,2.17-2.12v-4.22a1.08,1.08,0,0,0-1.09-1h-.31l-.18,0-.16-.09-.06-.06,0-.08,0-.08v-.09h1.21A1.08,1.08,0,0,0,684,603.1V577.44A1.09,1.09,0,0,0,682.92,576.35Zm-4,27.92,0,.08,0,.08-.06.06-.16.09-.18,0h-6.73a2.17,2.17,0,0,1-2.17-2.17V592.08a4,4,0,0,1,0-3.64V578.09a2.18,2.18,0,0,1,2.17-2.18h6.73l.18,0,.16.09.06.07,0,.07,0,.09,0,.09h-6.82a2.19,2.19,0,0,0-2.14,1.77v10.52h.29a3.25,3.25,0,1,1,0,3.26H670v10.52a2.18,2.18,0,0,0,2.14,1.76H679Z"/><path class="cls-2" d="M655.23,496.88l-7.59-28.35a3.92,3.92,0,0,0-4.8-2.76l-7.36,2a4.78,4.78,0,0,0-2.9,2.23l-14.75,25.54a4.76,4.76,0,0,0-.48,3.63l2,7.37a3.92,3.92,0,0,0,4.8,2.76l28.35-7.59A3.91,3.91,0,0,0,655.23,496.88Zm-25.3.92a3.27,3.27,0,0,1-6.53,0v0a3.27,3.27,0,0,1,6.53,0Zm12.3-21.3a3.27,3.27,0,0,1-6.53,0h0a3.27,3.27,0,0,1,6.53,0Z"/><path class="cls-1" d="M737.48,565.64h-4.67v17.61a1.09,1.09,0,0,1-1.09,1.09H700.85a1.09,1.09,0,0,1-1.09-1.09V565.64h-4.67a3.26,3.26,0,0,0-3.26,3.27V586.3a6.52,6.52,0,0,0,6.52,6.52h35.87a6.52,6.52,0,0,0,6.52-6.52V568.91A3.26,3.26,0,0,0,737.48,565.64Zm-21.2,24.74a1.91,1.91,0,1,1,1.91-1.91A1.91,1.91,0,0,1,716.28,590.38Z"/><path class="cls-1" d="M728.48,414.66H672.85a3.26,3.26,0,0,0-3.26,3.26V540.54a3.26,3.26,0,0,0,3.26,3.26h55.63a3.26,3.26,0,0,0,3.26-3.26h0V417.92A3.26,3.26,0,0,0,728.48,414.66Zm-27.87,78.49-12.31-8.09v-5.91l12.31,8.08Zm12.3-2.81L688.3,474.16v-5.91l24.61,16.18Zm0-10.89-12.3-8.09v-5.92l12.3,8.09Z"/><path class="cls-1" d="M740.4,409.41l-.1-.47-.17-.45-.24-.43-.3-.4-.36-.38-.41-.33-.46-.29-.49-.25-.53-.19-.55-.14-.57-.09-.58,0H670.73a23.67,23.67,0,0,0-5.17.57l-.43.11-.42.14-.42.16-.4.19-.39.21-.37.24-.36.26-.34.29-.32.31-.29.34-.26.35-.22.38-.19.4-.14.42-.09.42,0,.44V547.26l0,.4.07.4.12.38.16.37.19.35.23.34.26.33.3.32.33.31.37.29.4.27.41.24.43.21.45.18.46.15.46.12a23.09,23.09,0,0,0,5.17.58h64.91l.58,0,.57-.08.55-.14.53-.2.49-.24.46-.29.41-.34.36-.37.3-.4.24-.44.17-.45.1-.46,0-.47V409.88ZM728.48,546H672.85a5.44,5.44,0,0,1-5.44-5.44V417.92a5.43,5.43,0,0,1,5.44-5.43h55.63a5.44,5.44,0,0,1,5.44,5.43V540.54A5.45,5.45,0,0,1,728.48,546Zm7.07,3.53a1.9,1.9,0,1,1,1.9-1.9A1.91,1.91,0,0,1,735.55,549.51Zm0-136.75a1.91,1.91,0,1,1,1.9-1.9A1.91,1.91,0,0,1,735.55,412.76Z"/><path class="cls-2" d="M589.63,380.8H570.14a5.43,5.43,0,0,0-3.84,1.59l-17,17a3.26,3.26,0,0,0-1,2.3v5.17a3.26,3.26,0,0,0,3.26,3.27h37a3.26,3.26,0,0,0,3.26-3.27V383A2.17,2.17,0,0,0,589.63,380.8Zm-22.75,14.13a1.08,1.08,0,0,1-1.09,1.08h-5.88a1.08,1.08,0,0,1-1.09-1.08,1.06,1.06,0,0,1,.32-.77l5.88-5.89a1.1,1.1,0,0,1,1.54,0,1.12,1.12,0,0,1,.32.77Z"/><path class="cls-2" d="M646.65,373.78H639a4.79,4.79,0,0,0-3.38,1.4L614.79,396a4.77,4.77,0,0,0-1.4,3.38v7.63A3.91,3.91,0,0,0,617.3,411h29.35a3.92,3.92,0,0,0,3.92-3.91V377.7A3.92,3.92,0,0,0,646.65,373.78ZM626,400.54a3.27,3.27,0,0,1-6.53,0h0a3.27,3.27,0,0,1,6.53,0Zm17.39-17.4a3.26,3.26,0,1,1-6.52,0h0a3.26,3.26,0,1,1,6.52,0Z"/><path class="cls-1" d="M671.49,355.83a14.14,14.14,0,0,1,28.27,0v0a14.14,14.14,0,0,1-28.27,0Zm17-4.77L693,360l1.91-3.32-4.46-8.89Zm-8.36-2.58,9.05,18,1.92-3.32-9.05-18Zm.69,15.43,1.92-3.32-4.47-8.89L676.36,355Z"/><path class="cls-2" d="M739.86,386.53H729.54a8.69,8.69,0,0,1-8.7-8.7V337.61a8.69,8.69,0,0,1,8.7-8.69h10.32a2.72,2.72,0,1,0,0-5.44H686.6a2.72,2.72,0,0,0,0,5.44h10.32a8.69,8.69,0,0,1,8.7,8.69v40.22a8.69,8.69,0,0,1-8.7,8.7H686.6a2.72,2.72,0,0,0,0,5.44h53.27a2.72,2.72,0,1,0,0-5.44Zm-1-60.34a1,1,0,0,1,2.07,0h0a1,1,0,0,1-1,1,1,1,0,0,1-1-1Zm-51.2,0a1,1,0,0,1-2.07,0h0a1,1,0,1,1,2.07,0Zm0,63.05a1,1,0,0,1-2.07,0h0a1,1,0,0,1,2.07,0Zm25.6-60.71a1.3,1.3,0,1,1-1.3,1.3A1.3,1.3,0,0,1,713.23,328.54ZM715.4,380a2.17,2.17,0,1,1-4.34,0V369.52a2.17,2.17,0,1,1,4.34,0Zm-3.47-15.93a1.3,1.3,0,1,1,1.3,1.31A1.3,1.3,0,0,1,711.93,364.08Zm3.47-5.43a2.17,2.17,0,1,1-4.34,0V335.44a2.17,2.17,0,1,1,4.34,0Zm25.5,30.6a1,1,0,0,1-1,1,1,1,0,0,1-1-1h0a1,1,0,0,1,2.07,0Z"/><path class="cls-2" d="M665.76,364.22a1.17,1.17,0,0,0,1.16-1.19,1.21,1.21,0,0,0-.33-.83,6.74,6.74,0,0,1-1.77-4.55V346.8a6.52,6.52,0,0,0-2.31-5,3.65,3.65,0,0,1-1.28-2.79V315.32a3.63,3.63,0,0,1,1.28-2.78,6.55,6.55,0,0,0,2.31-5V296.69a6.7,6.7,0,0,1,1.77-4.55,1.22,1.22,0,0,0,0-1.69,1.12,1.12,0,0,0-.8-.34h-7a.94.94,0,0,0-.93-.95H635.6a.94.94,0,0,0-.92.95h-7a.94.94,0,0,0-.93-.95h-30.6a1,1,0,0,0-.93.95h-7A2.35,2.35,0,0,0,586,292.5v7.08a3.62,3.62,0,0,1-1.74,3.11L575,308.21a7.22,7.22,0,0,0-3.48,6.21v11a7.22,7.22,0,0,0,3.48,6.21l9.28,5.52A3.63,3.63,0,0,1,586,340.3v21.53a2.35,2.35,0,0,0,2.31,2.39H586v2.39A2.35,2.35,0,0,0,588.3,369h76.52a2.36,2.36,0,0,0,2.32-2.39v-2.39Zm-18.33-65.74a2.36,2.36,0,0,1,2.32-2.39h10a2.36,2.36,0,0,1,2.32,2.39v7.73a2.36,2.36,0,0,1-2.32,2.39,2.25,2.25,0,0,1-1.16-.32l-9.39-5.59a3.6,3.6,0,0,1-1.74-3.11Zm-29,0a2.35,2.35,0,0,1,2.32-2.39h20.86a2.36,2.36,0,0,1,2.32,2.39v1.1a3.6,3.6,0,0,1-1.74,3.11l-9.27,5.52a3.39,3.39,0,0,1-3.48,0l-9.27-5.52a3.6,3.6,0,0,1-1.74-3.11Zm-29,0a2.36,2.36,0,0,1,2.32-2.39h20.87a2.36,2.36,0,0,1,2.32,2.39v1.1a3.6,3.6,0,0,1-1.74,3.11L604,308.21a3.39,3.39,0,0,1-3.48,0l-9.28-5.52a3.62,3.62,0,0,1-1.74-3.11ZM586,334.09l-9.28-5.52a3.63,3.63,0,0,1-1.74-3.11v-11a3.61,3.61,0,0,1,1.74-3.1L586,305.8a3.33,3.33,0,0,1,3.47,0l9.28,5.52a3.61,3.61,0,0,1,1.74,3.1v11a3.63,3.63,0,0,1-1.74,3.11l-9.28,5.52A3.38,3.38,0,0,1,586,334.09Zm29,17.25a3.61,3.61,0,0,1-1.74,3.11L604,360a3.39,3.39,0,0,1-3.48,0l-9.28-5.52a3.63,3.63,0,0,1-1.74-3.11v-11a3.63,3.63,0,0,1,1.74-3.11l9.28-5.52a3.39,3.39,0,0,1,3.48,0l9.27,5.52A3.61,3.61,0,0,1,615,340.3Zm0-17.25-9.28-5.52a3.62,3.62,0,0,1-1.73-3.11v-11a3.6,3.6,0,0,1,1.73-3.1L615,305.8a3.35,3.35,0,0,1,3.48,0l9.27,5.52a3.59,3.59,0,0,1,1.74,3.1v11a3.61,3.61,0,0,1-1.74,3.11l-9.27,5.52A3.39,3.39,0,0,1,615,334.09Zm29,17.25a3.61,3.61,0,0,1-1.74,3.11L632.94,360a3.39,3.39,0,0,1-3.48,0l-9.27-5.52a3.61,3.61,0,0,1-1.74-3.11v-11a3.61,3.61,0,0,1,1.74-3.11l9.27-5.52a3.39,3.39,0,0,1,3.48,0l9.27,5.52A3.61,3.61,0,0,1,644,340.3Zm0-17.25-9.27-5.52a3.61,3.61,0,0,1-1.74-3.11v-11a3.59,3.59,0,0,1,1.74-3.1L644,305.8a3.35,3.35,0,0,1,3.48,0l9.27,5.52a3.59,3.59,0,0,1,1.74,3.1v11a3.61,3.61,0,0,1-1.74,3.11l-9.27,5.52A3.39,3.39,0,0,1,644,334.09ZM662,358a2.36,2.36,0,0,1-2.32,2.39,2.25,2.25,0,0,1-1.16-.32l-9.39-5.59a3.61,3.61,0,0,1-1.74-3.11v-11a3.61,3.61,0,0,1,1.74-3.11l5.8-3.45a2.28,2.28,0,0,1,3.16.88,2.35,2.35,0,0,1,.31,1.19V339a6.52,6.52,0,0,0,2.31,5A3.6,3.6,0,0,1,662,346.8Z"/><path class="cls-2" d="M11.87,377.6q0,13.62,0,27.26c0,2,.32,4.18-2.89,4.17-3,0-4.35-1.2-4.46-4.27-.25-6.62-.55-13.24-1.12-19.84-1-11.12-2.16-22.21-3.22-33.32a17.33,17.33,0,0,1-.08-1.91c0-21.45-.26-42.91.09-64.37.18-10.82,1.38-21.63,2.09-32.45.42-6.43.75-12.86,1.16-19.28.35-5.51.69-11,1.16-16.5.23-2.79,2.46-4.92,4.57-4.55,2.7.48,2.71,2.62,2.71,4.72q0,27.09,0,54.18a13,13,0,0,0,.19,2.33c.57,3.16,2,4.23,5.57,4.31,2.78.07,5.57-.06,8.35.06,1.23.05,2.94.1,3.59.87,2.43,2.91,5.6,2.41,8.71,2.42,4.45,0,8.91,0,13.36,0,3.16.05,6.1,0,8.9-2.11,1.44-1.07,3.81-.92,5.77-1.23,3.56-.56,7.4,1.19,10.8-1.35.27-.21,2.42,1,2.49,1.74,1,10,2.49,20.07.55,30.15a16.77,16.77,0,0,0-.28,3.53c.33,6,.93,12,1,18,0,4.39-.71,8.78-1.07,13.17-.17,2.08-1.56,2.62-3.07,1.88C72,343,67,343.36,62,343.3a4,4,0,0,1-2.17-.33c-7.38-5.5-15.81-2.08-23.73-2.87a1.18,1.18,0,0,0-.85.25c-5.12,4-11.32,2.4-17.07,3.24-5.23.76-6.32,2.48-6.33,7.85C11.85,360.16,11.87,368.88,11.87,377.6Zm16.83-78-.19,0c-2.63,0-5.42,0-6.74,1.32a21,21,0,0,0-5.46,8.05,8,8,0,0,0,1.48,7.65c1.13,2,5.52,6.71,11.09,6.18,5.41-.52,12.12-6.63,11.07-11.82-.72-3.57-2.89-7.08-5.21-10C33.74,299.67,30.82,300,28.7,299.56Zm22.49,37h.22c2.69,0,5.9-.69,7.49-2.29,2.47-2.47,5.42-6.26,5.15-9.21-.35-3.79-3.37-7.55-5.89-10.81-.87-1.13-3.7-1-5.64-1-6.69-.12-13.21,5.17-12.57,11.09.39,3.54,2.56,7.19,4.8,10.12C45.74,335.79,48.59,336.18,51.19,336.6Zm-.42-28.05c3.28.22,6.63.16,7.85-1.16,2.52-2.74,5.39-6.46,5.43-9.8s-2.84-7-5.21-9.88c-1-1.22-4-1.17-6-1.08-2.82.11-6.46-.13-8.21,1.47-2.38,2.17-4.45,5.91-4.51,9s2,6.74,4.16,9.19C45.74,308,49.09,308.55,50.77,308.55ZM22.08,339.62h.17c2.31-.29,5,0,6.8-1.09,2.23-1.42,4.11-2.83,6.92-2.66.6,0,1.78-1.22,1.83-1.94.17-2.47-3.25-6-5.75-6.15-1.84-.1-3.71.19-5.52-.07-4.32-.64-6.57,1.48-8.39,5.13C14.87,339.39,14.7,339.34,22.08,339.62Zm1.13-56.43a8.31,8.31,0,0,0-2.18,0l-2.49.21a1.8,1.8,0,0,0-1.5,2.51c.64,1.48,1.25,3,1.86,4.49,1.58,3.92,4.54,5,8.44,4.46,1.28-.16,2.6,0,3.89,0,2.88-.1,6.71-4,6.57-6.69,0-.46-.38-1.19-.73-1.3A133.51,133.51,0,0,0,23.21,283.19Zm49.21,28.19h0c0-3.13.13-6.27,0-9.39a2,2,0,0,0-3.44-1.5c-.13.11-.17.32-.26.47-1.81,3.16-3.83,6.23-5.35,9.52-.87,1.9,4.78,11.26,7,11.8a2.6,2.6,0,0,0,2-1.52C72.53,317.65,72.42,314.51,72.42,311.38Zm0,22.38a11.91,11.91,0,0,0,0-2.74,11.73,11.73,0,0,0-.8-2.08,1.2,1.2,0,0,0-1.58-.59,6.6,6.6,0,0,0-2.38,1.46,19.93,19.93,0,0,0-2.3,4.31c-.47,1-.92,1.92-1.38,2.89a1.21,1.21,0,0,0,.82,1.69,17.41,17.41,0,0,0,3.62.59C72.45,339.33,72.45,339.23,72.46,333.76Zm.42-44.17,0-.42c0-.36.18-1.2,0-1.24.05-1.38,1.05-3.44-.48-4.06-.92-.37-.7-.81-2.59-.64-.91.08-1.77.17-2.6.29a3,3,0,0,0-2.31,4c.26.62.49,1,.88,1.79.24.5.22.5.7,1.47s1.79,4.86,4.58,3.66C72.21,294,72.37,291.37,72.88,289.59Z"/><path d="M404.91,125.51c4.13-.12,6,2.2,5,6.28-2.35,9.9-2.41,10,6,15.21,4.2,2.61,8.67,4.77,12.94,7.28,3.45,2,6.29,1.18,8.94-1.39,1.07-1,2.08-2.13,3.17-3.12,3-2.77,4.88-2.58,7.14.8,2.52,3.77,3.46,7.6.34,11.61a16.79,16.79,0,0,0-2.18,3.82c-.91,2.15-2.16,3.17-4.65,3.91s-4.88,3.17-6.52,5.43a90.82,90.82,0,0,0-7.61,12.72c-1.31,2.65-1.51,5.82-2.53,8.65a25.33,25.33,0,0,1-3.6,7.36c-.68.85-3.41.82-4.8.23a78.71,78.71,0,0,1-9.67-5.16c-2.11-1.26-3.45-1.55-4.65,1.22-1.09,2.5-3.24,2.41-5.45,1-3.4-2.15-6.85-4.23-10.32-6.28-1.94-1.14-2.56-2.42-1.16-4.48s1.42-3.56-1.35-4.61c-2-.77-3.75-2.29-5.69-3.31-7.18-3.77-7.92-8.69-1.2-13.16,3.18-2.12,4.8-4.71,6.45-7.76,2.09-3.86,4.37-7.63,6.75-11.31a12.36,12.36,0,0,0,1.71-9C390.82,134.45,397.88,125.71,404.91,125.51Zm2.65,65.68c11.35,1.48,20.72-9.59,20.31-20.25-.48-12.16-8.91-20.33-20.3-20.12s-19.7,8-20.29,20.41C386.76,182.07,396.61,192.34,407.56,191.19Z"/><path d="M638.8,695.42c-.51.46-.9,1-1.18,1.19-9.5,6.55-19.06,13-28.4,19.8-18.59,13.48-38.57,24.67-58.55,35.82q-22.81,12.72-46.1,24.59C494.46,782,484,786.47,473.71,791.3c-2.14,1-3.94,1.9-5.39-1.12s.48-3.86,2.48-5q23.29-13.47,46.56-27c4-2.37,4.79-4.84,2.72-9.16-.87-1.81-2.27-3.37-3.07-5.2-1-2.37-3.3-4.44-1.64-7.62.5-1-.28-2.88-1-4.1-2.65-4.82-5.32-9.63-8.32-14.23-1.3-2-2.3-4.35-5.42-5.07-1.71-.39-3-3-4.3-4.76-2.17-2.89-4-6-6.38-8.75-1.91-2.23-.5-3.51,1-4.54,4.91-3.41,9.83-6.82,15-9.85,3.41-2,7.3-3.19,10.81-5.06,1.85-1,3.19-2.91,5-4,5.85-3.4,11.8-6.63,17.75-9.87,1.11-.6,2.4-.87,3.56-1.41,4.4-2,4.29-2,5.61,2.46a24.32,24.32,0,0,0,2.33,4.34c2.08,3.85,4.68,7.48,4.3,12.26a7.21,7.21,0,0,0,1.06,3.63c2.41,4.54,4.79,9.1,7.48,13.47a15.62,15.62,0,0,0,6.12,5.9c2.87,1.54,4.52,5.53,6.41,8.63,3.18,5.18,5.25,5.69,10.52,2.65,13.8-8,27.67-15.82,41.51-23.73a62.63,62.63,0,0,1,5.69-3.3,3.79,3.79,0,0,1,5.12,2.75c0,.12-.13.76-.08.87Zm-95.34,13.24a3,3,0,0,0,1.22,0c2.15-.51,4.91-.63,6.12-2.06,2.38-2.82,5.06-6.61,5-10s-2.87-7.08-5.35-9.88c-1.18-1.33-4.39-1.23-6.66-1.16s-5.73.1-7,1.58c-2.42,2.77-5.07,6.59-5,9.93s2.88,7.07,5.33,9.89C538.22,708.28,541,708.2,543.46,708.66ZM519.31,722a3.07,3.07,0,0,0,1.17,0c2.52-.49,5.44-.43,6.69-1.84a19.5,19.5,0,0,0,4.88-9.57c.71-5.2-6.63-11.92-12-11.67-2.46.11-5.74.39-7.12,1.94-2.45,2.77-5.08,6.56-5.12,10,0,3.13,2.79,6.71,5.21,9.27C514.3,721.49,517,721.52,519.31,722Zm25.54-9.11a3,3,0,0,0-1.26,0c-2.61.52-5.41.48-6.8,1.87-2.51,2.48-5.54,6.1-5.43,9.13.12,3.58,2.88,7.46,5.44,10.38,1.33,1.52,4.69,1.65,7.14,1.69,2.26,0,5.4-.13,6.63-1.54,2.45-2.79,5.16-6.45,5.29-9.85.12-3.17-2.48-6.88-4.81-9.55C549.8,713.57,547.06,713.44,544.85,712.9Zm-22.48,13.72a3,3,0,0,1-.59.07c-4.81,0-4.83.18-3.16,4.55.39,1,1.06,2.13.89,3.07-.89,4.89,2.35,8.26,4.15,12.17,1,2.16,2.13,2.19,3.76.74a11.23,11.23,0,0,0,2.65-14.05,19.64,19.64,0,0,0-1.51-2.92C526.92,728,525.08,726.08,522.37,726.62Zm44.27-4.78c-1.12-.1.69.23,2.11.23a6.37,6.37,0,0,0,2.87-.66c.8-.26,1.92-2.1,1.67-2.56-1.56-2.87-3-6.05-5.39-8.14s-5.13-4.76-7-5.53a5,5,0,0,0-2.5-.49c-2.58,1.84-3.61,4.43-2.78,6.72a21.91,21.91,0,0,0,5.32,9.38C562,722,564.49,721.54,566.64,721.84Zm-46.84-27c5.63.06,11.84-5.68,12.47-11.48.28-2.48-.92-3.39-3.35-2.09-4.67,2.5-9.21,5.24-13.74,8l-.22.14a2.77,2.77,0,0,0,.18,4.67,11.64,11.64,0,0,0,1.36.7C517.44,695.13,518.69,694.8,519.8,694.8Zm-11.43,3.58a2.5,2.5,0,0,0,.39-1.62c-.24-1.87-1.77-2.66-3.61-1.82a31.89,31.89,0,0,0-6.06,3.65c-.74.56-1.53,2.21-1.22,2.81a36.1,36.1,0,0,0,3.95,5.57c.13.16,1.23-.08,1.44-.42C505.08,703.76,506.81,700.92,508.37,698.38Zm34.45-18.12a3.85,3.85,0,0,0,.68.1,30.71,30.71,0,0,0,4.58-.07,3.43,3.43,0,0,0,1.81-1.37c-1-2.12-2-4.42-3.55-6.06-.57-.59-3.09.08-4.27.85-2,1.3-6.06,1.22-5.47,4.48C537.27,682,540.83,679.85,542.82,680.26Z"/><path d="M412.52,74.07a6.48,6.48,0,0,1,5.85,2.63,57.65,57.65,0,0,1,9.13,15.83c3.35,8.18,5.2,17,7.54,25.56.95,3.5-3.55,5.24-8.25,6-4,.63-6.72,1.43-9.64,1.9-4.48,1-4.32-.22-4.84-1.69-1.17-3.39-.58-7.89-3.54-10.05s-6.94.23-10.51.25c-5.2,0-10.18-1.33-15.35-1.44-4.56-.11-8.42-6.69-6.88-11.11,2.73-7.79,7.74-14.39,11.67-21.56A6.73,6.73,0,0,1,393,76.77,68.68,68.68,0,0,0,412.52,74.07Zm2.93,10.73C415.36,82,414,80,411.64,80c-2.18,0-4.9.76-5.13,3.84a4.17,4.17,0,0,0,4.1,4.83C413.47,89,414.83,87.1,415.45,84.8Zm-9.64,22.08a4.77,4.77,0,0,0-.58-5,4.17,4.17,0,0,0-3.87-1.86c-2.7.23-3.92,2.31-3.82,5.09.13,3.35,2.57,3.64,5,3.63A3.52,3.52,0,0,0,405.81,106.88ZM396.53,82c-3.38,0-5.45,1.34-5.48,4,0,2.37,1.88,3.63,4.41,3.9,2.93.32,4.09-1.48,4.19-3.74S398.9,81.81,396.53,82Zm-11.1,25.65c2.76.1,4.13-1.48,4.2-3.68.07-2.41-1.62-4-4.18-4.07s-4.39,1.43-4.43,3.83S382.49,107.76,385.43,107.64Zm35-7.49c-.4-1.6-.82-2.8-2.64-2.46-1.42.27-2.54,1.11-2.21,2.55a2.45,2.45,0,0,0,3,1.8C419.8,101.85,420.52,101.24,420.47,100.15Zm3.82,16.45c0-1.12-.08-2.22-1.63-2.2s-2.56.73-2.58,2.15,1.1,2.13,2.52,2.2S424.28,117.75,424.29,116.6Z"/><path d="M619.22,639.68c-3.52,2-5.36,3.59-.29,6.05-4.33-.88-8,.22-11.83-.93-4.28-1.29-6.11-3.9-6.16-7.94A29.58,29.58,0,0,0,598,624.17c-2.25-4.68-1.2-8.53,2.45-12.29,4.2-4.33,7.61-9.42,11.79-13.77,6-6.29,12.91-5.19,16.74,2.75,2.85,5.89,5.62,12,7.18,18.28,1.15,4.64,3.43,4.75,6.7,3.68a16.18,16.18,0,0,1,5.45-.58c3.12,0,4.78,1.71,4.81,4.82a56.15,56.15,0,0,0,1,12c.72,3.18-.37,6-4.26,6.38-7.28.8-14.55,1.6-21.85,2.23C620.52,648.37,620.46,648.24,619.22,639.68Zm-9.38-9.79c-2,1-3.59,2.39-3.49,5.31s1.63,3.71,4.28,3.73c3.23,0,4.34-2.38,4.39-4.59C615.08,631.77,612.83,630.37,609.84,629.89Zm20.64-10.34c-.4-2.53-1.28-4.86-4.06-5s-4.23,1.71-4.42,4.46c-.18,2.55.53,4.17,3.54,4.39S629.76,621.81,630.48,619.55Zm-19.58-.19c-.83-1.12-.27-3.85-3.54-3.92-2.77-.07-5,1-5.21,3.68s1.9,4.09,4.66,4.19C609.13,623.39,610.82,622.76,610.9,619.36Zm13.35-15.49c-.53-1.94-.81-4.11-3.87-4-2.77.06-4.84,1.31-4.89,4,0,2.31,1.78,3.71,4.36,4C622.73,608,623.62,606.31,624.25,603.87Zm22.25,30.5c0-1.14-.15-2.21-1.7-2.12s-2.55.77-2.52,2.2,1.17,2.13,2.6,2.14S646.49,635.5,646.5,634.37Zm-16.8,1a2.08,2.08,0,0,0-2.28-1.89,2.33,2.33,0,0,0-2,2.72c.09,1.52,1.25,1.48,2.34,1.49S629.87,637.39,629.7,635.42Z"/><path class="cls-2" d="M59,465.61c.12-3.83-1.69-4.72-5.09-4.66-9.09.13-18.19.25-27.28,0-4.68-.16-6.27,2.14-6.56,6.17-.12,1.66,0,3.34,0,5,0,11.06,0,11.06-10.85,11.17-6.57.07-8.06,1.54-8.07,8.18q0,22.55,0,45.09c0,15.4.07,30.8,0,46.2,0,4.48,1.77,6.48,6.27,6.3,3.89-.16,7.79,0,11.69,0,6.48,0,6.84,0,6.41-6.48-.45-6.86,1.93-12,6.94-16.58,4.81-4.35,9.16-9.2,13.85-13.69a11.63,11.63,0,0,0,3.87-9.3c-.2-7.61.08-15.22-.1-22.83-.15-6,.54-11.65,3.81-16.83,1.5-2.37.39-3.33-2.14-3.31-3.71,0-7.43-.13-11.13,0-2.79.13-4.11-.67-3.91-3.72.18-2.71-.05-5.36,3.86-5.3s7.79,0,11.69,0c5.15-.05,6.6-1.31,6.73-6.45C59.1,478.23,58.84,471.91,59,465.61ZM43.46,507.45A1.57,1.57,0,1,1,41.89,509,1.56,1.56,0,0,1,43.46,507.45Zm0,25.65a1.57,1.57,0,1,1-1.57,1.57A1.56,1.56,0,0,1,43.46,533.1ZM28.89,470c1.81-.17,2.32.6,2.28,1.89,0,1.07.1,2.26-1.43,2.39A2.33,2.33,0,0,1,27,472.31,2.1,2.1,0,0,1,28.89,470ZM9.16,491.12c1.08-.11,1.72.31,1.82.7.17,1.83-.35,2.45-1.48,2.47a1.42,1.42,0,0,1-1.62-1.69C7.92,491.81,8.22,491.2,9.16,491.12ZM7.28,509a1.57,1.57,0,1,1,1.57,1.56A1.57,1.57,0,0,1,7.28,509Zm2.45,26.47c-1.3,0-1.88-.52-1.86-1.63s.67-1.63,1.78-1.54a1.34,1.34,0,0,1,1.4,1.35C10.76,534.8,10.4,535.31,9.73,535.49Zm4.76,45.19a2,2,0,0,1-2.18-2.13c0-1.44.67-2.56,2.07-2.66a2.08,2.08,0,0,1,2.22,1.94C16.76,579.87,15.68,580.69,14.49,580.68Zm0-17.48c-1.45,0-2.2-1.09-2.23-2.51a2.28,2.28,0,0,1,2.13-2.63c1.46-.06,2.11,1.12,2.26,2.47C16.63,562,16,563.15,14.53,563.2Zm24.41-37c-.35,6.69-5,12.24-12.32,11.67-8.87-.11-11.26-4.81-12-11.83-.68-6.42,5.56-11.7,12.47-11.62C33.58,514.46,39.27,519.88,38.94,526.16Zm6.36-53.53a1.34,1.34,0,1,1,1.34-1.34A1.34,1.34,0,0,1,45.3,472.63Z"/><path d="M409,46.08c-2.59-3.21-4.31-7.25-8.71-8.85-3-1.07-5-3.57-6.63-6.24-4.88-8.15-9.66-16.35-14.5-24.52C375.72.63,371.49-1.44,365,1A102.59,102.59,0,0,0,339,15.9c-5.27,4-5.68,8.94-2.51,14.94,2.3,4.36,5.05,8.48,7.27,12.88,3.24,6.43,9,11.88,8.6,19.8-.25,5,1.63,9.3,3.82,13.55.64,1.24,1.11,3,3.13,2.29,1.63-.58,1.83-2,2-3.58.61-7,1.69-8.11,8.65-9.71,0,0,0,0,.05,0,.71,2.07-.33,4.38,1,6.83a0,0,0,0,0,.06,0L383.36,66a0,0,0,0,0,0-.08c-1.79-1.25-3.65-2.05-3-4.33a2.43,2.43,0,0,1,2.36-2c2.27,0,3.41,1,2.65,3.53-.26.88,1.22,1,1.55.66,3-2.68,7.68-2.95,10.14-7a.05.05,0,0,0,0-.07l-7.6-2.19a0,0,0,0,1,0-.07c4.74-4.06,9.09-7.18,14.91-2.94,1.66,1.22,3.41.75,4.93-.55C411.23,49.27,410.07,47.38,409,46.08ZM338.56,26.56a2.27,2.27,0,0,1-2.63-2.4c0-1.68,1.2-2.52,2.8-2.47a2.43,2.43,0,0,1,2.47,1.67v0A2.76,2.76,0,0,1,338.56,26.56ZM369.13,4.42c.52-1.85,1.84-2.32,2.52-2.21,1.35.22,3,.85,3,2.78a2.78,2.78,0,0,1-3.47,2.66A2.56,2.56,0,0,1,369.13,4.42ZM357.82,69.64A1.64,1.64,0,1,1,359.46,68,1.63,1.63,0,0,1,357.82,69.64Zm22-24.51a20.82,20.82,0,0,1-22,4.8c-8.35-3.27-13.07-9.76-13.23-19.88-.81-3.66,1.58-6.08,4.73-7.95,5-3,10.16-5.74,15.17-8.73a10,10,0,0,1,9.36-.79c3.42,1.26,5.22,5.37,9.53,5,.6,0,2,2,1.94,3.07C384.68,29.08,386.75,37.94,379.81,45.13Zm21.49.19a1.64,1.64,0,1,1,1.63-1.63A1.63,1.63,0,0,1,401.3,45.32Z"/><path class="cls-1" d="M366.58,845.55c-5.54-3.22-11.11-6.35-16.66-9.53-2.64-1.52-4.51-3.29-4.71-6.82-.54-9.46.49-18.9,1.56-28.16,1.23-10.59,2.63-12.54-8-17.71-.49-.24-4-2.07-4.58-2.47-4-2.61-4.24-3.58-7-3.29-3.16.35-3.52,5.49-5.56,8.31-4.14,5.72-3.69,8.23,2.31,11.94,3.07,1.89,3.48,4.14,3.71,7.27.42,5.78-1.2,11.36-1.29,18.27-.65,3.73,1.16,7.25,5.58,9.72q15.79,8.85,31.38,18c2.51,1.46,3.94,1.21,5.55-1.32C370.87,846.61,368.12,846.45,366.58,845.55Zm-27.49-50.31a.87.87,0,0,1,0,1.73.87.87,0,1,1,0-1.73Zm-8.58,20.4a.87.87,0,1,1,.86-.86A.87.87,0,0,1,330.51,815.64Zm.56-14.52a.87.87,0,1,1,.86-.86A.87.87,0,0,1,331.07,801.12Zm-.28-6.53c-1.15.15-3.79-2.19-4.9-3.7-.35-.47.44-1.81,1.87-2.78,1.14-.78,6.19,2.4,6.4,3.82A4.29,4.29,0,0,1,330.79,794.59Zm4,17.9c-1.87,0-1.84-1.56-1.69-2.8.28-2.45.53-5,.66-7.42a1.83,1.83,0,0,1,1.51-1.71c5.92-1,4.5,2,4.5,3.59,0,.72,0,1.46,0,2.19l.15,0c-.17,1.8.1,3.82-.64,5.34C338.48,813.39,336.36,812.51,334.8,812.49Zm6,4a.87.87,0,1,1,.87-.87A.87.87,0,0,1,340.82,816.51Z"/></g></g></g></svg>