<?xml version="1.0" encoding="utf-8"?>
<!-- Generator: Adobe Illustrator 25.4.1, SVG Export Plug-In . SVG Version: 6.00 Build 0)  -->
<svg version="1.1" id="No_Logo_Outline" xmlns="http://www.w3.org/2000/svg" xmlns:xlink="http://www.w3.org/1999/xlink" x="0px"
	 y="0px" viewBox="0 0 710.4 537.6" style="enable-background:new 0 0 710.4 537.6;" xml:space="preserve">
<style type="text/css">
	.st0{fill:#010203;}
	.st1{fill:#D02C3B;}
</style>
<path class="st0" d="M300.6,489.4C246.1,458,191.1,426.3,137,395.1l-1.4-0.8v-253l1.4-0.8c34.1-19.7,69.1-39.8,103.1-59.3
	c37.5-21.5,76.2-43.8,113.8-65.5l1.4-0.8l1.4,0.8c39.3,22.7,79.1,45.5,118.8,68.4c32.8,18.9,65.6,37.8,98.1,56.5l1.4,0.8v252.9
	l-1.4,0.8c-32,18.4-64.8,37.3-96.6,55.6c-39.6,22.8-80.5,46.3-120.3,69.3l-1.4,0.8L300.6,489.4z"/>
<path class="st1" d="M301.6,260c1.3,0.8,3.6,2.2,4-0.3c0.3-1.9-1.4-3.9-1.6-5.7c-0.3-2.1,3.7-8.6,6-8.9c1.7-0.2,5.9,5.1,5.9,6.7
	c0,1.4-2.1,2.6-3,3.5c-1.8,1.9-3.2,4-4.2,6.4c-0.5,1.3-0.6,3.3-1.7,4.3c-1.1,1-5.4,0.7-6-0.8C300.2,263.6,301,261.3,301.6,260
	 M177.4,255.4c-2.5-0.9-6.3-0.2-9-0.2H148l0,0V308v13.1c0,1.1-0.5,3.7,0.6,4.5c1,0.8,3.6,0.3,4.9,0.3c5.2,0,10,0,12.7-5.4
	c1-2.1,0.4-5.7,0.4-8v-15.4c0-2.3-0.5-5.2,0.1-7.4c0.6-2,2.9-3.7,4.3-5.1c3.7-3.7,9.7-7.8,12-12.5
	C185.6,266.9,183.1,257.5,177.4,255.4z M271.2,323.4c0,3.3,0,6.7-0.8,9.9c-0.8,3.1-2.4,6.5-5.3,8.3c-3.2,2-7,1.6-10.6,1.6
	c-6.1,0-12.2,0.4-18.2,0.6c0.4-2.3,2.5-3.6,3.9-5.4c1.9-2.6,3-5.8,3.4-9c0.2-1.5,0.3-3.2-0.7-4.5c-1-1.3-3.4-2.7-3.3-4.5
	c0.1-1.4,1.5-2.4,1.8-3.8c0.7-3.3-2.8-6.6-6.1-5.6c-2.7,0.8-4.3,3.9-3.2,6.5c0.5,1.2,2,2.4,1.3,3.8c-0.7,1.5-2.5,1.3-3.8,1.3h-9.9
	c0-3.4,0.7-7.9-0.1-11.2c-0.8-3-4.3-4-2.3-7.7c2.3-4.4,5.7-0.4,8.8-0.8c3.5-0.5,6.7-2.7,10.2-3.3v-2.6h0c6.2,2,13.1,1.3,19.5,1.3
	c3.6,0,7.2-0.6,10.2,1.9C272.4,305.6,271.2,316.1,271.2,323.4z M221.6,307.8c2.1-0.6,1.2-4-0.9-3.4
	C218.4,305,219.4,308.5,221.6,307.8z M223.2,310.8c-1.6,0.6-1,3-1,4.3c0,3.4,2.8,5.4,6.3,3.6C232.2,316.9,226.3,309.7,223.2,310.8z
	 M235,303.7c-1.8,0-5.9,1.4-7.2,2.6c-1.2,1.1-0.4,2.9,1.1,2.9c1.4,0,5.8-2.2,6.9-3.1C236.9,305.2,236.4,303.6,235,303.7z M264,308.6
	c-0.2,1.8-1.7,2.6-2.3,4.2c-1.3,3.6,0.3,7.4,4.6,6.3c1.8-0.5,1.6-2.6,1.6-4.1c0-3.6-0.3-7.1-2.1-10.2c-0.7-1.1-1.7-2.8-3.3-2.4v0
	C260.3,302.9,264.2,307.1,264,308.6z M260,310.1c2.3-0.3,1.7-4-0.6-3.5C257.1,307,257.7,310.4,260,310.1z M255.2,311.6
	c-2.3,0.3-11.1,2.2-11.1,5c0,1.2,0.8,1.8,1.9,1.9c3,0.3,7.7,0.7,10.5-0.1C259.3,317.7,258.7,311.1,255.2,311.6z M253.9,308.5
	c1.5-0.7,5.9-5.7,3.1-7c-1.1-0.5-2.9-0.2-4.1-0.2c-3.2,0-8.6-1-11.5,0.2v0c-3.5,1.5-1.8,8.4,0.9,9.7
	C245,312.4,251.3,309.6,253.9,308.5z M256.1,335.2c-1.5-2.3-6.2-4.9-9.2-4.3c-1.7,0.3-4.3,7.3-3,8.6c0.8,0.8,2.3,0.6,3.3,0.6
	c2.9,0,6.8,0.7,9.6-0.1C259.3,339,256.9,336.4,256.1,335.2z M256.7,322.4L256.7,322.4c-2-0.2-9.7-0.7-10.9,0.7
	c-0.9,1.1-0.6,3.2,0.5,4c1.9,1.5,6.7,2.9,9.2,3C259.1,330.4,259.6,322.7,256.7,322.4z M259.6,331.2c-2.1,0.1-2.2,3.5,0,3.5
	C262,334.7,262,331.2,259.6,331.2z M263.8,322.2c-5.9,1,0.3,8.4,0.3,10.8c0,1.9-1.8,2.8-2.3,4.5c-0.3,0.9,0.4,1.7,1.4,1.6
	c1.7-0.2,2.8-2.4,3.3-3.8C268,331.4,270.5,321.1,263.8,322.2z M218.7,376.5c0,4.8,0.6,9.4-2.7,13.4c-1.5,1.8-5.4,1-7.6,1l0,0
	c-0.7-3.8-1.1-9-4.2-11.7c-2-1.8-4.8-1.7-7.3-1.7h-13.8c-2.2,0-4.7-0.2-6.7,1c-2.5,1.6-3.9,4.8-4.5,7.6c-0.3,1.2-0.2,3.3-1,4.3
	c-1.1,1.4-6.3,0.7-7.4-0.5c-3.5-3.9-2.8-8.6-2.8-13.4v-25.9c0-4.2-0.8-9.2,0.8-13.1c1.2-2.8,3.8-4.9,5.6-7.4
	c2.6-3.6,4.4-7.8,5.3-12.2c1.2-5.8,0.9-12,0.8-17.9c0-2.5-1.1-5.5,0.8-7.6c1.7-1.8,4.9-2.3,7.2-2.3c4.7-0.1,9.4,0,14.1,0
	c3,0,6.2-0.2,9,1.4c3,1.7,2.2,4.7,2.2,7.6c0,5.9-0.7,12.4,0.5,18.2c0.9,4.5,2.7,9,5.3,12.8c1.8,2.5,4.4,4.5,5.6,7.4
	c1.6,3.7,0.8,8.9,0.8,12.8V376.5z M202.9,296.9c2-0.9,0.4-3.8-1.5-3.1C199.1,294.6,200.8,297.8,202.9,296.9z M200.7,309.8
	c-1.4-0.1-3.4,0-4.8-0.1c-0.8,1.4-6.1,9.4-6.8,10.4c1.4,0,3.5,0.1,4.9,0.1C195.3,318.5,199.5,311.8,200.7,309.8z M196.3,328.7
	c-2.2,0.8-1,4.3,1.2,3.4C199.6,331.3,198.4,328,196.3,328.7z M193.5,299.4c-3.2,5-10.8,16.7-13.6,20.8l4.9,0.1
	c4.5-6.8,9-13.9,13.5-20.8C196.4,299.4,194.9,299.4,193.5,299.4z M177.6,309.7c1,0.1,3.4,0.1,4.8,0.1c3.7-5.5,3.8-5.8,6.7-10.3
	c-2,0-2.4,0-4.7-0.1C182,303,178.8,308,177.6,309.7z M178.3,296.9c2-0.8,0.5-3.8-1.5-3.1C174.5,294.6,176.2,297.8,178.3,296.9z
	 M174.9,335.7c2.4,0.5,2.9-3.1,0.6-3.4C173.3,332,172.6,335.3,174.9,335.7z M187.6,339.8c-2.3,0.3-4.5,1-6.4,2.2
	c-14.2,8.8-5.9,31.4,10.6,29.3c2.4-0.3,4.7-1,6.7-2.3C212.5,359.9,204,337.6,187.6,339.8z M204.6,332.3c-2.4-0.3-2.7,3.3-0.3,3.5
	C206.4,335.9,206.7,332.6,204.6,332.3z M341.3,209.4c-2,4.2-4.6,8.2-6.9,12.2c-0.9,1.5-1.7,3.8-3.4,4.7c-4.5,2.3-11,3.1-16,4.3
	c-3.1,0.8-5.9,1.2-7.7,4.1c-4.9,8.1-9.5,16.4-14.2,24.6c-2,3.5-5.4,7.6-6.4,11.5c-0.5,1.9,0.7,4.5,1.2,6.4
	c1.4,4.9,4.2,11.2,4.2,16.3c0,1.8-1.6,3.6-2.4,5.1c-2.2,4-4.7,7.8-6.8,11.8L278,308c1.2-2.8,3.9-5.5,4.1-8.6
	c0.1-2.3-1.2-5.1-1.8-7.4c-1.9-7.1-6.1-16.3-5.1-23.7c0.6-4.7,4.5-9.4,6.8-13.4c5.4-9.4,10.4-19.1,16.3-28.2
	c4.9-7.5,18.6-8.2,26.7-10.5c2-0.6,4.3-0.9,6.1-2c2.4-1.6,3.8-4.9,5.1-7.4h0L341.3,209.4z M284.2,273.8c-0.5-1.4-1.9-2.2-3.4-1.8h0
	c-2.1,0.5-2.2,2.6-1.8,4.3c0.9,4.3,1.9,9,3.5,13.1c0.5,1.4,1.9,2.5,3.4,2.1c2-0.5,2.2-2.3,1.9-4C287,283,285.8,278,284.2,273.8z
	 M288.4,249.9c-1.7,0.4-2.5,2.3-3.3,3.7c-2.1,3.7-6,8.3-6.9,12.5c-0.5,2.4,1.7,3.2,3.7,2.8c1.7-0.3,2.3-2.1,3.1-3.4
	c2.1-3.6,5.5-7.8,6.6-11.8C292.4,251.4,290.8,249.3,288.4,249.9z M300.3,228.5L300.3,228.5c-1.4,0.6-2.3,2.7-3,4
	c-2,3.6-5.2,7.5-6.4,11.5c-0.7,2.3,1.1,4.6,3.6,3.6c1.5-0.6,2.3-2.3,3-3.6c2.1-3.6,5.3-7.5,6.4-11.5
	C304.5,230.3,302.8,227.5,300.3,228.5z M321.4,219.8c-4,0.5-11.3,1.9-14.7,4.1c-2.1,1.4-1.4,5.1,1.2,5.2c1.4,0.1,3.1-0.7,4.5-1.1
	c3.4-0.8,8.6-1.3,11.5-3.3C326.7,222.8,324.2,219.4,321.4,219.8z M166.5,197.6c-3.8,0-11.1,1.4-14.4-0.6c-1-0.6-2-1.7-2.2-2.9
	c-0.3-1.2,0-2.6,0-3.8c0-3.4-1.3-10,1.9-12.1c3.4-2.1,10.8-0.7,14.7-0.7L166.5,197.6L166.5,197.6z M157.6,189.8
	c-2.2,0.8-0.9,4.1,1.2,3.4C161,192.4,159.7,189,157.6,189.8z M157.3,182.1c-2,0.9-0.4,3.8,1.5,3.1
	C161.2,184.4,159.6,181.1,157.3,182.1z M165.3,188.5c-1.2-0.1-2.4-0.1-3.6-0.1c-0.1,3.3,0,3.6,0.1,7l3.5-0.3V188.5z M165.3,179.6
	l-0.1-0.1h-3.5c0,2.3-0.1,4.5-0.1,6.8l0.1,0.1h3.5l0.1-0.1V179.6z M376.6,46.2c-0.6,3.4-3.9,7.3-5.6,10.2c-2.4,4.3-4.8,10.6-8.4,14
	c-2.1,2-5.2,3.2-7.6,4.6c-5.4,3.2-10.9,6.3-16.3,9.4c-34.6,20.1-69.5,39.8-104,60c-4.8,2.8-9.6,5.5-14.4,8.3c-2.4,1.4-5,3.5-7.7,4.3
	c-4.8,1.4-11.6,0.2-16.6,0.2c-3.3,0-8.8,1.1-11.8-0.2c-1-0.4-1.4-1.5-2-2.3c-1.2-2.1-4.7-6.1-3.9-8.6c0.8-2.8,4-5.3,4.1-8.3
	c0.1-2.7-2.9-5.4-3.7-8l123.8-71.5l36.2-20.9l11.5-6.7l6.1-3.1c1,2.2,2.6,6,4.8,7.1c2.8,1.5,6.3-0.1,9.3,0.6
	C372.7,36.1,377,43.9,376.6,46.2z M353.1,44.2c2.2-0.6,5-5.9,4.7-8.2c-0.3-2-2.1-4.5-4.4-4c-2.5,0.5-10,4.4-10.9,6.9
	C340.6,44.7,349.6,45.1,353.1,44.2z M337.1,53.4c2.2-0.6,5.1-6,4.8-8.2c-0.3-2.2-2.1-4.5-4.5-4h0c-2.5,0.5-9.7,4.2-10.7,6.6
	C324.1,53.7,333.7,54.4,337.1,53.4z M232.6,126.4c1.5,1.4,6.9,1.2,8.8,0.6c1.6-0.4,2.3-2.1,3-3.4c2.3-4,1.8-8.1-1.8-11.4
	c-1.7-1.6-6.1-1.4-8.3-0.9c-1.8,0.4-2.6,1.9-3.5,3.4C228.5,118.9,228.8,122.9,232.6,126.4z M226.6,121.3c-1.6-1.4-6.5-1.2-8.5-0.7
	c-1.6,0.4-2.3,2-3.1,3.4c-2.3,4.1-2.1,8.3,1.9,11.7c1.6,1.4,6.6,1.2,8.6,0.6c1.6-0.4,2.2-2.1,3-3.4
	C230.7,128.8,230.6,124.7,226.6,121.3z M248.5,117.1c1.6,1.4,6.9,1.2,8.8,0.6c1.5-0.4,2.2-2.1,3-3.4c2.3-4,1.9-8-1.8-11.4
	c-1.6-1.4-6.9-1.2-8.8-0.6c-1.6,0.4-2.3,2.1-3,3.4C244.4,109.7,244.8,113.9,248.5,117.1z M264.6,108.1c1.4,1.2,7.1,1,8.8,0.5
	c1.5-0.4,2.3-2.2,3-3.5c2.2-4.1,1.8-7.9-1.9-11.4c-1.5-1.4-6.8-1.2-8.8-0.7c-1.6,0.5-2.2,2-3,3.4
	C260.5,100.4,260.8,104.9,264.6,108.1z M280.5,98.9c1.6,1.4,6.6,1.2,8.6,0.6c1.6-0.4,2.3-2.1,3.1-3.4c2.4-4.1,2.1-8.4-1.9-11.7
	c-1.6-1.4-6.6-1.2-8.6-0.6c-1.6,0.4-2.3,2.1-3.1,3.4C276.3,91.3,276.6,95.5,280.5,98.9z M296.3,89.6c1.5,1.5,6.8,1.2,8.8,0.7
	c1.6-0.4,2.4-2.1,3.1-3.4c2.3-4,2-8.4-2-11.6c-1.7-1.4-6.1-1.2-8.2-0.8c-1.8,0.4-2.6,1.9-3.4,3.4C292.2,82.1,292.6,86,296.3,89.6z
	 M310.7,77.9c0.8,1.5,1.5,3,3.4,3.2c2.1,0.2,6.6,0.8,8.2-0.7c3.7-3.6,4.3-7.5,1.7-11.7c-0.9-1.4-1.7-3.1-3.5-3.3h0
	c-2.1-0.2-6.9-0.6-8.4,1.1C308.5,70.4,308.2,73.6,310.7,77.9z M328.2,71.1c1.7,1.6,6.4,1.5,8.6,0.8c1.6-0.5,2.4-2,3.2-3.3
	c2.4-4.1,2.1-8.2-1.7-11.7c-1.5-1.4-6.9-1.2-8.8-0.6h0c-1.4,0.4-2.1,1.9-2.8,3.1C324.1,63.6,324.4,67.5,328.2,71.1z M314.7,62.9
	c2.1,0.1,6.2,0.7,7.8-1c2.1-2.3,6.4-11.4-0.1-11.6c-2.7-0.1-10.1,4.3-11.5,6.5C309.3,59.3,312.2,62.7,314.7,62.9z M299.3,72.1
	c1.6,0,3.2,0.1,4.8,0c2.8-0.3,6.2-5.6,6-8.3c-0.2-1.9-1.9-4.5-4.1-4.3c-2.7,0.2-9.4,4.1-11,6.3C293,68.7,296.5,72.1,299.3,72.1z
	 M289.1,81c2.3-0.4,5.3-6,5-8.2c-0.3-2.1-2.1-4.5-4.4-4c-2.5,0.5-10,4.4-11,6.9C276.6,81.5,285.8,81.6,289.1,81z M273.1,90.3
	c2.4-0.4,5.3-5.9,5.1-8.2c-0.3-2.2-2-4.5-4.4-4c-2.6,0.5-10,4.4-10.9,6.9C260.9,90.8,269.7,90.9,273.1,90.3z M257.1,99.5
	c2.5-0.7,5.3-5.7,5.1-8.2c-0.2-2.4-2.2-4.7-4.8-4c-2.6,0.7-9.3,4.1-10.4,6.6C244.5,99.6,253.8,100.4,257.1,99.5z M234,108.8
	c1.8,0.5,4.2,0.3,6.1,0.2c3-0.2,6.2-5.1,6.1-8c0-2.1-1.6-4.8-3.9-4.6c-2.7,0.1-9.5,4.1-11,6.3C229.9,104.6,231.9,108.1,234,108.8z
	 M225.4,117.8c2.3-0.4,5.3-6,5-8.2c-0.3-2.1-2-4.5-4.3-4h0c-2.6,0.5-10.4,4.5-11.1,7.2C213.5,118.6,222,118.5,225.4,117.8z
	 M209.4,127.1c2.3-0.6,5.3-5.9,5-8.2c-0.2-2.1-2.1-4.5-4.4-4c-2.6,0.5-10,4.3-11,6.9C197,127.4,206.2,127.9,209.4,127.1z
	 M193.4,136.3c2.3-0.6,5.3-5.8,5.1-8.2c-0.2-2.4-2.2-4.6-4.8-4h0c-2.4,0.6-9.4,4.2-10.4,6.6C181.1,136.5,189.9,137.3,193.4,136.3z
	 M194.9,139.8c-1.5-1.4-7.3-1.3-9.2-0.6c-1.3,0.5-1.9,1.9-2.6,3c-2.4,4.1-2.2,8.3,1.7,11.7c1.5,1.3,7.3,1.3,9.2,0.5
	c1.3-0.5,2-2.1,2.6-3.3C198.9,147.1,198.5,143.2,194.9,139.8z M210.6,148.8c-1.7-1.4-5.9-1.1-7.9-0.7c-2.3,0.4-4.9,4.2-2.5,6.1
	c1.7,1.3,8.1,1,10.1,0.4C213.1,153.8,212.3,150.2,210.6,148.8z M210.9,130.8c-1.6-1.6-6.7-1.5-8.9-0.9c-1.6,0.4-2.4,2-3.1,3.4
	c-2.3,4.1-2,7.9,1.7,11.4c1.5,1.4,7.1,1.2,9,0.7c1.4-0.4,2.1-1.9,2.8-3.1C214.9,138,214.6,134.4,210.9,130.8z M217.7,139.2
	c-2.2,0.6-5,5.9-4.7,8.2c0.3,2.3,2.3,4.6,4.7,3.9c2.6-0.7,9.7-4.2,10.6-6.8C230.5,138.8,221,138.2,217.7,139.2z M233.7,129.9
	c-2.3,0.7-5,5.9-4.7,8.2c0.3,2.4,2.1,4.7,4.7,4c2.6-0.7,9.3-4,10.4-6.5C246.8,129.7,237,128.9,233.7,129.9z M250,120.6L250,120.6
	c-2.5,0.6-5.3,5.8-5.2,8.2c0.1,2.5,2.4,4.7,4.9,4c2.6-0.7,9.3-4.1,10.4-6.6C262.7,120.5,253.3,119.8,250,120.6z M266.4,111.3
	L266.4,111.3c-2.9,0.5-5.7,5.8-5.4,8.5c0.2,2,1.9,4.4,4.1,4c2.6-0.4,10-4.5,11-6.9C278.3,111.2,269.7,110.7,266.4,111.3z
	 M281.4,102.4c-2.1,0.6-5,6.1-4.7,8.2c0.3,2.2,2.2,4.6,4.7,4c2.6-0.7,9.7-4.3,10.6-6.8C294.2,101.9,284.7,101.4,281.4,102.4z
	 M297.4,93.1L297.4,93.1c-2.2,0.7-5,5.9-4.7,8.2c0.3,2.4,2.2,4.7,4.7,4c2.6-0.7,9.7-4.2,10.6-6.8C310.1,92.7,300.7,92.1,297.4,93.1z
	 M313.7,83.8c-2.2,0.6-5.5,5.9-5.2,8.2c0.2,2.1,2.2,4.7,4.6,4.1c2.5-0.6,9.7-4.2,10.7-6.7C326,83.6,317.2,82.8,313.7,83.8z
	 M330,74.5c-2.5,0.5-5.8,5.7-5.6,8.2c0.1,2.1,2.1,4.7,4.3,4.3c2.6-0.5,10.1-4.3,11-6.9C341.9,74.5,333.4,73.8,330,74.5z M353.4,65.7
	c-1.8-0.7-5.4-0.5-7.3-0.4h0c-2.9,0.3-5.8,6.1-5.4,8.8c0.3,1.8,1.7,3.9,3.8,3.8c2.7-0.2,9.5-4.1,11-6.4
	C356.7,69.7,355.2,66.4,353.4,65.7z M355.9,59.3c2.4-4,1.9-8.4-1.9-11.7c-1.6-1.4-6.3-1.1-8.3-0.7c-1.6,0.4-2.3,1.7-3.1,3.1
	c-2.5,4.2-2.1,8,1.4,11.7c1.6,1.7,6.6,1.5,8.8,0.9C354.4,62.3,355.1,60.7,355.9,59.3z M361.4,56.3c-2.2,0.6-5.1,5.6-5.1,7.9
	c0,2.3,2.1,4.4,4.4,3.7C364.8,66.6,369.5,54,361.4,56.3z M370.2,38.7c-1.5-1.4-7.1-1.2-9.1-0.6c-1.4,0.4-2.1,1.9-2.8,3.1
	c-2.4,4.2-2.1,7.8,1.6,11.4c1.6,1.6,6.7,1.5,8.9,0.9c1.6-0.4,2.3-2.1,3.1-3.4C374.2,46,373.9,42.1,370.2,38.7z M329.9,131.8
	c-5.9,2.9-8-7.9-12.1-10.1c-2.4-1.3-5.4-0.1-7.7-1.3c-2.1-1.2-2.2-10.8-0.3-12.2c2.7-1.9,6.6-0.1,9.5-2.6c2.6-2.2,3.3-7.7,6.4-8.9
	c1-0.4,4-0.7,4.6,0.5c0.9,1.8,0.3,5.6,0.3,7.6l0.1,18.3C330.9,124.8,331.6,131,329.9,131.8z M312.1,114.4c-0.8-0.1-1,1.2-0.2,1.3
	C312.7,115.9,313,114.6,312.1,114.4z M319.2,114.4c-0.9,0.2-0.6,1.5,0.2,1.3C320.2,115.6,320,114.2,319.2,114.4z M321,114.2h1.5
	c0.7-1.1,1.4-2.1,2-3.2H323C321.9,112.7,321.6,113.2,321,114.2z M323.3,117.3c3-4.6,3-4.7,4-6.3h-1.6c-1.3,2.1-2.6,4.2-4,6.3H323.3z
	 M327.9,114.2h-1.6l-1.9,3.1h1.6C326.6,116.3,327.3,115.2,327.9,114.2z M381.7,148.6c0.1,2.4-2.7,5.7-3.9,7.7
	c-3.3,5.6-6.3,11.1-9.6,16.6c-1.1,1.9-2.3,5.1-4.1,6.5c-2.7,2-5.2-2.6-7.9-2.1c-2.4,0.5-2.3,3.5-5.1,3.6l0.6,2.2h-1.9l0.6,2.2
	l-1.6-0.3l0.3,2.2l-1.9,0.3l1,1.9l-2.2,0.3l1,1.9l-2.2,0.3l1,1.6l-2.2,0.6l1,1.6l-1.9,0.3l0.6,1.9l-0.3,0.3l-1.6,1
	c-4.1-0.3-8.9-4.4-12.5-6.4c-1.8-1-3-1.7-3.2-3.8l1.6-0.3l-0.6-1.9l1.9-0.3l-0.6-1.9l1.9-0.3l-1-1.6l2.2-0.3l-1-1.9l2.2-0.3l-1-1.9
	h1.9l-0.6-2.2l2.2-0.3l-1-1.9l2.2-0.3l-1-1.9l2.2-0.3h0c-1.2-1.9,0.6-3-0.1-4.8c-0.9-2.2-5.2-2.6-4.8-5.4c0.3-2.2,2.3-4.5,3.3-6.4
	c3-5.5,6.3-10.9,9.4-16.3c1.3-2.3,2.7-6.3,4.9-7.8c1.7-1.1,4,0.5,5.4,1.4c3.9,2.6-0.5,8-2.5,10.8c-1.6,2.4-4.2,3.8-5.9,6.1
	c-3.4,4.7-2.2,10.9,2,14.7c5.2,4.7,13.2,2.9,16.7-2.8c1.8-3,1.9-6.8,3.6-9.9c1.4-2.5,3.3-8.1,6.9-6.7
	C378.2,144.8,381.7,146.5,381.7,148.6z M351.8,136.9c2.1-0.9,0.6-4-1.5-3.1C348.1,134.7,349.6,137.8,351.8,136.9z M335.8,159
	c-2.2,0.6-0.9,3.9,1.2,3.2C339.3,161.4,338,158.4,335.8,159z M361.1,173.5c-2.2,0.8-1,4.2,1.2,3.4
	C364.5,176.1,363.3,172.7,361.1,173.5z M375.8,148.2c-2,0.4-1.5,3.8,0.6,3.5C378.8,151.3,378.1,147.7,375.8,148.2z M411,120.5
	c0.1,1.4-1.7,3.6-2.4,4.8c-2.6,4.4-5.2,8.2-11,7.9c-2.5-0.1-5.6-2.7-7.7-4c-4.3-2.6-8.7-5-13.1-7.6c-2-1.1-4.2-2.9-6.4-3.5
	c-1.9-0.5-4.6,0.7-6.4,1.2c-3.6,1-7.3,1.9-10.9,2.9c-1.8,0.5-3.9,1.5-5.8,1.3c-5.8-0.6-12.5-6.9-11.6-13c0.4-2.7,2.9-5.7,4.3-8
	c3.4-5.9,6.5-12,10.2-17.6c8.4,3.1,16.5,9.3,24.3,13.8c9.2,5.3,18.3,10.6,27.5,15.9c2.3,1.3,4.5,2.6,6.7,3.9
	C409.5,119,410.9,119.5,411,120.5z M343.5,110.7c-2.4,0.8-0.8,4.1,1.5,3.1C346.9,113,345.4,110.1,343.5,110.7z M398.8,122.9
	c-2.3,0.4-1.7,4,0.6,3.5C401.7,125.9,401.1,122.5,398.8,122.9z M424.3,68c0.2,3.1-3.1,3.5-4.2,5.8c-1.4,2.9-0.7,6.7-2.2,9.6
	c-1.4,2.8-4.4,4.6-5.3,7.7c-1.2,3.8,10.4,10.9,1.9,14.1c-2.9,1.1-7.9,0.2-10.9-0.2c-1.9-0.2-3.9,0-5.8-0.5c-4.7-1.4-9.2-5-13.4-7.5
	c-5.1-3-9.4-5-12.7-10.1c-1.9-2.8-5.9-7-5.8-10.6c0-2.4,1.7-4.3,4.1-4.6c2.5-0.3,6.4,1.8,8.6,0.3c2.8-1.9,2.7-6.2,4.4-8.8
	c1.9-2.9,5.7-4.2,7.5-7.1c1.3-2.1-0.3-4.9,2.8-6.2c5-2,4.7,3.9,7.4,5.9c3.2,2.3,6.9,4,10.2,5.9c1.7,1,3.6,2.5,5.4,3
	c1.4,0.4,2.7-0.7,4.2-0.6C422.5,64.4,424.2,66,424.3,68z M400.1,62.2c2.3-0.7,1.4-4-0.9-3.4C397.1,59.4,397.9,62.8,400.1,62.2z
	 M395,55.4c2.3,0,2.3-3.5,0-3.5C392.7,51.9,392.7,55.4,395,55.4z M391.1,65c1.5-0.3,0.8-2.6-0.6-2.2C389.1,63.2,389.6,65.3,391.1,65
	z M370.1,74.5c-2.2,0.5-1.6,3.9,0.6,3.5C372.9,77.7,372.3,74.1,370.1,74.5z M377.4,86.4c-2.2,0.2-1.9,3.6,0.3,3.5
	C380.2,89.9,379.7,86.2,377.4,86.4z M382.6,80.1c0.8-0.9,2.2-2.1,1.6-3.4c-0.6-1.4-5.5-1.8-6.8-1.7c-2.2,0.1-7.6,9.2-2.6,9.4
	C378.7,84.5,380.3,82.9,382.6,80.1z M398.5,98.9c-2.3,0.5-1.2,4,0.9,3.4C401.7,101.6,400.8,98.3,398.5,98.9z M391.8,79.1
	c-12.3-0.2-12.6,18.6-0.3,18.9C403.8,98.3,404.1,79.3,391.8,79.1z M404.3,81.2c6-0.5,5.2-9.6-0.6-9
	C397.9,72.9,398.5,81.7,404.3,81.2z M410.8,95.5c0.3-1.8-3.3-6.7-5.3-6.5l0,0c-1.5,0.1-1.7,2.2-2.1,3.3c-0.4,1.2-1.2,2.3-1.5,3.5
	c-0.4,2.1,1.7,6.5,4.1,6.2c1.7-0.2,1.8-2.1,2.4-3.4C409.2,97.6,410.6,96.8,410.8,95.5z M412.6,102.8c2.8,0.3,3.4-3.7,0.6-4.1
	C410.5,98.3,409.8,102.5,412.6,102.8z M413,75.9c-1.4,0.5-0.6,2.7,0.8,2.1C415.2,77.5,414.3,75.4,413,75.9z M419.7,66.5
	c-2,0.5-1.2,4,0.9,3.4C423,69.3,422.1,65.9,419.7,66.5z M469,99c-1.4,2.4-3.4,5-4.3,7.7c-0.6,2.1,0.2,4-1.9,5.6
	c-2.8,2.2-5.3,0.2-7.6,4c-1.5,2.5-3.8,9.3-6.8,10.2c-2.9,0.9-9-4.3-11.5-5.7c-2.8-1.6-5.6-3.2-8.3-4.8c-1.1-0.7-2.7-1.3-3.2-2.6
	c-0.5-1.4,0.5-2.7,1.2-3.8c1.6-2.8,3.3-5.5,4.8-8.3c1.6-3.1-1.3-4.9-0.8-8c0.4-2.2,2.2-2.7,3.7-4c2.5-2.3,3.8-9.5,7.2-10.4h0
	c1.8-0.5,2.5,1.7,3,2.9c1.7,3.9,4.6,7.3,8.2,9.6c3.4,2.1,7.2,3.3,11.2,3.2c1.8,0,4.9-1.3,6.2,0.4C470.9,96.3,469.6,97.9,469,99z
	 M441.9,86.1c0.8-0.3,0.4-1.5-0.5-1.3C440.7,85.1,441.2,86.4,441.9,86.1z M439.1,109.7c2.2-0.8,0.4-3.6-1.5-2.8
	C435.7,107.7,437.2,110.4,439.1,109.7z M434.7,92.5c-2.3,0.4-1.7,3.9,0.6,3.5C437.4,95.6,436.9,92.1,434.7,92.5z M442.8,112.7
	c-0.9-0.7-1.9-1.3-2.9-1.8c-1.1,1.9-2.6,4.2-3.6,6.1c1.2,0.8,1.7,1.1,2.8,1.7C440.2,116.8,441.7,114.5,442.8,112.7z M444.1,109.9
	c0.8-1.2,2.6-4.1,3.6-6c-0.9-0.5-1.9-1.1-2.8-1.6l-3.5,6.1C442.2,108.9,443.3,109.4,444.1,109.9z M445.9,111
	c-2.1,0.4-1.6,3.6,0.6,3.2C448.4,113.9,448,110.7,445.9,111z M455.2,99.8c-2.8,0.5-1.9,4.6,0.9,3.9
	C458.3,103.2,457.4,99.5,455.2,99.8z M459.4,107.2c-2,0.8-0.6,4.2,1.5,3.2C463,109.4,461.5,106.3,459.4,107.2z M464.9,97.4
	c-0.8,0.3-0.3,1.6,0.5,1.3C466.2,98.3,465.7,97.1,464.9,97.4z M501.2,151.9c-12.1-6.9-23.9-14.3-36.2-20.8c0.7-2.2,2.7-6.9,5.1-7.5
	c2.8-0.8,7.1,1.1,9.6-0.9c1.6-1.3,2.5-3.6,3.5-5.3c2.1-3.7,4.3-7.5,6.4-11.2l13.8,7.7c-1.4,5.9-6.7,12.3-9.7,17.6
	c-1.1,1.9-3.7,4.8-3.5,7c0.1,2.2,3,3.2,4.6,3.9c4.9,2,14.1-2,15.8,5C512.2,153.7,505,154,501.2,151.9z M504.8,145.6
	c-3.7,0.4-2.1,5.8,1.3,5.2C509.6,150.2,508,145.2,504.8,145.6z M564.1,164.9c-0.7,2.6-2.7,5.1-4.1,7.4c-1.8,3.1-3.6,6.2-5.4,9.3
	c-0.9,1.6-1.8,3.6-3.8,4c-4.9,1.1-10.4,0.1-15.4,0.5c-3,0.2-7.4,1.1-10.2-0.1c-3.8-1.6-5.3-4.7-7.1-8.2c-1-2-3.8-5.4-3.1-7.7
	c1.1-3.4,3.8-6.5,5.5-9.6c1.1-2,2.2-4.7,3.9-6.2c2.4-2.2,9-3.5,9.6-7.2c0.5-2.8-3.3-4.3-5.2-5.4c-3.9-2.2-7.7-4.5-11.5-6.7
	c-1.8-1-4.5-2-5.9-3.5c-1.4-1.5,2.9-9.2,4.7-9.7l0,0c1.5-0.4,3.8,1.6,5.1,2.3c4.6,2.6,9.2,5.3,13.8,8l18.9,10.9
	c3.2,1.9,7.2,3.5,9.2,6.7c1.4,2.3,1.3,4.8,1.3,7.4C564.3,159.4,564.8,162.5,564.1,164.9z M546.1,166.4c-2.2,0.8-0.9,4,1.2,3.1
	C549.2,168.8,548.1,165.7,546.1,166.4z M550.9,152.7c-2.3,0.3-1.6,3.9,0.6,3.5C553.7,155.7,553.1,152.3,550.9,152.7z M238.7,391.8
	c-0.2,2.6-3.2,6.1-4.5,8.3c-0.8,1.3-2,4.7-3.7,4.9c-1.2,0.1-2.5-1-3.5-1.5c-6.7-3.8-2.8-14.9,4.2-16
	C233,387.2,238.9,389.5,238.7,391.8z M229.9,394.3c-2,0.8-0.6,3.9,1.5,3.1C233.7,396.5,232,393.4,229.9,394.3z M260.5,354.7
	c-0.5,2.2-2.4,4.4-3.5,6.4c-3,5.5-6.3,10.9-9.4,16.3c-1,1.7-2.7,6.5-4.6,7.1c-1.3,0.4-4.1-1.2-4.2-2.7c-0.1-2,2.4-3.4,2.4-5.4
	c0-1.9-5.8-4.6-7.4-5.2c-3.9-1.5-3.1,7-7.7,4.3c-0.5-0.3-1.1-0.6-1.5-1.1c-1.1-1.4,0.7-3.4,1.4-4.7c2-3.5,4.2-7,6.1-10.6
	c0.7-1.4,1.6-3.3,3.3-3.7c2.8-0.6,6.9,5.1,9.3,3.7c3.4-2.1,3.4-9.3,7.4-10.6C254.3,347.8,261,352,260.5,354.7z M253.6,353
	c-2.3,0.8-1.6,4.6,0.9,3.8C256.8,355.9,256.1,352.1,253.6,353z M216.1,417.7c-0.9,1.6-2.1,4.9-3.8,5.7c-1.9,0.9-6.6-3-8.3-4
	c-4.3-2.5-8.5-4.9-12.8-7.4c-1.6-0.9-4.4-2-5.4-3.7c-0.8-1.4-0.4-3.8-0.4-5.4c0-2.9-1.2-9.6,2.2-11c3.3-1.3,9.1,3.6,11.8,5.2
	c5.1,3,10.2,6,15.4,8.9c1.3,0.8,4.8,2,5.2,3.6C220.5,411.8,217.1,416,216.1,417.7z M195,402.5c-3,0.6-2,5.2,0.9,4.4
	C198.5,406.3,197.8,401.9,195,402.5z M208.5,410.6c-2.9,0.8-1.3,5,1.6,4.2C212.6,413.9,211.2,409.8,208.5,410.6z M263.8,426.1
	c-0.3,2.3-2.8,4.1-4,6.1c-1.4,2.3-1.7,6.5-4.6,7.5c-1.6,0.6-3.5-0.1-5.1-0.3c-3.2-0.4-8.2,1.7-10.8-0.3c-2.1-1.6-2.5-5.3-4-7.5
	c-1.3-2-3.8-3.9-3.7-6.4c0.1-2.5,2.7-4.4,4-6.4c1.5-2.4,1.9-6.8,4.9-7.8l0,0c1.6-0.5,3.2,0.2,4.8,0.4c3.1,0.3,8.4-1.7,10.9,0.2
	c2.2,1.7,2.6,5.2,4.1,7.5C261.7,421.3,264.2,423,263.8,426.1z M246.2,415c-13.3,1.9-10.4,22.3,2.9,20.6
	C262.7,433.8,259.7,413,246.2,415z M386,443.3c0,1.7,0.7,5.3-1,6.4c-1.2,0.7-5.8,0.8-6.6-0.4c-0.9-1.3-0.3-2.7-1.9-3.6
	c-2.3-1.2-6.4-0.4-8.9-0.4h-52.8h-13.8c-1.7,0-4.2-0.4-5.7,0.6c-3.1,2.2,0.3,7-1.7,9.4c-0.7,0.9-2.6,0.5-3.5,0.5
	c-3.2,0-8.5,1-11.5-0.2c-2-0.8-1.8-6.7-1.1-8.4c0.9-2.2,3.8-1,4.9-2.9c0.8-1.4,0.4-3.6,0.4-5.1c0-4.3,1.4-11.3-0.2-15.4
	c-0.9-2.3-4.1-0.9-5.1-3.2c-0.9-2.1-0.9-8,1.7-8.8c3.2-0.9,7.6-0.2,10.9-0.2c1.1,0,2.8-0.3,3.5,0.7c1.7,2.6-1.7,8.6,2.6,9.7
	c0.8,0.2,1.7,0.1,2.6,0.1h66.9c3.1,0,8,1,10.9-0.2c1.8-0.8,1-2.6,2.1-3.7c1-1,4.9-0.8,6.2-0.4c2.2,0.7,1.3,5.2,1.3,6.9V443.3z
	 M319.1,428.2c-1.9-1-4.7-0.5-6.7-0.5c-5.4,0-13.1-1.4-18.2,0.2c-3.6,1.1-3.8,10-0.6,11.6c1.7,0.9,4.5,0.4,6.4,0.4h12.8
	c1.8,0,4.4,0.4,6.1-0.2C321.8,438.4,321.9,429.6,319.1,428.2z M347.9,428.3c-1.4-0.9-3.5-0.6-5.1-0.6c-4,0-8.8-0.7-12.8,0.1v0
	c-3.6,0.7-4.3,9.5-1.6,11.5c1.3,0.9,3.5,0.6,5.1,0.6c4.2,0,9.8,1,13.8-0.1C350.7,438.7,350.5,429.9,347.9,428.3z M376.4,428.2
	c-1.3-0.9-3.3-0.6-4.8-0.6c-4.1,0-9.5-0.9-13.4,0.1c-3.4,0.9-3.9,9.5-1.2,11.4c1.4,1,3.5,0.6,5.1,0.6c4.1,0,9.8,1,13.8-0.2
	C379.2,438.6,379,430,376.4,428.2z M370.4,383.8l-4.8,9l-12.1,21.1c-3.7-0.9-7.6-3.9-10.9-5.9c-1-0.6-3-1.3-3.4-2.5
	c-0.6-1.9,2.4-3.6,1.9-5.7c-0.7-2.9-3.6-5.1-4.1-8c-0.6-3,3.4-7.7,4.9-10.2c1.4-2.5,2.8-4.9,4.2-7.4c0.5-0.8,1-2.3,2-2.7
	c1.6-0.5,4.7,2,6,2.8C359.4,377.6,365,380.5,370.4,383.8z M341.6,389.4c-2.3,0.1-2.2,3.5,0,3.5C343.9,393.1,343.9,389.4,341.6,389.4
	z M385.6,357.9c-1.8,3.1-3.5,6.2-5.4,9.3c-2.9-0.9-5.7-3-8.3-4.5c-5.4-3.1-11.6-5.5-14.5-10.9c-0.6-1.2,0.9-3.1,1.5-4.1
	c1.9-3.3,2.6-6,6.5-4.2c1.2-2.2,3.6-0.1,5.1,0.8l11.8,6.8c1.3,0.7,3.8,1.6,4.4,3C387.5,355.3,386.2,356.9,385.6,357.9z M366.2,349.5
	c-2.2,0.9-0.6,4,1.5,3.1C369.7,351.6,368.3,348.6,366.2,349.5z M409.4,320.5c-0.4,2.2-3.2,8.2-5.2,9.3c-1.5,0.8-3.6-3.6-6-3.1
	c-3.3,0.8-6.1,4-9.6,4.9c-2.8,0.7-6.9-0.4-9.3,0.8c-3,1.5-9.1,8.6-11.7,2.4c-1.9-4.7,6.8-9.1,9.8-11.4c3.4-2.7,7.2-5,9.6-8.8
	c4-6.2,3.5-15.3,4.6-22.4c0.4-2.9,2-6.6,5.7-5.1c4.7,1.9,1.3,7.7,1.8,11.2c0.2,1.5,1.6,2.8,2.3,4.2c1.1,2.2,1.9,4.6,2.2,7
	c0.3,2.4-1.1,6.6,0.3,8.6C405.2,320.2,407.5,319.7,409.4,320.5L409.4,320.5z M371,331.6c-2.2,0.3-1.9,3.7,0.3,3.6
	C373.9,334.9,373.5,331.2,371,331.6z M395.6,289c-2.2,0.2-2,3.7,0.3,3.6C398.4,292.4,398,288.8,395.6,289z M428,261.9
	c-1.6-2.4-3.5-1.6-5.3,0.3c-2.4,2.6-5.4,7.4-6.4,10.8c-1,3.4,4.6,7.7,6.6,10c0.8,0.9,2.3,2.2,2.1,3.5c-0.4,4.2-4.9-1.2-5.9-0.9
	c-1.6,0.5-2.4,3.8-3.6,4.9c-3.3,3.2-8.5,0.7-10.4-2.8c-2.2-3.9-1.1-9.4,0.8-13.1c2.6-5.3,5.7-10.8,9-15.7c1.2-1.8,3-3.3,4.2-5.1
	c1.9-3.1,0.6-5.2,0.8-8.3c0.1-1,0.8-1.9,1.8-2c2.9-0.3,2.8,5.5,4.1,7.1c1.3,1.6,3.9,1.3,5.5,2.8C433.4,255.6,429.9,260.4,428,261.9z
	 M413,281.3c-2.3,0.9-0.6,4,1.5,3.1C416.4,283.6,415,280.5,413,281.3z M462,231.8c-3.2,5.9-10.2,10.2-16.4,12.6
	c-5.2,2.1-13.6-5.2-17.9-7.7c-1.9-1.1-4.7-2.1-5-4.6c-0.3-2.5,2.4-5.6,3.6-7.7c3.5-6.2,7.2-12.4,10.7-18.6c1.2-2.1,2.7-6.2,5.1-7.1
	c3.1-1.2,9.8,3.3,12.1,5.4c0.9,0.9,1.5,2.1,1.2,3.4c-0.5,2.6-5.2,6.7-3.8,9.3c2.4,4.2,9.7,4.1,12.2,8.3
	C465.1,227.5,463.1,229.8,462,231.8z M435.3,232.3c-2.3,0.4-1.8,4,0.6,3.6C438.1,235.4,437.5,231.9,435.3,232.3z M437.9,218.6
	c-2.2,0.7-1,4.3,1.2,3.4C441.2,221.2,440.1,217.9,437.9,218.6z M444.6,207c-2.3,0.6-1.1,3.9,1.2,3.2
	C448.1,209.6,446.8,206.5,444.6,207z M452.3,227.9c-2.1,0.8-0.9,4,1.2,3.3C455.7,230.5,454.6,227,452.3,227.9z M504.1,159.8
	c-6.9-4.3-14.1-8.2-21.1-12.3c-2-1.2-5.9-4.5-8.3-4.4c-1.6,0-2.7,3.1-3.4,4.3c-2.6,4.3-5,8.7-7.6,13.1c-0.6,1.1-2.5,3.4-1.9,4.7
	c0.5,1,1.9,1.5,2.8,2c1.4,0.8,3.1,2.3,4.8,2c3-0.5,5.9-4.7,9-4.3c4,0.5,9.3,5.1,12.8,7.1c1.1,0.6,3.4,2.5,4.7,1.9
	c2.1-1.1,4-6.2,5.2-8.3C502.2,163.7,503.5,161.9,504.1,159.8 M513.3,204.3c-2.3,5-10.1,7.8-14.6,10.3c-2.9,1.7-6.3,4.5-9.6,5.2
	c-3.9,0.9-8.8,0.1-12.8,0.1c-1.6,0-3.9,0.4-5.4-0.2c-1.5-0.6-2.5-3-3.3-4.3c-2.5-4-5.6-7.5-5-12.5c0.5-3.6,4.3-7.8,6.2-10.9
	c2-3.4,5.1-11.3,9.2-12.3v0c2.9-0.7,6.4-0.2,9.3-0.2c4,0,9.2-0.9,13.1,0.3c2.4,0.7,4.6,2.4,6.7,3.6c2.1,1.2,4.3,2.3,5.7,4.5
	c1.4,2.3,1.4,4.7,1.4,7.4C514,198.2,514.5,201.6,513.3,204.3z M488.8,191.8c-2.3,0.2-2,3.8,0.3,3.5
	C491.2,194.9,490.9,191.6,488.8,191.8z M502.8,194.6c-2.2,0.2-2.1,3.8,0.3,3.5C505.3,197.8,505,194.4,502.8,194.6z M516.3,247.8
	c0,1.9-1.1,3.6-0.9,5.4c0.1,1,1.2,2.4,0.6,3.3c-0.9,1.3-5.9,0.5-7.3,0.5h-21.8c-4.3,0-14.2,0.5-14.4-5.8c-0.2-5.7,0-11.5,0-17.3
	c0-2.2-0.2-5.2,1.7-6.8c1.7-1.5,6.9-1.5,9.2-1.5c7.6-0.1,15.1,0,22.7,0c2.3,0,7.6-1,9.5,0.3c0.6,0.4,0.6,1,0.5,1.6
	c-0.6,3,0.2,4.7,0.2,7.7c-2.1,0-5.5-0.7-7.3,0.6c-2.1,1.4-2.2,9.5-0.3,11.1C510.5,248.5,514.1,247.8,516.3,247.8z M476.8,231.3
	c1.8-0.7,0.7-3.5-1.2-2.7C473.9,229.2,475.1,232,476.8,231.3z M485.8,234c-1.3-1.8,0.5-6.4-3.7-5.2c-2.5,0.7-1,3.6-1.9,5.2
	c-0.7,1.3-2.4,1.8-3.3,3c-2,2.7-1.9,7,0.3,9.6c0.8,1,2.1,1.4,2.8,2.4c1.3,1.7-0.2,6.6,3.7,5.5c2.5-0.7,1-3.6,1.9-5.2
	c0.8-1.4,2.6-1.9,3.6-3.3C492.8,240.7,488.4,237.7,485.8,234z M564,251.3c0,2.3,0.7,5.8-0.2,8c-0.9,2.1-5.4,2.1-7.2,1.2
	c-2.6-1.3-1.8-7.1-1.5-9.5c0.4-3.4,2.2-6.6,2.2-10.1c-0.1-6.7-6.2-11.2-12.5-10.7c-1.4,0.1-2.9,0.7-4.2,1.4
	c-8.4,5.1-3.8,12.6-3.8,20c0,2.1,0.8,6.1-0.3,8c-1.1,1.9-5.5,1.7-7.3,1.1c-3.5-1-1.9-10.4-1.9-13.3v-17.3c0-1.8-0.6-5.2,0.6-6.6
	c1.7-2.1,5.6,0.3,7.6-1.8c1.6-1.7,0.1-3.9,2.4-5.3v-0.3l-1.6-1v-0.3l1.6-0.6l-1.6-1.6v-0.3l1.6-0.6l-1.6-1.6v-0.3l1.6-0.6v-0.6
	l-1.6-0.6v-0.6l1.6-0.6v-0.6l-1.6-0.6v-0.6l1.6-0.6v-0.6l-1.6-0.6v-0.6l1.6-0.6v-0.6l-1.6-0.6l1.6-1.3v-0.6l-1.6-1l1.6-1V196
	l-0.6-0.3v-0.3h0c3.7-2,10.6-0.6,14.7-0.6c1.9,0,3.3,0.1,4.2,1.9l-1.3,0.3l1.6,1.6l-1.6,1v0.6l1.6,1.3l-1.6,0.6v0.6l1.6,1.3
	l-1.6,0.6v0.6l1.3,0.6v0.6l-1.3,0.6v0.6l1.6,1l-1.6,1.6l1.6,1l-1.6,1.6l1.6,1l-1.6,0.6l1.6,1.6l-1.6,1c1.1,1.5,1.4,4.2,2.9,5.2
	c1.8,1.1,5.3-0.4,6.2,1.9c1,2.4,0.2,6.4,0.2,8.9V251.3z M531,254.1c-2.2,0.8-0.9,4.2,1.2,3.4C534.3,256.7,533.2,253.3,531,254.1z
	 M531,225c-2.2,0.8-1,4.1,1.2,3.3C534.4,227.6,533.1,224.2,531,225z M560.1,254.1c-2.2,0.8-1,4.2,1.2,3.4
	C563.5,256.7,562.3,253.3,560.1,254.1z M560.1,225c-2.2,0.8-1,4.1,1.2,3.3C563.6,227.6,562.3,224.2,560.1,225z M540.3,321.1
	c-0.8,1.4-1.5,3.2-2.7,4.3c-1.4,1.2-3.9,1.4-5.6,1.9c-5,1.4-11.7,2-16.3,4.4c-2.2,1.2-3.4,4.3-4.5,6.3c-2.8,4.8-5.5,9.6-8.3,14.4
	c-1.1,1.9-2.2,4.8-3.9,6.2c-1.4,1.2-5.4,2.2-7.3,2c-2.6-0.3-5-2.7-7.4-3.8c0.7-2.9,2.9-5.8,4.4-8.3c2.8-4.6,5.4-9.4,8.1-14.1
	c1.1-2,4.3-5.7,4.3-8c0-1.4-2.6-2.3-3.7-2.9c2.4-7.6,8.5-15.2,12.5-22.1c1.1-1.8,2.6-6.4,4.6-7.3c1.7-0.8,7,3.2,8.5,4.2
	c4.1,2.5,8.3,4.8,12.5,7.2c1.7,1,4,1.8,5.3,3.3c1.2,1.4,1.8,4.5,2,6.3C543,317.4,541.3,319.4,540.3,321.1z M517.1,317.5
	c0-1.8-0.1-3.6-0.1-5.4l-1.9-1.1c0.1,1.9,0.1,3.7,0.2,5.5L517.1,317.5z M520.9,319.5l-0.6-11.1l-1.9-1.1l0.6,11.2L520.9,319.5z
	 M524.2,316c-0.1-1.8-0.1-3.6-0.2-5.4l-2-1.1c0.1,1.9,0.1,3.7,0.2,5.5L524.2,316z M557.2,322.7c-2.9,1.4-5.4,5.1-7.7,7.4
	c-0.6,0.6-2.5,2-2.1,3c0.3,0.8,2.4,0.5,3,0.5c2.4,0,7.8,1,9.8-0.3c1.1-0.7,0.7-2.7,0.7-3.8C561.1,326.8,562,320.3,557.2,322.7
	 M485.6,419.3h-6.1c0,5.2,1.1,12-0.3,17c-5-1.2-11.2,1.2-16-0.5c-2.6-1-5.1-4.6-7-6.5c-2.9-2.9-7.7-6.2-9.5-9.9
	c-0.7-1.4-0.4-3.3-0.4-4.8c0-5,0.7-9.2,5.8-11.8c2.5-1.3,7.1-0.4,9.9-0.4h23.7V419.3z M454.2,409.2c-2.1,0.5-1.2,4,0.9,3.4
	C457.5,412,456.5,408.7,454.2,409.2z M471.2,425.9c-2.3,0.4-1.6,3.9,0.6,3.5C474.1,429.1,473.5,425.5,471.2,425.9z M390.8,479.6
	c-1.3,0.9-3.6,0.5-5.1,0.5h-12.8h-39h-11.5c-1.6,0-3.9,0.4-5.4-0.2c-4.5-1.7-3.2-12.6-2.8-16.4c0.2-1.6,0.7-3.6,2.2-4.5h0
	c1.4-0.8,3.8-0.3,5.4-0.3h12.8h39h11.2c1.6,0,3.9-0.4,5.4,0.2c1.8,0.7,2.3,2.6,2.5,4.3C393.1,467.1,394.3,477.1,390.8,479.6z
	 M328.4,469.9c-2.3-0.2-2.6,3.4-0.3,3.6C330.3,473.6,330.6,470.1,328.4,469.9z M353,473.3l-2.7-4.3c-0.7,0-1.4,0-2.1,0
	c0.9,1.5,1.8,2.9,2.7,4.3H353z M357,473.3c-1.9-2.9-3.8-5.9-5.8-8.7h-2c1.9,3,3.8,5.8,5.7,8.7C356.7,473.3,355.2,473.3,357,473.3z
	 M358,469.1c-0.9-1.4-2-3-2.9-4.5c-0.7,0-1.2,0-2,0c0.9,1.5,1.9,3,2.8,4.5H358z M377.8,470.1c-2,0.9-0.5,3.8,1.5,3.1
	C381.6,472.4,380,469.1,377.8,470.1z M369.1,491.3c0,5.1-0.3,7.9-4.6,11.3c-2,1.6-4.8,1.2-7.3,1.2c-5.9,0-10.4,0.7-14.7-4.2
	c-2.1-2.4-1.3-6.3-1.3-9.3c0-1-0.3-2.8,0.5-3.5c1.8-1.4,8.1-0.3,10.4-0.3h11.5c1.3,0,3.5-0.4,4.7,0.2
	C369.6,487.4,369.1,490.2,369.1,491.3z M354.7,493.4c-2.1,0.5-1.2,4.1,0.9,3.5C357.8,496.2,357,492.9,354.7,493.4z M451.9,450.4
	c-1.3,3.4-6.3,5.1-9.3,6.8c-7.1,4-14.1,8.2-21.1,12.2c-2.6,1.5-6.2,4.5-9.3,4.9c-7.9,0.8-10.9-7.5-14-13c-1.6-2.8-5-6.7-5.1-9.9
	c-0.1-3.2,3.2-7.8,4.8-10.6c4.6-8.1,7.1-17.1,17.6-18.7h0c5.7-0.9,12.5,0.2,18.2,0.8c2.3,0.2,4.9-0.3,7,0.8c2.4,1.3,3.8,5,5.1,7.3
	C449.5,437.3,454.8,442.8,451.9,450.4z M396,449.6c-2.2,0.9-0.6,4,1.5,3.1C399.5,451.9,398.1,448.8,396,449.6z M439.8,428.4
	c2.2-0.7,1-4.2-1.2-3.4C436.4,425.8,437.6,429.1,439.8,428.4z M408.8,465c-2,0.4-1.4,3.7,0.6,3.5C411.7,468.2,411.1,464.5,408.8,465
	z M420.6,456.9c-2.6-0.1-6.3-0.1-8,2.2c-1.4,1.9,2.1,7.6,4.2,7.8c2,0.2,6-2,6.3-4.1C423.4,460.9,423.2,457,420.6,456.9z
	 M416.1,426.5c-12.3,1.8-14.6,19.6-2.9,24.1c2.1,0.8,4.8,1,7,0.6C436,448.9,431.9,424.2,416.1,426.5z M429.6,458.5
	c-2.3,0.6-1,4.1,1.2,3.3C433,461.1,431.8,458,429.6,458.5z M441.6,448.1c-1-1.5-1.3-4.1-3.7-3.7l0,0c-2.6,0.5-6,4.2-6,6.9
	c-0.1,2.3,3.7,4.4,5.7,4.1C441.8,454.8,443.8,451.7,441.6,448.1z M445.9,443.5c-2.1,0.4-1.6,3.9,0.6,3.5
	C448.8,446.7,448.2,443.1,445.9,443.5z M227.1,286.9c-0.1,1.8-2.1,2.4-2.9,3.8c-0.9,1.6-0.3,3.5-2.3,4.3c-1.5,0.6-2.7-0.6-4.2-0.7
	c-1.6-0.1-2.9,1.3-4.5,0.7c-2.1-0.7-1.5-2.4-2.1-4c-0.8-2-4.6-3.6-2.5-6.2c0.6-0.8,1.6-1.2,2.1-2.1c1-1.6,0.3-3.8,2.5-4.6
	c1.4-0.5,2.5,0.5,3.8,0.6c1.9,0.2,4-1.7,5.7-0.1c1.1,1,0.8,2.8,1.6,4C225.3,284.1,227.2,285,227.1,286.9z M217.1,284.1
	c-3,0.6-2.1,5.5,1,4.8C221,288.3,220.1,283.5,217.1,284.1z M241.3,159.2c-5.5,6.4-10.7,13-16.1,19.5c-7.9,9.5-19.3,19.5-22.4,31.7
	c-1.6,6.3-2.7,13.7-2.3,20.2c0.2,3,1.5,8-0.7,10.5c-5,5.4-8.5-5.5-13-2.5c-1.9,1.3-3.2,5.2-3.5,7.3c-0.3,2-0.1,4.3-2.6,5
	c-2.3,0.6-4.4-1.8-3.9-4c0.7-3.4,7.6-9.2,3.8-13c-4.9-4.9-13,1.1-18.2-1.4c-6.8-3.2,2.5-8.6-0.2-12.4c-3.2-4.4-10.6,0.5-14.5,0
	c-1.9-0.3-3.1-2.4-2.6-4.2c1-3.2,4.1-1.8,6.4-1.6c4.6,0.4,10.8,0.1,15.4-0.8c4.5-0.9,6.7-9.4,8-13.2c1.5-4.7,4.1-11,3.8-16
	c-0.2-2.4-1.7-5.1-2.6-7.4c-2.1-5.8-4.4-11.5-6.7-17.3c-1.2-3-7.4-11.2-1.9-12.6v0c1.9-0.5,3.7,0.8,4,2.7c0.6,3.1,1.5,12.2,5.6,13
	c2.7,0.5,4.2-3.6,7.4-2.9c4.4,0.9,7.8,6.4,12.2,8.2c6.6,2.7,12,2,18.9,1.4c4.2-0.4,8-0.7,11.8-2.9c3.6-2.1,6.3-5.2,8.9-8.4
	c1.6-2,6.3-11.9,9.5-6C247.6,155.3,243.1,157.1,241.3,159.2z M167.8,148.8c-1.7,0.6-0.7,3,0.9,2.5
	C170.3,150.8,169.4,148.3,167.8,148.8z M148.3,215.5c-1.8,0-1.8,2.7,0,2.6C149.9,218.1,150,215.5,148.3,215.5z M164.3,226.7
	c-2.3-0.1-2.3,3.4,0,3.4C166.6,230.1,166.5,226.8,164.3,226.7z M180.2,246.3c-1.7-0.4-2.4,2.5-0.6,2.7
	C181.4,249.2,182,246.6,180.2,246.3z M184.1,165.7c2-0.7,1.1-3.9-0.9-3.4C180.9,162.9,181.9,166.5,184.1,165.7z M180.5,198.1
	l3.8,1.2l7.5-6.4l-3.8-1.2C185.1,194.3,184.9,194.5,180.5,198.1z M196,236.5c-2.1,0.6-1.3,3.9,0.9,3.4
	C199,239.3,198.2,235.9,196,236.5z M198.4,203.6c-1-0.3-2.7-0.8-3.8-1.2c-2.4,2.1-5,4.3-7.5,6.4v0.1l3.8,1.1
	C194.3,207,194.6,206.8,198.4,203.6z M198.9,195c-1.3-0.3-2.3-0.7-3.8-1.2c-7.5,6.4-8.6,7.3-15.2,12.8c1.3,0.5,2.6,0.9,3.8,1.3
	C186.2,205.8,191.1,201.8,198.9,195z M215.2,172.1c-2.1,0.6-1.1,3.6,0.9,3.2C218.6,174.9,217.6,171.5,215.2,172.1z M242.4,152.3
	c-1.6,0.6-0.7,3,0.9,2.4C245,154.2,244.1,151.7,242.4,152.3z M562.8,377.4c-1.6,3.6-8,3.4-11.3,4.2c-1.7,0.4-4.2,0.9-4.1,3.2
	c0.1,1.2,1.1,2.2,2.2,2.6c1.5,0.5,3-0.6,4.5-0.3c3.2,0.7,4.3,5,1.6,7c-3.4,2.5-4.9-1.3-7.1-3c-2.5-2-10-5.3-13.1-4
	c-10.3,4.4-22.5,12.5-28.7,22c-2.1,3.2-5.1,7.8-5.9,11.5c-0.6,2.5,0.9,5.8-2.8,6.6c-2.8,0.6-5.4-1.8-4.7-4.7
	c0.8-3.1,5.2-3.3,5.6-6.9c0.3-2.2-2.6-4.1-3-6.3c-1.4-7.4-1.8-13.6-7.3-19.5c-2.3-2.5-5.2-4-7.6-6.2c-1.7-1.5-1.7-4.4-3.9-5.4
	c-3.7-1.7-9.2,4.9-11.3-1.2c-0.9-2.6,1.5-5.4,4.3-5c1.9,0.3,3.2,2.1,5.1,2.4c15.6,2.1,32.9-4.1,45.1-13.7c2.6-2,3.4-9.9,3-13.1
	c-0.4-2.7-3.1-6.4,1.2-7.8h0c2.6-0.8,5.5,1,5.2,4c-0.2,2.2-5.9,7-0.8,8.2c1.8,0.4,3.1-1.3,4.2-2.4c2.5-2.5,5.4-8.3,9.6-7.3
	c5,1.1,3.6,8.9,4.8,12.8c2.2,7.3,7.1,12.2,13.1,16.5C562.6,372.9,563.8,375.2,562.8,377.4z M470.1,375.7c0-0.5-0.4-0.9-0.9-0.9
	c-0.5,0-0.9,0.4-0.9,0.9c0,0.5,0.4,0.9,0.9,0.9C469.7,376.6,470.1,376.2,470.1,375.7z M483,378.6c-2.2,0.9-0.6,4,1.5,3.1
	C486.5,380.8,485.1,377.8,483,378.6z M496.8,422.8c-0.9,0.3-0.5,1.7,0.5,1.4C498.2,423.9,497.8,422.5,496.8,422.8z M499.7,407.7
	c-2,0.9-0.6,3.9,1.5,3.1C503.3,410,501.8,406.8,499.7,407.7z M516.7,370.5c-1.1,0.6-2.2,1.2-3.3,1.9l-0.6,9.9l3.5-1.9
	C516.6,374.2,516.7,372.7,516.7,370.5z M523.5,365.9c-1.2,0.8-2.6,1.6-3.8,2.3c-0.5,11.4-0.6,11.6-1.2,20.9c1.4-0.8,2.9-1.7,4.3-2.5
	C523.5,371.7,523.4,371.9,523.5,365.9z M526.1,344.1c0.9-0.2,0.4-1.6-0.5-1.3C524.8,343.1,525.3,344.3,526.1,344.1z M528.9,373
	l-3.3,1.9c-0.2,3.3-0.3,6.6-0.5,9.9l3.4-1.8C528.6,379.6,528.7,376.3,528.9,373z M541.9,344.8c-2.2,0.1-2.2,3.4,0,3.4
	C544.2,348.2,544.2,344.7,541.9,344.8z M553.2,391.7c0.8,0.3,1.3-1,0.5-1.3C552.8,390.1,552.3,391.4,553.2,391.7z M558,374.1
	c-2,0.8-0.6,3.9,1.5,3.1C561.4,376.3,560,373.2,558,374.1z M561.4,301.7v-16.6l-5.9-0.5l-0.5-4.3v-12.2h-18.2c-2.3,0-5.9-0.7-8,0.4
	c-5.1,2.6-5.4,6.8-5.4,11.8c0,1.5-0.3,3.4,0.4,4.8c2,3.9,7.1,7.5,10.2,10.6c1.8,1.8,3.8,4.5,6.1,5.7c1.8,0.9,4.7,0.4,6.7,0.4H561.4"
	/>
</svg>
