<svg xmlns="http://www.w3.org/2000/svg" viewBox="0 0 868.89 1003.31"><defs><style>.cls-1{fill:#d61e39;}.cls-2{fill:#231f20;}.cls-3{fill:#323534;}</style></defs><g id="Layer_2" data-name="Layer 2"><g id="Layer_2-2" data-name="Layer 2"><path class="cls-1" d="M82.39,729.39l-4.85-18.1a12.24,12.24,0,0,0-5.71-7.44L58.92,696.4A18.13,18.13,0,0,0,34.15,703c-.14.26-.29.52-.42.78L22.54,725.59A12.56,12.56,0,0,0,28,742.5l.15.07L66,761.43l11.48-3.08-.12-.42-6.48-24.19,10.65-2.85a1.3,1.3,0,0,0,.69-.48l.13-.25.07-.26v-.27ZM32.91,718.68a2.15,2.15,0,1,1-2.14,2.14A2.14,2.14,0,0,1,32.91,718.68Zm5,16.85-5.73,1.54-4.2-4.2,1.53-5.74,5.74-1.54,4.2,4.21Zm12-9A14.46,14.46,0,1,1,64.31,712.1,14.45,14.45,0,0,1,49.85,726.55ZM67.05,753a2.15,2.15,0,1,1,2.15-2.14A2.14,2.14,0,0,1,67.05,753Zm2.77-37.47A2.15,2.15,0,1,1,72,713.36,2.15,2.15,0,0,1,69.82,715.51Z"/><path class="cls-2" d="M97.36,673.84,91,647.48a3.71,3.71,0,0,0-1.66-2.27l-5-3a3.68,3.68,0,0,0-5,1.23L57.6,679a3.69,3.69,0,0,0,1.23,5l23,14a2.45,2.45,0,0,0,3.37-.82l11.42-18.76A6.16,6.16,0,0,0,97.36,673.84Zm-5.82-3.2a1.21,1.21,0,0,1-.93-.14L85,667.05a1.21,1.21,0,0,1-.41-1.68L88,659.7a1.22,1.22,0,0,1,2.24.35l2.22,9.11A1.23,1.23,0,0,1,91.54,670.64Z"/><path class="cls-2" d="M311.82,569.11l-12.52-7.23a94.91,94.91,0,0,0-21.95-9.22A48.85,48.85,0,0,1,266,547.9l-50.43-29.12a34.2,34.2,0,0,0-23.8-3.91l-46.88,9.39a12.25,12.25,0,0,0-8.21,5.89l-41,71a12.29,12.29,0,0,0-1,10.05L110,656.5a34.13,34.13,0,0,0,15.29,18.65l50.43,29.12a49.28,49.28,0,0,1,9.8,7.44,94.88,94.88,0,0,0,18.95,14.4L217,733.33a4.9,4.9,0,0,0,6.5-1.48h0l90.28-156.38h0A4.9,4.9,0,0,0,311.82,569.11ZM107.2,592.29l-.07.44-.13.42-.18.4-.23.39-.26.35-.31.32-.35.28-.38.22-.2.09-.21.07-.22,0-.22,0h-.22l-.22,0a1.51,1.51,0,0,1-.66-.38l-.14-.17-.12-.19-.09-.2-.07-.21,0-.22,0-.22v-.44l.07-.44.12-.43.17-.4.22-.39.26-.36.31-.32.34-.28.37-.24.21-.09.2-.07.22,0,.22,0h.22l.22,0,.21.06.2.1.18.12.17.16.13.17.11.19.09.21.06.21,0,.22,0,.22Zm61.18-29.22.07-.44.12-.43.18-.4.22-.39.26-.36.3-.32.34-.29.38-.23.2-.09.21-.07.21-.06.22,0h.22l.22,0,.22.06.2.1.18.12.16.15.13.18.12.19.08.2.06.22,0,.21,0,.23,0,.44-.07.43-.13.43-.18.4-.22.39-.27.35-.31.32-.34.28-.38.22-.21.09-.21.07-.22,0-.22,0h-.22l-.22,0a1.51,1.51,0,0,1-.66-.38l-.14-.17-.12-.19-.09-.2-.07-.21,0-.22,0-.22Zm-36.07-20.83.06-.44.13-.43.17-.4.22-.39.26-.36.3-.32.34-.28.38-.24.2-.09.21-.07.22-.05.22,0h.22l.22,0,.21.06.2.1.18.12.16.16.14.17.11.19.09.21.06.21,0,.22,0,.22v.44l-.08.44-.13.42-.18.4-.22.39-.27.35-.3.32-.35.28-.38.22-.21.09-.21.07-.21,0-.22,0h-.22l-.22,0a1.51,1.51,0,0,1-.66-.38l-.15-.17-.11-.19-.1-.2-.06-.21,0-.22,0-.22Zm-5.49,64.81-.58-.12-.57-.15-.57-.17-.55-.18-.56-.21-.51-.42-.5-.44-.47-.46-.46-.48-.43-.49-.42-.52-.4-.53-.38-.54-.36-.56-.34-.57-.32-.59-.3-.59-.29-.6-.26-.62-.47-1.24-.21-.63-.18-.63-.31-1.29-.25-1.3-.19-1.32-.15-1.32-.13-1.32-.11-1.32-.14-1.32,18.89-32.73,1.21-.53,1.2-.56,1.21-.56,1.22-.53,1.24-.49,1.25-.44,1.27-.37.64-.16.65-.14,1.31-.21.66-.08.67-.05.66,0h1.33l.67,0,.66.06.66.08.65.1.65.13.64.16.64.18.63.21.62.23.45.38.44.39.43.4.41.43.4.43.38.45.72.93.66,1,.59,1,.54,1,.47,1.08.41,1.1.36,1.12.3,1.14.25,1.16.19,1.16.15,1.17.09,1.17.06,1.18v1.18l0,1.18-.08,1.17-.11,1.17-.16,1.17-.19,1.17-.23,1.15-.26,1.15-.29,1.14-.33,1.13-.36,1.13-.39,1.11-.42,1.1-.45,1.09-.48,1.07-.51,1.07a44.23,44.23,0,0,1-2.91,5l-.67,1-.69,1-.72.93-.74.92-.77.89-.79.87-.82.85-.84.83-.86.8-.89.77-.91.75-.94.72-1,.69-1,.65-1,.62-1,.58-1,.55-1.06.5-1.09.46-1.1.41-1.12.36-1.14.31-1.15.25-1.16.2-1.18.13-1.17.06h-1.18l-1.18-.08-1.16-.16Zm16.47,5.63v.44l-.08.43-.13.43-.18.4-.22.39-.27.35-.3.32-.35.28-.38.22-.2.09-.22.07-.21,0-.22,0h-.22l-.22,0a1.51,1.51,0,0,1-.66-.38l-.15-.17-.11-.19-.1-.2L139,615l-.05-.22,0-.22v-.44l.06-.44.13-.43.17-.4.22-.39.26-.36.3-.32.34-.29.38-.23.2-.09.21-.07.22-.05.22,0h.22l.22,0,.21.06.2.1.18.12.16.15.14.18.11.19.09.2.06.22,0,.21Zm55.25,87.54a3.37,3.37,0,0,1-6.74,0h0a3.37,3.37,0,0,1,6.74,0Zm11,20a2.88,2.88,0,1,1,2.88-2.88A2.88,2.88,0,0,1,209.57,720.18Zm49.77-75.56a6.37,6.37,0,1,1-12.74,0h0a6.37,6.37,0,1,1,12.74,0Zm9-70.17L199.89,693a3.67,3.67,0,0,1-3.8,1.78,5.52,5.52,0,0,0-5.66,2.62,3.66,3.66,0,0,1-5,1.3l-53.05-30.63c-.4-.23-.8-.47-1.19-.73a6.12,6.12,0,0,1-1.94-8.18l74.45-128.95a6.12,6.12,0,0,1,8.06-2.41c.41.21.82.43,1.22.66L266,559.09a3.66,3.66,0,0,1,1.37,5,5.51,5.51,0,0,0,.57,6.2A3.7,3.7,0,0,1,268.33,574.45Zm7.26-7.68a3.37,3.37,0,0,1-6.74,0h0a3.37,3.37,0,1,1,6.74,0Zm18.62,6.8a2.88,2.88,0,1,1,2.88-2.88A2.87,2.87,0,0,1,294.21,573.57Z"/><path class="cls-2" d="M124.85,522.19l-7.44-4.3a5.41,5.41,0,0,0-4.09-.54l-7,1.88a5.43,5.43,0,0,0-3.27,2.51L92.61,539.8a5.41,5.41,0,0,0-.53,4.09l1.87,7a5.43,5.43,0,0,0,2.52,3.28l7.43,4.29a4.41,4.41,0,0,0,6-1.61l16.54-28.65A4.41,4.41,0,0,0,124.85,522.19Zm-13.16,14.48a3.68,3.68,0,1,1-7.35,0h0a3.68,3.68,0,0,1,7.35,0Z"/><path class="cls-2" d="M56.44,502.1H19.69v13h-1v7.35h1V531H27a6.13,6.13,0,0,0,4.33-1.8l.57-.57a6.13,6.13,0,0,1,4.33-1.8H56.44a3.67,3.67,0,0,0,3.68-3.67v-17.4A3.67,3.67,0,0,0,56.44,502.1Zm-8.33,12.25a3.31,3.31,0,1,1-6.61,0v-1a3.31,3.31,0,1,1,6.61,0Z"/><path class="cls-2" d="M110.15,480.73a12.25,12.25,0,0,0-3.4-.48h-.22a.74.74,0,0,1-.74-.73.71.71,0,0,1,.14-.43,4.65,4.65,0,0,0-1.08-6.49,4.59,4.59,0,0,0-2.39-.86,2.46,2.46,0,0,1-2.28-2.45V443.66a2.46,2.46,0,0,1,2.28-2.45,4.65,4.65,0,0,0,3.47-7.35.74.74,0,0,1,.17-1,.71.71,0,0,1,.43-.13h.22a12.26,12.26,0,0,0,3.4-.49l10.78-3.11a16.65,16.65,0,0,0-15.14-9.73H83.56a111,111,0,0,0-15.35,1.07,53.47,53.47,0,0,0-17.76,5.78v21.56l-.38.45-.41.47-.88.94-.44.43-.43.4-.45.38-.45.36-.16.15-.12.16-.06.16,0,.14v9.31l0,.14.06.16.12.16.16.15.45.36.45.38.43.4.44.43.88.94.41.47.38.45v23.28c1.54.52,3.11,1,4.69,1.41a110.42,110.42,0,0,0,28.42,3.72h22.23a16.65,16.65,0,0,0,15.14-9.73ZM110,425.29a2.88,2.88,0,1,1-2.87,2.88A2.88,2.88,0,0,1,110,425.29Zm-48.27,49.1-.39-.31h0l-.43-.34h0l-.24-.19-.83-.73.1.08-.18-.16a.27.27,0,0,1-.08-.07l-.3-.29.24.24-.89-.89-.16-.18.07.07-.53-.59.07.08-.34-.37-.35-.45c0,.05.09.1.13.16l-.52-.67,0,.06-.12-.15-.76-1.09v0c.13.21.29.41.43.62l-.36-.52-.47-.76.22.37-.51-.83-.14-.27.12.2-.45-.82a.61.61,0,0,1,.07.14l-.22-.42-.29-.62.19.38-.39-.84L54,464c.15.42.31.84.49,1.25l-.08-.17L54,463.86l0-.07L54,464l-.32-.95c0,.15.09.31.14.46l-.29-.93-.09-.34.09.32-.26-1a1,1,0,0,1,0,.17l-.12-.46-.13-.69c0,.19.08.39.13.59l-.2-1L52.84,459c0,.39.09.78.16,1.16l0-.15-.18-1.32v-.08c0,.1,0,.2,0,.3l-.09-1.1c0,.13,0,.26,0,.38l-.06-.83V457c0,.13,0,.27,0,.41l0-1.11s0,.08,0,.11V456l0-.76c0,.31,0,.62,0,.93l0-1.22.09-1c0,.27-.07.54-.09.82v-.1l.14-1.32,0-.14,0,.33.15-1c0,.07,0,.14,0,.21l.12-.71.11-.5c0,.15-.06.29-.08.44l.19-.92.13-.46c0,.15-.09.3-.13.46l.07-.32.37-1.28a2.86,2.86,0,0,0-.07.28l.4-1.19.49-1.22.57-1.18.63-1.15.7-1.12.76-1.07.82-1,.89-1c.34-.36.69-.7,1.06-1l-.21.21a23.38,23.38,0,0,0,.58,33.06A24.37,24.37,0,0,0,62.65,475c-.43-.29-.85-.6-1.26-.92ZM67,478.55c-2.25-1-3.89-2.23-4.12-4.86-.21-2.35.27-3.89,3-4.36,1.49-.25,2-1.9,2-3.52q-.08-9.37,0-18.74a4,4,0,0,0-2.14-3.49c-4-2.73-3.67-6.31.85-8.28,9.09-4,23.72,1.64,26.89,8.9,1.83,4.19,3.81,8.21,3.35,12.78C98.21,473.66,78.76,483.65,67,478.55Zm31.47-42a3.68,3.68,0,0,1,7.35,0h0a3.68,3.68,0,1,1-7.35,0Zm3.67,43.51a3.67,3.67,0,0,1-3.67-3.68h0a3.68,3.68,0,0,1,7.35,0h0A3.67,3.67,0,0,1,102.14,480.06Zm7.9,7.6a2.88,2.88,0,1,1,2.88-2.88A2.88,2.88,0,0,1,110,487.66Z"/><path class="cls-2" d="M86.72,293.85a3.68,3.68,0,0,0-4-3.35l-20.17,1.77a6.15,6.15,0,0,1-4.47-1.41l-.62-.53a6.12,6.12,0,0,0-4.47-1.4l-7.24.63.75,8.54-1,.09.64,7.32,1-.09,1.13,12.94,36.61-3.2a3.68,3.68,0,0,0,3.34-4ZM72.61,308.24a3.31,3.31,0,0,1-3.58-3l-.09-1a3.31,3.31,0,1,1,6.59-.57l.09,1A3.32,3.32,0,0,1,72.61,308.24Z"/><path class="cls-1" d="M116.35,245.36l0-.28-.08-.27-.11-.26-.13-.26-12.8-22.18c.1-.15.19-.31.28-.47l.11-.29,0-.3,0-.31-.11-.28-2.9-5-.19-.24-.24-.19-.28-.13-.3,0a4.66,4.66,0,0,0-4.55,3l-9.49,5.48-.29.15-.3.13-.63.2-.63.15L83,224a4.66,4.66,0,0,0-4,3.32,4.72,4.72,0,0,0-.19,1.54v.36l0,.35,0,.35-.07.34-.09.32-.12.31-.15.31-.17.28a13.55,13.55,0,0,1-4.25,3.9L50.69,248.78a3.86,3.86,0,0,0-1.93,3.34v12.73l0,.33,0,.33.08.32.09.32.12.31.14.3.15.3,3.35,5.79.15.23.17.22.19.2.22.18.22.17L54,274l.25.11.26.09.52.13.55.05h.57l.59-.06.6-.13.6-.19.59-.24.56-.29,36.06-20.82a3.67,3.67,0,0,1,4.67.84l.28.32.31.3.32.28.35.25.3.18.31.13.22.08.23,0,.23,0h.23l.24,0,.23,0,.21-.08.21-.1,11.45-6.61.24-.15.22-.17.21-.2.18-.21.17-.24.14-.24.11-.26.09-.27.06-.28,0-.28v-.29Zm-35-16.7a2.08,2.08,0,1,1,4.16,0h0a2.08,2.08,0,1,1-4.16,0Zm15,16.22-27.64,16A4.9,4.9,0,0,1,62,259.05l-1.22-2.13a4.89,4.89,0,0,1,1.79-6.69L90.2,234.28a4.88,4.88,0,0,1,6.69,1.79l1.22,2.12A4.89,4.89,0,0,1,96.32,244.88Zm5.1-25.39a2.09,2.09,0,1,1-4.17,0h0a2.09,2.09,0,0,1,4.17,0Z"/><path class="cls-1" d="M134.46,267.16l-8-13.79a1.22,1.22,0,0,0-1.67-.45l-6.37,3.68a6.12,6.12,0,0,0-2.24,8.36l3.06,5.31a6.13,6.13,0,0,0,8.37,2.24l6.37-3.68A1.23,1.23,0,0,0,134.46,267.16Zm-6.9-3.21a3.46,3.46,0,0,1-6.91,0h0a3.46,3.46,0,1,1,6.91,0Z"/><path class="cls-2" d="M156.42,289.55H159a1.22,1.22,0,0,0,1.22-1.22v-8.58a1.22,1.22,0,0,0-1.22-1.22h-3.21a4.84,4.84,0,0,0-2.44.65,36.78,36.78,0,0,1-35,.84,13.7,13.7,0,0,0-6.22-1.49H99.22A1.22,1.22,0,0,0,98,279.75v1A1.23,1.23,0,0,0,99.22,282h2.45a2.08,2.08,0,0,1,0,4.16H99.22A1.23,1.23,0,0,0,98,287.35v.42a4.93,4.93,0,0,0,1.15,3.15l2.72,3.24a4.11,4.11,0,0,1,.27.35l-.08.09-.47.55-.51.56-.52.54-.52.5-.32.35-.31.34-.29.32-.27.31-.16.23-.11.24-.07.27,0,.27V307l0,.27.07.27.11.24.16.23.27.31.29.32.31.34.32.35.52.5.52.54.51.56.47.55.08.09a4.11,4.11,0,0,1-.27.35l-2.72,3.24A4.93,4.93,0,0,0,98,318.28v.43a1.23,1.23,0,0,0,1.23,1.22h2.45a2.09,2.09,0,0,1,0,4.17H99.22A1.22,1.22,0,0,0,98,325.32v1a1.22,1.22,0,0,0,1.23,1.22H112.1a13.7,13.7,0,0,0,6.22-1.49,36.78,36.78,0,0,1,35,.84,4.84,4.84,0,0,0,2.44.65H159a1.22,1.22,0,0,0,1.22-1.22v-8.57A1.23,1.23,0,0,0,159,316.5h-2.58a3.67,3.67,0,0,1-3.67-3.67v-19.6A3.67,3.67,0,0,1,156.42,289.55Zm-46,31.18a2.15,2.15,0,1,1,2.15-2.15A2.14,2.14,0,0,1,110.45,320.73Zm0-31.12a2.15,2.15,0,1,1,2.15-2.14A2.14,2.14,0,0,1,110.45,289.61Zm37.46,24.44a2.45,2.45,0,0,1-2.45,2.45H117.71a2.44,2.44,0,0,1-2-1,1.21,1.21,0,0,1,.74-.24h2a1.23,1.23,0,0,0,1.22-1.23V292a1.22,1.22,0,0,0-1.22-1.22h-2a1.22,1.22,0,0,1-.74-.25,2.44,2.44,0,0,1,2-1h27.75a2.45,2.45,0,0,1,2.45,2.45Zm6.8,6.74a2.15,2.15,0,1,1-2.14,2.14A2.14,2.14,0,0,1,154.71,320.79Zm-2.14-37.67a2.14,2.14,0,1,1,2.14,2.14A2.14,2.14,0,0,1,152.57,283.12Z"/><path class="cls-2" d="M213,314.78l0-.19-.08-.18-.14-.12-4.25-2.45-.67.18-.06.11-3.18-1.84,7.5-13a1,1,0,0,0-.36-1.34L192.9,285.05a1.25,1.25,0,0,0-1.68.45l-7.38,12.79a1.22,1.22,0,0,0,.45,1.67l12.09,7a.6.6,0,0,1,.23.83l-3.06,5.3.87.5-3.92,6.79-.87-.5-2.21,3.82.87.5L184.37,331l-.87-.5-3.06,5.31a.62.62,0,0,1-.84.22l-15.27-8.82a1.25,1.25,0,0,0-1.68.45l-12.11,21a6.12,6.12,0,0,0,.83,7.24,48.81,48.81,0,0,0,11.3,9l17.19,9.92a1.22,1.22,0,0,0,1.67-.44l.88-1.53a3.68,3.68,0,0,0,.37-2.79l-.11-.4-.94-.54L213,315Zm-48.92,39.61a3.68,3.68,0,1,1-7.35,0h0a3.68,3.68,0,0,1,7.35,0Zm20.77-4-1.81,3.13a3.67,3.67,0,0,1-5,1.34l-7.21-4.16a3.68,3.68,0,0,1-1.35-5l1.81-3.13a3.67,3.67,0,0,1,5-1.34l7.21,4.16A3.68,3.68,0,0,1,184.89,350.38ZM197.31,297a3.68,3.68,0,1,1,3.68-3.68A3.67,3.67,0,0,1,197.31,297Z"/><path class="cls-2" d="M167.16,388.24,138.51,371.7a4.41,4.41,0,0,0-6,1.61l-4.3,7.44a5.41,5.41,0,0,0-.53,4.09l8.6,32.11a5.41,5.41,0,0,0,2.51,3.28l7.44,4.29a4.4,4.4,0,0,0,6-1.61l16.54-28.65A4.4,4.4,0,0,0,167.16,388.24Zm-29.23.39a3.67,3.67,0,0,1-3.67-3.68v0a3.68,3.68,0,0,1,7.35,0h0A3.67,3.67,0,0,1,137.93,388.63Zm10.86,23.11a3.68,3.68,0,0,1-7.35,0h0a3.68,3.68,0,0,1,7.35,0Z"/><path class="cls-2" d="M248.29,157.71l-8.58-14.85a6.12,6.12,0,0,0-8.36-2.24l-90.92,52.49a6.13,6.13,0,0,0-2.24,8.37l7.35,12.73a1.22,1.22,0,0,1-.45,1.67L127.61,226a3.67,3.67,0,0,0-1.34,5l17.15,29.7a3.68,3.68,0,0,0,5,1.35h0l20-11.56,0,0,.37-.25.33-.29.3-.33.25-.37,0,0a28.1,28.1,0,0,1,10.15-10l.47-.27a4.38,4.38,0,0,0,1.85-2.07,24.52,24.52,0,0,1,10.23-11.49l28-16.15a12.25,12.25,0,0,0,5.71-7.44l7.89-29.46a6.11,6.11,0,0,1,2.86-3.72l10-5.79A3.68,3.68,0,0,0,248.29,157.71ZM140.55,234.54a3.31,3.31,0,1,1,3.31-3.31A3.31,3.31,0,0,1,140.55,234.54Zm6-33.88-.22-.34-.18-.36-.12-.38-.07-.4v-.4l0-.4.1-.39.15-.37.21-.34.26-.32.29-.27.33-.23.36-.18.39-.12.39-.08h.4l.4,0a2.85,2.85,0,0,1,2.3,3.3,2.64,2.64,0,0,1-.13.46l-.16.37-.21.34-.26.31-.3.26-.34.23-.36.17-.39.12-.39.06h-.41l-.4-.05-.38-.11-.37-.16-.35-.21-.31-.25Zm3.82,50.85a3.31,3.31,0,1,1,3.31-3.31A3.31,3.31,0,0,1,150.35,251.51Zm14-59.46a2.15,2.15,0,1,1,2.14-2.15A2.15,2.15,0,0,1,164.36,192.05Zm20.88-16.31.1-.39.16-.37.21-.34.25-.31.3-.28.33-.23.36-.18.38-.12.4-.07.4,0,.4,0a2.75,2.75,0,0,1,.47.13,2.84,2.84,0,0,1,1.7,3.63l-.16.37-.22.34-.26.31-.3.27-.33.22-.37.17-.38.12-.4.07h-.4l-.4,0-.39-.1-.37-.16-.34-.21-.31-.26-.27-.3-.23-.33-.17-.36-.13-.39-.06-.39v-.41Zm.25,47.06a2.15,2.15,0,1,1-4.29,0h0a2.15,2.15,0,0,1,4.29,0Zm18.77-24.12a14.09,14.09,0,1,1-18.78-15.07,2.61,2.61,0,0,1,1.27-.11,7.33,7.33,0,0,0,4.11-.45,2.45,2.45,0,0,1,1.26-.16A14.08,14.08,0,0,1,204.26,198.68Zm14.11,5.13a2.14,2.14,0,1,1-4.28,0h0a2.14,2.14,0,1,1,4.28,0Zm-1.69-34.44a3.31,3.31,0,1,1,3.31-3.31A3.31,3.31,0,0,1,216.68,169.37Zm17-9.8a3.31,3.31,0,1,1,3.3-3.31A3.31,3.31,0,0,1,233.66,159.57Z"/><path class="cls-2" d="M257.67,240.22l-27.69-16a12.3,12.3,0,0,0-7.19-1.6l-3.61.32a4.81,4.81,0,0,1-2.87-.64l-2.6-1.5a4.9,4.9,0,0,0-6.69,1.8l-2.62,4.53a1.23,1.23,0,0,0,.45,1.68l6.36,3.67a1.22,1.22,0,0,1,.45,1.67l-15.92,27.59-1.68.45-4.63-2.68-.24-.11-.25-.08-.25,0-.27,0-.24.06-.24.12-.2.16-.15.21-3,5.12-.09.19,0,.2,0,.21,0,.21.07.19.11.18.15.15.17.12,3.78,2.27,3.77,2.26,1.92,1.15,1.95,1.17,3.91,2.34.55.32.56.29.57.27.58.26.59.23.6.21.61.18.61.17.43.08.43,0h.44l.43-.05.5-.1.49-.13.49-.16.47-.19.48-.22.46-.25.45-.28.45-.3.43-.33.41-.36.4-.38.38-.4.35-.41.34-.44.31-.45.28-.47,2.5-4.31a2.43,2.43,0,0,1,3.34-.9l17,9.8a3.68,3.68,0,0,0,5-1.35L259,245.24A3.68,3.68,0,0,0,257.67,240.22Zm-39.83,11.66-6.12,10.61a3.19,3.19,0,0,1-5.52-3.19l6.13-10.61a3.18,3.18,0,0,1,5.51,3.19Zm16.79,14.41a3.31,3.31,0,1,1,3.31-3.31A3.31,3.31,0,0,1,234.63,266.29Zm9.8-17a3.31,3.31,0,1,1,3.31-3.31A3.31,3.31,0,0,1,244.43,249.32Z"/><path class="cls-2" d="M291.44,201.25H249.79a3.68,3.68,0,0,0-3.68,3.68v5.83a3.69,3.69,0,0,0,1.08,2.6l19.18,19.18a6.15,6.15,0,0,0,4.33,1.79h22a2.45,2.45,0,0,0,2.45-2.45h0V204.93A3.67,3.67,0,0,0,291.44,201.25ZM267,225a1.22,1.22,0,0,1-2.09.86l-6.63-6.63a1.23,1.23,0,0,1,.87-2.09h6.63A1.22,1.22,0,0,1,267,218.4Z"/><path class="cls-2" d="M304.47,124.78l-9.8-17a2.45,2.45,0,0,0-3.35-.89L252.6,129.26a2.45,2.45,0,0,0-.9,3.35l11.41,19.77a9.77,9.77,0,0,1,1.31,5.23A16.54,16.54,0,1,0,297,154.22a36.74,36.74,0,0,1,.2-18.25l.27-1a9.77,9.77,0,0,1,4.57-5.95l1.52-.88A2.45,2.45,0,0,0,304.47,124.78Zm-37,13.35a3.31,3.31,0,1,1,3.31-3.31A3.31,3.31,0,0,1,267.47,138.13Zm21.1,20a7.62,7.62,0,1,1-15.24,0v0a7.62,7.62,0,0,1,15.24,0Zm.65-32.6a3.31,3.31,0,1,1,3.31-3.31A3.31,3.31,0,0,1,289.22,125.57Z"/><path class="cls-2" d="M426,134.73l-.13-.52-.18-.5-.24-.48L409.2,105.08a1.22,1.22,0,0,0-1.67-.45L387.79,116a.48.48,0,0,1-.67-.18L375.24,95.26a.5.5,0,0,1,.18-.67h0L395.15,83.2a1.22,1.22,0,0,0,.45-1.67L379.35,53.37l-.3-.44-.34-.41-.39-.37-.43-.31-.45-.25L377,51.4l-.49-.13-.49-.06h-.49l-.49.08-.46.14-.43.21-27.2,15.71-.54.35-.48.41-.44.45-.37.51-.32.55-.25.58-6.23,16.93-.26.59-.31.55-.38.5-.44.46-.48.41-.53.35-26,15-.54.35-.48.41-.44.45-.38.51-.31.55-.26.58-.47,1.28-.18.58-.11.59-.05.6,0,.59.08.59.15.58.21.57.28.54,29.77,51.56.33.51.38.47.43.41.47.37.5.31.54.26.57.2.59.13,1.35.23.63.08h.63l.63-.08.62-.15.59-.21.57-.29,26-15,.57-.29.59-.22.62-.15.63-.07H375l.63.07L393.45,155l.63.08h.63l.63-.08.62-.15.59-.21.57-.29,27.2-15.71.4-.27.36-.32.31-.38.25-.42.2-.46.13-.49.07-.51v-.52ZM356.41,94.25a3.68,3.68,0,1,1-3.67,3.68A3.68,3.68,0,0,1,356.41,94.25Zm-32.88,26.34a3.68,3.68,0,1,1,3.67-3.67A3.68,3.68,0,0,1,323.53,120.59Zm19,32.89a3.68,3.68,0,1,1,3.68-3.68A3.67,3.67,0,0,1,342.51,153.48Zm22.88-29.61a15.93,15.93,0,0,1-31.85,0h0a15.93,15.93,0,0,1,31.85,0Zm4.35-52h0a6.13,6.13,0,0,1,12.25,0h0a6.13,6.13,0,0,1-12.25,0Zm5.66,62.65a3.68,3.68,0,1,1,3.67-3.67A3.68,3.68,0,0,1,375.4,134.49ZM413.84,127a6.13,6.13,0,1,1-12.25,0h0a6.13,6.13,0,1,1,12.25,0Z"/><path class="cls-1" d="M359.47,179l-5-1.8-.42,1.15-6.37,17.5a1.23,1.23,0,0,1-1.57.73l-32.69-11.9a1.22,1.22,0,0,1-.74-1.57l6.37-17.5.42-1.15-4.95-1.8a3.68,3.68,0,0,0-4.71,2.2l-6.7,18.42a7.35,7.35,0,0,0,4.39,9.42l38,13.82a7.35,7.35,0,0,0,9.42-4.39l6.7-18.42A3.67,3.67,0,0,0,359.47,179Zm-29.11,16a2.14,2.14,0,1,1-4.28,0h0a2.14,2.14,0,0,1,4.28,0Z"/><path class="cls-2" d="M363.14,221.22H309.41a1.23,1.23,0,0,0-1.22,1.23v9.8a1.22,1.22,0,0,0,1.22,1.22h53.73a1.22,1.22,0,0,0,1.22-1.22v-9.8A1.23,1.23,0,0,0,363.14,221.22Zm-24.78,8.58a2.09,2.09,0,0,1-4.17,0h0a2.09,2.09,0,1,1,4.17,0Z"/><path class="cls-2" d="M424.48,170.67h-32a12.22,12.22,0,0,0-7,2.22l-3,2.07a4.86,4.86,0,0,1-2.81.89h-3a4.9,4.9,0,0,0-4.9,4.9V186a1.22,1.22,0,0,0,1.22,1.23h7.35a1.23,1.23,0,0,1,1.23,1.22v31.85l-1.23,1.23H375l-.25,0-.26.06-.23.1-.22.15-.19.18-.14.22-.09.24,0,.25v5.92l0,.21.05.2.09.18.13.17.16.13.18.1.2.06.21,0,4.41.07,4.4.08,2.24,0,2.27,0,4.55.07h.64l.63,0,.63,0,.63-.08.63-.09.62-.12.62-.14.61-.17.42-.14.39-.18.38-.22.35-.26.38-.33.36-.36.34-.38.32-.41.3-.43.27-.44.26-.47.23-.49.21-.5.18-.51.15-.53.13-.53.1-.54.07-.55.05-.54V216a2.45,2.45,0,0,1,2.45-2.45h19.6a3.68,3.68,0,0,0,3.68-3.68V174.35A3.68,3.68,0,0,0,424.48,170.67Zm-28.66,42.26a3.19,3.19,0,0,1-6.37,0V200.68a3.19,3.19,0,0,1,6.37,0Zm20.09-7.71a3.31,3.31,0,1,1,3.3-3.31A3.31,3.31,0,0,1,415.91,205.22Zm0-19.6a3.31,3.31,0,1,1,3.3-3.31A3.31,3.31,0,0,1,415.91,185.62Z"/><path class="cls-2" d="M522.49,68.09l-.32-1.18L520,65.64l-4.09-2.36L487.09,46.65,483,44.29l-2.73-1.58-1.19.32a1.21,1.21,0,0,0-.74.57l-1.92,3.33a2.43,2.43,0,0,0,.9,3.34L483.81,54a6.12,6.12,0,0,1,2.86,3.71l3.17,11.84a6.11,6.11,0,0,1-.61,4.64l-1.06,1.84a3.67,3.67,0,0,0,1.34,5l2.12,1.22a1.23,1.23,0,0,0,1.68-.44l9.43-16.34a.48.48,0,0,1,.67-.18l13.69,7.9a2.45,2.45,0,0,0,3.35-.89L522.37,69A1.26,1.26,0,0,0,522.49,68.09Zm-38.86-18a2.15,2.15,0,1,1,2.15-2.14A2.14,2.14,0,0,1,483.63,50.05Zm35,16.85a2.14,2.14,0,1,1-4.28,0h0a2.14,2.14,0,1,1,4.28,0Z"/><path class="cls-2" d="M683.23,160,532.14,72.8a4.9,4.9,0,0,0-6,.84,94.82,94.82,0,0,0-13.94,18.49L505,104.65a4.91,4.91,0,0,0,1.79,6.7l9.76,5.63,136.22,78.64,9.76,5.64a4.9,4.9,0,0,0,6.69-1.79L676.44,187a95.19,95.19,0,0,0,9-21.33A4.92,4.92,0,0,0,683.23,160Zm-56-20.89a1.21,1.21,0,0,1,1.22,0l18,10.36a1.23,1.23,0,0,1-.62,2.29H634.5a2.47,2.47,0,0,1-2.12-1.22l-5.63-9.76A1.22,1.22,0,0,1,627.2,139.14Zm-22.92-13.23a1.23,1.23,0,0,1,1.23,0l18,10.36a1.23,1.23,0,0,1-.61,2.29H611.59a2.47,2.47,0,0,1-2.13-1.22l-5.63-9.76A1.22,1.22,0,0,1,604.28,125.91Zm-22.91-13.23a1.21,1.21,0,0,1,1.22,0l18,10.36a1.23,1.23,0,0,1-.62,2.29H588.67a2.47,2.47,0,0,1-2.12-1.22l-5.63-9.76A1.22,1.22,0,0,1,581.37,112.68ZM558.45,99.45a1.23,1.23,0,0,1,1.23,0l18,10.36a1.23,1.23,0,0,1-.61,2.29H565.76a2.47,2.47,0,0,1-2.13-1.22L558,101.12A1.22,1.22,0,0,1,558.45,99.45ZM535.54,86.22a1.21,1.21,0,0,1,1.22,0l18,10.36a1.25,1.25,0,0,1,.45,1.68,1.23,1.23,0,0,1-1.06.61H542.84a2.47,2.47,0,0,1-2.12-1.22l-5.63-9.76A1.22,1.22,0,0,1,535.54,86.22Zm-16.6,11a2.09,2.09,0,1,1,4.17,0h0a2.09,2.09,0,0,1-4.17,0Zm.28,11.22,10.61-18.38a2.45,2.45,0,0,1,4.24,0L539,98.63a2.44,2.44,0,0,1,0,2.45l-5.66,9.8a2.44,2.44,0,0,1-2.12,1.22h-9.9a2.45,2.45,0,0,1-2.45-2.45A2.38,2.38,0,0,1,519.22,108.43Zm19.33,18.28a1.23,1.23,0,0,1-1.23,0l-18-10.36a1.23,1.23,0,0,1,.61-2.29h11.26a2.43,2.43,0,0,1,2.12,1.23L539,125A1.23,1.23,0,0,1,538.55,126.71Zm2.17-2.6-5.66-9.8a2.44,2.44,0,0,1,0-2.45l5.66-9.8a2.46,2.46,0,0,1,2.12-1.23h11.32a2.46,2.46,0,0,1,2.12,1.23l5.66,9.8a2.49,2.49,0,0,1,0,2.45l-5.66,9.8a2.47,2.47,0,0,1-2.12,1.22H542.84A2.47,2.47,0,0,1,540.72,124.11Zm20.74,15.83a1.21,1.21,0,0,1-1.22,0l-18-10.36a1.23,1.23,0,0,1,.61-2.29h11.27a2.46,2.46,0,0,1,2.12,1.23l5.63,9.75A1.21,1.21,0,0,1,561.46,139.94Zm2.17-2.6-5.65-9.8a2.44,2.44,0,0,1,0-2.45l5.65-9.8a2.46,2.46,0,0,1,2.13-1.23h11.31a2.43,2.43,0,0,1,2.12,1.23l5.66,9.8a2.44,2.44,0,0,1,0,2.45l-5.66,9.8a2.44,2.44,0,0,1-2.12,1.22H565.76A2.47,2.47,0,0,1,563.63,137.34Zm20.75,15.83a1.23,1.23,0,0,1-1.23,0L565.2,142.81a1.23,1.23,0,0,1,.61-2.29h11.26a2.43,2.43,0,0,1,2.12,1.23l5.64,9.75A1.23,1.23,0,0,1,584.38,153.17Zm2.17-2.6-5.66-9.8a2.44,2.44,0,0,1,0-2.45l5.66-9.8a2.46,2.46,0,0,1,2.12-1.23H600a2.46,2.46,0,0,1,2.12,1.23l5.66,9.8a2.49,2.49,0,0,1,0,2.45l-5.66,9.8a2.47,2.47,0,0,1-2.12,1.22H588.67A2.47,2.47,0,0,1,586.55,150.57Zm20.74,15.83a1.21,1.21,0,0,1-1.22,0l-18-10.36a1.23,1.23,0,0,1,.61-2.29H600a2.46,2.46,0,0,1,2.12,1.23l5.63,9.75A1.21,1.21,0,0,1,607.29,166.4Zm2.17-2.6-5.65-9.8a2.44,2.44,0,0,1,0-2.45l5.65-9.8a2.46,2.46,0,0,1,2.13-1.23H622.9a2.43,2.43,0,0,1,2.12,1.23l5.66,9.8a2.44,2.44,0,0,1,0,2.45L625,163.8A2.44,2.44,0,0,1,622.9,165H611.59A2.47,2.47,0,0,1,609.46,163.8Zm20.75,15.83a1.23,1.23,0,0,1-1.23,0l-18-10.36a1.23,1.23,0,0,1,.61-2.29H622.9a2.43,2.43,0,0,1,2.12,1.23l5.64,9.75A1.23,1.23,0,0,1,630.21,179.63Zm2.17-2.6-5.66-9.8a2.44,2.44,0,0,1,0-2.45l5.66-9.8a2.46,2.46,0,0,1,2.12-1.23h11.32a2.46,2.46,0,0,1,2.12,1.23l5.66,9.8a2.49,2.49,0,0,1,0,2.45l-5.66,9.8a2.47,2.47,0,0,1-2.12,1.22H634.5A2.47,2.47,0,0,1,632.38,177Zm20.74,15.83a1.21,1.21,0,0,1-1.22,0l-18-10.36a1.23,1.23,0,0,1,.61-2.29h11.27a2.46,2.46,0,0,1,2.12,1.23l5.63,9.75A1.22,1.22,0,0,1,653.12,192.86ZM667.64,184a2.09,2.09,0,1,1,2.08-2.09A2.1,2.1,0,0,1,667.64,184Zm1.8-13.29L658.83,189a2.44,2.44,0,0,1-4.24,0l-5-8.57a2.44,2.44,0,0,1,0-2.45l5.65-9.8a2.46,2.46,0,0,1,2.13-1.23h9.9a2.45,2.45,0,0,1,2.45,2.45A2.55,2.55,0,0,1,669.44,170.66Zm.3-6.25a1.22,1.22,0,0,1-1.06.61H657.42a2.47,2.47,0,0,1-2.13-1.22L649.66,154a1.22,1.22,0,0,1,.45-1.67,1.23,1.23,0,0,1,1.23,0l17.95,10.36A1.23,1.23,0,0,1,669.74,164.41Z"/><path class="cls-2" d="M624.32,191.6l-13.06-4a24.88,24.88,0,0,1-5-2.19l-62.07-35.84a24.47,24.47,0,0,1-4.4-3.24l-10-9.3a3.74,3.74,0,0,0-5.07,5.49l6.12,5.67a12.23,12.23,0,0,1,3.83,10.49,7.37,7.37,0,0,0,3.62,7.27L595,198.7a7.37,7.37,0,0,0,8.1-.5,12.21,12.21,0,0,1,11-1.93l8,2.47a3.74,3.74,0,0,0,2.21-7.14ZM527.2,141.51a1.78,1.78,0,1,1,1.78-1.77A1.77,1.77,0,0,1,527.2,141.51Zm18,17.66a1.47,1.47,0,1,1-2.94,0h0a1.47,1.47,0,1,1,2.94,0Zm28.76,17.45a2.45,2.45,0,0,1-3.34.9L548,164.44a2.45,2.45,0,0,1,2.45-4.24l22.65,13.08A2.44,2.44,0,0,1,573.94,176.62Zm4.66,1.84a1.47,1.47,0,0,1-2.94,0h0a1.47,1.47,0,0,1,2.94,0Zm16.19,10.2a2.45,2.45,0,0,1-3.35.89l-10.23-5.91a2.45,2.45,0,1,1,2.45-4.24l10.23,5.91A2.45,2.45,0,0,1,594.79,188.66Zm28.42,8.28a1.78,1.78,0,1,1,1.78-1.77A1.77,1.77,0,0,1,623.21,196.94Z"/><path class="cls-2" d="M642.77,217a3.73,3.73,0,0,0-4.46-2.83h0l-13.33,3a24.92,24.92,0,0,1-5.44.61H547.85a24.77,24.77,0,0,1-5.43-.61l-13.34-3a3.74,3.74,0,0,0-1.67,7.29h0l8.14,1.85a12.27,12.27,0,0,1,8.56,7.17,7.36,7.36,0,0,0,6.77,4.49h65.57a7.36,7.36,0,0,0,6.77-4.49,12.27,12.27,0,0,1,8.56-7.17l8.15-1.85A3.73,3.73,0,0,0,642.77,217Zm-114.51,2.59a1.78,1.78,0,1,1,1.77-1.77A1.77,1.77,0,0,1,528.26,219.55Zm42.14,9.25H558.57a2.45,2.45,0,0,1,0-4.9H570.4a2.45,2.45,0,1,1,0,4.9Zm7.59-2.44a1.46,1.46,0,0,1-1.47,1.46,1.47,1.47,0,0,1-1.47-1.47h0a1.47,1.47,0,0,1,2.94,0Zm30.81,2.44H582.65a2.45,2.45,0,1,1,0-4.9H608.8a2.45,2.45,0,1,1,0,4.9Zm7.78-2.44a1.47,1.47,0,0,1-2.94,0h0a1.47,1.47,0,0,1,2.94,0Zm22.54-6.81a1.78,1.78,0,1,1,1.77-1.77A1.78,1.78,0,0,1,639.12,219.55Z"/><path class="cls-1" d="M548.35,189.87h-6.13A6.12,6.12,0,0,0,536.1,196v7.35a1.23,1.23,0,0,0,1.22,1.23h15.93a1.23,1.23,0,0,0,1.22-1.23V196A6.12,6.12,0,0,0,548.35,189.87Zm-3.07,10.8a3.46,3.46,0,1,1,3.46-3.45A3.45,3.45,0,0,1,545.28,200.67Z"/><path class="cls-2" d="M490,270.24,487.88,269l-.27-.11-.27,0-.29,0-.27.07a2.43,2.43,0,0,0-1-1.15l-59.41-34.3-2.12-1.23a2.46,2.46,0,0,0-3.35.9l-8.27,14.32a1,1,0,0,0-1.34.36L370,319.34a1,1,0,0,0,.36,1.34l-9.19,15.91a2.45,2.45,0,0,0,.9,3.35l2.12,1.23,4.16,2.4a3.67,3.67,0,0,1,1.84,3.18v11.32a7.35,7.35,0,0,0,3.67,6.36l9.8,5.66a7.36,7.36,0,0,0,7.35,0l9.8-5.66a3.72,3.72,0,0,1,3.68,0l19.11,11a2.49,2.49,0,0,0,1.51.31l.07.27.13.26.18.21.23.17,2.12,1.23a2.46,2.46,0,0,0,3.35-.9L490.9,273.58h0A2.45,2.45,0,0,0,490,270.24Zm-54.9-25.33a1.17,1.17,0,0,1,.17-.61,1.22,1.22,0,0,1,1.67-.45l19.6,11.31a1.29,1.29,0,0,1,.45.45,1.21,1.21,0,0,1-.45,1.67l-6.12,3.54a3.67,3.67,0,0,1-3.68,0l-9.8-5.66A3.66,3.66,0,0,1,435.1,252Zm0,13.44,9.8,5.65a3.68,3.68,0,0,1,1.84,3.19V278.5a3.65,3.65,0,0,1-1.84,3.18l-9.8,5.66a3.65,3.65,0,0,1-3.67,0l-9.8-5.66a3.65,3.65,0,0,1-1.84-3.18V267.19a3.68,3.68,0,0,1,1.84-3.19l9.8-5.65A3.65,3.65,0,0,1,435.1,258.35Zm-3.67,35.36V305a3.68,3.68,0,0,1-1.84,3.19l-9.8,5.65a3.65,3.65,0,0,1-3.67,0l-9.8-5.65a3.68,3.68,0,0,1-1.84-3.19V293.71a3.66,3.66,0,0,1,1.84-3.18l9.8-5.66a3.65,3.65,0,0,1,3.67,0l9.8,5.66A3.66,3.66,0,0,1,431.43,293.71ZM414.18,257l.06-.11,10.11-17.51.06-.1a2.44,2.44,0,0,1,3.28-.79l1.9,1.09a3.68,3.68,0,0,1,1.84,3.19V252a3.66,3.66,0,0,1-1.84,3.18l-9.8,5.66a3.65,3.65,0,0,1-3.67,0l-1-.56A2.46,2.46,0,0,1,414.18,257Zm-15.31,26.52.06-.11,11-19.1a.61.61,0,0,1,.07-.1,2.44,2.44,0,0,1,3.28-.79l1,.56a3.68,3.68,0,0,1,1.84,3.19V278.5a3.65,3.65,0,0,1-1.84,3.18l-9.8,5.66a3.67,3.67,0,0,1-3.68,0l-1-.56A2.45,2.45,0,0,1,398.87,283.54Zm-15.31,26.52.05-.11,11-19.09.06-.11A2.47,2.47,0,0,1,398,290l1,.57a3.67,3.67,0,0,1,1.83,3.18V305a3.69,3.69,0,0,1-1.83,3.19l-9.8,5.65a3.67,3.67,0,0,1-3.68,0l-1-.56A2.45,2.45,0,0,1,383.56,310.06Zm-13.38,30.33-1-.57a2.46,2.46,0,0,1-1-3.24l.06-.11,11-19.09.06-.11a2.46,2.46,0,0,1,3.28-.79l1,.57a3.66,3.66,0,0,1,1.84,3.18v11.32a3.67,3.67,0,0,1-1.84,3.18l-9.8,5.66A3.7,3.7,0,0,1,370.18,340.39Zm11.63,21.43-5.16-10.27,2.31-4,5.16,10.27Zm9.43,2.91-10.33-20.56,2.31-4,10.33,20.56Zm4.25-7.37-5.16-10.28,2.31-4,5.16,10.28Zm5.31-17-9.8-5.66a3.69,3.69,0,0,1-1.83-3.18V320.23a3.67,3.67,0,0,1,1.83-3.18l9.8-5.66a3.67,3.67,0,0,1,3.68,0l9.8,5.66a3.66,3.66,0,0,1,1.84,3.18v11.32a3.67,3.67,0,0,1-1.84,3.18l-9.8,5.66A3.72,3.72,0,0,1,400.8,340.39Zm30.63,17.68a3.67,3.67,0,0,1-1.84,3.18l-9.8,5.66a3.7,3.7,0,0,1-3.67,0l-9.8-5.66a3.67,3.67,0,0,1-1.84-3.18V346.75a3.67,3.67,0,0,1,1.84-3.18l9.8-5.66a3.65,3.65,0,0,1,3.67,0l9.8,5.66a3.67,3.67,0,0,1,1.84,3.18Zm15.31-26.52a3.67,3.67,0,0,1-1.84,3.18l-9.8,5.66a3.7,3.7,0,0,1-3.67,0l-9.8-5.66a3.67,3.67,0,0,1-1.84-3.18V320.23a3.66,3.66,0,0,1,1.84-3.18l9.8-5.66a3.65,3.65,0,0,1,3.67,0l9.8,5.66a3.66,3.66,0,0,1,1.84,3.18ZM462.05,305a3.69,3.69,0,0,1-1.83,3.19l-9.8,5.65a3.67,3.67,0,0,1-3.68,0l-9.8-5.65A3.68,3.68,0,0,1,435.1,305V293.71a3.66,3.66,0,0,1,1.84-3.18l9.8-5.66a3.67,3.67,0,0,1,3.68,0l9.8,5.66a3.67,3.67,0,0,1,1.83,3.18Zm15.32-26.52a3.65,3.65,0,0,1-1.84,3.18l-9.8,5.66a3.67,3.67,0,0,1-3.68,0l-9.8-5.66a3.66,3.66,0,0,1-1.83-3.18V267.19a3.69,3.69,0,0,1,1.83-3.19l8-4.59a3.65,3.65,0,0,1,3.67,0l11.64,6.72a3.66,3.66,0,0,1,1.84,3.18Z"/><path class="cls-1" d="M408.6,396.29l-54.11-31.24a5.51,5.51,0,0,0-7.53,2l-31.24,54.1a5.52,5.52,0,0,0,2,7.53l54.11,31.24a5.52,5.52,0,0,0,7.53-2l31.23-54.1A5.51,5.51,0,0,0,408.6,396.29Zm-26.05-13.2L379,381A34,34,0,0,1,382.55,383.09ZM365,381.44a3.67,3.67,0,0,1,3.67-3.68,3.39,3.39,0,0,1,.64.06,34.82,34.82,0,0,1,6.5,1.81c.32.12.65.25,1,.39l7.7,4.44.82.64a35.25,35.25,0,0,1,4.81,4.73,3.66,3.66,0,0,1-.44,5.17,3.62,3.62,0,0,1-.53.37l-8.83,5.1a3.67,3.67,0,0,1-3.68,0l-9.8-5.66a3.67,3.67,0,0,1-1.83-3.18Zm-7.52,23.62,2.07-3.58,9.23,18.37-2.06,3.58Zm2.88,12.2-2.06,3.57-4.62-9.18,2.07-3.58Zm5.54-9.6,2.07-3.58,4.61,9.19-2.06,3.57Zm-29.69-17.83a35.18,35.18,0,0,1,20.79-12,3.57,3.57,0,0,1,.65-.06,3.67,3.67,0,0,1,3.67,3.68v10.19a3.66,3.66,0,0,1-1.84,3.18l-9.8,5.66a3.65,3.65,0,0,1-3.67,0l-8.83-5.1a3.16,3.16,0,0,1-.53-.37A3.66,3.66,0,0,1,336.22,389.83Zm-1.45,36.87a3.67,3.67,0,0,1-4.71-2.2,35.25,35.25,0,0,1,0-24,4,4,0,0,1,.27-.59,3.67,3.67,0,0,1,5-1.34l8.83,5.09a3.68,3.68,0,0,1,1.84,3.19v11.31a3.66,3.66,0,0,1-1.84,3.18l-8.83,5.1A3.06,3.06,0,0,1,334.77,426.7Zm9,15.2,3.6,2.08A34,34,0,0,1,343.79,441.9Zm17.54,1.65a3.67,3.67,0,0,1-3.67,3.68,3.57,3.57,0,0,1-.65-.06,34.94,34.94,0,0,1-6.49-1.81c-.33-.12-.65-.25-1-.39l-7.7-4.44c-.28-.21-.55-.43-.82-.65a34.6,34.6,0,0,1-4.81-4.72,3.68,3.68,0,0,1,.44-5.18,5,5,0,0,1,.53-.37l8.83-5.09a3.65,3.65,0,0,1,3.67,0l9.8,5.66a3.65,3.65,0,0,1,1.84,3.18Zm28.79-8.39a35.17,35.17,0,0,1-20.8,12,3.39,3.39,0,0,1-.64.06,3.67,3.67,0,0,1-3.67-3.68V433.36a3.66,3.66,0,0,1,1.83-3.18l9.8-5.66a3.67,3.67,0,0,1,3.68,0l8.83,5.09a6.3,6.3,0,0,1,.53.37A3.68,3.68,0,0,1,390.12,435.16Zm6.16-10.66a4.53,4.53,0,0,1-.28.59,3.67,3.67,0,0,1-5,1.34l-8.82-5.1a3.66,3.66,0,0,1-1.84-3.18V406.84a3.68,3.68,0,0,1,1.84-3.19l8.82-5.09a4.53,4.53,0,0,1,.59-.28,3.68,3.68,0,0,1,4.71,2.21A35.25,35.25,0,0,1,396.28,424.5Z"/><path class="cls-2" d="M367.43,484.86l-2.12-1.23-1.23,2.12a2.44,2.44,0,0,0-.89-3.34l-19.11-11a3.66,3.66,0,0,1-1.84-3.18V456.87a7.35,7.35,0,0,0-3.67-6.36l-9.8-5.66a7.36,7.36,0,0,0-7.35,0l-9.8,5.66a3.67,3.67,0,0,1-3.68,0l-6.28-3.63a2.45,2.45,0,0,0-3.35.9l-3.68,6.36a1,1,0,0,0-1.33.36h0l-16.17,28a1,1,0,0,0,.36,1.34l-3.68,6.36a1,1,0,0,0-1.34.36L260.71,511a1,1,0,0,0,.35,1.34l-3.67,6.36a1.23,1.23,0,0,0,1.35,1.81,6.72,6.72,0,0,1,5,.7l9.47,5.47.15.09a6.61,6.61,0,0,0,5.67.45,3.71,3.71,0,0,1,3.15.25l21,12.15a3.69,3.69,0,0,1,1.79,2.6,6.63,6.63,0,0,0,3.22,4.68l.16.08,9.46,5.47a6.76,6.76,0,0,1,3.11,4,1.21,1.21,0,0,0,1.51.83,1.16,1.16,0,0,0,.72-.56l-.73,1.26,2.13,1.23a2.45,2.45,0,0,0,3.34-.9l40.43-70A2.45,2.45,0,0,0,367.43,484.86Zm-55.81-28a3.69,3.69,0,0,1,1.83-3.18l9.8-5.66a3.72,3.72,0,0,1,3.68,0l9.8,5.66a3.67,3.67,0,0,1,1.84,3.18v11.32a3.66,3.66,0,0,1-1.84,3.18l-9.8,5.66a3.67,3.67,0,0,1-3.68,0l-9.8-5.66a3.67,3.67,0,0,1-1.83-3.18Zm0,17.69,9.8,5.65a3.69,3.69,0,0,1,1.83,3.19v11.31a3.66,3.66,0,0,1-1.83,3.18l-9.8,5.66a3.67,3.67,0,0,1-3.68,0l-9.8-5.66a3.65,3.65,0,0,1-1.84-3.18V483.4a3.68,3.68,0,0,1,1.84-3.19l9.8-5.65A3.67,3.67,0,0,1,311.62,474.56Zm-20.87-1.44,11-19.1a2.44,2.44,0,0,1,3.34-.89h0l1,.56a3.67,3.67,0,0,1,1.84,3.18v11.32a3.66,3.66,0,0,1-1.84,3.18L296.3,477a3.65,3.65,0,0,1-3.67,0l-1-.56A2.46,2.46,0,0,1,290.75,473.12Zm-13.43,48.26a2.45,2.45,0,0,1-2.45,2.45,2.52,2.52,0,0,1-1.23-.33l-6.86-4a2.46,2.46,0,0,1-.9-3.35l5.27-9.12a2.45,2.45,0,0,1,3.35-.9h0l1,.57a3.66,3.66,0,0,1,1.84,3.18Zm0-17.83-1-.56a2.45,2.45,0,0,1-.9-3.35l11-19.1a2.45,2.45,0,0,1,3.35-.89l1,.56a3.68,3.68,0,0,1,1.84,3.19v11.31a3.65,3.65,0,0,1-1.84,3.18l-9.8,5.66A3.65,3.65,0,0,1,277.32,503.55Zm15.31,26.52-9.8-5.65a3.68,3.68,0,0,1-1.84-3.19V509.92a3.66,3.66,0,0,1,1.84-3.18l9.8-5.66a3.65,3.65,0,0,1,3.67,0l9.8,5.66a3.66,3.66,0,0,1,1.84,3.18v11.31a3.68,3.68,0,0,1-1.84,3.19l-9.8,5.65A3.65,3.65,0,0,1,292.63,530.07Zm30.62,17.83a2.45,2.45,0,0,1-2.45,2.45,2.48,2.48,0,0,1-1.22-.33l-9.91-5.72a3.68,3.68,0,0,1-1.79-2.6,6.62,6.62,0,0,0-3.22-4.68l-2.84-1.64a2.45,2.45,0,0,1-.9-3.35,2.33,2.33,0,0,1,.9-.89l6.12-3.54a3.67,3.67,0,0,1,3.68,0l9.8,5.66a3.67,3.67,0,0,1,1.83,3.18Zm15.32-26.67a3.68,3.68,0,0,1-1.84,3.19l-9.8,5.65a3.67,3.67,0,0,1-3.68,0l-9.8-5.65a3.69,3.69,0,0,1-1.83-3.19V509.92a3.67,3.67,0,0,1,1.83-3.18l9.8-5.66a3.67,3.67,0,0,1,3.68,0l9.8,5.66a3.66,3.66,0,0,1,1.84,3.18Zm15.31-26.52a3.65,3.65,0,0,1-1.84,3.18l-9.8,5.66a3.65,3.65,0,0,1-3.67,0l-9.8-5.66a3.65,3.65,0,0,1-1.84-3.18V483.4a3.68,3.68,0,0,1,1.84-3.19l9.8-5.65a3.65,3.65,0,0,1,3.67,0l9.8,5.65a3.68,3.68,0,0,1,1.84,3.19Z"/><path class="cls-2" d="M247.69,570.45l-.09-.22-.12-.21-.17-.17-.2-.15-28.2-16.28-.22-.1-.23-.05h-.25l-.24,0-.22.09-.21.12-.18.17-.14.19-3.06,5.31-.1.22-.06.23v.24l0,.24.09.23.13.2.17.18.19.14,1.09.62.19.13.2.16.18.17.16.18.13.19.12.22.11.22.08.23.05.23,0,.24v.25l0,.24,0,.23-.07.24-.08.23-.11.22-43.49,75.32-.13.2-.16.19-.17.18-.18.15-.2.13-.22.12-.23.09-.22.07-.24.05-.24,0h-.25l-.24,0-.23,0-.24-.07-.23-.09-.21-.11-10-5.78a1.25,1.25,0,0,0-1.68.45h0l-4.9,8.49-3.67,6.36a1.23,1.23,0,0,0,.45,1.68l7.63,4.41a1.23,1.23,0,0,0,1.68-.45l1.83-3.18a2.45,2.45,0,0,1,3.35-.9l24.4,14.09a2.44,2.44,0,0,1,.9,3.34h0l-1.84,3.19a1.22,1.22,0,0,0,.45,1.67l7.64,4.41a1.22,1.22,0,0,0,1.67-.45l3.68-6.36,4.9-8.49a1.23,1.23,0,0,0-.45-1.67l-10-5.78-.2-.13-.2-.15-.18-.17-.16-.18-.13-.2-.12-.21-.11-.23-.07-.22-.06-.23,0-.25v-.25l0-.24,0-.23.07-.24.09-.23.1-.21,43.49-75.32.13-.2.16-.2.17-.17.18-.16.2-.13.22-.11.23-.1.22-.07.24,0,.24,0h.25l.24,0,.23,0,.24.07.23.09.21.11,1.08.62.22.1.24.06h.24l.24,0,.23-.08.21-.13.17-.16.15-.2,3.06-5.3.1-.22,0-.24v-.24Zm-46.21,59.2-9.8,17a3.67,3.67,0,0,1-5,1.34l-1.06-.61-3.18-1.84-1.06-.61a3.68,3.68,0,0,1-1.35-5l9.8-17a3.68,3.68,0,0,1,5-1.35l5.31,3.07A3.67,3.67,0,0,1,201.48,629.65Zm15.68-27.16-8.57,14.85a3.67,3.67,0,0,1-5,1.34l-5.31-3.06a3.67,3.67,0,0,1-1.34-5l8.57-14.85a3.68,3.68,0,0,1,5-1.35l5.31,3.07A3.67,3.67,0,0,1,217.16,602.49Zm15.56-27-8.57,14.85a3.68,3.68,0,0,1-5,1.35l-5.31-3.06a3.67,3.67,0,0,1-1.34-5l8.57-14.86a3.68,3.68,0,0,1,5-1.34l5.31,3.06A3.68,3.68,0,0,1,232.72,575.54Z"/><path class="cls-1" d="M137.89,584.47l4,.69a2.44,2.44,0,0,0,2.07-.6,50.81,50.81,0,0,0,8.63-10.27,1.23,1.23,0,0,0-.37-1.69l0,0-9.32-5.38a1.22,1.22,0,0,0-1.63.39c-.44.66-.89,1.31-1.36,1.94a1.24,1.24,0,0,0-.13,1.26,7,7,0,0,1-1.66,8.21,43.73,43.73,0,0,1-7.24,5.21,1.23,1.23,0,0,0-.47,1.64l2.67,5a1.22,1.22,0,0,0,1.66.5h0q.87-.49,1.71-1a.73.73,0,0,0,.24-1l0,0-.93-1.35a2.2,2.2,0,0,1,2.2-3.41Z"/><path class="cls-2" d="M166,709.22l-46.53-26.86a1.22,1.22,0,0,0-1.67.44h0l-4.9,8.49a1.21,1.21,0,0,0,.45,1.67l9.51,5.49,3.18,1.84,9,5.19,3.18,1.83,9,5.19,3.18,1.84,9.52,5.49a1.24,1.24,0,0,0,1.67-.45l4.9-8.49A1.22,1.22,0,0,0,166,709.22Zm-25.47-6a2.08,2.08,0,1,1-4.16,0h0a2.08,2.08,0,0,1,4.16,0Z"/><path class="cls-2" d="M223.5,788.28l-5.65-9.8a3.65,3.65,0,0,1,0-3.67l3.62-6.29a2.44,2.44,0,0,0-.89-3.34L117.14,705.46a2.43,2.43,0,0,0-3.34.9L78.27,767.89a2.44,2.44,0,0,0,.9,3.34h0L182.6,831a2.45,2.45,0,0,0,3.35-.89L197,811a3.67,3.67,0,0,1,3.18-1.84h11.32a7.35,7.35,0,0,0,6.37-3.68l5.65-9.8A7.32,7.32,0,0,0,223.5,788.28ZM114.23,763.17l-5.65,9.8a3.68,3.68,0,0,1-3.19,1.84H94.08A3.68,3.68,0,0,1,90.89,773l-4.59-8a3.67,3.67,0,0,1,0-3.68L93,749.7a3.66,3.66,0,0,1,3.18-1.84h9.19a3.68,3.68,0,0,1,3.19,1.84l5.65,9.8A3.65,3.65,0,0,1,114.23,763.17Zm0-30.62-5.65,9.8a3.69,3.69,0,0,1-3.19,1.83H98.32A1.21,1.21,0,0,1,97.1,743a1.16,1.16,0,0,1,.16-.61l11.32-19.6a1.22,1.22,0,0,1,2.12,0l3.53,6.12A3.67,3.67,0,0,1,114.23,732.55Zm3.19-5.52-4.6-8a3.65,3.65,0,0,1,0-3.67l1.1-1.9a2.45,2.45,0,0,1,3.34-.9l17.51,10.11a2.44,2.44,0,0,1,.89,3.34l-.56,1a3.67,3.67,0,0,1-3.18,1.84H120.6A3.66,3.66,0,0,1,117.42,727Zm9.07,28.84a2.88,2.88,0,1,1-2.88-2.88A2.88,2.88,0,0,1,126.49,755.87Zm18,35.58-23.87-13.78a4.17,4.17,0,0,1-1.52-5.69l16.23-28.11h0a4.17,4.17,0,0,1,5.69-1.53l23.87,13.78a4.17,4.17,0,0,1,1.52,5.69l-16.23,28.12A4.16,4.16,0,0,1,144.44,791.45ZM161.8,775a2.88,2.88,0,1,1-2.88,2.88A2.88,2.88,0,0,1,161.8,775Zm20.57,39.16L159,800.72l21.14-36.6L203.5,777.6Z"/><path class="cls-1" d="M195.84,728.8l-5.31-3.06a6.12,6.12,0,0,0-8.36,2.24l-3.68,6.36a1.23,1.23,0,0,0,.45,1.68l13.79,8a1.23,1.23,0,0,0,1.68-.45l3.67-6.36A6.13,6.13,0,0,0,195.84,728.8ZM193,733.64a3.46,3.46,0,0,1-6.91,0h0a3.46,3.46,0,1,1,6.91,0Z"/><path class="cls-1" d="M246.5,852.53v.17l0,.18,0,.17-.07.18-.09.18-2.15,3.72-.1.16-.12.14-.12.11-.14.1-.14.08-.16.06-.17,0-.17,0h-.19l-.2,0-.21,0-.22-.07-.23-.08-.25-.11-.25-.12-.26-.15-.27-.15-.23-.16-.22-.16-.19-.16-.17-.16-.14-.16-.13-.16-.09-.17-.08-.16-.05-.16,0-.17v-.16l0-.17,0-.17.06-.16.08-.17,2.15-3.72.12-.19.13-.16.14-.14.14-.11.16-.09.16-.06.18,0h.37l.2,0,.21.05.22.06.23.09.24.1.25.12.25.14.26.16.24.16.21.16.19.16.16.17.15.16.11.17.1.16.07.17,0,.17Zm-15.8-9.29,0-.17-.07-.17-.1-.16-.11-.17-.15-.17-.16-.16-.19-.16-.21-.16-.24-.16-.26-.16-.26-.14-.24-.12-.24-.1-.23-.09-.22-.07-.21,0-.2,0h-.37l-.18,0-.16.06-.16.09-.14.11-.14.14-.13.16-.12.19L224,845.52l-.08.17-.06.16,0,.17,0,.17v.16l0,.17.05.16.07.16.1.16.13.17.14.16.17.16.19.16.22.16.23.16.26.15.27.15.25.12.24.11.24.08.22.07.21,0,.2,0h.18l.18,0,.17,0,.16-.06.14-.08.14-.1.12-.11.11-.14.11-.16,2.14-3.72.1-.18.07-.18,0-.18,0-.17v-.17Zm7.3,3.94-.15-.22-.22-.22-.29-.22-.35-.22-1.63-.94-1.7,2.93,1.53.89.41.22.37.15.31.1.28,0,.24,0,.21-.1.2-.17.17-.24.62-1.08.1-.22,0-.22,0-.22Zm24.49,5.48c-2.62,4.68-2.58,8.63-.25,13,2.73,5.13,1.68,7.56-4.2,9.35-1,.32-2.27.46-2.56,1.45-1.24,4.25-3.79,2.39-6,1.32-2.4-1.17-4.66-2.63-7-3.94-6.58-3.71-6.8-3.8-3.77-10.35,1.13-2.43.59-3.11-1.41-4.2-4-2.15-7.88-4.44-11.62-6.95-3.25-2.19-4.95.15-5.84,2.23-2,4.59-4.62,3.56-7.7,1.64-1.39-.86-2.75-1.78-4.17-2.59-8.31-4.68-9.1-6.37-7-15.57.61-2.77,2.34-4.44,5.25-4.3,6.92.32,10.91-3.36,13.94-9.18,4.7-9,10.7-17.32,15-26.6,1.41-3.08,4.37-3.26,8.15-3.12,2.86,1,6.68,1.23,10.14,3.65a145.28,145.28,0,0,0,17.25,10c4.3,2.19,6.92,5.66,9.28,9.58a5,5,0,0,1-.12,5.24C273.34,832.7,268,842.73,262.49,852.66Zm-52.82-13.83c-.58-1.32-1.25-2.5-3-2.62-2-.13-4.08,0-4.33,2.4-.18,1.79,1.58,3.22,3,3.55C207.54,842.65,208.42,840.48,209.67,838.83Zm15.6-.32-1.16-.67-6.37,5.26-.11-.06,1.37-8.16-1.22-.7-1.48,9.57,1.35.77Zm4.2,10.17,2.14-3.7.15-.28.1-.28.07-.27,0-.27v-.26l0-.27-.07-.26-.11-.26-.15-.26-.18-.25-.21-.26-.25-.25-.29-.24-.33-.25-.36-.24-.39-.24-.4-.22-.39-.19-.37-.16-.36-.12-.33-.09-.33-.06-.31,0h-.29l-.28,0-.26.07-.25.1-.23.14-.21.16-.2.2-.19.23-.17.27-2.13,3.69-.14.27-.1.26-.06.26,0,.26v.25l0,.26.08.25.11.25.14.25.19.25.21.25.25.24.29.24.32.25.36.23.39.24.36.2.36.18.35.15.34.12.33.1.32.07.31,0,.31,0h.29l.27,0,.26-.09.24-.12.23-.15.2-.19.19-.23Zm8.77,1.59.12-.15.1-.16.78-1.35.15-.3.1-.29,0-.27v-.25l-.07-.24-.12-.23-.18-.24-.23-.23-.28-.24-.36-.26-.42-.27-.48-.29-2.75-1.59-4.51,7.81,1.17.68,1.93-3.34,1.13.66.31,4.62,1.43.83-.49-4.92.43.22.43.15.41.08h.4l.19,0,.18,0,.17-.06.15-.09.15-.1Zm7,7.53,2.14-3.71.15-.28.1-.27.07-.28,0-.27v-.26l0-.27-.07-.26-.11-.26-.14-.26-.18-.25-.22-.26-.25-.25-.29-.24-.33-.25-.36-.24-.39-.24-.4-.22-.39-.19-.37-.15-.35-.13-.34-.09-.33-.06-.31,0h-.29l-.28,0-.26.07-.25.1-.23.14-.21.16-.2.2L241,850l-.17.27L238.67,854l-.14.27-.1.26-.06.26,0,.26v.26l0,.25.08.25.11.26.15.24.18.25.21.25.25.24.29.25.32.24.36.24.39.23.37.2.35.18.35.15.34.12.33.1.32.07.32,0,.3,0h.29l.28,0,.25-.09.24-.11.23-.16.2-.19.19-.23Zm11.85-.92-1-.59-3.72,6.45-.53-8.9-1.4-.82-4.52,7.82,1,.59,3.79-6.56.46,9,1.41.81Zm.92,9.45c-1.84.14-3.44,1.06-2.9,3,.43,1.55,1,3.79,3.58,3.22,2.7.17,3.25-2.09,3.32-3.63C262.12,866.58,260,866.18,258,866.33Zm11.87-42.13c0-11.19-9.93-21.35-21-20.54-11.87.86-20,8.29-20.44,21.15-.35,11.55,8.62,20.2,20.35,20.21C261.41,845,269.91,836.64,269.89,824.2Z"/><path class="cls-1" d="M275.42,778a5.08,5.08,0,0,0-2.16-9.08l-3.62-.64a5.93,5.93,0,0,0-2.65.12L257.23,771A18.3,18.3,0,0,1,244,769.56l-7.56-3.91a1.84,1.84,0,0,0-1.69,3.26l1.27.66a2.43,2.43,0,0,1,1.24,1.54l2,7.61a2.43,2.43,0,0,1-.38,2.06c-.38.53-.73,1.08-1.06,1.64a4.92,4.92,0,0,0-.55,3.56,1.23,1.23,0,0,0,1.47.92,1.13,1.13,0,0,0,.36-.14q2-1.21,4.18-2.25a.92.92,0,0,0,.43-1.22.88.88,0,0,0-.32-.37,1.84,1.84,0,0,1-.51-2.55,1.61,1.61,0,0,1,.24-.28l.18-.18a5,5,0,0,1,2.13-1.2l14.92-4,.68-.15.69-.09.69,0,.69,0,.69.09.68.15.66.21.64.26.62.33.59.37.55.42.51.47.47.51.42.55.38.59.32.61,2.55,5.48a1.84,1.84,0,0,0,3.33-1.56l-.91-2A2.46,2.46,0,0,1,275.42,778Zm-.89-4.07a2.15,2.15,0,0,1-4.29,0h0a2.15,2.15,0,0,1,4.29,0Z"/><path class="cls-1" d="M347.22,765.68H292.57a3.67,3.67,0,0,0-3.68,3.67v2.7a.49.49,0,0,0,.49.49h17.4v-.36a2.08,2.08,0,1,1,3,0h0v.36h14a4.17,4.17,0,0,1,4.17,4.17v11a2.44,2.44,0,0,0,2.45,2.45h16.91a4.9,4.9,0,0,0,4.9-4.9v-14.7A4.9,4.9,0,0,0,347.22,765.68Zm-7.35,15.62a3.37,3.37,0,1,1,3.36-3.37A3.37,3.37,0,0,1,339.87,781.3Z"/><path class="cls-2" d="M319.37,789.13H286.29a4.41,4.41,0,0,0-4.41,4.41v8.59a5.41,5.41,0,0,0,1.58,3.82l5.13,5.13a5.39,5.39,0,0,0,3.81,1.58h20.85a5.41,5.41,0,0,0,3.82-1.58L322.2,806a5.41,5.41,0,0,0,1.58-3.82v-8.59A4.42,4.42,0,0,0,319.37,789.13Zm-16.54,15.44a3.68,3.68,0,1,1,3.67-3.68A3.68,3.68,0,0,1,302.83,804.57Z"/><path class="cls-2" d="M372.17,879,353,867.87a1.23,1.23,0,0,1-.44-1.68L363.6,847a1.22,1.22,0,0,0-.45-1.67l-46.71-27-.48-.25-.51-.18-.51-.12-.53-.06h-.52l-.51.07-.48.14-.46.2-.42.25-.38.31-.33.36-.27.39-36.8,63.74a3.83,3.83,0,0,0-.25,3.27l1,2.59a3.79,3.79,0,0,0,1.63,1.9L341,928.11l.43.21.46.14.48.08h.49l.5-.06.49-.13.48-.19.45-.25.43-.31.38-.36.35-.41.29-.45,26.42-45.76A1.23,1.23,0,0,0,372.17,879Zm-28.93-37.11a6.13,6.13,0,1,1-6.13,6.12A6.12,6.12,0,0,1,343.24,841.84Zm-5.72,28.28a3.68,3.68,0,1,1,3.67,3.68A3.67,3.67,0,0,1,337.52,870.12Zm6.68,33.32-1.85,3.2-4.13-8.23,1.85-3.2Zm-28.86-77.71a6.13,6.13,0,1,1-6.13,6.12A6.12,6.12,0,0,1,315.34,825.73Zm-7,21.73a3.68,3.68,0,1,1-3.68,3.68A3.67,3.67,0,0,1,308.31,847.46Zm-19,40.24A3.68,3.68,0,1,1,293,884,3.68,3.68,0,0,1,289.32,887.7Zm32.89,19a3.68,3.68,0,1,1,3.67-3.67A3.67,3.67,0,0,1,322.21,906.68Zm9-29.6a15.93,15.93,0,0,1-31.85,0h0a15.93,15.93,0,1,1,31.85,0Zm7.31,44.28a6.13,6.13,0,1,1,6.12-6.12A6.12,6.12,0,0,1,338.49,921.36Zm11.4-12.4-8.26-16.44,1.84-3.2,8.27,16.44Zm3.4-5.9-4.13-8.22,1.85-3.2,4.13,8.22Zm3.2-12.89a6.13,6.13,0,1,1,6.13-6.12A6.12,6.12,0,0,1,356.49,890.17Z"/><path class="cls-2" d="M776.83,216.1l-70-40.42a2.45,2.45,0,0,0-3.35.9h0l-1.22,2.12,2.12,1.22a2.46,2.46,0,0,0-3.35.9l-11,19.11a3.68,3.68,0,0,1-3.19,1.84H675.49a7.37,7.37,0,0,0-6.37,3.67l-5.65,9.8a7.32,7.32,0,0,0,0,7.35l5.65,9.8a3.67,3.67,0,0,1,0,3.68l-3.62,6.28a2.45,2.45,0,0,0,.89,3.35l6.37,3.67a1,1,0,0,0,.36,1.34l28,16.17a1,1,0,0,0,1.34-.36l6.37,3.68a1,1,0,0,0,.36,1.34l20.37,11.76a1,1,0,0,0,1.34-.36l6.37,3.68a1.22,1.22,0,0,0,1.67-.45,1.2,1.2,0,0,0,.13-.91,6.74,6.74,0,0,1,.71-5l5.47-9.47.08-.16a6.59,6.59,0,0,0,.46-5.66,3.64,3.64,0,0,1,.25-3.15l12.14-21a3.65,3.65,0,0,1,2.6-1.79,6.64,6.64,0,0,0,4.68-3.22l.09-.16,5.47-9.47a6.76,6.76,0,0,1,4-3.1,1.22,1.22,0,0,0,.27-2.24l1.27.73,1.22-2.12A2.45,2.45,0,0,0,776.83,216.1Zm-48.3-10.66h11.32a3.67,3.67,0,0,1,3.18,1.84l5.66,9.8a3.65,3.65,0,0,1,0,3.67l-5.66,9.8a3.67,3.67,0,0,1-3.18,1.84H728.53a3.67,3.67,0,0,1-3.18-1.84l-5.66-9.8a3.7,3.7,0,0,1,0-3.67l5.66-9.8A3.67,3.67,0,0,1,728.53,205.44Zm-6.36,30.63-5.66,9.8a3.69,3.69,0,0,1-3.18,1.83H702a3.67,3.67,0,0,1-3.18-1.83l-5.66-9.8a3.67,3.67,0,0,1,0-3.68l5.66-9.8a3.66,3.66,0,0,1,3.18-1.84h11.32a3.67,3.67,0,0,1,3.18,1.84l5.66,9.8A3.72,3.72,0,0,1,722.17,236.07Zm-29-34.3,5.66-9.8a3.66,3.66,0,0,1,3.18-1.84h11.32a3.67,3.67,0,0,1,3.18,1.84l5.66,9.8a3.7,3.7,0,0,1,0,3.67l-5.66,9.8a3.67,3.67,0,0,1-3.18,1.84H702a3.66,3.66,0,0,1-3.18-1.84l-5.66-9.8A3.65,3.65,0,0,1,693.17,201.77Zm-26.52,19a3.65,3.65,0,0,1,0-3.67l5.66-9.8a3.66,3.66,0,0,1,3.18-1.84H686.8a3.68,3.68,0,0,1,3.19,1.84l5.66,9.8a3.7,3.7,0,0,1,0,3.67l-5.66,9.8a3.68,3.68,0,0,1-3.19,1.84H675.49a3.66,3.66,0,0,1-3.18-1.84Zm29,30.63-.57,1a2.46,2.46,0,0,1-3.35.9l-19.09-11a2.45,2.45,0,0,1-.9-3.35h0l.57-1a3.67,3.67,0,0,1,3.18-1.83H686.8A3.69,3.69,0,0,1,690,237.9l5.66,9.8A3.72,3.72,0,0,1,695.65,251.38Zm26.52,15.31-.57,1a2.46,2.46,0,0,1-3.35.9l-19.09-11a2.45,2.45,0,0,1-.9-3.34l.57-1a3.66,3.66,0,0,1,3.18-1.84h11.32a3.67,3.67,0,0,1,3.18,1.84l5.66,9.8A3.7,3.7,0,0,1,722.17,266.69Zm19.94,3.68-4,6.86a2.45,2.45,0,0,1-3.35.89l-9.12-5.26a2.46,2.46,0,0,1-.9-3.35l.57-1a3.67,3.67,0,0,1,3.18-1.84H740a2.45,2.45,0,0,1,2.12,3.68Zm6.58-19-5.66,9.8a3.67,3.67,0,0,1-3.18,1.84H728.53a3.67,3.67,0,0,1-3.18-1.84l-5.66-9.8a3.72,3.72,0,0,1,0-3.68l5.66-9.8a3.69,3.69,0,0,1,3.18-1.83h11.32A3.69,3.69,0,0,1,743,237.9l5.66,9.8A3.67,3.67,0,0,1,748.69,251.38Zm19.94-26.95-5.72,9.91a3.69,3.69,0,0,1-2.6,1.79,6.63,6.63,0,0,0-4.68,3.22L754,242.19a2.45,2.45,0,0,1-4.24,0l-3.54-6.12a3.72,3.72,0,0,1,0-3.68l5.66-9.8a3.67,3.67,0,0,1,3.18-1.84h11.46A2.45,2.45,0,0,1,769,223.2,2.41,2.41,0,0,1,768.63,224.43Z"/><path class="cls-1" d="M845.77,254l-54.1-31.24a5.51,5.51,0,0,0-7.53,2L752.9,278.9a5.51,5.51,0,0,0,2,7.53L809,317.67a5.51,5.51,0,0,0,7.53-2l31.24-54.1A5.51,5.51,0,0,0,845.77,254Zm-57.43-16.9a35.13,35.13,0,0,1,24,0,3.47,3.47,0,0,1,.59.27,3.67,3.67,0,0,1,1.34,5l-5.1,8.83a3.66,3.66,0,0,1-3.18,1.83H794.69a3.69,3.69,0,0,1-3.19-1.83l-5.09-8.83a4,4,0,0,1-.28-.59A3.67,3.67,0,0,1,788.34,237.12ZM793,275.84l-3.57-2.06,18.37-9.23,3.57,2.06Zm15.78-.81-9.19,4.62L796,277.58l9.18-4.61ZM792,265.36l9.18-4.61,3.58,2.06-9.19,4.62Zm-21.07-14.51-2.08,3.59A32.84,32.84,0,0,1,770.94,250.85Zm-5.27,13.22a35,35,0,0,1,1.81-6.5c.12-.32.25-.64.39-1l4.44-7.69.64-.83a35.25,35.25,0,0,1,4.73-4.81,3.66,3.66,0,0,1,5.17.45,2.8,2.8,0,0,1,.37.53l5.1,8.82a3.67,3.67,0,0,1,0,3.68l-5.66,9.8a3.66,3.66,0,0,1-3.18,1.84H769.29a3.68,3.68,0,0,1-3.68-3.68A3.47,3.47,0,0,1,765.67,264.07Zm17.18,32.66a3.67,3.67,0,0,1-5.17.45,35.2,35.2,0,0,1-12-20.8,3.47,3.47,0,0,1-.06-.64,3.68,3.68,0,0,1,3.68-3.68h10.19a3.66,3.66,0,0,1,3.18,1.84l5.66,9.8a3.65,3.65,0,0,1,0,3.67l-5.1,8.83A2.8,2.8,0,0,1,782.85,296.73Zm29.5,6.6a35.13,35.13,0,0,1-24,0,3.15,3.15,0,0,1-.59-.27,3.67,3.67,0,0,1-1.34-5l5.09-8.83a3.68,3.68,0,0,1,3.19-1.84H806a3.65,3.65,0,0,1,3.18,1.84l5.1,8.83a3.38,3.38,0,0,1,.27.58A3.67,3.67,0,0,1,812.35,303.33Zm17.4-13.73,2.08-3.6A34,34,0,0,1,829.75,289.6ZM835,276.38a34.73,34.73,0,0,1-1.81,6.49c-.12.33-.25.65-.39,1l-4.44,7.7c-.21.28-.43.55-.65.82a34.13,34.13,0,0,1-4.72,4.82,3.69,3.69,0,0,1-5.18-.45,4.15,4.15,0,0,1-.37-.53l-5.09-8.83a3.65,3.65,0,0,1,0-3.67l5.66-9.8a3.65,3.65,0,0,1,3.18-1.84H831.4a3.68,3.68,0,0,1,3.68,3.68A3.47,3.47,0,0,1,835,276.38Zm-3.62-8H821.21a3.65,3.65,0,0,1-3.18-1.84l-5.66-9.8a3.67,3.67,0,0,1,0-3.68l5.09-8.82a4.15,4.15,0,0,1,.37-.53,3.67,3.67,0,0,1,5.18-.45,35.17,35.17,0,0,1,12,20.8,3.47,3.47,0,0,1,.06.64A3.68,3.68,0,0,1,831.4,268.39Z"/><path class="cls-2" d="M715,292.25a4.72,4.72,0,0,0-2.22-2.91l-12.57-7.26a1,1,0,0,1,0-.17l12.63,7.3-30.44-17.58a20.93,20.93,0,0,1-8-8.32,6.25,6.25,0,0,1-.53-1.38,4.86,4.86,0,0,0-2.27-3,5.51,5.51,0,0,1-.84-.59c-1.11-.92-2.25-1.79-3.41-2.64l-.08.13c-1.54-1.12-3.13-2.18-4.76-3.16A1.06,1.06,0,0,0,661,253v0l-1.32,2.29-.11-.13-10,17.41-1.06,1.83-.15.29-.13.3-.22.63-.19.63-.16.61v.24l.06.24.1.22.08.09.1.07,3.45,2-4.55,7.87-3.44-2-.12-.05-.11,0-.24,0-.24.07-.21.1-.45.45-.46.48-.43.51-.2.26-.17.27-1,1.83-.77,1.33.09-.14.12-.13.12-.12.13-.1-2.78,4.81-.2,0,1.45-2.5-7.27,12.58h.18l-2.29,4a1.07,1.07,0,0,0,.4,1.46h0a65.45,65.45,0,0,0,9.1,4.16,7,7,0,0,1,1,.45,4.72,4.72,0,0,0,3.62.45,6.18,6.18,0,0,1,1.49-.24,21.09,21.09,0,0,1,11.3,2.81L685.83,336a4.77,4.77,0,0,0,3.62.47,20.68,20.68,0,0,0,12.44-9.6l11-19A20.66,20.66,0,0,0,715,292.25ZM644.34,311.3a3,3,0,1,1-6.07,0h0a3,3,0,0,1,6.07,0Zm5.73-39.37,0-.17,0-.16.06-.16.07-.15,3.39-5.87.09.15Zm7.43,5.56a3.68,3.68,0,1,1,3.68,3.68A3.67,3.67,0,0,1,657.5,277.49Zm7.37,26.81a5.37,5.37,0,1,1,5.36-5.37A5.36,5.36,0,0,1,664.87,304.3ZM669.13,266a2.88,2.88,0,1,1,2.88-2.88A2.88,2.88,0,0,1,669.13,266Zm13,41.18-1.83-3.65.82-1.42,1.83,3.65Zm-.32-6.27.82-1.42,3.67,7.3-.82,1.42Zm4.17-.39,1.83,3.65-.82,1.42-1.83-3.65Zm9.39,31.8a3.68,3.68,0,0,1-5,1.35l-.74-.43a3.67,3.67,0,1,1,3.67-6.36l.74.42A3.68,3.68,0,0,1,695.37,332.31Zm1.36-6a3.68,3.68,0,1,1,3.67-3.68A3.68,3.68,0,0,1,696.73,326.29Zm17.62-26.86a3.68,3.68,0,0,1-5,1.34l-.75-.43a3.67,3.67,0,0,1,3.68-6.36l.74.43A3.67,3.67,0,0,1,714.35,299.43Z"/><path class="cls-2" d="M766.56,306l-.48-.48H726.86l-.48.47v29.63l.23.24.25.26h39.22l.25-.26.23-.24ZM737.41,329a3.68,3.68,0,0,1-7.35,0h0a3.68,3.68,0,1,1,7.35,0Zm25.48,0a3.68,3.68,0,0,1-7.35,0h0a3.68,3.68,0,1,1,7.35,0Z"/><path class="cls-2" d="M848.88,334.55H835.4a11.69,11.69,0,0,1-5.4-1.33,9.72,9.72,0,0,0-4.55-1.12H812a9.79,9.79,0,0,1-3.59-.69,16.54,16.54,0,0,0-12.14,30.77l.75.27a51,51,0,0,0,16.43,2.72h35.44a3.67,3.67,0,0,0,3.67-3.67V338.22A3.67,3.67,0,0,0,848.88,334.55Zm-38.74,12.27a7.81,7.81,0,1,1-15.62,0v0a7.81,7.81,0,1,1,15.62,0Zm14.24,3.28a3.31,3.31,0,1,1,3.31-3.3A3.31,3.31,0,0,1,824.38,350.1Zm19.6,0a3.31,3.31,0,1,1,3.31-3.3A3.31,3.31,0,0,1,844,350.1Z"/><path class="cls-2" d="M659.92,357.71l-17-9.8a2.44,2.44,0,0,1-.9-3.34l2.49-4.32.26-.47.23-.48.2-.5.19-.5.15-.51.13-.52.1-.52.08-.53,0-.53v-1.07l0-.53-.07-.53-.1-.52-.14-.52-.17-.5-.17-.4-.22-.38-.25-.35-.29-.33-.45-.45-.46-.43-.48-.42-.5-.39-.51-.38-.52-.36-.54-.34-.54-.32-4-2.21-2-1.11-2-1.09-7.69-4.27-.19-.09-.21,0h-.21l-.2,0-.2.08-.17.12-.15.15-.12.17-2.95,5.12-.1.24-.05.25,0,.26.07.25.12.24.15.2.19.18.21.15,4.64,2.68.45,1.67L610.23,358a1.21,1.21,0,0,1-1.67.45l-6.36-3.67a1.23,1.23,0,0,0-1.68.44l-2.62,4.54a4.9,4.9,0,0,0,1.8,6.69l2.59,1.5a4.86,4.86,0,0,1,2,2.17l1.53,3.28a12.18,12.18,0,0,0,5,5.43l27.69,16a3.67,3.67,0,0,0,5-1.34l17.77-30.77A3.68,3.68,0,0,0,659.92,357.71Zm-35.61-2a3.18,3.18,0,0,1-1.16-4.35l6.12-10.6a3.19,3.19,0,0,1,5.52,3.18l-6.12,10.61A3.2,3.2,0,0,1,624.31,355.68Zm12.57,28.1a3.31,3.31,0,1,1,3.3-3.3A3.31,3.31,0,0,1,636.88,383.78Zm9.8-17a3.31,3.31,0,1,1,3.3-3.31A3.31,3.31,0,0,1,646.68,366.81Z"/><path class="cls-2" d="M654.94,417.57l-.42-2.76a3.75,3.75,0,0,0-1.85-2.7l-63.74-36.8-.43-.21L588,375l-.48-.08h-.49l-.5.05-.49.13-.47.19-.46.25-.42.32-.39.36-.35.41-.29.45-27,46.71a1.23,1.23,0,0,0,.44,1.68l19.21,11.08a1.23,1.23,0,0,1,.44,1.68l-11.08,19.2a1.22,1.22,0,0,0,.45,1.67L612,485.47l.48.24.5.19.52.12.52.05h.52L615,486l.49-.13.46-.2.42-.25.38-.31.32-.36.27-.4L654.48,420A3.78,3.78,0,0,0,654.94,417.57Zm-47.81-19.89a3.68,3.68,0,1,1-3.67,3.68A3.68,3.68,0,0,1,607.13,397.68ZM591.4,382.05a6.13,6.13,0,1,1-6.12,6.13A6.12,6.12,0,0,1,591.4,382.05Zm7.31,71.63,3.2,1.85-8.23,4.13-3.2-1.85ZM575.3,422.2a6.13,6.13,0,1,1,6.12-6.12A6.12,6.12,0,0,1,575.3,422.2Zm6.56,37.88A6.13,6.13,0,1,1,588,454,6.13,6.13,0,0,1,581.86,460.08Zm2.61-25.83a3.68,3.68,0,1,1,3.68,3.67A3.68,3.68,0,0,1,584.47,434.25Zm3.69,31.1,16.44-8.26,3.2,1.84-16.44,8.27Zm9.1,5.25-3.2-1.84,8.22-4.14,3.2,1.85Zm15.79,7.49a6.13,6.13,0,1,1,6.12-6.13A6.13,6.13,0,0,1,613.05,478.09Zm8-21.18a3.68,3.68,0,1,1,3.68-3.68A3.67,3.67,0,0,1,621,456.91Zm-6.95-13.69a15.92,15.92,0,0,1-15.92-15.92v0a15.93,15.93,0,1,1,15.92,16ZM640,424a3.68,3.68,0,1,1,3.67-3.67A3.67,3.67,0,0,1,640,424Z"/><path class="cls-2" d="M588.7,486.21,550,463.85a2.46,2.46,0,0,0-3.35.9l-9.8,17a2.45,2.45,0,0,0,.9,3.34l1.52.88a9.77,9.77,0,0,1,4.57,5.95l.27,1a36.78,36.78,0,0,1,.2,18.26,16.54,16.54,0,1,0,32.59,3.38,9.74,9.74,0,0,1,1.31-5.22l11.41-19.77A2.45,2.45,0,0,0,588.7,486.21Zm-39.93-7h0a3.31,3.31,0,1,1,6.62,0h0a3.31,3.31,0,1,1-6.62,0Zm19.2,35.9a7.62,7.62,0,0,1-15.24,0h0a7.62,7.62,0,1,1,15.24,0Zm5.86-20a3.31,3.31,0,1,1,3.3-3.3A3.31,3.31,0,0,1,573.83,495.07Z"/><path class="cls-2" d="M563.92,551.25l-18.36-10.6a9.83,9.83,0,0,1-3.41-3.28l-.39-.61-.38-.56-.39-.54-.38-.5a26.94,26.94,0,0,0-7.68-6.78,5.38,5.38,0,0,1-1.79-1.73.49.49,0,1,0-.83.53,6.26,6.26,0,0,0,2.18,2.07.93.93,0,0,1,.35.36,1,1,0,0,1-.35,1.34l-1.63.94-1,.6a1.21,1.21,0,0,1-1.22,0l-2.2-1.27a1.22,1.22,0,0,1-.45-1.67l3.08-5.34.09-.19.06-.2,0-.2,0-.21,0-.2-.08-.19-.11-.17-.14-.16a4.37,4.37,0,0,0-.86-.62l-9.78-5.65-.16-.09-.69-.4-.41-.19-.43-.13-.45-.05-.44,0-.43.1-.4.17-.36.24-.31.3-.25.35L497.52,545l-.51.92-.48,1-.44,1-.42,1-.38,1-.34,1.05-.31,1.07-.27,1.08-.61,2.65-.14.59-1.11,4.79a10.38,10.38,0,0,0-.16,3.77,3.67,3.67,0,0,0,1.8,2.66l45.27,26.14a4.9,4.9,0,0,0,6.69-1.8L565.71,558A4.91,4.91,0,0,0,563.92,551.25Zm-24.08,4.28a2.09,2.09,0,0,1,4.17,0h0a2.08,2.08,0,0,1-2.08,2.08,2.1,2.1,0,0,1-2.09-2.09Zm-12-19.24h5.94l3,5.14-3,5.15h-5.94l-3-5.15Zm-18.21,14.57h-5.95l-3-5.14,3-5.15h5.95l3,5.15Zm6.46-18.18a3.32,3.32,0,0,1-3.3-3.31h0a3.31,3.31,0,0,1,6.61,0h0A3.31,3.31,0,0,1,516.08,532.68Zm5.62,30.13-3-5.15,3-5.14h5.94l3,5.14-3,5.15Zm8.34,9.7h0a2.09,2.09,0,1,1,4.17,0h0a2.09,2.09,0,0,1-4.17,0Zm11.31,11a2.45,2.45,0,0,1-3.35.89l-3.18-1.83a2.45,2.45,0,0,1-.9-3.35l14.7-25.46a2.45,2.45,0,0,1,3.35-.9l3.18,1.84a2.46,2.46,0,0,1,.9,3.35Zm8.77-1.79a2.08,2.08,0,1,1-4.16,0h0a2.08,2.08,0,1,1,4.16,0Zm9.8-17a2.08,2.08,0,1,1-4.16,0h0a2.08,2.08,0,1,1,4.16,0Z"/><path class="cls-1" d="M525.22,598.9l-34.58-20a7.35,7.35,0,0,0-10,2.69l-.21.35-1.92,3.33-55.16,95.55-1.92,3.33-.21.35a7.36,7.36,0,0,0,2.69,10l34.59,20a7.35,7.35,0,0,0,10-2.69l.28-.48,1.77-3.07,55.31-95.8,1.77-3.07.28-.48A7.34,7.34,0,0,0,525.22,598.9ZM442.35,702.53l-2.07-4.11.93-1.6,2.06,4.11Zm3.77,1.17L442,695.47l.92-1.6L447,702.1Zm1.7-3-2.07-4.11.93-1.6,2.06,4.11Zm57.94-58.35-14,24.3-7.35,12.73-14,24.29a1.22,1.22,0,0,1-1.67.45l-40.95-23.64a1.22,1.22,0,0,1-.45-1.67l35.4-61.32a1.22,1.22,0,0,1,1.67-.45l.27.15,33.95,19.6,6.73,3.89A1.22,1.22,0,0,1,505.76,642.4Zm9.08-24a3.07,3.07,0,0,1-4.19,1.13h0l-5.19-3-2-1.13a2.45,2.45,0,0,0-3.35.9l-1.83,3.18a1.23,1.23,0,0,1-1.68.45l-17-9.8a1.23,1.23,0,0,1-.45-1.68l9.19-15.91a1.23,1.23,0,0,1,1.67-.45l17,9.8a1.23,1.23,0,0,1,.44,1.68l-1.83,3.18a2.45,2.45,0,0,0,.89,3.35l2,1.13,5.2,3A3.07,3.07,0,0,1,514.84,618.36Z"/><path class="cls-2" d="M407.9,828.66A12.39,12.39,0,0,0,420,816v-.16L419,791.32a18,18,0,0,0-18.65-17.27l-.88.05-14.85,1.3a12.08,12.08,0,0,0-8.21,4.28l-12,14.34a1.07,1.07,0,0,0,.13,1.51l8.57,7.19-16.38,19.52,8.94,7.49Zm4.38-8.46-5.75,2.09-4.69-3.93,1.06-6,5.75-2.09,4.69,3.93Zm.47-15.06a1.93,1.93,0,1,1-1.94,1.93A1.93,1.93,0,0,1,412.75,805.14ZM391.57,784a2.45,2.45,0,0,1,3.45-.3l2,1.68a.64.64,0,0,0,.68.07,6.67,6.67,0,0,1,1.21-.49l-.15-.12a7.66,7.66,0,0,1,3.36-.3l-.12.14a8.13,8.13,0,0,1,1.28.28.6.6,0,0,0,.65-.19l1.68-2a2.45,2.45,0,0,1,3.75,3.15l-1.68,2a.61.61,0,0,0-.07.68,7.37,7.37,0,0,1,.49,1.2l.12-.14a7.49,7.49,0,0,1,.29,3.36l-.14-.12a6.85,6.85,0,0,1-.28,1.27.61.61,0,0,0,.2.65l2,1.68a2.45,2.45,0,0,1-3.15,3.76l-2-1.68a.63.63,0,0,0-.68-.08,7.52,7.52,0,0,1-1.21.5l.15.12a7.51,7.51,0,0,1-3.36.29l.12-.14a8.13,8.13,0,0,1-1.28-.28.62.62,0,0,0-.65.19l-1.68,2a2.45,2.45,0,1,1-3.75-3.15l1.68-2a.59.59,0,0,0,.07-.67,7.47,7.47,0,0,1-.49-1.21l-.12.14a7.46,7.46,0,0,1-.29-3.35l.14.12a7,7,0,0,1,.28-1.28.62.62,0,0,0-.2-.65l-2-1.68A2.45,2.45,0,0,1,391.57,784Zm-9.12-1.25a1.94,1.94,0,1,1-1.93,1.94A1.94,1.94,0,0,1,382.45,782.78Zm-13.33,35.13a1.94,1.94,0,1,1-1.93,1.94A1.93,1.93,0,0,1,369.12,817.91Z"/><path class="cls-2" d="M459.22,740.27l-2.91-1.68a1.35,1.35,0,0,1-.58-1.65,29.15,29.15,0,0,1,4.6-8,2.44,2.44,0,0,0,.52-1.76,4.61,4.61,0,0,0-2.26-3.42L456,722.3l-.82-.48-.26-.12-.34-.08h-.34l-.32.07-.27.12-.11.07A12.67,12.67,0,0,1,434,710.56v-.12l0-.3-.11-.31-.17-.29-.25-.26-.23-.16-.82-.47-19.93-11.51a4.88,4.88,0,0,0-3.75-.48,20.8,20.8,0,0,0-12.53,9.67l-11,19A20.83,20.83,0,0,0,383.08,741a4.94,4.94,0,0,0,2.29,3l46.14,26.64a4.64,4.64,0,0,0,4.1.25,2.47,2.47,0,0,0,1.27-1.33,29,29,0,0,1,4.61-8,1.35,1.35,0,0,1,1.72-.32l2.91,1.68h0l.43.25a1.23,1.23,0,0,0,1.68-.45l1.65-2.86,8.58-14.85,1.65-2.87a1.22,1.22,0,0,0-.45-1.67l-.43-.25Zm-69.6-3.12a2.15,2.15,0,0,1-2.93.78l-.74-.43a2.14,2.14,0,0,1,2.14-3.71l.75.43A2.15,2.15,0,0,1,389.62,737.15Zm14.53-35.46a2.15,2.15,0,0,1,2.93-.79l.74.43a2.14,2.14,0,1,1-2.14,3.71l-.74-.42A2.15,2.15,0,0,1,404.15,701.69Zm-5.62,8.93a2.94,2.94,0,1,1,5.88,0h0a2.94,2.94,0,1,1-5.88,0Zm24,45.51a2.14,2.14,0,0,1-2.93.79l-.74-.43a2.14,2.14,0,1,1,2.14-3.71l.74.43A2.13,2.13,0,0,1,422.51,756.13Zm3.18-20.1a13.84,13.84,0,0,1-18.91,5.08l-.74-.43a13.84,13.84,0,0,1,13.84-24l.74.43A13.84,13.84,0,0,1,425.69,736Zm2.62-1.73a5,5,0,1,1,5,5A5,5,0,0,1,428.31,734.3Zm5.44,32.25a2.94,2.94,0,1,1,2.94-2.94A2.93,2.93,0,0,1,433.75,766.55Zm3.27-8.49a2.32,2.32,0,1,1,2.31-2.32A2.32,2.32,0,0,1,437,758.06Zm16.57-26.68a2.14,2.14,0,1,1,2.15-2.14A2.14,2.14,0,0,1,453.59,731.38Z"/><path class="cls-2" d="M463.92,864.45l-45.27-26.14a3.66,3.66,0,0,0-3.21-.22,10.42,10.42,0,0,0-3.18,2l-3.59,3.36-.45.41-2,1.86-.8.77-.77.8-.74.82-.7.85-.67.86-.62.88-.59.89-.54.9L384.5,880.76l-.18.39-.11.41,0,.44.05.43.12.42.2.4.27.36.32.32.38.25.69.4.15.09,9.79,5.65a4.93,4.93,0,0,0,2.57.66c.71,0,1.41-.07,2.12-.15a5.4,5.4,0,0,1,3.27.66A27.23,27.23,0,0,0,416.51,895a9.7,9.7,0,0,1,4.55,1.3l18.36,10.6a4.89,4.89,0,0,0,6.69-1.79l19.6-34A4.89,4.89,0,0,0,463.92,864.45Zm-24.07,4.28a2.08,2.08,0,1,1,4.16,0h0a2.08,2.08,0,0,1-4.16,0Zm-40,7.68a3.31,3.31,0,0,1-6.62,0h0a3.31,3.31,0,0,1,6.62,0ZM403,865.2l-3-5.15,3-5.14H409l3,5.14-3,5.15Zm14.3,23.06h-5.94l-3-5.15,3-5.14h5.94l3,5.14Zm5.06-13.42-3-5.15,3-5.14h5.94l3,5.14-3,5.15Zm7.67,10.86h0a2.08,2.08,0,1,1,4.16,0h0a2.08,2.08,0,0,1-4.16,0Zm11.3,11a2.46,2.46,0,0,1-3.35.9l-3.18-1.84a2.46,2.46,0,0,1-.9-3.35l14.7-25.46A2.45,2.45,0,0,1,452,866l3.18,1.83a2.45,2.45,0,0,1,.9,3.35Zm8.78-1.79a2.09,2.09,0,0,1-4.17,0h0a2.09,2.09,0,0,1,4.17,0Zm9.8-17a2.09,2.09,0,1,1-4.17,0h0a2.09,2.09,0,0,1,4.17,0Z"/><path class="cls-1" d="M457,783.13l-4.8-1.75a5.76,5.76,0,0,0-7.73,5.41v.93a4,4,0,0,1-1.08,2.75,4.92,4.92,0,0,0-1.31,3.33v4.7l.55.55h.94a1.84,1.84,0,1,1,.94,3.56,1.87,1.87,0,0,1-.94,0h-.94l-.55.55v7.61a3.92,3.92,0,0,0,1.7,3.22l3.8,2.63a6.12,6.12,0,0,1,2.65,5v14.91a1.23,1.23,0,0,0,1.22,1.23h0a52,52,0,0,0,6-.5V783.79Zm-6.77,5.62a2,2,0,0,1-2-2h0a2,2,0,1,1,2,2Z"/><path class="cls-2" d="M518.52,797.09H493.61l-.42-.06-.42-.08-.42-.12-.38-.1-1.12-.18-.12-.32-.17-.31-.21-.26-.25-.25-.42-.4-.41-.44-.19-.25-.19-.31-.17-.35-.15-.4-.12-.43-.09-.45-.05-.47,0-.48v-4l0-.48.05-.47.09-.46.12-.42.15-.4.17-.35.19-.31.19-.25.41-.44.42-.4.25-.25.21-.26.17-.3.12-.32,1.12-.19.38-.09.19-.06.38-.09.45-.07.52,0,.58,0H496l1.79,0h19.47a2.43,2.43,0,0,0,2.43-2.43V768.92a2.43,2.43,0,0,0-2.43-2.43H479.21a3.64,3.64,0,0,0-2,.61l-4.79,3.19a3.66,3.66,0,0,0-1.63,3.05v41.39a3.65,3.65,0,0,0,1.63,3l4.79,3.19a3.64,3.64,0,0,0,2,.61h38.08a2.43,2.43,0,0,0,2.43-2.43V798.32A1.23,1.23,0,0,0,518.52,797.09Zm-13.17-23a2.15,2.15,0,0,1,4.29,0h0a2.15,2.15,0,0,1-4.29,0Zm4.15,40.74a2.15,2.15,0,0,1-4.29,0h0a2.15,2.15,0,1,1,4.29,0Z"/><path class="cls-2" d="M578.29,767H536.64a3.68,3.68,0,0,0-3.68,3.68v27a2.45,2.45,0,0,0,2.45,2.45h22a6.14,6.14,0,0,0,4.34-1.8l19.17-19.18a3.67,3.67,0,0,0,1.08-2.6v-5.82A3.67,3.67,0,0,0,578.29,767Zm-8.52,18-6.63,6.63a1.23,1.23,0,0,1-2.09-.87v-6.63a1.22,1.22,0,0,1,1.22-1.22h6.64a1.22,1.22,0,0,1,.86,2.09Z"/><path class="cls-2" d="M554,866.38l-29.7-17.15a3.67,3.67,0,0,0-5,1.34l-10.09,17.48a1.25,1.25,0,0,1-1.68.45l-12.73-7.35a6.11,6.11,0,0,0-8.36,2.24L433.9,954.3a6.13,6.13,0,0,0,2.24,8.37L451,971.25a3.68,3.68,0,0,0,5-1.35l5.79-10a6.14,6.14,0,0,1,3.72-2.85L495,949.13a12.28,12.28,0,0,0,7.44-5.71l16.15-28a24.42,24.42,0,0,1,11.49-10.23,4.43,4.43,0,0,0,2-1.81,28.27,28.27,0,0,1,9.91-9.92,3.53,3.53,0,0,0,1.31-1.32l12-20.77A3.68,3.68,0,0,0,554,866.38ZM452.84,956.62a3.31,3.31,0,1,1-3.3-3.31,3.3,3.3,0,0,1,3.3,3.31Zm6.5-13.67a3.31,3.31,0,1,1,3.3-3.31A3.31,3.31,0,0,1,459.34,943Zm29.54-71.23a3.31,3.31,0,1,1,6.61,0h0a3.31,3.31,0,0,1-6.61,0Zm-5.7,13.45a2.15,2.15,0,1,1-2.14,2.14A2.14,2.14,0,0,1,483.18,885.17ZM469.55,914.3a3.31,3.31,0,1,1,3.3-3.31A3.31,3.31,0,0,1,469.55,914.3Zm27.53,27a2.15,2.15,0,1,1,2.15-2.14A2.14,2.14,0,0,1,497.08,941.33Zm6.29-23.27a14.09,14.09,0,0,1-27.21-3,2.6,2.6,0,0,1,.17-1.26,7.31,7.31,0,0,0,.45-4.11,2.46,2.46,0,0,1,.11-1.26,14.09,14.09,0,1,1,26.48,9.62Zm14.84-11.75a2.14,2.14,0,1,1-4.28,0h0a2.14,2.14,0,1,1,4.28,0Zm9.61-42.8a3.31,3.31,0,0,1-6.62,0h0a3.31,3.31,0,0,1,6.62,0Zm17,9.8a3.31,3.31,0,0,1-6.62,0h0a3.31,3.31,0,0,1,6.62,0Z"/><path class="cls-2" d="M599.78,866.52l-2.38-4.12a1.22,1.22,0,0,0-1.65-.41l-.31.17-.19.07h-.2l-.1,0-.1,0-.07-.07-.06-.07.8-.47.38-.22a1.22,1.22,0,0,0,.45-1.67l-14.45-25a1.23,1.23,0,0,0-1.68-.45l-.38.22-.8.47h0l0-.09v-.21l0-.1.11-.17.15-.13.31-.18a1.22,1.22,0,0,0,.47-1.63l-2.38-4.13a2.46,2.46,0,0,0-3.32-.84L556.82,837.5a6.14,6.14,0,0,0-2.86,3.72l-1.37,5.14a6.14,6.14,0,0,0,.61,4.65l14.61,25.31a6.1,6.1,0,0,0,3.72,2.85l5.14,1.38a6.14,6.14,0,0,0,4.65-.61l17.53-10.13A2.45,2.45,0,0,0,599.78,866.52Zm-7.68-2.66,0,.09-.1.18-.16.13-6.56,3.79a2.45,2.45,0,0,1-3.35-.89l-5.84-10.11a4.54,4.54,0,0,1-2-3.55l-5.83-10.11a2.43,2.43,0,0,1,.9-3.34l6.56-3.79.19-.08H576l.09,0,.1,0,.08.07.06.08h0l-.86.49-5.79,3.35a2.44,2.44,0,0,0-1.09,2.92l5.93,10.27.28-.17a3.67,3.67,0,1,1,1.84,3.19l-.28.16,5.92,10.26a2.45,2.45,0,0,0,3.08.52l5.79-3.34.86-.5,0,.09v.21Z"/><path class="cls-1" d="M629.78,741A15.93,15.93,0,1,1,645.71,757,15.92,15.92,0,0,1,629.78,741v0Zm19.16-5.36,5,10,2.16-3.75-5-10Zm-9.42-2.91,10.2,20.29,2.16-3.74L641.68,729Zm.78,17.39,2.16-3.75-5-10-2.16,3.75Z"/><path class="cls-2" d="M723.79,794.68l0-.2-.08-.19-2.14-3.86-2.14-3.84-1.09-2-1.1-2-2.21-4-.32-.55-.34-.54-.36-.52-.38-.51-.4-.5-.41-.48-.43-.46-.45-.45-.33-.29-.35-.25-.38-.21-.4-.18-.48-.16-.49-.13-.5-.11-.51-.07-.52,0h-1.06l-.54,0-.53.07-.54.11-.53.12-.53.16-.52.18-.51.21-.49.24-.48.26-4.32,2.49a2.44,2.44,0,0,1-3.34-.89l-9.8-17a3.67,3.67,0,0,0-5-1.34L649,775.64a3.68,3.68,0,0,0-1.35,5l16,27.69a12.25,12.25,0,0,0,5.44,5l3.28,1.53a5,5,0,0,1,2.17,2l1.5,2.59a4.89,4.89,0,0,0,6.69,1.8l4.53-2.62a1.22,1.22,0,0,0,.45-1.67L684,810.58a1.22,1.22,0,0,1,.44-1.67L712,793l1.67.45,2.68,4.64.15.21.18.2.2.15.24.12.24.06.27,0,.25,0,.24-.11,5.12-2.95.17-.12.15-.15.12-.17.07-.2,0-.2ZM662,785.57a3.31,3.31,0,1,1,3.31-3.3A3.31,3.31,0,0,1,662,785.57Zm17-9.8a3.31,3.31,0,1,1,3.31-3.3A3.3,3.3,0,0,1,678.94,775.77Zm22.78,14.1L691.11,796a3.18,3.18,0,1,1-3.18-5.51l10.61-6.13a3.19,3.19,0,0,1,3.18,5.52Z"/><path class="cls-2" d="M781.69,776.87l-5.21-9-9.31-16.13a4.91,4.91,0,0,0-6.7-1.79l-23.34,13.47a4.91,4.91,0,0,0-1.79,6.7l9.31,16.12,5.22,9a4.89,4.89,0,0,0,5,2.39,5.09,5.09,0,0,0,1.65-.59l23.34-13.48a5,5,0,0,0,1.34-1.13A4.91,4.91,0,0,0,781.69,776.87Zm-16,2.61a3.68,3.68,0,1,1-7.35,0h0a3.68,3.68,0,0,1,7.35,0Z"/><path class="cls-1" d="M846,733.14s-.05-.1-.08-.14l-12.13-21.28A18.14,18.14,0,0,0,809,705c-.26.14-.51.3-.76.45l-12.58,8a12.24,12.24,0,0,0-5.38,7.68l-4,18.28,0,.25,0,.27.08.26.15.24a1.21,1.21,0,0,0,.7.44L798,743.24l-5.42,24.45-.09.43,11.6,2.57,37-20.49A12.55,12.55,0,0,0,846,733.14Zm-10.66-6.6a2.14,2.14,0,1,1-2.14,2.14A2.14,2.14,0,0,1,835.31,726.54ZM798.12,725a2.15,2.15,0,1,1,2.14-2.14A2.14,2.14,0,0,1,798.12,725Zm4.4,37.32a2.15,2.15,0,1,1,2.14-2.14A2.14,2.14,0,0,1,802.52,762.3ZM818,735.16a14.46,14.46,0,1,1,14.45-14.45A14.46,14.46,0,0,1,818,735.16Zm18.76,9.72L831,743.6l-1.79-5.67,4-4.38,5.8,1.29,1.78,5.66Z"/><path class="cls-2" d="M698.53,674.81h0L675.2,661.33a1.23,1.23,0,0,0-1.68.45l-25.15,43.57-1.14,2-1.58,2.73a1.22,1.22,0,0,0,.45,1.67l23.34,13.48a1.22,1.22,0,0,0,1.67-.45l1.58-2.73,1.14-2L699,676.48A1.21,1.21,0,0,0,698.53,674.81ZM683.1,694.19l-8.51,14.74a3.68,3.68,0,0,1-5,1.35L659,704.15a3.68,3.68,0,0,1-1.35-5l8.52-14.74a3.68,3.68,0,0,1,5-1.35l10.61,6.13A3.67,3.67,0,0,1,683.1,694.19ZM685,673.33a2.08,2.08,0,1,1,2.08-2.08A2.09,2.09,0,0,1,685,673.33Z"/><path class="cls-2" d="M725.17,625.11,723.79,620a6.14,6.14,0,0,0-2.85-3.72L703.4,606.13a2.44,2.44,0,0,0-3.31.84l-2.38,4.12a1.23,1.23,0,0,0,.47,1.64l.3.17.16.13.1.18,0,.1v.1l0,.1,0,.09-.8-.46-.38-.22a1.21,1.21,0,0,0-1.67.45l-14.46,25a1.23,1.23,0,0,0,.45,1.68l.38.22.8.46h0l-.06.08-.08.06-.09.05-.1,0h-.21l-.19-.07-.3-.18a1.24,1.24,0,0,0-1.65.42L678,645.27a2.44,2.44,0,0,0,.92,3.29l17.54,10.13a6.14,6.14,0,0,0,4.65.61l5.13-1.38a6.14,6.14,0,0,0,3.72-2.85l14.62-25.31A6.14,6.14,0,0,0,725.17,625.11Zm-15.59-3-5.84,10.1a4.54,4.54,0,0,1-2,3.56l-5.83,10.1a2.45,2.45,0,0,1-3.35.9L686,643l-.16-.13-.11-.18,0-.1v-.1l0-.1,0-.1h0l.86.5,5.79,3.34a2.45,2.45,0,0,0,3.08-.52l5.93-10.27-.29-.16a3.68,3.68,0,1,1,1.84-3.18l.28.16,5.93-10.26A2.45,2.45,0,0,0,708,619l-5.79-3.34-.86-.5.06-.08.08-.06.09,0,.1,0h.2l.2.07,6.56,3.79A2.46,2.46,0,0,1,709.58,622.14Z"/><path class="cls-2" d="M755.15,646l-1.87-7a5.41,5.41,0,0,0-2.52-3.27l-7.43-4.29a4.41,4.41,0,0,0-6,1.61l-16.54,28.64a4.42,4.42,0,0,0,1.62,6l7.44,4.29a5.36,5.36,0,0,0,4.09.54l7-1.88a5.38,5.38,0,0,0,3.28-2.51l10.42-18.06A5.36,5.36,0,0,0,755.15,646Zm-12.26,7.26a3.68,3.68,0,0,1-7.35,0h0a3.68,3.68,0,0,1,7.35,0Z"/><path class="cls-2" d="M787.47,670.39H786.1v-.1l0-.1.05-.09.08-.07.18-.1.2,0H787a1.22,1.22,0,0,0,1.22-1.18V664a2.45,2.45,0,0,0-2.45-2.38H765.54a6.09,6.09,0,0,0-4.33,1.79l-3.77,3.76a6.12,6.12,0,0,0-1.79,4.33v29.23a6.12,6.12,0,0,0,1.79,4.33l3.77,3.76a6.1,6.1,0,0,0,4.33,1.8h20.24a2.45,2.45,0,0,0,2.45-2.39v-4.76a1.22,1.22,0,0,0-1.22-1.18h-.35l-.2,0-.18-.1-.08-.07-.05-.09,0-.09v-.1h1.37a1.22,1.22,0,0,0,1.22-1.22V671.62A1.23,1.23,0,0,0,787.47,670.39ZM783,701.85l0,.09-.06.09-.07.07-.18.1-.2,0h-7.58a2.45,2.45,0,0,1-2.45-2.45V688.12a4.55,4.55,0,0,1,0-4.1V672.35a2.45,2.45,0,0,1,2.45-2.45h7.58l.2,0,.18.1.07.07.06.09,0,.1v.1h-7.68a2.45,2.45,0,0,0-2.41,2v11.86h.33a3.67,3.67,0,1,1,1.34,5,3.77,3.77,0,0,1-1.34-1.35h-.33v11.85a2.44,2.44,0,0,0,2.41,2H783Z"/><path class="cls-2" d="M756.27,580.84l-8.56-32a4.41,4.41,0,0,0-5.4-3.12L734,548a5.36,5.36,0,0,0-3.27,2.51L714.11,579.3a5.4,5.4,0,0,0-.53,4.09l2.22,8.29a4.41,4.41,0,0,0,5.4,3.12l31.95-8.56A4.41,4.41,0,0,0,756.27,580.84Zm-28.52,1a3.68,3.68,0,0,1-7.35,0v0a3.68,3.68,0,0,1,7.35,0Zm13.86-24a3.68,3.68,0,0,1-7.35,0h0a3.68,3.68,0,0,1,7.35,0Z"/><path class="cls-1" d="M849,658.33h-5.27v19.84a1.22,1.22,0,0,1-1.22,1.23H807.67a1.23,1.23,0,0,1-1.23-1.23V658.33h-5.26A3.67,3.67,0,0,0,797.5,662v19.6a7.35,7.35,0,0,0,7.35,7.35h40.43a7.35,7.35,0,0,0,7.35-7.35V662A3.67,3.67,0,0,0,849,658.33Zm-23.89,27.86a2.14,2.14,0,1,1,2.15-2.14A2.14,2.14,0,0,1,825.06,686.19Z"/><path class="cls-1" d="M838.81,488.19h-62.7a3.67,3.67,0,0,0-3.67,3.67V630a3.67,3.67,0,0,0,3.67,3.67h62.7a3.67,3.67,0,0,0,3.67-3.67h0V491.86A3.67,3.67,0,0,0,838.81,488.19ZM807.4,576.63l-13.87-9.11v-6.67L807.4,570Zm13.86-3.16-27.73-18.23v-6.67l27.73,18.23Zm0-12.28-13.86-9.12v-6.66l13.86,9.11Z"/><path class="cls-1" d="M852.24,482.26l-.11-.52-.2-.51-.27-.48-.34-.46-.4-.42-.46-.38-.51-.32-.56-.28-.6-.22-.62-.16-.65-.09-.65,0H773.73a26.48,26.48,0,0,0-5.82.64l-.49.13-.48.15-.46.19-.46.21-.44.24-.42.27-.4.29-.39.33-.35.35-.33.37-.29.41-.26.42-.21.45-.15.47-.11.48,0,.5V637.61l0,.45.08.45.14.43.18.42.22.39.25.39.3.37.33.36.38.34.41.33.45.3.47.27.48.24.51.21.51.17.53.14a26.48,26.48,0,0,0,5.82.64h73.14l.65,0,.65-.09.62-.16.6-.22.56-.28.51-.33.46-.37.4-.42.34-.46.27-.48.2-.51.11-.52,0-.54V482.8Zm-13.43,153.9h-62.7A6.12,6.12,0,0,1,770,630V491.86a6.12,6.12,0,0,1,6.12-6.12h62.7a6.12,6.12,0,0,1,6.12,6.12V630A6.12,6.12,0,0,1,838.81,636.16Zm8,4a2.15,2.15,0,1,1,2.14-2.15A2.14,2.14,0,0,1,846.77,640.15Zm0-154.11a2.15,2.15,0,1,1,2.14-2.14A2.14,2.14,0,0,1,846.77,486Z"/><path class="cls-2" d="M682.34,450h-22a6.14,6.14,0,0,0-4.34,1.8L636.87,471a3.65,3.65,0,0,0-1.08,2.59v5.83a3.67,3.67,0,0,0,3.67,3.68h41.65a3.68,3.68,0,0,0,3.68-3.68V452.47A2.45,2.45,0,0,0,682.34,450ZM656.7,466a1.22,1.22,0,0,1-1.22,1.22h-6.64a1.22,1.22,0,0,1-.86-2.09l6.63-6.63a1.23,1.23,0,0,1,2.09.86Z"/><path class="cls-2" d="M746.59,442.12H738a5.41,5.41,0,0,0-3.82,1.58l-23.5,23.5a5.39,5.39,0,0,0-1.58,3.81v8.59a4.4,4.4,0,0,0,4.41,4.41h33.07A4.41,4.41,0,0,0,751,479.6V446.53A4.41,4.41,0,0,0,746.59,442.12Zm-23.27,30.15a3.68,3.68,0,1,1-7.35,0h0a3.68,3.68,0,1,1,7.35,0Zm19.6-19.6a3.68,3.68,0,1,1-7.35,0h0a3.68,3.68,0,1,1,7.35,0Z"/><path class="cls-1" d="M774.59,421.88a15.93,15.93,0,0,1,31.85,0v0a15.93,15.93,0,0,1-31.85,0Zm19.16-5.36,5,10,2.16-3.74-5-10Zm-9.42-2.91,10.2,20.29,2.16-3.74-10.2-20.3Zm.78,17.39,2.16-3.75-5-10L780.08,421Z"/><path class="cls-2" d="M851.63,456.48H840a9.79,9.79,0,0,1-9.8-9.8V401.36a9.8,9.8,0,0,1,9.8-9.8h11.63a3.07,3.07,0,1,0,0-6.13h-60a3.07,3.07,0,0,0,0,6.13h11.64a9.8,9.8,0,0,1,9.8,9.8v45.32a9.8,9.8,0,0,1-9.8,9.8H791.61a3.07,3.07,0,0,0,0,6.13h60a3.07,3.07,0,0,0,0-6.13Zm-1.16-68a1.17,1.17,0,0,1,2.33,0h0a1.17,1.17,0,0,1-2.33,0Zm-57.7,0a1.16,1.16,0,0,1-2.32,0h0a1.16,1.16,0,1,1,2.32,0Zm0,71.05a1.16,1.16,0,0,1-1.16,1.16,1.15,1.15,0,0,1-1.16-1.16h0a1.16,1.16,0,1,1,2.32,0Zm28.85-68.42a1.47,1.47,0,1,1-1.47,1.47A1.47,1.47,0,0,1,821.62,391.13Zm2.45,58a2.45,2.45,0,1,1-4.9,0V437.31a2.45,2.45,0,0,1,4.9,0Zm-3.92-17.94a1.47,1.47,0,1,1,1.47,1.47A1.47,1.47,0,0,1,820.15,431.19Zm3.92-6.13a2.45,2.45,0,0,1-4.9,0V398.91a2.45,2.45,0,1,1,4.9,0Zm28.73,34.49a1.17,1.17,0,0,1-2.33,0h0a1.17,1.17,0,0,1,2.33,0Z"/><path class="cls-2" d="M768.13,431.34a1.32,1.32,0,0,0,1.3-1.34,1.41,1.41,0,0,0-.36-.94,7.51,7.51,0,0,1-2-5.12V411.72a7.39,7.39,0,0,0-2.61-5.65,4.07,4.07,0,0,1-1.44-3.13v-26.7a4.11,4.11,0,0,1,1.44-3.14,7.35,7.35,0,0,0,2.61-5.64V355.24a7.56,7.56,0,0,1,2-5.13,1.37,1.37,0,0,0,0-1.9,1.29,1.29,0,0,0-.9-.38h-7.84a1.06,1.06,0,0,0-1-1.07H734.15a1.06,1.06,0,0,0-1,1.07h-7.84a1.06,1.06,0,0,0-1-1.07H689.73a1.06,1.06,0,0,0-1.05,1.07h-7.84a2.66,2.66,0,0,0-2.61,2.7v8a4.09,4.09,0,0,1-2,3.5l-10.45,6.22a8.14,8.14,0,0,0-3.92,7v12.44a8.15,8.15,0,0,0,3.92,7l10.45,6.22a4.06,4.06,0,0,1,2,3.5v24.26a2.65,2.65,0,0,0,2.61,2.69h-2.61V434a2.65,2.65,0,0,0,2.61,2.69h86.23a2.65,2.65,0,0,0,2.61-2.69v-2.7Zm-20.66-74.08a2.65,2.65,0,0,1,2.61-2.69h11.24a2.65,2.65,0,0,1,2.61,2.69V366a2.66,2.66,0,0,1-2.61,2.7,2.54,2.54,0,0,1-1.31-.37L749.43,362a4.09,4.09,0,0,1-2-3.5Zm-32.66,0a2.65,2.65,0,0,1,2.61-2.69h23.52a2.65,2.65,0,0,1,2.61,2.69v1.25a4.07,4.07,0,0,1-2,3.5l-10.45,6.22a3.83,3.83,0,0,1-3.92,0L716.77,362a4.09,4.09,0,0,1-2-3.5Zm-32.66,0a2.65,2.65,0,0,1,2.61-2.69h23.52a2.65,2.65,0,0,1,2.61,2.69v1.25a4.07,4.07,0,0,1-2,3.5l-10.45,6.22a3.83,3.83,0,0,1-3.92,0L684.11,362a4.09,4.09,0,0,1-2-3.5Zm-3.92,40.13-10.45-6.22a4.07,4.07,0,0,1-2-3.5V375.23a4.06,4.06,0,0,1,2-3.5l10.45-6.22a3.78,3.78,0,0,1,3.92,0l10.45,6.22a4.06,4.06,0,0,1,2,3.5v12.44a4.07,4.07,0,0,1-2,3.5l-10.45,6.22A3.83,3.83,0,0,1,678.23,397.39Zm32.66,19.44a4.05,4.05,0,0,1-2,3.5l-10.45,6.22a3.83,3.83,0,0,1-3.92,0l-10.45-6.22a4.07,4.07,0,0,1-2-3.5V404.39a4.06,4.06,0,0,1,2-3.5l10.45-6.22a3.83,3.83,0,0,1,3.92,0l10.45,6.22a4,4,0,0,1,2,3.5Zm0-19.44-10.45-6.22a4.07,4.07,0,0,1-2-3.5V375.23a4.06,4.06,0,0,1,2-3.5l10.45-6.22a3.78,3.78,0,0,1,3.92,0l10.45,6.22a4,4,0,0,1,2,3.5v12.44a4.05,4.05,0,0,1-2,3.5l-10.45,6.22A3.83,3.83,0,0,1,710.89,397.39Zm32.66,19.44a4.05,4.05,0,0,1-2,3.5l-10.45,6.22a3.83,3.83,0,0,1-3.92,0l-10.45-6.22a4.07,4.07,0,0,1-2-3.5V404.39a4.06,4.06,0,0,1,2-3.5l10.45-6.22a3.83,3.83,0,0,1,3.92,0l10.45,6.22a4,4,0,0,1,2,3.5Zm0-19.44-10.45-6.22a4.07,4.07,0,0,1-2-3.5V375.23a4.06,4.06,0,0,1,2-3.5l10.45-6.22a3.78,3.78,0,0,1,3.92,0l10.45,6.22a4,4,0,0,1,2,3.5v12.44a4.05,4.05,0,0,1-2,3.5l-10.45,6.22A3.83,3.83,0,0,1,743.55,397.39Zm20.38,26.91a2.66,2.66,0,0,1-2.61,2.69,2.53,2.53,0,0,1-1.31-.36l-10.58-6.3a4.07,4.07,0,0,1-2-3.5V404.39a4.06,4.06,0,0,1,2-3.5L756,397a2.57,2.57,0,0,1,3.57,1,2.73,2.73,0,0,1,.35,1.34v3.61a7.35,7.35,0,0,0,2.61,5.64,4.11,4.11,0,0,1,1.44,3.14Z"/><path class="cls-2" d="M31.27,446.42q0,15.36,0,30.72c0,2.29.35,4.71-3.26,4.7-3.41,0-4.9-1.36-5-4.81-.27-7.46-.62-14.92-1.26-22.36-1.08-12.53-2.43-25-3.62-37.55-.07-.71-.1-1.43-.1-2.15,0-24.17-.29-48.36.11-72.53.2-12.2,1.55-24.38,2.35-36.57.47-7.25.85-14.49,1.31-21.74.39-6.2.78-12.4,1.3-18.59.27-3.13,2.77-5.54,5.15-5.12,3.05.54,3.05,2.94,3.05,5.31q0,30.52,0,61.06a14.33,14.33,0,0,0,.21,2.62c.64,3.57,2.29,4.77,6.28,4.87,3.14.07,6.28-.08,9.41.06,1.39.06,3.32.12,4,1C54,338.6,57.53,338,61,338.05c5,0,10-.05,15,0,3.56.05,6.87,0,10-2.39,1.62-1.2,4.3-1,6.51-1.38,4-.63,8.34,1.34,12.16-1.53.32-.23,2.73,1.18,2.81,2,1.17,11.3,2.81,22.62.62,34a19.74,19.74,0,0,0-.32,4c.37,6.77,1,13.53,1.09,20.29,0,4.94-.8,9.88-1.21,14.83-.19,2.35-1.75,2.95-3.46,2.13-5.31-2.57-10.93-2.12-16.52-2.18a4.46,4.46,0,0,1-2.44-.37c-8.32-6.2-17.82-2.35-26.75-3.24a1.39,1.39,0,0,0-1,.28c-5.76,4.46-12.75,2.71-19.23,3.66-5.89.86-7.12,2.8-7.14,8.84C31.25,426.77,31.27,436.59,31.27,446.42Zm19-87.94a.75.75,0,0,0-.21,0c-3,0-6.1,0-7.59,1.49A23.59,23.59,0,0,0,36.27,369a9.06,9.06,0,0,0,1.67,8.62c1.27,2.22,6.22,7.56,12.5,7,6.1-.59,13.66-7.47,12.48-13.32-.82-4-3.26-8-5.88-11.26C55.92,358.61,52.62,358.92,50.23,358.48Zm25.35,41.73a1,1,0,0,0,.25,0c3,0,6.64-.78,8.44-2.58,2.78-2.78,6.1-7,5.8-10.38-.39-4.27-3.8-8.5-6.64-12.18-1-1.27-4.17-1.08-6.35-1.12-7.54-.13-14.89,5.82-14.16,12.5.43,4,2.88,8.1,5.4,11.41C69.43,399.3,72.65,399.74,75.58,400.21Zm-.48-31.6c3.7.25,7.47.18,8.84-1.31,2.85-3.08,6.09-7.27,6.13-11.05s-3.2-7.87-5.87-11.12c-1.13-1.38-4.49-1.32-6.8-1.23-3.18.13-7.29-.14-9.27,1.67-2.67,2.44-5,6.66-5.07,10.16s2.22,7.6,4.69,10.36C69.43,368,73.21,368.61,75.1,368.61Zm-32.33,35H43c2.61-.33,5.67.05,7.67-1.23,2.51-1.59,4.63-3.18,7.79-3,.68,0,2-1.38,2.07-2.2.19-2.77-3.67-6.76-6.49-6.92-2.06-.12-4.18.21-6.21-.08-4.86-.72-7.41,1.67-9.46,5.78C34.64,403.36,34.46,403.3,42.77,403.62ZM44,340s-2.36-.26-2.45,0l-2.8.24a2,2,0,0,0-1.7,2.82c.73,1.67,1.41,3.35,2.1,5.06,1.78,4.42,5.12,5.59,9.51,5,1.44-.18,2.93,0,4.39,0,3.24-.11,7.56-4.47,7.39-7.53,0-.52-.42-1.34-.82-1.47A149.14,149.14,0,0,0,44,340ZM99.5,371.8h0c0-3.53.15-7.06,0-10.58-.13-2.25-2.19-3-3.88-1.69-.14.12-.19.36-.29.53-2,3.56-4.31,7-6,10.73-1,2.14,5.39,12.68,7.86,13.29a2.92,2.92,0,0,0,2.27-1.71C99.63,378.86,99.5,375.33,99.5,371.8Zm0,25.22a13.27,13.27,0,0,0,0-3.09,13.12,13.12,0,0,0-.9-2.34,1.36,1.36,0,0,0-1.78-.67,7.62,7.62,0,0,0-2.69,1.64c-1.17,1.35-1.77,3.21-2.58,4.86-.53,1.08-1,2.17-1.56,3.26a1.36,1.36,0,0,0,.92,1.9,18.66,18.66,0,0,0,4.08.66C99.53,403.3,99.53,403.18,99.55,397Zm.46-49.77,0-.48c0-.4.21-1.35,0-1.39.06-1.56,1.2-3.89-.53-4.58-1-.42-.78-.92-2.92-.72-1,.09-2,.19-2.93.33a3.32,3.32,0,0,0-2.6,4.51c.28.7.55,1.08,1,2,.27.56.25.57.79,1.66s2,5.47,5.15,4.12C99.27,352.19,99.44,349.25,100,347.25Z"/><path class="cls-2" d="M474.18,162.35c4.65-.14,6.72,2.47,5.62,7.08-2.65,11.14-2.71,11.24,6.75,17.13,4.73,2.94,9.78,5.37,14.58,8.2,3.89,2.29,7.1,1.34,10.08-1.56,1.2-1.17,2.34-2.4,3.57-3.52,3.42-3.12,5.5-2.91,8,.9,2.84,4.25,3.91,8.57.39,13.09a19.32,19.32,0,0,0-2.46,4.31c-1,2.42-2.43,3.56-5.24,4.4s-5.5,3.57-7.34,6.12a101.71,101.71,0,0,0-8.58,14.33c-1.47,3-1.7,6.56-2.85,9.75a28.82,28.82,0,0,1-4.06,8.29c-.77,1-3.84.92-5.41.26a88.93,88.93,0,0,1-10.89-5.81c-2.38-1.42-3.89-1.75-5.25,1.37-1.22,2.82-3.65,2.72-6.13,1.15q-5.76-3.63-11.63-7.08c-2.19-1.29-2.89-2.72-1.31-5s1.6-4-1.53-5.19c-2.27-.87-4.21-2.57-6.4-3.72-8.09-4.25-8.93-9.8-1.36-14.84,3.59-2.39,5.42-5.31,7.28-8.74,2.35-4.35,4.92-8.6,7.6-12.75a13.9,13.9,0,0,0,1.92-10.17C458.31,172.42,466.26,162.57,474.18,162.35Zm3,74c12.78,1.68,23.34-10.8,22.88-22.81-.53-13.71-10-22.91-22.87-22.67s-22.21,9-22.87,23C453.73,226.08,464.82,237.65,477.17,236.35Z"/><path class="cls-2" d="M737.74,804.57c-.57.51-1,1.13-1.32,1.34-10.71,7.38-21.48,14.68-32,22.31-20.94,15.19-43.45,27.8-66,40.37q-25.71,14.34-51.95,27.71c-11.39,5.83-23.18,10.87-34.77,16.31-2.41,1.13-4.44,2.15-6.07-1.26s.53-4.34,2.79-5.65q26.25-15.18,52.47-30.45c4.57-2.67,5.39-5.46,3.06-10.33-1-2-2.55-3.8-3.46-5.86-1.17-2.67-3.71-5-1.84-8.58.56-1.08-.32-3.25-1.08-4.62-3-5.43-6-10.86-9.37-16-1.47-2.26-2.6-4.9-6.11-5.71-1.93-.44-3.36-3.41-4.84-5.37-2.45-3.25-4.56-6.77-7.19-9.85-2.15-2.52-.56-4,1.09-5.12,5.53-3.84,11.08-7.69,16.88-11.1,3.84-2.26,8.23-3.6,12.18-5.71,2.08-1.11,3.59-3.27,5.65-4.46,6.59-3.84,13.3-7.48,20-11.13,1.25-.68,2.71-1,4-1.59,5-2.28,4.83-2.27,6.31,2.77.52,1.74,1.75,3.26,2.63,4.89,2.34,4.34,5.28,8.44,4.84,13.82a8.09,8.09,0,0,0,1.2,4.09c2.72,5.11,5.4,10.25,8.43,15.18a17.48,17.48,0,0,0,6.9,6.64c3.22,1.75,5.09,6.24,7.22,9.73,3.58,5.84,5.92,6.41,11.85,3,15.56-9,31.19-17.83,46.78-26.74a68.77,68.77,0,0,1,6.41-3.72,4.27,4.27,0,0,1,5.77,3.1c0,.14-.14.85-.09,1ZM630.31,819.49a3.22,3.22,0,0,0,1.38,0c2.42-.57,5.53-.7,6.89-2.31,2.69-3.18,5.7-7.46,5.62-11.22s-3.23-8-6-11.13c-1.34-1.5-4.95-1.39-7.5-1.31-2.73.1-6.47.11-7.92,1.78-2.73,3.12-5.71,7.43-5.63,11.19s3.24,8,6,11.15C624.41,819.06,627.48,819,630.31,819.49Zm-27.21,15a3.21,3.21,0,0,0,1.31,0c2.85-.55,6.13-.48,7.55-2.07,2.62-3,5-7,5.49-10.79.8-5.85-7.47-13.43-13.56-13.15-2.77.13-6.46.44-8,2.19-2.77,3.13-5.73,7.39-5.77,11.21-.05,3.53,3.13,7.56,5.87,10.46C597.45,833.94,600.53,834,603.1,834.53Zm28.78-10.26a3.28,3.28,0,0,0-1.43,0c-2.93.58-6.09.54-7.66,2.1-2.83,2.8-6.24,6.87-6.12,10.29.14,4,3.25,8.4,6.14,11.69,1.5,1.72,5.28,1.87,8,1.91,2.55,0,6.09-.15,7.48-1.73,2.75-3.15,5.8-7.28,5.95-11.1.13-3.58-2.8-7.76-5.42-10.76C637.46,825,634.37,824.87,631.88,824.27Zm-25.33,15.46a3.83,3.83,0,0,1-.67.08c-5.42,0-5.44.2-3.56,5.12.43,1.13,1.2,2.4,1,3.46-1,5.51,2.65,9.31,4.67,13.72,1.12,2.43,2.41,2.47,4.24.83a12.64,12.64,0,0,0,3-15.83,22.22,22.22,0,0,0-1.7-3.29C611.68,841.31,609.6,839.12,606.55,839.73Zm49.88-5.39c-1.26-.11.78.26,2.38.26a7.23,7.23,0,0,0,3.23-.74c.9-.3,2.16-2.37,1.88-2.89-1.76-3.23-3.4-6.82-6.07-9.17s-5.78-5.36-7.92-6.23a5.69,5.69,0,0,0-2.82-.56c-2.91,2.08-4.06,5-3.13,7.58.84,3.82,3.3,7.6,6,10.56C651.23,834.54,654,834,656.43,834.34Zm-52.78-30.47c6.34.07,13.33-6.4,14.05-12.94.31-2.79-1-3.81-3.78-2.35-5.26,2.82-10.38,5.91-15.48,9l-.25.16a3.11,3.11,0,0,0,.21,5.26,13.8,13.8,0,0,0,1.53.79C601,804.24,602.39,803.87,603.65,803.87Zm-12.88,4a2.83,2.83,0,0,0,.44-1.83c-.27-2.11-2-3-4.07-2.06a36.48,36.48,0,0,0-6.83,4.12c-.84.63-1.72,2.49-1.38,3.16a40,40,0,0,0,4.46,6.28c.14.18,1.38-.09,1.62-.47C587.06,814,589,810.76,590.77,807.91Zm38.81-20.43a4.19,4.19,0,0,0,.78.11,34.44,34.44,0,0,0,5.16-.07,3.87,3.87,0,0,0,2-1.54c-1.16-2.39-2.21-5-4-6.83-.65-.67-3.48.09-4.82,1-2.26,1.46-6.82,1.37-6.16,5C623.33,789.39,627.35,787,629.58,787.48Z"/><path class="cls-2" d="M482.76,104.38c2.81-.26,4.82.9,6.58,3,4.55,5.31,7.75,11.61,10.3,17.84,3.77,9.22,5.86,19.14,8.49,28.8,1.07,3.94-4,5.9-9.29,6.75-4.5.72-7.57,1.61-10.87,2.14-5.05,1.07-4.87-.24-5.45-1.9-1.32-3.82-.66-8.9-4-11.33s-7.82.27-11.85.28c-5.85,0-11.47-1.49-17.29-1.62-5.14-.12-9.49-7.54-7.75-12.51,3.07-8.78,8.71-16.23,13.14-24.3,1.21-2.2,3.61-4,6-4.08C468.25,107.29,475.6,106.62,482.76,104.38Zm3.29,12.09c-.09-3.17-1.61-5.44-4.29-5.39-2.45,0-5.51.85-5.77,4.32-.24,3.18,1.53,5.14,4.61,5.44S485.36,119.06,486.05,116.47Zm-10.86,24.88a5.35,5.35,0,0,0-.65-5.64,4.7,4.7,0,0,0-4.37-2.1c-3,.26-4.41,2.6-4.29,5.74.14,3.77,2.89,4.1,5.59,4.08A4,4,0,0,0,475.19,141.35Zm-10.45-28c-3.81,0-6.14,1.51-6.18,4.53,0,2.67,2.12,4.09,5,4.39,3.3.35,4.61-1.68,4.73-4.22S467.41,113.1,464.74,113.3Zm-12.51,28.91c3.11.11,4.65-1.67,4.73-4.15.08-2.72-1.82-4.51-4.71-4.58s-4.94,1.61-5,4.3C447.22,140.62,448.92,142.34,452.23,142.21Zm39.48-8.45c-.44-1.8-.92-3.15-3-2.76-1.6.3-2.86,1.25-2.49,2.87a2.76,2.76,0,0,0,3.37,2C491,135.68,491.77,135,491.71,133.76ZM496,152.31c0-1.27-.09-2.51-1.84-2.48s-2.88.81-2.91,2.41,1.24,2.41,2.84,2.48S496,153.6,496,152.31Z"/><path class="cls-2" d="M715.69,741.76c-4,2.23-6.05,4-.33,6.82-4.88-1-9.05.24-13.34-1.06-4.82-1.45-6.88-4.39-6.94-8.94a33.38,33.38,0,0,0-3.3-14.31c-2.53-5.27-1.35-9.61,2.76-13.84,4.73-4.88,8.58-10.61,13.29-15.52,6.8-7.09,14.55-5.85,18.87,3.1,3.2,6.64,6.33,13.49,8.08,20.6,1.3,5.22,3.87,5.35,7.55,4.14a18.52,18.52,0,0,1,6.15-.65c3.51,0,5.38,1.93,5.41,5.43a63.44,63.44,0,0,0,1.17,13.58c.81,3.57-.42,6.71-4.8,7.19-8.2.89-16.4,1.79-24.62,2.51C717.15,751.54,717.08,751.4,715.69,741.76Zm-10.58-11c-2.21,1.16-4,2.68-3.93,6s1.84,4.18,4.82,4.2c3.64,0,4.9-2.69,5-5.18C711,732.84,708.48,731.27,705.11,730.73Zm23.27-11.66c-.46-2.85-1.46-5.47-4.59-5.68s-4.76,1.93-5,5c-.2,2.87.6,4.7,4,4.94S727.57,721.62,728.38,719.07Zm-22.07-.21c-.94-1.26-.31-4.34-4-4.43-3.12-.06-5.63,1.15-5.87,4.16s2.13,4.61,5.25,4.72C704.31,723.39,706.21,722.69,706.31,718.86Zm15.05-17.46c-.61-2.18-.93-4.63-4.37-4.54-3.12.07-5.46,1.48-5.51,4.47,0,2.59,2,4.17,4.91,4.44C719.64,706.07,720.64,704.15,721.36,701.4Zm25.07,34.38c0-1.3-.17-2.5-1.92-2.4s-2.88.87-2.84,2.49,1.31,2.39,2.93,2.4S746.41,737.05,746.43,735.78ZM727.49,737a2.34,2.34,0,0,0-2.57-2.13c-1.54.15-2.35,1.44-2.26,3.06s1.41,1.66,2.63,1.68C726.69,739.6,727.68,739.17,727.49,737Z"/><path class="cls-2" d="M84.42,545.6c.14-4.32-1.9-5.31-5.74-5.26-10.24.16-20.49.29-30.73,0-5.27-.17-7.07,2.42-7.39,7-.14,1.87,0,3.76,0,5.65,0,12.47,0,12.47-12.23,12.59-7.4.08-9.08,1.74-9.09,9.21q0,25.41,0,50.82c0,17.35.08,34.71-.05,52.06,0,5,2,7.3,7.07,7.09,4.38-.17,8.78,0,13.17,0,7.3,0,7.71-.07,7.23-7.3-.51-7.74,2.17-13.59,7.81-18.69,5.43-4.9,10.33-10.37,15.62-15.43a13.08,13.08,0,0,0,4.35-10.48c-.22-8.57.1-17.15-.11-25.72-.16-6.74.61-13.13,4.3-19,1.68-2.66.43-3.75-2.42-3.72-4.18,0-8.37-.15-12.54,0-3.15.15-4.63-.76-4.4-4.18.19-3.07-.06-6,4.35-6s8.78,0,13.17,0c5.8-.05,7.44-1.48,7.58-7.27C84.5,559.82,84.2,552.7,84.42,545.6ZM66.86,592.75a1.77,1.77,0,1,1-1.76,1.76A1.76,1.76,0,0,1,66.86,592.75Zm0,28.9a1.77,1.77,0,1,1-1.76,1.77A1.77,1.77,0,0,1,66.86,621.65ZM50.45,550.51c2-.19,2.61.68,2.57,2.13,0,1.2.11,2.54-1.62,2.7a2.64,2.64,0,0,1-3.13-2.19A2.37,2.37,0,0,1,50.45,550.51ZM28.21,574.34c1.22-.11,1.95.35,2.05.8.2,2.06-.39,2.75-1.66,2.78A1.61,1.61,0,0,1,26.77,576C26.82,575.12,27.15,574.44,28.21,574.34ZM26.1,594.51a1.77,1.77,0,1,1,1.76,1.77A1.76,1.76,0,0,1,26.1,594.51Zm2.75,29.83c-1.46,0-2.11-.58-2.09-1.83s.76-1.84,2-1.74a1.52,1.52,0,0,1,1.58,1.53C30,623.57,29.62,624.14,28.85,624.34Zm5.37,50.93a2.3,2.3,0,0,1-2.46-2.4c0-1.62.76-2.89,2.34-3a2.35,2.35,0,0,1,2.5,2.18C36.78,674.36,35.56,675.28,34.22,675.27Zm.05-19.7c-1.63.06-2.48-1.23-2.52-2.83s.8-2.9,2.4-3,2.39,1.26,2.55,2.78C36.63,654.22,35.86,655.52,34.27,655.57Zm27.51-41.73c-.4,7.54-5.66,13.79-13.89,13.15-10-.13-12.69-5.43-13.53-13.34-.77-7.23,6.27-13.19,14-13.09C55.73,600.64,62.15,606.75,61.78,613.84Zm7.16-60.33A1.52,1.52,0,1,1,70.45,552,1.51,1.51,0,0,1,68.94,553.51Z"/><path class="cls-2" d="M478.81,72.83c-2.92-3.62-4.85-8.16-9.81-10-3.34-1.22-5.67-4-7.48-7-5.5-9.18-10.88-18.42-16.34-27.63-3.89-6.58-8.66-8.92-16-6.15a115.91,115.91,0,0,0-29.31,16.77c-5.94,4.57-6.41,10.08-2.83,16.84,2.59,4.91,5.69,9.56,8.19,14.51,3.66,7.25,10.12,13.39,9.69,22.31-.28,5.68,1.84,10.49,4.31,15.28.71,1.39,1.25,3.39,3.53,2.58,1.83-.65,2.06-2.25,2.22-4,.68-7.83,1.9-9.14,9.74-10.94,0,0,.05,0,.06,0,.8,2.34-.37,4.94,1.12,7.7,0,0,0,0,.06,0l13.89-7.82s0-.06,0-.08c-2-1.41-4.11-2.31-3.41-4.88a2.73,2.73,0,0,1,2.66-2.25c2.56.06,3.85,1.08,3,4-.3,1,1.37,1.09,1.74.75,3.33-3,8.65-3.33,11.43-7.89a.05.05,0,0,0,0-.07l-8.57-2.47s0-.06,0-.08c5.35-4.57,10.25-8.09,16.8-3.31,1.88,1.37,3.84.85,5.56-.62C481.3,76.43,480,74.3,478.81,72.83Zm-79.4-22c-1.8,0-2.94-.87-3-2.71s1.36-2.84,3.17-2.78a2.71,2.71,0,0,1,2.77,1.89h0A3.11,3.11,0,0,1,399.41,50.84Zm34.45-25c.59-2.08,2.07-2.62,2.84-2.49,1.52.25,3.42,1,3.41,3.13a3.13,3.13,0,0,1-3.9,3A2.88,2.88,0,0,1,433.86,25.89ZM421.12,99.38A1.84,1.84,0,1,1,423,97.54,1.84,1.84,0,0,1,421.12,99.38ZM445.9,71.76a23.47,23.47,0,0,1-24.84,5.41c-9.41-3.68-14.73-11-14.91-22.4-.92-4.12,1.77-6.85,5.33-9,5.66-3.35,11.45-6.47,17.09-9.84a11.29,11.29,0,0,1,10.55-.89c3.85,1.42,5.88,6,10.74,5.68.68-.05,2.26,2.3,2.18,3.45C451.39,53.67,453.71,63.66,445.9,71.76Zm24.21.22A1.85,1.85,0,1,1,472,70.14,1.85,1.85,0,0,1,470.11,72Z"/><path class="cls-1" d="M431,973.75c-6.23-3.63-12.52-7.16-18.77-10.75-3-1.7-5.08-3.7-5.31-7.67-.6-10.67.56-21.31,1.77-31.74,1.38-11.93,2.95-14.13-9.05-20-.56-.27-4.49-2.33-5.17-2.78-4.46-2.94-4.77-4-7.86-3.7-3.57.39-4,6.18-6.27,9.36-4.67,6.44-4.15,9.27,2.61,13.45,3.46,2.13,3.92,4.67,4.17,8.2.48,6.51-1.34,12.79-1.44,20.58-.74,4.21,1.3,8.17,6.28,11q17.79,10,35.36,20.3c2.83,1.65,4.44,1.36,6.25-1.48C435.82,974.94,432.72,974.76,431,973.75Zm-31-56.7a1,1,0,1,1-1,1A1,1,0,0,1,400,917.05Zm-9.68,23a1,1,0,0,1,0-1.95,1,1,0,1,1,0,1.95Zm.63-16.36a1,1,0,0,1,0-1.95,1,1,0,1,1,0,1.95Zm-.31-7.36c-1.29.18-4.27-2.47-5.52-4.17-.39-.53.5-2,2.11-3.13,1.28-.87,7,2.7,7.21,4.3A4.8,4.8,0,0,1,390.65,916.32Zm4.52,20.17c-2.1,0-2.07-1.76-1.91-3.15.33-2.77.61-5.68.75-8.37a2.08,2.08,0,0,1,1.71-1.93c6.66-1.16,5.07,2.31,5.06,4.05,0,.82,0,1.65,0,2.47l.17,0c-.19,2,.11,4.31-.72,6C399.33,937.51,396.93,936.52,395.17,936.49ZM402,941a1,1,0,1,1,1-1A1,1,0,0,1,402,941Z"/><path class="cls-3" d="M613.68,493.39,459.32,760.75H601.07L755.43,493.39ZM596.3,752.48H473.63L618.45,501.66H741.12Z"/><path class="cls-3" d="M513.16,242.57,214,760.75H355.74L654.91,242.57ZM351,752.48H228.3L517.93,250.83H640.6Z"/><path class="cls-3" d="M267.82,242.57,113.47,509.92H255.22L409.57,242.57ZM250.45,501.66H127.78L272.59,250.83H395.26Z"/><path class="cls-3" d="M434.45,0,0,250.83V752.48l434.45,250.83L868.89,752.48V250.83ZM860.63,747.71,434.45,993.77,8.26,747.71V255.6L434.45,9.54,860.63,255.6Z"/></g></g></svg>