<svg xmlns="http://www.w3.org/2000/svg" viewBox="0 0 1017.62 1175.04"><defs><style>.cls-1{fill:#323534;}.cls-2{fill:#d61e39;}.cls-3{fill:#231f20;}</style></defs><g id="Layer_2" data-name="Layer 2"><g id="Layer_2-2" data-name="Layer 2"><path class="cls-1" d="M508.81,0,0,293.76V881.28L508.81,1175l508.81-293.76V293.76Zm499.13,875.69L508.81,1163.87,9.68,875.69V299.35L508.81,11.17l499.13,288.18Z"/><path class="cls-2" d="M96.49,854.23,90.81,833a14.32,14.32,0,0,0-6.68-8.71L69,815.6a21.22,21.22,0,0,0-29,7.77c-.17.3-.34.6-.5.91L26.39,849.79a14.71,14.71,0,0,0,6.36,19.8l.17.08,44.36,22.08,13.45-3.6-.14-.5L83,859.33,95.47,856a1.46,1.46,0,0,0,.81-.57l.15-.28.08-.31,0-.31ZM38.55,841.69A2.51,2.51,0,1,1,36,844.2,2.51,2.51,0,0,1,38.55,841.69Zm5.84,19.74-6.72,1.8-4.92-4.92,1.8-6.72,6.72-1.8,4.92,4.92Zm14-10.52A16.93,16.93,0,1,1,75.32,834,16.93,16.93,0,0,1,58.39,850.91Zm20.14,31A2.51,2.51,0,1,1,81,879.35,2.51,2.51,0,0,1,78.53,881.86ZM81.77,838a2.51,2.51,0,1,1,2.51-2.51A2.51,2.51,0,0,1,81.77,838Z"/><path class="cls-3" d="M114,789.17l-7.51-30.86a4.31,4.31,0,0,0-1.94-2.66l-5.83-3.55a4.31,4.31,0,0,0-5.92,1.44L67.46,795.21a4.31,4.31,0,0,0,1.44,5.91l27,16.41a2.86,2.86,0,0,0,3.94-1l13.38-22A7.18,7.18,0,0,0,114,789.17Zm-6.81-3.74a1.44,1.44,0,0,1-1.09-.17l-6.63-4a1.44,1.44,0,0,1-.48-2l4-6.63a1.43,1.43,0,0,1,2.62.41l2.6,10.67A1.42,1.42,0,0,1,107.21,785.43Z"/><path class="cls-3" d="M365.19,666.52l-14.66-8.46a110.6,110.6,0,0,0-25.71-10.8,57.79,57.79,0,0,1-13.28-5.58l-59.06-34.1A40,40,0,0,0,224.6,603l-54.9,11a14.34,14.34,0,0,0-9.61,6.89l-48,83.16a14.35,14.35,0,0,0-1.17,11.76l17.93,53.05a40,40,0,0,0,17.91,21.86l59.06,34.09a57.23,57.23,0,0,1,11.47,8.72,111.13,111.13,0,0,0,22.2,16.86l14.66,8.46a5.74,5.74,0,0,0,7.61-1.73h0L367.5,674h0A5.74,5.74,0,0,0,365.19,666.52ZM125.55,693.67l-.09.51-.15.49-.21.48-.26.45-.32.41-.35.38-.41.32-.45.26-.23.11-.25.08-.26.05-.25,0h-.26l-.26,0a1.67,1.67,0,0,1-.77-.45l-.17-.2-.14-.22-.11-.23-.08-.25,0-.25,0-.26v-.52l.08-.51.15-.5.2-.48.26-.45.3-.42.36-.38.39-.33.45-.27.23-.11.25-.09.25-.06.26,0h.26l.25,0,.25.07.24.11.21.15.19.18.16.2.13.23.1.24.07.25.05.25,0,.26Zm71.65-34.23.08-.51.15-.5.2-.48.26-.45.3-.42.36-.38.39-.33.45-.27.23-.11.25-.08.25-.07.26,0h.26l.25,0,.25.07.24.11.21.15.19.18.16.2.13.23.1.24.07.25,0,.25,0,.26v.52l-.09.51-.15.5-.21.47-.26.45-.32.41-.35.38-.41.32-.45.26-.23.11-.25.08-.26.05-.25,0h-.26l-.26,0a1.59,1.59,0,0,1-.77-.45l-.17-.2-.14-.22-.11-.23-.08-.25-.05-.25,0-.26ZM155,635.05l.08-.51.15-.5.2-.48.26-.45.3-.42.35-.38.4-.33.45-.27.23-.11.25-.09.25-.06.26,0h.26l.25,0,.25.07.23.11.22.15.19.18.16.2.13.22.1.24.07.25,0,.26,0,.26v.51l-.09.52-.15.49-.21.48-.27.44-.31.42-.36.37-.4.33-.45.26-.24.1-.24.08-.26.06-.25,0h-.26l-.26,0a1.67,1.67,0,0,1-.77-.45l-.17-.2-.14-.22-.11-.24-.08-.24-.05-.26,0-.25ZM148.52,711l-.67-.15-.67-.17-.66-.2-.66-.22-.64-.24-.61-.49L144,709l-.55-.54-.54-.56-.51-.59-.49-.6-.46-.62-.45-.64-.42-.65-.4-.67-.37-.68-.36-.7-.33-.7-.31-.72-.55-1.46-.24-.74-.22-.74-.36-1.51-.29-1.52L137,693.8l-.18-1.55-.15-1.55-.13-1.55-.17-1.54,22.13-38.32,1.42-.63,1.41-.66,1.41-.65,1.43-.62,1.45-.57,1.46-.52,1.49-.44.75-.18.76-.16,1.54-.25.77-.09.78-.07.78,0h1.56l.77,0,.78.07.77.09.77.13.76.15.75.18.74.21.74.25.72.28.54.43.51.46.5.48.49.49.46.51.45.52.84,1.1.77,1.14.7,1.19.62,1.23.56,1.27.48,1.29.42,1.32.35,1.33.29,1.35.23,1.36.17,1.37.11,1.38.06,1.38v1.38l0,1.38-.09,1.37-.13,1.38-.18,1.36-.23,1.37L189.9,675l-.31,1.35-.35,1.33-.38,1.33-.42,1.31-.46,1.3-.49,1.29-.53,1.28-.56,1.26-.59,1.24a51,51,0,0,1-3.42,5.91l-.78,1.14-.81,1.12-.84,1.09-.87,1.07-.9,1-.93,1-.95,1-1,1-1,.93-1,.91-1.07.87-1.09.85-1.12.8-1.15.77-1.17.72-1.2.68-1.23.64-1.25.59-1.27.54-1.29.48-1.31.42-1.34.37-1.34.29-1.36.23-1.38.15-1.37.08H152l-1.38-.09-1.37-.19Zm19.3,6.58,0,.52-.09.51-.15.5-.21.47-.26.45-.31.41-.36.38-.41.32-.44.27-.24.1-.25.08-.25.05-.26,0h-.26l-.26,0a1.66,1.66,0,0,1-.77-.44l-.17-.2-.14-.22-.1-.24-.08-.24-.06-.26,0-.26v-.51l.07-.52.15-.5.2-.47.26-.45.3-.42.36-.38.4-.34.44-.27.23-.11.25-.08.25-.06.26,0h.26l.26,0,.24.08.24.11.21.14.19.18.16.21.13.22.1.24.07.25,0,.25Zm64.7,102.54a3.95,3.95,0,1,1-7.89,0h0a3.95,3.95,0,0,1,7.89,0Zm12.92,23.37a3.38,3.38,0,1,1,3.37-3.38A3.37,3.37,0,0,1,245.44,843.45ZM303.73,755a7.46,7.46,0,0,1-14.92,0h0a7.46,7.46,0,0,1,14.92,0Zm10.52-82.18L234.1,811.61a4.3,4.3,0,0,1-4.45,2.09,6.47,6.47,0,0,0-6.62,3.07,4.3,4.3,0,0,1-5.85,1.52l-62.13-35.87c-.47-.27-.94-.56-1.39-.85a7.18,7.18,0,0,1-2.28-9.59l87.19-151a7.17,7.17,0,0,1,9.44-2.82c.49.24,1,.5,1.44.77l62.13,35.88a4.3,4.3,0,0,1,1.6,5.83,6.45,6.45,0,0,0,.66,7.26A4.3,4.3,0,0,1,314.25,672.78Zm8.51-9a3.95,3.95,0,1,1-7.89,0h0a3.95,3.95,0,1,1,7.89,0Zm21.81,8a3.37,3.37,0,1,1,3.37-3.37A3.37,3.37,0,0,1,344.57,671.74Z"/><path class="cls-3" d="M146.22,611.57l-8.71-5a6.27,6.27,0,0,0-4.79-.63l-8.21,2.2a6.29,6.29,0,0,0-3.83,2.94L108.47,632.2a6.27,6.27,0,0,0-.63,4.79l2.2,8.21A6.32,6.32,0,0,0,113,649l8.71,5a5.17,5.17,0,0,0,7.06-1.89l19.36-33.55A5.15,5.15,0,0,0,146.22,611.57Zm-15.42,17a4.3,4.3,0,1,1-8.6,0v0a4.3,4.3,0,0,1,8.6,0Z"/><path class="cls-3" d="M66.1,588h-43v15.21H21.92v8.6h1.14v10h8.51a7.18,7.18,0,0,0,5.07-2.1l.68-.68a7.18,7.18,0,0,1,5.07-2.1H66.1a4.31,4.31,0,0,0,4.31-4.3V592.34A4.31,4.31,0,0,0,66.1,588Zm-9.75,14.35a3.88,3.88,0,0,1-7.75,0v-1.15a3.88,3.88,0,1,1,7.75,0Z"/><path class="cls-3" d="M129,563a14.08,14.08,0,0,0-4-.57h-.26a.86.86,0,0,1-.86-.86.9.9,0,0,1,.16-.5,5.46,5.46,0,0,0-4.06-8.61,2.86,2.86,0,0,1-2.67-2.86v-30a2.87,2.87,0,0,1,2.67-2.86,5.44,5.44,0,0,0,4.06-8.61.85.85,0,0,1,.2-1.2.83.83,0,0,1,.5-.16H125a14.08,14.08,0,0,0,4-.57l12.63-3.65a19.5,19.5,0,0,0-17.74-11.39h-26a130.42,130.42,0,0,0-18,1.25,62.67,62.67,0,0,0-20.8,6.77v25.25l-.44.53-.48.56-1,1.09-.51.5-.51.47-.53.45-.52.42-.19.18-.14.19-.07.18,0,.17v10.89l0,.17.07.19.14.19.19.17.52.42.53.45.51.47.51.5,1,1.1.48.55.44.53v27.27c1.81.61,3.65,1.16,5.5,1.65a129.44,129.44,0,0,0,33.29,4.35h26a19.49,19.49,0,0,0,17.74-11.39Zm-.12-64.94a3.37,3.37,0,1,1-3.37,3.37A3.37,3.37,0,0,1,128.88,498.08ZM72.35,555.59l-.46-.36h0l-.5-.4h0l-.29-.22-1-.86.12.1-.21-.19a.39.39,0,0,1-.1-.08l-.34-.34.27.28-1-1-.19-.2.09.08-.63-.7.09.1-.4-.44-.41-.53a1.46,1.46,0,0,0,.16.19l-.62-.77,0,.06-.14-.17L66,548.83l0,0,.52.72-.43-.61-.55-.89.25.43-.58-1-.17-.32.13.23-.52-1,.09.17-.27-.5-.33-.72.22.44-.46-1-.56-1.43q.27.73.57,1.47l-.09-.2-.56-1.46,0-.07a2.72,2.72,0,0,0,.11.25l-.37-1.11c.05.18.1.36.16.53l-.35-1.08-.1-.4c0,.13.08.25.11.38l-.3-1.15a1.29,1.29,0,0,0,0,.19l-.14-.53-.16-.82c0,.24.11.46.16.69L62.09,539l-.2-1.43c0,.46.1.91.18,1.36l0-.18-.21-1.54v-.09c0,.12,0,.23,0,.34l-.11-1.28,0,.44-.07-1v-.41c0,.16,0,.32,0,.48l0-1.3v-.32l0-.89c0,.36,0,.72,0,1.08l0-1.42.11-1.18c0,.32-.08.64-.1,1v-.11l.16-1.55,0-.17c0,.13,0,.26-.05.39l.18-1.17c0,.08,0,.16,0,.25l.13-.84.14-.58c0,.17-.07.34-.1.51l.23-1.07.14-.54c0,.18-.1.35-.14.53l.08-.37.44-1.49a3,3,0,0,0-.09.32l.47-1.39.57-1.43.66-1.39.74-1.34.82-1.31.9-1.25,1-1.2,1-1.14c.4-.41.81-.82,1.24-1.21l-.25.26a27.38,27.38,0,0,0,.69,38.71,25,25,0,0,0,2.66,2.26c-.51-.34-1-.7-1.48-1.07Zm6.12,4.87c-2.63-1.15-4.55-2.61-4.83-5.69-.24-2.76.32-4.56,3.57-5.1,1.73-.3,2.31-2.24,2.29-4.13,0-7.32,0-14.63,0-21.95,0-1.94-1-3.06-2.51-4.09-4.68-3.19-4.3-7.39,1-9.7,10.64-4.63,27.78,1.93,31.49,10.43,2.14,4.91,4.46,9.62,3.92,15C115,554.73,92.24,566.43,78.47,560.46Zm36.85-49.18a4.31,4.31,0,1,1,8.61,0v0a4.31,4.31,0,0,1-8.61,0Zm4.3,51a4.3,4.3,0,0,1-4.3-4.31v0a4.31,4.31,0,0,1,8.61,0v0A4.29,4.29,0,0,1,119.62,562.23Zm9.26,8.9a3.37,3.37,0,1,1,3.37-3.37A3.37,3.37,0,0,1,128.88,571.13Z"/><path class="cls-3" d="M101.57,344.14a4.3,4.3,0,0,0-4.66-3.91l-23.63,2.06a7.11,7.11,0,0,1-5.23-1.65l-.74-.61a7.15,7.15,0,0,0-5.23-1.65l-8.48.74.88,10-1.14.1.75,8.58,1.14-.1,1.32,15.15,42.88-3.75a4.3,4.3,0,0,0,3.91-4.66ZM85,361a3.88,3.88,0,0,1-4.2-3.52l-.1-1.14a3.87,3.87,0,0,1,7.72-.67l.1,1.14A3.86,3.86,0,0,1,85,361Z"/><path class="cls-2" d="M136.27,287.36l-.06-.33-.1-.32-.12-.31-.16-.29-15-26a5.15,5.15,0,0,0,.33-.56l.12-.33,0-.36,0-.36-.14-.33-3.39-5.87-.22-.29-.28-.22-.33-.15-.35-.06a5.45,5.45,0,0,0-5.33,3.52l-11.12,6.42-.33.18-.36.15-.74.24-.73.17-.75.1a5.31,5.31,0,0,0-2.23.71,5.41,5.41,0,0,0-2.72,5v.42l0,.41,0,.41-.08.4-.11.37-.14.37-.17.35-.2.33a15.66,15.66,0,0,1-5,4.57L59.36,291.37a4.5,4.5,0,0,0-2.25,3.9v14.91l0,.39.06.38.09.38.11.38.14.36.16.35.19.35,3.91,6.78.18.27.2.26.23.24.25.21.26.19.29.16.29.14.31.11.61.14.64.07h.67l.69-.07.7-.15.7-.22.69-.28.67-.35,42.22-24.38a4.32,4.32,0,0,1,5.48,1l.32.37.36.36.38.32.4.29.36.21.36.16.26.09.27.06.27,0h.28l.27,0,.26-.06.26-.09.25-.12,13.4-7.74.28-.18.26-.2.24-.23.22-.25.19-.28.17-.28.13-.31.1-.31.07-.33,0-.33v-.33Zm-41-19.56a2.44,2.44,0,1,1,4.88,0h0a2.44,2.44,0,0,1-4.88,0Zm17.55,19L80.44,305.49a5.74,5.74,0,0,1-7.84-2.11l-1.43-2.48a5.73,5.73,0,0,1,2.1-7.84l32.36-18.69a5.75,5.75,0,0,1,7.84,2.1l1.44,2.49A5.75,5.75,0,0,1,112.81,286.8Zm6-29.74a2.44,2.44,0,0,1-4.88,0h0a2.44,2.44,0,1,1,4.88,0Z"/><path class="cls-2" d="M157.47,312.89l-9.33-16.15a1.44,1.44,0,0,0-2-.53l-7.45,4.31a7.17,7.17,0,0,0-2.63,9.79l3.59,6.22a7.17,7.17,0,0,0,9.8,2.62l7.45-4.3A1.44,1.44,0,0,0,157.47,312.89Zm-8.07-3.76a4,4,0,1,1-8.09,0v0a4,4,0,1,1,8.09,0Z"/><path class="cls-3" d="M183.19,339.11h3a1.44,1.44,0,0,0,1.44-1.43V327.63a1.44,1.44,0,0,0-1.44-1.43h-3.75a5.72,5.72,0,0,0-2.86.76,43,43,0,0,1-41,1,16.08,16.08,0,0,0-7.29-1.75H116.2a1.44,1.44,0,0,0-1.43,1.43v1.15a1.44,1.44,0,0,0,1.43,1.44h2.87a2.44,2.44,0,0,1,0,4.87H116.2a1.44,1.44,0,0,0-1.43,1.44V337a5.72,5.72,0,0,0,1.34,3.69l3.19,3.8.31.41-.09.1-.56.65-.59.66-.61.63-.61.58-.38.42-.36.39-.33.38-.33.36-.18.27-.13.28-.08.32,0,.32v9.23l0,.32.08.31.13.29.18.26.33.36.33.38.36.4.38.41.61.58.61.64.59.65.56.65.09.1c-.1.14-.2.28-.31.41l-3.19,3.8a5.74,5.74,0,0,0-1.34,3.69v.5a1.43,1.43,0,0,0,1.43,1.43h2.87a2.44,2.44,0,0,1,0,4.88H116.2a1.43,1.43,0,0,0-1.43,1.43v1.15a1.44,1.44,0,0,0,.57,1.15,1.47,1.47,0,0,0,.86.28h15.09a16.08,16.08,0,0,0,7.29-1.75,43,43,0,0,1,41,1,5.72,5.72,0,0,0,2.86.76h3.75a1.44,1.44,0,0,0,1.44-1.43v-10a1.45,1.45,0,0,0-1.44-1.44h-3a4.3,4.3,0,0,1-4.3-4.3v-23A4.31,4.31,0,0,1,183.19,339.11Zm-53.83,36.51a2.51,2.51,0,1,1,2.51-2.51A2.51,2.51,0,0,1,129.36,375.62Zm0-36.44a2.51,2.51,0,1,1,2.51-2.51A2.51,2.51,0,0,1,129.36,339.18Zm43.86,28.62a2.86,2.86,0,0,1-2.87,2.87H137.86a2.88,2.88,0,0,1-2.3-1.14,1.42,1.42,0,0,1,.86-.29h2.3a1.43,1.43,0,0,0,1.43-1.44V342a1.43,1.43,0,0,0-1.43-1.43h-2.3a1.48,1.48,0,0,1-.86-.29,2.89,2.89,0,0,1,2.3-1.15h32.49a2.87,2.87,0,0,1,2.87,2.87Zm8,7.89a2.52,2.52,0,1,1-2.51,2.51A2.51,2.51,0,0,1,181.19,375.69Zm-2.51-44.11a2.51,2.51,0,1,1,2.51,2.51A2.51,2.51,0,0,1,178.68,331.58Z"/><path class="cls-3" d="M249.5,368.66v-.23l-.1-.2-.17-.15-5-2.87-.79.22-.07.13-3.73-2.16,8.79-15.22a1.15,1.15,0,0,0-.42-1.57l-22.12-12.76a1.43,1.43,0,0,0-2,.52l-8.64,15a1.44,1.44,0,0,0,.52,2L230,359.48a.72.72,0,0,1,.26,1l-3.58,6.21,1,.59-4.59,7.95-1-.59-2.59,4.47,1,.59-4.59,7.95-1-.59-3.59,6.22a.72.72,0,0,1-1,.27L192.45,383.2a1.44,1.44,0,0,0-2,.52L176.3,408.3a7.17,7.17,0,0,0,1,8.48,57.3,57.3,0,0,0,13.24,10.52l20.13,11.62a1.44,1.44,0,0,0,2-.52l1-1.79a4.3,4.3,0,0,0,.43-3.27l-.12-.47-1.1-.63,36.59-63.37Zm-57.29,46.39a4.31,4.31,0,0,1-8.61,0v0a4.31,4.31,0,0,1,8.61,0Zm24.32-4.7L214.42,414a4.31,4.31,0,0,1-5.88,1.57l-8.45-4.88a4.3,4.3,0,0,1-1.58-5.88l2.12-3.66a4.31,4.31,0,0,1,5.88-1.58l8.45,4.88A4.31,4.31,0,0,1,216.53,410.35Zm14.55-62.51a4.3,4.3,0,1,1,4.31-4.3A4.3,4.3,0,0,1,231.08,347.84Z"/><path class="cls-3" d="M195.77,454.69l-33.55-19.37a5.16,5.16,0,0,0-7.05,1.89l-5,8.71a6.32,6.32,0,0,0-.64,4.79l10.08,37.61a6.27,6.27,0,0,0,2.94,3.83l8.71,5a5.17,5.17,0,0,0,7.06-1.89l19.37-33.54A5.17,5.17,0,0,0,195.77,454.69Zm-34.23.46a4.31,4.31,0,0,1-4.3-4.31v0a4.31,4.31,0,1,1,8.61,0h0A4.3,4.3,0,0,1,161.54,455.15Zm12.71,27.06a4.3,4.3,0,1,1-8.6,0h0a4.3,4.3,0,1,1,8.6,0Z"/><path class="cls-3" d="M290.79,184.71l-10.05-17.4a7.17,7.17,0,0,0-9.8-2.62L164.47,226.16a7.18,7.18,0,0,0-2.63,9.8l8.61,14.91a1.44,1.44,0,0,1-.53,2l-20.46,11.82a4.3,4.3,0,0,0-1.58,5.88L168,305.32a4.31,4.31,0,0,0,5.88,1.57h0l23.44-13.54.06,0,.43-.29.39-.35.35-.39.3-.42,0-.05a33,33,0,0,1,11.89-11.77l.55-.32a5.08,5.08,0,0,0,2.16-2.42,28.68,28.68,0,0,1,12-13.46l32.75-18.91a14.36,14.36,0,0,0,6.69-8.71l9.24-34.51a7.21,7.21,0,0,1,3.35-4.35l11.74-6.78A4.31,4.31,0,0,0,290.79,184.71Zm-126.18,90a3.88,3.88,0,1,1,3.87-3.87A3.87,3.87,0,0,1,164.61,274.68Zm7-39.68-.26-.39-.21-.42-.14-.45-.08-.46v-.48l.05-.46.12-.46.18-.43.25-.41.29-.36.35-.32.39-.27.42-.21.45-.15.46-.08.47,0,.47.05a3.33,3.33,0,0,1,2.69,3.86,2.72,2.72,0,0,1-.15.54l-.19.43-.25.4-.3.36-.35.31-.4.27-.42.2-.45.14-.47.07h-.47l-.47-.06-.45-.12-.43-.19-.41-.25-.36-.3Zm4.48,59.56a3.88,3.88,0,1,1,3.87-3.87A3.88,3.88,0,0,1,176.09,294.56Zm16.4-69.64a2.51,2.51,0,1,1,2.51-2.51A2.51,2.51,0,0,1,192.49,224.92ZM217,205.82l.12-.45.18-.44.24-.4.3-.37.35-.32.39-.26.42-.21.45-.15.46-.09h.47l.47,0a3.05,3.05,0,0,1,.54.14,3.32,3.32,0,0,1,2,4.26l-.19.43-.25.4-.3.36-.36.31-.39.26-.43.2-.45.14-.46.08H220l-.47-.06-.46-.12-.43-.19-.4-.25-.36-.3-.32-.35-.26-.39-.21-.42-.14-.45-.08-.47,0-.47Zm.28,55.11a2.51,2.51,0,0,1-5,0h0a2.51,2.51,0,1,1,5,0Zm22-28.25a16.5,16.5,0,1,1-22-17.64,3,3,0,0,1,1.48-.13,8.6,8.6,0,0,0,4.81-.52,2.79,2.79,0,0,1,1.48-.2A16.5,16.5,0,0,1,239.22,232.68Zm16.53,6a2.51,2.51,0,1,1-5,0h0a2.51,2.51,0,1,1,5,0Zm-2-40.33a3.88,3.88,0,1,1,3.87-3.88A3.88,3.88,0,0,1,253.77,198.36Zm19.88-11.48a3.88,3.88,0,1,1,3.87-3.88A3.88,3.88,0,0,1,273.65,186.88Z"/><path class="cls-3" d="M301.78,281.34l-32.44-18.73a14.33,14.33,0,0,0-8.42-1.87l-4.22.37a5.76,5.76,0,0,1-3.37-.75l-3-1.75a5.75,5.75,0,0,0-7.84,2.1L239.39,266a1.44,1.44,0,0,0,.52,2l7.46,4.3a1.44,1.44,0,0,1,.52,2l-18.65,32.31-2,.52-5.43-3.13-.28-.13-.29-.09-.3,0h-.31l-.28.08-.28.14-.23.19-.18.24-3.47,6-.1.22-.07.24v.24l0,.24.08.23.13.21.17.18.2.14,4.43,2.66,4.42,2.64,2.25,1.35,2.28,1.37,4.57,2.74.65.37.66.34.67.32.68.3.69.27.7.24.71.22.72.19.5.1.51,0h.51l.51-.06.58-.12.58-.15.56-.19.56-.22.56-.26.54-.29.53-.33.52-.35.5-.39.49-.42L248,322l.44-.47.41-.48.4-.51.36-.53.34-.55,2.91-5.06a2.88,2.88,0,0,1,3.92-1.05l19.88,11.48a4.31,4.31,0,0,0,5.88-1.57l20.8-36A4.3,4.3,0,0,0,301.78,281.34ZM255.13,295,248,307.42a3.73,3.73,0,0,1-6.46-3.74l7.17-12.42a3.73,3.73,0,0,1,6.46,3.73Zm19.66,16.88a3.88,3.88,0,1,1,3.87-3.87A3.87,3.87,0,0,1,274.79,311.87ZM286.27,292a3.88,3.88,0,1,1,3.87-3.87A3.88,3.88,0,0,1,286.27,292Z"/><path class="cls-3" d="M341.32,235.7H292.54a4.3,4.3,0,0,0-4.3,4.31v6.82a4.27,4.27,0,0,0,1.26,3L312,272.34a7.18,7.18,0,0,0,5.07,2.1h25.72a2.87,2.87,0,0,0,2.87-2.87h0V240A4.3,4.3,0,0,0,341.32,235.7Zm-28.59,27.85a1.44,1.44,0,0,1-2.45,1l-7.77-7.77a1.44,1.44,0,0,1,1-2.45h7.76a1.43,1.43,0,0,1,1.44,1.44Z"/><path class="cls-3" d="M356.58,146.14,345.1,126.26a2.86,2.86,0,0,0-3.92-1.05l-45.35,26.18a2.87,2.87,0,0,0-1.05,3.92l13.37,23.15a11.52,11.52,0,0,1,1.53,6.12,19.37,19.37,0,1,0,38.17-4,43.12,43.12,0,0,1,.23-21.38l.32-1.19a11.48,11.48,0,0,1,5.34-7l1.79-1A2.86,2.86,0,0,0,356.58,146.14Zm-43.32,15.63a3.88,3.88,0,1,1,3.87-3.88A3.88,3.88,0,0,1,313.26,161.77ZM338,185.25a8.93,8.93,0,0,1-17.85,0v0a8.93,8.93,0,1,1,17.85,0Zm.77-38.19a3.87,3.87,0,1,1,3.87-3.87A3.88,3.88,0,0,1,338.73,147.06Z"/><path class="cls-3" d="M498.91,157.79l-.14-.61-.21-.59-.29-.56-19-33a1.44,1.44,0,0,0-2-.52l-23.11,13.34a.58.58,0,0,1-.79-.21l-13.91-24.1a.57.57,0,0,1,.21-.79h0l23.11-13.34a1.44,1.44,0,0,0,.52-2l-19-33-.35-.52-.4-.48-.46-.43-.49-.36-.54-.3-.55-.23-.58-.14-.58-.07h-.58l-.56.09-.54.17-.51.25L406.29,78.89l-.63.41-.57.47-.51.54-.44.59-.37.65-.3.68-7.29,19.83-.3.68-.37.64-.44.6-.51.53L394,105l-.62.41L363,123l-.62.41-.57.48-.51.53-.45.6-.37.64-.29.68-.56,1.5-.21.68-.13.69-.06.7,0,.7.09.69.18.68.25.65.32.64,34.87,60.39.38.59.45.55.5.49.55.43.59.37.63.3.67.23.69.15L401,197l.74.08h.74l.73-.09.72-.17.7-.25.67-.34,30.41-17.56.67-.34.7-.25.72-.17.73-.09h.74l.74.08,20.82,3.6.74.09h.74l.74-.09.72-.17.7-.26.66-.33L497,162.35l.47-.32.41-.38.36-.44.3-.49.23-.54.16-.57.09-.6v-.61Zm-81.49-47.4a4.3,4.3,0,1,1-4.31,4.3A4.3,4.3,0,0,1,417.42,110.39ZM378.9,141.23a4.31,4.31,0,1,1,4.3-4.3A4.3,4.3,0,0,1,378.9,141.23Zm22.24,38.52a4.31,4.31,0,1,1,4.3-4.31A4.31,4.31,0,0,1,401.14,179.75Zm26.79-34.68a18.65,18.65,0,1,1-37.3,0h0a18.65,18.65,0,1,1,37.3,0ZM433,84.14h0a7.17,7.17,0,1,1,14.34,0h0a7.17,7.17,0,1,1-14.34,0Zm6.62,73.37a4.31,4.31,0,1,1,4.31-4.3A4.31,4.31,0,0,1,439.65,157.51Zm45-8.76a7.17,7.17,0,0,1-14.34,0h0a7.17,7.17,0,1,1,14.34,0Z"/><path class="cls-2" d="M421,209.65l-5.79-2.11-.49,1.35-7.46,20.49a1.43,1.43,0,0,1-1.84.86L367.12,216.3a1.44,1.44,0,0,1-.86-1.84L373.72,194l.49-1.35-5.79-2.11a4.31,4.31,0,0,0-5.52,2.58l-7.85,21.57a8.61,8.61,0,0,0,5.14,11l44.49,16.19a8.59,8.59,0,0,0,11-5.14l7.86-21.57A4.31,4.31,0,0,0,421,209.65ZM386.91,228.4a2.51,2.51,0,1,1-5,0h0a2.51,2.51,0,0,1,5,0Z"/><path class="cls-3" d="M425.29,259.09H362.37a1.43,1.43,0,0,0-1.43,1.43V272a1.44,1.44,0,0,0,1.43,1.44h62.92a1.44,1.44,0,0,0,1.44-1.44V260.52A1.43,1.43,0,0,0,425.29,259.09Zm-29,10.05a2.44,2.44,0,0,1-4.88,0h0a2.44,2.44,0,1,1,4.88,0Z"/><path class="cls-3" d="M497.14,199.88H459.68a14.35,14.35,0,0,0-8.23,2.6L448,204.91a5.76,5.76,0,0,1-3.29,1h-3.51a5.72,5.72,0,0,0-5.73,5.73v6.14a1.43,1.43,0,0,0,1.43,1.43h8.61a1.43,1.43,0,0,1,1.43,1.44V258l-1.43,1.43h-6.28l-.3,0-.3.07-.27.12-.26.17-.21.21-.17.25-.11.28,0,.31v6.92l0,.25.06.23.11.22.15.2.18.15.22.12.24.07.24,0,5.17.09,5.14.08,2.62,0,2.67.05,5.33.08h.74l.74,0,.74-.06.74-.08.74-.12.73-.13.72-.17.72-.19.48-.17.46-.21L467,268l.41-.3.45-.39.42-.42.4-.45.37-.47.35-.5.33-.53.3-.55.27-.56.24-.59.21-.61.18-.61.15-.63.12-.63.08-.64.05-.64,0-.64V253a2.87,2.87,0,0,1,2.87-2.87h23a4.31,4.31,0,0,0,4.3-4.31v-41.6A4.31,4.31,0,0,0,497.14,199.88Zm-33.58,49.5a3.73,3.73,0,0,1-7.46,0V235a3.73,3.73,0,0,1,7.46,0Zm23.53-9a3.88,3.88,0,1,1,3.88-3.87A3.87,3.87,0,0,1,487.09,240.34Zm0-23a3.88,3.88,0,1,1,3.88-3.88A3.88,3.88,0,0,1,487.09,217.39Z"/><path class="cls-3" d="M611.92,79.74l-.37-1.38L609,76.87l-4.79-2.76L570.46,54.63l-4.79-2.76L562.47,50l-1.39.37a1.46,1.46,0,0,0-.87.67L558,55a2.87,2.87,0,0,0,1,3.92l7.61,4.39A7.2,7.2,0,0,1,570,67.63l3.71,13.86a7.19,7.19,0,0,1-.72,5.44l-1.24,2.15A4.3,4.3,0,0,0,573.3,95l2.48,1.43a1.43,1.43,0,0,0,2-.52l11-19.14a.57.57,0,0,1,.78-.21l16,9.26a2.88,2.88,0,0,0,3.92-1l2.25-3.9A1.43,1.43,0,0,0,611.92,79.74ZM566.41,58.62a2.51,2.51,0,1,1,2.51-2.51A2.52,2.52,0,0,1,566.41,58.62Zm41,19.73a2.51,2.51,0,1,1-5,0h0a2.51,2.51,0,0,1,5,0Z"/><path class="cls-3" d="M800.17,187.42,623.22,85.26a5.75,5.75,0,0,0-7,1,111.2,111.2,0,0,0-16.33,21.66l-8.46,14.66a5.73,5.73,0,0,0,2.1,7.84L605,137l159.53,92.11,11.43,6.6a5.75,5.75,0,0,0,7.84-2.1L792.22,219a111.29,111.29,0,0,0,10.6-25A5.75,5.75,0,0,0,800.17,187.42ZM734.55,163a1.46,1.46,0,0,1,1.43,0l21,12.14a1.44,1.44,0,0,1-.72,2.68H743.1a2.88,2.88,0,0,1-2.48-1.43L734,164.91A1.44,1.44,0,0,1,734.55,163Zm-26.84-15.49a1.43,1.43,0,0,1,1.44,0l21,12.14a1.44,1.44,0,0,1-.72,2.68H716.27a2.87,2.87,0,0,1-2.49-1.44l-6.59-11.42A1.42,1.42,0,0,1,707.71,147.46ZM680.87,132a1.48,1.48,0,0,1,1.44,0l21,12.15a1.43,1.43,0,0,1-.72,2.67H689.43a2.87,2.87,0,0,1-2.49-1.43l-6.59-11.43A1.44,1.44,0,0,1,680.87,132ZM654,116.47a1.41,1.41,0,0,1,1.43,0l21,12.14a1.44,1.44,0,0,1,.53,2,1.45,1.45,0,0,1-1.25.72H662.59a2.86,2.86,0,0,1-2.48-1.44l-6.6-11.42A1.44,1.44,0,0,1,654,116.47ZM627.2,101a1.41,1.41,0,0,1,1.43,0l21,12.14a1.43,1.43,0,0,1-.71,2.67H635.76a2.86,2.86,0,0,1-2.49-1.43l-6.6-11.43A1.43,1.43,0,0,1,627.2,101Zm-19.44,12.87a2.44,2.44,0,0,1,4.88,0h0a2.44,2.44,0,1,1-4.88,0Zm.33,13.13,12.42-21.52a2.88,2.88,0,0,1,3.92-1,2.93,2.93,0,0,1,1.05,1l5.8,10.05a2.88,2.88,0,0,1,0,2.87l-6.62,11.47a2.88,2.88,0,0,1-2.49,1.44h-11.6a2.87,2.87,0,0,1-2.86-2.87A2.92,2.92,0,0,1,608.09,127Zm22.64,21.42a1.43,1.43,0,0,1-1.44,0l-21-12.14a1.44,1.44,0,0,1,.72-2.68h13.19a2.88,2.88,0,0,1,2.49,1.44l6.59,11.42A1.43,1.43,0,0,1,630.73,148.4Zm2.54-3.05-6.63-11.48a2.88,2.88,0,0,1,0-2.87l6.63-11.48a2.88,2.88,0,0,1,2.49-1.43H649a2.88,2.88,0,0,1,2.48,1.43L658.12,131a2.88,2.88,0,0,1,0,2.87l-6.63,11.48a2.86,2.86,0,0,1-2.48,1.43H635.76A2.86,2.86,0,0,1,633.27,145.35Zm24.29,18.55a1.46,1.46,0,0,1-1.43,0l-21-12.14a1.44,1.44,0,0,1,.72-2.68H649a2.86,2.86,0,0,1,2.48,1.43l6.6,11.43A1.44,1.44,0,0,1,657.56,163.9Zm2.55-3.06-6.63-11.48a2.86,2.86,0,0,1,0-2.86L660.11,135a2.86,2.86,0,0,1,2.48-1.44h13.25a2.87,2.87,0,0,1,2.49,1.44L685,146.5a2.86,2.86,0,0,1,0,2.86l-6.63,11.48a2.87,2.87,0,0,1-2.49,1.44H662.59A2.86,2.86,0,0,1,660.11,160.84Zm24.29,18.55a1.41,1.41,0,0,1-1.43,0l-21-12.14a1.43,1.43,0,0,1-.53-2,1.45,1.45,0,0,1,1.24-.72h13.19a2.87,2.87,0,0,1,2.49,1.44l6.6,11.42A1.44,1.44,0,0,1,684.4,179.39Zm2.54-3-6.62-11.48a2.88,2.88,0,0,1,0-2.87l6.62-11.48a2.87,2.87,0,0,1,2.49-1.43h13.25a2.87,2.87,0,0,1,2.49,1.43L711.79,162a2.84,2.84,0,0,1,0,2.87l-6.62,11.48a2.89,2.89,0,0,1-2.49,1.43H689.43A2.89,2.89,0,0,1,686.94,176.34Zm24.3,18.55a1.48,1.48,0,0,1-1.44,0l-21-12.15a1.43,1.43,0,0,1,.72-2.67h13.19a2.87,2.87,0,0,1,2.49,1.43l6.59,11.43A1.44,1.44,0,0,1,711.24,194.89Zm2.54-3.06-6.63-11.48a2.88,2.88,0,0,1,0-2.87L713.78,166a2.87,2.87,0,0,1,2.49-1.44h13.25A2.86,2.86,0,0,1,732,166l6.63,11.47a2.88,2.88,0,0,1,0,2.87L732,191.83a2.86,2.86,0,0,1-2.48,1.44H716.27A2.87,2.87,0,0,1,713.78,191.83Zm24.29,18.55a1.41,1.41,0,0,1-1.43,0l-21-12.14a1.44,1.44,0,0,1,.72-2.68h13.19A2.86,2.86,0,0,1,732,197l6.6,11.42A1.43,1.43,0,0,1,738.07,210.38Zm2.55-3L734,195.85a2.88,2.88,0,0,1,0-2.87l6.63-11.48a2.86,2.86,0,0,1,2.48-1.43h13.26a2.86,2.86,0,0,1,2.48,1.43L765.47,193a2.88,2.88,0,0,1,0,2.87l-6.63,11.48a2.88,2.88,0,0,1-2.48,1.43H743.1A2.88,2.88,0,0,1,740.62,207.33Zm24.29,18.54a1.41,1.41,0,0,1-1.43,0l-21-12.14a1.43,1.43,0,0,1,.71-2.67h13.2a2.86,2.86,0,0,1,2.48,1.43l6.6,11.42A1.44,1.44,0,0,1,764.91,225.87Zm17-10.44a2.44,2.44,0,1,1,2.44-2.44A2.44,2.44,0,0,1,781.91,215.43ZM784,199.86,771.6,221.38a2.86,2.86,0,0,1-3.92,1.05,2.79,2.79,0,0,1-1-1.05l-5.8-10a2.88,2.88,0,0,1,0-2.87L767.46,197a2.86,2.86,0,0,1,2.48-1.44h11.6a2.86,2.86,0,0,1,2.48,4.3Zm.35-7.31a1.44,1.44,0,0,1-1.24.72H769.94a2.85,2.85,0,0,1-2.48-1.44l-6.6-11.42a1.43,1.43,0,0,1,2-2l21,12.14A1.42,1.42,0,0,1,784.37,192.55Z"/><path class="cls-3" d="M731.18,224.39l-15.3-4.73A28.38,28.38,0,0,1,710,217.1l-72.69-42a28.73,28.73,0,0,1-5.16-3.8l-11.74-10.89a4.38,4.38,0,1,0-5.95,6.42l7.17,6.65a14.33,14.33,0,0,1,4.49,12.29,8.61,8.61,0,0,0,4.24,8.51l66.5,38.39a8.61,8.61,0,0,0,9.49-.58,14.37,14.37,0,0,1,12.89-2.26l9.34,2.89a4.38,4.38,0,0,0,2.59-8.36ZM617.44,165.73a2.08,2.08,0,1,1,2.08-2.08A2.08,2.08,0,0,1,617.44,165.73Zm21,20.68a1.72,1.72,0,0,1-3.44,0h0a1.72,1.72,0,0,1,3.44,0Zm33.69,20.44a2.87,2.87,0,0,1-3.92,1.05l-26.52-15.31a2.87,2.87,0,1,1,2.87-5l26.52,15.31A2.88,2.88,0,0,1,672.18,206.85Zm5.45,2.16a1.72,1.72,0,0,1-3.44,0h0a1.72,1.72,0,1,1,3.44,0Zm19,11.94a2.86,2.86,0,0,1-3.91,1.05l-12-6.92a2.87,2.87,0,1,1,2.87-5l12,6.92A2.86,2.86,0,0,1,696.59,221Zm33.29,9.7a2.08,2.08,0,1,1,2.08-2.08A2.08,2.08,0,0,1,729.88,230.65Z"/><path class="cls-3" d="M752.79,254.09a4.37,4.37,0,0,0-5.23-3.31h0l-15.61,3.55a29.06,29.06,0,0,1-6.37.71H641.62a29,29,0,0,1-6.36-.71l-15.62-3.55a4.37,4.37,0,1,0-2,8.52h0l9.54,2.17a14.34,14.34,0,0,1,10,8.4,8.62,8.62,0,0,0,7.93,5.25H722a8.6,8.6,0,0,0,7.92-5.25,14.34,14.34,0,0,1,10-8.4l9.54-2.17A4.37,4.37,0,0,0,752.79,254.09Zm-134.12,3a2.08,2.08,0,1,1,2.08-2.08A2.08,2.08,0,0,1,618.67,257.13ZM668,268H654.18a2.87,2.87,0,0,1,0-5.74H668a2.87,2.87,0,0,1,0,5.74Zm8.89-2.87a1.72,1.72,0,1,1-3.44,0h0a1.72,1.72,0,1,1,3.44,0ZM713,268H682.37a2.87,2.87,0,0,1,0-5.74H713a2.87,2.87,0,0,1,0,5.74Zm9.11-2.87a1.72,1.72,0,1,1-3.44,0h0a1.72,1.72,0,1,1,3.44,0Zm26.4-8a2.08,2.08,0,1,1,2.08-2.08A2.08,2.08,0,0,1,748.51,257.13Z"/><path class="cls-2" d="M642.2,222.37H635a7.17,7.17,0,0,0-7.17,7.17v8.61a1.43,1.43,0,0,0,1.43,1.43h18.65a1.44,1.44,0,0,0,1.44-1.43v-8.61A7.18,7.18,0,0,0,642.2,222.37ZM638.62,235a4,4,0,1,1,4-4.05A4,4,0,0,1,638.62,235Z"/><path class="cls-3" d="M573.87,316.49l-2.49-1.43-.3-.14-.33-.05-.33,0-.32.09a2.84,2.84,0,0,0-1.2-1.36l-69.58-40.17L496.84,272a2.85,2.85,0,0,0-3.92,1.05l-9.69,16.77a1.13,1.13,0,0,0-1.56.42L433.32,374a1.15,1.15,0,0,0,.42,1.57L423,394.21a2.88,2.88,0,0,0,1,3.92l2.49,1.43,4.87,2.82a4.28,4.28,0,0,1,2.15,3.72v13.26a8.61,8.61,0,0,0,4.3,7.45l11.48,6.63a8.65,8.65,0,0,0,8.61,0l11.48-6.63a4.29,4.29,0,0,1,4.3,0l22.38,12.92a2.91,2.91,0,0,0,1.78.37l.07.31.15.3.22.25.26.2,2.49,1.44a2.87,2.87,0,0,0,3.92-1.05l69.94-121.14h0A2.87,2.87,0,0,0,573.87,316.49Zm-64.29-29.66a1.41,1.41,0,0,1,.19-.72,1.44,1.44,0,0,1,2-.53l22.95,13.26a1.39,1.39,0,0,1,.53.52,1.44,1.44,0,0,1-.53,2l-7.17,4.14a4.29,4.29,0,0,1-4.3,0l-11.48-6.62a4.31,4.31,0,0,1-2.15-3.73Zm0,15.73,11.47,6.63a4.3,4.3,0,0,1,2.16,3.73v13.25a4.3,4.3,0,0,1-2.16,3.73l-11.47,6.63a4.36,4.36,0,0,1-4.31,0L493.8,329.9a4.3,4.3,0,0,1-2.16-3.73V312.92a4.3,4.3,0,0,1,2.16-3.73l11.47-6.63A4.36,4.36,0,0,1,509.58,302.56ZM505.27,344v13.25a4.31,4.31,0,0,1-2.15,3.73l-11.48,6.63a4.29,4.29,0,0,1-4.3,0L475.86,361a4.31,4.31,0,0,1-2.15-3.73V344a4.31,4.31,0,0,1,2.15-3.73l11.48-6.62a4.29,4.29,0,0,1,4.3,0l11.48,6.62A4.31,4.31,0,0,1,505.27,344Zm-20.2-43a.83.83,0,0,0,.07-.13L497,280.38l.07-.12a2.87,2.87,0,0,1,3.85-.93l2.22,1.28a4.31,4.31,0,0,1,2.15,3.73v10.77a4.31,4.31,0,0,1-2.15,3.73l-11.48,6.62a4.29,4.29,0,0,1-4.3,0l-1.15-.66A2.88,2.88,0,0,1,485.07,301Zm-17.93,31.06a.83.83,0,0,1,.07-.13l12.91-22.36.08-.12a2.85,2.85,0,0,1,3.84-.93l1.15.66a4.31,4.31,0,0,1,2.15,3.73v13.25a4.31,4.31,0,0,1-2.15,3.73l-11.48,6.63a4.34,4.34,0,0,1-4.3,0l-1.15-.67A2.86,2.86,0,0,1,467.14,332.07Zm-17.93,31.06.07-.13,12.91-22.36.07-.12a2.87,2.87,0,0,1,3.85-.93l1.14.66a4.3,4.3,0,0,1,2.16,3.73v13.25a4.3,4.3,0,0,1-2.16,3.73l-11.47,6.63a4.31,4.31,0,0,1-4.31,0l-1.14-.67A2.86,2.86,0,0,1,449.21,363.13Zm-15.67,35.52-1.15-.66a2.89,2.89,0,0,1-1.12-3.8.75.75,0,0,0,.07-.12l12.91-22.37.08-.12a2.86,2.86,0,0,1,3.84-.93l1.15.66a4.31,4.31,0,0,1,2.15,3.73v13.25a4.31,4.31,0,0,1-2.15,3.73l-11.48,6.63A4.29,4.29,0,0,1,433.54,398.65Zm13.63,25.1-6.05-12,2.7-4.69,6.05,12Zm11,3.41-12.1-24.08,2.71-4.68,12.1,24.07Zm5-8.63-6-12,2.7-4.69,6.05,12Zm6.23-19.88L457.93,392a4.31,4.31,0,0,1-2.15-3.73V375a4.31,4.31,0,0,1,2.15-3.73l11.48-6.62a4.29,4.29,0,0,1,4.3,0l11.48,6.62a4.31,4.31,0,0,1,2.15,3.73v13.25a4.31,4.31,0,0,1-2.15,3.73l-11.48,6.63A4.29,4.29,0,0,1,469.41,398.65Zm35.86,20.71a4.3,4.3,0,0,1-2.15,3.72l-11.48,6.63a4.29,4.29,0,0,1-4.3,0l-11.48-6.63a4.3,4.3,0,0,1-2.15-3.72V406.1a4.28,4.28,0,0,1,2.15-3.72l11.48-6.63a4.29,4.29,0,0,1,4.3,0l11.48,6.63a4.28,4.28,0,0,1,2.15,3.72Zm17.94-31.07a4.3,4.3,0,0,1-2.16,3.73l-11.47,6.63a4.31,4.31,0,0,1-4.31,0L493.8,392a4.3,4.3,0,0,1-2.16-3.73V375a4.3,4.3,0,0,1,2.16-3.73l11.47-6.62a4.31,4.31,0,0,1,4.31,0l11.47,6.62a4.3,4.3,0,0,1,2.16,3.73Zm17.93-31.06A4.31,4.31,0,0,1,539,361l-11.48,6.63a4.29,4.29,0,0,1-4.3,0L511.73,361a4.31,4.31,0,0,1-2.15-3.73V344a4.31,4.31,0,0,1,2.15-3.73l11.48-6.62a4.29,4.29,0,0,1,4.3,0L539,340.25a4.31,4.31,0,0,1,2.15,3.73Zm17.93-31.06a4.31,4.31,0,0,1-2.15,3.73l-11.48,6.63a4.34,4.34,0,0,1-4.3,0l-11.48-6.63a4.31,4.31,0,0,1-2.15-3.73V312.92a4.31,4.31,0,0,1,2.15-3.73l9.33-5.38a4.29,4.29,0,0,1,4.3,0l13.63,7.87a4.29,4.29,0,0,1,2.15,3.72Z"/><path class="cls-2" d="M478.53,464.12l-63.36-36.59a6.46,6.46,0,0,0-8.82,2.36l-36.59,63.37a6.46,6.46,0,0,0,2.37,8.82l63.36,36.58a6.45,6.45,0,0,0,8.82-2.36l36.59-63.37A6.45,6.45,0,0,0,478.53,464.12ZM448,448.65l-4.21-2.43A41.81,41.81,0,0,1,448,448.65Zm-20.54-1.93a4.31,4.31,0,0,1,4.31-4.3,3.81,3.81,0,0,1,.75.07,41.57,41.57,0,0,1,7.6,2.11l1.14.46,9,5.2,1,.76a41.51,41.51,0,0,1,5.64,5.53,4.3,4.3,0,0,1-.53,6.06,3.86,3.86,0,0,1-.62.44l-10.34,6a4.29,4.29,0,0,1-4.3,0l-11.48-6.63a4.31,4.31,0,0,1-2.15-3.73Zm-8.8,27.67,2.42-4.19,10.81,21.52-2.41,4.18Zm3.37,14.28-2.41,4.19-5.41-10.76,2.42-4.18Zm6.49-11.24,2.42-4.18L436.37,484,434,488.19Zm-34.78-20.88a41.17,41.17,0,0,1,24.36-14.06,3.81,3.81,0,0,1,.75-.07,4.31,4.31,0,0,1,4.31,4.3v11.94a4.31,4.31,0,0,1-2.15,3.73L409.55,469a4.31,4.31,0,0,1-4.31,0l-10.34-6a4.36,4.36,0,0,1-1.14-6.5Zm-1.69,43.19a4.31,4.31,0,0,1-5.52-2.58,41.32,41.32,0,0,1,0-28.13,6,6,0,0,1,.32-.68,4.31,4.31,0,0,1,5.88-1.58l10.34,6a4.31,4.31,0,0,1,2.15,3.73v13.25a4.31,4.31,0,0,1-2.15,3.73l-10.34,6A4.22,4.22,0,0,1,392.07,499.74Zm10.57,17.8,4.21,2.43A41.81,41.81,0,0,1,402.64,517.54Zm20.54,1.93a4.31,4.31,0,0,1-4.31,4.31,4.76,4.76,0,0,1-.75-.07,41.13,41.13,0,0,1-7.61-2.12l-1.13-.46-9-5.2-1-.76a41.44,41.44,0,0,1-5.64-5.52,4.31,4.31,0,0,1,.53-6.07,4.21,4.21,0,0,1,.61-.43l10.34-6a4.31,4.31,0,0,1,4.31,0L421,503.8a4.31,4.31,0,0,1,2.15,3.73Zm33.72-9.82a41.3,41.3,0,0,1-24.36,14.06,4.76,4.76,0,0,1-.75.07,4.31,4.31,0,0,1-4.31-4.31V507.53a4.31,4.31,0,0,1,2.15-3.73l11.48-6.62a4.29,4.29,0,0,1,4.3,0l10.34,6a3.81,3.81,0,0,1,.62.43A4.31,4.31,0,0,1,456.9,509.65Zm7.2-12.49a4.25,4.25,0,0,1-6.19,2.26l-10.34-6a4.32,4.32,0,0,1-2.16-3.73V476.47a4.32,4.32,0,0,1,2.16-3.73l10.34-6a3.82,3.82,0,0,1,.68-.31A4.29,4.29,0,0,1,464.1,469,41.2,41.2,0,0,1,464.1,497.16Z"/><path class="cls-3" d="M430.32,567.84l-2.48-1.43-1.44,2.49a2.87,2.87,0,0,0-1-3.92L403,552.05a4.29,4.29,0,0,1-2.15-3.72V535.07a8.61,8.61,0,0,0-4.3-7.45L385,521a8.65,8.65,0,0,0-8.61,0L365,527.62a4.29,4.29,0,0,1-4.3,0l-7.36-4.25a2.87,2.87,0,0,0-3.92,1l-4.3,7.46a1.14,1.14,0,0,0-1.57.42h0l-18.94,32.8a1.13,1.13,0,0,0,.42,1.56l-4.3,7.46a1.15,1.15,0,0,0-1.57.42l-13.78,23.87a1.14,1.14,0,0,0,.42,1.56l-4.31,7.46a1.44,1.44,0,0,0,1.59,2.11,7.86,7.86,0,0,1,5.83.83l11.09,6.4.18.1a7.73,7.73,0,0,0,6.63.53,4.31,4.31,0,0,1,3.69.3l24.63,14.22a4.32,4.32,0,0,1,2.1,3,7.71,7.71,0,0,0,3.77,5.48l.18.11,11.09,6.4a7.89,7.89,0,0,1,3.64,4.64,1.42,1.42,0,0,0,1.77,1,1.44,1.44,0,0,0,.85-.66l-.86,1.48,2.49,1.44a2.87,2.87,0,0,0,3.92-1.05l47.34-82A2.88,2.88,0,0,0,430.32,567.84ZM365,535.07a4.3,4.3,0,0,1,2.15-3.72l11.48-6.63a4.31,4.31,0,0,1,4.31,0l11.47,6.63a4.31,4.31,0,0,1,2.16,3.72v13.26a4.3,4.3,0,0,1-2.16,3.72l-11.47,6.63a4.31,4.31,0,0,1-4.31,0l-11.48-6.63a4.29,4.29,0,0,1-2.15-3.72Zm0,20.71,11.48,6.63a4.31,4.31,0,0,1,2.15,3.73v13.25a4.31,4.31,0,0,1-2.15,3.73L365,589.74a4.29,4.29,0,0,1-4.3,0l-11.48-6.62a4.31,4.31,0,0,1-2.15-3.73V566.14a4.31,4.31,0,0,1,2.15-3.73l11.48-6.63A4.29,4.29,0,0,1,365,555.78Zm-24.43-1.68,12.91-22.37a2.87,2.87,0,0,1,3.92-1.05h0l1.15.67a4.3,4.3,0,0,1,2.15,3.72v13.26a4.29,4.29,0,0,1-2.15,3.72L347,558.68a4.29,4.29,0,0,1-4.3,0l-1.15-.66A2.87,2.87,0,0,1,340.52,554.1Zm-15.74,56.52a2.87,2.87,0,0,1-4.3,2.48l-8-4.64a2.87,2.87,0,0,1-1.05-3.92l6.17-10.68a2.86,2.86,0,0,1,3.92-1.05h0l1.15.66a4.31,4.31,0,0,1,2.15,3.73Zm0-20.88-1.15-.66a2.87,2.87,0,0,1-1.05-3.92L335.5,562.8a2.85,2.85,0,0,1,3.92-1l1.14.66a4.32,4.32,0,0,1,2.16,3.73v13.25a4.32,4.32,0,0,1-2.16,3.73l-11.47,6.62A4.31,4.31,0,0,1,324.78,589.74Zm17.94,31.06-11.48-6.62a4.31,4.31,0,0,1-2.15-3.73V597.2a4.31,4.31,0,0,1,2.15-3.73l11.48-6.63a4.29,4.29,0,0,1,4.3,0l11.48,6.63a4.31,4.31,0,0,1,2.15,3.73v13.25a4.31,4.31,0,0,1-2.15,3.73L347,620.8A4.29,4.29,0,0,1,342.72,620.8Zm35.86,20.88a2.86,2.86,0,0,1-4.3,2.48l-11.6-6.7a4.24,4.24,0,0,1-2.1-3,7.74,7.74,0,0,0-3.78-5.48L353.48,627a2.86,2.86,0,0,1,0-5l7.17-4.15a4.34,4.34,0,0,1,4.3,0l11.48,6.63a4.31,4.31,0,0,1,2.15,3.73Zm17.94-31.23a4.32,4.32,0,0,1-2.16,3.73l-11.47,6.62a4.31,4.31,0,0,1-4.31,0l-11.48-6.62a4.31,4.31,0,0,1-2.15-3.73V597.2a4.31,4.31,0,0,1,2.15-3.73l11.48-6.63a4.31,4.31,0,0,1,4.31,0l11.47,6.63a4.32,4.32,0,0,1,2.16,3.73Zm17.93-31.06a4.31,4.31,0,0,1-2.15,3.73l-11.48,6.62a4.29,4.29,0,0,1-4.3,0L385,583.12a4.31,4.31,0,0,1-2.15-3.73V566.14a4.31,4.31,0,0,1,2.15-3.73l11.48-6.63a4.29,4.29,0,0,1,4.3,0l11.48,6.63a4.31,4.31,0,0,1,2.15,3.73Z"/><path class="cls-3" d="M290.09,668.09l-.11-.26-.15-.24-.19-.21-.23-.16-33-19.07-.26-.12-.27-.07h-.29l-.28,0-.26.1-.25.15-.2.19-.17.23-3.59,6.21-.11.26-.07.28v.28l.05.28.1.27.15.23.2.21.23.17,1.27.73.23.15.23.18.21.2.18.21.16.23.14.25.12.26.1.27.06.27,0,.28v.57l-.05.28L254,661l-.1.27-.13.25L202.8,749.74l-.15.23-.19.23-.2.21-.21.18-.23.15-.26.14-.27.11-.26.08-.28,0-.29,0h-.29l-.27,0-.28,0-.28-.09-.27-.1-.24-.13L187.11,744a1.44,1.44,0,0,0-2,.52h0l-5.74,9.94-4.3,7.46a1.44,1.44,0,0,0,.52,2l9,5.16a1.44,1.44,0,0,0,2-.52l2.15-3.73a2.87,2.87,0,0,1,3.92-1l28.58,16.5a2.87,2.87,0,0,1,1.05,3.92h0l-2.15,3.72a1.43,1.43,0,0,0,.52,2l8.95,5.17a1.44,1.44,0,0,0,2-.53l4.3-7.45,5.74-9.94a1.43,1.43,0,0,0-.53-2l-11.71-6.76-.23-.16-.23-.18-.21-.2-.19-.21-.15-.22-.15-.26-.12-.26-.09-.27-.06-.27,0-.28v-.29l0-.28,0-.28.08-.27.1-.28.13-.24,50.93-88.22.15-.23.18-.23.2-.21.22-.17.23-.16.26-.14.26-.11.27-.08.27,0,.29,0h.29l.28,0,.27.06.28.08.27.11.25.12,1.27.73.25.12.28.07h.28l.28,0,.27-.1.24-.15.21-.19.17-.23,3.58-6.21.12-.26.06-.28v-.28ZM236,737.42,224.49,757.3a4.31,4.31,0,0,1-5.88,1.57l-1.24-.72L213.64,756l-1.24-.72a4.29,4.29,0,0,1-1.57-5.87l11.47-19.88a4.3,4.3,0,0,1,5.88-1.58l6.22,3.59A4.31,4.31,0,0,1,236,737.42Zm18.36-31.81-10,17.39a4.3,4.3,0,0,1-5.88,1.58L232.2,721a4.31,4.31,0,0,1-1.58-5.88l10-17.39a4.31,4.31,0,0,1,5.88-1.58l6.21,3.59A4.3,4.3,0,0,1,254.33,705.61Zm18.22-31.56-10,17.4a4.31,4.31,0,0,1-5.88,1.57l-6.21-3.59a4.3,4.3,0,0,1-1.58-5.87l10-17.4a4.3,4.3,0,0,1,5.88-1.57l6.21,3.58A4.3,4.3,0,0,1,272.55,674.05Z"/><path class="cls-2" d="M161.5,684.5l4.65.82a2.84,2.84,0,0,0,2.43-.71,60.28,60.28,0,0,0,10.11-12,1.44,1.44,0,0,0-.44-2l-.06,0-10.91-6.3a1.44,1.44,0,0,0-1.92.45c-.5.77-1,1.53-1.58,2.27a1.44,1.44,0,0,0-.15,1.48,8.17,8.17,0,0,1-1.95,9.61,50.93,50.93,0,0,1-8.48,6.1,1.43,1.43,0,0,0-.55,1.92l3.12,5.82a1.44,1.44,0,0,0,1.95.58h0c.67-.39,1.34-.78,2-1.19a.87.87,0,0,0,.27-1.19l0,0-1.08-1.58a2.57,2.57,0,0,1,.67-3.59A2.63,2.63,0,0,1,161.5,684.5Z"/><path class="cls-3" d="M194.42,830.61l-54.49-31.46a1.44,1.44,0,0,0-2,.52h0l-5.73,9.94a1.42,1.42,0,0,0,.52,2L143.9,818l3.73,2.16,10.51,6.07,3.73,2.15,10.52,6.07,3.72,2.15L187.25,843a1.43,1.43,0,0,0,2-.52l5.74-9.94A1.43,1.43,0,0,0,194.42,830.61Zm-29.82-7a2.44,2.44,0,0,1-4.88,0h0a2.44,2.44,0,1,1,4.88,0Z"/><path class="cls-3" d="M261.76,923.21l-6.63-11.48a4.29,4.29,0,0,1,0-4.3l4.25-7.36a2.87,2.87,0,0,0-1.05-3.92L137.19,826.21a2.88,2.88,0,0,0-3.92,1l-41.6,72.06a2.87,2.87,0,0,0,1,3.92h0l121.14,69.94a2.88,2.88,0,0,0,3.92-1l12.92-22.38a4.31,4.31,0,0,1,3.73-2.15h13.25a8.59,8.59,0,0,0,7.45-4.31l6.63-11.47A8.6,8.6,0,0,0,261.76,923.21Zm-128-29.41-6.63,11.47a4.3,4.3,0,0,1-3.73,2.16H110.18a4.3,4.3,0,0,1-3.73-2.16L101.07,896a4.29,4.29,0,0,1,0-4.3L108.94,878a4.29,4.29,0,0,1,3.72-2.16h10.77a4.3,4.3,0,0,1,3.73,2.16l6.63,11.47A4.31,4.31,0,0,1,133.79,893.8Zm0-35.87-6.63,11.48a4.31,4.31,0,0,1-3.73,2.15h-8.28a1.43,1.43,0,0,1-1.43-1.43,1.39,1.39,0,0,1,.19-.72l13.25-23a1.44,1.44,0,0,1,2-.52,1.47,1.47,0,0,1,.53.52l4.14,7.18A4.29,4.29,0,0,1,133.79,857.93Zm3.72-6.45-5.38-9.33a4.29,4.29,0,0,1,0-4.3l1.28-2.23a2.88,2.88,0,0,1,3.92-1l20.5,11.84a2.86,2.86,0,0,1,1,3.92l-.66,1.15a4.31,4.31,0,0,1-3.73,2.15H141.24A4.31,4.31,0,0,1,137.51,851.48Zm10.63,33.77a3.37,3.37,0,1,1-3.37-3.37A3.37,3.37,0,0,1,148.14,885.25Zm21,41.67-28-16.14a4.87,4.87,0,0,1-1.78-6.66l19-32.93h0a4.88,4.88,0,0,1,6.66-1.79l28,16.14a4.88,4.88,0,0,1,1.79,6.67l-19,32.92A4.87,4.87,0,0,1,169.17,926.92ZM189.5,907.7a3.38,3.38,0,1,1-3.37,3.37A3.37,3.37,0,0,1,189.5,907.7Zm24.09,45.86-27.34-15.78L211,894.91l27.34,15.79Z"/><path class="cls-2" d="M229.36,853.54,223.15,850a7.17,7.17,0,0,0-9.8,2.62L209,860a1.44,1.44,0,0,0,.53,2l16.15,9.32a1.44,1.44,0,0,0,2-.52l4.3-7.46A7.17,7.17,0,0,0,229.36,853.54ZM226,859.22a4,4,0,1,1-8.09,0h0a4,4,0,0,1,8.09,0Z"/><path class="cls-2" d="M288.7,998.45v.2l0,.21-.05.2-.08.21-.11.21-2.52,4.36-.12.18-.13.17-.14.13-.16.12-.17.09-.19.07-.19,0-.21,0h-.22l-.24,0-.24-.06-.26-.07-.27-.1-.29-.12-.29-.15-.31-.17-.31-.18-.27-.19-.26-.19-.22-.18-.2-.19-.17-.19-.14-.19-.12-.19-.09-.19-.06-.19,0-.2v-.19l0-.19.05-.2.07-.2.1-.19,2.51-4.36.14-.22.15-.19.16-.16.18-.13.18-.1.19-.07.2,0H285l.24,0,.24.06.26.07.27.1.28.13.29.14.3.17.3.18.28.18.25.19.22.19.19.19.17.2.14.19.11.2.08.19.06.2Zm-18.51-10.88-.06-.2-.09-.19-.11-.2-.14-.19-.16-.2-.19-.19-.23-.19L269,986l-.28-.18-.3-.19-.31-.16-.29-.15-.27-.12-.27-.1-.26-.07-.25-.06-.23,0h-.44l-.2,0-.19.07-.19.1-.17.13-.16.16-.15.19-.14.22-2.51,4.36-.1.19-.08.2,0,.2,0,.19v.19l0,.2.06.19.09.19.12.19.14.19.17.19.2.19.22.18.25.19.28.18.31.19.31.17.29.15.29.12.27.1.26.07.24.06.24,0h.22l.21,0,.19-.05.18-.06.18-.09.15-.12.15-.14.13-.16.12-.18,2.52-4.36.11-.21.08-.21.05-.21,0-.2v-.2Zm8.55,4.61-.18-.25-.26-.26-.33-.26-.41-.25-1.92-1.11-2,3.44,1.79,1,.48.26.42.19.38.11.32,0,.28,0,.25-.12.23-.2.2-.28.73-1.27.11-.26,0-.25,0-.26Zm28.68,6.42c-3.07,5.49-3,10.11-.29,15.25,3.19,6,2,8.86-4.93,10.95-1.21.37-2.65.54-3,1.71-1.45,5-4.43,2.79-7,1.53-2.81-1.36-5.45-3.07-8.18-4.61-7.71-4.34-8-4.45-4.42-12.11,1.32-2.85.7-3.65-1.66-4.93-4.64-2.52-9.22-5.2-13.61-8.14-3.8-2.56-5.79.18-6.83,2.62-2.31,5.37-5.41,4.17-9,1.92-1.62-1-3.21-2.1-4.88-3-9.73-5.48-10.65-7.46-8.25-18.24.72-3.23,2.75-5.19,6.15-5,8.11.37,12.78-3.94,16.33-10.75,5.5-10.57,12.52-20.29,17.53-31.15,1.66-3.61,5.12-3.82,9.54-3.66,3.35,1.21,7.83,1.44,11.89,4.27A167.08,167.08,0,0,0,317,946.87c5,2.56,8.11,6.63,10.87,11.22a5.8,5.8,0,0,1-.14,6.14C320.13,975.22,313.91,987,307.42,998.6Zm-61.86-16.2c-.69-1.54-1.47-2.92-3.51-3.06-2.33-.15-4.79,0-5.07,2.81-.22,2.1,1.84,3.77,3.56,4.16C243.06,986.88,244.1,984.34,245.56,982.4Zm18.27-.37-1.36-.79L255,987.4l-.13-.07,1.6-9.54-1.42-.83-1.73,11.2,1.58.92ZM268.75,994l2.51-4.35.16-.32.13-.32.08-.32,0-.32V988l0-.31-.09-.31-.12-.3-.17-.3-.21-.3-.26-.3-.29-.29-.34-.29-.38-.29-.42-.28-.47-.28-.47-.26-.45-.22-.43-.18-.42-.15-.4-.1-.37-.07-.37,0h-.34l-.32,0-.31.08-.29.12-.27.16-.25.19-.24.24-.22.27-.19.31-2.5,4.32-.16.31-.12.31-.07.31,0,.3v.3l0,.3.09.29.13.3.17.29.21.29.26.29.29.29.34.28.37.28.42.28.46.28.43.23.42.21.4.18.4.14.39.12.38.08.36.06.36,0h.34l.32-.05.3-.1.28-.14.27-.18.24-.23.22-.26ZM279,995.8l.14-.17.13-.19.91-1.58.18-.36.11-.33,0-.31v-.3l-.08-.28-.15-.28-.2-.27-.27-.27-.34-.28-.41-.31-.49-.32-.57-.34-3.22-1.85-5.28,9.15,1.37.79,2.25-3.91,1.33.77.37,5.42,1.67,1-.58-5.76.51.25.5.18.48.09h.47l.22,0,.21,0,.2-.08.18-.09.17-.12Zm8.22,8.82,2.51-4.34.17-.33.12-.32.08-.32,0-.32v-.31l0-.31-.08-.31-.13-.3-.17-.3-.21-.3-.26-.3-.29-.29-.34-.29-.38-.29-.42-.28-.46-.28-.47-.26-.46-.22-.43-.18-.42-.15-.39-.1-.38-.07-.36,0h-.35l-.32.05-.31.08-.29.12-.27.16-.25.19-.24.24-.21.27-.2.31-2.5,4.33-.16.3-.12.31-.07.31,0,.3v.3l.05.3.08.29.13.3.17.29.22.29.25.29.29.29.34.28.38.28.41.28.46.28.43.24.42.2.41.18.39.14.39.12.38.08.36.06.36,0h.34l.32,0,.3-.1.29-.14.26-.18.24-.23.22-.26Zm13.87-1.07-1.2-.7-4.36,7.56-.61-10.43-1.65-1-5.29,9.15,1.2.69,4.44-7.68.54,10.55,1.65,1Zm1.09,11.06c-2.16.16-4,1.25-3.4,3.54.5,1.81,1.21,4.44,4.19,3.77,3.16.21,3.81-2.45,3.89-4.26C307,1014.91,304.51,1014.44,302.19,1014.61Zm13.9-49.34c0-13.11-11.64-25-24.58-24.06-13.9,1-23.48,9.72-23.93,24.77-.42,13.54,10.09,23.66,23.83,23.67C306.15,989.67,316.11,979.84,316.09,965.27Z"/><path class="cls-2" d="M322.56,911.16A6,6,0,0,0,320,900.52l-4.25-.75a7.21,7.21,0,0,0-3.1.13L301.26,903a21.49,21.49,0,0,1-15.48-1.69l-8.84-4.58a2.15,2.15,0,0,0-2,3.82l1.48.77a2.88,2.88,0,0,1,1.45,1.8l2.39,8.92a2.87,2.87,0,0,1-.44,2.41,21.65,21.65,0,0,0-1.24,1.92,5.69,5.69,0,0,0-.64,4.17,1.42,1.42,0,0,0,1.72,1.08,1.32,1.32,0,0,0,.41-.17c1.59-.95,3.23-1.83,4.9-2.63a1.07,1.07,0,0,0,.5-1.43,1,1,0,0,0-.37-.43,2.16,2.16,0,0,1-.32-3.32l.22-.21a5.68,5.68,0,0,1,2.48-1.4L305,907.31l.79-.17.81-.11.81,0,.81,0,.81.11.79.17.77.25.75.31.73.37.68.44.65.49.6.55.55.6.5.65.43.68.38.73,3,6.41a2.15,2.15,0,0,0,3.9-1.83l-1.07-2.29A2.87,2.87,0,0,1,322.56,911.16Zm-1.05-4.77a2.51,2.51,0,0,1-5,0h0a2.51,2.51,0,0,1,5,0Z"/><path class="cls-2" d="M406.65,896.73h-64a4.31,4.31,0,0,0-4.3,4.31v3.16a.58.58,0,0,0,.57.57h20.38v-.42a2.44,2.44,0,1,1,3.45,0h0v.42h16.35a4.87,4.87,0,0,1,4.88,4.88v12.91a2.87,2.87,0,0,0,2.87,2.87h19.81a5.74,5.74,0,0,0,5.74-5.74V902.47A5.74,5.74,0,0,0,406.65,896.73ZM398,915a3.95,3.95,0,1,1,3.94-3.95A4,4,0,0,1,398,915Z"/><path class="cls-3" d="M374,924.2H335.29a5.17,5.17,0,0,0-5.16,5.17v10.06a6.28,6.28,0,0,0,1.85,4.46l6,6a6.26,6.26,0,0,0,4.46,1.85h24.42a6.3,6.3,0,0,0,4.47-1.85l6-6a6.28,6.28,0,0,0,1.85-4.46V929.37A5.17,5.17,0,0,0,374,924.2Zm-19.37,18.08A4.31,4.31,0,1,1,359,938,4.3,4.3,0,0,1,354.66,942.28Z"/><path class="cls-3" d="M435.87,1029.39l-22.49-13a1.44,1.44,0,0,1-.53-2l13-22.49a1.44,1.44,0,0,0-.53-2L370.6,958.42l-.56-.29-.59-.21-.61-.14-.61-.07h-.61l-.6.09-.57.15-.54.24-.49.29-.44.36-.38.42-.32.47-43.1,74.64a4.45,4.45,0,0,0-.29,3.83l1.19,3a4.43,4.43,0,0,0,1.91,2.23L399.32,1087l.5.25.54.17.56.09h.58l.58-.07.58-.14.55-.23.54-.3.49-.36.46-.43.4-.48.35-.52,30.94-53.6A1.44,1.44,0,0,0,435.87,1029.39ZM402,985.93a7.18,7.18,0,1,1-7.18,7.17A7.17,7.17,0,0,1,402,985.93Zm-6.7,33.12a4.31,4.31,0,1,1,4.3,4.31A4.31,4.31,0,0,1,395.29,1019.05Zm7.83,39-2.17,3.75-4.84-9.63,2.17-3.75Zm-33.81-91a7.18,7.18,0,1,1-7.17,7.18A7.18,7.18,0,0,1,369.31,967.06Zm-8.23,25.45a4.31,4.31,0,1,1-4.31,4.31A4.31,4.31,0,0,1,361.08,992.51Zm-22.24,47.13a4.31,4.31,0,1,1,4.3-4.31A4.3,4.3,0,0,1,338.84,1039.64Zm38.52,22.23a4.3,4.3,0,1,1,4.3-4.3A4.3,4.3,0,0,1,377.36,1061.87Zm10.51-34.67a18.65,18.65,0,1,1-37.3,0h0a18.65,18.65,0,1,1,37.3,0Zm8.55,51.86a7.17,7.17,0,1,1,7.17-7.17A7.17,7.17,0,0,1,396.42,1079.06Zm13.36-14.52-9.68-19.26,2.16-3.75,9.68,19.26Zm4-6.91-4.84-9.62,2.16-3.75,4.84,9.63Zm3.74-15.09a7.18,7.18,0,1,1,7.17-7.18A7.17,7.17,0,0,1,417.51,1042.54Z"/><path class="cls-3" d="M909.8,253.09l-82-47.34a2.87,2.87,0,0,0-3.92,1.05h0l-1.44,2.48,2.49,1.44a2.87,2.87,0,0,0-3.92,1.05l-12.92,22.38a4.31,4.31,0,0,1-3.73,2.15H791.11a8.61,8.61,0,0,0-7.46,4.31L777,252.08a8.6,8.6,0,0,0,0,8.61l6.62,11.48a4.29,4.29,0,0,1,0,4.3l-4.25,7.36a2.87,2.87,0,0,0,1.05,3.92l7.46,4.31a1.14,1.14,0,0,0,.42,1.56l32.8,18.94a1.15,1.15,0,0,0,1.57-.42l7.45,4.3a1.14,1.14,0,0,0,.42,1.57l23.87,13.78a1.15,1.15,0,0,0,1.57-.42l7.45,4.31a1.44,1.44,0,0,0,2-.53,1.4,1.4,0,0,0,.15-1.06,7.91,7.91,0,0,1,.83-5.83l6.4-11.09.11-.18a7.76,7.76,0,0,0,.53-6.63,4.31,4.31,0,0,1,.29-3.69L888,282a4.34,4.34,0,0,1,3-2.1,7.75,7.75,0,0,0,5.48-3.77l.1-.18L903,264.9a7.89,7.89,0,0,1,4.64-3.64,1.43,1.43,0,0,0,1-1.77,1.48,1.48,0,0,0-.66-.85l1.47.86,1.44-2.49A2.88,2.88,0,0,0,909.8,253.09Zm-56.57-12.48h13.25a4.31,4.31,0,0,1,3.73,2.15l6.63,11.47a4.33,4.33,0,0,1,0,4.31L870.21,270a4.31,4.31,0,0,1-3.73,2.15H853.23A4.31,4.31,0,0,1,849.5,270l-6.62-11.48a4.31,4.31,0,0,1,0-4.31l6.62-11.47A4.31,4.31,0,0,1,853.23,240.61Zm-7.46,35.86L839.15,288a4.31,4.31,0,0,1-3.73,2.15H822.17a4.31,4.31,0,0,1-3.73-2.15l-6.63-11.48a4.34,4.34,0,0,1,0-4.3l6.63-11.48a4.31,4.31,0,0,1,3.73-2.15h13.25a4.31,4.31,0,0,1,3.73,2.15l6.62,11.48A4.29,4.29,0,0,1,845.77,276.47Zm-34-40.17,6.63-11.48a4.31,4.31,0,0,1,3.73-2.15h13.25a4.31,4.31,0,0,1,3.73,2.15l6.62,11.48a4.31,4.31,0,0,1,0,4.31l-6.62,11.47a4.31,4.31,0,0,1-3.73,2.15H822.17a4.31,4.31,0,0,1-3.73-2.15l-6.63-11.47A4.36,4.36,0,0,1,811.81,236.3Zm-31.06,22.24a4.31,4.31,0,0,1,0-4.31l6.63-11.47a4.31,4.31,0,0,1,3.73-2.15h13.25a4.31,4.31,0,0,1,3.73,2.15l6.62,11.47a4.31,4.31,0,0,1,0,4.31L808.09,270a4.31,4.31,0,0,1-3.73,2.15H791.11a4.31,4.31,0,0,1-3.73-2.15Zm34,35.87-.66,1.14a2.86,2.86,0,0,1-3.92,1.05l-22.36-12.91a2.86,2.86,0,0,1-1-3.92h0l.66-1.15a4.31,4.31,0,0,1,3.73-2.15h13.25a4.31,4.31,0,0,1,3.73,2.15l6.62,11.48A4.31,4.31,0,0,1,814.71,294.41Zm31.06,17.93-.66,1.15a2.87,2.87,0,0,1-3.92,1.05l-22.36-12.92a2.87,2.87,0,0,1-1.05-3.92l.66-1.14a4.31,4.31,0,0,1,3.73-2.15h13.25a4.31,4.31,0,0,1,3.73,2.15L845.77,308A4.31,4.31,0,0,1,845.77,312.34Zm23.36,4.3-4.64,8a2.86,2.86,0,0,1-3.91,1.05l-10.69-6.17a2.87,2.87,0,0,1-1-3.92l.66-1.15a4.31,4.31,0,0,1,3.73-2.15h13.42a2.86,2.86,0,0,1,2.48,4.3Zm7.71-22.23-6.63,11.47a4.31,4.31,0,0,1-3.73,2.15H853.23a4.31,4.31,0,0,1-3.73-2.15l-6.62-11.47a4.31,4.31,0,0,1,0-4.31l6.62-11.48a4.31,4.31,0,0,1,3.73-2.15h13.25a4.31,4.31,0,0,1,3.73,2.15l6.63,11.48A4.31,4.31,0,0,1,876.84,294.41Zm23.35-31.57-6.69,11.61a4.3,4.3,0,0,1-3,2.09,7.76,7.76,0,0,0-5.48,3.78l-1.92,3.33a2.87,2.87,0,0,1-3.92,1.05,2.93,2.93,0,0,1-1-1.05l-4.14-7.18a4.29,4.29,0,0,1,0-4.3l6.62-11.48a4.31,4.31,0,0,1,3.73-2.15h13.42a2.87,2.87,0,0,1,2.87,2.87A2.77,2.77,0,0,1,900.19,262.84Z"/><path class="cls-2" d="M990.54,297.49l-63.37-36.58a6.46,6.46,0,0,0-8.82,2.36l-36.58,63.37a6.45,6.45,0,0,0,2.36,8.82L947.5,372a6.45,6.45,0,0,0,8.81-2.36l36.59-63.37A6.47,6.47,0,0,0,990.54,297.49ZM923.27,277.7a41.32,41.32,0,0,1,28.13,0,4.66,4.66,0,0,1,.68.32,4.31,4.31,0,0,1,1.58,5.88l-6,10.34a4.31,4.31,0,0,1-3.73,2.15H930.71a4.31,4.31,0,0,1-3.73-2.15l-6-10.34a4.31,4.31,0,0,1,2.26-6.2Zm5.44,45.36-4.18-2.42L946,309.83l4.19,2.42Zm18.48-.95-10.76,5.4-4.19-2.41L943,319.69Zm-19.62-11.33,10.76-5.4,4.18,2.41-10.75,5.41Zm-24.68-17L900.46,298A42.94,42.94,0,0,1,902.89,293.78Zm-6.17,15.49a40.92,40.92,0,0,1,2.12-7.61c.15-.38.3-.76.46-1.13l5.2-9c.25-.33.5-.65.76-1a41.44,41.44,0,0,1,5.52-5.64,4.28,4.28,0,0,1,6.5,1.14l6,10.34a4.29,4.29,0,0,1,0,4.3l-6.62,11.48a4.31,4.31,0,0,1-3.73,2.15H901a4.3,4.3,0,0,1-4.31-4.3A4.76,4.76,0,0,1,896.72,309.27Zm20.13,38.25a4.31,4.31,0,0,1-6.07.52,41.27,41.27,0,0,1-14.06-24.36,4.65,4.65,0,0,1-.07-.75,4.3,4.3,0,0,1,4.31-4.3H912.9a4.31,4.31,0,0,1,3.73,2.15l6.62,11.48a4.29,4.29,0,0,1,0,4.3l-6,10.34A3.81,3.81,0,0,1,916.85,347.52Zm34.55,7.73a41.2,41.2,0,0,1-28.13,0,4.3,4.3,0,0,1-2.26-6.2l6-10.34a4.31,4.31,0,0,1,3.73-2.15H944a4.31,4.31,0,0,1,3.73,2.15l6,10.34a4.36,4.36,0,0,1-2.26,6.2Zm20.38-16.08,2.43-4.21A42.94,42.94,0,0,1,971.78,339.17Zm6.16-15.49a41.67,41.67,0,0,1-2.11,7.61c-.15.38-.3.76-.46,1.14l-5.2,9c-.25.33-.5.65-.76,1a41,41,0,0,1-5.53,5.64,4.3,4.3,0,0,1-6.06-.52,3.86,3.86,0,0,1-.44-.62l-6-10.34a4.29,4.29,0,0,1,0-4.3L958,320.78a4.31,4.31,0,0,1,3.73-2.15h11.94a4.3,4.3,0,0,1,4.3,4.3A3.74,3.74,0,0,1,977.94,323.68Zm-4.23-9.36H961.77a4.31,4.31,0,0,1-3.73-2.15l-6.63-11.48a4.29,4.29,0,0,1,0-4.3l6-10.34a4.37,4.37,0,0,1,.44-.62,4.3,4.3,0,0,1,6.06-.52,41.17,41.17,0,0,1,14.06,24.36,3.81,3.81,0,0,1,.07.75A4.3,4.3,0,0,1,973.71,314.32Z"/><path class="cls-3" d="M837.33,342.27a5.57,5.57,0,0,0-2.59-3.41L820,330.36a1.23,1.23,0,0,0,0-.2l14.8,8.55-35.66-20.59a24.6,24.6,0,0,1-9.4-9.74,7,7,0,0,1-.62-1.62,5.68,5.68,0,0,0-2.65-3.52,7.42,7.42,0,0,1-1-.69c-1.29-1.08-2.62-2.1-4-3.09l-.08.15q-2.71-2-5.59-3.71a1.23,1.23,0,0,0-1.71.43l0,0L772.57,299l-.13-.15-11.77,20.39-1.24,2.15-.18.33-.15.35-.26.74-.22.74-.19.72,0,.28.06.28.13.25.09.11.11.08,4,2.33-5.32,9.22-4-2.33-.13-.06-.14,0-.28,0-.27.08-.26.12-.52.52-.53.57-.51.59-.23.31-.2.32-1.24,2.14-.89,1.55.1-.16.14-.15.14-.14.15-.11-3.25,5.63-.23,0,1.69-2.93-8.51,14.74h.21l-2.68,4.64a1.26,1.26,0,0,0,.46,1.71h0a76.93,76.93,0,0,0,10.65,4.87,7.76,7.76,0,0,1,1.13.53,5.44,5.44,0,0,0,4.23.52,8,8,0,0,1,1.75-.28,24.76,24.76,0,0,1,13.24,3.3l35.65,20.58a5.55,5.55,0,0,0,4.25.55A24.19,24.19,0,0,0,822,382.77l12.85-22.26A24.18,24.18,0,0,0,837.33,342.27Zm-82.71,22.32a3.55,3.55,0,1,1-7.1,0h0a3.55,3.55,0,1,1,7.1,0Zm6.72-46.12,0-.19,0-.19.07-.19.08-.18,4-6.87.11.18ZM770,325a4.31,4.31,0,1,1,4.3,4.3A4.3,4.3,0,0,1,770,325Zm8.63,31.39A6.28,6.28,0,1,1,785,350.1,6.28,6.28,0,0,1,778.67,356.38Zm5-44.86a3.38,3.38,0,1,1,3.37-3.37A3.37,3.37,0,0,1,783.66,311.52Zm15.23,48.22-2.15-4.27,1-1.67,2.15,4.28Zm-.38-7.34,1-1.66,4.3,8.55-1,1.66Zm4.88-.45,2.15,4.27-1,1.67-2.15-4.28Zm11,37.24a4.3,4.3,0,0,1-5.88,1.58l-.87-.5a4.31,4.31,0,1,1,4.3-7.46l.87.5A4.31,4.31,0,0,1,814.39,389.19Zm1.59-7.05a4.31,4.31,0,1,1,4.3-4.31A4.3,4.3,0,0,1,816,382.14Zm20.64-31.46a4.3,4.3,0,0,1-5.87,1.57l-.87-.5a4.3,4.3,0,0,1,4.3-7.45l.87.5A4.3,4.3,0,0,1,836.62,350.68Z"/><path class="cls-3" d="M897.77,358.43l-.56-.56H851.27l-.56.56v34.7l.27.28.29.3h45.94l.29-.3.27-.28Zm-34.15,26.86a4.3,4.3,0,0,1-8.6,0v0a4.3,4.3,0,1,1,8.6,0Zm29.84,0a4.3,4.3,0,1,1-8.6,0v0a4.3,4.3,0,0,1,8.6,0Z"/><path class="cls-3" d="M994.18,391.81H978.39a13.65,13.65,0,0,1-6.32-1.56,11.54,11.54,0,0,0-5.33-1.31H951a11.45,11.45,0,0,1-4.21-.8,19.37,19.37,0,1,0-14.22,36c.29.12.58.22.87.32a59.74,59.74,0,0,0,19.25,3.19h41.51a4.31,4.31,0,0,0,4.3-4.31V396.11A4.31,4.31,0,0,0,994.18,391.81Zm-45.37,14.37a9.15,9.15,0,1,1-18.3,0v0a9.15,9.15,0,1,1,18.3,0ZM965.48,410a3.88,3.88,0,1,1,3.88-3.87A3.87,3.87,0,0,1,965.48,410Zm23,0a3.88,3.88,0,1,1,3.87-3.87A3.88,3.88,0,0,1,988.44,410Z"/><path class="cls-3" d="M772.87,418.94,753,407.46a2.87,2.87,0,0,1-1-3.92l2.92-5.05.3-.55.27-.57.24-.58.22-.58.18-.6.15-.61.12-.62.09-.61.05-.63,0-.62,0-.63,0-.62-.09-.62-.12-.61-.16-.6-.2-.59-.2-.47-.25-.44-.3-.42-.34-.38-.52-.53-.55-.5-.56-.49-.58-.46-.6-.45-.61-.42-.63-.39-.64-.38-4.66-2.59-2.33-1.29-2.29-1.28-9-5-.23-.1-.23-.05h-.25l-.24,0-.22.09-.21.14-.17.17-.14.2-3.46,6-.12.28,0,.3,0,.3.08.29.13.28.18.24.23.21.25.17,5.43,3.14.52,2-18.65,32.3a1.44,1.44,0,0,1-2,.53l-7.45-4.31a1.44,1.44,0,0,0-2,.53l-3.07,5.31a5.75,5.75,0,0,0,2.1,7.84l3,1.75a5.75,5.75,0,0,1,2.33,2.55l1.79,3.84a14.36,14.36,0,0,0,5.83,6.36l32.44,18.72a4.3,4.3,0,0,0,5.88-1.57l20.8-36A4.3,4.3,0,0,0,772.87,418.94Zm-41.7-2.38a3.73,3.73,0,0,1-1.36-5.09L737,399a3.73,3.73,0,0,1,6.46,3.73l-7.17,12.43A3.74,3.74,0,0,1,731.17,416.56Zm14.72,32.91a3.87,3.87,0,1,1,3.87-3.87A3.88,3.88,0,0,1,745.89,449.47Zm11.47-19.88a3.87,3.87,0,1,1,3.88-3.87A3.87,3.87,0,0,1,757.36,429.59Z"/><path class="cls-3" d="M767,489l-.49-3.23a4.43,4.43,0,0,0-2.17-3.17l-74.64-43.09-.51-.25-.54-.17-.56-.09h-.58l-.58.07-.57.14-.56.23-.53.3-.5.36-.46.43-.4.48-.35.52L652,496.27a1.42,1.42,0,0,0,.52,2l22.49,13a1.43,1.43,0,0,1,.52,2l-13,22.48a1.43,1.43,0,0,0,.53,2l53.59,31,.56.28.59.21.61.14.61.07h.61l.6-.08.57-.16.53-.23.5-.3.44-.36.38-.42.32-.46,43.49-75.33A4.45,4.45,0,0,0,767,489Zm-56-23.29a4.31,4.31,0,1,1-4.3,4.31A4.31,4.31,0,0,1,711.05,465.75Zm-18.42-18.31a7.18,7.18,0,1,1-7.17,7.18A7.18,7.18,0,0,1,692.63,447.44Zm8.55,83.9,3.75,2.16-9.63,4.84-3.75-2.17Zm-27.41-36.87a7.18,7.18,0,1,1,7.17-7.18A7.17,7.17,0,0,1,673.77,494.47Zm7.68,44.36a7.18,7.18,0,1,1,7.17-7.17A7.17,7.17,0,0,1,681.45,538.83Zm3.06-30.26a4.31,4.31,0,1,1,4.3,4.31A4.31,4.31,0,0,1,684.51,508.57ZM688.83,545l19.26-9.68,3.75,2.17-19.26,9.68Zm10.65,6.15L695.74,549l9.62-4.84,3.75,2.16Zm18.5,8.77a7.18,7.18,0,1,1,7.17-7.17A7.17,7.17,0,0,1,718,559.92Zm9.35-24.81a4.3,4.3,0,1,1,4.3-4.3A4.29,4.29,0,0,1,727.33,535.11Zm-8.14-16a18.65,18.65,0,0,1-18.65-18.65v0a18.65,18.65,0,1,1,18.65,18.67Zm30.38-22.48a4.31,4.31,0,1,1,4.3-4.31A4.31,4.31,0,0,1,749.57,496.6Z"/><path class="cls-3" d="M689.47,569.43l-45.35-26.18a2.87,2.87,0,0,0-3.92,1l-11.48,19.88a2.87,2.87,0,0,0,1,3.92l1.78,1a11.47,11.47,0,0,1,5.35,7l.32,1.18a43.12,43.12,0,0,1,.23,21.38,19.37,19.37,0,1,0,38.17,4,11.53,11.53,0,0,1,1.53-6.13l13.37-23.15A2.87,2.87,0,0,0,689.47,569.43Zm-46.77-8.2h0a3.88,3.88,0,0,1,7.75,0h0a3.88,3.88,0,0,1-7.75,0Zm22.49,42a8.93,8.93,0,1,1-17.85,0h0a8.93,8.93,0,1,1,17.85,0ZM672,579.81a3.88,3.88,0,1,1,3.88-3.87A3.87,3.87,0,0,1,672,579.81Z"/><path class="cls-3" d="M660.44,645.61l-21.5-12.42a11.32,11.32,0,0,1-4-3.85l-.46-.71L634,628l-.45-.62-.44-.59a32,32,0,0,0-9-7.94,6.27,6.27,0,0,1-2.1-2,.58.58,0,0,0-.79-.17.57.57,0,0,0-.18.79,7.41,7.41,0,0,0,2.55,2.43,1.21,1.21,0,0,1,.42.42,1.16,1.16,0,0,1-.42,1.57l-1.9,1.1-1.22.7a1.43,1.43,0,0,1-1.44,0l-2.57-1.49a1.42,1.42,0,0,1-.52-2l3.6-6.24.11-.22.06-.24,0-.24V613l-.06-.24-.09-.22-.14-.2-.16-.18a6.09,6.09,0,0,0-1-.74l-11.46-6.61-.18-.11-.8-.46-.48-.23-.51-.14-.53-.06-.52,0-.5.12-.47.2-.42.28-.36.35-.29.41-19.1,33.08-.6,1.08-.56,1.12-.52,1.15-.49,1.18-.44,1.2-.4,1.23-.36,1.25-.32,1.26-.72,3.11-.16.7-1.3,5.6a12.12,12.12,0,0,0-.19,4.41,4.31,4.31,0,0,0,2.11,3.13l53,30.6a5.72,5.72,0,0,0,7.83-2.1l23-39.75A5.75,5.75,0,0,0,660.44,645.61Zm-28.19,5a2.44,2.44,0,1,1,4.87,0h0a2.44,2.44,0,1,1-4.87,0Zm-14.08-22.53h7l3.48,6-3.48,6h-7l-3.48-6Zm-21.33,17.07h-7l-3.47-6,3.47-6h7l3.48,6Zm7.58-21.3a3.88,3.88,0,0,1-3.88-3.88h0a3.88,3.88,0,0,1,7.75,0h0A3.87,3.87,0,0,1,604.42,623.85ZM611,659.14l-3.48-6,3.48-6h7l3.48,6-3.48,6Zm9.77,11.36h0a2.44,2.44,0,1,1,4.88,0h0a2.44,2.44,0,0,1-4.88,0ZM634,683.36a2.88,2.88,0,0,1-3.92,1l-3.73-2.15a2.88,2.88,0,0,1-1.05-3.92l17.21-29.82a2.86,2.86,0,0,1,3.92-1l3.73,2.15a2.87,2.87,0,0,1,1.05,3.92Zm10.27-2.1a2.44,2.44,0,1,1-4.87,0h0a2.44,2.44,0,1,1,4.87,0Zm11.48-19.88a2.44,2.44,0,1,1-4.88,0h0a2.44,2.44,0,0,1,4.88,0Z"/><path class="cls-2" d="M615.12,701.41,574.61,678a8.61,8.61,0,0,0-11.75,3.15l-.24.41-2.25,3.9-64.61,111.9-2.25,3.9-.24.41a8.62,8.62,0,0,0,3.16,11.76l40.5,23.38a8.6,8.6,0,0,0,11.76-3.15l.32-.56,2.08-3.6,64.78-112.19,2.08-3.6.32-.56A8.6,8.6,0,0,0,615.12,701.41ZM518.06,822.78,515.64,818l1.08-1.88,2.42,4.82Zm4.42,1.36-4.84-9.63,1.08-1.87,4.84,9.63Zm2-3.45-2.42-4.82,1.08-1.87,2.42,4.81Zm67.86-68.33L575.9,780.81l-8.61,14.91-16.42,28.45a1.44,1.44,0,0,1-2,.53L501,797a1.44,1.44,0,0,1-.53-2l41.46-71.81a1.43,1.43,0,0,1,2-.53l.31.18,39.76,23,7.89,4.56A1.44,1.44,0,0,1,592.33,752.36ZM603,724.21a3.59,3.59,0,0,1-4.9,1.31h0L592,722l-2.3-1.33a2.87,2.87,0,0,0-3.92,1.06l-2.15,3.72a1.44,1.44,0,0,1-2,.53L561.76,714.5a1.44,1.44,0,0,1-.53-2L572,693.9a1.44,1.44,0,0,1,2-.52l19.88,11.48a1.44,1.44,0,0,1,.53,2l-2.15,3.72a2.85,2.85,0,0,0,1,3.92l2.3,1.33,6.09,3.52A3.59,3.59,0,0,1,603,724.21Z"/><path class="cls-3" d="M477.72,970.49a14.52,14.52,0,0,0,14.15-14.88,1.21,1.21,0,0,0,0-.19l-1.1-28.66a21,21,0,0,0-21.84-20.23l-1,.07-17.4,1.52a14.2,14.2,0,0,0-9.62,5l-14.1,16.8a1.25,1.25,0,0,0,.16,1.76l10,8.42L417.79,963l10.46,8.78Zm5.12-9.9L476.11,963l-5.49-4.61,1.24-7.06,6.74-2.45,5.49,4.61Zm.55-17.64a2.27,2.27,0,1,1-2.26,2.26A2.27,2.27,0,0,1,483.39,943Zm-24.8-24.72a2.87,2.87,0,0,1,4.05-.36l2.34,2a.71.71,0,0,0,.79.08,9,9,0,0,1,1.41-.57l-.16-.14a8.86,8.86,0,0,1,3.93-.35l-.14.17a8.61,8.61,0,0,1,1.49.32.7.7,0,0,0,.76-.22l2-2.34a2.87,2.87,0,1,1,4.4,3.69l-2,2.34a.71.71,0,0,0-.09.79A8.2,8.2,0,0,1,478,925l.14-.16a8.86,8.86,0,0,1,.35,3.93l-.17-.14a7.8,7.8,0,0,1-.33,1.49.72.72,0,0,0,.23.76l2.34,2a2.87,2.87,0,0,1-3.69,4.4l-2.34-2a.71.71,0,0,0-.79-.09,8.2,8.2,0,0,1-1.41.58l.16.14a8.73,8.73,0,0,1-3.93.34l.14-.16a8.44,8.44,0,0,1-1.49-.33.75.75,0,0,0-.77.23l-2,2.34a2.87,2.87,0,0,1-4.4-3.69l2-2.34a.74.74,0,0,0,.09-.79,8.3,8.3,0,0,1-.58-1.42l-.14.17a8.87,8.87,0,0,1-.35-3.93l.17.14a8.23,8.23,0,0,1,.32-1.49.72.72,0,0,0-.22-.77l-2.34-2A2.87,2.87,0,0,1,458.59,918.23Zm-10.67-1.46a2.26,2.26,0,1,1-2.27,2.26A2.26,2.26,0,0,1,447.92,916.77ZM432.3,957.91a2.27,2.27,0,1,1-2.26,2.26A2.27,2.27,0,0,1,432.3,957.91Z"/><path class="cls-3" d="M537.82,867l-3.4-2a1.59,1.59,0,0,1-.69-1.93,34.2,34.2,0,0,1,5.39-9.35,2.89,2.89,0,0,0,.62-2.06,5.45,5.45,0,0,0-2.66-4l-3-1.73-1-.56-.3-.14-.4-.1H532l-.37.08-.32.15-.13.07a14.84,14.84,0,0,1-22.93-13.24V832l0-.35-.12-.37-.2-.33-.29-.3-.27-.19-1-.56L483,816.46a5.73,5.73,0,0,0-4.38-.56A24.36,24.36,0,0,0,464,827.23l-12.86,22.26a24.41,24.41,0,0,0-2.47,18.37,5.75,5.75,0,0,0,2.69,3.52l54,31.2a5.4,5.4,0,0,0,4.8.29,2.83,2.83,0,0,0,1.48-1.56,34.44,34.44,0,0,1,5.4-9.34,1.58,1.58,0,0,1,2-.37l3.4,2h0l.51.29a1.44,1.44,0,0,0,2-.53l1.93-3.35,10.05-17.4,1.93-3.35a1.43,1.43,0,0,0-.52-2l-.51-.29Zm-81.51-3.66a2.51,2.51,0,0,1-3.43.92l-.87-.51a2.51,2.51,0,1,1,2.51-4.34l.87.5A2.51,2.51,0,0,1,456.31,863.32Zm17-41.53a2.51,2.51,0,0,1,3.43-.92l.87.5a2.51,2.51,0,1,1-2.51,4.35l-.87-.5A2.51,2.51,0,0,1,473.33,821.79Zm-6.59,10.46a3.45,3.45,0,0,1,6.89,0h0a3.45,3.45,0,0,1-6.89,0Zm28.08,53.3a2.49,2.49,0,0,1-3.42.92l-.87-.5a2.51,2.51,0,0,1,2.51-4.35l.87.51A2.5,2.5,0,0,1,494.82,885.55ZM498.55,862a16.21,16.21,0,0,1-22.14,6l-.87-.5a16.21,16.21,0,0,1,16.21-28.08l.87.5A16.22,16.22,0,0,1,498.55,862Zm3.07-2a5.88,5.88,0,1,1,5.88,5.88A5.89,5.89,0,0,1,501.62,860ZM508,897.76a3.45,3.45,0,1,1,3.44-3.45A3.45,3.45,0,0,1,508,897.76Zm3.83-10a2.72,2.72,0,1,1,2.71-2.72A2.71,2.71,0,0,1,511.82,887.81Zm19.41-31.24a2.51,2.51,0,1,1,2.51-2.51A2.51,2.51,0,0,1,531.23,856.57Z"/><path class="cls-3" d="M543.33,1012.41l-53-30.61a4.33,4.33,0,0,0-3.76-.27,12.1,12.1,0,0,0-3.73,2.38l-4.2,3.92-.52.49-2.33,2.18-.94.9-.9.94-.86,1-.82,1-.78,1-.74,1-.68,1-.64,1-19.1,33.09-.21.46-.13.48,0,.51.06.51.15.49.24.47.31.42.38.37.44.3.8.47.18.1,11.46,6.62a5.8,5.8,0,0,0,3,.77c.84,0,1.66-.08,2.49-.18a6.37,6.37,0,0,1,3.83.77,31.77,31.77,0,0,0,14.51,4.09,11.58,11.58,0,0,1,5.33,1.53l21.5,12.42a5.75,5.75,0,0,0,7.84-2.1l23-39.76A5.75,5.75,0,0,0,543.33,1012.41Zm-28.2,5a2.44,2.44,0,0,1,4.88,0h0a2.44,2.44,0,0,1-4.88,0Zm-46.83,9a3.88,3.88,0,0,1-7.75,0h0a3.88,3.88,0,1,1,7.75,0Zm3.7-13.13-3.48-6,3.48-6h7l3.48,6-3.48,6Zm16.75,27H481.8l-3.48-6,3.48-6h6.95l3.48,6Zm5.93-15.71-3.48-6,3.48-6h6.95l3.48,6-3.48,6Zm9,12.72h0a2.44,2.44,0,1,1,4.87,0h0a2.44,2.44,0,1,1-4.87,0Zm13.23,12.86a2.87,2.87,0,0,1-3.92,1l-3.72-2.15a2.86,2.86,0,0,1-1.05-3.92l17.21-29.82a2.87,2.87,0,0,1,3.92-1.05l3.73,2.15a2.87,2.87,0,0,1,1.05,3.92Zm10.28-2.1a2.44,2.44,0,1,1-4.88,0h0a2.44,2.44,0,1,1,4.88,0Zm11.48-19.88a2.44,2.44,0,1,1-4.88,0h0a2.44,2.44,0,1,1,4.88,0Z"/><path class="cls-2" d="M535.25,917.17l-5.62-2a6.75,6.75,0,0,0-9,6.33v1.09a4.76,4.76,0,0,1-1.26,3.22,5.72,5.72,0,0,0-1.53,3.9v5.51l.64.64h1.1a2.15,2.15,0,0,1,1.1,4.16,2.05,2.05,0,0,1-1.1,0h-1.1l-.64.65v8.91a4.6,4.6,0,0,0,2,3.78l4.46,3.07a7.18,7.18,0,0,1,3.1,5.91v17.46a1.43,1.43,0,0,0,1.43,1.44h0a60.64,60.64,0,0,0,7-.59V917.94Zm-7.92,6.59a2.3,2.3,0,0,1-2.3-2.3h0a2.3,2.3,0,1,1,2.3,2.3Z"/><path class="cls-3" d="M607.27,933.53H578.58l-.49,0-.49-.07-.49-.1-.48-.14-.46-.11-1.31-.22-.13-.37-.2-.36-.25-.31-.29-.29-.49-.47-.48-.51-.23-.3-.22-.36-.2-.41-.18-.46-.14-.5L572,928l-.06-.55,0-.56v-4.64l0-.57.06-.55.1-.53.14-.51.18-.46.2-.41.22-.36.23-.3.48-.51.49-.47.29-.29.24-.31.21-.35.13-.37,1.31-.22.46-.11.21-.07.45-.11.53-.08.61,0,.67,0h1.83l2.1,0h22.8a2.85,2.85,0,0,0,2.85-2.85V900.53a2.85,2.85,0,0,0-2.85-2.85h-44.6a4.29,4.29,0,0,0-2.38.72l-5.6,3.74a4.28,4.28,0,0,0-1.91,3.56v48.48a4.29,4.29,0,0,0,1.91,3.56l5.6,3.74a4.29,4.29,0,0,0,2.38.72h44.6a2.85,2.85,0,0,0,2.85-2.85V935A1.43,1.43,0,0,0,607.27,933.53Zm-15.42-26.91a2.51,2.51,0,1,1,5,0h0a2.51,2.51,0,1,1-5,0Zm4.85,47.71a2.51,2.51,0,1,1-5,0h0a2.51,2.51,0,1,1,5,0Z"/><path class="cls-3" d="M677.27,898.28H628.49a4.31,4.31,0,0,0-4.31,4.31v31.56a2.88,2.88,0,0,0,2.87,2.87h25.73a7.2,7.2,0,0,0,5.07-2.1l22.46-22.46a4.31,4.31,0,0,0,1.26-3.05v-6.82A4.31,4.31,0,0,0,677.27,898.28Zm-10,21.1-7.77,7.77a1.44,1.44,0,0,1-2.45-1v-7.77a1.44,1.44,0,0,1,1.43-1.44h7.77a1.45,1.45,0,0,1,1.44,1.44A1.42,1.42,0,0,1,667.3,919.38Z"/><path class="cls-3" d="M648.79,1014.67,614,994.58a4.3,4.3,0,0,0-5.88,1.58l-11.81,20.46a1.43,1.43,0,0,1-2,.53l-14.91-8.61a7.18,7.18,0,0,0-9.8,2.63l-61.48,106.48a7.17,7.17,0,0,0,2.63,9.79l17.39,10a4.3,4.3,0,0,0,5.88-1.58l6.78-11.74a7.15,7.15,0,0,1,4.36-3.34l34.5-9.25a14.32,14.32,0,0,0,8.71-6.68l18.91-32.76a28.83,28.83,0,0,1,13.46-12,5.09,5.09,0,0,0,2.4-2.11,32.94,32.94,0,0,1,11.61-11.61,4.32,4.32,0,0,0,1.53-1.56l14-24.32A4.3,4.3,0,0,0,648.79,1014.67ZM530.35,1120.35a3.87,3.87,0,1,1-3.87-3.87,3.88,3.88,0,0,1,3.87,3.87Zm7.61-16a3.88,3.88,0,1,1,3.87-3.88A3.88,3.88,0,0,1,538,1104.35Zm34.59-83.43a3.88,3.88,0,1,1,7.75,0h0a3.88,3.88,0,1,1-7.75,0Zm-6.66,15.76a2.51,2.51,0,1,1-2.52,2.51A2.51,2.51,0,0,1,565.89,1036.68Zm-16,34.11a3.88,3.88,0,1,1,3.88-3.87A3.87,3.87,0,0,1,549.91,1070.79Zm32.25,31.66a2.51,2.51,0,1,1,2.51-2.51A2.51,2.51,0,0,1,582.16,1102.45Zm7.37-27.25a16.5,16.5,0,0,1-31.87-3.5,3,3,0,0,1,.2-1.47,8.65,8.65,0,0,0,.53-4.82,2.86,2.86,0,0,1,.13-1.48,16.5,16.5,0,0,1,31,11.27Zm17.38-13.77a2.51,2.51,0,0,1-5,0h0a2.51,2.51,0,1,1,5,0Zm11.25-50.11a3.88,3.88,0,0,1-7.75,0h0a3.88,3.88,0,1,1,7.75,0ZM638,1022.79a3.88,3.88,0,0,1-7.75,0h0a3.88,3.88,0,1,1,7.75,0Z"/><path class="cls-3" d="M702.44,1014.84l-2.79-4.83a1.42,1.42,0,0,0-1.93-.48l-.36.2-.22.09h-.24l-.12,0-.11,0-.09-.08-.07-.09.94-.54.45-.26a1.43,1.43,0,0,0,.52-2L681.5,977.49a1.44,1.44,0,0,0-2-.53l-.45.26-.94.54h0l0-.11,0-.12v-.12l0-.12.12-.2.18-.16.36-.2a1.44,1.44,0,0,0,.55-1.92L676.54,970a2.87,2.87,0,0,0-3.88-1l-20.54,11.85a7.19,7.19,0,0,0-3.34,4.36l-1.61,6a7.14,7.14,0,0,0,.72,5.44L665,1026.31a7.16,7.16,0,0,0,4.35,3.34l6,1.62a7.21,7.21,0,0,0,5.45-.72l20.53-11.86A2.86,2.86,0,0,0,702.44,1014.84Zm-9-3.12,0,.11-.12.21-.19.15-7.68,4.44a2.87,2.87,0,0,1-3.92-1l-6.84-11.84a5.34,5.34,0,0,1-2.4-4.16l-6.83-11.83a2.87,2.87,0,0,1,1.05-3.92l7.69-4.44.22-.08h.24l.12,0,.11,0,.09.07.07.1h0l-1,.58-6.78,3.91a2.87,2.87,0,0,0-1.28,3.43l6.94,12,.33-.19a4.31,4.31,0,1,1,2.15,3.73l-.33.19,6.94,12a2.88,2.88,0,0,0,3.61.61l6.78-3.91,1-.59,0,.11,0,.12Z"/><path class="cls-2" d="M737.57,867.87a18.65,18.65,0,1,1,18.66,18.66,18.65,18.65,0,0,1-18.66-18.66v0ZM760,861.58l5.89,11.73,2.53-4.38-5.89-11.73Zm-11-3.4L760.93,882l2.53-4.39-11.94-23.77Zm.91,20.36,2.54-4.39-5.9-11.73L744,866.81Z"/><path class="cls-3" d="M847.68,930.7l-.06-.24-.1-.22L845,925.72l-2.5-4.5-1.27-2.29-1.3-2.33L837.35,912l-.37-.65-.4-.63-.42-.61-.44-.6-.47-.58-.48-.56-.51-.54-.52-.53-.39-.33-.41-.3-.45-.25-.46-.21-.57-.19-.57-.15-.59-.12-.59-.09-.61-.05-.62,0-.62,0-.63.05-.63.08-.63.12-.62.15-.62.18-.6.21-.6.25-.58.28-.56.3-5.06,2.92a2.88,2.88,0,0,1-3.92-1.05l-11.47-19.88a4.3,4.3,0,0,0-5.88-1.57l-36,20.8a4.3,4.3,0,0,0-1.58,5.88l18.73,32.43a14.3,14.3,0,0,0,6.36,5.83l3.84,1.79a5.75,5.75,0,0,1,2.54,2.34l1.76,3a5.73,5.73,0,0,0,7.84,2.1l5.31-3.06a1.44,1.44,0,0,0,.52-2l-4.3-7.46a1.44,1.44,0,0,1,.52-2l32.31-18.65,2,.53,3.13,5.43.18.25.21.22.24.18.27.14.29.08.31,0,.29,0,.28-.12,6-3.46.2-.14.18-.18.13-.2.1-.23,0-.24ZM775.27,920a3.87,3.87,0,1,1,3.88-3.87A3.87,3.87,0,0,1,775.27,920Zm19.88-11.47a3.88,3.88,0,1,1,3.88-3.88A3.88,3.88,0,0,1,795.15,908.56Zm26.68,16.5-12.42,7.18a3.73,3.73,0,1,1-3.73-6.46l12.42-7.18a3.73,3.73,0,0,1,3.73,6.46Z"/><path class="cls-3" d="M915.49,909.84l-6.11-10.58-10.9-18.88a5.73,5.73,0,0,0-7.84-2.1L863.3,894.06a5.75,5.75,0,0,0-2.1,7.84l10.91,18.88,6.1,10.58a5.74,5.74,0,0,0,7.84,2.1l27.34-15.78a5.76,5.76,0,0,0,2.1-7.84ZM896.7,912.9a4.31,4.31,0,0,1-8.61,0v0a4.31,4.31,0,0,1,8.61,0Z"/><path class="cls-2" d="M990.77,858.62a1.4,1.4,0,0,0-.1-.16l-14.2-24.92a21.24,21.24,0,0,0-29-7.92l-.89.53-14.73,9.39a14.31,14.31,0,0,0-6.29,9L920.84,866l0,.29,0,.31.1.31.16.28a1.47,1.47,0,0,0,.83.52l12.6,2.8-6.34,28.63-.11.5,13.58,3,43.36-24A14.71,14.71,0,0,0,990.77,858.62Zm-12.48-7.73a2.51,2.51,0,1,1-2.51,2.51A2.52,2.52,0,0,1,978.29,850.89Zm-43.56-1.82a2.51,2.51,0,1,1,2.51-2.51A2.51,2.51,0,0,1,934.73,849.07Zm5.15,43.71a2.52,2.52,0,1,1,2.51-2.51A2.51,2.51,0,0,1,939.88,892.78ZM958,861A16.93,16.93,0,1,1,975,844.06,16.93,16.93,0,0,1,958,861Zm22,11.39-6.79-1.51-2.09-6.63,4.7-5.13,6.79,1.5,2.09,6.64Z"/><path class="cls-3" d="M818.1,790.31h0l-27.34-15.78a1.43,1.43,0,0,0-2,.52l-29.46,51L758,828.39l-1.85,3.19a1.44,1.44,0,0,0,.53,2L784,849.32a1.43,1.43,0,0,0,2-.52l1.85-3.19,1.33-2.32,29.46-51A1.43,1.43,0,0,0,818.1,790.31ZM800,813l-10,17.27a4.3,4.3,0,0,1-5.88,1.58l-12.42-7.17a4.3,4.3,0,0,1-1.58-5.88l10-17.27A4.3,4.3,0,0,1,786,800l12.43,7.18A4.29,4.29,0,0,1,800,813Zm2.26-24.42a2.44,2.44,0,1,1,2.44-2.44A2.44,2.44,0,0,1,802.28,788.58Z"/><path class="cls-3" d="M849.29,732.1l-1.61-6a7.23,7.23,0,0,0-3.34-4.35L823.8,709.87a2.86,2.86,0,0,0-3.88,1l-2.79,4.83a1.43,1.43,0,0,0,.55,1.91l.35.21.19.15.12.21,0,.11v.13l0,.11,0,.11-.94-.55-.45-.25a1.43,1.43,0,0,0-2,.52L798,747.67a1.44,1.44,0,0,0,.53,2l.44.26,1,.54h0l-.07.1-.09.07-.11.06-.12,0h-.24l-.22-.08-.36-.21a1.43,1.43,0,0,0-1.93.49L794,755.72a2.87,2.87,0,0,0,1.09,3.85l20.53,11.86a7.16,7.16,0,0,0,5.45.71l6-1.61a7.15,7.15,0,0,0,4.36-3.34l17.11-29.64A7.21,7.21,0,0,0,849.29,732.1ZM831,728.62l-6.83,11.84a5.33,5.33,0,0,1-2.41,4.16L815,756.46a2.87,2.87,0,0,1-3.92,1l-7.68-4.44-.19-.16-.12-.2,0-.12v-.12l0-.12,0-.11h0l1,.58,6.78,3.91a2.85,2.85,0,0,0,3.6-.61l6.94-12-.33-.19a4.32,4.32,0,1,1,2.15-3.73l.34.2,6.94-12a2.88,2.88,0,0,0-1.28-3.43L822.45,721l-1-.58.07-.09.09-.07.11-.06.12,0h.24l.22.09,7.69,4.44A2.86,2.86,0,0,1,831,728.62Z"/><path class="cls-3" d="M884.41,756.54l-2.2-8.21a6.3,6.3,0,0,0-2.94-3.83l-8.72-5a5.15,5.15,0,0,0-7,1.89L844.13,774.9A5.17,5.17,0,0,0,846,782l8.71,5a6.32,6.32,0,0,0,4.79.63l8.21-2.2a6.27,6.27,0,0,0,3.83-2.94l12.22-21.15A6.36,6.36,0,0,0,884.41,756.54ZM870.05,765a4.31,4.31,0,1,1-8.61,0v0a4.31,4.31,0,0,1,8.61,0Z"/><path class="cls-3" d="M922.25,785.14h-1.6V785l0-.11.07-.1.09-.08.21-.12.23,0h.41a1.44,1.44,0,0,0,1.44-1.38V777.6a2.87,2.87,0,0,0-2.87-2.8H896.57a7.21,7.21,0,0,0-5.08,2.1l-4.4,4.41a7.14,7.14,0,0,0-2.1,5.07v34.23a7.14,7.14,0,0,0,2.1,5.07l4.4,4.41a7.21,7.21,0,0,0,5.08,2.1h23.71a2.87,2.87,0,0,0,2.87-2.8v-5.57a1.44,1.44,0,0,0-1.44-1.39h-.41l-.23,0-.21-.12-.09-.08-.07-.1,0-.11v-.11h1.6a1.45,1.45,0,0,0,1.44-1.44V786.57A1.44,1.44,0,0,0,922.25,785.14ZM917,822l0,.11-.07.1-.09.08-.21.12-.23,0h-8.88a2.87,2.87,0,0,1-2.87-2.87V805.9a5.34,5.34,0,0,1,0-4.8V787.43a2.87,2.87,0,0,1,2.87-2.87h8.88l.23,0,.21.12.09.08.07.1,0,.11v.12h-9a2.87,2.87,0,0,0-2.82,2.33v13.88h.38a4.29,4.29,0,1,1,0,4.31h-.38v13.88a2.87,2.87,0,0,0,2.82,2.33h9Z"/><path class="cls-3" d="M885.71,680.26l-10-37.42a5.17,5.17,0,0,0-6.33-3.65l-9.72,2.6a6.36,6.36,0,0,0-3.83,2.94l-19.47,33.72a6.36,6.36,0,0,0-.63,4.79l2.61,9.72a5.16,5.16,0,0,0,6.32,3.65l37.42-10A5.16,5.16,0,0,0,885.71,680.26Zm-33.4,1.21a4.31,4.31,0,0,1-8.61,0v0a4.31,4.31,0,0,1,8.61,0Zm16.23-28.12a4.31,4.31,0,0,1-8.61,0v0a4.31,4.31,0,1,1,8.61,0Z"/><path class="cls-2" d="M994.26,771h-6.17v23.24a1.43,1.43,0,0,1-1.43,1.43H945.91a1.43,1.43,0,0,1-1.43-1.43V771h-6.17a4.3,4.3,0,0,0-4.31,4.3v23a8.61,8.61,0,0,0,8.61,8.6H990a8.6,8.6,0,0,0,8.6-8.6v-23A4.29,4.29,0,0,0,994.26,771Zm-28,32.64a2.52,2.52,0,1,1,2.51-2.52A2.52,2.52,0,0,1,966.28,803.65Z"/><path class="cls-2" d="M982.38,571.74H909a4.31,4.31,0,0,0-4.31,4.31V737.88a4.31,4.31,0,0,0,4.31,4.3h73.42a4.3,4.3,0,0,0,4.3-4.3h0V576.05A4.3,4.3,0,0,0,982.38,571.74ZM945.59,675.33l-16.24-10.68v-7.8l16.24,10.67Zm16.24-3.71-32.48-21.35v-7.8l32.48,21.35Zm0-14.38-16.24-10.67v-7.81l16.24,10.68Z"/><path class="cls-2" d="M998.11,564.81l-.13-.61-.23-.6-.31-.57-.4-.53-.47-.49-.54-.44-.61-.39-.65-.32-.7-.26-.73-.18-.75-.12-.77,0H906.16a30.73,30.73,0,0,0-6.82.76l-.57.14-.56.18-.54.22-.53.25-.52.28-.49.31-.48.35-.44.38-.42.41-.38.44-.35.47-.29.5-.25.53-.19.54-.11.57-.05.58V746.75l0,.53.1.52.16.5.21.49.25.47.3.44.35.44.39.42.44.41.48.38.53.35.55.32.57.28.58.24.61.2.61.16a31.33,31.33,0,0,0,6.82.76h85.66l.77,0,.75-.11.73-.19.7-.25.65-.33.61-.38.54-.44.47-.49.4-.54.31-.56.23-.6.13-.61,0-.63V565.43ZM982.38,745.05H909a7.17,7.17,0,0,1-7.18-7.17V576.05a7.18,7.18,0,0,1,7.18-7.18h73.42a7.18,7.18,0,0,1,7.17,7.18V737.88A7.17,7.17,0,0,1,982.38,745.05Zm9.33,4.66a2.51,2.51,0,1,1,2.51-2.51A2.51,2.51,0,0,1,991.71,749.71Zm0-180.48a2.51,2.51,0,1,1,2.51-2.51A2.51,2.51,0,0,1,991.71,569.23Z"/><path class="cls-3" d="M799.13,527.05H773.41a7.17,7.17,0,0,0-5.08,2.1l-22.46,22.46a4.33,4.33,0,0,0-1.26,3v6.83a4.3,4.3,0,0,0,4.31,4.3h48.77a4.3,4.3,0,0,0,4.31-4.3V529.92A2.87,2.87,0,0,0,799.13,527.05Zm-30,18.65a1.43,1.43,0,0,1-1.43,1.43H759.9a1.43,1.43,0,0,1-1.43-1.43,1.45,1.45,0,0,1,.42-1l7.76-7.76a1.44,1.44,0,0,1,2.45,1Z"/><path class="cls-3" d="M874.38,517.79H864.32a6.32,6.32,0,0,0-4.46,1.85l-27.53,27.53a6.32,6.32,0,0,0-1.85,4.46v10.06a5.16,5.16,0,0,0,5.17,5.17h38.73a5.16,5.16,0,0,0,5.17-5.17V523A5.16,5.16,0,0,0,874.38,517.79ZM847.12,553.1a4.3,4.3,0,1,1-8.6,0h0a4.3,4.3,0,1,1,8.6,0Zm23-23a4.31,4.31,0,0,1-8.61,0v0a4.31,4.31,0,0,1,8.61,0Z"/><path class="cls-2" d="M907.17,494.09a18.65,18.65,0,1,1,37.3,0v0a18.65,18.65,0,1,1-37.3,0Zm22.44-6.28,5.9,11.73,2.53-4.39-5.89-11.73Zm-11-3.41,11.94,23.77,2.54-4.39L921.11,480Zm.91,20.37,2.53-4.39-5.89-11.73L913.59,493Z"/><path class="cls-3" d="M997.4,534.62H983.77a11.48,11.48,0,0,1-11.48-11.48V470.06a11.48,11.48,0,0,1,11.48-11.48H997.4a3.59,3.59,0,1,0,0-7.17H927.1a3.59,3.59,0,0,0,0,7.17h13.63a11.48,11.48,0,0,1,11.48,11.48v53.08a11.48,11.48,0,0,1-11.48,11.48H927.1a3.59,3.59,0,1,0,0,7.17h70.3a3.59,3.59,0,0,0,0-7.17ZM996,455a1.36,1.36,0,1,1,2.72,0h0a1.36,1.36,0,1,1-2.72,0Zm-67.57,0a1.37,1.37,0,0,1-2.73,0h0a1.37,1.37,0,0,1,2.73,0Zm0,83.21a1.37,1.37,0,0,1-2.73,0h0a1.37,1.37,0,0,1,2.73,0Zm33.78-80.13a1.72,1.72,0,1,1-1.72,1.72A1.72,1.72,0,0,1,962.25,458.08ZM965.12,526a2.87,2.87,0,0,1-5.74,0V512.16a2.87,2.87,0,0,1,5.74,0Zm-4.59-21a1.72,1.72,0,1,1,1.72,1.72A1.72,1.72,0,0,1,960.53,505Zm4.59-7.17a2.87,2.87,0,1,1-5.74,0V467.19a2.87,2.87,0,0,1,5.74,0Zm33.64,40.39a1.36,1.36,0,1,1-2.72,0h0a1.36,1.36,0,1,1,2.72,0Z"/><path class="cls-3" d="M899.6,505.17a1.55,1.55,0,0,0,1.53-1.57,1.6,1.6,0,0,0-.43-1.1,8.81,8.81,0,0,1-2.34-6V482.19a8.62,8.62,0,0,0-3.05-6.61,4.8,4.8,0,0,1-1.69-3.67V440.64a4.8,4.8,0,0,1,1.69-3.68,8.6,8.6,0,0,0,3.05-6.6V416.05a8.83,8.83,0,0,1,2.34-6,1.61,1.61,0,0,0,0-2.23,1.53,1.53,0,0,0-1.06-.44h-9.18a1.24,1.24,0,0,0-1.22-1.26H859.8a1.24,1.24,0,0,0-1.22,1.26H849.4a1.24,1.24,0,0,0-1.22-1.26h-40.4a1.24,1.24,0,0,0-1.22,1.26h-9.18a3.11,3.11,0,0,0-3.06,3.15v9.35A4.78,4.78,0,0,1,792,424l-12.24,7.28a9.53,9.53,0,0,0-4.59,8.2V454a9.53,9.53,0,0,0,4.59,8.2L792,469.51a4.75,4.75,0,0,1,2.3,4.09V502a3.11,3.11,0,0,0,3.06,3.15h-3.06v3.16a3.11,3.11,0,0,0,3.06,3.15h101a3.11,3.11,0,0,0,3.06-3.15v-3.16Zm-24.19-86.76a3.11,3.11,0,0,1,3.06-3.15h13.16a3.11,3.11,0,0,1,3.06,3.15v10.2a3.11,3.11,0,0,1-3.06,3.16,3,3,0,0,1-1.53-.43L877.71,424a4.78,4.78,0,0,1-2.3-4.1Zm-38.25,0a3.11,3.11,0,0,1,3.06-3.15h27.54a3.11,3.11,0,0,1,3.06,3.15v1.46a4.77,4.77,0,0,1-2.29,4.1l-12.24,7.28a4.45,4.45,0,0,1-4.59,0L839.46,424a4.78,4.78,0,0,1-2.3-4.1Zm-38.25,0a3.11,3.11,0,0,1,3.06-3.15h27.54a3.11,3.11,0,0,1,3.06,3.15v1.46a4.75,4.75,0,0,1-2.3,4.1L818,431.25a4.45,4.45,0,0,1-4.59,0L801.2,424a4.77,4.77,0,0,1-2.29-4.1Zm-4.59,47-12.24-7.29a4.76,4.76,0,0,1-2.3-4.1V439.45a4.78,4.78,0,0,1,2.3-4.1l12.24-7.28a4.45,4.45,0,0,1,4.59,0l12.24,7.28a4.77,4.77,0,0,1,2.29,4.1V454a4.75,4.75,0,0,1-2.29,4.1l-12.24,7.29A4.5,4.5,0,0,1,794.32,465.41Zm38.25,22.77a4.72,4.72,0,0,1-2.3,4.09L818,499.56a4.45,4.45,0,0,1-4.59,0l-12.24-7.29a4.74,4.74,0,0,1-2.29-4.09V473.6a4.74,4.74,0,0,1,2.29-4.09l12.24-7.29a4.45,4.45,0,0,1,4.59,0l12.24,7.29a4.72,4.72,0,0,1,2.3,4.09Zm0-22.77-12.24-7.29A4.76,4.76,0,0,1,818,454V439.45a4.78,4.78,0,0,1,2.3-4.1l12.24-7.28a4.45,4.45,0,0,1,4.59,0l12.24,7.28a4.78,4.78,0,0,1,2.3,4.1V454a4.76,4.76,0,0,1-2.3,4.1l-12.24,7.29A4.5,4.5,0,0,1,832.57,465.41Zm38.25,22.77a4.74,4.74,0,0,1-2.29,4.09l-12.24,7.29a4.45,4.45,0,0,1-4.59,0l-12.24-7.29a4.75,4.75,0,0,1-2.3-4.09V473.6a4.75,4.75,0,0,1,2.3-4.09l12.24-7.29a4.45,4.45,0,0,1,4.59,0l12.24,7.29a4.74,4.74,0,0,1,2.29,4.09Zm0-22.77-12.24-7.29a4.75,4.75,0,0,1-2.29-4.1V439.45a4.77,4.77,0,0,1,2.29-4.1l12.24-7.28a4.45,4.45,0,0,1,4.59,0l12.24,7.28a4.78,4.78,0,0,1,2.3,4.1V454a4.76,4.76,0,0,1-2.3,4.1l-12.24,7.29A4.5,4.5,0,0,1,870.82,465.41Zm23.87,31.51a3.11,3.11,0,0,1-3.06,3.15,2.94,2.94,0,0,1-1.53-.42l-12.39-7.38a4.75,4.75,0,0,1-2.3-4.09V473.6a4.75,4.75,0,0,1,2.3-4.09l7.65-4.56a3,3,0,0,1,4.18,1.16,3.31,3.31,0,0,1,.41,1.57v4.23a8.63,8.63,0,0,0,3,6.61,4.78,4.78,0,0,1,1.69,3.67Z"/><path class="cls-3" d="M36.62,522.83q0,18,0,36c0,2.68.42,5.51-3.82,5.51-4,0-5.73-1.6-5.88-5.64-.33-8.74-.74-17.48-1.49-26.19-1.26-14.67-2.84-29.31-4.24-44-.08-.84-.11-1.68-.11-2.52,0-28.32-.34-56.64.12-84.95C21.43,386.76,23,372.5,24,358.22c.55-8.48,1-17,1.53-25.45.46-7.27.91-14.53,1.53-21.78.31-3.67,3.25-6.49,6-6,3.57.63,3.58,3.44,3.58,6.22q0,35.75,0,71.5a17.5,17.5,0,0,0,.24,3.07c.76,4.18,2.69,5.59,7.37,5.7,3.67.09,7.34-.09,11,.08,1.63.07,3.89.13,4.73,1.15,3.22,3.84,7.4,3.18,11.5,3.19,5.88,0,11.76-.06,17.63,0,4.17.06,8.05-.05,11.75-2.79,1.9-1.41,5-1.22,7.62-1.62,4.7-.74,9.77,1.57,14.25-1.79.36-.27,3.19,1.38,3.29,2.3,1.36,13.24,3.28,26.49.72,39.8a22.73,22.73,0,0,0-.37,4.66c.43,7.92,1.23,15.83,1.28,23.75,0,5.79-1,11.58-1.42,17.37-.23,2.76-2.06,3.46-4.06,2.5-6.21-3-12.8-2.48-19.35-2.56-1,0-2.17.08-2.85-.43-9.74-7.26-20.87-2.74-31.33-3.79a1.57,1.57,0,0,0-1.12.33C60.76,478.89,52.58,476.84,45,478c-6.9,1-8.33,3.28-8.35,10.36C36.6,499.81,36.62,511.32,36.62,522.83Zm22.21-103-.25,0c-3.47,0-7.15,0-8.89,1.75a27.69,27.69,0,0,0-7.21,10.62,10.59,10.59,0,0,0,2,10.1c1.49,2.59,7.29,8.85,14.64,8.14,7.14-.68,16-8.75,14.62-15.59-1-4.71-3.82-9.35-6.88-13.18C65.49,420,61.63,420.35,58.83,419.84Zm29.69,48.88.28,0c3.56,0,7.78-.91,9.89-3,3.25-3.26,7.15-8.26,6.79-12.15-.45-5-4.44-10-7.77-14.27-1.15-1.49-4.88-1.27-7.44-1.31-8.83-.16-17.43,6.82-16.58,14.63.5,4.69,3.37,9.49,6.32,13.37C81.32,467.65,85.08,468.16,88.52,468.72Zm-.56-37c4.33.29,8.75.21,10.35-1.53,3.33-3.61,7.13-8.52,7.18-12.94s-3.75-9.22-6.88-13c-1.32-1.61-5.25-1.54-8-1.43-3.72.15-8.53-.17-10.84,1.94-3.14,2.86-5.88,7.8-6,11.9s2.6,8.9,5.49,12.14C81.31,431,85.74,431.7,88,431.7Zm-37.87,41a.89.89,0,0,0,.23,0c3-.38,6.63.06,9-1.43,2.94-1.87,5.42-3.74,9.12-3.51.8,0,2.35-1.62,2.42-2.57.23-3.25-4.29-7.92-7.59-8.11-2.42-.14-4.9.25-7.28-.1-5.7-.84-8.68,2-11.08,6.78C40.57,472.4,40.35,472.33,50.09,472.7Zm1.49-74.47s-2.76-.3-2.87-.05l-3.28.28a2.38,2.38,0,0,0-2,3.31c.85,2,1.65,3.92,2.46,5.92,2.08,5.18,6,6.55,11.14,5.9,1.69-.22,3.42,0,5.14,0,3.8-.13,8.85-5.24,8.65-8.82,0-.61-.49-1.58-1-1.72A171.16,171.16,0,0,0,51.58,398.23Zm65,37.21h0c0-4.14.17-8.28-.06-12.39-.15-2.64-2.57-3.56-4.55-2-.17.14-.22.41-.34.62-2.39,4.17-5,8.21-7.06,12.56-1.15,2.51,6.31,14.85,9.2,15.57.72.17,2.61-1.23,2.66-2C116.68,443.71,116.54,439.57,116.54,435.44Zm0,29.53a15.51,15.51,0,0,0-.06-3.61,14.47,14.47,0,0,0-1-2.74,1.6,1.6,0,0,0-2.09-.79,8.81,8.81,0,0,0-3.14,1.92c-1.38,1.59-2.08,3.76-3,5.7-.62,1.26-1.22,2.53-1.82,3.81a1.6,1.6,0,0,0,1.08,2.23,21.77,21.77,0,0,0,4.77.77C116.57,472.33,116.57,472.19,116.59,465Zm.54-58.29,0-.56c0-.47.25-1.57.07-1.63.07-1.82,1.39-4.55-.62-5.36-1.22-.48-.93-1.07-3.43-.85-1.2.11-2.33.23-3.42.39a3.9,3.9,0,0,0-3.06,5.29c.34.82.65,1.26,1.17,2.36.31.66.28.67.92,1.94s2.36,6.41,6,4.83C116.26,412.47,116.46,409,117.13,406.68Z"/><path class="cls-3" d="M555.34,190.13c5.45-.15,7.87,2.9,6.59,8.29-3.11,13.06-3.18,13.17,7.9,20.07,5.54,3.45,11.45,6.3,17.08,9.61,4.55,2.68,8.31,1.56,11.8-1.84,1.41-1.36,2.74-2.8,4.19-4.12,4-3.65,6.43-3.4,9.41,1.06,3.33,5,4.58,10,.45,15.32a22.71,22.71,0,0,0-2.87,5c-1.21,2.84-2.86,4.18-6.14,5.16s-6.44,4.19-8.6,7.17a117.61,117.61,0,0,0-10,16.78c-1.74,3.5-2,7.69-3.34,11.42-1.22,3.4-2.56,6.95-4.76,9.71-.9,1.13-4.5,1.08-6.34.31a105.46,105.46,0,0,1-12.75-6.81c-2.79-1.66-4.55-2.05-6.15,1.61-1.43,3.3-4.27,3.18-7.18,1.34-4.5-2.83-9.05-5.58-13.62-8.29-2.56-1.51-3.38-3.19-1.54-5.91,1.74-2.55,1.88-4.69-1.78-6.08-2.67-1-4.94-3-7.5-4.36-9.48-5-10.46-11.48-1.59-17.38,4.2-2.8,6.34-6.21,8.52-10.24,2.76-5.09,5.76-10.06,8.9-14.93a16.24,16.24,0,0,0,2.25-11.91C536.75,201.93,546.06,190.4,555.34,190.13Zm3.5,86.68c15,2,27.34-12.66,26.8-26.73-.63-16.05-11.76-26.82-26.78-26.54s-26,10.54-26.79,26.93C531.39,264.78,544.38,278.33,558.84,276.81Z"/><path class="cls-3" d="M864,942.28c-.67.6-1.19,1.32-1.55,1.57C849.93,952.5,837.31,961,825,970c-24.53,17.79-50.89,32.56-77.27,47.27q-30.11,16.8-60.85,32.47c-13.34,6.82-27.15,12.72-40.72,19.1-2.82,1.32-5.19,2.51-7.11-1.48s.63-5.09,3.27-6.61q30.75-17.79,61.45-35.67c5.35-3.13,6.32-6.39,3.59-12.09-1.14-2.39-3-4.46-4.05-6.87-1.37-3.13-4.36-5.85-2.17-10.05.66-1.27-.37-3.8-1.26-5.41-3.49-6.36-7-12.72-11-18.79-1.72-2.64-3-5.74-7.15-6.68-2.26-.52-3.94-4-5.68-6.29-2.87-3.81-5.33-7.94-8.42-11.54-2.51-3-.66-4.64,1.28-6,6.48-4.51,13-9,19.77-13,4.5-2.65,9.63-4.21,14.26-6.68,2.44-1.3,4.21-3.83,6.62-5.23,7.72-4.5,15.57-8.75,23.42-13,1.47-.8,3.18-1.15,4.71-1.86,5.8-2.67,5.66-2.66,7.4,3.25.6,2,2,3.81,3.08,5.72,2.73,5.08,6.17,9.88,5.66,16.18a9.55,9.55,0,0,0,1.41,4.79c3.18,6,6.32,12,9.87,17.78A20.5,20.5,0,0,0,773.2,957c3.78,2,6,7.31,8.46,11.4,4.19,6.84,6.93,7.5,13.88,3.49,18.21-10.52,36.52-20.88,54.78-31.31,2.52-1.44,4.88-3.21,7.52-4.36a5,5,0,0,1,6.75,3.63,11.4,11.4,0,0,0-.1,1.15ZM738.2,959.76a3.8,3.8,0,0,0,1.61,0c2.84-.67,6.48-.82,8.07-2.71,3.15-3.72,6.68-8.73,6.59-13.13s-3.79-9.35-7.06-13c-1.56-1.76-5.79-1.63-8.79-1.53-3.19.11-7.57.13-9.27,2.07-3.19,3.66-6.69,8.71-6.6,13.11s3.81,9.33,7,13.06C731.28,959.26,734.88,959.14,738.2,959.76Zm-31.87,17.61a3.76,3.76,0,0,0,1.53,0c3.34-.64,7.18-.56,8.84-2.42,3.08-3.46,5.82-8.15,6.43-12.64.94-6.85-8.74-15.73-15.87-15.4-3.25.16-7.58.52-9.39,2.57-3.24,3.66-6.71,8.65-6.76,13.13-.05,4.12,3.67,8.85,6.87,12.24C699.71,976.68,703.32,976.72,706.33,977.37Zm33.7-12a3.92,3.92,0,0,0-1.67,0c-3.43.68-7.13.64-9,2.46-3.31,3.29-7.31,8.05-7.17,12.06.17,4.72,3.81,9.84,7.19,13.69,1.76,2,6.18,2.19,9.41,2.24,3,0,7.14-.17,8.76-2,3.23-3.69,6.8-8.52,7-13,.16-4.19-3.27-9.08-6.34-12.61C746.57,966.23,743,966.06,740,965.35Zm-29.66,18.11a4.25,4.25,0,0,1-.79.09c-6.35,0-6.37.24-4.16,6,.5,1.33,1.4,2.81,1.17,4.05-1.18,6.46,3.09,10.9,5.47,16.07,1.31,2.85,2.82,2.89,5,1a14.81,14.81,0,0,0,3.51-18.53,27.57,27.57,0,0,0-2-3.86C716.37,985.31,713.94,982.74,710.37,983.46Zm58.42-6.31c-1.48-.13.91.31,2.78.3s2-.29,3.79-.87c1-.34,2.53-2.77,2.2-3.38-2.06-3.79-4-8-7.11-10.74s-6.77-6.28-9.28-7.3c-1.83-.66-3.08-.8-3.3-.65-3.41,2.44-4.76,5.85-3.67,8.87,1,4.48,3.87,8.9,7,12.38C762.7,977.39,766,976.75,768.79,977.15ZM707,941.46c7.43.08,15.62-7.5,16.46-15.15.36-3.27-1.22-4.47-4.43-2.75-6.16,3.3-12.16,6.91-18.13,10.54l-.29.18a3.65,3.65,0,0,0,.24,6.16,15.18,15.18,0,0,0,1.79.93C703.85,941.89,705.5,941.46,707,941.46Zm-15.08,4.73a3.31,3.31,0,0,0,.51-2.14c-.32-2.47-2.33-3.52-4.76-2.41a43.05,43.05,0,0,0-8,4.82c-1,.74-2,2.92-1.62,3.71a48.34,48.34,0,0,0,5.22,7.35c.17.21,1.62-.11,1.91-.55C687.54,953.29,689.82,949.54,691.89,946.19Zm45.45-23.92a4.75,4.75,0,0,0,.91.13,40.69,40.69,0,0,0,6-.09,4.61,4.61,0,0,0,2.39-1.8c-1.36-2.8-2.59-5.84-4.69-8-.76-.78-4.08.1-5.64,1.12-2.65,1.72-8,1.61-7.22,5.91C730,924.5,734.73,921.73,737.34,922.27Z"/><path class="cls-3" d="M565.39,122.24c3.29-.3,5.65,1.06,7.71,3.47,5.33,6.22,9.08,13.6,12.06,20.9,4.41,10.8,6.86,22.41,9.94,33.73,1.26,4.61-4.68,6.91-10.88,7.9-5.27.84-8.87,1.89-12.73,2.51-5.91,1.26-5.7-.28-6.38-2.23-1.55-4.47-.77-10.42-4.67-13.26s-9.16.31-13.88.32c-6.86,0-13.43-1.75-20.25-1.9-6-.14-11.12-8.82-9.08-14.65,3.6-10.29,10.21-19,15.4-28.46,1.41-2.58,4.22-4.72,7-4.77C548.4,125.65,557,124.86,565.39,122.24Zm3.86,14.17c-.12-3.72-1.89-6.37-5-6.32-2.87,0-6.46,1-6.76,5.06-.28,3.73,1.8,6,5.4,6.38C566.64,141.9,568.43,139.44,569.25,136.41Zm-12.73,29.13a6.26,6.26,0,0,0-.75-6.6,5.53,5.53,0,0,0-5.12-2.46c-3.55.3-5.17,3.05-5,6.72.17,4.42,3.39,4.8,6.55,4.78A4.62,4.62,0,0,0,556.52,165.54Zm-12.24-32.85c-4.46,0-7.19,1.77-7.23,5.3,0,3.13,2.49,4.79,5.82,5.15,3.87.41,5.39-2,5.53-4.94S547.41,132.46,544.28,132.69Zm-14.65,33.86c3.65.13,5.45-2,5.54-4.86.1-3.18-2.13-5.28-5.52-5.37s-5.78,1.89-5.83,5.05C523.76,164.68,525.76,166.71,529.63,166.55Zm46.24-9.89c-.52-2.11-1.08-3.7-3.47-3.24-1.88.36-3.36,1.46-2.93,3.37a3.25,3.25,0,0,0,4,2.37C575,158.9,575.94,158.1,575.87,156.66Zm5,21.72c0-1.49-.11-2.94-2.15-2.91s-3.38,1-3.41,2.83,1.45,2.82,3.33,2.9C580.73,181.3,580.9,179.9,580.92,178.38Z"/><path class="cls-3" d="M838.18,868.72c-4.65,2.62-7.08,4.73-.38,8-5.72-1.17-10.6.28-15.62-1.24-5.64-1.7-8-5.15-8.12-10.47a39.1,39.1,0,0,0-3.87-16.76c-3-6.17-1.59-11.25,3.23-16.22,5.54-5.71,10.05-12.42,15.56-18.17,8-8.3,17-6.85,22.1,3.63,3.75,7.78,7.41,15.81,9.47,24.13,1.52,6.12,4.52,6.27,8.84,4.85a21.7,21.7,0,0,1,7.2-.77c4.11,0,6.3,2.27,6.34,6.37.06,5.33.16,10.6,1.36,15.89,1,4.19-.49,7.87-5.61,8.43-9.61,1-19.22,2.1-28.84,2.94C839.9,880.18,839.82,880,838.18,868.72ZM825.8,855.8c-2.59,1.36-4.73,3.14-4.6,7s2.15,4.89,5.64,4.92c4.26,0,5.74-3.15,5.8-6.07C832.71,858.28,829.74,856.44,825.8,855.8Zm27.25-13.65c-.54-3.34-1.7-6.41-5.37-6.65s-5.58,2.25-5.84,5.89c-.23,3.36.71,5.5,4.68,5.79S852.1,845.13,853.05,842.15Zm-25.85-.25c-1.09-1.48-.36-5.09-4.67-5.18-3.66-.08-6.59,1.34-6.88,4.86s2.51,5.4,6.16,5.53C824.86,847.21,827.09,846.39,827.2,841.9Zm17.63-20.45c-.72-2.55-1.09-5.42-5.12-5.32-3.65.09-6.39,1.73-6.45,5.24,0,3,2.34,4.88,5.75,5.2C842.81,826.93,844,824.68,844.83,821.45Zm29.36,40.26c0-1.51-.2-2.92-2.25-2.81-1.88.11-3.37,1-3.32,2.92s1.53,2.8,3.42,2.82C874.08,864.65,874.17,863.2,874.19,861.71ZM852,863.1a2.75,2.75,0,0,0-3-2.5c-1.81.19-2.76,1.69-2.65,3.59s1.66,1.95,3.09,2C851.07,866.19,852.24,865.69,852,863.1Z"/><path class="cls-3" d="M98.87,639c.16-5.05-2.23-6.22-6.72-6.15-12,.18-24,.33-36-.05-6.18-.21-8.28,2.83-8.66,8.14-.16,2.19,0,4.41,0,6.61,0,14.61,0,14.61-14.33,14.75-8.66.09-10.63,2-10.65,10.79q0,29.76,0,59.51c0,20.33.1,40.65,0,61-.05,5.91,2.33,8.54,8.28,8.3,5.13-.2,10.28,0,15.42,0,8.55,0,9-.07,8.47-8.55-.6-9.06,2.53-15.91,9.15-21.89,6.35-5.73,12.09-12.14,18.28-18.06A15.37,15.37,0,0,0,87.13,741c-.26-10,.11-20.09-.14-30.12-.19-7.9.71-15.38,5-22.23,2-3.12.5-4.39-2.83-4.36-4.9,0-9.81-.17-14.69,0-3.69.17-5.42-.88-5.16-4.9.23-3.59-.06-7.08,5.1-7s10.28,0,15.42,0c6.8-.06,8.72-1.74,8.88-8.51C99,655.63,98.62,647.3,98.87,639ZM78.31,694.2a2.07,2.07,0,1,1-2.07,2.07A2.07,2.07,0,0,1,78.31,694.2Zm0,33.85a2.07,2.07,0,1,1-2.07,2.07A2.07,2.07,0,0,1,78.31,728.05ZM59.08,644.74c2.4-.23,3.06.79,3,2.5,0,1.4.13,3-1.89,3.15s-3.42-.78-3.66-2.56A2.76,2.76,0,0,1,59.08,644.74ZM33,672.65c1.43-.14,2.28.41,2.4.93.23,2.41-.46,3.23-1.94,3.26a1.89,1.89,0,0,1-2.15-2.24C31.41,673.56,31.8,672.76,33,672.65Zm-2.47,23.62a2.07,2.07,0,1,1,2.06,2.07A2.07,2.07,0,0,1,30.57,696.27Zm3.22,34.94c-1.71.06-2.48-.69-2.45-2.15s.89-2.15,2.35-2a1.77,1.77,0,0,1,1.85,1.79C35.16,730.3,34.69,731,33.79,731.21Zm6.29,59.64A2.69,2.69,0,0,1,37.2,788c-.05-1.89.89-3.38,2.73-3.5a2.76,2.76,0,0,1,2.94,2.55C43.07,789.78,41.65,790.86,40.08,790.85Zm.05-23.07c-1.91.07-2.9-1.44-3-3.32s1-3.39,2.81-3.46,2.8,1.47,3,3.26C42.9,766.2,42,767.72,40.13,767.78ZM72.35,718.9c-.46,8.83-6.62,16.16-16.26,15.4-11.71-.14-14.86-6.35-15.85-15.62-.91-8.47,7.34-15.44,16.46-15.33C65.27,703.45,72.79,710.6,72.35,718.9Zm8.39-70.65a1.77,1.77,0,1,1,1.77-1.77A1.77,1.77,0,0,1,80.74,648.25Z"/><path class="cls-3" d="M560.77,85.3c-3.42-4.24-5.69-9.56-11.5-11.67-3.9-1.43-6.63-4.71-8.75-8.25C534.08,54.64,527.77,43.81,521.38,33c-4.56-7.71-10.15-10.45-18.7-7.2a135.81,135.81,0,0,0-34.33,19.64c-7,5.35-7.5,11.81-3.31,19.72,3,5.75,6.66,11.19,9.59,17,4.29,8.49,11.86,15.68,11.35,26.13-.32,6.65,2.16,12.29,5,17.89.84,1.63,1.47,4,4.13,3,2.15-.77,2.42-2.64,2.6-4.73.8-9.18,2.23-10.71,11.41-12.82a.07.07,0,0,1,.07,0c.94,2.74-.43,5.78,1.31,9a.05.05,0,0,0,.08,0l16.27-9.16a.05.05,0,0,0,0-.09c-2.36-1.65-4.81-2.71-4-5.72a3.21,3.21,0,0,1,3.12-2.63c3,.07,4.5,1.26,3.5,4.65-.35,1.17,1.6,1.28,2,.88,3.9-3.54,10.13-3.89,13.38-9.23a.07.07,0,0,0,0-.09l-10-2.89a.05.05,0,0,1,0-.09c6.26-5.35,12-9.47,19.67-3.88,2.2,1.61,4.5,1,6.51-.73C563.69,89.52,562.15,87,560.77,85.3Zm-93-25.76c-2.12.05-3.45-1-3.48-3.17S465.88,53,468,53.11a3.19,3.19,0,0,1,3.25,2.21v0C471.41,57.56,470.11,59.48,467.78,59.54Zm40.34-29.22c.69-2.44,2.43-3.06,3.33-2.91,1.78.29,4,1.12,4,3.66a3.69,3.69,0,0,1-4.58,3.52A3.39,3.39,0,0,1,508.12,30.32ZM493.2,116.4a2.16,2.16,0,1,1,2.16-2.16A2.16,2.16,0,0,1,493.2,116.4Zm29-32.35a27.49,27.49,0,0,1-29.09,6.33c-11-4.31-17.25-12.88-17.46-26.24-1.08-4.82,2.08-8,6.24-10.48,6.62-3.92,13.4-7.58,20-11.52a13.25,13.25,0,0,1,12.36-1c4.51,1.67,6.89,7.09,12.58,6.66.79-.06,2.65,2.69,2.55,4C528.65,62.86,531.37,74.56,522.22,84.05Zm28.35.25a2.16,2.16,0,1,1,2.16-2.16A2.16,2.16,0,0,1,550.57,84.3Z"/><path class="cls-2" d="M504.75,1140.42c-7.3-4.25-14.66-8.38-22-12.59-3.48-2-5.94-4.33-6.21-9-.71-12.49.65-24.95,2.07-37.17,1.61-14,3.46-16.55-10.6-23.38-.65-.31-5.26-2.72-6-3.24-5.23-3.46-5.6-4.74-9.21-4.35-4.18.46-4.65,7.25-7.35,11-5.46,7.55-4.86,10.86,3.06,15.75,4,2.5,4.59,5.47,4.89,9.6.56,7.63-1.58,15-1.69,24.11-.87,4.93,1.52,9.57,7.36,12.83q20.84,11.67,41.41,23.77c3.31,1.94,5.2,1.61,7.32-1.73C510.42,1141.81,506.78,1141.6,504.75,1140.42ZM468.47,1074a1.15,1.15,0,1,1,0,2.29,1.15,1.15,0,0,1,0-2.29Zm-11.33,26.93a1.14,1.14,0,1,1,1.15-1.14A1.14,1.14,0,0,1,457.14,1100.94Zm.74-19.16a1.15,1.15,0,0,1,0-2.29,1.15,1.15,0,1,1,0,2.29Zm-.36-8.62c-1.52.21-5-2.89-6.47-4.88-.45-.62.58-2.4,2.47-3.67,1.5-1,8.17,3.16,8.44,5A5.63,5.63,0,0,1,457.52,1073.16Zm5.29,23.62c-2.46,0-2.43-2-2.23-3.69.38-3.24.71-6.65.87-9.8a2.44,2.44,0,0,1,2-2.26c7.8-1.36,5.94,2.7,5.93,4.75,0,1,0,1.92,0,2.89l.21,0c-.23,2.38.13,5-.85,7C467.67,1098,464.87,1096.82,462.81,1096.78Zm7.95,5.31a1.15,1.15,0,1,1,1.14-1.15A1.14,1.14,0,0,1,470.76,1102.09Z"/><path class="cls-1" d="M718.72,577.84,537.94,891H704L884.73,577.84ZM698.36,881.28H554.7L724.3,587.52H868Z"/><path class="cls-1" d="M601,284.08,250.61,891h166L767,284.08ZM411,881.28H267.37L606.58,293.76H750.24Z"/><path class="cls-1" d="M313.67,284.08,132.89,597.2h166L479.68,284.08ZM293.31,587.52H149.65l169.6-293.76H462.92Z"/></g></g></svg>