<?xml version="1.0" standalone="no"?>
<!DOCTYPE svg PUBLIC "-//W3C//DTD SVG 20010904//EN"
 "http://www.w3.org/TR/2001/REC-SVG-20010904/DTD/svg10.dtd">
<svg version="1.0" xmlns="http://www.w3.org/2000/svg"
 width="650.000000pt" height="557.000000pt" viewBox="0 0 650.000000 557.000000"
 preserveAspectRatio="xMidYMid meet">
<metadata>
Created by potrace 1.16, written by Peter Selinger 2001-2019
</metadata>
<g transform="translate(0.000000,557.000000) scale(0.100000,-0.100000)"
fill="#000000" stroke="none">
<path d="M3153 4300 c-175 -32 -342 -160 -422 -322 -58 -117 -71 -236 -50
-439 18 -179 48 -307 125 -534 41 -120 74 -234 74 -253 0 -129 -106 -233 -238
-235 -72 0 -137 27 -190 82 -65 67 -70 97 -87 451 -22 445 -29 529 -53 583
-28 64 -95 132 -160 164 -115 56 -266 30 -355 -62 -61 -62 -81 -116 -85 -227
-4 -90 1 -138 13 -126 3 3 9 48 14 100 6 61 17 110 29 134 96 185 361 182 440
-6 12 -29 20 -178 10 -184 -33 -22 -249 -222 -278 -259 -87 -108 -150 -285
-150 -419 0 -56 -3 -68 -16 -68 -14 0 -15 -7 -10 -37 3 -21 6 -46 6 -56 0 -13
5 -17 18 -13 15 5 21 -2 31 -36 11 -37 11 -43 -3 -54 -15 -11 -15 -16 6 -58
17 -36 27 -46 41 -42 12 3 25 -7 41 -32 21 -33 21 -38 8 -48 -14 -10 -13 -16
11 -48 30 -39 37 -42 54 -25 9 9 24 1 61 -32 68 -61 164 -116 249 -142 40 -12
73 -28 73 -34 0 -7 17 -29 38 -48 102 -97 246 -123 391 -71 40 15 46 15 68 1
33 -22 31 -67 -4 -95 -35 -27 -69 -20 -105 22 -25 29 -28 30 -28 11 0 -28 33
-68 69 -83 76 -31 161 31 161 116 0 60 -25 100 -78 126 -40 19 -50 20 -110 10
-37 -6 -83 -8 -102 -3 -19 4 -55 3 -80 -2 -46 -8 -132 -3 -185 12 -19 5 10 6
75 3 216 -10 375 47 570 204 30 24 21 13 -24 -31 l-69 -67 24 -87 c32 -115 31
-190 -4 -257 -51 -100 -149 -157 -271 -156 -154 1 -272 93 -335 262 -43 115
-133 181 -245 179 -115 -2 -147 -29 -40 -33 107 -4 173 -67 189 -181 4 -28 18
-87 32 -133 20 -65 35 -92 69 -130 25 -26 59 -63 78 -83 18 -20 47 -39 64 -42
17 -4 41 -16 52 -27 20 -20 51 -29 166 -49 75 -14 110 -14 134 -1 10 5 48 11
85 13 52 2 71 8 84 23 26 32 67 54 79 42 11 -11 60 11 83 38 11 13 11 18 1 21
-7 3 7 26 39 61 58 66 112 169 135 262 14 53 16 98 12 240 -3 96 -2 150 2 120
4 -30 17 -92 29 -137 25 -98 27 -218 5 -307 -18 -70 -106 -242 -123 -239 -12
3 -43 -51 -39 -70 4 -21 -13 -61 -32 -77 -11 -8 -22 -36 -25 -62 -6 -40 -5
-48 9 -48 9 0 18 -12 22 -27 3 -16 7 -34 10 -40 2 -7 -3 -13 -11 -13 -20 0
-19 -21 2 -65 12 -25 22 -35 34 -32 18 5 66 -49 61 -70 -3 -14 60 -54 91 -57
36 -4 71 -18 82 -32 5 -6 29 -15 53 -19 35 -6 42 -4 42 9 0 10 9 16 23 16 49
0 119 33 171 81 113 103 136 261 55 382 -29 44 -134 125 -146 113 -3 -3 14
-24 39 -46 61 -53 92 -126 85 -197 -11 -110 -83 -184 -186 -191 -95 -7 -168
43 -191 129 -16 60 1 104 81 199 93 110 123 155 164 243 51 105 76 213 82 352
l6 120 -74 72 c-41 39 -82 87 -93 105 -18 31 -16 31 30 -13 85 -80 193 -161
265 -199 l69 -36 -40 -32 c-21 -18 -52 -54 -67 -80 -23 -39 -28 -58 -28 -117
0 -82 20 -130 78 -186 55 -55 110 -73 201 -67 111 7 182 55 239 162 31 59 31
193 0 252 -39 73 -71 102 -227 198 -155 97 -221 144 -181 131 11 -3 41 -11 67
-17 31 -8 45 -15 41 -24 -3 -8 5 -15 19 -18 12 -3 35 -7 51 -11 20 -4 27 -2
27 10 0 11 11 15 40 15 29 0 40 -4 40 -15 0 -11 12 -15 50 -15 41 0 50 3 50
18 0 12 12 21 40 29 32 8 40 8 40 -3 0 -22 17 -25 60 -8 37 15 40 19 35 43 -5
22 0 29 25 45 25 14 34 15 46 5 11 -9 18 -8 35 7 32 29 42 53 29 69 -9 11 -6
21 11 45 13 17 29 28 36 26 8 -3 16 9 23 32 12 44 13 72 3 72 -5 0 -8 39 -8
88 0 123 -27 178 -144 292 -76 73 -90 92 -98 132 -24 111 18 196 123 250 70
35 99 64 110 111 9 37 -8 34 -30 -7 -19 -35 -36 -47 -100 -67 -77 -23 -153
-118 -157 -194 -1 -19 -3 -23 -5 -10 -31 149 -82 260 -171 370 -68 85 -99 148
-113 238 -13 83 0 180 35 252 43 90 76 115 155 115 94 0 153 -55 166 -155 8
-53 24 -50 24 4 0 55 -45 137 -93 169 -58 38 -154 43 -217 10 -98 -52 -174
-219 -174 -383 0 -134 23 -200 128 -370 100 -162 105 -385 13 -534 -63 -103
-128 -145 -227 -146 -56 0 -78 6 -162 44 -54 25 -100 42 -103 40 -2 -3 -9 -30
-14 -60 l-9 -54 -1 48 c-1 36 7 64 33 115 38 75 87 209 112 305 55 214 79 511
50 627 -66 262 -280 441 -543 455 -48 2 -111 0 -140 -5z m222 -35 c263 -55
444 -282 445 -558 0 -244 -68 -557 -165 -755 -33 -68 -45 -105 -45 -138 0 -60
24 -117 47 -112 14 2 19 15 21 58 2 30 7 58 11 63 4 4 45 -10 91 -32 66 -31
78 -40 59 -43 -38 -5 -35 -33 8 -58 30 -18 47 -21 83 -16 102 14 230 103 295
206 35 55 75 164 75 206 0 17 9 43 20 57 11 14 20 36 20 49 0 32 -35 68 -64
68 -19 0 -25 7 -31 37 -12 64 -43 136 -95 218 -88 139 -119 260 -101 387 10
72 46 170 82 223 26 38 40 40 15 3 -24 -37 -54 -133 -62 -196 -12 -106 28
-242 96 -327 80 -100 135 -192 164 -275 26 -75 30 -98 30 -200 0 -129 -16
-204 -65 -306 -39 -82 -123 -173 -196 -212 -58 -30 -58 -30 -93 -12 -56 28
-99 35 -106 15 -10 -25 20 -50 119 -99 208 -104 374 -101 497 10 64 58 94 124
95 209 0 91 -24 152 -86 222 -27 29 -49 56 -49 59 0 3 23 -14 51 -38 101 -85
142 -174 138 -298 -2 -42 0 -81 4 -87 9 -15 -2 -43 -17 -43 -22 0 -67 -81 -64
-114 3 -29 1 -30 -32 -31 -45 0 -113 -49 -105 -76 8 -25 -13 -34 -35 -14 -16
14 -24 15 -62 4 -23 -6 -50 -20 -60 -30 -19 -22 -44 -25 -51 -5 -4 9 3 16 16
20 34 8 91 71 83 91 -5 14 -15 16 -49 11 -61 -8 -172 -11 -183 -4 -5 3 -25 9
-44 13 -19 3 -54 15 -76 25 -39 18 -44 18 -93 3 -36 -12 -51 -22 -51 -34 0
-10 4 -21 10 -24 6 -4 5 -13 -3 -26 -11 -18 -8 -25 28 -56 22 -19 115 -82 208
-140 173 -108 208 -141 235 -222 41 -119 -26 -269 -143 -322 -53 -25 -147 -24
-200 0 -22 10 -56 36 -75 57 l-35 38 35 -29 c49 -39 91 -55 148 -55 169 0 270
207 158 324 -20 21 -84 56 -181 100 -82 38 -172 84 -200 104 -103 72 -202 162
-245 221 -45 61 -66 74 -76 46 -8 -19 8 -58 52 -130 18 -30 28 -55 23 -55 -15
0 -10 -32 13 -90 18 -46 22 -75 22 -170 0 -101 -3 -122 -25 -175 -25 -59 -59
-115 -100 -166 -32 -41 -5 -99 47 -99 13 0 24 -3 24 -7 0 -5 -36 -51 -80 -103
-112 -133 -126 -202 -56 -293 46 -61 98 -87 172 -87 106 0 186 60 225 172 l19
53 -5 -54 c-8 -70 -44 -140 -96 -184 -42 -36 -113 -67 -155 -67 -13 0 -26 -4
-29 -10 -8 -14 -48 -13 -63 2 -17 17 -88 42 -135 47 -4 1 -11 9 -15 19 -14 36
-67 102 -82 102 -28 0 -42 22 -26 39 12 13 13 26 4 66 -6 28 -17 58 -25 67
-13 14 -12 19 5 36 19 19 52 102 52 130 0 8 11 23 24 33 31 24 112 187 131
264 22 87 19 216 -6 311 -12 43 -25 122 -28 174 -5 75 -9 95 -21 95 -8 0 -22
-13 -30 -30 -12 -24 -14 -65 -12 -216 3 -148 0 -198 -13 -249 -23 -88 -66
-169 -131 -246 -31 -36 -53 -71 -50 -79 5 -15 -27 -30 -44 -20 -12 7 -107 -40
-112 -56 -2 -7 -27 -13 -57 -15 -30 -1 -73 -8 -97 -14 -33 -10 -54 -10 -92 -1
-27 7 -64 13 -83 13 -31 1 -119 42 -119 56 0 3 3 3 6 -1 3 -3 18 -1 32 4 17 7
49 6 96 -2 250 -42 496 140 538 397 13 77 -3 249 -25 271 -16 16 -57 5 -57
-16 0 -9 5 -59 12 -112 19 -154 -15 -264 -110 -362 -83 -85 -182 -127 -298
-127 -76 0 -109 11 -117 40 -5 21 -3 22 36 17 93 -13 212 30 278 100 82 86
105 184 71 299 -36 126 -37 119 9 156 75 60 142 183 110 202 -5 4 -49 -33 -98
-81 -48 -49 -114 -103 -146 -122 -150 -88 -349 -122 -513 -87 -103 23 -245 93
-317 157 -46 41 -62 50 -81 45 -27 -7 -38 10 -23 34 12 21 -49 120 -74 120
-24 0 -42 33 -27 48 18 18 -8 115 -38 141 -24 21 -25 24 -10 40 11 12 16 37
16 78 0 148 60 321 149 429 23 28 96 98 162 155 131 114 128 107 120 236 -7
132 -122 234 -265 236 -42 0 -53 3 -36 8 71 20 170 -1 239 -51 47 -34 97 -106
111 -160 5 -19 18 -217 29 -440 12 -223 25 -421 31 -440 16 -57 65 -125 113
-159 84 -58 182 -69 279 -32 44 17 110 83 134 136 42 89 36 123 -85 467 -63
180 -109 485 -98 642 12 168 88 309 218 408 134 101 291 137 454 103z m1129
-1313 c88 -100 112 -183 82 -286 -42 -145 -211 -226 -384 -185 -48 12 -232 93
-232 103 0 3 20 -4 44 -15 l43 -22 64 34 c150 80 259 257 284 463 l7 58 23
-49 c12 -27 43 -73 69 -101z m-774 -827 c21 -25 6 -221 -25 -328 -26 -90 -94
-236 -95 -204 0 10 13 43 29 75 55 111 66 158 65 282 0 94 -4 125 -22 170 -12
30 -22 56 -22 58 0 6 57 -37 70 -53z m374 -131 c102 -48 136 -88 136 -156 0
-228 -330 -238 -357 -11 -7 66 10 116 60 170 47 51 47 51 161 -3z m-1805 -48
c11 -17 32 -62 46 -99 31 -77 103 -164 166 -199 l38 -21 -25 -24 c-21 -19 -25
-31 -22 -58 2 -19 0 -35 -5 -35 -17 0 -47 21 -47 33 0 7 -22 35 -50 62 -27 27
-50 55 -50 61 0 7 -9 33 -20 59 -11 26 -25 79 -31 118 -7 46 -22 89 -40 119
-28 48 -28 48 -4 32 14 -9 33 -30 44 -48z m561 29 c41 -21 60 -53 59 -100 l-1
-40 -8 35 c-8 34 -50 80 -73 80 -7 0 -38 -9 -70 -20 -96 -34 -242 -21 -304 28
-22 16 -18 17 115 17 75 0 155 3 177 6 64 10 74 10 105 -6z"/>
<path d="M2791 3937 c-30 -99 -43 -183 -44 -287 -2 -159 33 -286 72 -261 12 8
12 18 0 73 -22 101 -16 254 17 373 36 136 37 159 2 163 -25 3 -28 -1 -47 -61z"/>
<path d="M3692 3978 c-6 -9 -6 -36 0 -83 13 -91 4 -327 -17 -433 -9 -45 -13
-87 -10 -92 10 -17 64 -11 74 8 15 28 31 189 31 312 0 128 -13 228 -36 271
-16 32 -26 36 -42 17z"/>
<path d="M3083 3384 c-3 -8 -1 -26 5 -39 13 -29 27 -125 18 -125 -3 0 -57 20
-118 45 -122 49 -136 52 -144 31 -7 -17 142 -206 162 -206 7 0 47 15 88 34 74
34 75 35 81 78 4 25 2 64 -5 89 -23 84 -70 136 -87 93z"/>
<path d="M3382 3368 c-28 -45 -44 -119 -36 -169 7 -39 10 -43 72 -70 110 -50
100 -53 187 55 74 92 88 126 51 126 -7 0 -63 -20 -122 -45 -60 -24 -112 -41
-117 -36 -5 5 -3 33 3 62 17 82 17 103 -1 107 -10 2 -25 -10 -37 -30z"/>
<path d="M2131 3127 c-120 -154 -159 -288 -128 -438 46 -227 209 -377 438
-404 49 -6 59 -9 42 -16 -44 -16 -56 -76 -23 -109 26 -26 72 -26 95 0 12 13
31 20 54 20 87 0 198 43 289 113 55 42 64 69 31 90 -12 8 -29 -1 -75 -38 -69
-56 -138 -89 -220 -104 -47 -9 -61 -9 -69 2 -5 7 -19 19 -30 25 -18 10 -16 11
18 12 96 0 248 55 255 92 5 24 -19 27 -79 12 -65 -18 -262 -20 -303 -5 -27 11
-28 13 -12 30 9 9 16 21 16 26 0 4 -22 31 -49 60 -60 63 -96 132 -110 209 -9
49 -8 61 4 70 10 8 16 41 20 110 6 108 -6 146 -45 146 -19 0 -20 6 -18 88 3
80 2 87 -17 89 -15 2 -37 -20 -84 -80z m66 -182 c-12 -251 -5 -313 42 -410 35
-71 118 -161 169 -182 37 -15 217 -21 282 -9 35 6 35 6 -5 -10 -56 -22 -187
-29 -272 -15 -304 52 -474 370 -347 650 21 47 133 206 139 199 1 -2 -2 -102
-8 -223z"/>
<path d="M2989 2818 c0 -2 -2 -41 -3 -88 -2 -102 -27 -168 -87 -226 -71 -69
-41 -100 43 -44 83 55 126 147 114 246 -9 75 -25 114 -47 114 -10 0 -19 -1
-20 -2z"/>
<path d="M2330 4034 c0 -3 9 -18 19 -33 70 -98 86 -254 38 -372 -25 -61 -27
-74 -21 -153 5 -54 11 -85 18 -83 19 6 83 138 95 195 31 153 -3 294 -96 410
-31 37 -53 53 -53 36z"/>
</g>
</svg>
