%TF.GenerationSoftware,KiCad,Pcbnew,(6.0.6)*%
%TF.CreationDate,2022-08-22T03:32:16+02:00*%
%TF.ProjectId,fan_pcb,66616e5f-7063-4622-9e6b-696361645f70,rev?*%
%TF.SameCoordinates,Original*%
%TF.FileFunction,Legend,Bot*%
%TF.FilePolarity,Positive*%
%FSLAX46Y46*%
G04 Gerber Fmt 4.6, Leading zero omitted, Abs format (unit mm)*
G04 Created by KiCad (PCBNEW (6.0.6)) date 2022-08-22 03:32:16*
%MOMM*%
%LPD*%
G01*
G04 APERTURE LIST*
%ADD10C,0.100000*%
G04 APERTURE END LIST*
D10*
X46777857Y-26688428D02*
X46577857Y-27288428D01*
X46377857Y-26688428D01*
X45863571Y-27288428D02*
X46206428Y-27288428D01*
X46035000Y-27288428D02*
X46035000Y-26688428D01*
X46092142Y-26774142D01*
X46149285Y-26831285D01*
X46206428Y-26859857D01*
X45606428Y-27231285D02*
X45577857Y-27259857D01*
X45606428Y-27288428D01*
X45635000Y-27259857D01*
X45606428Y-27231285D01*
X45606428Y-27288428D01*
X45006428Y-27288428D02*
X45349285Y-27288428D01*
X45177857Y-27288428D02*
X45177857Y-26688428D01*
X45235000Y-26774142D01*
X45292142Y-26831285D01*
X45349285Y-26859857D01*
X44292142Y-27059857D02*
X43835000Y-27059857D01*
X43177857Y-26688428D02*
X42835000Y-26688428D01*
X43006428Y-27288428D02*
X43006428Y-26688428D01*
X42635000Y-27288428D02*
X42635000Y-26688428D01*
X42377857Y-27288428D02*
X42377857Y-26974142D01*
X42406428Y-26917000D01*
X42463571Y-26888428D01*
X42549285Y-26888428D01*
X42606428Y-26917000D01*
X42635000Y-26945571D01*
X41863571Y-27259857D02*
X41920714Y-27288428D01*
X42035000Y-27288428D01*
X42092142Y-27259857D01*
X42120714Y-27202714D01*
X42120714Y-26974142D01*
X42092142Y-26917000D01*
X42035000Y-26888428D01*
X41920714Y-26888428D01*
X41863571Y-26917000D01*
X41835000Y-26974142D01*
X41835000Y-27031285D01*
X42120714Y-27088428D01*
X40920714Y-26974142D02*
X40835000Y-27002714D01*
X40806428Y-27031285D01*
X40777857Y-27088428D01*
X40777857Y-27174142D01*
X40806428Y-27231285D01*
X40835000Y-27259857D01*
X40892142Y-27288428D01*
X41120714Y-27288428D01*
X41120714Y-26688428D01*
X40920714Y-26688428D01*
X40863571Y-26717000D01*
X40835000Y-26745571D01*
X40806428Y-26802714D01*
X40806428Y-26859857D01*
X40835000Y-26917000D01*
X40863571Y-26945571D01*
X40920714Y-26974142D01*
X41120714Y-26974142D01*
X40263571Y-27288428D02*
X40263571Y-26974142D01*
X40292142Y-26917000D01*
X40349285Y-26888428D01*
X40463571Y-26888428D01*
X40520714Y-26917000D01*
X40263571Y-27259857D02*
X40320714Y-27288428D01*
X40463571Y-27288428D01*
X40520714Y-27259857D01*
X40549285Y-27202714D01*
X40549285Y-27145571D01*
X40520714Y-27088428D01*
X40463571Y-27059857D01*
X40320714Y-27059857D01*
X40263571Y-27031285D01*
X39720714Y-27288428D02*
X39720714Y-26688428D01*
X39720714Y-27259857D02*
X39777857Y-27288428D01*
X39892142Y-27288428D01*
X39949285Y-27259857D01*
X39977857Y-27231285D01*
X40006428Y-27174142D01*
X40006428Y-27002714D01*
X39977857Y-26945571D01*
X39949285Y-26917000D01*
X39892142Y-26888428D01*
X39777857Y-26888428D01*
X39720714Y-26917000D01*
X38777857Y-26974142D02*
X38692142Y-27002714D01*
X38663571Y-27031285D01*
X38635000Y-27088428D01*
X38635000Y-27174142D01*
X38663571Y-27231285D01*
X38692142Y-27259857D01*
X38749285Y-27288428D01*
X38977857Y-27288428D01*
X38977857Y-26688428D01*
X38777857Y-26688428D01*
X38720714Y-26717000D01*
X38692142Y-26745571D01*
X38663571Y-26802714D01*
X38663571Y-26859857D01*
X38692142Y-26917000D01*
X38720714Y-26945571D01*
X38777857Y-26974142D01*
X38977857Y-26974142D01*
X38377857Y-27288428D02*
X38377857Y-26888428D01*
X38377857Y-27002714D02*
X38349285Y-26945571D01*
X38320714Y-26917000D01*
X38263571Y-26888428D01*
X38206428Y-26888428D01*
X37777857Y-27259857D02*
X37835000Y-27288428D01*
X37949285Y-27288428D01*
X38006428Y-27259857D01*
X38035000Y-27202714D01*
X38035000Y-26974142D01*
X38006428Y-26917000D01*
X37949285Y-26888428D01*
X37835000Y-26888428D01*
X37777857Y-26917000D01*
X37749285Y-26974142D01*
X37749285Y-27031285D01*
X38035000Y-27088428D01*
X37235000Y-27288428D02*
X37235000Y-26974142D01*
X37263571Y-26917000D01*
X37320714Y-26888428D01*
X37435000Y-26888428D01*
X37492142Y-26917000D01*
X37235000Y-27259857D02*
X37292142Y-27288428D01*
X37435000Y-27288428D01*
X37492142Y-27259857D01*
X37520714Y-27202714D01*
X37520714Y-27145571D01*
X37492142Y-27088428D01*
X37435000Y-27059857D01*
X37292142Y-27059857D01*
X37235000Y-27031285D01*
X37035000Y-26888428D02*
X36806428Y-26888428D01*
X36949285Y-26688428D02*
X36949285Y-27202714D01*
X36920714Y-27259857D01*
X36863571Y-27288428D01*
X36806428Y-27288428D01*
X36606428Y-27288428D02*
X36606428Y-26688428D01*
X36349285Y-27288428D02*
X36349285Y-26974142D01*
X36377857Y-26917000D01*
X36435000Y-26888428D01*
X36520714Y-26888428D01*
X36577857Y-26917000D01*
X36606428Y-26945571D01*
X46692142Y-28254428D02*
X46692142Y-27654428D01*
X46549285Y-27654428D01*
X46463571Y-27683000D01*
X46406428Y-27740142D01*
X46377857Y-27797285D01*
X46349285Y-27911571D01*
X46349285Y-27997285D01*
X46377857Y-28111571D01*
X46406428Y-28168714D01*
X46463571Y-28225857D01*
X46549285Y-28254428D01*
X46692142Y-28254428D01*
X45863571Y-28225857D02*
X45920714Y-28254428D01*
X46035000Y-28254428D01*
X46092142Y-28225857D01*
X46120714Y-28168714D01*
X46120714Y-27940142D01*
X46092142Y-27883000D01*
X46035000Y-27854428D01*
X45920714Y-27854428D01*
X45863571Y-27883000D01*
X45835000Y-27940142D01*
X45835000Y-27997285D01*
X46120714Y-28054428D01*
X45606428Y-28225857D02*
X45549285Y-28254428D01*
X45435000Y-28254428D01*
X45377857Y-28225857D01*
X45349285Y-28168714D01*
X45349285Y-28140142D01*
X45377857Y-28083000D01*
X45435000Y-28054428D01*
X45520714Y-28054428D01*
X45577857Y-28025857D01*
X45606428Y-27968714D01*
X45606428Y-27940142D01*
X45577857Y-27883000D01*
X45520714Y-27854428D01*
X45435000Y-27854428D01*
X45377857Y-27883000D01*
X45092142Y-28254428D02*
X45092142Y-27854428D01*
X45092142Y-27654428D02*
X45120714Y-27683000D01*
X45092142Y-27711571D01*
X45063571Y-27683000D01*
X45092142Y-27654428D01*
X45092142Y-27711571D01*
X44549285Y-27854428D02*
X44549285Y-28340142D01*
X44577857Y-28397285D01*
X44606428Y-28425857D01*
X44663571Y-28454428D01*
X44749285Y-28454428D01*
X44806428Y-28425857D01*
X44549285Y-28225857D02*
X44606428Y-28254428D01*
X44720714Y-28254428D01*
X44777857Y-28225857D01*
X44806428Y-28197285D01*
X44835000Y-28140142D01*
X44835000Y-27968714D01*
X44806428Y-27911571D01*
X44777857Y-27883000D01*
X44720714Y-27854428D01*
X44606428Y-27854428D01*
X44549285Y-27883000D01*
X44263571Y-27854428D02*
X44263571Y-28254428D01*
X44263571Y-27911571D02*
X44235000Y-27883000D01*
X44177857Y-27854428D01*
X44092142Y-27854428D01*
X44035000Y-27883000D01*
X44006428Y-27940142D01*
X44006428Y-28254428D01*
X43263571Y-28254428D02*
X43263571Y-27654428D01*
X43263571Y-27883000D02*
X43206428Y-27854428D01*
X43092142Y-27854428D01*
X43035000Y-27883000D01*
X43006428Y-27911571D01*
X42977857Y-27968714D01*
X42977857Y-28140142D01*
X43006428Y-28197285D01*
X43035000Y-28225857D01*
X43092142Y-28254428D01*
X43206428Y-28254428D01*
X43263571Y-28225857D01*
X42777857Y-27854428D02*
X42635000Y-28254428D01*
X42492142Y-27854428D02*
X42635000Y-28254428D01*
X42692142Y-28397285D01*
X42720714Y-28425857D01*
X42777857Y-28454428D01*
X41806428Y-28254428D02*
X41806428Y-27654428D01*
X41606428Y-28083000D01*
X41406428Y-27654428D01*
X41406428Y-28254428D01*
X40863571Y-28254428D02*
X40863571Y-27940142D01*
X40892142Y-27883000D01*
X40949285Y-27854428D01*
X41063571Y-27854428D01*
X41120714Y-27883000D01*
X40863571Y-28225857D02*
X40920714Y-28254428D01*
X41063571Y-28254428D01*
X41120714Y-28225857D01*
X41149285Y-28168714D01*
X41149285Y-28111571D01*
X41120714Y-28054428D01*
X41063571Y-28025857D01*
X40920714Y-28025857D01*
X40863571Y-27997285D01*
X40606428Y-28225857D02*
X40549285Y-28254428D01*
X40435000Y-28254428D01*
X40377857Y-28225857D01*
X40349285Y-28168714D01*
X40349285Y-28140142D01*
X40377857Y-28083000D01*
X40435000Y-28054428D01*
X40520714Y-28054428D01*
X40577857Y-28025857D01*
X40606428Y-27968714D01*
X40606428Y-27940142D01*
X40577857Y-27883000D01*
X40520714Y-27854428D01*
X40435000Y-27854428D01*
X40377857Y-27883000D01*
X40177857Y-27854428D02*
X39949285Y-27854428D01*
X40092142Y-27654428D02*
X40092142Y-28168714D01*
X40063571Y-28225857D01*
X40006428Y-28254428D01*
X39949285Y-28254428D01*
X39492142Y-28254428D02*
X39492142Y-27940142D01*
X39520714Y-27883000D01*
X39577857Y-27854428D01*
X39692142Y-27854428D01*
X39749285Y-27883000D01*
X39492142Y-28225857D02*
X39549285Y-28254428D01*
X39692142Y-28254428D01*
X39749285Y-28225857D01*
X39777857Y-28168714D01*
X39777857Y-28111571D01*
X39749285Y-28054428D01*
X39692142Y-28025857D01*
X39549285Y-28025857D01*
X39492142Y-27997285D01*
X39206428Y-28254428D02*
X39206428Y-27654428D01*
X38949285Y-28254428D02*
X38949285Y-27940142D01*
X38977857Y-27883000D01*
X39035000Y-27854428D01*
X39120714Y-27854428D01*
X39177857Y-27883000D01*
X39206428Y-27911571D01*
%TO.C,G\u002A\u002A\u002A*%
G36*
X23931902Y-27872956D02*
G01*
X23957648Y-27882346D01*
X23991549Y-27897568D01*
X24028366Y-27915957D01*
X24062858Y-27934849D01*
X24089786Y-27951577D01*
X24103909Y-27963478D01*
X24109667Y-27977702D01*
X24109686Y-28004215D01*
X24099662Y-28025584D01*
X24098958Y-28026271D01*
X24079505Y-28035745D01*
X24051220Y-28034014D01*
X24012056Y-28020629D01*
X23959962Y-27995144D01*
X23950501Y-27990052D01*
X23915410Y-27969997D01*
X23893994Y-27954602D01*
X23882871Y-27941007D01*
X23878660Y-27926352D01*
X23880218Y-27900764D01*
X23895096Y-27879024D01*
X23922541Y-27871230D01*
X23931902Y-27872956D01*
G37*
G36*
X22579347Y-28189803D02*
G01*
X22627934Y-28208105D01*
X22690619Y-28232844D01*
X22765866Y-28251234D01*
X22849333Y-28259739D01*
X22945737Y-28259115D01*
X22991314Y-28257246D01*
X23029883Y-28256712D01*
X23055334Y-28258203D01*
X23071106Y-28261951D01*
X23080637Y-28268186D01*
X23090174Y-28281408D01*
X23094091Y-28308665D01*
X23080417Y-28334187D01*
X23077594Y-28336836D01*
X23065583Y-28344614D01*
X23047064Y-28350876D01*
X23017729Y-28356804D01*
X22973270Y-28363581D01*
X22938173Y-28366635D01*
X22867898Y-28365131D01*
X22789941Y-28356028D01*
X22710313Y-28340370D01*
X22635028Y-28319201D01*
X22570100Y-28293566D01*
X22554683Y-28285992D01*
X22529093Y-28270800D01*
X22515934Y-28256571D01*
X22510968Y-28239428D01*
X22510589Y-28219971D01*
X22520383Y-28195814D01*
X22543399Y-28185732D01*
X22579347Y-28189803D01*
G37*
G36*
X23300874Y-27551375D02*
G01*
X23324957Y-27561613D01*
X23361598Y-27578458D01*
X23408085Y-27600557D01*
X23461705Y-27626558D01*
X23519746Y-27655110D01*
X23579496Y-27684859D01*
X23638241Y-27714453D01*
X23693270Y-27742540D01*
X23741870Y-27767767D01*
X23781329Y-27788783D01*
X23808933Y-27804234D01*
X23821972Y-27812768D01*
X23826808Y-27819921D01*
X23830457Y-27843256D01*
X23825384Y-27869032D01*
X23812777Y-27887565D01*
X23800464Y-27895292D01*
X23786220Y-27900538D01*
X23786008Y-27900531D01*
X23772065Y-27895716D01*
X23743923Y-27882912D01*
X23704215Y-27863522D01*
X23655579Y-27838947D01*
X23600650Y-27810590D01*
X23542063Y-27779852D01*
X23482453Y-27748135D01*
X23424457Y-27716842D01*
X23370710Y-27687374D01*
X23323848Y-27661133D01*
X23286506Y-27639522D01*
X23261319Y-27623941D01*
X23250924Y-27615794D01*
X23247222Y-27601653D01*
X23253121Y-27577180D01*
X23269767Y-27557146D01*
X23292618Y-27548846D01*
X23300874Y-27551375D01*
G37*
G36*
X20661884Y-26519856D02*
G01*
X20692433Y-26532881D01*
X20736116Y-26555162D01*
X20748106Y-26561531D01*
X20782158Y-26580831D01*
X20802778Y-26595716D01*
X20813390Y-26609076D01*
X20817418Y-26623802D01*
X20816547Y-26645592D01*
X20808895Y-26665321D01*
X20801600Y-26672287D01*
X20785178Y-26678077D01*
X20761704Y-26674906D01*
X20728111Y-26662145D01*
X20681334Y-26639167D01*
X20650825Y-26622322D01*
X20615660Y-26597830D01*
X20597739Y-26575717D01*
X20596023Y-26554439D01*
X20609472Y-26532452D01*
X20612046Y-26529681D01*
X20625390Y-26518919D01*
X20640769Y-26515423D01*
X20661884Y-26519856D01*
G37*
G36*
X21013949Y-26697060D02*
G01*
X21052150Y-26718522D01*
X21073985Y-26735609D01*
X21089170Y-26754137D01*
X21089800Y-26772140D01*
X21077485Y-26794441D01*
X21070970Y-26802453D01*
X21050462Y-26814224D01*
X21022734Y-26812124D01*
X20984451Y-26796217D01*
X20974141Y-26790552D01*
X20943500Y-26765571D01*
X20930360Y-26738103D01*
X20935724Y-26709928D01*
X20951279Y-26694392D01*
X20979137Y-26688929D01*
X21013949Y-26697060D01*
G37*
G36*
X23961245Y-26398497D02*
G01*
X23974257Y-26404818D01*
X23991922Y-26419273D01*
X24017134Y-26443911D01*
X24052787Y-26480779D01*
X24092681Y-26524457D01*
X24183304Y-26639629D01*
X24265276Y-26766377D01*
X24335354Y-26899396D01*
X24390298Y-27033377D01*
X24399468Y-27060053D01*
X24408083Y-27088457D01*
X24410796Y-27106833D01*
X24408120Y-27120183D01*
X24400569Y-27133512D01*
X24385834Y-27149706D01*
X24360876Y-27157373D01*
X24333491Y-27145865D01*
X24331731Y-27144256D01*
X24320073Y-27126517D01*
X24305737Y-27096731D01*
X24291426Y-27060384D01*
X24290106Y-27056676D01*
X24235284Y-26923918D01*
X24167652Y-26798255D01*
X24085072Y-26676154D01*
X23985409Y-26554077D01*
X23973030Y-26540021D01*
X23940817Y-26502527D01*
X23919705Y-26475719D01*
X23907922Y-26456908D01*
X23903693Y-26443404D01*
X23905244Y-26432518D01*
X23917659Y-26415374D01*
X23940237Y-26401100D01*
X23949991Y-26398260D01*
X23961245Y-26398497D01*
G37*
G36*
X22190423Y-26982236D02*
G01*
X22204118Y-26986938D01*
X22233095Y-26999764D01*
X22275438Y-27019729D01*
X22329226Y-27045848D01*
X22392543Y-27077135D01*
X22463470Y-27112605D01*
X22540087Y-27151273D01*
X22620477Y-27192153D01*
X22702721Y-27234261D01*
X22784901Y-27276610D01*
X22865098Y-27318216D01*
X22941395Y-27358093D01*
X23011871Y-27395256D01*
X23074610Y-27428719D01*
X23127692Y-27457498D01*
X23169200Y-27480607D01*
X23197214Y-27497061D01*
X23209817Y-27505875D01*
X23223089Y-27526143D01*
X23223531Y-27551705D01*
X23204499Y-27575711D01*
X23194649Y-27582294D01*
X23178999Y-27587795D01*
X23171675Y-27584822D01*
X23148203Y-27573694D01*
X23110221Y-27555061D01*
X23059298Y-27529711D01*
X22997006Y-27498435D01*
X22924913Y-27462021D01*
X22844591Y-27421257D01*
X22757610Y-27376932D01*
X22665539Y-27329836D01*
X22625187Y-27309151D01*
X22519290Y-27254762D01*
X22429246Y-27208228D01*
X22353890Y-27168805D01*
X22292059Y-27135753D01*
X22242587Y-27108328D01*
X22204310Y-27085788D01*
X22176065Y-27067391D01*
X22156687Y-27052395D01*
X22145011Y-27040056D01*
X22139874Y-27029634D01*
X22140111Y-27020384D01*
X22144558Y-27011566D01*
X22152050Y-27002436D01*
X22169013Y-26989151D01*
X22190248Y-26982230D01*
X22190423Y-26982236D01*
G37*
G36*
X22186933Y-27327550D02*
G01*
X22206573Y-27339034D01*
X22212147Y-27350128D01*
X22213991Y-27368283D01*
X22212053Y-27397499D01*
X22206322Y-27441827D01*
X22204495Y-27455610D01*
X22198544Y-27537132D01*
X22199907Y-27616894D01*
X22200450Y-27624704D01*
X22202546Y-27665705D01*
X22201832Y-27692322D01*
X22197904Y-27708899D01*
X22190357Y-27719786D01*
X22182123Y-27726339D01*
X22155935Y-27733131D01*
X22129816Y-27724624D01*
X22110471Y-27702286D01*
X22106724Y-27692204D01*
X22100298Y-27657540D01*
X22097044Y-27611156D01*
X22096718Y-27557510D01*
X22099078Y-27501060D01*
X22103878Y-27446263D01*
X22110875Y-27397576D01*
X22119826Y-27359458D01*
X22130486Y-27336365D01*
X22137231Y-27330794D01*
X22160560Y-27324689D01*
X22186933Y-27327550D01*
G37*
G36*
X22305475Y-27956660D02*
G01*
X22334972Y-27981134D01*
X22351680Y-27999589D01*
X22380401Y-28037513D01*
X22393338Y-28067793D01*
X22391054Y-28092328D01*
X22374114Y-28113019D01*
X22360130Y-28121664D01*
X22338919Y-28123110D01*
X22314952Y-28109488D01*
X22285147Y-28079641D01*
X22258946Y-28047062D01*
X22241514Y-28015441D01*
X22239020Y-27990080D01*
X22250703Y-27968529D01*
X22255712Y-27963425D01*
X22279554Y-27950832D01*
X22305475Y-27956660D01*
G37*
G36*
X24220285Y-28350651D02*
G01*
X24245199Y-28358771D01*
X24279641Y-28373922D01*
X24319036Y-28393637D01*
X24358809Y-28415446D01*
X24394383Y-28436884D01*
X24421184Y-28455481D01*
X24434635Y-28468771D01*
X24439339Y-28488846D01*
X24429354Y-28511770D01*
X24413970Y-28527397D01*
X24392025Y-28535304D01*
X24381904Y-28533641D01*
X24354588Y-28523942D01*
X24318986Y-28507670D01*
X24279457Y-28487236D01*
X24240363Y-28465052D01*
X24206061Y-28443528D01*
X24180913Y-28425077D01*
X24169277Y-28412109D01*
X24167345Y-28404347D01*
X24171721Y-28378606D01*
X24188991Y-28358217D01*
X24214275Y-28349923D01*
X24220285Y-28350651D01*
G37*
G36*
X23455150Y-28042543D02*
G01*
X23476323Y-28056130D01*
X23488836Y-28075814D01*
X23489111Y-28088499D01*
X23475649Y-28117064D01*
X23444334Y-28152630D01*
X23395331Y-28194986D01*
X23361931Y-28219190D01*
X23337361Y-28230358D01*
X23317747Y-28229155D01*
X23298866Y-28216524D01*
X23294676Y-28212458D01*
X23283636Y-28194648D01*
X23284143Y-28174659D01*
X23297276Y-28150980D01*
X23324116Y-28122104D01*
X23365742Y-28086520D01*
X23423234Y-28042720D01*
X23433055Y-28038957D01*
X23455150Y-28042543D01*
G37*
G36*
X24826466Y-28394628D02*
G01*
X24920569Y-28460565D01*
X25029693Y-28535643D01*
X25111697Y-28591835D01*
X25185629Y-28642790D01*
X25245930Y-28684796D01*
X25293943Y-28718860D01*
X25331012Y-28745990D01*
X25358478Y-28767193D01*
X25377686Y-28783478D01*
X25389978Y-28795853D01*
X25396698Y-28805324D01*
X25399187Y-28812900D01*
X25397705Y-28837684D01*
X25383581Y-28859598D01*
X25358208Y-28867492D01*
X25346823Y-28863300D01*
X25319375Y-28850815D01*
X25277353Y-28830737D01*
X25222162Y-28803765D01*
X25155209Y-28770600D01*
X25077902Y-28731943D01*
X24991648Y-28688494D01*
X24897852Y-28640954D01*
X24797923Y-28590022D01*
X24693266Y-28536401D01*
X24415824Y-28393884D01*
X24638923Y-28393884D01*
X24643808Y-28398769D01*
X24648693Y-28393884D01*
X24643808Y-28389000D01*
X24638923Y-28393884D01*
X24415824Y-28393884D01*
X24049109Y-28205509D01*
X23992290Y-28291756D01*
X23973343Y-28319673D01*
X23877344Y-28440318D01*
X23767362Y-28548381D01*
X23644924Y-28642917D01*
X23511561Y-28722983D01*
X23368799Y-28787635D01*
X23218167Y-28835929D01*
X23061193Y-28866920D01*
X23023164Y-28870840D01*
X22950935Y-28873712D01*
X22870020Y-28872671D01*
X22786787Y-28867991D01*
X22707602Y-28859944D01*
X22638833Y-28848805D01*
X22604009Y-28841185D01*
X22452329Y-28796260D01*
X22309525Y-28734757D01*
X22176572Y-28657810D01*
X22054443Y-28566551D01*
X21944113Y-28462115D01*
X21846557Y-28345634D01*
X21762748Y-28218243D01*
X21693662Y-28081075D01*
X21640272Y-27935262D01*
X21603553Y-27781940D01*
X21584479Y-27622241D01*
X21583197Y-27534241D01*
X21592102Y-27414353D01*
X21611735Y-27292076D01*
X21640936Y-27174254D01*
X21678542Y-27067733D01*
X21706504Y-27001183D01*
X21636502Y-26966047D01*
X21618679Y-26957070D01*
X21575352Y-26935108D01*
X21520096Y-26906974D01*
X21454636Y-26873554D01*
X21380696Y-26835736D01*
X21300002Y-26794405D01*
X21214279Y-26750449D01*
X21125249Y-26704755D01*
X21034640Y-26658210D01*
X20990199Y-26635362D01*
X21224577Y-26635362D01*
X21227260Y-26637538D01*
X21245170Y-26647597D01*
X21277017Y-26664766D01*
X21320996Y-26688086D01*
X21375303Y-26716602D01*
X21438132Y-26749357D01*
X21507679Y-26785395D01*
X21590848Y-26828732D01*
X21669734Y-26870760D01*
X21732381Y-26905291D01*
X21778427Y-26932119D01*
X21807513Y-26951042D01*
X21819279Y-26961854D01*
X21821336Y-26968737D01*
X21820331Y-26987710D01*
X21811438Y-27016164D01*
X21793670Y-27057794D01*
X21748788Y-27169985D01*
X21714665Y-27292641D01*
X21694955Y-27420530D01*
X21688616Y-27558615D01*
X21688641Y-27567458D01*
X21697248Y-27714590D01*
X21721882Y-27853118D01*
X21763396Y-27986596D01*
X21822639Y-28118578D01*
X21854640Y-28176476D01*
X21938830Y-28300569D01*
X22037381Y-28412825D01*
X22148673Y-28512053D01*
X22271086Y-28597062D01*
X22402999Y-28666663D01*
X22542791Y-28719665D01*
X22688842Y-28754877D01*
X22744119Y-28762060D01*
X22818694Y-28767064D01*
X22899940Y-28768781D01*
X22981372Y-28767221D01*
X23056507Y-28762393D01*
X23118860Y-28754304D01*
X23127501Y-28752696D01*
X23228843Y-28727615D01*
X23334533Y-28691314D01*
X23438606Y-28646346D01*
X23535096Y-28595265D01*
X23618039Y-28540624D01*
X23680863Y-28489957D01*
X23781629Y-28392927D01*
X23872341Y-28285505D01*
X23948256Y-28172970D01*
X23954142Y-28163185D01*
X23975465Y-28130395D01*
X23994359Y-28105031D01*
X24007303Y-28091927D01*
X24008434Y-28091347D01*
X24016828Y-28090489D01*
X24030996Y-28093571D01*
X24052584Y-28101331D01*
X24083237Y-28114505D01*
X24124600Y-28133828D01*
X24178320Y-28160038D01*
X24246041Y-28193871D01*
X24329409Y-28236062D01*
X24393717Y-28268595D01*
X24457911Y-28300750D01*
X24513927Y-28328470D01*
X24559925Y-28350858D01*
X24594061Y-28367020D01*
X24614496Y-28376059D01*
X24619385Y-28377080D01*
X24617279Y-28375139D01*
X24600327Y-28360184D01*
X24574219Y-28337675D01*
X24543673Y-28311686D01*
X24509244Y-28280131D01*
X24442169Y-28204710D01*
X24379717Y-28116639D01*
X24324659Y-28020503D01*
X24279770Y-27920889D01*
X24247823Y-27822384D01*
X24239777Y-27785902D01*
X24230715Y-27726887D01*
X24223601Y-27654620D01*
X24218070Y-27565978D01*
X24217620Y-27557223D01*
X24212607Y-27482240D01*
X24205864Y-27409763D01*
X24197989Y-27345472D01*
X24189579Y-27295041D01*
X24188603Y-27290296D01*
X24147265Y-27137802D01*
X24088847Y-26993516D01*
X24014438Y-26858503D01*
X23925123Y-26733830D01*
X23821990Y-26620564D01*
X23706125Y-26519770D01*
X23578617Y-26432514D01*
X23440552Y-26359865D01*
X23293017Y-26302886D01*
X23137099Y-26262646D01*
X23083237Y-26254318D01*
X22998718Y-26247366D01*
X22906569Y-26245287D01*
X22813260Y-26248015D01*
X22725262Y-26255484D01*
X22649044Y-26267628D01*
X22562987Y-26288125D01*
X22452672Y-26322585D01*
X22347453Y-26366265D01*
X22241964Y-26421472D01*
X22130837Y-26490516D01*
X22098111Y-26511819D01*
X22004674Y-26567302D01*
X21917004Y-26609999D01*
X21874276Y-26625653D01*
X21830265Y-26641777D01*
X21739620Y-26664506D01*
X21640232Y-26680053D01*
X21555971Y-26685292D01*
X21444991Y-26680297D01*
X21332218Y-26663405D01*
X21224577Y-26635362D01*
X20990199Y-26635362D01*
X20971314Y-26625653D01*
X21190385Y-26625653D01*
X21195270Y-26630538D01*
X21200154Y-26625653D01*
X21195270Y-26620769D01*
X21190385Y-26625653D01*
X20971314Y-26625653D01*
X20944175Y-26611700D01*
X20855578Y-26566113D01*
X20770576Y-26522335D01*
X20690892Y-26481253D01*
X20618251Y-26443754D01*
X20554377Y-26410725D01*
X20500997Y-26383053D01*
X20459834Y-26361625D01*
X20432613Y-26347327D01*
X20421058Y-26341047D01*
X20406499Y-26326774D01*
X20398474Y-26302184D01*
X20402486Y-26277026D01*
X20417181Y-26257432D01*
X20441210Y-26249538D01*
X20449919Y-26251577D01*
X20475876Y-26259637D01*
X20516725Y-26273199D01*
X20570531Y-26291592D01*
X20635361Y-26314148D01*
X20709282Y-26340198D01*
X20790358Y-26369075D01*
X20876657Y-26400108D01*
X20936837Y-26421732D01*
X21023816Y-26452570D01*
X21106164Y-26481294D01*
X21181598Y-26507131D01*
X21247832Y-26529310D01*
X21302581Y-26547059D01*
X21343562Y-26559608D01*
X21368489Y-26566185D01*
X21383120Y-26568894D01*
X21432837Y-26575434D01*
X21489013Y-26579985D01*
X21542077Y-26581692D01*
X21647873Y-26576237D01*
X21751973Y-26558038D01*
X21852944Y-26525854D01*
X21954604Y-26478453D01*
X22060773Y-26414607D01*
X22164245Y-26349670D01*
X22275969Y-26288771D01*
X22385584Y-26239890D01*
X22497934Y-26200898D01*
X22617860Y-26169667D01*
X22652864Y-26162276D01*
X22691180Y-26155763D01*
X22730394Y-26151350D01*
X22775163Y-26148663D01*
X22830146Y-26147326D01*
X22900000Y-26146965D01*
X22919258Y-26147003D01*
X23003399Y-26148449D01*
X23074641Y-26152588D01*
X23138433Y-26160230D01*
X23200226Y-26172184D01*
X23265470Y-26189260D01*
X23339616Y-26212266D01*
X23374080Y-26224010D01*
X23524462Y-26287462D01*
X23665571Y-26367134D01*
X23796152Y-26461779D01*
X23914953Y-26570148D01*
X24020720Y-26690994D01*
X24112200Y-26823068D01*
X24188138Y-26965124D01*
X24247283Y-27115912D01*
X24253830Y-27136453D01*
X24274213Y-27208239D01*
X24289877Y-27279355D01*
X24301649Y-27354840D01*
X24310359Y-27439734D01*
X24316834Y-27539077D01*
X24317224Y-27546466D01*
X24322824Y-27633150D01*
X24329923Y-27704711D01*
X24339289Y-27765234D01*
X24351689Y-27818811D01*
X24367891Y-27869528D01*
X24388664Y-27921476D01*
X24394051Y-27933836D01*
X24417322Y-27984405D01*
X24441183Y-28030290D01*
X24467077Y-28072872D01*
X24496447Y-28113536D01*
X24530736Y-28153662D01*
X24571387Y-28194634D01*
X24619842Y-28237834D01*
X24677545Y-28284645D01*
X24745938Y-28336448D01*
X24802177Y-28377080D01*
X24825436Y-28393884D01*
X24826466Y-28394628D01*
G37*
G36*
X21169771Y-26782215D02*
G01*
X21190090Y-26789186D01*
X21219179Y-26802146D01*
X21259873Y-26822141D01*
X21315008Y-26850217D01*
X21351401Y-26869286D01*
X21399526Y-26895872D01*
X21439161Y-26919422D01*
X21467272Y-26938108D01*
X21480830Y-26950106D01*
X21487814Y-26962015D01*
X21489755Y-26977394D01*
X21479476Y-26996884D01*
X21463838Y-27013004D01*
X21441718Y-27021035D01*
X21430423Y-27018047D01*
X21403506Y-27007065D01*
X21365369Y-26989453D01*
X21319288Y-26966736D01*
X21268539Y-26940439D01*
X21219671Y-26914392D01*
X21178305Y-26891725D01*
X21149693Y-26874751D01*
X21131400Y-26861701D01*
X21120988Y-26850810D01*
X21116020Y-26840310D01*
X21114060Y-26828435D01*
X21113393Y-26814932D01*
X21118903Y-26796900D01*
X21137419Y-26784720D01*
X21144102Y-26782060D01*
X21155386Y-26780189D01*
X21169771Y-26782215D01*
G37*
G36*
X23061798Y-25987825D02*
G01*
X23228377Y-26013533D01*
X23391301Y-26056819D01*
X23548793Y-26117604D01*
X23699076Y-26195815D01*
X23718451Y-26207439D01*
X23772605Y-26241650D01*
X23810838Y-26269533D01*
X23834493Y-26292644D01*
X23844917Y-26312540D01*
X23843453Y-26330774D01*
X23831448Y-26348903D01*
X23826789Y-26353718D01*
X23812793Y-26363014D01*
X23795825Y-26364391D01*
X23772658Y-26356986D01*
X23740061Y-26339937D01*
X23694804Y-26312379D01*
X23636406Y-26277286D01*
X23499431Y-26207720D01*
X23356202Y-26152995D01*
X23201679Y-26111051D01*
X23184794Y-26107356D01*
X23148234Y-26100249D01*
X23112828Y-26095134D01*
X23074440Y-26091697D01*
X23028931Y-26089627D01*
X22972164Y-26088614D01*
X22900000Y-26088346D01*
X22867212Y-26088389D01*
X22802092Y-26088935D01*
X22750611Y-26090359D01*
X22708631Y-26092971D01*
X22672014Y-26097083D01*
X22636624Y-26103006D01*
X22598322Y-26111051D01*
X22588754Y-26113226D01*
X22425160Y-26160565D01*
X22263750Y-26226244D01*
X22107297Y-26309144D01*
X22079507Y-26321215D01*
X22048492Y-26323438D01*
X22025125Y-26312929D01*
X22012906Y-26291519D01*
X22015335Y-26261039D01*
X22015911Y-26259572D01*
X22030335Y-26243323D01*
X22060296Y-26221127D01*
X22103558Y-26194378D01*
X22157884Y-26164470D01*
X22221039Y-26132798D01*
X22236285Y-26125581D01*
X22394480Y-26062271D01*
X22557905Y-26016916D01*
X22724785Y-25989440D01*
X22893342Y-25979769D01*
X23061798Y-25987825D01*
G37*
G36*
X22076070Y-26913208D02*
G01*
X22083309Y-26917918D01*
X22108003Y-26942410D01*
X22114868Y-26968050D01*
X22103175Y-26992700D01*
X22080924Y-27008090D01*
X22050690Y-27008684D01*
X22013115Y-26991907D01*
X22003825Y-26985960D01*
X21980672Y-26965021D01*
X21975061Y-26943713D01*
X21985728Y-26918655D01*
X21986657Y-26917270D01*
X22009189Y-26898179D01*
X22038781Y-26896838D01*
X22076070Y-26913208D01*
G37*
G36*
X24529470Y-28513437D02*
G01*
X24545784Y-28517625D01*
X24569618Y-28526708D01*
X24602926Y-28541524D01*
X24647666Y-28562910D01*
X24705793Y-28591704D01*
X24779263Y-28628743D01*
X24786712Y-28632520D01*
X24850780Y-28665240D01*
X24909453Y-28695609D01*
X24960317Y-28722347D01*
X25000957Y-28744174D01*
X25028958Y-28759810D01*
X25041904Y-28767973D01*
X25055263Y-28785652D01*
X25056393Y-28811806D01*
X25038962Y-28838884D01*
X25022424Y-28850721D01*
X25001175Y-28853289D01*
X24996045Y-28851444D01*
X24971427Y-28840662D01*
X24934678Y-28822997D01*
X24888486Y-28799878D01*
X24835538Y-28772733D01*
X24778520Y-28742992D01*
X24720120Y-28712083D01*
X24663025Y-28681436D01*
X24609922Y-28652478D01*
X24563498Y-28626638D01*
X24526440Y-28605346D01*
X24501436Y-28590030D01*
X24491172Y-28582118D01*
X24485812Y-28562980D01*
X24492398Y-28535673D01*
X24513713Y-28515042D01*
X24518719Y-28513307D01*
X24529470Y-28513437D01*
G37*
G36*
X22441662Y-26570964D02*
G01*
X22460594Y-26586828D01*
X22469493Y-26606117D01*
X22463040Y-26630373D01*
X22438189Y-26657203D01*
X22394552Y-26687197D01*
X22355967Y-26711284D01*
X22312010Y-26740513D01*
X22275122Y-26766772D01*
X22246404Y-26786267D01*
X22222426Y-26798831D01*
X22208380Y-26801743D01*
X22202659Y-26799768D01*
X22187616Y-26796615D01*
X22180948Y-26793038D01*
X22171335Y-26776749D01*
X22165434Y-26754923D01*
X22166258Y-26736097D01*
X22173336Y-26725395D01*
X22195056Y-26703889D01*
X22227246Y-26677265D01*
X22266227Y-26648352D01*
X22308316Y-26619980D01*
X22349831Y-26594981D01*
X22388005Y-26575850D01*
X22418678Y-26567216D01*
X22441662Y-26570964D01*
G37*
G36*
X23992196Y-28398774D02*
G01*
X24015750Y-28407579D01*
X24035020Y-28428129D01*
X24043000Y-28453024D01*
X24042539Y-28456587D01*
X24031927Y-28478097D01*
X24008449Y-28509683D01*
X23973651Y-28549202D01*
X23958316Y-28565351D01*
X23924030Y-28598492D01*
X23898815Y-28617433D01*
X23881068Y-28623461D01*
X23863636Y-28618684D01*
X23844469Y-28602498D01*
X23833145Y-28581157D01*
X23834625Y-28561304D01*
X23836261Y-28558567D01*
X23851747Y-28537581D01*
X23875214Y-28510033D01*
X23903216Y-28479493D01*
X23932305Y-28449529D01*
X23959036Y-28423708D01*
X23979960Y-28405598D01*
X23991631Y-28398769D01*
X23992196Y-28398774D01*
G37*
G36*
X21576324Y-27132485D02*
G01*
X21583778Y-27138796D01*
X21588093Y-27146919D01*
X21589101Y-27160305D01*
X21586659Y-27182427D01*
X21580627Y-27216756D01*
X21570864Y-27266763D01*
X21564090Y-27299288D01*
X21551589Y-27350333D01*
X21539972Y-27386174D01*
X21529866Y-27404701D01*
X21529840Y-27404727D01*
X21512658Y-27418823D01*
X21497429Y-27419361D01*
X21475866Y-27406638D01*
X21462524Y-27392383D01*
X21455646Y-27370812D01*
X21455371Y-27339233D01*
X21461677Y-27294845D01*
X21474542Y-27234846D01*
X21476378Y-27227165D01*
X21492014Y-27173491D01*
X21508809Y-27138209D01*
X21527781Y-27120296D01*
X21549946Y-27118729D01*
X21576324Y-27132485D01*
G37*
G36*
X24409000Y-27198348D02*
G01*
X24428219Y-27207495D01*
X24441610Y-27228789D01*
X24452312Y-27265923D01*
X24456359Y-27287461D01*
X24456275Y-27311904D01*
X24447714Y-27331480D01*
X24434372Y-27344962D01*
X24409347Y-27353461D01*
X24408868Y-27353458D01*
X24383359Y-27343900D01*
X24363552Y-27316876D01*
X24350560Y-27273894D01*
X24348906Y-27262443D01*
X24351390Y-27227321D01*
X24366692Y-27204983D01*
X24393840Y-27197153D01*
X24409000Y-27198348D01*
G37*
G36*
X23892432Y-28028237D02*
G01*
X23906128Y-28040070D01*
X23914219Y-28049838D01*
X23917591Y-28058060D01*
X23917131Y-28065253D01*
X23913724Y-28071939D01*
X23908256Y-28078634D01*
X23901614Y-28085858D01*
X23893561Y-28094071D01*
X23879250Y-28102868D01*
X23861724Y-28103134D01*
X23836418Y-28094446D01*
X23798770Y-28076384D01*
X23769135Y-28061992D01*
X23744638Y-28051202D01*
X23732047Y-28047077D01*
X23723224Y-28053973D01*
X23707232Y-28073243D01*
X23687880Y-28100546D01*
X23619696Y-28189418D01*
X23529284Y-28278798D01*
X23426201Y-28356256D01*
X23312947Y-28420184D01*
X23192020Y-28468971D01*
X23065920Y-28501011D01*
X23006692Y-28509773D01*
X22875544Y-28515566D01*
X22746727Y-28503213D01*
X22621862Y-28473674D01*
X22502569Y-28427908D01*
X22390471Y-28366877D01*
X22287187Y-28291540D01*
X22194340Y-28202858D01*
X22113549Y-28101792D01*
X22046437Y-27989301D01*
X21994624Y-27866346D01*
X21969854Y-27781563D01*
X21947508Y-27649094D01*
X21945438Y-27552518D01*
X22046192Y-27552518D01*
X22054281Y-27678124D01*
X22079940Y-27800428D01*
X22123054Y-27916575D01*
X22134478Y-27940278D01*
X22198389Y-28046810D01*
X22277098Y-28142945D01*
X22368493Y-28226948D01*
X22470464Y-28297083D01*
X22580899Y-28351615D01*
X22697687Y-28388811D01*
X22819097Y-28408869D01*
X22946362Y-28411980D01*
X23070499Y-28396844D01*
X23189882Y-28363916D01*
X23302883Y-28313654D01*
X23407876Y-28246514D01*
X23503235Y-28162951D01*
X23524313Y-28140742D01*
X23555838Y-28105124D01*
X23585248Y-28069425D01*
X23609733Y-28037232D01*
X23626485Y-28012130D01*
X23632693Y-27997706D01*
X23629284Y-27995444D01*
X23610636Y-27985086D01*
X23577083Y-27967109D01*
X23530149Y-27942300D01*
X23471358Y-27911446D01*
X23402234Y-27875332D01*
X23324302Y-27834745D01*
X23239085Y-27790473D01*
X23148108Y-27743300D01*
X23052895Y-27694014D01*
X22954970Y-27643401D01*
X22855857Y-27592248D01*
X22757081Y-27541340D01*
X22660166Y-27491465D01*
X22566635Y-27443409D01*
X22478014Y-27397958D01*
X22395825Y-27355899D01*
X22321595Y-27318018D01*
X22256845Y-27285102D01*
X22203102Y-27257937D01*
X22161888Y-27237309D01*
X22134729Y-27224005D01*
X22123148Y-27218812D01*
X22118197Y-27221064D01*
X22107485Y-27236735D01*
X22096255Y-27262773D01*
X22083196Y-27302815D01*
X22055791Y-27426464D01*
X22046192Y-27552518D01*
X21945438Y-27552518D01*
X21944638Y-27515213D01*
X21961247Y-27379875D01*
X21997332Y-27243040D01*
X22001346Y-27230815D01*
X22011645Y-27197465D01*
X22018060Y-27173516D01*
X22019336Y-27163499D01*
X22019233Y-27163414D01*
X22008730Y-27157471D01*
X21985724Y-27145457D01*
X21955000Y-27129873D01*
X21921166Y-27111135D01*
X21898051Y-27092676D01*
X21887900Y-27074591D01*
X21886744Y-27066480D01*
X21892702Y-27040611D01*
X21909426Y-27019993D01*
X21931918Y-27011763D01*
X21933336Y-27012178D01*
X21948947Y-27019180D01*
X21980468Y-27034397D01*
X22026779Y-27057262D01*
X22086761Y-27087208D01*
X22159294Y-27123670D01*
X22243259Y-27166081D01*
X22337536Y-27213874D01*
X22441006Y-27266484D01*
X22552550Y-27323344D01*
X22671047Y-27383889D01*
X22795378Y-27447551D01*
X22924423Y-27513765D01*
X22968305Y-27536303D01*
X23118386Y-27613387D01*
X23252227Y-27682179D01*
X23370714Y-27743199D01*
X23474735Y-27796966D01*
X23565175Y-27843998D01*
X23642920Y-27884815D01*
X23708857Y-27919935D01*
X23763872Y-27949876D01*
X23808851Y-27975158D01*
X23844679Y-27996300D01*
X23846891Y-27997706D01*
X23872244Y-28013820D01*
X23892432Y-28028237D01*
G37*
G36*
X21497640Y-27471353D02*
G01*
X21514483Y-27478680D01*
X21526800Y-27496027D01*
X21535419Y-27525763D01*
X21541165Y-27570258D01*
X21544865Y-27631884D01*
X21552084Y-27724112D01*
X21579005Y-27877590D01*
X21623647Y-28027194D01*
X21685049Y-28170456D01*
X21762253Y-28304906D01*
X21854300Y-28428077D01*
X21879078Y-28457790D01*
X21904440Y-28489235D01*
X21922740Y-28513046D01*
X21927651Y-28519842D01*
X21938704Y-28538270D01*
X21938898Y-28551940D01*
X21929196Y-28569219D01*
X21921298Y-28579709D01*
X21901670Y-28592992D01*
X21878484Y-28590680D01*
X21849828Y-28572243D01*
X21813791Y-28537149D01*
X21730402Y-28436900D01*
X21644461Y-28307290D01*
X21571774Y-28166477D01*
X21513501Y-28017089D01*
X21470805Y-27861753D01*
X21444849Y-27703096D01*
X21442466Y-27680121D01*
X21436850Y-27608937D01*
X21436126Y-27554566D01*
X21440622Y-27515282D01*
X21450661Y-27489359D01*
X21466571Y-27475071D01*
X21488675Y-27470692D01*
X21497640Y-27471353D01*
G37*
G36*
X23051673Y-26461529D02*
G01*
X23191098Y-26490184D01*
X23325563Y-26536405D01*
X23453420Y-26599738D01*
X23573019Y-26679731D01*
X23682713Y-26775932D01*
X23708996Y-26803427D01*
X23754586Y-26856430D01*
X23798575Y-26913626D01*
X23838996Y-26971945D01*
X23873883Y-27028318D01*
X23901269Y-27079677D01*
X23919188Y-27122954D01*
X23925674Y-27155080D01*
X23920446Y-27172765D01*
X23904057Y-27191715D01*
X23888529Y-27201973D01*
X23878992Y-27206923D01*
X23872942Y-27205961D01*
X23852264Y-27191158D01*
X23827828Y-27158154D01*
X23799304Y-27106533D01*
X23779512Y-27069227D01*
X23704943Y-26955274D01*
X23615265Y-26851936D01*
X23512484Y-26761059D01*
X23398604Y-26684491D01*
X23275631Y-26624081D01*
X23157003Y-26584403D01*
X23022638Y-26559032D01*
X22884012Y-26552615D01*
X22741421Y-26565164D01*
X22595163Y-26596692D01*
X22578211Y-26601353D01*
X22549976Y-26608287D01*
X22532758Y-26609829D01*
X22521133Y-26605984D01*
X22509683Y-26596754D01*
X22505928Y-26593193D01*
X22490492Y-26568740D01*
X22494472Y-26545618D01*
X22517795Y-26523899D01*
X22560390Y-26503655D01*
X22622185Y-26484958D01*
X22764540Y-26458722D01*
X22908938Y-26450890D01*
X23051673Y-26461529D01*
G37*
G36*
X25200424Y-27891531D02*
G01*
X25156570Y-27942755D01*
X25132583Y-27962407D01*
X25101644Y-27983392D01*
X25076853Y-27995603D01*
X25068916Y-27997992D01*
X25004480Y-28006735D01*
X24942141Y-27997549D01*
X24885101Y-27971813D01*
X24836564Y-27930907D01*
X24799735Y-27876211D01*
X24782534Y-27829497D01*
X24775653Y-27771257D01*
X24873385Y-27771257D01*
X24880311Y-27808464D01*
X24899827Y-27848337D01*
X24927249Y-27879359D01*
X24949303Y-27891289D01*
X24989259Y-27899729D01*
X25032182Y-27898064D01*
X25069812Y-27885914D01*
X25089682Y-27871634D01*
X25115692Y-27836790D01*
X25129365Y-27794388D01*
X25129233Y-27750286D01*
X25113829Y-27710342D01*
X25110311Y-27705310D01*
X25080059Y-27675798D01*
X25042360Y-27654674D01*
X25005117Y-27646575D01*
X24981061Y-27649457D01*
X24940754Y-27666607D01*
X24906349Y-27695484D01*
X24882382Y-27731798D01*
X24873385Y-27771257D01*
X24775653Y-27771257D01*
X24775200Y-27767422D01*
X24784627Y-27707634D01*
X24810608Y-27654339D01*
X24828669Y-27630697D01*
X24874538Y-27587609D01*
X24926998Y-27561479D01*
X24988989Y-27550597D01*
X25005290Y-27550073D01*
X25072521Y-27557878D01*
X25129448Y-27582254D01*
X25175904Y-27623104D01*
X25211724Y-27680331D01*
X25223016Y-27708939D01*
X25234121Y-27772365D01*
X25231373Y-27794388D01*
X25226433Y-27833981D01*
X25200424Y-27891531D01*
G37*
G36*
X23857216Y-27600046D02*
G01*
X23856560Y-27626256D01*
X23853619Y-27643207D01*
X23847975Y-27654745D01*
X23839209Y-27664714D01*
X23821256Y-27679203D01*
X23806097Y-27685541D01*
X23800263Y-27683486D01*
X23778173Y-27673384D01*
X23741372Y-27655559D01*
X23691390Y-27630799D01*
X23629756Y-27599896D01*
X23558000Y-27563638D01*
X23477652Y-27522816D01*
X23390242Y-27478220D01*
X23297299Y-27430638D01*
X23200353Y-27380862D01*
X23100933Y-27329680D01*
X23000570Y-27277883D01*
X22900793Y-27226260D01*
X22803133Y-27175601D01*
X22709117Y-27126696D01*
X22620277Y-27080335D01*
X22538142Y-27037308D01*
X22464242Y-26998404D01*
X22400106Y-26964413D01*
X22347264Y-26936125D01*
X22307246Y-26914330D01*
X22281582Y-26899817D01*
X22271801Y-26893377D01*
X22267446Y-26884149D01*
X22268267Y-26861423D01*
X22408939Y-26861423D01*
X23078908Y-27205134D01*
X23099920Y-27215913D01*
X23205377Y-27269973D01*
X23305491Y-27321235D01*
X23398924Y-27369017D01*
X23484340Y-27412639D01*
X23560401Y-27451419D01*
X23625770Y-27484676D01*
X23679110Y-27511728D01*
X23719082Y-27531895D01*
X23744351Y-27544494D01*
X23753579Y-27548846D01*
X23756004Y-27541576D01*
X23755478Y-27518930D01*
X23752059Y-27484901D01*
X23746253Y-27443578D01*
X23738570Y-27399049D01*
X23729517Y-27355402D01*
X23710412Y-27286330D01*
X23663688Y-27172936D01*
X23600850Y-27068157D01*
X23523423Y-26973514D01*
X23432933Y-26890525D01*
X23330903Y-26820710D01*
X23218860Y-26765587D01*
X23098329Y-26726677D01*
X23005902Y-26710836D01*
X22902123Y-26705268D01*
X22797819Y-26710676D01*
X22700933Y-26727053D01*
X22673934Y-26734272D01*
X22618784Y-26752274D01*
X22561864Y-26774282D01*
X22508347Y-26798080D01*
X22463408Y-26821452D01*
X22432220Y-26842182D01*
X22408939Y-26861423D01*
X22268267Y-26861423D01*
X22268444Y-26856511D01*
X22288634Y-26825726D01*
X22328052Y-26791730D01*
X22335605Y-26786295D01*
X22452869Y-26714067D01*
X22575570Y-26659836D01*
X22702062Y-26623508D01*
X22830700Y-26604987D01*
X22959838Y-26604178D01*
X23087831Y-26620987D01*
X23213033Y-26655320D01*
X23333799Y-26707080D01*
X23448482Y-26776173D01*
X23555438Y-26862504D01*
X23628540Y-26938541D01*
X23698988Y-27033710D01*
X23760306Y-27143423D01*
X23794385Y-27220832D01*
X23824931Y-27315197D01*
X23844403Y-27414620D01*
X23854378Y-27525503D01*
X23855121Y-27541576D01*
X23856006Y-27560731D01*
X23857216Y-27600046D01*
G37*
G36*
X21994239Y-28595113D02*
G01*
X22016783Y-28604834D01*
X22047666Y-28622797D01*
X22081922Y-28646229D01*
X22089259Y-28651599D01*
X22228149Y-28741427D01*
X22372811Y-28812791D01*
X22524495Y-28866224D01*
X22684454Y-28902255D01*
X22741532Y-28909135D01*
X22813164Y-28913345D01*
X22892117Y-28914665D01*
X22973048Y-28913197D01*
X23050615Y-28909039D01*
X23119475Y-28902293D01*
X23174286Y-28893059D01*
X23229783Y-28879385D01*
X23386030Y-28828726D01*
X23532799Y-28762639D01*
X23667720Y-28682139D01*
X23670213Y-28680446D01*
X23716555Y-28651805D01*
X23751700Y-28636747D01*
X23777752Y-28634665D01*
X23796816Y-28644953D01*
X23806538Y-28658578D01*
X23808254Y-28681072D01*
X23794242Y-28707031D01*
X23763834Y-28737231D01*
X23716362Y-28772445D01*
X23651154Y-28813448D01*
X23598322Y-28843077D01*
X23471728Y-28902509D01*
X23336393Y-28952093D01*
X23198757Y-28989637D01*
X23065261Y-29012949D01*
X22955626Y-29020485D01*
X22825455Y-29017748D01*
X22692046Y-29004025D01*
X22561687Y-28979988D01*
X22440668Y-28946308D01*
X22376457Y-28922708D01*
X22285546Y-28883177D01*
X22195038Y-28837507D01*
X22109607Y-28788265D01*
X22033925Y-28738016D01*
X21972668Y-28689328D01*
X21957154Y-28672246D01*
X21944219Y-28644203D01*
X21945609Y-28619119D01*
X21960639Y-28601075D01*
X21988626Y-28594153D01*
X21994239Y-28595113D01*
G37*
G36*
X21812318Y-26783295D02*
G01*
X21833209Y-26791085D01*
X21866057Y-26807076D01*
X21867335Y-26807720D01*
X21898957Y-26824678D01*
X21923282Y-26839543D01*
X21935139Y-26849163D01*
X21938550Y-26855479D01*
X21941142Y-26882857D01*
X21927264Y-26908263D01*
X21915156Y-26916963D01*
X21892683Y-26923615D01*
X21887744Y-26923186D01*
X21862365Y-26915730D01*
X21830146Y-26901628D01*
X21798314Y-26884316D01*
X21774097Y-26867232D01*
X21771956Y-26865245D01*
X21758350Y-26840392D01*
X21761410Y-26813587D01*
X21780576Y-26791387D01*
X21785222Y-26788432D01*
X21798087Y-26782735D01*
X21812318Y-26783295D01*
G37*
G36*
X23942563Y-27265891D02*
G01*
X23964842Y-27281446D01*
X23978215Y-27301912D01*
X23981906Y-27315763D01*
X23990781Y-27361464D01*
X23997570Y-27414831D01*
X24002166Y-27472007D01*
X24004466Y-27529136D01*
X24004361Y-27582360D01*
X24001748Y-27627822D01*
X23996520Y-27661665D01*
X23988572Y-27680033D01*
X23968226Y-27692011D01*
X23940709Y-27694271D01*
X23917954Y-27683661D01*
X23917045Y-27682578D01*
X23911129Y-27663431D01*
X23907479Y-27626334D01*
X23906231Y-27572595D01*
X23906033Y-27555246D01*
X23903362Y-27497486D01*
X23898224Y-27438443D01*
X23891455Y-27388519D01*
X23887143Y-27361894D01*
X23882885Y-27319305D01*
X23885292Y-27290546D01*
X23894895Y-27272383D01*
X23912221Y-27261581D01*
X23919450Y-27260180D01*
X23942563Y-27265891D01*
G37*
G36*
X20971664Y-28386121D02*
G01*
X20942766Y-28446114D01*
X20897267Y-28500438D01*
X20882567Y-28513833D01*
X20846851Y-28541635D01*
X20810726Y-28560502D01*
X20765423Y-28575421D01*
X20727958Y-28580689D01*
X20675919Y-28578377D01*
X20622545Y-28568055D01*
X20576124Y-28550800D01*
X20550601Y-28536218D01*
X20496869Y-28491536D01*
X20457225Y-28437203D01*
X20431950Y-28376190D01*
X20422693Y-28319795D01*
X20522389Y-28319795D01*
X20538110Y-28372261D01*
X20567975Y-28418489D01*
X20609869Y-28453458D01*
X20632382Y-28464195D01*
X20685715Y-28476073D01*
X20741510Y-28473621D01*
X20792313Y-28456707D01*
X20817480Y-28439892D01*
X20852829Y-28400198D01*
X20876078Y-28351457D01*
X20885114Y-28298838D01*
X20877824Y-28247510D01*
X20869416Y-28227393D01*
X20843014Y-28186692D01*
X20808962Y-28151525D01*
X20773217Y-28128660D01*
X20737425Y-28118307D01*
X20683361Y-28117689D01*
X20631310Y-28132840D01*
X20585123Y-28161819D01*
X20548648Y-28202684D01*
X20525738Y-28253492D01*
X20522924Y-28266113D01*
X20522389Y-28319795D01*
X20422693Y-28319795D01*
X20421325Y-28311463D01*
X20425632Y-28245992D01*
X20445152Y-28182745D01*
X20480169Y-28124691D01*
X20530962Y-28074798D01*
X20551217Y-28060391D01*
X20604386Y-28033304D01*
X20662286Y-28020360D01*
X20730623Y-28019993D01*
X20786149Y-28029473D01*
X20847784Y-28055137D01*
X20899236Y-28093635D01*
X20939588Y-28142324D01*
X20967924Y-28198561D01*
X20983326Y-28259701D01*
X20984285Y-28298838D01*
X20984879Y-28323102D01*
X20971664Y-28386121D01*
G37*
%TD*%
M02*
