%TF.GenerationSoftware,KiCad,Pcbnew,(6.0.6)*%
%TF.CreationDate,2022-08-22T03:32:16+02:00*%
%TF.ProjectId,fan_pcb,66616e5f-7063-4622-9e6b-696361645f70,rev?*%
%TF.SameCoordinates,Original*%
%TF.FileFunction,Copper,L2,Bot*%
%TF.FilePolarity,Positive*%
%FSLAX46Y46*%
G04 Gerber Fmt 4.6, Leading zero omitted, Abs format (unit mm)*
G04 Created by KiCad (PCBNEW (6.0.6)) date 2022-08-22 03:32:16*
%MOMM*%
%LPD*%
G01*
G04 APERTURE LIST*
G04 Aperture macros list*
%AMRoundRect*
0 Rectangle with rounded corners*
0 $1 Rounding radius*
0 $2 $3 $4 $5 $6 $7 $8 $9 X,Y pos of 4 corners*
0 Add a 4 corners polygon primitive as box body*
4,1,4,$2,$3,$4,$5,$6,$7,$8,$9,$2,$3,0*
0 Add four circle primitives for the rounded corners*
1,1,$1+$1,$2,$3*
1,1,$1+$1,$4,$5*
1,1,$1+$1,$6,$7*
1,1,$1+$1,$8,$9*
0 Add four rect primitives between the rounded corners*
20,1,$1+$1,$2,$3,$4,$5,0*
20,1,$1+$1,$4,$5,$6,$7,0*
20,1,$1+$1,$6,$7,$8,$9,0*
20,1,$1+$1,$8,$9,$2,$3,0*%
G04 Aperture macros list end*
%TA.AperFunction,ComponentPad*%
%ADD10C,5.600000*%
%TD*%
%TA.AperFunction,ComponentPad*%
%ADD11RoundRect,0.250000X-0.600000X-0.750000X0.600000X-0.750000X0.600000X0.750000X-0.600000X0.750000X0*%
%TD*%
%TA.AperFunction,ComponentPad*%
%ADD12O,1.700000X2.000000*%
%TD*%
%TA.AperFunction,ComponentPad*%
%ADD13RoundRect,0.250000X0.750000X-0.600000X0.750000X0.600000X-0.750000X0.600000X-0.750000X-0.600000X0*%
%TD*%
%TA.AperFunction,ComponentPad*%
%ADD14O,2.000000X1.700000*%
%TD*%
%TA.AperFunction,ComponentPad*%
%ADD15RoundRect,0.250000X0.600000X0.750000X-0.600000X0.750000X-0.600000X-0.750000X0.600000X-0.750000X0*%
%TD*%
%TA.AperFunction,Conductor*%
%ADD16C,0.762000*%
%TD*%
G04 APERTURE END LIST*
D10*
%TO.P,REF\u002A\u002A,1*%
%TO.N,N/C*%
X39000000Y-23000000D03*
%TD*%
D11*
%TO.P,REF\u002A\u002A,1*%
%TO.N,N/C*%
X30250000Y-28800000D03*
D12*
%TO.P,REF\u002A\u002A,2*%
X32750000Y-28800000D03*
%TD*%
D13*
%TO.P,REF\u002A\u002A,1*%
%TO.N,N/C*%
X43450000Y-24950000D03*
D14*
%TO.P,REF\u002A\u002A,2*%
X43450000Y-22450000D03*
%TD*%
D15*
%TO.P,REF\u002A\u002A,1*%
%TO.N,N/C*%
X32750000Y-26200000D03*
D12*
%TO.P,REF\u002A\u002A,2*%
X30250000Y-26200000D03*
%TD*%
D10*
%TO.P,REF\u002A\u002A,1*%
%TO.N,N/C*%
X24000000Y-23000000D03*
%TD*%
%TO.P,REF\u002A\u002A,1*%
%TO.N,N/C*%
X24000000Y-32000000D03*
%TD*%
%TO.P,REF\u002A\u002A,1*%
%TO.N,N/C*%
X39000000Y-32000000D03*
%TD*%
D13*
%TO.P,REF\u002A\u002A,1*%
%TO.N,N/C*%
X43450000Y-32550000D03*
D14*
%TO.P,REF\u002A\u002A,2*%
X43450000Y-30050000D03*
%TD*%
D16*
%TO.N,*%
X35200000Y-27500000D02*
X33900000Y-28800000D01*
X33900000Y-28800000D02*
X32750000Y-28800000D01*
X35200000Y-27500000D02*
X35200000Y-24800000D01*
X35200000Y-24800000D02*
X34200000Y-23800000D01*
X34200000Y-23800000D02*
X31200000Y-23800000D01*
X31200000Y-23800000D02*
X30250000Y-24750000D01*
X30250000Y-24750000D02*
X30250000Y-26200000D01*
X35200000Y-27500000D02*
X44400000Y-27500000D01*
X45900000Y-26000000D02*
X45900000Y-23400000D01*
X44950000Y-22450000D02*
X43450000Y-22450000D01*
X44400000Y-27500000D02*
X45900000Y-26000000D01*
X45900000Y-23400000D02*
X44950000Y-22450000D01*
X44400000Y-27500000D02*
X44400000Y-29100000D01*
X44400000Y-29100000D02*
X43450000Y-30050000D01*
%TD*%
M02*
