M48
;GenerationSoftware,Autodesk,EAGLE,9.6.2*%
;CreationDate,2020-11-18T11:19:12Z*%
FMAT,2
ICI,OFF
METRIC,TZ,000.000
T4C1.000
T3C1.200
T2C1.500
T1C3.200
%
G90
M71
T1
X11500Y-7000
X11500Y7000
X78500Y7000
X78500Y-7000
T2
X48500Y-8000
X56500Y-8000
X63500Y-8000
X71500Y-8000
T3
X39800Y-8250
X35600Y-8250
X31400Y-8250
X27200Y-8250
X39800Y-2750
X35600Y-2750
X31400Y-2750
X27200Y-2750
X37700Y-2750
X33500Y-2750
X29300Y-2750
X66000Y5750
X71000Y5750
X56000Y5750
X61000Y5750
X46000Y5750
X51000Y5750
X17250Y5250
X22250Y5250
X3500Y7500
X3500Y2500
X3500Y-2500
X3500Y-7500
X37700Y-8250
X33500Y-8250
X29300Y-8250
T4
X33000Y5500
X30500Y5500
X28000Y5500
X36960Y5500
X39500Y5500
X42040Y5500
M30