<?xml version="1.0" encoding="utf-8"?>
<!-- Generator: Adobe Illustrator 25.4.1, SVG Export Plug-In . SVG Version: 6.00 Build 0)  -->
<svg version="1.1" id="Layer_1" xmlns="http://www.w3.org/2000/svg" xmlns:xlink="http://www.w3.org/1999/xlink" x="0px" y="0px"
	 viewBox="0 0 864 864" style="enable-background:new 0 0 864 864;" xml:space="preserve">
<style type="text/css">
	.st0{fill:#F02B2C;}
</style>
<path class="st0" d="M72.4,223c6.2-3.6,356.4-209,363-213C437,10.9,796,215.6,800.8,218.3c0,0,0,0,0,0.1c0,0.2,4.5,426.8,4.5,426.8
	C803,646.2,446,856.2,441.2,859c-7.7-4.4-366.8-213.9-367.3-214.9C73.7,643.9,72.4,251.9,72.4,223z"/>
<path d="M185.7,433.2c0.3-0.7,51.9-91.4,67.7-119.2c1.3-2.3,2.6-4.5,3.9-6.8c7.5-13.2,14.9-26.4,22.3-39.6
	c5.2-9.2,10.4-18.4,15.6-27.6c2.6-4.6,5.2-9.2,8-13.8c0.1-0.1,0.2-0.2,0.3-0.4c0.3-0.4,0.4-0.7,0.5-0.8c12.1-0.1,77.7-0.2,95.5-0.2
	c0.6,0,1.2,0,1.7,0c0.7,0,1.4,0,2.7,0c-1.3,2.2-11.8,20.9-23.9,42.3c-3.4,6.1-6.9,12.2-10.3,18.2c-9.1,16.1-18.2,32.2-27.4,48.3
	c-8.7,15.4-17.4,30.8-26.1,46.2c-0.9,1.6-1.8,3.1-2.7,4.6c-13.8,24.3-27.1,47.8-27.1,47.8s-0.4,0-1.1,0c-0.3,0.1-0.7,0.2-1,0.2
	c-7.5,0.1-15,0-22.4,0C232.9,432.8,188.1,433.2,185.7,433.2z M399.4,336.1c-1.1,0-1.9,0.9-1.9,2.1c0,1.2,0.9,2.1,1.9,2.1
	s1.9-0.9,1.9-2.1C401.3,337,400.4,336.1,399.4,336.1z M377.2,311.3l1.3,2.4h0.9l0.4-1.1c0.1-0.3,0.4-0.5,0.7-0.4l0.7,0.3
	c0.2,0.1,0.5,0,0.6-0.2l1.8-2.4c0.2-0.2,0.2-0.6,0-0.8l-1.1-1.2c-0.2-0.2-0.2-0.5-0.1-0.7l0.3-0.5c0.2-0.3,0-0.8-0.3-0.9l-1.6-0.5
	c-0.1,0-0.3,0-0.4,0l-2.8,1.5c-0.1,0.1-0.2,0.2-0.3,0.3l-0.6,1.8c0,0.1,0,0.2,0,0.3l0.4,1.9C377.1,311.2,377.1,311.3,377.2,311.3z
	 M424,120.5c-0.8,0-1.4,0.6-1.4,1.4s0.6,1.4,1.4,1.4c0.8,0,1.4-0.6,1.4-1.4S424.7,120.5,424,120.5z M423.7,98.9
	c0.8,0,1.4-0.6,1.4-1.4s-0.6-1.4-1.4-1.4c-0.8,0-1.4,0.6-1.4,1.4S423,98.9,423.7,98.9z M407.5,289.7c-1.1,0-1.9,1-1.9,2.3
	s0.9,2.3,1.9,2.3c1.1,0,1.9-1,1.9-2.3S408.6,289.7,407.5,289.7z M357,450.6c0.8,0,1.5-0.8,1.5-1.7s-0.7-1.7-1.5-1.7
	c-0.8,0-1.5,0.8-1.5,1.7S356.2,450.6,357,450.6z M369.5,426c1.3,0,2.3-1.1,2.3-2.6c0-1.4-1-2.6-2.3-2.6s-2.3,1.1-2.3,2.6
	C367.2,424.9,368.2,426,369.5,426z M420.5,311.3l5.1,2.7c0.7,0.3,1.5,0.1,1.8-0.6l2-4c0.3-0.7,0.1-1.5-0.6-1.8l-5.1-2.7
	c-0.7-0.3-1.5-0.1-1.8,0.6l-2,4C419.6,310.1,419.8,311,420.5,311.3z M422.8,296.7c1.3,0,2.3-1,2.3-2.3s-1-2.3-2.3-2.3
	c-1.3,0-2.3,1-2.3,2.3S421.5,296.7,422.8,296.7z M397.8,284.6c-1.2,0-2.1,0.9-2.1,2.1c0,1.2,0.9,2.1,2.1,2.1s2.1-0.9,2.1-2.1
	C399.9,285.6,398.9,284.6,397.8,284.6z M204.1,337.5l-1.6,2c-0.8,1-0.6,2.6,0.4,3.4l3.3,2.3c1,0.7,2.4,0.5,3.2-0.5l1.4-1.8
	c0.9-1.2,0.7-3-0.5-3.9L208,337C206.8,336.1,205.1,336.3,204.1,337.5z M193.5,345.2c-1.1,0-2,0.9-2,2c0,1.1,0.9,2,2,2
	c1.1,0,2-0.9,2-2C195.5,346.1,194.6,345.2,193.5,345.2z M174.5,379.7c-1.2,0-2.2,0.9-2.2,2c0,1.1,1,2,2.2,2c1.2,0,2.2-0.9,2.2-2
	C176.7,380.5,175.7,379.7,174.5,379.7z M178.5,287.1c-1.2,0-2.2,1-2.2,2.2c0,1.2,1,2.2,2.2,2.2s2.2-1,2.2-2.2
	C180.6,288.1,179.7,287.1,178.5,287.1z M172.3,271.3c-1.4,0-2.6,1.2-2.6,2.6s1.2,2.6,2.6,2.6c1.4,0,2.6-1.2,2.6-2.6
	S173.7,271.3,172.3,271.3z M221.3,304.6c0-1.2-1-2.2-2.2-2.2s-2.2,1-2.2,2.2s1,2.2,2.2,2.2S221.3,305.8,221.3,304.6z M183,332.6
	c-1.3,0-2.3,1-2.3,2.3c0,1.3,1,2.3,2.3,2.3c1.3,0,2.3-1,2.3-2.3C185.3,333.6,184.2,332.6,183,332.6z M196.9,376.4
	c1.2,0,2.2-1,2.2-2.2c0-1.2-1-2.2-2.2-2.2c-1.2,0-2.2,1-2.2,2.2C194.7,375.4,195.7,376.4,196.9,376.4z M181.8,364.2
	c-1.2,0-2.2,0.9-2.2,2c0,1.1,1,2,2.2,2c1.2,0,2.2-0.9,2.2-2C184,365.1,183,364.2,181.8,364.2z M173.9,327c-1.2,0-2.2,1-2.2,2.2
	c0,1.2,1,2.2,2.2,2.2s2.2-1,2.2-2.2C176,328,175.1,327,173.9,327z M191.2,389c0-1.3-0.9-2.4-2-2.4c-1.1,0-2,1.1-2,2.4
	c0,1.3,0.9,2.4,2,2.4C190.3,391.4,191.2,390.3,191.2,389z M188,266c-1.1,0-2,0.9-2,2s0.9,2,2,2c1.1,0,2-0.9,2-2S189.1,266,188,266z
	 M381.4,354.4c1.2,0,2.1-1,2.1-2.3s-1-2.3-2.1-2.3s-2.1,1-2.1,2.3S380.2,354.4,381.4,354.4z M224.6,464.4c-1.7,0-3.1,1.5-3.1,3.3
	s1.4,3.3,3.1,3.3s3.1-1.5,3.1-3.3S226.3,464.4,224.6,464.4z M285.5,453.3c1,0,1.8-0.8,1.8-1.9c0-1-0.8-1.9-1.8-1.9
	c-1,0-1.8,0.8-1.8,1.9C283.7,452.5,284.5,453.3,285.5,453.3z M262.5,516.5v-6.3h-5.8v1.2l5.1,5H262.5z M217.2,510.7l-0.4,0.7
	l1.5,6.2l0.7,0.5l3.3-5.2l-4.3-2.7L217.2,510.7z M250.8,478c0.8,0,1.5-0.7,1.5-1.5c0-0.8-0.7-1.5-1.5-1.5s-1.5,0.7-1.5,1.5
	C249.3,477.3,249.9,478,250.8,478z M214.4,475.9c-0.8,0-1.4,0.6-1.4,1.4c0,0.8,0.6,1.4,1.4,1.4s1.4-0.6,1.4-1.4
	C215.7,476.5,215.1,475.9,214.4,475.9z M215.4,454.5c-1,0-1.8,0.8-1.8,1.8s0.8,1.8,1.8,1.8c1,0,1.8-0.8,1.8-1.8
	S216.4,454.5,215.4,454.5z M225.4,452.7c0.9,0,1.5-0.7,1.5-1.6s-0.7-1.6-1.5-1.6c-0.9,0-1.5,0.7-1.5,1.6S224.5,452.7,225.4,452.7z
	 M251.3,469c-0.7,0-1.3,0.6-1.3,1.3s0.6,1.3,1.3,1.3c0.7,0,1.3-0.6,1.3-1.3S252,469,251.3,469z M250.8,452c0.8,0,1.5-0.6,1.5-1.2
	s-0.7-1.2-1.5-1.2s-1.5,0.6-1.5,1.2S249.9,452,250.8,452z M238.1,454.5c-5.4,0-9.7,4.2-9.7,9.3c0,5.1,4.4,9.3,9.7,9.3
	s9.7-4.2,9.7-9.3C247.9,458.7,243.5,454.5,238.1,454.5z M333,388.7c-0.9,0-1.5,0.7-1.5,1.6c0,0.9,0.7,1.6,1.5,1.6
	c0.9,0,1.5-0.7,1.5-1.6C334.5,389.4,333.8,388.7,333,388.7z M346.8,367.4c-0.8,0-1.4,0.5-1.4,1.2s0.6,1.2,1.4,1.2
	c0.8,0,1.4-0.5,1.4-1.2S347.6,367.4,346.8,367.4z M354.5,402.5c-0.8,0-1.5,0.7-1.5,1.5c0,0.9,0.7,1.5,1.5,1.5s1.5-0.7,1.5-1.5
	C356,403.2,355.3,402.5,354.5,402.5z M268.9,449.5c-1,0-1.8,0.8-1.8,1.8s0.8,1.8,1.8,1.8s1.8-0.8,1.8-1.8S269.9,449.5,268.9,449.5z
	 M320.3,500.3c1.2,0,2.2-1,2.2-2.2s-1-2.2-2.2-2.2c-1.2,0-2.2,1-2.2,2.2S319.1,500.3,320.3,500.3z M368.5,383.6
	c0.8,0,1.4-0.6,1.4-1.4c0-0.8-0.6-1.4-1.4-1.4s-1.4,0.6-1.4,1.4C367,382.9,367.7,383.6,368.5,383.6z M305.7,440.2
	c0.9,0,1.7-0.8,1.7-1.7c0-1-0.8-1.7-1.7-1.7c-0.9,0-1.7,0.8-1.7,1.7C304,439.4,304.7,440.2,305.7,440.2z M296,530.2
	c1.2,0,2.1-0.9,2.1-2.1s-0.9-2.1-2.1-2.1s-2.1,0.9-2.1,2.1S294.9,530.2,296,530.2z M279.4,561.6c1.3,0,2.3-1.2,2.3-2.7
	s-1-2.7-2.3-2.7c-1.3,0-2.3,1.2-2.3,2.7S278.1,561.6,279.4,561.6z M214.4,452c1,0,1.8-0.8,1.8-1.8c0-1-0.8-1.8-1.8-1.8
	c-1,0-1.8,0.8-1.8,1.8C212.6,451.2,213.4,452,214.4,452z M310.9,464.4c1.1,0,2-0.9,2-2s-0.9-2-2-2s-2,0.9-2,2
	S309.8,464.4,310.9,464.4z M740.7,324c1.4,0,2.5-1.1,2.5-2.6c0-1.4-1.1-2.6-2.5-2.6c-1.4,0-2.5,1.1-2.5,2.6
	C738.1,322.9,739.3,324,740.7,324z M739.5,355.8c0.8,0,1.5-0.8,1.5-1.7s-0.7-1.7-1.5-1.7c-0.8,0-1.5,0.8-1.5,1.7
	S738.7,355.8,739.5,355.8z M745.1,424c0.7,0,1.3-0.6,1.3-1.3s-0.6-1.3-1.3-1.3s-1.3,0.6-1.3,1.3S744.4,424,745.1,424z M745.1,447.1
	c-0.7,0-1.3,0.6-1.3,1.3c0,0.7,0.6,1.3,1.3,1.3c0.7,0,1.3-0.6,1.3-1.3C746.3,447.6,745.8,447.1,745.1,447.1z M758.4,462.4
	c-1.1,0-2,1-2,2.3c0,1.3,0.9,2.3,2,2.3c1.1,0,2-1,2-2.3C760.4,463.5,759.5,462.4,758.4,462.4z M773.1,369.1c0.6,0,1.1-0.7,1.1-1.5
	c0-0.8-0.5-1.5-1.1-1.5c-0.6,0-1.1,0.7-1.1,1.5C772,368.5,772.5,369.1,773.1,369.1z M710.8,431.3c-0.7,0-1.2,0.6-1.2,1.4
	c0,0.7,0.5,1.4,1.2,1.4c0.7,0,1.2-0.6,1.2-1.4C712,431.9,711.4,431.3,710.8,431.3z M762.9,345.5c0.8,0,1.5-0.7,1.5-1.5
	c0-0.8-0.7-1.5-1.5-1.5c-0.8,0-1.5,0.7-1.5,1.5C761.4,344.9,762.1,345.5,762.9,345.5z M573.3,385.1l3.3-4.6l-5-2.7L573.3,385.1z
	 M771.9,422.5c0-0.7-0.5-1.2-1.2-1.2s-1.2,0.5-1.2,1.2c0,0.7,0.5,1.2,1.2,1.2S771.9,423.1,771.9,422.5z M749.3,378.9
	c0.7,0,1.3-0.6,1.3-1.4c0-0.7-0.6-1.4-1.3-1.4c-0.7,0-1.3,0.6-1.3,1.4C748,378.3,748.6,378.9,749.3,378.9z M745,412.3
	c1.4,0,2.6-1.2,2.6-2.6c0-1.4-1.2-2.6-2.6-2.6c-1.4,0-2.6,1.2-2.6,2.6C742.3,411.1,743.5,412.3,745,412.3z M771.4,293.6
	c-0.4,0-0.8,0.4-0.8,0.8c0,0.5,0.3,0.8,0.8,0.8c0.4,0,0.8-0.4,0.8-0.8C772.2,294,771.8,293.6,771.4,293.6z M770.9,447.1
	c-0.7,0-1.3,0.6-1.3,1.3c0,0.7,0.6,1.3,1.3,1.3c0.7,0,1.3-0.6,1.3-1.3C772.2,447.6,771.6,447.1,770.9,447.1z M771.3,247.1
	c0.4,0,0.7-0.3,0.7-0.6c0-0.4-0.3-0.6-0.7-0.6s-0.7,0.3-0.7,0.6C770.7,246.8,771,247.1,771.3,247.1z M737.3,208.3
	c0.8,0,1.5-0.8,1.5-1.7c0-1-0.7-1.7-1.5-1.7c-0.8,0-1.5,0.8-1.5,1.7C735.8,207.5,736.4,208.3,737.3,208.3z M759.1,220.8
	c0.9,0,1.6-0.7,1.6-1.6s-0.7-1.6-1.6-1.6s-1.6,0.7-1.6,1.6S758.2,220.8,759.1,220.8z M755.6,268.1c-0.2,0.2-0.3,0.5-0.4,0.8
	l-0.2,0.9c-0.1,0.4,0,0.8,0.2,1.1l0.6,1.3c0.1,0.1,0.1,0.3,0.2,0.4l16,19c0.3,0.4,0.8,0.6,1.4,0.6h1c0.7,0,1.4-0.4,1.6-1.1
	c0.1-0.2,0.1-0.4,0.1-0.7v-38.9c0-0.5-0.2-0.9-0.5-1.2l-1.1-1.2c-0.3-0.3-0.8-0.5-1.3-0.5h-0.8c-0.5,0-1,0.2-1.4,0.6L755.6,268.1z
	 M733,395.8c-1.2,0-2.2,1.1-2.2,2.5s1,2.5,2.2,2.5s2.2-1.1,2.2-2.5S734.3,395.8,733,395.8z M760,403.9c1.4,0,2.6-1.2,2.6-2.6
	s-1.2-2.6-2.6-2.6s-2.6,1.2-2.6,2.6S758.6,403.9,760,403.9z M731.1,294.2c-0.3,0-0.6,0.3-0.6,0.6c0,0.3,0.3,0.6,0.6,0.6
	c0.3,0,0.6-0.3,0.6-0.6C731.7,294.4,731.5,294.2,731.1,294.2z M730.8,246.1c-0.3,0-0.5,0.2-0.5,0.6c0,0.3,0.2,0.6,0.5,0.6
	s0.5-0.2,0.5-0.6C731.4,246.3,731.1,246.1,730.8,246.1z M193.7,280.8c-1.3,0-2.4,1.1-2.4,2.4s1.1,2.4,2.4,2.4c1.3,0,2.4-1.1,2.4-2.4
	S195.1,280.8,193.7,280.8z M564.3,345.5c-1.1-0.6-2.7,0.1-3.6,1.7c-0.9,1.6-0.8,3.4,0.3,4c1.1,0.6,2.7-0.1,3.6-1.7
	C565.5,347.9,565.4,346.1,564.3,345.5z M704,273.4c1,0,1.8-1,1.8-2.2s-0.8-2.2-1.8-2.2c-1,0-1.8,1-1.8,2.2S703,273.4,704,273.4z
	 M593,202.1l17.9,1.4l1.6-1.7l0.5-5.1l-20-1.3V202.1z M650.8,354.1l8.1,2.1c0.9,0.2,1.8-0.3,2-1.2l6.3-24.3c0.2-0.9-0.3-1.8-1.2-2
	l-8.1-2.1c-0.9-0.2-1.8,0.3-2,1.2l-6.3,24.3C649.4,353,650,353.9,650.8,354.1z M677.6,361.9l9.4,2.6c0.6,0.2,1.2-0.2,1.3-0.8l6.9-25
	c0.2-0.6-0.2-1.2-0.7-1.3l-9.4-2.6c-0.6-0.2-1.2,0.2-1.3,0.8l-6.9,25C676.7,361.1,677,361.7,677.6,361.9z M568.5,194.7h-1.4
	c-0.9,0-1.7,0.8-1.7,1.7v5.5c0,0.9,0.8,1.7,1.7,1.7h1.4c0.9,0,1.7-0.8,1.7-1.7v-5.5C570.2,195.4,569.5,194.7,568.5,194.7z
	 M260,588.6l-0.4,5.3l1.2,1.6l5.2,3.5h2l3-4.4v-2l-4.5-13.6l-0.8-1.4l-1.8-1.1h-2.6l-0.5,0.6l-2.5,4.3v2.1l1.2,1.7L260,588.6z
	 M175.5,410.6h0.3c0.9,0,1.6-0.7,1.6-1.6v-0.3c0-0.9-0.7-1.6-1.6-1.6h-0.3c-0.9,0-1.6,0.7-1.6,1.6v0.3
	C173.9,409.8,174.6,410.6,175.5,410.6z M542.6,201.8c-1.2,0-2.1,0.9-2.1,2.1c0,1.2,0.9,2.1,2.1,2.1c1.2,0,2.1-0.9,2.1-2.1
	C544.7,202.7,543.7,201.8,542.6,201.8z M674.3,408.7c5.1,0,9.2-4.2,9.2-9.3c0-4.2-2.8-7.7-6.6-8.9c-0.1,0-0.1,0-0.2-0.1h0l-0.1-6.1
	l-0.8-0.7l-1.3-0.8h-1.2l-1.6,1.4l0,6.2c-3.9,1.1-6.7,4.7-6.7,9C665,404.5,669.2,408.7,674.3,408.7z M246.4,627.2l2.3,1.4
	c1.8,1.1,4.2,0.4,5.2-1.4l3.9-6.8c1.1-1.8,0.4-4.2-1.4-5.3l-2.3-1.4c-1.8-1.1-4.2-0.4-5.2,1.4L245,622
	C244,623.8,244.6,626.2,246.4,627.2z M254.7,611.4l2.3,1.4c1.8,1.1,4.2,0.4,5.2-1.4l3.2-5.6c1.1-1.8,0.4-4.2-1.4-5.3l-2.3-1.4
	c-1.8-1.1-4.2-0.4-5.2,1.4l-3.2,5.6C252.2,608,252.9,610.4,254.7,611.4z M636.1,401.9c1,0,1.8-0.8,1.8-1.8c0-1-0.8-1.8-1.8-1.8
	c-1,0-1.8,0.8-1.8,1.8C634.3,401.1,635.1,401.9,636.1,401.9z M584.4,416.2c1.1,0,2.1-1,2.1-2.3c0-1.3-0.9-2.3-2.1-2.3
	c-1.1,0-2.1,1-2.1,2.3C582.4,415.2,583.3,416.2,584.4,416.2z M548.7,464.1c1,0,1.8-0.9,1.8-2s-0.8-2-1.8-2s-1.8,0.9-1.8,2
	S547.7,464.1,548.7,464.1z M568.4,436.4c1.1,0,2-1,2-2.1c0-1.2-0.9-2.1-2-2.1s-2,1-2,2.1C566.4,435.4,567.3,436.4,568.4,436.4z
	 M508.5,447.6l30,15.1c1.2,0.6,2.6,0.1,3.2-1.1l2.5-5.1c0.6-1.2,0.1-2.6-1.1-3.2l-30-15.1c-1.2-0.6-2.6-0.1-3.2,1.1l-2.5,5.1
	C506.8,445.6,507.3,447,508.5,447.6z M503.5,438.9c0-0.8-0.7-1.5-1.5-1.5c-0.8,0-1.5,0.7-1.5,1.5c0,0.8,0.7,1.5,1.5,1.5
	C502.9,440.4,503.5,439.7,503.5,438.9z M627.7,400.5c1.1,0,2-1,2-2.3c0-1.2-0.9-2.3-2-2.3c-1.1,0-2,1-2,2.3
	C625.8,399.5,626.6,400.5,627.7,400.5z M557.8,356.9c-1.1-0.6-2.7,0.1-3.6,1.7c-0.9,1.6-0.8,3.4,0.3,4s2.7-0.1,3.6-1.7
	C559.1,359.3,558.9,357.5,557.8,356.9z M608.7,380h48.7v33.9h-48.7V380z M623.8,399.4c0.4,0.3,0.5,1.2,1.3,1.4
	c3.4,1,7.1,1.6,10.5,2.7c2,0.6,3.7,0.4,4-1.5c0.3-1.7,1.8-4.1-1.5-5c-2.9-0.7-6.6-1.6-9.4-2.5C624.7,393.5,623.7,394.6,623.8,399.4z
	 M597.8,346.9l8-2.2l-5.2-3.1L597.8,346.9z M579.9,319.9c-1.1,0-2,0.8-2,1.8c0,1,0.9,1.8,2,1.8c1.1,0,2-0.8,2-1.8
	C581.9,320.7,581,319.9,579.9,319.9z M352.6,146.1c4.4,8.1,8.8,16.1,13.2,24.3c1-0.6,1.7-1,2.5-1.5c-0.3-0.8-0.5-1.5-0.9-2.1
	c-3.6-6.7-7.3-13.3-10.9-20C355.2,144.1,355,144,352.6,146.1z M477.2,575.9c-0.7-0.4-1.8,0.1-2.4,1.2c-0.6,1.1-0.5,2.3,0.2,2.7
	c0.7,0.4,1.8-0.1,2.4-1.2C478,577.5,477.9,576.3,477.2,575.9z M474,533.3l-8.1,5.2v9.7l9.3,5.6l8.8-5.4v-9.7l-8.2-5.3H474z
	 M484,551.5l-7.4,5.2v7.6l9.3,5.5h2.4l6-10.5v-3l-7.7-4.9H484z M493.7,530.1l0.6-9.8l-7.8-4.7h-3l-7.7,4.4v10.9l8.9,4.7L493.7,530.1
	z M494.3,533.3l-7.8,4.6v10.5l7.2,4.5h3.8l7.4-11.9v-2.8l-8.4-5.3L494.3,533.3z M462.8,676c-2.2,0-4,0.6-4,1.3c0,0.7,1.8,1.3,4,1.3
	c2.2,0,4-0.6,4-1.3C466.8,676.6,465,676,462.8,676z M514.4,688.3c-0.9,0-1.6,0.7-1.6,1.6c0,0.9,0.7,1.6,1.6,1.6
	c0.9,0,1.6-0.7,1.6-1.6C516.1,689.1,515.3,688.3,514.4,688.3z M489.1,688.3c-0.9,0-1.6,0.7-1.6,1.6c0,0.9,0.7,1.6,1.6,1.6
	c0.9,0,1.6-0.7,1.6-1.6C490.8,689.1,490,688.3,489.1,688.3z M488.6,665.9c1,0,1.8-0.8,1.8-1.8s-0.8-1.8-1.8-1.8s-1.8,0.8-1.8,1.8
	S487.6,665.9,488.6,665.9z M514.1,665.8c0.9,0,1.7-0.9,1.7-1.9c0-1.1-0.8-1.9-1.7-1.9c-0.9,0-1.7,0.9-1.7,1.9
	C512.4,664.9,513.1,665.8,514.1,665.8z M501.3,690.1c7.3,0,13.2-5.9,13.2-13.3c0-7.3-5.9-13.3-13.2-13.3s-13.2,5.9-13.2,13.3
	C488.2,684.1,494.1,690.1,501.3,690.1z M471.2,510.2l7.4,4.4h1.3l3.7-2.6v-9.5l-7.7-4.9h-2.8l-3.3,4.1v2.6l1.3,1.2L471.2,510.2z
	 M466.1,534.9l7.1-4.3v-5.3l-6.6-4h-2.7l-1.5,2h-4.5l-2.5,4v3.3l7.5,4.9L466.1,534.9z M589.6,431.2L471.9,639.8L573,639l117.4-209
	L589.6,431.2z M496.9,519.5v10.7l8.1,4.7h2.1l7.4-12v-3l-9.1-5.3L496.9,519.5z M483.6,499.2h1.8l7.8-4.9l0.6-7.8l-10.7-6.1l-1.9,0.7
	l-5.3,10v2.4l0.7,1.6L483.6,499.2z M463,538.3l-7.6-4.5h-2.9l-6.4,10.1v3.1l9.2,5.4h1.7l5.9-3.8V538.3z M446.1,558.1
	c-0.8-0.5-2,0-2.6,1c-0.6,1.1-0.4,2.3,0.4,2.8c0.8,0.5,2,0,2.6-1S446.9,558.6,446.1,558.1z M506.6,511.6l8.3,5.3l2.5-0.5l7-11.1V504
	l-9.5-5.8h-2.2l-6.1,4V511.6z M523.8,492.7c0.8,0.4,2-0.2,2.6-1.5c0.6-1.2,0.4-2.5-0.4-2.9c-0.8-0.4-2,0.2-2.6,1.5
	C522.8,491,523,492.3,523.8,492.7z M486.5,501.8v10.9l9.1,4.7l8.3-5v-10.7l-8-4.5h-1.8L486.5,501.8z M510.7,496v-1.9l-12.5-7.1
	l-1.8,0.7v6.3l8.4,5.2L510.7,496z M493.3,474.5c1,0.3,2-0.3,2.3-1.4c0.3-1.1-0.2-2.1-1.2-2.4c-1-0.3-2,0.3-2.3,1.4
	C491.8,473.2,492.3,474.3,493.3,474.5z M540.1,687.1c-1.2,0-2.2,1-2.2,2.2v7.6c0,1.2,1,2.2,2.2,2.2h23.4c1.2,0,2.2-1,2.2-2.2v-7.6
	c0-1.2-1-2.2-2.2-2.2H540.1z M757.3,492.1l4.6-7.6v-1.9h-17.4l-0.9,1.6l4.1,7.8H757.3z M775.3,505.6h-9.2l-4.9,8.3v1.9l4.9,7.4h8.3
	l3.4-3l-0.6-12.8L775.3,505.6z M770.7,485.5c1.1,0,2-0.9,2-2s-0.9-2-2-2c-1.1,0-2,0.9-2,2S769.6,485.5,770.7,485.5z M767.7,546.9
	l-2.4,0.7l-2.3,5.2v1.2l1.2,0.4h11.7l2-1.5v-3.8l-2.2-2.4L767.7,546.9z M761.2,494l4.7,8.4h9.1l2.3-2.6v-10.9l-1.6-1.6h-10.9
	l-3.6,4.7V494z M776,526.1h-9.7l-4.8,8.1v2.6l4.8,7.3h8.9l2.8-2.6l-0.3-13.1L776,526.1z M743,525.6l5.2,8.1h9.7l5.1-8.5v-1.6
	l-4.8-7.8h-10l-5.2,8.5V525.6z M731,547.4l-2.2,2.5l0.3,3.9l0.8,0.5l13.1,0l0.7-0.9v-1.8l-3.5-4.8L731,547.4z M762.6,504.5V503
	l-4.7-7.9l-0.9-0.5h-8.3l-1.2,0.5l-4.7,9.1l5,8.7h10L762.6,504.5z M730.9,526.1l-2.1,2.7v13.8l2.1,2.1l9.4-0.5l4.2-7.1v-3.6
	l-4.5-7.3H730.9z M763.1,544.3l-5.1-7.6h-9.5l-4.8,8.5v1l4.8,8.1h9.7l4.9-8.8V544.3z M734.9,485.5c1.1,0,2-0.9,2-2s-0.9-2-2-2
	c-1.1,0-2,0.9-2,2S733.8,485.5,734.9,485.5z M704.7,462l-0.6-0.3c-0.9-0.5-2-0.2-2.5,0.7L600.7,644.2c-0.5,0.9-0.2,2,0.7,2.5
	l0.6,0.3c0.9,0.5,2,0.2,2.5-0.7l100.9-181.8C705.9,463.6,705.5,462.5,704.7,462z M695.9,574.9c-0.9,0-1.7,0.8-1.7,1.9
	c0,1,0.8,1.9,1.7,1.9c0.9,0,1.7-0.8,1.7-1.9C697.6,575.8,696.8,574.9,695.9,574.9z M544.3,729h-2.2c-0.8,0-1.4,0.6-1.4,1.4v5.8
	c0,0.8,0.6,1.4,1.4,1.4h2.2c0.8,0,1.4-0.6,1.4-1.4v-5.8C545.7,729.7,545.1,729,544.3,729z M473.7,562.7l0-6.5l-9.4-5l-5.1,3.2v2.3
	l12.6,6.9L473.7,562.7z M565.7,669.3v-10c0-0.5-0.4-0.9-0.9-0.9h-25.9c-0.5,0-0.9,0.4-0.9,0.9v10c0,0.5,0.4,0.9,0.9,0.9h25.9
	C565.3,670.2,565.7,669.8,565.7,669.3z M695.8,572.3l4,2.8l1.2-1.7l-4-2.8L695.8,572.3z M739.8,502.4l4.7-8.1V492l-2.9-4.3h-11.8
	l-1.6,1.4v11.6l1.6,1.7H739.8z M730.5,523.9h9.3l4.7-8.1l0.3-3l-4.7-7.2h-9.6l-2.3,2.9l0.3,12.9L730.5,523.9z M693.8,560.9l-2.2-1.4
	c-1.4-0.9-3.2-0.4-4,0.9l-10,16.1c-0.8,1.4-0.4,3.2,0.9,4l2.2,1.4c1.4,0.9,3.2,0.4,4-0.9l10-16.1
	C695.6,563.6,695.1,561.7,693.8,560.9z M690.7,580.5l4.1,2.9l1.2-1.8l-4.1-2.9L690.7,580.5z M137.1,495.4l-0.9,0.4l-18.8,30.4v1
	l0.9,0.5h37.2l1-0.5l0.4-2.2l-19.1-29.2L137.1,495.4z M245.6,290.5c0.9,0,1.6-0.7,1.6-1.7s-0.7-1.7-1.6-1.7c-0.9,0-1.6,0.7-1.6,1.7
	S244.7,290.5,245.6,290.5z M329.4,194.5c-0.6,3.4-1.3,6.6-2.3,9.8c-0.8,2.5-0.3,3.5,2.3,3.6c3.8,0,7.7,0,11.5,0c3.8,0,7.5,0,11.3,0
	c2.9,0,4-1.1,4-4.1l0-11.4l-2-2.1h-20.6C329.9,190.3,329.8,192,329.4,194.5z M504.8,185.4c-1.1,0-2,0.5-2,1.4c0,0.9,0.7,1.8,1.8,1.8
	s1.8-1,1.8-1.8C506.5,185.9,505.9,185.4,504.8,185.4z M471.2,223.9c-2.5,0-4.6,2.1-4.6,4.6c0,2.5,2,4.6,4.6,4.6
	c2.5,0,4.6-2.1,4.6-4.6C475.8,226,473.7,223.9,471.2,223.9z M296.5,192.1h10v-10.1h-10V192.1z M519,205.6c-0.9,0-1.7,0.6-1.7,1.3
	s0.8,1.3,1.7,1.3c0.9,0,1.7-0.6,1.7-1.3S520,205.6,519,205.6z M388.5,207.4l0.6-2.3l-3.8-13.7l-2-1l-22.2,0.4l-1.1,1.7V206l2.4,1.9
	L388.5,207.4z M379.7,161.8v-1.4l-11.2-20.9l-1.5,1v0.9l1.1-0.6L379.7,161.8z M380,152.9c1.4,2.5,2.7,5,4.1,7.5
	c3.1-1.7,5.8-3.1,8.5-4.6c1.2-0.6,1.6-1.4,0.8-2.7c-1.5-2.5-2.8-5.2-4.2-7.7c-2.5-4.5-5-9-7.4-13.5c-0.8-1.4-1.5-1.4-2.7-0.7
	c-2.2,1.3-4.5,2.6-6.8,3.7c-1.3,0.6-1.4,1.3-0.7,2.5C374.4,142.5,377.2,147.7,380,152.9z M392.2,204.2c1.3,2.1,4.8,0,6.9-1.3
	l11.1-6.4c2.1-1.3,2.2-3.5,2-6.2L412,182c0.5-5.8-1.1-6.3-3.5-5.3l-18.9,11.7c-2.1,1.3-1.1,3.9,0.2,6L392.2,204.2z M690,229.4
	c-0.7,0-1.2,0.6-1.2,1.3c0,0.7,0.6,1.3,1.2,1.3c0.7,0,1.2-0.6,1.2-1.3C691.2,230,690.7,229.4,690,229.4z M399.2,708.8l7,5
	c0.7,0.5,1.7,0.3,2.1-0.4l14.5-20.9c0.5-0.7,0.3-1.7-0.4-2.2l-7-5c-0.7-0.5-1.7-0.3-2.1,0.4l-14.5,20.9
	C398.3,707.3,398.5,708.3,399.2,708.8z M462.3,254c1,0,1.9-0.8,1.9-1.9c0-1-0.8-1.9-1.9-1.9c-1,0-1.9,0.8-1.9,1.9
	C460.4,253.2,461.2,254,462.3,254z M454.5,256c1.3,0,2.3-1,2.3-2.3s-1-2.3-2.3-2.3c-1.3,0-2.3,1-2.3,2.3S453.2,256,454.5,256z
	 M418.1,260.7c-0.9,5.3,1.3,9.8,5.9,12.5c2,1.2,3.9,2.6,6,3.8c1,0.6,2.2,1.1,3.3,1.2c7.7,0.7,16.4-7.3,15.7-15.3
	c0.4-7.1-4.9-13.4-11.2-15.1C428.4,245.2,419.7,251.1,418.1,260.7z M486.1,220.2l-10.9-7.9c-1-0.7-2.4-0.5-3.2,0.5l-2.2,3.1
	c-0.7,1-0.5,2.4,0.5,3.2l10.9,7.9c1,0.7,2.4,0.5,3.2-0.5l2.2-3.1C487.3,222.4,487.1,221,486.1,220.2z M438.4,198.3
	c0,1.3,1,2.4,2.3,2.4s2.3-1.1,2.3-2.4c0-1.3-1-2.4-2.3-2.4S438.4,197,438.4,198.3z M429.4,239.5c0,1.3,1,2.4,2.3,2.4
	c1.3,0,2.3-1.1,2.3-2.4c0-1.3-1-2.4-2.3-2.4C430.4,237.1,429.4,238.2,429.4,239.5z M484,209c0,1.1,1,2,2.3,2s2.3-0.9,2.3-2
	s-1-2-2.3-2S484,207.9,484,209z M454.7,116.9c-1,0-1.8,0.8-1.8,1.8s0.8,1.8,1.8,1.8c1,0,1.8-0.8,1.8-1.8S455.7,116.9,454.7,116.9z
	 M466.9,160.9c-1.3,0-2.4,1.1-2.4,2.4c0,1.3,1.1,2.4,2.4,2.4c1.3,0,2.4-1.1,2.4-2.4C469.3,162,468.2,160.9,466.9,160.9z
	 M454.4,122.9c-1,0-1.8,0.8-1.8,1.8c0,1,0.8,1.8,1.8,1.8c1,0,1.8-0.8,1.8-1.8C456.2,123.7,455.4,122.9,454.4,122.9z M325.3,188.2
	l-4.9-2.8c-1.7-1-2.6-0.4-2.7,1.3c-0.1,5-2.3,8.7-6.4,11.4c-1.2,0.8-1.3,1.9,0.1,2.7c2.7,1.6,5.4,3.1,8.1,4.6c2,1.1,3.5,0.7,4.1-1.4
	c1.2-4.2,2.2-8.6,3.4-13.4C326.5,189.9,326.1,188.8,325.3,188.2z M205.8,543.2c1.1,0.5,2.3,0,2.8-1.1s0-2.3-1.1-2.8
	c-1.1-0.5-2.3,0-2.8,1.1C204.2,541.5,204.7,542.7,205.8,543.2z M226.7,585.1c-0.6-0.3-1.4,0-1.7,0.7s0,1.4,0.7,1.7
	c0.6,0.3,1.4,0,1.7-0.7C227.6,586.2,227.3,585.4,226.7,585.1z M162,451.9c0.6,0,1.1-0.5,1.1-1.1c0-0.6-0.5-1.1-1.1-1.1
	s-1.1,0.5-1.1,1.1C160.9,451.4,161.4,451.9,162,451.9z M196.4,566.3c-1-0.4-2.2,0.2-2.7,1.4c-0.5,1.2-0.1,2.5,0.8,2.9
	c1,0.4,2.2-0.2,2.7-1.4C197.8,568,197.4,566.7,196.4,566.3z M220.5,546c-7.1-3.4-13.2,0.3-13.2,0.3l-7.9,19.1c0,0,0.9,6.3,8.6,9.5
	c7.9,3.3,17-0.1,20.3-7.9C231.8,559.2,230.4,550.7,220.5,546z M162.4,530.9c0.6,0,1.1-0.5,1.1-1.1s-0.5-1.1-1.1-1.1
	c-0.6,0-1.1,0.5-1.1,1.1S161.8,530.9,162.4,530.9z M398.9,673.9l-1.4-1c-0.4-0.3-1-0.2-1.3,0.2l-15.1,21.7c-0.3,0.4-0.2,1,0.2,1.3
	l1.4,1c0.4,0.3,1,0.2,1.3-0.2l15.1-21.7C399.4,674.8,399.3,674.2,398.9,673.9z M395.5,703.3l14-19.7l-0.5-0.4
	c-0.2,0.2-14,19.7-14,19.7L395.5,703.3z M432.4,733.9c1.2,0,2.2-1,2.2-2.3c0-1.2-1-2.3-2.2-2.3c-1.2,0-2.2,1-2.2,2.3
	C430.2,732.9,431.2,733.9,432.4,733.9z M240.3,552.8c0.6,0.3,1.3-0.1,1.5-0.7s0-1.4-0.6-1.6c-0.6-0.3-1.3,0.1-1.5,0.7
	S239.7,552.5,240.3,552.8z M505.4,223.9L269.6,641.1l101.1-0.8l234.1-417.1L505.4,223.9z M133.4,489.1L110.7,454h-2.8l-2.4,3.2v67.3
	l2.4,2.8h2.8l23.4-35.8L133.4,489.1z M216.2,270.5c-0.9,0-1.7,0.7-1.7,1.5c0,0.8,0.8,1.5,1.7,1.5c0.9,0,1.7-0.7,1.7-1.5
	C217.9,271.2,217.2,270.5,216.2,270.5z M114.1,405h-2.7c-0.7,0-1.3,0.6-1.3,1.3v6c0,0.7,0.6,1.3,1.3,1.3h2.7c0.7,0,1.3-0.6,1.3-1.3
	v-6C115.4,405.6,114.8,405,114.1,405z M283.8,222.6c0.7,0,1.3-0.7,1.3-1.5c0-0.8-0.6-1.5-1.3-1.5s-1.3,0.7-1.3,1.5
	C282.5,222,283.1,222.6,283.8,222.6z M254.3,205.9c0.8,0,1.4-0.6,1.4-1.3c0-0.7-0.6-1.3-1.4-1.3s-1.4,0.6-1.4,1.3
	C252.9,205.3,253.5,205.9,254.3,205.9z M145.4,556.5c-1,0-1.8,1-1.8,2.3s0.8,2.3,1.8,2.3s1.8-1,1.8-2.3S146.4,556.5,145.4,556.5z
	 M112.3,529c-0.6,0-1.2,0.5-1.2,1.2s0.5,1.2,1.2,1.2c0.6,0,1.2-0.5,1.2-1.2S112.9,529,112.3,529z M429.7,234.1c1.2,0,2.2-0.9,2.2-2
	c0-1.1-1-2-2.2-2s-2.2,0.9-2.2,2C427.5,233.2,428.5,234.1,429.7,234.1z M111.8,452.4c0.6,0,1.1-0.5,1.1-1.1c0-0.6-0.5-1.1-1.1-1.1
	c-0.6,0-1.1,0.5-1.1,1.1C110.7,451.9,111.2,452.4,111.8,452.4z M248.9,256.6l7.9,4.6c0.4,0.2,1,0.1,1.2-0.3l18.2-31.8
	c0.2-0.4,0.1-1-0.3-1.2l-7.9-4.6c-0.4-0.2-1-0.1-1.2,0.3l-18.2,31.8C248.4,255.8,248.5,256.3,248.9,256.6z M137.7,484.7l18.7-29.9
	l-1.4-1.9l-36.6,0.4l-1.6,1.3l19.3,30.2H137.7z M222.9,226.2c1.2,0,2.2-1,2.2-2.1c0-1.2-1-2.1-2.2-2.1c-1.2,0-2.2,1-2.2,2.1
	C220.6,225.2,221.6,226.2,222.9,226.2z M116.7,586.1c0.6,0,1.1-0.7,1.1-1.5s-0.5-1.5-1.1-1.5c-0.6,0-1.1,0.7-1.1,1.5
	S116,586.1,116.7,586.1z M111.4,321.4l3.9-7.4v-2.5l-4.4-7.1h-9.6l-1.7,2.7v12.5l2,2.6L111.4,321.4z M116.7,610.9
	c0.6,0,1.1-0.5,1.1-1.2c0-0.6-0.5-1.2-1.1-1.2c-0.6,0-1.1,0.5-1.1,1.2C115.5,610.4,116,610.9,116.7,610.9z M175,637l0.9-1.4
	l-27.4-36.3l-1.4-0.7l-1,0.7l-10.6,40.3v2.2l0.4,0.6L175,637z M146,593.5c0.6,0,1-0.6,1-1.2c0-0.7-0.5-1.2-1-1.2s-1,0.6-1,1.2
	C145,592.9,145.4,593.5,146,593.5z M110.5,301.1l5-7.8v-2l-1.3-1.4h-13.4l-1.2,1.4v7.8l1.2,2.1H110.5z M141.5,283.5
	c0.9,0,1.6-1,1.6-2.2c0-1.2-0.7-2.2-1.6-2.2s-1.6,1-1.6,2.2C140,282.5,140.7,283.5,141.5,283.5z M146.1,301.1l2-2.6v-8.3l-1-1h-12.9
	l-2,1.4v2.5l3.9,7.3L146.1,301.1z M131.1,644.5c-0.6,0-1,0.5-1,1c0,0.6,0.5,1,1,1c0.6,0,1-0.5,1-1
	C132.1,644.9,131.7,644.5,131.1,644.5z M114.2,304.1l5.2,7.4h9.5l4.5-8l-0.3-2.3l-4.3-7.2h-10.1l-4.5,7.8V304.1z M105.8,283.8
	c0.6,0,1.1-0.9,1.1-2.1c0-1.1-0.5-2.1-1.1-2.1c-0.6,0-1.1,0.9-1.1,2.1C104.6,282.9,105.2,283.8,105.8,283.8z M305.6,714.4
	l-12.6,20.5l0.6,0.3l12.5-20.4L305.6,714.4z M270.3,655.1c-0.7,0-1.3,0.6-1.3,1.3c0,0.7,0.6,1.3,1.3,1.3c0.7,0,1.3-0.6,1.3-1.3
	C271.6,655.6,271,655.1,270.3,655.1z M148.1,319v-13l-1.7-2.2l-9.6,0.5l-4.6,8.9l4.6,8.2l9.7,0.3L148.1,319z M294.9,705.4l-0.8-0.5
	c-0.6-0.4-1.4-0.2-1.8,0.4l-14,22.4c-0.4,0.6-0.2,1.4,0.4,1.8l0.8,0.5c0.6,0.4,1.4,0.2,1.8-0.4l14-22.4
	C295.7,706.6,295.5,705.8,294.9,705.4z M319.7,721.3l-7.8-4.9c-0.7-0.5-1.7-0.2-2.2,0.5l-13.4,21.5c-0.5,0.7-0.2,1.7,0.5,2.2
	l7.8,4.9c0.7,0.5,1.7,0.2,2.2-0.5l13.4-21.5C320.6,722.8,320.4,721.8,319.7,721.3z M418.5,768.8l4.9-7.8v-2.2l-12.4-8.1l-2.9,0.8
	l-5,8.2v1.3l5,7.8H418.5z M184.6,643l-1.2-0.2l-1.2,0.7l-2.6,19.7l0.7,1.1l1.3,0.2l16-10.6l0.6-1.3l-1.1-1.2L184.6,643z
	 M174.8,641.4l-42.2,6.4v2.8l1.4,1.9l34.4,19.6h3.3l1.8-2l3.9-25.9l-0.8-1.8L174.8,641.4z M181,639.6c0.7,0,1.3-0.6,1.3-1.3
	c0-0.7-0.6-1.3-1.3-1.3c-0.7,0-1.3,0.6-1.3,1.3C179.7,639,180.3,639.6,181,639.6z M203.1,651.5c-0.7,0-1.2,0.6-1.2,1.2
	s0.6,1.2,1.2,1.2c0.7,0,1.2-0.6,1.2-1.2S203.8,651.5,203.1,651.5z M176.1,669.8c-0.7,0-1.3,0.5-1.3,1.1s0.6,1.1,1.3,1.1
	s1.3-0.5,1.3-1.1S176.8,669.8,176.1,669.8z M295.2,657.6c0.8,0,1.4-0.6,1.4-1.2c0-0.7-0.6-1.2-1.4-1.2c-0.8,0-1.4,0.6-1.4,1.2
	C293.8,657,294.4,657.6,295.2,657.6z M207.7,222.1c-1.3,0-2.3,1-2.3,2.1c0,1.2,1,2.1,2.3,2.1c1.3,0,2.3-1,2.3-2.1
	C209.9,223.1,208.9,222.1,207.7,222.1z M137.9,240.4c0.8,0,1.5-0.7,1.5-1.5s-0.7-1.5-1.5-1.5c-0.8,0-1.5,0.7-1.5,1.5
	S137,240.4,137.9,240.4z M162.7,237.5c-5.2-7.7-10.3-15.4-15.6-23.1c-1,0.8-1.7,1.5-2.5,2.1c4.7,7,9.5,13.8,13.9,20.9
	C160,239.5,161,239.3,162.7,237.5z M159.1,209.2l12.5,18.9l-0.1,1.2l1.5-0.5l-13.8-20.4l-1.5,0.8l0.4,0.6L159.1,209.2z M111.1,251
	c-1.3,0-2.3,1-2.3,2.3c0,1.3,1,2.3,2.3,2.3s2.3-1,2.3-2.3C113.4,252,112.4,251,111.1,251z M137.7,341.2l-5.6,8.5v1.3l4.7,7.9h9.9
	l1.5-2.1l0.3-13.2l-1.7-2.4H137.7z M123.8,218.7c0.9,0,1.6-0.7,1.6-1.6c0-0.9-0.7-1.6-1.6-1.6c-0.9,0-1.6,0.7-1.6,1.6
	C122.3,218,123,218.7,123.8,218.7z M292.1,156.3l3.1,0.7c1.3,0.3,2.5-0.5,2.8-1.8l2.6-12.9c0.2-1.1-0.5-2.2-1.6-2.4l-3-0.6
	c-1.1-0.2-2.1,0.5-2.3,1.5l-3.1,12.8C290.2,154.9,290.9,156.1,292.1,156.3z M282.8,148.2c1.2,0,2.2-1,2.2-2.2s-1-2.2-2.2-2.2
	c-1.2,0-2.2,1-2.2,2.2S281.6,148.2,282.8,148.2z M185.5,222.2c1.2-0.8,1-1.6,0.3-2.7c-4.6-6.7-9-13.4-13.7-20.1
	c-0.3-0.5-1.7-0.9-2.1-0.6c-2.8,1.7-5.4,3.6-8.4,5.7c5.3,7.9,10.5,15.6,15.6,23.3C180.2,225.8,182.8,224,185.5,222.2z M397.5,764.9
	l-7.6,12.5v1.6l1.5,0.7h7.9l5.7-8.1v-1.4l-3.7-7h-2L397.5,764.9z M203,188.8c1.3,0,2.4-1.1,2.4-2.5s-1.1-2.5-2.4-2.5
	c-1.3,0-2.4,1.1-2.4,2.5S201.7,188.8,203,188.8z M131,239.1c1.8-1.2,1.8-2.6,0.7-4.2c-2.2-3.3-4.5-6.6-6.6-10
	c-1-1.5-2.2-1.5-3.3-0.8c-4.9,3.1-9.6,6.3-14.6,9.5c3.3,5,6.4,9.8,9.7,14.8C121.8,245.2,126.4,242.1,131,239.1z M119.5,326.7
	c0-0.8-0.5-1.5-1.1-1.5c-0.6,0-1.1,0.7-1.1,1.5s0.5,1.5,1.1,1.5C119,328.2,119.5,327.5,119.5,326.7z M115.4,343.7l3.8,5.3l9.2-0.2
	l3.7-5.4v-2.1l-15.2-0.2h-0.3l-1.2,1.6V343.7z M132.2,320l-3.6-5.4h-9.2l-3.4,5.1v2H131L132.2,320z M137.1,362l-5,8.2l0.1,1.9
	l1.5,2.1h12.9l1.5-1.6l0.4-7.7l-1.6-2.8H137.1z M142,379.2c-0.8,0-1.5,1-1.5,2.3c0,1.3,0.7,2.3,1.5,2.3s1.5-1,1.5-2.3
	C143.4,380.2,142.8,379.2,142,379.2z M106,379.2c-0.8,0-1.4,1.1-1.4,2.4c0,1.3,0.6,2.4,1.4,2.4c0.8,0,1.4-1.1,1.4-2.4
	C107.3,380.3,106.7,379.2,106,379.2z M110.4,359.2l5.1-7.7v-2.8l-4.5-7.3l-9.2,0.2l-1.8,2.3v12.8l1.8,2.6H110.4z M101.6,236
	c0-1.2-0.9-2.1-2.1-2.1c-1.2,0-2.1,0.9-2.1,2.1s0.9,2.1,2.1,2.1C100.7,238.1,101.6,237.2,101.6,236z M133.7,359.2l-4.8-7.5h-9.4
	l-5.1,8.1v2.1l5.4,7.8h8.4l5.6-8.3V359.2z M102,362l-2.3,3v7.8l1.2,1.3h13l1.6-2.1l0.6-2.3l-5.6-7.7H102z M118.4,337.9
	c0.7,0,1.2-0.6,1.2-1.5c0-0.8-0.5-1.4-1.2-1.4s-1.2,0.6-1.2,1.4C117.2,337.3,117.8,337.9,118.4,337.9z M772.1,615.1
	c-1.3,0-2.4,1.1-2.4,2.4c0,1.4,1.1,2.4,2.4,2.4c1.3,0,2.4-1.1,2.4-2.4C774.6,616.2,773.5,615.1,772.1,615.1z M605,704.8
	c-1.3,0-2.3,1-2.3,2.2c0,1.2,1,2.2,2.3,2.2c1.3,0,2.3-1,2.3-2.2C607.3,705.7,606.3,704.8,605,704.8z M604.7,666.2
	c-1.2,0-2.1,1-2.1,2.3c0,1.3,1,2.3,2.1,2.3c1.2,0,2.1-1,2.1-2.3C606.9,667.2,605.9,666.2,604.7,666.2z M718.8,627.1l5.1,9l10-0.3
	l4.8-9.4l-5-8.6h-9.8L718.8,627.1z M586,729.4c-1,0-1.8,0.8-1.8,1.8c0,1,0.8,1.8,1.8,1.8c1,0,1.8-0.8,1.8-1.8
	C587.8,730.2,587,729.4,586,729.4z M729.8,607.1c1,0,1.9-0.8,1.9-1.9s-0.8-1.9-1.9-1.9c-1,0-1.9,0.8-1.9,1.9
	S728.8,607.1,729.8,607.1z M628,671.2c-8.8,0-15.9,7.2-15.9,16c0,8.8,7.1,16,15.9,16c8.8,0,15.9-7.2,15.9-16
	C643.9,678.3,636.8,671.2,628,671.2z M473.6,720.4h-8.4c-1,0-1.8,0.8-1.8,1.8V747c0,1,0.8,1.8,1.8,1.8h8.4c1,0,1.8-0.8,1.8-1.8
	v-24.8C475.3,721.2,474.6,720.4,473.6,720.4z M558.1,747.9c-2.5,0-4.5,1.9-4.5,4.3c0,2.4,2,4.3,4.5,4.3c2.5,0,4.5-1.9,4.5-4.3
	C562.6,749.8,560.6,747.9,558.1,747.9z M535.6,768.5c0.1,0.1,0.5,0.7,0.5,0.7l2.2-1.2l-0.7-0.7L535.6,768.5z M549,755.8
	c-1.2,0-2.1,0.8-2.1,1.7c0,0.9,0.9,1.7,2.1,1.7c1.2,0,2.1-0.8,2.1-1.7C551,756.6,550.1,755.8,549,755.8z M543.2,759.6
	c-0.9,0-1.7,0.8-1.7,1.7s0.8,1.7,1.7,1.7c0.9,0,1.7-0.8,1.7-1.7S544.1,759.6,543.2,759.6z M503.2,720.4h-9.6c-0.6,0-1.1,0.5-1.1,1.1
	v26.2c0,0.6,0.5,1.1,1.1,1.1h9.6c0.6,0,1.1-0.5,1.1-1.1v-26.2C504.3,720.9,503.9,720.4,503.2,720.4z M722.7,614.5l1,0.6h4.6l0.7-0.9
	v-2l-5.4-8.8l-0.6-0.7h-2l-2.3,2.6v1.9l0.7,1.3L722.7,614.5z M306.9,154.6c2.5,0,4.6-1.8,4.6-4s-2.1-4-4.6-4c-2.5,0-4.6,1.8-4.6,4
	S304.4,154.6,306.9,154.6z M739.4,632.4l-2.4,4.2v2.2l4.9,6.9l1.4,1l2-1l1.6-1.6v-1.9l-5.7-9.4L739.4,632.4z M805.3,645.1
	C803,646.2,446,856.2,441.2,859c-7.7-4.4-366.8-213.9-367.3-214.9c-0.1-0.2-1.4-392.3-1.4-421.2c6.2-3.6,356.4-209,363-213
	C437,10.9,796,215.6,800.8,218.3c0,0,0,0,0,0.1C800.8,218.5,805.3,645.1,805.3,645.1z M798,638.1c0,0-4.4-416.3-4.4-416.4
	c0,0,0-0.1,0-0.1c-4.7-2.7-356.7-204-358.3-204.9c-6.4,3.9-349.8,205.9-355.9,209.5c0,28.4,1.3,414.1,1.4,414.3
	c0.5,0.9,351.9,204.3,359.5,208.6C445,846.4,795.7,639.2,798,638.1z M399.3,759.2c0-1-0.8-1.8-1.8-1.8c-1,0-1.8,0.8-1.8,1.8
	c0,1,0.8,1.8,1.8,1.8C398.5,761,399.3,760.2,399.3,759.2z M748.2,634.1c-1,0-1.9,0.8-1.9,1.9c0,1,0.8,1.9,1.9,1.9
	c1,0,1.9-0.8,1.9-1.9C750.1,635,749.3,634.1,748.2,634.1z M693.6,629.1l-15,8.7l6.2,10.7l15-8.7L693.6,629.1z M706.1,626h1.3
	l8.5-0.4l4.3-7.5l0.5-1.7l-0.7-1.8l-3.8-6.2l-0.8-0.5h-3.1l-10.3,6.4l-1.2,1.7v1.9l4,6.8L706.1,626z M689.2,656l6.2,10.7l15-8.7
	l-6.2-10.7L689.2,656z M721.1,636.7l-5.4-8.1h-8.4l-1.1,0.6l-0.5,1.3l0.4,1.2l8.4,14.1l1.2,1l0.9-1l4.1-7.8L721.1,636.7z
	 M723.9,639.2l-4.8,8.6v1.4l4.8,7.5l3.6,0.3l10.5-6.9l0.8-1.2v-1.7v-1.5l-4.1-6.9L723.9,639.2z M786.3,225.8
	c0.2,9.2,3.2,391.4,3.5,407.4c-2.1,2.1-349.6,207.1-349.6,207.1S96.5,642.5,88.5,637.8c0-0.6-1.5-407.2-1.5-407.2
	S434.3,25.8,435,25.5C435.1,25.5,786.2,224.8,786.3,225.8z M780.9,480.1c-18.7,0-37.3,0-56.1,0c-0.1,1-0.1,1.7-0.1,2.4
	c0.1,12.8,0.2,25.6,0.3,38.4c0.1,12.2,0.2,24.4,0.2,36.6c0,7.4,0,14.9,0.1,22.3c0,2.9,0.5,3.3,3.6,3.3c0-6.7,0-13.2,0-19.7
	c0-5.5,0-5.5,5.4-5.5c1.3,0,2.5,0.2,3.8,0.4c0.9,0.2,1.8,1.1,2.7,0.9c2.2-0.3,4.3-1.2,6.4-1.4c4.5-0.3,9-0.2,13.5-0.3
	c0.7,0,1.4,0.2,2.1,0.4c0.8,0.3,1.6,0.9,2.5,1c1.6,0,3,0.1,4.7-1.1c1.5-1,4.1-0.3,6.2-0.4c1.5-0.1,2,0.5,2,2c0,3.3,0.1,6.6,0.1,9.9
	c0,3.9,0,7.8,0.1,11.6c0,0.6,0.8,1.6,1.2,1.6c0.8-0.1,1.8-0.6,2.3-1.2c0.4-0.6,0.2-1.6,0.2-2.4c-0.2-21.7-0.3-43.4-0.5-65.1
	c-0.1-9-0.1-18-0.3-27C781.3,484.8,781.1,482.5,780.9,480.1z M707.1,561.5c0.6-0.7,1.1-2.4,0.8-2.8c-1.5-1.6-1.1-3.2-0.7-4.9
	c0.4-1.7-0.1-2.8-1.6-3.7c-2-1.2-3.9-2.7-6-3.8c-0.7-0.4-2,0-2.8,0.3c-1.3,0.5-2.5,2-3.6,1.8c-2-0.3-2.5,0.7-3.4,2
	c-3.9,6.3-7.9,12.6-11.9,18.8c-3.2,5-6.3,10.1-9.6,15.3c5.2,3.4,9.9,6.6,14.7,9.7c1.4,0.9,2.6,1.2,3.6-0.7c1.3-2.3,2.9-4.3,6-4.4
	c0.5,0,1.2-0.8,1.6-1.4c3.7-5.7,7.4-11.4,10.9-17.1c0.6-0.9,0.8-2.4,0.6-3.5C705.3,565,705.7,563.3,707.1,561.5z M713.9,471.4
	c0.8-1.4,1.4-2.9,2.3-4.8c-0.8-1.1-1.4-2.6-2.5-3.2c-5.1-3.1-10.4-6-15.7-8.9c-2.9-1.6-4.7-1.1-6.4,1.7c-2.3,3.9-4.5,7.8-6.7,11.7
	c-6,10.6-11.9,21.3-17.8,31.9c-1.1,2-2.4,4.1-1.6,6.7c0.8,2.4,0.3,4.5-1,6.8c-6.4,11.2-12.5,22.6-18.8,33.9
	c-7.3,13.1-14.8,26.2-22.1,39.4c-1.2,2.2-2.9,3.1-4.9,4.1c-1.4,0.7-2.9,1.6-3.6,2.9c-4.8,8.2-9.3,16.5-13.9,24.8
	c-3.8,6.8-7.7,13.7-11.5,20.5c-1.6,2.8-1.2,5.2,1.7,7c5.2,3.1,10.4,6,15.7,8.8c2.3,1.2,4.5,0.4,5.8-1.9c4.1-7.4,8.1-14.8,12.2-22.1
	c3.7-6.6,7.5-13.1,11-19.7c1.6-3,4.3-5.8,2.7-9.8c-0.8-1.9-0.1-3.5,0.8-5.1c7-12.7,14.1-25.3,21.1-37.9c6.7-12,13.4-24,20-36
	c1.2-2.1,2.7-3.5,5.2-4.1c1.2-0.3,2.5-1.3,3.1-2.4c2.6-4.3,5-8.8,7.4-13.2C702.4,492,708.2,481.7,713.9,471.4z M563.9,680.1
	c1.3-0.1,2.6,0,3.7,0c3.8,0,4.4-0.9,4.4-4.8c0-6.3,0-12.6,0-18.8c0-4-1.2-5.1-5.2-5.2c-9.1-0.1-18.2-0.2-27.3-0.2
	c-1.9,0-3.8,0-5.6,0.3c-1.9,0.3-3,1.6-3,3.6c-0.1,7.3-0.1,14.5-0.2,21.8c0,1.7,0.9,2.8,2.6,2.8c1.8,0,4.7,0,6.4,0
	c0,0.2,0.1,0.4,0.1,0.5c-1.6,0-4.3,0-6,0c-2,0-3.1,0.6-3.1,2.7c-0.1,6-0.2,12.1-0.1,18.1c0,2.9,1.8,4.7,4.6,4.7c11,0.1,22,0.1,33,0
	c1.9,0,3.5-1.3,3.6-3.3c0.2-6.5,0.3-13,0.3-19.5c0-1.6,0.3-2.2-1.5-2.1c-1.6,0.1-6.5,0.1-6.5,0.1S563.9,680.2,563.9,680.1z
	 M554.2,726.6c-0.1-2.5-1.3-3.7-3.9-3.7c-2.5,0-5.1,0-7.6,0c-2.5,0-5.1,0-7.6,0c-2.8,0-4.2,1.4-4.2,4.2c0,3.9,0,7.7,0,11.6
	c0,3.2,1.9,5.1,5,5c5.1-0.1,10.3-0.3,15.4-0.5c1.9-0.1,2.9-1.3,2.9-3.2C554.2,735.5,554.3,731.1,554.2,726.6z M577.2,645.9
	L702,422.8l-117,1l-125,222.9L577.2,645.9z M469,689.1c-0.4,6,3.2,9,8.6,8.9c13.1-0.3,26.2-0.2,39.3-0.3c3.3,0,3.4-0.1,3.4-3.5
	c0-11.7-0.1-23.4-0.2-35.2c0-3-0.5-3.5-3.4-3.4c-13.6,0.2-27.3,0.3-40.9,0.5c-4.1,0-6.7,2.5-6.8,6.7c-0.1,1.8,0,3.6,0,5.7
	c-2.7,0-5.2,0-7.6,0c-2.9,0.1-4.1,1.2-4.1,4.1c0,2.9,0.1,5.8,0.1,8.7c0,3.3,1.2,4.6,4.5,4.6c2.3,0,4.7,0,7.1,0
	C469,687.2,469.1,688.1,469,689.1z M468.3,574.9c-0.3,1.9,0.6,3.4,2.4,4.4c2.8,1.5,5.4,3.2,8.2,4.8c2.4,1.4,4.8,0.7,6.2-1.8
	c4-7.2,8-14.4,12.1-21.7c4.3-7.7,8.6-15.4,12.9-23.1c4.4-7.9,8.7-15.9,13.2-23.8c3.3-5.9,6.6-11.7,9.9-17.5c1.4-2.5,0.9-4.7-1.3-6
	c-3.1-1.8-6.3-3.4-9.4-5.2c-1.6-0.9-3-0.7-4.2,0.4c-1.3,1.2-2.5,1.1-4,0.2c-4-2.4-8.1-4.6-12-7.1c-0.7-0.4-1.2-1.7-1.2-2.5
	c0.1-2-0.3-3.5-2.2-4.5c-2.9-1.6-5.8-3.2-8.7-4.8c-2.7-1.4-4.7-0.7-6.2,2.1c-3,5.5-6,10.9-9.1,16.3c-3.5,6.3-7,12.5-10.6,18.9
	c1.5,0.9,2.8,1.7,4.2,2.6c-2,3.6-4,7.1-5.9,10.6c-2.1,3.8-2.1,3.8-6,2.1c-0.1-0.1-0.3-0.1-0.5-0.2c-0.4,0.5-0.8,1-1.2,1.6
	c-6.3,11.4-12.6,22.8-18.8,34.2c-1.3,2.3-0.7,4.6,1.4,5.9c2.7,1.6,5.4,3.1,8.1,4.5c1.9,1.1,3.8,1.1,5.8-0.1c0.8-0.5,2.3-0.5,3.2-0.1
	c4.1,2.1,8.1,4.6,12.1,6.8C468.1,572.4,468.5,573.3,468.3,574.9z M447.5,662.2c0,1.8,0,3.3,0,4.8c0,3.6,0,3.6,4.1,3.2
	c0-5.7,0.1-11.3-0.1-16.9c-0.1-2.5-2-4.2-4.3-4.2c-7.9,0-15.9-0.1-23.8,0c-2.3,0-4.6,1.7-4.7,3.6c-0.1,5.8,0,11.7,0,17.5
	c1.4,0,2.6,0,4,0c0-2.7,0-5.2,0-8c2,0,3.8,0.2,5.6-0.1c0.6-0.1,1.6-1,1.6-1.7c0.2-1.7,0.1-3.5,0.1-5.3c3.5,0,6.7,0,10.1,0
	c0,1.8,0,3.4,0,5c0,1.4,0.5,2.1,2.1,2C443.9,662.1,445.6,662.2,447.5,662.2z M390.7,700.2c-0.8,1.1-1.5,2.1-2.3,3.2
	c-1.6,2.3-1.1,5.1,1.3,6.7c4.5,3.2,9,6.4,13.4,9.7c4.1,3,5.9,2.9,9.1-1.2c0.6-0.7,1.1-1.4,1.6-2.2c5.4-7.9,10.9-15.7,16.2-23.6
	c1.5-2.2,1-4.4-1.1-5.9c-5.2-3.7-10.4-7.4-15.6-11c-2.4-1.7-5-1.1-6.6,1.3c-0.6,0.9-1.4,1.7-2,2.6c-0.2-0.2-0.5-0.3-0.7-0.5
	c0.9-1.4,1.8-2.7,2.7-4.1c1.4-2.1,1.2-3.3-0.9-4.7c-2.3-1.6-4.6-3.1-6.8-4.8c-2.1-1.6-4.3-1.5-6,0.4c-0.9,1-1.6,2.3-2.4,3.4
	c-5.6,7.9-11.1,15.7-16.7,23.6c-1.7,2.4-1.4,4.3,0.9,6.2c2.4,1.9,4.8,3.6,7.3,5.4c2.1,1.5,3.1,1.3,4.6-0.8c1-1.4,2-2.9,3-4.3
	C390.2,699.9,390.5,700,390.7,700.2z M419.5,724.1c0,4.9,0.1,9.7,0.1,14.6c0,4,1.4,5.5,5.5,5.5c5,0,10-0.1,14.9-0.2
	c2.8-0.1,4.3-1.6,4.3-4.5c0-5.3,0-10.6,0-15.8c0-3-1.7-4.7-4.7-4.7c-2.5,0-5.1,0-7.6,0c-2.5,0-4.9,0-7.4,0
	C421.2,718.9,419.5,720.6,419.5,724.1z M420.3,626.9c-4.5-2.6-9-5.2-13.6-7.6c-2.1-1.1-4.3-0.3-5.4,1.7c-1.1,2-2.2,4-3.4,6
	c-2.8,5.1-5.7,10.2-8.4,15.3c-1.7,3.1-1.2,5,1.8,6.8c1.7,1.1,3.5,2.1,5.2,3.1c2.8,1.6,5.7,3.1,8.5,4.7c2.6-3.6,2.6-3.6-1.1-5.7
	c-1.3-0.7-2.5-1.5-3.8-2.3c0.4-0.7,0.8-1.3,1.2-1.9c2.3-4.2,2.3-4.2-1.5-6.8c-0.7-0.4-1.4-0.8-2.1-1.2c1.5-2.8,3-5.6,4.6-8.4
	c2.2,1.2,4.1,2.2,6.1,3.3c1.3-2.2,2.6-4.3,3.8-6.4c2.5,1.4,4.6,2.6,7,4c0.6-1,1.2-1.9,1.6-2.8C420.9,628,420.7,627.1,420.3,626.9z
	 M618,215.6l-116.9,0.8L256.7,649l117.7-1.7L618,215.6z M358.7,661.1c0-0.6-0.1-2.4-0.6-2.4c-0.3,0-1.1,0-1.4,0
	c-0.4,0-1.2-0.1-1.2,0.3c0,0.3,0,1.3-0.3,1.5c-0.3,0.3-1,0.1-1.4,0c-0.9,0.2-0.8-1.1-0.8-1.6c0.1-1.9,0-4.1,0.1-6.1
	c0-0.6-0.6-1.3-1.2-1.3c-2.7-0.1-5.9,0-8.6,0.3c-0.6,0.1-1.7,1.2-1.6,1.8c0.1,3.2,0.1,6.5,0.3,9.6c0.1,1.5,1.2,1.7,2.4,1.7
	c3.6,0,7.4-0.2,10.7-0.3C358.5,664.5,358.9,663.6,358.7,661.1z M355.3,680.8c0-2.3-0.9-3.2-3.2-3.2c-6,0.1-11.9,0-17.9,0
	c0,0.1,0,0.2,0,0.3c-1.6,0-3.3,0-4.9,0c-2.6,0-3.7,1-3.7,3.8c0,2.5,0.2,5.1,0.2,7.6c0.1,2.9,0.4,3.2,3.3,3.2c8-0.1,16-0.4,24-0.5
	c1.9,0,2.5-1,2.4-2.6C355.5,686.5,355.3,683.6,355.3,680.8z M229.9,585.3c0.7-2.3,1.9-4.5,3-7.2c1.2,2,2.2,3.5,3.4,5.3l4.2-9.7
	c-1.2-0.3-2.2-0.6-3.5-0.9l1.9-4.5c1,0.7,1.9,1.4,3,2.1l3.8-8.7c-2.4,0.9-4.3,1.6-6.3,2.4c0.2-4.9,2.8-8.2,6.9-9.2
	c0.6-0.2,1.5,0,1.9-0.4c0.7-0.7,1.3-1.5,1.8-2.4c0.2-0.4-0.1-1.4-0.4-1.4c-3-0.9-6.1-2.4-9.1-2.2c-3.8,0.3-7.3,0.1-10.7-1.4
	c-6.5-2.8-12.9-5.7-19.4-8.4c-1.2-0.5-3.5-0.8-3.4-0.6c-0.8,0.1-1.6,0.5-1.6,0.5c-0.5,0.3-1.6,0.9-1.8,1.1c-1.8,2.1-3.4,4.2-4.6,6.6
	c-2.1,4.1-3.5,8.5-5.5,12.7c-1.4,3.1-2.3,6.3-1.6,9.7c0.4,2.2,2.2,3.4,4.2,4.3c6.8,2.9,13.6,5.7,20.3,8.7c2,0.9,4,2.3,5.4,4
	c2.5,3.2,5.4,5.6,9.2,6.8c0.6,0.2,1.7,0,2-0.5c0.3-0.4,0-1.5-0.3-2.1c-0.4-0.8-1.3-1.2-1.8-2C230.4,587.1,229.7,586,229.9,585.3z
	 M162,532.4c0.6,0.3,2.4-0.8,3.1-1.8c0.4-0.5-0.3-2-0.7-2.9c-0.3-0.7-1.1-1.2-1.5-1.9c-7.2-11.2-14.3-22.3-21.5-33.5
	c-1-1.5-1-2.5-0.1-4c3.6-5.5,7.1-11.1,10.6-16.7c4.1-6.5,8.3-12.9,12.4-19.3c0.4-0.7,0.6-2.3,0.2-2.8c-0.7-0.7-2-1.1-3.1-1.2
	c-1.5-0.1-3,0.5-4.6,0.5c-5.9,0.1-11.8,0.1-17.7,0c-9.2-0.2-18.3,0.5-27.5-0.4c-2.2-0.2-2.8-0.9-2.7-3c0.1-5.1,0.1-10.2,0-15.4
	c0-0.9-0.9-2.3-1.5-2.4c-1.9-0.3-3.8-0.1-5.9-0.1c0.3,42.2,0.5,84,0.7,126.1c1.6,0,2.7,0,3.9,0c3.2,0,3.3,0,3.2-3.3
	c0-5-0.1-10.1,0-15.1c0-0.8,0.8-2.1,1.4-2.3c2.5-0.5,5.1-0.8,7.7-0.8c4.4-0.1,8.8,0,13.3,0c7.6,0,15.2,0.1,22.9,0
	C157.1,532.1,159.5,531.1,162,532.4z M158,551.8c0-1.7-0.8-2.5-2.6-2.4c-3.2,0.1-6.4,0-9.6,0c-3.1,0-6.2,0-9.3,0
	c-2.3,0-3.6,0.9-3.6,3.3c0,3.8-0.1,7.6,0,11.4c0,1.8,1.1,2.6,2.9,2.7c2.1,0,4.3,0,6.4,0c3.9,0,7.7,0,11.6,0c2.5,0,4.2-1.1,4.2-3.1
	C158.1,559.7,158.1,555.8,158,551.8z M125.1,409.6c0-2.2,0-4.5,0-6.7c0-2.3-1.3-3.5-3.5-3.5c-5.4,0-10.8-0.1-16.2,0
	c-2.5,0-3.8,1.6-3.8,4.1c0,3.8,0,7.6,0,11.4c0,3.2,1.3,4.5,4.5,4.5c5.3,0,10.6-0.2,15.9-0.2c2.2,0,3.1-1.2,3.2-3.2
	C125.1,413.9,125.1,411.8,125.1,409.6C125.1,409.6,125.1,409.6,125.1,409.6z M144.1,416c0-0.7,0.6-1.4,0.9-1.6
	c2.5-1.5,2.7-3.6,2.3-5.9c-0.3-1.6-0.8-3.2-1.1-4.8c-0.3-1.7-1.2-2.2-2.6-1.6c-1.6,0.7-2.2,0.8-4.1,1.5c-0.6,0.3-2,0.4-2.9,1.5
	c-0.8,0.9,0.5,2.7,1.2,3c2.3,0.9,3.5,2.7,3.7,4.8c0.1,1.3-0.3,3.2-0.5,4.5c-0.2,1.6,0.2,2.4,2.4,2.3c0.6,0,2.1,0.2,2.7,0.2
	c1.6,0.2,1.7-0.8,1.3-2.3c-1.1-0.3-1.7-0.2-2.5-0.4C144.7,417.2,144.1,416.6,144.1,416z M231.2,240.2c0.1,0.4-1.6,2.1-1.8,2.1
	c-0.9-0.1-1.1-0.7-2.2-1.3c-6.3,11.1-12.8,22.5-19.2,34c-0.5,0.9-0.3,2.9,0.4,3.6c1.4,1.5,3.3,2.7,5.2,3.8
	c9.1,5.3,18.2,10.5,27.3,15.7c2.8,1.6,5.3,0.7,6.7-2.1c1.6-2.9,3.2-5.7,4.8-8.6c4.7-8.2,9.4-16.3,14-24.5c4.6-8,9.2-16.1,13.7-24.1
	c3.7-6.5,7.3-13,11-19.4c1-1.7,1.3-3.6-0.1-5.1c-1.5-1.5-3.4-2.8-5.2-3.9c-8.5-4.9-17.2-9.7-25.7-14.5c-4.4-2.5-6.4-1.9-8.7,2.4
	c-2.5,4.7-5.2,9.3-7.9,13.9c-3.3,5.9-6.7,11.8-9.8,17.3c0.8,1,1.8,1.4,2.1,2.3c0.1,0.4-1.2,2.1-1.6,2.2c-0.8,0-1.3-0.8-2.3-1.2
	c-1,1.7-2,3.6-2.8,5C229.9,238.9,230.9,239.3,231.2,240.2z M362.9,142.3c-0.2,0.1-0.4,0.2-0.6,0.3c-0.3-0.3-0.6-0.7-0.8-1.1
	c-0.6-1-1.1-2-1.6-3c-1.2-2.4-2.4-2.9-4.6-1.8c-2.3,1.2-4.5,2.6-6.9,3.7c-4.4,2.2-3.8,4.8-2.2,7.8c4.8,8.8,9.5,17.5,14.2,26.3
	c1.6,3.1,4.3,4,7.3,2.4c2.4-1.3,4.7-2.6,7.1-3.9c1.8-1,2.4-2.3,1.3-4.3c-0.8-1.4-1.4-2.8-2.1-4.3c0.2-0.1,0.3-0.2,0.5-0.3
	c0.5,0.6,1.1,1.2,1.4,1.9c1.7,3.5,4.2,4.2,7.6,2.3c4.8-2.7,9.7-5.4,14.6-8c3.8-2,4.5-4.2,2.4-8c-2.5-4.6-5-9.2-7.5-13.8
	c-2.5-4.5-4.9-9.1-7.4-13.6c-1.1-1.9-2.8-3.2-5.1-1.9c-6.1,3.2-12.1,6.5-18.1,9.9c-2.3,1.3-2.5,3.3-1.2,5.7
	C361.8,139.8,362.3,141.1,362.9,142.3z M338.5,186.6c-3.3,0-6.9,0.5-9.7-0.7c-5.2-2.2-10-5.5-14.9-8.4c-3.9-2.4-8-4-12.5-2.5
	c-5.1,1.7-8.1,5.5-8.6,10.9c-0.4,5.5,2.2,9.7,6.8,12.5c5.1,3,10.2,6.1,15.3,9c5,2.8,10.2,4.9,16.2,4.7c9.3-0.3,18.5-0.3,27.8-0.3
	c8.5,0,17.1-0.1,25.6,0c5.8,0.1,10.7-2,15.7-4.7c5-2.6,9.2-6.9,14.8-7.9c2-0.4,3.4-2,3.4-4v-39.7c-1.2,0-2.2,0-3.1,0
	c-3.3,0-3.6,0.4-3.6,3.8c0,2.9,0,5.8,0.1,8.7c0.1,2.2-0.8,3.6-2.8,4.8c-6.3,3.6-12.4,7.4-18.6,11c-3,1.7-5.9,3-9.6,2.9
	c-9.3-0.3-18.5-0.1-27.8-0.1C348.2,186.4,343.3,186.6,338.5,186.6z M530.1,203.7c0-0.7-0.6-1.4-1.3-1.4c-0.7-0.1-1.4-0.1-2-0.1
	c-4,0-8,0-12,0c-7,0-7-0.2-6.6,6.3c0,0.1,0.3,1,0.3,1.1c0.2,1.1,0.9,1.2,1.4,1.3c6,0.2,12,0.4,18.1,0.5c1.5,0,2.2-0.8,2.2-2.3
	C530.1,207.3,530.1,205.6,530.1,203.7z M512.5,182.4c-5.1,0-10.1,0-15.3,0c0,2.5,0,4.9,0,7.2c0,1.3,0.8,1.6,1.9,1.6
	c4-0.2,8.1-0.3,12.1-0.6c0.6,0,1.5-1,1.5-1.6C512.8,186.9,512.6,184.8,512.5,182.4z M484.8,196.8c-3.2-2.4-3.6-2.3-6.1,0.8
	c-5.8,7.6-11.7,15.1-17.3,22.8c-0.9,1.2-1.1,3.4-0.7,4.8c1.8,6,10.1,12.3,17.2,12.7c0.6-0.4,2-1,2.8-2c6.2-7.9,12.3-15.8,18.4-23.8
	c1.1-1.5,1.3-3.1-0.5-4.5C494,203.9,489.5,200.3,484.8,196.8z M474.1,176.1c3.3-0.1,4.4-1.4,4.5-4.8c0-2.6,0-5.1,0-7.7
	c0,0-0.1,0-0.1,0c0-2.1,0-4.3,0-6.4c0-4.9-1.4-6.2-6.3-6.1c-4.3,0.1-8.5,0.2-12.8,0.2c-4,0-5.6,1.6-5.6,5.6c0,4.9,0.1,9.9,0.2,14.8
	c0.1,2.7,1.7,4.6,4.4,4.6C463.6,176.4,468.8,176.3,474.1,176.1z M486.2,110.6c-0.1-0.5-0.1-0.9-0.2-1.5c-12.9,0-15-0.1-38.8-0.1
	c0,9.9-0.4,19.6-0.3,29.1c0,2.1,1.8,2.5,4,2.1c2.1-0.3,4.2-0.4,6.3,0c3.3,0.6,4.4-0.2,4.4-2.6c-0.1-6.1,0-12.2,0-18.3
	c0-4.1,1.3-5.6,5.3-5.6c5.5,0,11-0.1,16.5,0.1C485.8,113.8,486.6,112.9,486.2,110.6z M432.8,185.6c-2.6,0-4.8,1.6-4.9,3.9
	c-0.2,5.9-0.1,11.9,0.2,17.8c0.1,2.3,2.2,3.6,4.6,3.5c2.5-0.1,5.1,0,7.6,0c0-0.1,0-0.1,0-0.2c2.7,0,5.4,0,8.1,0
	c2.7-0.1,4.2-1.6,4.2-4.3c0-5.3,0-10.6-0.1-15.8c0-2.8-1.8-4.7-4.5-4.8C443,185.5,437.9,185.5,432.8,185.6z M423.7,231.1
	c-2.6,3.7-4.9,7.7-7.3,11.6c-4,6.5-7.5,12.6-9.5,20c-0.5,1.8,0.2,3.4,1.7,4.3c4.5,2.6,8.8,5.4,13.2,8.1c6,3.7,12.1,7.4,17.9,11.3
	c1.7,1.1,3.1,1.1,4.6-0.1c1.8-1.4,3.7-2.8,5.2-4.4c6.9-7.4,11.6-16.2,16.6-24.8c2.3-3.9,1.6-9.6-1.5-12.9c-0.4-0.5-1.2-0.6-1.7-0.2
	c-0.9,0.6-2,1.8-2.5,2.5c-0.5,0.8-0.3,1.9-0.2,3.1c0,0.5-1.1,1.6-2.2,2.2c-0.6,0.3-1.4-0.8-1.8-1.2c-0.5-0.5-2.8-0.2-3.1,0
	c-0.9,0.6-0.9,1.3-1.3,1.9c-0.4,0-1.5,0.3-2.2-0.1c-4.9-2.9-9.6-5.9-14.4-9c-0.5-0.3-0.5-1.3-0.8-2c-0.2-0.1,1.5-1.9,0.6-3.3
	l-1.3-1.3l-1.5-1.3c-0.3-0.2-0.3-0.6-0.1-0.9l1.1-1.9c0.2-0.2,2-0.9,2.2-1.3c0.8-2.1,0.8-2.4,1.6-4.1c0-1.3-1.2-1.3-1.9-1.4
	C430.5,225.5,426.4,227.2,423.7,231.1z M249.6,482c0.9,0,2.1-0.5,2.5-1.2c1.3-2.1,3.2-4.3,3.3-6.6c0.4-7.1,0.7-14.2-0.1-21.2
	c-0.6-4.9-3-7.9-8-7.7c-2.9,0.1-5.8,0.3-8.7,0.3c-8.2,0-16.4,0-24.5,0c-2.7,0-4,1.3-3.9,3.9c0.1,2.5-0.7,4.1-3.2,4.2
	c-0.4,0-0.7,0.3-0.7,0.7c-0.1,0.5-0.1,1-0.1,1.4c0,5.6,0,11.3,0,17.1c0,0.7,0.6,1.4,1.3,1.4c2.3,0.2,2.7,1.9,2.8,4.3
	c0,1.2,1.1,3.1,2.1,3.4c1.8,0.5,4,1.2,5.5-1c3.5-5.2,10.5-5.2,14.3-0.3c0.6,0.8,1.9,1.6,2.9,1.6C240,482.3,244.8,482.2,249.6,482z
	 M239.4,515.2c-4.4-2.8-8.9-5.3-13.1-8.2c-2.8-1.9-5.6-2.6-8.9-1.8c-3,0.8-3.9,1.8-3.2,4.8c0.5,2.6,1.2,5.1,1.6,7.7
	c0.6,3.8,2,6.8,5.8,8.3c1,0.4,1.9,1.2,2.9,1.8c2,1.3,4,2.5,6,3.9c1.7,1.1,2.9,0.8,3.9-0.9c2.1-3.5,4.1-6.9,6.2-10.4
	C242.1,517.9,241.9,516.9,239.4,515.2z M250.9,493.9c0.1,4.5,0,9.1,0.2,13.6c0,1.2,0.5,2.7,1.3,3.5c2.8,3,5.8,5.8,8.7,8.6
	c1.1,1,2.7,1.9,3.9,0.6c1.6-1.7,3.5-3.5,4-5.6c0.8-3.6,0.6-7.5,0.9-11.2c-0.1,0-0.2,0-0.2,0c0-3,0-5.9,0-8.9c0-2-0.8-3.1-3.1-3.1
	c-4.4,0.1-8.8,0.1-13.3,0C251.5,491.4,250.9,492.1,250.9,493.9z M271.9,473.2c3.8,4,7.4,8.2,13.8,6.6c0.1,0,0.2,0,0.2,0
	c2.8-0.1,3.6-0.9,3.7-3.7c0-3.8,0-7.6,0-11.4c0,0,0,0,0,0c0-4.2,0.1-8.4,0-12.6c-0.1-3.5-1.6-4.7-4.9-4.7c-5,0-10,0-15,0
	c-3.3,0-4.8,1.5-4.8,4.7c0,3.9-0.2,7.8,0.1,11.6c0.1,1.4,0.8,2.9,1.7,4C268.2,469.7,270.2,471.4,271.9,473.2z M287,496
	c1.4-1.1,3.3-0.6,4.4,1c0.3,0.4,0.4,1.1,0.8,1.2c0.8,0.3,1.8,0.6,2.7,0.5c0.4,0,1.1-0.8,1.1-1.3c0.1-1.9,0.1-3.7,0.1-5.6
	c-4.9,0-9.5,0-14.2,0c0,1.8,0.1,3.5,0,5.1c-0.4,9.5,2.5,9,9.2,8.9c0.2,0,0.3,0,0.5,0c2.9-0.4,4.8-3,4.3-5.9c-3.1-0.5-3.1-0.5-4.5,1
	c-1.3,1.5-3.2,1.5-4.5,0.2C285.4,499.8,285.5,497.1,287,496z M271.5,560.4c4.7,2.6,9.3,5.3,14,7.9c1.5,0.8,2.9,0.9,3.9-0.9
	c2.8-5.2,5.7-10.3,8.6-15.4c3.7-6.7,7.4-13.3,11.1-20c0.7-1.4,1.4-2.7,2.4-4.5c-0.6-0.7-1-1.5-1.7-2c-1.5-1-3-2-4.7-2.6
	c-1.4-0.5-3.2-1.1-4.6-0.8c-3.7,0.8-7.4,1.9-11,3.2c-1.2,0.4-2.2,1.6-2.9,2.7c-1.9,3.1-3.5,6.3-5.3,9.4c-3.6,6.4-7.1,12.9-10.7,19.3
	C269.7,558.2,269.9,559.5,271.5,560.4z M298.2,455.3c0,4.7,0.2,9.4,0.2,14.1c0,4.2,1.4,5.7,5.6,5.6c4.9-0.1,9.8-0.3,14.7-0.5
	c3.1-0.1,4.3-1.1,4.4-4.3c0.1-2.6,0-5.1,0-7.7c0,0,0,0,0,0c0-2.7,0.1-5.5,0-8.2c-0.1-3-1.8-4.6-4.6-4.6c-4.9-0.1-9.8-0.1-14.8,0
	C300,449.8,298.2,451.7,298.2,455.3z M302.1,441.5c1.9,1,3.9,1.7,5.7,2.8c1.2,0.7,2.7,0.2,3.2-1.1c0.7-1.7,1.7-3.2,2.6-4.9l2.8,1.3
	c1,0.4,1.4,0.2,1.6-0.8c0.4-1.6,0.4-3.9,1.1-5.3c2.9-6.4,6.3-12.5,9.2-18.8c0.3-0.6,0.1-2.1-0.3-2.3c-3.7-2-7.5-3.8-11.5-5.8
	c-1.9,3.7-3.8,7.2-5.5,10.7c-3.3,6.8-6.5,13.7-10,20.5C300.1,439.6,300.5,440.6,302.1,441.5z M312.2,510.2c2.6,0,5.2,0,7.9,0
	c2.4,0,4.8,0,7.1,0c3.8,0,5.2-1.3,5.2-5.2c0-5.3-0.1-10.5-0.2-15.8c-0.1-2.5-1.4-3.7-3.9-3.8c-5.4,0-10.8,0-16.2,0
	c-2.8,0-4.4,1.5-4.4,4.4c-0.1,5.3-0.1,10.6,0,15.8C307.6,508.8,309.2,510.2,312.2,510.2z M339.3,447.4c3,1.3,2.9,1.3,4.3-1.6
	c3.4-7.4,6.8-14.7,10.2-22c1.1-2.3,2-4.6,3.2-7.3c-0.4-0.4-0.7-1.1-1.2-1.4c-3.5-1.7-7-3.5-10.6-5.1c-2-0.9-3.5-0.5-4.5,1.8
	c-4.1,9.1-8.3,18.1-12.5,27.2c-0.9,1.9-0.3,3.2,1.5,4C333,444.5,336.2,446,339.3,447.4z M357.2,345.4c-1.7,3-4.4,7.1-6.3,9.9
	c-0.4,0.5-1.6,0.4-1.9,0c-1.6-1.4-2.1-0.3-2.7,0.8c-3.1,5.5-6.3,10.9-9.2,16.4c-2.6,5.1-4.9,10.3-7.3,15.5c-1.1,2.3-0.4,4.6,1.5,5.6
	c1.9,1,4.2,0.2,5.4-2c0.6-1.1,0.8-2.3,1.1-3.5c0.1-0.5,0.2-1.1,0.1-1.7c-0.6-9.2,9.3-15.8,17.1-12.7c7.1,2.9,10.9,11.5,7.3,18.4
	c-1.9,3.5-4.7,5.7-8.4,7c-1.6,0.6-3.5,3.4-3.2,5c0.3,1.8,1.1,3.2,3.2,3.5c2.1,0.3,3.4-0.7,4.4-2.5c4-6.5,8.1-12.9,12.2-19.3
	c2.4-3.6,2-5.5-1.6-7.8c-5-3.2-10-6.4-15-9.6c-1.4-0.9-1.4-1.7-0.4-3.2c3.4-4.6,6.6-9.4,9.4-14.4c5.2-9.4,6.9-8.3,2.1-11.6
	c-1.1-0.8-2.3-1.5-3.5-2.2c-2-1.3-3.3-0.2-4.2,1.4c-0.8,1.4-2.9,2.8-0.7,4.9C357,344,357.5,344.8,357.2,345.4z M367.4,351.7
	c-2.2,3.5-1.8,6,1.5,7.8c4.6,2.5,9.2,4.9,13.7,7.3c2.2,1.2,4.1,0.7,5.3-1.5c2.5-4.4,4.9-8.8,7.4-13.2c0.3-0.6,0.6-1.3,0.9-2
	c0.4-1.1,0.3-2.3-0.4-3.3c-0.4-0.6-0.8-1.1-1.4-1.4c-4.5-2.7-9-5.2-13.6-7.6c-4-2.1-5.8-0.9-8,4.1
	C371.3,345.2,369.4,348.5,367.4,351.7z M370.6,317.7c3.3,1.8,6.7,3.5,9.9,5.4c2.7,1.6,4.1,1.5,5.7-1.2c2.1-3.7,4-7.5,6-11.3
	c0.7-1.3,1.3-2.5,1.9-4.3c0.1-0.5,0.1-1-0.2-1.5c-0.5-0.9-1.2-1.6-2-2.1c-3.5-2-7.2-3.8-10.7-5.8c-2.1-1.2-3.8-0.6-4.8,1.2
	c-2.7,4.8-5.2,9.6-7.7,14.5C367.7,314.9,368.4,316.5,370.6,317.7z M350.5,454.5c2.3,1.2,4.6,2.3,7.1,3.4c2.1-4.3,4.2-8.3,6.1-12.4
	c0.2-0.5-0.1-1.8-0.5-2.1c-1.9-1.2-4-2.1-6.4-3.3c-2.2,4.4-4.4,8.5-6.5,12.6C350.1,453.2,350.2,454.3,350.5,454.5z M367.5,436.4
	c3.5,2.2,4.2,1.4,6.1-2.2c1.8-3.4,3.5-6.8,5.2-10.3c1.1-2.2,2.1-4.4,3.2-6.8c-0.5-0.6-0.8-1.5-1.5-1.8c-3.6-1.9-7.1-3.8-10.8-5.6
	c-1.6-0.8-2.9-0.2-3.7,1.5c-2.8,5.6-5.6,11.2-8.5,16.8c-1,1.9-0.5,3.1,1.3,4C361.7,433.4,364.7,434.7,367.5,436.4z M389.3,403.2
	c0.3-0.3,0.5-0.5,0.7-0.8c6.2-9.6,12.4-19.1,18.5-28.7c0.2-0.3-0.2-1.5-0.7-1.8c-3.3-2.3-6.6-4.5-9.9-6.7c-1.7-1.1-3.2-0.8-4.4,1
	c-5.4,8.5-10.8,17-16.3,25.4c-1.3,2-1,3.2,1,4.5C381.9,398.4,385.5,400.8,389.3,403.2z M411.5,339.4c0.6-1,2-1.3,3-0.6
	c1.1,0.8,2.2,1.6,3.3,2.4c0.3-0.4,0.6-0.7,0.7-1c6.5-11,13-22.1,19.5-33.1c0.6-0.9,0.6-1.7,1.4-2.4c0.3-0.2,1.7-0.4,2-0.6
	c1.1-0.8,1.6-2.2,0.5-3c-0.1-0.1-1-0.6-1.1-0.7c-4.5-2.8-9.1-5.5-13.6-8.2c-3.1-1.8-6.1-4-9.4-5.1c-5.6-2-10.9-3.4-16.6-5
	c-1.1-0.3-3-0.6-4.3,0.1c-1,0.6-1.6,2.3-2.3,3.4c-0.9,1.4-1.5,3.9-1.1,4.4c1.1,1.5,3.7,4.3,5,3.4c1.3-0.9,4.9,0.8,4.7,3.1
	c0.2,0.5,1.8,1.3,2.1,1.2c1.5-0.7,2.5,0,3.6,0.7c1,0.6,1.2,1.9,0.6,2.9c-1.5,2.3-2.2,4.6-1.3,7.5c0.9,3,3.6,3.7,5.8,5
	c1,0.6,1.3,1.9,0.7,2.9c-3.1,5.2-6.3,10.5-9.5,15.8c-0.6,1-1.2,1.8-2.2,1.2c-1.2-0.7-2.5-1.6-3.6-2.2c-0.7-0.3-1.8-1.7-2.7-1
	c-1.4,1.3-3,4.6-4.1,6.4c-0.6,1,0.5,1.5,1.5,2.1c3.7,2.3,7.4,4.5,11.1,6.7c1,0.6,2.2,0.3,2.8-0.7C409.3,343,410.4,341.2,411.5,339.4
	z M427.5,131.6c0-11-0.1-21.9-0.2-32.9c0-3.9-0.2-7.7-0.1-11.6c0-1.7-0.7-2.1-2.2-2.1c-6.7,0-13.4,0-20.1,0c-1.5,0-2.3,0.5-2.3,2.1
	c0,7.6,0,15.2,0,22.8c0.1,0,0.1,0,0.2,0c0,7.3,0,14.5,0,21.8c0,3.2,0.2,3.4,3.3,3.4c6.1,0,12.1,0,18.2,0
	C427.3,135,427.5,134.8,427.5,131.6z M173.7,440.2c1.3,0,116.8-0.4,117.2-1.1c5.4-9.3,123.2-217.9,125.3-221.7
	c-5.9,0-103,0.5-116.2,0.5C298.3,217.8,175.5,436.8,173.7,440.2z M197.7,481.5c0-2.2-0.8-3.3-2.9-3.3c-4.2,0-8.3-0.1-12.5-0.1
	c-0.5,0-1.4,1.1-1.4,1.7c-0.2,11-0.4,21.9-0.6,32.9c0,1.4,0.4,2.1,1.9,2.1c3.9-0.1,7.9,0,11.8,0c2.2,0,3.7-1,3.7-3.3
	c0-5,0-14.9,0-15.1C197.6,491.4,197.6,486.4,197.7,481.5z M185.5,398.2c4.1-3,7.2-6.7,9.4-11.4c2.6-5.7,5.6-11.1,8.4-16.7
	c1.4-2.7,0.8-4.2-1.9-5.6c-4.7-2.4-9.3-4.9-14-7.4c-2.5-1.3-4.6-0.6-5.8,1.9c-2.2,4.5-4.7,8.8-6.9,13.3c-2.5,5-6.6,9.6-5.8,15.7
	c0,0.3,0,0.1,0.1,0.4c0.6,1.3,0.8,3.2,1.7,3.8c3.8,2.3,7.9,4.1,11.8,6.3C183.8,399.3,184.4,399,185.5,398.2z M206.7,330.6
	c-1.4-0.8-2.6-1.6-3.8-2.2c-1.4-0.7-2.5-0.8-3.3,1c-1.1,2.4-2.5,4.6-4,7.2c-2.7-1.5-5.2-2.9-7.7-4.3c-0.2-0.1-0.8-0.2-0.6-1
	c0.1-0.4-0.5-0.8-0.9-1.1c-0.5-0.3-1.2-0.8-1.9-1.2c-1.5,1.1-4.1-0.5-5.1-1.3c-3-2.4-2.4-2.7-4-3.5c-0.7-0.4-2.4,0.3-3.1,1
	c-1,0.9-1.4,2.4-2.1,3.6c-1.3,2.2-0.6,3.8,1.2,5.4c2.4,2.1,4.6,4.4,6.9,6.6c2.5,2.3,4.8,5.1,7.6,6.8c7.1,4.3,14.5,8.1,21.8,12.1
	c0.6,0.3,1.9,0.5,2.3,0.1c0.6-0.6,1.3-1.8,0.9-2.6c-0.5-1-0.1-1.9,0.3-2.6c5.9-11,11.9-21.9,17.9-32.8c1.5-2.7,1-3.9-2.1-4.3
	c-2.3-0.3-2.1-1.4-1.3-2.8c1-2,2.1-3.9,3.3-5.8c1.1-1.7,0.6-2.5-1.3-2.9c-0.2,0.4-0.3,0.9-0.6,1c-0.9,0.5-2,1.5-2.7,1.3
	c-1.6-0.4-1.1-1.7-0.3-2.7c1.1-1.5-0.2-2.1-1.2-2.6c-2.2-1.3-4.3-2.6-6.6-3.6c-0.8-0.4-1.8,0-2.3,0.7c-1,1.5-1.5,3.3-2.4,4.8
	c-0.9,1.6-0.4,2.4,1,3.1c1.6,0.9,3.3,1.8,5,2.7C214,317.4,210.4,324,206.7,330.6z M199.3,286.1c-1.8-4.4-3.7-8.8-5.2-13.3
	c-2.1-6.3-5.2-11.8-10.8-15.8c-4.1,1.6-8.1,3.3-12.3,4.8c-1.9,0.7-3,1.5-3,3.9c-0.1,3.9,0,7.7,1.6,11.4c2.7,6.3,5,12.8,7.6,19.2
	c0.8,2.1,2.4,2.7,4.5,1.9c4.8-1.9,9.7-3.9,14.5-5.7C199.9,291.2,200.7,289.5,199.3,286.1z M167.3,418.7c-1.7,3.6-5.4,5-8.6,6.9
	c-0.6,0.4-1,1.3-1.5,1.9c0.8,0.2,1.7,0.7,2.5,0.6c2.6-0.5,6.2,0.9,7.7,3c0.7,1,1.7,1.7,3,3.1c0.4-2,0.7-3.1,0.7-4.3
	c0-0.4-0.6-1.3-1-1.3c-1.8-0.2-1.6-1.6-1.3-2.6c1-3.4,2-6.7,3.3-10c0.9-2.3,2.5-3.8,5.3-3.6c1.3,0.1,2.6,0.3,3.9,0.2
	c0.6,0,1.2-0.5,1.8-0.7c-0.5-0.6-1-1.6-1.6-1.6c-1.5-0.1-1.8-0.9-2.2-2.1c-0.8-2.2-3.5-3.5-5.3-2.3c-1.5,1-2.8,2.7-3.6,4.4
	C169.2,413,168.6,416,167.3,418.7z M162.9,579.4c1.4,1.5,3.2,3.1,4.6,4.7c0.1-0.2,0.5-0.4,0.7-0.8c0.1-0.3,0.4-0.3,0.7-0.2
	c0.4,0.2,0.8,0.7,1.2,0.9c4.6,3,9.3,6,13.9,9.1c0.7,0.5,0.7,0.9,0.9,2.2c0.1,0.5,0.4,0.8,0.9,0.8c0.2,0,0.6,0.1,0.7,0.2
	c0.8,0.4,0.6,0.5,1.3,0.9c1.3,1.2,3.7,0.8,4.7-0.6c1-1.3,1-2-0.9-2.7c-1.2,0.2-1.7-0.5-2.3-1c-1.9-1.5-3.6-3.2-5.6-4.5
	c-1.7-1.1-1.8-2-0.7-3.5c2.1-2.8,4-5.8,6-8.7c0.8-1.2,1-2.1-0.6-3.2c-2-1.4-3.2-0.9-4.4,1c-1.3,2.1-2.7,4.3-4.1,6.4
	c-1.9,2.7-2.3,3.8-5.1,2.1c-1.3-0.8-4-1.9-5.3-2.6c-0.7-0.4-1.3-0.9-1.8-1.5c-2.4-2.7-3.2-2.9-4.8,0.3
	C162.7,579,162.7,579.3,162.9,579.4z M239.9,634.3c1.9,1,3.8,2,5.6,3c4.2,2.4,5.4,2,7.6-2.3c3.6-6.9,7.3-13.7,11-20.5
	c3-5.5,6-11.1,9-16.6c1.2-2.1,1.5-4.3,0.8-6.7c-1.1-3.7-2.1-7.4-3.4-11c-0.7-1.9-1.7-4.2-3.2-5.3c-3.4-2.5-7.3-4.4-11.1-6.5
	c-1.2,2.2-2.1,4.1-3.1,6c-1,1.9-2.1,3.7-3.2,5.7c8.1,4.7,8,11.3,5.1,16.8c-5.7,10.4-11.4,20.8-17.1,31.2
	C236.3,630.9,237,632.8,239.9,634.3z M550.3,203.8c0-1.6,0-3.1,0-4.7c0-2.4-1.4-3.5-3.5-3.6c-3-0.1-6.1-0.1-9.1,0
	c-2.4,0.1-3.8,1.4-3.9,3.6c-0.1,3.2-0.1,6.4,0,9.6c0.1,2.1,1.1,3.6,3.4,3.6c3.1,0,6.2,0,9.3,0c2.4,0,3.6-1.2,3.8-3.6
	c0.1-1.6,0-3.3,0-4.9C550.4,203.8,550.3,203.8,550.3,203.8z M628,192.8c0.1-2-0.7-2.8-2.7-2.8c-5.3,0.1-10.6,0-16,0
	c-7.8,0-15.6,0.1-23.3-1.8c-1.8-0.5-3.6-1.3-5.4-1.4c-6.9-0.2-13.7-0.2-20.6-0.3c-3.4,0-4.5,1.1-4.5,4.6c0,5.1,0,10.2,0,15.3
	c0,4.3,1,5.3,5.2,5.3c8.9,0,17.8,0,26.8,0c9.1,0,18.2,0,27.3,0c1.1,0,2.5-0.4,3.3-1.1c3.1-2.8,6-5.8,8.8-8.9c0.7-0.8,1-2.2,1.1-3.4
	C628.1,196.6,627.9,194.6,628,192.8z M684.4,296.5c-4.1-0.9-8.2-1.8-12.4-2.5c-0.9-0.1-2.6,0.4-2.8,0.9c-1.1,4.2-1.9,8.5-2.8,12.8
	c-0.1,2,0.9,2.6,2.6,3c3.3,0.6,6.5,1.4,9.7,2.1c6.3,1.4,12.7,2.6,19,4.1c2.7,0.6,4,0.1,4.7-2.6c0.8-3.3,1.5-6.7,2.2-10.1
	c0.6-3.1,0.5-3.1-2.7-3.7C696.1,299.1,690.2,297.7,684.4,296.5z M689.2,274.3c3.9,3.9,7.7,7.8,11.7,11.6c2,1.9,4.6,1.8,6.5-0.1
	c3.7-3.7,7.3-7.4,10.9-11.2c0.5-0.5,0.8-1.3,1.2-2.1c0.3-0.7,0.3-1.5-0.1-2.2c-0.5-0.9-0.9-1.7-1.5-2.4c-3.6-3.7-7.3-7.3-11-10.8
	c-1.5-1.5-3.4-2.3-5.2-0.5c-4.3,4.3-8.6,8.6-12.7,13C687.5,271,687.7,272.8,689.2,274.3z M655.7,319.7c-2.1-0.6-4.1,0.5-4.8,2.7
	c-0.6,1.7-1,3.5-1.5,5.2c-2.5,8.8-4.9,17.7-7.4,26.5c-0.7,2.4,0.7,5,3.1,5.7c5.1,1.4,12.7,3.5,18.3,4.8c0.8,0.2,1.5-0.2,1.9-0.9
	c0.9-2.1,1.8-6,2.3-6.5c0.1,0,0.4,0.1,0.4,0.2c-0.2,1.3-2.9,8.1-1,8.4c0.5,0.1,3.6,1.2,4.1,1.3c5.7,1.6,11.4,3.3,17.1,4.8
	c2.6,0.7,4.5-0.2,5.1-2.5c1.1-3.4,2-6.9,3-10.4c2-7.3,4-14.5,6.1-21.8c0.5-1.8-0.7-4.4-2.6-5c-6.3-1.9-19.7-6.2-22.4-6.2
	c-1.3,0.7-2.5,6.4-2.9,8.2c-0.1-0.2-0.6,0.1-0.6-0.2c0-1.6,1.2-4.9,1.6-6.8c0.2-1,0.1-2.2-0.9-2.4
	C668.9,323,661.1,321.1,655.7,319.7z M632.5,375c-11.1,0.1-22.2,0.3-33.3,0.5c-3.4,0-4.9,1.4-4.8,5c0.1,11.4,0.1,22.8,0.3,34.2
	c0,4.1,1.4,5.5,5.5,5.5c16.6-0.2,33.2-0.3,49.8-0.5c6.2-0.1,12.5,0,18.7,0c6.1,0,12.1,0,18.2,0c4.4,0,5.8-1.3,5.7-5.7
	c-0.1-9.8-0.2-19.6-0.2-29.4c0-1.5,0-3,0-4.5c-0.1-3.6-2-5.5-5.7-5.4c-6.4,0.1-12.7,0.4-19.1,0.5C655.8,375,644.1,374.9,632.5,375z
	 M617.8,329.1c-3.9-2.1-7.7-4.2-11.5-6.4c-2.2-1.2-3.6-0.6-4.7,1.6c-1.8,3.4-3.7,6.7-5.4,10.2c-1.5,2.9-2.4,5.5-3.8,8.5
	c0,0.2,0,0.6,0,0.8c0.1,0.7,0.1,1.5,0.2,2.2c0.8,4.3,1.9,5,6.2,3.8c2.5-0.7,5.1-1.2,7.5-2.1c2.1-0.8,4.5-0.9,5.7-3.3
	c2.1-4.1,4.3-8.1,6.5-12.1C619.5,330.8,619.3,329.9,617.8,329.1z M592.1,315.8c-5.1-2.7-10-5.6-15.1-8.4c-1.5-0.8-2.8-0.5-3.7,1.1
	c-2.8,5.2-5.6,10.4-8.4,15.5c-1,1.8-0.6,3.2,1.1,4.2c4.9,2.7,9.8,5.4,14.8,8c0.6,0.3,1.3,0.5,2.4,1c0.7-0.7,1.5-1.3,2-2.1
	c2.8-4.9,5.5-9.8,8.1-14.8C594.2,318.6,594.3,317,592.1,315.8z M559.1,419.8c2.7-3.6,5.7-6.9,8.5-10.4c1.9-2.3,2.1-3.6,4.4-1.7
	c1.1,0.9,3.4,2.1,4.4,3.1c0.9,0.7,2.5,1.5,3.5,3c0.4,4.1,4.7,5,6.3,3.5c0.7-0.7,1.2-1.6,1.9-2.3c2.3-2.2,0.6-3.1-3.7-6.6
	c-3.4-2.8-6.4-4.9-9.8-7.6c-0.6-0.5-1.1-0.7-2-1.1c-0.8-0.3-1.8-0.3-2.6,0.1c-1.2,0.6-2.5,1.2-3.4,2.2c-4.5,5.4-8.6,10.3-12.7,16
	c-0.8,1.1-1.9,3.5-1.5,4.8c0.8,2.4,2.4,5.6,4.1,7.3c4.2,3.4,7.1,5.9,10.9,8.6c0.3,0.2,0.6,0.3,1,0.2c0.5-0.1,1.1-0.5,1.6-0.8
	c0.7-0.4,1.1-1.1,1.5-1.8c1.6-2.2,1-5-1.6-5.5c-4.3-0.8-6.9-4.1-10.1-6.5C557.7,422.8,558,421.3,559.1,419.8z M501.2,448.1
	c-1.7,2.3-1.4,3.8,1.2,5.1c8.3,4,16.6,8.2,24.8,12.3c6.4,3.2,12.9,6.3,19.2,9.6c1.9,1,2.8,0.6,3.7-1.2c2.8-5.7,5.6-11.4,8.4-17.2
	c1.2-2.5,0.9-3.2-1.6-4.4c-2.6-1.3-5.3-2.6-7.9-3.9c-12.2-6-24.3-12.1-36.5-18.1c-1.2-0.6-2.1-0.6-2.9,0.7c-0.3,0.6-0.8,1-1.3,1.7
	c-1-0.4-1.9-1-2.9-1.3c-1.9-0.6-3.9-1-5.2,1.3c-1.5,2.8-2.9,5.5-4.2,8.4c-0.9,2-0.7,3.8,1.6,4.9
	C498.8,446.5,499.8,447.2,501.2,448.1z M523.6,410.3c-0.4,0.7-0.8,1.2-1.2,1.8c-0.1-0.2-0.2-0.4-0.3-0.7c-0.9,0.3-2.2,0.3-2.7,1
	c-1.2,1.5-2,3.3-3.1,5.3c4.6,2.8,9.1,5.7,13.6,8.5c2.4,1.5,4.6,1.1,6-1.2c5-8.1,9.9-16.1,14.8-24.2c1.5-2.5,1.4-4.1-0.9-5.8
	c-4.5-3.2-9.1-6.1-13.9-9.2c-1.5,2.4-2.8,4.5-4.1,6.7c0.7,0.7,1.2,1.3,1.6,1.7c-0.5,2.5-2.1,1.2-3.3,1c-2.4,3.8-4.7,7.5-7.2,11.2
	C522,407.9,521.5,409.3,523.6,410.3z M549.9,383c7.9-13.9,15.6-27.6,23.5-41.4c-3.7-2.1-7.2-4.2-10.8-6.3
	c-7.8,13.8-15.6,27.5-23.5,41.5C542.7,378.9,546.3,380.9,549.9,383z M591.9,369.6c0.2-0.4,0.2-0.9,0-1.4c-0.3-0.6-0.5-1.2-0.9-1.4
	c-3.8-2.5-7.7-4.9-11.6-7.3c-1.6-1-2.8-0.6-3.8,1.2c-1.9,3.6-4.2,6.9-6.4,10.3c-1.3,1.9-1.5,3.7-0.9,5.9c0.8,3.4,1.4,6.9,2.4,10.2
	c0.4,1.2,1.8,2.8,2.8,2.8c3.3,0.1,6.4-1,8.4-4c2.3-3.6,4.7-7.3,7-10.9C590,373.3,590.9,371.5,591.9,369.6z M718.9,426.5
	c0.3-0.6,0.4-2,0.1-2.2c-1.9-1.1-3.9-2-5.9-2.8c-0.5-0.2-1.6,0.6-1.9,1.2c-2.8,5.4-5.5,10.8-8.4,16.6c-0.2,0.4,0,1,0.4,1.2
	c1.9,1,3.7,2,5.5,2.7c0.6,0.2,1.7,0.2,2.2-0.7C713.7,437.3,716.3,431.9,718.9,426.5z M734.5,360.4c1.9-0.8,2.9-0.2,3.5,1.6
	c0.4,1.2,1,2.4,1.5,3.6c1.8,4.2,3.5,8.5,5.3,12.7c1.1,2.4,3.8,3.6,6.3,2.6c7.6-3.1,15.1-6.2,22.7-9.4c1.9-0.8,2.9-2.3,2.6-4.5
	c-0.2-1.8-1.3-2.8-3-3.1c-2.1-0.4-5.6,1.2-6.4,3.2c-2.2,5.5-10,8.9-16.3,5.8c-6-2.9-9.2-10-6.9-16.8c2-6.1,8.8-9.5,15.2-8.1
	c1.6,0.4,3.5,0.1,5.1-0.5c2.1-0.7,3-3.2,2.2-5.1c-0.8-1.9-3-2.8-5.1-2.1c-3.9,1.2-7.8,2.3-11.6,3.5c-8,1.8-15.2,4-23.3,7.3
	c-0.8,0.3-1.2,1.2-1,2.1c0.5,1.8,0.6,3-1.8,3.6c-2.2,0.6-4.4,1.6-6.4,2.7c-2,1.1-3.3,1.6-4.2-0.5c-0.2-0.4-0.9-1-1.2-0.9
	c-1.9,0.8-3.9,1.6-5.7,2.7c-0.4,0.3-0.4,1.8-0.2,2.6c0.7,2,1.7,3.9,2.5,5.9c0.5,1.3,1.1,1.7,2.5,1
	C718.6,367.1,726.6,363.9,734.5,360.4z M729,330.9c0.1,2.3,1.6,3.5,3.9,3.4c2.7-0.1,5.4,0,8.1,0c2.7,0,5.4,0,8.1,0
	c2.8,0,4.3-1.4,4.3-4.2c0-5.6-0.1-11.2-0.2-16.8c0-2.3-1.3-3.6-3.5-3.7c-5.7-0.1-11.3-0.1-17,0c-2.3,0-4,1.4-4.1,3.8
	C728.6,319.2,728.7,325,729,330.9z M771.2,460.1c-0.2-4.2,1.2-7.9,3.3-11.4c0.8-1.2,1.3-2.8,1.3-4.3c0.1-7.3-0.2-14.5-0.1-21.8
	c0-2-0.6-3.8-2.3-4.3c-2-0.5-4.2-0.2-6.3-0.1c-0.2,0-0.6,0.6-0.6,0.9c0,2.8-0.7,5.5,1.6,8.1c3.6,3.9,4,8.8,2,13.6
	c-2,4.8-7.4,8.2-12,7.8c-5.9-0.5-10-3.5-12-9.2c-1.6-4.7-0.6-9,2.6-12.6c2.1-2.4,1.3-4.9,1.2-7.5c0-0.4-0.6-1-1-1.2
	c-3.7-1.9-8.2,0.8-8.2,4.9c0,7.3,0,14.7,0.1,22c0,1,0.5,2.2,1.1,3.1c2.2,3,3.7,6.2,3.8,9.9c0.1,3.5,0.2,6.9,0.2,10.4
	c0,1.8,0.7,2.7,2.7,2.6c3.3-0.1,6.6,0,9.8,0c3.4,0,6.7-0.1,10.1,0c2.2,0.1,2.9-0.8,2.9-2.9C771.2,465.5,771.3,462.8,771.2,460.1z
	 M740.9,391.9C740.9,391.9,740.9,391.9,740.9,391.9c-2.3-0.1-4.6-0.1-6.9-0.1c-0.1,0-0.2,0-0.2,0c-3.4,0.2-5.7,2.2-6,5.3
	c-0.4,3.2,1.3,5.6,4.4,6.7c3.6,1.3,6.2,3.8,7.9,7.2c2.4,4.8,6.5,5.5,10.1,1.6c1.8-1.9,3.7-2.9,6.4-2.8c3.4,0.2,6.9-0.2,10.3-0.1
	c1.7,0,2.4-0.8,2.4-2.4c-0.1-4-0.1-8.1-0.2-12.1c0-1.6-0.8-2.4-2.4-2.4C758.1,392.5,749.5,392.2,740.9,391.9z M771.8,244.5
	c-2.1,0-2.7,1.5-3.8,2.9c-4.5,5.8-9.3,11.4-14,17.1c-1.6,1.9-3.8,2.1-5.5,0.2c-5.3-6.2-10.5-12.5-15.8-18.7
	c-0.5-0.6-1.3-1.4-2.1-1.5c-0.8-0.1-2.1,1.4-2.2,2.2c-0.1,1.1,1.7,2.8,2,3.2c5.2,6,10.4,12,15.5,18c1.9,2.3,1.8,4.2-0.2,6.6
	c-1.9,2.2-3.7,4.6-5.6,6.8c-3.4,4-6.8,7.9-10.1,12c-0.6,0.7-0.9,1.7-1,2.5c0,0.4,1,1.3,1.4,1.3c0.9-0.2,1.8-0.8,2.5-1.5
	c0.8-0.7,1.2-1.6,1.9-2.4c4.2-5.1,8.5-10.1,12.7-15.2c2.3-2.7,4.3-2.8,6.6-0.2c4.2,4.9,8.4,9.9,12.6,14.8c1.3,1.6,2.6,3.4,4.4,4.3
	c1.5,0.8,2,1.6,2,3.2c0,8.3,0.1,16.5,0.2,24.8c0,0.8,0,1.7,0.3,2.4c0.2,0.5,0.8,1.1,1.2,1.1c1.8,0.1,3.7,0.1,5.1,0.1
	c0-32.6,0-64.7,0-97.1c-2,0-3.6,0.1-5.1,0c-1.7-0.1-2.4,0.6-2.3,2.3c0.1,3,0.1,5.9,0,8.9C772.6,243.1,772.1,244.5,771.8,244.5z
	 M726.6,200c-3.2,5.9-6.3,11.8-9.6,17.7c-0.9,1.6-0.6,2.4,1,3.3c4.7,2.5,9.3,5.1,13.9,7.7c8.5,4.6,16.9,9.2,25.4,13.9
	c1.7,0.9,2.6,0.6,3.5-1.1c2.5-4.8,5.2-9.5,7.8-14.2c0.9-1.6,1.7-3.1,2.8-5.1c-1-0.8-1.7-1.5-2.6-2.1c-5.4-3-10.8-6-16.2-9
	c-7.4-4.1-14.8-8.2-22.2-12.3C728.8,198.1,727.5,198.4,726.6,200z M704.2,206.3c0.5,0.3,2.2,0.5,2.5,0.1c1.1-0.7,1.3-0.8,1.2-2.5
	c-1.1-2.3-1.2-3.1,5.4,1.4c1.6,0.9,2.5,0.6,3.3-0.9c1.1-2.2,2.2-4.3,3.5-6.4c0.8-1.4,0.4-2.4-0.8-3.1c-2.4-1.3-4.8-3-7.3-4.2
	c-0.7-0.3-2.3-0.4-2.5,0c-2.3,3.8-4.5,8.4-6.3,12.3C702.7,203.7,703,205.4,704.2,206.3z M700.5,215.2c-4.9,3.9-9.8,7.9-14.6,11.8
	c-1.2,1-1.3,2.2-0.3,3.4c4.7,5.7,9.4,11.5,14.2,17.2c0.4,0.5,1,0.8,1.5,1.2c0.7-0.5,1.3-0.8,1.8-1.2c4.5-3.7,8.9-7.4,13.5-11
	c1.5-1.2,1.7-2.4,0.5-3.9c-3.2-4-6.5-7.9-9.7-11.9c-1.4-1.8-2.8-3.6-4.4-5.2C702.4,215.1,701,214.8,700.5,215.2z M636.8,161.9
	c5.6,3.5,11.2,6.9,16.9,10.3c10.9,6.5,21.8,13,32.8,19.5c2,1.2,4,2.3,6,3.2c2.9,1.3,4.8-0.4,5.5-1c3.9-3.2,3.4-7.7-1.1-10.5
	c-7.5-4.4-15.3-8.6-23.1-13.6c-10.1-6-20.1-12.1-30.2-18.2c-3.3-2-7.7-1.5-9.7,1.6C631.9,156.3,633.3,159.7,636.8,161.9z
	 M669.2,199.5c-4.9-2.6-10-5.1-15.1-7.4c-2.3-1.1-4.4,0-5.5,2.3c-2.2,4.6-4.4,9.3-6.7,14c-1.3,2.7-0.8,4.8,1.8,6.1
	c4.6,2.3,9.2,4.5,13.8,6.7c3.4,1.6,5.3,0.8,6.9-2.7c1.1-2.3,2.3-4.5,3.4-6.8c1.3-2.8,2.3-5.7,3.8-8.8
	C671.9,201.2,670.3,200.1,669.2,199.5z M630.5,211.3c-0.6,1-1.3,1.9-1.9,2.9c-5.8,9.9-11.5,19.8-17.3,29.6
	c-4.8,8.2-9.7,16.2-14.6,24.4c-4.6,7.6-9.1,15.3-13.6,23c-1.2,2.1-2.3,4.2-3.4,6.4c0,0,0,0,0,0.1c1.5,0.9,2.4,2.1,3.6,2.8
	c8.4,5.1,16.5,10.2,25,15.3c5.6,3.4,11.3,6.8,16.8,10.1c1.4,0.8,2.7,0.3,3.6-1.3c2.6-4.7,5.4-9.3,8.2-14c6-10.1,12-20.2,18-30.3
	c4.6-7.7,9.1-15.5,13.7-23.2c3.2-5.5,6.5-11,9.8-16.4c0.2-0.3,0.4-0.7,0.5-1c0.7-1.9-2.1-3.1-3.1-1.4c-3.5,5.9-7,11.8-10.4,17.8
	c-0.8,1.4-1.7,2-3.1,1.1c-1.8-1.2-2.8-1.9-4.7-3.1c-0.3-0.2-1.3-0.8-1.2-1.1c0.1-0.3,0.4-1,0.3-1c-1.8-1.1-3.1-1.9-5-2.8
	c-0.5-0.2-1,1-1.5,0.7c-4.2-2.4-9.3-5.6-13.4-8.1c-0.4-0.2-1.3-0.8-1.7-1.1c-0.2-0.2-0.6-0.2-0.5-0.5c0.1-0.3,0.3-0.4,0.4-0.7
	c0.1-0.3-0.2-0.6-0.4-0.8c-0.4-0.4-1.2-0.9-2-1.5c-0.6-0.4-1.1-0.6-1.7-1c-0.2-0.1-0.6-0.1-0.8,0.1c-0.3,0.2-0.6,0.6-0.9,0.8
	c-0.3,0-2-1.1-2.8-1.6c-1.6-1-1.4-0.9-2.9-2.1c-0.9-0.7-1.7-1.6-0.9-2.9c0.9-1.4,1.7-2.8,2.6-4.2c2.8-4.7,5.6-9.4,8.4-14.2
	c0.5-0.9,0-2-1-2.2C631.9,210,631.2,210.4,630.5,211.3z M582.7,122.3c-5.3,9.1-10.5,18.2-15.7,27.3c-1.9,3.3,0.7,4.5,5.3,7.6
	c3.4,2.3,8.8,5.5,12.4,7.7c2,1.2,3.2-3.8,5.4-5.6c0.4-0.3,1,0.2,0.9,0.7c-0.7,2.5-4.1,6.1-3,6.7c5.4,3.2,13.6,8,19,11.1
	c3,1.7,5,1.2,6.7-1.8c1.4-2.4,2.7-4.8,4.1-7.2c3.8-6.6,7.6-13.1,11.4-19.7c1.7-2.9,0.9-5.9-2.1-7.6c-5.3-3.1-12.8-7.7-18.2-10.6
	c-1.5-0.8-3.8,5-5.3,6.9c-0.2-0.2-0.7-0.3-0.6-0.6c0.8-1.9,4.3-7.2,3.1-8.1c-2.8-2.3-5.6-3.3-8.8-5.4
	C589.5,118.4,585.4,117.6,582.7,122.3z M497.7,77.6c2.7,1.5,5.4,3,8.1,4.5c3.5,1.9,3.6,1.9,1.6,5.4c-0.2,0.3-0.4,0.7-0.6,1
	c-0.3,0.5-1,0.7-1.6,0.4c-0.6-0.3-1.3,0-1.6,0.5c-0.6,1.2-1.3,2-0.9,2.3c1.7,1.3,1.3,2.2,0.5,3.3c-0.3,0.5-0.2,1.2,0.2,1.5
	c0.4,0.3,0.7,0.6,1.1,0.7c1.5,0.6,3.1,2.5,4.5-0.2c0.1-0.3,1.5-0.1,2.2,0.2c3.5,1.8,7,3.7,10.5,5.7c7.5,4.3,14.9,8.6,22.3,12.9
	c5.6,3.2,11.2,6.3,16.7,9.6c0.7,0.4,1.3,1.9,1.1,2.5c-0.7,1.5,0.1,2.1,1.1,2.7c0.7,0.4,1.4,0.8,2.2,1.2c0.5,0.3,1.2,0.1,1.5-0.4
	c0.6-1,1.2-1.9,1.8-2.9c2.8-4.9,5.6-9.8,8.4-14.6c1-1.7,0.9-3-1.3-3.7c-0.5-0.2-1.4-0.9-2-1c-0.6-0.1-1.3,1-1.6,1.5
	c-1.2,1.7-2.1,0.3-3.8-0.7c-8.8-5.2-17.7-10.3-26.5-15.4c-7.2-4.2-14.6-8.3-21.8-12.5c-0.6-0.4-0.9-1.6-0.5-3.3
	c-0.4-0.9-1.1-1.1-1.7-1.7c-0.6-0.6-1.4-0.9-2.2-1.3c-0.5-0.2-1.1-0.1-1.5,0.4c-0.3,0.5-0.6,0.9-0.8,1.4c-0.9,1.7-1.9,2.3-3.7,1.1
	c-2-1.3-4-2.1-6-3.5c-2-0.8-2.9-1.7-2.2-3.5c0.2-0.6,0-1.2-0.5-1.5l-0.7-0.4c-0.5-0.3-1.2-0.1-1.6,0.4c-0.7,1.1-1.3,2.2-1.9,3.2
	C495.4,75.3,496,76.7,497.7,77.6z M494.3,142.3c3.5,7.1,7,14.2,10.6,21.3c1.5,2.9,3.5,3.5,6.3,2.1c5.3-2.7,10.6-5.4,15.8-8.2
	c1.9-1,2.9-0.8,3.8,1.2c3.8,7.6,7.6,15.1,11.5,22.6c0.4,0.7,1.7,1.6,2.2,1.4c2.2-0.9,4.5-2,6.5-3.3c1.5-1,2.2-2.6,1-4.5
	c-0.8-1.2-1.4-2.4-2.1-3.8c-3,1.5-3,1.5-4.6-1.6c-1.2-2.4-2.4-4.8-3.7-7.2c-0.6-1.2-0.8-2.2,0.6-3.1c0.5-0.3,0.7-1.6,0.4-2.2
	c-1.7-3.7-3.3-7.5-5.5-10.9c-4-6.3-8.4-12.2-12.6-18.4c-2.9-4.3-3.7-4.6-8.3-2.3c-6.6,3.3-13.2,6.7-19.7,10.1
	C493.5,137.2,492.8,139.2,494.3,142.3z M471.3,76c-2.5,0-3.3,0.8-3.3,3.4c0,2.9,0,5.8,0,8.7c0,3.1,0,6.1,0,9.2
	c0,1.7,0.8,2.5,2.5,2.5c5.8,0,11.6,0,17.4,0c1.8,0,2.8-0.9,2.8-2.7c0-6,0-12.1,0-18.1c0-2.2-1.2-3.1-3.5-3.1
	C482,76.1,476.6,76,471.3,76z M427.4,65.4c4.3,3.1,8.5,6.4,12.5,9.8c2.8,2.4,6.1,4.4,5.1,9.4c-0.2,3.1,1.5,4.1,3.3,4.3
	c1.6,0.2,3.5,0.2,5.7,0.5c1.4-1.8,3.1-4.1,4.9-6.4c2.4-2.9,2.4-2.9-0.6-5.2c-1.5-1.1-1.9-2.2-0.4-3.8c1.6-1.7,2.8-3.6,4.1-5.5
	c2.2-3,2.2-3,5.2-0.6c0.6,0.5,2.1,0.8,2.4,0.4c2.6-3,4.9-6.2,7-8.9c-1.2-2.1-1.9-4.1-2.7-5.7c-1-1.9-2.4-1.8-3.6-1.3
	c-0.7,0.2-0.8,0.2-1.1,0.4c-2.2,1.5-4.8,0.8-7.2-0.9c-5.4-3.8-10.7-7.7-16-11.7c-3.3-2.5-6-2.8-8.8,0.3c-4.2,4.8-8.5,9.6-11.6,15.1
	C422.8,60.8,422.7,61.9,427.4,65.4z M370.3,87.6c4.2,1.4,7.8,3.6,10.2,7.5c1.6,2.5,3.5,4.7,5.4,6.9c0.6,0.7,1.6,1.2,2.4,1.2
	c0.6,0,1.7-0.8,1.7-1.4c0.1-0.9-0.2-2.2-0.7-2.9c-2.4-3.2-4.9-6.3-7.4-9.5c-2-2.5-1.7-4.2,0.9-6.2c1.4-1.1,2.8-2.3,4.2-3.4
	c9.2-7.1,18.4-14.1,27.5-21.3c1.7-1.5,1.3-1.8,1-2.8c-0.2-0.7-0.8-1.9-1.4-2c-0.8-0.1-1.7,0.6-2.4,1.1c-1,0.8-1.9,1.8-2.9,2.6
	c-3.3,2.7-6.7,5.3-10,8c-2.5,2.1-3.6,2-5.6-0.6c-0.8-1-2.3-2.4-3.1-2.4c-1.8,0-3.5,1.4-3.2,3.5c0.2,1.4,0.9,2.8,1.8,3.9
	c1.1,1.5,1.4,2.4-0.3,3.7c-3.1,2.4-6.3,4.7-9.2,7.3c-2.1,1.9-4,2.3-6.4,0.6c-0.9-0.6-2.5-1.2-3.2-0.8c-1,0.5-1.9,1.9-2.1,3.1
	C367.3,85.8,368.5,87,370.3,87.6z M305.4,123.1c0.9,1.4,1.9,2.8,2.8,4.3c1.8,2.7,2.3,2.9,5,1c6.5-4.6,13-9.3,19.5-13.9
	c1.6-1.1,2.8-1,4,0.8c3.3,5,6.8,9.8,10.2,14.7c2.2,3.1,3.3,3.2,6.4,1.1c6.5-4.5,13.1-9,19.6-13.7c1.1-0.8,1.7-2.2,2.3-3.1
	c-0.4-1.4-0.4-2.3-0.8-2.9c-4.9-7.1-9.7-14.1-14.7-21.2c-1.1-1.6-2.7-2.3-4.7-1.3c-1.5,0.8-3,1.6-4.5,2.4c-9.4,4.9-19,9.3-27.4,15.9
	c-0.5,0.4-1,1.9-0.7,2.3c1.2,1.7,0,2.5-1,3.2c-2.5,1.8-5.1,3.5-7.7,5.2c-0.5,0.3-1.8,0.5-2,0.2c-2.3-2.6-3.9-0.2-5.5,0.8
	C304.6,119.9,304.3,121.4,305.4,123.1z M275,157.3c1.5,0.3,3,0.6,4.5,0.9c8,1.7,16,3.3,24,5c2.1,0.4,3.8-0.1,5.2-1.8
	c2.9-3.8,4.6-8.1,4.6-12.9c0-0.8,0.1-1.7,0-2.5c-0.5-5-2-7.1-5.9-7.9c-8.9-1.8-17.8-3.6-26.7-5.3c-3.9-0.8-4.6-0.2-5.3,3.8
	c-1.1,5.5-2.2,10.9-3.3,16.4C271.6,155.2,272.6,156.8,275,157.3z M226.1,171.7c2,3.2,4,6.4,6,9.5c1.9,2.9,2.4,2.9,5.5,1
	c7.5-4.7,15.2-9.2,22.7-13.9c1.4-0.9,2.6-2.1,3.9-3.2c-0.6-1.3-0.8-2.1-1.3-2.8c-1.8-3.1-3.8-6.1-5.6-9.2c-1-1.9-2-2.2-3.8-1
	c-9,5.6-18,11.2-27,16.7C225.1,169.7,225.4,170.7,226.1,171.7z M219.4,208.1c-6-1-10.5,2.2-14.8,5.6c-0.7,0.5-1.1,1.7-1.1,2.6
	c-0.2,3-0.2,6.1-0.1,9.2c0,2.1,1,3.4,3.3,3.3c0.7,0,1.5-0.1,2.2,0c1.7,0.2,2.5-0.4,2.7-2.2c0.2-2.2,2.1-3.9,4.1-3.7
	c2.2,0.2,3.6,1.5,3.6,3.9c0,1.6,0.9,2.2,2.4,2.1c0.8-0.1,1.6,0,2.5,0c2.5,0.1,3.2-0.5,3.3-3c0.1-3.4,0-6.8,0-10.1c0.1,0,0.2,0,0.2,0
	c0-1.7,0-3.3,0-5c0.1-1.7-0.7-2.3-2.4-2.3C223.3,208.4,221.3,208.4,219.4,208.1z M187.8,183c0.4,0.7,0.6,1.2,0.9,1.7
	c2.8,4.6,5.6,9.2,8.4,13.8c2,3.3,3.1,3.7,6.4,1.7c4.4-2.6,8.8-5.3,13.1-8.1c1.8-1.1,2-2.7,0.9-4.5c-2.9-4.9-5.8-9.8-8.9-14.6
	c-0.9-1.4-2.1-2.7-4-1.5c-5,3.1-10.1,6.2-15.1,9.4C188.9,181.5,188.4,182.3,187.8,183z M139,219.8c5.6,8.1,11.1,16.4,16.5,24.6
	c1.9,2.8,4.2,3.5,7,1.5c2.2-1.5,4.4-3.1,6.6-4.6c2-1.3,2.2-2.9,1-4.8c-0.8-1.2-1.5-2.5-2.3-3.8c0.2-0.1,0.4-0.3,0.7-0.4
	c0.7,0.9,1.4,1.8,2,2.7c1.4,2,3.8,2.6,5.8,1.3c5.4-3.6,10.7-7.2,16-10.8c2.5-1.8,2.9-3.4,1.3-6.1c-2.6-4.2-5.4-8.2-8.1-12.3
	c-3.2-4.8-6.5-9.7-9.8-14.5c-1.5-2.2-4-2.9-6-1.6c-5.5,3.7-11,7.5-16.5,11.5c-2,1.5-2.3,3.7-0.9,5.8c0.8,1.1,1.6,2.2,2.4,3.4
	c-0.1,0.2-0.2,0.4-0.3,0.6c-0.6-0.5-1.3-0.9-1.8-1.4c-0.7-0.8-1.1-1.8-1.7-2.7c-1.5-2-2.9-2.2-5-0.8c-1.9,1.3-3.9,2.7-5.8,4.1
	C136,214.4,136,215.5,139,219.8z M94,242.2c3.4-0.2,5,1.6,5.8,2.8c2.3,3.4,5.5,6.6,4.2,11.4c0,0.1,0,0.3,0,0.3
	c0.4,1.7,0.6,2.6,2.7,1.3c0.5-0.3,1.1-0.7,1.9-0.3c0.1,0.2,0.5,0.7,0.6,0.9c-0.5,0.6-1,1.2-1.3,1.8c-0.3,0.6-0.5,1.3-0.7,1.9
	c0.8,0.2,1.9,0.8,2.4,0.5c3.8-2.5,7.9-4.5,10.5-8.6c3.6-5.9,8.9-9.6,15.7-11.1c2.5-0.6,5.5-0.1,7.4-3c-0.9-1.4-1.8-2.8-2.6-4.2
	c-0.9-1.6-2-2.2-3.7-1.1c-1.2,0.8-2.9,0.5-3.7-0.7c-2.2-3.3-4.5-6.6-6.5-10.1c-0.5-0.8-0.1-3,0.6-3.4c2.4-1.4,1.5-2.7,0.4-4.2
	c-0.4-0.6-0.9-1.2-1.3-1.8c-1.4-2.2-2.3-2.5-4-0.6c-1.3,1.3-1.9,3.3-3,4.9c-4.1,5.6-9.4,9.5-16.4,10c-5.7,0.4-9,4.4-13.7,7
	c1,0.8,1.6,1.3,2.2,1.8c1.1-0.6,2-1,2.9-1.5c0.3,0.5,0.3,1.5,0.3,1.6c0,0.2-1.9,1.1-2.5,2.2C92.8,240.9,92.8,241.6,94,242.2z
	 M95.8,323.2c1.6,0.1,3,0.2,4.5,0.3c0,5.6,0,11.1,0,16.9c-1.5,0-2.8,0-4.2,0c0,13.6,0,26.9,0,40.2c0,3.6,1.6,5.2,5.2,5.3
	c2.7,0.1,5.4,0,8.1,0c2.6,0,4.5-0.9,5.6-3.4c0.3-0.7,1.4-1.4,2.1-1.5c4.6-0.2,9.2-0.3,13.7-0.2c0.9,0,2.3,0.8,2.6,1.6
	c0.9,2.5,2.8,3,5,3.1c2.9,0,5.7,0,8.6,0c3.8,0,5.2-1.4,5.2-5.4c0-9.5-0.1-19-0.2-28.5c-0.1-22.6-0.1-45.3-0.2-67.9
	c0-0.2,0-0.5,0-0.7c-0.1-3.4-1.6-5-5-5c-3-0.1-6.1,0-9.1,0c-2.3,0-3.9,0.8-4.9,2.9c-0.3,0.7-1.4,1.5-2.1,1.5
	c-5.3,0.1-10.6,0.1-16.1,0.1c-1.2-3.4-2.3-4.2-5.7-4.2c-2.6,0-5.2,0-7.9,0c-4.8,0-5.7,0.9-5.7,5.8c0,12.2,0,24.5,0,36.7
	C95.8,321.4,95.8,322.3,95.8,323.2z M98.3,622.4c6.6-0.1,13.1-0.1,19.7,0c2.3,0,3.2-0.9,3.2-3.2c-0.1-7.3,0-14.7,0-22
	c-0.1,0-0.1,0-0.2,0c0-7.4-0.1-14.9,0-22.3c0-2.3-0.8-3.1-3-3c-6.1,0.2-12.2,0.4-18.4,0.5c-3.7,0.1-3.7,0-3.7,3.7
	c0.1,14.5,0.2,29.1,0.2,43.6c0,0.2,0,0.5,0,0.7C96.1,621.8,96.7,622.4,98.3,622.4z M205.1,650.3c-4.3-2.7-8.8-5.3-13-8.2
	c-3.6-2.5-7.3-4.9-10.3-8c-3.6-3.8-6.5-8.2-9.7-12.4c-6.1-8-12.3-15.9-18.4-23.9c-1.9-2.5-3.6-5.3-5.5-7.7c-0.5-0.6-1.8-1.1-2.5-0.8
	c-0.9,0.3-2,1.2-2.3,2.1c-0.8,2.5-1.1,5.1-1.8,7.6c-3.3,12.5-6.7,24.9-10.1,37.3c-0.8,2.9-1.8,5.6-2.9,8.9
	c-7.3-4.1-13.7-7.7-20.2-11.3c-1-0.6-2.1-1.6-3.1,0c-1,1.6-1.9,3.4-2.8,5.1c32.7,18.5,65.3,36.9,97.9,55.4c0.8-1.6,1.2-3,2.1-4
	c1.8-2,0.8-2.8-1-3.9c-7.1-4-14.1-8-21.2-12.1c-2.4-1.4-2.4-2.5,0-4c4.6-3,9-6.1,13.6-9c3.5-2.2,7-4.3,10.6-6.4
	C206.4,653.9,206.7,651.3,205.1,650.3z M211.7,643.2c5.3-2.4,10.5-4.5,15.5-7c2.6-1.2,3.1-3,2-5.7c-2-4.9-4.1-9.8-6.2-14.7
	c-1-2.4-3.5-3.6-5.6-2.6c-5.2,2.2-10.2,4.5-15.6,6.9c0.6,1.3,1,2.4,1.6,3.8c2.7-1.1,5.3-2.1,7.9-3.1c0.5,2.5,1.6,3.2,3.6,1.8
	c0.5-0.4,1.2-0.5,1.8-0.8c1.4-0.8,2.4-0.6,3,1.1c0.7,1.8,1.5,3.6,2.4,5.4c0.6,1.3,0.3,1.9-1,2.4c-1.5,0.6-3,1.4-4.5,2.1
	c0.4,1.2,0.7,2,1,2.9c-2.7,1.3-4.9,2.4-7.3,3.5C210.7,640.6,211.1,641.7,211.7,643.2z M259.6,695.7c-0.6-0.7-1.3-1.6-2.2-2.2
	c-3.3-2.1-6.8-4.2-10.1-6.2c-5-3.1-9.9-6.2-15-9.2c-2.4-1.5-3.6-1.1-5.1,1.4c-1.7,2.8-3.4,5.5-5.1,8.3c-1.9,3.2-1.9,3.5,1.5,5.4
	c0.6,0.4,1.3,0.6,1.9,1c8,4.9,15.9,9.8,23.9,14.7c1.4,0.9,2.3,0.7,3.1-0.7c1.9-3.3,4-6.5,6-9.8C258.8,697.7,259.1,696.9,259.6,695.7
	z M260.9,677.9c7.3-0.1,14.6,0,21.9,0c7.4,0,14.7,0,22.1,0c1.8,0,3.2-0.7,3.2-2.6c0-6.8-0.2-13.5-0.1-20.3c0-2.5-1.2-3-3.4-3
	c-11.7,0.2-23.4,0.4-35,0.5c-2.9,0-5.9,0.1-8.8,0c-1.9-0.1-2.7,0.8-2.7,2.6c0.1,6.8,0.2,13.5,0.2,20.3
	C258.2,677.4,259,677.9,260.9,677.9z M312.4,747.8c4.8-8,9.6-16,14.6-23.9c2.4-3.8,1.1-5.6-1.4-7.2c-5.1-3.3-10.3-6.5-15.5-9.7
	c-2.8-1.7-5-1.1-6.7,1.6c-0.5,0.9-1.1,1.7-1.7,2.6c-0.2-0.1-0.4-0.3-0.6-0.4c0.8-1.5,1.4-3.1,2.4-4.4c1.6-2,0.5-3.2-1.1-4.2
	c-2.3-1.5-4.7-2.9-7.1-4.3c-3.3-1.9-5-1.6-7.1,1.7c-4.3,6.9-8.6,13.9-12.8,20.9c-1.4,2.2-2.8,4.4-4,6.7c-1.1,2.2-0.6,4.2,1.2,5.4
	c1.9,1.2,3.8,2.5,5.8,3.6c5.2,3,5.2,3,8.2-2.3c0.4-0.7,1.1-1.3,1.6-1.9c0.2,0.2,0.4,0.4,0.5,0.5c-0.6,1.1-1.3,2.2-1.9,3.3
	c-1.5,2.5-0.8,5.2,1.8,6.7c4.8,3,9.5,5.9,14.3,9c3.9,2.5,6,2.1,8.3-1.9C311.4,749.1,312,748.5,312.4,747.8z M421,797.2
	c3.3-5.7,6.8-11.4,10.1-17.1c2.7-4.5,5.3-9,7.9-13.6c0.7-1.3,1.5-2.7-0.3-3.8c-0.9-0.5-1.8-1.1-2.7-1.6c-9.5-5.6-19-11.3-28.5-16.9
	c-9.9-5.9-19.7-11.8-29.6-17.7c-7.6-4.6-15.2-9.2-22.8-13.8c-2-1.2-3-0.9-4.4,1.7c2.2,1.3,4.4,2.7,6.6,4.1c4.3,2.6,8.6,5.2,12.9,7.9
	c0.5,0.3,1.2,1.1,1,1.3c-1.3,2.4-2.2,5.5-4.3,6.9c-2.1,1.4-3.7,3.4-3.6,5c0.1,2.4-1.1,3.8-2,5.5c-1.9,3.5-4,6.9-6,10.4
	c-0.2,0.3-0.4,0.8-0.5,0.8c-2.9,0-2.8,3-4.2,4.5c-0.3,0.3-0.2,0.8-0.3,1.3c-0.1,0.6,0.1,1.4-0.1,1.9c-0.5,1.2-1.3,2.3-1.9,3.4
	c-1.4,2.4-2,2.6-4.4,1.1c-6.2-3.7-12.3-7.4-18.5-11.1c-1.9,2.5-1.8,3.3,0.6,4.8c3.5,2.1,7,4.1,10.5,6.2c12,7.2,24,14.4,36,21.6
	c6.4,3.9,12.9,7.7,19.3,11.6c5.8,3.5,11.6,6.9,17.4,10.4c1.4,0.9,2.5,0.9,3.4-0.8C415.5,806.5,418.2,801.8,421,797.2z M450.9,809.9
	c-0.6,0-1.2-0.1-1.7-0.2c0-2,0-3.7,0-5.4c0-1.7-0.4-3.2-2.4-3.3c-3.6-0.2-7.2-0.3-10.7-0.5c-2.1-0.1-3.2,0.9-3.2,3.1
	c0,1.7-0.2,3.4-0.3,5.6c-1.2,0-2.2,0.1-3.1,0c-2.2-0.2-3.1,0.7-3,3c0.1,3.5,0.1,7.1-0.3,10.6c-0.4,4.4,2.9,7.9,6.4,9.1
	c4.5,1.6,9.1,1.7,13.8,0.8c4.8-0.9,7.4-3.7,7.9-8.4c0.3-3.5,0.4-7.1,0.5-10.6C454.7,810.2,454.4,810,450.9,809.9z M457.6,630.9
	c0.7-1.1,1.6-2.8,0.3-4.2c-0.5-0.6-1.4-1.9-1.1-2.6c0.7-1.9,1.6-3,2.8-5.1c0.2-0.4,0.7-0.5,1-0.1c0.5,0.6,0.8,1.8,1.1,2.3
	c0.8,1.3,2.3-2.5,2.4-2.9c0.9-2,2.2-4.1,1-4.7c-1.1-0.6-0.8-0.6-2.7-1.5c0.9-1.7,1.7-3.4,2.6-5.1c0.1,0.2,1.2,0.6,2,0.9
	c0.5,0.2,1.1,0.1,1.4-0.3c0.6-0.7,1.2-1.3,1.5-2c1.2-1.7,1.6-3,2.5-4.8c0.2-0.3-0.1-0.7-0.4-0.8c-0.7,0-1.4,0.1-2.1,0.1
	c-0.5,0.1-0.9-0.4-0.7-0.9c1.5-5,2.2-5.9,6.5-6.3c1.1-1.9,0.6-3-1.5-3.6c-0.5-0.1-0.9-0.4-1.3-0.6c-2.2-0.6-4.3-1.2-6.5-1.5
	c-2.6-0.4-5.5,0.2-7.8-0.8c-6-2.6-11.9-5.6-17.7-8.7c-6.1-3.2-9.7-2.8-13.5,3c-2.5,3.8-4.2,8.1-6.2,12.2c-1.5,3-2.8,6.5-2.7,9.8
	l0.1,4.1c0.1,0.4,0,0.8,0.9,1.4l2.6,1.5c4.6,2.3,9.8,4.9,15.1,7.5c3.9,1.9,8.3,3.4,10.5,7.6c1.7,3.3,5,4.8,7.9,6.4
	C455.8,631.6,457.3,631.4,457.6,630.9z M483.5,806.2c-0.3-1.5-0.5-3.1-0.5-4.6c-0.1-9.1-0.2-18.3-0.2-27.4c0-1.9-0.4-3-2.6-2.9
	c-1.8,0.1-3.6,0-5.4,0c-1.9,0-3.8,0.1-5.6,0c-2.2-0.1-2.9,1.1-2.8,3c0.1,3,0.1,5.9,0.2,8.9c0.2,3.2-0.8,5.7-3.3,7.8
	c-3.2,2.9-2.3,8.2,1.5,9.9c3.9,1.7,6.7,4.4,8.1,8.5c1,3,3.8,4.5,6.8,3.6C482.3,812.3,484.1,809.1,483.5,806.2z M484.3,755.2
	c5.7-0.2,15.3-0.2,20.5-0.2c5.1,0,5.6-1.8,5.7-7.9c0.1-9.1,0-18.1-0.3-27.3c-0.1-4.7-1.2-6.5-5.6-6.5c-5.7,0.1-11.4,0.4-17.1,0.5
	c-5.2,0.1-4.9,0-4.9,5.1c0,0.6,0,2,0,2.5c-0.2,0-0.3,0-0.5,0c0-1.2,0-3.1,0-4.3c0.2-2.7-1.4-3.1-4.8-3.2c-4.4-0.1-8-0.1-12.1-0.1
	c-9.1-0.1-8.1,0.7-8.2,9.1c-0.1,8.2,0,16.2-0.1,24.4c0,5.8,0.6,8.1,5.1,8.1c5,0,14,0.1,18.9,0c0.8,0,1.1-0.6,1.2-1
	c0.2-1.6,0.2-2.4,0-7.7c0-0.2,0.6-0.1,0.9-0.1c0.1,1.1,0.3,5.2,0.3,7.4C483.2,754.7,483.7,755.2,484.3,755.2z M520.9,777.1
	c-2.2-3.7-4.1-7.6-6.1-11.4c-3.6,1.9-3.6,1.9-1.9,5.4c0.2,0.4,0.2,0.9,0.5,1.1c1.9,1.9,1.6,3.3-1.2,4.4c0.9,1.7,1.6,3.2,2.4,4.7
	c0.6,1.1,0.5,1.9-0.8,2.5c-2.3,1.1-4.6,2.3-7.1,3.6c-1.2-2-2.3-4-3.4-6c-1,0.5-1.8,0.8-2.8,1.3c-1.1-2-2.2-3.7-3.1-5.6
	c-0.6-1.2-1.2-1.3-2.3-0.8c-2.2,1-2.4,1.6-1.2,3.7c2.2,4,4.3,7.9,6.4,11.9c1.5,2.9,4.3,3.8,7.1,2.1c3.3-1.9,6.6-3.9,10-5.5
	C524.7,785.3,524.3,783,520.9,777.1z M570.9,750.3c-1.8-3-3.3-5.8-5.2-8.4c-0.5-0.7-2.6-0.8-3.7-0.4c-2.2,0.8-4.2,2.2-6.2,3.3
	c-8.4,4.8-16.8,9.6-25.1,14.5c-1.9,1.1-3.5,2.7-1.4,5.5c1.9,2.5,3.3,5.3,4.7,8.1c0.8,1.6,1.4,2.1,2.8,1.1c2.6-1.7,5.5-3.2,8.2-4.8
	c7.9-4.6,15.9-9.1,23.7-13.8c0.9-0.5,1.4-1.5,2.2-2.6C571.3,752.1,571.3,751.1,570.9,750.3z M600.6,734.9c-0.2-0.8-0.3-1.4-0.5-1.9
	c-3.2-5.2-6.3-10.5-9.6-15.7c-1-1.5-2.4-1.8-3.9-0.8c-5,3.1-10,6.1-14.9,9.3c-0.7,0.5-1.4,2.4-1,3c3.2,5.7,6.7,11.2,10.1,16.8
	c0.9,1.5,2.2,1.3,3.4,0.6c5-3,9.9-6.2,14.8-9.3C599.7,736.5,600.1,735.6,600.6,734.9z M651.6,681.2c-1.2-0.2-2.2-0.5-3.1-0.4
	c-2.1,0.2-2.7-0.8-2.7-2.7c0.1-3.1,0.1-6.3,0-9.4c0-0.7-0.8-1.9-1.2-1.9c-1.9,0-4.2-0.3-5.7,0.6c-2.3,1.4-4.5,1.5-7,1.5
	c-4,0-8,0.2-12-0.1c-1.7-0.1-4-0.7-5-1.9c-1.7-2.1-3.7-2.1-5.9-2c-1.4,0.1-2.8,0.1-4.2,0.3c-2.2,0.2-5.8,4.2-5.5,6.3
	c0.1,0.7,0.8,1.5,1.4,1.7c2.1,0.8,4.3,1.5,6.5,2.1c1.9,0.5,2.8,1.7,2.8,3.7c0,4.6,0.1,9.2,0.1,13.9c0,6.2,0,6.2-5.9,8.1
	c-0.5,0.2-1.1,0.4-1.6,0.7c-4,1.7-4.3,3.8-1.1,6.9c2.7,2.7,6,2.8,9.4,2.5c1.1-0.1,2.5-0.7,3.2-1.5c1.9-2.1,4.1-3.1,6.9-3.1
	c4.8,0,9.5,0,14.3,0c1,0,2.4,0.1,2.9,0.8c1.6,2,3.7,1.3,5.6,1.6c1.7,0.3,2.6-0.4,2.5-2.3c-0.2-2.8-0.2-5.6-0.3-8.4
	c0-3.8,0-3.8,3.6-3.9c0.6,0,1.2-0.2,1.9-0.3C651.6,689.8,651.6,685.7,651.6,681.2z M755.4,641.4c-4.8-7.7-9.4-15.5-14-23.3
	c-4.3-7.2-8.6-14.4-12.8-21.7c-0.8-1.3-1.7-1.4-2.8-0.7c-3.1,1.9-6.1,3.8-9.2,5.7c-17.5,10.6-35,21.2-52.5,31.8
	c-7.4,4.5-14.7,9-22.2,13.5c-1.5,0.9-1.7,1.8-0.8,3.2c0.9,1.5,1.6,0.6,2.5,0c5.7-3.5,11.5-7,17.4-10.4c0.7-0.4,2-0.8,2.2-0.6
	c1.6,2.2,3.8,4.5,4.2,7c0.2,1.8,0.6,3.2,1.6,4.5c0.8,1.1,2.3,1.8,3,2.9c2.3,3.4,4.5,6.9,6.4,10.4c0.8,1.4,1.8,2.7,1.6,4.8
	c-0.1,1.6,1.4,4.1,2.9,4.7c1.3,0.6,1.8,1.2,2.4,2.2c0.5,0.7,0.9,1.6,1.4,2.3c1.7,2.8,1.7,3.1-1.1,4.8c-6,3.7-12.1,7.3-18.3,11.1
	c1.8,2.9,2.2,3,4.8,1.4c7.6-4.6,15.1-9.2,22.7-13.8c8.5-5.1,17-10.2,25.5-15.3c11.4-6.9,22.8-13.9,34.2-20.8
	C756.3,644.1,756.6,643.3,755.4,641.4z M784.5,608c0-1.4-1.2-2.6-2.6-2.6c-5.9-0.1-11.9-0.1-17.8,0c-2.3,0-4.3,1.8-4.3,3.9
	c-0.1,6-0.1,11.9,0,17.9c0.1,1.8,1.5,3.2,3.3,3.2c3,0,6,0,9,0c3.4,0,6.8,0.1,10.2-0.1c1.2-0.1,2.2-1.1,2.2-2.3
	C784.6,621.3,784.6,614.6,784.5,608z M431.3,763.7l-1.4-1.4h-3.8l-4.9,7.5v1.4l1.4,3.4l1.5,0.9h0.6l6.6-10.4V763.7z M414.1,801.1
	c-0.8,0-1.5,0.7-1.5,1.5c0,0.8,0.7,1.5,1.5,1.5c0.8,0,1.5-0.7,1.5-1.5C415.6,801.8,414.9,801.1,414.1,801.1z M407.9,772.4l-4.8,7.7
	v1.1l4.8,8.6H418l4.8-8.1v-1l-4.4-8.2H407.9z M440.3,822.4c-1.1,0-2,0.9-2,2c0,1.1,0.9,2,2,2c1.1,0,2-0.9,2-2
	C442.3,823.3,441.4,822.4,440.3,822.4z M432.2,773.4c0.9,0,1.6-0.8,1.6-1.8c0-1-0.7-1.8-1.6-1.8c-0.9,0-1.6,0.8-1.6,1.8
	C430.6,772.6,431.3,773.4,432.2,773.4z M429.2,817c-0.7-0.1-0.5,0.3-0.8,1l-0.2,1v6l1.1,1.8l2,1.1l1.3,0.7l0.5-9.5l-1.7-2L429.2,817
	z M369.9,758.8l15.2,9.4c1.4,0.9,3.2,0.4,4.1-1l11.5-18.9c0.9-1.4,0.4-3.2-1-4.1l-15.2-9.4c-1.4-0.9-3.2-0.4-4.1,1l-11.5,18.9
	C368.1,756.1,368.5,758,369.9,758.8z M371.6,745.7c1.1,0,2-0.9,2-2c0-1.1-0.9-2-2-2c-1.1,0-2,0.9-2,2
	C369.6,744.8,370.5,745.7,371.6,745.7z M405,790.9l-4.9-8.3l-10.2,0.3l-4.7,7.9v1.8l11.6,7.9l3.9-0.6l4.3-7.8V790.9z M364.4,758
	l-9.1,14.9l24.4,15.1l9.1-14.9L364.4,758z M413.5,793.2h-5.9l-4.6,7.6v2l2,2.4l2.6-0.2l6.5-10L413.5,793.2z M451.5,606.5
	c0-1.6-1.1-2.9-2.6-2.9c-1.4,0-2.6,1.3-2.6,2.9c0,1.6,1.1,2.9,2.6,2.9C450.4,609.3,451.5,608.1,451.5,606.5z M451.1,623
	c-1,0-1.8,0.8-1.8,1.9s0.8,1.9,1.8,1.9s1.8-0.8,1.8-1.9S452.1,623,451.1,623z M434.8,579.4l-2.8-1.2c-0.6-0.2-1.2,0-1.5,0.6
	l-0.3,0.8c-0.2,0.6,0,1.2,0.6,1.5l2.8,1.2c0.6,0.2,1.2,0,1.5-0.6l0.3-0.8C435.6,580.3,435.3,579.6,434.8,579.4z M478.3,805.3
	c-1.1,0-2,0.8-2,1.8c0,1,0.9,1.8,2,1.8s2-0.8,2-1.8C480.3,806.1,479.4,805.3,478.3,805.3z M466.7,793c-1,0-1.9,0.8-1.9,1.9
	s0.8,1.9,1.9,1.9s1.9-0.8,1.9-1.9S467.8,793,466.7,793z M440.7,806.9c-1.1,0-2.1,0.9-2.1,2.1s0.9,2.1,2.1,2.1s2.1-0.9,2.1-2.1
	S441.9,806.9,440.7,806.9z M477.5,779.4c0-1.3-1-2.3-2.3-2.3c-1.3,0-2.3,1-2.3,2.3c0,1.3,1,2.3,2.3,2.3
	C476.4,781.7,477.5,780.7,477.5,779.4z M467.6,592.4c0.9,0,1.7-0.8,1.7-1.7c0-0.9-0.8-1.7-1.7-1.7c-0.9,0-1.7,0.8-1.7,1.7
	C465.9,591.6,466.7,592.4,467.6,592.4z M447.6,819.3v9.6l2.3-0.8l1.6-1.7l0.9-2.3v-6c0,0-2.9,0-4.5,0.2
	C447.7,818.4,447.6,819.3,447.6,819.3z M423.2,602.8l-1.8-0.9c-0.7-0.4-1.6-0.1-2,0.6l0,0c-0.4,0.7-0.1,1.6,0.6,2l1.8,0.9
	c0.7,0.4,1.6,0.1,2-0.6l0,0C424.2,604.1,423.9,603.2,423.2,602.8z M460.8,601.8l2.3,1c0.7,0.3,1.4,0,1.7-0.7l0.3-0.8
	c0.3-0.7,0-1.4-0.7-1.7l-2.3-1c-0.7-0.3-1.4,0-1.7,0.7l-0.3,0.8C459.9,600.7,460.2,601.5,460.8,601.8z M424,595.1
	c-1.3,0-2.4,1.2-2.4,2.7c0,1.5,1.1,2.7,2.4,2.7c1.3,0,2.4-1.2,2.4-2.7C426.3,596.3,425.3,595.1,424,595.1z M371.3,86.2
	c1,0,1.8-0.8,1.8-1.8c0-1-0.8-1.8-1.8-1.8c-1,0-1.8,0.8-1.8,1.8C369.5,85.4,370.3,86.2,371.3,86.2z M453.7,68.4l1.9-2.5h0.5l4.2,3.1
	l-0.4,0.4l-2-1.3l-0.6,1l0.8,2.6l-0.8,0.6l-0.3-2.5l-1,0.4L453.7,68.4z M454.8,68l1.3,1.2l1.3-1.4l-1.3-1.4L454.8,68z M520.1,129.8
	c1.1,0,2-0.9,2-2c0-1.1-0.9-2-2-2c-1.1,0-2,0.9-2,2C518.1,128.9,519,129.8,520.1,129.8z M623.9,287.4l-8-5.6l-1.4,0.3l-7.8,4.8v9.4
	l8.1,5.4h1.9l7.2-4.4V287.4z M442.7,70.7c8-0.2,12.7-5.8,13-13.2c0.2-7.1-5.9-13-13.2-12.9c-7.1,0.1-12.9,5.9-12.8,13
	C429.5,65.1,435.7,71,442.7,70.7z M460.2,67.1l-2.8-2v-2l2.5-2.1l3.4,2.5v1.3l-1.7,2.3H460.2z M458,64.7l3.2,1.9l1.3-1.5v-1.1
	l-2.7-2l-1.8,1.5V64.7z M695.1,227.7c-1,0-1.9,0.8-1.9,1.7s0.8,1.7,1.9,1.7c1,0,1.9-0.8,1.9-1.7S696.2,227.7,695.1,227.7z
	 M466.2,60.7l-3.4-4.9l-0.4,0.5l2.8,4.4l-4.3-1.6l-0.4,1l5.3,1.2L466.2,60.7z M624.7,300.2l-8,4.6v6.5l9.7,6.4h2.2l5.5-9.1l0.2-3.5
	l-8.5-5.2L624.7,300.2z M606.5,283.7l7.6-4.4V269l-8.1-5.1h-1.2l-2.4,0.7l-6,10.9v3l8.3,5H606.5z M603.8,300.1l-6.4,3.6v1.7
	l14.2,8.5h1.8v-9l-8-5L603.8,300.1z M391.4,65.7c0-0.6-0.6-1.1-1.2-1.1c-0.7,0-1.2,0.5-1.2,1.1s0.6,1.1,1.2,1.1
	C390.9,66.8,391.4,66.3,391.4,65.7z M565,123.5c1.7-0.7,3.5-3.3,4.1-5.9c0.3-1.5-11.3-8.5-13.8-8.6c-1.4-0.1-5.1,4.5-4.1,6
	C552.1,116.5,563.9,123.9,565,123.5z M603.2,297.2l0.2-10.3l-7.8-5.1h-2.8l-6.3,10.2l0.2,1.2l9.5,6.3h2.8L603.2,297.2z M589.5,298.4
	c-1.1,0-2,0.9-2,2c0,1.1,0.9,2,2,2s2-0.9,2-2C591.5,299.2,590.6,298.4,589.5,298.4z M452.9,70.1l3.9,2.7l-0.2,1.6l-1.7,1.6h-1.5
	l-2.6-2v-1.8L452.9,70.1z M453.4,71.4l-0.6-0.3l-1.1,0.9l-0.4,1.9l3.2,1.7l0.9-1.2l0.3-1.3L453.4,71.4z M479,89.1
	c1.3,0,1.8-1.6,1.1-2.1c-0.6-0.5-1.5-0.6-2,0l0,0C477.3,87.7,477.9,89.1,479,89.1z M497.7,141.5c1.2,0,2.2-1,2.2-2.2s-1-2.2-2.2-2.2
	c-1.2,0-2.2,1-2.2,2.2S496.5,141.5,497.7,141.5z M637.8,269.3v9.6l7.4,4.8h2.9l7.4-11.4v-2.4l-8.3-5.3h-2.5L637.8,269.3z
	 M600.4,165.6l7.4,4.3c0.7,0.4,1.5,0.2,1.9-0.5l12.2-21.3c0.4-0.7,0.2-1.6-0.5-1.9l-7.4-4.3c-0.7-0.4-1.5-0.2-1.9,0.5l-12.2,21.3
	C599.5,164.3,599.7,165.2,600.4,165.6z M617.8,239.5v3.5l8.7,5.1l5.2-2.9l-0.2-2l-11.4-6.4L617.8,239.5z M575,151.4l7.2,4.2
	c0.7,0.4,1.7,0.2,2.1-0.6l12.7-22.2c0.4-0.7,0.2-1.7-0.6-2.1l-7.2-4.2c-0.7-0.4-1.7-0.2-2.1,0.6l-12.7,22.2
	C574,150,574.3,151,575,151.4z M627.6,260.9l8.5,5.2l8.8-4.4l0.3-9.9l-9.1-5.3l-8.5,5V260.9z M634.9,282.3l-7.8,5v9.8l8.3,5l3-0.4
	l6.2-11.1l0.3-3l-8.2-5.4H634.9z M448.8,75.6l1.4,4.8l-3.6-2.7l-0.7,0.8l4.4,3.2h1.1v-0.7l-1.6-4.9l3.4,2.5l0.6-0.5l-4.7-3.5
	L448.8,75.6z M448.3,83.4c-1.3,0-2.4,1-2.4,2.2c0,1.2,1.1,2.2,2.4,2.2s2.4-1,2.4-2.2C450.7,84.4,449.6,83.4,448.3,83.4z
	 M657.2,266.6l2.2-0.6l1.8-3.8l-0.7-1.6l-10.4-6.7h-1.2l-0.7,0.5l0.4,6.7L657.2,266.6z M471.3,58.2c1.6,0,2.4-1.4,2.5-2
	c0.4-1.5-1-2.5-2.5-2.7c-1.1-0.2-2.8,0.9-2.5,2.6C469,56.7,469.5,58.2,471.3,58.2z M514.3,158.2c7.7,0.1,12.8-5,13.1-12.6
	c-0.2-7.3-5.6-13.1-13.1-13.1c-7,0-13.1,5.7-12.9,12.4C501.6,152.5,506.7,158.2,514.3,158.2z M620.3,316.9c-1,0-1.8,0.8-1.8,1.7
	c0,0.9,0.8,1.7,1.8,1.7s1.8-0.8,1.8-1.7C622.1,317.7,621.3,316.9,620.3,316.9z M693.8,193c2.4,0,4.3-1.8,4.3-4c0-2.2-1.9-4-4.3-4
	s-4.3,1.8-4.3,4C689.5,191.2,691.4,193,693.8,193z M371.5,115.4c1.3,0,2.4-1.1,2.4-2.4c0-1.3-1.1-2.4-2.4-2.4
	c-1.3,0-2.4,1.1-2.4,2.4C369.1,114.4,370.2,115.4,371.5,115.4z M713.3,234.1c0.7,0,1.2-0.6,1.2-1.3s-0.5-1.3-1.2-1.3
	c-0.7,0-1.2,0.6-1.2,1.3S712.6,234.1,713.3,234.1z M700.6,242c-0.8,0-1.5,0.7-1.5,1.5c0,0.8,0.7,1.5,1.5,1.5c0.8,0,1.5-0.7,1.5-1.5
	C702,242.7,701.4,242,700.6,242z M336,109.3c1.5,0,2.7-1.1,2.7-2.5s-1.2-2.5-2.7-2.5c-1.5,0-2.7,1.1-2.7,2.5S334.5,109.3,336,109.3z
	 M532.2,152.5c1.2,0,2.2-0.9,2.2-2c0-1.1-1-2-2.2-2c-1.2,0-2.2,0.9-2.2,2C530,151.6,531,152.5,532.2,152.5z M708.1,235.7
	c1,0,1.9-0.8,1.9-1.8c0-1-0.9-1.8-1.9-1.8s-1.9,0.8-1.9,1.8C706.2,234.9,707.1,235.7,708.1,235.7z M701.1,238.1c0,1,0.7,1.8,1.5,1.8
	c0.9,0,1.5-0.8,1.5-1.8c0-1-0.7-1.8-1.5-1.8C701.8,236.3,701.1,237.1,701.1,238.1z M699.5,224.8c0,0.8,0.6,1.5,1.4,1.5
	c0.8,0,1.4-0.7,1.4-1.5c0-0.8-0.6-1.5-1.4-1.5C700.1,223.3,699.5,224,699.5,224.8z M702.5,221c0.6,0,1.2-0.5,1.2-1.2
	c0-0.6-0.5-1.2-1.2-1.2c-0.6,0-1.2,0.5-1.2,1.2C701.3,220.4,701.9,221,702.5,221z M357,94.7c1.4,0,2.5-1,2.5-2.3
	c0-1.3-1.1-2.3-2.5-2.3s-2.5,1-2.5,2.3C354.6,93.7,355.7,94.7,357,94.7z M617.2,268.9v9.7l8.1,5h1.8l7-4.4v-10l-7-4.6l-2.9-0.3
	L617.2,268.9z M509.1,160c-1.2,0-2.2,1-2.2,2.3c0,1.2,1,2.3,2.2,2.3c1.2,0,2.2-1,2.2-2.3C511.3,161,510.3,160,509.1,160z
	 M617.4,265.4l6.8-4.1v-10.5l-7.3-4.4h-2.5l-7.2,10.8v3.1l7.4,5.1H617.4z M353.4,123.4c7.1,0,13.3-6.2,13.2-13.4
	c-0.1-5.9-5-11.9-12.5-12.2c-8.1-0.3-13.7,6.4-13.7,13C340.4,117.5,346.4,123.4,353.4,123.4z M546.9,112.9c1.7-0.7,3.5-3.3,4.1-5.9
	c0.3-1.5-11.3-8.5-13.8-8.6c-1.4-0.1-5.1,4.5-4.1,6C534,105.9,545.8,113.3,546.9,112.9z M350.7,125.6c-1.4,0-2.5,1.1-2.5,2.4
	c0,1.3,1.1,2.4,2.5,2.4c1.4,0,2.5-1.1,2.5-2.4C353.2,126.6,352.1,125.6,350.7,125.6z M638.7,158.5c1,0,1.7-0.6,1.7-1.4
	c0-0.8-0.8-1.5-1.7-1.5s-1.7,0.6-1.7,1.5C637,157.9,637.8,158.5,638.7,158.5z M657.1,204.7c-1.1,0-1.9,1-1.9,2.1
	c0,1.2,0.9,2.1,1.9,2.1s1.9-1,1.9-2.1C659,205.7,658.1,204.7,657.1,204.7z M686,186.9c0.8,0,1.5-0.7,1.5-1.6s-0.6-1.6-1.5-1.6
	s-1.4,0.7-1.4,1.6S685.2,186.9,686,186.9z M528,102.1c1.7-0.7,3.5-3.3,4.1-5.9c0.3-1.5-11.3-8.5-13.8-8.6c-1.4-0.1-5.1,4.5-4.1,6
	C515.1,95.1,526.9,102.5,528,102.1z"/>
<g>
</g>
<g>
</g>
<g>
</g>
<g>
</g>
<g>
</g>
<g>
</g>
</svg>
