<?xml version="1.0" encoding="utf-8"?>
<!-- Generator: Adobe Illustrator 25.4.1, SVG Export Plug-In . SVG Version: 6.00 Build 0)  -->
<svg version="1.1" id="Layer_1" xmlns="http://www.w3.org/2000/svg" xmlns:xlink="http://www.w3.org/1999/xlink" x="0px" y="0px"
	 viewBox="0 0 720 820.8" style="enable-background:new 0 0 720 820.8;" xml:space="preserve">
<style type="text/css">
	.st0{stroke:#000000;stroke-width:10;stroke-miterlimit:10;}
	.st1{fill:#D02C3B;}
	.st2{fill:#D3A53D;}
</style>
<g>
	<path class="st0" d="M447,657.2c21.9,0,39.6,16.4,39.6,36.5v36.5c0,20.2-17.7,36.5-39.6,36.5H248.8V657.2H447z M472.5,776.4H260.4
		H48.2c-7.8,0-14.1,6.1-14.1,13.7c0,7.6,6.3,13.7,14.1,13.7h212.1h212.1c7.8,0,14.1-6.1,14.1-13.7
		C486.7,782.5,480.3,776.4,472.5,776.4z M595.6,289.7L437.2,463c-10.9,12-31,21.8-44.6,21.8h-34.9c-13.6,0-28.3-15.6-32.8-34.7
		l-68-290c-1.5-6.4-3.3-10.7-5.3-12.8c-0.9-0.9-1.8-1.5-2.6-1.5c-0.1,0-0.2,0-0.2,0v431.4c0.4-1.3,0.8-2.6,1.3-3.9
		c3.8-11.1,8.3-23.8,13.6-38.2c8.6-23.7,12.9-45.6,12.9-65.6c0-20-5.4-37.5-16.1-52.4l0.8-1.8c11.2,0,21.4,2.4,30.4,7.2
		c9,4.8,16.2,11.8,21.5,20.9c7.4,12.6,11.1,28.1,11.1,46.3c0,6.3-1.5,15.8-4.3,28.4c-2.9,12.6-7.7,25.1-14.5,37.4
		c-6.8,12.3-13.7,23.5-20.9,33.7c-7.2,10.2-13.3,18.4-18.2,24.8c-4.9,6.3-9.3,13.4-13,21.3c-2,4.1-3.5,8.2-4.4,12.2v0.1h200
		c13.6,0,30.1-14.4,36.7-32.1l118-315.6C610.1,282.4,606.5,277.8,595.6,289.7z M390.4,316.8l-39.2,107.6
		c-6.5,17.8-0.8,34.4,12.7,37.1l22.4,4.4c13.5,2.6,23.7-11.7,22.8-31.9l-5.2-112.9C402.9,301,396.8,299,390.4,316.8z M248.8,577.3
		v70.4c-0.9,3.6-1.4,7.2-1.5,10.7c-0.2,33.9-8.7,60.5-25.6,79.8c-16.8,19.3-40.3,29-70.3,29S98,757.5,81,738.1
		c-16.9-19.4-25.4-46.1-25.4-80.2c0-22.6,3.8-42.2,11.3-58.6c7.6-16.4,18.6-29,33-37.8c14.5-8.8,31.7-13.2,51.5-13.2
		c30.2,0,53.7,9.7,70.6,29.2c8.2,9.5,14.5,21,18.7,34.5C242.9,599,245.6,587.4,248.8,577.3z M234.2,657.8c0-16.1-7.3-28.6-21.9-37.7
		c-14.6-9-34.8-13.6-60.8-13.6c-26,0-46.3,4.5-60.8,13.6c-14.6,9-21.9,21.6-21.9,37.7c0,16.1,7.3,28.6,21.9,37.7
		c14.6,9,34.8,13.6,60.8,13.6c26,0,46.3-4.5,60.8-13.6C226.9,686.4,234.2,673.8,234.2,657.8z M313.1,443.6
		c-5.3-9.1-12.4-16.1-21.5-20.9c-9.1-4.8-19.2-7.2-30.4-7.2l-0.8,1.8c10.7,14.9,16.1,32.4,16.1,52.4c0,20-4.3,41.9-12.9,65.6
		c-5.3,14.4-9.8,27.1-13.6,38.2c-0.4,1.3-0.9,2.6-1.3,3.9v70.4c1-4,2.5-8,4.4-12.2c3.8-7.9,8.1-15,13-21.3
		c4.9-6.3,11-14.6,18.2-24.8c7.2-10.2,14.2-21.4,20.9-33.7c6.8-12.3,11.6-24.7,14.5-37.4c2.9-12.6,4.3-22.1,4.3-28.4
		C324.2,471.7,320.5,456.2,313.1,443.6z M151,435.9v31h1.4v-2.2c0-2,0.6-3.7,1.9-5.1c1.2-1.4,2.8-2.1,4.8-2.2h54.4
		c9.1,0,16.2,2.2,21.3,6.7c5.1,4.5,7.6,10.6,7.6,18.5c0,7.9-2.7,14-8.1,18.5c-5.4,4.4-12.9,6.6-22.6,6.6h-52.6
		c-1.9-0.1-3.5-0.8-4.8-2.2c-1.2-1.4-1.9-3.1-1.9-5.1v-2.2H151v47.2h1.4v-2.2c0-2,0.6-3.7,1.9-5.2c1.3-1.4,2.9-2.1,5-2.1h52.9
		c11.9,0,21.1-4.1,27.5-12.3c6.4-8.2,9.6-20.5,9.6-36.9c0-13.1-3.3-23.3-9.9-30.5c-6.6-7.2-15.7-10.8-27.4-10.8h-53.1
		c-1.8-0.1-3.4-0.8-4.6-2.3c-1.2-1.4-1.9-3.1-1.9-5v-2.2H151z M249.2,430.9h1.4v-83.1l-33-5.4v1.4c8.1,2.2,14.4,5.9,18.9,11.2
		c4.5,5.3,6.8,11.4,6.8,18.3v17.5h-38.2v-15.6c0.1-4.5,1.6-8.1,4.5-10.9c2.9-2.8,6.6-4.3,11-4.3h0.7v-1.4h-39.5v1.4h0.6
		c4.5,0,8.3,1.4,11.2,4.3c2.9,2.8,4.4,6.5,4.5,11.1v15.5h-39.6v-20.6c0.1-3.7,0.9-6.9,2.4-9.5c3-5.5,8.3-8.2,15.9-8.2h1.1V351h-29.3
		c0.6,1.4,1.1,3.9,1.7,7.3c0.6,3.5,0.9,6.7,0.9,9.6v63h1.4v-1.8c0-2,0.6-3.7,1.7-5.3c1.8-2.5,4.2-3.7,7.2-3.8h78.7
		c2.5,0.1,4.6,1,6.3,2.8c1.8,1.8,2.6,3.9,2.6,6.3V430.9z M249.2,343.6h1.4v-83.1l-33-5.4v1.4c8.1,2.2,14.4,5.9,18.9,11.2
		c4.5,5.3,6.8,11.4,6.8,18.3v17.5h-38.2v-15.6c0.1-4.5,1.6-8.1,4.5-10.9c2.9-2.8,6.6-4.3,11-4.3h0.7v-1.4h-39.5v1.4h0.6
		c4.5,0,8.3,1.4,11.2,4.3c2.9,2.8,4.4,6.5,4.5,11.1v15.5h-39.6v-20.6c0.1-3.7,0.9-6.9,2.4-9.5c3-5.5,8.3-8.2,15.9-8.2h1.1v-1.4
		h-29.3c0.6,1.4,1.1,3.9,1.7,7.3c0.6,3.5,0.9,6.7,0.9,9.6v63h1.4v-1.8c0-2,0.6-3.7,1.7-5.3c1.8-2.5,4.2-3.7,7.2-3.8h78.7
		c2.5,0.1,4.6,1,6.3,2.8c1.8,1.8,2.6,3.9,2.6,6.3V343.6z M249.2,203.1h1.4v52h-1.4v-2.7c0-0.9-0.1-1.8-0.4-2.6
		c-0.4-1.3-1.1-2.5-2.1-3.5c-1.7-1.7-3.7-2.5-6.2-2.5h-73.7c-6.6,0-11.9,0.5-15.8,1.4l-2,0.4v-1.4l60.5-68.1h-48.3
		c-2.4,0.1-4.5,1-6.2,2.7c-1.7,1.7-2.5,3.7-2.5,6.1v2.7h-1.4v-52h1.4v2.6c0,2.4,0.8,4.4,2.5,6.1c1.7,1.7,3.7,2.6,6,2.7h73.3
		c6,0,10.8-0.3,14.4-1c0.1,0,0.2,0,0.2,0c0.9,0.1,1.8,0.6,2.6,1.5l-2.9,3.2L192,214.4h48.4c3.4,0,5.9-1.5,7.5-4.4
		c0.3-0.6,0.6-1.2,0.8-1.8c0.2-0.8,0.4-1.6,0.4-2.5V203.1z"/>
	<path class="st1" d="M241.2,611.7c-4.2-13.5-10.4-25-18.7-34.5c-16.8-19.5-40.4-29.2-70.6-29.2c-19.8,0-37,4.4-51.5,13.2
		c-14.5,8.8-25.5,21.4-33,37.8C59.8,615.4,56,634.9,56,657.5c0,34.1,8.5,60.8,25.4,80.2c17,19.4,40.4,29.1,70.4,29.1
		s53.5-9.7,70.3-29c16.9-19.3,25.4-45.9,25.6-79.8c0.1-3.5,0.6-7.1,1.5-10.7v-70.4C246,587.1,243.3,598.7,241.2,611.7z M212.7,695.1
		c-14.6,9-34.8,13.6-60.8,13.6c-26,0-46.3-4.5-60.8-13.6c-14.6-9-21.9-21.6-21.9-37.7c0-16.1,7.3-28.6,21.9-37.7
		c14.6-9,34.8-13.6,60.8-13.6c26,0,46.3,4.5,60.8,13.6c14.6,9,21.9,21.6,21.9,37.7C234.6,673.5,227.3,686,212.7,695.1z M324.6,489.5
		c0,6.3-1.5,15.8-4.3,28.4c-2.9,12.6-7.7,25.1-14.5,37.4c-6.8,12.3-13.7,23.5-20.9,33.7c-7.2,10.2-13.3,18.4-18.2,24.8
		c-4.9,6.3-9.3,13.4-13,21.3c-2,4.1-3.5,8.2-4.4,12.2v-70.4c0.4-1.3,0.8-2.6,1.3-3.9c3.8-11.1,8.3-23.8,13.6-38.2
		c8.6-23.7,12.9-45.6,12.9-65.6c0-20-5.4-37.5-16.1-52.4l0.8-1.8c11.2,0,21.4,2.4,30.4,7.2c9,4.8,16.2,11.8,21.5,20.9
		C320.9,455.8,324.6,471.3,324.6,489.5z M152.8,435.5v2.2c0,1.9,0.6,3.6,1.9,5c1.2,1.4,2.8,2.2,4.6,2.3h53.1
		c11.7,0,20.8,3.6,27.4,10.8c6.6,7.2,9.9,17.4,9.9,30.5c0,16.4-3.2,28.7-9.6,36.9c-6.4,8.2-15.6,12.3-27.5,12.3h-52.9
		c-2,0-3.7,0.7-5,2.1c-1.3,1.4-1.9,3.1-1.9,5.2v2.2h-1.4v-47.2h1.4v2.2c0,2,0.6,3.7,1.9,5.1c1.2,1.4,2.8,2.1,4.8,2.2H212
		c9.6,0,17.2-2.2,22.6-6.6c5.4-4.4,8.1-10.6,8.1-18.5c0-7.9-2.5-14.1-7.6-18.5c-5.1-4.5-12.2-6.7-21.3-6.7h-54.4
		c-1.9,0.1-3.5,0.8-4.8,2.2c-1.2,1.4-1.9,3.1-1.9,5.1v2.2h-1.4v-31H152.8z M249.6,428.7c0-2.5-0.9-4.6-2.6-6.3
		c-1.8-1.8-3.9-2.7-6.3-2.8h-78.7c-3,0.1-5.4,1.4-7.2,3.8c-1.1,1.5-1.7,3.3-1.7,5.3v1.8h-1.4v-63c0-2.9-0.3-6.1-0.9-9.6
		c-0.6-3.5-1.1-5.9-1.7-7.3h29.3v1.4h-1.1c-7.6,0-12.9,2.7-15.9,8.2c-1.5,2.7-2.3,5.8-2.4,9.5v20.6h39.6V375
		c-0.1-4.5-1.6-8.2-4.5-11.1c-2.9-2.8-6.6-4.3-11.2-4.3h-0.6v-1.4h39.5v1.4h-0.7c-4.5,0-8.1,1.4-11,4.3c-2.9,2.8-4.4,6.5-4.5,10.9
		v15.6h38.2V373c0-6.9-2.3-13-6.8-18.3c-4.5-5.3-10.8-9-18.9-11.2V342l33,5.4v83.1h-1.4V428.7z M249.6,341.4c0-2.5-0.9-4.6-2.6-6.3
		c-1.8-1.8-3.9-2.7-6.3-2.8h-78.7c-3,0.1-5.4,1.4-7.2,3.8c-1.1,1.5-1.7,3.3-1.7,5.3v1.8h-1.4v-63c0-2.9-0.3-6.1-0.9-9.6
		c-0.6-3.5-1.1-5.9-1.7-7.3h29.3v1.4h-1.1c-7.6,0-12.9,2.7-15.9,8.2c-1.5,2.7-2.3,5.8-2.4,9.5v20.6h39.6v-15.5
		c-0.1-4.5-1.6-8.2-4.5-11.1c-2.9-2.8-6.6-4.3-11.2-4.3h-0.6v-1.4h39.5v1.4h-0.7c-4.5,0-8.1,1.4-11,4.3c-2.9,2.8-4.4,6.5-4.5,10.9
		v15.6h38.2v-17.5c0-6.9-2.3-13-6.8-18.3c-4.5-5.3-10.8-9-18.9-11.2v-1.4l33,5.4v83.1h-1.4V341.4z M249.6,205.4
		c0,0.9-0.1,1.7-0.4,2.5c-0.2,0.6-0.4,1.2-0.8,1.8c-1.6,2.9-4.1,4.4-7.5,4.4h-48.4l56.8-63.8l2.9-3.2c-0.9-0.9-1.8-1.5-2.6-1.5
		c-0.1,0-0.2,0-0.2,0c-3.6,0.7-8.4,1-14.4,1h-73.3c-2.4-0.1-4.4-1-6-2.7c-1.7-1.7-2.5-3.7-2.5-6.1v-2.6h-1.4v52h1.4v-2.7
		c0-2.4,0.8-4.4,2.5-6.1c1.7-1.7,3.7-2.6,6.2-2.7h48.3l-60.5,68.1v1.4l2-0.4c3.9-0.9,9.1-1.4,15.8-1.4h73.7c2.5,0,4.5,0.9,6.2,2.5
		c1,1.1,1.7,2.2,2.1,3.5c0.2,0.8,0.4,1.7,0.4,2.6v2.7h1.4v-52h-1.4V205.4z M202.4,46v53.8l49.2,27.1l49.4-27l0-53.9l-49.3-27.1
		L202.4,46z M252.4,43.1l-20.6,29.8h-15.4l20.6-29.8L252.4,43.1z M280.1,43.1l-41.5,59.7h-15.2l41.3-59.6L280.1,43.1z M271.8,72.7
		h15.5l-20.9,30.1H251L271.8,72.7z M371.1,216.5v45.3l41.4,22.8l41.6-22.7l0-45.4l-41.5-22.8L371.1,216.5z M413.2,214l-17.3,25.1
		h-13l17.4-25.1L413.2,214z M436.5,214l-34.9,50.3h-12.8l34.8-50.3L436.5,214z M429.5,238.9h13l-17.6,25.3H412L429.5,238.9z
		 M596.2,203.7V249l41.4,22.8l41.6-22.7l0-45.4l-41.5-22.8L596.2,203.7z M638.3,201.2L621,226.4h-13l17.4-25.1L638.3,201.2z
		 M661.6,201.2l-34.9,50.3h-12.8l34.8-50.3L661.6,201.2z M654.7,226.2h13l-17.6,25.3h-12.9L654.7,226.2z"/>
	<path class="st2" d="M447.4,656.8c21.9,0,39.6,16.4,39.6,36.5v36.5c0,20.2-17.7,36.5-39.6,36.5H249.2V656.8H447.4z M472.9,776
		H260.8H48.7c-7.8,0-14.1,6.1-14.1,13.7c0,7.6,6.3,13.7,14.1,13.7h212.1h212.1c7.8,0,14.1-6.1,14.1-13.7
		C487.1,782.2,480.8,776,472.9,776z M596,289.4L437.6,462.7c-10.9,12-31,21.8-44.6,21.8h-34.9c-13.6,0-28.3-15.6-32.8-34.7l-68-290
		c-1.5-6.4-3.3-10.7-5.3-12.8c-0.9-0.9-1.8-1.5-2.6-1.5c-0.1,0-0.2,0-0.2,0v431.4c0.4-1.3,0.8-2.6,1.3-3.9
		c3.8-11.1,8.3-23.8,13.6-38.2c8.6-23.7,12.9-45.6,12.9-65.6c0-20-5.4-37.5-16.1-52.4l0.8-1.8c11.2,0,21.4,2.4,30.4,7.2
		c9,4.8,16.2,11.8,21.5,20.9c7.4,12.6,11.1,28.1,11.1,46.3c0,6.3-1.5,15.8-4.3,28.4c-2.9,12.6-7.7,25.1-14.5,37.4
		c-6.8,12.3-13.7,23.5-20.9,33.7c-7.2,10.2-13.3,18.4-18.2,24.8c-4.9,6.3-9.3,13.4-13,21.3c-2,4.1-3.5,8.2-4.4,12.2v0.1h200
		c13.6,0,30.1-14.4,36.7-32.1l118-315.6C610.5,282,607,277.4,596,289.4z M390.8,316.4L351.6,424c-6.5,17.8-0.8,34.4,12.7,37.1
		l22.4,4.4c13.5,2.6,23.7-11.7,22.8-31.9l-5.2-112.9C403.3,300.6,397.3,298.7,390.8,316.4z"/>
</g>
<g>
</g>
<g>
</g>
<g>
</g>
<g>
</g>
<g>
</g>
<g>
</g>
</svg>
