G04 EAGLE Gerber RS-274X export*
G75*
%MOMM*%
%FSLAX34Y34*%
%LPD*%
%INTop Copper*%
%IPPOS*%
%AMOC8*
5,1,8,0,0,1.08239X$1,22.5*%
G01*
%ADD10R,1.800000X1.800000*%
%ADD11C,1.800000*%
%ADD12C,2.250000*%
%ADD13R,1.508000X1.508000*%
%ADD14C,1.508000*%
%ADD15C,2.500000*%
%ADD16C,1.000000*%

G36*
X735046Y-105993D02*
X735046Y-105993D01*
X735087Y-105995D01*
X736824Y-105844D01*
X736918Y-105822D01*
X736995Y-105813D01*
X738679Y-105362D01*
X738768Y-105324D01*
X738843Y-105303D01*
X740422Y-104566D01*
X740503Y-104513D01*
X740573Y-104479D01*
X742001Y-103479D01*
X742072Y-103413D01*
X742134Y-103367D01*
X743367Y-102134D01*
X743425Y-102057D01*
X743479Y-102001D01*
X744479Y-100573D01*
X744518Y-100495D01*
X744563Y-100428D01*
X744563Y-100427D01*
X744566Y-100422D01*
X745303Y-98843D01*
X745331Y-98750D01*
X745362Y-98679D01*
X745813Y-96995D01*
X745825Y-96899D01*
X745844Y-96824D01*
X745995Y-95087D01*
X745993Y-95041D01*
X745999Y-95000D01*
X745999Y95000D01*
X745993Y95046D01*
X745995Y95087D01*
X745844Y96824D01*
X745822Y96918D01*
X745813Y96995D01*
X745362Y98679D01*
X745324Y98768D01*
X745303Y98843D01*
X744566Y100422D01*
X744513Y100503D01*
X744479Y100573D01*
X743479Y102001D01*
X743413Y102072D01*
X743367Y102134D01*
X742134Y103367D01*
X742057Y103425D01*
X742001Y103479D01*
X740573Y104479D01*
X740487Y104523D01*
X740422Y104566D01*
X738843Y105303D01*
X738750Y105331D01*
X738679Y105362D01*
X736995Y105813D01*
X736899Y105825D01*
X736824Y105844D01*
X735087Y105995D01*
X735041Y105993D01*
X735000Y105999D01*
X15000Y105999D01*
X14954Y105993D01*
X14913Y105995D01*
X13176Y105844D01*
X13082Y105822D01*
X13005Y105813D01*
X11321Y105362D01*
X11232Y105324D01*
X11158Y105303D01*
X9578Y104566D01*
X9497Y104513D01*
X9427Y104479D01*
X7999Y103479D01*
X7928Y103413D01*
X7866Y103367D01*
X6633Y102134D01*
X6575Y102057D01*
X6521Y102001D01*
X5521Y100573D01*
X5477Y100487D01*
X5434Y100422D01*
X5363Y100270D01*
X4897Y99271D01*
X4697Y98843D01*
X4669Y98750D01*
X4638Y98679D01*
X4187Y96995D01*
X4175Y96899D01*
X4157Y96824D01*
X4005Y95087D01*
X4007Y95041D01*
X4001Y95000D01*
X4001Y-95000D01*
X4007Y-95046D01*
X4005Y-95087D01*
X4157Y-96824D01*
X4178Y-96918D01*
X4187Y-96995D01*
X4638Y-98679D01*
X4676Y-98768D01*
X4697Y-98843D01*
X5434Y-100422D01*
X5487Y-100503D01*
X5521Y-100573D01*
X6521Y-102001D01*
X6587Y-102072D01*
X6633Y-102134D01*
X7866Y-103367D01*
X7943Y-103425D01*
X7999Y-103479D01*
X9427Y-104479D01*
X9513Y-104523D01*
X9578Y-104566D01*
X11158Y-105303D01*
X11250Y-105331D01*
X11321Y-105362D01*
X13005Y-105813D01*
X13101Y-105825D01*
X13176Y-105844D01*
X14913Y-105995D01*
X14959Y-105993D01*
X15000Y-105999D01*
X735000Y-105999D01*
X735046Y-105993D01*
G37*
%LPC*%
G36*
X482210Y-94025D02*
X482210Y-94025D01*
X477056Y-91890D01*
X426983Y-41817D01*
X426907Y-41760D01*
X426835Y-41695D01*
X426794Y-41675D01*
X426758Y-41648D01*
X426668Y-41614D01*
X426581Y-41572D01*
X426539Y-41566D01*
X426494Y-41549D01*
X426366Y-41539D01*
X426277Y-41525D01*
X411372Y-41525D01*
X411244Y-41543D01*
X411116Y-41558D01*
X411105Y-41563D01*
X411092Y-41565D01*
X410975Y-41617D01*
X410856Y-41668D01*
X410847Y-41676D01*
X410835Y-41681D01*
X410738Y-41764D01*
X410638Y-41846D01*
X410631Y-41856D01*
X410621Y-41864D01*
X410467Y-42100D01*
X410466Y-42101D01*
X410466Y-42102D01*
X410424Y-42191D01*
X410392Y-42222D01*
X410377Y-42250D01*
X410356Y-42273D01*
X410327Y-42331D01*
X409664Y-42995D01*
X409606Y-43072D01*
X409552Y-43129D01*
X409017Y-43892D01*
X408980Y-43917D01*
X408960Y-43942D01*
X408936Y-43961D01*
X408898Y-44013D01*
X408129Y-44552D01*
X408058Y-44618D01*
X407995Y-44664D01*
X407336Y-45323D01*
X407295Y-45341D01*
X407271Y-45362D01*
X407244Y-45376D01*
X407197Y-45421D01*
X406346Y-45818D01*
X406265Y-45871D01*
X406196Y-45905D01*
X405432Y-46440D01*
X405389Y-46451D01*
X405362Y-46467D01*
X405332Y-46477D01*
X405278Y-46513D01*
X404372Y-46756D01*
X404283Y-46794D01*
X404208Y-46815D01*
X403363Y-47209D01*
X403318Y-47213D01*
X403289Y-47224D01*
X403258Y-47228D01*
X403199Y-47254D01*
X402264Y-47336D01*
X402169Y-47358D01*
X402092Y-47367D01*
X401337Y-47569D01*
X401328Y-47567D01*
X401293Y-47553D01*
X401146Y-47539D01*
X401055Y-47525D01*
X400154Y-47525D01*
X400108Y-47531D01*
X400067Y-47529D01*
X399123Y-47611D01*
X399120Y-47610D01*
X399069Y-47595D01*
X399022Y-47572D01*
X398944Y-47560D01*
X398849Y-47533D01*
X398777Y-47534D01*
X398717Y-47525D01*
X271283Y-47525D01*
X271230Y-47532D01*
X271178Y-47530D01*
X271091Y-47552D01*
X271003Y-47565D01*
X270955Y-47586D01*
X270904Y-47599D01*
X270883Y-47612D01*
X269933Y-47529D01*
X269887Y-47531D01*
X269846Y-47525D01*
X268945Y-47525D01*
X268839Y-47540D01*
X268733Y-47548D01*
X268702Y-47559D01*
X268665Y-47565D01*
X268659Y-47568D01*
X267908Y-47367D01*
X267812Y-47355D01*
X267736Y-47336D01*
X266808Y-47255D01*
X266768Y-47236D01*
X266737Y-47231D01*
X266708Y-47219D01*
X266643Y-47212D01*
X265792Y-46815D01*
X265700Y-46787D01*
X265628Y-46756D01*
X264728Y-46515D01*
X264692Y-46488D01*
X264662Y-46478D01*
X264636Y-46461D01*
X264573Y-46444D01*
X263804Y-45905D01*
X263718Y-45861D01*
X263654Y-45818D01*
X262809Y-45424D01*
X262778Y-45392D01*
X262750Y-45377D01*
X262727Y-45356D01*
X262669Y-45327D01*
X262005Y-44664D01*
X261928Y-44606D01*
X261871Y-44552D01*
X261108Y-44017D01*
X261083Y-43980D01*
X261058Y-43960D01*
X261039Y-43936D01*
X260987Y-43898D01*
X260448Y-43129D01*
X260382Y-43058D01*
X260336Y-42995D01*
X259677Y-42336D01*
X259659Y-42295D01*
X259638Y-42271D01*
X259624Y-42244D01*
X259579Y-42197D01*
X259182Y-41346D01*
X259129Y-41265D01*
X259095Y-41196D01*
X258560Y-40432D01*
X258549Y-40389D01*
X258533Y-40362D01*
X258523Y-40332D01*
X258487Y-40278D01*
X258244Y-39371D01*
X258206Y-39283D01*
X258185Y-39208D01*
X257791Y-38363D01*
X257787Y-38318D01*
X257776Y-38289D01*
X257772Y-38258D01*
X257746Y-38199D01*
X257664Y-37264D01*
X257642Y-37169D01*
X257633Y-37092D01*
X257431Y-36337D01*
X257433Y-36327D01*
X257447Y-36293D01*
X257451Y-36245D01*
X257463Y-36206D01*
X257464Y-36125D01*
X257475Y-36055D01*
X257475Y-35154D01*
X257469Y-35108D01*
X257471Y-35067D01*
X257389Y-34123D01*
X257390Y-34120D01*
X257405Y-34069D01*
X257428Y-34022D01*
X257440Y-33944D01*
X257467Y-33849D01*
X257466Y-33777D01*
X257475Y-33717D01*
X257475Y-10154D01*
X257469Y-10108D01*
X257471Y-10067D01*
X257360Y-8791D01*
X257338Y-8696D01*
X257330Y-8619D01*
X257038Y-7531D01*
X257000Y-7442D01*
X256978Y-7367D01*
X256502Y-6346D01*
X256450Y-6265D01*
X256415Y-6196D01*
X255769Y-5273D01*
X255703Y-5202D01*
X255657Y-5139D01*
X254861Y-4343D01*
X254783Y-4285D01*
X254727Y-4231D01*
X253804Y-3585D01*
X253718Y-3541D01*
X253654Y-3498D01*
X252633Y-3022D01*
X252540Y-2993D01*
X252469Y-2962D01*
X251381Y-2670D01*
X251285Y-2659D01*
X251209Y-2640D01*
X249933Y-2529D01*
X249887Y-2531D01*
X249846Y-2525D01*
X33783Y-2525D01*
X33730Y-2532D01*
X33678Y-2530D01*
X33591Y-2552D01*
X33503Y-2565D01*
X33455Y-2586D01*
X33404Y-2599D01*
X33383Y-2612D01*
X32433Y-2529D01*
X32387Y-2531D01*
X32346Y-2525D01*
X31445Y-2525D01*
X31339Y-2540D01*
X31233Y-2548D01*
X31202Y-2559D01*
X31165Y-2565D01*
X31159Y-2568D01*
X30408Y-2367D01*
X30312Y-2355D01*
X30236Y-2336D01*
X29308Y-2255D01*
X29268Y-2236D01*
X29237Y-2231D01*
X29208Y-2219D01*
X29143Y-2212D01*
X28292Y-1815D01*
X28200Y-1787D01*
X28128Y-1756D01*
X27228Y-1515D01*
X27192Y-1488D01*
X27162Y-1478D01*
X27136Y-1461D01*
X27073Y-1444D01*
X26304Y-905D01*
X26218Y-861D01*
X26154Y-818D01*
X25309Y-424D01*
X25278Y-392D01*
X25250Y-377D01*
X25227Y-356D01*
X25169Y-327D01*
X24505Y336D01*
X24428Y394D01*
X24371Y448D01*
X23608Y983D01*
X23583Y1020D01*
X23558Y1040D01*
X23539Y1064D01*
X23487Y1102D01*
X22948Y1871D01*
X22882Y1942D01*
X22836Y2005D01*
X22177Y2664D01*
X22159Y2705D01*
X22138Y2729D01*
X22124Y2756D01*
X22079Y2803D01*
X21682Y3654D01*
X21629Y3735D01*
X21595Y3804D01*
X21060Y4568D01*
X21049Y4611D01*
X21033Y4638D01*
X21023Y4668D01*
X20987Y4722D01*
X20744Y5628D01*
X20706Y5717D01*
X20685Y5792D01*
X20291Y6637D01*
X20287Y6682D01*
X20276Y6711D01*
X20272Y6742D01*
X20246Y6801D01*
X20164Y7736D01*
X20142Y7831D01*
X20133Y7908D01*
X19931Y8663D01*
X19933Y8672D01*
X19947Y8707D01*
X19961Y8854D01*
X19975Y8945D01*
X19975Y9846D01*
X19969Y9892D01*
X19971Y9933D01*
X19889Y10877D01*
X19890Y10880D01*
X19905Y10931D01*
X19928Y10978D01*
X19940Y11056D01*
X19967Y11151D01*
X19966Y11223D01*
X19975Y11283D01*
X19975Y23717D01*
X19968Y23770D01*
X19970Y23822D01*
X19948Y23909D01*
X19935Y23997D01*
X19914Y24045D01*
X19901Y24096D01*
X19888Y24117D01*
X19971Y25067D01*
X19969Y25113D01*
X19975Y25154D01*
X19975Y26055D01*
X19960Y26161D01*
X19952Y26267D01*
X19941Y26298D01*
X19935Y26335D01*
X19932Y26341D01*
X20133Y27092D01*
X20145Y27188D01*
X20164Y27264D01*
X20245Y28192D01*
X20264Y28232D01*
X20269Y28263D01*
X20281Y28292D01*
X20288Y28357D01*
X20343Y28475D01*
X20343Y28476D01*
X20685Y29208D01*
X20713Y29300D01*
X20744Y29371D01*
X20985Y30272D01*
X21012Y30308D01*
X21022Y30338D01*
X21039Y30364D01*
X21056Y30427D01*
X21595Y31196D01*
X21639Y31282D01*
X21682Y31346D01*
X21741Y31473D01*
X21741Y31474D01*
X22076Y32191D01*
X22108Y32222D01*
X22123Y32250D01*
X22144Y32273D01*
X22173Y32331D01*
X22836Y32995D01*
X22894Y33072D01*
X22948Y33129D01*
X23483Y33892D01*
X23520Y33917D01*
X23540Y33942D01*
X23564Y33961D01*
X23602Y34013D01*
X24371Y34552D01*
X24442Y34618D01*
X24505Y34664D01*
X25164Y35323D01*
X25205Y35341D01*
X25229Y35362D01*
X25256Y35376D01*
X25303Y35421D01*
X26154Y35818D01*
X26235Y35871D01*
X26304Y35905D01*
X27068Y36440D01*
X27111Y36451D01*
X27138Y36467D01*
X27168Y36477D01*
X27222Y36513D01*
X28129Y36756D01*
X28217Y36794D01*
X28292Y36815D01*
X29137Y37209D01*
X29182Y37213D01*
X29211Y37224D01*
X29242Y37228D01*
X29301Y37254D01*
X30236Y37336D01*
X30331Y37358D01*
X30408Y37367D01*
X31163Y37569D01*
X31172Y37567D01*
X31207Y37553D01*
X31354Y37539D01*
X31445Y37525D01*
X32346Y37525D01*
X32392Y37531D01*
X32433Y37529D01*
X33377Y37611D01*
X33380Y37610D01*
X33431Y37595D01*
X33478Y37572D01*
X33556Y37560D01*
X33651Y37533D01*
X33723Y37534D01*
X33783Y37525D01*
X398717Y37525D01*
X398770Y37532D01*
X398822Y37530D01*
X398909Y37552D01*
X398997Y37565D01*
X399045Y37586D01*
X399096Y37599D01*
X399117Y37612D01*
X400067Y37529D01*
X400113Y37531D01*
X400154Y37525D01*
X400383Y37525D01*
X400478Y37538D01*
X400575Y37543D01*
X400618Y37558D01*
X400663Y37565D01*
X400750Y37604D01*
X400841Y37636D01*
X400875Y37661D01*
X400920Y37681D01*
X401017Y37764D01*
X401090Y37817D01*
X412367Y49094D01*
X412373Y49102D01*
X412380Y49108D01*
X412457Y49215D01*
X412536Y49320D01*
X412540Y49329D01*
X412545Y49336D01*
X412589Y49460D01*
X412636Y49584D01*
X412637Y49593D01*
X412640Y49602D01*
X412647Y49734D01*
X412658Y49865D01*
X412656Y49874D01*
X412656Y49884D01*
X412638Y49959D01*
X412600Y50141D01*
X412589Y50162D01*
X412584Y50183D01*
X411335Y53197D01*
X411335Y56803D01*
X412715Y60135D01*
X415265Y62685D01*
X418597Y64065D01*
X422203Y64065D01*
X425535Y62685D01*
X428085Y60135D01*
X429465Y56803D01*
X429465Y53197D01*
X428085Y49865D01*
X427217Y48998D01*
X427160Y48921D01*
X427095Y48850D01*
X427075Y48809D01*
X427048Y48772D01*
X427014Y48682D01*
X426972Y48596D01*
X426966Y48554D01*
X426949Y48509D01*
X426939Y48381D01*
X426925Y48291D01*
X426925Y46602D01*
X425931Y44204D01*
X412030Y30303D01*
X412011Y30278D01*
X411987Y30257D01*
X411927Y30165D01*
X411861Y30077D01*
X411850Y30048D01*
X411833Y30022D01*
X411800Y29916D01*
X411761Y29813D01*
X411759Y29782D01*
X411750Y29752D01*
X411748Y29642D01*
X411740Y29532D01*
X411746Y29502D01*
X411746Y29470D01*
X411771Y29383D01*
X411797Y29256D01*
X411820Y29214D01*
X411831Y29174D01*
X412209Y28363D01*
X412213Y28318D01*
X412224Y28289D01*
X412228Y28258D01*
X412254Y28199D01*
X412336Y27264D01*
X412358Y27169D01*
X412367Y27092D01*
X412569Y26337D01*
X412567Y26328D01*
X412553Y26293D01*
X412539Y26146D01*
X412525Y26055D01*
X412525Y25154D01*
X412531Y25108D01*
X412529Y25067D01*
X412611Y24123D01*
X412610Y24120D01*
X412595Y24069D01*
X412572Y24022D01*
X412560Y23944D01*
X412533Y23849D01*
X412534Y23777D01*
X412525Y23717D01*
X412525Y-12476D01*
X412534Y-12540D01*
X412533Y-12604D01*
X412554Y-12679D01*
X412565Y-12755D01*
X412591Y-12814D01*
X412608Y-12876D01*
X412649Y-12942D01*
X412681Y-13012D01*
X412723Y-13061D01*
X412756Y-13116D01*
X412814Y-13168D01*
X412864Y-13226D01*
X412918Y-13262D01*
X412966Y-13305D01*
X413035Y-13338D01*
X413100Y-13381D01*
X413162Y-13400D01*
X413219Y-13428D01*
X413289Y-13439D01*
X413370Y-13463D01*
X413455Y-13464D01*
X413524Y-13475D01*
X435290Y-13475D01*
X440444Y-15610D01*
X444530Y-19696D01*
X496890Y-72056D01*
X499025Y-77210D01*
X499025Y-82790D01*
X496890Y-87944D01*
X492944Y-91890D01*
X487790Y-94025D01*
X482210Y-94025D01*
G37*
%LPD*%
G36*
X400046Y-45993D02*
X400046Y-45993D01*
X400087Y-45995D01*
X401824Y-45844D01*
X401918Y-45822D01*
X401995Y-45813D01*
X403679Y-45362D01*
X403768Y-45324D01*
X403843Y-45303D01*
X405422Y-44566D01*
X405503Y-44513D01*
X405573Y-44479D01*
X407001Y-43479D01*
X407072Y-43413D01*
X407134Y-43367D01*
X408367Y-42134D01*
X408425Y-42057D01*
X408479Y-42001D01*
X409479Y-40573D01*
X409518Y-40495D01*
X409563Y-40428D01*
X409563Y-40427D01*
X409566Y-40422D01*
X410303Y-38843D01*
X410331Y-38750D01*
X410362Y-38679D01*
X410813Y-36995D01*
X410825Y-36899D01*
X410844Y-36824D01*
X410995Y-35087D01*
X410993Y-35041D01*
X410999Y-35000D01*
X410999Y25000D01*
X410993Y25046D01*
X410995Y25087D01*
X410844Y26824D01*
X410822Y26918D01*
X410813Y26995D01*
X410362Y28679D01*
X410324Y28768D01*
X410303Y28843D01*
X409566Y30422D01*
X409513Y30503D01*
X409479Y30573D01*
X408479Y32001D01*
X408413Y32072D01*
X408367Y32134D01*
X407134Y33367D01*
X407057Y33425D01*
X407001Y33479D01*
X405573Y34479D01*
X405487Y34523D01*
X405422Y34566D01*
X403843Y35303D01*
X403750Y35331D01*
X403679Y35362D01*
X401995Y35813D01*
X401899Y35825D01*
X401824Y35844D01*
X400087Y35995D01*
X400041Y35993D01*
X400000Y35999D01*
X32500Y35999D01*
X32454Y35993D01*
X32413Y35995D01*
X30676Y35844D01*
X30582Y35822D01*
X30505Y35813D01*
X28821Y35362D01*
X28732Y35324D01*
X28658Y35303D01*
X27078Y34566D01*
X26997Y34513D01*
X26927Y34479D01*
X25499Y33479D01*
X25428Y33413D01*
X25366Y33367D01*
X24133Y32134D01*
X24075Y32057D01*
X24021Y32001D01*
X23021Y30573D01*
X22977Y30487D01*
X22934Y30422D01*
X22909Y30368D01*
X22909Y30367D01*
X22443Y29369D01*
X22443Y29368D01*
X22197Y28843D01*
X22169Y28750D01*
X22138Y28679D01*
X21687Y26995D01*
X21675Y26899D01*
X21657Y26824D01*
X21505Y25087D01*
X21507Y25041D01*
X21501Y25000D01*
X21501Y10000D01*
X21507Y9954D01*
X21505Y9913D01*
X21657Y8176D01*
X21678Y8082D01*
X21687Y8005D01*
X22138Y6321D01*
X22176Y6232D01*
X22197Y6158D01*
X22934Y4578D01*
X22987Y4497D01*
X23021Y4427D01*
X24021Y2999D01*
X24087Y2928D01*
X24133Y2866D01*
X25366Y1633D01*
X25443Y1575D01*
X25499Y1521D01*
X26927Y521D01*
X27013Y477D01*
X27078Y434D01*
X28658Y-303D01*
X28750Y-331D01*
X28821Y-362D01*
X30505Y-813D01*
X30601Y-825D01*
X30676Y-844D01*
X32413Y-995D01*
X32459Y-993D01*
X32500Y-999D01*
X249956Y-999D01*
X251562Y-1140D01*
X253077Y-1546D01*
X254498Y-2208D01*
X255783Y-3108D01*
X256892Y-4217D01*
X257792Y-5502D01*
X258454Y-6923D01*
X258860Y-8438D01*
X259001Y-10044D01*
X259001Y-35000D01*
X259007Y-35046D01*
X259005Y-35087D01*
X259157Y-36824D01*
X259178Y-36918D01*
X259187Y-36995D01*
X259638Y-38679D01*
X259676Y-38768D01*
X259697Y-38843D01*
X260434Y-40422D01*
X260487Y-40503D01*
X260521Y-40573D01*
X261521Y-42001D01*
X261587Y-42072D01*
X261633Y-42134D01*
X262866Y-43367D01*
X262943Y-43425D01*
X262999Y-43479D01*
X264427Y-44479D01*
X264513Y-44523D01*
X264578Y-44566D01*
X266158Y-45303D01*
X266250Y-45331D01*
X266321Y-45362D01*
X268005Y-45813D01*
X268101Y-45825D01*
X268176Y-45844D01*
X269913Y-45995D01*
X269959Y-45993D01*
X270000Y-45999D01*
X400000Y-45999D01*
X400046Y-45993D01*
G37*
%LPC*%
G36*
X562210Y-94025D02*
X562210Y-94025D01*
X557056Y-91890D01*
X498110Y-32944D01*
X495975Y-27790D01*
X495975Y60290D01*
X498110Y65444D01*
X502056Y69390D01*
X507210Y71525D01*
X512790Y71525D01*
X517944Y69390D01*
X521890Y65444D01*
X524025Y60290D01*
X524025Y-18777D01*
X524038Y-18872D01*
X524043Y-18968D01*
X524058Y-19011D01*
X524065Y-19056D01*
X524104Y-19144D01*
X524136Y-19234D01*
X524161Y-19269D01*
X524181Y-19313D01*
X524264Y-19410D01*
X524317Y-19483D01*
X576890Y-72056D01*
X579025Y-77210D01*
X579025Y-82790D01*
X576890Y-87944D01*
X572944Y-91890D01*
X567790Y-94025D01*
X562210Y-94025D01*
G37*
%LPD*%
%LPC*%
G36*
X632210Y-94025D02*
X632210Y-94025D01*
X627056Y-91890D01*
X598110Y-62944D01*
X595975Y-57790D01*
X595975Y60290D01*
X598110Y65444D01*
X602056Y69390D01*
X607210Y71525D01*
X612790Y71525D01*
X617944Y69390D01*
X621890Y65444D01*
X624025Y60290D01*
X624025Y-48777D01*
X624038Y-48872D01*
X624043Y-48968D01*
X624058Y-49011D01*
X624065Y-49056D01*
X624104Y-49144D01*
X624136Y-49234D01*
X624161Y-49269D01*
X624181Y-49313D01*
X624264Y-49410D01*
X624317Y-49483D01*
X646890Y-72056D01*
X649025Y-77210D01*
X649025Y-82790D01*
X646890Y-87944D01*
X642944Y-91890D01*
X637790Y-94025D01*
X632210Y-94025D01*
G37*
%LPD*%
%LPC*%
G36*
X269907Y-93025D02*
X269907Y-93025D01*
X266038Y-91422D01*
X263078Y-88462D01*
X261475Y-84594D01*
X261475Y-80407D01*
X263078Y-76538D01*
X266038Y-73578D01*
X269907Y-71975D01*
X274093Y-71975D01*
X277962Y-73578D01*
X280922Y-76538D01*
X281577Y-78118D01*
X281593Y-78146D01*
X281603Y-78176D01*
X281665Y-78267D01*
X281720Y-78361D01*
X281744Y-78383D01*
X281762Y-78409D01*
X281846Y-78479D01*
X281926Y-78554D01*
X281955Y-78568D01*
X281980Y-78589D01*
X282080Y-78632D01*
X282178Y-78681D01*
X282209Y-78687D01*
X282239Y-78700D01*
X282347Y-78714D01*
X282455Y-78734D01*
X282487Y-78731D01*
X282519Y-78735D01*
X282627Y-78717D01*
X282735Y-78707D01*
X282765Y-78695D01*
X282797Y-78690D01*
X282896Y-78643D01*
X282997Y-78602D01*
X283023Y-78582D01*
X283052Y-78569D01*
X283134Y-78496D01*
X283220Y-78429D01*
X283239Y-78403D01*
X283263Y-78381D01*
X283310Y-78304D01*
X283385Y-78200D01*
X283401Y-78154D01*
X283423Y-78118D01*
X284078Y-76538D01*
X287038Y-73578D01*
X290907Y-71975D01*
X295093Y-71975D01*
X298962Y-73578D01*
X301922Y-76538D01*
X302577Y-78118D01*
X302593Y-78146D01*
X302603Y-78176D01*
X302665Y-78267D01*
X302720Y-78361D01*
X302744Y-78383D01*
X302762Y-78409D01*
X302847Y-78479D01*
X302926Y-78554D01*
X302955Y-78568D01*
X302980Y-78589D01*
X303080Y-78632D01*
X303178Y-78681D01*
X303209Y-78687D01*
X303239Y-78700D01*
X303347Y-78714D01*
X303455Y-78734D01*
X303487Y-78731D01*
X303519Y-78735D01*
X303627Y-78717D01*
X303735Y-78707D01*
X303765Y-78695D01*
X303797Y-78690D01*
X303896Y-78643D01*
X303997Y-78602D01*
X304023Y-78582D01*
X304052Y-78569D01*
X304134Y-78496D01*
X304220Y-78429D01*
X304239Y-78403D01*
X304263Y-78381D01*
X304310Y-78304D01*
X304385Y-78200D01*
X304401Y-78154D01*
X304423Y-78118D01*
X305078Y-76538D01*
X308038Y-73578D01*
X311907Y-71975D01*
X316093Y-71975D01*
X319962Y-73578D01*
X322922Y-76538D01*
X323577Y-78118D01*
X323593Y-78146D01*
X323603Y-78176D01*
X323665Y-78267D01*
X323720Y-78361D01*
X323744Y-78383D01*
X323762Y-78409D01*
X323846Y-78479D01*
X323926Y-78554D01*
X323955Y-78568D01*
X323980Y-78589D01*
X324080Y-78632D01*
X324178Y-78681D01*
X324209Y-78687D01*
X324239Y-78700D01*
X324347Y-78714D01*
X324455Y-78734D01*
X324487Y-78731D01*
X324519Y-78735D01*
X324627Y-78717D01*
X324735Y-78707D01*
X324765Y-78695D01*
X324797Y-78690D01*
X324896Y-78643D01*
X324997Y-78602D01*
X325023Y-78582D01*
X325052Y-78569D01*
X325134Y-78496D01*
X325220Y-78429D01*
X325239Y-78403D01*
X325263Y-78381D01*
X325310Y-78304D01*
X325385Y-78200D01*
X325401Y-78154D01*
X325423Y-78118D01*
X326078Y-76538D01*
X329038Y-73578D01*
X332907Y-71975D01*
X337093Y-71975D01*
X340962Y-73578D01*
X343922Y-76538D01*
X344577Y-78118D01*
X344593Y-78146D01*
X344603Y-78176D01*
X344665Y-78267D01*
X344720Y-78361D01*
X344744Y-78383D01*
X344762Y-78409D01*
X344847Y-78479D01*
X344926Y-78554D01*
X344955Y-78568D01*
X344980Y-78589D01*
X345080Y-78632D01*
X345178Y-78681D01*
X345209Y-78687D01*
X345239Y-78700D01*
X345347Y-78714D01*
X345455Y-78734D01*
X345487Y-78731D01*
X345519Y-78735D01*
X345627Y-78717D01*
X345735Y-78707D01*
X345765Y-78695D01*
X345797Y-78690D01*
X345896Y-78643D01*
X345997Y-78602D01*
X346023Y-78582D01*
X346052Y-78569D01*
X346134Y-78496D01*
X346220Y-78429D01*
X346239Y-78403D01*
X346263Y-78381D01*
X346310Y-78304D01*
X346385Y-78200D01*
X346401Y-78154D01*
X346423Y-78118D01*
X347078Y-76538D01*
X350038Y-73578D01*
X353907Y-71975D01*
X358093Y-71975D01*
X361962Y-73578D01*
X364769Y-76385D01*
X364795Y-76405D01*
X364816Y-76429D01*
X364908Y-76489D01*
X364995Y-76555D01*
X365025Y-76566D01*
X365052Y-76584D01*
X365157Y-76615D01*
X365259Y-76654D01*
X365291Y-76657D01*
X365322Y-76666D01*
X365431Y-76667D01*
X365540Y-76676D01*
X365572Y-76669D01*
X365604Y-76670D01*
X365709Y-76640D01*
X365816Y-76618D01*
X365845Y-76603D01*
X365876Y-76594D01*
X365969Y-76537D01*
X366065Y-76486D01*
X366088Y-76463D01*
X366116Y-76446D01*
X366189Y-76365D01*
X366267Y-76289D01*
X366283Y-76261D01*
X366305Y-76237D01*
X366352Y-76139D01*
X366406Y-76044D01*
X366414Y-76012D01*
X366428Y-75983D01*
X366442Y-75894D01*
X366471Y-75769D01*
X366469Y-75721D01*
X366475Y-75679D01*
X366475Y-72868D01*
X367368Y-71975D01*
X386632Y-71975D01*
X386793Y-72137D01*
X386845Y-72176D01*
X386890Y-72222D01*
X386957Y-72260D01*
X387019Y-72306D01*
X387079Y-72329D01*
X387135Y-72361D01*
X387210Y-72379D01*
X387283Y-72406D01*
X387347Y-72411D01*
X387410Y-72426D01*
X387487Y-72422D01*
X387564Y-72428D01*
X387627Y-72415D01*
X387691Y-72411D01*
X387764Y-72386D01*
X387840Y-72370D01*
X387897Y-72340D01*
X387958Y-72319D01*
X388014Y-72277D01*
X388089Y-72238D01*
X388150Y-72179D01*
X388207Y-72137D01*
X388368Y-71975D01*
X407632Y-71975D01*
X408525Y-72868D01*
X408525Y-92132D01*
X407632Y-93025D01*
X388368Y-93025D01*
X388207Y-92863D01*
X388155Y-92824D01*
X388110Y-92778D01*
X388043Y-92740D01*
X387981Y-92694D01*
X387921Y-92671D01*
X387865Y-92639D01*
X387790Y-92621D01*
X387717Y-92594D01*
X387653Y-92589D01*
X387591Y-92574D01*
X387513Y-92578D01*
X387436Y-92572D01*
X387373Y-92585D01*
X387309Y-92589D01*
X387236Y-92614D01*
X387160Y-92630D01*
X387103Y-92660D01*
X387042Y-92681D01*
X386986Y-92723D01*
X386911Y-92762D01*
X386850Y-92822D01*
X386793Y-92863D01*
X386632Y-93025D01*
X367368Y-93025D01*
X366475Y-92132D01*
X366475Y-89321D01*
X366471Y-89289D01*
X366473Y-89257D01*
X366451Y-89150D01*
X366435Y-89042D01*
X366422Y-89013D01*
X366416Y-88981D01*
X366364Y-88885D01*
X366319Y-88785D01*
X366298Y-88761D01*
X366283Y-88732D01*
X366207Y-88654D01*
X366136Y-88571D01*
X366109Y-88553D01*
X366086Y-88530D01*
X365991Y-88476D01*
X365900Y-88416D01*
X365869Y-88407D01*
X365841Y-88391D01*
X365735Y-88366D01*
X365630Y-88334D01*
X365598Y-88334D01*
X365567Y-88326D01*
X365457Y-88332D01*
X365348Y-88330D01*
X365317Y-88339D01*
X365285Y-88341D01*
X365182Y-88376D01*
X365076Y-88406D01*
X365049Y-88422D01*
X365018Y-88433D01*
X364945Y-88486D01*
X364836Y-88554D01*
X364804Y-88590D01*
X364769Y-88615D01*
X361962Y-91422D01*
X358093Y-93025D01*
X353907Y-93025D01*
X350038Y-91422D01*
X347078Y-88462D01*
X346423Y-86882D01*
X346407Y-86854D01*
X346397Y-86824D01*
X346335Y-86733D01*
X346280Y-86639D01*
X346256Y-86617D01*
X346238Y-86591D01*
X346154Y-86521D01*
X346074Y-86446D01*
X346045Y-86432D01*
X346020Y-86411D01*
X345920Y-86368D01*
X345822Y-86319D01*
X345791Y-86313D01*
X345761Y-86300D01*
X345653Y-86286D01*
X345545Y-86266D01*
X345513Y-86269D01*
X345481Y-86265D01*
X345373Y-86283D01*
X345265Y-86293D01*
X345235Y-86305D01*
X345203Y-86310D01*
X345104Y-86357D01*
X345003Y-86398D01*
X344977Y-86418D01*
X344948Y-86431D01*
X344866Y-86504D01*
X344780Y-86571D01*
X344761Y-86597D01*
X344737Y-86619D01*
X344690Y-86696D01*
X344615Y-86800D01*
X344599Y-86846D01*
X344577Y-86882D01*
X343922Y-88462D01*
X340962Y-91422D01*
X337093Y-93025D01*
X332907Y-93025D01*
X329038Y-91422D01*
X326078Y-88462D01*
X325423Y-86882D01*
X325407Y-86854D01*
X325397Y-86824D01*
X325335Y-86733D01*
X325280Y-86639D01*
X325256Y-86617D01*
X325238Y-86591D01*
X325153Y-86521D01*
X325074Y-86446D01*
X325045Y-86432D01*
X325020Y-86411D01*
X324920Y-86368D01*
X324822Y-86319D01*
X324791Y-86313D01*
X324761Y-86300D01*
X324653Y-86286D01*
X324545Y-86266D01*
X324513Y-86269D01*
X324481Y-86265D01*
X324373Y-86283D01*
X324265Y-86293D01*
X324235Y-86305D01*
X324203Y-86310D01*
X324104Y-86357D01*
X324003Y-86398D01*
X323977Y-86418D01*
X323948Y-86431D01*
X323866Y-86504D01*
X323780Y-86571D01*
X323761Y-86597D01*
X323737Y-86619D01*
X323690Y-86696D01*
X323615Y-86800D01*
X323599Y-86846D01*
X323577Y-86882D01*
X322922Y-88462D01*
X319962Y-91422D01*
X316093Y-93025D01*
X311907Y-93025D01*
X308038Y-91422D01*
X305078Y-88462D01*
X304423Y-86882D01*
X304407Y-86854D01*
X304397Y-86824D01*
X304335Y-86733D01*
X304280Y-86639D01*
X304256Y-86617D01*
X304238Y-86591D01*
X304154Y-86521D01*
X304074Y-86446D01*
X304045Y-86432D01*
X304020Y-86411D01*
X303920Y-86368D01*
X303822Y-86319D01*
X303791Y-86313D01*
X303761Y-86300D01*
X303653Y-86286D01*
X303545Y-86266D01*
X303513Y-86269D01*
X303481Y-86265D01*
X303373Y-86283D01*
X303265Y-86293D01*
X303235Y-86305D01*
X303203Y-86310D01*
X303104Y-86357D01*
X303003Y-86398D01*
X302977Y-86418D01*
X302948Y-86431D01*
X302866Y-86504D01*
X302780Y-86571D01*
X302761Y-86597D01*
X302737Y-86619D01*
X302690Y-86696D01*
X302615Y-86800D01*
X302599Y-86846D01*
X302577Y-86882D01*
X301922Y-88462D01*
X298962Y-91422D01*
X295093Y-93025D01*
X290907Y-93025D01*
X287038Y-91422D01*
X284078Y-88462D01*
X283423Y-86882D01*
X283407Y-86854D01*
X283397Y-86824D01*
X283335Y-86733D01*
X283280Y-86639D01*
X283256Y-86617D01*
X283238Y-86591D01*
X283153Y-86521D01*
X283074Y-86446D01*
X283045Y-86432D01*
X283020Y-86411D01*
X282920Y-86368D01*
X282822Y-86319D01*
X282791Y-86313D01*
X282761Y-86300D01*
X282653Y-86286D01*
X282545Y-86266D01*
X282513Y-86269D01*
X282481Y-86265D01*
X282373Y-86283D01*
X282265Y-86293D01*
X282235Y-86305D01*
X282203Y-86310D01*
X282104Y-86357D01*
X282003Y-86398D01*
X281977Y-86418D01*
X281948Y-86431D01*
X281866Y-86504D01*
X281780Y-86571D01*
X281761Y-86597D01*
X281737Y-86619D01*
X281690Y-86696D01*
X281615Y-86800D01*
X281599Y-86846D01*
X281577Y-86882D01*
X280922Y-88462D01*
X277962Y-91422D01*
X274093Y-93025D01*
X269907Y-93025D01*
G37*
%LPD*%
%LPC*%
G36*
X110140Y42440D02*
X110140Y42440D01*
X101007Y45764D01*
X93562Y52011D01*
X88702Y60428D01*
X87015Y70000D01*
X88702Y79572D01*
X93562Y87989D01*
X101007Y94236D01*
X110140Y97560D01*
X119860Y97560D01*
X128993Y94236D01*
X136438Y87989D01*
X141298Y79572D01*
X142985Y70000D01*
X141298Y60428D01*
X136438Y52011D01*
X128993Y45764D01*
X119860Y42440D01*
X110140Y42440D01*
G37*
%LPD*%
%LPC*%
G36*
X110140Y-97560D02*
X110140Y-97560D01*
X101007Y-94236D01*
X93562Y-87989D01*
X88702Y-79572D01*
X87015Y-70000D01*
X88702Y-60428D01*
X93562Y-52011D01*
X101007Y-45764D01*
X110140Y-42440D01*
X119860Y-42440D01*
X128993Y-45764D01*
X136438Y-52011D01*
X141298Y-60428D01*
X142985Y-70000D01*
X141298Y-79572D01*
X136438Y-87989D01*
X128993Y-94236D01*
X119860Y-97560D01*
X110140Y-97560D01*
G37*
%LPD*%
%LPC*%
G36*
X278197Y45935D02*
X278197Y45935D01*
X274865Y47315D01*
X272315Y49865D01*
X270935Y53197D01*
X270935Y56803D01*
X272315Y60135D01*
X274865Y62685D01*
X278197Y64065D01*
X281803Y64065D01*
X285135Y62685D01*
X286002Y61817D01*
X286079Y61760D01*
X286150Y61695D01*
X286191Y61675D01*
X286228Y61648D01*
X286318Y61614D01*
X286404Y61572D01*
X286446Y61566D01*
X286491Y61549D01*
X286619Y61539D01*
X286709Y61525D01*
X297476Y61525D01*
X297540Y61534D01*
X297604Y61533D01*
X297679Y61554D01*
X297755Y61565D01*
X297814Y61591D01*
X297876Y61608D01*
X297942Y61649D01*
X298012Y61681D01*
X298061Y61723D01*
X298116Y61756D01*
X298168Y61814D01*
X298226Y61864D01*
X298262Y61918D01*
X298305Y61966D01*
X298338Y62035D01*
X298381Y62100D01*
X298400Y62162D01*
X298428Y62219D01*
X298439Y62289D01*
X298463Y62370D01*
X298464Y62455D01*
X298475Y62524D01*
X298475Y68798D01*
X299469Y71196D01*
X308804Y80531D01*
X311202Y81525D01*
X388798Y81525D01*
X391196Y80531D01*
X393172Y78556D01*
X393172Y78555D01*
X400531Y71196D01*
X401525Y68798D01*
X401525Y61709D01*
X401538Y61614D01*
X401543Y61517D01*
X401558Y61474D01*
X401565Y61429D01*
X401604Y61342D01*
X401636Y61251D01*
X401661Y61217D01*
X401681Y61172D01*
X401764Y61075D01*
X401817Y61002D01*
X402685Y60135D01*
X404065Y56803D01*
X404065Y53197D01*
X402685Y49865D01*
X400135Y47315D01*
X396803Y45935D01*
X393197Y45935D01*
X389865Y47315D01*
X387315Y49865D01*
X385935Y53197D01*
X385935Y56803D01*
X387315Y60135D01*
X388183Y61002D01*
X388240Y61079D01*
X388305Y61150D01*
X388325Y61191D01*
X388352Y61228D01*
X388386Y61318D01*
X388428Y61404D01*
X388434Y61446D01*
X388451Y61492D01*
X388461Y61619D01*
X388475Y61709D01*
X388475Y64383D01*
X388462Y64478D01*
X388457Y64575D01*
X388442Y64618D01*
X388435Y64663D01*
X388396Y64750D01*
X388364Y64841D01*
X388339Y64875D01*
X388319Y64920D01*
X388236Y65017D01*
X388183Y65090D01*
X385090Y68183D01*
X385013Y68240D01*
X384942Y68305D01*
X384901Y68325D01*
X384864Y68352D01*
X384774Y68386D01*
X384688Y68428D01*
X384646Y68434D01*
X384601Y68451D01*
X384473Y68461D01*
X384383Y68475D01*
X315617Y68475D01*
X315522Y68462D01*
X315425Y68457D01*
X315382Y68442D01*
X315337Y68435D01*
X315250Y68396D01*
X315159Y68364D01*
X315125Y68339D01*
X315080Y68319D01*
X314983Y68236D01*
X314910Y68183D01*
X311817Y65090D01*
X311760Y65013D01*
X311695Y64942D01*
X311675Y64901D01*
X311648Y64864D01*
X311614Y64774D01*
X311572Y64688D01*
X311566Y64646D01*
X311549Y64601D01*
X311539Y64473D01*
X311525Y64383D01*
X311525Y61709D01*
X311538Y61614D01*
X311543Y61517D01*
X311558Y61474D01*
X311565Y61429D01*
X311604Y61342D01*
X311636Y61251D01*
X311661Y61217D01*
X311681Y61172D01*
X311764Y61075D01*
X311817Y61002D01*
X312685Y60135D01*
X314065Y56803D01*
X314065Y53197D01*
X312685Y49865D01*
X310135Y47315D01*
X306803Y45935D01*
X303197Y45935D01*
X299865Y47315D01*
X298998Y48183D01*
X298921Y48240D01*
X298850Y48305D01*
X298809Y48325D01*
X298772Y48352D01*
X298682Y48386D01*
X298596Y48428D01*
X298554Y48434D01*
X298509Y48451D01*
X298381Y48461D01*
X298291Y48475D01*
X286709Y48475D01*
X286613Y48462D01*
X286517Y48457D01*
X286474Y48442D01*
X286429Y48435D01*
X286342Y48396D01*
X286251Y48364D01*
X286217Y48339D01*
X286172Y48319D01*
X286075Y48236D01*
X286002Y48183D01*
X285135Y47315D01*
X281803Y45935D01*
X278197Y45935D01*
G37*
%LPD*%
%LPC*%
G36*
X657907Y46975D02*
X657907Y46975D01*
X654038Y48578D01*
X651078Y51538D01*
X649475Y55406D01*
X649475Y59593D01*
X651078Y63462D01*
X654038Y66422D01*
X657907Y68025D01*
X662093Y68025D01*
X665962Y66422D01*
X668922Y63462D01*
X670525Y59593D01*
X670525Y55406D01*
X668922Y51538D01*
X665962Y48578D01*
X662093Y46975D01*
X657907Y46975D01*
G37*
%LPD*%
%LPC*%
G36*
X557907Y46975D02*
X557907Y46975D01*
X554038Y48578D01*
X551078Y51538D01*
X549475Y55406D01*
X549475Y59593D01*
X551078Y63462D01*
X554038Y66422D01*
X557907Y68025D01*
X562093Y68025D01*
X565962Y66422D01*
X568922Y63462D01*
X570525Y59593D01*
X570525Y55406D01*
X568922Y51538D01*
X565962Y48578D01*
X562093Y46975D01*
X557907Y46975D01*
G37*
%LPD*%
%LPC*%
G36*
X457907Y46975D02*
X457907Y46975D01*
X454038Y48578D01*
X451078Y51538D01*
X449475Y55406D01*
X449475Y59593D01*
X451078Y63462D01*
X454038Y66422D01*
X457907Y68025D01*
X462093Y68025D01*
X465962Y66422D01*
X468922Y63462D01*
X470525Y59593D01*
X470525Y55406D01*
X468922Y51538D01*
X465962Y48578D01*
X462093Y46975D01*
X457907Y46975D01*
G37*
%LPD*%
%LPC*%
G36*
X220407Y41975D02*
X220407Y41975D01*
X216538Y43578D01*
X213578Y46538D01*
X211975Y50406D01*
X211975Y54593D01*
X213578Y58462D01*
X216538Y61422D01*
X220407Y63025D01*
X224593Y63025D01*
X228462Y61422D01*
X231422Y58462D01*
X233025Y54593D01*
X233025Y50406D01*
X231422Y46538D01*
X228462Y43578D01*
X224593Y41975D01*
X220407Y41975D01*
G37*
%LPD*%
%LPC*%
G36*
X170407Y41975D02*
X170407Y41975D01*
X166538Y43578D01*
X163578Y46538D01*
X161975Y50406D01*
X161975Y54593D01*
X163578Y58462D01*
X166538Y61422D01*
X170407Y63025D01*
X174593Y63025D01*
X178462Y61422D01*
X181422Y58462D01*
X183025Y54593D01*
X183025Y50406D01*
X181422Y46538D01*
X178462Y43578D01*
X174593Y41975D01*
X170407Y41975D01*
G37*
%LPD*%
%LPC*%
G36*
X32907Y-35525D02*
X32907Y-35525D01*
X29038Y-33922D01*
X26078Y-30962D01*
X24475Y-27094D01*
X24475Y-22907D01*
X26078Y-19038D01*
X29038Y-16078D01*
X32907Y-14475D01*
X37093Y-14475D01*
X40962Y-16078D01*
X43922Y-19038D01*
X45525Y-22907D01*
X45525Y-27094D01*
X43922Y-30962D01*
X40962Y-33922D01*
X37093Y-35525D01*
X32907Y-35525D01*
G37*
%LPD*%
%LPC*%
G36*
X32907Y-85525D02*
X32907Y-85525D01*
X29038Y-83922D01*
X26078Y-80962D01*
X24475Y-77094D01*
X24475Y-72907D01*
X26078Y-69038D01*
X29038Y-66078D01*
X32907Y-64475D01*
X37093Y-64475D01*
X40962Y-66078D01*
X43922Y-69038D01*
X45525Y-72907D01*
X45525Y-77094D01*
X43922Y-80962D01*
X40962Y-83922D01*
X37093Y-85525D01*
X32907Y-85525D01*
G37*
%LPD*%
%LPC*%
G36*
X321828Y45935D02*
X321828Y45935D01*
X320935Y46828D01*
X320935Y63172D01*
X321828Y64065D01*
X338172Y64065D01*
X339065Y63172D01*
X339065Y46828D01*
X338172Y45935D01*
X321828Y45935D01*
G37*
%LPD*%
D10*
X398000Y-82500D03*
D11*
X356000Y-82500D03*
X314000Y-82500D03*
X272000Y-82500D03*
X398000Y-27500D03*
X356000Y-27500D03*
X314000Y-27500D03*
X272000Y-27500D03*
D12*
X485000Y-80000D03*
X565000Y-80000D03*
X635000Y-80000D03*
X715000Y-80000D03*
D13*
X330000Y55000D03*
D14*
X305000Y55000D03*
X280000Y55000D03*
D11*
X660000Y57500D03*
X710000Y57500D03*
X560000Y57500D03*
X610000Y57500D03*
X460000Y57500D03*
X510000Y57500D03*
X172500Y52500D03*
X222500Y52500D03*
X35000Y75000D03*
X35000Y25000D03*
X35000Y-25000D03*
X35000Y-75000D03*
D10*
X377000Y-82500D03*
D11*
X335000Y-82500D03*
X293000Y-82500D03*
X377000Y-27500D03*
X335000Y-27500D03*
X293000Y-27500D03*
D14*
X369600Y55000D03*
X395000Y55000D03*
X420400Y55000D03*
D15*
X432500Y-27500D02*
X485000Y-80000D01*
X432500Y-27500D02*
X398000Y-27500D01*
D16*
X420400Y47900D02*
X420400Y55000D01*
X420400Y47900D02*
X402500Y30000D01*
D15*
X610000Y-55000D02*
X635000Y-80000D01*
X610000Y-55000D02*
X610000Y57500D01*
X510000Y-25000D02*
X565000Y-80000D01*
X510000Y-25000D02*
X510000Y57500D01*
D16*
X305000Y55000D02*
X280000Y55000D01*
X395000Y55000D02*
X395000Y67500D01*
X387500Y75000D01*
X312500Y75000D01*
X305000Y67500D01*
X305000Y55000D01*
M02*
