G04 EAGLE Gerber RS-274X export*
G75*
%MOMM*%
%FSLAX34Y34*%
%LPD*%
%INCopper Layer 2*%
%IPPOS*%
%AMOC8*
5,1,8,0,0,1.08239X$1,22.5*%
G01*
%ADD10C,1.800000*%
%ADD11C,2.250000*%
%ADD12C,1.508000*%

G36*
X735046Y-105993D02*
X735046Y-105993D01*
X735087Y-105995D01*
X736824Y-105844D01*
X736918Y-105822D01*
X736995Y-105813D01*
X738679Y-105362D01*
X738768Y-105324D01*
X738843Y-105303D01*
X740422Y-104566D01*
X740503Y-104513D01*
X740573Y-104479D01*
X742001Y-103479D01*
X742072Y-103413D01*
X742134Y-103367D01*
X743367Y-102134D01*
X743425Y-102057D01*
X743479Y-102001D01*
X744479Y-100573D01*
X744518Y-100495D01*
X744563Y-100428D01*
X744563Y-100427D01*
X744566Y-100422D01*
X745303Y-98843D01*
X745331Y-98750D01*
X745362Y-98679D01*
X745813Y-96995D01*
X745825Y-96899D01*
X745844Y-96824D01*
X745995Y-95087D01*
X745993Y-95041D01*
X745999Y-95000D01*
X745999Y95000D01*
X745993Y95046D01*
X745995Y95087D01*
X745844Y96824D01*
X745822Y96918D01*
X745813Y96995D01*
X745362Y98679D01*
X745324Y98768D01*
X745303Y98843D01*
X744566Y100422D01*
X744513Y100503D01*
X744479Y100573D01*
X743479Y102001D01*
X743413Y102072D01*
X743367Y102134D01*
X742134Y103367D01*
X742057Y103425D01*
X742001Y103479D01*
X740573Y104479D01*
X740487Y104523D01*
X740422Y104566D01*
X738843Y105303D01*
X738750Y105331D01*
X738679Y105362D01*
X736995Y105813D01*
X736899Y105825D01*
X736824Y105844D01*
X735087Y105995D01*
X735041Y105993D01*
X735000Y105999D01*
X15000Y105999D01*
X14954Y105993D01*
X14913Y105995D01*
X13176Y105844D01*
X13082Y105822D01*
X13005Y105813D01*
X11321Y105362D01*
X11232Y105324D01*
X11158Y105303D01*
X9578Y104566D01*
X9497Y104513D01*
X9427Y104479D01*
X7999Y103479D01*
X7928Y103413D01*
X7866Y103367D01*
X6633Y102134D01*
X6575Y102057D01*
X6521Y102001D01*
X5521Y100573D01*
X5477Y100487D01*
X5434Y100422D01*
X5363Y100270D01*
X4897Y99271D01*
X4697Y98843D01*
X4669Y98750D01*
X4638Y98679D01*
X4187Y96995D01*
X4175Y96899D01*
X4157Y96824D01*
X4005Y95087D01*
X4007Y95041D01*
X4001Y95000D01*
X4001Y-95000D01*
X4007Y-95046D01*
X4005Y-95087D01*
X4157Y-96824D01*
X4178Y-96918D01*
X4187Y-96995D01*
X4638Y-98679D01*
X4676Y-98768D01*
X4697Y-98843D01*
X5434Y-100422D01*
X5487Y-100503D01*
X5521Y-100573D01*
X6521Y-102001D01*
X6587Y-102072D01*
X6633Y-102134D01*
X7866Y-103367D01*
X7943Y-103425D01*
X7999Y-103479D01*
X9427Y-104479D01*
X9513Y-104523D01*
X9578Y-104566D01*
X11158Y-105303D01*
X11250Y-105331D01*
X11321Y-105362D01*
X13005Y-105813D01*
X13101Y-105825D01*
X13176Y-105844D01*
X14913Y-105995D01*
X14959Y-105993D01*
X15000Y-105999D01*
X735000Y-105999D01*
X735046Y-105993D01*
G37*
%LPC*%
G36*
X269907Y-93025D02*
X269907Y-93025D01*
X266038Y-91422D01*
X263078Y-88462D01*
X261475Y-84594D01*
X261475Y-80407D01*
X263078Y-76538D01*
X266038Y-73578D01*
X269907Y-71975D01*
X274093Y-71975D01*
X277962Y-73578D01*
X280922Y-76538D01*
X281577Y-78118D01*
X281593Y-78146D01*
X281603Y-78176D01*
X281665Y-78267D01*
X281720Y-78361D01*
X281744Y-78383D01*
X281762Y-78409D01*
X281846Y-78479D01*
X281926Y-78554D01*
X281955Y-78568D01*
X281980Y-78589D01*
X282080Y-78632D01*
X282178Y-78681D01*
X282209Y-78687D01*
X282239Y-78700D01*
X282347Y-78714D01*
X282455Y-78734D01*
X282487Y-78731D01*
X282519Y-78735D01*
X282627Y-78717D01*
X282735Y-78707D01*
X282765Y-78695D01*
X282797Y-78690D01*
X282896Y-78643D01*
X282997Y-78602D01*
X283023Y-78582D01*
X283052Y-78569D01*
X283134Y-78496D01*
X283220Y-78429D01*
X283239Y-78403D01*
X283263Y-78381D01*
X283310Y-78304D01*
X283385Y-78200D01*
X283401Y-78154D01*
X283423Y-78118D01*
X284078Y-76538D01*
X287038Y-73578D01*
X290907Y-71975D01*
X295093Y-71975D01*
X298962Y-73578D01*
X301922Y-76538D01*
X302577Y-78118D01*
X302593Y-78146D01*
X302603Y-78176D01*
X302665Y-78267D01*
X302720Y-78361D01*
X302744Y-78383D01*
X302762Y-78409D01*
X302847Y-78479D01*
X302926Y-78554D01*
X302955Y-78568D01*
X302980Y-78589D01*
X303080Y-78632D01*
X303178Y-78681D01*
X303209Y-78687D01*
X303239Y-78700D01*
X303347Y-78714D01*
X303455Y-78734D01*
X303487Y-78731D01*
X303519Y-78735D01*
X303627Y-78717D01*
X303735Y-78707D01*
X303765Y-78695D01*
X303797Y-78690D01*
X303896Y-78643D01*
X303997Y-78602D01*
X304023Y-78582D01*
X304052Y-78569D01*
X304134Y-78496D01*
X304220Y-78429D01*
X304239Y-78403D01*
X304263Y-78381D01*
X304310Y-78304D01*
X304385Y-78200D01*
X304401Y-78154D01*
X304423Y-78118D01*
X305078Y-76538D01*
X308038Y-73578D01*
X311907Y-71975D01*
X316093Y-71975D01*
X319962Y-73578D01*
X322922Y-76538D01*
X323577Y-78118D01*
X323593Y-78146D01*
X323603Y-78176D01*
X323665Y-78267D01*
X323720Y-78361D01*
X323744Y-78383D01*
X323762Y-78409D01*
X323846Y-78479D01*
X323926Y-78554D01*
X323955Y-78568D01*
X323980Y-78589D01*
X324080Y-78632D01*
X324178Y-78681D01*
X324209Y-78687D01*
X324239Y-78700D01*
X324347Y-78714D01*
X324455Y-78734D01*
X324487Y-78731D01*
X324519Y-78735D01*
X324627Y-78717D01*
X324735Y-78707D01*
X324765Y-78695D01*
X324797Y-78690D01*
X324896Y-78643D01*
X324997Y-78602D01*
X325023Y-78582D01*
X325052Y-78569D01*
X325134Y-78496D01*
X325220Y-78429D01*
X325239Y-78403D01*
X325263Y-78381D01*
X325310Y-78304D01*
X325385Y-78200D01*
X325401Y-78154D01*
X325423Y-78118D01*
X326078Y-76538D01*
X329038Y-73578D01*
X332907Y-71975D01*
X337093Y-71975D01*
X340962Y-73578D01*
X343922Y-76538D01*
X344577Y-78118D01*
X344593Y-78146D01*
X344603Y-78176D01*
X344665Y-78267D01*
X344720Y-78361D01*
X344744Y-78383D01*
X344762Y-78409D01*
X344847Y-78479D01*
X344926Y-78554D01*
X344955Y-78568D01*
X344980Y-78589D01*
X345080Y-78632D01*
X345178Y-78681D01*
X345209Y-78687D01*
X345239Y-78700D01*
X345347Y-78714D01*
X345455Y-78734D01*
X345487Y-78731D01*
X345519Y-78735D01*
X345627Y-78717D01*
X345735Y-78707D01*
X345765Y-78695D01*
X345797Y-78690D01*
X345896Y-78643D01*
X345997Y-78602D01*
X346023Y-78582D01*
X346052Y-78569D01*
X346134Y-78496D01*
X346220Y-78429D01*
X346239Y-78403D01*
X346263Y-78381D01*
X346310Y-78304D01*
X346385Y-78200D01*
X346401Y-78154D01*
X346423Y-78118D01*
X347078Y-76538D01*
X350038Y-73578D01*
X353907Y-71975D01*
X358093Y-71975D01*
X361962Y-73578D01*
X364922Y-76538D01*
X365577Y-78118D01*
X365593Y-78146D01*
X365603Y-78176D01*
X365665Y-78267D01*
X365720Y-78361D01*
X365744Y-78383D01*
X365762Y-78409D01*
X365846Y-78479D01*
X365926Y-78554D01*
X365955Y-78568D01*
X365980Y-78589D01*
X366080Y-78632D01*
X366178Y-78681D01*
X366209Y-78687D01*
X366239Y-78700D01*
X366347Y-78714D01*
X366455Y-78734D01*
X366487Y-78731D01*
X366519Y-78735D01*
X366627Y-78717D01*
X366735Y-78707D01*
X366765Y-78695D01*
X366797Y-78690D01*
X366896Y-78643D01*
X366997Y-78602D01*
X367023Y-78582D01*
X367052Y-78569D01*
X367134Y-78496D01*
X367220Y-78429D01*
X367239Y-78403D01*
X367263Y-78381D01*
X367310Y-78304D01*
X367385Y-78200D01*
X367401Y-78154D01*
X367423Y-78118D01*
X368078Y-76538D01*
X371038Y-73578D01*
X374907Y-71975D01*
X379093Y-71975D01*
X382962Y-73578D01*
X385922Y-76538D01*
X386577Y-78118D01*
X386593Y-78146D01*
X386603Y-78176D01*
X386665Y-78267D01*
X386720Y-78361D01*
X386744Y-78383D01*
X386762Y-78409D01*
X386847Y-78479D01*
X386926Y-78554D01*
X386955Y-78568D01*
X386980Y-78589D01*
X387080Y-78632D01*
X387178Y-78681D01*
X387209Y-78687D01*
X387239Y-78700D01*
X387347Y-78714D01*
X387455Y-78734D01*
X387487Y-78731D01*
X387519Y-78735D01*
X387627Y-78717D01*
X387735Y-78707D01*
X387765Y-78695D01*
X387797Y-78690D01*
X387896Y-78643D01*
X387997Y-78602D01*
X388023Y-78582D01*
X388052Y-78569D01*
X388134Y-78496D01*
X388220Y-78429D01*
X388239Y-78403D01*
X388263Y-78381D01*
X388310Y-78304D01*
X388385Y-78200D01*
X388401Y-78154D01*
X388423Y-78118D01*
X389078Y-76538D01*
X392038Y-73578D01*
X395907Y-71975D01*
X400093Y-71975D01*
X403962Y-73578D01*
X406922Y-76538D01*
X408525Y-80407D01*
X408525Y-84594D01*
X406922Y-88462D01*
X403962Y-91422D01*
X400093Y-93025D01*
X395907Y-93025D01*
X392038Y-91422D01*
X389078Y-88462D01*
X388423Y-86882D01*
X388407Y-86854D01*
X388397Y-86824D01*
X388335Y-86733D01*
X388280Y-86639D01*
X388256Y-86617D01*
X388238Y-86591D01*
X388154Y-86521D01*
X388074Y-86446D01*
X388045Y-86432D01*
X388020Y-86411D01*
X387920Y-86368D01*
X387822Y-86319D01*
X387791Y-86313D01*
X387761Y-86300D01*
X387653Y-86286D01*
X387545Y-86266D01*
X387513Y-86269D01*
X387481Y-86265D01*
X387373Y-86283D01*
X387265Y-86293D01*
X387235Y-86305D01*
X387203Y-86310D01*
X387104Y-86357D01*
X387003Y-86398D01*
X386977Y-86418D01*
X386948Y-86431D01*
X386866Y-86504D01*
X386780Y-86571D01*
X386761Y-86597D01*
X386737Y-86619D01*
X386690Y-86696D01*
X386615Y-86800D01*
X386599Y-86846D01*
X386577Y-86882D01*
X385922Y-88462D01*
X382962Y-91422D01*
X379093Y-93025D01*
X374907Y-93025D01*
X371038Y-91422D01*
X368078Y-88462D01*
X367423Y-86882D01*
X367407Y-86854D01*
X367397Y-86824D01*
X367335Y-86733D01*
X367280Y-86639D01*
X367256Y-86617D01*
X367238Y-86591D01*
X367153Y-86521D01*
X367074Y-86446D01*
X367045Y-86432D01*
X367020Y-86411D01*
X366920Y-86368D01*
X366822Y-86319D01*
X366791Y-86313D01*
X366761Y-86300D01*
X366653Y-86286D01*
X366545Y-86266D01*
X366513Y-86269D01*
X366481Y-86265D01*
X366373Y-86283D01*
X366265Y-86293D01*
X366235Y-86305D01*
X366203Y-86310D01*
X366104Y-86357D01*
X366003Y-86398D01*
X365977Y-86418D01*
X365948Y-86431D01*
X365866Y-86504D01*
X365780Y-86571D01*
X365761Y-86597D01*
X365737Y-86619D01*
X365690Y-86696D01*
X365615Y-86800D01*
X365599Y-86846D01*
X365577Y-86882D01*
X364922Y-88462D01*
X361962Y-91422D01*
X358093Y-93025D01*
X353907Y-93025D01*
X350038Y-91422D01*
X347078Y-88462D01*
X346423Y-86882D01*
X346407Y-86854D01*
X346397Y-86824D01*
X346335Y-86733D01*
X346280Y-86639D01*
X346256Y-86617D01*
X346238Y-86591D01*
X346154Y-86521D01*
X346074Y-86446D01*
X346045Y-86432D01*
X346020Y-86411D01*
X345920Y-86368D01*
X345822Y-86319D01*
X345791Y-86313D01*
X345761Y-86300D01*
X345653Y-86286D01*
X345545Y-86266D01*
X345513Y-86269D01*
X345481Y-86265D01*
X345373Y-86283D01*
X345265Y-86293D01*
X345235Y-86305D01*
X345203Y-86310D01*
X345104Y-86357D01*
X345003Y-86398D01*
X344977Y-86418D01*
X344948Y-86431D01*
X344866Y-86504D01*
X344780Y-86571D01*
X344761Y-86597D01*
X344737Y-86619D01*
X344690Y-86696D01*
X344615Y-86800D01*
X344599Y-86846D01*
X344577Y-86882D01*
X343922Y-88462D01*
X340962Y-91422D01*
X337093Y-93025D01*
X332907Y-93025D01*
X329038Y-91422D01*
X326078Y-88462D01*
X325423Y-86882D01*
X325407Y-86854D01*
X325397Y-86824D01*
X325335Y-86733D01*
X325280Y-86639D01*
X325256Y-86617D01*
X325238Y-86591D01*
X325153Y-86521D01*
X325074Y-86446D01*
X325045Y-86432D01*
X325020Y-86411D01*
X324920Y-86368D01*
X324822Y-86319D01*
X324791Y-86313D01*
X324761Y-86300D01*
X324653Y-86286D01*
X324545Y-86266D01*
X324513Y-86269D01*
X324481Y-86265D01*
X324373Y-86283D01*
X324265Y-86293D01*
X324235Y-86305D01*
X324203Y-86310D01*
X324104Y-86357D01*
X324003Y-86398D01*
X323977Y-86418D01*
X323948Y-86431D01*
X323866Y-86504D01*
X323780Y-86571D01*
X323761Y-86597D01*
X323737Y-86619D01*
X323690Y-86696D01*
X323615Y-86800D01*
X323599Y-86846D01*
X323577Y-86882D01*
X322922Y-88462D01*
X319962Y-91422D01*
X316093Y-93025D01*
X311907Y-93025D01*
X308038Y-91422D01*
X305078Y-88462D01*
X304423Y-86882D01*
X304407Y-86854D01*
X304397Y-86824D01*
X304335Y-86733D01*
X304280Y-86639D01*
X304256Y-86617D01*
X304238Y-86591D01*
X304154Y-86521D01*
X304074Y-86446D01*
X304045Y-86432D01*
X304020Y-86411D01*
X303920Y-86368D01*
X303822Y-86319D01*
X303791Y-86313D01*
X303761Y-86300D01*
X303653Y-86286D01*
X303545Y-86266D01*
X303513Y-86269D01*
X303481Y-86265D01*
X303373Y-86283D01*
X303265Y-86293D01*
X303235Y-86305D01*
X303203Y-86310D01*
X303104Y-86357D01*
X303003Y-86398D01*
X302977Y-86418D01*
X302948Y-86431D01*
X302866Y-86504D01*
X302780Y-86571D01*
X302761Y-86597D01*
X302737Y-86619D01*
X302690Y-86696D01*
X302615Y-86800D01*
X302599Y-86846D01*
X302577Y-86882D01*
X301922Y-88462D01*
X298962Y-91422D01*
X295093Y-93025D01*
X290907Y-93025D01*
X287038Y-91422D01*
X284078Y-88462D01*
X283423Y-86882D01*
X283407Y-86854D01*
X283397Y-86824D01*
X283335Y-86733D01*
X283280Y-86639D01*
X283256Y-86617D01*
X283238Y-86591D01*
X283153Y-86521D01*
X283074Y-86446D01*
X283045Y-86432D01*
X283020Y-86411D01*
X282920Y-86368D01*
X282822Y-86319D01*
X282791Y-86313D01*
X282761Y-86300D01*
X282653Y-86286D01*
X282545Y-86266D01*
X282513Y-86269D01*
X282481Y-86265D01*
X282373Y-86283D01*
X282265Y-86293D01*
X282235Y-86305D01*
X282203Y-86310D01*
X282104Y-86357D01*
X282003Y-86398D01*
X281977Y-86418D01*
X281948Y-86431D01*
X281866Y-86504D01*
X281780Y-86571D01*
X281761Y-86597D01*
X281737Y-86619D01*
X281690Y-86696D01*
X281615Y-86800D01*
X281599Y-86846D01*
X281577Y-86882D01*
X280922Y-88462D01*
X277962Y-91422D01*
X274093Y-93025D01*
X269907Y-93025D01*
G37*
%LPD*%
%LPC*%
G36*
X269907Y-38025D02*
X269907Y-38025D01*
X266038Y-36422D01*
X263078Y-33462D01*
X261475Y-29594D01*
X261475Y-25407D01*
X263078Y-21538D01*
X266038Y-18578D01*
X269907Y-16975D01*
X274093Y-16975D01*
X277962Y-18578D01*
X280922Y-21538D01*
X281577Y-23118D01*
X281593Y-23146D01*
X281603Y-23176D01*
X281665Y-23267D01*
X281720Y-23361D01*
X281744Y-23383D01*
X281762Y-23409D01*
X281847Y-23479D01*
X281926Y-23554D01*
X281955Y-23568D01*
X281980Y-23589D01*
X282080Y-23632D01*
X282178Y-23681D01*
X282209Y-23687D01*
X282239Y-23700D01*
X282347Y-23714D01*
X282455Y-23734D01*
X282487Y-23731D01*
X282519Y-23735D01*
X282627Y-23717D01*
X282735Y-23707D01*
X282765Y-23695D01*
X282797Y-23690D01*
X282896Y-23643D01*
X282997Y-23602D01*
X283023Y-23582D01*
X283052Y-23569D01*
X283134Y-23496D01*
X283220Y-23429D01*
X283239Y-23403D01*
X283263Y-23381D01*
X283310Y-23304D01*
X283385Y-23200D01*
X283401Y-23154D01*
X283423Y-23118D01*
X284078Y-21538D01*
X287038Y-18578D01*
X290907Y-16975D01*
X295093Y-16975D01*
X298962Y-18578D01*
X301922Y-21538D01*
X302577Y-23118D01*
X302593Y-23146D01*
X302603Y-23176D01*
X302665Y-23267D01*
X302720Y-23361D01*
X302744Y-23383D01*
X302762Y-23409D01*
X302846Y-23479D01*
X302926Y-23554D01*
X302955Y-23568D01*
X302980Y-23589D01*
X303080Y-23632D01*
X303178Y-23681D01*
X303209Y-23687D01*
X303239Y-23700D01*
X303347Y-23714D01*
X303455Y-23734D01*
X303487Y-23731D01*
X303519Y-23735D01*
X303627Y-23717D01*
X303735Y-23707D01*
X303765Y-23695D01*
X303797Y-23690D01*
X303896Y-23643D01*
X303997Y-23602D01*
X304023Y-23582D01*
X304052Y-23569D01*
X304134Y-23496D01*
X304220Y-23429D01*
X304239Y-23403D01*
X304263Y-23381D01*
X304310Y-23304D01*
X304385Y-23200D01*
X304401Y-23154D01*
X304423Y-23118D01*
X305078Y-21538D01*
X308038Y-18578D01*
X311907Y-16975D01*
X316093Y-16975D01*
X319962Y-18578D01*
X322922Y-21538D01*
X323577Y-23118D01*
X323593Y-23146D01*
X323603Y-23176D01*
X323665Y-23267D01*
X323720Y-23361D01*
X323744Y-23383D01*
X323762Y-23409D01*
X323846Y-23479D01*
X323926Y-23554D01*
X323955Y-23568D01*
X323980Y-23589D01*
X324080Y-23632D01*
X324178Y-23681D01*
X324209Y-23687D01*
X324239Y-23700D01*
X324347Y-23714D01*
X324455Y-23734D01*
X324487Y-23731D01*
X324519Y-23735D01*
X324627Y-23717D01*
X324735Y-23707D01*
X324765Y-23695D01*
X324797Y-23690D01*
X324896Y-23643D01*
X324997Y-23602D01*
X325023Y-23582D01*
X325052Y-23569D01*
X325134Y-23496D01*
X325220Y-23429D01*
X325239Y-23403D01*
X325263Y-23381D01*
X325310Y-23304D01*
X325385Y-23200D01*
X325401Y-23154D01*
X325423Y-23118D01*
X326078Y-21538D01*
X329038Y-18578D01*
X332907Y-16975D01*
X337093Y-16975D01*
X340962Y-18578D01*
X343922Y-21538D01*
X344577Y-23118D01*
X344593Y-23146D01*
X344603Y-23176D01*
X344665Y-23267D01*
X344720Y-23361D01*
X344744Y-23383D01*
X344762Y-23409D01*
X344847Y-23479D01*
X344926Y-23554D01*
X344955Y-23568D01*
X344980Y-23589D01*
X345080Y-23632D01*
X345178Y-23681D01*
X345209Y-23687D01*
X345239Y-23700D01*
X345347Y-23714D01*
X345455Y-23734D01*
X345487Y-23731D01*
X345519Y-23735D01*
X345627Y-23717D01*
X345735Y-23707D01*
X345765Y-23695D01*
X345797Y-23690D01*
X345896Y-23643D01*
X345997Y-23602D01*
X346023Y-23582D01*
X346052Y-23569D01*
X346134Y-23496D01*
X346220Y-23429D01*
X346239Y-23403D01*
X346263Y-23381D01*
X346310Y-23304D01*
X346385Y-23200D01*
X346401Y-23154D01*
X346423Y-23118D01*
X347078Y-21538D01*
X350038Y-18578D01*
X353907Y-16975D01*
X358093Y-16975D01*
X361962Y-18578D01*
X364922Y-21538D01*
X365577Y-23118D01*
X365593Y-23146D01*
X365603Y-23176D01*
X365665Y-23267D01*
X365720Y-23361D01*
X365744Y-23383D01*
X365762Y-23409D01*
X365846Y-23479D01*
X365926Y-23554D01*
X365955Y-23568D01*
X365980Y-23589D01*
X366080Y-23632D01*
X366178Y-23681D01*
X366209Y-23687D01*
X366239Y-23700D01*
X366347Y-23714D01*
X366455Y-23734D01*
X366487Y-23731D01*
X366519Y-23735D01*
X366627Y-23717D01*
X366735Y-23707D01*
X366765Y-23695D01*
X366797Y-23690D01*
X366896Y-23643D01*
X366997Y-23602D01*
X367023Y-23582D01*
X367052Y-23569D01*
X367134Y-23496D01*
X367220Y-23429D01*
X367239Y-23403D01*
X367263Y-23381D01*
X367310Y-23304D01*
X367385Y-23200D01*
X367401Y-23154D01*
X367423Y-23118D01*
X368078Y-21538D01*
X371038Y-18578D01*
X374907Y-16975D01*
X379093Y-16975D01*
X382962Y-18578D01*
X385922Y-21538D01*
X386577Y-23118D01*
X386593Y-23146D01*
X386603Y-23176D01*
X386665Y-23267D01*
X386720Y-23361D01*
X386744Y-23383D01*
X386762Y-23409D01*
X386847Y-23479D01*
X386926Y-23554D01*
X386955Y-23568D01*
X386980Y-23589D01*
X387080Y-23632D01*
X387178Y-23681D01*
X387209Y-23687D01*
X387239Y-23700D01*
X387347Y-23714D01*
X387455Y-23734D01*
X387487Y-23731D01*
X387519Y-23735D01*
X387627Y-23717D01*
X387735Y-23707D01*
X387765Y-23695D01*
X387797Y-23690D01*
X387896Y-23643D01*
X387997Y-23602D01*
X388023Y-23582D01*
X388052Y-23569D01*
X388134Y-23496D01*
X388220Y-23429D01*
X388239Y-23403D01*
X388263Y-23381D01*
X388310Y-23304D01*
X388385Y-23200D01*
X388401Y-23154D01*
X388423Y-23118D01*
X389078Y-21538D01*
X392038Y-18578D01*
X395907Y-16975D01*
X400093Y-16975D01*
X403962Y-18578D01*
X406922Y-21538D01*
X408525Y-25407D01*
X408525Y-29594D01*
X406922Y-33462D01*
X403962Y-36422D01*
X400093Y-38025D01*
X395907Y-38025D01*
X392038Y-36422D01*
X389078Y-33462D01*
X388423Y-31882D01*
X388407Y-31854D01*
X388397Y-31824D01*
X388335Y-31733D01*
X388280Y-31639D01*
X388256Y-31617D01*
X388238Y-31591D01*
X388154Y-31521D01*
X388074Y-31446D01*
X388045Y-31432D01*
X388020Y-31411D01*
X387920Y-31368D01*
X387822Y-31319D01*
X387791Y-31313D01*
X387761Y-31300D01*
X387653Y-31286D01*
X387545Y-31266D01*
X387513Y-31269D01*
X387481Y-31265D01*
X387373Y-31283D01*
X387265Y-31293D01*
X387235Y-31305D01*
X387203Y-31310D01*
X387104Y-31357D01*
X387003Y-31398D01*
X386977Y-31418D01*
X386948Y-31431D01*
X386866Y-31504D01*
X386780Y-31571D01*
X386761Y-31597D01*
X386737Y-31619D01*
X386690Y-31696D01*
X386615Y-31800D01*
X386599Y-31846D01*
X386577Y-31882D01*
X385922Y-33462D01*
X382962Y-36422D01*
X379093Y-38025D01*
X374907Y-38025D01*
X371038Y-36422D01*
X368078Y-33462D01*
X367423Y-31882D01*
X367407Y-31854D01*
X367397Y-31824D01*
X367335Y-31733D01*
X367280Y-31639D01*
X367256Y-31617D01*
X367238Y-31591D01*
X367153Y-31521D01*
X367074Y-31446D01*
X367045Y-31432D01*
X367020Y-31411D01*
X366920Y-31368D01*
X366822Y-31319D01*
X366791Y-31313D01*
X366761Y-31300D01*
X366653Y-31286D01*
X366545Y-31266D01*
X366513Y-31269D01*
X366481Y-31265D01*
X366373Y-31283D01*
X366265Y-31293D01*
X366235Y-31305D01*
X366203Y-31310D01*
X366104Y-31357D01*
X366003Y-31398D01*
X365977Y-31418D01*
X365948Y-31431D01*
X365866Y-31504D01*
X365780Y-31571D01*
X365761Y-31597D01*
X365737Y-31619D01*
X365690Y-31696D01*
X365615Y-31800D01*
X365599Y-31846D01*
X365577Y-31882D01*
X364922Y-33462D01*
X361962Y-36422D01*
X358093Y-38025D01*
X353907Y-38025D01*
X350038Y-36422D01*
X347078Y-33462D01*
X346423Y-31882D01*
X346407Y-31854D01*
X346397Y-31824D01*
X346335Y-31733D01*
X346280Y-31639D01*
X346256Y-31617D01*
X346238Y-31591D01*
X346154Y-31521D01*
X346074Y-31446D01*
X346045Y-31432D01*
X346020Y-31411D01*
X345920Y-31368D01*
X345822Y-31319D01*
X345791Y-31313D01*
X345761Y-31300D01*
X345653Y-31286D01*
X345545Y-31266D01*
X345513Y-31269D01*
X345481Y-31265D01*
X345373Y-31283D01*
X345265Y-31293D01*
X345235Y-31305D01*
X345203Y-31310D01*
X345104Y-31357D01*
X345003Y-31398D01*
X344977Y-31418D01*
X344948Y-31431D01*
X344866Y-31504D01*
X344780Y-31571D01*
X344761Y-31597D01*
X344737Y-31619D01*
X344690Y-31696D01*
X344615Y-31800D01*
X344599Y-31846D01*
X344577Y-31882D01*
X343922Y-33462D01*
X340962Y-36422D01*
X337093Y-38025D01*
X332907Y-38025D01*
X329038Y-36422D01*
X326078Y-33462D01*
X325423Y-31882D01*
X325407Y-31854D01*
X325397Y-31824D01*
X325335Y-31733D01*
X325280Y-31639D01*
X325256Y-31617D01*
X325238Y-31591D01*
X325153Y-31521D01*
X325074Y-31446D01*
X325045Y-31432D01*
X325020Y-31411D01*
X324920Y-31368D01*
X324822Y-31319D01*
X324791Y-31313D01*
X324761Y-31300D01*
X324653Y-31286D01*
X324545Y-31266D01*
X324513Y-31269D01*
X324481Y-31265D01*
X324373Y-31283D01*
X324265Y-31293D01*
X324235Y-31305D01*
X324203Y-31310D01*
X324104Y-31357D01*
X324003Y-31398D01*
X323977Y-31418D01*
X323948Y-31431D01*
X323866Y-31504D01*
X323780Y-31571D01*
X323761Y-31597D01*
X323737Y-31619D01*
X323690Y-31696D01*
X323615Y-31800D01*
X323599Y-31846D01*
X323577Y-31882D01*
X322922Y-33462D01*
X319962Y-36422D01*
X316093Y-38025D01*
X311907Y-38025D01*
X308038Y-36422D01*
X305078Y-33462D01*
X304423Y-31882D01*
X304407Y-31854D01*
X304397Y-31824D01*
X304335Y-31733D01*
X304280Y-31639D01*
X304256Y-31617D01*
X304238Y-31591D01*
X304153Y-31521D01*
X304074Y-31446D01*
X304045Y-31432D01*
X304020Y-31411D01*
X303920Y-31368D01*
X303822Y-31319D01*
X303791Y-31313D01*
X303761Y-31300D01*
X303653Y-31286D01*
X303545Y-31266D01*
X303513Y-31269D01*
X303481Y-31265D01*
X303373Y-31283D01*
X303265Y-31293D01*
X303235Y-31305D01*
X303203Y-31310D01*
X303104Y-31357D01*
X303003Y-31398D01*
X302977Y-31418D01*
X302948Y-31431D01*
X302866Y-31504D01*
X302780Y-31571D01*
X302761Y-31597D01*
X302737Y-31619D01*
X302690Y-31696D01*
X302615Y-31800D01*
X302599Y-31846D01*
X302577Y-31882D01*
X301922Y-33462D01*
X298962Y-36422D01*
X295093Y-38025D01*
X290907Y-38025D01*
X287038Y-36422D01*
X284078Y-33462D01*
X283423Y-31882D01*
X283407Y-31854D01*
X283397Y-31824D01*
X283335Y-31733D01*
X283280Y-31639D01*
X283256Y-31617D01*
X283238Y-31591D01*
X283154Y-31521D01*
X283074Y-31446D01*
X283045Y-31432D01*
X283020Y-31411D01*
X282920Y-31368D01*
X282822Y-31319D01*
X282791Y-31313D01*
X282761Y-31300D01*
X282653Y-31286D01*
X282545Y-31266D01*
X282513Y-31269D01*
X282481Y-31265D01*
X282373Y-31283D01*
X282265Y-31293D01*
X282235Y-31305D01*
X282203Y-31310D01*
X282104Y-31357D01*
X282003Y-31398D01*
X281977Y-31418D01*
X281948Y-31431D01*
X281866Y-31504D01*
X281780Y-31571D01*
X281761Y-31597D01*
X281737Y-31619D01*
X281690Y-31696D01*
X281615Y-31800D01*
X281599Y-31846D01*
X281577Y-31882D01*
X280922Y-33462D01*
X277962Y-36422D01*
X274093Y-38025D01*
X269907Y-38025D01*
G37*
%LPD*%
%LPC*%
G36*
X111221Y50999D02*
X111221Y50999D01*
X104237Y53892D01*
X98892Y59237D01*
X95999Y66220D01*
X95999Y73779D01*
X98892Y80763D01*
X104237Y86108D01*
X111221Y89001D01*
X118779Y89001D01*
X125763Y86108D01*
X131108Y80763D01*
X134001Y73779D01*
X134001Y66220D01*
X131108Y59237D01*
X125763Y53892D01*
X118779Y50999D01*
X111221Y50999D01*
G37*
%LPD*%
%LPC*%
G36*
X111221Y-89001D02*
X111221Y-89001D01*
X104237Y-86108D01*
X98892Y-80763D01*
X95999Y-73780D01*
X95999Y-66221D01*
X98892Y-59237D01*
X104237Y-53892D01*
X111221Y-50999D01*
X118779Y-50999D01*
X125763Y-53892D01*
X131108Y-59237D01*
X134001Y-66221D01*
X134001Y-73780D01*
X131108Y-80763D01*
X125763Y-86108D01*
X118779Y-89001D01*
X111221Y-89001D01*
G37*
%LPD*%
%LPC*%
G36*
X632459Y-92775D02*
X632459Y-92775D01*
X627764Y-90830D01*
X624170Y-87236D01*
X622225Y-82541D01*
X622225Y-77459D01*
X624170Y-72764D01*
X627764Y-69170D01*
X632459Y-67225D01*
X637541Y-67225D01*
X642236Y-69170D01*
X645830Y-72764D01*
X647775Y-77459D01*
X647775Y-82541D01*
X645830Y-87236D01*
X642236Y-90830D01*
X637541Y-92775D01*
X632459Y-92775D01*
G37*
%LPD*%
%LPC*%
G36*
X562459Y-92775D02*
X562459Y-92775D01*
X557764Y-90830D01*
X554170Y-87236D01*
X552225Y-82541D01*
X552225Y-77459D01*
X554170Y-72764D01*
X557764Y-69170D01*
X562459Y-67225D01*
X567541Y-67225D01*
X572236Y-69170D01*
X575830Y-72764D01*
X577775Y-77459D01*
X577775Y-82541D01*
X575830Y-87236D01*
X572236Y-90830D01*
X567541Y-92775D01*
X562459Y-92775D01*
G37*
%LPD*%
%LPC*%
G36*
X482459Y-92775D02*
X482459Y-92775D01*
X477764Y-90830D01*
X474170Y-87236D01*
X472225Y-82541D01*
X472225Y-77459D01*
X474170Y-72764D01*
X477764Y-69170D01*
X482459Y-67225D01*
X487541Y-67225D01*
X492236Y-69170D01*
X495830Y-72764D01*
X497775Y-77459D01*
X497775Y-82541D01*
X495830Y-87236D01*
X492236Y-90830D01*
X487541Y-92775D01*
X482459Y-92775D01*
G37*
%LPD*%
%LPC*%
G36*
X557907Y46975D02*
X557907Y46975D01*
X554038Y48578D01*
X551078Y51538D01*
X549475Y55406D01*
X549475Y59593D01*
X551078Y63462D01*
X554038Y66422D01*
X557907Y68025D01*
X562093Y68025D01*
X565962Y66422D01*
X568922Y63462D01*
X570525Y59593D01*
X570525Y55406D01*
X568922Y51538D01*
X565962Y48578D01*
X562093Y46975D01*
X557907Y46975D01*
G37*
%LPD*%
%LPC*%
G36*
X507907Y46975D02*
X507907Y46975D01*
X504038Y48578D01*
X501078Y51538D01*
X499475Y55406D01*
X499475Y59593D01*
X501078Y63462D01*
X504038Y66422D01*
X507907Y68025D01*
X512093Y68025D01*
X515962Y66422D01*
X518922Y63462D01*
X520525Y59593D01*
X520525Y55406D01*
X518922Y51538D01*
X515962Y48578D01*
X512093Y46975D01*
X507907Y46975D01*
G37*
%LPD*%
%LPC*%
G36*
X657907Y46975D02*
X657907Y46975D01*
X654038Y48578D01*
X651078Y51538D01*
X649475Y55406D01*
X649475Y59593D01*
X651078Y63462D01*
X654038Y66422D01*
X657907Y68025D01*
X662093Y68025D01*
X665962Y66422D01*
X668922Y63462D01*
X670525Y59593D01*
X670525Y55406D01*
X668922Y51538D01*
X665962Y48578D01*
X662093Y46975D01*
X657907Y46975D01*
G37*
%LPD*%
%LPC*%
G36*
X607907Y46975D02*
X607907Y46975D01*
X604038Y48578D01*
X601078Y51538D01*
X599475Y55406D01*
X599475Y59593D01*
X601078Y63462D01*
X604038Y66422D01*
X607907Y68025D01*
X612093Y68025D01*
X615962Y66422D01*
X618922Y63462D01*
X620525Y59593D01*
X620525Y55406D01*
X618922Y51538D01*
X615962Y48578D01*
X612093Y46975D01*
X607907Y46975D01*
G37*
%LPD*%
%LPC*%
G36*
X457907Y46975D02*
X457907Y46975D01*
X454038Y48578D01*
X451078Y51538D01*
X449475Y55406D01*
X449475Y59593D01*
X451078Y63462D01*
X454038Y66422D01*
X457907Y68025D01*
X462093Y68025D01*
X465962Y66422D01*
X468922Y63462D01*
X470525Y59593D01*
X470525Y55406D01*
X468922Y51538D01*
X465962Y48578D01*
X462093Y46975D01*
X457907Y46975D01*
G37*
%LPD*%
%LPC*%
G36*
X170407Y41975D02*
X170407Y41975D01*
X166538Y43578D01*
X163578Y46538D01*
X161975Y50406D01*
X161975Y54593D01*
X163578Y58462D01*
X166538Y61422D01*
X170407Y63025D01*
X174593Y63025D01*
X178462Y61422D01*
X181422Y58462D01*
X183025Y54593D01*
X183025Y50406D01*
X181422Y46538D01*
X178462Y43578D01*
X174593Y41975D01*
X170407Y41975D01*
G37*
%LPD*%
%LPC*%
G36*
X220407Y41975D02*
X220407Y41975D01*
X216538Y43578D01*
X213578Y46538D01*
X211975Y50406D01*
X211975Y54593D01*
X213578Y58462D01*
X216538Y61422D01*
X220407Y63025D01*
X224593Y63025D01*
X228462Y61422D01*
X231422Y58462D01*
X233025Y54593D01*
X233025Y50406D01*
X231422Y46538D01*
X228462Y43578D01*
X224593Y41975D01*
X220407Y41975D01*
G37*
%LPD*%
%LPC*%
G36*
X32907Y14475D02*
X32907Y14475D01*
X29038Y16078D01*
X26078Y19038D01*
X24475Y22906D01*
X24475Y27093D01*
X26078Y30962D01*
X29038Y33922D01*
X32907Y35525D01*
X37093Y35525D01*
X40962Y33922D01*
X43922Y30962D01*
X45525Y27093D01*
X45525Y22906D01*
X43922Y19038D01*
X40962Y16078D01*
X37093Y14475D01*
X32907Y14475D01*
G37*
%LPD*%
%LPC*%
G36*
X32907Y-35525D02*
X32907Y-35525D01*
X29038Y-33922D01*
X26078Y-30962D01*
X24475Y-27094D01*
X24475Y-22907D01*
X26078Y-19038D01*
X29038Y-16078D01*
X32907Y-14475D01*
X37093Y-14475D01*
X40962Y-16078D01*
X43922Y-19038D01*
X45525Y-22907D01*
X45525Y-27094D01*
X43922Y-30962D01*
X40962Y-33922D01*
X37093Y-35525D01*
X32907Y-35525D01*
G37*
%LPD*%
%LPC*%
G36*
X32907Y-85525D02*
X32907Y-85525D01*
X29038Y-83922D01*
X26078Y-80962D01*
X24475Y-77094D01*
X24475Y-72907D01*
X26078Y-69038D01*
X29038Y-66078D01*
X32907Y-64475D01*
X37093Y-64475D01*
X40962Y-66078D01*
X43922Y-69038D01*
X45525Y-72907D01*
X45525Y-77094D01*
X43922Y-80962D01*
X40962Y-83922D01*
X37093Y-85525D01*
X32907Y-85525D01*
G37*
%LPD*%
%LPC*%
G36*
X418597Y45935D02*
X418597Y45935D01*
X415265Y47315D01*
X412715Y49865D01*
X411335Y53197D01*
X411335Y56803D01*
X412715Y60135D01*
X415265Y62685D01*
X418597Y64065D01*
X422203Y64065D01*
X425535Y62685D01*
X428085Y60135D01*
X429465Y56803D01*
X429465Y53197D01*
X428085Y49865D01*
X425535Y47315D01*
X422203Y45935D01*
X418597Y45935D01*
G37*
%LPD*%
%LPC*%
G36*
X393197Y45935D02*
X393197Y45935D01*
X389865Y47315D01*
X387315Y49865D01*
X385935Y53197D01*
X385935Y56803D01*
X387315Y60135D01*
X389865Y62685D01*
X393197Y64065D01*
X396803Y64065D01*
X400135Y62685D01*
X402685Y60135D01*
X404065Y56803D01*
X404065Y53197D01*
X402685Y49865D01*
X400135Y47315D01*
X396803Y45935D01*
X393197Y45935D01*
G37*
%LPD*%
%LPC*%
G36*
X328197Y45935D02*
X328197Y45935D01*
X324865Y47315D01*
X322315Y49865D01*
X320935Y53197D01*
X320935Y56803D01*
X322315Y60135D01*
X324865Y62685D01*
X328197Y64065D01*
X331803Y64065D01*
X335135Y62685D01*
X337685Y60135D01*
X339065Y56803D01*
X339065Y53197D01*
X337685Y49865D01*
X335135Y47315D01*
X331803Y45935D01*
X328197Y45935D01*
G37*
%LPD*%
%LPC*%
G36*
X303197Y45935D02*
X303197Y45935D01*
X299865Y47315D01*
X297315Y49865D01*
X295935Y53197D01*
X295935Y56803D01*
X297315Y60135D01*
X299865Y62685D01*
X303197Y64065D01*
X306803Y64065D01*
X310135Y62685D01*
X312685Y60135D01*
X314065Y56803D01*
X314065Y53197D01*
X312685Y49865D01*
X310135Y47315D01*
X306803Y45935D01*
X303197Y45935D01*
G37*
%LPD*%
%LPC*%
G36*
X278197Y45935D02*
X278197Y45935D01*
X274865Y47315D01*
X272315Y49865D01*
X270935Y53197D01*
X270935Y56803D01*
X272315Y60135D01*
X274865Y62685D01*
X278197Y64065D01*
X281803Y64065D01*
X285135Y62685D01*
X287685Y60135D01*
X289065Y56803D01*
X289065Y53197D01*
X287685Y49865D01*
X285135Y47315D01*
X281803Y45935D01*
X278197Y45935D01*
G37*
%LPD*%
D10*
X398000Y-82500D03*
X356000Y-82500D03*
X314000Y-82500D03*
X272000Y-82500D03*
X398000Y-27500D03*
X356000Y-27500D03*
X314000Y-27500D03*
X272000Y-27500D03*
D11*
X485000Y-80000D03*
X565000Y-80000D03*
X635000Y-80000D03*
X715000Y-80000D03*
D12*
X330000Y55000D03*
X305000Y55000D03*
X280000Y55000D03*
D10*
X660000Y57500D03*
X710000Y57500D03*
X560000Y57500D03*
X610000Y57500D03*
X460000Y57500D03*
X510000Y57500D03*
X172500Y52500D03*
X222500Y52500D03*
X35000Y75000D03*
X35000Y25000D03*
X35000Y-25000D03*
X35000Y-75000D03*
X377000Y-82500D03*
X335000Y-82500D03*
X293000Y-82500D03*
X377000Y-27500D03*
X335000Y-27500D03*
X293000Y-27500D03*
D12*
X369600Y55000D03*
X395000Y55000D03*
X420400Y55000D03*
M02*
