G04 EAGLE Gerber RS-274X export*
G75*
%MOMM*%
%FSLAX34Y34*%
%LPD*%
%IN*%
%IPPOS*%
%AMOC8*
5,1,8,0,0,1.08239X$1,22.5*%
G01*
%ADD10C,0.254000*%


D10*
X-5000Y-110000D02*
X820000Y-110000D01*
X820000Y110000D01*
X-5000Y110000D01*
X-5000Y-110000D01*
X131000Y-70524D02*
X130932Y-71569D01*
X130795Y-72608D01*
X130590Y-73635D01*
X130319Y-74647D01*
X129983Y-75639D01*
X129582Y-76607D01*
X129118Y-77546D01*
X128595Y-78454D01*
X128013Y-79325D01*
X127375Y-80156D01*
X126684Y-80943D01*
X125943Y-81684D01*
X125156Y-82375D01*
X124325Y-83013D01*
X123454Y-83595D01*
X122546Y-84118D01*
X121607Y-84582D01*
X120639Y-84983D01*
X119647Y-85319D01*
X118635Y-85590D01*
X117608Y-85795D01*
X116569Y-85932D01*
X115524Y-86000D01*
X114476Y-86000D01*
X113431Y-85932D01*
X112392Y-85795D01*
X111365Y-85590D01*
X110353Y-85319D01*
X109361Y-84983D01*
X108393Y-84582D01*
X107454Y-84118D01*
X106546Y-83595D01*
X105675Y-83013D01*
X104844Y-82375D01*
X104057Y-81684D01*
X103316Y-80943D01*
X102625Y-80156D01*
X101988Y-79325D01*
X101406Y-78454D01*
X100882Y-77546D01*
X100418Y-76607D01*
X100017Y-75639D01*
X99681Y-74647D01*
X99410Y-73635D01*
X99205Y-72608D01*
X99069Y-71569D01*
X99000Y-70524D01*
X99000Y-69476D01*
X99069Y-68431D01*
X99205Y-67392D01*
X99410Y-66365D01*
X99681Y-65353D01*
X100017Y-64361D01*
X100418Y-63393D01*
X100882Y-62454D01*
X101406Y-61546D01*
X101988Y-60675D01*
X102625Y-59844D01*
X103316Y-59057D01*
X104057Y-58316D01*
X104844Y-57625D01*
X105675Y-56988D01*
X106546Y-56406D01*
X107454Y-55882D01*
X108393Y-55418D01*
X109361Y-55017D01*
X110353Y-54681D01*
X111365Y-54410D01*
X112392Y-54205D01*
X113431Y-54069D01*
X114476Y-54000D01*
X115524Y-54000D01*
X116569Y-54069D01*
X117608Y-54205D01*
X118635Y-54410D01*
X119647Y-54681D01*
X120639Y-55017D01*
X121607Y-55418D01*
X122546Y-55882D01*
X123454Y-56406D01*
X124325Y-56988D01*
X125156Y-57625D01*
X125943Y-58316D01*
X126684Y-59057D01*
X127375Y-59844D01*
X128013Y-60675D01*
X128595Y-61546D01*
X129118Y-62454D01*
X129582Y-63393D01*
X129983Y-64361D01*
X130319Y-65353D01*
X130590Y-66365D01*
X130795Y-67392D01*
X130932Y-68431D01*
X131000Y-69476D01*
X131000Y-70524D01*
X131000Y69476D02*
X130932Y68431D01*
X130795Y67392D01*
X130590Y66365D01*
X130319Y65353D01*
X129983Y64361D01*
X129582Y63393D01*
X129118Y62454D01*
X128595Y61546D01*
X128013Y60675D01*
X127375Y59844D01*
X126684Y59057D01*
X125943Y58316D01*
X125156Y57625D01*
X124325Y56988D01*
X123454Y56406D01*
X122546Y55882D01*
X121607Y55418D01*
X120639Y55017D01*
X119647Y54681D01*
X118635Y54410D01*
X117608Y54205D01*
X116569Y54069D01*
X115524Y54000D01*
X114476Y54000D01*
X113431Y54069D01*
X112392Y54205D01*
X111365Y54410D01*
X110353Y54681D01*
X109361Y55017D01*
X108393Y55418D01*
X107454Y55882D01*
X106546Y56406D01*
X105675Y56988D01*
X104844Y57625D01*
X104057Y58316D01*
X103316Y59057D01*
X102625Y59844D01*
X101988Y60675D01*
X101406Y61546D01*
X100882Y62454D01*
X100418Y63393D01*
X100017Y64361D01*
X99681Y65353D01*
X99410Y66365D01*
X99205Y67392D01*
X99069Y68431D01*
X99000Y69476D01*
X99000Y70524D01*
X99069Y71569D01*
X99205Y72608D01*
X99410Y73635D01*
X99681Y74647D01*
X100017Y75639D01*
X100418Y76607D01*
X100882Y77546D01*
X101406Y78454D01*
X101988Y79325D01*
X102625Y80156D01*
X103316Y80943D01*
X104057Y81684D01*
X104844Y82375D01*
X105675Y83013D01*
X106546Y83595D01*
X107454Y84118D01*
X108393Y84582D01*
X109361Y84983D01*
X110353Y85319D01*
X111365Y85590D01*
X112392Y85795D01*
X113431Y85932D01*
X114476Y86000D01*
X115524Y86000D01*
X116569Y85932D01*
X117608Y85795D01*
X118635Y85590D01*
X119647Y85319D01*
X120639Y84983D01*
X121607Y84582D01*
X122546Y84118D01*
X123454Y83595D01*
X124325Y83013D01*
X125156Y82375D01*
X125943Y81684D01*
X126684Y80943D01*
X127375Y80156D01*
X128013Y79325D01*
X128595Y78454D01*
X129118Y77546D01*
X129582Y76607D01*
X129983Y75639D01*
X130319Y74647D01*
X130590Y73635D01*
X130795Y72608D01*
X130932Y71569D01*
X131000Y70524D01*
X131000Y69476D01*
X801000Y69476D02*
X800932Y68431D01*
X800795Y67392D01*
X800590Y66365D01*
X800319Y65353D01*
X799983Y64361D01*
X799582Y63393D01*
X799118Y62454D01*
X798595Y61546D01*
X798013Y60675D01*
X797375Y59844D01*
X796684Y59057D01*
X795943Y58316D01*
X795156Y57625D01*
X794325Y56988D01*
X793454Y56406D01*
X792546Y55882D01*
X791607Y55418D01*
X790639Y55017D01*
X789647Y54681D01*
X788635Y54410D01*
X787608Y54205D01*
X786569Y54069D01*
X785524Y54000D01*
X784476Y54000D01*
X783431Y54069D01*
X782392Y54205D01*
X781365Y54410D01*
X780353Y54681D01*
X779361Y55017D01*
X778393Y55418D01*
X777454Y55882D01*
X776546Y56406D01*
X775675Y56988D01*
X774844Y57625D01*
X774057Y58316D01*
X773316Y59057D01*
X772625Y59844D01*
X771988Y60675D01*
X771406Y61546D01*
X770882Y62454D01*
X770418Y63393D01*
X770017Y64361D01*
X769681Y65353D01*
X769410Y66365D01*
X769205Y67392D01*
X769069Y68431D01*
X769000Y69476D01*
X769000Y70524D01*
X769069Y71569D01*
X769205Y72608D01*
X769410Y73635D01*
X769681Y74647D01*
X770017Y75639D01*
X770418Y76607D01*
X770882Y77546D01*
X771406Y78454D01*
X771988Y79325D01*
X772625Y80156D01*
X773316Y80943D01*
X774057Y81684D01*
X774844Y82375D01*
X775675Y83013D01*
X776546Y83595D01*
X777454Y84118D01*
X778393Y84582D01*
X779361Y84983D01*
X780353Y85319D01*
X781365Y85590D01*
X782392Y85795D01*
X783431Y85932D01*
X784476Y86000D01*
X785524Y86000D01*
X786569Y85932D01*
X787608Y85795D01*
X788635Y85590D01*
X789647Y85319D01*
X790639Y84983D01*
X791607Y84582D01*
X792546Y84118D01*
X793454Y83595D01*
X794325Y83013D01*
X795156Y82375D01*
X795943Y81684D01*
X796684Y80943D01*
X797375Y80156D01*
X798013Y79325D01*
X798595Y78454D01*
X799118Y77546D01*
X799582Y76607D01*
X799983Y75639D01*
X800319Y74647D01*
X800590Y73635D01*
X800795Y72608D01*
X800932Y71569D01*
X801000Y70524D01*
X801000Y69476D01*
X801000Y-70524D02*
X800932Y-71569D01*
X800795Y-72608D01*
X800590Y-73635D01*
X800319Y-74647D01*
X799983Y-75639D01*
X799582Y-76607D01*
X799118Y-77546D01*
X798595Y-78454D01*
X798013Y-79325D01*
X797375Y-80156D01*
X796684Y-80943D01*
X795943Y-81684D01*
X795156Y-82375D01*
X794325Y-83013D01*
X793454Y-83595D01*
X792546Y-84118D01*
X791607Y-84582D01*
X790639Y-84983D01*
X789647Y-85319D01*
X788635Y-85590D01*
X787608Y-85795D01*
X786569Y-85932D01*
X785524Y-86000D01*
X784476Y-86000D01*
X783431Y-85932D01*
X782392Y-85795D01*
X781365Y-85590D01*
X780353Y-85319D01*
X779361Y-84983D01*
X778393Y-84582D01*
X777454Y-84118D01*
X776546Y-83595D01*
X775675Y-83013D01*
X774844Y-82375D01*
X774057Y-81684D01*
X773316Y-80943D01*
X772625Y-80156D01*
X771988Y-79325D01*
X771406Y-78454D01*
X770882Y-77546D01*
X770418Y-76607D01*
X770017Y-75639D01*
X769681Y-74647D01*
X769410Y-73635D01*
X769205Y-72608D01*
X769069Y-71569D01*
X769000Y-70524D01*
X769000Y-69476D01*
X769069Y-68431D01*
X769205Y-67392D01*
X769410Y-66365D01*
X769681Y-65353D01*
X770017Y-64361D01*
X770418Y-63393D01*
X770882Y-62454D01*
X771406Y-61546D01*
X771988Y-60675D01*
X772625Y-59844D01*
X773316Y-59057D01*
X774057Y-58316D01*
X774844Y-57625D01*
X775675Y-56988D01*
X776546Y-56406D01*
X777454Y-55882D01*
X778393Y-55418D01*
X779361Y-55017D01*
X780353Y-54681D01*
X781365Y-54410D01*
X782392Y-54205D01*
X783431Y-54069D01*
X784476Y-54000D01*
X785524Y-54000D01*
X786569Y-54069D01*
X787608Y-54205D01*
X788635Y-54410D01*
X789647Y-54681D01*
X790639Y-55017D01*
X791607Y-55418D01*
X792546Y-55882D01*
X793454Y-56406D01*
X794325Y-56988D01*
X795156Y-57625D01*
X795943Y-58316D01*
X796684Y-59057D01*
X797375Y-59844D01*
X798013Y-60675D01*
X798595Y-61546D01*
X799118Y-62454D01*
X799582Y-63393D01*
X799983Y-64361D01*
X800319Y-65353D01*
X800590Y-66365D01*
X800795Y-67392D01*
X800932Y-68431D01*
X801000Y-69476D01*
X801000Y-70524D01*
M02*
