G04 EAGLE Gerber RS-274X export*
G75*
%MOMM*%
%FSLAX34Y34*%
%LPD*%
%INSilkscreen Top*%
%IPPOS*%
%AMOC8*
5,1,8,0,0,1.08239X$1,22.5*%
G01*
%ADD10C,0.101600*%
%ADD11C,0.152400*%
%ADD12C,0.100000*%
%ADD13C,0.076200*%


D10*
X109169Y21508D02*
X109265Y21510D01*
X109361Y21516D01*
X109456Y21525D01*
X109551Y21538D01*
X109645Y21555D01*
X109739Y21575D01*
X109832Y21600D01*
X109923Y21627D01*
X110014Y21659D01*
X110103Y21694D01*
X110191Y21732D01*
X110277Y21774D01*
X110362Y21819D01*
X110444Y21868D01*
X110525Y21919D01*
X110604Y21974D01*
X110680Y22032D01*
X110754Y22093D01*
X110826Y22157D01*
X110895Y22223D01*
X110961Y22292D01*
X111025Y22364D01*
X111086Y22438D01*
X111144Y22514D01*
X111199Y22593D01*
X111250Y22674D01*
X111299Y22756D01*
X111344Y22841D01*
X111386Y22927D01*
X111424Y23015D01*
X111459Y23104D01*
X111491Y23195D01*
X111518Y23286D01*
X111543Y23379D01*
X111563Y23473D01*
X111580Y23567D01*
X111593Y23662D01*
X111602Y23757D01*
X111608Y23853D01*
X111610Y23949D01*
X109169Y21508D02*
X109029Y21510D01*
X108888Y21516D01*
X108748Y21525D01*
X108609Y21539D01*
X108469Y21556D01*
X108330Y21577D01*
X108192Y21601D01*
X108055Y21630D01*
X107918Y21662D01*
X107782Y21698D01*
X107648Y21738D01*
X107514Y21781D01*
X107382Y21828D01*
X107251Y21878D01*
X107121Y21932D01*
X106993Y21990D01*
X106867Y22051D01*
X106742Y22115D01*
X106619Y22183D01*
X106498Y22254D01*
X106379Y22328D01*
X106262Y22406D01*
X106147Y22486D01*
X106035Y22570D01*
X105924Y22657D01*
X105816Y22747D01*
X105711Y22840D01*
X105608Y22935D01*
X105508Y23033D01*
X105813Y30051D02*
X105815Y30147D01*
X105821Y30243D01*
X105830Y30338D01*
X105843Y30433D01*
X105860Y30527D01*
X105880Y30621D01*
X105905Y30714D01*
X105932Y30805D01*
X105964Y30896D01*
X105999Y30985D01*
X106037Y31073D01*
X106079Y31159D01*
X106124Y31244D01*
X106173Y31326D01*
X106224Y31407D01*
X106279Y31486D01*
X106337Y31562D01*
X106398Y31636D01*
X106462Y31708D01*
X106528Y31777D01*
X106597Y31843D01*
X106669Y31907D01*
X106743Y31968D01*
X106819Y32026D01*
X106898Y32081D01*
X106979Y32132D01*
X107061Y32181D01*
X107146Y32226D01*
X107232Y32268D01*
X107320Y32306D01*
X107409Y32341D01*
X107500Y32373D01*
X107591Y32400D01*
X107684Y32425D01*
X107778Y32445D01*
X107872Y32462D01*
X107967Y32475D01*
X108063Y32484D01*
X108158Y32490D01*
X108254Y32492D01*
X108388Y32490D01*
X108522Y32484D01*
X108655Y32474D01*
X108788Y32461D01*
X108921Y32443D01*
X109053Y32422D01*
X109185Y32396D01*
X109315Y32367D01*
X109445Y32334D01*
X109574Y32298D01*
X109701Y32257D01*
X109828Y32213D01*
X109953Y32165D01*
X110076Y32114D01*
X110198Y32058D01*
X110319Y32000D01*
X110437Y31938D01*
X110554Y31872D01*
X110669Y31803D01*
X110781Y31731D01*
X110892Y31655D01*
X111000Y31577D01*
X107033Y27915D02*
X106949Y27967D01*
X106867Y28022D01*
X106787Y28081D01*
X106710Y28143D01*
X106635Y28207D01*
X106563Y28275D01*
X106493Y28345D01*
X106426Y28419D01*
X106363Y28494D01*
X106302Y28573D01*
X106245Y28653D01*
X106190Y28736D01*
X106140Y28821D01*
X106092Y28908D01*
X106048Y28997D01*
X106008Y29087D01*
X105971Y29179D01*
X105938Y29272D01*
X105909Y29367D01*
X105884Y29463D01*
X105862Y29559D01*
X105845Y29657D01*
X105831Y29755D01*
X105821Y29853D01*
X105815Y29952D01*
X105813Y30051D01*
X110390Y26085D02*
X110474Y26033D01*
X110556Y25978D01*
X110636Y25919D01*
X110713Y25857D01*
X110788Y25793D01*
X110860Y25725D01*
X110930Y25655D01*
X110997Y25581D01*
X111060Y25506D01*
X111121Y25427D01*
X111178Y25347D01*
X111233Y25264D01*
X111283Y25179D01*
X111331Y25092D01*
X111375Y25003D01*
X111415Y24913D01*
X111452Y24821D01*
X111485Y24728D01*
X111514Y24633D01*
X111539Y24537D01*
X111561Y24441D01*
X111578Y24343D01*
X111592Y24245D01*
X111602Y24147D01*
X111608Y24048D01*
X111610Y23949D01*
X110390Y26085D02*
X107034Y27915D01*
X116198Y28831D02*
X116198Y23339D01*
X116200Y23254D01*
X116206Y23170D01*
X116216Y23086D01*
X116229Y23003D01*
X116247Y22920D01*
X116268Y22838D01*
X116293Y22757D01*
X116322Y22678D01*
X116354Y22599D01*
X116390Y22523D01*
X116429Y22448D01*
X116472Y22375D01*
X116518Y22304D01*
X116568Y22236D01*
X116620Y22169D01*
X116676Y22105D01*
X116734Y22044D01*
X116795Y21986D01*
X116859Y21930D01*
X116926Y21878D01*
X116994Y21828D01*
X117065Y21782D01*
X117138Y21739D01*
X117213Y21700D01*
X117289Y21664D01*
X117368Y21632D01*
X117447Y21603D01*
X117528Y21578D01*
X117610Y21557D01*
X117693Y21539D01*
X117776Y21526D01*
X117860Y21516D01*
X117944Y21510D01*
X118029Y21508D01*
X121080Y21508D01*
X121080Y28831D01*
X126335Y28831D02*
X126335Y17847D01*
X126335Y28831D02*
X129387Y28831D01*
X129472Y28829D01*
X129556Y28823D01*
X129640Y28813D01*
X129723Y28800D01*
X129806Y28782D01*
X129888Y28761D01*
X129969Y28736D01*
X130048Y28707D01*
X130127Y28675D01*
X130203Y28639D01*
X130278Y28600D01*
X130351Y28557D01*
X130422Y28511D01*
X130490Y28461D01*
X130557Y28409D01*
X130621Y28353D01*
X130682Y28295D01*
X130740Y28234D01*
X130796Y28170D01*
X130848Y28103D01*
X130898Y28035D01*
X130944Y27964D01*
X130987Y27891D01*
X131026Y27816D01*
X131062Y27740D01*
X131094Y27661D01*
X131123Y27582D01*
X131148Y27501D01*
X131169Y27419D01*
X131187Y27336D01*
X131200Y27253D01*
X131210Y27169D01*
X131216Y27085D01*
X131218Y27000D01*
X131217Y27000D02*
X131217Y23339D01*
X131218Y23339D02*
X131216Y23254D01*
X131210Y23170D01*
X131200Y23086D01*
X131187Y23003D01*
X131169Y22920D01*
X131148Y22838D01*
X131123Y22757D01*
X131094Y22678D01*
X131062Y22599D01*
X131026Y22523D01*
X130987Y22448D01*
X130944Y22375D01*
X130898Y22304D01*
X130848Y22236D01*
X130796Y22169D01*
X130740Y22105D01*
X130682Y22044D01*
X130621Y21986D01*
X130557Y21930D01*
X130490Y21878D01*
X130422Y21828D01*
X130351Y21782D01*
X130278Y21739D01*
X130203Y21700D01*
X130127Y21664D01*
X130048Y21632D01*
X129969Y21603D01*
X129888Y21578D01*
X129806Y21557D01*
X129723Y21539D01*
X129640Y21526D01*
X129556Y21516D01*
X129472Y21510D01*
X129387Y21508D01*
X126335Y21508D01*
X136055Y17847D02*
X136055Y28831D01*
X139107Y28831D01*
X139192Y28829D01*
X139276Y28823D01*
X139360Y28813D01*
X139443Y28800D01*
X139526Y28782D01*
X139608Y28761D01*
X139689Y28736D01*
X139768Y28707D01*
X139847Y28675D01*
X139923Y28639D01*
X139998Y28600D01*
X140071Y28557D01*
X140142Y28511D01*
X140210Y28461D01*
X140277Y28409D01*
X140341Y28353D01*
X140402Y28295D01*
X140460Y28234D01*
X140516Y28170D01*
X140568Y28103D01*
X140618Y28035D01*
X140664Y27964D01*
X140707Y27891D01*
X140746Y27816D01*
X140782Y27740D01*
X140814Y27661D01*
X140843Y27582D01*
X140868Y27501D01*
X140889Y27419D01*
X140907Y27336D01*
X140920Y27253D01*
X140930Y27169D01*
X140936Y27085D01*
X140938Y27000D01*
X140937Y27000D02*
X140937Y23339D01*
X140938Y23339D02*
X140936Y23254D01*
X140930Y23170D01*
X140920Y23086D01*
X140907Y23003D01*
X140889Y22920D01*
X140868Y22838D01*
X140843Y22757D01*
X140814Y22678D01*
X140782Y22599D01*
X140746Y22523D01*
X140707Y22448D01*
X140664Y22375D01*
X140618Y22304D01*
X140568Y22236D01*
X140516Y22169D01*
X140460Y22105D01*
X140402Y22044D01*
X140341Y21986D01*
X140277Y21930D01*
X140210Y21878D01*
X140142Y21828D01*
X140071Y21782D01*
X139998Y21739D01*
X139923Y21700D01*
X139847Y21664D01*
X139768Y21632D01*
X139689Y21603D01*
X139608Y21578D01*
X139526Y21557D01*
X139443Y21539D01*
X139360Y21526D01*
X139276Y21516D01*
X139192Y21510D01*
X139107Y21508D01*
X136055Y21508D01*
X145493Y23339D02*
X145493Y32492D01*
X145493Y23339D02*
X145495Y23254D01*
X145501Y23170D01*
X145511Y23086D01*
X145524Y23003D01*
X145542Y22920D01*
X145563Y22838D01*
X145588Y22757D01*
X145617Y22678D01*
X145649Y22599D01*
X145685Y22523D01*
X145724Y22448D01*
X145767Y22375D01*
X145813Y22304D01*
X145863Y22236D01*
X145915Y22169D01*
X145971Y22105D01*
X146029Y22044D01*
X146090Y21986D01*
X146154Y21930D01*
X146221Y21878D01*
X146289Y21828D01*
X146360Y21782D01*
X146433Y21739D01*
X146508Y21700D01*
X146584Y21664D01*
X146663Y21632D01*
X146742Y21603D01*
X146823Y21578D01*
X146905Y21557D01*
X146988Y21539D01*
X147071Y21526D01*
X147155Y21516D01*
X147239Y21510D01*
X147324Y21508D01*
X150758Y17847D02*
X151979Y17847D01*
X155640Y28831D01*
X150758Y28831D02*
X153199Y21508D01*
X170343Y21508D02*
X170343Y32492D01*
X170343Y21508D02*
X167292Y21508D01*
X167207Y21510D01*
X167123Y21516D01*
X167039Y21526D01*
X166956Y21539D01*
X166873Y21557D01*
X166791Y21578D01*
X166710Y21603D01*
X166631Y21632D01*
X166552Y21664D01*
X166476Y21700D01*
X166401Y21739D01*
X166328Y21782D01*
X166257Y21828D01*
X166189Y21878D01*
X166122Y21930D01*
X166058Y21986D01*
X165997Y22044D01*
X165939Y22105D01*
X165883Y22169D01*
X165831Y22236D01*
X165781Y22304D01*
X165735Y22375D01*
X165692Y22448D01*
X165653Y22523D01*
X165617Y22599D01*
X165585Y22678D01*
X165556Y22757D01*
X165531Y22838D01*
X165510Y22920D01*
X165492Y23003D01*
X165479Y23086D01*
X165469Y23170D01*
X165463Y23254D01*
X165461Y23339D01*
X165461Y27000D01*
X165460Y27000D02*
X165462Y27085D01*
X165468Y27169D01*
X165478Y27253D01*
X165491Y27336D01*
X165509Y27419D01*
X165530Y27501D01*
X165555Y27582D01*
X165584Y27661D01*
X165616Y27740D01*
X165652Y27816D01*
X165691Y27891D01*
X165734Y27964D01*
X165780Y28035D01*
X165830Y28103D01*
X165882Y28170D01*
X165938Y28234D01*
X165996Y28295D01*
X166057Y28353D01*
X166121Y28409D01*
X166188Y28461D01*
X166256Y28511D01*
X166327Y28557D01*
X166400Y28600D01*
X166475Y28639D01*
X166551Y28675D01*
X166630Y28707D01*
X166709Y28736D01*
X166790Y28761D01*
X166872Y28782D01*
X166955Y28800D01*
X167038Y28813D01*
X167122Y28823D01*
X167206Y28829D01*
X167291Y28831D01*
X167292Y28831D02*
X170343Y28831D01*
X175159Y28831D02*
X175159Y21508D01*
X174854Y31882D02*
X174854Y32492D01*
X175464Y32492D01*
X175464Y31882D01*
X174854Y31882D01*
X180473Y25780D02*
X183524Y24559D01*
X180473Y25780D02*
X180401Y25811D01*
X180331Y25846D01*
X180262Y25883D01*
X180196Y25925D01*
X180131Y25969D01*
X180069Y26017D01*
X180009Y26067D01*
X179952Y26121D01*
X179897Y26177D01*
X179846Y26236D01*
X179797Y26298D01*
X179751Y26362D01*
X179709Y26427D01*
X179670Y26495D01*
X179634Y26565D01*
X179602Y26637D01*
X179574Y26710D01*
X179549Y26784D01*
X179528Y26860D01*
X179510Y26936D01*
X179497Y27013D01*
X179487Y27091D01*
X179481Y27169D01*
X179479Y27248D01*
X179481Y27326D01*
X179487Y27404D01*
X179496Y27482D01*
X179510Y27559D01*
X179527Y27636D01*
X179548Y27711D01*
X179573Y27786D01*
X179601Y27859D01*
X179633Y27930D01*
X179669Y28000D01*
X179708Y28068D01*
X179750Y28134D01*
X179795Y28198D01*
X179844Y28260D01*
X179895Y28319D01*
X179950Y28375D01*
X180007Y28429D01*
X180067Y28480D01*
X180129Y28527D01*
X180193Y28572D01*
X180260Y28613D01*
X180329Y28651D01*
X180399Y28686D01*
X180471Y28717D01*
X180544Y28744D01*
X180619Y28768D01*
X180695Y28788D01*
X180772Y28804D01*
X180849Y28817D01*
X180927Y28825D01*
X181005Y28830D01*
X181084Y28831D01*
X181251Y28827D01*
X181417Y28819D01*
X181583Y28806D01*
X181749Y28790D01*
X181914Y28769D01*
X182079Y28745D01*
X182243Y28717D01*
X182407Y28685D01*
X182570Y28648D01*
X182731Y28608D01*
X182892Y28564D01*
X183052Y28517D01*
X183210Y28465D01*
X183367Y28410D01*
X183523Y28351D01*
X183677Y28288D01*
X183830Y28221D01*
X183525Y24559D02*
X183597Y24528D01*
X183667Y24493D01*
X183736Y24456D01*
X183802Y24414D01*
X183867Y24370D01*
X183929Y24322D01*
X183989Y24272D01*
X184046Y24218D01*
X184101Y24162D01*
X184152Y24103D01*
X184201Y24041D01*
X184247Y23977D01*
X184289Y23912D01*
X184328Y23844D01*
X184364Y23774D01*
X184396Y23702D01*
X184424Y23629D01*
X184449Y23555D01*
X184470Y23479D01*
X184488Y23403D01*
X184501Y23326D01*
X184511Y23248D01*
X184517Y23170D01*
X184519Y23091D01*
X184517Y23013D01*
X184511Y22935D01*
X184502Y22857D01*
X184488Y22780D01*
X184471Y22703D01*
X184450Y22628D01*
X184425Y22553D01*
X184397Y22480D01*
X184365Y22409D01*
X184329Y22339D01*
X184290Y22271D01*
X184248Y22205D01*
X184203Y22141D01*
X184154Y22079D01*
X184103Y22020D01*
X184048Y21964D01*
X183991Y21910D01*
X183931Y21859D01*
X183869Y21812D01*
X183805Y21767D01*
X183738Y21726D01*
X183669Y21688D01*
X183599Y21653D01*
X183527Y21622D01*
X183454Y21595D01*
X183379Y21571D01*
X183303Y21551D01*
X183226Y21535D01*
X183149Y21522D01*
X183071Y21514D01*
X182993Y21509D01*
X182914Y21508D01*
X182670Y21514D01*
X182425Y21527D01*
X182181Y21545D01*
X181937Y21568D01*
X181694Y21598D01*
X181452Y21633D01*
X181211Y21674D01*
X180970Y21721D01*
X180731Y21773D01*
X180493Y21831D01*
X180257Y21894D01*
X180022Y21963D01*
X179789Y22038D01*
X179558Y22118D01*
X187998Y28831D02*
X191660Y28831D01*
X189219Y32492D02*
X189219Y23339D01*
X189221Y23254D01*
X189227Y23170D01*
X189237Y23086D01*
X189250Y23003D01*
X189268Y22920D01*
X189289Y22838D01*
X189314Y22757D01*
X189343Y22678D01*
X189375Y22599D01*
X189411Y22523D01*
X189450Y22448D01*
X189493Y22375D01*
X189539Y22304D01*
X189589Y22236D01*
X189641Y22169D01*
X189697Y22105D01*
X189755Y22044D01*
X189816Y21986D01*
X189880Y21930D01*
X189947Y21878D01*
X190015Y21828D01*
X190086Y21782D01*
X190159Y21739D01*
X190234Y21700D01*
X190310Y21664D01*
X190389Y21632D01*
X190468Y21603D01*
X190549Y21578D01*
X190631Y21557D01*
X190714Y21539D01*
X190797Y21526D01*
X190881Y21516D01*
X190965Y21510D01*
X191050Y21508D01*
X191660Y21508D01*
X196183Y21508D02*
X196183Y28831D01*
X199844Y28831D01*
X199844Y27610D01*
X203239Y28831D02*
X203239Y21508D01*
X202934Y31882D02*
X202934Y32492D01*
X203544Y32492D01*
X203544Y31882D01*
X202934Y31882D01*
X208055Y32492D02*
X208055Y21508D01*
X211106Y21508D01*
X211191Y21510D01*
X211275Y21516D01*
X211359Y21526D01*
X211442Y21539D01*
X211525Y21557D01*
X211607Y21578D01*
X211688Y21603D01*
X211767Y21632D01*
X211846Y21664D01*
X211922Y21700D01*
X211997Y21739D01*
X212070Y21782D01*
X212141Y21828D01*
X212209Y21878D01*
X212276Y21930D01*
X212340Y21986D01*
X212401Y22044D01*
X212459Y22105D01*
X212515Y22169D01*
X212567Y22236D01*
X212617Y22304D01*
X212663Y22375D01*
X212706Y22448D01*
X212745Y22523D01*
X212781Y22599D01*
X212813Y22678D01*
X212842Y22757D01*
X212867Y22838D01*
X212888Y22920D01*
X212906Y23003D01*
X212919Y23086D01*
X212929Y23170D01*
X212935Y23254D01*
X212937Y23339D01*
X212937Y27000D01*
X212935Y27085D01*
X212929Y27169D01*
X212919Y27253D01*
X212906Y27336D01*
X212888Y27419D01*
X212867Y27501D01*
X212842Y27582D01*
X212813Y27661D01*
X212781Y27740D01*
X212745Y27816D01*
X212706Y27891D01*
X212663Y27964D01*
X212617Y28035D01*
X212567Y28103D01*
X212515Y28170D01*
X212459Y28234D01*
X212401Y28295D01*
X212340Y28353D01*
X212276Y28409D01*
X212209Y28461D01*
X212141Y28511D01*
X212070Y28557D01*
X211997Y28600D01*
X211922Y28639D01*
X211846Y28675D01*
X211767Y28707D01*
X211688Y28736D01*
X211607Y28761D01*
X211525Y28782D01*
X211442Y28800D01*
X211359Y28813D01*
X211275Y28823D01*
X211191Y28829D01*
X211106Y28831D01*
X208055Y28831D01*
X217718Y28831D02*
X217718Y23339D01*
X217720Y23254D01*
X217726Y23170D01*
X217736Y23086D01*
X217749Y23003D01*
X217767Y22920D01*
X217788Y22838D01*
X217813Y22757D01*
X217842Y22678D01*
X217874Y22599D01*
X217910Y22523D01*
X217949Y22448D01*
X217992Y22375D01*
X218038Y22304D01*
X218088Y22236D01*
X218140Y22169D01*
X218196Y22105D01*
X218254Y22044D01*
X218315Y21986D01*
X218379Y21930D01*
X218446Y21878D01*
X218514Y21828D01*
X218585Y21782D01*
X218658Y21739D01*
X218733Y21700D01*
X218809Y21664D01*
X218888Y21632D01*
X218967Y21603D01*
X219048Y21578D01*
X219130Y21557D01*
X219213Y21539D01*
X219296Y21526D01*
X219380Y21516D01*
X219464Y21510D01*
X219549Y21508D01*
X222600Y21508D01*
X222600Y28831D01*
X226518Y28831D02*
X230180Y28831D01*
X227739Y32492D02*
X227739Y23339D01*
X227738Y23339D02*
X227740Y23254D01*
X227746Y23170D01*
X227756Y23086D01*
X227769Y23003D01*
X227787Y22920D01*
X227808Y22838D01*
X227833Y22757D01*
X227862Y22678D01*
X227894Y22599D01*
X227930Y22523D01*
X227969Y22448D01*
X228012Y22375D01*
X228058Y22304D01*
X228108Y22236D01*
X228160Y22169D01*
X228216Y22105D01*
X228274Y22044D01*
X228335Y21986D01*
X228399Y21930D01*
X228466Y21878D01*
X228534Y21828D01*
X228605Y21782D01*
X228678Y21739D01*
X228753Y21700D01*
X228829Y21664D01*
X228908Y21632D01*
X228987Y21603D01*
X229068Y21578D01*
X229150Y21557D01*
X229233Y21539D01*
X229316Y21526D01*
X229400Y21516D01*
X229484Y21510D01*
X229569Y21508D01*
X230180Y21508D01*
X234199Y21508D02*
X234199Y28831D01*
X233894Y31882D02*
X233894Y32492D01*
X234504Y32492D01*
X234504Y31882D01*
X233894Y31882D01*
X238598Y26390D02*
X238598Y23949D01*
X238598Y26390D02*
X238600Y26487D01*
X238606Y26584D01*
X238615Y26681D01*
X238629Y26777D01*
X238646Y26872D01*
X238667Y26967D01*
X238692Y27061D01*
X238720Y27154D01*
X238753Y27245D01*
X238788Y27335D01*
X238828Y27424D01*
X238871Y27511D01*
X238917Y27596D01*
X238967Y27680D01*
X239020Y27761D01*
X239076Y27840D01*
X239135Y27917D01*
X239197Y27992D01*
X239262Y28064D01*
X239330Y28133D01*
X239401Y28200D01*
X239474Y28263D01*
X239550Y28324D01*
X239628Y28382D01*
X239708Y28436D01*
X239791Y28488D01*
X239875Y28536D01*
X239961Y28580D01*
X240049Y28621D01*
X240139Y28659D01*
X240230Y28693D01*
X240322Y28723D01*
X240415Y28750D01*
X240509Y28773D01*
X240605Y28792D01*
X240700Y28807D01*
X240797Y28819D01*
X240893Y28827D01*
X240990Y28831D01*
X241088Y28831D01*
X241185Y28827D01*
X241281Y28819D01*
X241378Y28807D01*
X241473Y28792D01*
X241569Y28773D01*
X241663Y28750D01*
X241756Y28723D01*
X241848Y28693D01*
X241939Y28659D01*
X242029Y28621D01*
X242117Y28580D01*
X242203Y28536D01*
X242287Y28488D01*
X242370Y28436D01*
X242450Y28382D01*
X242528Y28324D01*
X242604Y28263D01*
X242677Y28200D01*
X242748Y28133D01*
X242816Y28064D01*
X242881Y27992D01*
X242943Y27917D01*
X243002Y27840D01*
X243058Y27761D01*
X243111Y27680D01*
X243161Y27596D01*
X243207Y27511D01*
X243250Y27424D01*
X243290Y27335D01*
X243325Y27245D01*
X243358Y27154D01*
X243386Y27061D01*
X243411Y26967D01*
X243432Y26872D01*
X243449Y26777D01*
X243463Y26681D01*
X243472Y26584D01*
X243478Y26487D01*
X243480Y26390D01*
X243480Y23949D01*
X243478Y23852D01*
X243472Y23755D01*
X243463Y23658D01*
X243449Y23562D01*
X243432Y23467D01*
X243411Y23372D01*
X243386Y23278D01*
X243358Y23185D01*
X243325Y23094D01*
X243290Y23004D01*
X243250Y22915D01*
X243207Y22828D01*
X243161Y22743D01*
X243111Y22659D01*
X243058Y22578D01*
X243002Y22499D01*
X242943Y22422D01*
X242881Y22347D01*
X242816Y22275D01*
X242748Y22206D01*
X242677Y22139D01*
X242604Y22076D01*
X242528Y22015D01*
X242450Y21957D01*
X242370Y21903D01*
X242287Y21851D01*
X242203Y21803D01*
X242117Y21759D01*
X242029Y21718D01*
X241939Y21680D01*
X241848Y21646D01*
X241756Y21616D01*
X241663Y21589D01*
X241569Y21566D01*
X241473Y21547D01*
X241378Y21532D01*
X241281Y21520D01*
X241185Y21512D01*
X241088Y21508D01*
X240990Y21508D01*
X240893Y21512D01*
X240797Y21520D01*
X240700Y21532D01*
X240605Y21547D01*
X240509Y21566D01*
X240415Y21589D01*
X240322Y21616D01*
X240230Y21646D01*
X240139Y21680D01*
X240049Y21718D01*
X239961Y21759D01*
X239875Y21803D01*
X239791Y21851D01*
X239708Y21903D01*
X239628Y21957D01*
X239550Y22015D01*
X239474Y22076D01*
X239401Y22139D01*
X239330Y22206D01*
X239262Y22275D01*
X239197Y22347D01*
X239135Y22422D01*
X239076Y22499D01*
X239020Y22578D01*
X238967Y22659D01*
X238917Y22743D01*
X238871Y22828D01*
X238828Y22915D01*
X238788Y23004D01*
X238753Y23094D01*
X238720Y23185D01*
X238692Y23278D01*
X238667Y23372D01*
X238646Y23467D01*
X238629Y23562D01*
X238615Y23658D01*
X238606Y23755D01*
X238600Y23852D01*
X238598Y23949D01*
X248318Y21508D02*
X248318Y28831D01*
X251369Y28831D01*
X251454Y28829D01*
X251538Y28823D01*
X251622Y28813D01*
X251705Y28800D01*
X251788Y28782D01*
X251870Y28761D01*
X251951Y28736D01*
X252030Y28707D01*
X252109Y28675D01*
X252185Y28639D01*
X252260Y28600D01*
X252333Y28557D01*
X252404Y28511D01*
X252472Y28461D01*
X252539Y28409D01*
X252603Y28353D01*
X252664Y28295D01*
X252722Y28234D01*
X252778Y28170D01*
X252830Y28103D01*
X252880Y28035D01*
X252926Y27964D01*
X252969Y27891D01*
X253008Y27816D01*
X253044Y27740D01*
X253076Y27661D01*
X253105Y27582D01*
X253130Y27501D01*
X253151Y27419D01*
X253169Y27336D01*
X253182Y27253D01*
X253192Y27169D01*
X253198Y27085D01*
X253200Y27000D01*
X253200Y21508D01*
X264432Y21508D02*
X264432Y32492D01*
X267483Y32492D01*
X267592Y32490D01*
X267701Y32484D01*
X267809Y32475D01*
X267917Y32461D01*
X268025Y32444D01*
X268132Y32422D01*
X268238Y32397D01*
X268343Y32368D01*
X268447Y32336D01*
X268549Y32300D01*
X268651Y32260D01*
X268750Y32216D01*
X268849Y32169D01*
X268945Y32119D01*
X269040Y32065D01*
X269132Y32008D01*
X269223Y31947D01*
X269311Y31883D01*
X269397Y31817D01*
X269481Y31747D01*
X269562Y31674D01*
X269640Y31598D01*
X269716Y31520D01*
X269789Y31439D01*
X269859Y31355D01*
X269925Y31269D01*
X269989Y31181D01*
X270050Y31090D01*
X270107Y30998D01*
X270161Y30903D01*
X270211Y30807D01*
X270258Y30708D01*
X270302Y30609D01*
X270342Y30507D01*
X270378Y30405D01*
X270410Y30301D01*
X270439Y30196D01*
X270464Y30090D01*
X270486Y29983D01*
X270503Y29875D01*
X270517Y29767D01*
X270526Y29659D01*
X270532Y29550D01*
X270534Y29441D01*
X270532Y29332D01*
X270526Y29223D01*
X270517Y29115D01*
X270503Y29007D01*
X270486Y28899D01*
X270464Y28792D01*
X270439Y28686D01*
X270410Y28581D01*
X270378Y28477D01*
X270342Y28375D01*
X270302Y28273D01*
X270258Y28174D01*
X270211Y28075D01*
X270161Y27979D01*
X270107Y27884D01*
X270050Y27792D01*
X269989Y27701D01*
X269925Y27613D01*
X269859Y27527D01*
X269789Y27443D01*
X269716Y27362D01*
X269640Y27284D01*
X269562Y27208D01*
X269481Y27135D01*
X269397Y27065D01*
X269311Y26999D01*
X269223Y26935D01*
X269132Y26874D01*
X269040Y26817D01*
X268945Y26763D01*
X268849Y26713D01*
X268750Y26666D01*
X268651Y26622D01*
X268549Y26582D01*
X268447Y26546D01*
X268343Y26514D01*
X268238Y26485D01*
X268132Y26460D01*
X268025Y26438D01*
X267917Y26421D01*
X267809Y26407D01*
X267701Y26398D01*
X267592Y26392D01*
X267483Y26390D01*
X264432Y26390D01*
X277116Y21508D02*
X279557Y21508D01*
X277116Y21508D02*
X277020Y21510D01*
X276924Y21516D01*
X276829Y21525D01*
X276734Y21538D01*
X276640Y21555D01*
X276546Y21575D01*
X276453Y21600D01*
X276362Y21627D01*
X276271Y21659D01*
X276182Y21694D01*
X276094Y21732D01*
X276008Y21774D01*
X275923Y21819D01*
X275841Y21868D01*
X275760Y21919D01*
X275681Y21974D01*
X275605Y22032D01*
X275531Y22093D01*
X275459Y22157D01*
X275390Y22223D01*
X275324Y22292D01*
X275260Y22364D01*
X275199Y22438D01*
X275141Y22514D01*
X275086Y22593D01*
X275035Y22674D01*
X274986Y22756D01*
X274941Y22841D01*
X274899Y22927D01*
X274861Y23015D01*
X274826Y23104D01*
X274794Y23195D01*
X274767Y23286D01*
X274742Y23379D01*
X274722Y23473D01*
X274705Y23567D01*
X274692Y23662D01*
X274683Y23757D01*
X274677Y23853D01*
X274675Y23949D01*
X274675Y30051D01*
X274677Y30149D01*
X274683Y30247D01*
X274693Y30345D01*
X274707Y30443D01*
X274724Y30539D01*
X274746Y30635D01*
X274771Y30730D01*
X274801Y30824D01*
X274834Y30917D01*
X274870Y31008D01*
X274911Y31097D01*
X274955Y31185D01*
X275002Y31271D01*
X275053Y31356D01*
X275107Y31438D01*
X275165Y31517D01*
X275225Y31595D01*
X275289Y31670D01*
X275356Y31742D01*
X275425Y31811D01*
X275497Y31878D01*
X275572Y31942D01*
X275650Y32002D01*
X275729Y32060D01*
X275811Y32114D01*
X275895Y32165D01*
X275982Y32212D01*
X276070Y32256D01*
X276159Y32297D01*
X276250Y32333D01*
X276343Y32366D01*
X276437Y32396D01*
X276532Y32421D01*
X276628Y32443D01*
X276724Y32460D01*
X276822Y32474D01*
X276920Y32484D01*
X277018Y32490D01*
X277116Y32492D01*
X279557Y32492D01*
X284232Y27610D02*
X287283Y27610D01*
X287392Y27608D01*
X287501Y27602D01*
X287609Y27593D01*
X287717Y27579D01*
X287825Y27562D01*
X287932Y27540D01*
X288038Y27515D01*
X288143Y27486D01*
X288247Y27454D01*
X288349Y27418D01*
X288451Y27378D01*
X288550Y27334D01*
X288649Y27287D01*
X288745Y27237D01*
X288840Y27183D01*
X288932Y27126D01*
X289023Y27065D01*
X289111Y27001D01*
X289197Y26935D01*
X289281Y26865D01*
X289362Y26792D01*
X289440Y26716D01*
X289516Y26638D01*
X289589Y26557D01*
X289659Y26473D01*
X289725Y26387D01*
X289789Y26299D01*
X289850Y26208D01*
X289907Y26116D01*
X289961Y26021D01*
X290011Y25925D01*
X290058Y25826D01*
X290102Y25727D01*
X290142Y25625D01*
X290178Y25523D01*
X290210Y25419D01*
X290239Y25314D01*
X290264Y25208D01*
X290286Y25101D01*
X290303Y24993D01*
X290317Y24885D01*
X290326Y24777D01*
X290332Y24668D01*
X290334Y24559D01*
X290332Y24450D01*
X290326Y24341D01*
X290317Y24233D01*
X290303Y24125D01*
X290286Y24017D01*
X290264Y23910D01*
X290239Y23804D01*
X290210Y23699D01*
X290178Y23595D01*
X290142Y23493D01*
X290102Y23391D01*
X290058Y23292D01*
X290011Y23193D01*
X289961Y23097D01*
X289907Y23002D01*
X289850Y22910D01*
X289789Y22819D01*
X289725Y22731D01*
X289659Y22645D01*
X289589Y22561D01*
X289516Y22480D01*
X289440Y22402D01*
X289362Y22326D01*
X289281Y22253D01*
X289197Y22183D01*
X289111Y22117D01*
X289023Y22053D01*
X288932Y21992D01*
X288840Y21935D01*
X288745Y21881D01*
X288649Y21831D01*
X288550Y21784D01*
X288451Y21740D01*
X288349Y21700D01*
X288247Y21664D01*
X288143Y21632D01*
X288038Y21603D01*
X287932Y21578D01*
X287825Y21556D01*
X287717Y21539D01*
X287609Y21525D01*
X287501Y21516D01*
X287392Y21510D01*
X287283Y21508D01*
X284232Y21508D01*
X284232Y32492D01*
X287283Y32492D01*
X287380Y32490D01*
X287477Y32484D01*
X287574Y32475D01*
X287670Y32461D01*
X287765Y32444D01*
X287860Y32423D01*
X287954Y32398D01*
X288047Y32370D01*
X288138Y32337D01*
X288228Y32302D01*
X288317Y32262D01*
X288404Y32219D01*
X288489Y32173D01*
X288573Y32123D01*
X288654Y32070D01*
X288733Y32014D01*
X288810Y31955D01*
X288885Y31893D01*
X288957Y31828D01*
X289026Y31760D01*
X289093Y31689D01*
X289156Y31616D01*
X289217Y31540D01*
X289275Y31462D01*
X289329Y31382D01*
X289381Y31299D01*
X289429Y31215D01*
X289473Y31129D01*
X289514Y31041D01*
X289552Y30951D01*
X289586Y30860D01*
X289616Y30768D01*
X289643Y30675D01*
X289666Y30581D01*
X289685Y30485D01*
X289700Y30390D01*
X289712Y30293D01*
X289720Y30197D01*
X289724Y30100D01*
X289724Y30002D01*
X289720Y29905D01*
X289712Y29809D01*
X289700Y29712D01*
X289685Y29617D01*
X289666Y29521D01*
X289643Y29427D01*
X289616Y29334D01*
X289586Y29242D01*
X289552Y29151D01*
X289514Y29061D01*
X289473Y28973D01*
X289429Y28887D01*
X289381Y28803D01*
X289329Y28720D01*
X289275Y28640D01*
X289217Y28562D01*
X289156Y28486D01*
X289093Y28413D01*
X289026Y28342D01*
X288957Y28274D01*
X288885Y28209D01*
X288810Y28147D01*
X288733Y28088D01*
X288654Y28032D01*
X288573Y27979D01*
X288489Y27929D01*
X288404Y27883D01*
X288317Y27840D01*
X288228Y27800D01*
X288138Y27765D01*
X288047Y27732D01*
X287954Y27704D01*
X287860Y27679D01*
X287765Y27658D01*
X287670Y27641D01*
X287574Y27627D01*
X287477Y27618D01*
X287380Y27612D01*
X287283Y27610D01*
X106728Y12661D02*
X106728Y3508D01*
X106728Y12661D02*
X106730Y12746D01*
X106736Y12830D01*
X106746Y12914D01*
X106759Y12997D01*
X106777Y13080D01*
X106798Y13162D01*
X106823Y13243D01*
X106852Y13322D01*
X106884Y13401D01*
X106920Y13477D01*
X106959Y13552D01*
X107002Y13625D01*
X107048Y13696D01*
X107098Y13764D01*
X107150Y13831D01*
X107206Y13895D01*
X107264Y13956D01*
X107325Y14014D01*
X107389Y14070D01*
X107456Y14122D01*
X107524Y14172D01*
X107595Y14218D01*
X107668Y14261D01*
X107743Y14300D01*
X107819Y14336D01*
X107898Y14368D01*
X107977Y14397D01*
X108058Y14422D01*
X108140Y14443D01*
X108223Y14461D01*
X108306Y14474D01*
X108390Y14484D01*
X108474Y14490D01*
X108559Y14492D01*
X109169Y14492D01*
X109169Y10831D02*
X105508Y10831D01*
X112260Y8390D02*
X112260Y5949D01*
X112260Y8390D02*
X112262Y8487D01*
X112268Y8584D01*
X112277Y8681D01*
X112291Y8777D01*
X112308Y8872D01*
X112329Y8967D01*
X112354Y9061D01*
X112382Y9154D01*
X112415Y9245D01*
X112450Y9335D01*
X112490Y9424D01*
X112533Y9511D01*
X112579Y9596D01*
X112629Y9680D01*
X112682Y9761D01*
X112738Y9840D01*
X112797Y9917D01*
X112859Y9992D01*
X112924Y10064D01*
X112992Y10133D01*
X113063Y10200D01*
X113136Y10263D01*
X113212Y10324D01*
X113290Y10382D01*
X113370Y10436D01*
X113453Y10488D01*
X113537Y10536D01*
X113623Y10580D01*
X113711Y10621D01*
X113801Y10659D01*
X113892Y10693D01*
X113984Y10723D01*
X114077Y10750D01*
X114171Y10773D01*
X114267Y10792D01*
X114362Y10807D01*
X114459Y10819D01*
X114555Y10827D01*
X114652Y10831D01*
X114750Y10831D01*
X114847Y10827D01*
X114943Y10819D01*
X115040Y10807D01*
X115135Y10792D01*
X115231Y10773D01*
X115325Y10750D01*
X115418Y10723D01*
X115510Y10693D01*
X115601Y10659D01*
X115691Y10621D01*
X115779Y10580D01*
X115865Y10536D01*
X115949Y10488D01*
X116032Y10436D01*
X116112Y10382D01*
X116190Y10324D01*
X116266Y10263D01*
X116339Y10200D01*
X116410Y10133D01*
X116478Y10064D01*
X116543Y9992D01*
X116605Y9917D01*
X116664Y9840D01*
X116720Y9761D01*
X116773Y9680D01*
X116823Y9596D01*
X116869Y9511D01*
X116912Y9424D01*
X116952Y9335D01*
X116987Y9245D01*
X117020Y9154D01*
X117048Y9061D01*
X117073Y8967D01*
X117094Y8872D01*
X117111Y8777D01*
X117125Y8681D01*
X117134Y8584D01*
X117140Y8487D01*
X117142Y8390D01*
X117142Y5949D01*
X117140Y5852D01*
X117134Y5755D01*
X117125Y5658D01*
X117111Y5562D01*
X117094Y5467D01*
X117073Y5372D01*
X117048Y5278D01*
X117020Y5185D01*
X116987Y5094D01*
X116952Y5004D01*
X116912Y4915D01*
X116869Y4828D01*
X116823Y4743D01*
X116773Y4659D01*
X116720Y4578D01*
X116664Y4499D01*
X116605Y4422D01*
X116543Y4347D01*
X116478Y4275D01*
X116410Y4206D01*
X116339Y4139D01*
X116266Y4076D01*
X116190Y4015D01*
X116112Y3957D01*
X116032Y3903D01*
X115949Y3851D01*
X115865Y3803D01*
X115779Y3759D01*
X115691Y3718D01*
X115601Y3680D01*
X115510Y3646D01*
X115418Y3616D01*
X115325Y3589D01*
X115231Y3566D01*
X115135Y3547D01*
X115040Y3532D01*
X114943Y3520D01*
X114847Y3512D01*
X114750Y3508D01*
X114652Y3508D01*
X114555Y3512D01*
X114459Y3520D01*
X114362Y3532D01*
X114267Y3547D01*
X114171Y3566D01*
X114077Y3589D01*
X113984Y3616D01*
X113892Y3646D01*
X113801Y3680D01*
X113711Y3718D01*
X113623Y3759D01*
X113537Y3803D01*
X113453Y3851D01*
X113370Y3903D01*
X113290Y3957D01*
X113212Y4015D01*
X113136Y4076D01*
X113063Y4139D01*
X112992Y4206D01*
X112924Y4275D01*
X112859Y4347D01*
X112797Y4422D01*
X112738Y4499D01*
X112682Y4578D01*
X112629Y4659D01*
X112579Y4743D01*
X112533Y4828D01*
X112490Y4915D01*
X112450Y5004D01*
X112415Y5094D01*
X112382Y5185D01*
X112354Y5278D01*
X112329Y5372D01*
X112308Y5467D01*
X112291Y5562D01*
X112277Y5658D01*
X112268Y5755D01*
X112262Y5852D01*
X112260Y5949D01*
X122045Y3508D02*
X122045Y10831D01*
X125706Y10831D01*
X125706Y9610D01*
X134440Y14492D02*
X138101Y3508D01*
X141762Y14492D01*
X145740Y8390D02*
X145740Y5949D01*
X145740Y8390D02*
X145742Y8487D01*
X145748Y8584D01*
X145757Y8681D01*
X145771Y8777D01*
X145788Y8872D01*
X145809Y8967D01*
X145834Y9061D01*
X145862Y9154D01*
X145895Y9245D01*
X145930Y9335D01*
X145970Y9424D01*
X146013Y9511D01*
X146059Y9596D01*
X146109Y9680D01*
X146162Y9761D01*
X146218Y9840D01*
X146277Y9917D01*
X146339Y9992D01*
X146404Y10064D01*
X146472Y10133D01*
X146543Y10200D01*
X146616Y10263D01*
X146692Y10324D01*
X146770Y10382D01*
X146850Y10436D01*
X146933Y10488D01*
X147017Y10536D01*
X147103Y10580D01*
X147191Y10621D01*
X147281Y10659D01*
X147372Y10693D01*
X147464Y10723D01*
X147557Y10750D01*
X147651Y10773D01*
X147747Y10792D01*
X147842Y10807D01*
X147939Y10819D01*
X148035Y10827D01*
X148132Y10831D01*
X148230Y10831D01*
X148327Y10827D01*
X148423Y10819D01*
X148520Y10807D01*
X148615Y10792D01*
X148711Y10773D01*
X148805Y10750D01*
X148898Y10723D01*
X148990Y10693D01*
X149081Y10659D01*
X149171Y10621D01*
X149259Y10580D01*
X149345Y10536D01*
X149429Y10488D01*
X149512Y10436D01*
X149592Y10382D01*
X149670Y10324D01*
X149746Y10263D01*
X149819Y10200D01*
X149890Y10133D01*
X149958Y10064D01*
X150023Y9992D01*
X150085Y9917D01*
X150144Y9840D01*
X150200Y9761D01*
X150253Y9680D01*
X150303Y9596D01*
X150349Y9511D01*
X150392Y9424D01*
X150432Y9335D01*
X150467Y9245D01*
X150500Y9154D01*
X150528Y9061D01*
X150553Y8967D01*
X150574Y8872D01*
X150591Y8777D01*
X150605Y8681D01*
X150614Y8584D01*
X150620Y8487D01*
X150622Y8390D01*
X150622Y5949D01*
X150620Y5852D01*
X150614Y5755D01*
X150605Y5658D01*
X150591Y5562D01*
X150574Y5467D01*
X150553Y5372D01*
X150528Y5278D01*
X150500Y5185D01*
X150467Y5094D01*
X150432Y5004D01*
X150392Y4915D01*
X150349Y4828D01*
X150303Y4743D01*
X150253Y4659D01*
X150200Y4578D01*
X150144Y4499D01*
X150085Y4422D01*
X150023Y4347D01*
X149958Y4275D01*
X149890Y4206D01*
X149819Y4139D01*
X149746Y4076D01*
X149670Y4015D01*
X149592Y3957D01*
X149512Y3903D01*
X149429Y3851D01*
X149345Y3803D01*
X149259Y3759D01*
X149171Y3718D01*
X149081Y3680D01*
X148990Y3646D01*
X148898Y3616D01*
X148805Y3589D01*
X148711Y3566D01*
X148615Y3547D01*
X148520Y3532D01*
X148423Y3520D01*
X148327Y3512D01*
X148230Y3508D01*
X148132Y3508D01*
X148035Y3512D01*
X147939Y3520D01*
X147842Y3532D01*
X147747Y3547D01*
X147651Y3566D01*
X147557Y3589D01*
X147464Y3616D01*
X147372Y3646D01*
X147281Y3680D01*
X147191Y3718D01*
X147103Y3759D01*
X147017Y3803D01*
X146933Y3851D01*
X146850Y3903D01*
X146770Y3957D01*
X146692Y4015D01*
X146616Y4076D01*
X146543Y4139D01*
X146472Y4206D01*
X146404Y4275D01*
X146339Y4347D01*
X146277Y4422D01*
X146218Y4499D01*
X146162Y4578D01*
X146109Y4659D01*
X146059Y4743D01*
X146013Y4828D01*
X145970Y4915D01*
X145930Y5004D01*
X145895Y5094D01*
X145862Y5185D01*
X145834Y5278D01*
X145809Y5372D01*
X145788Y5467D01*
X145771Y5562D01*
X145757Y5658D01*
X145748Y5755D01*
X145742Y5852D01*
X145740Y5949D01*
X155525Y3508D02*
X155525Y10831D01*
X159186Y10831D01*
X159186Y9610D01*
X162660Y8390D02*
X162660Y5949D01*
X162660Y8390D02*
X162662Y8487D01*
X162668Y8584D01*
X162677Y8681D01*
X162691Y8777D01*
X162708Y8872D01*
X162729Y8967D01*
X162754Y9061D01*
X162782Y9154D01*
X162815Y9245D01*
X162850Y9335D01*
X162890Y9424D01*
X162933Y9511D01*
X162979Y9596D01*
X163029Y9680D01*
X163082Y9761D01*
X163138Y9840D01*
X163197Y9917D01*
X163259Y9992D01*
X163324Y10064D01*
X163392Y10133D01*
X163463Y10200D01*
X163536Y10263D01*
X163612Y10324D01*
X163690Y10382D01*
X163770Y10436D01*
X163853Y10488D01*
X163937Y10536D01*
X164023Y10580D01*
X164111Y10621D01*
X164201Y10659D01*
X164292Y10693D01*
X164384Y10723D01*
X164477Y10750D01*
X164571Y10773D01*
X164667Y10792D01*
X164762Y10807D01*
X164859Y10819D01*
X164955Y10827D01*
X165052Y10831D01*
X165150Y10831D01*
X165247Y10827D01*
X165343Y10819D01*
X165440Y10807D01*
X165535Y10792D01*
X165631Y10773D01*
X165725Y10750D01*
X165818Y10723D01*
X165910Y10693D01*
X166001Y10659D01*
X166091Y10621D01*
X166179Y10580D01*
X166265Y10536D01*
X166349Y10488D01*
X166432Y10436D01*
X166512Y10382D01*
X166590Y10324D01*
X166666Y10263D01*
X166739Y10200D01*
X166810Y10133D01*
X166878Y10064D01*
X166943Y9992D01*
X167005Y9917D01*
X167064Y9840D01*
X167120Y9761D01*
X167173Y9680D01*
X167223Y9596D01*
X167269Y9511D01*
X167312Y9424D01*
X167352Y9335D01*
X167387Y9245D01*
X167420Y9154D01*
X167448Y9061D01*
X167473Y8967D01*
X167494Y8872D01*
X167511Y8777D01*
X167525Y8681D01*
X167534Y8584D01*
X167540Y8487D01*
X167542Y8390D01*
X167542Y5949D01*
X167540Y5852D01*
X167534Y5755D01*
X167525Y5658D01*
X167511Y5562D01*
X167494Y5467D01*
X167473Y5372D01*
X167448Y5278D01*
X167420Y5185D01*
X167387Y5094D01*
X167352Y5004D01*
X167312Y4915D01*
X167269Y4828D01*
X167223Y4743D01*
X167173Y4659D01*
X167120Y4578D01*
X167064Y4499D01*
X167005Y4422D01*
X166943Y4347D01*
X166878Y4275D01*
X166810Y4206D01*
X166739Y4139D01*
X166666Y4076D01*
X166590Y4015D01*
X166512Y3957D01*
X166432Y3903D01*
X166349Y3851D01*
X166265Y3803D01*
X166179Y3759D01*
X166091Y3718D01*
X166001Y3680D01*
X165910Y3646D01*
X165818Y3616D01*
X165725Y3589D01*
X165631Y3566D01*
X165535Y3547D01*
X165440Y3532D01*
X165343Y3520D01*
X165247Y3512D01*
X165150Y3508D01*
X165052Y3508D01*
X164955Y3512D01*
X164859Y3520D01*
X164762Y3532D01*
X164667Y3547D01*
X164571Y3566D01*
X164477Y3589D01*
X164384Y3616D01*
X164292Y3646D01*
X164201Y3680D01*
X164111Y3718D01*
X164023Y3759D01*
X163937Y3803D01*
X163853Y3851D01*
X163770Y3903D01*
X163690Y3957D01*
X163612Y4015D01*
X163536Y4076D01*
X163463Y4139D01*
X163392Y4206D01*
X163324Y4275D01*
X163259Y4347D01*
X163197Y4422D01*
X163138Y4499D01*
X163082Y4578D01*
X163029Y4659D01*
X162979Y4743D01*
X162933Y4828D01*
X162890Y4915D01*
X162850Y5004D01*
X162815Y5094D01*
X162782Y5185D01*
X162754Y5278D01*
X162729Y5372D01*
X162708Y5467D01*
X162691Y5562D01*
X162677Y5658D01*
X162668Y5755D01*
X162662Y5852D01*
X162660Y5949D01*
X172380Y3508D02*
X172380Y10831D01*
X175431Y10831D01*
X175516Y10829D01*
X175600Y10823D01*
X175684Y10813D01*
X175767Y10800D01*
X175850Y10782D01*
X175932Y10761D01*
X176013Y10736D01*
X176092Y10707D01*
X176171Y10675D01*
X176247Y10639D01*
X176322Y10600D01*
X176395Y10557D01*
X176466Y10511D01*
X176534Y10461D01*
X176601Y10409D01*
X176665Y10353D01*
X176726Y10295D01*
X176784Y10234D01*
X176840Y10170D01*
X176892Y10103D01*
X176942Y10035D01*
X176988Y9964D01*
X177031Y9891D01*
X177070Y9816D01*
X177106Y9740D01*
X177138Y9661D01*
X177167Y9582D01*
X177192Y9501D01*
X177213Y9419D01*
X177231Y9336D01*
X177244Y9253D01*
X177254Y9169D01*
X177260Y9085D01*
X177262Y9000D01*
X177262Y3508D01*
X182210Y9000D02*
X182213Y9216D01*
X182220Y9432D01*
X182233Y9648D01*
X182251Y9863D01*
X182274Y10078D01*
X182303Y10292D01*
X182336Y10506D01*
X182375Y10718D01*
X182418Y10930D01*
X182467Y11141D01*
X182520Y11350D01*
X182579Y11558D01*
X182642Y11764D01*
X182711Y11969D01*
X182784Y12173D01*
X182862Y12374D01*
X182945Y12574D01*
X183033Y12771D01*
X183125Y12967D01*
X183125Y12966D02*
X183157Y13054D01*
X183193Y13140D01*
X183232Y13225D01*
X183275Y13308D01*
X183321Y13389D01*
X183370Y13468D01*
X183423Y13546D01*
X183479Y13620D01*
X183538Y13693D01*
X183599Y13763D01*
X183664Y13830D01*
X183731Y13895D01*
X183801Y13957D01*
X183874Y14016D01*
X183949Y14071D01*
X184026Y14124D01*
X184105Y14174D01*
X184186Y14220D01*
X184269Y14262D01*
X184354Y14302D01*
X184440Y14337D01*
X184528Y14370D01*
X184617Y14398D01*
X184707Y14423D01*
X184797Y14444D01*
X184889Y14461D01*
X184982Y14475D01*
X185074Y14484D01*
X185168Y14490D01*
X185261Y14492D01*
X185354Y14490D01*
X185448Y14484D01*
X185540Y14475D01*
X185633Y14461D01*
X185725Y14444D01*
X185815Y14423D01*
X185905Y14398D01*
X185994Y14370D01*
X186082Y14337D01*
X186168Y14302D01*
X186253Y14262D01*
X186336Y14220D01*
X186417Y14174D01*
X186496Y14124D01*
X186573Y14071D01*
X186648Y14016D01*
X186721Y13957D01*
X186791Y13895D01*
X186858Y13830D01*
X186923Y13763D01*
X186984Y13693D01*
X187043Y13620D01*
X187099Y13546D01*
X187152Y13468D01*
X187201Y13389D01*
X187247Y13308D01*
X187290Y13225D01*
X187329Y13140D01*
X187365Y13054D01*
X187397Y12966D01*
X187398Y12967D02*
X187490Y12771D01*
X187578Y12574D01*
X187661Y12374D01*
X187739Y12173D01*
X187812Y11969D01*
X187881Y11764D01*
X187944Y11558D01*
X188003Y11350D01*
X188056Y11141D01*
X188105Y10930D01*
X188148Y10718D01*
X188187Y10506D01*
X188220Y10292D01*
X188249Y10078D01*
X188272Y9863D01*
X188290Y9648D01*
X188303Y9432D01*
X188310Y9216D01*
X188313Y9000D01*
X182210Y9000D02*
X182213Y8784D01*
X182220Y8568D01*
X182233Y8352D01*
X182251Y8137D01*
X182274Y7922D01*
X182303Y7708D01*
X182336Y7494D01*
X182375Y7282D01*
X182418Y7070D01*
X182467Y6860D01*
X182520Y6650D01*
X182579Y6442D01*
X182642Y6236D01*
X182711Y6031D01*
X182784Y5827D01*
X182862Y5626D01*
X182945Y5426D01*
X183033Y5229D01*
X183125Y5034D01*
X183157Y4946D01*
X183193Y4860D01*
X183232Y4775D01*
X183275Y4692D01*
X183321Y4611D01*
X183370Y4532D01*
X183423Y4454D01*
X183479Y4380D01*
X183538Y4307D01*
X183599Y4237D01*
X183664Y4170D01*
X183731Y4105D01*
X183801Y4043D01*
X183874Y3984D01*
X183949Y3929D01*
X184026Y3876D01*
X184105Y3826D01*
X184186Y3780D01*
X184269Y3738D01*
X184354Y3698D01*
X184440Y3663D01*
X184528Y3630D01*
X184617Y3602D01*
X184707Y3577D01*
X184797Y3556D01*
X184889Y3539D01*
X184982Y3525D01*
X185074Y3516D01*
X185168Y3510D01*
X185261Y3508D01*
X187397Y5033D02*
X187489Y5229D01*
X187577Y5426D01*
X187660Y5626D01*
X187738Y5827D01*
X187811Y6031D01*
X187880Y6236D01*
X187943Y6442D01*
X188002Y6650D01*
X188055Y6859D01*
X188104Y7070D01*
X188147Y7282D01*
X188186Y7494D01*
X188219Y7708D01*
X188248Y7922D01*
X188271Y8137D01*
X188289Y8352D01*
X188302Y8568D01*
X188309Y8784D01*
X188312Y9000D01*
X187397Y5034D02*
X187365Y4946D01*
X187329Y4860D01*
X187290Y4775D01*
X187247Y4692D01*
X187201Y4611D01*
X187152Y4532D01*
X187099Y4454D01*
X187043Y4380D01*
X186984Y4307D01*
X186923Y4237D01*
X186858Y4170D01*
X186791Y4105D01*
X186721Y4043D01*
X186648Y3984D01*
X186573Y3929D01*
X186496Y3876D01*
X186417Y3826D01*
X186336Y3780D01*
X186253Y3738D01*
X186168Y3698D01*
X186082Y3663D01*
X185994Y3630D01*
X185905Y3602D01*
X185815Y3577D01*
X185725Y3556D01*
X185633Y3539D01*
X185540Y3525D01*
X185448Y3516D01*
X185354Y3510D01*
X185261Y3508D01*
X182820Y5949D02*
X187702Y12051D01*
X198160Y14492D02*
X201821Y3508D01*
X205482Y14492D01*
X209570Y12051D02*
X212621Y14492D01*
X212621Y3508D01*
X209570Y3508D02*
X215672Y3508D01*
X219876Y3508D02*
X219876Y4118D01*
X220486Y4118D01*
X220486Y3508D01*
X219876Y3508D01*
X224689Y9000D02*
X224692Y9216D01*
X224699Y9432D01*
X224712Y9648D01*
X224730Y9863D01*
X224753Y10078D01*
X224782Y10292D01*
X224815Y10506D01*
X224854Y10718D01*
X224897Y10930D01*
X224946Y11141D01*
X224999Y11350D01*
X225058Y11558D01*
X225121Y11764D01*
X225190Y11969D01*
X225263Y12173D01*
X225341Y12374D01*
X225424Y12574D01*
X225512Y12771D01*
X225604Y12967D01*
X225605Y12966D02*
X225637Y13054D01*
X225673Y13140D01*
X225712Y13225D01*
X225755Y13308D01*
X225801Y13389D01*
X225850Y13468D01*
X225903Y13546D01*
X225959Y13620D01*
X226018Y13693D01*
X226079Y13763D01*
X226144Y13830D01*
X226211Y13895D01*
X226281Y13957D01*
X226354Y14016D01*
X226429Y14071D01*
X226506Y14124D01*
X226585Y14174D01*
X226666Y14220D01*
X226749Y14262D01*
X226834Y14302D01*
X226920Y14337D01*
X227008Y14370D01*
X227097Y14398D01*
X227187Y14423D01*
X227277Y14444D01*
X227369Y14461D01*
X227462Y14475D01*
X227554Y14484D01*
X227648Y14490D01*
X227741Y14492D01*
X227834Y14490D01*
X227928Y14484D01*
X228020Y14475D01*
X228113Y14461D01*
X228205Y14444D01*
X228295Y14423D01*
X228385Y14398D01*
X228474Y14370D01*
X228562Y14337D01*
X228648Y14302D01*
X228733Y14262D01*
X228816Y14220D01*
X228897Y14174D01*
X228976Y14124D01*
X229053Y14071D01*
X229128Y14016D01*
X229201Y13957D01*
X229271Y13895D01*
X229338Y13830D01*
X229403Y13763D01*
X229464Y13693D01*
X229523Y13620D01*
X229579Y13546D01*
X229632Y13468D01*
X229681Y13389D01*
X229727Y13308D01*
X229770Y13225D01*
X229809Y13140D01*
X229845Y13054D01*
X229877Y12966D01*
X229877Y12967D02*
X229969Y12771D01*
X230057Y12574D01*
X230140Y12374D01*
X230218Y12173D01*
X230291Y11969D01*
X230360Y11764D01*
X230423Y11558D01*
X230482Y11350D01*
X230535Y11141D01*
X230584Y10930D01*
X230627Y10718D01*
X230666Y10506D01*
X230699Y10292D01*
X230728Y10078D01*
X230751Y9863D01*
X230769Y9648D01*
X230782Y9432D01*
X230789Y9216D01*
X230792Y9000D01*
X224690Y9000D02*
X224693Y8784D01*
X224700Y8568D01*
X224713Y8352D01*
X224731Y8137D01*
X224754Y7922D01*
X224783Y7708D01*
X224816Y7494D01*
X224855Y7282D01*
X224898Y7070D01*
X224947Y6860D01*
X225000Y6650D01*
X225059Y6442D01*
X225122Y6236D01*
X225191Y6031D01*
X225264Y5827D01*
X225342Y5626D01*
X225425Y5426D01*
X225513Y5229D01*
X225605Y5034D01*
X225637Y4946D01*
X225673Y4860D01*
X225712Y4775D01*
X225755Y4692D01*
X225801Y4611D01*
X225850Y4532D01*
X225903Y4454D01*
X225959Y4380D01*
X226018Y4307D01*
X226079Y4237D01*
X226144Y4170D01*
X226211Y4105D01*
X226281Y4043D01*
X226354Y3984D01*
X226429Y3929D01*
X226506Y3876D01*
X226585Y3826D01*
X226666Y3780D01*
X226749Y3738D01*
X226834Y3698D01*
X226920Y3663D01*
X227008Y3630D01*
X227097Y3602D01*
X227187Y3577D01*
X227277Y3556D01*
X227369Y3539D01*
X227462Y3525D01*
X227554Y3516D01*
X227648Y3510D01*
X227741Y3508D01*
X229877Y5033D02*
X229969Y5229D01*
X230057Y5426D01*
X230140Y5626D01*
X230218Y5827D01*
X230291Y6031D01*
X230360Y6236D01*
X230423Y6442D01*
X230482Y6650D01*
X230535Y6859D01*
X230584Y7070D01*
X230627Y7282D01*
X230666Y7494D01*
X230699Y7708D01*
X230728Y7922D01*
X230751Y8137D01*
X230769Y8352D01*
X230782Y8568D01*
X230789Y8784D01*
X230792Y9000D01*
X229877Y5034D02*
X229845Y4946D01*
X229809Y4860D01*
X229770Y4775D01*
X229727Y4692D01*
X229681Y4611D01*
X229632Y4532D01*
X229579Y4454D01*
X229523Y4380D01*
X229464Y4307D01*
X229403Y4237D01*
X229338Y4170D01*
X229271Y4105D01*
X229201Y4043D01*
X229128Y3984D01*
X229053Y3929D01*
X228976Y3876D01*
X228897Y3826D01*
X228816Y3780D01*
X228733Y3738D01*
X228648Y3698D01*
X228562Y3663D01*
X228474Y3630D01*
X228385Y3602D01*
X228295Y3577D01*
X228205Y3556D01*
X228113Y3539D01*
X228020Y3525D01*
X227928Y3516D01*
X227834Y3510D01*
X227741Y3508D01*
X225300Y5949D02*
X230182Y12051D01*
X109169Y-3508D02*
X109169Y-12051D01*
X109167Y-12147D01*
X109161Y-12243D01*
X109152Y-12338D01*
X109139Y-12433D01*
X109122Y-12527D01*
X109102Y-12621D01*
X109077Y-12714D01*
X109050Y-12805D01*
X109018Y-12896D01*
X108983Y-12985D01*
X108945Y-13073D01*
X108903Y-13159D01*
X108858Y-13244D01*
X108809Y-13326D01*
X108758Y-13407D01*
X108703Y-13486D01*
X108645Y-13562D01*
X108584Y-13636D01*
X108520Y-13708D01*
X108454Y-13777D01*
X108385Y-13843D01*
X108313Y-13907D01*
X108239Y-13968D01*
X108163Y-14026D01*
X108084Y-14081D01*
X108003Y-14132D01*
X107921Y-14181D01*
X107836Y-14226D01*
X107750Y-14268D01*
X107662Y-14306D01*
X107573Y-14341D01*
X107482Y-14373D01*
X107391Y-14400D01*
X107298Y-14425D01*
X107204Y-14445D01*
X107110Y-14462D01*
X107015Y-14475D01*
X106920Y-14484D01*
X106824Y-14490D01*
X106728Y-14492D01*
X105508Y-14492D01*
X114542Y-14492D02*
X114542Y-3508D01*
X120644Y-14492D01*
X120644Y-3508D01*
X126227Y-3508D02*
X126227Y-14492D01*
X126227Y-3508D02*
X129278Y-3508D01*
X129387Y-3510D01*
X129496Y-3516D01*
X129604Y-3525D01*
X129712Y-3539D01*
X129820Y-3556D01*
X129927Y-3578D01*
X130033Y-3603D01*
X130138Y-3632D01*
X130242Y-3664D01*
X130344Y-3700D01*
X130446Y-3740D01*
X130545Y-3784D01*
X130644Y-3831D01*
X130740Y-3881D01*
X130835Y-3935D01*
X130927Y-3992D01*
X131018Y-4053D01*
X131106Y-4117D01*
X131192Y-4183D01*
X131276Y-4253D01*
X131357Y-4326D01*
X131435Y-4402D01*
X131511Y-4480D01*
X131584Y-4561D01*
X131654Y-4645D01*
X131720Y-4731D01*
X131784Y-4819D01*
X131845Y-4910D01*
X131902Y-5002D01*
X131956Y-5097D01*
X132006Y-5193D01*
X132053Y-5292D01*
X132097Y-5391D01*
X132137Y-5493D01*
X132173Y-5595D01*
X132205Y-5699D01*
X132234Y-5804D01*
X132259Y-5910D01*
X132281Y-6017D01*
X132298Y-6125D01*
X132312Y-6233D01*
X132321Y-6341D01*
X132327Y-6450D01*
X132329Y-6559D01*
X132327Y-6668D01*
X132321Y-6777D01*
X132312Y-6885D01*
X132298Y-6993D01*
X132281Y-7101D01*
X132259Y-7208D01*
X132234Y-7314D01*
X132205Y-7419D01*
X132173Y-7523D01*
X132137Y-7625D01*
X132097Y-7727D01*
X132053Y-7826D01*
X132006Y-7925D01*
X131956Y-8021D01*
X131902Y-8116D01*
X131845Y-8208D01*
X131784Y-8299D01*
X131720Y-8387D01*
X131654Y-8473D01*
X131584Y-8557D01*
X131511Y-8638D01*
X131435Y-8716D01*
X131357Y-8792D01*
X131276Y-8865D01*
X131192Y-8935D01*
X131106Y-9001D01*
X131018Y-9065D01*
X130927Y-9126D01*
X130835Y-9183D01*
X130740Y-9237D01*
X130644Y-9287D01*
X130545Y-9334D01*
X130446Y-9378D01*
X130344Y-9418D01*
X130242Y-9454D01*
X130138Y-9486D01*
X130033Y-9515D01*
X129927Y-9540D01*
X129820Y-9562D01*
X129712Y-9579D01*
X129604Y-9593D01*
X129496Y-9602D01*
X129387Y-9608D01*
X129278Y-9610D01*
X126227Y-9610D01*
X136612Y-10220D02*
X143934Y-10220D01*
X149212Y-14492D02*
X149212Y-3508D01*
X152873Y-9610D01*
X156534Y-3508D01*
X156534Y-14492D01*
X161592Y-12051D02*
X161592Y-9610D01*
X161594Y-9513D01*
X161600Y-9416D01*
X161609Y-9319D01*
X161623Y-9223D01*
X161640Y-9128D01*
X161661Y-9033D01*
X161686Y-8939D01*
X161714Y-8846D01*
X161747Y-8755D01*
X161782Y-8665D01*
X161822Y-8576D01*
X161865Y-8489D01*
X161911Y-8404D01*
X161961Y-8320D01*
X162014Y-8239D01*
X162070Y-8160D01*
X162129Y-8083D01*
X162191Y-8008D01*
X162256Y-7936D01*
X162324Y-7867D01*
X162395Y-7800D01*
X162468Y-7737D01*
X162544Y-7676D01*
X162622Y-7618D01*
X162702Y-7564D01*
X162785Y-7512D01*
X162869Y-7464D01*
X162955Y-7420D01*
X163043Y-7379D01*
X163133Y-7341D01*
X163224Y-7307D01*
X163316Y-7277D01*
X163409Y-7250D01*
X163503Y-7227D01*
X163599Y-7208D01*
X163694Y-7193D01*
X163791Y-7181D01*
X163887Y-7173D01*
X163984Y-7169D01*
X164082Y-7169D01*
X164179Y-7173D01*
X164275Y-7181D01*
X164372Y-7193D01*
X164467Y-7208D01*
X164563Y-7227D01*
X164657Y-7250D01*
X164750Y-7277D01*
X164842Y-7307D01*
X164933Y-7341D01*
X165023Y-7379D01*
X165111Y-7420D01*
X165197Y-7464D01*
X165281Y-7512D01*
X165364Y-7564D01*
X165444Y-7618D01*
X165522Y-7676D01*
X165598Y-7737D01*
X165671Y-7800D01*
X165742Y-7867D01*
X165810Y-7936D01*
X165875Y-8008D01*
X165937Y-8083D01*
X165996Y-8160D01*
X166052Y-8239D01*
X166105Y-8320D01*
X166155Y-8404D01*
X166201Y-8489D01*
X166244Y-8576D01*
X166284Y-8665D01*
X166319Y-8755D01*
X166352Y-8846D01*
X166380Y-8939D01*
X166405Y-9033D01*
X166426Y-9128D01*
X166443Y-9223D01*
X166457Y-9319D01*
X166466Y-9416D01*
X166472Y-9513D01*
X166474Y-9610D01*
X166474Y-12051D01*
X166472Y-12148D01*
X166466Y-12245D01*
X166457Y-12342D01*
X166443Y-12438D01*
X166426Y-12533D01*
X166405Y-12628D01*
X166380Y-12722D01*
X166352Y-12815D01*
X166319Y-12906D01*
X166284Y-12996D01*
X166244Y-13085D01*
X166201Y-13172D01*
X166155Y-13257D01*
X166105Y-13341D01*
X166052Y-13422D01*
X165996Y-13501D01*
X165937Y-13578D01*
X165875Y-13653D01*
X165810Y-13725D01*
X165742Y-13794D01*
X165671Y-13861D01*
X165598Y-13924D01*
X165522Y-13985D01*
X165444Y-14043D01*
X165364Y-14097D01*
X165281Y-14149D01*
X165197Y-14197D01*
X165111Y-14241D01*
X165023Y-14282D01*
X164933Y-14320D01*
X164842Y-14354D01*
X164750Y-14384D01*
X164657Y-14411D01*
X164563Y-14434D01*
X164467Y-14453D01*
X164372Y-14468D01*
X164275Y-14480D01*
X164179Y-14488D01*
X164082Y-14492D01*
X163984Y-14492D01*
X163887Y-14488D01*
X163791Y-14480D01*
X163694Y-14468D01*
X163599Y-14453D01*
X163503Y-14434D01*
X163409Y-14411D01*
X163316Y-14384D01*
X163224Y-14354D01*
X163133Y-14320D01*
X163043Y-14282D01*
X162955Y-14241D01*
X162869Y-14197D01*
X162785Y-14149D01*
X162702Y-14097D01*
X162622Y-14043D01*
X162544Y-13985D01*
X162468Y-13924D01*
X162395Y-13861D01*
X162324Y-13794D01*
X162256Y-13725D01*
X162191Y-13653D01*
X162129Y-13578D01*
X162070Y-13501D01*
X162014Y-13422D01*
X161961Y-13341D01*
X161911Y-13257D01*
X161865Y-13172D01*
X161822Y-13085D01*
X161782Y-12996D01*
X161747Y-12906D01*
X161714Y-12815D01*
X161686Y-12722D01*
X161661Y-12628D01*
X161640Y-12533D01*
X161623Y-12438D01*
X161609Y-12342D01*
X161600Y-12245D01*
X161594Y-12148D01*
X161592Y-12051D01*
X175776Y-14492D02*
X175776Y-3508D01*
X175776Y-14492D02*
X172725Y-14492D01*
X172640Y-14490D01*
X172556Y-14484D01*
X172472Y-14474D01*
X172389Y-14461D01*
X172306Y-14443D01*
X172224Y-14422D01*
X172143Y-14397D01*
X172064Y-14368D01*
X171985Y-14336D01*
X171909Y-14300D01*
X171834Y-14261D01*
X171761Y-14218D01*
X171690Y-14172D01*
X171622Y-14122D01*
X171555Y-14070D01*
X171491Y-14014D01*
X171430Y-13956D01*
X171372Y-13895D01*
X171316Y-13831D01*
X171264Y-13764D01*
X171214Y-13696D01*
X171168Y-13625D01*
X171125Y-13552D01*
X171086Y-13477D01*
X171050Y-13401D01*
X171018Y-13322D01*
X170989Y-13243D01*
X170964Y-13162D01*
X170943Y-13080D01*
X170925Y-12997D01*
X170912Y-12914D01*
X170902Y-12830D01*
X170896Y-12746D01*
X170894Y-12661D01*
X170895Y-12661D02*
X170895Y-9000D01*
X170894Y-9000D02*
X170896Y-8915D01*
X170902Y-8831D01*
X170912Y-8747D01*
X170925Y-8664D01*
X170943Y-8581D01*
X170964Y-8499D01*
X170989Y-8418D01*
X171018Y-8339D01*
X171050Y-8260D01*
X171086Y-8184D01*
X171125Y-8109D01*
X171168Y-8036D01*
X171214Y-7965D01*
X171264Y-7897D01*
X171316Y-7830D01*
X171372Y-7766D01*
X171430Y-7705D01*
X171491Y-7647D01*
X171555Y-7591D01*
X171622Y-7539D01*
X171690Y-7489D01*
X171761Y-7443D01*
X171834Y-7400D01*
X171909Y-7361D01*
X171985Y-7325D01*
X172064Y-7293D01*
X172143Y-7264D01*
X172224Y-7239D01*
X172306Y-7218D01*
X172389Y-7200D01*
X172472Y-7187D01*
X172556Y-7177D01*
X172640Y-7171D01*
X172725Y-7169D01*
X175776Y-7169D01*
X210813Y91669D02*
X210813Y98992D01*
X210508Y88618D02*
X210508Y88008D01*
X210508Y88618D02*
X211118Y88618D01*
X211118Y88008D01*
X210508Y88008D01*
X221397Y88008D02*
X221397Y95331D01*
X225058Y95331D01*
X225058Y94110D01*
X230363Y88008D02*
X233414Y88008D01*
X230363Y88008D02*
X230278Y88010D01*
X230194Y88016D01*
X230110Y88026D01*
X230027Y88039D01*
X229944Y88057D01*
X229862Y88078D01*
X229781Y88103D01*
X229702Y88132D01*
X229623Y88164D01*
X229547Y88200D01*
X229472Y88239D01*
X229399Y88282D01*
X229328Y88328D01*
X229260Y88378D01*
X229193Y88430D01*
X229129Y88486D01*
X229068Y88544D01*
X229010Y88605D01*
X228954Y88669D01*
X228902Y88736D01*
X228852Y88804D01*
X228806Y88875D01*
X228763Y88948D01*
X228724Y89023D01*
X228688Y89099D01*
X228656Y89178D01*
X228627Y89257D01*
X228602Y89338D01*
X228581Y89420D01*
X228563Y89503D01*
X228550Y89586D01*
X228540Y89670D01*
X228534Y89754D01*
X228532Y89839D01*
X228532Y92890D01*
X228534Y92987D01*
X228540Y93084D01*
X228549Y93181D01*
X228563Y93277D01*
X228580Y93372D01*
X228601Y93467D01*
X228626Y93561D01*
X228654Y93654D01*
X228687Y93745D01*
X228722Y93835D01*
X228762Y93924D01*
X228805Y94011D01*
X228851Y94096D01*
X228901Y94180D01*
X228954Y94261D01*
X229010Y94340D01*
X229069Y94417D01*
X229131Y94492D01*
X229196Y94564D01*
X229264Y94633D01*
X229335Y94700D01*
X229408Y94763D01*
X229484Y94824D01*
X229562Y94882D01*
X229642Y94936D01*
X229725Y94988D01*
X229809Y95036D01*
X229895Y95080D01*
X229983Y95121D01*
X230073Y95159D01*
X230164Y95193D01*
X230256Y95223D01*
X230349Y95250D01*
X230443Y95273D01*
X230539Y95292D01*
X230634Y95307D01*
X230731Y95319D01*
X230827Y95327D01*
X230924Y95331D01*
X231022Y95331D01*
X231119Y95327D01*
X231215Y95319D01*
X231312Y95307D01*
X231407Y95292D01*
X231503Y95273D01*
X231597Y95250D01*
X231690Y95223D01*
X231782Y95193D01*
X231873Y95159D01*
X231963Y95121D01*
X232051Y95080D01*
X232137Y95036D01*
X232221Y94988D01*
X232304Y94936D01*
X232384Y94882D01*
X232462Y94824D01*
X232538Y94763D01*
X232611Y94700D01*
X232682Y94633D01*
X232750Y94564D01*
X232815Y94492D01*
X232877Y94417D01*
X232936Y94340D01*
X232992Y94261D01*
X233045Y94180D01*
X233095Y94096D01*
X233141Y94011D01*
X233184Y93924D01*
X233224Y93835D01*
X233259Y93745D01*
X233292Y93654D01*
X233320Y93561D01*
X233345Y93467D01*
X233366Y93372D01*
X233383Y93277D01*
X233397Y93181D01*
X233406Y93084D01*
X233412Y92987D01*
X233414Y92890D01*
X233414Y91669D01*
X228532Y91669D01*
X239971Y92280D02*
X242717Y92280D01*
X239971Y92280D02*
X239880Y92278D01*
X239790Y92272D01*
X239700Y92263D01*
X239610Y92249D01*
X239521Y92232D01*
X239433Y92211D01*
X239346Y92186D01*
X239259Y92158D01*
X239175Y92126D01*
X239091Y92090D01*
X239009Y92051D01*
X238929Y92009D01*
X238851Y91963D01*
X238775Y91914D01*
X238701Y91861D01*
X238629Y91806D01*
X238560Y91747D01*
X238493Y91686D01*
X238429Y91622D01*
X238368Y91555D01*
X238309Y91486D01*
X238254Y91414D01*
X238201Y91340D01*
X238152Y91264D01*
X238106Y91186D01*
X238064Y91106D01*
X238025Y91024D01*
X237989Y90940D01*
X237957Y90856D01*
X237929Y90769D01*
X237904Y90682D01*
X237883Y90594D01*
X237866Y90505D01*
X237852Y90415D01*
X237843Y90325D01*
X237837Y90235D01*
X237835Y90144D01*
X237837Y90053D01*
X237843Y89963D01*
X237852Y89873D01*
X237866Y89783D01*
X237883Y89694D01*
X237904Y89606D01*
X237929Y89519D01*
X237957Y89432D01*
X237989Y89348D01*
X238025Y89264D01*
X238064Y89182D01*
X238106Y89102D01*
X238152Y89024D01*
X238201Y88948D01*
X238254Y88874D01*
X238309Y88802D01*
X238368Y88733D01*
X238429Y88666D01*
X238493Y88602D01*
X238560Y88541D01*
X238629Y88482D01*
X238701Y88427D01*
X238775Y88374D01*
X238851Y88325D01*
X238929Y88279D01*
X239009Y88237D01*
X239091Y88198D01*
X239175Y88162D01*
X239259Y88130D01*
X239346Y88102D01*
X239433Y88077D01*
X239521Y88056D01*
X239610Y88039D01*
X239700Y88025D01*
X239790Y88016D01*
X239880Y88010D01*
X239971Y88008D01*
X242717Y88008D01*
X242717Y93500D01*
X242715Y93585D01*
X242709Y93669D01*
X242699Y93753D01*
X242686Y93836D01*
X242668Y93919D01*
X242647Y94001D01*
X242622Y94082D01*
X242593Y94161D01*
X242561Y94240D01*
X242525Y94316D01*
X242486Y94391D01*
X242443Y94464D01*
X242397Y94535D01*
X242347Y94603D01*
X242295Y94670D01*
X242239Y94734D01*
X242181Y94795D01*
X242120Y94853D01*
X242056Y94909D01*
X241989Y94961D01*
X241921Y95011D01*
X241850Y95057D01*
X241777Y95100D01*
X241702Y95139D01*
X241626Y95175D01*
X241547Y95207D01*
X241468Y95236D01*
X241387Y95261D01*
X241305Y95282D01*
X241222Y95300D01*
X241139Y95313D01*
X241055Y95323D01*
X240971Y95329D01*
X240886Y95331D01*
X238445Y95331D01*
X252437Y98992D02*
X252437Y88008D01*
X249386Y88008D01*
X249301Y88010D01*
X249217Y88016D01*
X249133Y88026D01*
X249050Y88039D01*
X248967Y88057D01*
X248885Y88078D01*
X248804Y88103D01*
X248725Y88132D01*
X248646Y88164D01*
X248570Y88200D01*
X248495Y88239D01*
X248422Y88282D01*
X248351Y88328D01*
X248283Y88378D01*
X248216Y88430D01*
X248152Y88486D01*
X248091Y88544D01*
X248033Y88605D01*
X247977Y88669D01*
X247925Y88736D01*
X247875Y88804D01*
X247829Y88875D01*
X247786Y88948D01*
X247747Y89023D01*
X247711Y89099D01*
X247679Y89178D01*
X247650Y89257D01*
X247625Y89338D01*
X247604Y89420D01*
X247586Y89503D01*
X247573Y89586D01*
X247563Y89670D01*
X247557Y89754D01*
X247555Y89839D01*
X247555Y93500D01*
X247557Y93585D01*
X247563Y93669D01*
X247573Y93753D01*
X247586Y93836D01*
X247604Y93919D01*
X247625Y94001D01*
X247650Y94082D01*
X247679Y94161D01*
X247711Y94240D01*
X247747Y94316D01*
X247786Y94391D01*
X247829Y94464D01*
X247875Y94535D01*
X247925Y94603D01*
X247977Y94670D01*
X248033Y94734D01*
X248091Y94795D01*
X248152Y94853D01*
X248216Y94909D01*
X248283Y94961D01*
X248351Y95011D01*
X248422Y95057D01*
X248495Y95100D01*
X248570Y95139D01*
X248646Y95175D01*
X248725Y95207D01*
X248804Y95236D01*
X248885Y95261D01*
X248967Y95282D01*
X249050Y95300D01*
X249133Y95313D01*
X249217Y95323D01*
X249301Y95329D01*
X249386Y95331D01*
X252437Y95331D01*
X263013Y95331D02*
X263013Y88008D01*
X262708Y98382D02*
X262708Y98992D01*
X263318Y98992D01*
X263318Y98382D01*
X262708Y98382D01*
X267772Y95331D02*
X267772Y88008D01*
X267772Y95331D02*
X270823Y95331D01*
X270908Y95329D01*
X270992Y95323D01*
X271076Y95313D01*
X271159Y95300D01*
X271242Y95282D01*
X271324Y95261D01*
X271405Y95236D01*
X271484Y95207D01*
X271563Y95175D01*
X271639Y95139D01*
X271714Y95100D01*
X271787Y95057D01*
X271858Y95011D01*
X271926Y94961D01*
X271993Y94909D01*
X272057Y94853D01*
X272118Y94795D01*
X272176Y94734D01*
X272232Y94670D01*
X272284Y94603D01*
X272334Y94535D01*
X272380Y94464D01*
X272423Y94391D01*
X272462Y94316D01*
X272498Y94240D01*
X272530Y94161D01*
X272559Y94082D01*
X272584Y94001D01*
X272605Y93919D01*
X272623Y93836D01*
X272636Y93753D01*
X272646Y93669D01*
X272652Y93585D01*
X272654Y93500D01*
X272654Y88008D01*
X278407Y92280D02*
X281459Y91059D01*
X278407Y92280D02*
X278335Y92311D01*
X278265Y92346D01*
X278196Y92383D01*
X278130Y92425D01*
X278065Y92469D01*
X278003Y92517D01*
X277943Y92567D01*
X277886Y92621D01*
X277831Y92677D01*
X277780Y92736D01*
X277731Y92798D01*
X277685Y92862D01*
X277643Y92927D01*
X277604Y92995D01*
X277568Y93065D01*
X277536Y93137D01*
X277508Y93210D01*
X277483Y93284D01*
X277462Y93360D01*
X277444Y93436D01*
X277431Y93513D01*
X277421Y93591D01*
X277415Y93669D01*
X277413Y93748D01*
X277415Y93826D01*
X277421Y93904D01*
X277430Y93982D01*
X277444Y94059D01*
X277461Y94136D01*
X277482Y94211D01*
X277507Y94286D01*
X277535Y94359D01*
X277567Y94430D01*
X277603Y94500D01*
X277642Y94568D01*
X277684Y94634D01*
X277729Y94698D01*
X277778Y94760D01*
X277829Y94819D01*
X277884Y94875D01*
X277941Y94929D01*
X278001Y94980D01*
X278063Y95027D01*
X278127Y95072D01*
X278194Y95113D01*
X278263Y95151D01*
X278333Y95186D01*
X278405Y95217D01*
X278478Y95244D01*
X278553Y95268D01*
X278629Y95288D01*
X278706Y95304D01*
X278783Y95317D01*
X278861Y95325D01*
X278939Y95330D01*
X279018Y95331D01*
X279185Y95327D01*
X279351Y95319D01*
X279517Y95306D01*
X279683Y95290D01*
X279848Y95269D01*
X280013Y95245D01*
X280177Y95217D01*
X280341Y95185D01*
X280504Y95148D01*
X280665Y95108D01*
X280826Y95064D01*
X280986Y95017D01*
X281144Y94965D01*
X281301Y94910D01*
X281457Y94851D01*
X281611Y94788D01*
X281764Y94721D01*
X281459Y91059D02*
X281531Y91028D01*
X281601Y90993D01*
X281670Y90956D01*
X281736Y90914D01*
X281801Y90870D01*
X281863Y90822D01*
X281923Y90772D01*
X281980Y90718D01*
X282035Y90662D01*
X282086Y90603D01*
X282135Y90541D01*
X282181Y90477D01*
X282223Y90412D01*
X282262Y90344D01*
X282298Y90274D01*
X282330Y90202D01*
X282358Y90129D01*
X282383Y90055D01*
X282404Y89979D01*
X282422Y89903D01*
X282435Y89826D01*
X282445Y89748D01*
X282451Y89670D01*
X282453Y89591D01*
X282451Y89513D01*
X282445Y89435D01*
X282436Y89357D01*
X282422Y89280D01*
X282405Y89203D01*
X282384Y89128D01*
X282359Y89053D01*
X282331Y88980D01*
X282299Y88909D01*
X282263Y88839D01*
X282224Y88771D01*
X282182Y88705D01*
X282137Y88641D01*
X282088Y88579D01*
X282037Y88520D01*
X281982Y88464D01*
X281925Y88410D01*
X281865Y88359D01*
X281803Y88312D01*
X281739Y88267D01*
X281672Y88226D01*
X281603Y88188D01*
X281533Y88153D01*
X281461Y88122D01*
X281388Y88095D01*
X281313Y88071D01*
X281237Y88051D01*
X281160Y88035D01*
X281083Y88022D01*
X281005Y88014D01*
X280927Y88009D01*
X280848Y88008D01*
X280604Y88014D01*
X280359Y88027D01*
X280115Y88045D01*
X279871Y88068D01*
X279628Y88098D01*
X279386Y88133D01*
X279145Y88174D01*
X278904Y88221D01*
X278665Y88273D01*
X278427Y88331D01*
X278191Y88394D01*
X277956Y88463D01*
X277723Y88538D01*
X277492Y88618D01*
X285932Y95331D02*
X289594Y95331D01*
X287153Y98992D02*
X287153Y89839D01*
X287155Y89754D01*
X287161Y89670D01*
X287171Y89586D01*
X287184Y89503D01*
X287202Y89420D01*
X287223Y89338D01*
X287248Y89257D01*
X287277Y89178D01*
X287309Y89099D01*
X287345Y89023D01*
X287384Y88948D01*
X287427Y88875D01*
X287473Y88804D01*
X287523Y88736D01*
X287575Y88669D01*
X287631Y88605D01*
X287689Y88544D01*
X287750Y88486D01*
X287814Y88430D01*
X287881Y88378D01*
X287949Y88328D01*
X288020Y88282D01*
X288093Y88239D01*
X288168Y88200D01*
X288244Y88164D01*
X288323Y88132D01*
X288402Y88103D01*
X288483Y88078D01*
X288565Y88057D01*
X288648Y88039D01*
X288731Y88026D01*
X288815Y88016D01*
X288899Y88010D01*
X288984Y88008D01*
X289594Y88008D01*
X294117Y88008D02*
X294117Y95331D01*
X297778Y95331D01*
X297778Y94110D01*
X301612Y95331D02*
X301612Y89839D01*
X301614Y89754D01*
X301620Y89670D01*
X301630Y89586D01*
X301643Y89503D01*
X301661Y89420D01*
X301682Y89338D01*
X301707Y89257D01*
X301736Y89178D01*
X301768Y89099D01*
X301804Y89023D01*
X301843Y88948D01*
X301886Y88875D01*
X301932Y88804D01*
X301982Y88736D01*
X302034Y88669D01*
X302090Y88605D01*
X302148Y88544D01*
X302209Y88486D01*
X302273Y88430D01*
X302340Y88378D01*
X302408Y88328D01*
X302479Y88282D01*
X302552Y88239D01*
X302627Y88200D01*
X302703Y88164D01*
X302782Y88132D01*
X302861Y88103D01*
X302942Y88078D01*
X303024Y88057D01*
X303107Y88039D01*
X303190Y88026D01*
X303274Y88016D01*
X303358Y88010D01*
X303443Y88008D01*
X306494Y88008D01*
X306494Y95331D01*
X313176Y88008D02*
X315616Y88008D01*
X313176Y88008D02*
X313091Y88010D01*
X313007Y88016D01*
X312923Y88026D01*
X312840Y88039D01*
X312757Y88057D01*
X312675Y88078D01*
X312594Y88103D01*
X312515Y88132D01*
X312436Y88164D01*
X312360Y88200D01*
X312285Y88239D01*
X312212Y88282D01*
X312141Y88328D01*
X312073Y88378D01*
X312006Y88430D01*
X311942Y88486D01*
X311881Y88544D01*
X311823Y88605D01*
X311767Y88669D01*
X311715Y88736D01*
X311665Y88804D01*
X311619Y88875D01*
X311576Y88948D01*
X311537Y89023D01*
X311501Y89099D01*
X311469Y89178D01*
X311440Y89257D01*
X311415Y89338D01*
X311394Y89420D01*
X311376Y89503D01*
X311363Y89586D01*
X311353Y89670D01*
X311347Y89754D01*
X311345Y89839D01*
X311345Y93500D01*
X311347Y93585D01*
X311353Y93669D01*
X311363Y93753D01*
X311376Y93836D01*
X311394Y93919D01*
X311415Y94001D01*
X311440Y94082D01*
X311469Y94161D01*
X311501Y94240D01*
X311537Y94316D01*
X311576Y94391D01*
X311619Y94464D01*
X311665Y94535D01*
X311715Y94603D01*
X311767Y94670D01*
X311823Y94734D01*
X311881Y94795D01*
X311942Y94853D01*
X312006Y94909D01*
X312073Y94961D01*
X312141Y95011D01*
X312212Y95057D01*
X312285Y95100D01*
X312360Y95139D01*
X312436Y95175D01*
X312515Y95207D01*
X312594Y95236D01*
X312675Y95261D01*
X312757Y95282D01*
X312840Y95300D01*
X312923Y95313D01*
X313007Y95323D01*
X313091Y95329D01*
X313176Y95331D01*
X315616Y95331D01*
X318692Y95331D02*
X322354Y95331D01*
X319913Y98992D02*
X319913Y89839D01*
X319912Y89839D02*
X319914Y89754D01*
X319920Y89670D01*
X319930Y89586D01*
X319943Y89503D01*
X319961Y89420D01*
X319982Y89338D01*
X320007Y89257D01*
X320036Y89178D01*
X320068Y89099D01*
X320104Y89023D01*
X320143Y88948D01*
X320186Y88875D01*
X320232Y88804D01*
X320282Y88736D01*
X320334Y88669D01*
X320390Y88605D01*
X320448Y88544D01*
X320509Y88486D01*
X320573Y88430D01*
X320640Y88378D01*
X320708Y88328D01*
X320779Y88282D01*
X320852Y88239D01*
X320927Y88200D01*
X321003Y88164D01*
X321082Y88132D01*
X321161Y88103D01*
X321242Y88078D01*
X321324Y88057D01*
X321407Y88039D01*
X321490Y88026D01*
X321574Y88016D01*
X321658Y88010D01*
X321743Y88008D01*
X322354Y88008D01*
X326373Y88008D02*
X326373Y95331D01*
X326068Y98382D02*
X326068Y98992D01*
X326678Y98992D01*
X326678Y98382D01*
X326068Y98382D01*
X330772Y92890D02*
X330772Y90449D01*
X330772Y92890D02*
X330774Y92987D01*
X330780Y93084D01*
X330789Y93181D01*
X330803Y93277D01*
X330820Y93372D01*
X330841Y93467D01*
X330866Y93561D01*
X330894Y93654D01*
X330927Y93745D01*
X330962Y93835D01*
X331002Y93924D01*
X331045Y94011D01*
X331091Y94096D01*
X331141Y94180D01*
X331194Y94261D01*
X331250Y94340D01*
X331309Y94417D01*
X331371Y94492D01*
X331436Y94564D01*
X331504Y94633D01*
X331575Y94700D01*
X331648Y94763D01*
X331724Y94824D01*
X331802Y94882D01*
X331882Y94936D01*
X331965Y94988D01*
X332049Y95036D01*
X332135Y95080D01*
X332223Y95121D01*
X332313Y95159D01*
X332404Y95193D01*
X332496Y95223D01*
X332589Y95250D01*
X332683Y95273D01*
X332779Y95292D01*
X332874Y95307D01*
X332971Y95319D01*
X333067Y95327D01*
X333164Y95331D01*
X333262Y95331D01*
X333359Y95327D01*
X333455Y95319D01*
X333552Y95307D01*
X333647Y95292D01*
X333743Y95273D01*
X333837Y95250D01*
X333930Y95223D01*
X334022Y95193D01*
X334113Y95159D01*
X334203Y95121D01*
X334291Y95080D01*
X334377Y95036D01*
X334461Y94988D01*
X334544Y94936D01*
X334624Y94882D01*
X334702Y94824D01*
X334778Y94763D01*
X334851Y94700D01*
X334922Y94633D01*
X334990Y94564D01*
X335055Y94492D01*
X335117Y94417D01*
X335176Y94340D01*
X335232Y94261D01*
X335285Y94180D01*
X335335Y94096D01*
X335381Y94011D01*
X335424Y93924D01*
X335464Y93835D01*
X335499Y93745D01*
X335532Y93654D01*
X335560Y93561D01*
X335585Y93467D01*
X335606Y93372D01*
X335623Y93277D01*
X335637Y93181D01*
X335646Y93084D01*
X335652Y92987D01*
X335654Y92890D01*
X335654Y90449D01*
X335652Y90352D01*
X335646Y90255D01*
X335637Y90158D01*
X335623Y90062D01*
X335606Y89967D01*
X335585Y89872D01*
X335560Y89778D01*
X335532Y89685D01*
X335499Y89594D01*
X335464Y89504D01*
X335424Y89415D01*
X335381Y89328D01*
X335335Y89243D01*
X335285Y89159D01*
X335232Y89078D01*
X335176Y88999D01*
X335117Y88922D01*
X335055Y88847D01*
X334990Y88775D01*
X334922Y88706D01*
X334851Y88639D01*
X334778Y88576D01*
X334702Y88515D01*
X334624Y88457D01*
X334544Y88403D01*
X334461Y88351D01*
X334377Y88303D01*
X334291Y88259D01*
X334203Y88218D01*
X334113Y88180D01*
X334022Y88146D01*
X333930Y88116D01*
X333837Y88089D01*
X333743Y88066D01*
X333647Y88047D01*
X333552Y88032D01*
X333455Y88020D01*
X333359Y88012D01*
X333262Y88008D01*
X333164Y88008D01*
X333067Y88012D01*
X332971Y88020D01*
X332874Y88032D01*
X332779Y88047D01*
X332683Y88066D01*
X332589Y88089D01*
X332496Y88116D01*
X332404Y88146D01*
X332313Y88180D01*
X332223Y88218D01*
X332135Y88259D01*
X332049Y88303D01*
X331965Y88351D01*
X331882Y88403D01*
X331802Y88457D01*
X331724Y88515D01*
X331648Y88576D01*
X331575Y88639D01*
X331504Y88706D01*
X331436Y88775D01*
X331371Y88847D01*
X331309Y88922D01*
X331250Y88999D01*
X331194Y89078D01*
X331141Y89159D01*
X331091Y89243D01*
X331045Y89328D01*
X331002Y89415D01*
X330962Y89504D01*
X330927Y89594D01*
X330894Y89685D01*
X330866Y89778D01*
X330841Y89872D01*
X330820Y89967D01*
X330803Y90062D01*
X330789Y90158D01*
X330780Y90255D01*
X330774Y90352D01*
X330772Y90449D01*
X340492Y88008D02*
X340492Y95331D01*
X343543Y95331D01*
X343628Y95329D01*
X343712Y95323D01*
X343796Y95313D01*
X343879Y95300D01*
X343962Y95282D01*
X344044Y95261D01*
X344125Y95236D01*
X344204Y95207D01*
X344283Y95175D01*
X344359Y95139D01*
X344434Y95100D01*
X344507Y95057D01*
X344578Y95011D01*
X344646Y94961D01*
X344713Y94909D01*
X344777Y94853D01*
X344838Y94795D01*
X344896Y94734D01*
X344952Y94670D01*
X345004Y94603D01*
X345054Y94535D01*
X345100Y94464D01*
X345143Y94391D01*
X345182Y94316D01*
X345218Y94240D01*
X345250Y94161D01*
X345279Y94082D01*
X345304Y94001D01*
X345325Y93919D01*
X345343Y93836D01*
X345356Y93753D01*
X345366Y93669D01*
X345372Y93585D01*
X345374Y93500D01*
X345374Y88008D01*
X356551Y88008D02*
X356551Y95331D01*
X362043Y95331D01*
X362128Y95329D01*
X362212Y95323D01*
X362296Y95313D01*
X362379Y95300D01*
X362462Y95282D01*
X362544Y95261D01*
X362625Y95236D01*
X362704Y95207D01*
X362783Y95175D01*
X362859Y95139D01*
X362934Y95100D01*
X363007Y95057D01*
X363078Y95011D01*
X363146Y94961D01*
X363213Y94909D01*
X363277Y94853D01*
X363338Y94795D01*
X363396Y94734D01*
X363452Y94670D01*
X363504Y94603D01*
X363554Y94535D01*
X363600Y94464D01*
X363643Y94391D01*
X363682Y94316D01*
X363718Y94240D01*
X363750Y94161D01*
X363779Y94082D01*
X363804Y94001D01*
X363825Y93919D01*
X363843Y93836D01*
X363856Y93753D01*
X363866Y93669D01*
X363872Y93585D01*
X363874Y93500D01*
X363874Y88008D01*
X360213Y88008D02*
X360213Y95331D01*
X371010Y92280D02*
X373756Y92280D01*
X371010Y92280D02*
X370919Y92278D01*
X370829Y92272D01*
X370739Y92263D01*
X370649Y92249D01*
X370560Y92232D01*
X370472Y92211D01*
X370385Y92186D01*
X370298Y92158D01*
X370214Y92126D01*
X370130Y92090D01*
X370048Y92051D01*
X369968Y92009D01*
X369890Y91963D01*
X369814Y91914D01*
X369740Y91861D01*
X369668Y91806D01*
X369599Y91747D01*
X369532Y91686D01*
X369468Y91622D01*
X369407Y91555D01*
X369348Y91486D01*
X369293Y91414D01*
X369240Y91340D01*
X369191Y91264D01*
X369145Y91186D01*
X369103Y91106D01*
X369064Y91024D01*
X369028Y90940D01*
X368996Y90856D01*
X368968Y90769D01*
X368943Y90682D01*
X368922Y90594D01*
X368905Y90505D01*
X368891Y90415D01*
X368882Y90325D01*
X368876Y90235D01*
X368874Y90144D01*
X368876Y90053D01*
X368882Y89963D01*
X368891Y89873D01*
X368905Y89783D01*
X368922Y89694D01*
X368943Y89606D01*
X368968Y89519D01*
X368996Y89432D01*
X369028Y89348D01*
X369064Y89264D01*
X369103Y89182D01*
X369145Y89102D01*
X369191Y89024D01*
X369240Y88948D01*
X369293Y88874D01*
X369348Y88802D01*
X369407Y88733D01*
X369468Y88666D01*
X369532Y88602D01*
X369599Y88541D01*
X369668Y88482D01*
X369740Y88427D01*
X369814Y88374D01*
X369890Y88325D01*
X369968Y88279D01*
X370048Y88237D01*
X370130Y88198D01*
X370214Y88162D01*
X370298Y88130D01*
X370385Y88102D01*
X370472Y88077D01*
X370560Y88056D01*
X370649Y88039D01*
X370739Y88025D01*
X370829Y88016D01*
X370919Y88010D01*
X371010Y88008D01*
X373756Y88008D01*
X373756Y93500D01*
X373757Y93500D02*
X373755Y93585D01*
X373749Y93669D01*
X373739Y93753D01*
X373726Y93836D01*
X373708Y93919D01*
X373687Y94001D01*
X373662Y94082D01*
X373633Y94161D01*
X373601Y94240D01*
X373565Y94316D01*
X373526Y94391D01*
X373483Y94464D01*
X373437Y94535D01*
X373387Y94603D01*
X373335Y94670D01*
X373279Y94734D01*
X373221Y94795D01*
X373160Y94853D01*
X373096Y94909D01*
X373029Y94961D01*
X372961Y95011D01*
X372890Y95057D01*
X372817Y95100D01*
X372742Y95139D01*
X372666Y95175D01*
X372587Y95207D01*
X372508Y95236D01*
X372427Y95261D01*
X372345Y95282D01*
X372262Y95300D01*
X372179Y95313D01*
X372095Y95323D01*
X372011Y95329D01*
X371926Y95331D01*
X369485Y95331D01*
X379012Y95331D02*
X379012Y88008D01*
X379012Y95331D02*
X382063Y95331D01*
X382148Y95329D01*
X382232Y95323D01*
X382316Y95313D01*
X382399Y95300D01*
X382482Y95282D01*
X382564Y95261D01*
X382645Y95236D01*
X382724Y95207D01*
X382803Y95175D01*
X382879Y95139D01*
X382954Y95100D01*
X383027Y95057D01*
X383098Y95011D01*
X383166Y94961D01*
X383233Y94909D01*
X383297Y94853D01*
X383358Y94795D01*
X383416Y94734D01*
X383472Y94670D01*
X383524Y94603D01*
X383574Y94535D01*
X383620Y94464D01*
X383663Y94391D01*
X383702Y94316D01*
X383738Y94240D01*
X383770Y94161D01*
X383799Y94082D01*
X383824Y94001D01*
X383845Y93919D01*
X383863Y93836D01*
X383876Y93753D01*
X383886Y93669D01*
X383892Y93585D01*
X383894Y93500D01*
X383894Y88008D01*
X389092Y89839D02*
X389092Y95331D01*
X389092Y89839D02*
X389094Y89754D01*
X389100Y89670D01*
X389110Y89586D01*
X389123Y89503D01*
X389141Y89420D01*
X389162Y89338D01*
X389187Y89257D01*
X389216Y89178D01*
X389248Y89099D01*
X389284Y89023D01*
X389323Y88948D01*
X389366Y88875D01*
X389412Y88804D01*
X389462Y88736D01*
X389514Y88669D01*
X389570Y88605D01*
X389628Y88544D01*
X389689Y88486D01*
X389753Y88430D01*
X389820Y88378D01*
X389888Y88328D01*
X389959Y88282D01*
X390032Y88239D01*
X390107Y88200D01*
X390183Y88164D01*
X390262Y88132D01*
X390341Y88103D01*
X390422Y88078D01*
X390504Y88057D01*
X390587Y88039D01*
X390670Y88026D01*
X390754Y88016D01*
X390838Y88010D01*
X390923Y88008D01*
X393974Y88008D01*
X393974Y95331D01*
X400890Y92280D02*
X403636Y92280D01*
X400890Y92280D02*
X400799Y92278D01*
X400709Y92272D01*
X400619Y92263D01*
X400529Y92249D01*
X400440Y92232D01*
X400352Y92211D01*
X400265Y92186D01*
X400178Y92158D01*
X400094Y92126D01*
X400010Y92090D01*
X399928Y92051D01*
X399848Y92009D01*
X399770Y91963D01*
X399694Y91914D01*
X399620Y91861D01*
X399548Y91806D01*
X399479Y91747D01*
X399412Y91686D01*
X399348Y91622D01*
X399287Y91555D01*
X399228Y91486D01*
X399173Y91414D01*
X399120Y91340D01*
X399071Y91264D01*
X399025Y91186D01*
X398983Y91106D01*
X398944Y91024D01*
X398908Y90940D01*
X398876Y90856D01*
X398848Y90769D01*
X398823Y90682D01*
X398802Y90594D01*
X398785Y90505D01*
X398771Y90415D01*
X398762Y90325D01*
X398756Y90235D01*
X398754Y90144D01*
X398756Y90053D01*
X398762Y89963D01*
X398771Y89873D01*
X398785Y89783D01*
X398802Y89694D01*
X398823Y89606D01*
X398848Y89519D01*
X398876Y89432D01*
X398908Y89348D01*
X398944Y89264D01*
X398983Y89182D01*
X399025Y89102D01*
X399071Y89024D01*
X399120Y88948D01*
X399173Y88874D01*
X399228Y88802D01*
X399287Y88733D01*
X399348Y88666D01*
X399412Y88602D01*
X399479Y88541D01*
X399548Y88482D01*
X399620Y88427D01*
X399694Y88374D01*
X399770Y88325D01*
X399848Y88279D01*
X399928Y88237D01*
X400010Y88198D01*
X400094Y88162D01*
X400178Y88130D01*
X400265Y88102D01*
X400352Y88077D01*
X400440Y88056D01*
X400529Y88039D01*
X400619Y88025D01*
X400709Y88016D01*
X400799Y88010D01*
X400890Y88008D01*
X403636Y88008D01*
X403636Y93500D01*
X403637Y93500D02*
X403635Y93585D01*
X403629Y93669D01*
X403619Y93753D01*
X403606Y93836D01*
X403588Y93919D01*
X403567Y94001D01*
X403542Y94082D01*
X403513Y94161D01*
X403481Y94240D01*
X403445Y94316D01*
X403406Y94391D01*
X403363Y94464D01*
X403317Y94535D01*
X403267Y94603D01*
X403215Y94670D01*
X403159Y94734D01*
X403101Y94795D01*
X403040Y94853D01*
X402976Y94909D01*
X402909Y94961D01*
X402841Y95011D01*
X402770Y95057D01*
X402697Y95100D01*
X402622Y95139D01*
X402546Y95175D01*
X402467Y95207D01*
X402388Y95236D01*
X402307Y95261D01*
X402225Y95282D01*
X402142Y95300D01*
X402059Y95313D01*
X401975Y95323D01*
X401891Y95329D01*
X401806Y95331D01*
X399365Y95331D01*
X408667Y98992D02*
X408667Y89839D01*
X408666Y89839D02*
X408668Y89754D01*
X408674Y89670D01*
X408684Y89586D01*
X408697Y89503D01*
X408715Y89420D01*
X408736Y89338D01*
X408761Y89257D01*
X408790Y89178D01*
X408822Y89099D01*
X408858Y89023D01*
X408897Y88948D01*
X408940Y88875D01*
X408986Y88804D01*
X409036Y88736D01*
X409088Y88669D01*
X409144Y88605D01*
X409202Y88544D01*
X409263Y88486D01*
X409327Y88430D01*
X409394Y88378D01*
X409462Y88328D01*
X409533Y88282D01*
X409606Y88239D01*
X409681Y88200D01*
X409757Y88164D01*
X409836Y88132D01*
X409915Y88103D01*
X409996Y88078D01*
X410078Y88057D01*
X410161Y88039D01*
X410244Y88026D01*
X410328Y88016D01*
X410412Y88010D01*
X410497Y88008D01*
X420640Y88008D02*
X420640Y97161D01*
X420642Y97246D01*
X420648Y97330D01*
X420658Y97414D01*
X420671Y97497D01*
X420689Y97580D01*
X420710Y97662D01*
X420735Y97743D01*
X420764Y97822D01*
X420796Y97901D01*
X420832Y97977D01*
X420871Y98052D01*
X420914Y98125D01*
X420960Y98196D01*
X421010Y98264D01*
X421062Y98331D01*
X421118Y98395D01*
X421176Y98456D01*
X421237Y98514D01*
X421301Y98570D01*
X421368Y98622D01*
X421436Y98672D01*
X421507Y98718D01*
X421580Y98761D01*
X421655Y98800D01*
X421731Y98836D01*
X421810Y98868D01*
X421889Y98897D01*
X421970Y98922D01*
X422052Y98943D01*
X422135Y98961D01*
X422218Y98974D01*
X422302Y98984D01*
X422386Y98990D01*
X422471Y98992D01*
X423081Y98992D01*
X423081Y95331D02*
X419420Y95331D01*
X426172Y92890D02*
X426172Y90449D01*
X426172Y92890D02*
X426174Y92987D01*
X426180Y93084D01*
X426189Y93181D01*
X426203Y93277D01*
X426220Y93372D01*
X426241Y93467D01*
X426266Y93561D01*
X426294Y93654D01*
X426327Y93745D01*
X426362Y93835D01*
X426402Y93924D01*
X426445Y94011D01*
X426491Y94096D01*
X426541Y94180D01*
X426594Y94261D01*
X426650Y94340D01*
X426709Y94417D01*
X426771Y94492D01*
X426836Y94564D01*
X426904Y94633D01*
X426975Y94700D01*
X427048Y94763D01*
X427124Y94824D01*
X427202Y94882D01*
X427282Y94936D01*
X427365Y94988D01*
X427449Y95036D01*
X427535Y95080D01*
X427623Y95121D01*
X427713Y95159D01*
X427804Y95193D01*
X427896Y95223D01*
X427989Y95250D01*
X428083Y95273D01*
X428179Y95292D01*
X428274Y95307D01*
X428371Y95319D01*
X428467Y95327D01*
X428564Y95331D01*
X428662Y95331D01*
X428759Y95327D01*
X428855Y95319D01*
X428952Y95307D01*
X429047Y95292D01*
X429143Y95273D01*
X429237Y95250D01*
X429330Y95223D01*
X429422Y95193D01*
X429513Y95159D01*
X429603Y95121D01*
X429691Y95080D01*
X429777Y95036D01*
X429861Y94988D01*
X429944Y94936D01*
X430024Y94882D01*
X430102Y94824D01*
X430178Y94763D01*
X430251Y94700D01*
X430322Y94633D01*
X430390Y94564D01*
X430455Y94492D01*
X430517Y94417D01*
X430576Y94340D01*
X430632Y94261D01*
X430685Y94180D01*
X430735Y94096D01*
X430781Y94011D01*
X430824Y93924D01*
X430864Y93835D01*
X430899Y93745D01*
X430932Y93654D01*
X430960Y93561D01*
X430985Y93467D01*
X431006Y93372D01*
X431023Y93277D01*
X431037Y93181D01*
X431046Y93084D01*
X431052Y92987D01*
X431054Y92890D01*
X431054Y90449D01*
X431052Y90352D01*
X431046Y90255D01*
X431037Y90158D01*
X431023Y90062D01*
X431006Y89967D01*
X430985Y89872D01*
X430960Y89778D01*
X430932Y89685D01*
X430899Y89594D01*
X430864Y89504D01*
X430824Y89415D01*
X430781Y89328D01*
X430735Y89243D01*
X430685Y89159D01*
X430632Y89078D01*
X430576Y88999D01*
X430517Y88922D01*
X430455Y88847D01*
X430390Y88775D01*
X430322Y88706D01*
X430251Y88639D01*
X430178Y88576D01*
X430102Y88515D01*
X430024Y88457D01*
X429944Y88403D01*
X429861Y88351D01*
X429777Y88303D01*
X429691Y88259D01*
X429603Y88218D01*
X429513Y88180D01*
X429422Y88146D01*
X429330Y88116D01*
X429237Y88089D01*
X429143Y88066D01*
X429047Y88047D01*
X428952Y88032D01*
X428855Y88020D01*
X428759Y88012D01*
X428662Y88008D01*
X428564Y88008D01*
X428467Y88012D01*
X428371Y88020D01*
X428274Y88032D01*
X428179Y88047D01*
X428083Y88066D01*
X427989Y88089D01*
X427896Y88116D01*
X427804Y88146D01*
X427713Y88180D01*
X427623Y88218D01*
X427535Y88259D01*
X427449Y88303D01*
X427365Y88351D01*
X427282Y88403D01*
X427202Y88457D01*
X427124Y88515D01*
X427048Y88576D01*
X426975Y88639D01*
X426904Y88706D01*
X426836Y88775D01*
X426771Y88847D01*
X426709Y88922D01*
X426650Y88999D01*
X426594Y89078D01*
X426541Y89159D01*
X426491Y89243D01*
X426445Y89328D01*
X426402Y89415D01*
X426362Y89504D01*
X426327Y89594D01*
X426294Y89685D01*
X426266Y89778D01*
X426241Y89872D01*
X426220Y89967D01*
X426203Y90062D01*
X426189Y90158D01*
X426180Y90255D01*
X426174Y90352D01*
X426172Y90449D01*
X435956Y88008D02*
X435956Y95331D01*
X439618Y95331D01*
X439618Y94110D01*
X449440Y97161D02*
X449440Y88008D01*
X449440Y97161D02*
X449442Y97246D01*
X449448Y97330D01*
X449458Y97414D01*
X449471Y97497D01*
X449489Y97580D01*
X449510Y97662D01*
X449535Y97743D01*
X449564Y97822D01*
X449596Y97901D01*
X449632Y97977D01*
X449671Y98052D01*
X449714Y98125D01*
X449760Y98196D01*
X449810Y98264D01*
X449862Y98331D01*
X449918Y98395D01*
X449976Y98456D01*
X450037Y98514D01*
X450101Y98570D01*
X450168Y98622D01*
X450236Y98672D01*
X450307Y98718D01*
X450380Y98761D01*
X450455Y98800D01*
X450531Y98836D01*
X450610Y98868D01*
X450689Y98897D01*
X450770Y98922D01*
X450852Y98943D01*
X450935Y98961D01*
X451018Y98974D01*
X451102Y98984D01*
X451186Y98990D01*
X451271Y98992D01*
X451881Y98992D01*
X451881Y95331D02*
X448220Y95331D01*
X455332Y95331D02*
X455332Y89839D01*
X455331Y89839D02*
X455333Y89754D01*
X455339Y89670D01*
X455349Y89586D01*
X455362Y89503D01*
X455380Y89420D01*
X455401Y89338D01*
X455426Y89257D01*
X455455Y89178D01*
X455487Y89099D01*
X455523Y89023D01*
X455562Y88948D01*
X455605Y88875D01*
X455651Y88804D01*
X455701Y88736D01*
X455753Y88669D01*
X455809Y88605D01*
X455867Y88544D01*
X455928Y88486D01*
X455992Y88430D01*
X456059Y88378D01*
X456127Y88328D01*
X456198Y88282D01*
X456271Y88239D01*
X456346Y88200D01*
X456422Y88164D01*
X456501Y88132D01*
X456580Y88103D01*
X456661Y88078D01*
X456743Y88057D01*
X456826Y88039D01*
X456909Y88026D01*
X456993Y88016D01*
X457077Y88010D01*
X457162Y88008D01*
X460213Y88008D01*
X460213Y95331D01*
X465476Y95331D02*
X465476Y88008D01*
X465476Y95331D02*
X469138Y95331D01*
X469138Y94110D01*
X471692Y95331D02*
X475353Y95331D01*
X472913Y98992D02*
X472913Y89839D01*
X472912Y89839D02*
X472914Y89754D01*
X472920Y89670D01*
X472930Y89586D01*
X472943Y89503D01*
X472961Y89420D01*
X472982Y89338D01*
X473007Y89257D01*
X473036Y89178D01*
X473068Y89099D01*
X473104Y89023D01*
X473143Y88948D01*
X473186Y88875D01*
X473232Y88804D01*
X473282Y88736D01*
X473334Y88669D01*
X473390Y88605D01*
X473448Y88544D01*
X473509Y88486D01*
X473573Y88430D01*
X473640Y88378D01*
X473708Y88328D01*
X473779Y88282D01*
X473852Y88239D01*
X473927Y88200D01*
X474003Y88164D01*
X474082Y88132D01*
X474161Y88103D01*
X474242Y88078D01*
X474324Y88057D01*
X474407Y88039D01*
X474490Y88026D01*
X474574Y88016D01*
X474658Y88010D01*
X474743Y88008D01*
X475353Y88008D01*
X479812Y88008D02*
X479812Y98992D01*
X479812Y95331D02*
X482863Y95331D01*
X482948Y95329D01*
X483032Y95323D01*
X483116Y95313D01*
X483199Y95300D01*
X483282Y95282D01*
X483364Y95261D01*
X483445Y95236D01*
X483524Y95207D01*
X483603Y95175D01*
X483679Y95139D01*
X483754Y95100D01*
X483827Y95057D01*
X483898Y95011D01*
X483966Y94961D01*
X484033Y94909D01*
X484097Y94853D01*
X484158Y94795D01*
X484216Y94734D01*
X484272Y94670D01*
X484324Y94603D01*
X484374Y94535D01*
X484420Y94464D01*
X484463Y94391D01*
X484502Y94316D01*
X484538Y94240D01*
X484570Y94161D01*
X484599Y94082D01*
X484624Y94001D01*
X484645Y93919D01*
X484663Y93836D01*
X484676Y93753D01*
X484686Y93669D01*
X484692Y93585D01*
X484694Y93500D01*
X484693Y93500D02*
X484693Y88008D01*
X491362Y88008D02*
X494413Y88008D01*
X491362Y88008D02*
X491277Y88010D01*
X491193Y88016D01*
X491109Y88026D01*
X491026Y88039D01*
X490943Y88057D01*
X490861Y88078D01*
X490780Y88103D01*
X490701Y88132D01*
X490622Y88164D01*
X490546Y88200D01*
X490471Y88239D01*
X490398Y88282D01*
X490327Y88328D01*
X490259Y88378D01*
X490192Y88430D01*
X490128Y88486D01*
X490067Y88544D01*
X490009Y88605D01*
X489953Y88669D01*
X489901Y88736D01*
X489851Y88804D01*
X489805Y88875D01*
X489762Y88948D01*
X489723Y89023D01*
X489687Y89099D01*
X489655Y89178D01*
X489626Y89257D01*
X489601Y89338D01*
X489580Y89420D01*
X489562Y89503D01*
X489549Y89586D01*
X489539Y89670D01*
X489533Y89754D01*
X489531Y89839D01*
X489532Y89839D02*
X489532Y92890D01*
X489534Y92987D01*
X489540Y93084D01*
X489549Y93181D01*
X489563Y93277D01*
X489580Y93372D01*
X489601Y93467D01*
X489626Y93561D01*
X489654Y93654D01*
X489687Y93745D01*
X489722Y93835D01*
X489762Y93924D01*
X489805Y94011D01*
X489851Y94096D01*
X489901Y94180D01*
X489954Y94261D01*
X490010Y94340D01*
X490069Y94417D01*
X490131Y94492D01*
X490196Y94564D01*
X490264Y94633D01*
X490335Y94700D01*
X490408Y94763D01*
X490484Y94824D01*
X490562Y94882D01*
X490642Y94936D01*
X490725Y94988D01*
X490809Y95036D01*
X490895Y95080D01*
X490983Y95121D01*
X491073Y95159D01*
X491164Y95193D01*
X491256Y95223D01*
X491349Y95250D01*
X491443Y95273D01*
X491539Y95292D01*
X491634Y95307D01*
X491731Y95319D01*
X491827Y95327D01*
X491924Y95331D01*
X492022Y95331D01*
X492119Y95327D01*
X492215Y95319D01*
X492312Y95307D01*
X492407Y95292D01*
X492503Y95273D01*
X492597Y95250D01*
X492690Y95223D01*
X492782Y95193D01*
X492873Y95159D01*
X492963Y95121D01*
X493051Y95080D01*
X493137Y95036D01*
X493221Y94988D01*
X493304Y94936D01*
X493384Y94882D01*
X493462Y94824D01*
X493538Y94763D01*
X493611Y94700D01*
X493682Y94633D01*
X493750Y94564D01*
X493815Y94492D01*
X493877Y94417D01*
X493936Y94340D01*
X493992Y94261D01*
X494045Y94180D01*
X494095Y94096D01*
X494141Y94011D01*
X494184Y93924D01*
X494224Y93835D01*
X494259Y93745D01*
X494292Y93654D01*
X494320Y93561D01*
X494345Y93467D01*
X494366Y93372D01*
X494383Y93277D01*
X494397Y93181D01*
X494406Y93084D01*
X494412Y92987D01*
X494414Y92890D01*
X494413Y92890D02*
X494413Y91669D01*
X489532Y91669D01*
X499316Y88008D02*
X499316Y95331D01*
X502978Y95331D01*
X502978Y94110D01*
X512132Y95331D02*
X512132Y88008D01*
X511827Y98382D02*
X511827Y98992D01*
X512438Y98992D01*
X512438Y98382D01*
X511827Y98382D01*
X516892Y95331D02*
X516892Y88008D01*
X516892Y95331D02*
X519943Y95331D01*
X520028Y95329D01*
X520112Y95323D01*
X520196Y95313D01*
X520279Y95300D01*
X520362Y95282D01*
X520444Y95261D01*
X520525Y95236D01*
X520604Y95207D01*
X520683Y95175D01*
X520759Y95139D01*
X520834Y95100D01*
X520907Y95057D01*
X520978Y95011D01*
X521046Y94961D01*
X521113Y94909D01*
X521177Y94853D01*
X521238Y94795D01*
X521296Y94734D01*
X521352Y94670D01*
X521404Y94603D01*
X521454Y94535D01*
X521500Y94464D01*
X521543Y94391D01*
X521582Y94316D01*
X521618Y94240D01*
X521650Y94161D01*
X521679Y94082D01*
X521704Y94001D01*
X521725Y93919D01*
X521743Y93836D01*
X521756Y93753D01*
X521766Y93669D01*
X521772Y93585D01*
X521774Y93500D01*
X521773Y93500D02*
X521773Y88008D01*
X527200Y88008D02*
X527200Y97161D01*
X527202Y97246D01*
X527208Y97330D01*
X527218Y97414D01*
X527231Y97497D01*
X527249Y97580D01*
X527270Y97662D01*
X527295Y97743D01*
X527324Y97822D01*
X527356Y97901D01*
X527392Y97977D01*
X527431Y98052D01*
X527474Y98125D01*
X527520Y98196D01*
X527570Y98264D01*
X527622Y98331D01*
X527678Y98395D01*
X527736Y98456D01*
X527797Y98514D01*
X527861Y98570D01*
X527928Y98622D01*
X527996Y98672D01*
X528067Y98718D01*
X528140Y98761D01*
X528215Y98800D01*
X528291Y98836D01*
X528370Y98868D01*
X528449Y98897D01*
X528530Y98922D01*
X528612Y98943D01*
X528695Y98961D01*
X528778Y98974D01*
X528862Y98984D01*
X528946Y98990D01*
X529031Y98992D01*
X529641Y98992D01*
X529641Y95331D02*
X525979Y95331D01*
X532732Y92890D02*
X532732Y90449D01*
X532731Y92890D02*
X532733Y92987D01*
X532739Y93084D01*
X532748Y93181D01*
X532762Y93277D01*
X532779Y93372D01*
X532800Y93467D01*
X532825Y93561D01*
X532853Y93654D01*
X532886Y93745D01*
X532921Y93835D01*
X532961Y93924D01*
X533004Y94011D01*
X533050Y94096D01*
X533100Y94180D01*
X533153Y94261D01*
X533209Y94340D01*
X533268Y94417D01*
X533330Y94492D01*
X533395Y94564D01*
X533463Y94633D01*
X533534Y94700D01*
X533607Y94763D01*
X533683Y94824D01*
X533761Y94882D01*
X533841Y94936D01*
X533924Y94988D01*
X534008Y95036D01*
X534094Y95080D01*
X534182Y95121D01*
X534272Y95159D01*
X534363Y95193D01*
X534455Y95223D01*
X534548Y95250D01*
X534642Y95273D01*
X534738Y95292D01*
X534833Y95307D01*
X534930Y95319D01*
X535026Y95327D01*
X535123Y95331D01*
X535221Y95331D01*
X535318Y95327D01*
X535414Y95319D01*
X535511Y95307D01*
X535606Y95292D01*
X535702Y95273D01*
X535796Y95250D01*
X535889Y95223D01*
X535981Y95193D01*
X536072Y95159D01*
X536162Y95121D01*
X536250Y95080D01*
X536336Y95036D01*
X536420Y94988D01*
X536503Y94936D01*
X536583Y94882D01*
X536661Y94824D01*
X536737Y94763D01*
X536810Y94700D01*
X536881Y94633D01*
X536949Y94564D01*
X537014Y94492D01*
X537076Y94417D01*
X537135Y94340D01*
X537191Y94261D01*
X537244Y94180D01*
X537294Y94096D01*
X537340Y94011D01*
X537383Y93924D01*
X537423Y93835D01*
X537458Y93745D01*
X537491Y93654D01*
X537519Y93561D01*
X537544Y93467D01*
X537565Y93372D01*
X537582Y93277D01*
X537596Y93181D01*
X537605Y93084D01*
X537611Y92987D01*
X537613Y92890D01*
X537613Y90449D01*
X537611Y90352D01*
X537605Y90255D01*
X537596Y90158D01*
X537582Y90062D01*
X537565Y89967D01*
X537544Y89872D01*
X537519Y89778D01*
X537491Y89685D01*
X537458Y89594D01*
X537423Y89504D01*
X537383Y89415D01*
X537340Y89328D01*
X537294Y89243D01*
X537244Y89159D01*
X537191Y89078D01*
X537135Y88999D01*
X537076Y88922D01*
X537014Y88847D01*
X536949Y88775D01*
X536881Y88706D01*
X536810Y88639D01*
X536737Y88576D01*
X536661Y88515D01*
X536583Y88457D01*
X536503Y88403D01*
X536420Y88351D01*
X536336Y88303D01*
X536250Y88259D01*
X536162Y88218D01*
X536072Y88180D01*
X535981Y88146D01*
X535889Y88116D01*
X535796Y88089D01*
X535702Y88066D01*
X535606Y88047D01*
X535511Y88032D01*
X535414Y88020D01*
X535318Y88012D01*
X535221Y88008D01*
X535123Y88008D01*
X535026Y88012D01*
X534930Y88020D01*
X534833Y88032D01*
X534738Y88047D01*
X534642Y88066D01*
X534548Y88089D01*
X534455Y88116D01*
X534363Y88146D01*
X534272Y88180D01*
X534182Y88218D01*
X534094Y88259D01*
X534008Y88303D01*
X533924Y88351D01*
X533841Y88403D01*
X533761Y88457D01*
X533683Y88515D01*
X533607Y88576D01*
X533534Y88639D01*
X533463Y88706D01*
X533395Y88775D01*
X533330Y88847D01*
X533268Y88922D01*
X533209Y88999D01*
X533153Y89078D01*
X533100Y89159D01*
X533050Y89243D01*
X533004Y89328D01*
X532961Y89415D01*
X532921Y89504D01*
X532886Y89594D01*
X532853Y89685D01*
X532825Y89778D01*
X532800Y89872D01*
X532779Y89967D01*
X532762Y90062D01*
X532748Y90158D01*
X532739Y90255D01*
X532733Y90352D01*
X532731Y90449D01*
X542516Y88008D02*
X542516Y95331D01*
X546177Y95331D01*
X546177Y94110D01*
X550231Y95331D02*
X550231Y88008D01*
X550231Y95331D02*
X555723Y95331D01*
X555808Y95329D01*
X555892Y95323D01*
X555976Y95313D01*
X556059Y95300D01*
X556142Y95282D01*
X556224Y95261D01*
X556305Y95236D01*
X556384Y95207D01*
X556463Y95175D01*
X556539Y95139D01*
X556614Y95100D01*
X556687Y95057D01*
X556758Y95011D01*
X556826Y94961D01*
X556893Y94909D01*
X556957Y94853D01*
X557018Y94795D01*
X557076Y94734D01*
X557132Y94670D01*
X557184Y94603D01*
X557234Y94535D01*
X557280Y94464D01*
X557323Y94391D01*
X557362Y94316D01*
X557398Y94240D01*
X557430Y94161D01*
X557459Y94082D01*
X557484Y94001D01*
X557505Y93919D01*
X557523Y93836D01*
X557536Y93753D01*
X557546Y93669D01*
X557552Y93585D01*
X557554Y93500D01*
X557554Y88008D01*
X553892Y88008D02*
X553892Y95331D01*
X564690Y92280D02*
X567436Y92280D01*
X564690Y92280D02*
X564599Y92278D01*
X564509Y92272D01*
X564419Y92263D01*
X564329Y92249D01*
X564240Y92232D01*
X564152Y92211D01*
X564065Y92186D01*
X563978Y92158D01*
X563894Y92126D01*
X563810Y92090D01*
X563728Y92051D01*
X563648Y92009D01*
X563570Y91963D01*
X563494Y91914D01*
X563420Y91861D01*
X563348Y91806D01*
X563279Y91747D01*
X563212Y91686D01*
X563148Y91622D01*
X563087Y91555D01*
X563028Y91486D01*
X562973Y91414D01*
X562920Y91340D01*
X562871Y91264D01*
X562825Y91186D01*
X562783Y91106D01*
X562744Y91024D01*
X562708Y90940D01*
X562676Y90856D01*
X562648Y90769D01*
X562623Y90682D01*
X562602Y90594D01*
X562585Y90505D01*
X562571Y90415D01*
X562562Y90325D01*
X562556Y90235D01*
X562554Y90144D01*
X562556Y90053D01*
X562562Y89963D01*
X562571Y89873D01*
X562585Y89783D01*
X562602Y89694D01*
X562623Y89606D01*
X562648Y89519D01*
X562676Y89432D01*
X562708Y89348D01*
X562744Y89264D01*
X562783Y89182D01*
X562825Y89102D01*
X562871Y89024D01*
X562920Y88948D01*
X562973Y88874D01*
X563028Y88802D01*
X563087Y88733D01*
X563148Y88666D01*
X563212Y88602D01*
X563279Y88541D01*
X563348Y88482D01*
X563420Y88427D01*
X563494Y88374D01*
X563570Y88325D01*
X563648Y88279D01*
X563728Y88237D01*
X563810Y88198D01*
X563894Y88162D01*
X563978Y88130D01*
X564065Y88102D01*
X564152Y88077D01*
X564240Y88056D01*
X564329Y88039D01*
X564419Y88025D01*
X564509Y88016D01*
X564599Y88010D01*
X564690Y88008D01*
X567436Y88008D01*
X567436Y93500D01*
X567434Y93585D01*
X567428Y93669D01*
X567418Y93753D01*
X567405Y93836D01*
X567387Y93919D01*
X567366Y94001D01*
X567341Y94082D01*
X567312Y94161D01*
X567280Y94240D01*
X567244Y94316D01*
X567205Y94391D01*
X567162Y94464D01*
X567116Y94535D01*
X567066Y94603D01*
X567014Y94670D01*
X566958Y94734D01*
X566900Y94795D01*
X566839Y94853D01*
X566775Y94909D01*
X566708Y94961D01*
X566640Y95011D01*
X566569Y95057D01*
X566496Y95100D01*
X566421Y95139D01*
X566345Y95175D01*
X566266Y95207D01*
X566187Y95236D01*
X566106Y95261D01*
X566024Y95282D01*
X565941Y95300D01*
X565858Y95313D01*
X565774Y95323D01*
X565690Y95329D01*
X565605Y95331D01*
X563164Y95331D01*
X571412Y95331D02*
X575073Y95331D01*
X572632Y98992D02*
X572632Y89839D01*
X572634Y89754D01*
X572640Y89670D01*
X572650Y89586D01*
X572663Y89503D01*
X572681Y89420D01*
X572702Y89338D01*
X572727Y89257D01*
X572756Y89178D01*
X572788Y89099D01*
X572824Y89023D01*
X572863Y88948D01*
X572906Y88875D01*
X572952Y88804D01*
X573002Y88736D01*
X573054Y88669D01*
X573110Y88605D01*
X573168Y88544D01*
X573229Y88486D01*
X573293Y88430D01*
X573360Y88378D01*
X573428Y88328D01*
X573499Y88282D01*
X573572Y88239D01*
X573647Y88200D01*
X573723Y88164D01*
X573802Y88132D01*
X573881Y88103D01*
X573962Y88078D01*
X574044Y88057D01*
X574127Y88039D01*
X574210Y88026D01*
X574294Y88016D01*
X574378Y88010D01*
X574463Y88008D01*
X575073Y88008D01*
X579092Y88008D02*
X579092Y95331D01*
X578787Y98382D02*
X578787Y98992D01*
X579397Y98992D01*
X579397Y98382D01*
X578787Y98382D01*
X583491Y92890D02*
X583491Y90449D01*
X583491Y92890D02*
X583493Y92987D01*
X583499Y93084D01*
X583508Y93181D01*
X583522Y93277D01*
X583539Y93372D01*
X583560Y93467D01*
X583585Y93561D01*
X583613Y93654D01*
X583646Y93745D01*
X583681Y93835D01*
X583721Y93924D01*
X583764Y94011D01*
X583810Y94096D01*
X583860Y94180D01*
X583913Y94261D01*
X583969Y94340D01*
X584028Y94417D01*
X584090Y94492D01*
X584155Y94564D01*
X584223Y94633D01*
X584294Y94700D01*
X584367Y94763D01*
X584443Y94824D01*
X584521Y94882D01*
X584601Y94936D01*
X584684Y94988D01*
X584768Y95036D01*
X584854Y95080D01*
X584942Y95121D01*
X585032Y95159D01*
X585123Y95193D01*
X585215Y95223D01*
X585308Y95250D01*
X585402Y95273D01*
X585498Y95292D01*
X585593Y95307D01*
X585690Y95319D01*
X585786Y95327D01*
X585883Y95331D01*
X585981Y95331D01*
X586078Y95327D01*
X586174Y95319D01*
X586271Y95307D01*
X586366Y95292D01*
X586462Y95273D01*
X586556Y95250D01*
X586649Y95223D01*
X586741Y95193D01*
X586832Y95159D01*
X586922Y95121D01*
X587010Y95080D01*
X587096Y95036D01*
X587180Y94988D01*
X587263Y94936D01*
X587343Y94882D01*
X587421Y94824D01*
X587497Y94763D01*
X587570Y94700D01*
X587641Y94633D01*
X587709Y94564D01*
X587774Y94492D01*
X587836Y94417D01*
X587895Y94340D01*
X587951Y94261D01*
X588004Y94180D01*
X588054Y94096D01*
X588100Y94011D01*
X588143Y93924D01*
X588183Y93835D01*
X588218Y93745D01*
X588251Y93654D01*
X588279Y93561D01*
X588304Y93467D01*
X588325Y93372D01*
X588342Y93277D01*
X588356Y93181D01*
X588365Y93084D01*
X588371Y92987D01*
X588373Y92890D01*
X588373Y90449D01*
X588371Y90352D01*
X588365Y90255D01*
X588356Y90158D01*
X588342Y90062D01*
X588325Y89967D01*
X588304Y89872D01*
X588279Y89778D01*
X588251Y89685D01*
X588218Y89594D01*
X588183Y89504D01*
X588143Y89415D01*
X588100Y89328D01*
X588054Y89243D01*
X588004Y89159D01*
X587951Y89078D01*
X587895Y88999D01*
X587836Y88922D01*
X587774Y88847D01*
X587709Y88775D01*
X587641Y88706D01*
X587570Y88639D01*
X587497Y88576D01*
X587421Y88515D01*
X587343Y88457D01*
X587263Y88403D01*
X587180Y88351D01*
X587096Y88303D01*
X587010Y88259D01*
X586922Y88218D01*
X586832Y88180D01*
X586741Y88146D01*
X586649Y88116D01*
X586556Y88089D01*
X586462Y88066D01*
X586366Y88047D01*
X586271Y88032D01*
X586174Y88020D01*
X586078Y88012D01*
X585981Y88008D01*
X585883Y88008D01*
X585786Y88012D01*
X585690Y88020D01*
X585593Y88032D01*
X585498Y88047D01*
X585402Y88066D01*
X585308Y88089D01*
X585215Y88116D01*
X585123Y88146D01*
X585032Y88180D01*
X584942Y88218D01*
X584854Y88259D01*
X584768Y88303D01*
X584684Y88351D01*
X584601Y88403D01*
X584521Y88457D01*
X584443Y88515D01*
X584367Y88576D01*
X584294Y88639D01*
X584223Y88706D01*
X584155Y88775D01*
X584090Y88847D01*
X584028Y88922D01*
X583969Y88999D01*
X583913Y89078D01*
X583860Y89159D01*
X583810Y89243D01*
X583764Y89328D01*
X583721Y89415D01*
X583681Y89504D01*
X583646Y89594D01*
X583613Y89685D01*
X583585Y89778D01*
X583560Y89872D01*
X583539Y89967D01*
X583522Y90062D01*
X583508Y90158D01*
X583499Y90255D01*
X583493Y90352D01*
X583491Y90449D01*
X593211Y88008D02*
X593211Y95331D01*
X596263Y95331D01*
X596348Y95329D01*
X596432Y95323D01*
X596516Y95313D01*
X596599Y95300D01*
X596682Y95282D01*
X596764Y95261D01*
X596845Y95236D01*
X596924Y95207D01*
X597003Y95175D01*
X597079Y95139D01*
X597154Y95100D01*
X597227Y95057D01*
X597298Y95011D01*
X597366Y94961D01*
X597433Y94909D01*
X597497Y94853D01*
X597558Y94795D01*
X597616Y94734D01*
X597672Y94670D01*
X597724Y94603D01*
X597774Y94535D01*
X597820Y94464D01*
X597863Y94391D01*
X597902Y94316D01*
X597938Y94240D01*
X597970Y94161D01*
X597999Y94082D01*
X598024Y94001D01*
X598045Y93919D01*
X598063Y93836D01*
X598076Y93753D01*
X598086Y93669D01*
X598092Y93585D01*
X598094Y93500D01*
X598093Y93500D02*
X598093Y88008D01*
X608612Y91669D02*
X608612Y98992D01*
X608307Y88618D02*
X608307Y88008D01*
X608307Y88618D02*
X608917Y88618D01*
X608917Y88008D01*
X608307Y88008D01*
D11*
X240579Y-27053D02*
X228262Y-27053D01*
X234421Y-33212D02*
X234421Y-20894D01*
X230762Y-83791D02*
X238974Y-83791D01*
D12*
X245000Y-103600D02*
X245000Y-6400D01*
X245000Y-103600D02*
X425000Y-103600D01*
X425000Y-6400D01*
X352200Y-6400D01*
X317800Y-6400D01*
X245000Y-6400D01*
X317800Y-6400D02*
X317800Y8000D01*
X352200Y8000D01*
X352200Y-6400D01*
D13*
X427881Y-2119D02*
X434040Y7119D01*
X427881Y7119D02*
X434040Y-2119D01*
X437394Y5066D02*
X439960Y7119D01*
X439960Y-2119D01*
X437394Y-2119D02*
X442526Y-2119D01*
D12*
X454000Y-35000D02*
X465000Y-35000D01*
X585000Y-35000D02*
X596000Y-35000D01*
X596000Y-102000D01*
X454000Y-102000D01*
X454000Y-35000D01*
X454000Y-42000D02*
X458000Y-42000D01*
X592000Y-42000D01*
X596000Y-42000D01*
X465000Y-35000D02*
X458000Y-42000D01*
X585000Y-35000D02*
X592000Y-42000D01*
D10*
X562003Y-16992D02*
X562003Y-5308D01*
X567196Y-5308D01*
X567196Y-10501D02*
X562003Y-10501D01*
X571506Y-7904D02*
X574751Y-5308D01*
X574751Y-16992D01*
X571506Y-16992D02*
X577997Y-16992D01*
X563960Y-34492D02*
X560715Y-34492D01*
X563960Y-34492D02*
X564073Y-34490D01*
X564186Y-34484D01*
X564299Y-34474D01*
X564412Y-34460D01*
X564524Y-34443D01*
X564635Y-34421D01*
X564745Y-34396D01*
X564855Y-34366D01*
X564963Y-34333D01*
X565070Y-34296D01*
X565176Y-34256D01*
X565280Y-34211D01*
X565383Y-34163D01*
X565484Y-34112D01*
X565583Y-34057D01*
X565680Y-33999D01*
X565775Y-33937D01*
X565868Y-33872D01*
X565958Y-33804D01*
X566046Y-33733D01*
X566132Y-33658D01*
X566215Y-33581D01*
X566295Y-33501D01*
X566372Y-33418D01*
X566447Y-33332D01*
X566518Y-33244D01*
X566586Y-33154D01*
X566651Y-33061D01*
X566713Y-32966D01*
X566771Y-32869D01*
X566826Y-32770D01*
X566877Y-32669D01*
X566925Y-32566D01*
X566970Y-32462D01*
X567010Y-32356D01*
X567047Y-32249D01*
X567080Y-32141D01*
X567110Y-32031D01*
X567135Y-31921D01*
X567157Y-31810D01*
X567174Y-31698D01*
X567188Y-31585D01*
X567198Y-31472D01*
X567204Y-31359D01*
X567206Y-31246D01*
X567204Y-31133D01*
X567198Y-31020D01*
X567188Y-30907D01*
X567174Y-30794D01*
X567157Y-30682D01*
X567135Y-30571D01*
X567110Y-30461D01*
X567080Y-30351D01*
X567047Y-30243D01*
X567010Y-30136D01*
X566970Y-30030D01*
X566925Y-29926D01*
X566877Y-29823D01*
X566826Y-29722D01*
X566771Y-29623D01*
X566713Y-29526D01*
X566651Y-29431D01*
X566586Y-29338D01*
X566518Y-29248D01*
X566447Y-29160D01*
X566372Y-29074D01*
X566295Y-28991D01*
X566215Y-28911D01*
X566132Y-28834D01*
X566046Y-28759D01*
X565958Y-28688D01*
X565868Y-28620D01*
X565775Y-28555D01*
X565680Y-28493D01*
X565583Y-28435D01*
X565484Y-28380D01*
X565383Y-28329D01*
X565280Y-28281D01*
X565176Y-28236D01*
X565070Y-28196D01*
X564963Y-28159D01*
X564855Y-28126D01*
X564745Y-28096D01*
X564635Y-28071D01*
X564524Y-28049D01*
X564412Y-28032D01*
X564299Y-28018D01*
X564186Y-28008D01*
X564073Y-28002D01*
X563960Y-28000D01*
X564610Y-22808D02*
X560715Y-22808D01*
X564610Y-22808D02*
X564711Y-22810D01*
X564811Y-22816D01*
X564911Y-22826D01*
X565011Y-22839D01*
X565110Y-22857D01*
X565209Y-22878D01*
X565306Y-22903D01*
X565403Y-22932D01*
X565498Y-22965D01*
X565592Y-23001D01*
X565684Y-23041D01*
X565775Y-23084D01*
X565864Y-23131D01*
X565951Y-23181D01*
X566037Y-23235D01*
X566120Y-23292D01*
X566200Y-23352D01*
X566279Y-23415D01*
X566355Y-23482D01*
X566428Y-23551D01*
X566498Y-23623D01*
X566566Y-23697D01*
X566631Y-23774D01*
X566692Y-23854D01*
X566751Y-23936D01*
X566806Y-24020D01*
X566858Y-24106D01*
X566907Y-24194D01*
X566952Y-24284D01*
X566994Y-24376D01*
X567032Y-24469D01*
X567066Y-24564D01*
X567097Y-24659D01*
X567124Y-24756D01*
X567147Y-24854D01*
X567167Y-24953D01*
X567182Y-25053D01*
X567194Y-25153D01*
X567202Y-25253D01*
X567206Y-25354D01*
X567206Y-25454D01*
X567202Y-25555D01*
X567194Y-25655D01*
X567182Y-25755D01*
X567167Y-25855D01*
X567147Y-25954D01*
X567124Y-26052D01*
X567097Y-26149D01*
X567066Y-26244D01*
X567032Y-26339D01*
X566994Y-26432D01*
X566952Y-26524D01*
X566907Y-26614D01*
X566858Y-26702D01*
X566806Y-26788D01*
X566751Y-26872D01*
X566692Y-26954D01*
X566631Y-27034D01*
X566566Y-27111D01*
X566498Y-27185D01*
X566428Y-27257D01*
X566355Y-27326D01*
X566279Y-27393D01*
X566200Y-27456D01*
X566120Y-27516D01*
X566037Y-27573D01*
X565951Y-27627D01*
X565864Y-27677D01*
X565775Y-27724D01*
X565684Y-27767D01*
X565592Y-27807D01*
X565498Y-27843D01*
X565403Y-27876D01*
X565306Y-27905D01*
X565209Y-27930D01*
X565110Y-27951D01*
X565011Y-27969D01*
X564911Y-27982D01*
X564811Y-27992D01*
X564711Y-27998D01*
X564610Y-28000D01*
X564610Y-28001D02*
X562013Y-28001D01*
X571496Y-34492D02*
X575390Y-22808D01*
X579285Y-34492D01*
X578311Y-31571D02*
X572469Y-31571D01*
D12*
X604000Y-35000D02*
X615000Y-35000D01*
X735000Y-35000D02*
X746000Y-35000D01*
X746000Y-102000D01*
X604000Y-102000D01*
X604000Y-35000D01*
X604000Y-42000D02*
X608000Y-42000D01*
X742000Y-42000D01*
X746000Y-42000D01*
X615000Y-35000D02*
X608000Y-42000D01*
X735000Y-35000D02*
X742000Y-42000D01*
D10*
X712003Y-16992D02*
X712003Y-5308D01*
X717196Y-5308D01*
X717196Y-10501D02*
X712003Y-10501D01*
X725076Y-5308D02*
X725183Y-5310D01*
X725289Y-5316D01*
X725395Y-5326D01*
X725501Y-5339D01*
X725607Y-5357D01*
X725711Y-5378D01*
X725815Y-5403D01*
X725918Y-5432D01*
X726019Y-5464D01*
X726119Y-5501D01*
X726218Y-5541D01*
X726316Y-5584D01*
X726412Y-5631D01*
X726506Y-5682D01*
X726598Y-5736D01*
X726688Y-5793D01*
X726776Y-5853D01*
X726861Y-5917D01*
X726944Y-5984D01*
X727025Y-6054D01*
X727103Y-6126D01*
X727179Y-6202D01*
X727251Y-6280D01*
X727321Y-6361D01*
X727388Y-6444D01*
X727452Y-6529D01*
X727512Y-6617D01*
X727569Y-6707D01*
X727623Y-6799D01*
X727674Y-6893D01*
X727721Y-6989D01*
X727764Y-7087D01*
X727804Y-7186D01*
X727841Y-7286D01*
X727873Y-7387D01*
X727902Y-7490D01*
X727927Y-7594D01*
X727948Y-7698D01*
X727966Y-7804D01*
X727979Y-7910D01*
X727989Y-8016D01*
X727995Y-8122D01*
X727997Y-8229D01*
X725076Y-5308D02*
X724955Y-5310D01*
X724834Y-5316D01*
X724714Y-5326D01*
X724593Y-5339D01*
X724474Y-5357D01*
X724354Y-5378D01*
X724236Y-5403D01*
X724119Y-5432D01*
X724002Y-5465D01*
X723887Y-5501D01*
X723773Y-5542D01*
X723660Y-5585D01*
X723548Y-5633D01*
X723439Y-5684D01*
X723331Y-5739D01*
X723224Y-5797D01*
X723120Y-5858D01*
X723018Y-5923D01*
X722918Y-5991D01*
X722820Y-6062D01*
X722724Y-6136D01*
X722631Y-6213D01*
X722541Y-6294D01*
X722453Y-6377D01*
X722368Y-6463D01*
X722285Y-6552D01*
X722206Y-6643D01*
X722129Y-6737D01*
X722056Y-6833D01*
X721986Y-6931D01*
X721919Y-7032D01*
X721855Y-7135D01*
X721795Y-7240D01*
X721737Y-7347D01*
X721684Y-7455D01*
X721634Y-7565D01*
X721588Y-7677D01*
X721545Y-7790D01*
X721506Y-7905D01*
X727022Y-10501D02*
X727101Y-10423D01*
X727177Y-10343D01*
X727250Y-10260D01*
X727320Y-10174D01*
X727387Y-10087D01*
X727451Y-9996D01*
X727511Y-9904D01*
X727569Y-9810D01*
X727623Y-9713D01*
X727673Y-9615D01*
X727720Y-9515D01*
X727764Y-9414D01*
X727804Y-9311D01*
X727840Y-9206D01*
X727872Y-9101D01*
X727901Y-8994D01*
X727926Y-8887D01*
X727948Y-8778D01*
X727965Y-8669D01*
X727979Y-8560D01*
X727988Y-8450D01*
X727994Y-8339D01*
X727996Y-8229D01*
X727023Y-10501D02*
X721506Y-16992D01*
X727997Y-16992D01*
X717206Y-25729D02*
X717204Y-25622D01*
X717198Y-25516D01*
X717188Y-25410D01*
X717175Y-25304D01*
X717157Y-25198D01*
X717136Y-25094D01*
X717111Y-24990D01*
X717082Y-24887D01*
X717050Y-24786D01*
X717013Y-24686D01*
X716973Y-24587D01*
X716930Y-24489D01*
X716883Y-24393D01*
X716832Y-24299D01*
X716778Y-24207D01*
X716721Y-24117D01*
X716661Y-24029D01*
X716597Y-23944D01*
X716530Y-23861D01*
X716460Y-23780D01*
X716388Y-23702D01*
X716312Y-23626D01*
X716234Y-23554D01*
X716153Y-23484D01*
X716070Y-23417D01*
X715985Y-23353D01*
X715897Y-23293D01*
X715807Y-23236D01*
X715715Y-23182D01*
X715621Y-23131D01*
X715525Y-23084D01*
X715427Y-23041D01*
X715328Y-23001D01*
X715228Y-22964D01*
X715127Y-22932D01*
X715024Y-22903D01*
X714920Y-22878D01*
X714816Y-22857D01*
X714710Y-22839D01*
X714604Y-22826D01*
X714498Y-22816D01*
X714392Y-22810D01*
X714285Y-22808D01*
X714164Y-22810D01*
X714043Y-22816D01*
X713923Y-22826D01*
X713802Y-22839D01*
X713683Y-22857D01*
X713563Y-22878D01*
X713445Y-22903D01*
X713328Y-22932D01*
X713211Y-22965D01*
X713096Y-23001D01*
X712982Y-23042D01*
X712869Y-23085D01*
X712757Y-23133D01*
X712648Y-23184D01*
X712540Y-23239D01*
X712433Y-23297D01*
X712329Y-23358D01*
X712227Y-23423D01*
X712127Y-23491D01*
X712029Y-23562D01*
X711933Y-23636D01*
X711840Y-23713D01*
X711750Y-23794D01*
X711662Y-23877D01*
X711577Y-23963D01*
X711494Y-24052D01*
X711415Y-24143D01*
X711338Y-24237D01*
X711265Y-24333D01*
X711195Y-24431D01*
X711128Y-24532D01*
X711064Y-24635D01*
X711004Y-24740D01*
X710946Y-24847D01*
X710893Y-24955D01*
X710843Y-25065D01*
X710797Y-25177D01*
X710754Y-25290D01*
X710715Y-25405D01*
X716232Y-28001D02*
X716311Y-27923D01*
X716387Y-27843D01*
X716460Y-27760D01*
X716530Y-27674D01*
X716597Y-27587D01*
X716661Y-27496D01*
X716721Y-27404D01*
X716779Y-27310D01*
X716833Y-27213D01*
X716883Y-27115D01*
X716930Y-27015D01*
X716974Y-26914D01*
X717014Y-26811D01*
X717050Y-26706D01*
X717082Y-26601D01*
X717111Y-26494D01*
X717136Y-26387D01*
X717158Y-26278D01*
X717175Y-26169D01*
X717189Y-26060D01*
X717198Y-25950D01*
X717204Y-25839D01*
X717206Y-25729D01*
X716232Y-28001D02*
X710715Y-34492D01*
X717206Y-34492D01*
X721496Y-34492D02*
X725390Y-22808D01*
X729285Y-34492D01*
X728311Y-31571D02*
X722469Y-31571D01*
D12*
X266000Y-6400D02*
X266000Y-103600D01*
X404000Y-103600D01*
X404000Y-6400D01*
X352200Y-6400D01*
X317800Y-6400D01*
X266000Y-6400D01*
X317800Y-6400D02*
X317800Y8000D01*
X352200Y8000D01*
X352200Y-6400D01*
D13*
X408981Y-18619D02*
X415140Y-9381D01*
X408981Y-9381D02*
X415140Y-18619D01*
X423627Y-11691D02*
X423625Y-11596D01*
X423619Y-11500D01*
X423609Y-11405D01*
X423595Y-11311D01*
X423578Y-11217D01*
X423556Y-11124D01*
X423531Y-11032D01*
X423502Y-10941D01*
X423469Y-10851D01*
X423432Y-10763D01*
X423392Y-10676D01*
X423349Y-10592D01*
X423301Y-10509D01*
X423251Y-10428D01*
X423197Y-10349D01*
X423140Y-10272D01*
X423080Y-10198D01*
X423017Y-10127D01*
X422950Y-10058D01*
X422882Y-9992D01*
X422810Y-9928D01*
X422736Y-9868D01*
X422659Y-9811D01*
X422580Y-9757D01*
X422499Y-9707D01*
X422416Y-9659D01*
X422332Y-9616D01*
X422245Y-9576D01*
X422157Y-9539D01*
X422067Y-9506D01*
X421976Y-9477D01*
X421884Y-9452D01*
X421791Y-9430D01*
X421697Y-9413D01*
X421603Y-9399D01*
X421508Y-9389D01*
X421413Y-9383D01*
X421317Y-9381D01*
X421211Y-9383D01*
X421104Y-9389D01*
X420998Y-9398D01*
X420892Y-9412D01*
X420787Y-9429D01*
X420682Y-9450D01*
X420579Y-9474D01*
X420476Y-9503D01*
X420374Y-9535D01*
X420274Y-9570D01*
X420175Y-9610D01*
X420077Y-9653D01*
X419981Y-9699D01*
X419887Y-9749D01*
X419794Y-9802D01*
X419704Y-9858D01*
X419615Y-9918D01*
X419529Y-9980D01*
X419445Y-10046D01*
X419364Y-10115D01*
X419285Y-10186D01*
X419208Y-10261D01*
X419135Y-10338D01*
X419064Y-10418D01*
X418996Y-10500D01*
X418931Y-10584D01*
X418869Y-10671D01*
X418811Y-10760D01*
X418755Y-10851D01*
X418703Y-10944D01*
X418654Y-11039D01*
X418609Y-11136D01*
X418567Y-11234D01*
X418529Y-11333D01*
X418494Y-11434D01*
X422857Y-13488D02*
X422925Y-13420D01*
X422990Y-13350D01*
X423053Y-13278D01*
X423113Y-13203D01*
X423170Y-13126D01*
X423223Y-13047D01*
X423274Y-12966D01*
X423322Y-12883D01*
X423366Y-12799D01*
X423407Y-12712D01*
X423445Y-12624D01*
X423479Y-12535D01*
X423510Y-12444D01*
X423537Y-12353D01*
X423561Y-12260D01*
X423581Y-12166D01*
X423598Y-12072D01*
X423610Y-11977D01*
X423620Y-11882D01*
X423625Y-11787D01*
X423627Y-11691D01*
X422857Y-13487D02*
X418494Y-18619D01*
X423626Y-18619D01*
D12*
X439000Y75000D02*
X351000Y75000D01*
X439000Y75000D02*
X439000Y35000D01*
X351000Y35000D01*
X351000Y75000D01*
D13*
X389913Y22834D02*
X389911Y22744D01*
X389905Y22655D01*
X389895Y22566D01*
X389882Y22478D01*
X389864Y22390D01*
X389843Y22303D01*
X389818Y22217D01*
X389789Y22132D01*
X389757Y22048D01*
X389721Y21966D01*
X389681Y21886D01*
X389638Y21807D01*
X389591Y21731D01*
X389542Y21656D01*
X389489Y21584D01*
X389433Y21514D01*
X389374Y21447D01*
X389312Y21382D01*
X389247Y21320D01*
X389180Y21261D01*
X389110Y21205D01*
X389038Y21152D01*
X388963Y21103D01*
X388887Y21056D01*
X388808Y21013D01*
X388728Y20973D01*
X388646Y20937D01*
X388562Y20905D01*
X388477Y20876D01*
X388391Y20851D01*
X388304Y20830D01*
X388216Y20812D01*
X388128Y20799D01*
X388039Y20789D01*
X387950Y20783D01*
X387860Y20781D01*
X387733Y20783D01*
X387606Y20788D01*
X387480Y20798D01*
X387354Y20811D01*
X387228Y20827D01*
X387103Y20848D01*
X386978Y20872D01*
X386855Y20899D01*
X386732Y20930D01*
X386610Y20965D01*
X386489Y21003D01*
X386369Y21045D01*
X386251Y21091D01*
X386134Y21139D01*
X386018Y21192D01*
X385904Y21247D01*
X385792Y21306D01*
X385681Y21368D01*
X385572Y21433D01*
X385466Y21502D01*
X385361Y21573D01*
X385258Y21648D01*
X385158Y21726D01*
X385060Y21806D01*
X384964Y21889D01*
X384871Y21975D01*
X384780Y22064D01*
X385037Y27966D02*
X385039Y28056D01*
X385045Y28145D01*
X385055Y28234D01*
X385068Y28323D01*
X385086Y28410D01*
X385107Y28497D01*
X385132Y28583D01*
X385161Y28668D01*
X385193Y28752D01*
X385229Y28834D01*
X385269Y28914D01*
X385312Y28993D01*
X385359Y29069D01*
X385408Y29144D01*
X385461Y29216D01*
X385517Y29286D01*
X385576Y29353D01*
X385638Y29418D01*
X385703Y29480D01*
X385770Y29539D01*
X385840Y29595D01*
X385912Y29648D01*
X385987Y29697D01*
X386064Y29744D01*
X386142Y29787D01*
X386222Y29827D01*
X386304Y29863D01*
X386388Y29895D01*
X386473Y29924D01*
X386559Y29949D01*
X386646Y29970D01*
X386734Y29988D01*
X386822Y30001D01*
X386911Y30011D01*
X387000Y30017D01*
X387090Y30019D01*
X387214Y30017D01*
X387338Y30011D01*
X387461Y30001D01*
X387584Y29987D01*
X387707Y29969D01*
X387828Y29947D01*
X387950Y29922D01*
X388070Y29892D01*
X388189Y29859D01*
X388307Y29821D01*
X388424Y29780D01*
X388539Y29736D01*
X388653Y29687D01*
X388766Y29635D01*
X388876Y29579D01*
X388985Y29520D01*
X389092Y29457D01*
X389197Y29391D01*
X389299Y29322D01*
X389399Y29249D01*
X386064Y26170D02*
X385988Y26217D01*
X385913Y26268D01*
X385841Y26322D01*
X385771Y26379D01*
X385704Y26439D01*
X385639Y26502D01*
X385577Y26567D01*
X385518Y26635D01*
X385462Y26706D01*
X385409Y26779D01*
X385359Y26854D01*
X385313Y26932D01*
X385270Y27011D01*
X385230Y27092D01*
X385194Y27175D01*
X385162Y27259D01*
X385133Y27344D01*
X385108Y27431D01*
X385087Y27519D01*
X385069Y27607D01*
X385056Y27696D01*
X385046Y27786D01*
X385040Y27876D01*
X385038Y27966D01*
X388886Y24630D02*
X388963Y24583D01*
X389038Y24532D01*
X389110Y24478D01*
X389180Y24421D01*
X389247Y24361D01*
X389312Y24298D01*
X389374Y24233D01*
X389433Y24165D01*
X389489Y24094D01*
X389542Y24021D01*
X389592Y23946D01*
X389638Y23868D01*
X389681Y23789D01*
X389721Y23708D01*
X389757Y23625D01*
X389789Y23541D01*
X389818Y23456D01*
X389843Y23369D01*
X389864Y23282D01*
X389882Y23193D01*
X389895Y23104D01*
X389905Y23014D01*
X389911Y22924D01*
X389913Y22834D01*
X388887Y24630D02*
X386064Y26170D01*
X393141Y30019D02*
X395194Y20781D01*
X397247Y26940D01*
X399300Y20781D01*
X401353Y30019D01*
X404881Y27966D02*
X407447Y30019D01*
X407447Y20781D01*
X404881Y20781D02*
X410013Y20781D01*
M02*
