G04 EAGLE Gerber RS-274X export*
G75*
%MOMM*%
%FSLAX34Y34*%
%LPD*%
%INSoldermask Top*%
%IPPOS*%
%AMOC8*
5,1,8,0,0,1.08239X$1,22.5*%
G01*
%ADD10C,3.403200*%
%ADD11R,2.003200X2.003200*%
%ADD12C,2.003200*%
%ADD13C,2.453200*%
%ADD14R,1.711200X1.711200*%
%ADD15C,1.711200*%


D10*
X115000Y-70000D03*
X115000Y70000D03*
X785000Y70000D03*
X785000Y-70000D03*
D11*
X398000Y-82500D03*
D12*
X356000Y-82500D03*
X314000Y-82500D03*
X272000Y-82500D03*
X398000Y-27500D03*
X356000Y-27500D03*
X314000Y-27500D03*
X272000Y-27500D03*
D13*
X485000Y-80000D03*
X565000Y-80000D03*
X635000Y-80000D03*
X715000Y-80000D03*
D14*
X330000Y55000D03*
D15*
X305000Y55000D03*
X280000Y55000D03*
D12*
X660000Y57500D03*
X710000Y57500D03*
X560000Y57500D03*
X610000Y57500D03*
X460000Y57500D03*
X510000Y57500D03*
X172500Y52500D03*
X222500Y52500D03*
X35000Y75000D03*
X35000Y25000D03*
X35000Y-25000D03*
X35000Y-75000D03*
D11*
X377000Y-82500D03*
D12*
X335000Y-82500D03*
X293000Y-82500D03*
X377000Y-27500D03*
X335000Y-27500D03*
X293000Y-27500D03*
D15*
X369600Y55000D03*
X395000Y55000D03*
X420400Y55000D03*
M02*
