M48
; DRILL file {KiCad (6.0.6)} date Fri Aug  5 03:01:16 2022
; FORMAT={-:-/ absolute / inch / decimal}
; #@! TF.CreationDate,2022-08-05T03:01:16+02:00
; #@! TF.GenerationSoftware,Kicad,Pcbnew,(6.0.6)
; #@! TF.FileFunction,Plated,1,2,PTH
FMAT,2
INCH
; #@! TA.AperFunction,Plated,PTH,ViaDrill
T1C0.0157
; #@! TA.AperFunction,Plated,PTH,ComponentDrill
T2C0.0374
; #@! TA.AperFunction,Plated,PTH,ComponentDrill
T3C0.0394
; #@! TA.AperFunction,Plated,PTH,ComponentDrill
T4C0.0402
; #@! TA.AperFunction,Plated,PTH,ComponentDrill
T5C0.1260
%
G90
G05
T1
X1.3031Y-1.878
T2
X1.1516Y-1.6732
X1.1516Y-1.7717
X1.1516Y-1.8701
X1.7126Y-1.3504
X1.811Y-1.3504
X1.9094Y-1.3504
X2.124Y-2.0679
X2.2224Y-2.0679
X2.3209Y-2.0679
X2.4193Y-2.0679
T3
X1.1516Y-1.1201
X1.1516Y-1.2185
X1.1516Y-1.4272
X1.1516Y-1.5256
T4
X1.3465Y-1.8083
X1.4646Y-1.8083
X1.7559Y-1.5209
X1.874Y-1.5209
X2.0669Y-0.9331
X2.0669Y-1.0512
X2.0669Y-1.1693
X2.0669Y-1.2874
X2.0669Y-1.4055
X2.0669Y-1.5236
X2.0669Y-1.6417
X2.0669Y-1.7598
X2.0669Y-1.878
X2.185Y-0.9331
X2.185Y-1.0512
X2.185Y-1.1693
X2.185Y-1.2874
X2.185Y-1.4055
X2.185Y-1.5236
X2.185Y-1.6417
X2.185Y-1.7598
X2.185Y-1.878
T5
X1.3425Y-1.6063
X1.815Y-1.1024
T0
M30
