%TF.GenerationSoftware,KiCad,Pcbnew,(6.0.6)*%
%TF.CreationDate,2022-08-05T02:33:46+02:00*%
%TF.ProjectId,toolhead_pcb,746f6f6c-6865-4616-945f-7063622e6b69,rev?*%
%TF.SameCoordinates,Original*%
%TF.FileFunction,Soldermask,Top*%
%TF.FilePolarity,Negative*%
%FSLAX46Y46*%
G04 Gerber Fmt 4.6, Leading zero omitted, Abs format (unit mm)*
G04 Created by KiCad (PCBNEW (6.0.6)) date 2022-08-05 02:33:46*
%MOMM*%
%LPD*%
G01*
G04 APERTURE LIST*
G04 Aperture macros list*
%AMRoundRect*
0 Rectangle with rounded corners*
0 $1 Rounding radius*
0 $2 $3 $4 $5 $6 $7 $8 $9 X,Y pos of 4 corners*
0 Add a 4 corners polygon primitive as box body*
4,1,4,$2,$3,$4,$5,$6,$7,$8,$9,$2,$3,0*
0 Add four circle primitives for the rounded corners*
1,1,$1+$1,$2,$3*
1,1,$1+$1,$4,$5*
1,1,$1+$1,$6,$7*
1,1,$1+$1,$8,$9*
0 Add four rect primitives between the rounded corners*
20,1,$1+$1,$2,$3,$4,$5,0*
20,1,$1+$1,$4,$5,$6,$7,0*
20,1,$1+$1,$6,$7,$8,$9,0*
20,1,$1+$1,$8,$9,$2,$3,0*%
G04 Aperture macros list end*
%ADD10R,1.600000X1.000000*%
%ADD11R,1.200000X1.200000*%
%ADD12R,1.600000X0.800000*%
%ADD13RoundRect,0.250000X-0.750000X0.600000X-0.750000X-0.600000X0.750000X-0.600000X0.750000X0.600000X0*%
%ADD14O,2.000000X1.700000*%
%ADD15C,3.000000*%
%ADD16RoundRect,0.250001X0.499999X0.759999X-0.499999X0.759999X-0.499999X-0.759999X0.499999X-0.759999X0*%
%ADD17O,1.500000X2.020000*%
%ADD18C,5.600000*%
%ADD19RoundRect,0.250000X0.600000X0.725000X-0.600000X0.725000X-0.600000X-0.725000X0.600000X-0.725000X0*%
%ADD20O,1.700000X1.950000*%
%ADD21R,0.600000X0.500000*%
%ADD22RoundRect,0.250001X-0.499999X0.499999X-0.499999X-0.499999X0.499999X-0.499999X0.499999X0.499999X0*%
%ADD23C,1.500000*%
%ADD24RoundRect,0.250000X0.725000X-0.600000X0.725000X0.600000X-0.725000X0.600000X-0.725000X-0.600000X0*%
%ADD25O,1.950000X1.700000*%
%ADD26RoundRect,0.250000X-0.600000X-0.725000X0.600000X-0.725000X0.600000X0.725000X-0.600000X0.725000X0*%
G04 APERTURE END LIST*
D10*
%TO.C,Probe filter diode*%
X39000000Y-32500000D03*
X39000000Y-35700000D03*
%TD*%
D11*
%TO.C,R1100*%
X34700000Y-28500000D03*
X37100000Y-28500000D03*
%TD*%
D12*
%TO.C,Hotend Led*%
X34900000Y-34800000D03*
X34900000Y-32400000D03*
%TD*%
D13*
%TO.C,Fan1*%
X29250000Y-36250000D03*
D14*
X29250000Y-38750000D03*
%TD*%
D15*
%TO.C,Hotend*%
X46100000Y-42950000D03*
D16*
X47600000Y-38630000D03*
D17*
X44600000Y-38630000D03*
%TD*%
D18*
%TO.C,REF\u002A\u002A*%
X34100000Y-40800000D03*
%TD*%
%TO.C,REF\u002A\u002A*%
X46100000Y-28000000D03*
%TD*%
D19*
%TO.C,Probe*%
X48500000Y-34300000D03*
D20*
X46000000Y-34300000D03*
X43500000Y-34300000D03*
%TD*%
D13*
%TO.C,Fan0*%
X29250000Y-28450000D03*
D14*
X29250000Y-30950000D03*
%TD*%
D21*
%TO.C,Thermistor Chamber*%
X41501000Y-22998500D03*
X41500000Y-24000000D03*
%TD*%
D15*
%TO.C,Therm 0*%
X35700000Y-50250000D03*
D16*
X37200000Y-45930000D03*
D17*
X34200000Y-45930000D03*
%TD*%
D15*
%TO.C,Breakbox In*%
X59820000Y-25860000D03*
X59820000Y-45560000D03*
D22*
X55500000Y-23700000D03*
D23*
X55500000Y-26700000D03*
X55500000Y-29700000D03*
X55500000Y-32700000D03*
X55500000Y-35700000D03*
X55500000Y-38700000D03*
X55500000Y-41700000D03*
X55500000Y-44700000D03*
X55500000Y-47700000D03*
X52500000Y-23700000D03*
X52500000Y-26700000D03*
X52500000Y-29700000D03*
X52500000Y-32700000D03*
X52500000Y-35700000D03*
X52500000Y-38700000D03*
X52500000Y-41700000D03*
X52500000Y-44700000D03*
X52500000Y-47700000D03*
%TD*%
D24*
%TO.C,NeoPixel*%
X29250000Y-47500000D03*
D25*
X29250000Y-45000000D03*
X29250000Y-42500000D03*
%TD*%
D26*
%TO.C,E-Motor*%
X53950000Y-52525000D03*
D20*
X56450000Y-52525000D03*
X58950000Y-52525000D03*
X61450000Y-52525000D03*
%TD*%
M02*
