%TF.GenerationSoftware,KiCad,Pcbnew,(6.0.6)*%
%TF.CreationDate,2022-08-12T20:07:48+02:00*%
%TF.ProjectId,toolhead_pcb,746f6f6c-6865-4616-945f-7063622e6b69,rev?*%
%TF.SameCoordinates,Original*%
%TF.FileFunction,Legend,Bot*%
%TF.FilePolarity,Positive*%
%FSLAX46Y46*%
G04 Gerber Fmt 4.6, Leading zero omitted, Abs format (unit mm)*
G04 Created by KiCad (PCBNEW (6.0.6)) date 2022-08-12 20:07:48*
%MOMM*%
%LPD*%
G01*
G04 APERTURE LIST*
%ADD10C,0.100000*%
%ADD11C,0.150000*%
%ADD12C,0.120000*%
G04 APERTURE END LIST*
D10*
X59385714Y-34471428D02*
X59385714Y-33871428D01*
X59157142Y-33871428D01*
X59100000Y-33900000D01*
X59071428Y-33928571D01*
X59042857Y-33985714D01*
X59042857Y-34071428D01*
X59071428Y-34128571D01*
X59100000Y-34157142D01*
X59157142Y-34185714D01*
X59385714Y-34185714D01*
X58785714Y-34471428D02*
X58785714Y-34071428D01*
X58785714Y-34185714D02*
X58757142Y-34128571D01*
X58728571Y-34100000D01*
X58671428Y-34071428D01*
X58614285Y-34071428D01*
X58328571Y-34471428D02*
X58385714Y-34442857D01*
X58414285Y-34414285D01*
X58442857Y-34357142D01*
X58442857Y-34185714D01*
X58414285Y-34128571D01*
X58385714Y-34100000D01*
X58328571Y-34071428D01*
X58242857Y-34071428D01*
X58185714Y-34100000D01*
X58157142Y-34128571D01*
X58128571Y-34185714D01*
X58128571Y-34357142D01*
X58157142Y-34414285D01*
X58185714Y-34442857D01*
X58242857Y-34471428D01*
X58328571Y-34471428D01*
X57871428Y-34471428D02*
X57871428Y-33871428D01*
X57871428Y-34100000D02*
X57814285Y-34071428D01*
X57700000Y-34071428D01*
X57642857Y-34100000D01*
X57614285Y-34128571D01*
X57585714Y-34185714D01*
X57585714Y-34357142D01*
X57614285Y-34414285D01*
X57642857Y-34442857D01*
X57700000Y-34471428D01*
X57814285Y-34471428D01*
X57871428Y-34442857D01*
X57100000Y-34442857D02*
X57157142Y-34471428D01*
X57271428Y-34471428D01*
X57328571Y-34442857D01*
X57357142Y-34385714D01*
X57357142Y-34157142D01*
X57328571Y-34100000D01*
X57271428Y-34071428D01*
X57157142Y-34071428D01*
X57100000Y-34100000D01*
X57071428Y-34157142D01*
X57071428Y-34214285D01*
X57357142Y-34271428D01*
X56042857Y-33900000D02*
X56100000Y-33871428D01*
X56185714Y-33871428D01*
X56271428Y-33900000D01*
X56328571Y-33957142D01*
X56357142Y-34014285D01*
X56385714Y-34128571D01*
X56385714Y-34214285D01*
X56357142Y-34328571D01*
X56328571Y-34385714D01*
X56271428Y-34442857D01*
X56185714Y-34471428D01*
X56128571Y-34471428D01*
X56042857Y-34442857D01*
X56014285Y-34414285D01*
X56014285Y-34214285D01*
X56128571Y-34214285D01*
X55757142Y-34471428D02*
X55757142Y-33871428D01*
X55414285Y-34471428D01*
X55414285Y-33871428D01*
X55128571Y-34471428D02*
X55128571Y-33871428D01*
X54985714Y-33871428D01*
X54900000Y-33900000D01*
X54842857Y-33957142D01*
X54814285Y-34014285D01*
X54785714Y-34128571D01*
X54785714Y-34214285D01*
X54814285Y-34328571D01*
X54842857Y-34385714D01*
X54900000Y-34442857D01*
X54985714Y-34471428D01*
X55128571Y-34471428D01*
X58157142Y-40471428D02*
X58157142Y-39871428D01*
X57814285Y-40471428D01*
X57814285Y-39871428D01*
X57300000Y-40442857D02*
X57357142Y-40471428D01*
X57471428Y-40471428D01*
X57528571Y-40442857D01*
X57557142Y-40385714D01*
X57557142Y-40157142D01*
X57528571Y-40100000D01*
X57471428Y-40071428D01*
X57357142Y-40071428D01*
X57300000Y-40100000D01*
X57271428Y-40157142D01*
X57271428Y-40214285D01*
X57557142Y-40271428D01*
X56928571Y-40471428D02*
X56985714Y-40442857D01*
X57014285Y-40414285D01*
X57042857Y-40357142D01*
X57042857Y-40185714D01*
X57014285Y-40128571D01*
X56985714Y-40100000D01*
X56928571Y-40071428D01*
X56842857Y-40071428D01*
X56785714Y-40100000D01*
X56757142Y-40128571D01*
X56728571Y-40185714D01*
X56728571Y-40357142D01*
X56757142Y-40414285D01*
X56785714Y-40442857D01*
X56842857Y-40471428D01*
X56928571Y-40471428D01*
X56042857Y-40442857D02*
X55957142Y-40471428D01*
X55814285Y-40471428D01*
X55757142Y-40442857D01*
X55728571Y-40414285D01*
X55700000Y-40357142D01*
X55700000Y-40300000D01*
X55728571Y-40242857D01*
X55757142Y-40214285D01*
X55814285Y-40185714D01*
X55928571Y-40157142D01*
X55985714Y-40128571D01*
X56014285Y-40100000D01*
X56042857Y-40042857D01*
X56042857Y-39985714D01*
X56014285Y-39928571D01*
X55985714Y-39900000D01*
X55928571Y-39871428D01*
X55785714Y-39871428D01*
X55700000Y-39900000D01*
X55442857Y-40471428D02*
X55442857Y-39871428D01*
X54842857Y-39900000D02*
X54900000Y-39871428D01*
X54985714Y-39871428D01*
X55071428Y-39900000D01*
X55128571Y-39957142D01*
X55157142Y-40014285D01*
X55185714Y-40128571D01*
X55185714Y-40214285D01*
X55157142Y-40328571D01*
X55128571Y-40385714D01*
X55071428Y-40442857D01*
X54985714Y-40471428D01*
X54928571Y-40471428D01*
X54842857Y-40442857D01*
X54814285Y-40414285D01*
X54814285Y-40214285D01*
X54928571Y-40214285D01*
X53057142Y-31174142D02*
X53257142Y-31174142D01*
X53257142Y-31488428D02*
X53257142Y-30888428D01*
X52971428Y-30888428D01*
X52485714Y-31488428D02*
X52485714Y-31174142D01*
X52514285Y-31117000D01*
X52571428Y-31088428D01*
X52685714Y-31088428D01*
X52742857Y-31117000D01*
X52485714Y-31459857D02*
X52542857Y-31488428D01*
X52685714Y-31488428D01*
X52742857Y-31459857D01*
X52771428Y-31402714D01*
X52771428Y-31345571D01*
X52742857Y-31288428D01*
X52685714Y-31259857D01*
X52542857Y-31259857D01*
X52485714Y-31231285D01*
X52200000Y-31088428D02*
X52200000Y-31488428D01*
X52200000Y-31145571D02*
X52171428Y-31117000D01*
X52114285Y-31088428D01*
X52028571Y-31088428D01*
X51971428Y-31117000D01*
X51942857Y-31174142D01*
X51942857Y-31488428D01*
X51571428Y-31854428D02*
X51371428Y-32454428D01*
X51171428Y-31854428D01*
X50628571Y-32397285D02*
X50657142Y-32425857D01*
X50742857Y-32454428D01*
X50800000Y-32454428D01*
X50885714Y-32425857D01*
X50942857Y-32368714D01*
X50971428Y-32311571D01*
X51000000Y-32197285D01*
X51000000Y-32111571D01*
X50971428Y-31997285D01*
X50942857Y-31940142D01*
X50885714Y-31883000D01*
X50800000Y-31854428D01*
X50742857Y-31854428D01*
X50657142Y-31883000D01*
X50628571Y-31911571D01*
X50028571Y-32397285D02*
X50057142Y-32425857D01*
X50142857Y-32454428D01*
X50200000Y-32454428D01*
X50285714Y-32425857D01*
X50342857Y-32368714D01*
X50371428Y-32311571D01*
X50400000Y-32197285D01*
X50400000Y-32111571D01*
X50371428Y-31997285D01*
X50342857Y-31940142D01*
X50285714Y-31883000D01*
X50200000Y-31854428D01*
X50142857Y-31854428D01*
X50057142Y-31883000D01*
X50028571Y-31911571D01*
X57928571Y-24871428D02*
X57585714Y-24871428D01*
X57757142Y-25471428D02*
X57757142Y-24871428D01*
X57385714Y-25471428D02*
X57385714Y-24871428D01*
X57385714Y-25157142D02*
X57042857Y-25157142D01*
X57042857Y-25471428D02*
X57042857Y-24871428D01*
X55985714Y-24900000D02*
X56042857Y-24871428D01*
X56128571Y-24871428D01*
X56214285Y-24900000D01*
X56271428Y-24957142D01*
X56300000Y-25014285D01*
X56328571Y-25128571D01*
X56328571Y-25214285D01*
X56300000Y-25328571D01*
X56271428Y-25385714D01*
X56214285Y-25442857D01*
X56128571Y-25471428D01*
X56071428Y-25471428D01*
X55985714Y-25442857D01*
X55957142Y-25414285D01*
X55957142Y-25214285D01*
X56071428Y-25214285D01*
X55700000Y-25471428D02*
X55700000Y-24871428D01*
X55357142Y-25471428D01*
X55357142Y-24871428D01*
X55071428Y-25471428D02*
X55071428Y-24871428D01*
X54928571Y-24871428D01*
X54842857Y-24900000D01*
X54785714Y-24957142D01*
X54757142Y-25014285D01*
X54728571Y-25128571D01*
X54728571Y-25214285D01*
X54757142Y-25328571D01*
X54785714Y-25385714D01*
X54842857Y-25442857D01*
X54928571Y-25471428D01*
X55071428Y-25471428D01*
X56357142Y-43442857D02*
X56271428Y-43471428D01*
X56128571Y-43471428D01*
X56071428Y-43442857D01*
X56042857Y-43414285D01*
X56014285Y-43357142D01*
X56014285Y-43300000D01*
X56042857Y-43242857D01*
X56071428Y-43214285D01*
X56128571Y-43185714D01*
X56242857Y-43157142D01*
X56300000Y-43128571D01*
X56328571Y-43100000D01*
X56357142Y-43042857D01*
X56357142Y-42985714D01*
X56328571Y-42928571D01*
X56300000Y-42900000D01*
X56242857Y-42871428D01*
X56100000Y-42871428D01*
X56014285Y-42900000D01*
X55442857Y-43471428D02*
X55785714Y-43471428D01*
X55614285Y-43471428D02*
X55614285Y-42871428D01*
X55671428Y-42957142D01*
X55728571Y-43014285D01*
X55785714Y-43042857D01*
X54985714Y-43157142D02*
X54900000Y-43185714D01*
X54871428Y-43214285D01*
X54842857Y-43271428D01*
X54842857Y-43357142D01*
X54871428Y-43414285D01*
X54900000Y-43442857D01*
X54957142Y-43471428D01*
X55185714Y-43471428D01*
X55185714Y-42871428D01*
X54985714Y-42871428D01*
X54928571Y-42900000D01*
X54900000Y-42928571D01*
X54871428Y-42985714D01*
X54871428Y-43042857D01*
X54900000Y-43100000D01*
X54928571Y-43128571D01*
X54985714Y-43157142D01*
X55185714Y-43157142D01*
X34971428Y-47188428D02*
X34628571Y-47188428D01*
X34800000Y-47788428D02*
X34800000Y-47188428D01*
X34428571Y-47788428D02*
X34428571Y-47188428D01*
X34428571Y-47474142D02*
X34085714Y-47474142D01*
X34085714Y-47788428D02*
X34085714Y-47188428D01*
X33685714Y-47188428D02*
X33628571Y-47188428D01*
X33571428Y-47217000D01*
X33542857Y-47245571D01*
X33514285Y-47302714D01*
X33485714Y-47417000D01*
X33485714Y-47559857D01*
X33514285Y-47674142D01*
X33542857Y-47731285D01*
X33571428Y-47759857D01*
X33628571Y-47788428D01*
X33685714Y-47788428D01*
X33742857Y-47759857D01*
X33771428Y-47731285D01*
X33800000Y-47674142D01*
X33828571Y-47559857D01*
X33828571Y-47417000D01*
X33800000Y-47302714D01*
X33771428Y-47245571D01*
X33742857Y-47217000D01*
X33685714Y-47188428D01*
X35000000Y-48154428D02*
X34800000Y-48754428D01*
X34600000Y-48154428D01*
X34057142Y-48697285D02*
X34085714Y-48725857D01*
X34171428Y-48754428D01*
X34228571Y-48754428D01*
X34314285Y-48725857D01*
X34371428Y-48668714D01*
X34400000Y-48611571D01*
X34428571Y-48497285D01*
X34428571Y-48411571D01*
X34400000Y-48297285D01*
X34371428Y-48240142D01*
X34314285Y-48183000D01*
X34228571Y-48154428D01*
X34171428Y-48154428D01*
X34085714Y-48183000D01*
X34057142Y-48211571D01*
X33457142Y-48697285D02*
X33485714Y-48725857D01*
X33571428Y-48754428D01*
X33628571Y-48754428D01*
X33714285Y-48725857D01*
X33771428Y-48668714D01*
X33800000Y-48611571D01*
X33828571Y-48497285D01*
X33828571Y-48411571D01*
X33800000Y-48297285D01*
X33771428Y-48240142D01*
X33714285Y-48183000D01*
X33628571Y-48154428D01*
X33571428Y-48154428D01*
X33485714Y-48183000D01*
X33457142Y-48211571D01*
X58442857Y-37471428D02*
X58442857Y-36871428D01*
X58100000Y-37471428D01*
X58100000Y-36871428D01*
X57585714Y-37442857D02*
X57642857Y-37471428D01*
X57757142Y-37471428D01*
X57814285Y-37442857D01*
X57842857Y-37385714D01*
X57842857Y-37157142D01*
X57814285Y-37100000D01*
X57757142Y-37071428D01*
X57642857Y-37071428D01*
X57585714Y-37100000D01*
X57557142Y-37157142D01*
X57557142Y-37214285D01*
X57842857Y-37271428D01*
X57214285Y-37471428D02*
X57271428Y-37442857D01*
X57300000Y-37414285D01*
X57328571Y-37357142D01*
X57328571Y-37185714D01*
X57300000Y-37128571D01*
X57271428Y-37100000D01*
X57214285Y-37071428D01*
X57128571Y-37071428D01*
X57071428Y-37100000D01*
X57042857Y-37128571D01*
X57014285Y-37185714D01*
X57014285Y-37357142D01*
X57042857Y-37414285D01*
X57071428Y-37442857D01*
X57128571Y-37471428D01*
X57214285Y-37471428D01*
X55985714Y-36900000D02*
X56042857Y-36871428D01*
X56128571Y-36871428D01*
X56214285Y-36900000D01*
X56271428Y-36957142D01*
X56300000Y-37014285D01*
X56328571Y-37128571D01*
X56328571Y-37214285D01*
X56300000Y-37328571D01*
X56271428Y-37385714D01*
X56214285Y-37442857D01*
X56128571Y-37471428D01*
X56071428Y-37471428D01*
X55985714Y-37442857D01*
X55957142Y-37414285D01*
X55957142Y-37214285D01*
X56071428Y-37214285D01*
X55700000Y-37471428D02*
X55700000Y-36871428D01*
X55357142Y-37471428D01*
X55357142Y-36871428D01*
X55071428Y-37471428D02*
X55071428Y-36871428D01*
X54928571Y-36871428D01*
X54842857Y-36900000D01*
X54785714Y-36957142D01*
X54757142Y-37014285D01*
X54728571Y-37128571D01*
X54728571Y-37214285D01*
X54757142Y-37328571D01*
X54785714Y-37385714D01*
X54842857Y-37442857D01*
X54928571Y-37471428D01*
X55071428Y-37471428D01*
X58785714Y-28157142D02*
X58985714Y-28157142D01*
X58985714Y-28471428D02*
X58985714Y-27871428D01*
X58700000Y-27871428D01*
X58214285Y-28471428D02*
X58214285Y-28157142D01*
X58242857Y-28100000D01*
X58300000Y-28071428D01*
X58414285Y-28071428D01*
X58471428Y-28100000D01*
X58214285Y-28442857D02*
X58271428Y-28471428D01*
X58414285Y-28471428D01*
X58471428Y-28442857D01*
X58500000Y-28385714D01*
X58500000Y-28328571D01*
X58471428Y-28271428D01*
X58414285Y-28242857D01*
X58271428Y-28242857D01*
X58214285Y-28214285D01*
X57928571Y-28071428D02*
X57928571Y-28471428D01*
X57928571Y-28128571D02*
X57900000Y-28100000D01*
X57842857Y-28071428D01*
X57757142Y-28071428D01*
X57700000Y-28100000D01*
X57671428Y-28157142D01*
X57671428Y-28471428D01*
X57271428Y-27871428D02*
X57214285Y-27871428D01*
X57157142Y-27900000D01*
X57128571Y-27928571D01*
X57100000Y-27985714D01*
X57071428Y-28100000D01*
X57071428Y-28242857D01*
X57100000Y-28357142D01*
X57128571Y-28414285D01*
X57157142Y-28442857D01*
X57214285Y-28471428D01*
X57271428Y-28471428D01*
X57328571Y-28442857D01*
X57357142Y-28414285D01*
X57385714Y-28357142D01*
X57414285Y-28242857D01*
X57414285Y-28100000D01*
X57385714Y-27985714D01*
X57357142Y-27928571D01*
X57328571Y-27900000D01*
X57271428Y-27871428D01*
X56042857Y-27900000D02*
X56100000Y-27871428D01*
X56185714Y-27871428D01*
X56271428Y-27900000D01*
X56328571Y-27957142D01*
X56357142Y-28014285D01*
X56385714Y-28128571D01*
X56385714Y-28214285D01*
X56357142Y-28328571D01*
X56328571Y-28385714D01*
X56271428Y-28442857D01*
X56185714Y-28471428D01*
X56128571Y-28471428D01*
X56042857Y-28442857D01*
X56014285Y-28414285D01*
X56014285Y-28214285D01*
X56128571Y-28214285D01*
X55757142Y-28471428D02*
X55757142Y-27871428D01*
X55414285Y-28471428D01*
X55414285Y-27871428D01*
X55128571Y-28471428D02*
X55128571Y-27871428D01*
X54985714Y-27871428D01*
X54900000Y-27900000D01*
X54842857Y-27957142D01*
X54814285Y-28014285D01*
X54785714Y-28128571D01*
X54785714Y-28214285D01*
X54814285Y-28328571D01*
X54842857Y-28385714D01*
X54900000Y-28442857D01*
X54985714Y-28471428D01*
X55128571Y-28471428D01*
X58785714Y-31157142D02*
X58985714Y-31157142D01*
X58985714Y-31471428D02*
X58985714Y-30871428D01*
X58700000Y-30871428D01*
X58214285Y-31471428D02*
X58214285Y-31157142D01*
X58242857Y-31100000D01*
X58300000Y-31071428D01*
X58414285Y-31071428D01*
X58471428Y-31100000D01*
X58214285Y-31442857D02*
X58271428Y-31471428D01*
X58414285Y-31471428D01*
X58471428Y-31442857D01*
X58500000Y-31385714D01*
X58500000Y-31328571D01*
X58471428Y-31271428D01*
X58414285Y-31242857D01*
X58271428Y-31242857D01*
X58214285Y-31214285D01*
X57928571Y-31071428D02*
X57928571Y-31471428D01*
X57928571Y-31128571D02*
X57900000Y-31100000D01*
X57842857Y-31071428D01*
X57757142Y-31071428D01*
X57700000Y-31100000D01*
X57671428Y-31157142D01*
X57671428Y-31471428D01*
X57071428Y-31471428D02*
X57414285Y-31471428D01*
X57242857Y-31471428D02*
X57242857Y-30871428D01*
X57300000Y-30957142D01*
X57357142Y-31014285D01*
X57414285Y-31042857D01*
X56042857Y-30900000D02*
X56100000Y-30871428D01*
X56185714Y-30871428D01*
X56271428Y-30900000D01*
X56328571Y-30957142D01*
X56357142Y-31014285D01*
X56385714Y-31128571D01*
X56385714Y-31214285D01*
X56357142Y-31328571D01*
X56328571Y-31385714D01*
X56271428Y-31442857D01*
X56185714Y-31471428D01*
X56128571Y-31471428D01*
X56042857Y-31442857D01*
X56014285Y-31414285D01*
X56014285Y-31214285D01*
X56128571Y-31214285D01*
X55757142Y-31471428D02*
X55757142Y-30871428D01*
X55414285Y-31471428D01*
X55414285Y-30871428D01*
X55128571Y-31471428D02*
X55128571Y-30871428D01*
X54985714Y-30871428D01*
X54900000Y-30900000D01*
X54842857Y-30957142D01*
X54814285Y-31014285D01*
X54785714Y-31128571D01*
X54785714Y-31214285D01*
X54814285Y-31328571D01*
X54842857Y-31385714D01*
X54900000Y-31442857D01*
X54985714Y-31471428D01*
X55128571Y-31471428D01*
X27725857Y-39542857D02*
X27725857Y-39742857D01*
X27411571Y-39742857D02*
X28011571Y-39742857D01*
X28011571Y-39457142D01*
X27411571Y-38971428D02*
X27725857Y-38971428D01*
X27783000Y-39000000D01*
X27811571Y-39057142D01*
X27811571Y-39171428D01*
X27783000Y-39228571D01*
X27440142Y-38971428D02*
X27411571Y-39028571D01*
X27411571Y-39171428D01*
X27440142Y-39228571D01*
X27497285Y-39257142D01*
X27554428Y-39257142D01*
X27611571Y-39228571D01*
X27640142Y-39171428D01*
X27640142Y-39028571D01*
X27668714Y-38971428D01*
X27811571Y-38685714D02*
X27411571Y-38685714D01*
X27754428Y-38685714D02*
X27783000Y-38657142D01*
X27811571Y-38600000D01*
X27811571Y-38514285D01*
X27783000Y-38457142D01*
X27725857Y-38428571D01*
X27411571Y-38428571D01*
X27411571Y-37828571D02*
X27411571Y-38171428D01*
X27411571Y-38000000D02*
X28011571Y-38000000D01*
X27925857Y-38057142D01*
X27868714Y-38114285D01*
X27840142Y-38171428D01*
X27017000Y-39257142D02*
X27045571Y-39314285D01*
X27045571Y-39400000D01*
X27017000Y-39485714D01*
X26959857Y-39542857D01*
X26902714Y-39571428D01*
X26788428Y-39600000D01*
X26702714Y-39600000D01*
X26588428Y-39571428D01*
X26531285Y-39542857D01*
X26474142Y-39485714D01*
X26445571Y-39400000D01*
X26445571Y-39342857D01*
X26474142Y-39257142D01*
X26502714Y-39228571D01*
X26702714Y-39228571D01*
X26702714Y-39342857D01*
X26445571Y-38971428D02*
X27045571Y-38971428D01*
X26445571Y-38628571D01*
X27045571Y-38628571D01*
X26445571Y-38342857D02*
X27045571Y-38342857D01*
X27045571Y-38200000D01*
X27017000Y-38114285D01*
X26959857Y-38057142D01*
X26902714Y-38028571D01*
X26788428Y-38000000D01*
X26702714Y-38000000D01*
X26588428Y-38028571D01*
X26531285Y-38057142D01*
X26474142Y-38114285D01*
X26445571Y-38200000D01*
X26445571Y-38342857D01*
X48328571Y-40388428D02*
X48328571Y-39788428D01*
X48328571Y-40074142D02*
X47985714Y-40074142D01*
X47985714Y-40388428D02*
X47985714Y-39788428D01*
X47700000Y-40074142D02*
X47500000Y-40074142D01*
X47414285Y-40388428D02*
X47700000Y-40388428D01*
X47700000Y-39788428D01*
X47414285Y-39788428D01*
X47042857Y-39788428D02*
X46985714Y-39788428D01*
X46928571Y-39817000D01*
X46900000Y-39845571D01*
X46871428Y-39902714D01*
X46842857Y-40017000D01*
X46842857Y-40159857D01*
X46871428Y-40274142D01*
X46900000Y-40331285D01*
X46928571Y-40359857D01*
X46985714Y-40388428D01*
X47042857Y-40388428D01*
X47100000Y-40359857D01*
X47128571Y-40331285D01*
X47157142Y-40274142D01*
X47185714Y-40159857D01*
X47185714Y-40017000D01*
X47157142Y-39902714D01*
X47128571Y-39845571D01*
X47100000Y-39817000D01*
X47042857Y-39788428D01*
X48400000Y-40754428D02*
X48200000Y-41354428D01*
X48000000Y-40754428D01*
X47457142Y-41297285D02*
X47485714Y-41325857D01*
X47571428Y-41354428D01*
X47628571Y-41354428D01*
X47714285Y-41325857D01*
X47771428Y-41268714D01*
X47800000Y-41211571D01*
X47828571Y-41097285D01*
X47828571Y-41011571D01*
X47800000Y-40897285D01*
X47771428Y-40840142D01*
X47714285Y-40783000D01*
X47628571Y-40754428D01*
X47571428Y-40754428D01*
X47485714Y-40783000D01*
X47457142Y-40811571D01*
X46857142Y-41297285D02*
X46885714Y-41325857D01*
X46971428Y-41354428D01*
X47028571Y-41354428D01*
X47114285Y-41325857D01*
X47171428Y-41268714D01*
X47200000Y-41211571D01*
X47228571Y-41097285D01*
X47228571Y-41011571D01*
X47200000Y-40897285D01*
X47171428Y-40840142D01*
X47114285Y-40783000D01*
X47028571Y-40754428D01*
X46971428Y-40754428D01*
X46885714Y-40783000D01*
X46857142Y-40811571D01*
X57885714Y-22371428D02*
X57885714Y-21771428D01*
X57885714Y-22057142D02*
X57542857Y-22057142D01*
X57542857Y-22371428D02*
X57542857Y-21771428D01*
X57257142Y-22057142D02*
X57057142Y-22057142D01*
X56971428Y-22371428D02*
X57257142Y-22371428D01*
X57257142Y-21771428D01*
X56971428Y-21771428D01*
X55942857Y-21800000D02*
X56000000Y-21771428D01*
X56085714Y-21771428D01*
X56171428Y-21800000D01*
X56228571Y-21857142D01*
X56257142Y-21914285D01*
X56285714Y-22028571D01*
X56285714Y-22114285D01*
X56257142Y-22228571D01*
X56228571Y-22285714D01*
X56171428Y-22342857D01*
X56085714Y-22371428D01*
X56028571Y-22371428D01*
X55942857Y-22342857D01*
X55914285Y-22314285D01*
X55914285Y-22114285D01*
X56028571Y-22114285D01*
X55657142Y-22371428D02*
X55657142Y-21771428D01*
X55314285Y-22371428D01*
X55314285Y-21771428D01*
X55028571Y-22371428D02*
X55028571Y-21771428D01*
X54885714Y-21771428D01*
X54800000Y-21800000D01*
X54742857Y-21857142D01*
X54714285Y-21914285D01*
X54685714Y-22028571D01*
X54685714Y-22114285D01*
X54714285Y-22228571D01*
X54742857Y-22285714D01*
X54800000Y-22342857D01*
X54885714Y-22371428D01*
X55028571Y-22371428D01*
X53114285Y-46442857D02*
X53028571Y-46471428D01*
X52885714Y-46471428D01*
X52828571Y-46442857D01*
X52800000Y-46414285D01*
X52771428Y-46357142D01*
X52771428Y-46300000D01*
X52800000Y-46242857D01*
X52828571Y-46214285D01*
X52885714Y-46185714D01*
X53000000Y-46157142D01*
X53057142Y-46128571D01*
X53085714Y-46100000D01*
X53114285Y-46042857D01*
X53114285Y-45985714D01*
X53085714Y-45928571D01*
X53057142Y-45900000D01*
X53000000Y-45871428D01*
X52857142Y-45871428D01*
X52771428Y-45900000D01*
X52542857Y-45928571D02*
X52514285Y-45900000D01*
X52457142Y-45871428D01*
X52314285Y-45871428D01*
X52257142Y-45900000D01*
X52228571Y-45928571D01*
X52200000Y-45985714D01*
X52200000Y-46042857D01*
X52228571Y-46128571D01*
X52571428Y-46471428D01*
X52200000Y-46471428D01*
X51971428Y-46300000D02*
X51685714Y-46300000D01*
X52028571Y-46471428D02*
X51828571Y-45871428D01*
X51628571Y-46471428D01*
X49642857Y-31888428D02*
X49642857Y-31288428D01*
X49414285Y-31288428D01*
X49357142Y-31317000D01*
X49328571Y-31345571D01*
X49300000Y-31402714D01*
X49300000Y-31488428D01*
X49328571Y-31545571D01*
X49357142Y-31574142D01*
X49414285Y-31602714D01*
X49642857Y-31602714D01*
X49042857Y-31888428D02*
X49042857Y-31488428D01*
X49042857Y-31602714D02*
X49014285Y-31545571D01*
X48985714Y-31517000D01*
X48928571Y-31488428D01*
X48871428Y-31488428D01*
X48585714Y-31888428D02*
X48642857Y-31859857D01*
X48671428Y-31831285D01*
X48700000Y-31774142D01*
X48700000Y-31602714D01*
X48671428Y-31545571D01*
X48642857Y-31517000D01*
X48585714Y-31488428D01*
X48500000Y-31488428D01*
X48442857Y-31517000D01*
X48414285Y-31545571D01*
X48385714Y-31602714D01*
X48385714Y-31774142D01*
X48414285Y-31831285D01*
X48442857Y-31859857D01*
X48500000Y-31888428D01*
X48585714Y-31888428D01*
X48128571Y-31888428D02*
X48128571Y-31288428D01*
X48128571Y-31517000D02*
X48071428Y-31488428D01*
X47957142Y-31488428D01*
X47900000Y-31517000D01*
X47871428Y-31545571D01*
X47842857Y-31602714D01*
X47842857Y-31774142D01*
X47871428Y-31831285D01*
X47900000Y-31859857D01*
X47957142Y-31888428D01*
X48071428Y-31888428D01*
X48128571Y-31859857D01*
X47357142Y-31859857D02*
X47414285Y-31888428D01*
X47528571Y-31888428D01*
X47585714Y-31859857D01*
X47614285Y-31802714D01*
X47614285Y-31574142D01*
X47585714Y-31517000D01*
X47528571Y-31488428D01*
X47414285Y-31488428D01*
X47357142Y-31517000D01*
X47328571Y-31574142D01*
X47328571Y-31631285D01*
X47614285Y-31688428D01*
X49114285Y-32825857D02*
X49028571Y-32854428D01*
X48885714Y-32854428D01*
X48828571Y-32825857D01*
X48800000Y-32797285D01*
X48771428Y-32740142D01*
X48771428Y-32683000D01*
X48800000Y-32625857D01*
X48828571Y-32597285D01*
X48885714Y-32568714D01*
X49000000Y-32540142D01*
X49057142Y-32511571D01*
X49085714Y-32483000D01*
X49114285Y-32425857D01*
X49114285Y-32368714D01*
X49085714Y-32311571D01*
X49057142Y-32283000D01*
X49000000Y-32254428D01*
X48857142Y-32254428D01*
X48771428Y-32283000D01*
X48514285Y-32854428D02*
X48514285Y-32254428D01*
X47914285Y-32283000D02*
X47971428Y-32254428D01*
X48057142Y-32254428D01*
X48142857Y-32283000D01*
X48200000Y-32340142D01*
X48228571Y-32397285D01*
X48257142Y-32511571D01*
X48257142Y-32597285D01*
X48228571Y-32711571D01*
X48200000Y-32768714D01*
X48142857Y-32825857D01*
X48057142Y-32854428D01*
X48000000Y-32854428D01*
X47914285Y-32825857D01*
X47885714Y-32797285D01*
X47885714Y-32597285D01*
X48000000Y-32597285D01*
X53142857Y-34388428D02*
X53142857Y-33788428D01*
X52914285Y-33788428D01*
X52857142Y-33817000D01*
X52828571Y-33845571D01*
X52800000Y-33902714D01*
X52800000Y-33988428D01*
X52828571Y-34045571D01*
X52857142Y-34074142D01*
X52914285Y-34102714D01*
X53142857Y-34102714D01*
X52542857Y-34388428D02*
X52542857Y-33988428D01*
X52542857Y-34102714D02*
X52514285Y-34045571D01*
X52485714Y-34017000D01*
X52428571Y-33988428D01*
X52371428Y-33988428D01*
X52085714Y-34388428D02*
X52142857Y-34359857D01*
X52171428Y-34331285D01*
X52200000Y-34274142D01*
X52200000Y-34102714D01*
X52171428Y-34045571D01*
X52142857Y-34017000D01*
X52085714Y-33988428D01*
X52000000Y-33988428D01*
X51942857Y-34017000D01*
X51914285Y-34045571D01*
X51885714Y-34102714D01*
X51885714Y-34274142D01*
X51914285Y-34331285D01*
X51942857Y-34359857D01*
X52000000Y-34388428D01*
X52085714Y-34388428D01*
X51628571Y-34388428D02*
X51628571Y-33788428D01*
X51628571Y-34017000D02*
X51571428Y-33988428D01*
X51457142Y-33988428D01*
X51400000Y-34017000D01*
X51371428Y-34045571D01*
X51342857Y-34102714D01*
X51342857Y-34274142D01*
X51371428Y-34331285D01*
X51400000Y-34359857D01*
X51457142Y-34388428D01*
X51571428Y-34388428D01*
X51628571Y-34359857D01*
X50857142Y-34359857D02*
X50914285Y-34388428D01*
X51028571Y-34388428D01*
X51085714Y-34359857D01*
X51114285Y-34302714D01*
X51114285Y-34074142D01*
X51085714Y-34017000D01*
X51028571Y-33988428D01*
X50914285Y-33988428D01*
X50857142Y-34017000D01*
X50828571Y-34074142D01*
X50828571Y-34131285D01*
X51114285Y-34188428D01*
X51657142Y-34754428D02*
X51457142Y-35354428D01*
X51257142Y-34754428D01*
X50714285Y-35297285D02*
X50742857Y-35325857D01*
X50828571Y-35354428D01*
X50885714Y-35354428D01*
X50971428Y-35325857D01*
X51028571Y-35268714D01*
X51057142Y-35211571D01*
X51085714Y-35097285D01*
X51085714Y-35011571D01*
X51057142Y-34897285D01*
X51028571Y-34840142D01*
X50971428Y-34783000D01*
X50885714Y-34754428D01*
X50828571Y-34754428D01*
X50742857Y-34783000D01*
X50714285Y-34811571D01*
X50114285Y-35297285D02*
X50142857Y-35325857D01*
X50228571Y-35354428D01*
X50285714Y-35354428D01*
X50371428Y-35325857D01*
X50428571Y-35268714D01*
X50457142Y-35211571D01*
X50485714Y-35097285D01*
X50485714Y-35011571D01*
X50457142Y-34897285D01*
X50428571Y-34840142D01*
X50371428Y-34783000D01*
X50285714Y-34754428D01*
X50228571Y-34754428D01*
X50142857Y-34783000D01*
X50114285Y-34811571D01*
X43842857Y-31888428D02*
X43842857Y-31288428D01*
X43614285Y-31288428D01*
X43557142Y-31317000D01*
X43528571Y-31345571D01*
X43500000Y-31402714D01*
X43500000Y-31488428D01*
X43528571Y-31545571D01*
X43557142Y-31574142D01*
X43614285Y-31602714D01*
X43842857Y-31602714D01*
X43242857Y-31888428D02*
X43242857Y-31488428D01*
X43242857Y-31602714D02*
X43214285Y-31545571D01*
X43185714Y-31517000D01*
X43128571Y-31488428D01*
X43071428Y-31488428D01*
X42785714Y-31888428D02*
X42842857Y-31859857D01*
X42871428Y-31831285D01*
X42900000Y-31774142D01*
X42900000Y-31602714D01*
X42871428Y-31545571D01*
X42842857Y-31517000D01*
X42785714Y-31488428D01*
X42700000Y-31488428D01*
X42642857Y-31517000D01*
X42614285Y-31545571D01*
X42585714Y-31602714D01*
X42585714Y-31774142D01*
X42614285Y-31831285D01*
X42642857Y-31859857D01*
X42700000Y-31888428D01*
X42785714Y-31888428D01*
X42328571Y-31888428D02*
X42328571Y-31288428D01*
X42328571Y-31517000D02*
X42271428Y-31488428D01*
X42157142Y-31488428D01*
X42100000Y-31517000D01*
X42071428Y-31545571D01*
X42042857Y-31602714D01*
X42042857Y-31774142D01*
X42071428Y-31831285D01*
X42100000Y-31859857D01*
X42157142Y-31888428D01*
X42271428Y-31888428D01*
X42328571Y-31859857D01*
X41557142Y-31859857D02*
X41614285Y-31888428D01*
X41728571Y-31888428D01*
X41785714Y-31859857D01*
X41814285Y-31802714D01*
X41814285Y-31574142D01*
X41785714Y-31517000D01*
X41728571Y-31488428D01*
X41614285Y-31488428D01*
X41557142Y-31517000D01*
X41528571Y-31574142D01*
X41528571Y-31631285D01*
X41814285Y-31688428D01*
X43500000Y-32254428D02*
X43300000Y-32854428D01*
X43100000Y-32254428D01*
X42557142Y-32797285D02*
X42585714Y-32825857D01*
X42671428Y-32854428D01*
X42728571Y-32854428D01*
X42814285Y-32825857D01*
X42871428Y-32768714D01*
X42900000Y-32711571D01*
X42928571Y-32597285D01*
X42928571Y-32511571D01*
X42900000Y-32397285D01*
X42871428Y-32340142D01*
X42814285Y-32283000D01*
X42728571Y-32254428D01*
X42671428Y-32254428D01*
X42585714Y-32283000D01*
X42557142Y-32311571D01*
X41957142Y-32797285D02*
X41985714Y-32825857D01*
X42071428Y-32854428D01*
X42128571Y-32854428D01*
X42214285Y-32825857D01*
X42271428Y-32768714D01*
X42300000Y-32711571D01*
X42328571Y-32597285D01*
X42328571Y-32511571D01*
X42300000Y-32397285D01*
X42271428Y-32340142D01*
X42214285Y-32283000D01*
X42128571Y-32254428D01*
X42071428Y-32254428D01*
X41985714Y-32283000D01*
X41957142Y-32311571D01*
X53157142Y-43442857D02*
X53071428Y-43471428D01*
X52928571Y-43471428D01*
X52871428Y-43442857D01*
X52842857Y-43414285D01*
X52814285Y-43357142D01*
X52814285Y-43300000D01*
X52842857Y-43242857D01*
X52871428Y-43214285D01*
X52928571Y-43185714D01*
X53042857Y-43157142D01*
X53100000Y-43128571D01*
X53128571Y-43100000D01*
X53157142Y-43042857D01*
X53157142Y-42985714D01*
X53128571Y-42928571D01*
X53100000Y-42900000D01*
X53042857Y-42871428D01*
X52900000Y-42871428D01*
X52814285Y-42900000D01*
X52585714Y-42928571D02*
X52557142Y-42900000D01*
X52500000Y-42871428D01*
X52357142Y-42871428D01*
X52300000Y-42900000D01*
X52271428Y-42928571D01*
X52242857Y-42985714D01*
X52242857Y-43042857D01*
X52271428Y-43128571D01*
X52614285Y-43471428D01*
X52242857Y-43471428D01*
X51785714Y-43157142D02*
X51700000Y-43185714D01*
X51671428Y-43214285D01*
X51642857Y-43271428D01*
X51642857Y-43357142D01*
X51671428Y-43414285D01*
X51700000Y-43442857D01*
X51757142Y-43471428D01*
X51985714Y-43471428D01*
X51985714Y-42871428D01*
X51785714Y-42871428D01*
X51728571Y-42900000D01*
X51700000Y-42928571D01*
X51671428Y-42985714D01*
X51671428Y-43042857D01*
X51700000Y-43100000D01*
X51728571Y-43128571D01*
X51785714Y-43157142D01*
X51985714Y-43157142D01*
X53128571Y-22371428D02*
X53128571Y-21771428D01*
X53128571Y-22057142D02*
X52785714Y-22057142D01*
X52785714Y-22371428D02*
X52785714Y-21771428D01*
X52500000Y-22057142D02*
X52300000Y-22057142D01*
X52214285Y-22371428D02*
X52500000Y-22371428D01*
X52500000Y-21771428D01*
X52214285Y-21771428D01*
X51585714Y-21771428D02*
X51385714Y-22371428D01*
X51185714Y-21771428D01*
X50642857Y-22314285D02*
X50671428Y-22342857D01*
X50757142Y-22371428D01*
X50814285Y-22371428D01*
X50900000Y-22342857D01*
X50957142Y-22285714D01*
X50985714Y-22228571D01*
X51014285Y-22114285D01*
X51014285Y-22028571D01*
X50985714Y-21914285D01*
X50957142Y-21857142D01*
X50900000Y-21800000D01*
X50814285Y-21771428D01*
X50757142Y-21771428D01*
X50671428Y-21800000D01*
X50642857Y-21828571D01*
X50042857Y-22314285D02*
X50071428Y-22342857D01*
X50157142Y-22371428D01*
X50214285Y-22371428D01*
X50300000Y-22342857D01*
X50357142Y-22285714D01*
X50385714Y-22228571D01*
X50414285Y-22114285D01*
X50414285Y-22028571D01*
X50385714Y-21914285D01*
X50357142Y-21857142D01*
X50300000Y-21800000D01*
X50214285Y-21771428D01*
X50157142Y-21771428D01*
X50071428Y-21800000D01*
X50042857Y-21828571D01*
X53200000Y-40488428D02*
X53200000Y-39888428D01*
X52857142Y-40488428D01*
X52857142Y-39888428D01*
X52342857Y-40459857D02*
X52400000Y-40488428D01*
X52514285Y-40488428D01*
X52571428Y-40459857D01*
X52600000Y-40402714D01*
X52600000Y-40174142D01*
X52571428Y-40117000D01*
X52514285Y-40088428D01*
X52400000Y-40088428D01*
X52342857Y-40117000D01*
X52314285Y-40174142D01*
X52314285Y-40231285D01*
X52600000Y-40288428D01*
X51971428Y-40488428D02*
X52028571Y-40459857D01*
X52057142Y-40431285D01*
X52085714Y-40374142D01*
X52085714Y-40202714D01*
X52057142Y-40145571D01*
X52028571Y-40117000D01*
X51971428Y-40088428D01*
X51885714Y-40088428D01*
X51828571Y-40117000D01*
X51800000Y-40145571D01*
X51771428Y-40202714D01*
X51771428Y-40374142D01*
X51800000Y-40431285D01*
X51828571Y-40459857D01*
X51885714Y-40488428D01*
X51971428Y-40488428D01*
X51700000Y-40854428D02*
X51500000Y-41454428D01*
X51300000Y-40854428D01*
X50757142Y-41397285D02*
X50785714Y-41425857D01*
X50871428Y-41454428D01*
X50928571Y-41454428D01*
X51014285Y-41425857D01*
X51071428Y-41368714D01*
X51100000Y-41311571D01*
X51128571Y-41197285D01*
X51128571Y-41111571D01*
X51100000Y-40997285D01*
X51071428Y-40940142D01*
X51014285Y-40883000D01*
X50928571Y-40854428D01*
X50871428Y-40854428D01*
X50785714Y-40883000D01*
X50757142Y-40911571D01*
X50157142Y-41397285D02*
X50185714Y-41425857D01*
X50271428Y-41454428D01*
X50328571Y-41454428D01*
X50414285Y-41425857D01*
X50471428Y-41368714D01*
X50500000Y-41311571D01*
X50528571Y-41197285D01*
X50528571Y-41111571D01*
X50500000Y-40997285D01*
X50471428Y-40940142D01*
X50414285Y-40883000D01*
X50328571Y-40854428D01*
X50271428Y-40854428D01*
X50185714Y-40883000D01*
X50157142Y-40911571D01*
X53257142Y-27871428D02*
X52914285Y-27871428D01*
X53085714Y-28471428D02*
X53085714Y-27871428D01*
X52714285Y-28471428D02*
X52714285Y-27871428D01*
X52714285Y-28157142D02*
X52371428Y-28157142D01*
X52371428Y-28471428D02*
X52371428Y-27871428D01*
X51771428Y-28471428D02*
X52114285Y-28471428D01*
X51942857Y-28471428D02*
X51942857Y-27871428D01*
X52000000Y-27957142D01*
X52057142Y-28014285D01*
X52114285Y-28042857D01*
X51142857Y-27871428D02*
X50942857Y-28471428D01*
X50742857Y-27871428D01*
X50200000Y-28414285D02*
X50228571Y-28442857D01*
X50314285Y-28471428D01*
X50371428Y-28471428D01*
X50457142Y-28442857D01*
X50514285Y-28385714D01*
X50542857Y-28328571D01*
X50571428Y-28214285D01*
X50571428Y-28128571D01*
X50542857Y-28014285D01*
X50514285Y-27957142D01*
X50457142Y-27900000D01*
X50371428Y-27871428D01*
X50314285Y-27871428D01*
X50228571Y-27900000D01*
X50200000Y-27928571D01*
X49600000Y-28414285D02*
X49628571Y-28442857D01*
X49714285Y-28471428D01*
X49771428Y-28471428D01*
X49857142Y-28442857D01*
X49914285Y-28385714D01*
X49942857Y-28328571D01*
X49971428Y-28214285D01*
X49971428Y-28128571D01*
X49942857Y-28014285D01*
X49914285Y-27957142D01*
X49857142Y-27900000D01*
X49771428Y-27871428D01*
X49714285Y-27871428D01*
X49628571Y-27900000D01*
X49600000Y-27928571D01*
X46842857Y-31888428D02*
X46842857Y-31288428D01*
X46614285Y-31288428D01*
X46557142Y-31317000D01*
X46528571Y-31345571D01*
X46500000Y-31402714D01*
X46500000Y-31488428D01*
X46528571Y-31545571D01*
X46557142Y-31574142D01*
X46614285Y-31602714D01*
X46842857Y-31602714D01*
X46242857Y-31888428D02*
X46242857Y-31488428D01*
X46242857Y-31602714D02*
X46214285Y-31545571D01*
X46185714Y-31517000D01*
X46128571Y-31488428D01*
X46071428Y-31488428D01*
X45785714Y-31888428D02*
X45842857Y-31859857D01*
X45871428Y-31831285D01*
X45900000Y-31774142D01*
X45900000Y-31602714D01*
X45871428Y-31545571D01*
X45842857Y-31517000D01*
X45785714Y-31488428D01*
X45700000Y-31488428D01*
X45642857Y-31517000D01*
X45614285Y-31545571D01*
X45585714Y-31602714D01*
X45585714Y-31774142D01*
X45614285Y-31831285D01*
X45642857Y-31859857D01*
X45700000Y-31888428D01*
X45785714Y-31888428D01*
X45328571Y-31888428D02*
X45328571Y-31288428D01*
X45328571Y-31517000D02*
X45271428Y-31488428D01*
X45157142Y-31488428D01*
X45100000Y-31517000D01*
X45071428Y-31545571D01*
X45042857Y-31602714D01*
X45042857Y-31774142D01*
X45071428Y-31831285D01*
X45100000Y-31859857D01*
X45157142Y-31888428D01*
X45271428Y-31888428D01*
X45328571Y-31859857D01*
X44557142Y-31859857D02*
X44614285Y-31888428D01*
X44728571Y-31888428D01*
X44785714Y-31859857D01*
X44814285Y-31802714D01*
X44814285Y-31574142D01*
X44785714Y-31517000D01*
X44728571Y-31488428D01*
X44614285Y-31488428D01*
X44557142Y-31517000D01*
X44528571Y-31574142D01*
X44528571Y-31631285D01*
X44814285Y-31688428D01*
X46157142Y-32283000D02*
X46214285Y-32254428D01*
X46300000Y-32254428D01*
X46385714Y-32283000D01*
X46442857Y-32340142D01*
X46471428Y-32397285D01*
X46500000Y-32511571D01*
X46500000Y-32597285D01*
X46471428Y-32711571D01*
X46442857Y-32768714D01*
X46385714Y-32825857D01*
X46300000Y-32854428D01*
X46242857Y-32854428D01*
X46157142Y-32825857D01*
X46128571Y-32797285D01*
X46128571Y-32597285D01*
X46242857Y-32597285D01*
X45871428Y-32854428D02*
X45871428Y-32254428D01*
X45528571Y-32854428D01*
X45528571Y-32254428D01*
X45242857Y-32854428D02*
X45242857Y-32254428D01*
X45100000Y-32254428D01*
X45014285Y-32283000D01*
X44957142Y-32340142D01*
X44928571Y-32397285D01*
X44900000Y-32511571D01*
X44900000Y-32597285D01*
X44928571Y-32711571D01*
X44957142Y-32768714D01*
X45014285Y-32825857D01*
X45100000Y-32854428D01*
X45242857Y-32854428D01*
X27625857Y-31742857D02*
X27625857Y-31942857D01*
X27311571Y-31942857D02*
X27911571Y-31942857D01*
X27911571Y-31657142D01*
X27311571Y-31171428D02*
X27625857Y-31171428D01*
X27683000Y-31200000D01*
X27711571Y-31257142D01*
X27711571Y-31371428D01*
X27683000Y-31428571D01*
X27340142Y-31171428D02*
X27311571Y-31228571D01*
X27311571Y-31371428D01*
X27340142Y-31428571D01*
X27397285Y-31457142D01*
X27454428Y-31457142D01*
X27511571Y-31428571D01*
X27540142Y-31371428D01*
X27540142Y-31228571D01*
X27568714Y-31171428D01*
X27711571Y-30885714D02*
X27311571Y-30885714D01*
X27654428Y-30885714D02*
X27683000Y-30857142D01*
X27711571Y-30800000D01*
X27711571Y-30714285D01*
X27683000Y-30657142D01*
X27625857Y-30628571D01*
X27311571Y-30628571D01*
X27911571Y-30228571D02*
X27911571Y-30171428D01*
X27883000Y-30114285D01*
X27854428Y-30085714D01*
X27797285Y-30057142D01*
X27683000Y-30028571D01*
X27540142Y-30028571D01*
X27425857Y-30057142D01*
X27368714Y-30085714D01*
X27340142Y-30114285D01*
X27311571Y-30171428D01*
X27311571Y-30228571D01*
X27340142Y-30285714D01*
X27368714Y-30314285D01*
X27425857Y-30342857D01*
X27540142Y-30371428D01*
X27683000Y-30371428D01*
X27797285Y-30342857D01*
X27854428Y-30314285D01*
X27883000Y-30285714D01*
X27911571Y-30228571D01*
X26917000Y-31457142D02*
X26945571Y-31514285D01*
X26945571Y-31600000D01*
X26917000Y-31685714D01*
X26859857Y-31742857D01*
X26802714Y-31771428D01*
X26688428Y-31800000D01*
X26602714Y-31800000D01*
X26488428Y-31771428D01*
X26431285Y-31742857D01*
X26374142Y-31685714D01*
X26345571Y-31600000D01*
X26345571Y-31542857D01*
X26374142Y-31457142D01*
X26402714Y-31428571D01*
X26602714Y-31428571D01*
X26602714Y-31542857D01*
X26345571Y-31171428D02*
X26945571Y-31171428D01*
X26345571Y-30828571D01*
X26945571Y-30828571D01*
X26345571Y-30542857D02*
X26945571Y-30542857D01*
X26945571Y-30400000D01*
X26917000Y-30314285D01*
X26859857Y-30257142D01*
X26802714Y-30228571D01*
X26688428Y-30200000D01*
X26602714Y-30200000D01*
X26488428Y-30228571D01*
X26431285Y-30257142D01*
X26374142Y-30314285D01*
X26345571Y-30400000D01*
X26345571Y-30542857D01*
X56314285Y-46442857D02*
X56228571Y-46471428D01*
X56085714Y-46471428D01*
X56028571Y-46442857D01*
X56000000Y-46414285D01*
X55971428Y-46357142D01*
X55971428Y-46300000D01*
X56000000Y-46242857D01*
X56028571Y-46214285D01*
X56085714Y-46185714D01*
X56200000Y-46157142D01*
X56257142Y-46128571D01*
X56285714Y-46100000D01*
X56314285Y-46042857D01*
X56314285Y-45985714D01*
X56285714Y-45928571D01*
X56257142Y-45900000D01*
X56200000Y-45871428D01*
X56057142Y-45871428D01*
X55971428Y-45900000D01*
X55400000Y-46471428D02*
X55742857Y-46471428D01*
X55571428Y-46471428D02*
X55571428Y-45871428D01*
X55628571Y-45957142D01*
X55685714Y-46014285D01*
X55742857Y-46042857D01*
X55171428Y-46300000D02*
X54885714Y-46300000D01*
X55228571Y-46471428D02*
X55028571Y-45871428D01*
X54828571Y-46471428D01*
X27625857Y-29142857D02*
X27625857Y-29342857D01*
X27311571Y-29342857D02*
X27911571Y-29342857D01*
X27911571Y-29057142D01*
X27311571Y-28571428D02*
X27625857Y-28571428D01*
X27683000Y-28600000D01*
X27711571Y-28657142D01*
X27711571Y-28771428D01*
X27683000Y-28828571D01*
X27340142Y-28571428D02*
X27311571Y-28628571D01*
X27311571Y-28771428D01*
X27340142Y-28828571D01*
X27397285Y-28857142D01*
X27454428Y-28857142D01*
X27511571Y-28828571D01*
X27540142Y-28771428D01*
X27540142Y-28628571D01*
X27568714Y-28571428D01*
X27711571Y-28285714D02*
X27311571Y-28285714D01*
X27654428Y-28285714D02*
X27683000Y-28257142D01*
X27711571Y-28200000D01*
X27711571Y-28114285D01*
X27683000Y-28057142D01*
X27625857Y-28028571D01*
X27311571Y-28028571D01*
X27911571Y-27628571D02*
X27911571Y-27571428D01*
X27883000Y-27514285D01*
X27854428Y-27485714D01*
X27797285Y-27457142D01*
X27683000Y-27428571D01*
X27540142Y-27428571D01*
X27425857Y-27457142D01*
X27368714Y-27485714D01*
X27340142Y-27514285D01*
X27311571Y-27571428D01*
X27311571Y-27628571D01*
X27340142Y-27685714D01*
X27368714Y-27714285D01*
X27425857Y-27742857D01*
X27540142Y-27771428D01*
X27683000Y-27771428D01*
X27797285Y-27742857D01*
X27854428Y-27714285D01*
X27883000Y-27685714D01*
X27911571Y-27628571D01*
X26945571Y-29200000D02*
X26345571Y-29000000D01*
X26945571Y-28800000D01*
X26402714Y-28257142D02*
X26374142Y-28285714D01*
X26345571Y-28371428D01*
X26345571Y-28428571D01*
X26374142Y-28514285D01*
X26431285Y-28571428D01*
X26488428Y-28600000D01*
X26602714Y-28628571D01*
X26688428Y-28628571D01*
X26802714Y-28600000D01*
X26859857Y-28571428D01*
X26917000Y-28514285D01*
X26945571Y-28428571D01*
X26945571Y-28371428D01*
X26917000Y-28285714D01*
X26888428Y-28257142D01*
X26402714Y-27657142D02*
X26374142Y-27685714D01*
X26345571Y-27771428D01*
X26345571Y-27828571D01*
X26374142Y-27914285D01*
X26431285Y-27971428D01*
X26488428Y-28000000D01*
X26602714Y-28028571D01*
X26688428Y-28028571D01*
X26802714Y-28000000D01*
X26859857Y-27971428D01*
X26917000Y-27914285D01*
X26945571Y-27828571D01*
X26945571Y-27771428D01*
X26917000Y-27685714D01*
X26888428Y-27657142D01*
X37971428Y-47188428D02*
X37628571Y-47188428D01*
X37800000Y-47788428D02*
X37800000Y-47188428D01*
X37428571Y-47788428D02*
X37428571Y-47188428D01*
X37428571Y-47474142D02*
X37085714Y-47474142D01*
X37085714Y-47788428D02*
X37085714Y-47188428D01*
X36685714Y-47188428D02*
X36628571Y-47188428D01*
X36571428Y-47217000D01*
X36542857Y-47245571D01*
X36514285Y-47302714D01*
X36485714Y-47417000D01*
X36485714Y-47559857D01*
X36514285Y-47674142D01*
X36542857Y-47731285D01*
X36571428Y-47759857D01*
X36628571Y-47788428D01*
X36685714Y-47788428D01*
X36742857Y-47759857D01*
X36771428Y-47731285D01*
X36800000Y-47674142D01*
X36828571Y-47559857D01*
X36828571Y-47417000D01*
X36800000Y-47302714D01*
X36771428Y-47245571D01*
X36742857Y-47217000D01*
X36685714Y-47188428D01*
X37657142Y-48183000D02*
X37714285Y-48154428D01*
X37800000Y-48154428D01*
X37885714Y-48183000D01*
X37942857Y-48240142D01*
X37971428Y-48297285D01*
X38000000Y-48411571D01*
X38000000Y-48497285D01*
X37971428Y-48611571D01*
X37942857Y-48668714D01*
X37885714Y-48725857D01*
X37800000Y-48754428D01*
X37742857Y-48754428D01*
X37657142Y-48725857D01*
X37628571Y-48697285D01*
X37628571Y-48497285D01*
X37742857Y-48497285D01*
X37371428Y-48754428D02*
X37371428Y-48154428D01*
X37028571Y-48754428D01*
X37028571Y-48154428D01*
X36742857Y-48754428D02*
X36742857Y-48154428D01*
X36600000Y-48154428D01*
X36514285Y-48183000D01*
X36457142Y-48240142D01*
X36428571Y-48297285D01*
X36400000Y-48411571D01*
X36400000Y-48497285D01*
X36428571Y-48611571D01*
X36457142Y-48668714D01*
X36514285Y-48725857D01*
X36600000Y-48754428D01*
X36742857Y-48754428D01*
X53142857Y-37488428D02*
X53142857Y-36888428D01*
X52914285Y-36888428D01*
X52857142Y-36917000D01*
X52828571Y-36945571D01*
X52800000Y-37002714D01*
X52800000Y-37088428D01*
X52828571Y-37145571D01*
X52857142Y-37174142D01*
X52914285Y-37202714D01*
X53142857Y-37202714D01*
X52542857Y-37488428D02*
X52542857Y-37088428D01*
X52542857Y-37202714D02*
X52514285Y-37145571D01*
X52485714Y-37117000D01*
X52428571Y-37088428D01*
X52371428Y-37088428D01*
X52085714Y-37488428D02*
X52142857Y-37459857D01*
X52171428Y-37431285D01*
X52200000Y-37374142D01*
X52200000Y-37202714D01*
X52171428Y-37145571D01*
X52142857Y-37117000D01*
X52085714Y-37088428D01*
X52000000Y-37088428D01*
X51942857Y-37117000D01*
X51914285Y-37145571D01*
X51885714Y-37202714D01*
X51885714Y-37374142D01*
X51914285Y-37431285D01*
X51942857Y-37459857D01*
X52000000Y-37488428D01*
X52085714Y-37488428D01*
X51628571Y-37488428D02*
X51628571Y-36888428D01*
X51628571Y-37117000D02*
X51571428Y-37088428D01*
X51457142Y-37088428D01*
X51400000Y-37117000D01*
X51371428Y-37145571D01*
X51342857Y-37202714D01*
X51342857Y-37374142D01*
X51371428Y-37431285D01*
X51400000Y-37459857D01*
X51457142Y-37488428D01*
X51571428Y-37488428D01*
X51628571Y-37459857D01*
X50857142Y-37459857D02*
X50914285Y-37488428D01*
X51028571Y-37488428D01*
X51085714Y-37459857D01*
X51114285Y-37402714D01*
X51114285Y-37174142D01*
X51085714Y-37117000D01*
X51028571Y-37088428D01*
X50914285Y-37088428D01*
X50857142Y-37117000D01*
X50828571Y-37174142D01*
X50828571Y-37231285D01*
X51114285Y-37288428D01*
X51471428Y-38425857D02*
X51385714Y-38454428D01*
X51242857Y-38454428D01*
X51185714Y-38425857D01*
X51157142Y-38397285D01*
X51128571Y-38340142D01*
X51128571Y-38283000D01*
X51157142Y-38225857D01*
X51185714Y-38197285D01*
X51242857Y-38168714D01*
X51357142Y-38140142D01*
X51414285Y-38111571D01*
X51442857Y-38083000D01*
X51471428Y-38025857D01*
X51471428Y-37968714D01*
X51442857Y-37911571D01*
X51414285Y-37883000D01*
X51357142Y-37854428D01*
X51214285Y-37854428D01*
X51128571Y-37883000D01*
X50871428Y-38454428D02*
X50871428Y-37854428D01*
X50271428Y-37883000D02*
X50328571Y-37854428D01*
X50414285Y-37854428D01*
X50500000Y-37883000D01*
X50557142Y-37940142D01*
X50585714Y-37997285D01*
X50614285Y-38111571D01*
X50614285Y-38197285D01*
X50585714Y-38311571D01*
X50557142Y-38368714D01*
X50500000Y-38425857D01*
X50414285Y-38454428D01*
X50357142Y-38454428D01*
X50271428Y-38425857D01*
X50242857Y-38397285D01*
X50242857Y-38197285D01*
X50357142Y-38197285D01*
X53257142Y-24871428D02*
X52914285Y-24871428D01*
X53085714Y-25471428D02*
X53085714Y-24871428D01*
X52714285Y-25471428D02*
X52714285Y-24871428D01*
X52714285Y-25157142D02*
X52371428Y-25157142D01*
X52371428Y-25471428D02*
X52371428Y-24871428D01*
X51971428Y-24871428D02*
X51914285Y-24871428D01*
X51857142Y-24900000D01*
X51828571Y-24928571D01*
X51800000Y-24985714D01*
X51771428Y-25100000D01*
X51771428Y-25242857D01*
X51800000Y-25357142D01*
X51828571Y-25414285D01*
X51857142Y-25442857D01*
X51914285Y-25471428D01*
X51971428Y-25471428D01*
X52028571Y-25442857D01*
X52057142Y-25414285D01*
X52085714Y-25357142D01*
X52114285Y-25242857D01*
X52114285Y-25100000D01*
X52085714Y-24985714D01*
X52057142Y-24928571D01*
X52028571Y-24900000D01*
X51971428Y-24871428D01*
X51142857Y-24871428D02*
X50942857Y-25471428D01*
X50742857Y-24871428D01*
X50200000Y-25414285D02*
X50228571Y-25442857D01*
X50314285Y-25471428D01*
X50371428Y-25471428D01*
X50457142Y-25442857D01*
X50514285Y-25385714D01*
X50542857Y-25328571D01*
X50571428Y-25214285D01*
X50571428Y-25128571D01*
X50542857Y-25014285D01*
X50514285Y-24957142D01*
X50457142Y-24900000D01*
X50371428Y-24871428D01*
X50314285Y-24871428D01*
X50228571Y-24900000D01*
X50200000Y-24928571D01*
X49600000Y-25414285D02*
X49628571Y-25442857D01*
X49714285Y-25471428D01*
X49771428Y-25471428D01*
X49857142Y-25442857D01*
X49914285Y-25385714D01*
X49942857Y-25328571D01*
X49971428Y-25214285D01*
X49971428Y-25128571D01*
X49942857Y-25014285D01*
X49914285Y-24957142D01*
X49857142Y-24900000D01*
X49771428Y-24871428D01*
X49714285Y-24871428D01*
X49628571Y-24900000D01*
X49600000Y-24928571D01*
X45328571Y-40388428D02*
X45328571Y-39788428D01*
X45328571Y-40074142D02*
X44985714Y-40074142D01*
X44985714Y-40388428D02*
X44985714Y-39788428D01*
X44700000Y-40074142D02*
X44500000Y-40074142D01*
X44414285Y-40388428D02*
X44700000Y-40388428D01*
X44700000Y-39788428D01*
X44414285Y-39788428D01*
X44042857Y-39788428D02*
X43985714Y-39788428D01*
X43928571Y-39817000D01*
X43900000Y-39845571D01*
X43871428Y-39902714D01*
X43842857Y-40017000D01*
X43842857Y-40159857D01*
X43871428Y-40274142D01*
X43900000Y-40331285D01*
X43928571Y-40359857D01*
X43985714Y-40388428D01*
X44042857Y-40388428D01*
X44100000Y-40359857D01*
X44128571Y-40331285D01*
X44157142Y-40274142D01*
X44185714Y-40159857D01*
X44185714Y-40017000D01*
X44157142Y-39902714D01*
X44128571Y-39845571D01*
X44100000Y-39817000D01*
X44042857Y-39788428D01*
X45057142Y-40783000D02*
X45114285Y-40754428D01*
X45200000Y-40754428D01*
X45285714Y-40783000D01*
X45342857Y-40840142D01*
X45371428Y-40897285D01*
X45400000Y-41011571D01*
X45400000Y-41097285D01*
X45371428Y-41211571D01*
X45342857Y-41268714D01*
X45285714Y-41325857D01*
X45200000Y-41354428D01*
X45142857Y-41354428D01*
X45057142Y-41325857D01*
X45028571Y-41297285D01*
X45028571Y-41097285D01*
X45142857Y-41097285D01*
X44771428Y-41354428D02*
X44771428Y-40754428D01*
X44428571Y-41354428D01*
X44428571Y-40754428D01*
X44142857Y-41354428D02*
X44142857Y-40754428D01*
X44000000Y-40754428D01*
X43914285Y-40783000D01*
X43857142Y-40840142D01*
X43828571Y-40897285D01*
X43800000Y-41011571D01*
X43800000Y-41097285D01*
X43828571Y-41211571D01*
X43857142Y-41268714D01*
X43914285Y-41325857D01*
X44000000Y-41354428D01*
X44142857Y-41354428D01*
X27725857Y-37142857D02*
X27725857Y-37342857D01*
X27411571Y-37342857D02*
X28011571Y-37342857D01*
X28011571Y-37057142D01*
X27411571Y-36571428D02*
X27725857Y-36571428D01*
X27783000Y-36600000D01*
X27811571Y-36657142D01*
X27811571Y-36771428D01*
X27783000Y-36828571D01*
X27440142Y-36571428D02*
X27411571Y-36628571D01*
X27411571Y-36771428D01*
X27440142Y-36828571D01*
X27497285Y-36857142D01*
X27554428Y-36857142D01*
X27611571Y-36828571D01*
X27640142Y-36771428D01*
X27640142Y-36628571D01*
X27668714Y-36571428D01*
X27811571Y-36285714D02*
X27411571Y-36285714D01*
X27754428Y-36285714D02*
X27783000Y-36257142D01*
X27811571Y-36200000D01*
X27811571Y-36114285D01*
X27783000Y-36057142D01*
X27725857Y-36028571D01*
X27411571Y-36028571D01*
X27411571Y-35428571D02*
X27411571Y-35771428D01*
X27411571Y-35600000D02*
X28011571Y-35600000D01*
X27925857Y-35657142D01*
X27868714Y-35714285D01*
X27840142Y-35771428D01*
X27045571Y-37200000D02*
X26445571Y-37000000D01*
X27045571Y-36800000D01*
X26502714Y-36257142D02*
X26474142Y-36285714D01*
X26445571Y-36371428D01*
X26445571Y-36428571D01*
X26474142Y-36514285D01*
X26531285Y-36571428D01*
X26588428Y-36600000D01*
X26702714Y-36628571D01*
X26788428Y-36628571D01*
X26902714Y-36600000D01*
X26959857Y-36571428D01*
X27017000Y-36514285D01*
X27045571Y-36428571D01*
X27045571Y-36371428D01*
X27017000Y-36285714D01*
X26988428Y-36257142D01*
X26502714Y-35657142D02*
X26474142Y-35685714D01*
X26445571Y-35771428D01*
X26445571Y-35828571D01*
X26474142Y-35914285D01*
X26531285Y-35971428D01*
X26588428Y-36000000D01*
X26702714Y-36028571D01*
X26788428Y-36028571D01*
X26902714Y-36000000D01*
X26959857Y-35971428D01*
X27017000Y-35914285D01*
X27045571Y-35828571D01*
X27045571Y-35771428D01*
X27017000Y-35685714D01*
X26988428Y-35657142D01*
D11*
%TO.C,NeoPixel*%
X28100000Y-51652380D02*
X28100000Y-50652380D01*
X27528571Y-51652380D01*
X27528571Y-50652380D01*
X26671428Y-51604761D02*
X26766666Y-51652380D01*
X26957142Y-51652380D01*
X27052380Y-51604761D01*
X27100000Y-51509523D01*
X27100000Y-51128571D01*
X27052380Y-51033333D01*
X26957142Y-50985714D01*
X26766666Y-50985714D01*
X26671428Y-51033333D01*
X26623809Y-51128571D01*
X26623809Y-51223809D01*
X27100000Y-51319047D01*
X26052380Y-51652380D02*
X26147619Y-51604761D01*
X26195238Y-51557142D01*
X26242857Y-51461904D01*
X26242857Y-51176190D01*
X26195238Y-51080952D01*
X26147619Y-51033333D01*
X26052380Y-50985714D01*
X25909523Y-50985714D01*
X25814285Y-51033333D01*
X25766666Y-51080952D01*
X25719047Y-51176190D01*
X25719047Y-51461904D01*
X25766666Y-51557142D01*
X25814285Y-51604761D01*
X25909523Y-51652380D01*
X26052380Y-51652380D01*
X25290476Y-51652380D02*
X25290476Y-50652380D01*
X24909523Y-50652380D01*
X24814285Y-50700000D01*
X24766666Y-50747619D01*
X24719047Y-50842857D01*
X24719047Y-50985714D01*
X24766666Y-51080952D01*
X24814285Y-51128571D01*
X24909523Y-51176190D01*
X25290476Y-51176190D01*
X24290476Y-51652380D02*
X24290476Y-50985714D01*
X24290476Y-50652380D02*
X24338095Y-50700000D01*
X24290476Y-50747619D01*
X24242857Y-50700000D01*
X24290476Y-50652380D01*
X24290476Y-50747619D01*
X23909523Y-51652380D02*
X23385714Y-50985714D01*
X23909523Y-50985714D02*
X23385714Y-51652380D01*
X22623809Y-51604761D02*
X22719047Y-51652380D01*
X22909523Y-51652380D01*
X23004761Y-51604761D01*
X23052380Y-51509523D01*
X23052380Y-51128571D01*
X23004761Y-51033333D01*
X22909523Y-50985714D01*
X22719047Y-50985714D01*
X22623809Y-51033333D01*
X22576190Y-51128571D01*
X22576190Y-51223809D01*
X23052380Y-51319047D01*
X22004761Y-51652380D02*
X22100000Y-51604761D01*
X22147619Y-51509523D01*
X22147619Y-50652380D01*
%TO.C,E-Motor*%
X64004761Y-48028571D02*
X63671428Y-48028571D01*
X63528571Y-48552380D02*
X64004761Y-48552380D01*
X64004761Y-47552380D01*
X63528571Y-47552380D01*
X63100000Y-48171428D02*
X62338095Y-48171428D01*
X61861904Y-48552380D02*
X61861904Y-47552380D01*
X61528571Y-48266666D01*
X61195238Y-47552380D01*
X61195238Y-48552380D01*
X60576190Y-48552380D02*
X60671428Y-48504761D01*
X60719047Y-48457142D01*
X60766666Y-48361904D01*
X60766666Y-48076190D01*
X60719047Y-47980952D01*
X60671428Y-47933333D01*
X60576190Y-47885714D01*
X60433333Y-47885714D01*
X60338095Y-47933333D01*
X60290476Y-47980952D01*
X60242857Y-48076190D01*
X60242857Y-48361904D01*
X60290476Y-48457142D01*
X60338095Y-48504761D01*
X60433333Y-48552380D01*
X60576190Y-48552380D01*
X59957142Y-47885714D02*
X59576190Y-47885714D01*
X59814285Y-47552380D02*
X59814285Y-48409523D01*
X59766666Y-48504761D01*
X59671428Y-48552380D01*
X59576190Y-48552380D01*
X59100000Y-48552380D02*
X59195238Y-48504761D01*
X59242857Y-48457142D01*
X59290476Y-48361904D01*
X59290476Y-48076190D01*
X59242857Y-47980952D01*
X59195238Y-47933333D01*
X59100000Y-47885714D01*
X58957142Y-47885714D01*
X58861904Y-47933333D01*
X58814285Y-47980952D01*
X58766666Y-48076190D01*
X58766666Y-48361904D01*
X58814285Y-48457142D01*
X58861904Y-48504761D01*
X58957142Y-48552380D01*
X59100000Y-48552380D01*
X58338095Y-48552380D02*
X58338095Y-47885714D01*
X58338095Y-48076190D02*
X58290476Y-47980952D01*
X58242857Y-47933333D01*
X58147619Y-47885714D01*
X58052380Y-47885714D01*
D12*
%TO.C,NeoPixel*%
X27160000Y-48640000D02*
X27160000Y-45000000D01*
X31660000Y-48640000D02*
X27160000Y-48640000D01*
X19940000Y-39940000D02*
X31660000Y-39940000D01*
X31660000Y-39940000D02*
X31660000Y-41360000D01*
X30750000Y-47500000D02*
X31350000Y-47800000D01*
X26050000Y-44750000D02*
X26050000Y-45250000D01*
X20550000Y-47750000D02*
X20550000Y-47250000D01*
X31350000Y-47800000D02*
X31350000Y-47200000D01*
X19940000Y-50060000D02*
X31660000Y-50060000D01*
X27160000Y-41360000D02*
X27160000Y-45000000D01*
X19940000Y-45000000D02*
X19940000Y-39940000D01*
X26050000Y-47750000D02*
X20550000Y-47750000D01*
X26050000Y-42750000D02*
X20550000Y-42750000D01*
X20550000Y-45250000D02*
X20550000Y-44750000D01*
X20550000Y-42750000D02*
X20550000Y-42250000D01*
X26050000Y-42250000D02*
X26050000Y-42750000D01*
X26050000Y-47250000D02*
X26050000Y-47750000D01*
X20550000Y-44750000D02*
X26050000Y-44750000D01*
X31660000Y-41360000D02*
X27160000Y-41360000D01*
X31350000Y-47200000D02*
X30750000Y-47500000D01*
X20550000Y-47250000D02*
X26050000Y-47250000D01*
X20550000Y-42250000D02*
X26050000Y-42250000D01*
X31660000Y-50060000D02*
X31660000Y-48640000D01*
X19940000Y-45000000D02*
X19940000Y-50060000D01*
X26050000Y-45250000D02*
X20550000Y-45250000D01*
%TO.C,G\u002A\u002A\u002A*%
G36*
X39758940Y-28126875D02*
G01*
X39791568Y-28135250D01*
X39839235Y-28153416D01*
X39905852Y-28183048D01*
X39995331Y-28225820D01*
X40111585Y-28283408D01*
X40258525Y-28357486D01*
X40273424Y-28365041D01*
X40401559Y-28430481D01*
X40518906Y-28491219D01*
X40620634Y-28544695D01*
X40701913Y-28588349D01*
X40757915Y-28619620D01*
X40783808Y-28635947D01*
X40810525Y-28671305D01*
X40812786Y-28723612D01*
X40777924Y-28777768D01*
X40744848Y-28801443D01*
X40702350Y-28806578D01*
X40692089Y-28802889D01*
X40642853Y-28781324D01*
X40569356Y-28745994D01*
X40476972Y-28699756D01*
X40371075Y-28645467D01*
X40257039Y-28585985D01*
X40140239Y-28524167D01*
X40026049Y-28462872D01*
X39919843Y-28404956D01*
X39826995Y-28353277D01*
X39752880Y-28310692D01*
X39702871Y-28280060D01*
X39682344Y-28264236D01*
X39671624Y-28225960D01*
X39684796Y-28171347D01*
X39727425Y-28130085D01*
X39737438Y-28126615D01*
X39758940Y-28126875D01*
G37*
G36*
X33852648Y-25364971D02*
G01*
X33867555Y-25377592D01*
X33876186Y-25393838D01*
X33878201Y-25420610D01*
X33873318Y-25464854D01*
X33861254Y-25533512D01*
X33841728Y-25633527D01*
X33828179Y-25698577D01*
X33803177Y-25800667D01*
X33779944Y-25872348D01*
X33759731Y-25909403D01*
X33759680Y-25909454D01*
X33725316Y-25937647D01*
X33694857Y-25938723D01*
X33651732Y-25913276D01*
X33625047Y-25884767D01*
X33611292Y-25841624D01*
X33610742Y-25778466D01*
X33623353Y-25689690D01*
X33649084Y-25569692D01*
X33652756Y-25554331D01*
X33684028Y-25446982D01*
X33717618Y-25376418D01*
X33755561Y-25340593D01*
X33799892Y-25337459D01*
X33852648Y-25364971D01*
G37*
G36*
X32727897Y-24494120D02*
G01*
X32804300Y-24537045D01*
X32847969Y-24571219D01*
X32878339Y-24608274D01*
X32879599Y-24644280D01*
X32854969Y-24688883D01*
X32841940Y-24704906D01*
X32800924Y-24728448D01*
X32745467Y-24724249D01*
X32668902Y-24692435D01*
X32648282Y-24681104D01*
X32587000Y-24631142D01*
X32560719Y-24576207D01*
X32571447Y-24519856D01*
X32602557Y-24488785D01*
X32658274Y-24477858D01*
X32727897Y-24494120D01*
G37*
G36*
X32023767Y-24139712D02*
G01*
X32084865Y-24165762D01*
X32172231Y-24210324D01*
X32196212Y-24223062D01*
X32264316Y-24261663D01*
X32305556Y-24291433D01*
X32326780Y-24318152D01*
X32334835Y-24347604D01*
X32333094Y-24391184D01*
X32317789Y-24430643D01*
X32303199Y-24444574D01*
X32270355Y-24456154D01*
X32223407Y-24449812D01*
X32156222Y-24424291D01*
X32062668Y-24378334D01*
X32001650Y-24344644D01*
X31931319Y-24295660D01*
X31895478Y-24251434D01*
X31892046Y-24208878D01*
X31918944Y-24164905D01*
X31924092Y-24159362D01*
X31950779Y-24137839D01*
X31981538Y-24130847D01*
X32023767Y-24139712D01*
G37*
G36*
X39140570Y-27801303D02*
G01*
X39190398Y-27817543D01*
X39259282Y-27847845D01*
X39338072Y-27887274D01*
X39417617Y-27930893D01*
X39488765Y-27973768D01*
X39542367Y-28010963D01*
X39569270Y-28037542D01*
X39578677Y-28077693D01*
X39558708Y-28123541D01*
X39527939Y-28154794D01*
X39484050Y-28170608D01*
X39463808Y-28167283D01*
X39409176Y-28147884D01*
X39337971Y-28115340D01*
X39258914Y-28074472D01*
X39180725Y-28030104D01*
X39112122Y-27987057D01*
X39061825Y-27950154D01*
X39038554Y-27924218D01*
X39034689Y-27908694D01*
X39043441Y-27857213D01*
X39077981Y-27816435D01*
X39128550Y-27799846D01*
X39140570Y-27801303D01*
G37*
G36*
X38563804Y-26845912D02*
G01*
X38615296Y-26864692D01*
X38683098Y-26895136D01*
X38756732Y-26931915D01*
X38825716Y-26969698D01*
X38879571Y-27003155D01*
X38907817Y-27026956D01*
X38919333Y-27055404D01*
X38919371Y-27108430D01*
X38899323Y-27151169D01*
X38897915Y-27152542D01*
X38859009Y-27171491D01*
X38802440Y-27168028D01*
X38724111Y-27141258D01*
X38619923Y-27090289D01*
X38601002Y-27080105D01*
X38530820Y-27039994D01*
X38487988Y-27009204D01*
X38465741Y-26982015D01*
X38457319Y-26952704D01*
X38460435Y-26901528D01*
X38490191Y-26858049D01*
X38545082Y-26842461D01*
X38563804Y-26845912D01*
G37*
G36*
X38414431Y-26300092D02*
G01*
X38413119Y-26352512D01*
X38407238Y-26386414D01*
X38395950Y-26409490D01*
X38378418Y-26429429D01*
X38342511Y-26458407D01*
X38312193Y-26471082D01*
X38300525Y-26466973D01*
X38256345Y-26446769D01*
X38182743Y-26411118D01*
X38082779Y-26361599D01*
X37959511Y-26299793D01*
X37816000Y-26227277D01*
X37655304Y-26145633D01*
X37480483Y-26056440D01*
X37294597Y-25961277D01*
X37100705Y-25861724D01*
X36901866Y-25759360D01*
X36701140Y-25655766D01*
X36501586Y-25552520D01*
X36306265Y-25451202D01*
X36118234Y-25353393D01*
X35940554Y-25260671D01*
X35776283Y-25174616D01*
X35628483Y-25096808D01*
X35500211Y-25028826D01*
X35394527Y-24972251D01*
X35314492Y-24928660D01*
X35263163Y-24899635D01*
X35243601Y-24886755D01*
X35234891Y-24868298D01*
X35236533Y-24822847D01*
X35517878Y-24822847D01*
X36857815Y-25510269D01*
X36899839Y-25531826D01*
X37110753Y-25639946D01*
X37310981Y-25742470D01*
X37497848Y-25838035D01*
X37668680Y-25925279D01*
X37820802Y-26002839D01*
X37951540Y-26069353D01*
X38058219Y-26123457D01*
X38138164Y-26163790D01*
X38188702Y-26188989D01*
X38207157Y-26197692D01*
X38212007Y-26183152D01*
X38210956Y-26137860D01*
X38204117Y-26069803D01*
X38192505Y-25987157D01*
X38177139Y-25898098D01*
X38159034Y-25810804D01*
X38120824Y-25672661D01*
X38027376Y-25445872D01*
X37901700Y-25236315D01*
X37746846Y-25047029D01*
X37565865Y-24881051D01*
X37361806Y-24741420D01*
X37137720Y-24631175D01*
X36896657Y-24553354D01*
X36711803Y-24521672D01*
X36504246Y-24510536D01*
X36295638Y-24521352D01*
X36101865Y-24554106D01*
X36047868Y-24568545D01*
X35937568Y-24604548D01*
X35823727Y-24648564D01*
X35716694Y-24696161D01*
X35626816Y-24742905D01*
X35564439Y-24784364D01*
X35517878Y-24822847D01*
X35236533Y-24822847D01*
X35236888Y-24813023D01*
X35277268Y-24751453D01*
X35356103Y-24683461D01*
X35371209Y-24672591D01*
X35605737Y-24528135D01*
X35851139Y-24419673D01*
X36104123Y-24347016D01*
X36361400Y-24309974D01*
X36619676Y-24308357D01*
X36875662Y-24341975D01*
X37126066Y-24410640D01*
X37367597Y-24514160D01*
X37596964Y-24652346D01*
X37810875Y-24825009D01*
X37957079Y-24977083D01*
X38097975Y-25167421D01*
X38220611Y-25386846D01*
X38288770Y-25541664D01*
X38349861Y-25730395D01*
X38388805Y-25929241D01*
X38408756Y-26151006D01*
X38410242Y-26183152D01*
X38412012Y-26221462D01*
X38414431Y-26300092D01*
G37*
G36*
X35310949Y-27013321D02*
G01*
X35369943Y-27062269D01*
X35403360Y-27099179D01*
X35460802Y-27175027D01*
X35486675Y-27235586D01*
X35482108Y-27284656D01*
X35448228Y-27326038D01*
X35420259Y-27343328D01*
X35377837Y-27346221D01*
X35329904Y-27318977D01*
X35270293Y-27259282D01*
X35217892Y-27194125D01*
X35183028Y-27130882D01*
X35178039Y-27080161D01*
X35201405Y-27037059D01*
X35211424Y-27026850D01*
X35259107Y-27001664D01*
X35310949Y-27013321D01*
G37*
G36*
X37301747Y-26202751D02*
G01*
X37349913Y-26223227D01*
X37423195Y-26256916D01*
X37516169Y-26301114D01*
X37623409Y-26353117D01*
X37739492Y-26410220D01*
X37858991Y-26469718D01*
X37976482Y-26528906D01*
X38086540Y-26585080D01*
X38183740Y-26635535D01*
X38262657Y-26677566D01*
X38317866Y-26708468D01*
X38343943Y-26725537D01*
X38353615Y-26739843D01*
X38360914Y-26786513D01*
X38350767Y-26838065D01*
X38325554Y-26875130D01*
X38300928Y-26890584D01*
X38272440Y-26901077D01*
X38272016Y-26901063D01*
X38244130Y-26891433D01*
X38187845Y-26865825D01*
X38108430Y-26827044D01*
X38011158Y-26777895D01*
X37901299Y-26721180D01*
X37784125Y-26659704D01*
X37664906Y-26596271D01*
X37548914Y-26533685D01*
X37441420Y-26474749D01*
X37347696Y-26422267D01*
X37273011Y-26379044D01*
X37222638Y-26347883D01*
X37201847Y-26331588D01*
X37194444Y-26303306D01*
X37206241Y-26254361D01*
X37239534Y-26214292D01*
X37285235Y-26197692D01*
X37301747Y-26202751D01*
G37*
G36*
X33695280Y-26042706D02*
G01*
X33728965Y-26057361D01*
X33753600Y-26092054D01*
X33770837Y-26151526D01*
X33782330Y-26240517D01*
X33789730Y-26363769D01*
X33804168Y-26548225D01*
X33858010Y-26855181D01*
X33947293Y-27154389D01*
X34070098Y-27440912D01*
X34224506Y-27709813D01*
X34408599Y-27956154D01*
X34458156Y-28015581D01*
X34508880Y-28078470D01*
X34545479Y-28126092D01*
X34555302Y-28139684D01*
X34577407Y-28176541D01*
X34577796Y-28203881D01*
X34558391Y-28238438D01*
X34542595Y-28259418D01*
X34503340Y-28285984D01*
X34456968Y-28281360D01*
X34399656Y-28244486D01*
X34327581Y-28174299D01*
X34160804Y-27973801D01*
X33988922Y-27714581D01*
X33843547Y-27432955D01*
X33727001Y-27134179D01*
X33641610Y-26823507D01*
X33589697Y-26506193D01*
X33584931Y-26460243D01*
X33573699Y-26317874D01*
X33572252Y-26209132D01*
X33581243Y-26130564D01*
X33601322Y-26078718D01*
X33633141Y-26050142D01*
X33677350Y-26041384D01*
X33695280Y-26042706D01*
G37*
G36*
X39518000Y-25496697D02*
G01*
X39556438Y-25514991D01*
X39583219Y-25557579D01*
X39604624Y-25631846D01*
X39612718Y-25674923D01*
X39612550Y-25723808D01*
X39595428Y-25762961D01*
X39568743Y-25789925D01*
X39518693Y-25806923D01*
X39517735Y-25806917D01*
X39466717Y-25787800D01*
X39427103Y-25733753D01*
X39401119Y-25647788D01*
X39397812Y-25624886D01*
X39402779Y-25554642D01*
X39433384Y-25509966D01*
X39487680Y-25494307D01*
X39518000Y-25496697D01*
G37*
G36*
X36803346Y-24023058D02*
G01*
X37082196Y-24080369D01*
X37351126Y-24172810D01*
X37606840Y-24299476D01*
X37846038Y-24459463D01*
X38065425Y-24651865D01*
X38117992Y-24706854D01*
X38209172Y-24812861D01*
X38297150Y-24927252D01*
X38377992Y-25043890D01*
X38447766Y-25156637D01*
X38502538Y-25259355D01*
X38538376Y-25345909D01*
X38551348Y-25410161D01*
X38540891Y-25445531D01*
X38508114Y-25483430D01*
X38477058Y-25503946D01*
X38457984Y-25513846D01*
X38445883Y-25511922D01*
X38404527Y-25482316D01*
X38355656Y-25416308D01*
X38298608Y-25313067D01*
X38259023Y-25238454D01*
X38109886Y-25010549D01*
X37930530Y-24803872D01*
X37724968Y-24622119D01*
X37497208Y-24468983D01*
X37251262Y-24348162D01*
X37014005Y-24268807D01*
X36745276Y-24218064D01*
X36468023Y-24205230D01*
X36182841Y-24230328D01*
X35890326Y-24293384D01*
X35856422Y-24302706D01*
X35799952Y-24316574D01*
X35765515Y-24319659D01*
X35742266Y-24311968D01*
X35719365Y-24293509D01*
X35711856Y-24286386D01*
X35680983Y-24237480D01*
X35688943Y-24191237D01*
X35735590Y-24147799D01*
X35820780Y-24107311D01*
X35944369Y-24069917D01*
X36229080Y-24017444D01*
X36517875Y-24001781D01*
X36803346Y-24023058D01*
G37*
G36*
X38484863Y-27156475D02*
G01*
X38512255Y-27180141D01*
X38528438Y-27199677D01*
X38535182Y-27216120D01*
X38534261Y-27230507D01*
X38527447Y-27243878D01*
X38516511Y-27257268D01*
X38503228Y-27271716D01*
X38487121Y-27288142D01*
X38458500Y-27305737D01*
X38423447Y-27306268D01*
X38372836Y-27288892D01*
X38297539Y-27252769D01*
X38238270Y-27223985D01*
X38189275Y-27202404D01*
X38164093Y-27194154D01*
X38146448Y-27207946D01*
X38114463Y-27246486D01*
X38075760Y-27301093D01*
X37939391Y-27478837D01*
X37758567Y-27657596D01*
X37552402Y-27812513D01*
X37325894Y-27940368D01*
X37084040Y-28037943D01*
X36831840Y-28102022D01*
X36713384Y-28119546D01*
X36451088Y-28131133D01*
X36193454Y-28106427D01*
X35943723Y-28047348D01*
X35705138Y-27955817D01*
X35480941Y-27833754D01*
X35274374Y-27683080D01*
X35088679Y-27505717D01*
X34927098Y-27303584D01*
X34792874Y-27078602D01*
X34689248Y-26832692D01*
X34639707Y-26663126D01*
X34595015Y-26398189D01*
X34590875Y-26205037D01*
X34792383Y-26205037D01*
X34808561Y-26456249D01*
X34859880Y-26700856D01*
X34946108Y-26933151D01*
X34968955Y-26980557D01*
X35096777Y-27193621D01*
X35254195Y-27385891D01*
X35436985Y-27553896D01*
X35640927Y-27694166D01*
X35861797Y-27803231D01*
X36095373Y-27877622D01*
X36338193Y-27917739D01*
X36592723Y-27923961D01*
X36840997Y-27893688D01*
X37079763Y-27827833D01*
X37305765Y-27727309D01*
X37515752Y-27593028D01*
X37706469Y-27425902D01*
X37748626Y-27381484D01*
X37811675Y-27310248D01*
X37870495Y-27238851D01*
X37919466Y-27174464D01*
X37952969Y-27124261D01*
X37965385Y-27095412D01*
X37958567Y-27090889D01*
X37921272Y-27070172D01*
X37854166Y-27034219D01*
X37760298Y-26984601D01*
X37642716Y-26922892D01*
X37504468Y-26850664D01*
X37348603Y-26769491D01*
X37178170Y-26680946D01*
X36996215Y-26586601D01*
X36805789Y-26488029D01*
X36609939Y-26386803D01*
X36411714Y-26284496D01*
X36214162Y-26182681D01*
X36020331Y-26082931D01*
X35833270Y-25986819D01*
X35656027Y-25895917D01*
X35491650Y-25811799D01*
X35343189Y-25736037D01*
X35213690Y-25670204D01*
X35106203Y-25615874D01*
X35023776Y-25574618D01*
X34969458Y-25548011D01*
X34946296Y-25537624D01*
X34936393Y-25542129D01*
X34914970Y-25573470D01*
X34892510Y-25625547D01*
X34866391Y-25705631D01*
X34811582Y-25952928D01*
X34792383Y-26205037D01*
X34590875Y-26205037D01*
X34589276Y-26130426D01*
X34622493Y-25859751D01*
X34694664Y-25586081D01*
X34702692Y-25561631D01*
X34723290Y-25494931D01*
X34736119Y-25447033D01*
X34738671Y-25426999D01*
X34738466Y-25426829D01*
X34717459Y-25414942D01*
X34671447Y-25390915D01*
X34610000Y-25359747D01*
X34542332Y-25322270D01*
X34496102Y-25285352D01*
X34475799Y-25249182D01*
X34473487Y-25232961D01*
X34485403Y-25181222D01*
X34518852Y-25139987D01*
X34563836Y-25123527D01*
X34566671Y-25124356D01*
X34597893Y-25138361D01*
X34660935Y-25168795D01*
X34753557Y-25214525D01*
X34873521Y-25274417D01*
X35018588Y-25347340D01*
X35186518Y-25432162D01*
X35375072Y-25527749D01*
X35582012Y-25632969D01*
X35805099Y-25746689D01*
X36042093Y-25867778D01*
X36290755Y-25995103D01*
X36548846Y-26127530D01*
X36636610Y-26172607D01*
X36936771Y-26326774D01*
X37204453Y-26464359D01*
X37441428Y-26586399D01*
X37649470Y-26693933D01*
X37830350Y-26787997D01*
X37985840Y-26869631D01*
X38117714Y-26939870D01*
X38227743Y-26999753D01*
X38317701Y-27050317D01*
X38389358Y-27092600D01*
X38393782Y-27095412D01*
X38444488Y-27127640D01*
X38484863Y-27156475D01*
G37*
G36*
X38684391Y-27897549D02*
G01*
X38731500Y-27915158D01*
X38770040Y-27956258D01*
X38786000Y-28006049D01*
X38785077Y-28013175D01*
X38763853Y-28056195D01*
X38716897Y-28119367D01*
X38647301Y-28198405D01*
X38616632Y-28230703D01*
X38548059Y-28296984D01*
X38497630Y-28334867D01*
X38462136Y-28346923D01*
X38427272Y-28337369D01*
X38388938Y-28304996D01*
X38366289Y-28262315D01*
X38369249Y-28222609D01*
X38372521Y-28217134D01*
X38403493Y-28175162D01*
X38450428Y-28120067D01*
X38506431Y-28058987D01*
X38564610Y-27999058D01*
X38618071Y-27947416D01*
X38659919Y-27911197D01*
X38683262Y-27897538D01*
X38684391Y-27897549D01*
G37*
G36*
X40352931Y-27889256D02*
G01*
X40541138Y-28021131D01*
X40759385Y-28171287D01*
X40923393Y-28283671D01*
X41071257Y-28385581D01*
X41191859Y-28469592D01*
X41287885Y-28537720D01*
X41362023Y-28591980D01*
X41416956Y-28634387D01*
X41455372Y-28666957D01*
X41479956Y-28691706D01*
X41493395Y-28710648D01*
X41498374Y-28725800D01*
X41495410Y-28775368D01*
X41467161Y-28819196D01*
X41416416Y-28834984D01*
X41393645Y-28826600D01*
X41338750Y-28801631D01*
X41254705Y-28761474D01*
X41144323Y-28707530D01*
X41010418Y-28641201D01*
X40855804Y-28563887D01*
X40683295Y-28476988D01*
X40495704Y-28381908D01*
X40295845Y-28280045D01*
X40086532Y-28172802D01*
X39531649Y-27887769D01*
X39977846Y-27887769D01*
X39987616Y-27897538D01*
X39997385Y-27887769D01*
X39987616Y-27878000D01*
X39977846Y-27887769D01*
X39531649Y-27887769D01*
X38798218Y-27511019D01*
X38684580Y-27683513D01*
X38646686Y-27739347D01*
X38454687Y-27980637D01*
X38234723Y-28196762D01*
X37989848Y-28385835D01*
X37723121Y-28545967D01*
X37437597Y-28675271D01*
X37136333Y-28771858D01*
X36822385Y-28833840D01*
X36746327Y-28841681D01*
X36601869Y-28847424D01*
X36440040Y-28845342D01*
X36273574Y-28835982D01*
X36115204Y-28819889D01*
X35977666Y-28797610D01*
X35908017Y-28782370D01*
X35604657Y-28692521D01*
X35319050Y-28569515D01*
X35053143Y-28415620D01*
X34808885Y-28233103D01*
X34588226Y-28024230D01*
X34393113Y-27791269D01*
X34225496Y-27536486D01*
X34087324Y-27262150D01*
X33980544Y-26970525D01*
X33907105Y-26663880D01*
X33868958Y-26344482D01*
X33866393Y-26168483D01*
X33884203Y-25928706D01*
X33923469Y-25684152D01*
X33981871Y-25448508D01*
X34057084Y-25235466D01*
X34113007Y-25102367D01*
X33973003Y-25032094D01*
X33937357Y-25014140D01*
X33850703Y-24970217D01*
X33740191Y-24913949D01*
X33609271Y-24847109D01*
X33461392Y-24771472D01*
X33300004Y-24688810D01*
X33128557Y-24600899D01*
X32950498Y-24509511D01*
X32769279Y-24416420D01*
X32680397Y-24370724D01*
X33149154Y-24370724D01*
X33154519Y-24375076D01*
X33190339Y-24395195D01*
X33254033Y-24429532D01*
X33341992Y-24476173D01*
X33450605Y-24533205D01*
X33576263Y-24598715D01*
X33715357Y-24670791D01*
X33881696Y-24757464D01*
X34039468Y-24841521D01*
X34164761Y-24910582D01*
X34256854Y-24964239D01*
X34315026Y-25002084D01*
X34338557Y-25023709D01*
X34342672Y-25037475D01*
X34340662Y-25075420D01*
X34322875Y-25132329D01*
X34287339Y-25215589D01*
X34197575Y-25439970D01*
X34129330Y-25685282D01*
X34089909Y-25941061D01*
X34077231Y-26217230D01*
X34077282Y-26234917D01*
X34094495Y-26529181D01*
X34143764Y-26806237D01*
X34226791Y-27073192D01*
X34345278Y-27337156D01*
X34409280Y-27452953D01*
X34577659Y-27701139D01*
X34774761Y-27925651D01*
X34997346Y-28124106D01*
X35242171Y-28294125D01*
X35505997Y-28433327D01*
X35785581Y-28539330D01*
X36077684Y-28609755D01*
X36188237Y-28624121D01*
X36337387Y-28634128D01*
X36499879Y-28637562D01*
X36662744Y-28634443D01*
X36813013Y-28624786D01*
X36937719Y-28608609D01*
X36955001Y-28605392D01*
X37157686Y-28555230D01*
X37369066Y-28482628D01*
X37577211Y-28392693D01*
X37770192Y-28290531D01*
X37936077Y-28181249D01*
X38061725Y-28079915D01*
X38263258Y-27885855D01*
X38444682Y-27671011D01*
X38596512Y-27445940D01*
X38608283Y-27426370D01*
X38650929Y-27360790D01*
X38688717Y-27310063D01*
X38714606Y-27283854D01*
X38716867Y-27282695D01*
X38733655Y-27280978D01*
X38761991Y-27287143D01*
X38805167Y-27302663D01*
X38866473Y-27329010D01*
X38949200Y-27367657D01*
X39056639Y-27420077D01*
X39192081Y-27487742D01*
X39358817Y-27572124D01*
X39487434Y-27637190D01*
X39615821Y-27701501D01*
X39727854Y-27756940D01*
X39819849Y-27801717D01*
X39888122Y-27834041D01*
X39928991Y-27852119D01*
X39938770Y-27854160D01*
X39934557Y-27850278D01*
X39900654Y-27820369D01*
X39848438Y-27775350D01*
X39787346Y-27723372D01*
X39718487Y-27660262D01*
X39584338Y-27509421D01*
X39459433Y-27333278D01*
X39349318Y-27141006D01*
X39259540Y-26941778D01*
X39195645Y-26744769D01*
X39179554Y-26671805D01*
X39161430Y-26553774D01*
X39147201Y-26409240D01*
X39136139Y-26231956D01*
X39135239Y-26214447D01*
X39125213Y-26064480D01*
X39111728Y-25919527D01*
X39095978Y-25790944D01*
X39079157Y-25690083D01*
X39077205Y-25680593D01*
X38994529Y-25375605D01*
X38877694Y-25087032D01*
X38728875Y-24817006D01*
X38550245Y-24567661D01*
X38343979Y-24341128D01*
X38112250Y-24139540D01*
X37857234Y-23965029D01*
X37581103Y-23819730D01*
X37286033Y-23705773D01*
X36974197Y-23625292D01*
X36866474Y-23608637D01*
X36697435Y-23594733D01*
X36513137Y-23590574D01*
X36326520Y-23596030D01*
X36150523Y-23610968D01*
X35998088Y-23635256D01*
X35825974Y-23676250D01*
X35605343Y-23745171D01*
X35394905Y-23832530D01*
X35183927Y-23942945D01*
X34961674Y-24081033D01*
X34896222Y-24123638D01*
X34709348Y-24234605D01*
X34534008Y-24319999D01*
X34448552Y-24351307D01*
X34360530Y-24383555D01*
X34179240Y-24429012D01*
X33980463Y-24460107D01*
X33811941Y-24470584D01*
X33589982Y-24460594D01*
X33364436Y-24426811D01*
X33149154Y-24370724D01*
X32680397Y-24370724D01*
X32642629Y-24351307D01*
X33080770Y-24351307D01*
X33090539Y-24361077D01*
X33100308Y-24351307D01*
X33090539Y-24341538D01*
X33080770Y-24351307D01*
X32642629Y-24351307D01*
X32588349Y-24323401D01*
X32411156Y-24232226D01*
X32241151Y-24144670D01*
X32081783Y-24062506D01*
X31936501Y-23987509D01*
X31808754Y-23921451D01*
X31701993Y-23866107D01*
X31619667Y-23823250D01*
X31565225Y-23794655D01*
X31542116Y-23782094D01*
X31512997Y-23753549D01*
X31496948Y-23704369D01*
X31504971Y-23654052D01*
X31534362Y-23614865D01*
X31582420Y-23599077D01*
X31599837Y-23603154D01*
X31651752Y-23619275D01*
X31733449Y-23646398D01*
X31841062Y-23683184D01*
X31970722Y-23728296D01*
X32118563Y-23780397D01*
X32280716Y-23838150D01*
X32453314Y-23900217D01*
X32573673Y-23943464D01*
X32747631Y-24005141D01*
X32912328Y-24062588D01*
X33063195Y-24114262D01*
X33195663Y-24158620D01*
X33305162Y-24194119D01*
X33387123Y-24219217D01*
X33436978Y-24232371D01*
X33466240Y-24237789D01*
X33565673Y-24250868D01*
X33678026Y-24259970D01*
X33784154Y-24263384D01*
X33995746Y-24252474D01*
X34203945Y-24216077D01*
X34405887Y-24151708D01*
X34609208Y-24056907D01*
X34821545Y-23929215D01*
X35028490Y-23799341D01*
X35251937Y-23677542D01*
X35471168Y-23579780D01*
X35695867Y-23501796D01*
X35935720Y-23439334D01*
X36005727Y-23424552D01*
X36082359Y-23411526D01*
X36160787Y-23402701D01*
X36250325Y-23397327D01*
X36360292Y-23394653D01*
X36500000Y-23393931D01*
X36538516Y-23394006D01*
X36706798Y-23396899D01*
X36849281Y-23405177D01*
X36976865Y-23420461D01*
X37100451Y-23444368D01*
X37230940Y-23478520D01*
X37379231Y-23524533D01*
X37448159Y-23548020D01*
X37748923Y-23674924D01*
X38031141Y-23834269D01*
X38292304Y-24023558D01*
X38529906Y-24240297D01*
X38741440Y-24481988D01*
X38924399Y-24746137D01*
X39076276Y-25030248D01*
X39194565Y-25331824D01*
X39207659Y-25372906D01*
X39248425Y-25516478D01*
X39279753Y-25658710D01*
X39303298Y-25809680D01*
X39320717Y-25979468D01*
X39333668Y-26178154D01*
X39334447Y-26192932D01*
X39345648Y-26366301D01*
X39359846Y-26509422D01*
X39378577Y-26630469D01*
X39403377Y-26737622D01*
X39435782Y-26839057D01*
X39477327Y-26942952D01*
X39488101Y-26967672D01*
X39534643Y-27068810D01*
X39582366Y-27160580D01*
X39634154Y-27245745D01*
X39692894Y-27327072D01*
X39761472Y-27407325D01*
X39842773Y-27489269D01*
X39939683Y-27575669D01*
X40055089Y-27669290D01*
X40191876Y-27772897D01*
X40304354Y-27854160D01*
X40350873Y-27887769D01*
X40352931Y-27889256D01*
G37*
G36*
X35073866Y-25755101D02*
G01*
X35113145Y-25778068D01*
X35124293Y-25800257D01*
X35127981Y-25836567D01*
X35124105Y-25894998D01*
X35112643Y-25983654D01*
X35108990Y-26011220D01*
X35097087Y-26174265D01*
X35099814Y-26333789D01*
X35100899Y-26349408D01*
X35105092Y-26431411D01*
X35103664Y-26484644D01*
X35095807Y-26517799D01*
X35080714Y-26539572D01*
X35064246Y-26552679D01*
X35011870Y-26566263D01*
X34959631Y-26549248D01*
X34920941Y-26504573D01*
X34913447Y-26484409D01*
X34900595Y-26415081D01*
X34894087Y-26322313D01*
X34893436Y-26215021D01*
X34898155Y-26102120D01*
X34907755Y-25992526D01*
X34921750Y-25895152D01*
X34939651Y-25818916D01*
X34960972Y-25772730D01*
X34974462Y-25761588D01*
X35021120Y-25749379D01*
X35073866Y-25755101D01*
G37*
G36*
X32643328Y-27872243D02*
G01*
X32585532Y-27992229D01*
X32494534Y-28100877D01*
X32465133Y-28127666D01*
X32393702Y-28183270D01*
X32321452Y-28221004D01*
X32230846Y-28250842D01*
X32155915Y-28261379D01*
X32051838Y-28256755D01*
X31945090Y-28236110D01*
X31852248Y-28201601D01*
X31801201Y-28172437D01*
X31693738Y-28083072D01*
X31614450Y-27974407D01*
X31563899Y-27852380D01*
X31545384Y-27739590D01*
X31744778Y-27739590D01*
X31776220Y-27844522D01*
X31835949Y-27936979D01*
X31919738Y-28006916D01*
X31964763Y-28028391D01*
X32071429Y-28052146D01*
X32183020Y-28047242D01*
X32284625Y-28013414D01*
X32334960Y-27979784D01*
X32405658Y-27900396D01*
X32452156Y-27802914D01*
X32470228Y-27697676D01*
X32455647Y-27595020D01*
X32438832Y-27554786D01*
X32386027Y-27473384D01*
X32317923Y-27403051D01*
X32246433Y-27357320D01*
X32174850Y-27336614D01*
X32066722Y-27335378D01*
X31962620Y-27365681D01*
X31870245Y-27423639D01*
X31797296Y-27505369D01*
X31751475Y-27606985D01*
X31745848Y-27632227D01*
X31744778Y-27739590D01*
X31545384Y-27739590D01*
X31542649Y-27722926D01*
X31551263Y-27591984D01*
X31590304Y-27465491D01*
X31660337Y-27349382D01*
X31761923Y-27249596D01*
X31802434Y-27220783D01*
X31908772Y-27166609D01*
X32024572Y-27140721D01*
X32161245Y-27139986D01*
X32272298Y-27158946D01*
X32395567Y-27210275D01*
X32498471Y-27287271D01*
X32579175Y-27384649D01*
X32635847Y-27497122D01*
X32666652Y-27619403D01*
X32668569Y-27697676D01*
X32669757Y-27746205D01*
X32643328Y-27872243D01*
G37*
G36*
X37610299Y-27185087D02*
G01*
X37652645Y-27212261D01*
X37677671Y-27251629D01*
X37678222Y-27276999D01*
X37651298Y-27334128D01*
X37588667Y-27405261D01*
X37490662Y-27489973D01*
X37423862Y-27538381D01*
X37374721Y-27560717D01*
X37335494Y-27558310D01*
X37297731Y-27533048D01*
X37289351Y-27524917D01*
X37267272Y-27489297D01*
X37268285Y-27449318D01*
X37294552Y-27401961D01*
X37348231Y-27344208D01*
X37431483Y-27273041D01*
X37546467Y-27185441D01*
X37566110Y-27177915D01*
X37610299Y-27185087D01*
G37*
G36*
X41100847Y-26883062D02*
G01*
X41013140Y-26985510D01*
X40965165Y-27024815D01*
X40903287Y-27066785D01*
X40853706Y-27091206D01*
X40837831Y-27095984D01*
X40708960Y-27113471D01*
X40584281Y-27095098D01*
X40470201Y-27043626D01*
X40373128Y-26961814D01*
X40299469Y-26852423D01*
X40265067Y-26758994D01*
X40251305Y-26642515D01*
X40446770Y-26642515D01*
X40460621Y-26716928D01*
X40499653Y-26796675D01*
X40554498Y-26858719D01*
X40598605Y-26882579D01*
X40678517Y-26899458D01*
X40764364Y-26896128D01*
X40839624Y-26871829D01*
X40879364Y-26843268D01*
X40931383Y-26773581D01*
X40958729Y-26688777D01*
X40958466Y-26600573D01*
X40927657Y-26520684D01*
X40920622Y-26510620D01*
X40860118Y-26451597D01*
X40784720Y-26409349D01*
X40710234Y-26393150D01*
X40662121Y-26398915D01*
X40581507Y-26433214D01*
X40512698Y-26490968D01*
X40464763Y-26563596D01*
X40446770Y-26642515D01*
X40251305Y-26642515D01*
X40250399Y-26634844D01*
X40269253Y-26515268D01*
X40321216Y-26408678D01*
X40357337Y-26361395D01*
X40449076Y-26275218D01*
X40553996Y-26222958D01*
X40677978Y-26201194D01*
X40710580Y-26200146D01*
X40845042Y-26215756D01*
X40958895Y-26264508D01*
X41051807Y-26346208D01*
X41123448Y-26460663D01*
X41146031Y-26517878D01*
X41168242Y-26644730D01*
X41162746Y-26688777D01*
X41152865Y-26767963D01*
X41100847Y-26883062D01*
G37*
G36*
X33039541Y-24664431D02*
G01*
X33080179Y-24678372D01*
X33138357Y-24704292D01*
X33219746Y-24744282D01*
X33330016Y-24800434D01*
X33402802Y-24838572D01*
X33499052Y-24891745D01*
X33578321Y-24938844D01*
X33634544Y-24976217D01*
X33661660Y-25000212D01*
X33675628Y-25024030D01*
X33679509Y-25054788D01*
X33658951Y-25093769D01*
X33627675Y-25126008D01*
X33583435Y-25142071D01*
X33560845Y-25136095D01*
X33507012Y-25114131D01*
X33430737Y-25078907D01*
X33338575Y-25033472D01*
X33237077Y-24980878D01*
X33139342Y-24928785D01*
X33056609Y-24883451D01*
X32999386Y-24849502D01*
X32962799Y-24823403D01*
X32941975Y-24801621D01*
X32932039Y-24780621D01*
X32928119Y-24756871D01*
X32926786Y-24729864D01*
X32937805Y-24693800D01*
X32974838Y-24669440D01*
X32988203Y-24664121D01*
X33010772Y-24660378D01*
X33039541Y-24664431D01*
G37*
G36*
X35858694Y-27479607D02*
G01*
X35955868Y-27516210D01*
X36081237Y-27565688D01*
X36231731Y-27602468D01*
X36398665Y-27619478D01*
X36591473Y-27618231D01*
X36682627Y-27614492D01*
X36759765Y-27613424D01*
X36810668Y-27616406D01*
X36842212Y-27623902D01*
X36861274Y-27636372D01*
X36880348Y-27662817D01*
X36888181Y-27717330D01*
X36860834Y-27768375D01*
X36855188Y-27773673D01*
X36831165Y-27789228D01*
X36794127Y-27801752D01*
X36735457Y-27813609D01*
X36646539Y-27827162D01*
X36576346Y-27833270D01*
X36435796Y-27830263D01*
X36279881Y-27812057D01*
X36120625Y-27780741D01*
X35970056Y-27738403D01*
X35840200Y-27687132D01*
X35809365Y-27671984D01*
X35758186Y-27641600D01*
X35731867Y-27613143D01*
X35721935Y-27578857D01*
X35721178Y-27539942D01*
X35740765Y-27491629D01*
X35786798Y-27471465D01*
X35858694Y-27479607D01*
G37*
G36*
X34324635Y-24666591D02*
G01*
X34366418Y-24682170D01*
X34432113Y-24714152D01*
X34434670Y-24715441D01*
X34497913Y-24749356D01*
X34546564Y-24779086D01*
X34570278Y-24798327D01*
X34577100Y-24810959D01*
X34582284Y-24865714D01*
X34554528Y-24916527D01*
X34530311Y-24933926D01*
X34485365Y-24947230D01*
X34475488Y-24946373D01*
X34424730Y-24931460D01*
X34360292Y-24903256D01*
X34296628Y-24868633D01*
X34248193Y-24834464D01*
X34243911Y-24830490D01*
X34216699Y-24780785D01*
X34222819Y-24727175D01*
X34261152Y-24682775D01*
X34270443Y-24676865D01*
X34296173Y-24665470D01*
X34324635Y-24666591D01*
G37*
G36*
X36823596Y-23075650D02*
G01*
X37156754Y-23127067D01*
X37482602Y-23213638D01*
X37797586Y-23335209D01*
X38098151Y-23491630D01*
X38136902Y-23514879D01*
X38245210Y-23583300D01*
X38321675Y-23639066D01*
X38368986Y-23685289D01*
X38389833Y-23725080D01*
X38386906Y-23761549D01*
X38362895Y-23797807D01*
X38353578Y-23807436D01*
X38325585Y-23826028D01*
X38291650Y-23828782D01*
X38245315Y-23813973D01*
X38180121Y-23779874D01*
X38089608Y-23724758D01*
X37972812Y-23654572D01*
X37698862Y-23515441D01*
X37412403Y-23405990D01*
X37103358Y-23322103D01*
X37069588Y-23314712D01*
X36996467Y-23300499D01*
X36925656Y-23290268D01*
X36848879Y-23283394D01*
X36757861Y-23279255D01*
X36644327Y-23277229D01*
X36500000Y-23276692D01*
X36434424Y-23276778D01*
X36304183Y-23277871D01*
X36201221Y-23280719D01*
X36117261Y-23285943D01*
X36044028Y-23294166D01*
X35973247Y-23306012D01*
X35896643Y-23322103D01*
X35877508Y-23326453D01*
X35550320Y-23421131D01*
X35227500Y-23552489D01*
X34914594Y-23718288D01*
X34859013Y-23742430D01*
X34796983Y-23746876D01*
X34750250Y-23725858D01*
X34725812Y-23683039D01*
X34730670Y-23622079D01*
X34731821Y-23619145D01*
X34760669Y-23586647D01*
X34820591Y-23542255D01*
X34907116Y-23488756D01*
X35015768Y-23428941D01*
X35142077Y-23365597D01*
X35172570Y-23351162D01*
X35488959Y-23224542D01*
X35815810Y-23133832D01*
X36149570Y-23078881D01*
X36486684Y-23059538D01*
X36823596Y-23075650D01*
G37*
G36*
X35080846Y-25064472D02*
G01*
X35108235Y-25073876D01*
X35166190Y-25099528D01*
X35250875Y-25139459D01*
X35358452Y-25191696D01*
X35485086Y-25254270D01*
X35626939Y-25325211D01*
X35780173Y-25402546D01*
X35940953Y-25484307D01*
X36105442Y-25568522D01*
X36269802Y-25653220D01*
X36430196Y-25736432D01*
X36582789Y-25816186D01*
X36723742Y-25890512D01*
X36849220Y-25957439D01*
X36955384Y-26014997D01*
X37038399Y-26061215D01*
X37094428Y-26094123D01*
X37119633Y-26111750D01*
X37146177Y-26152286D01*
X37147062Y-26203410D01*
X37108997Y-26251423D01*
X37089297Y-26264589D01*
X37057997Y-26275590D01*
X37043350Y-26269645D01*
X36996405Y-26247388D01*
X36920441Y-26210122D01*
X36818596Y-26159423D01*
X36694011Y-26096871D01*
X36549826Y-26024042D01*
X36389182Y-25942514D01*
X36215219Y-25853865D01*
X36031077Y-25759672D01*
X35950373Y-25718303D01*
X35738580Y-25609525D01*
X35558491Y-25516456D01*
X35407780Y-25437611D01*
X35284117Y-25371507D01*
X35185173Y-25316657D01*
X35108620Y-25271577D01*
X35052130Y-25234783D01*
X35013373Y-25204790D01*
X34990022Y-25180113D01*
X34979748Y-25159268D01*
X34980222Y-25140769D01*
X34989115Y-25123132D01*
X35004100Y-25104873D01*
X35038026Y-25078303D01*
X35080496Y-25064461D01*
X35080846Y-25064472D01*
G37*
G36*
X34852140Y-24926417D02*
G01*
X34866617Y-24935836D01*
X34916006Y-24984821D01*
X34929735Y-25036100D01*
X34906349Y-25085400D01*
X34861848Y-25116181D01*
X34801380Y-25117369D01*
X34726229Y-25083815D01*
X34707650Y-25071920D01*
X34661344Y-25030043D01*
X34650121Y-24987426D01*
X34671456Y-24937310D01*
X34673314Y-24934541D01*
X34718377Y-24896359D01*
X34777562Y-24893677D01*
X34852140Y-24926417D01*
G37*
G36*
X35583323Y-24241929D02*
G01*
X35621187Y-24273656D01*
X35638985Y-24312234D01*
X35626079Y-24360747D01*
X35576378Y-24414407D01*
X35489104Y-24474394D01*
X35411934Y-24522569D01*
X35324019Y-24581027D01*
X35250243Y-24633545D01*
X35192807Y-24672535D01*
X35144852Y-24697662D01*
X35116760Y-24703486D01*
X35105318Y-24699536D01*
X35075231Y-24693230D01*
X35061895Y-24686076D01*
X35042669Y-24653498D01*
X35030868Y-24609847D01*
X35032516Y-24572195D01*
X35046672Y-24550791D01*
X35090111Y-24507779D01*
X35154492Y-24454530D01*
X35232454Y-24396704D01*
X35316631Y-24339961D01*
X35399661Y-24289962D01*
X35476010Y-24251701D01*
X35537356Y-24234432D01*
X35583323Y-24241929D01*
G37*
G36*
X38622489Y-23896994D02*
G01*
X38648514Y-23909637D01*
X38683844Y-23938547D01*
X38734267Y-23987822D01*
X38805573Y-24061559D01*
X38885362Y-24148914D01*
X39066608Y-24379258D01*
X39230551Y-24632755D01*
X39370708Y-24898792D01*
X39480596Y-25166755D01*
X39498936Y-25220107D01*
X39516166Y-25276915D01*
X39521592Y-25313666D01*
X39516240Y-25340367D01*
X39501137Y-25367024D01*
X39471668Y-25399412D01*
X39421752Y-25414747D01*
X39366981Y-25391730D01*
X39363462Y-25388513D01*
X39340145Y-25353035D01*
X39311474Y-25293463D01*
X39282851Y-25220769D01*
X39280211Y-25213353D01*
X39170568Y-24947836D01*
X39035303Y-24696511D01*
X38870144Y-24452308D01*
X38670818Y-24208154D01*
X38646060Y-24180042D01*
X38581634Y-24105054D01*
X38539410Y-24051438D01*
X38515843Y-24013816D01*
X38507385Y-23986809D01*
X38510488Y-23965036D01*
X38535317Y-23930749D01*
X38580473Y-23902201D01*
X38599981Y-23896520D01*
X38622489Y-23896994D01*
G37*
G36*
X38585126Y-25631782D02*
G01*
X38629684Y-25662893D01*
X38656429Y-25703825D01*
X38663811Y-25731526D01*
X38681561Y-25822928D01*
X38695139Y-25929662D01*
X38704332Y-26044015D01*
X38708931Y-26158272D01*
X38708722Y-26264720D01*
X38703496Y-26355645D01*
X38693040Y-26423331D01*
X38677143Y-26460066D01*
X38636451Y-26484023D01*
X38581417Y-26488543D01*
X38535908Y-26467323D01*
X38534090Y-26465156D01*
X38522258Y-26426862D01*
X38514957Y-26352668D01*
X38512462Y-26245190D01*
X38512066Y-26210492D01*
X38506723Y-26094973D01*
X38496448Y-25976887D01*
X38482910Y-25877039D01*
X38474285Y-25823788D01*
X38465769Y-25738611D01*
X38470584Y-25681093D01*
X38489789Y-25644766D01*
X38524441Y-25623163D01*
X38538899Y-25620361D01*
X38585126Y-25631782D01*
G37*
G36*
X34688478Y-28290227D02*
G01*
X34733565Y-28309669D01*
X34795332Y-28345595D01*
X34863843Y-28392459D01*
X34878517Y-28403198D01*
X35156298Y-28582855D01*
X35445621Y-28725583D01*
X35748990Y-28832448D01*
X36068907Y-28904510D01*
X36183064Y-28918270D01*
X36326327Y-28926690D01*
X36484233Y-28929331D01*
X36646095Y-28926394D01*
X36801230Y-28918079D01*
X36938950Y-28904587D01*
X37048572Y-28886118D01*
X37159565Y-28858770D01*
X37472059Y-28757452D01*
X37765598Y-28625279D01*
X38035439Y-28464279D01*
X38040425Y-28460893D01*
X38133110Y-28403611D01*
X38203400Y-28373494D01*
X38255503Y-28369330D01*
X38293631Y-28389907D01*
X38313076Y-28417157D01*
X38316507Y-28462144D01*
X38288484Y-28514063D01*
X38227668Y-28574463D01*
X38132723Y-28644891D01*
X38002308Y-28726896D01*
X37896643Y-28786155D01*
X37643456Y-28905018D01*
X37372786Y-29004186D01*
X37097514Y-29079275D01*
X36830521Y-29125898D01*
X36611251Y-29140971D01*
X36350909Y-29135496D01*
X36084091Y-29108051D01*
X35823374Y-29059976D01*
X35581336Y-28992616D01*
X35452914Y-28945416D01*
X35271092Y-28866354D01*
X35090076Y-28775014D01*
X34919213Y-28676530D01*
X34767850Y-28576033D01*
X34645336Y-28478657D01*
X34614308Y-28444492D01*
X34588438Y-28388406D01*
X34591217Y-28338238D01*
X34621278Y-28302150D01*
X34677251Y-28288307D01*
X34688478Y-28290227D01*
G37*
%TO.C,E-Motor*%
X64010000Y-49015000D02*
X64010000Y-54985000D01*
X51390000Y-54985000D02*
X51390000Y-49015000D01*
X53200000Y-54225000D02*
X53200000Y-54975000D01*
X60700000Y-54225000D02*
X60700000Y-54975000D01*
X60700000Y-54975000D02*
X54700000Y-54975000D01*
X64000000Y-52725000D02*
X63250000Y-52725000D01*
X51400000Y-54225000D02*
X53200000Y-54225000D01*
X62200000Y-54225000D02*
X64000000Y-54225000D01*
X64000000Y-54975000D02*
X62200000Y-54975000D01*
X53200000Y-54975000D02*
X51400000Y-54975000D01*
X51100000Y-55275000D02*
X51100000Y-54025000D01*
X52350000Y-55275000D02*
X51100000Y-55275000D01*
X51400000Y-52725000D02*
X52150000Y-52725000D01*
X63250000Y-52725000D02*
X63250000Y-49775000D01*
X51390000Y-49015000D02*
X64010000Y-49015000D01*
X64010000Y-54985000D02*
X51390000Y-54985000D01*
X52150000Y-52725000D02*
X52150000Y-49775000D01*
X62200000Y-54975000D02*
X62200000Y-54225000D01*
X51400000Y-54975000D02*
X51400000Y-54225000D01*
X64000000Y-54225000D02*
X64000000Y-54975000D01*
X52150000Y-49775000D02*
X57700000Y-49775000D01*
X63250000Y-49775000D02*
X57700000Y-49775000D01*
X54700000Y-54975000D02*
X54700000Y-54225000D01*
X54700000Y-54225000D02*
X60700000Y-54225000D01*
%TD*%
M02*
