<svg xmlns="http://www.w3.org/2000/svg" viewBox="0 0 1000.18 1147.55"><defs><style>.cls-1{fill:#d61e39;}.cls-2{fill:#231f20;}</style></defs><g id="Layer_2" data-name="Layer 2"><g id="Layer_2-2" data-name="Layer 2"><path class="cls-1" d="M77.09,846.8l-5.8-21.63a14.63,14.63,0,0,0-6.82-8.89L49,807.37a21.67,21.67,0,0,0-29.6,7.93q-.27.47-.51.93l-13.38,26A15,15,0,0,0,12,862.47l.17.09,45.28,22.53,13.72-3.67-.14-.51L63.32,852l12.73-3.41a1.49,1.49,0,0,0,.82-.57l.16-.29.08-.32,0-.31ZM18,834a2.57,2.57,0,1,1-2.56,2.56A2.57,2.57,0,0,1,18,834Zm6,20.15L17.06,856l-5-5,1.84-6.86,6.86-1.83,5,5ZM38.2,843.41a17.28,17.28,0,1,1,17.28-17.27A17.27,17.27,0,0,1,38.2,843.41ZM58.76,875a2.57,2.57,0,1,1,2.56-2.56A2.56,2.56,0,0,1,58.76,875Zm3.3-44.79a2.57,2.57,0,1,1,2.56-2.56A2.56,2.56,0,0,1,62.06,830.21Z"/><path class="cls-2" d="M95,780.41l-7.66-31.5a4.4,4.4,0,0,0-2-2.72l-6-3.62a4.39,4.39,0,0,0-6,1.47L47.46,786.56a4.4,4.4,0,0,0,1.47,6l27.52,16.75a2.93,2.93,0,0,0,4-1l13.65-22.43A7.3,7.3,0,0,0,95,780.41Zm-7-3.82a1.47,1.47,0,0,1-1.1-.17l-6.77-4.13a1.45,1.45,0,0,1-.49-2l4.12-6.77a1.46,1.46,0,0,1,2.67.42l2.65,10.89A1.46,1.46,0,0,1,88,776.59Z"/><path class="cls-2" d="M351.31,655.23l-15-8.64a113.6,113.6,0,0,0-26.23-11,58.51,58.51,0,0,1-13.56-5.69l-60.27-34.8a40.83,40.83,0,0,0-28.45-4.68l-56,11.23a14.61,14.61,0,0,0-9.8,7L93,693.53a14.61,14.61,0,0,0-1.19,12l18.29,54.14A40.87,40.87,0,0,0,128.38,782l60.27,34.8a58.62,58.62,0,0,1,11.71,8.89A113.28,113.28,0,0,0,223,842.88l15,8.64a5.86,5.86,0,0,0,7.77-1.78h0l107.91-186.9h0A5.86,5.86,0,0,0,351.31,655.23ZM106.75,682.94l-.09.52-.16.5-.21.49-.27.45-.32.43-.37.38-.41.33-.46.27-.24.1-.25.09-.26,0-.26,0h-.27l-.26-.05a1.67,1.67,0,0,1-.79-.46l-.17-.2-.14-.22-.11-.24-.08-.26-.06-.25,0-.27v-.53l.09-.52.14-.51.21-.49.26-.46.31-.42.37-.39.4-.34.45-.28.24-.11.25-.09.26-.06.26,0h.27l.26,0,.25.07.24.11.22.15.19.19.17.21.13.22.1.25.08.25,0,.26,0,.27ZM179.87,648l.08-.53.15-.5.21-.49.26-.46.31-.43.36-.39.41-.34.45-.27.24-.11.25-.09.26-.06.26,0h.27l.26,0,.25.08.24.11.22.15.19.18.16.21.14.23.1.24.07.26.05.26,0,.26,0,.53-.09.52-.15.51-.22.48-.26.46-.32.42-.37.38-.41.34-.46.26-.24.11-.25.08-.26.06-.27,0h-.26l-.26-.05a1.61,1.61,0,0,1-.79-.45l-.17-.2-.14-.23-.11-.24-.09-.25,0-.26,0-.26Zm-43.12-24.9.08-.52.15-.51.21-.49.26-.46.31-.43.36-.38.41-.34.45-.28.24-.11.25-.09.26-.06.26,0h.27l.26,0,.25.08.24.11.22.15.19.19.16.2.14.23.1.25.07.25.05.26,0,.26,0,.53-.09.53-.15.5-.22.49-.26.45-.32.43-.37.38-.41.33-.46.27-.24.1-.25.08-.26.06-.27,0h-.26l-.26,0a1.71,1.71,0,0,1-.79-.46l-.17-.2-.14-.22-.11-.25-.09-.25-.05-.26,0-.26Zm-6.56,77.47-.69-.15-.68-.18-.67-.19-.67-.23-.66-.25-.62-.5-.59-.52L125,698l-.54-.57-.53-.6-.49-.61-.48-.63-.45-.66-.43-.66-.41-.69-.38-.69-.37-.71-.33-.72-.32-.74-.56-1.48-.25-.75-.22-.76-.37-1.54-.29-1.56-.23-1.57-.19-1.58-.14-1.58-.14-1.58-.17-1.58,22.58-39.11,1.45-.64,1.44-.67,1.44-.66,1.46-.64,1.47-.58,1.5-.53,1.52-.44.76-.19.78-.17,1.57-.25.79-.09.79-.07.8,0,.79,0h.8l.79,0,.79.07.79.09.78.13.78.15.77.19.76.22.75.25.74.28.54.45.53.46.51.49.49.5.48.52.45.54.86,1.11.79,1.17.71,1.22.64,1.25.56,1.29.5,1.32.42,1.35.36,1.36.3,1.38.23,1.38.17,1.4.12,1.41.06,1.4v1.41l0,1.41-.09,1.4-.14,1.41-.19,1.39-.22,1.39-.28,1.39-.31,1.37-.35,1.36-.39,1.35-.43,1.35-.47,1.33L170,672l-.54,1.3-.57,1.29-.61,1.27a53.88,53.88,0,0,1-3.48,6L164,683l-.83,1.14-.85,1.12-.89,1.09-.92,1.07-.95,1-1,1-1,1-1,.95-1.06.93-1.09.89-1.12.86-1.14.82-1.17.78-1.2.74-1.23.7-1.25.65-1.27.6-1.3.55-1.32.49-1.34.43-1.36.37-1.37.31-1.39.23-1.4.15-1.41.08h-1.41l-1.4-.09-1.4-.19Zm19.69,6.72v.53l-.09.52-.16.51-.21.48-.27.46-.32.42-.37.39-.41.33-.46.27-.24.1-.25.08-.26.06-.26,0h-.27l-.26,0a1.76,1.76,0,0,1-.79-.46l-.17-.2-.14-.23-.11-.24-.08-.25-.06-.26,0-.26V709l.08-.52.14-.51.21-.49.26-.46.31-.43.37-.39.4-.34.45-.27.24-.11.25-.09.26-.06.26,0h.27l.26,0,.25.08.24.11.22.15.19.18.17.21.13.23.1.24.08.26.05.26Zm66,104.64a4,4,0,1,1-8,0h0a4,4,0,1,1,8,0Zm13.18,23.85a3.44,3.44,0,1,1,3.44-3.44A3.44,3.44,0,0,1,229.1,835.79Zm59.49-90.31a7.62,7.62,0,1,1-15.23,0h0a7.62,7.62,0,0,1,15.23,0Zm10.74-83.86-81.8,141.69a4.4,4.4,0,0,1-4.54,2.13,6.59,6.59,0,0,0-6.76,3.13,4.39,4.39,0,0,1-6,1.55l-63.41-36.61c-.48-.27-.95-.56-1.42-.87a7.32,7.32,0,0,1-2.32-9.78l89-154.13a7.32,7.32,0,0,1,9.64-2.87c.49.24,1,.51,1.46.79l63.41,36.61a4.4,4.4,0,0,1,1.64,6,6.58,6.58,0,0,0,.67,7.41A4.4,4.4,0,0,1,299.33,661.62Zm8.68-9.19a4,4,0,0,1-8.05,0h0a4,4,0,1,1,8.05,0Zm22.26,8.13a3.44,3.44,0,1,1,3.44-3.44A3.44,3.44,0,0,1,330.27,660.56Z"/><path class="cls-2" d="M127.84,599.15,119,594a6.47,6.47,0,0,0-4.89-.64l-8.37,2.25a6.46,6.46,0,0,0-3.92,3L89.31,620.2a6.47,6.47,0,0,0-.64,4.89l2.24,8.38a6.42,6.42,0,0,0,3,3.91l8.9,5.13a5.26,5.26,0,0,0,7.2-1.93l19.76-34.23A5.27,5.27,0,0,0,127.84,599.15Zm-15.73,17.31a4.4,4.4,0,0,1-8.79,0v0a4.4,4.4,0,0,1,8.79,0Z"/><path class="cls-2" d="M46.08,575.14H2.15v15.52H1v8.78H2.15v10.25h8.68A7.32,7.32,0,0,0,16,607.55l.69-.69a7.29,7.29,0,0,1,5.18-2.15h24.2a4.39,4.39,0,0,0,4.39-4.39V579.53A4.39,4.39,0,0,0,46.08,575.14Zm-10,14.64a4,4,0,0,1-7.91,0v-1.17a4,4,0,1,1,7.91,0Z"/><path class="cls-2" d="M110.27,549.6a14.71,14.71,0,0,0-4.07-.57h-.26a.89.89,0,0,1-.88-.88.82.82,0,0,1,.17-.51,5.56,5.56,0,0,0-4.15-8.79,3,3,0,0,1-2.73-2.93V505.28a2.94,2.94,0,0,1,2.73-2.92,5.57,5.57,0,0,0,4.15-8.79.88.88,0,0,1,.71-1.39h.26a14.71,14.71,0,0,0,4.07-.57l12.89-3.73a19.92,19.92,0,0,0-18.11-11.62H78.49a131,131,0,0,0-18.35,1.28,63.93,63.93,0,0,0-21.23,6.9v25.77l-.45.54-.49.57-1,1.11-.52.52-.52.47-.54.47-.54.42-.19.18-.14.2-.07.19,0,.16v11.13l0,.16.07.19.14.2.19.18.54.42.54.47.52.47.52.52,1,1.11.49.57.45.54v27.83q2.78.93,5.61,1.68a132,132,0,0,0,34,4.44h26.56a19.92,19.92,0,0,0,18.11-11.62Zm-.13-66.27a3.44,3.44,0,1,1-3.44,3.44A3.45,3.45,0,0,1,110.14,483.33ZM52.45,542l-.47-.37h0l-.51-.4h0L51.2,541l-1-.87.12.1-.22-.2L50,540l-.36-.35.29.28-1.07-1.06-.19-.21.08.08-.63-.71.09.11-.41-.46-.42-.53c.05.06.11.12.16.19l-.63-.79,0,.06-.14-.18-.91-1.3v0c.16.25.34.49.52.73l-.44-.61-.56-.92.26.45-.6-1-.17-.32c0,.08.09.16.14.24l-.53-1c0,.06.05.12.08.17l-.27-.5-.34-.74.22.45-.46-1-.58-1.45c.19.5.38,1,.59,1.5l-.09-.21-.58-1.48,0-.08c0,.09.07.18.1.26l-.37-1.14c0,.19.1.37.16.55l-.35-1.1-.11-.41.12.38-.31-1.17a1.42,1.42,0,0,0,0,.2l-.14-.54-.16-.84c0,.24.1.47.15.71L42,525.07l-.21-1.46c.06.47.11.93.19,1.39l0-.18-.21-1.58v-.09c0,.12,0,.23,0,.35l-.11-1.31c0,.15,0,.3,0,.45l-.07-1v-.42l0,.49,0-1.32s0,.09,0,.13v-.47l0-.9c0,.37,0,.73,0,1.1l0-1.45.11-1.2c0,.33-.08.65-.1,1v-.12l.17-1.58,0-.17c0,.14,0,.27,0,.4l.18-1.19c0,.08,0,.16,0,.25l.14-.86.13-.59c0,.18-.06.35-.1.52l.23-1.09.16-.55c0,.18-.11.36-.16.54l.09-.38.45-1.52c0,.11-.06.22-.1.33l.48-1.42.59-1.46.68-1.41.75-1.38.84-1.33L47,504.3l1-1.22,1.06-1.16c.41-.43.83-.84,1.27-1.24l-.25.26a27.94,27.94,0,0,0,.69,39.51,28.38,28.38,0,0,0,2.72,2.31c-.52-.35-1-.72-1.51-1.1Zm6.25,5c-2.69-1.17-4.65-2.66-4.93-5.81-.25-2.81.33-4.65,3.64-5.21,1.77-.29,2.36-2.27,2.34-4.2q-.07-11.21,0-22.41c0-2-1-3.12-2.57-4.17-4.76-3.26-4.38-7.54,1-9.9,10.87-4.73,28.36,2,32.14,10.64,2.19,5,4.55,9.82,4,15.28C96,541.14,72.75,553.08,58.7,547ZM96.31,496.8a4.39,4.39,0,1,1,8.78,0v0a4.39,4.39,0,0,1-8.78,0Zm4.38,52a4.4,4.4,0,0,1-4.38-4.4v0a4.4,4.4,0,0,1,8.79,0h0A4.41,4.41,0,0,1,100.69,548.8Zm9.45,9.08a3.44,3.44,0,1,1,3.45-3.44A3.44,3.44,0,0,1,110.14,557.88Z"/><path class="cls-2" d="M82.27,326.22a4.39,4.39,0,0,0-4.76-4L53.4,324.34a7.35,7.35,0,0,1-5.34-1.68l-.75-.63A7.3,7.3,0,0,0,42,320.34l-8.65.76.89,10.21-1.16.1.76,8.75,1.17-.1,1.35,15.46,43.76-3.83a4.38,4.38,0,0,0,4-4.75ZM65.4,343.42a4,4,0,0,1-4.28-3.59l-.1-1.16A4,4,0,1,1,68.9,338l.1,1.16A4,4,0,0,1,65.4,343.42Z"/><path class="cls-1" d="M117.69,268.27l-.07-.33-.1-.33-.12-.31-.16-.3-15.31-26.51a4.76,4.76,0,0,0,.34-.57l.13-.34,0-.37,0-.36-.14-.34-3.47-6-.22-.29-.29-.23-.33-.15-.36-.06a5.57,5.57,0,0,0-5.44,3.59l-11.35,6.56-.34.17-.36.16-.75.25-.76.17-.76.1a5.75,5.75,0,0,0-2.28.72A5.59,5.59,0,0,0,73,246.75a5.41,5.41,0,0,0-.22,1.84V249l0,.43-.06.42-.08.4-.11.39-.14.37-.18.36-.21.34a15.82,15.82,0,0,1-5.08,4.65l-27.69,16a4.58,4.58,0,0,0-2.3,4v15.22l0,.39.06.4.09.38.12.38.14.37.16.36.19.35,4,6.93.18.28.2.26.24.24.25.22.27.19.29.17.3.14.32.11.61.14L45,303h.69l.7-.08.72-.15.71-.22.7-.29.68-.36L92.33,277a4.39,4.39,0,0,1,5.58,1l.34.38.36.36.39.34.41.29.36.21.37.17.27.09.27.06.28,0h.28l.28,0,.27-.06.26-.09.25-.13L116,271.71l.28-.18.27-.21.25-.24.22-.26.2-.27.17-.3.13-.31.11-.32.07-.33,0-.34v-.34Zm-41.85-20a2.49,2.49,0,0,1,5,0h0a2.49,2.49,0,1,1-5,0Zm17.9,19.39-33,19.07a5.85,5.85,0,0,1-8-2.14l-1.47-2.54a5.87,5.87,0,0,1,2.15-8l33-19.07a5.87,5.87,0,0,1,8,2.15l1.46,2.53A5.85,5.85,0,0,1,93.74,267.7Zm6.09-30.35a2.49,2.49,0,1,1-5,0h0a2.49,2.49,0,0,1,5,0Z"/><path class="cls-1" d="M139.32,294.33l-9.52-16.48a1.47,1.47,0,0,0-2-.54l-7.6,4.39a7.31,7.31,0,0,0-2.68,10l3.66,6.34a7.32,7.32,0,0,0,10,2.68l7.6-4.39A1.46,1.46,0,0,0,139.32,294.33Zm-8.24-3.84a4.13,4.13,0,1,1-8.25,0h0a4.13,4.13,0,1,1,8.25,0Z"/><path class="cls-2" d="M165.57,321.09h3.08a1.47,1.47,0,0,0,1.47-1.46V309.38a1.47,1.47,0,0,0-1.47-1.47h-3.83a5.82,5.82,0,0,0-2.91.78,43.91,43.91,0,0,1-41.87,1,16.42,16.42,0,0,0-7.44-1.79H97.2a1.49,1.49,0,0,0-1.46,1.47v1.17A1.46,1.46,0,0,0,97.2,312h2.93a2.49,2.49,0,1,1,0,5H97.2a1.46,1.46,0,0,0-1.46,1.47v.5a5.8,5.8,0,0,0,1.37,3.76l3.26,3.89c.11.13.22.27.32.41l-.1.11-.57.66-.6.66-.63.65-.62.6-.38.42-.37.4-.34.39-.33.37-.19.27-.13.29-.08.32,0,.33v9.42l0,.32.08.32.13.3.19.27.33.37.34.38.37.4.38.43.62.59.63.65.6.67.57.66.1.1-.32.42-3.26,3.88a5.82,5.82,0,0,0-1.37,3.76v.51a1.46,1.46,0,0,0,1.46,1.46h2.93a2.49,2.49,0,1,1,0,5H97.2a1.46,1.46,0,0,0-1.46,1.46V365a1.47,1.47,0,0,0,.59,1.17,1.44,1.44,0,0,0,.87.29h15.4a16.29,16.29,0,0,0,7.44-1.79,43.91,43.91,0,0,1,41.87,1,5.82,5.82,0,0,0,2.91.78h3.83a1.47,1.47,0,0,0,1.47-1.46V354.77a1.47,1.47,0,0,0-1.47-1.47h-3.08a4.39,4.39,0,0,1-4.39-4.39V325.48A4.4,4.4,0,0,1,165.57,321.09Zm-54.94,37.26a2.56,2.56,0,1,1,2.57-2.56A2.56,2.56,0,0,1,110.63,358.35Zm0-37.19a2.56,2.56,0,1,1,2.57-2.56A2.56,2.56,0,0,1,110.63,321.16Zm44.77,29.21a2.93,2.93,0,0,1-2.93,2.93H119.31a3,3,0,0,1-2.35-1.17,1.5,1.5,0,0,1,.88-.29h2.35a1.47,1.47,0,0,0,1.46-1.47V324a1.47,1.47,0,0,0-1.46-1.47h-2.35a1.5,1.5,0,0,1-.88-.29,3,3,0,0,1,2.35-1.17h33.16A2.93,2.93,0,0,1,155.4,324Zm8.13,8.06A2.56,2.56,0,1,1,161,361,2.56,2.56,0,0,1,163.53,358.43Zm-2.56-45a2.56,2.56,0,1,1,2.56,2.57A2.56,2.56,0,0,1,161,313.4Z"/><path class="cls-2" d="M233.24,351.25V351l-.1-.21-.17-.15-5.07-2.93-.81.22-.07.13-3.81-2.2,9-15.53a1.17,1.17,0,0,0-.43-1.6l-22.57-13a1.46,1.46,0,0,0-2,.53l-8.82,15.29a1.47,1.47,0,0,0,.54,2l14.45,8.34a.73.73,0,0,1,.27,1L210,349.21l1,.61-4.68,8.11-1-.6-2.64,4.56,1,.61L199,370.61l-1-.6-3.67,6.35a.72.72,0,0,1-1,.26L175,366.08a1.47,1.47,0,0,0-2,.54L158.54,391.7a7.32,7.32,0,0,0,1,8.66A58.66,58.66,0,0,0,173,411.09L193.58,423a1.46,1.46,0,0,0,2-.53l1.06-1.83a4.41,4.41,0,0,0,.44-3.33l-.13-.48-1.12-.65,37.34-64.66Zm-58.46,47.34a4.4,4.4,0,0,1-8.79,0v0a4.4,4.4,0,0,1,8.79,0Zm24.82-4.79-2.16,3.74a4.38,4.38,0,0,1-6,1.6l-8.62-5a4.4,4.4,0,0,1-1.61-6l2.16-3.74a4.4,4.4,0,0,1,6-1.61l8.62,5A4.4,4.4,0,0,1,199.6,393.8ZM214.45,330a4.39,4.39,0,1,1,4.39-4.39A4.38,4.38,0,0,1,214.45,330Z"/><path class="cls-2" d="M178.41,439.05l-34.24-19.77a5.27,5.27,0,0,0-7.2,1.93l-5.13,8.89a6.43,6.43,0,0,0-.65,4.89l10.29,38.38a6.44,6.44,0,0,0,3,3.91l8.89,5.13a5.27,5.27,0,0,0,7.2-1.93l19.77-34.23A5.28,5.28,0,0,0,178.41,439.05Zm-34.94.46a4.39,4.39,0,0,1-4.38-4.4h0a4.4,4.4,0,0,1,8.79,0v0A4.39,4.39,0,0,1,143.47,439.51Zm13,27.62a4.39,4.39,0,1,1-8.78,0h0a4.39,4.39,0,1,1,8.78,0Z"/><path class="cls-2" d="M275.38,163.51l-10.25-17.75a7.32,7.32,0,0,0-10-2.68L146.46,205.82a7.32,7.32,0,0,0-2.68,10L152.57,231a1.47,1.47,0,0,1-.54,2L131.14,245.1a4.38,4.38,0,0,0-1.6,6L150,286.6a4.4,4.4,0,0,0,6,1.61h0L180,274.39l.06,0,.44-.3.4-.35.35-.4.31-.43,0-.05a33.67,33.67,0,0,1,12.14-12l.56-.33a5.3,5.3,0,0,0,2.21-2.47,29.23,29.23,0,0,1,12.23-13.74L242.12,225a14.66,14.66,0,0,0,6.82-8.89l9.43-35.21a7.33,7.33,0,0,1,3.42-4.45l12-6.92A4.4,4.4,0,0,0,275.38,163.51ZM146.61,255.34a4,4,0,1,1,3.95-4A4,4,0,0,1,146.61,255.34Zm7.15-40.5-.27-.39-.21-.44-.15-.46-.08-.47v-.48l.05-.48.12-.46.19-.45.25-.41.3-.37.35-.33.4-.27.43-.22.46-.15.47-.08.48,0,.48,0a3.39,3.39,0,0,1,2.74,3.94,2.64,2.64,0,0,1-.15.55l-.19.44-.26.41-.31.37-.36.32-.4.26-.43.21-.46.14-.48.08h-.48l-.47-.06-.47-.13-.44-.19-.41-.25-.37-.31Zm4.56,60.79a4,4,0,1,1,4-4A4,4,0,0,1,158.32,275.63Zm16.74-71.08a2.56,2.56,0,1,1,2.56-2.56A2.55,2.55,0,0,1,175.06,204.55Zm25-19.49.13-.46.18-.44.25-.42.3-.37.36-.33.39-.27.43-.21.46-.16.47-.08.48,0,.48,0a5.12,5.12,0,0,1,.56.15,3.4,3.4,0,0,1,2,4.34l-.2.44-.25.41-.31.37-.36.32-.4.27-.44.2-.46.14-.47.08h-.48l-.48-.06-.47-.13-.44-.19-.41-.25-.37-.31-.32-.35-.27-.4-.21-.43-.15-.46L200,186v-.48Zm.3,56.24a2.57,2.57,0,0,1-5.13,0h0a2.57,2.57,0,1,1,5.13,0Zm22.44-28.82a16.84,16.84,0,1,1-22.45-18,3,3,0,0,1,1.51-.13,8.77,8.77,0,0,0,4.91-.54,2.9,2.9,0,0,1,1.51-.2A16.84,16.84,0,0,1,222.76,212.48Zm16.86,6.13a2.56,2.56,0,1,1-5.12,0h0a2.56,2.56,0,1,1,5.12,0Zm-2-41.17a4,4,0,1,1,4-3.95A4,4,0,0,1,237.6,177.44Zm20.29-11.71a4,4,0,1,1,3.95-3.95A4,4,0,0,1,257.89,165.73Z"/><path class="cls-2" d="M286.6,262.13,253.5,243a14.63,14.63,0,0,0-8.6-1.91l-4.31.38a5.9,5.9,0,0,1-3.44-.76l-3.1-1.79a5.85,5.85,0,0,0-8,2.14l-3.13,5.42a1.47,1.47,0,0,0,.54,2l7.61,4.39a1.46,1.46,0,0,1,.53,2l-19,33-2,.54L205,285.19l-.28-.13-.3-.09-.3,0-.32,0-.29.07-.28.14-.24.2-.18.25-3.54,6.12-.1.22-.07.24,0,.25,0,.25.08.23.14.22.17.18.2.14,4.52,2.72,4.51,2.69,2.29,1.38,2.34,1.4,4.66,2.79.66.38.67.35.69.33.69.3.71.28.71.25.73.22.73.2.51.1.52.05h.52l.52-.06.59-.11.59-.16.58-.19.57-.23.57-.27.55-.29.54-.33.53-.37.52-.39.49-.43.48-.45.45-.48.43-.5.39-.52.38-.54.34-.55,3-5.16a2.94,2.94,0,0,1,4-1.08L261,306.51a4.41,4.41,0,0,0,6-1.61l21.23-36.77A4.4,4.4,0,0,0,286.6,262.13ZM239,276.06l-7.32,12.68a3.8,3.8,0,0,1-6.59-3.8l7.32-12.68a3.8,3.8,0,0,1,6.59,3.8Zm20.06,17.23a4,4,0,1,1,4-4A4,4,0,0,1,259.05,293.29ZM270.77,273a3.95,3.95,0,1,1,4-3.95A4,4,0,0,1,270.77,273Z"/><path class="cls-2" d="M327,215.56H277.17a4.38,4.38,0,0,0-4.39,4.39v7a4.4,4.4,0,0,0,1.28,3.11L297,252.94a7.28,7.28,0,0,0,5.17,2.15h26.25a2.93,2.93,0,0,0,2.93-2.93h0V220A4.38,4.38,0,0,0,327,215.56ZM297.77,244a1.46,1.46,0,0,1-1.46,1.47,1.5,1.5,0,0,1-1-.43l-7.93-7.93a1.47,1.47,0,0,1,1-2.5h7.93a1.46,1.46,0,0,1,1.46,1.46Z"/><path class="cls-2" d="M342.52,124.15l-11.71-20.29a2.93,2.93,0,0,0-4-1.07l-46.28,26.72a2.93,2.93,0,0,0-1.07,4l13.64,23.63a11.77,11.77,0,0,1,1.56,6.25,19.77,19.77,0,1,0,38.95-4,44.05,44.05,0,0,1,.24-21.82l.32-1.21a11.73,11.73,0,0,1,5.46-7.11l1.82-1A2.93,2.93,0,0,0,342.52,124.15ZM298.31,140.1a4,4,0,1,1,3.95-3.95A4,4,0,0,1,298.31,140.1Zm25.22,24a9.11,9.11,0,0,1-18.22,0v0a9.11,9.11,0,0,1,18.22,0Zm.77-39a4,4,0,1,1,4-4A4,4,0,0,1,324.3,125.1Z"/><path class="cls-2" d="M487.78,136l-.14-.62-.22-.6-.29-.57L467.7,100.6a1.46,1.46,0,0,0-2-.53l-23.58,13.61a.59.59,0,0,1-.8-.21l-14.2-24.6a.59.59,0,0,1,.21-.8h0l23.59-13.62a1.46,1.46,0,0,0,.53-2L432,38.8l-.36-.53-.41-.49-.46-.44-.51-.37-.54-.3-.57-.23-.59-.15-.59-.07h-.59l-.58.09-.55.18-.51.25L393.25,55.52l-.63.42-.59.48-.51.55-.46.61-.38.65-.3.7-7.44,20.24-.31.69-.37.66-.46.6-.52.55-.58.49-.63.42L349,100.5l-.64.42-.58.48-.52.55-.45.6-.38.66-.31.7-.56,1.53-.21.69-.14.71-.06.71,0,.71.1.7.18.7.26.67.33.64,35.58,61.64.4.61.45.55.51.5.56.44.61.38.64.3.68.24.71.16,1.6.28.76.08h.76l.75-.09.73-.17.71-.26.68-.35,31-17.92.68-.34.72-.26.73-.18.75-.09h.76l.75.09,21.25,3.67.75.09h.76l.75-.09.74-.18.71-.26.68-.34,32.51-18.77.48-.32.42-.4.37-.45.31-.5.23-.55.16-.58.09-.61v-.62ZM404.61,87.66a4.4,4.4,0,1,1-4.39,4.4A4.39,4.39,0,0,1,404.61,87.66ZM365.3,119.14a4.39,4.39,0,1,1,4.4-4.39A4.39,4.39,0,0,1,365.3,119.14ZM388,158.45a4.39,4.39,0,1,1,4.39-4.39A4.39,4.39,0,0,1,388,158.45Zm27.34-35.39a19,19,0,0,1-38.07,0h0a19,19,0,1,1,38.07,0Zm5.2-62.18h0a7.33,7.33,0,0,1,14.65,0h0a7.33,7.33,0,0,1-14.65,0Zm6.77,74.88a4.4,4.4,0,1,1,4.39-4.4A4.4,4.4,0,0,1,427.31,135.76Zm45.94-8.94a7.32,7.32,0,0,1-14.64,0h0a7.32,7.32,0,1,1,14.64,0Z"/><path class="cls-1" d="M408.26,189l-5.91-2.15-.51,1.37-7.61,20.92a1.45,1.45,0,0,1-1.87.87l-39.08-14.22a1.46,1.46,0,0,1-.87-1.88L360,173l.5-1.38-5.92-2.15a4.39,4.39,0,0,0-5.63,2.63l-8,22a8.78,8.78,0,0,0,5.25,11.26l45.41,16.52a8.77,8.77,0,0,0,11.25-5.25l8-22A4.39,4.39,0,0,0,408.26,189ZM373.48,208.1a2.57,2.57,0,0,1-5.13,0h0a2.57,2.57,0,0,1,5.13,0Z"/><path class="cls-2" d="M412.65,239.42H348.44a1.47,1.47,0,0,0-1.47,1.47V252.6a1.47,1.47,0,0,0,1.47,1.47h64.21a1.46,1.46,0,0,0,1.46-1.47V240.89A1.46,1.46,0,0,0,412.65,239.42ZM383,249.68a2.49,2.49,0,0,1-5,0h0a2.49,2.49,0,1,1,5,0Z"/><path class="cls-2" d="M486,179H447.75a14.66,14.66,0,0,0-8.4,2.65l-3.54,2.48a5.87,5.87,0,0,1-3.36,1.06h-3.58a5.86,5.86,0,0,0-5.86,5.86v6.25a1.47,1.47,0,0,0,1.47,1.47h8.78a1.46,1.46,0,0,1,1.46,1.46V238.3l-1.46,1.46h-6.4l-.31,0-.31.07L426,240l-.26.18-.22.21-.17.26-.11.29,0,.31v7.07l0,.25.06.24.11.22.15.2.19.16.23.11.23.07.25,0,5.28.09,5.25.08,2.67.05,2.72,0,5.44.09h.76l.76,0,.75,0,.76-.09.75-.11.74-.15.74-.17.73-.19.5-.17.47-.22.45-.26.42-.31.45-.4.43-.43.41-.45.38-.49.36-.51.33-.53.3-.56.28-.58.25-.6L459,243l.19-.63.15-.63.12-.65.09-.65.05-.65,0-.66v-5.95a2.93,2.93,0,0,1,2.92-2.93H486a4.39,4.39,0,0,0,4.39-4.4V183.39A4.39,4.39,0,0,0,486,179Zm-34.26,50.51a3.81,3.81,0,1,1-7.61,0V214.87a3.81,3.81,0,0,1,7.61,0Zm24-9.22a4,4,0,1,1,3.95-3.95A4,4,0,0,1,475.72,220.29Zm0-23.43a3.95,3.95,0,1,1,3.95-4A4,4,0,0,1,475.72,196.86Z"/><path class="cls-2" d="M603.11,56.39,602.73,55l-2.62-1.52-4.89-2.82L560.8,30.77l-4.89-2.83-3.26-1.88-1.42.38a1.52,1.52,0,0,0-.89.68l-2.29,4a2.93,2.93,0,0,0,1.07,4l7.77,4.48A7.35,7.35,0,0,1,560.3,44l3.79,14.14a7.35,7.35,0,0,1-.73,5.56l-1.27,2.19a4.4,4.4,0,0,0,1.61,6l2.53,1.46a1.46,1.46,0,0,0,2-.53l11.28-19.53a.59.59,0,0,1,.8-.22l16.36,9.45a2.93,2.93,0,0,0,4-1.07l2.3-4A1.47,1.47,0,0,0,603.11,56.39ZM556.67,34.83a2.56,2.56,0,1,1,2.56-2.56A2.56,2.56,0,0,1,556.67,34.83ZM598.54,55a2.56,2.56,0,1,1-5.12,0h0a2.56,2.56,0,1,1,5.12,0Z"/><path class="cls-2" d="M795.23,166.28,614.65,62a5.86,5.86,0,0,0-7.14,1,113.31,113.31,0,0,0-16.67,22.11l-8.64,15a5.85,5.85,0,0,0,2.14,8L596,114.83l162.81,94,11.66,6.73a5.85,5.85,0,0,0,8-2.14l8.64-15A113.64,113.64,0,0,0,797.93,173,5.85,5.85,0,0,0,795.23,166.28Zm-67-25a1.48,1.48,0,0,1,1.47,0l21.46,12.39a1.46,1.46,0,0,1,.53,2,1.44,1.44,0,0,1-1.26.73H737a2.91,2.91,0,0,1-2.53-1.46l-6.73-11.66A1.46,1.46,0,0,1,728.26,141.31ZM700.87,125.5a1.48,1.48,0,0,1,1.47,0l21.46,12.39a1.47,1.47,0,0,1,.54,2,1.49,1.49,0,0,1-1.27.73H709.61a2.94,2.94,0,0,1-2.54-1.46l-6.73-11.66A1.46,1.46,0,0,1,700.87,125.5Zm-27.39-15.81a1.44,1.44,0,0,1,1.47,0l21.46,12.39a1.46,1.46,0,0,1-.73,2.73H682.22a2.92,2.92,0,0,1-2.54-1.47L673,111.69A1.46,1.46,0,0,1,673.48,109.69ZM646.1,93.87a1.46,1.46,0,0,1,1.46,0L669,106.26a1.47,1.47,0,0,1-.73,2.74H654.83a2.92,2.92,0,0,1-2.54-1.47l-6.73-11.66A1.47,1.47,0,0,1,646.1,93.87ZM618.71,78.06a1.46,1.46,0,0,1,1.46,0l21.46,12.39a1.46,1.46,0,0,1-.73,2.73H627.44a2.93,2.93,0,0,1-2.54-1.46l-6.73-11.66A1.47,1.47,0,0,1,618.71,78.06ZM598.87,91.2a2.49,2.49,0,0,1,5,0h0a2.49,2.49,0,1,1-5,0Zm.34,13.4,12.67-22a2.94,2.94,0,0,1,4-1.07A3,3,0,0,1,617,82.64l5.91,10.25a2.9,2.9,0,0,1,0,2.93l-6.76,11.71a2.92,2.92,0,0,1-2.53,1.47H601.74a2.92,2.92,0,0,1-2.53-4.4Zm23.1,21.86a1.48,1.48,0,0,1-1.47,0l-21.46-12.39a1.47,1.47,0,0,1-.54-2,1.49,1.49,0,0,1,1.27-.73h13.47a2.93,2.93,0,0,1,2.53,1.46l6.73,11.66A1.46,1.46,0,0,1,622.31,126.46Zm2.59-3.12-6.76-11.71a3,3,0,0,1,0-2.93L624.9,97a2.93,2.93,0,0,1,2.54-1.46H641A2.91,2.91,0,0,1,643.5,97l6.76,11.71a2.9,2.9,0,0,1,0,2.93l-6.76,11.71a2.92,2.92,0,0,1-2.54,1.47H627.44A2.94,2.94,0,0,1,624.9,123.34Zm24.8,18.94a1.48,1.48,0,0,1-1.47,0l-21.46-12.4a1.47,1.47,0,0,1-.54-2,1.49,1.49,0,0,1,1.27-.73H641a2.92,2.92,0,0,1,2.54,1.47l6.73,11.66A1.46,1.46,0,0,1,649.7,142.28Zm2.59-3.12-6.76-11.72a2.93,2.93,0,0,1,0-2.92l6.76-11.72a2.94,2.94,0,0,1,2.54-1.46h13.52a2.94,2.94,0,0,1,2.54,1.46l6.76,11.72a2.93,2.93,0,0,1,0,2.92l-6.76,11.72a2.94,2.94,0,0,1-2.54,1.46H654.83A2.94,2.94,0,0,1,652.29,139.16Zm24.79,18.93a1.46,1.46,0,0,1-1.46,0L654.16,145.7a1.47,1.47,0,0,1,.73-2.74h13.46a2.92,2.92,0,0,1,2.54,1.47l6.73,11.66A1.47,1.47,0,0,1,677.08,158.09Zm2.6-3.12-6.76-11.71a2.9,2.9,0,0,1,0-2.93l6.76-11.71a2.92,2.92,0,0,1,2.54-1.47h13.52a2.94,2.94,0,0,1,2.54,1.47L705,140.33a3,3,0,0,1,0,2.93L698.28,155a2.93,2.93,0,0,1-2.54,1.46H682.22A2.91,2.91,0,0,1,679.68,155Zm24.79,18.93a1.46,1.46,0,0,1-1.46,0l-21.46-12.39a1.46,1.46,0,0,1,.73-2.73h13.46a3,3,0,0,1,2.54,1.46L705,171.9A1.47,1.47,0,0,1,704.47,173.9Zm2.6-3.12-6.76-11.71a2.9,2.9,0,0,1,0-2.93l6.76-11.71a2.92,2.92,0,0,1,2.54-1.47h13.52a2.94,2.94,0,0,1,2.54,1.47l6.76,11.71a3,3,0,0,1,0,2.93l-6.76,11.71a2.94,2.94,0,0,1-2.54,1.47H709.61A2.92,2.92,0,0,1,707.07,170.78Zm24.79,18.93a1.42,1.42,0,0,1-1.46,0l-21.46-12.39a1.46,1.46,0,0,1,.73-2.73h13.46a3,3,0,0,1,2.54,1.46l6.73,11.66A1.47,1.47,0,0,1,731.86,189.71Zm2.6-3.11-6.76-11.72a2.9,2.9,0,0,1,0-2.93l6.76-11.71a2.93,2.93,0,0,1,2.53-1.46h13.53a3,3,0,0,1,2.54,1.46L759.82,172a3,3,0,0,1,0,2.93l-6.76,11.72a3,3,0,0,1-2.54,1.46H737A2.93,2.93,0,0,1,734.46,186.6Zm24.79,18.93a1.46,1.46,0,0,1-1.46,0l-21.47-12.39a1.47,1.47,0,0,1,.74-2.74h13.46a2.94,2.94,0,0,1,2.54,1.47l6.73,11.66A1.47,1.47,0,0,1,759.25,205.53Zm17.35-10.66a2.49,2.49,0,1,1,2.49-2.49A2.49,2.49,0,0,1,776.6,194.87ZM778.75,179l-12.68,22a2.92,2.92,0,0,1-4,1.08,3,3,0,0,1-1.07-1.08l-5.92-10.24a3,3,0,0,1,0-2.93l6.77-11.72a2.93,2.93,0,0,1,2.53-1.46h11.84a2.93,2.93,0,0,1,2.93,2.93A2.89,2.89,0,0,1,778.75,179Zm.36-7.46a1.46,1.46,0,0,1-1.26.73H764.38a2.92,2.92,0,0,1-2.53-1.47l-6.73-11.66a1.46,1.46,0,0,1,.53-2,1.48,1.48,0,0,1,1.47,0l21.46,12.4A1.45,1.45,0,0,1,779.11,171.52Z"/><path class="cls-2" d="M724.82,204l-15.61-4.83a29,29,0,0,1-6-2.61L629,153.74a30.26,30.26,0,0,1-5.26-3.88l-12-11.11a4.47,4.47,0,1,0-6.07,6.55l7.33,6.79a14.66,14.66,0,0,1,4.58,12.53,8.77,8.77,0,0,0,4.32,8.69l67.87,39.19a8.79,8.79,0,0,0,9.69-.6,14.64,14.64,0,0,1,13.15-2.3l9.53,3a4.47,4.47,0,1,0,2.64-8.54ZM608.75,144.15a2.13,2.13,0,1,1,2.12-2.12A2.12,2.12,0,0,1,608.75,144.15Zm21.48,21.11a1.76,1.76,0,0,1-3.51,0h0a1.76,1.76,0,1,1,3.51,0Zm34.38,20.86a2.94,2.94,0,0,1-4,1.07l-27.08-15.63a2.93,2.93,0,0,1,2.93-5.07l27.07,15.62A2.94,2.94,0,0,1,664.61,186.12Zm5.57,2.2a1.76,1.76,0,0,1-3.52,0h0a1.76,1.76,0,0,1,3.52,0Zm19.35,12.18a2.93,2.93,0,0,1-4,1.07l-12.24-7.06a2.93,2.93,0,0,1,2.93-5.07l12.24,7.06A2.93,2.93,0,0,1,689.53,200.5Zm34,9.9a2.12,2.12,0,1,1,2.13-2.12A2.12,2.12,0,0,1,723.5,210.4Z"/><path class="cls-2" d="M746.88,234.32a4.47,4.47,0,0,0-5.34-3.37h0l-15.93,3.63a29.57,29.57,0,0,1-6.5.73H633.43a29.57,29.57,0,0,1-6.5-.73L611,231a4.46,4.46,0,1,0-2,8.7h0l9.73,2.21A14.65,14.65,0,0,1,629,250.44a8.8,8.8,0,0,0,8.09,5.36h78.37a8.78,8.78,0,0,0,8.09-5.36,14.69,14.69,0,0,1,10.24-8.57l9.73-2.21A4.47,4.47,0,0,0,746.88,234.32ZM610,237.43a2.13,2.13,0,1,1,2.12-2.12A2.12,2.12,0,0,1,610,237.43Zm50.36,11H646.24a2.93,2.93,0,0,1,0-5.85h14.13a2.93,2.93,0,1,1,0,5.85Zm9.08-2.92a1.76,1.76,0,0,1-3.51,0h0a1.76,1.76,0,0,1,3.51,0Zm36.82,2.92H675a2.93,2.93,0,0,1,0-5.85h31.26a2.93,2.93,0,1,1,0,5.85Zm9.3-2.92a1.76,1.76,0,0,1-3.51,0h0a1.76,1.76,0,0,1,3.51,0Zm26.94-8.13a2.13,2.13,0,1,1,2.12-2.12A2.12,2.12,0,0,1,742.51,237.43Z"/><path class="cls-1" d="M634,202H626.7a7.32,7.32,0,0,0-7.32,7.32v8.78a1.46,1.46,0,0,0,1.46,1.47h19a1.47,1.47,0,0,0,1.46-1.47v-8.78A7.32,7.32,0,0,0,634,202Zm-3.66,12.91a4.13,4.13,0,1,1,4.13-4.13A4.13,4.13,0,0,1,630.36,214.86Z"/><path class="cls-2" d="M564.28,298l-2.54-1.47-.31-.13-.33-.06-.34,0-.32.09a2.9,2.9,0,0,0-1.23-1.38l-71-41-2.53-1.46a2.92,2.92,0,0,0-4,1.07l-9.89,17.12a1.17,1.17,0,0,0-1.6.43L420.84,356.7a1.17,1.17,0,0,0,.43,1.6l-11,19a2.93,2.93,0,0,0,1.07,4l2.54,1.47,5,2.87a4.38,4.38,0,0,1,2.2,3.8V403a8.78,8.78,0,0,0,4.39,7.61l11.71,6.77a8.84,8.84,0,0,0,8.79,0l11.71-6.77a4.41,4.41,0,0,1,4.39,0l22.84,13.19a2.88,2.88,0,0,0,1.81.37l.08.33.16.3.21.26.28.2,2.54,1.47a2.93,2.93,0,0,0,4-1.07L565.35,302h0A2.93,2.93,0,0,0,564.28,298Zm-65.61-30.28a1.45,1.45,0,0,1,.19-.73,1.47,1.47,0,0,1,2-.54L524.29,280a1.46,1.46,0,0,1,0,2.54L517,286.75a4.36,4.36,0,0,1-4.39,0L500.86,280a4.38,4.38,0,0,1-2.19-3.8Zm0,16.06,11.71,6.77a4.38,4.38,0,0,1,2.2,3.8v13.53a4.41,4.41,0,0,1-2.2,3.8l-11.71,6.76a4.38,4.38,0,0,1-4.4,0l-11.71-6.76a4.41,4.41,0,0,1-2.2-3.8V294.36a4.38,4.38,0,0,1,2.2-3.8l11.71-6.77A4.43,4.43,0,0,1,498.67,283.79Zm-4.4,42.27v13.53a4.4,4.4,0,0,1-2.19,3.8l-11.72,6.76a4.36,4.36,0,0,1-4.39,0l-11.71-6.76a4.41,4.41,0,0,1-2.2-3.8V326.06a4.38,4.38,0,0,1,2.2-3.8L476,315.49a4.41,4.41,0,0,1,4.39,0l11.72,6.77A4.37,4.37,0,0,1,494.27,326.06ZM473.66,282.2l.07-.12,12.08-20.93.08-.12a2.92,2.92,0,0,1,3.92-.95l2.27,1.31a4.4,4.4,0,0,1,2.19,3.81v11a4.38,4.38,0,0,1-2.19,3.8l-11.72,6.76a4.36,4.36,0,0,1-4.39,0l-1.17-.67A2.94,2.94,0,0,1,473.66,282.2Zm-18.3,31.7a.75.75,0,0,1,.07-.12L468.61,291a.75.75,0,0,1,.07-.12,2.94,2.94,0,0,1,3.93-.95l1.17.68a4.37,4.37,0,0,1,2.19,3.8v13.53a4.4,4.4,0,0,1-2.19,3.8l-11.72,6.76a4.36,4.36,0,0,1-4.39,0l-1.17-.67A2.94,2.94,0,0,1,455.36,313.9Zm-18.3,31.7a.75.75,0,0,1,.07-.12l13.17-22.83.08-.12a2.93,2.93,0,0,1,3.92-.95l1.17.68a4.38,4.38,0,0,1,2.2,3.8v13.53a4.41,4.41,0,0,1-2.2,3.8l-11.71,6.76a4.36,4.36,0,0,1-4.39,0l-1.17-.67A2.93,2.93,0,0,1,437.06,345.6Zm-16,36.25-1.17-.67a2.93,2.93,0,0,1-1.15-3.88.75.75,0,0,0,.07-.12L432,354.35l.08-.12a2.92,2.92,0,0,1,3.92-1l1.17.68a4.38,4.38,0,0,1,2.2,3.8v13.53a4.41,4.41,0,0,1-2.2,3.8l-11.71,6.76A4.36,4.36,0,0,1,421.07,381.85ZM435,407.47l-6.17-12.28,2.76-4.78,6.18,12.28ZM446.23,411l-12.34-24.57,2.76-4.78L449,406.17Zm5.09-8.81-6.17-12.29,2.76-4.78,6.17,12.29Zm6.35-20.29L446,375.09a4.41,4.41,0,0,1-2.2-3.8V357.76A4.38,4.38,0,0,1,446,354l11.71-6.77a4.41,4.41,0,0,1,4.39,0L473.78,354a4.37,4.37,0,0,1,2.19,3.8v13.53a4.4,4.4,0,0,1-2.19,3.8l-11.72,6.76A4.36,4.36,0,0,1,457.67,381.85ZM494.27,403a4.4,4.4,0,0,1-2.19,3.81l-11.72,6.76a4.36,4.36,0,0,1-4.39,0l-11.71-6.76a4.41,4.41,0,0,1-2.2-3.81V389.46a4.38,4.38,0,0,1,2.2-3.8L476,378.89a4.41,4.41,0,0,1,4.39,0l11.72,6.77a4.37,4.37,0,0,1,2.19,3.8Zm18.31-31.69a4.41,4.41,0,0,1-2.2,3.8l-11.71,6.76a4.38,4.38,0,0,1-4.4,0l-11.71-6.76a4.41,4.41,0,0,1-2.2-3.8V357.76a4.38,4.38,0,0,1,2.2-3.8l11.71-6.77a4.43,4.43,0,0,1,4.4,0L510.38,354a4.38,4.38,0,0,1,2.2,3.8Zm18.3-31.7a4.41,4.41,0,0,1-2.2,3.8L517,350.15a4.36,4.36,0,0,1-4.39,0l-11.72-6.76a4.4,4.4,0,0,1-2.19-3.8V326.06a4.37,4.37,0,0,1,2.19-3.8l11.72-6.77a4.41,4.41,0,0,1,4.39,0l11.71,6.77a4.38,4.38,0,0,1,2.2,3.8Zm18.3-31.7a4.41,4.41,0,0,1-2.2,3.8l-11.71,6.76a4.36,4.36,0,0,1-4.39,0l-11.71-6.76a4.41,4.41,0,0,1-2.2-3.8V294.36a4.38,4.38,0,0,1,2.2-3.8l9.51-5.5a4.41,4.41,0,0,1,4.39,0l13.91,8a4.41,4.41,0,0,1,2.2,3.81Z"/><path class="cls-1" d="M467,448.67l-64.66-37.34a6.59,6.59,0,0,0-9,2.41L356,478.41a6.59,6.59,0,0,0,2.41,9l64.67,37.34a6.6,6.6,0,0,0,9-2.42l37.34-64.66A6.58,6.58,0,0,0,467,448.67Zm-31.13-15.78-4.3-2.48A42.76,42.76,0,0,1,435.85,432.89Zm-21-2a4.4,4.4,0,0,1,4.4-4.4,4.88,4.88,0,0,1,.76.07,42.42,42.42,0,0,1,7.77,2.16l1.16.47,9.2,5.31,1,.77a42,42,0,0,1,5.75,5.64,4.39,4.39,0,0,1-.53,6.19,3.76,3.76,0,0,1-.63.44l-10.55,6.1a4.43,4.43,0,0,1-4.4,0l-11.71-6.77a4.38,4.38,0,0,1-2.2-3.8Zm-9,28.23,2.46-4.27,11,21.95-2.47,4.28Zm3.43,14.58L406.88,478l-5.52-11,2.47-4.27ZM416,462.26l2.46-4.28L424,469l-2.47,4.27Zm-35.5-21.32a42.08,42.08,0,0,1,24.86-14.35,4.9,4.9,0,0,1,.77-.07,4.39,4.39,0,0,1,4.39,4.4V443.1a4.39,4.39,0,0,1-2.19,3.8l-11.72,6.77a4.41,4.41,0,0,1-4.39,0l-10.55-6.1a3.09,3.09,0,0,1-.63-.44A4.39,4.39,0,0,1,380.47,440.94ZM378.74,485a4.38,4.38,0,0,1-5.62-2.63,42,42,0,0,1,0-28.71,3.6,3.6,0,0,1,.32-.69,4.4,4.4,0,0,1,6-1.61L390,457.47a4.41,4.41,0,0,1,2.2,3.8V474.8a4.38,4.38,0,0,1-2.2,3.8l-10.55,6.1A5.55,5.55,0,0,1,378.74,485Zm10.79,18.17,4.3,2.48A41.68,41.68,0,0,1,389.53,503.19Zm21,2a4.38,4.38,0,0,1-4.39,4.39,3.94,3.94,0,0,1-.77-.07,41.75,41.75,0,0,1-7.76-2.16l-1.16-.46-9.2-5.32c-.33-.25-.66-.5-1-.77a42.06,42.06,0,0,1-5.76-5.64,4.39,4.39,0,0,1,.54-6.19,4.15,4.15,0,0,1,.63-.44l10.55-6.09a4.36,4.36,0,0,1,4.39,0l11.72,6.76a4.42,4.42,0,0,1,2.19,3.8Zm34.41-10A42,42,0,0,1,420,509.48a3.91,3.91,0,0,1-.76.07,4.39,4.39,0,0,1-4.4-4.39V493a4.41,4.41,0,0,1,2.2-3.8l11.71-6.76a4.38,4.38,0,0,1,4.4,0l10.55,6.09a5.47,5.47,0,0,1,.63.44A4.39,4.39,0,0,1,444.9,495.13Zm7.36-12.74a4.47,4.47,0,0,1-.33.7,4.39,4.39,0,0,1-6,1.61l-10.55-6.1a4.37,4.37,0,0,1-2.19-3.8V461.27a4.4,4.4,0,0,1,2.19-3.8l10.55-6.09a4.94,4.94,0,0,1,.7-.33,4.4,4.4,0,0,1,5.63,2.63A42.15,42.15,0,0,1,452.26,482.39Z"/><path class="cls-2" d="M417.78,554.53l-2.53-1.47-1.47,2.54a2.93,2.93,0,0,0-1.07-4l-22.84-13.19a4.38,4.38,0,0,1-2.2-3.8V521.08a8.78,8.78,0,0,0-4.39-7.61l-11.71-6.76a8.79,8.79,0,0,0-8.79,0l-11.71,6.76a4.36,4.36,0,0,1-4.39,0l-7.51-4.33a2.93,2.93,0,0,0-4,1.07l-4.4,7.61a1.17,1.17,0,0,0-1.6.43h0l-19.32,33.47a1.17,1.17,0,0,0,.43,1.6l-4.4,7.61a1.18,1.18,0,0,0-1.6.43l-14.06,24.36a1.18,1.18,0,0,0,.43,1.6l-4.39,7.6a1.47,1.47,0,0,0,1.61,2.16,8.08,8.08,0,0,1,5.95.84l11.32,6.54.18.1a7.92,7.92,0,0,0,6.78.54,4.4,4.4,0,0,1,3.76.3L341,619.92a4.38,4.38,0,0,1,2.15,3.11,7.9,7.9,0,0,0,3.85,5.59l.18.11,11.32,6.53A8.05,8.05,0,0,1,362.2,640a1.46,1.46,0,0,0,2.67.32l-.87,1.51,2.54,1.47a2.92,2.92,0,0,0,4-1.08l48.31-83.68A2.93,2.93,0,0,0,417.78,554.53Zm-66.71-33.45a4.38,4.38,0,0,1,2.2-3.8L365,510.52a4.36,4.36,0,0,1,4.39,0l11.71,6.76a4.38,4.38,0,0,1,2.2,3.8v13.53a4.38,4.38,0,0,1-2.2,3.8l-11.71,6.76a4.36,4.36,0,0,1-4.39,0l-11.71-6.76a4.38,4.38,0,0,1-2.2-3.8Zm0,21.14L362.78,549a4.38,4.38,0,0,1,2.2,3.8v13.53a4.38,4.38,0,0,1-2.2,3.8l-11.71,6.76a4.36,4.36,0,0,1-4.39,0L335,570.11a4.37,4.37,0,0,1-2.19-3.8V552.78A4.37,4.37,0,0,1,335,549l11.72-6.76A4.36,4.36,0,0,1,351.07,542.22Zm-24.94-1.72,13.18-22.83a2.93,2.93,0,0,1,4-1.07h0l1.17.68a4.38,4.38,0,0,1,2.2,3.8v13.53a4.38,4.38,0,0,1-2.2,3.8l-11.71,6.76a4.36,4.36,0,0,1-4.39,0l-1.18-.67A2.93,2.93,0,0,1,326.13,540.5Zm-16.06,57.68a2.92,2.92,0,0,1-4.39,2.53l-8.2-4.73a2.93,2.93,0,0,1-1.07-4l6.3-10.91a2.93,2.93,0,0,1,4-1.07h0l1.17.68a4.37,4.37,0,0,1,2.19,3.8Zm0-21.31-1.17-.67a2.93,2.93,0,0,1-1.07-4L321,549.37a2.93,2.93,0,0,1,4-1.07l1.17.68a4.38,4.38,0,0,1,2.2,3.8v13.53a4.38,4.38,0,0,1-2.2,3.8l-11.71,6.76A4.38,4.38,0,0,1,310.07,576.87Zm18.31,31.7-11.72-6.76a4.37,4.37,0,0,1-2.19-3.8V584.48a4.37,4.37,0,0,1,2.19-3.8l11.72-6.76a4.36,4.36,0,0,1,4.39,0l11.71,6.76a4.38,4.38,0,0,1,2.2,3.8V598a4.38,4.38,0,0,1-2.2,3.8l-11.71,6.76A4.36,4.36,0,0,1,328.38,608.57ZM365,629.88a2.93,2.93,0,0,1-2.93,2.92,2.88,2.88,0,0,1-1.46-.39l-11.84-6.83a4.4,4.4,0,0,1-2.15-3.11,7.89,7.89,0,0,0-3.85-5.6l-3.39-2a2.94,2.94,0,0,1-1.08-4,3,3,0,0,1,1.08-1.07l7.32-4.22a4.36,4.36,0,0,1,4.39,0l11.71,6.76a4.38,4.38,0,0,1,2.2,3.8ZM383.28,598a4.38,4.38,0,0,1-2.2,3.8l-11.71,6.76a4.36,4.36,0,0,1-4.39,0l-11.71-6.76a4.38,4.38,0,0,1-2.2-3.8V584.48a4.38,4.38,0,0,1,2.2-3.8L365,573.92a4.36,4.36,0,0,1,4.39,0l11.71,6.76a4.38,4.38,0,0,1,2.2,3.8Zm18.3-31.7a4.37,4.37,0,0,1-2.19,3.8l-11.72,6.76a4.36,4.36,0,0,1-4.39,0l-11.71-6.76a4.38,4.38,0,0,1-2.2-3.8V552.78a4.38,4.38,0,0,1,2.2-3.8l11.71-6.76a4.36,4.36,0,0,1,4.39,0L399.39,549a4.37,4.37,0,0,1,2.19,3.8Z"/><path class="cls-2" d="M274.67,656.83l-.11-.27-.15-.24-.2-.21-.24-.17-33.7-19.46-.27-.12-.28-.07h-.29l-.28,0-.28.1-.24.15-.22.2-.17.23-3.66,6.34-.11.27-.07.28v.29l0,.28.1.27.16.25.2.21.23.17,1.29.74.24.16.23.18.22.21.19.21.16.23.15.26.12.27.09.27.07.28,0,.29v.3l0,.28,0,.28-.08.28-.11.28-.13.26-52,90-.15.24-.19.23-.21.21-.21.18-.24.16-.26.14-.27.12-.27.08-.29.05-.29,0h-.3l-.28,0-.28-.06-.28-.08-.28-.11-.25-.13-12-6.9a1.47,1.47,0,0,0-2,.54h0L161.72,745l-4.4,7.61a1.47,1.47,0,0,0,.54,2l9.13,5.27a1.47,1.47,0,0,0,2-.54l2.2-3.8a2.92,2.92,0,0,1,4-1.07l29.16,16.84a2.92,2.92,0,0,1,1.07,4h0l-2.19,3.8a1.46,1.46,0,0,0,.53,2l9.13,5.27a1.47,1.47,0,0,0,2-.54l4.39-7.6,5.86-10.15a1.47,1.47,0,0,0-.54-2l-11.95-6.9-.24-.15-.23-.19-.22-.2-.18-.22-.17-.23-.14-.26-.13-.27-.09-.27-.06-.27,0-.3v-.29l0-.29.05-.28.08-.28.1-.28.13-.25,52-90,.16-.24.18-.23.21-.21.22-.18.23-.16.27-.14.27-.11.27-.09.28,0,.29,0h.3l.28,0,.28.06.29.08.27.11.26.13,1.29.75.26.12.28.06.29,0,.29,0,.27-.1.25-.15.21-.19.17-.24,3.66-6.34.12-.26.06-.28v-.29Zm-55.23,70.76-11.72,20.28a4.4,4.4,0,0,1-6,1.61l-1.27-.73-3.8-2.2-1.27-.73a4.4,4.4,0,0,1-1.61-6l11.72-20.29a4.4,4.4,0,0,1,6-1.61l6.34,3.66A4.41,4.41,0,0,1,219.44,727.59Zm18.74-32.47-10.25,17.76a4.38,4.38,0,0,1-6,1.6l-6.34-3.66a4.4,4.4,0,0,1-1.61-6l10.25-17.75a4.4,4.4,0,0,1,6-1.61l6.34,3.66A4.4,4.4,0,0,1,238.18,695.12Zm18.59-32.2-10.25,17.75a4.4,4.4,0,0,1-6,1.61l-6.34-3.66a4.4,4.4,0,0,1-1.61-6l10.25-17.76a4.39,4.39,0,0,1,6-1.6l6.34,3.66A4.38,4.38,0,0,1,256.77,662.92Z"/><path class="cls-1" d="M143.43,673.58l4.75.84a2.9,2.9,0,0,0,2.48-.73A60.89,60.89,0,0,0,161,661.42a1.46,1.46,0,0,0-.44-2l-.06,0-11.13-6.43a1.46,1.46,0,0,0-2,.47c-.52.78-1.06,1.56-1.62,2.31a1.45,1.45,0,0,0-.15,1.51,8.33,8.33,0,0,1-2,9.81,51.32,51.32,0,0,1-8.64,6.22,1.47,1.47,0,0,0-.57,2l3.19,5.94a1.47,1.47,0,0,0,2,.6l0,0c.68-.39,1.36-.8,2-1.21a.89.89,0,0,0,.28-1.21l0,0-1.11-1.61a2.64,2.64,0,0,1,2.63-4.09Z"/><path class="cls-2" d="M177,822.69l-55.61-32.1a1.47,1.47,0,0,0-2,.53h0l-5.85,10.15a1.46,1.46,0,0,0,.53,2l11.37,6.56,3.81,2.19,10.73,6.2,3.8,2.2,10.73,6.19,3.81,2.2,11.37,6.56a1.46,1.46,0,0,0,2-.53l5.85-10.15A1.46,1.46,0,0,0,177,822.69Zm-30.44-7.16a2.49,2.49,0,0,1-5,0v0a2.49,2.49,0,0,1,5,0Z"/><path class="cls-2" d="M245.76,917.2,239,905.48a4.41,4.41,0,0,1,0-4.39l4.34-7.51a2.93,2.93,0,0,0-1.07-4L118.63,818.2a2.93,2.93,0,0,0-4,1.07L72.17,892.82a2.93,2.93,0,0,0,1.07,4h0l123.63,71.37a2.93,2.93,0,0,0,4-1.07l13.19-22.84a4.37,4.37,0,0,1,3.8-2.19h13.52a8.79,8.79,0,0,0,7.61-4.4L245.76,926A8.82,8.82,0,0,0,245.76,917.2Zm-130.61-30-6.76,11.71a4.41,4.41,0,0,1-3.8,2.2H91.06a4.38,4.38,0,0,1-3.8-2.2l-5.5-9.51a4.43,4.43,0,0,1,0-4.4l8-13.91a4.42,4.42,0,0,1,3.81-2.19h11a4.42,4.42,0,0,1,3.8,2.19l6.76,11.72A4.36,4.36,0,0,1,115.15,887.18Zm0-36.6-6.76,11.71a4.41,4.41,0,0,1-3.8,2.2H96.13A1.46,1.46,0,0,1,94.67,863a1.53,1.53,0,0,1,.19-.73l13.53-23.43a1.46,1.46,0,0,1,2-.53,1.52,1.52,0,0,1,.54.53l4.22,7.32A4.38,4.38,0,0,1,115.15,850.58ZM119,844l-5.5-9.52a4.41,4.41,0,0,1,0-4.39l1.31-2.27a2.93,2.93,0,0,1,4-1.07l20.92,12.08a2.94,2.94,0,0,1,1.08,4l-.68,1.17a4.4,4.4,0,0,1-3.8,2.19H122.76A4.37,4.37,0,0,1,119,844Zm10.84,34.47a3.44,3.44,0,1,1-3.44-3.44A3.44,3.44,0,0,1,129.8,878.46ZM151.26,921l-28.53-16.47a5,5,0,0,1-1.82-6.8l19.4-33.6h0a5,5,0,0,1,6.8-1.82l28.53,16.47a5,5,0,0,1,1.82,6.8l-19.4,33.6A5,5,0,0,1,151.26,921ZM172,901.37a3.44,3.44,0,1,1-3.44,3.44A3.44,3.44,0,0,1,172,901.37Zm24.58,46.8-27.89-16.1L194,888.32l27.89,16.1Z"/><path class="cls-1" d="M212.69,846.1l-6.34-3.66a7.31,7.31,0,0,0-10,2.68l-4.39,7.6a1.46,1.46,0,0,0,.53,2L209,864.24a1.46,1.46,0,0,0,2-.53l4.39-7.61A7.32,7.32,0,0,0,212.69,846.1Zm-3.43,5.79a4.13,4.13,0,0,1-8.26,0h0a4.13,4.13,0,0,1,8.26,0Z"/><path class="cls-1" d="M273.25,994v.21l0,.21-.05.21-.09.21L273,995l-2.56,4.44-.13.19-.13.17-.15.14-.16.11-.18.1-.18.07-.2,0-.22,0h-.22l-.24,0-.25-.06-.26-.07-.28-.1-.29-.13-.3-.15-.32-.17-.31-.19-.29-.19-.25-.19-.23-.19-.2-.19-.18-.2-.14-.19-.12-.19-.09-.2-.06-.19,0-.2v-.2l0-.2.05-.2.07-.2.11-.2,2.56-4.44.15-.23.15-.19.16-.16.18-.14.18-.1.2-.07.21,0,.22,0,.22,0,.24,0,.26.06.26.07.27.11.29.12.29.15.31.17.31.18.28.19.26.19.22.2.2.19.17.2.14.2.11.2.09.2.06.2Zm-18.9-11.1,0-.2-.09-.2-.11-.2-.14-.2-.17-.2-.2-.19-.23-.2-.25-.19-.28-.19-.31-.18-.31-.17-.3-.15-.28-.12-.27-.11-.27-.07-.25-.06-.24,0-.23,0-.21,0-.21,0-.2.07-.18.1-.18.14-.16.16-.16.19-.14.23-2.57,4.44-.1.2-.07.2-.05.2,0,.2v.2l0,.2.07.19.09.2.12.19.14.19.18.2.2.19.23.19.25.19.29.19.31.19.31.17.31.15.29.13.27.1.27.07.25.06.24,0h.22l.22,0,.2,0,.18-.07.18-.1.16-.11.15-.14.13-.17.12-.19,2.57-4.44.11-.22.08-.21.06-.21,0-.21v-.21Zm8.74,4.71-.19-.26-.27-.27-.34-.26-.41-.26-2-1.13-2,3.51,1.82,1.06.49.26.44.19.38.11.33,0,.28,0,.26-.12.23-.21.21-.29.75-1.29.11-.26,0-.27,0-.26Zm29.26,6.54c-3.13,5.61-3.08,10.32-.29,15.57,3.26,6.13,2,9-5,11.18-1.24.37-2.71.55-3,1.74-1.48,5.07-4.53,2.85-7.18,1.56-2.87-1.39-5.56-3.14-8.35-4.7-7.86-4.43-8.13-4.55-4.51-12.37,1.35-2.9.71-3.72-1.69-5-4.74-2.58-9.41-5.31-13.89-8.31-3.88-2.61-5.91.19-7,2.67-2.35,5.48-5.51,4.26-9.19,2-1.66-1-3.29-2.14-5-3.1-9.93-5.6-10.87-7.61-8.42-18.61.74-3.3,2.8-5.3,6.28-5.14,8.27.38,13-4,16.67-11,5.61-10.78,12.78-20.7,17.88-31.79,1.7-3.68,5.23-3.9,9.75-3.73,3.41,1.23,8,1.46,12.12,4.36a172.63,172.63,0,0,0,20.61,11.91c5.15,2.62,8.28,6.77,11.1,11.46a5.94,5.94,0,0,1-.14,6.26C305.32,970.28,299,982.27,292.35,994.13ZM229.22,977.6c-.7-1.57-1.5-3-3.58-3.12-2.37-.15-4.88,0-5.18,2.87-.22,2.14,1.88,3.84,3.64,4.24C226.67,982.17,227.73,979.58,229.22,977.6Zm18.65-.38-1.39-.8-7.62,6.29-.12-.07,1.63-9.75-1.45-.83-1.77,11.43,1.61.93Zm5,12.17,2.56-4.43.17-.33.13-.33.08-.33,0-.32v-.32l0-.32-.09-.31-.13-.31-.17-.31-.22-.3-.26-.3-.3-.3-.34-.3-.39-.29-.43-.29L253,980l-.48-.26-.46-.23-.45-.18-.42-.15-.41-.11-.39-.07-.36,0h-.35l-.34,0-.31.08-.29.13-.28.16-.26.2-.24.24-.22.27-.2.32L245,984.84l-.16.32-.12.31-.08.31,0,.31v.31l.05.3.09.31.13.3.17.3.22.29.26.3.3.29.34.29.39.29.42.28.47.29.44.24.42.21.42.17.41.15.39.12.39.09.37,0,.36,0H251l.33-.06.31-.1.28-.14.27-.18.25-.23.22-.28Zm10.47,1.89.15-.17.12-.2.93-1.61.19-.36.11-.35.05-.32V988l-.08-.29-.15-.28-.21-.28-.27-.28-.35-.29-.42-.31-.5-.32-.58-.35-3.28-1.9L253.67,993l1.39.81,2.3-4,1.36.78.37,5.53,1.71,1-.59-5.88.52.26.51.18.49.09h.48l.23,0,.21,0,.2-.08.19-.1.17-.12Zm8.39,9,2.56-4.43.17-.33.13-.33.08-.33,0-.32v-.32l0-.32-.09-.31-.13-.31-.17-.31-.22-.3-.25-.3-.31-.3-.34-.3-.39-.29-.43-.29-.47-.29-.48-.26-.46-.23-.45-.18-.42-.15-.41-.11-.38-.07-.37,0h-.35l-.33,0-.32.08-.29.13-.28.16-.26.2-.24.24-.22.27-.2.32-2.55,4.41-.16.32-.12.31-.08.31,0,.31v.31l.05.31.09.3.13.3.18.3.21.29.26.3.3.29.34.29.39.29.42.28.47.29.44.24.43.21.41.17.41.15.39.12.39.09.37,0,.37,0h.34l.33-.06.31-.1.29-.14.26-.18.25-.23.23-.28Zm14.16-1.1-1.23-.7-4.45,7.71-.63-10.64-1.68-1-5.39,9.34,1.22.71,4.53-7.84.55,10.77,1.68,1Zm1.1,11.3c-2.2.16-4.11,1.27-3.47,3.61.51,1.85,1.24,4.53,4.28,3.84,3.23.22,3.89-2.49,4-4.34C291.91,1010.78,289.38,1010.3,287,1010.48Zm14.19-50.36c0-13.38-11.87-25.51-25.08-24.55-14.19,1-24,9.91-24.43,25.28C251.27,974.66,262,985,276,985,291.06,985,301.22,975,301.2,960.12Z"/><path class="cls-1" d="M307.8,904.9A6.07,6.07,0,0,0,305.23,894l-4.33-.77a7.53,7.53,0,0,0-3.17.14l-11.67,3.13a22,22,0,0,1-15.79-1.72l-9-4.68a2.2,2.2,0,0,0-2,3.9l1.52.79a2.91,2.91,0,0,1,1.48,1.84l2.44,9.1a3,3,0,0,1-.45,2.46,22.44,22.44,0,0,0-1.27,1.95,5.83,5.83,0,0,0-.65,4.26,1.46,1.46,0,0,0,1.75,1.11,1.78,1.78,0,0,0,.43-.18q2.43-1.46,5-2.68a1.1,1.1,0,0,0,.52-1.47,1.13,1.13,0,0,0-.38-.43,2.2,2.2,0,0,1-.61-3,2.3,2.3,0,0,1,.28-.34l.22-.21a5.75,5.75,0,0,1,2.54-1.43L289.87,901l.81-.18.82-.1.83,0,.83,0,.82.1.81.18.79.25.77.32.74.38.7.45.66.5.61.56.56.62.51.65.44.7.39.74,3.05,6.54a2.2,2.2,0,1,0,4-1.86l-1.09-2.34A2.92,2.92,0,0,1,307.8,904.9ZM306.74,900a2.57,2.57,0,1,1-5.13,0h0a2.57,2.57,0,0,1,5.13,0Z"/><path class="cls-1" d="M393.62,890.18H328.3a4.39,4.39,0,0,0-4.39,4.39v3.22a.58.58,0,0,0,.59.59h20.79v-.44a2.49,2.49,0,1,1,3.52,0h0v.44H365.5a5,5,0,0,1,5,5v13.18a2.93,2.93,0,0,0,2.93,2.93h20.21a5.86,5.86,0,0,0,5.86-5.86V896A5.85,5.85,0,0,0,393.62,890.18Zm-8.79,18.67a4,4,0,1,1,4-4A4,4,0,0,1,384.83,908.85Z"/><path class="cls-2" d="M360.33,918.21H320.8a5.27,5.27,0,0,0-5.27,5.27v10.27a6.45,6.45,0,0,0,1.89,4.56l6.13,6.13a6.43,6.43,0,0,0,4.55,1.89H353a6.41,6.41,0,0,0,4.55-1.89l6.14-6.13a6.44,6.44,0,0,0,1.88-4.56V923.48A5.27,5.27,0,0,0,360.33,918.21Zm-19.76,18.45a4.39,4.39,0,1,1,4.39-4.39A4.4,4.4,0,0,1,340.57,936.66Z"/><path class="cls-2" d="M423.44,1025.56l-22.95-13.25a1.47,1.47,0,0,1-.54-2l13.26-22.95a1.47,1.47,0,0,0-.54-2l-55.84-32.23-.57-.29-.6-.22-.62-.14-.63-.07h-.62l-.61.08-.58.17-.55.23-.5.31-.45.36-.39.43-.33.47-44,76.19a4.5,4.5,0,0,0-.3,3.9l1.21,3.1a4.54,4.54,0,0,0,2,2.27l76.87,44.39.52.25.55.17.57.09.59,0,.59-.07.59-.16.57-.22.54-.31.51-.37.46-.43.42-.49.35-.54L424,1027.57A1.48,1.48,0,0,0,423.44,1025.56Zm-34.58-44.35a7.32,7.32,0,1,1-7.32,7.32A7.32,7.32,0,0,1,388.86,981.21ZM382,1015a4.39,4.39,0,1,1,4.39,4.39A4.4,4.4,0,0,1,382,1015Zm8,39.82-2.21,3.82-4.94-9.82,2.21-3.83ZM355.52,962a7.32,7.32,0,1,1-7.32,7.32A7.32,7.32,0,0,1,355.52,962Zm-8.41,26a4.39,4.39,0,1,1-4.39,4.39A4.39,4.39,0,0,1,347.11,987.93ZM324.42,1036a4.4,4.4,0,1,1,4.39-4.39A4.39,4.39,0,0,1,324.42,1036Zm39.31,22.69a4.39,4.39,0,1,1,4.39-4.39A4.38,4.38,0,0,1,363.73,1058.71Zm10.72-35.38a19,19,0,1,1-38.06,0h0a19,19,0,1,1,38.06,0Zm8.74,52.93a7.33,7.33,0,1,1,7.32-7.32A7.33,7.33,0,0,1,383.19,1076.26Zm13.63-14.83-9.88-19.65,2.21-3.83,9.87,19.66Zm4.07-7-4.94-9.82,2.21-3.83,4.93,9.83Zm3.82-15.4a7.32,7.32,0,1,1,7.32-7.32A7.32,7.32,0,0,1,404.71,1039Z"/><path class="cls-2" d="M907.12,233.31,823.43,185a2.93,2.93,0,0,0-4,1.07h0L818,188.6l2.54,1.46a2.93,2.93,0,0,0-4,1.07L803.31,214a4.38,4.38,0,0,1-3.8,2.2H786a8.78,8.78,0,0,0-7.6,4.39l-6.77,11.71a8.79,8.79,0,0,0,0,8.79l6.77,11.71a4.41,4.41,0,0,1,0,4.39L774,264.68a2.93,2.93,0,0,0,1.07,4l7.61,4.39a1.18,1.18,0,0,0,.43,1.6L816.62,294a1.17,1.17,0,0,0,1.6-.43l7.61,4.39a1.17,1.17,0,0,0,.43,1.6l24.36,14.06a1.17,1.17,0,0,0,1.6-.43l7.61,4.4a1.47,1.47,0,0,0,2-.54A1.51,1.51,0,0,0,862,316a8,8,0,0,1,.85-6l6.53-11.32.11-.18a7.93,7.93,0,0,0,.54-6.77,4.42,4.42,0,0,1,.3-3.77l14.51-25.13a4.37,4.37,0,0,1,3.11-2.14,7.92,7.92,0,0,0,5.59-3.86l.11-.18,6.53-11.32a8.08,8.08,0,0,1,4.73-3.71,1.46,1.46,0,0,0,1-1.81,1.49,1.49,0,0,0-.68-.86l1.51.87,1.47-2.53A2.92,2.92,0,0,0,907.12,233.31Zm-57.74-12.75h13.53a4.38,4.38,0,0,1,3.8,2.2l6.77,11.71a4.41,4.41,0,0,1,0,4.39l-6.77,11.72a4.39,4.39,0,0,1-3.8,2.19H849.38a4.39,4.39,0,0,1-3.8-2.19l-6.76-11.72a4.36,4.36,0,0,1,0-4.39l6.76-11.71A4.38,4.38,0,0,1,849.38,220.56Zm-7.6,36.6L835,268.88a4.37,4.37,0,0,1-3.8,2.19H817.68a4.37,4.37,0,0,1-3.8-2.19l-6.76-11.72a4.36,4.36,0,0,1,0-4.39l6.76-11.71a4.38,4.38,0,0,1,3.8-2.2h13.53a4.38,4.38,0,0,1,3.8,2.2l6.77,11.71A4.41,4.41,0,0,1,841.78,257.16Zm-34.66-41,6.76-11.71a4.38,4.38,0,0,1,3.8-2.2h13.53a4.38,4.38,0,0,1,3.8,2.2l6.77,11.71a4.41,4.41,0,0,1,0,4.39L835,232.27a4.38,4.38,0,0,1-3.8,2.2H817.68a4.38,4.38,0,0,1-3.8-2.2l-6.76-11.71A4.36,4.36,0,0,1,807.12,216.17Zm-31.7,22.69a4.36,4.36,0,0,1,0-4.39l6.76-11.71a4.41,4.41,0,0,1,3.8-2.2h13.53a4.38,4.38,0,0,1,3.8,2.2l6.77,11.71a4.41,4.41,0,0,1,0,4.39l-6.77,11.72a4.39,4.39,0,0,1-3.8,2.19H786a4.42,4.42,0,0,1-3.8-2.19Zm34.66,36.61-.68,1.17a2.93,2.93,0,0,1-4,1.07l-22.82-13.18a2.94,2.94,0,0,1-1.08-4h0l.68-1.17a4.41,4.41,0,0,1,3.8-2.2h13.53a4.38,4.38,0,0,1,3.8,2.2l6.77,11.71A4.43,4.43,0,0,1,810.08,275.47Zm31.7,18.3-.68,1.17a2.93,2.93,0,0,1-4,1.07l-22.82-13.18a2.94,2.94,0,0,1-1.08-4l.68-1.17a4.37,4.37,0,0,1,3.8-2.19h13.53a4.37,4.37,0,0,1,3.8,2.19l6.77,11.72A4.41,4.41,0,0,1,841.78,293.77Zm23.83,4.39-4.73,8.2a2.93,2.93,0,0,1-4,1.07L846,301.14a2.94,2.94,0,0,1-1.08-4l.68-1.18a4.39,4.39,0,0,1,3.8-2.19h13.7A2.93,2.93,0,0,1,866,296.7,2.89,2.89,0,0,1,865.61,298.16Zm7.87-22.69-6.77,11.71a4.38,4.38,0,0,1-3.8,2.2H849.38a4.38,4.38,0,0,1-3.8-2.2l-6.76-11.71a4.38,4.38,0,0,1,0-4.4l6.76-11.71a4.38,4.38,0,0,1,3.8-2.2h13.53a4.38,4.38,0,0,1,3.8,2.2l6.77,11.71A4.43,4.43,0,0,1,873.48,275.47Zm23.83-32.21-6.83,11.84a4.4,4.4,0,0,1-3.11,2.14,7.88,7.88,0,0,0-5.59,3.85l-2,3.4a2.93,2.93,0,0,1-4,1.07,3,3,0,0,1-1.08-1.07l-4.22-7.33a4.36,4.36,0,0,1,0-4.39l6.76-11.71a4.38,4.38,0,0,1,3.8-2.2h13.7a2.92,2.92,0,0,1,2.53,4.4Z"/><path class="cls-1" d="M989.51,278.62l-64.67-37.34a6.59,6.59,0,0,0-9,2.41l-37.33,64.67a6.59,6.59,0,0,0,2.41,9l64.67,37.34a6.59,6.59,0,0,0,9-2.41l37.33-64.67A6.59,6.59,0,0,0,989.51,278.62Zm-68.65-20.2a42.15,42.15,0,0,1,28.71,0,6.29,6.29,0,0,1,.7.32,4.39,4.39,0,0,1,1.6,6l-6.09,10.56a4.37,4.37,0,0,1-3.8,2.19H928.45a4.37,4.37,0,0,1-3.8-2.19l-6.09-10.56a4.35,4.35,0,0,1,2.3-6.32Zm5.56,46.29-4.27-2.47,22-11,4.28,2.47Zm18.85-1-11,5.51L930,306.79l11-5.52Zm-20-11.56,11-5.52,4.27,2.47-11,5.52Zm-25.18-17.35-2.49,4.3A41.77,41.77,0,0,1,900.07,274.83Zm-6.3,15.8a41.75,41.75,0,0,1,2.16-7.76c.15-.39.31-.77.47-1.16l5.31-9.2c.25-.33.51-.66.77-1a42.06,42.06,0,0,1,5.64-5.76,4.39,4.39,0,0,1,6.19.54,4.46,4.46,0,0,1,.44.63l6.1,10.55a4.41,4.41,0,0,1,0,4.39l-6.77,11.72a4.37,4.37,0,0,1-3.8,2.19H898.09a4.39,4.39,0,0,1-4.39-4.39A4,4,0,0,1,893.77,290.63Zm20.54,39a4.39,4.39,0,0,1-6.19.54,42.08,42.08,0,0,1-14.35-24.86,4,4,0,0,1-.07-.77,4.39,4.39,0,0,1,4.39-4.39h12.19a4.37,4.37,0,0,1,3.8,2.19l6.77,11.72a4.41,4.41,0,0,1,0,4.39L914.75,329A4.46,4.46,0,0,1,914.31,329.67Zm35.26,7.89a42,42,0,0,1-28.71,0,4.88,4.88,0,0,1-.7-.32,4.39,4.39,0,0,1-1.6-6l6.09-10.56a4.39,4.39,0,0,1,3.8-2.19H942a4.39,4.39,0,0,1,3.8,2.19l6.09,10.56a4.09,4.09,0,0,1,.33.7A4.38,4.38,0,0,1,949.57,337.56Zm20.8-16.41,2.48-4.3A41.68,41.68,0,0,1,970.37,321.15Zm6.29-15.8a41.75,41.75,0,0,1-2.16,7.76c-.15.39-.3.78-.46,1.16l-5.32,9.2c-.25.33-.51.66-.77,1a42.06,42.06,0,0,1-5.64,5.76,4.39,4.39,0,0,1-6.19-.54,5.47,5.47,0,0,1-.44-.63l-6.09-10.55a4.36,4.36,0,0,1,0-4.39l6.76-11.72a4.37,4.37,0,0,1,3.8-2.19h12.19a4.39,4.39,0,0,1,4.39,4.39A4,4,0,0,1,976.66,305.35Zm-4.32-9.56H960.15a4.37,4.37,0,0,1-3.8-2.19l-6.76-11.72a4.36,4.36,0,0,1,0-4.39l6.09-10.55a5.47,5.47,0,0,1,.44-.63,4.39,4.39,0,0,1,6.19-.54,42.08,42.08,0,0,1,14.35,24.86,4,4,0,0,1,.07.77A4.39,4.39,0,0,1,972.34,295.79Z"/><path class="cls-2" d="M833.16,324.31a5.68,5.68,0,0,0-2.65-3.47l-15-8.68a1.36,1.36,0,0,0,0-.2l15.11,8.72-36.39-21a25,25,0,0,1-9.6-9.94,7.49,7.49,0,0,1-.63-1.65,5.8,5.8,0,0,0-2.71-3.6,6.48,6.48,0,0,1-1-.7c-1.32-1.1-2.69-2.15-4.08-3.16l-.08.15q-2.77-2-5.7-3.78a1.29,1.29,0,0,0-1.76.44v0l-1.58,2.73-.13-.15-12,20.81L753.65,303l-.17.34-.16.36-.27.75-.22.77-.2.72,0,.29.06.29.13.25.09.11.12.09,4.12,2.38-5.43,9.4-4.13-2.38-.13,0-.14,0-.28,0-.28.09-.26.12-.54.53-.54.58-.52.61-.23.31-.21.32-1.26,2.19-.92,1.59.11-.17.14-.16.14-.14.16-.11-3.32,5.75-.24,0,1.73-3-8.69,15h.22l-2.73,4.74a1.26,1.26,0,0,0,.46,1.74h0a78.4,78.4,0,0,0,10.87,5,7.92,7.92,0,0,1,1.14.54,5.6,5.6,0,0,0,4.33.53,7.68,7.68,0,0,1,1.78-.28A25.27,25.27,0,0,1,762,355.55l36.39,21a5.65,5.65,0,0,0,4.33.56,24.69,24.69,0,0,0,14.87-11.47l13.12-22.72A24.72,24.72,0,0,0,833.16,324.31Zm-84.41,22.78a3.63,3.63,0,1,1-7.25,0h0a3.63,3.63,0,0,1,7.25,0ZM755.6,300l0-.2,0-.19.07-.2.09-.18,4-7,.11.18Zm8.88,6.65a4.4,4.4,0,1,1,4.4,4.39A4.39,4.39,0,0,1,764.48,306.68Zm8.81,32a6.41,6.41,0,1,1,6.41-6.41A6.41,6.41,0,0,1,773.29,338.72Zm5.09-45.79a3.44,3.44,0,1,1,3.44-3.44A3.44,3.44,0,0,1,778.38,292.93Zm15.55,49.22-2.2-4.37,1-1.69,2.2,4.36Zm-.39-7.49,1-1.7,4.38,8.72-1,1.7Zm5-.47,2.19,4.36-1,1.7-2.19-4.36Zm11.23,38a4.41,4.41,0,0,1-6,1.61l-.88-.51a4.39,4.39,0,0,1,4.39-7.61l.89.51A4.4,4.4,0,0,1,809.75,372.2Zm1.62-7.2a4.39,4.39,0,1,1,4.39-4.39A4.39,4.39,0,0,1,811.37,365Zm21.06-32.1a4.39,4.39,0,0,1-6,1.6l-.89-.51a4.39,4.39,0,0,1,4.39-7.61l.89.52A4.38,4.38,0,0,1,832.43,332.9Z"/><path class="cls-2" d="M894.84,340.8l-.57-.57H847.38l-.57.57v35.42l.28.29.3.31h46.88l.29-.3.28-.29ZM860,368.21a4.39,4.39,0,1,1-8.78,0v0a4.39,4.39,0,1,1,8.78,0Zm30.46,0a4.4,4.4,0,1,1-8.79,0v0a4.4,4.4,0,0,1,8.79,0Z"/><path class="cls-2" d="M993.23,374.87H977.12a13.87,13.87,0,0,1-6.46-1.59,11.67,11.67,0,0,0-5.43-1.34H949.14a11.72,11.72,0,0,1-4.3-.81,19.76,19.76,0,1,0-14.5,36.77c.29.12.59.23.89.33a61,61,0,0,0,19.64,3.25h42.36a4.4,4.4,0,0,0,4.39-4.4V379.26A4.4,4.4,0,0,0,993.23,374.87Zm-46.3,14.67a9.34,9.34,0,0,1-18.68,0v0a9.34,9.34,0,0,1,18.68,0Zm17,3.93a4,4,0,1,1,4-4A4,4,0,0,1,963.94,393.47Zm23.43,0a4,4,0,1,1,4-4A4,4,0,0,1,987.37,393.47Z"/><path class="cls-2" d="M767.38,402.56l-20.29-11.71a2.93,2.93,0,0,1-1.07-4l3-5.16.3-.56.28-.58.24-.59.22-.6.18-.61.16-.62.12-.63.09-.63.06-.64,0-.64V375l0-.64-.09-.63-.12-.62-.16-.62-.21-.6-.2-.48-.26-.45-.3-.42-.34-.4-.54-.53-.56-.52-.57-.49-.59-.48-.61-.45-.63-.43-.64-.4-.65-.38-4.76-2.65L737,362.45l-2.35-1.3L725.47,356l-.23-.1-.24-.06h-.25l-.25,0-.23.09-.21.14-.17.18-.15.21-3.53,6.12-.12.28-.05.31,0,.31.08.29.14.29.18.24.23.22.25.17,5.55,3.2.53,2-19,33a1.47,1.47,0,0,1-2,.54l-7.61-4.4a1.47,1.47,0,0,0-2,.54L693.25,405a5.86,5.86,0,0,0,2.15,8l3.1,1.79a5.87,5.87,0,0,1,2.38,2.6l1.82,3.92a14.66,14.66,0,0,0,5.95,6.49l33.1,19.11a4.39,4.39,0,0,0,6-1.61L769,408.56A4.38,4.38,0,0,0,767.38,402.56Zm-42.56-2.43a3.8,3.8,0,0,1-1.39-5.19l7.32-12.68a3.8,3.8,0,1,1,6.59,3.8L730,398.74A3.81,3.81,0,0,1,724.82,400.13Zm15,33.59a4,4,0,1,1,4-4A4,4,0,0,1,739.83,433.72Zm11.72-20.29a3.95,3.95,0,1,1,4-3.95A4,4,0,0,1,751.55,413.43Z"/><path class="cls-2" d="M761.42,474.1l-.5-3.29a4.51,4.51,0,0,0-2.21-3.24l-76.18-44-.52-.25-.55-.17-.57-.1h-.59l-.59.07-.59.15-.57.23-.54.3-.51.38-.46.43-.42.49-.35.54L644,481.48a1.47,1.47,0,0,0,.54,2l22.95,13.25a1.47,1.47,0,0,1,.54,2l-13.25,23a1.46,1.46,0,0,0,.53,2L710,555.26l.57.29.6.22.62.14.63.07h.62l.61-.08.58-.17.55-.23.5-.31.45-.36.39-.43.33-.47L760.87,477A4.5,4.5,0,0,0,761.42,474.1Zm-57.14-23.76a4.39,4.39,0,1,1-4.39,4.39A4.39,4.39,0,0,1,704.28,450.34Zm-18.8-18.69a7.32,7.32,0,1,1-7.32,7.32A7.32,7.32,0,0,1,685.48,431.65Zm8.73,85.62,3.83,2.21-9.83,4.93-3.83-2.2Zm-28-37.63a7.32,7.32,0,1,1,7.32-7.32A7.32,7.32,0,0,1,666.23,479.64Zm7.84,45.28a7.33,7.33,0,1,1,7.32-7.33A7.33,7.33,0,0,1,674.07,524.92ZM677.2,494a4.39,4.39,0,1,1,4.39,4.39A4.39,4.39,0,0,1,677.2,494Zm4.4,37.17,19.66-9.87,3.82,2.21-19.65,9.87Zm10.88,6.28-3.83-2.21,9.83-4.94,3.83,2.21Zm18.87,9a7.32,7.32,0,1,1,7.32-7.32A7.32,7.32,0,0,1,711.35,546.44Zm9.55-25.32a4.39,4.39,0,1,1,4.39-4.39A4.39,4.39,0,0,1,720.9,521.12Zm-8.31-16.36a19,19,0,0,1-19-19v0a19,19,0,1,1,19,19.06Zm31-22.94a4.4,4.4,0,1,1,4.39-4.4A4.39,4.39,0,0,1,743.59,481.82Z"/><path class="cls-2" d="M682.25,556.15,636,529.43a2.93,2.93,0,0,0-4,1.07l-11.71,20.29a2.93,2.93,0,0,0,1.07,4l1.82,1.05a11.69,11.69,0,0,1,5.46,7.11l.32,1.21a43.82,43.82,0,0,1,.24,21.82,19.77,19.77,0,1,0,39,4,11.79,11.79,0,0,1,1.56-6.25l13.65-23.62A2.93,2.93,0,0,0,682.25,556.15Zm-47.72-8.37h0a4,4,0,1,1,7.9,0h0a4,4,0,1,1-7.9,0Zm23,42.91a9.11,9.11,0,1,1-18.22,0h0a9.11,9.11,0,0,1,18.22,0Zm7-24a4,4,0,1,1,4-4A4,4,0,0,1,664.47,566.74Z"/><path class="cls-2" d="M652.63,633.89l-21.94-12.67a11.69,11.69,0,0,1-4.07-3.93l-.47-.72-.46-.68-.46-.64-.45-.6a32.38,32.38,0,0,0-9.19-8.1,6.42,6.42,0,0,1-2.14-2.07.59.59,0,0,0-1,.63,7.52,7.52,0,0,0,2.6,2.48,1.17,1.17,0,0,1,0,2l-1.94,1.12-1.24.72a1.46,1.46,0,0,1-1.46,0l-2.63-1.52a1.47,1.47,0,0,1-.54-2l3.68-6.37.11-.23.06-.24,0-.24,0-.25-.06-.24-.09-.23-.14-.2-.17-.19a5.83,5.83,0,0,0-1-.75l-11.7-6.75-.18-.11-.82-.47-.49-.23-.52-.15-.54-.06-.53,0-.51.12-.48.21-.43.28-.37.36-.3.42-19.49,33.76-.61,1.1-.57,1.14-.53,1.18-.5,1.2-.45,1.23-.41,1.26-.37,1.27-.32,1.29-.74,3.17-.16.71-1.33,5.72a12.16,12.16,0,0,0-.19,4.5,4.4,4.4,0,0,0,2.15,3.19l54.11,31.24a5.87,5.87,0,0,0,8-2.15l23.42-40.57A5.85,5.85,0,0,0,652.63,633.89ZM623.86,639a2.49,2.49,0,0,1,5,0h0a2.49,2.49,0,0,1-5,0Zm-14.37-23h7.1l3.55,6.15-3.55,6.15h-7.1l-3.55-6.15Zm-21.76,17.42h-7.11l-3.55-6.15,3.55-6.15h7.11l3.55,6.15Zm7.73-21.74a4,4,0,0,1-4-3.95h0a4,4,0,1,1,7.91,0h0A4,4,0,0,1,595.46,611.68Zm6.71,36-3.55-6.15,3.55-6.15h7.11l3.55,6.15-3.55,6.15Zm10,11.59h0a2.49,2.49,0,0,1,5,0h0a2.49,2.49,0,0,1-5,0Zm13.51,13.12a2.94,2.94,0,0,1-4,1.08l-3.8-2.2a2.93,2.93,0,0,1-1.07-4l17.57-30.43a2.93,2.93,0,0,1,4-1.07l3.8,2.19a2.93,2.93,0,0,1,1.07,4Zm10.49-2.14a2.49,2.49,0,0,1-5,0h0a2.49,2.49,0,0,1,5,0ZM647.86,650a2.49,2.49,0,0,1-5,0h0a2.49,2.49,0,0,1,5,0Z"/><path class="cls-1" d="M606.38,690.84,565,667a8.78,8.78,0,0,0-12,3.21l-.24.43-2.3,4-65.93,114.2-2.3,4-.24.42a8.78,8.78,0,0,0,3.22,12l41.33,23.87a8.79,8.79,0,0,0,12-3.22l.33-.57,2.12-3.67,66.11-114.51,2.12-3.67.33-.57A8.78,8.78,0,0,0,606.38,690.84ZM507.33,814.7l-2.47-4.91,1.1-1.91,2.47,4.91Zm4.5,1.39-4.94-9.83,1.11-1.91,4.93,9.83Zm2-3.52-2.47-4.92,1.1-1.91,2.47,4.92Zm69.25-69.74-16.77,29-8.78,15.22-16.77,29a1.47,1.47,0,0,1-2,.54L489.86,788.4a1.47,1.47,0,0,1-.54-2l42.32-73.29a1.46,1.46,0,0,1,2-.53l.32.18,40.57,23.43,8.05,4.64A1.47,1.47,0,0,1,583.12,742.83ZM594,714.1a3.66,3.66,0,0,1-5,1.34h0l-6.22-3.59-2.34-1.35a2.93,2.93,0,0,0-4,1.07l-2.2,3.8a1.47,1.47,0,0,1-2,.54L551.92,704.2a1.46,1.46,0,0,1-.53-2l11-19a1.47,1.47,0,0,1,2-.54l20.29,11.71a1.46,1.46,0,0,1,.53,2l-2.2,3.81a2.94,2.94,0,0,0,1.08,4l2.34,1.35,6.22,3.59A3.66,3.66,0,0,1,594,714.1Z"/><path class="cls-2" d="M466.16,965.45a14.82,14.82,0,0,0,14.44-15.19,1.21,1.21,0,0,1,0-.19l-1.12-29.25a21.49,21.49,0,0,0-22.29-20.64l-1.05.06-17.76,1.56a14.41,14.41,0,0,0-9.81,5.11l-14.39,17.15a1.28,1.28,0,0,0,.16,1.8l10.23,8.59L405,957.78l10.68,9Zm5.22-10.11-6.87,2.5-5.6-4.7,1.27-7.2,6.87-2.51,5.61,4.71Zm.57-18a2.31,2.31,0,1,1-2.31,2.31A2.32,2.32,0,0,1,472,937.34Zm-25.31-25.23a2.92,2.92,0,0,1,4.12-.36l2.39,2a.73.73,0,0,0,.81.08,10.62,10.62,0,0,1,1.44-.59l-.17-.14a9,9,0,0,1,4-.35l-.14.17a8.57,8.57,0,0,1,1.52.33.72.72,0,0,0,.78-.23l2-2.39a2.93,2.93,0,0,1,4.49,3.77l-2,2.39a.74.74,0,0,0-.09.81,8.22,8.22,0,0,1,.59,1.44l.14-.17a9.07,9.07,0,0,1,.36,4l-.17-.14a9,9,0,0,1-.34,1.52.76.76,0,0,0,.23.78l2.39,2a2.92,2.92,0,0,1-3.76,4.48l-2.39-2a.73.73,0,0,0-.81-.09,9.07,9.07,0,0,1-1.44.59l.17.14a8.94,8.94,0,0,1-4,.35l.14-.17a8.57,8.57,0,0,1-1.52-.33.72.72,0,0,0-.78.23l-2,2.39a2.93,2.93,0,0,1-4.49-3.77l2-2.39a.71.71,0,0,0,.09-.8,8.65,8.65,0,0,1-.59-1.45l-.14.17a8.93,8.93,0,0,1-.35-4l.17.14a8.1,8.1,0,0,1,.33-1.52.73.73,0,0,0-.23-.78l-2.39-2A2.93,2.93,0,0,1,446.64,912.11Zm-10.9-1.49a2.31,2.31,0,1,1-2.31,2.31A2.31,2.31,0,0,1,435.74,910.62Zm-15.94,42a2.31,2.31,0,1,1-2.31,2.31A2.3,2.3,0,0,1,419.8,952.61Z"/><path class="cls-2" d="M527.5,859.81l-3.48-2a1.61,1.61,0,0,1-.7-2,34.92,34.92,0,0,1,5.5-9.54,3,3,0,0,0,.63-2.1,5.54,5.54,0,0,0-2.72-4.1l-3.06-1.76-1-.57-.3-.14-.41-.1h-.4l-.39.07-.33.15-.12.08a15.15,15.15,0,0,1-23.41-13.51v-.15l0-.36-.13-.37-.21-.34-.29-.31-.27-.19-1-.57-23.82-13.75a5.85,5.85,0,0,0-4.48-.58,24.88,24.88,0,0,0-15,11.56L439,842a24.91,24.91,0,0,0-2.52,18.75,5.84,5.84,0,0,0,2.74,3.59l55.15,31.84a5.51,5.51,0,0,0,4.9.3,2.92,2.92,0,0,0,1.5-1.59,35.25,35.25,0,0,1,5.52-9.54,1.62,1.62,0,0,1,2.05-.38l3.48,2h0l.51.3a1.46,1.46,0,0,0,2-.53l2-3.42,10.25-17.76,2-3.42a1.47,1.47,0,0,0-.54-2l-.52-.3Zm-83.19-3.74a2.57,2.57,0,0,1-3.51.94l-.88-.51a2.56,2.56,0,1,1,2.56-4.44l.89.51A2.58,2.58,0,0,1,444.31,856.07Zm17.36-42.38a2.58,2.58,0,0,1,3.5-.94l.89.52a2.56,2.56,0,1,1-2.56,4.43l-.89-.51A2.57,2.57,0,0,1,461.67,813.69ZM455,824.37a3.52,3.52,0,0,1,7,0h0a3.52,3.52,0,1,1-7,0Zm28.66,54.39a2.57,2.57,0,0,1-3.5,1l-.88-.52a2.56,2.56,0,1,1,2.56-4.43l.88.51A2.55,2.55,0,0,1,483.61,878.76Zm3.8-24a16.54,16.54,0,0,1-22.6,6.07l-.88-.51a16.54,16.54,0,0,1,16.54-28.65l.89.51A16.54,16.54,0,0,1,487.41,854.74Zm3.13-2.07a6,6,0,1,1,6,6A6,6,0,0,1,490.54,852.67Zm6.51,38.55a3.52,3.52,0,1,1,3.51-3.51A3.52,3.52,0,0,1,497.05,891.22ZM501,881.07a2.77,2.77,0,1,1,2.76-2.77A2.77,2.77,0,0,1,501,881.07Zm19.81-31.88a2.57,2.57,0,1,1,2.56-2.57A2.57,2.57,0,0,1,520.77,849.19Z"/><path class="cls-2" d="M533.11,1008.23,479,977a4.41,4.41,0,0,0-3.83-.27,12.47,12.47,0,0,0-3.81,2.42l-4.29,4-.53.5-2.38,2.22-1,.92-.92,1-.88,1-.84,1-.8,1-.75,1.05-.7,1.06-.65,1.08-19.49,33.77-.22.46-.12.5,0,.51.06.52.15.5.24.48.32.43.39.38.44.31.82.47.19.11,11.69,6.75a6,6,0,0,0,3.08.79c.85,0,1.69-.08,2.53-.18a6.41,6.41,0,0,1,3.91.79,32.62,32.62,0,0,0,14.81,4.17,11.65,11.65,0,0,1,5.44,1.56L503.83,1059a5.85,5.85,0,0,0,8-2.14l23.42-40.58A5.85,5.85,0,0,0,533.11,1008.23Zm-28.77,5.11a2.49,2.49,0,0,1,5,0h0a2.49,2.49,0,0,1-5,0Zm-47.8,9.18a4,4,0,0,1-7.91,0h0a4,4,0,1,1,7.91,0Zm3.78-13.39-3.55-6.15,3.55-6.15h7.1L471,1003l-3.55,6.15Zm17.1,27.56h-7.1l-3.56-6.15,3.56-6.15h7.1l3.55,6.15Zm6-16-3.55-6.15,3.55-6.15h7.1l3.55,6.15-3.55,6.15Zm9.16,13h0a2.49,2.49,0,0,1,5,0h0a2.49,2.49,0,1,1-5,0Zm13.51,13.13a2.93,2.93,0,0,1-4,1.07l-3.8-2.2a2.93,2.93,0,0,1-1.07-4l17.57-30.43a2.93,2.93,0,0,1,4-1.07l3.8,2.19a2.93,2.93,0,0,1,1.07,4Zm10.49-2.15a2.49,2.49,0,1,1-5,0h0a2.49,2.49,0,1,1,5,0Zm11.72-20.29a2.49,2.49,0,1,1-5,0h0a2.49,2.49,0,0,1,5,0Z"/><path class="cls-1" d="M524.87,911,519.14,909a6.89,6.89,0,0,0-8.83,4.11,7,7,0,0,0-.41,2.35v1.11a4.83,4.83,0,0,1-1.29,3.29,5.83,5.83,0,0,0-1.56,4v5.62l.65.66h1.13a2.19,2.19,0,1,1,1.12,4.24,2.13,2.13,0,0,1-1.12,0H507.7l-.65.66v9.1a4.66,4.66,0,0,0,2,3.85l4.55,3.14a7.33,7.33,0,0,1,3.16,6v17.82a1.47,1.47,0,0,0,1.47,1.47h0a61,61,0,0,0,7.14-.6v-64Zm-8.09,6.73a2.35,2.35,0,0,1-2.34-2.35h0a2.34,2.34,0,1,1,2.34,2.35Z"/><path class="cls-2" d="M598.37,927.72H569.09l-.5,0-.5-.06-.5-.1-.5-.15-.46-.11-1.33-.22-.14-.38-.21-.37-.25-.31-.3-.3-.5-.48-.49-.52-.23-.3L563,924l-.2-.42-.18-.48-.14-.51-.11-.54-.06-.57,0-.57V916.2l0-.57.06-.57.11-.54.14-.51.18-.48.2-.42.23-.36.23-.31.49-.52.5-.48.3-.29.25-.32.21-.36.14-.38,1.33-.23.46-.11.22-.07.46-.11.54-.08.62,0,.69,0h1.87l2.14,0H596.9a2.91,2.91,0,0,0,2.91-2.91V894.05a2.91,2.91,0,0,0-2.91-2.91H551.38a4.34,4.34,0,0,0-2.42.74l-5.73,3.81a4.39,4.39,0,0,0-1.94,3.64V948.8a4.4,4.4,0,0,0,1.94,3.64l5.73,3.81a4.33,4.33,0,0,0,2.42.73H596.9a2.9,2.9,0,0,0,2.91-2.9V929.19A1.46,1.46,0,0,0,598.37,927.72Zm-15.74-27.45a2.56,2.56,0,0,1,5.12,0h0a2.56,2.56,0,1,1-5.12,0Zm5,48.69a2.56,2.56,0,1,1-5.12,0h0a2.56,2.56,0,1,1,5.12,0Z"/><path class="cls-2" d="M669.8,891.76H620a4.39,4.39,0,0,0-4.39,4.39v32.21a2.93,2.93,0,0,0,2.93,2.93h26.25a7.35,7.35,0,0,0,5.18-2.14l22.92-22.93a4.4,4.4,0,0,0,1.29-3.1v-7A4.39,4.39,0,0,0,669.8,891.76Zm-10.17,21.53-7.93,7.93a1.47,1.47,0,0,1-2.07,0,1.5,1.5,0,0,1-.43-1v-7.92a1.47,1.47,0,0,1,1.47-1.47h7.92a1.46,1.46,0,0,1,1,2.5Z"/><path class="cls-2" d="M640.74,1010.53,605.24,990a4.38,4.38,0,0,0-6,1.6l-12.06,20.89a1.47,1.47,0,0,1-2,.54L570,1004.28a7.32,7.32,0,0,0-10,2.68l-62.74,108.67a7.32,7.32,0,0,0,2.68,10l17.76,10.25a4.4,4.4,0,0,0,6-1.61l6.92-12a7.32,7.32,0,0,1,4.44-3.41l35.21-9.44a14.65,14.65,0,0,0,8.9-6.82l19.29-33.43A29.27,29.27,0,0,1,612.16,1057a5.36,5.36,0,0,0,2.45-2.16A33.6,33.6,0,0,1,626.45,1043a4.43,4.43,0,0,0,1.57-1.59l14.33-24.83A4.4,4.4,0,0,0,640.74,1010.53ZM519.87,1118.39a4,4,0,1,1-4-4,4,4,0,0,1,4,4Zm7.76-16.33a4,4,0,1,1,4-4A4,4,0,0,1,527.63,1102.06Zm35.31-85.14a4,4,0,1,1,7.9,0h0a4,4,0,0,1-7.9,0ZM556.13,1033a2.56,2.56,0,1,1-2.56,2.56A2.55,2.55,0,0,1,556.13,1033Zm-16.3,34.81a4,4,0,1,1,4-4A4,4,0,0,1,539.83,1067.81Zm32.92,32.31a2.56,2.56,0,1,1,2.56-2.56A2.56,2.56,0,0,1,572.75,1100.12Zm7.51-27.81a16.84,16.84,0,0,1-32.52-3.57,3.12,3.12,0,0,1,.2-1.51,8.68,8.68,0,0,0,.54-4.91,3,3,0,0,1,.13-1.51,16.84,16.84,0,0,1,31.65,11.5Zm17.74-14a2.56,2.56,0,1,1-5.12,0h0a2.56,2.56,0,0,1,5.12,0Zm11.48-51.15a4,4,0,0,1-7.91,0h0a4,4,0,1,1,7.91,0Zm20.29,11.72a4,4,0,0,1-7.91,0h0a4,4,0,0,1,7.91,0Z"/><path class="cls-2" d="M695.49,1010.71l-2.84-4.93a1.46,1.46,0,0,0-2-.49l-.37.21-.23.08h-.24l-.12,0-.11-.06-.1-.08-.07-.09,1-.55.45-.26a1.47,1.47,0,0,0,.54-2l-17.28-29.93a1.47,1.47,0,0,0-2-.54l-.46.27-1,.55h0l-.05-.12,0-.12v-.12l0-.12.13-.21L671,972l.36-.21a1.46,1.46,0,0,0,.56-1.95l-2.85-4.93a2.93,2.93,0,0,0-4-1l-21,12.1a7.37,7.37,0,0,0-3.41,4.45l-1.64,6.14a7.3,7.3,0,0,0,.73,5.56l17.46,30.25a7.34,7.34,0,0,0,4.45,3.41l6.14,1.65a7.3,7.3,0,0,0,5.56-.74l21-12.1A2.92,2.92,0,0,0,695.49,1010.71Zm-9.18-3.19,0,.12-.12.21-.19.16-7.85,4.53a2.93,2.93,0,0,1-4-1.07l-7-12.08a5.41,5.41,0,0,1-2.45-4.25l-7-12.08a2.92,2.92,0,0,1,1.08-4l7.84-4.53.23-.08h.25l.11,0,.11,0,.1.08.07.1h0l-1,.6-6.92,4a2.92,2.92,0,0,0-1.3,3.5l7.08,12.27.34-.2a4.39,4.39,0,1,1,4.39,4.4,4.47,4.47,0,0,1-2.2-.59l-.34.19,7.09,12.27a2.92,2.92,0,0,0,3.68.62l6.92-4,1-.6,0,.11,0,.12Z"/><path class="cls-1" d="M731.35,860.72a19,19,0,1,1,19,19,19,19,0,0,1-19-19v0Zm22.9-6.42,6,12,2.59-4.48-6-12ZM743,850.83l12.19,24.26,2.59-4.48-12.19-24.26Zm.93,20.78,2.59-4.48-6-12-2.58,4.48Z"/><path class="cls-2" d="M843.72,924.84l-.06-.24-.1-.23L841,919.76l-2.55-4.59-1.3-2.34-1.33-2.38-2.64-4.75-.38-.66-.41-.64-.42-.62-.46-.61-.47-.59-.5-.58-.51-.55-.54-.54-.39-.34-.43-.3-.45-.26-.47-.21-.58-.19-.59-.16-.59-.12-.61-.09-.62-.06-.63,0-.64,0-.64.05-.64.09-.64.12-.64.15-.63.19-.62.22-.6.25-.6.28-.57.31-5.16,3a2.93,2.93,0,0,1-4-1.07L797,882.46a4.4,4.4,0,0,0-6-1.61l-36.78,21.23a4.38,4.38,0,0,0-1.6,6l19.11,33.1a14.6,14.6,0,0,0,6.49,6l3.92,1.83a5.93,5.93,0,0,1,2.6,2.38l1.79,3.1a5.85,5.85,0,0,0,8,2.14l5.42-3.13a1.46,1.46,0,0,0,.53-2l-4.39-7.6a1.46,1.46,0,0,1,.53-2l33-19,2,.54,3.2,5.54.18.26.22.23.24.18.28.14.3.08.31,0,.3,0,.29-.12,6.12-3.54.2-.14.18-.18.14-.2.1-.23,0-.25ZM769.83,914a4,4,0,1,1,3.95-4A4,4,0,0,1,769.83,914Zm20.28-11.72a4,4,0,1,1,4-4A4,4,0,0,1,790.11,902.24Zm27.23,16.85-12.68,7.32a3.81,3.81,0,0,1-3.81-6.59l12.68-7.32a3.81,3.81,0,0,1,3.81,6.59Z"/><path class="cls-2" d="M912.92,903.55l-6.23-10.79-11.13-19.28a5.85,5.85,0,0,0-8-2.14l-27.89,16.11a5.84,5.84,0,0,0-2.15,8l11.13,19.27,6.23,10.79a5.87,5.87,0,0,0,8,2.15l27.9-16.11a5.79,5.79,0,0,0,1.6-1.36A5.86,5.86,0,0,0,912.92,903.55Zm-19.17,3.12a4.4,4.4,0,1,1-8.79,0h0a4.4,4.4,0,1,1,8.79,0Z"/><path class="cls-1" d="M989.75,851.28l-.1-.17-14.5-25.42a21.67,21.67,0,0,0-29.56-8.09c-.3.17-.61.36-.9.55l-15,9.57a14.64,14.64,0,0,0-6.43,9.18l-4.85,21.86,0,.3,0,.32.1.31.17.28a1.52,1.52,0,0,0,.84.54l12.87,2.85-6.48,29.22-.11.51,13.86,3.07,44.25-24.48A15,15,0,0,0,989.75,851.28ZM977,843.39a2.57,2.57,0,1,1-2.56,2.57A2.57,2.57,0,0,1,977,843.39Zm-44.45-1.86a2.56,2.56,0,1,1,2.56-2.56A2.55,2.55,0,0,1,932.56,841.53Zm5.25,44.61a2.57,2.57,0,1,1,2.57-2.56A2.56,2.56,0,0,1,937.81,886.14Zm18.52-32.44a17.28,17.28,0,1,1,17.28-17.28A17.28,17.28,0,0,1,956.33,853.7Zm22.42,11.62-6.93-1.54L969.68,857l4.8-5.23,6.93,1.53,2.14,6.77Z"/><path class="cls-2" d="M813.53,781.56h0l-27.9-16.1a1.46,1.46,0,0,0-2,.53l-30.06,52.08-1.37,2.36-1.88,3.26a1.47,1.47,0,0,0,.54,2l27.9,16.1a1.46,1.46,0,0,0,2-.53l1.88-3.26,1.36-2.36,30.07-52.08A1.47,1.47,0,0,0,813.53,781.56Zm-18.45,23.17-10.17,17.62a4.4,4.4,0,0,1-6,1.61l-12.68-7.32a4.4,4.4,0,0,1-1.61-6L774.8,793a4.38,4.38,0,0,1,6-1.6l12.68,7.32A4.38,4.38,0,0,1,795.08,804.73Zm2.3-24.93a2.49,2.49,0,1,1,2.49-2.49A2.48,2.48,0,0,1,797.38,779.8Z"/><path class="cls-2" d="M845.36,722.16,843.72,716a7.34,7.34,0,0,0-3.41-4.45l-21-12.1a2.93,2.93,0,0,0-4,1l-2.85,4.93a1.46,1.46,0,0,0,.56,2l.36.21.19.16.13.21,0,.12v.12l0,.12,0,.11-1-.56-.45-.26a1.47,1.47,0,0,0-2,.54l-17.28,29.92a1.47,1.47,0,0,0,.54,2l.45.26,1,.56h0l-.07.09-.1.08-.11.06-.12,0h-.24l-.23-.08-.36-.21a1.47,1.47,0,0,0-2,.49L789,746.26a2.92,2.92,0,0,0,1.11,3.93L811,762.29a7.31,7.31,0,0,0,5.56.74l6.14-1.65a7.31,7.31,0,0,0,4.45-3.41l17.46-30.25A7.3,7.3,0,0,0,845.36,722.16Zm-18.63-3.55-7,12.08a5.41,5.41,0,0,1-2.45,4.25l-7,12.08a2.93,2.93,0,0,1-4,1.07l-7.85-4.53-.18-.16-.13-.21,0-.12V743l0-.12.05-.11h0l1,.59,6.92,4a2.93,2.93,0,0,0,3.68-.62l7.08-12.27-.33-.2a4.39,4.39,0,1,1,2.19-3.8l.34.19,7.08-12.26a2.91,2.91,0,0,0-1.3-3.5l-6.92-4-1-.59.07-.09.1-.08.11-.05.11,0h.25l.23.08,7.85,4.53A2.93,2.93,0,0,1,826.73,718.61Z"/><path class="cls-2" d="M881.2,747.1,879,738.72a6.44,6.44,0,0,0-3-3.91l-8.9-5.13a5.27,5.27,0,0,0-7.2,1.93L840.1,765.84A5.27,5.27,0,0,0,842,773l8.89,5.14a6.47,6.47,0,0,0,4.89.64l8.37-2.24a6.52,6.52,0,0,0,3.92-3L880.56,752A6.47,6.47,0,0,0,881.2,747.1Zm-14.65,8.67a4.4,4.4,0,0,1-8.79,0h0a4.4,4.4,0,1,1,8.79,0Z"/><path class="cls-2" d="M919.82,776.29h-1.63v-.12l0-.11.07-.11.08-.08.22-.12.24,0h.42a1.47,1.47,0,0,0,1.46-1.42v-5.69a2.92,2.92,0,0,0-2.93-2.85h-24.2a7.31,7.31,0,0,0-5.17,2.14l-4.5,4.5a7.33,7.33,0,0,0-2.15,5.18v34.93a7.32,7.32,0,0,0,2.15,5.17l4.5,4.5a7.32,7.32,0,0,0,5.17,2.15h24.2a2.93,2.93,0,0,0,2.93-2.86v-5.69a1.46,1.46,0,0,0-1.46-1.41h-.42l-.24,0-.22-.12-.08-.09-.07-.1,0-.11v-.12h1.63a1.46,1.46,0,0,0,1.47-1.46V777.75A1.46,1.46,0,0,0,919.82,776.29Zm-5.33,37.6,0,.11-.07.1-.08.09-.22.12-.24,0h-9.06a2.93,2.93,0,0,1-2.93-2.93V797.47a5.42,5.42,0,0,1,0-4.9v-14a2.93,2.93,0,0,1,2.93-2.92h9.06l.24,0,.22.12.08.08.07.11,0,.11,0,.12h-9.18a2.94,2.94,0,0,0-2.88,2.38v14.16h.39a4.38,4.38,0,1,1,0,4.4h-.39v14.16a2.94,2.94,0,0,0,2.88,2.38h9.18Z"/><path class="cls-2" d="M882.53,669.25,872.3,631.07a5.25,5.25,0,0,0-6.45-3.73L855.93,630a6.42,6.42,0,0,0-3.91,3l-19.87,34.41a6.45,6.45,0,0,0-.64,4.88l2.65,9.92a5.29,5.29,0,0,0,6.46,3.73l38.19-10.23A5.27,5.27,0,0,0,882.53,669.25Zm-34.08,1.23a4.4,4.4,0,0,1-8.79,0v0a4.4,4.4,0,0,1,8.79,0ZM865,641.79a4.39,4.39,0,1,1-8.78,0v0a4.39,4.39,0,1,1,8.78,0Z"/><path class="cls-1" d="M993.31,761.87H987v23.71a1.47,1.47,0,0,1-1.47,1.47H944a1.46,1.46,0,0,1-1.46-1.47V761.87h-6.3a4.39,4.39,0,0,0-4.39,4.39v23.42a8.78,8.78,0,0,0,8.78,8.79h48.32a8.79,8.79,0,0,0,8.79-8.79V766.26A4.39,4.39,0,0,0,993.31,761.87Zm-28.55,33.3a2.56,2.56,0,1,1,2.56-2.56A2.56,2.56,0,0,1,964.76,795.17Z"/><path class="cls-1" d="M981.19,558.51H906.25a4.39,4.39,0,0,0-4.39,4.39V728.06a4.4,4.4,0,0,0,4.39,4.39h74.94a4.39,4.39,0,0,0,4.39-4.39h0V562.9A4.38,4.38,0,0,0,981.19,558.51ZM943.64,664.22l-16.57-10.89v-8l16.57,10.89Zm16.58-3.78-33.15-21.79v-8l33.15,21.79Zm0-14.68-16.58-10.89v-8l16.58,10.9Z"/><path class="cls-1" d="M997.25,551.43l-.14-.63-.24-.61-.32-.58-.4-.54-.48-.5-.55-.45-.62-.39-.67-.33-.71-.26-.75-.19-.76-.12-.78,0H903.4a31.4,31.4,0,0,0-7,.78l-.58.15-.57.18-.55.22-.55.25-.52.29-.51.32-.48.36-.46.38-.42.42-.39.45-.35.48-.31.51-.25.54-.19.56-.12.58,0,.59V737.11l0,.54.11.53.16.51.21.5.26.48.31.45.35.45.4.43.45.41.49.39.54.36.56.33.58.28.6.25.62.2.62.17a32,32,0,0,0,7,.77h87.43l.78,0,.76-.11.75-.19.71-.26.67-.33.62-.39.55-.45.48-.51.4-.54.32-.58.24-.61.14-.62,0-.64V552.06Zm-16.06,184H906.25a7.32,7.32,0,0,1-7.32-7.32V562.9a7.32,7.32,0,0,1,7.32-7.32h74.94a7.32,7.32,0,0,1,7.32,7.32V728.06A7.32,7.32,0,0,1,981.19,735.38Zm9.52,4.75a2.56,2.56,0,1,1,2.56-2.56A2.56,2.56,0,0,1,990.71,740.13Zm0-184.19a2.56,2.56,0,1,1,2.56-2.56A2.56,2.56,0,0,1,990.71,555.94Z"/><path class="cls-2" d="M794.17,512.89H767.92a7.32,7.32,0,0,0-5.18,2.15L739.82,538a4.41,4.41,0,0,0-1.29,3.11v7a4.39,4.39,0,0,0,4.4,4.39h49.78A4.39,4.39,0,0,0,797.1,548V515.82A2.93,2.93,0,0,0,794.17,512.89Zm-30.64,19a1.47,1.47,0,0,1-1.47,1.46h-7.92a1.47,1.47,0,0,1-1.47-1.46,1.5,1.5,0,0,1,.43-1L761,523a1.47,1.47,0,0,1,2.07,0,1.5,1.5,0,0,1,.43,1Z"/><path class="cls-2" d="M871,503.44H860.71a6.45,6.45,0,0,0-4.56,1.89l-28.09,28.1a6.41,6.41,0,0,0-1.89,4.55v10.27a5.27,5.27,0,0,0,5.27,5.27H871a5.27,5.27,0,0,0,5.27-5.27V508.72A5.28,5.28,0,0,0,871,503.44Zm-27.82,36a4.39,4.39,0,0,1-8.78,0h0a4.39,4.39,0,1,1,8.78,0Zm23.43-23.43a4.39,4.39,0,1,1-8.78,0v0a4.39,4.39,0,0,1,8.78,0Z"/><path class="cls-1" d="M904.43,479.26a19,19,0,1,1,38.07,0v0a19,19,0,0,1-38.07,0Zm22.91-6.41,6,12,2.59-4.48-6-12Zm-11.26-3.48,12.19,24.26,2.58-4.48-12.19-24.26Zm.93,20.78,2.58-4.48-6-12L911,478.18Z"/><path class="cls-2" d="M996.52,520.62H982.61A11.72,11.72,0,0,1,970.9,508.9V454.73A11.71,11.71,0,0,1,982.61,443h13.91a3.66,3.66,0,0,0,0-7.32H924.78a3.66,3.66,0,1,0,0,7.32h13.9a11.72,11.72,0,0,1,11.72,11.71V508.9a11.72,11.72,0,0,1-11.72,11.72h-13.9a3.66,3.66,0,1,0,0,7.32h71.75a3.66,3.66,0,1,0,0-7.32Zm-1.39-81.27a1.39,1.39,0,1,1,2.78,0h0a1.39,1.39,0,1,1-2.78,0Zm-69,0a1.4,1.4,0,0,1-2.79,0h0a1.4,1.4,0,0,1,2.79,0Zm0,84.92a1.4,1.4,0,0,1-2.79,0h0a1.4,1.4,0,1,1,2.79,0Zm34.48-81.78a1.76,1.76,0,1,1-1.76,1.76A1.75,1.75,0,0,1,960.65,442.5Zm2.93,69.33a2.93,2.93,0,0,1-5.86,0V497.7a2.93,2.93,0,0,1,5.86,0Zm-4.69-21.45a1.76,1.76,0,1,1,1.76,1.76A1.76,1.76,0,0,1,958.89,490.38Zm4.69-7.32a2.93,2.93,0,0,1-5.86,0V451.8a2.93,2.93,0,0,1,5.86,0Zm34.33,41.22a1.39,1.39,0,0,1-2.78,0h0a1.39,1.39,0,1,1,2.78,0Z"/><path class="cls-2" d="M896.71,490.57a1.59,1.59,0,0,0,1.56-1.61,1.64,1.64,0,0,0-.44-1.12,9,9,0,0,1-2.39-6.13v-14.6a8.81,8.81,0,0,0-3.11-6.75,4.88,4.88,0,0,1-1.73-3.74V424.7a4.88,4.88,0,0,1,1.73-3.74,8.81,8.81,0,0,0,3.11-6.75v-14.6a9,9,0,0,1,2.39-6.13,1.65,1.65,0,0,0,0-2.28,1.53,1.53,0,0,0-1.08-.45h-9.37a1.27,1.27,0,0,0-1.25-1.29h-30a1.27,1.27,0,0,0-1.25,1.29h-9.36a1.27,1.27,0,0,0-1.25-1.29H803a1.27,1.27,0,0,0-1.25,1.29h-9.36a3.17,3.17,0,0,0-3.13,3.22v9.54a4.85,4.85,0,0,1-2.34,4.18l-12.49,7.44a9.71,9.71,0,0,0-4.69,8.36v14.87a9.72,9.72,0,0,0,4.69,8.37l12.49,7.44a4.84,4.84,0,0,1,2.34,4.18v29a3.17,3.17,0,0,0,3.13,3.22h-3.13v3.22a3.17,3.17,0,0,0,3.13,3.22H895.44a3.17,3.17,0,0,0,3.13-3.22v-3.22ZM872,402a3.17,3.17,0,0,1,3.12-3.22h13.43A3.17,3.17,0,0,1,891.7,402v10.41a3.17,3.17,0,0,1-3.13,3.22,3.08,3.08,0,0,1-1.56-.43l-12.65-7.53a4.85,4.85,0,0,1-2.34-4.18Zm-39,0a3.17,3.17,0,0,1,3.13-3.22h28.1a3.17,3.17,0,0,1,3.13,3.22v1.49a4.86,4.86,0,0,1-2.35,4.18l-12.49,7.44a4.57,4.57,0,0,1-4.68,0l-12.49-7.44a4.86,4.86,0,0,1-2.35-4.18Zm-39,0a3.17,3.17,0,0,1,3.12-3.22h28.11A3.17,3.17,0,0,1,828.3,402v1.49a4.85,4.85,0,0,1-2.34,4.18l-12.49,7.44a4.59,4.59,0,0,1-4.69,0l-12.49-7.44a4.85,4.85,0,0,1-2.34-4.18Zm-4.69,48-12.49-7.43a4.87,4.87,0,0,1-2.34-4.19V423.49a4.85,4.85,0,0,1,2.34-4.18l12.49-7.44a4.59,4.59,0,0,1,4.69,0l12.49,7.44a4.85,4.85,0,0,1,2.34,4.18v14.87a4.87,4.87,0,0,1-2.34,4.19L794,450A4.54,4.54,0,0,1,789.26,450Zm39,23.24A4.84,4.84,0,0,1,826,477.4l-12.49,7.44a4.59,4.59,0,0,1-4.69,0l-12.49-7.44a4.84,4.84,0,0,1-2.34-4.18V458.35a4.84,4.84,0,0,1,2.34-4.18l12.49-7.44a4.59,4.59,0,0,1,4.69,0L826,454.17a4.84,4.84,0,0,1,2.34,4.18Zm0-23.24-12.49-7.43a4.87,4.87,0,0,1-2.34-4.19V423.49a4.85,4.85,0,0,1,2.34-4.18l12.49-7.44a4.57,4.57,0,0,1,4.68,0l12.5,7.44a4.85,4.85,0,0,1,2.34,4.18v14.87a4.87,4.87,0,0,1-2.34,4.19L833,450A4.52,4.52,0,0,1,828.3,450Zm39,23.24A4.85,4.85,0,0,1,865,477.4l-12.49,7.44a4.57,4.57,0,0,1-4.68,0l-12.49-7.44a4.85,4.85,0,0,1-2.35-4.18V458.35a4.85,4.85,0,0,1,2.35-4.18l12.49-7.44a4.57,4.57,0,0,1,4.68,0L865,454.17a4.85,4.85,0,0,1,2.35,4.18Zm0-23.24-12.5-7.43a4.89,4.89,0,0,1-2.34-4.19V423.49a4.88,4.88,0,0,1,2.34-4.18l12.5-7.44a4.57,4.57,0,0,1,4.68,0l12.49,7.44a4.86,4.86,0,0,1,2.35,4.18v14.87a4.88,4.88,0,0,1-2.35,4.19L872,450A4.52,4.52,0,0,1,867.34,450Zm24.36,32.16a3.17,3.17,0,0,1-3.13,3.22,3.08,3.08,0,0,1-1.56-.43l-12.65-7.53a4.84,4.84,0,0,1-2.34-4.18V458.35a4.84,4.84,0,0,1,2.34-4.18l7.81-4.65a3.08,3.08,0,0,1,4.27,1.18,3.33,3.33,0,0,1,.42,1.61v4.31a8.79,8.79,0,0,0,3.11,6.74,4.92,4.92,0,0,1,1.73,3.75Z"/><path class="cls-2" d="M16,508.58q0,18.36,0,36.73c0,2.73.43,5.62-3.89,5.62-4.07,0-5.85-1.63-6-5.76-.33-8.91-.74-17.84-1.51-26.72-1.29-15-2.9-29.92-4.33-44.88-.08-.86-.12-1.71-.12-2.57,0-28.9-.34-57.81.13-86.7.24-14.58,1.86-29.14,2.82-43.71.56-8.65,1-17.32,1.56-26,.47-7.41.93-14.83,1.56-22.23.32-3.74,3.31-6.62,6.15-6.11,3.65.64,3.65,3.51,3.65,6.34q0,36.5,0,73a17.24,17.24,0,0,0,.25,3.13c.77,4.27,2.74,5.7,7.51,5.82,3.75.09,7.5-.09,11.24.08,1.66.07,4,.14,4.83,1.17,3.29,3.92,7.55,3.25,11.74,3.26,6,0,12-.06,18,0,4.25.06,8.22,0,12-2.85,1.94-1.44,5.13-1.24,7.78-1.66,4.79-.75,10,1.61,14.53-1.82.38-.28,3.27,1.41,3.36,2.35,1.4,13.51,3.35,27,.74,40.61a23.77,23.77,0,0,0-.38,4.76c.45,8.08,1.26,16.16,1.3,24.24,0,5.91-1,11.82-1.44,17.73-.23,2.81-2.1,3.53-4.14,2.55-6.35-3.07-13.06-2.53-19.75-2.61-1,0-2.21.08-2.91-.44-9.94-7.42-21.3-2.8-32-3.87a1.64,1.64,0,0,0-1.15.33c-6.89,5.34-15.24,3.24-23,4.37-7,1-8.51,3.35-8.52,10.57C16,485.1,16,496.84,16,508.58Zm22.67-105.1a1.07,1.07,0,0,0-.25,0c-3.54,0-7.3,0-9.08,1.78-3.54,3.56-5.52,6.15-7.35,10.84-1.23,3-.44,7.46,2,10.31,1.52,2.65,7.44,9,14.94,8.31,7.29-.7,16.33-8.93,14.92-15.91-1-4.81-3.9-9.54-7-13.46C45.45,403.63,41.51,404,38.65,403.48ZM69,453.36a1.51,1.51,0,0,0,.3,0c3.62,0,7.93-.93,10.08-3.08,3.33-3.33,7.3-8.43,6.94-12.41-.47-5.11-4.54-10.17-7.94-14.56-1.17-1.52-5-1.29-7.59-1.34-9-.16-17.79,7-16.93,14.94.52,4.78,3.45,9.68,6.46,13.64C61.6,452.27,65.45,452.79,69,453.36Zm-.57-37.78c4.42.3,8.93.22,10.57-1.56,3.4-3.68,7.27-8.69,7.32-13.2s-3.83-9.42-7-13.3c-1.35-1.65-5.36-1.58-8.13-1.47-3.8.16-8.71-.16-11.07,2-3.2,2.92-6,8-6.07,12.15s2.66,9.08,5.61,12.38C61.6,414.83,66.12,415.58,68.38,415.58ZM29.74,457.43H30c3.11-.39,6.76.06,9.16-1.47,3-1.9,5.54-3.81,9.32-3.58.8.05,2.39-1.65,2.46-2.62.24-3.32-4.38-8.09-7.75-8.28-2.47-.14-5,.26-7.42-.1-5.82-.85-8.86,2-11.31,6.92C20,457.12,19.8,457.05,29.74,457.43Zm1.52-76s-2.82-.31-2.93-.05l-3.36.28A2.43,2.43,0,0,0,23,385c.87,2,1.68,4,2.51,6,2.12,5.28,6.12,6.68,11.37,6,1.72-.22,3.49,0,5.24-.05,3.88-.13,9-5.35,8.84-9,0-.62-.51-1.6-1-1.75A175.66,175.66,0,0,0,31.26,381.43Zm66.29,38h0c0-4.22.17-8.45-.06-12.65-.15-2.69-2.63-3.63-4.64-2-.17.14-.23.42-.35.63-2.44,4.25-5.16,8.38-7.2,12.82-1.18,2.56,6.43,15.15,9.39,15.88.73.18,2.66-1.25,2.71-2C97.69,427.84,97.55,423.61,97.55,419.4Zm0,30.14a9.64,9.64,0,0,0-1.13-6.49,1.63,1.63,0,0,0-2.13-.8,9,9,0,0,0-3.21,2C89.73,445.83,89,448.05,88,450c-.63,1.29-1.25,2.59-1.86,3.89a1.63,1.63,0,0,0,1.1,2.28,22.8,22.8,0,0,0,4.87.79C97.58,457.05,97.58,456.91,97.6,449.54Zm.56-59.49,0-.57c0-.48.24-1.61.06-1.66.07-1.86,1.43-4.65-.63-5.47-1.24-.5-.94-1.1-3.5-.87-1.22.11-2.37.23-3.49.4a4,4,0,0,0-3.12,5.39c.35.84.66,1.29,1.19,2.42.32.66.29.67.94,2s2.41,6.55,6.16,4.93C97.26,396,97.47,392.45,98.16,390.05Z"/><path class="cls-2" d="M545.37,169.05c5.56-.16,8,3,6.72,8.46-3.17,13.33-3.24,13.44,8.07,20.48,5.65,3.52,11.68,6.43,17.43,9.81,4.64,2.74,8.48,1.59,12-1.88,1.43-1.39,2.79-2.86,4.26-4.2,4.08-3.73,6.57-3.47,9.61,1.08,3.4,5.08,4.67,10.24.46,15.64a23.16,23.16,0,0,0-2.93,5.15c-1.23,2.9-2.91,4.27-6.26,5.27s-6.58,4.26-8.78,7.31a120.94,120.94,0,0,0-10.25,17.12c-1.77,3.57-2,7.85-3.41,11.66-1.24,3.47-2.61,7.09-4.85,9.9-.92,1.16-4.59,1.11-6.47.32a105,105,0,0,1-13-6.95c-2.84-1.69-4.64-2.09-6.27,1.65-1.46,3.36-4.36,3.24-7.33,1.37q-6.89-4.33-13.9-8.46c-2.61-1.54-3.45-3.26-1.57-6,1.77-2.6,1.92-4.78-1.82-6.2-2.72-1-5-3.08-7.66-4.46-9.67-5.08-10.67-11.7-1.62-17.73,4.29-2.86,6.48-6.34,8.7-10.44,2.81-5.2,5.88-10.28,9.09-15.25a16.62,16.62,0,0,0,2.29-12.15C526.4,181.09,535.9,169.32,545.37,169.05Zm3.57,88.46c15.28,2,27.91-12.92,27.35-27.28-.64-16.38-12-27.37-27.33-27.09s-26.54,10.77-27.34,27.49C520.93,245.23,534.19,259.06,548.94,257.51Z"/><path class="cls-2" d="M860.39,936.66c-.68.62-1.21,1.35-1.58,1.6-12.79,8.82-25.67,17.55-38.26,26.67-25,18.15-51.94,33.22-78.86,48.24Q711,1030.31,679.6,1046.3c-13.61,7-27.71,13-41.56,19.5-2.88,1.35-5.3,2.56-7.26-1.51s.64-5.19,3.33-6.75q31.39-18.15,62.72-36.4c5.46-3.19,6.45-6.52,3.66-12.34-1.16-2.44-3-4.54-4.13-7-1.4-3.19-4.44-6-2.21-10.26.67-1.29-.38-3.88-1.28-5.52-3.57-6.49-7.17-13-11.2-19.17-1.76-2.7-3.11-5.86-7.31-6.82-2.3-.53-4-4.08-5.78-6.42-2.93-3.88-5.45-8.1-8.6-11.78-2.57-3-.67-4.73,1.31-6.11,6.6-4.6,13.24-9.2,20.17-13.27,4.6-2.71,9.83-4.31,14.56-6.83,2.49-1.32,4.29-3.9,6.75-5.33,7.88-4.59,15.89-8.94,23.9-13.3,1.5-.81,3.24-1.18,4.81-1.9,5.92-2.73,5.77-2.71,7.55,3.31.61,2.08,2.09,3.89,3.14,5.84,2.8,5.19,6.31,10.09,5.79,16.52a9.66,9.66,0,0,0,1.43,4.89c3.24,6.11,6.45,12.26,10.08,18.14a20.86,20.86,0,0,0,8.24,8c3.85,2.08,6.08,7.46,8.63,11.62,4.28,7,7.08,7.66,14.17,3.57,18.59-10.73,37.27-21.31,55.91-32,2.57-1.46,5-3.27,7.66-4.44a5.1,5.1,0,0,1,6.89,3.7c0,.16-.17,1-.1,1.17ZM732,954.5a3.94,3.94,0,0,0,1.64,0c2.9-.68,6.62-.84,8.24-2.77,3.21-3.8,6.81-8.91,6.72-13.4s-3.87-9.54-7.2-13.31c-1.59-1.8-5.91-1.66-9-1.56-3.26.11-7.73.13-9.46,2.12-3.26,3.73-6.83,8.89-6.73,13.38s3.88,9.52,7.18,13.32C724.93,954,728.61,953.87,732,954.5Zm-32.53,18a4,4,0,0,0,1.57,0c3.4-.66,7.33-.57,9-2.47,3.14-3.53,5.94-8.32,6.56-12.89,1-7-8.92-16.06-16.2-15.72-3.31.15-7.73.52-9.58,2.62-3.3,3.73-6.84,8.83-6.9,13.4,0,4.2,3.75,9,7,12.49C692.71,971.77,696.4,971.81,699.46,972.47Zm34.4-12.26a3.76,3.76,0,0,0-1.7,0c-3.51.69-7.29.64-9.17,2.51-3.37,3.35-7.45,8.21-7.31,12.3.17,4.81,3.89,10,7.34,14,1.79,2,6.31,2.23,9.61,2.28,3,0,7.28-.18,8.94-2.08,3.29-3.76,6.93-8.69,7.11-13.26.16-4.27-3.34-9.27-6.47-12.86C740.53,961.11,736.84,960.93,733.86,960.21Zm-30.28,18.48a4.17,4.17,0,0,1-.8.09c-6.48,0-6.5.24-4.25,6.12.52,1.36,1.43,2.87,1.2,4.14-1.2,6.58,3.16,11.12,5.58,16.39,1.34,2.91,2.88,3,5.07,1,5.64-5.06,7-12.11,3.57-18.91a26.2,26.2,0,0,0-2-3.94C709.71,980.58,707.23,978,703.58,978.69Zm59.63-6.45c-1.51-.13.92.32,2.84.31s2.06-.29,3.86-.88c1.07-.36,2.59-2.84,2.25-3.46-2.1-3.86-4.07-8.14-7.26-11-3-2.68-6.91-6.41-9.46-7.46-1.87-.67-3.15-.82-3.37-.66-3.48,2.49-4.86,6-3.75,9.06,1,4.57,3.95,9.08,7.16,12.62C757,972.49,760.31,971.84,763.21,972.24Zm-63.1-36.42c7.59.09,15.95-7.65,16.81-15.46.36-3.34-1.25-4.56-4.53-2.81-6.28,3.37-12.4,7.06-18.5,10.76l-.3.19a3.72,3.72,0,0,0,.25,6.28,14.43,14.43,0,0,0,1.83,1C696.93,936.27,698.62,935.82,700.11,935.82Zm-15.39,4.83a3.31,3.31,0,0,0,.53-2.18c-.33-2.53-2.38-3.59-4.86-2.46a43.78,43.78,0,0,0-8.17,4.92c-1,.75-2.06,3-1.64,3.78a48.39,48.39,0,0,0,5.32,7.5c.17.22,1.65-.11,2-.56C680.29,947.89,682.62,944.07,684.72,940.65Zm46.4-24.41a4.74,4.74,0,0,0,.92.13,40.93,40.93,0,0,0,6.17-.09,4.62,4.62,0,0,0,2.44-1.84c-1.39-2.86-2.64-6-4.78-8.16-.78-.8-4.16.1-5.76,1.14-2.7,1.75-8.15,1.64-7.37,6C723.65,918.52,728.45,915.69,731.12,916.24Z"/><path class="cls-2" d="M555.62,99.76c3.37-.3,5.77,1.09,7.88,3.54,5.43,6.35,9.26,13.88,12.3,21.33,4.51,11,7,22.87,10.15,34.43,1.28,4.7-4.78,7.05-11.1,8.06-5.38.86-9.05,1.93-13,2.56-6,1.28-5.83-.29-6.52-2.28-1.58-4.56-.78-10.63-4.77-13.53s-9.34.31-14.16.33c-7,0-13.71-1.78-20.66-1.94-6.15-.14-11.35-9-9.27-14.95,3.67-10.5,10.41-19.4,15.71-29,1.44-2.63,4.31-4.82,7.17-4.86C538.29,103.24,547.07,102.44,555.62,99.76Zm3.94,14.46c-.11-3.8-1.92-6.5-5.13-6.45-2.92,0-6.59,1-6.9,5.17-.28,3.8,1.84,6.14,5.51,6.51C556.9,119.83,558.73,117.31,559.56,114.22Zm-13,29.74a6.44,6.44,0,0,0-.77-6.75,5.63,5.63,0,0,0-5.23-2.5c-3.62.3-5.27,3.11-5.13,6.85.17,4.51,3.46,4.9,6.68,4.88A4.72,4.72,0,0,0,546.58,144Zm-12.5-33.53c-4.55,0-7.33,1.81-7.37,5.41,0,3.19,2.53,4.89,5.93,5.25,4,.42,5.51-2,5.65-5S537.28,110.2,534.08,110.43ZM519.14,145c3.71.14,5.56-2,5.65-5,.1-3.24-2.18-5.39-5.63-5.47s-5.91,1.92-6,5.14C513.14,143.08,515.18,145.14,519.14,145Zm47.18-10.09c-.52-2.15-1.1-3.77-3.54-3.31-1.92.37-3.42,1.5-3,3.44a3.31,3.31,0,0,0,4,2.42C565.42,137.18,566.39,136.36,566.32,134.89Zm5.16,22.16c0-1.51-.11-3-2.2-3-1.93,0-3.45,1-3.48,2.89s1.48,2.87,3.4,3C571.28,160,571.46,158.6,571.48,157.05Z"/><path class="cls-2" d="M834,861.59c-4.75,2.67-7.23,4.83-.39,8.15-5.84-1.2-10.82.28-15.95-1.26-5.75-1.74-8.21-5.26-8.28-10.69a39.91,39.91,0,0,0-3.95-17.1c-3-6.3-1.62-11.49,3.3-16.55,5.65-5.83,10.25-12.68,15.87-18.55,8.13-8.47,17.4-7,22.56,3.71,3.83,7.93,7.56,16.12,9.67,24.62,1.54,6.24,4.61,6.4,9,5a21.72,21.72,0,0,1,7.34-.78c4.2,0,6.44,2.31,6.48,6.49,0,5.45.16,10.82,1.39,16.23,1,4.27-.51,8-5.74,8.59-9.8,1.07-19.6,2.15-29.43,3C835.78,873.28,835.7,873.11,834,861.59ZM821.39,848.4c-2.64,1.39-4.83,3.21-4.7,7.15s2.2,5,5.76,5c4.35,0,5.86-3.21,5.92-6.18C828.44,850.93,825.41,849.05,821.39,848.4Zm27.81-13.93c-.55-3.41-1.74-6.55-5.48-6.79s-5.7,2.3-6,6c-.24,3.43.72,5.61,4.76,5.9S848.23,837.51,849.2,834.47Zm-26.38-.25c-1.12-1.51-.37-5.19-4.77-5.29-3.73-.08-6.72,1.37-7,5s2.56,5.51,6.29,5.64C820.43,839.64,822.71,838.79,822.82,834.22Zm18-20.88c-.73-2.6-1.11-5.53-5.22-5.42-3.73.09-6.52,1.77-6.58,5.34,0,3.11,2.39,5,5.87,5.31C838.75,818.94,840,816.64,840.81,813.34Zm30,41.1c0-1.55-.2-3-2.29-2.87-1.92.1-3.44,1-3.39,3s1.57,2.86,3.49,2.88C870.66,857.44,870.76,856,870.77,854.44Zm-22.63,1.41a2.81,2.81,0,0,0-3.07-2.55c-1.85.19-2.82,1.73-2.71,3.66s1.69,2,3.15,2C847.18,859,848.37,858.5,848.14,855.85Z"/><path class="cls-2" d="M79.52,627.12c.16-5.15-2.27-6.34-6.86-6.27-12.24.18-24.5.34-36.73-.06-6.31-.2-8.45,2.89-8.84,8.31-.16,2.24,0,4.5,0,6.75,0,14.91,0,14.91-14.62,15.06-8.84.09-10.85,2.07-10.87,11q0,30.36,0,60.73c0,20.74.1,41.49-.06,62.23,0,6,2.39,8.72,8.45,8.48,5.24-.21,10.5,0,15.75-.05,8.72,0,9.21-.07,8.63-8.72-.61-9.25,2.59-16.25,9.34-22.34,6.48-5.85,12.35-12.39,18.67-18.44a15.63,15.63,0,0,0,5.2-12.53c-.26-10.24.11-20.5-.13-30.74-.2-8,.72-15.69,5.14-22.68,2-3.19.51-4.48-2.9-4.45-5,.05-10-.18-15,.05-3.76.17-5.53-.9-5.26-5,.24-3.66-.06-7.23,5.2-7.15s10.5,0,15.75,0c6.93-.06,8.89-1.77,9.06-8.69C79.61,644.12,79.26,635.61,79.52,627.12Zm-21,56.36a2.11,2.11,0,1,1-2.11,2.11A2.11,2.11,0,0,1,58.53,683.48Zm0,34.55a2.11,2.11,0,1,1-2.11,2.11A2.1,2.1,0,0,1,58.53,718ZM38.91,633c2.44-.23,3.12.81,3.07,2.55,0,1.43.14,3-1.93,3.22s-3.49-.8-3.74-2.61A2.83,2.83,0,0,1,38.91,633ZM12.33,661.48c1.46-.13,2.33.43,2.46.95.23,2.47-.48,3.3-2,3.33a1.92,1.92,0,0,1-2.19-2.28C10.67,662.42,11.07,661.6,12.33,661.48ZM9.81,685.59a2.11,2.11,0,1,1,2.11,2.11A2.11,2.11,0,0,1,9.81,685.59Zm3.29,35.66c-1.74.06-2.53-.7-2.5-2.2s.91-2.19,2.4-2.08a1.83,1.83,0,0,1,1.89,1.83C14.5,720.33,14,721,13.1,721.25Zm6.42,60.87a2.74,2.74,0,0,1-2.94-2.88c0-1.93.91-3.45,2.79-3.57a2.8,2.8,0,0,1,3,2.6C22.57,781,21.12,782.13,19.52,782.12Zm.05-23.55c-1.95.07-3-1.47-3-3.38s1-3.47,2.87-3.54,2.85,1.5,3.05,3.33C22.4,757,21.48,758.51,19.57,758.57Zm32.88-49.88c-.47,9-6.76,16.48-16.59,15.72-12-.15-15.17-6.49-16.18-15.94-.92-8.65,7.49-15.76,16.8-15.65C45.23,692.92,52.9,700.22,52.45,708.69ZM61,636.58a1.81,1.81,0,1,1,1.81-1.8A1.79,1.79,0,0,1,61,636.58Z"/><path class="cls-2" d="M550.91,62.06c-3.49-4.32-5.8-9.76-11.73-11.91-4-1.45-6.77-4.81-8.93-8.41-6.58-11-13-22-19.54-33C506.06.85,500.36-1.94,491.63,1.37a138.17,138.17,0,0,0-35,20c-7.1,5.46-7.66,12.05-3.39,20.13C456.32,47.41,460,53,463,58.88c4.38,8.67,12.11,16,11.59,26.67-.33,6.78,2.2,12.54,5.15,18.26.86,1.66,1.5,4,4.22,3.08,2.19-.78,2.46-2.69,2.65-4.82.82-9.37,2.28-10.93,11.64-13.08a.06.06,0,0,1,.07,0c1,2.79-.44,5.89,1.34,9.2a.05.05,0,0,0,.08,0l16.6-9.35a.05.05,0,0,0,0-.09c-2.41-1.69-4.92-2.76-4.07-5.84a3.26,3.26,0,0,1,3.18-2.68c3.06.07,4.59,1.28,3.57,4.75-.35,1.19,1.63,1.3,2.08.9,4-3.62,10.34-4,13.66-9.43,0,0,0-.07,0-.09l-10.24-3a.05.05,0,0,1,0-.09c6.39-5.46,12.25-9.67,20.08-4,2.24,1.64,4.59,1,6.64-.74C553.89,66.36,552.32,63.81,550.91,62.06ZM456,35.77c-2.16.06-3.52-1-3.55-3.23s1.62-3.4,3.78-3.33a3.27,3.27,0,0,1,3.32,2.26v0C459.72,33.75,458.39,35.71,456,35.77ZM497.18,6c.7-2.5,2.48-3.13,3.4-3,1.81.3,4.08,1.15,4.08,3.74A3.76,3.76,0,0,1,500,10.31,3.45,3.45,0,0,1,497.18,6ZM482,93.8a2.21,2.21,0,1,1,2.2-2.2A2.2,2.2,0,0,1,482,93.8Zm29.62-33a28,28,0,0,1-29.69,6.47c-11.24-4.4-17.6-13.15-17.82-26.78-1.1-4.92,2.12-8.19,6.37-10.7,6.76-4,13.68-7.73,20.43-11.76A13.52,13.52,0,0,1,503.47,17c4.6,1.69,7,7.23,12.84,6.79.8-.06,2.7,2.75,2.6,4.12C518.13,39.16,520.91,51.1,511.57,60.78Zm28.94.26a2.2,2.2,0,1,1,2.2-2.2A2.2,2.2,0,0,1,540.51,61Z"/><path class="cls-1" d="M493.74,1138.87c-7.45-4.33-15-8.55-22.44-12.84-3.56-2-6.07-4.43-6.34-9.18-.72-12.74.67-25.46,2.11-37.93,1.65-14.27,3.53-16.89-10.82-23.86-.66-.32-5.36-2.78-6.17-3.32-5.34-3.52-5.71-4.83-9.4-4.43-4.26.47-4.74,7.39-7.5,11.19-5.57,7.7-5,11.09,3.13,16.08,4.13,2.55,4.68,5.58,5,9.79.56,7.79-1.61,15.3-1.73,24.61-.89,5,1.56,9.76,7.51,13.1q21.26,11.89,42.26,24.26c3.38,2,5.31,1.63,7.47-1.77C499.52,1140.3,495.82,1140.08,493.74,1138.87Zm-37-67.77a1.17,1.17,0,1,1-1.17,1.17A1.16,1.16,0,0,1,456.72,1071.1Zm-11.56,27.49a1.17,1.17,0,1,1,1.16-1.17A1.17,1.17,0,0,1,445.16,1098.59Zm.75-19.56a1.17,1.17,0,1,1,1.17-1.17A1.17,1.17,0,0,1,445.91,1079Zm-.37-8.8c-1.55.21-5.11-3-6.6-5-.47-.63.59-2.45,2.51-3.75,1.54-1,8.35,3.23,8.62,5.15A5.75,5.75,0,0,1,445.54,1070.23Zm5.39,24.11c-2.5,0-2.47-2.1-2.27-3.77.39-3.3.72-6.79.89-10a2.47,2.47,0,0,1,2-2.3c8-1.39,6.06,2.75,6.05,4.83,0,1,0,2,0,3l.21,0c-.23,2.42.14,5.14-.86,7.2C455.9,1095.56,453,1094.37,450.93,1094.34Zm8.12,5.41a1.17,1.17,0,1,1,1.17-1.16A1.17,1.17,0,0,1,459.05,1099.75Z"/></g></g></svg>