<svg xmlns="http://www.w3.org/2000/svg" viewBox="0 0 1013.67 1163.02"><defs><style>.cls-1{fill:#d61e39;}.cls-2{fill:#231f20;}</style></defs><g id="Layer_2" data-name="Layer 2"><g id="Layer_2-2" data-name="Layer 2"><path class="cls-1" d="M78.13,858.22,72.26,836.3a14.86,14.86,0,0,0-6.92-9l-15.64-9a22,22,0,0,0-30,8c-.18.31-.35.62-.52.94L5.63,853.62A15.2,15.2,0,0,0,12.2,874.1l.18.09L58.26,897l13.91-3.73-.14-.51-7.85-29.3L77.08,860a1.48,1.48,0,0,0,.83-.58l.16-.29.08-.32,0-.32Zm-59.93-13a2.6,2.6,0,1,1-2.6,2.59A2.59,2.59,0,0,1,18.2,845.25Zm6,20.41-6.95,1.87-5.09-5.09,1.86-7,7-1.87,5.08,5.09Zm14.48-10.87a17.51,17.51,0,1,1,17.51-17.51A17.51,17.51,0,0,1,38.72,854.79Zm20.83,32a2.6,2.6,0,1,1,2.6-2.6A2.6,2.6,0,0,1,59.55,886.8Zm3.35-45.4a2.6,2.6,0,1,1,2.59-2.59A2.59,2.59,0,0,1,62.9,841.4Z"/><path class="cls-2" d="M96.26,790.93,88.5,759a4.5,4.5,0,0,0-2-2.75l-6-3.67a4.45,4.45,0,0,0-6.11,1.49L48.1,797.17a4.46,4.46,0,0,0,1.49,6.12l27.89,17a3,3,0,0,0,4.08-1l13.83-22.73A7.41,7.41,0,0,0,96.26,790.93Zm-7.05-3.87a1.52,1.52,0,0,1-1.12-.17l-6.86-4.18a1.48,1.48,0,0,1-.5-2l4.18-6.86a1.49,1.49,0,0,1,2-.5,1.56,1.56,0,0,1,.67.92l2.68,11A1.47,1.47,0,0,1,89.21,787.06Z"/><path class="cls-2" d="M356.05,664.07l-15.17-8.76a115,115,0,0,0-26.58-11.17,59.45,59.45,0,0,1-13.74-5.77L239.47,603.1a41.38,41.38,0,0,0-28.83-4.74l-56.79,11.38a14.84,14.84,0,0,0-9.94,7.13l-49.66,86a14.84,14.84,0,0,0-1.2,12.17l18.54,54.87a41.34,41.34,0,0,0,18.52,22.6l61.09,35.27a59.77,59.77,0,0,1,11.86,9,114.65,114.65,0,0,0,23,17.44L241.19,863a5.93,5.93,0,0,0,7.87-1.8h0L358.44,671.79h0A5.93,5.93,0,0,0,356.05,664.07ZM108.19,692.14l-.1.53-.15.52-.22.49-.27.46-.33.43-.37.39-.41.33-.47.27-.24.11-.26.08-.26.06-.27,0h-.27l-.26,0a1.67,1.67,0,0,1-.8-.47l-.18-.2-.14-.23-.11-.24-.08-.26-.06-.26,0-.27v-.53l.09-.53.15-.52.21-.49.26-.47.32-.43.36-.4.42-.34.45-.28.25-.11.25-.09.26-.06.27,0h.26l.27,0,.26.08.24.11.22.15.2.19.16.21.13.23.11.25.08.26.05.26,0,.27Zm74.11-35.39.08-.53.15-.52.21-.49.27-.47.31-.43.37-.4.41-.34.46-.28.24-.11.25-.09.26-.07.27,0h.27l.26,0,.26.08.24.11.22.15.2.19.16.21.14.23.1.25.08.26.05.26,0,.27v.53l-.09.53-.16.51-.22.5-.27.46-.32.43-.37.38-.42.34-.46.27-.25.11-.26.08-.26.06-.26,0H184l-.27,0a1.72,1.72,0,0,1-.8-.47l-.17-.2-.14-.23-.12-.24-.08-.26,0-.26,0-.27Zm-43.7-25.24.08-.53.15-.51.21-.5.26-.46.32-.44.37-.39.41-.34.45-.28.25-.11.25-.09.26-.07.27,0h.27l.26,0,.26.07.24.12.22.15.2.19.16.21.14.23.1.25.08.25.05.27,0,.26v.54l-.09.53-.16.51-.22.49-.27.47-.32.43-.37.38-.42.34-.47.27-.24.11-.26.08-.26.06-.27,0h-.26l-.27,0a1.62,1.62,0,0,1-.8-.46l-.17-.2-.14-.23-.12-.25-.08-.25-.06-.26,0-.27ZM132,710l-.7-.15-.69-.18-.69-.2-.67-.23-.67-.25-.63-.51-.6-.53-.57-.56-.55-.58-.53-.6-.51-.62-.48-.64-.46-.67-.44-.67-.41-.69-.39-.71-.36-.72-.35-.73-.32-.74-.57-1.51-.25-.76-.22-.77-.38-1.56-.29-1.58-.24-1.59-.18-1.6-.15-1.6-.14-1.6-.17-1.6,22.88-39.64,1.47-.65,1.46-.68,1.46-.67,1.48-.64,1.5-.6,1.51-.53,1.54-.45.78-.19.78-.17,1.59-.26.8-.09.81-.07.8,0,.81,0h.81l.8,0,.8.07.8.1.79.12.79.16.78.19.77.22.76.25.75.29.55.45.53.48.52.49.5.51.48.52.46.55.88,1.13.79,1.18.72,1.24.65,1.27.57,1.31.5,1.33.43,1.36.37,1.38.3,1.4.23,1.41.18,1.41.12,1.43.06,1.42v1.43l0,1.43-.1,1.42-.14,1.42-.18,1.42-.24,1.41-.27,1.4-.32,1.39-.35,1.38-.4,1.37-.44,1.36-.47,1.35-.51,1.33-.55,1.32-.58,1.31-.61,1.28A53,53,0,0,1,167,691l-.81,1.18-.84,1.16-.87,1.13-.9,1.11-.93,1.08-1,1.06-1,1-1,1-1,1-1.07.93-1.11.91-1.13.87-1.16.83-1.19.79-1.21.75-1.24.71-1.27.66-1.29.61-1.32.55-1.33.5-1.36.44-1.38.38-1.39.3-1.41.24-1.42.15-1.43.08h-1.42l-1.43-.09-1.41-.19Zm20,6.81v.54l-.09.52-.16.52-.22.49-.27.46-.32.43-.37.39-.42.33-.47.28-.24.1-.26.08-.26.06-.27,0h-.27l-.26,0a1.79,1.79,0,0,1-.8-.46l-.17-.21-.15-.23-.11-.24-.08-.26-.06-.26,0-.26v-.54l.08-.53.15-.52.21-.49.26-.47.32-.43.36-.39.42-.35.45-.28.25-.11.25-.09.26-.06.27,0h.27l.26,0,.26.08.24.11.22.16.2.18.16.21.14.23.1.25.08.26,0,.26Zm66.93,106a4.08,4.08,0,1,1-8.16,0h0a4.08,4.08,0,1,1,8.16,0Zm13.36,24.17a3.49,3.49,0,1,1,3.48-3.48A3.48,3.48,0,0,1,232.19,847.06Zm60.29-91.52a7.72,7.72,0,0,1-15.43,0h0a7.72,7.72,0,0,1,15.43,0Zm10.89-85-82.91,143.6a4.45,4.45,0,0,1-4.6,2.16,6.67,6.67,0,0,0-6.85,3.17,4.45,4.45,0,0,1-6,1.58l-64.27-37.11c-.48-.28-1-.57-1.43-.88a7.41,7.41,0,0,1-2.36-9.91l90.19-156.21a7.4,7.4,0,0,1,9.76-2.91c.5.25,1,.52,1.49.8l64.26,37.1a4.45,4.45,0,0,1,1.66,6,6.67,6.67,0,0,0,.68,7.52A4.44,4.44,0,0,1,303.37,670.54Zm8.8-9.31a4.08,4.08,0,0,1-8.16,0h0a4.08,4.08,0,0,1,8.16,0Zm22.55,8.23a3.49,3.49,0,1,1,3.49-3.48A3.48,3.48,0,0,1,334.72,669.46Z"/><path class="cls-2" d="M129.57,607.23l-9-5.21a6.56,6.56,0,0,0-5-.65l-8.49,2.28a6.51,6.51,0,0,0-4,3L90.52,628.57a6.54,6.54,0,0,0-.66,4.95L92.14,642a6.56,6.56,0,0,0,3,4l9,5.2a5.35,5.35,0,0,0,7.3-2l20-34.69A5.34,5.34,0,0,0,129.57,607.23Zm-15.95,17.54a4.45,4.45,0,0,1-8.9,0v0a4.45,4.45,0,1,1,8.9,0Z"/><path class="cls-2" d="M46.7,582.89H2.18v15.73H1v8.9H2.18v10.39H11a7.44,7.44,0,0,0,5.25-2.17l.69-.7a7.44,7.44,0,0,1,5.25-2.17H46.7a4.45,4.45,0,0,0,4.45-4.45V587.34A4.45,4.45,0,0,0,46.7,582.89ZM36.61,597.73a4,4,0,1,1-8,0v-1.19a4,4,0,0,1,8,0Z"/><path class="cls-2" d="M111.76,557a15.13,15.13,0,0,0-4.12-.58h-.27a.89.89,0,0,1-.89-.89.87.87,0,0,1,.17-.52,5.64,5.64,0,0,0-4.2-8.91,3,3,0,0,1-2.77-3v-31a3,3,0,0,1,2.77-3,5.65,5.65,0,0,0,5.24-6,5.78,5.78,0,0,0-1-2.9.89.89,0,0,1,.72-1.41h.26a15.14,15.14,0,0,0,4.13-.58l13.06-3.78a20.16,20.16,0,0,0-18.35-11.78H79.55A133,133,0,0,0,61,484a64.89,64.89,0,0,0-21.52,7v26.12l-.45.55-.5.57-1.06,1.13-.53.52-.53.49-.55.47-.54.43-.19.18-.14.2-.08.19,0,.17v11.27l0,.17.08.19.14.2.19.18.54.43.55.47.53.49.53.52L38.48,537l.5.57.45.55v28.2q2.82.95,5.69,1.71a133.85,133.85,0,0,0,34.43,4.5h26.92a20.16,20.16,0,0,0,18.35-11.78Zm-.13-67.16a3.49,3.49,0,1,1-3.49,3.48A3.48,3.48,0,0,1,111.63,489.85ZM53.16,549.33l-.48-.37h0l-.52-.4h0l-.3-.24-1-.88.12.1-.22-.19-.1-.09-.36-.36.29.29-1.08-1.07-.19-.22.08.09-.64-.72.09.1-.41-.46-.43-.54c.05.07.11.13.16.19l-.64-.8,0,.07-.14-.18-.92-1.32,0,0c.17.26.36.5.53.75l-.44-.63-.57-.92c.09.15.17.3.27.45l-.61-1-.18-.33.15.24-.54-1,.08.18-.27-.51-.34-.75c.07.15.15.3.22.46l-.47-1-.58-1.48c.18.51.38,1,.59,1.52l-.09-.21-.59-1.5,0-.08.1.27-.38-1.16.17.56L43.2,535l-.1-.41c0,.12.08.25.11.38l-.31-1.18a1.29,1.29,0,0,0,0,.19l-.14-.54-.16-.85c0,.24.1.48.15.71l-.24-1.19-.21-1.48c0,.47.11.94.19,1.41l0-.19-.21-1.59v-.1c0,.12,0,.24,0,.36l-.11-1.33c0,.16,0,.31,0,.46l-.07-1v-.43l0,.49,0-1.33a.57.57,0,0,0,0,.13v-.47l0-.92c0,.37,0,.74,0,1.12l.05-1.47.11-1.22c0,.33-.08.66-.1,1v-.11l.17-1.61,0-.17c0,.14,0,.27,0,.41l.18-1.21c0,.08,0,.16,0,.25l.14-.87.14-.59c0,.17-.06.35-.1.52l.24-1.11.15-.55c0,.18-.11.36-.15.54l.08-.38.45-1.55-.09.34.49-1.44.59-1.47.69-1.44.76-1.4.85-1.34.92-1.3,1-1.24,1.07-1.18c.42-.43.85-.84,1.29-1.25l-.26.27a28.32,28.32,0,0,0,.71,40,29.06,29.06,0,0,0,2.75,2.34c-.53-.35-1-.73-1.53-1.12Zm6.33,5c-2.72-1.18-4.71-2.69-5-5.88-.25-2.85.33-4.71,3.68-5.28,1.8-.3,2.39-2.31,2.38-4.26q-.08-11.36,0-22.71c0-2-1-3.16-2.6-4.23-4.83-3.3-4.44-7.64,1-10,11-4.79,28.74,2,32.57,10.78,2.22,5.08,4.61,10,4.06,15.48C97.29,548.44,73.73,560.54,59.49,554.36Zm38.12-50.87a4.45,4.45,0,1,1,8.9,0v0a4.45,4.45,0,0,1-8.9,0Zm4.44,52.71a4.45,4.45,0,0,1-4.44-4.46v0a4.45,4.45,0,1,1,8.9,0v0A4.45,4.45,0,0,1,102.05,556.2Zm9.58,9.2a3.49,3.49,0,1,1,3.49-3.48A3.48,3.48,0,0,1,111.63,565.4Z"/><path class="cls-2" d="M83.38,330.62a4.44,4.44,0,0,0-4.82-4l-24.44,2.13a7.39,7.39,0,0,1-5.41-1.7l-.76-.64a7.46,7.46,0,0,0-5.42-1.71l-8.76.77.91,10.35-1.19.1.78,8.87,1.18-.1,1.37,15.67,44.35-3.88a4.47,4.47,0,0,0,4-4.83Zm-17.1,17.43A4,4,0,0,1,62,344.41l-.11-1.18a4,4,0,0,1,8-.7l.11,1.19A4,4,0,0,1,66.28,348.05Z"/><path class="cls-1" d="M119.27,271.89l-.06-.34-.1-.33-.13-.32-.16-.3-15.51-26.87a6.59,6.59,0,0,0,.34-.57l.13-.35,0-.37,0-.37-.15-.34-3.5-6.08-.23-.3-.29-.23-.34-.15-.37-.06a5.63,5.63,0,0,0-5.51,3.64l-11.5,6.64-.34.18-.37.16-.76.25-.77.17-.77.11a5.62,5.62,0,0,0-5.12,5.88v.43l0,.43-.06.43-.08.4-.12.4-.14.37-.17.37-.22.34a16.12,16.12,0,0,1-5.14,4.72L39.73,276a4.64,4.64,0,0,0-2.33,4V295.5l0,.4.06.4.1.39.11.38.14.38.17.37.19.35,4.05,7,.18.28.21.27.24.24.25.22.28.2.29.17.31.14.32.11L45,307l.67.07h.69l.72-.08.72-.15.73-.22.71-.3.69-.36,43.67-25.21a4.44,4.44,0,0,1,5.66,1l.34.39.37.36.4.34.41.3.37.21.37.17.27.09.28.06.28,0h.29l.28,0,.27-.06.27-.1.25-.13,13.86-8,.29-.18.27-.22.26-.23.22-.26.2-.28.17-.3.14-.32.1-.33.08-.33,0-.34v-.35ZM76.86,251.66a2.52,2.52,0,1,1,5,0h0a2.52,2.52,0,1,1-5,0ZM95,271.31,61.53,290.64a5.94,5.94,0,0,1-8.11-2.17l-1.48-2.57a5.94,5.94,0,0,1,2.17-8.11l33.48-19.33a5.93,5.93,0,0,1,8.1,2.18l1.49,2.57A5.93,5.93,0,0,1,95,271.31Zm6.18-30.76a2.53,2.53,0,0,1-5.05,0h0a2.53,2.53,0,1,1,5.05,0Z"/><path class="cls-1" d="M141.2,298.3l-9.65-16.71a1.47,1.47,0,0,0-2-.54l-7.71,4.45a7.42,7.42,0,0,0-2.72,10.14l3.71,6.42A7.42,7.42,0,0,0,133,304.78l7.71-4.45A1.49,1.49,0,0,0,141.2,298.3Zm-8.35-3.89a4.19,4.19,0,1,1-8.37,0v0a4.19,4.19,0,0,1,8.37,0Z"/><path class="cls-2" d="M167.81,325.42h3.12a1.48,1.48,0,0,0,1.48-1.48V313.55a1.48,1.48,0,0,0-1.48-1.48H167a6,6,0,0,0-2.95.78,44.5,44.5,0,0,1-42.43,1,16.62,16.62,0,0,0-7.54-1.81H98.51A1.47,1.47,0,0,0,97,313.55v1.19a1.48,1.48,0,0,0,1.48,1.48h3a2.53,2.53,0,0,1,0,5h-3A1.48,1.48,0,0,0,97,322.75v.51a5.93,5.93,0,0,0,1.39,3.82l3.3,3.93.32.42-.1.11-.57.67-.61.67-.63.66-.63.6-.39.43-.37.41-.35.39-.34.37-.19.28-.13.3-.08.32,0,.33v9.55l0,.33.08.32.13.3.19.27.34.38.35.39.37.41.39.42.63.61.63.65.61.68.57.67.1.1c-.1.15-.21.29-.32.43l-3.3,3.93A5.93,5.93,0,0,0,97,360.23v.51a1.48,1.48,0,0,0,1.48,1.48h3a2.53,2.53,0,0,1,0,5h-3A1.48,1.48,0,0,0,97,368.75v1.19a1.49,1.49,0,0,0,.59,1.18,1.45,1.45,0,0,0,.89.3h15.61a16.62,16.62,0,0,0,7.54-1.81,44.52,44.52,0,0,1,42.43,1,5.9,5.9,0,0,0,2.95.79h3.89a1.48,1.48,0,0,0,1.48-1.48V359.55a1.48,1.48,0,0,0-1.48-1.48h-3.12a4.46,4.46,0,0,1-4.45-4.46V329.87A4.45,4.45,0,0,1,167.81,325.42Zm-55.68,37.77a2.6,2.6,0,1,1,2.59-2.6A2.6,2.6,0,0,1,112.13,363.19Zm0-37.7a2.6,2.6,0,1,1,2.59-2.59A2.59,2.59,0,0,1,112.13,325.49ZM157.5,355.1a3,3,0,0,1-3,3H120.92a3,3,0,0,1-2.38-1.19,1.51,1.51,0,0,1,.89-.3h2.38a1.48,1.48,0,0,0,1.48-1.48V328.39a1.49,1.49,0,0,0-1.48-1.49h-2.38a1.5,1.5,0,0,1-.89-.29,3,3,0,0,1,2.38-1.19h33.61a3,3,0,0,1,3,3Zm8.23,8.16a2.6,2.6,0,1,1-2.59,2.6A2.59,2.59,0,0,1,165.73,363.26Zm-2.59-45.63a2.6,2.6,0,1,1,2.59,2.6A2.6,2.6,0,0,1,163.14,317.63Z"/><path class="cls-2" d="M236.39,356l0-.23-.1-.21-.17-.15-5.14-3-.82.22-.07.13-3.86-2.22,9.09-15.75a1.18,1.18,0,0,0-.43-1.62L212,320a1.48,1.48,0,0,0-2,.55L201,336a1.48,1.48,0,0,0,.55,2l14.65,8.46a.76.76,0,0,1,.27,1l-3.71,6.41,1.06.61-4.75,8.23-1.06-.61-2.67,4.62,1.06.61-4.75,8.23-1-.61-3.72,6.43a.73.73,0,0,1-1,.27L177.38,371a1.47,1.47,0,0,0-2,.54L160.68,397a7.44,7.44,0,0,0,1,8.78,59.71,59.71,0,0,0,13.69,10.88l20.83,12a1.48,1.48,0,0,0,2-.55l1.07-1.85a4.48,4.48,0,0,0,.45-3.38l-.13-.48-1.14-.65,37.84-65.55Zm-59.26,48a4.45,4.45,0,0,1-8.9,0h0a4.45,4.45,0,1,1,8.9,0Zm25.16-4.85-2.19,3.79a4.45,4.45,0,0,1-6.08,1.63l-8.74-5a4.45,4.45,0,0,1-1.63-6.08l2.19-3.79a4.45,4.45,0,0,1,6.08-1.63l8.74,5A4.45,4.45,0,0,1,202.29,399.11Zm15.05-64.66a4.45,4.45,0,1,1,4.45-4.45A4.45,4.45,0,0,1,217.34,334.45Z"/><path class="cls-2" d="M180.81,445l-34.69-20a5.34,5.34,0,0,0-7.3,2l-5.21,9a6.54,6.54,0,0,0-.65,5l10.42,38.9a6.58,6.58,0,0,0,3.05,4l9,5.2a5.35,5.35,0,0,0,7.3-2l20-34.7A5.34,5.34,0,0,0,180.81,445Zm-35.4.47A4.44,4.44,0,0,1,141,441v0a4.45,4.45,0,1,1,8.9,0v0A4.45,4.45,0,0,1,145.41,445.44Zm13.15,28a4.45,4.45,0,0,1-8.9,0h0a4.45,4.45,0,1,1,8.9,0Z"/><path class="cls-2" d="M279.09,165.72l-10.39-18A7.41,7.41,0,0,0,258.57,145L148.44,208.6a7.41,7.41,0,0,0-2.72,10.13l8.9,15.42a1.49,1.49,0,0,1-.54,2L132.91,248.4a4.45,4.45,0,0,0-1.63,6.08l20.78,36a4.47,4.47,0,0,0,6.08,1.63h0l24.25-14,.06,0,.44-.31.41-.35.36-.4.31-.44,0-.06a34.16,34.16,0,0,1,12.3-12.17l.57-.33a5.26,5.26,0,0,0,2.23-2.5,29.67,29.67,0,0,1,12.41-13.92L245.38,228a14.86,14.86,0,0,0,6.92-9l9.56-35.69a7.43,7.43,0,0,1,3.46-4.51l12.14-7A4.45,4.45,0,0,0,279.09,165.72ZM148.58,258.78a4,4,0,1,1,4-4A4,4,0,0,1,148.58,258.78Zm7.25-41-.27-.4-.22-.44-.15-.47-.08-.48v-.48l.05-.49.13-.47.19-.45.25-.42.31-.38.36-.33.4-.27.43-.22.47-.15.48-.09.48,0,.49,0a3.44,3.44,0,0,1,2.78,4q-.06.28-.15.57l-.2.44-.26.42L161,218l-.37.32-.41.27-.44.21-.46.15-.48.07h-.49l-.48-.06-.47-.13-.45-.19-.42-.26-.37-.31Zm4.63,61.6a4,4,0,1,1,4-4A4,4,0,0,1,160.46,279.34Zm17-72a2.6,2.6,0,1,1,2.6-2.6A2.6,2.6,0,0,1,177.42,207.31Zm25.3-19.75.12-.47.19-.45.26-.42.3-.38.36-.33.4-.28.44-.21.46-.16.48-.08.49,0,.48.05a5.29,5.29,0,0,1,.57.15,3.44,3.44,0,0,1,2.06,4.4l-.19.45-.26.41-.32.37-.36.33-.41.27-.44.21-.47.14-.48.08h-.48l-.49-.06-.47-.13-.45-.19-.41-.26-.38-.31-.33-.36-.27-.41-.21-.43-.15-.47-.08-.48,0-.49Zm.3,57a2.6,2.6,0,0,1-5.2,0h0a2.6,2.6,0,1,1,5.2,0Zm22.74-29.22A17.06,17.06,0,1,1,203,197.09a3.06,3.06,0,0,1,1.53-.13,8.84,8.84,0,0,0,5-.55,3,3,0,0,1,1.53-.2A17.07,17.07,0,0,1,225.76,215.34Zm17.09,6.22a2.6,2.6,0,1,1-5.19,0h0a2.6,2.6,0,1,1,5.19,0Zm-2-41.72a4,4,0,1,1,4-4A4,4,0,0,1,240.81,179.84ZM261.37,168a4,4,0,1,1,4-4A4,4,0,0,1,261.37,168Z"/><path class="cls-2" d="M290.46,265.66l-33.55-19.37a14.88,14.88,0,0,0-8.71-1.93l-4.36.38a5.91,5.91,0,0,1-3.49-.77l-3.14-1.81a5.94,5.94,0,0,0-8.11,2.17l-3.17,5.49a1.49,1.49,0,0,0,.54,2l7.71,4.45a1.49,1.49,0,0,1,.55,2l-19.29,33.41-2,.54L207.79,289l-.29-.13-.3-.1-.31,0-.32,0-.29.08L206,289l-.24.2-.19.25-3.58,6.2-.11.23-.06.25,0,.25,0,.25.09.23.13.22.18.18.2.15,4.59,2.75,4.56,2.74,2.33,1.39,2.36,1.42,4.73,2.83.67.38.68.36.69.33.71.31.71.28.73.25.74.22.74.2.52.1.52.05h.53l.52-.06.61-.12.59-.16.59-.19.58-.23.57-.27.56-.3.55-.34.54-.37.52-.4.5-.43.48-.46.46-.48.43-.5.41-.53.37-.55.35-.57,3-5.22a3,3,0,0,1,4.05-1.09l20.56,11.87a4.46,4.46,0,0,0,6.09-1.63l21.51-37.27A4.45,4.45,0,0,0,290.46,265.66Zm-48.25,14.13-7.42,12.85a3.86,3.86,0,0,1-6.68-3.86l7.42-12.85a3.86,3.86,0,0,1,6.68,3.86Zm20.34,17.46a4,4,0,1,1,4-4A4,4,0,0,1,262.55,297.25Zm11.87-20.57a4,4,0,1,1,4-4A4,4,0,0,1,274.42,276.68Z"/><path class="cls-2" d="M331.36,218.46H280.91a4.45,4.45,0,0,0-4.45,4.45V230a4.41,4.41,0,0,0,1.3,3.15L301,256.36a7.42,7.42,0,0,0,5.25,2.17h26.6a3,3,0,0,0,3-3h0V222.91A4.45,4.45,0,0,0,331.36,218.46Zm-29.57,28.81a1.48,1.48,0,0,1-2.54,1l-8-8a1.49,1.49,0,0,1,1-2.54h8a1.49,1.49,0,0,1,1.49,1.49Z"/><path class="cls-2" d="M347.14,125.82l-11.87-20.56a3,3,0,0,0-4-1.09l-46.91,27.09a3,3,0,0,0-1.08,4.05l13.82,23.95a11.79,11.79,0,0,1,1.58,6.33,20,20,0,1,0,39.48-4.1,44.5,44.5,0,0,1,.24-22.11l.33-1.23a11.86,11.86,0,0,1,5.53-7.21l1.85-1.06A3,3,0,0,0,347.14,125.82ZM302.33,142a4,4,0,1,1,4-4A4,4,0,0,1,302.33,142Zm25.56,24.29a9.24,9.24,0,0,1-18.47,0v0a9.24,9.24,0,0,1,18.47,0Zm.79-39.5a4,4,0,1,1,4-4A4,4,0,0,1,328.68,126.78Z"/><path class="cls-2" d="M494.36,137.88l-.15-.63-.22-.61-.29-.58L474,102a1.49,1.49,0,0,0-2-.54l-23.9,13.8a.6.6,0,0,1-.81-.22L432.88,90.07a.59.59,0,0,1,.21-.81h0L457,75.46a1.49,1.49,0,0,0,.54-2l-19.69-34.1-.36-.55-.41-.49-.47-.44-.52-.38-.55-.31-.58-.23-.59-.15-.6-.07h-.6l-.58.09L432,37l-.52.25-33,19-.64.42-.59.49-.53.56-.45.61L396,59l-.31.71-7.54,20.5-.31.71-.38.67-.46.61-.52.55-.59.5-.65.42-31.46,18.16-.64.43-.59.49-.53.55-.46.62-.38.66-.31.71-.57,1.55-.22.7-.13.72-.06.72,0,.72.1.71.18.71.26.68.33.65,36.07,62.47.4.61.46.56.51.51.57.45.62.38.65.31.69.23.71.17,1.63.28.77.09h.77l.76-.09.74-.18.72-.27.69-.34L429,159.48l.69-.34.72-.27.75-.18.76-.08h.76l.77.09,21.53,3.72.77.09h.77l.76-.09.74-.18.72-.26.69-.35,32.95-19,.48-.33.44-.4.37-.45.31-.51.24-.56.16-.59.09-.62v-.63Zm-84.29-49a4.45,4.45,0,1,1-4.45,4.45A4.45,4.45,0,0,1,410.07,88.85Zm-39.84,31.9a4.45,4.45,0,1,1,4.45-4.45A4.45,4.45,0,0,1,370.23,120.75Zm23,39.84a4.46,4.46,0,1,1,4.45-4.45A4.45,4.45,0,0,1,393.23,160.59Zm27.71-35.87a19.29,19.29,0,0,1-38.58,0h0a19.29,19.29,0,1,1,38.58,0Zm5.27-63h0a7.42,7.42,0,1,1,14.84,0h0a7.42,7.42,0,0,1-14.84,0Zm6.86,75.89a4.46,4.46,0,1,1,4.45-4.45A4.45,4.45,0,0,1,433.07,137.59Zm46.56-9.06a7.42,7.42,0,1,1-14.83,0h0a7.42,7.42,0,1,1,14.83,0Z"/><path class="cls-1" d="M413.77,191.52l-6-2.18-.51,1.39-7.71,21.2a1.48,1.48,0,0,1-1.9.88l-39.6-14.41a1.48,1.48,0,0,1-.89-1.9l7.71-21.2.51-1.39-6-2.18a4.45,4.45,0,0,0-5.71,2.66l-8.12,22.31a8.9,8.9,0,0,0,5.32,11.41l46,16.75a8.9,8.9,0,0,0,11.41-5.33l8.12-22.31A4.45,4.45,0,0,0,413.77,191.52Zm-35.25,19.39a2.6,2.6,0,0,1-5.2,0h0a2.6,2.6,0,1,1,5.2,0Z"/><path class="cls-2" d="M418.21,242.65H353.13a1.49,1.49,0,0,0-1.48,1.49V256a1.48,1.48,0,0,0,1.48,1.48h65.08A1.49,1.49,0,0,0,419.7,256V244.14A1.49,1.49,0,0,0,418.21,242.65Zm-30,10.4a2.53,2.53,0,1,1-5.05,0h0a2.53,2.53,0,0,1,5.05,0Z"/><path class="cls-2" d="M492.52,181.42H453.78a14.83,14.83,0,0,0-8.51,2.68l-3.59,2.51a5.9,5.9,0,0,1-3.4,1.08h-3.63a5.92,5.92,0,0,0-5.93,5.93V200a1.49,1.49,0,0,0,1.48,1.49h8.9a1.49,1.49,0,0,1,1.49,1.48v38.58L439.1,243h-6.49l-.31,0-.31.08-.28.12-.27.18-.22.21-.17.27-.11.29,0,.31v7.16l0,.26.07.24.11.23.15.2.2.16.22.12.24.07.25,0,5.35.08,5.32.09,2.71,0,2.76,0,5.51.09h.77l.77,0,.76,0,.77-.09.76-.12.75-.14.75-.17.74-.2.5-.17.48-.22.46-.27.42-.31.46-.41.44-.43.41-.47.39-.49.36-.51.33-.55.31-.56.28-.59.25-.61.22-.62.19-.64.16-.64.12-.66.08-.66.06-.66v-6.7a3,3,0,0,1,3-3h23.74A4.46,4.46,0,0,0,497,228.9v-43A4.46,4.46,0,0,0,492.52,181.42ZM457.8,232.61a3.86,3.86,0,0,1-7.72,0V217.77a3.86,3.86,0,0,1,7.72,0Zm24.34-9.35a4,4,0,1,1,4-4A4,4,0,0,1,482.14,223.26Zm0-23.74a4,4,0,1,1,4-4A4,4,0,0,1,482.14,199.52Z"/><path class="cls-2" d="M611.25,57.15l-.39-1.43-2.66-1.54-5-2.86L568.36,31.18l-5-2.86-3.31-1.91-1.43.39a1.46,1.46,0,0,0-.9.69l-2.33,4a3,3,0,0,0,1.09,4.05l7.87,4.55a7.41,7.41,0,0,1,3.45,4.5L571.69,59a7.38,7.38,0,0,1-.74,5.63l-1.28,2.23a4.45,4.45,0,0,0,1.63,6.08l2.57,1.48a1.49,1.49,0,0,0,2-.54L587.32,54a.59.59,0,0,1,.81-.22l16.59,9.58a3,3,0,0,0,4-1.09l2.33-4A1.53,1.53,0,0,0,611.25,57.15ZM564.18,35.3a2.6,2.6,0,1,1,2.6-2.6A2.59,2.59,0,0,1,564.18,35.3Zm42.43,20.41a2.6,2.6,0,0,1-5.19,0h0a2.6,2.6,0,0,1,5.19,0Z"/><path class="cls-2" d="M806,168.52l-183-105.66a5.93,5.93,0,0,0-7.23,1,115,115,0,0,0-16.9,22.41l-8.75,15.16a5.94,5.94,0,0,0,2.17,8.11L604,116.38l165,95.26,11.82,6.83A5.94,5.94,0,0,0,789,216.3l8.76-15.17a115,115,0,0,0,11-25.83A6,6,0,0,0,806,168.52Zm-67.87-25.3a1.47,1.47,0,0,1,1.49,0l21.75,12.56a1.48,1.48,0,0,1-.74,2.76H746.93a3,3,0,0,1-2.57-1.48l-6.82-11.82A1.47,1.47,0,0,1,738.08,143.22Zm-27.76-16a1.52,1.52,0,0,1,1.49,0l21.75,12.56a1.49,1.49,0,0,1,.54,2,1.47,1.47,0,0,1-1.28.74H719.17A3,3,0,0,1,716.6,141l-6.82-11.81A1.49,1.49,0,0,1,710.32,127.19Zm-27.75-16a1.5,1.5,0,0,1,1.48,0l21.75,12.56a1.48,1.48,0,0,1-.74,2.77H691.42a3,3,0,0,1-2.57-1.48L682,113.19A1.49,1.49,0,0,1,682.57,111.16Zm-27.76-16a1.45,1.45,0,0,1,1.48,0L678,107.7a1.48,1.48,0,0,1,.55,2,1.5,1.5,0,0,1-1.29.75H663.66a3,3,0,0,1-2.57-1.49l-6.82-11.81A1.49,1.49,0,0,1,654.81,95.14Zm-27.76-16a1.5,1.5,0,0,1,1.48,0l21.76,12.56a1.49,1.49,0,0,1-.75,2.77H635.9A3,3,0,0,1,633.33,93l-6.82-11.82A1.49,1.49,0,0,1,627.05,79.11ZM607,92.43a2.52,2.52,0,1,1,5,0h0a2.52,2.52,0,1,1-5,0Zm.34,13.58,12.85-22.25a3,3,0,0,1,4.05-1.09,2.92,2.92,0,0,1,1.09,1.09l6,10.38a3,3,0,0,1,0,3L624.42,109a3,3,0,0,1-2.57,1.49h-12a3,3,0,0,1-3-3A2.92,2.92,0,0,1,607.29,106Zm23.41,22.16a1.5,1.5,0,0,1-1.48,0l-21.76-12.56a1.49,1.49,0,0,1,.75-2.77h13.64a3,3,0,0,1,2.57,1.48l6.82,11.82A1.49,1.49,0,0,1,630.7,128.17Zm2.63-3.16-6.85-11.87a3,3,0,0,1,0-3l6.85-11.87a3,3,0,0,1,2.57-1.49h13.71a3,3,0,0,1,2.57,1.49L659,110.17a3,3,0,0,1,0,3L652.18,125a3,3,0,0,1-2.57,1.48H635.9A3,3,0,0,1,633.33,125Zm25.13,19.18a1.47,1.47,0,0,1-1.49,0l-21.75-12.55a1.49,1.49,0,0,1-.54-2,1.47,1.47,0,0,1,1.28-.74h13.65a3,3,0,0,1,2.57,1.48L659,142.17A1.47,1.47,0,0,1,658.46,144.19Zm2.63-3.16-6.86-11.87a3,3,0,0,1,0-3l6.86-11.88a3,3,0,0,1,2.57-1.48h13.71a3,3,0,0,1,2.57,1.48l6.85,11.88a3,3,0,0,1,0,3L679.94,141a3,3,0,0,1-2.57,1.49H663.66A3,3,0,0,1,661.09,141Zm25.12,19.19a1.5,1.5,0,0,1-1.48,0L663,147.66a1.49,1.49,0,0,1,.74-2.77h13.65a3,3,0,0,1,2.57,1.49l6.82,11.81A1.49,1.49,0,0,1,686.21,160.22Zm2.64-3.16L682,145.19a3,3,0,0,1,0-3l6.86-11.87a3,3,0,0,1,2.57-1.48h13.7a3,3,0,0,1,2.57,1.48l6.86,11.87a3,3,0,0,1,0,3l-6.86,11.87a3,3,0,0,1-2.57,1.48h-13.7A3,3,0,0,1,688.85,157.06ZM714,176.25a1.5,1.5,0,0,1-1.48,0l-21.75-12.56a1.48,1.48,0,0,1,.74-2.77h13.64a3,3,0,0,1,2.57,1.48l6.83,11.82A1.49,1.49,0,0,1,714,176.25Zm2.63-3.16-6.85-11.87a3,3,0,0,1,0-3l6.85-11.87a3,3,0,0,1,2.57-1.49h13.71a3,3,0,0,1,2.57,1.49l6.86,11.87a3,3,0,0,1,0,3l-6.86,11.87a3,3,0,0,1-2.57,1.48H719.17A3,3,0,0,1,716.6,173.09Zm25.13,19.18a1.45,1.45,0,0,1-1.48,0L718.5,179.71a1.48,1.48,0,0,1-.55-2,1.5,1.5,0,0,1,1.29-.75h13.64a3,3,0,0,1,2.57,1.49l6.82,11.81A1.49,1.49,0,0,1,741.73,192.27Zm2.63-3.16-6.85-11.87a3,3,0,0,1,0-3l6.85-11.87a3,3,0,0,1,2.57-1.48h13.71a3,3,0,0,1,2.57,1.48l6.85,11.87a3,3,0,0,1,0,3l-6.85,11.87a3,3,0,0,1-2.57,1.49H746.93A3,3,0,0,1,744.36,189.11Zm25.13,19.19a1.5,1.5,0,0,1-1.48,0l-21.76-12.56A1.49,1.49,0,0,1,747,193h13.64a3,3,0,0,1,2.57,1.48L770,206.27A1.49,1.49,0,0,1,769.49,208.3Zm17.58-10.8a2.53,2.53,0,1,1,2.52-2.53A2.52,2.52,0,0,1,787.07,197.5Zm2.18-16.1L776.4,203.65a3,3,0,0,1-4,1.09,2.92,2.92,0,0,1-1.09-1.09l-6-10.38a3,3,0,0,1,0-3l6.85-11.87a3,3,0,0,1,2.57-1.49h12a3,3,0,0,1,3,3A2.92,2.92,0,0,1,789.25,181.4Zm.37-7.57a1.49,1.49,0,0,1-1.29.74H774.69a3,3,0,0,1-2.57-1.48l-6.82-11.82a1.49,1.49,0,0,1,.54-2,1.5,1.5,0,0,1,1.48,0l21.76,12.56A1.49,1.49,0,0,1,789.62,173.83Z"/><path class="cls-2" d="M734.6,206.76l-15.83-4.89a29.48,29.48,0,0,1-6.07-2.65l-75.19-43.41a30.54,30.54,0,0,1-5.33-3.93L620,140.62a4.53,4.53,0,0,0-6.15,6.64l7.42,6.88a14.82,14.82,0,0,1,4.64,12.7,8.93,8.93,0,0,0,4.39,8.81l68.78,39.71a8.91,8.91,0,0,0,9.82-.6,14.84,14.84,0,0,1,13.33-2.34l9.66,3a4.53,4.53,0,0,0,2.68-8.65ZM617,146.09a2.15,2.15,0,1,1,2.15-2.15A2.15,2.15,0,0,1,617,146.09Zm21.77,21.39a1.78,1.78,0,1,1-3.56,0h0a1.78,1.78,0,0,1,3.56,0Zm34.84,21.15a3,3,0,0,1-4.05,1.08l-27.43-15.84a3,3,0,1,1,3-5.14l27.44,15.84A3,3,0,0,1,673.57,188.63Zm5.64,2.22a1.78,1.78,0,0,1-3.56,0h0a1.78,1.78,0,1,1,3.56,0Zm19.62,12.36a3,3,0,0,1-4.05,1.08l-12.41-7.16a3,3,0,0,1,3-5.14l12.4,7.16A3,3,0,0,1,698.83,203.21Zm34.43,10a2.15,2.15,0,1,1,2.15-2.15A2.15,2.15,0,0,1,733.26,213.24Z"/><path class="cls-2" d="M757,237.48a4.52,4.52,0,0,0-5.41-3.42h0l-16.15,3.67a29.77,29.77,0,0,1-6.58.74H642a29.7,29.7,0,0,1-6.58-.74l-16.15-3.67a4.53,4.53,0,1,0-2,8.82h0l9.86,2.25a14.82,14.82,0,0,1,10.38,8.68,8.9,8.9,0,0,0,8.19,5.43h79.43a8.9,8.9,0,0,0,8.2-5.43,14.82,14.82,0,0,1,10.37-8.68l9.87-2.25A4.52,4.52,0,0,0,757,237.48Zm-138.72,3.15a2.15,2.15,0,1,1,2.15-2.15A2.15,2.15,0,0,1,618.23,240.63Zm51,11.2H655a3,3,0,1,1,0-5.93h14.32a3,3,0,1,1,0,5.93Zm9.2-3a1.78,1.78,0,1,1-3.56,0h0a1.78,1.78,0,1,1,3.56,0Zm37.32,3H684.12a3,3,0,1,1,0-5.93H715.8a3,3,0,1,1,0,5.93Zm9.42-3a1.78,1.78,0,1,1-3.56,0h0a1.78,1.78,0,1,1,3.56,0Zm27.3-8.24a2.15,2.15,0,1,1,2.16-2.15A2.15,2.15,0,0,1,752.52,240.63Z"/><path class="cls-1" d="M642.57,204.67h-7.42a7.42,7.42,0,0,0-7.42,7.42V221a1.49,1.49,0,0,0,1.48,1.49H648.5A1.49,1.49,0,0,0,650,221v-8.9A7.42,7.42,0,0,0,642.57,204.67Zm-3.71,13.09a4.19,4.19,0,1,1,4.18-4.19A4.19,4.19,0,0,1,638.86,217.76Z"/><path class="cls-2" d="M571.89,302l-2.57-1.49-.32-.14-.33-.06-.35,0-.33.1a2.91,2.91,0,0,0-1.24-1.4l-72-41.55L492.21,256a3,3,0,0,0-4,1.09l-10,17.35a1.19,1.19,0,0,0-1.62.43l-50,86.62a1.18,1.18,0,0,0,.43,1.62l-11.13,19.28a3,3,0,0,0,1.09,4l2.57,1.49,5,2.91a4.43,4.43,0,0,1,2.22,3.85v13.71a8.9,8.9,0,0,0,4.46,7.71L443.07,423a8.9,8.9,0,0,0,8.9,0l11.87-6.85a4.43,4.43,0,0,1,4.45,0l23.15,13.36a3,3,0,0,0,1.84.38l.08.33.16.31.21.26.28.21,2.57,1.48a3,3,0,0,0,4.06-1.08L573,306.08h0A3,3,0,0,0,571.89,302Zm-66.5-30.69a1.48,1.48,0,0,1,2.23-1.28l23.74,13.71a1.4,1.4,0,0,1,.54.54,1.49,1.49,0,0,1-.54,2l-7.42,4.28a4.47,4.47,0,0,1-4.45,0l-11.87-6.85a4.46,4.46,0,0,1-2.23-3.86Zm0,16.28,11.87,6.85a4.46,4.46,0,0,1,2.23,3.86V312a4.44,4.44,0,0,1-2.23,3.85l-11.87,6.86a4.47,4.47,0,0,1-4.45,0l-11.87-6.86a4.44,4.44,0,0,1-2.23-3.85V298.33a4.46,4.46,0,0,1,2.23-3.86l11.87-6.85A4.47,4.47,0,0,1,505.39,287.62Zm-4.45,42.84v13.7a4.45,4.45,0,0,1-2.23,3.86l-11.87,6.85a4.43,4.43,0,0,1-4.45,0L470.52,348a4.45,4.45,0,0,1-2.23-3.86v-13.7a4.46,4.46,0,0,1,2.23-3.86l11.87-6.85a4.43,4.43,0,0,1,4.45,0l11.87,6.85A4.46,4.46,0,0,1,500.94,330.46ZM480.05,286a.83.83,0,0,1,.07-.13l12.24-21.2a.57.57,0,0,1,.08-.13,3,3,0,0,1,4-1l2.3,1.33a4.44,4.44,0,0,1,2.23,3.85v11.14a4.46,4.46,0,0,1-2.23,3.86l-11.87,6.85a4.47,4.47,0,0,1-4.45,0l-1.19-.69A3,3,0,0,1,480.05,286ZM461.5,318.14a.54.54,0,0,1,.07-.13l13.35-23.13.08-.13a3,3,0,0,1,4-1l1.19.68a4.48,4.48,0,0,1,2.22,3.86V312a4.45,4.45,0,0,1-2.22,3.85l-11.88,6.86a4.47,4.47,0,0,1-4.45,0l-1.18-.69A3,3,0,0,1,461.5,318.14ZM443,350.26s.05-.08.07-.13L456.38,327l.07-.12a3,3,0,0,1,4-1l1.19.68a4.48,4.48,0,0,1,2.22,3.86v13.7a4.46,4.46,0,0,1-2.22,3.86l-11.87,6.85a4.44,4.44,0,0,1-4.46,0l-1.18-.68A3,3,0,0,1,443,350.26ZM426.74,387l-1.18-.68a3,3,0,0,1-1.16-3.93l.07-.13,13.36-23.13s.05-.08.07-.13a3,3,0,0,1,4-1l1.19.69a4.43,4.43,0,0,1,2.22,3.85v13.71a4.45,4.45,0,0,1-2.22,3.86L431.2,387A4.44,4.44,0,0,1,426.74,387Zm14.1,26-6.26-12.45,2.8-4.85,6.26,12.45Zm11.41,3.52-12.51-24.9,2.8-4.85,12.51,24.91Zm5.16-8.93-6.26-12.45,2.8-4.85,6.26,12.46ZM463.84,387,452,380.15a4.45,4.45,0,0,1-2.22-3.86V362.58a4.43,4.43,0,0,1,2.22-3.85l11.87-6.85a4.43,4.43,0,0,1,4.45,0l11.88,6.85a4.45,4.45,0,0,1,2.22,3.85v13.71a4.48,4.48,0,0,1-2.22,3.86L468.29,387A4.43,4.43,0,0,1,463.84,387Zm37.1,21.42a4.44,4.44,0,0,1-2.23,3.85l-11.87,6.86a4.47,4.47,0,0,1-4.45,0l-11.87-6.86a4.44,4.44,0,0,1-2.23-3.85V394.71a4.44,4.44,0,0,1,2.23-3.85L482.39,384a4.47,4.47,0,0,1,4.45,0l11.87,6.86a4.44,4.44,0,0,1,2.23,3.85Zm18.55-32.13a4.46,4.46,0,0,1-2.23,3.86L505.39,387a4.43,4.43,0,0,1-4.45,0l-11.87-6.85a4.46,4.46,0,0,1-2.23-3.86V362.58a4.44,4.44,0,0,1,2.23-3.85l11.87-6.85a4.43,4.43,0,0,1,4.45,0l11.87,6.85a4.44,4.44,0,0,1,2.23,3.85ZM538,344.16a4.45,4.45,0,0,1-2.23,3.86l-11.87,6.85a4.43,4.43,0,0,1-4.45,0L507.62,348a4.45,4.45,0,0,1-2.23-3.86v-13.7a4.46,4.46,0,0,1,2.23-3.86l11.87-6.85a4.43,4.43,0,0,1,4.45,0l11.87,6.85a4.46,4.46,0,0,1,2.23,3.86ZM556.59,312a4.44,4.44,0,0,1-2.23,3.85l-11.87,6.86a4.47,4.47,0,0,1-4.45,0l-11.87-6.86a4.44,4.44,0,0,1-2.23-3.85V298.33a4.46,4.46,0,0,1,2.23-3.86l9.64-5.56a4.43,4.43,0,0,1,4.45,0l14.1,8.13a4.46,4.46,0,0,1,2.23,3.86Z"/><path class="cls-1" d="M473.28,454.72l-65.54-37.84a6.67,6.67,0,0,0-9.12,2.44l-37.84,65.54a6.68,6.68,0,0,0,2.44,9.12l65.54,37.84a6.68,6.68,0,0,0,9.13-2.44l37.84-65.54A6.67,6.67,0,0,0,473.28,454.72Zm-31.56-16-4.35-2.51A42.67,42.67,0,0,1,441.72,438.72Zm-21.24-2a4.46,4.46,0,0,1,4.45-4.46,5.14,5.14,0,0,1,.78.07,42.94,42.94,0,0,1,7.87,2.19l1.17.48,9.33,5.38,1,.78a42.59,42.59,0,0,1,5.83,5.72,4.44,4.44,0,0,1-.54,6.27,4.09,4.09,0,0,1-.64.45L439,459.78a4.43,4.43,0,0,1-4.45,0l-11.88-6.85a4.45,4.45,0,0,1-2.22-3.85Zm-9.1,28.61,2.5-4.33,11.18,22.25-2.5,4.33Zm3.48,14.78-2.5,4.33-5.59-11.13,2.5-4.33Zm6.72-11.63,2.5-4.33,5.59,11.12-2.5,4.34Zm-36-21.6a42.7,42.7,0,0,1,25.2-14.55,4.92,4.92,0,0,1,.78-.07,4.46,4.46,0,0,1,4.45,4.46v12.35a4.44,4.44,0,0,1-2.23,3.85l-11.87,6.85a4.43,4.43,0,0,1-4.45,0l-10.7-6.17a4.62,4.62,0,0,1-.64-.45A4.45,4.45,0,0,1,385.6,446.89Zm-1.75,44.67a4.45,4.45,0,0,1-5.7-2.66,42.67,42.67,0,0,1,0-29.1,5.05,5.05,0,0,1,.33-.71,4.45,4.45,0,0,1,6.08-1.62l10.69,6.17a4.44,4.44,0,0,1,2.23,3.86v13.7a4.46,4.46,0,0,1-2.23,3.86l-10.69,6.17A4.58,4.58,0,0,1,383.85,491.56ZM394.78,510l4.36,2.52A41.1,41.1,0,0,1,394.78,510ZM416,512a4.45,4.45,0,0,1-4.45,4.45,4,4,0,0,1-.78-.07,42.16,42.16,0,0,1-7.87-2.19l-1.18-.47-9.32-5.38-1-.78a43.17,43.17,0,0,1-5.83-5.72,4.45,4.45,0,0,1,.54-6.27,4.62,4.62,0,0,1,.64-.45l10.7-6.18a4.47,4.47,0,0,1,4.45,0l11.87,6.86a4.44,4.44,0,0,1,2.23,3.85Zm34.87-10.16a42.61,42.61,0,0,1-25.19,14.54,4.11,4.11,0,0,1-.78.07,4.45,4.45,0,0,1-4.45-4.45V499.62a4.45,4.45,0,0,1,2.22-3.85l11.88-6.86a4.47,4.47,0,0,1,4.45,0l10.69,6.18a4.09,4.09,0,0,1,.64.45A4.44,4.44,0,0,1,450.9,501.81Zm7.46-12.91a4.47,4.47,0,0,1-6.41,2.33l-10.7-6.17A4.48,4.48,0,0,1,439,481.2V467.5a4.45,4.45,0,0,1,2.22-3.86l10.7-6.17a3.06,3.06,0,0,1,.71-.33,4.45,4.45,0,0,1,5.7,2.66A42.67,42.67,0,0,1,458.36,488.9Z"/><path class="cls-2" d="M423.42,562l-2.57-1.48-1.49,2.57a3,3,0,0,0-1.08-4.05l-23.15-13.37a4.44,4.44,0,0,1-2.23-3.85V528.11a8.91,8.91,0,0,0-4.45-7.71l-11.87-6.85a8.85,8.85,0,0,0-8.9,0L355.8,520.4a4.47,4.47,0,0,1-4.45,0l-7.61-4.4a3,3,0,0,0-4.05,1.09l-4.46,7.71a1.19,1.19,0,0,0-1.62.44h0L314,559.16a1.18,1.18,0,0,0,.43,1.62L310,568.49a1.19,1.19,0,0,0-1.62.44l-14.26,24.68a1.2,1.2,0,0,0,.44,1.63L290.12,603a1.47,1.47,0,0,0,.54,2,1.46,1.46,0,0,0,1.1.16,8.15,8.15,0,0,1,6,.86l11.47,6.62.18.11a8,8,0,0,0,6.86.54,4.49,4.49,0,0,1,3.82.31l25.47,14.71a4.43,4.43,0,0,1,2.17,3.15,8,8,0,0,0,3.91,5.67l.18.1,11.47,6.63a8.11,8.11,0,0,1,3.76,4.79,1.49,1.49,0,0,0,2.71.33l-.88,1.53,2.57,1.48a3,3,0,0,0,4-1.08l49-84.82A3,3,0,0,0,423.42,562ZM355.8,528.11a4.46,4.46,0,0,1,2.23-3.86l11.87-6.85a4.47,4.47,0,0,1,4.45,0l11.87,6.85a4.46,4.46,0,0,1,2.23,3.86v13.71a4.44,4.44,0,0,1-2.23,3.85l-11.87,6.86a4.47,4.47,0,0,1-4.45,0L358,545.67a4.44,4.44,0,0,1-2.23-3.85Zm0,21.42,11.88,6.85a4.48,4.48,0,0,1,2.22,3.86v13.7a4.48,4.48,0,0,1-2.22,3.86l-11.88,6.85a4.43,4.43,0,0,1-4.45,0l-11.87-6.85a4.45,4.45,0,0,1-2.22-3.86v-13.7a4.45,4.45,0,0,1,2.22-3.86l11.87-6.85A4.43,4.43,0,0,1,355.8,549.53Zm-25.27-1.74,13.36-23.13a3,3,0,0,1,4.05-1.09h0l1.19.68a4.48,4.48,0,0,1,2.22,3.86v13.71a4.45,4.45,0,0,1-2.22,3.85l-11.87,6.86a4.49,4.49,0,0,1-4.46,0l-1.18-.69A3,3,0,0,1,330.53,547.79Zm-16.28,58.45a3,3,0,0,1-3,3,3,3,0,0,1-1.49-.4L301.49,604a3,3,0,0,1-1.08-4.06l6.38-11.05a3,3,0,0,1,4-1.09h0l1.19.69a4.43,4.43,0,0,1,2.22,3.85Zm0-21.59-1.18-.68a3,3,0,0,1-1.09-4.06l13.36-23.13a3,3,0,0,1,4.05-1.08l1.19.68a4.48,4.48,0,0,1,2.22,3.86v13.7a4.48,4.48,0,0,1-2.22,3.86l-11.87,6.85A4.44,4.44,0,0,1,314.25,584.65Zm18.55,32.13-11.87-6.85a4.45,4.45,0,0,1-2.22-3.86V592.36a4.43,4.43,0,0,1,2.22-3.85l11.87-6.86a4.49,4.49,0,0,1,4.46,0l11.87,6.86a4.45,4.45,0,0,1,2.22,3.85v13.71a4.48,4.48,0,0,1-2.22,3.86l-11.87,6.85A4.44,4.44,0,0,1,332.8,616.78Zm37.1,21.59a3,3,0,0,1-4.45,2.57l-12-6.93a4.43,4.43,0,0,1-2.17-3.15,8,8,0,0,0-3.91-5.67l-3.44-2a3,3,0,0,1,0-5.14l7.42-4.29a4.47,4.47,0,0,1,4.45,0l11.88,6.86a4.45,4.45,0,0,1,2.22,3.85Zm18.55-32.3a4.46,4.46,0,0,1-2.23,3.86l-11.87,6.85a4.43,4.43,0,0,1-4.45,0L358,609.93a4.46,4.46,0,0,1-2.23-3.86V592.36a4.44,4.44,0,0,1,2.23-3.85l11.87-6.86a4.47,4.47,0,0,1,4.45,0l11.87,6.86a4.44,4.44,0,0,1,2.23,3.85ZM407,573.94a4.46,4.46,0,0,1-2.23,3.86l-11.87,6.85a4.43,4.43,0,0,1-4.45,0l-11.87-6.85a4.46,4.46,0,0,1-2.23-3.86v-13.7a4.46,4.46,0,0,1,2.23-3.86l11.87-6.85a4.43,4.43,0,0,1,4.45,0l11.87,6.85a4.46,4.46,0,0,1,2.23,3.86Z"/><path class="cls-2" d="M278.37,665.69l-.11-.27-.15-.25-.21-.21-.23-.17-34.16-19.73-.27-.12-.29-.07h-.29l-.29,0-.27.11-.26.15-.21.2-.17.23L237.75,652l-.12.27-.07.28v.3l.05.28.11.28.15.25.2.21.24.17,1.31.76.24.15.24.19.22.21.19.21.16.24.15.26.13.27.09.28.06.28,0,.29v.3l0,.29,0,.29-.08.28-.11.28-.13.26-52.67,91.24-.16.24-.19.24-.21.21-.22.19-.24.16-.27.14-.27.12-.28.08-.28.05-.3,0h-.3l-.29,0-.28-.06-.29-.08-.28-.11-.25-.13-12.12-7a1.49,1.49,0,0,0-2,.55h0L163.9,755l-4.45,7.71a1.47,1.47,0,0,0,.54,2l9.25,5.35a1.49,1.49,0,0,0,2-.55l2.22-3.85a3,3,0,0,1,4.06-1.09l29.56,17.07a3,3,0,0,1,1.08,4h0L206,789.6a1.47,1.47,0,0,0,.54,2l9.25,5.34a1.49,1.49,0,0,0,2-.54l4.45-7.71,5.94-10.28a1.49,1.49,0,0,0-.55-2l-12.11-7-.24-.16-.24-.19-.22-.2-.19-.22-.16-.24-.15-.26-.13-.27-.09-.27-.06-.28,0-.3v-.3l0-.29.05-.28.08-.29.1-.28.13-.26,52.68-91.24.16-.24.19-.24.21-.21.22-.18.24-.16.27-.15.27-.11.28-.09.28-.05.3,0h.3l.29,0,.28.06.29.08.28.12.25.13,1.31.75.27.12.29.07h.29l.29,0,.27-.1.26-.15.21-.2.17-.24,3.71-6.42.12-.27.07-.29V666Zm-56,71.71L210.52,758a4.45,4.45,0,0,1-6.08,1.63l-1.28-.74-3.86-2.23-1.28-.74a4.45,4.45,0,0,1-1.63-6.08l11.87-20.57a4.45,4.45,0,0,1,6.08-1.62l6.43,3.71A4.46,4.46,0,0,1,222.4,737.4Zm19-32.9-10.39,18a4.45,4.45,0,0,1-6.08,1.63l-6.43-3.71a4.45,4.45,0,0,1-1.62-6.08l10.38-18a4.45,4.45,0,0,1,6.08-1.63l6.43,3.71A4.45,4.45,0,0,1,241.39,704.5Zm18.84-32.64-10.38,18a4.45,4.45,0,0,1-6.08,1.63l-6.43-3.71a4.45,4.45,0,0,1-1.63-6.08l10.39-18a4.45,4.45,0,0,1,6.08-1.63l6.43,3.71A4.45,4.45,0,0,1,260.23,671.86Z"/><path class="cls-1" d="M145.36,682.67l4.82.84a3,3,0,0,0,2.51-.73,61.62,61.62,0,0,0,10.45-12.44,1.47,1.47,0,0,0-.45-2l-.06,0-11.28-6.51a1.47,1.47,0,0,0-2,.47q-.8,1.2-1.65,2.34a1.48,1.48,0,0,0-.15,1.53,8.45,8.45,0,0,1-2,9.94,51.8,51.8,0,0,1-8.76,6.31,1.48,1.48,0,0,0-.57,2l3.23,6a1.48,1.48,0,0,0,2,.6l0,0c.7-.39,1.38-.8,2.07-1.23a.89.89,0,0,0,.28-1.22l0,0-1.12-1.63a2.67,2.67,0,0,1,.69-3.72A2.7,2.7,0,0,1,145.36,682.67Z"/><path class="cls-2" d="M179.42,833.79l-56.36-32.54a1.47,1.47,0,0,0-2,.54h0l-5.94,10.28a1.49,1.49,0,0,0,.54,2l11.52,6.65L131,823l10.88,6.28,3.85,2.23,10.88,6.28,3.85,2.23L172,846.64a1.49,1.49,0,0,0,2-.55L180,835.81A1.48,1.48,0,0,0,179.42,833.79Zm-30.85-7.27a2.52,2.52,0,1,1-5,0h0a2.52,2.52,0,1,1,5,0Z"/><path class="cls-2" d="M249.07,929.56l-6.85-11.87a4.43,4.43,0,0,1,0-4.45l4.39-7.61a3,3,0,0,0-1.09-4.06L120.23,829.23a3,3,0,0,0-4.06,1.09l-43,74.54a3,3,0,0,0,1.09,4h0l125.29,72.34a3,3,0,0,0,4.06-1.09L216.94,957a4.46,4.46,0,0,1,3.86-2.23h13.7a8.93,8.93,0,0,0,7.72-4.45l6.85-11.87A8.92,8.92,0,0,0,249.07,929.56ZM116.7,899.14,109.85,911a4.45,4.45,0,0,1-3.85,2.22H92.29A4.48,4.48,0,0,1,88.43,911l-5.57-9.65a4.47,4.47,0,0,1,0-4.45L91,882.82a4.45,4.45,0,0,1,3.86-2.22H106a4.43,4.43,0,0,1,3.85,2.22l6.85,11.87A4.43,4.43,0,0,1,116.7,899.14Zm0-37.09-6.85,11.87a4.45,4.45,0,0,1-3.85,2.22H97.43a1.49,1.49,0,0,1-1.49-1.48,1.47,1.47,0,0,1,.2-.74l13.71-23.74a1.47,1.47,0,0,1,2.57,0l4.28,7.41A4.44,4.44,0,0,1,116.7,862.05Zm3.86-6.68L115,845.72a4.47,4.47,0,0,1,0-4.45l1.33-2.3a3,3,0,0,1,4.05-1.08l21.21,12.24a3,3,0,0,1,1.08,4l-.68,1.19a4.45,4.45,0,0,1-3.86,2.22h-13.7A4.44,4.44,0,0,1,120.56,855.37Zm11,34.93a3.49,3.49,0,1,1-3.49-3.48A3.49,3.49,0,0,1,131.55,890.3Zm21.75,43.1-28.92-16.69a5,5,0,0,1-1.84-6.89l19.66-34.06h0a5,5,0,0,1,6.89-1.85L178,890.61a5,5,0,0,1,1.84,6.89l-19.66,34A5,5,0,0,1,153.3,933.4Zm21-19.87a3.49,3.49,0,1,1-3.49,3.48A3.48,3.48,0,0,1,174.33,913.53ZM199.25,961,171,944.63l25.6-44.33,28.27,16.32Z"/><path class="cls-1" d="M215.56,857.51l-6.43-3.71A7.41,7.41,0,0,0,199,856.51l-4.46,7.71a1.49,1.49,0,0,0,.55,2l16.7,9.65a1.49,1.49,0,0,0,2-.55l4.45-7.71A7.41,7.41,0,0,0,215.56,857.51Zm-3.48,5.86a4.19,4.19,0,1,1-8.37,0h0a4.19,4.19,0,0,1,8.37,0Z"/><path class="cls-1" d="M276.93,1007.38v.21l0,.22-.06.21-.08.22-.12.21-2.6,4.51-.12.19-.14.17-.15.14-.16.12-.18.09-.19.07-.2,0-.22,0h-.23l-.24,0-.25-.06-.27-.08-.28-.1-.29-.13-.31-.15-.32-.17-.32-.19-.28-.2-.26-.19-.24-.19-.2-.2-.18-.19-.14-.2-.12-.19-.1-.2-.06-.2,0-.2v-.2l0-.2,0-.2.08-.21.1-.2,2.6-4.51.15-.22.15-.2.17-.16.18-.14.19-.1.19-.08.21,0,.23,0h.23l.24,0,.26.06.26.08.28.1.29.13.3.15.31.17.31.19.29.19.26.2.22.19.21.2.17.2.14.2.12.2.08.21.06.21Zm-19.15-11.24,0-.21-.09-.2-.12-.21-.14-.2-.17-.2-.2-.19-.23-.2-.26-.19-.28-.2-.32-.19-.31-.17-.3-.15-.29-.12-.27-.11-.27-.08-.26,0-.24,0h-.23l-.22,0-.21,0-.2.08-.19.11-.18.13-.16.17-.16.19-.14.23-2.6,4.5-.11.21-.07.2,0,.2,0,.2v.2l0,.2.07.2.09.2.12.2.15.19.17.2.21.19.23.19.26.2.29.19.31.19.32.18.31.15.29.12.28.11.27.08.26,0,.24,0h.23l.21,0,.2,0,.19-.07.18-.1.16-.11.15-.15.14-.16.13-.2,2.6-4.5.11-.22.08-.22.06-.21,0-.21v-.21Zm8.86,4.77-.2-.27-.26-.26-.35-.27-.42-.27-2-1.14-2.06,3.56,1.86,1.07.49.26.44.19.39.12.33,0,.29,0,.26-.13.24-.21.21-.29.75-1.31.12-.27,0-.26,0-.27Zm29.66,6.63c-3.18,5.68-3.13,10.46-.3,15.78,3.3,6.21,2,9.16-5.1,11.32-1.25.39-2.74.56-3.09,1.77-1.5,5.14-4.59,2.88-7.28,1.58-2.9-1.41-5.64-3.18-8.46-4.77-8-4.48-8.24-4.6-4.57-12.53,1.37-2.94.72-3.77-1.71-5.09-4.8-2.61-9.55-5.37-14.08-8.42-3.93-2.65-6,.19-7.07,2.71-2.39,5.55-5.59,4.31-9.32,2-1.69-1-3.33-2.17-5.06-3.14-10.06-5.68-11-7.72-8.53-18.87.75-3.35,2.84-5.37,6.36-5.21,8.39.39,13.23-4.07,16.9-11.12,5.69-10.93,12.95-21,18.12-32.22,1.72-3.73,5.3-4,9.88-3.78,3.46,1.25,8.09,1.49,12.29,4.42A174.44,174.44,0,0,0,306.17,954c5.21,2.65,8.38,6.85,11.24,11.6a6,6,0,0,1-.14,6.35C309.44,983.36,303,995.52,296.3,1007.54Zm-64-16.75c-.7-1.6-1.51-3-3.63-3.17-2.4-.16-5,0-5.24,2.91-.23,2.17,1.9,3.89,3.69,4.3C229.73,995.42,230.8,992.79,232.31,990.79Zm18.9-.39-1.4-.81L242.09,996l-.14-.07,1.66-9.88-1.47-.85-1.79,11.59,1.63.94Zm5.09,12.33,2.59-4.49.17-.34.13-.33.09-.33,0-.33v-.32l0-.32-.09-.32-.13-.31-.18-.32-.22-.3-.26-.31-.3-.3-.35-.3-.4-.3-.43-.29-.48-.29L256,993l-.46-.23-.45-.19-.43-.15-.42-.11-.39-.07-.37,0h-.36l-.33,0-.32.09-.3.12-.28.16-.26.21-.24.24-.23.28-.2.32-2.59,4.47-.16.32-.12.32-.08.32,0,.31v.31l0,.31.09.31.13.3.18.3.22.3.26.3.3.3.35.29.39.29.43.29.48.29.44.24.43.22.42.18.42.15.4.12.39.09.38,0,.36,0h.36l.33-.06.31-.1.29-.14.27-.19.25-.23.23-.28Zm10.62,1.92.14-.18.13-.2.94-1.63.19-.37.12-.34.05-.33,0-.3-.08-.29-.15-.29-.21-.28-.28-.29-.35-.29-.43-.31-.51-.33-.58-.35L262.55,997l-5.46,9.46,1.41.82,2.33-4,1.38.79.38,5.61,1.73,1-.6-6,.53.27.51.18.5.1h.48l.24,0,.21,0,.21-.08.18-.1.18-.12Zm8.5,9.12,2.59-4.49.17-.34.13-.33.09-.33,0-.33v-.32l-.05-.32-.08-.32-.14-.32-.17-.31-.22-.31-.26-.3-.31-.31-.35-.3-.39-.29-.43-.3-.48-.29-.49-.26-.47-.23-.45-.19-.43-.15-.41-.11-.39-.07-.38,0h-.35l-.34,0-.31.08-.3.13-.28.16-.26.2-.25.25-.22.28-.21.32-2.58,4.47-.16.32-.13.32-.08.31,0,.32v.31l0,.31.1.3.13.31.18.3.21.3.27.3.3.3.35.29.39.29.43.29.47.29.45.24.43.21.42.18.41.15.4.12.39.09.38.06.37,0,.35,0,.34-.05.31-.1.29-.15.27-.18.25-.24.23-.27Zm14.34-1.11-1.24-.72-4.51,7.82-.64-10.79-1.7-1-5.47,9.46,1.24.72,4.59-7.95.56,10.92,1.71,1Zm1.12,11.44c-2.23.17-4.17,1.29-3.51,3.66.51,1.88,1.25,4.6,4.33,3.9,3.28.22,3.94-2.53,4-4.4C295.85,1024.41,293.29,1023.93,290.88,1024.1Zm14.38-51c0-13.56-12-25.86-25.42-24.89-14.38,1.05-24.28,10.05-24.75,25.63-.43,14,10.44,24.46,24.65,24.48C295,998.31,305.28,988.13,305.26,973.07Z"/><path class="cls-1" d="M312,917.1a6.16,6.16,0,0,0-2.6-11l-4.4-.77a7.36,7.36,0,0,0-3.2.14l-11.83,3.17a22.32,22.32,0,0,1-16-1.74l-9.15-4.75a2.23,2.23,0,0,0-2,4l1.53.79a3,3,0,0,1,1.5,1.87l2.47,9.22a3,3,0,0,1-.45,2.5q-.69,1-1.29,2a6,6,0,0,0-.66,4.32,1.49,1.49,0,0,0,1.78,1.11,1.33,1.33,0,0,0,.43-.17c1.65-1,3.34-1.89,5.06-2.72a1.12,1.12,0,0,0,.53-1.49,1.1,1.1,0,0,0-.39-.44,2.23,2.23,0,0,1-.61-3.09,3.07,3.07,0,0,1,.28-.35l.22-.21A6,6,0,0,1,275.7,918l18.08-4.85.82-.18.83-.11.84,0,.84,0,.84.11.82.18.8.26.78.32.74.38.71.46.67.51.62.57.57.62.51.66.46.71.39.75,3.09,6.63a2.23,2.23,0,0,0,4-1.89L311,920.73A3,3,0,0,1,312,917.1Zm-1.08-4.94a2.6,2.6,0,1,1-5.19,0h0a2.6,2.6,0,1,1,5.19,0Z"/><path class="cls-1" d="M398.93,902.18h-66.2a4.45,4.45,0,0,0-4.45,4.45v3.27a.58.58,0,0,0,.59.59H350v-.44a2.52,2.52,0,1,1,3.57,0h0v.44h16.92a5,5,0,0,1,5.05,5V928.9a3,3,0,0,0,3,3h20.48a5.94,5.94,0,0,0,5.94-5.94V908.12A5.94,5.94,0,0,0,398.93,902.18ZM390,921.11a4.09,4.09,0,1,1,4.09-4.09A4.09,4.09,0,0,1,390,921.11Z"/><path class="cls-2" d="M365.19,930.59H325.13a5.36,5.36,0,0,0-5.35,5.35v10.4A6.53,6.53,0,0,0,321.7,951l6.21,6.21a6.53,6.53,0,0,0,4.62,1.92h25.26a6.53,6.53,0,0,0,4.62-1.92l6.21-6.21a6.52,6.52,0,0,0,1.91-4.62v-10.4A5.35,5.35,0,0,0,365.19,930.59Zm-20,18.7a4.45,4.45,0,1,1,4.45-4.45A4.45,4.45,0,0,1,345.16,949.29Z"/><path class="cls-2" d="M429.15,1039.39,405.89,1026a1.49,1.49,0,0,1-.54-2l13.43-23.26a1.49,1.49,0,0,0-.55-2L361.64,966l-.58-.29-.61-.22-.62-.15-.64-.07h-.63l-.62.09-.59.16-.55.24-.51.31-.46.37-.39.43-.33.49-44.58,77.2a4.58,4.58,0,0,0-.3,4l1.23,3.14a4.55,4.55,0,0,0,2,2.3l77.91,45,.52.25.56.18.58.09.6,0,.6-.08.59-.15.58-.23.55-.31.51-.37.47-.45.42-.49.36-.54,32-55.44A1.49,1.49,0,0,0,429.15,1039.39Zm-35-45a7.42,7.42,0,1,1-7.42,7.42A7.42,7.42,0,0,1,394.11,994.44Zm-6.93,34.26a4.45,4.45,0,1,1,4.45,4.45A4.45,4.45,0,0,1,387.18,1028.7Zm8.1,40.35-2.24,3.88-5-10,2.24-3.88Zm-35-94.13a7.42,7.42,0,1,1-7.42,7.42A7.42,7.42,0,0,1,360.31,974.92Zm-8.51,26.33a4.45,4.45,0,1,1-4.46,4.45A4.45,4.45,0,0,1,351.8,1001.25Zm-23,48.74a4.45,4.45,0,1,1,4.46-4.45A4.45,4.45,0,0,1,328.79,1050Zm39.84,23a4.45,4.45,0,1,1,4.45-4.45A4.45,4.45,0,0,1,368.63,1073Zm10.87-35.86a19.29,19.29,0,0,1-38.58,0h0a19.29,19.29,0,1,1,38.58,0Zm8.85,53.64a7.42,7.42,0,1,1,7.42-7.42A7.42,7.42,0,0,1,388.35,1090.77Zm13.82-15-10-19.92,2.23-3.88,10,19.92Zm4.12-7.15-5-10,2.23-3.87,5,10Zm3.88-15.61a7.42,7.42,0,1,1,7.42-7.42A7.42,7.42,0,0,1,410.17,1053Z"/><path class="cls-2" d="M919.35,236.45l-84.82-49a3,3,0,0,0-4,1.09h0L829,191.14l2.57,1.48a3,3,0,0,0-4,1.09l-13.36,23.15a4.48,4.48,0,0,1-3.86,2.22H796.58a8.91,8.91,0,0,0-7.71,4.45L782,235.41a8.9,8.9,0,0,0,0,8.9l6.85,11.87a4.43,4.43,0,0,1,0,4.45l-4.39,7.61a3,3,0,0,0,1.08,4.06l7.71,4.45a1.19,1.19,0,0,0,.44,1.62L827.64,298a1.19,1.19,0,0,0,1.62-.43L837,302a1.18,1.18,0,0,0,.43,1.62l24.69,14.25a1.19,1.19,0,0,0,1.62-.43l7.71,4.45a1.48,1.48,0,0,0,2.18-1.64,8.19,8.19,0,0,1,.86-6l6.62-11.47.11-.19a8,8,0,0,0,.55-6.86,4.44,4.44,0,0,1,.3-3.81l14.71-25.48a4.45,4.45,0,0,1,3.15-2.17,8,8,0,0,0,5.67-3.9l.11-.19,6.62-11.47a8.18,8.18,0,0,1,4.79-3.76,1.49,1.49,0,0,0,.33-2.71l1.53.89,1.49-2.57A3,3,0,0,0,919.35,236.45Zm-58.51-12.92h13.71a4.44,4.44,0,0,1,3.85,2.23l6.85,11.87a4.43,4.43,0,0,1,0,4.45L878.4,254a4.44,4.44,0,0,1-3.85,2.23H860.84A4.46,4.46,0,0,1,857,254l-6.85-11.87a4.43,4.43,0,0,1,0-4.45L857,225.76A4.46,4.46,0,0,1,860.84,223.53Zm-7.71,37.1-6.86,11.87a4.44,4.44,0,0,1-3.85,2.23H828.71a4.44,4.44,0,0,1-3.85-2.23L818,260.63a4.47,4.47,0,0,1,0-4.45l6.86-11.87a4.44,4.44,0,0,1,3.85-2.23h13.71a4.44,4.44,0,0,1,3.85,2.23l6.86,11.87A4.47,4.47,0,0,1,853.13,260.63ZM818,219.08l6.86-11.87a4.43,4.43,0,0,1,3.85-2.22h13.71a4.43,4.43,0,0,1,3.85,2.22l6.86,11.87a4.47,4.47,0,0,1,0,4.45l-6.86,11.88a4.45,4.45,0,0,1-3.85,2.22H828.71a4.45,4.45,0,0,1-3.85-2.22L818,223.53A4.47,4.47,0,0,1,818,219.08Zm-32.13,23a4.47,4.47,0,0,1,0-4.45l6.86-11.87a4.44,4.44,0,0,1,3.85-2.23h13.71a4.46,4.46,0,0,1,3.86,2.23L821,237.63a4.43,4.43,0,0,1,0,4.45L814.15,254a4.46,4.46,0,0,1-3.86,2.23H796.58a4.44,4.44,0,0,1-3.85-2.23ZM821,279.18l-.69,1.19a3,3,0,0,1-4,1.08L793.13,268.1a3,3,0,0,1-1.09-4.05h0l.69-1.19a4.44,4.44,0,0,1,3.85-2.23h13.71a4.46,4.46,0,0,1,3.86,2.23L821,274.73A4.43,4.43,0,0,1,821,279.18Zm32.13,18.55-.69,1.19a3,3,0,0,1-4.05,1.08l-23.13-13.35a3,3,0,0,1-1.09-4.06l.69-1.18a4.44,4.44,0,0,1,3.85-2.23h13.71a4.44,4.44,0,0,1,3.85,2.23l6.86,11.87A4.47,4.47,0,0,1,853.13,297.73Zm24.16,4.45-4.8,8.31a3,3,0,0,1-4,1.09l-11.06-6.38a3,3,0,0,1-1.08-4.06L857,300a4.46,4.46,0,0,1,3.86-2.23h13.88a3,3,0,0,1,2.57,4.45Zm8-23-6.85,11.87a4.44,4.44,0,0,1-3.85,2.23H860.84a4.46,4.46,0,0,1-3.86-2.23l-6.85-11.87a4.43,4.43,0,0,1,0-4.45L857,262.86a4.46,4.46,0,0,1,3.86-2.23h13.71a4.44,4.44,0,0,1,3.85,2.23l6.85,11.87A4.43,4.43,0,0,1,885.25,279.18Zm24.16-32.64-6.92,12a4.48,4.48,0,0,1-3.15,2.17,8,8,0,0,0-5.67,3.9l-2,3.44a3,3,0,0,1-4,1.09,2.92,2.92,0,0,1-1.09-1.09l-4.28-7.42a4.43,4.43,0,0,1,0-4.45l6.85-11.87a4.45,4.45,0,0,1,3.86-2.23h13.87a3,3,0,0,1,3,3A3,3,0,0,1,909.41,246.54Z"/><path class="cls-1" d="M1002.86,282.38l-65.54-37.84a6.68,6.68,0,0,0-9.13,2.44l-37.84,65.54a6.68,6.68,0,0,0,2.45,9.12l65.54,37.84a6.67,6.67,0,0,0,9.12-2.44l37.84-65.54A6.68,6.68,0,0,0,1002.86,282.38ZM933.28,261.9a42.64,42.64,0,0,1,29.09,0,4.19,4.19,0,0,1,.71.33,4.45,4.45,0,0,1,1.63,6.08L958.54,279a4.45,4.45,0,0,1-3.86,2.22H941a4.43,4.43,0,0,1-3.85-2.22l-6.18-10.7a4.43,4.43,0,0,1,2.34-6.41Zm5.63,46.92-4.33-2.5,22.25-11.18,4.33,2.5Zm19.11-1-11.13,5.59-4.33-2.5,11.13-5.59Zm-20.29-11.71,11.12-5.59,4.33,2.5-11.12,5.59ZM912.2,278.54l-2.51,4.35A42.67,42.67,0,0,1,912.2,278.54Zm-6.38,16a42.84,42.84,0,0,1,2.19-7.86c.15-.4.31-.79.47-1.18l5.39-9.32c.25-.34.51-.67.78-1a42.58,42.58,0,0,1,5.72-5.83,4.45,4.45,0,0,1,6.27.54,4.09,4.09,0,0,1,.45.64l6.17,10.69a4.44,4.44,0,0,1,0,4.46l-6.85,11.87a4.48,4.48,0,0,1-3.86,2.22H910.21a4.46,4.46,0,0,1-4.46-4.45A5.14,5.14,0,0,1,905.82,294.55Zm20.82,39.57a4.45,4.45,0,0,1-6.27.54,42.7,42.7,0,0,1-14.55-25.2,4.9,4.9,0,0,1-.07-.77,4.46,4.46,0,0,1,4.46-4.46h12.34a4.46,4.46,0,0,1,3.86,2.23l6.85,11.87a4.43,4.43,0,0,1,0,4.45l-6.17,10.7A4.62,4.62,0,0,1,926.64,334.12Zm35.73,8a42.64,42.64,0,0,1-29.09,0,4.08,4.08,0,0,1-.71-.32,4.46,4.46,0,0,1-1.63-6.09L937.12,325a4.44,4.44,0,0,1,3.85-2.23h13.71a4.46,4.46,0,0,1,3.86,2.23l6.17,10.69a5.05,5.05,0,0,1,.33.71A4.45,4.45,0,0,1,962.37,342.11Zm21.08-16.63,2.52-4.36A40.12,40.12,0,0,1,983.45,325.48Zm6.38-16a42,42,0,0,1-2.19,7.87c-.15.4-.31.79-.47,1.18l-5.38,9.32-.78,1a43.17,43.17,0,0,1-5.72,5.83,4.47,4.47,0,0,1-6.28-.54,5.58,5.58,0,0,1-.44-.64l-6.18-10.7a4.47,4.47,0,0,1,0-4.45l6.86-11.87a4.44,4.44,0,0,1,3.85-2.23h12.35a4.46,4.46,0,0,1,4.45,4.46A3.94,3.94,0,0,1,989.83,309.46Zm-4.38-9.68H973.1a4.45,4.45,0,0,1-3.85-2.22l-6.86-11.87a4.49,4.49,0,0,1,0-4.46l6.18-10.69a4.83,4.83,0,0,1,.44-.64,4.47,4.47,0,0,1,6.28-.54,42.61,42.61,0,0,1,14.54,25.19,4.11,4.11,0,0,1,.07.78A4.45,4.45,0,0,1,985.45,299.78Z"/><path class="cls-2" d="M844.4,328.69a5.72,5.72,0,0,0-2.69-3.52l-15.23-8.8c0-.07,0-.13,0-.2L841.81,325l-36.88-21.29a25.3,25.3,0,0,1-9.73-10.08,7.49,7.49,0,0,1-.64-1.67,5.83,5.83,0,0,0-2.74-3.64,6.78,6.78,0,0,1-1-.72q-2-1.67-4.13-3.19l-.09.15q-2.8-2-5.77-3.83a1.3,1.3,0,0,0-1.78.44v0l-1.6,2.77-.14-.15L765.1,304.9l-1.28,2.22-.18.34-.16.37-.27.76-.23.77-.2.74,0,.29.06.29.13.26.09.11.12.09,4.18,2.41-5.51,9.53-4.17-2.41-.14-.06-.14,0-.29,0-.28.08-.27.13-.54.54-.55.58-.53.62-.23.32-.21.32-1.28,2.22-.93,1.61.12-.17.13-.16.15-.14.16-.12-3.36,5.83-.25,0,1.75-3-8.8,15.25h.22l-2.77,4.79a1.29,1.29,0,0,0,.47,1.77h0a79.93,79.93,0,0,0,11,5,7.23,7.23,0,0,1,1.16.55,5.71,5.71,0,0,0,4.39.54,7.36,7.36,0,0,1,1.81-.29,25.57,25.57,0,0,1,13.69,3.41l36.88,21.29a5.76,5.76,0,0,0,4.39.57,25.07,25.07,0,0,0,15.07-11.63l13.29-23A25,25,0,0,0,844.4,328.69Zm-85.55,23.08a3.68,3.68,0,1,1-7.35,0h0a3.68,3.68,0,1,1,7.35,0Zm6.94-47.69,0-.2,0-.2.07-.2.09-.18,4.11-7.11.11.19Zm9,6.74a4.46,4.46,0,1,1,4.46,4.45A4.46,4.46,0,0,1,774.79,310.82Zm8.93,32.46a6.5,6.5,0,1,1,6.49-6.49A6.5,6.5,0,0,1,783.72,343.28Zm5.16-46.4a3.49,3.49,0,1,1,3.48-3.49A3.49,3.49,0,0,1,788.88,296.88Zm15.75,49.88-2.22-4.42,1-1.72,2.23,4.42Zm-.39-7.59,1-1.72,4.45,8.84-1,1.72Zm5-.47,2.22,4.42-1,1.72-2.22-4.42Zm11.37,38.52a4.45,4.45,0,0,1-6.08,1.63l-.9-.52a4.45,4.45,0,1,1,4.46-7.71l.9.52A4.45,4.45,0,0,1,820.66,377.22Zm1.65-7.3a4.45,4.45,0,1,1,4.45-4.45A4.45,4.45,0,0,1,822.31,369.92Zm21.35-32.53a4.45,4.45,0,0,1-6.08,1.62l-.9-.52a4.45,4.45,0,0,1,4.46-7.71l.9.52A4.47,4.47,0,0,1,843.66,337.39Z"/><path class="cls-2" d="M906.9,345.4l-.57-.58H858.81l-.58.58v35.89l.28.29.3.32h47.52l.3-.32.28-.29Zm-35.31,27.78a4.46,4.46,0,0,1-8.91,0h0a4.46,4.46,0,1,1,8.91,0Zm30.86,0a4.45,4.45,0,1,1-8.9,0v0a4.45,4.45,0,0,1,8.9,0Z"/><path class="cls-2" d="M1006.62,379.93H990.3a14.22,14.22,0,0,1-6.55-1.61,11.76,11.76,0,0,0-5.51-1.36h-16.3a11.85,11.85,0,0,1-4.36-.83,20,20,0,0,0-14.7,37.27l.9.33A61.85,61.85,0,0,0,963.69,417h42.93a4.45,4.45,0,0,0,4.45-4.45V384.38A4.45,4.45,0,0,0,1006.62,379.93ZM959.7,394.79a9.47,9.47,0,0,1-18.93,0v0a9.47,9.47,0,1,1,18.93,0Zm17.24,4a4,4,0,1,1,4-4A4,4,0,0,1,976.94,398.77Zm23.75,0a4,4,0,1,1,4-4A4,4,0,0,1,1000.69,398.77Z"/><path class="cls-2" d="M777.72,408l-20.56-11.87a3,3,0,0,1-1.08-4.06l3-5.23.3-.56.28-.59.25-.6.22-.61.19-.61.16-.63.12-.64.09-.64.06-.64,0-.65V380l0-.64-.08-.64-.13-.63-.17-.63-.2-.61-.21-.48-.26-.46-.31-.43-.35-.39-.54-.55-.56-.52-.58-.5-.6-.48-.62-.46-.64-.44-.65-.41-.66-.38-4.82-2.68-2.41-1.34L744.57,366l-9.32-5.18-.23-.1-.25-.06h-.25l-.25,0-.23.1-.21.14-.18.18-.15.21-3.58,6.2-.12.29,0,.3,0,.32.08.3.14.29.19.24.23.22.25.18,5.62,3.25.55,2-19.29,33.41a1.49,1.49,0,0,1-2,.55l-7.71-4.45a1.49,1.49,0,0,0-2,.54l-3.17,5.49a5.94,5.94,0,0,0,2.17,8.11l3.15,1.81a6,6,0,0,1,2.41,2.64l1.85,4a14.88,14.88,0,0,0,6,6.58L751.76,453a4.45,4.45,0,0,0,6.08-1.63l21.51-37.27A4.45,4.45,0,0,0,777.72,408Zm-43.13-2.46a3.87,3.87,0,0,1-1.41-5.27l7.42-12.85a3.86,3.86,0,0,1,6.68,3.86l-7.42,12.85A3.86,3.86,0,0,1,734.59,405.53Zm15.22,34a4,4,0,1,1,4-4A4,4,0,0,1,749.81,439.57ZM761.68,419a4,4,0,1,1,4-4A4,4,0,0,1,761.68,419Z"/><path class="cls-2" d="M771.69,480.49l-.51-3.33a4.58,4.58,0,0,0-2.24-3.28L691.73,429.3l-.52-.25-.56-.18-.58-.09h-.6l-.6.07-.59.15-.58.23-.55.31-.51.38-.47.44-.42.49-.36.55L652.72,488a1.47,1.47,0,0,0,.54,2l23.26,13.43a1.49,1.49,0,0,1,.54,2l-13.42,23.26a1.49,1.49,0,0,0,.54,2l55.43,32,.58.29.61.22.63.15.64.07h.63l.61-.09.59-.16.56-.24.51-.31.46-.37.39-.43.33-.48,45-77.91A4.6,4.6,0,0,0,771.69,480.49Zm-57.91-24.08a4.45,4.45,0,1,1-4.45,4.45A4.45,4.45,0,0,1,713.78,456.41Zm-19-18.94a7.42,7.42,0,1,1-7.42,7.42A7.42,7.42,0,0,1,694.73,437.47Zm8.84,86.77,3.88,2.24-10,5-3.88-2.24Zm-28.36-38.13a7.42,7.42,0,1,1,7.42-7.42A7.42,7.42,0,0,1,675.21,486.11ZM683.16,532a7.42,7.42,0,1,1,7.42-7.42A7.42,7.42,0,0,1,683.16,532Zm3.17-31.29a4.45,4.45,0,1,1,4.45,4.45A4.45,4.45,0,0,1,686.33,500.7Zm4.47,37.68,19.92-10,3.87,2.24-19.92,10Zm11,6.36-3.88-2.24,10-5,3.88,2.23ZM721,553.81a7.42,7.42,0,1,1,7.42-7.42A7.42,7.42,0,0,1,721,553.81Zm9.67-25.66a4.45,4.45,0,1,1,4.45-4.45A4.45,4.45,0,0,1,730.62,528.15Zm-8.42-16.58a19.29,19.29,0,0,1-19.29-19.29v0a19.29,19.29,0,1,1,19.29,19.32Zm31.42-23.26a4.45,4.45,0,1,1,4.45-4.45A4.45,4.45,0,0,1,753.62,488.31Z"/><path class="cls-2" d="M691.45,563.65l-46.9-27.08a3,3,0,0,0-4.06,1.08l-11.87,20.56a3,3,0,0,0,1.09,4.06l1.85,1.06a11.94,11.94,0,0,1,5.53,7.21l.33,1.23a44.5,44.5,0,0,1,.23,22.11,20,20,0,0,0,38.92,9.54,20.33,20.33,0,0,0,.56-5.44,11.89,11.89,0,0,1,1.59-6.33l13.82-23.95A3,3,0,0,0,691.45,563.65Zm-48.37-8.48h0a4,4,0,0,1,8,0h0a4,4,0,0,1-8,0Zm23.26,43.49a9.23,9.23,0,0,1-18.46,0h0a9.23,9.23,0,1,1,18.46,0Zm7.09-24.28a4,4,0,1,1,4-4A4,4,0,0,1,673.43,574.38Z"/><path class="cls-2" d="M661.43,642.44,639.19,629.6a11.86,11.86,0,0,1-4.13-4l-.47-.73-.46-.68-.47-.65-.46-.61a32.91,32.91,0,0,0-9.3-8.21,6.53,6.53,0,0,1-2.18-2.1.59.59,0,0,0-1,.64,7.76,7.76,0,0,0,2.64,2.52,1.11,1.11,0,0,1,.43.43,1.19,1.19,0,0,1-.43,1.62l-2,1.14-1.26.72a1.45,1.45,0,0,1-1.48,0L616,618.17a1.49,1.49,0,0,1-.54-2l3.73-6.46.11-.23.07-.24,0-.25,0-.25-.05-.24-.1-.23-.14-.21-.17-.19a5.9,5.9,0,0,0-1-.76L606,600.24l-.19-.11-.83-.48-.5-.24-.53-.15-.54-.06-.54,0-.52.13-.48.2-.44.29-.37.37-.3.42L581,634.86l-.62,1.12-.57,1.15-.55,1.19-.5,1.22-.46,1.25-.41,1.27-.37,1.29-.33,1.3-.75,3.22-.16.72-1.35,5.79a12.78,12.78,0,0,0-.2,4.57,4.47,4.47,0,0,0,2.19,3.23l54.83,31.66a5.94,5.94,0,0,0,8.11-2.17l23.74-41.13A5.92,5.92,0,0,0,661.43,642.44Zm-29.16,5.17a2.53,2.53,0,0,1,5.05,0h0a2.53,2.53,0,0,1-5.05,0ZM617.71,624.3h7.2l3.6,6.24-3.6,6.23h-7.2l-3.6-6.23ZM595.65,642h-7.2l-3.59-6.23,3.59-6.23h7.2l3.6,6.23Zm7.84-22a4,4,0,0,1-4-4h0a4,4,0,1,1,8,0h0A4,4,0,0,1,603.49,619.93Zm6.81,36.5-3.6-6.23,3.6-6.23h7.19l3.6,6.23-3.6,6.23Zm10.1,11.75h0a2.52,2.52,0,1,1,5,0h0a2.52,2.52,0,0,1-5,0Zm13.69,13.3a3,3,0,0,1-4.05,1.09l-3.86-2.23a3,3,0,0,1-1.09-4.05l17.81-30.84a3,3,0,0,1,4.06-1.09l3.85,2.22a3,3,0,0,1,1.09,4.06Zm10.63-2.17a2.52,2.52,0,1,1-5,0h0a2.52,2.52,0,1,1,5,0Zm11.87-20.56a2.52,2.52,0,1,1-5,0h0a2.52,2.52,0,1,1,5,0Z"/><path class="cls-1" d="M614.56,700.15,572.66,676a8.9,8.9,0,0,0-12.16,3.26l-.25.43-2.32,4L491.1,799.42l-2.32,4-.25.43A8.9,8.9,0,0,0,491.79,816l41.89,24.19A8.92,8.92,0,0,0,545.85,837l.33-.58,2.15-3.73,67-116,2.15-3.73.33-.58A8.9,8.9,0,0,0,614.56,700.15ZM514.17,825.69l-2.5-5,1.11-1.94,2.51,5Zm4.56,1.41-5-10,1.12-1.94,5,10Zm2.06-3.57-2.5-5,1.12-1.94,2.5,5ZM591,752.85l-17,29.43-8.9,15.42-17,29.43a1.49,1.49,0,0,1-2,.54L496.47,799a1.48,1.48,0,0,1-.55-2l42.89-74.28a1.47,1.47,0,0,1,2-.54l.33.18,41.12,23.74,8.16,4.71A1.49,1.49,0,0,1,591,752.85Zm11-29.12a3.71,3.71,0,0,1-5.07,1.36h0l-6.3-3.64-2.38-1.37a3,3,0,0,0-4.05,1.09L582,725a1.47,1.47,0,0,1-2,.54l-20.57-11.87a1.47,1.47,0,0,1-.54-2L570,692.39a1.49,1.49,0,0,1,2-.54l20.56,11.87a1.48,1.48,0,0,1,.54,2l-2.22,3.86a3,3,0,0,0,1.08,4l2.38,1.38,6.3,3.63A3.72,3.72,0,0,1,602,723.73Z"/><path class="cls-2" d="M472.44,978.47a15,15,0,0,0,14.64-15.39c0-.07,0-.13,0-.2l-1.14-29.64a21.76,21.76,0,0,0-22.59-20.92c-.35,0-.71,0-1.06.06l-18,1.58a14.64,14.64,0,0,0-9.94,5.18l-14.58,17.38a1.3,1.3,0,0,0,.15,1.82l10.38,8.71-19.84,23.64,10.83,9.09Zm5.3-10.25-7,2.54L465.09,966l1.29-7.3,7-2.54,5.68,4.77Zm.57-18.24a2.34,2.34,0,1,1-2.34,2.34A2.34,2.34,0,0,1,478.31,950Zm-25.65-25.57a3,3,0,0,1,4.18-.37l2.42,2a.75.75,0,0,0,.82.09,8.79,8.79,0,0,1,1.46-.6l-.17-.15a9.19,9.19,0,0,1,4.07-.35l-.15.17a9.12,9.12,0,0,1,1.55.34.75.75,0,0,0,.79-.23l2-2.43a3,3,0,0,1,4.55,3.82l-2,2.42a.76.76,0,0,0-.09.82,8,8,0,0,1,.6,1.46l.15-.17a9.16,9.16,0,0,1,.35,4.06l-.17-.14a9,9,0,0,1-.34,1.54.75.75,0,0,0,.23.79l2.43,2a3,3,0,1,1-3.82,4.54l-2.42-2a.74.74,0,0,0-.82-.09,9.74,9.74,0,0,1-1.46.6l.17.14a9,9,0,0,1-4.06.36l.14-.17a9,9,0,0,1-1.54-.34.74.74,0,0,0-.79.23l-2,2.42a3,3,0,1,1-4.54-3.81l2-2.42a.75.75,0,0,0,.09-.82,9.74,9.74,0,0,1-.6-1.46l-.14.17a9.05,9.05,0,0,1-.36-4.07l.17.15a9.12,9.12,0,0,1,.34-1.55.75.75,0,0,0-.23-.79l-2.42-2A3,3,0,0,1,452.66,924.41Zm-11-1.51a2.34,2.34,0,1,1-2.35,2.34A2.34,2.34,0,0,1,441.62,922.9Zm-16.16,42.56a2.34,2.34,0,1,1-2.34,2.34A2.34,2.34,0,0,1,425.46,965.46Z"/><path class="cls-2" d="M534.61,871.4l-3.53-2a1.63,1.63,0,0,1-.7-2A35.19,35.19,0,0,1,536,857.7a2.92,2.92,0,0,0,.63-2.13,5.62,5.62,0,0,0-2.74-4.15l-3.11-1.79-1-.58-.3-.14-.42-.1h-.41l-.39.08-.33.15-.13.08A15.35,15.35,0,0,1,504,835.42v-.15l0-.37-.12-.37-.22-.35-.29-.31-.28-.2-1-.58L478,819.16a5.91,5.91,0,0,0-4.54-.59,25.24,25.24,0,0,0-15.18,11.72l-13.3,23a25.21,25.21,0,0,0-2.55,19,6,6,0,0,0,2.77,3.64L501,908.22a5.57,5.57,0,0,0,5,.31,3,3,0,0,0,1.53-1.61,35.48,35.48,0,0,1,5.58-9.67,1.64,1.64,0,0,1,2.09-.38l3.52,2h0l.52.31a1.49,1.49,0,0,0,2-.55l2-3.46,10.39-18,2-3.47a1.47,1.47,0,0,0-.54-2l-.52-.31Zm-84.31-3.78a2.6,2.6,0,0,1-3.55,1l-.9-.52a2.6,2.6,0,0,1,2.6-4.5l.9.52A2.61,2.61,0,0,1,450.3,867.62Zm17.6-43a2.61,2.61,0,0,1,3.55-.95l.9.52a2.6,2.6,0,0,1-2.6,4.5l-.9-.52A2.6,2.6,0,0,1,467.9,824.66Zm-6.81,10.83a3.56,3.56,0,0,1,7.12,0h0a3.56,3.56,0,0,1-7.12,0Zm29,55.12a2.59,2.59,0,0,1-3.54,1l-.9-.52a2.6,2.6,0,0,1,2.59-4.5l.9.52A2.59,2.59,0,0,1,490.13,890.61ZM494,866.27a16.76,16.76,0,0,1-22.9,6.15l-.9-.52a16.77,16.77,0,0,1,16.77-29l.9.52A16.77,16.77,0,0,1,494,866.27Zm3.18-2.1a6.09,6.09,0,1,1,6.08,6.09A6.08,6.08,0,0,1,497.16,864.17Zm6.59,39.07a3.56,3.56,0,1,1,3.56-3.56A3.56,3.56,0,0,1,503.75,903.24Zm4-10.29a2.81,2.81,0,1,1,2.81-2.81A2.8,2.8,0,0,1,507.71,893Zm20.08-32.31a2.6,2.6,0,1,1,2.59-2.6A2.59,2.59,0,0,1,527.79,860.64Z"/><path class="cls-2" d="M540.3,1021.83l-54.84-31.66a4.44,4.44,0,0,0-3.89-.28,12.58,12.58,0,0,0-3.85,2.46l-4.35,4.06-.54.5-2.41,2.25-1,.94-.94,1-.89,1-.85,1-.81,1-.76,1.06-.71,1.08-.65,1.09-19.76,34.22-.22.47-.13.51,0,.52.06.53.16.51.24.48.32.44.4.38.45.31.83.48.19.11,11.85,6.85a6,6,0,0,0,3.12.79c.86,0,1.71-.08,2.57-.18a6.52,6.52,0,0,1,4,.8,33,33,0,0,0,15,4.23,11.87,11.87,0,0,1,5.51,1.58l22.24,12.84a5.94,5.94,0,0,0,8.11-2.17l23.74-41.13A5.93,5.93,0,0,0,540.3,1021.83ZM511.14,1027a2.52,2.52,0,0,1,5,0h0a2.52,2.52,0,0,1-5,0Zm-48.45,9.3a4,4,0,1,1-8,0h0a4,4,0,1,1,8,0Zm3.83-13.58-3.59-6.23,3.59-6.23h7.2l3.6,6.23-3.6,6.23Zm17.33,27.93h-7.19l-3.6-6.23,3.6-6.23h7.19l3.6,6.23Zm6.13-16.25-3.6-6.23L490,1022h7.2l3.59,6.23-3.59,6.23Zm9.29,13.16h0a2.52,2.52,0,1,1,5,0h0a2.52,2.52,0,1,1-5,0Zm13.69,13.3a3,3,0,0,1-4.06,1.09l-3.85-2.23a3,3,0,0,1-1.09-4l17.81-30.84a3,3,0,0,1,4.05-1.09l3.86,2.23a3,3,0,0,1,1.09,4Zm10.63-2.17a2.53,2.53,0,0,1-5.05,0h0a2.53,2.53,0,0,1,5.05,0Zm11.87-20.56a2.52,2.52,0,1,1-5,0h0a2.52,2.52,0,1,1,5,0Z"/><path class="cls-1" d="M532,923.32l-5.81-2.12a7,7,0,0,0-9.36,6.56v1.12a4.88,4.88,0,0,1-1.31,3.33,5.94,5.94,0,0,0-1.59,4v5.69l.67.67h1.14a2.22,2.22,0,0,1,1.14,4.3,2.2,2.2,0,0,1-1.14,0h-1.14l-.67.67v9.22a4.77,4.77,0,0,0,2,3.91l4.61,3.18a7.41,7.41,0,0,1,3.21,6.1v18.07a1.48,1.48,0,0,0,1.48,1.48h0a62.73,62.73,0,0,0,7.24-.6V924.12Zm-8.2,6.81a2.37,2.37,0,0,1-2.37-2.37h0a2.37,2.37,0,1,1,2.37,2.37Z"/><path class="cls-2" d="M606.44,940.24H576.77l-.51,0-.51-.06-.5-.1-.51-.15-.47-.11-1.35-.23-.14-.39-.21-.37-.25-.32-.3-.3-.51-.48-.5-.53-.24-.31-.23-.37-.2-.43-.18-.48-.15-.52-.11-.55-.06-.57,0-.58v-4.8l0-.59.06-.57.11-.55.15-.52.18-.48.2-.42.23-.38.24-.3.5-.53.51-.49.3-.3.25-.32.21-.36.14-.39,1.35-.23.47-.11L575,922l.47-.11.55-.09.62,0h2.6l2.16,0H605a3,3,0,0,0,2.95-2.94V906.11a3,3,0,0,0-2.95-3H558.82a4.4,4.4,0,0,0-2.46.75l-5.8,3.86a4.44,4.44,0,0,0-2,3.69v50.13a4.43,4.43,0,0,0,2,3.69l5.8,3.87a4.47,4.47,0,0,0,2.46.74H605A3,3,0,0,0,607.9,967V941.72A1.48,1.48,0,0,0,606.44,940.24Zm-16-27.83a2.6,2.6,0,1,1,5.2,0h0a2.6,2.6,0,0,1-5.2,0Zm5,49.35a2.6,2.6,0,0,1-5.2,0h0a2.6,2.6,0,0,1,5.2,0Z"/><path class="cls-2" d="M678.84,903.78H628.38a4.46,4.46,0,0,0-4.45,4.46v32.64a3,3,0,0,0,3,3h26.6a7.42,7.42,0,0,0,5.25-2.17L682,918.44a4.42,4.42,0,0,0,1.31-3.15v-7A4.46,4.46,0,0,0,678.84,903.78Zm-10.32,21.83-8,8a1.48,1.48,0,0,1-2.1,0,1.47,1.47,0,0,1-.43-1v-8a1.49,1.49,0,0,1,1.48-1.49h8a1.48,1.48,0,0,1,1,2.54Z"/><path class="cls-2" d="M649.38,1024.16l-36-20.77a4.45,4.45,0,0,0-6.08,1.63l-12.22,21.17a1.49,1.49,0,0,1-2,.54l-15.42-8.9a7.42,7.42,0,0,0-10.14,2.71l-63.58,110.13a7.43,7.43,0,0,0,2.71,10.14l18,10.39a4.45,4.45,0,0,0,6.08-1.63l7-12.15a7.44,7.44,0,0,1,4.51-3.46l35.68-9.56a14.79,14.79,0,0,0,9-6.91l19.56-33.88a29.67,29.67,0,0,1,13.93-12.4,5.31,5.31,0,0,0,2.47-2.19,34.2,34.2,0,0,1,12-12,4.51,4.51,0,0,0,1.59-1.6L651,1030.24A4.45,4.45,0,0,0,649.38,1024.16Zm-122.5,109.32a4,4,0,1,1-4-4,4,4,0,0,1,4,4Zm7.87-16.56a4,4,0,1,1,4-4A4,4,0,0,1,534.75,1116.92Zm35.78-86.29a4,4,0,1,1,8,0h0a4,4,0,1,1-8,0Zm-6.9,16.3a2.6,2.6,0,1,1-2.59,2.59A2.59,2.59,0,0,1,563.63,1046.93Zm-16.52,35.28a4,4,0,1,1,4-4A4,4,0,0,1,547.11,1082.21ZM580.47,1115a2.6,2.6,0,1,1,2.6-2.6A2.6,2.6,0,0,1,580.47,1115Zm7.62-28.19a17.06,17.06,0,0,1-33-3.62,2.92,2.92,0,0,1,.2-1.52,8.86,8.86,0,0,0,.55-5,3,3,0,0,1,.13-1.54,17.07,17.07,0,0,1,32.08,11.66Zm18-14.24a2.6,2.6,0,0,1-5.2,0h0a2.6,2.6,0,0,1,5.2,0Zm11.63-51.84a4,4,0,1,1-8,0h0a4,4,0,1,1,8,0Zm20.56,11.88a4,4,0,0,1-8,0h0a4,4,0,1,1,8,0Z"/><path class="cls-2" d="M704.87,1024.34l-2.88-5a1.49,1.49,0,0,0-2-.49l-.37.21-.23.08h-.25l-.12,0-.11-.06-.1-.08-.07-.09,1-.56.46-.27a1.49,1.49,0,0,0,.54-2l-17.51-30.32a1.49,1.49,0,0,0-2-.55l-.46.27-1,.56h0l0-.12,0-.12v-.13l0-.11.12-.22.19-.16.37-.21a1.49,1.49,0,0,0,.57-2l-2.88-5a3,3,0,0,0-4-1l-21.24,12.27a7.42,7.42,0,0,0-3.46,4.5l-1.66,6.23a7.39,7.39,0,0,0,.74,5.63l17.7,30.66a7.41,7.41,0,0,0,4.5,3.45l6.23,1.67a7.44,7.44,0,0,0,5.63-.74l21.24-12.26A3,3,0,0,0,704.87,1024.34Zm-9.3-3.23,0,.12-.13.21-.19.16-8,4.59a3,3,0,0,1-4.06-1.09l-7.07-12.24a5.5,5.5,0,0,1-2.48-4.3l-7.07-12.24a3,3,0,0,1,1.09-4.06l8-4.58.23-.09h.25l.12,0,.11,0,.1.08.07.1h0l-1,.6-7,4a3,3,0,0,0-1.32,3.54l7.18,12.44.34-.2a4.44,4.44,0,1,1,2.23,3.86l-.34.19,7.17,12.44a3,3,0,0,0,3.73.63l7-4.05,1-.6,0,.1,0,.12Z"/><path class="cls-1" d="M741.21,872.33a19.29,19.29,0,1,1,19.3,19.3,19.3,19.3,0,0,1-19.3-19.3v0Zm23.22-6.51L770.52,878l2.62-4.54-6.09-12.13ZM753,862.3l12.36,24.59,2.62-4.54-12.36-24.59Zm1,21.06,2.62-4.53-6.1-12.14-2.62,4.54Z"/><path class="cls-2" d="M855.1,937.31l-.06-.24-.11-.24-2.59-4.67-2.59-4.65-1.32-2.37-1.33-2.41-2.68-4.82-.39-.66-.41-.65-.44-.63-.45-.62-.48-.6-.51-.58-.52-.57-.54-.54-.4-.35-.43-.3-.46-.26-.48-.21-.58-.2-.6-.16-.61-.13-.61-.09-.63-.05-.64,0-.64,0-.65.05-.65.08-.66.12-.64.16-.64.19-.63.22-.61.26-.6.28-.58.32-5.23,3a3,3,0,0,1-4.05-1.09l-11.88-20.56a4.45,4.45,0,0,0-6.08-1.63l-37.26,21.52a4.45,4.45,0,0,0-1.63,6.08l19.37,33.55a14.89,14.89,0,0,0,6.58,6l4,1.85a5.9,5.9,0,0,1,2.63,2.41l1.81,3.14a5.94,5.94,0,0,0,8.11,2.17l5.49-3.17a1.48,1.48,0,0,0,.55-2l-4.46-7.72a1.48,1.48,0,0,1,.55-2l33.41-19.29,2,.54,3.24,5.62.18.26.22.23.25.18.28.15.3.08.32,0,.3-.06.29-.12,6.21-3.58.21-.14.18-.18.14-.21.09-.24.05-.24Zm-74.89-11a4,4,0,1,1,4-4A4,4,0,0,1,780.21,926.28Zm20.56-11.87a4,4,0,1,1,4-4A4,4,0,0,1,800.77,914.41Zm27.59,17.07-12.85,7.42a3.86,3.86,0,0,1-3.86-6.68l12.85-7.42a3.86,3.86,0,0,1,3.86,6.68Z"/><path class="cls-2" d="M925.23,915.74l-6.31-10.94-11.28-19.54a5.94,5.94,0,0,0-8.11-2.17l-28.27,16.32a5.94,5.94,0,0,0-2.17,8.11l11.27,19.53L886.68,938a6,6,0,0,0,8.11,2.18l28.27-16.33a5.77,5.77,0,0,0,1.62-1.37A5.92,5.92,0,0,0,925.23,915.74ZM905.8,918.9a4.46,4.46,0,0,1-8.91,0v0a4.46,4.46,0,0,1,8.91,0Z"/><path class="cls-1" d="M1003.1,862.76l-.1-.17-14.7-25.77a22,22,0,0,0-29.95-8.2c-.32.18-.62.37-.92.56l-15.24,9.7a14.86,14.86,0,0,0-6.51,9.31l-4.91,22.15,0,.3,0,.33.1.31.17.29a1.51,1.51,0,0,0,.85.54l13,2.89-6.56,29.61-.12.52,14,3.12,44.85-24.82A15.21,15.21,0,0,0,1003.1,862.76Zm-12.91-8a2.6,2.6,0,1,1-2.6,2.59A2.59,2.59,0,0,1,990.19,854.77Zm-45.06-1.89a2.6,2.6,0,1,1,2.6-2.6A2.59,2.59,0,0,1,945.13,852.88Zm5.33,45.21a2.6,2.6,0,1,1,2.6-2.6A2.61,2.61,0,0,1,950.46,898.09Zm18.77-32.88a17.51,17.51,0,1,1,17.51-17.51A17.51,17.51,0,0,1,969.23,865.21ZM992,877l-7-1.56-2.17-6.86,4.86-5.31,7,1.56,2.16,6.86Z"/><path class="cls-2" d="M824.5,792.1h0l-28.27-16.32a1.49,1.49,0,0,0-2,.54L763.73,829.1l-1.38,2.39-1.91,3.3a1.49,1.49,0,0,0,.55,2l28.27,16.32a1.47,1.47,0,0,0,2-.54l1.91-3.3,1.38-2.39L825,794.13A1.49,1.49,0,0,0,824.5,792.1Zm-18.69,23.48-10.32,17.86a4.45,4.45,0,0,1-6.08,1.63l-12.85-7.42a4.45,4.45,0,0,1-1.63-6.08l10.31-17.86a4.45,4.45,0,0,1,6.08-1.63l12.86,7.42A4.46,4.46,0,0,1,805.81,815.58Zm2.33-25.26a2.53,2.53,0,1,1,2.52-2.52A2.52,2.52,0,0,1,808.14,790.32Z"/><path class="cls-2" d="M856.76,731.9l-1.66-6.22a7.41,7.41,0,0,0-3.46-4.51L830.4,708.91a3,3,0,0,0-4,1l-2.88,5a1.48,1.48,0,0,0,.57,2l.36.22.2.15.12.22,0,.12v.12l0,.12,0,.11-1-.56-.46-.27a1.48,1.48,0,0,0-2,.55L803.76,748a1.49,1.49,0,0,0,.54,2l.46.27,1,.56h0l-.07.1-.1.07-.11.06-.12,0h-.25l-.23-.09-.37-.21a1.48,1.48,0,0,0-2,.5l-2.88,5a3,3,0,0,0,1.12,4L822,772.57a7.43,7.43,0,0,0,5.63.75l6.23-1.67a7.42,7.42,0,0,0,4.5-3.46L856,737.53A7.39,7.39,0,0,0,856.76,731.9Zm-18.88-3.6-7.07,12.25a5.52,5.52,0,0,1-2.49,4.3l-7.06,12.24a3,3,0,0,1-4.06,1.08l-8-4.58-.19-.16-.13-.22,0-.12V753l0-.12.05-.12h0l1,.61,7,4a3,3,0,0,0,3.73-.63l7.18-12.44-.34-.2a4.47,4.47,0,1,1,2.22-3.85l.35.2L837.33,728a3,3,0,0,0-1.31-3.54l-7-4.05-1-.6.07-.1.09-.07.12-.06.12,0h.25l.23.09,7.95,4.59A3,3,0,0,1,837.88,728.3Z"/><path class="cls-2" d="M893.09,757.17l-2.28-8.49a6.54,6.54,0,0,0-3-4l-9-5.2a5.34,5.34,0,0,0-7.3,2l-20,34.7a5.34,5.34,0,0,0,2,7.3l9,5.2a6.51,6.51,0,0,0,5,.65l8.49-2.27a6.51,6.51,0,0,0,4-3l12.63-21.88A6.56,6.56,0,0,0,893.09,757.17ZM878.23,766a4.45,4.45,0,1,1-8.9,0h0a4.45,4.45,0,1,1,8.9,0Z"/><path class="cls-2" d="M932.23,786.76h-1.66l0-.12,0-.12.07-.1.09-.09.21-.12.25,0h.42a1.5,1.5,0,0,0,1.49-1.43V779a3,3,0,0,0-3-2.9H905.66a7.41,7.41,0,0,0-5.24,2.18l-4.56,4.56a7.4,7.4,0,0,0-2.17,5.24v35.4a7.42,7.42,0,0,0,2.17,5.25l4.56,4.56a7.4,7.4,0,0,0,5.24,2.17h24.53a3,3,0,0,0,3-2.89v-5.77a1.49,1.49,0,0,0-1.49-1.43h-.42l-.25,0-.21-.12-.09-.09-.07-.1,0-.12,0-.12h1.66a1.48,1.48,0,0,0,1.48-1.48v-35A1.48,1.48,0,0,0,932.23,786.76Zm-5.4,38.1-.05.12-.07.1-.08.09-.22.12-.25,0H917a3,3,0,0,1-3-3V808.23a5.45,5.45,0,0,1,0-5V789.12a3,3,0,0,1,3-3h9.18l.25,0,.22.12.08.09.07.1.05.12v.12h-9.3a3,3,0,0,0-2.92,2.41v14.36h.4a4.45,4.45,0,1,1,0,4.45h-.4v14.35a3,3,0,0,0,2.92,2.41h9.3Z"/><path class="cls-2" d="M894.43,678.28l-10.36-38.7a5.35,5.35,0,0,0-6.55-3.78l-10,2.69a6.51,6.51,0,0,0-4,3l-20.14,34.88a6.54,6.54,0,0,0-.65,5l2.69,10a5.36,5.36,0,0,0,6.55,3.78l38.7-10.37A5.33,5.33,0,0,0,894.43,678.28Zm-34.54,1.25a4.46,4.46,0,0,1-8.91,0v0a4.46,4.46,0,0,1,8.91,0Zm16.79-29.08a4.46,4.46,0,0,1-8.91,0v0a4.46,4.46,0,0,1,8.91,0Z"/><path class="cls-1" d="M1006.71,772.14h-6.38v24a1.49,1.49,0,0,1-1.49,1.48H956.7a1.48,1.48,0,0,1-1.48-1.48v-24h-6.38a4.46,4.46,0,0,0-4.46,4.45v23.74a8.91,8.91,0,0,0,8.91,8.91h49a8.91,8.91,0,0,0,8.9-8.91V776.59A4.45,4.45,0,0,0,1006.71,772.14ZM977.77,805.9a2.6,2.6,0,1,1,2.6-2.6A2.61,2.61,0,0,1,977.77,805.9Z"/><path class="cls-1" d="M994.42,566H918.48a4.46,4.46,0,0,0-4.46,4.45V737.87a4.46,4.46,0,0,0,4.46,4.45h75.94a4.45,4.45,0,0,0,4.45-4.45h0V570.49A4.45,4.45,0,0,0,994.42,566Zm-38,107.14-16.8-11v-8.08l16.8,11Zm16.8-3.83-33.6-22.09v-8.07l33.6,22.08Zm0-14.88-16.8-11v-8.07l16.8,11Z"/><path class="cls-1" d="M1010.7,558.86l-.15-.63-.23-.62L1010,557l-.41-.56-.49-.5-.55-.46-.63-.4-.68-.33-.72-.27-.75-.19-.78-.11-.79,0H915.58a32.2,32.2,0,0,0-7.05.78l-.59.15-.57.19-.57.22-.55.26-.53.29-.51.33-.49.35-.46.4-.44.42-.39.46-.36.48-.3.52-.26.54-.19.57-.12.59-.05.59V747.05l0,.54.1.54.17.52.21.51.27.48.3.46.36.46.41.43.45.42.51.4.54.36.56.33.59.29.61.25.63.2.63.17a32.21,32.21,0,0,0,7.05.79h88.61l.79,0,.78-.12.75-.19.72-.27.68-.33.63-.4.55-.45.49-.51.41-.55.33-.59.23-.62.15-.63,0-.65V559.51ZM994.42,745.29H918.48a7.42,7.42,0,0,1-7.42-7.42V570.49a7.42,7.42,0,0,1,7.42-7.42h75.94a7.42,7.42,0,0,1,7.42,7.42V737.87A7.42,7.42,0,0,1,994.42,745.29Zm9.65,4.83a2.6,2.6,0,1,1,2.59-2.6A2.6,2.6,0,0,1,1004.07,750.12Zm0-186.68a2.6,2.6,0,1,1,2.59-2.6A2.59,2.59,0,0,1,1004.07,563.44Z"/><path class="cls-2" d="M804.88,519.81h-26.6A7.42,7.42,0,0,0,773,522L749.8,545.21a4.45,4.45,0,0,0-1.31,3.15v7.06a4.45,4.45,0,0,0,4.45,4.45H803.4a4.45,4.45,0,0,0,4.45-4.45V522.78A3,3,0,0,0,804.88,519.81ZM773.82,539.1a1.48,1.48,0,0,1-1.48,1.48h-8a1.48,1.48,0,0,1-1-2.53l8-8a1.48,1.48,0,0,1,2.1,0,1.44,1.44,0,0,1,.43,1Z"/><path class="cls-2" d="M882.72,510.23H872.31a6.49,6.49,0,0,0-4.61,1.92l-28.48,28.47a6.55,6.55,0,0,0-1.91,4.62v10.4a5.34,5.34,0,0,0,5.34,5.34h40.07a5.34,5.34,0,0,0,5.34-5.34V515.58A5.35,5.35,0,0,0,882.72,510.23Zm-28.2,36.53a4.45,4.45,0,0,1-8.9,0v0a4.45,4.45,0,1,1,8.9,0ZM878.27,523a4.46,4.46,0,0,1-8.91,0v0a4.46,4.46,0,0,1,8.91,0Z"/><path class="cls-1" d="M916.63,485.72a19.29,19.29,0,0,1,38.58,0v0a19.29,19.29,0,1,1-38.58,0Zm23.21-6.5,6.1,12.13,2.62-4.53-6.1-12.14Zm-11.41-3.52,12.35,24.58,2.62-4.53-12.35-24.59Zm.94,21.06,2.62-4.54-6.1-12.13-2.62,4.54Z"/><path class="cls-2" d="M1010,527.64h-14.1A11.87,11.87,0,0,1,984,515.77V460.86A11.86,11.86,0,0,1,995.86,449H1010a3.71,3.71,0,0,0,0-7.42H937.25a3.71,3.71,0,0,0,0,7.42h14.09a11.86,11.86,0,0,1,11.87,11.87v54.91a11.87,11.87,0,0,1-11.87,11.87H937.25a3.71,3.71,0,1,0,0,7.42H1010a3.71,3.71,0,0,0,0-7.42Zm-1.41-82.37a1.41,1.41,0,0,1,2.82,0h0a1.41,1.41,0,0,1-2.82,0Zm-69.89,0a1.41,1.41,0,0,1-1.42,1.4,1.39,1.39,0,0,1-1.4-1.41h0a1.41,1.41,0,0,1,2.82,0Zm0,86.06a1.42,1.42,0,0,1-1.42,1.41,1.4,1.4,0,0,1-1.4-1.41h0a1.41,1.41,0,0,1,1.41-1.41,1.42,1.42,0,0,1,1.41,1.42Zm34.94-82.88a1.78,1.78,0,1,1-1.78,1.78A1.78,1.78,0,0,1,973.6,448.47Zm3,70.26a3,3,0,0,1-5.94,0V504.41a3,3,0,0,1,5.94,0ZM971.82,497a1.78,1.78,0,1,1,1.78,1.78A1.78,1.78,0,0,1,971.82,497Zm4.75-7.42a3,3,0,1,1-5.94,0V457.89a3,3,0,0,1,5.94,0Zm34.8,41.78a1.41,1.41,0,1,1-2.82,0h0a1.41,1.41,0,0,1,1.41-1.41,1.42,1.42,0,0,1,1.41,1.42Z"/><path class="cls-2" d="M908.8,497.18a1.61,1.61,0,0,0,1.58-1.63,1.69,1.69,0,0,0-.44-1.13,9.15,9.15,0,0,1-2.42-6.21v-14.8a8.93,8.93,0,0,0-3.16-6.84,5,5,0,0,1-1.75-3.79V430.43a5,5,0,0,1,1.75-3.8,8.9,8.9,0,0,0,3.16-6.83V405a9.15,9.15,0,0,1,2.42-6.22,1.65,1.65,0,0,0,0-2.3,1.54,1.54,0,0,0-1.1-.46h-9.5a1.28,1.28,0,0,0-1.26-1.3h-30.4a1.28,1.28,0,0,0-1.27,1.3h-9.49a1.28,1.28,0,0,0-1.27-1.3H813.83a1.28,1.28,0,0,0-1.26,1.3h-9.5a3.21,3.21,0,0,0-3.16,3.27V409a4.92,4.92,0,0,1-2.38,4.24l-12.66,7.54a9.83,9.83,0,0,0-4.75,8.47v15.08a9.83,9.83,0,0,0,4.75,8.47l12.66,7.54a4.92,4.92,0,0,1,2.38,4.24v29.39a3.21,3.21,0,0,0,3.16,3.26h-3.16v3.27a3.21,3.21,0,0,0,3.16,3.26H907.52a3.21,3.21,0,0,0,3.16-3.26v-3.27Zm-25-89.74a3.22,3.22,0,0,1,3.17-3.26h13.61a3.21,3.21,0,0,1,3.16,3.26V418a3.22,3.22,0,0,1-3.16,3.27,3.07,3.07,0,0,1-1.59-.44l-12.82-7.63a4.94,4.94,0,0,1-2.37-4.24Zm-39.56,0a3.21,3.21,0,0,1,3.16-3.26h28.49a3.21,3.21,0,0,1,3.16,3.26V409a4.91,4.91,0,0,1-2.37,4.24L864,420.73a4.65,4.65,0,0,1-4.75,0l-12.66-7.54a4.91,4.91,0,0,1-2.37-4.24Zm-39.57,0a3.22,3.22,0,0,1,3.17-3.26H836.3a3.22,3.22,0,0,1,3.17,3.26V409a4.94,4.94,0,0,1-2.37,4.24l-12.66,7.54a4.65,4.65,0,0,1-4.75,0L807,413.19a4.92,4.92,0,0,1-2.38-4.24Zm-4.74,48.61-12.66-7.53a5,5,0,0,1-2.38-4.24V429.2a5,5,0,0,1,2.38-4.24l12.66-7.53a4.59,4.59,0,0,1,4.74,0L817.31,425a5,5,0,0,1,2.38,4.24v15.08a5,5,0,0,1-2.38,4.24l-12.66,7.53A4.59,4.59,0,0,1,799.91,456.05Zm39.56,23.55a4.94,4.94,0,0,1-2.37,4.24l-12.66,7.54a4.65,4.65,0,0,1-4.75,0L807,483.84a4.92,4.92,0,0,1-2.38-4.24V464.53a4.92,4.92,0,0,1,2.38-4.24l12.66-7.54a4.65,4.65,0,0,1,4.75,0l12.66,7.54a4.94,4.94,0,0,1,2.37,4.24Zm0-23.55-12.66-7.53a4.94,4.94,0,0,1-2.37-4.24V429.2a4.94,4.94,0,0,1,2.37-4.24l12.66-7.53a4.6,4.6,0,0,1,4.75,0L856.88,425a4.94,4.94,0,0,1,2.37,4.24v15.08a4.94,4.94,0,0,1-2.37,4.24l-12.66,7.53A4.6,4.6,0,0,1,839.47,456.05ZM879,479.6a4.91,4.91,0,0,1-2.37,4.24L864,491.38a4.65,4.65,0,0,1-4.75,0l-12.66-7.54a4.91,4.91,0,0,1-2.37-4.24V464.53a4.91,4.91,0,0,1,2.37-4.24l12.66-7.54a4.65,4.65,0,0,1,4.75,0l12.66,7.54a4.91,4.91,0,0,1,2.37,4.24Zm0-23.55-12.66-7.53a4.94,4.94,0,0,1-2.37-4.24V429.2a4.94,4.94,0,0,1,2.37-4.24L879,417.43a4.6,4.6,0,0,1,4.75,0L896.44,425a4.94,4.94,0,0,1,2.37,4.24v15.08a4.94,4.94,0,0,1-2.37,4.24l-12.66,7.53A4.6,4.6,0,0,1,879,456.05Zm24.69,32.6a3.21,3.21,0,0,1-3.16,3.26,3.07,3.07,0,0,1-1.59-.44l-12.82-7.63a4.94,4.94,0,0,1-2.37-4.24V464.53a4.94,4.94,0,0,1,2.37-4.24l7.92-4.71a3.11,3.11,0,0,1,4.32,1.19,3.34,3.34,0,0,1,.42,1.64v4.37a8.9,8.9,0,0,0,3.16,6.83,5,5,0,0,1,1.75,3.8Z"/><path class="cls-2" d="M16.2,515.44q0,18.62,0,37.22c0,2.77.43,5.7-4,5.7-4.13,0-5.93-1.65-6.08-5.84-.34-9-.76-18.07-1.54-27.08C3.31,510.26,1.68,495.12.24,480c-.08-.86-.12-1.73-.12-2.6,0-29.29-.35-58.58.13-87.87C.49,374.71,2.13,360,3.1,345.18c.57-8.77,1-17.55,1.58-26.32.48-7.51,1-15,1.58-22.53.32-3.79,3.36-6.7,6.24-6.19,3.7.65,3.7,3.56,3.7,6.43q0,37,0,74a17.87,17.87,0,0,0,.25,3.18c.78,4.32,2.77,5.77,7.61,5.89,3.8.09,7.6-.09,11.39.08,1.69.07,4,.14,4.9,1.19,3.33,4,7.65,3.29,11.89,3.3,6.08,0,12.16-.06,18.24,0,4.31.07,8.32-.05,12.15-2.89,2-1.45,5.2-1.25,7.88-1.67,4.86-.77,10.1,1.63,14.74-1.85.37-.28,3.3,1.43,3.4,2.38,1.41,13.69,3.39,27.4.74,41.16a24.37,24.37,0,0,0-.38,4.82c.45,8.19,1.27,16.38,1.32,24.57,0,6-1,12-1.46,18-.24,2.85-2.13,3.57-4.2,2.58-6.43-3.11-13.24-2.57-20-2.64-1,0-2.25.08-3-.45-10.08-7.52-21.59-2.84-32.41-3.92a1.58,1.58,0,0,0-1.16.34c-7,5.4-15.44,3.27-23.3,4.42-7.13,1-8.62,3.39-8.64,10.72C16.18,491.64,16.2,503.54,16.2,515.44Zm23-106.52a1.09,1.09,0,0,0-.26,0c-3.58,0-7.39,0-9.19,1.8-3.59,3.61-5.6,6.24-7.46,11-1.24,3.07-.44,7.57,2,10.45,1.53,2.68,7.53,9.16,15.14,8.42,7.38-.71,16.54-9.05,15.11-16.12-1-4.88-3.95-9.67-7.11-13.64C46.06,409.07,42.07,409.45,39.17,408.92Zm30.71,50.55.3,0c3.67,0,8-.95,10.22-3.13,3.37-3.38,7.4-8.54,7-12.58-.47-5.17-4.6-10.3-8-14.75-1.19-1.54-5-1.31-7.69-1.36-9.14-.16-18,7.06-17.16,15.14.52,4.84,3.49,9.81,6.55,13.82C62.43,458.37,66.33,458.9,69.88,459.47Zm-.58-38.28c4.48.3,9,.21,10.71-1.59,3.45-3.73,7.37-8.81,7.43-13.38s-3.88-9.54-7.12-13.48c-1.37-1.66-5.43-1.59-8.24-1.48-3.85.16-8.83-.17-11.22,2-3.24,3-6.07,8.06-6.15,12.3s2.7,9.21,5.68,12.56C62.43,420.42,67,421.19,69.3,421.19ZM30.14,463.6h.23c3.16-.4,6.86.06,9.29-1.49,3-1.93,5.61-3.86,9.44-3.63.82,0,2.43-1.67,2.5-2.66.24-3.36-4.44-8.19-7.85-8.38-2.51-.15-5.07.26-7.53-.1-5.9-.87-9,2-11.46,7C20.29,463.29,20.07,463.22,30.14,463.6Zm1.54-77s-2.86-.31-3-.05l-3.4.29a2.45,2.45,0,0,0-2,3.42c.88,2,1.71,4,2.54,6.13,2.16,5.35,6.2,6.77,11.52,6.09,1.75-.22,3.54,0,5.32-.05,3.93-.13,9.15-5.41,9-9.12,0-.63-.51-1.63-1-1.78A178.79,178.79,0,0,0,31.68,386.57Zm67.18,38.48h0c0-4.27.18-8.55-.06-12.81-.15-2.73-2.66-3.68-4.7-2.05-.17.14-.23.43-.35.64-2.47,4.32-5.23,8.5-7.3,13-1.2,2.59,6.52,15.36,9.51,16.1.75.18,2.7-1.28,2.75-2.07C99,433.61,98.86,429.32,98.86,425.05Zm.06,30.55A9.68,9.68,0,0,0,97.77,449a1.64,1.64,0,0,0-2.16-.81,9,9,0,0,0-3.25,2c-1.42,1.64-2.15,3.89-3.13,5.89-.65,1.31-1.27,2.63-1.89,3.94a1.66,1.66,0,0,0,1.12,2.31,22.73,22.73,0,0,0,4.93.8C98.9,463.21,98.9,463.07,98.92,455.6Zm.56-60.29,0-.58c0-.49.25-1.63.07-1.68.07-1.89,1.44-4.71-.64-5.55-1.26-.5-1-1.11-3.55-.87-1.24.11-2.41.23-3.54.4a4,4,0,0,0-3.16,5.46c.35.86.67,1.31,1.21,2.45.32.68.29.69,1,2s2.45,6.63,6.24,5C98.58,401.3,98.78,397.74,99.48,395.31Z"/><path class="cls-2" d="M552.73,171.33c5.63-.16,8.13,3,6.81,8.58-3.22,13.5-3.29,13.61,8.17,20.75,5.73,3.57,11.84,6.51,17.67,9.94,4.7,2.77,8.59,1.62,12.21-1.9,1.45-1.41,2.83-2.9,4.32-4.26,4.14-3.78,6.66-3.52,9.74,1.09,3.44,5.15,4.74,10.39.47,15.85a22.71,22.71,0,0,0-3,5.23c-1.25,2.93-3,4.32-6.35,5.33s-6.67,4.33-8.9,7.42a122.69,122.69,0,0,0-10.39,17.35c-1.79,3.62-2.06,8-3.45,11.81-1.26,3.52-2.65,7.19-4.92,10-.93,1.17-4.65,1.12-6.56.33a109.21,109.21,0,0,1-13.19-7.05c-2.88-1.72-4.71-2.12-6.35,1.67-1.49,3.41-4.43,3.28-7.43,1.39-4.65-2.94-9.36-5.78-14.09-8.58-2.65-1.56-3.5-3.3-1.59-6.12,1.79-2.63,1.94-4.85-1.85-6.29-2.76-1-5.11-3.12-7.76-4.51-9.8-5.15-10.81-11.86-1.64-18,4.34-2.89,6.56-6.43,8.81-10.59,2.86-5.26,6-10.41,9.21-15.44A16.83,16.83,0,0,0,535,193.08C533.5,183.53,543.13,171.61,552.73,171.33ZM556.35,261c15.48,2,28.28-13.09,27.71-27.64-.64-16.6-12.15-27.74-27.7-27.46s-26.9,10.91-27.71,27.86C528,248.54,541.39,262.55,556.35,261Z"/><path class="cls-2" d="M872,949.29c-.7.63-1.23,1.37-1.6,1.62-13,9-26,17.79-38.78,27-25.37,18.4-52.64,33.67-79.93,48.9q-31.14,17.37-62.93,33.57c-13.79,7.06-28.08,13.17-42.12,19.76-2.91,1.37-5.37,2.6-7.35-1.53s.64-5.26,3.38-6.84q31.8-18.39,63.56-36.89c5.53-3.23,6.53-6.61,3.71-12.51-1.18-2.47-3.09-4.6-4.19-7.1-1.42-3.23-4.5-6-2.24-10.4.68-1.31-.39-3.93-1.3-5.59-3.61-6.58-7.26-13.15-11.35-19.43-1.78-2.74-3.15-5.94-7.4-6.92-2.34-.53-4.07-4.13-5.87-6.5-3-3.94-5.52-8.21-8.71-11.94-2.6-3-.68-4.8,1.33-6.19,6.69-4.66,13.42-9.32,20.44-13.45,4.66-2.75,10-4.36,14.76-6.92,2.52-1.34,4.35-4,6.83-5.41,8-4.65,16.12-9,24.23-13.47,1.52-.83,3.29-1.2,4.87-1.93,6-2.76,5.86-2.75,7.66,3.36.62,2.1,2.11,3.94,3.18,5.92,2.83,5.26,6.39,10.22,5.86,16.73a9.82,9.82,0,0,0,1.46,5c3.28,6.19,6.53,12.42,10.21,18.39a21.2,21.2,0,0,0,8.35,8c3.91,2.11,6.16,7.56,8.75,11.78,4.34,7.08,7.17,7.77,14.36,3.62,18.84-10.88,37.77-21.6,56.66-32.39,2.6-1.49,5-3.32,7.77-4.5a5.17,5.17,0,0,1,7,3.75c0,.16-.17,1-.1,1.18ZM741.86,967.37a4,4,0,0,0,1.66,0c2.94-.69,6.71-.85,8.36-2.8,3.25-3.86,6.9-9,6.8-13.59s-3.91-9.67-7.29-13.48c-1.62-1.83-6-1.69-9.09-1.59-3.31.11-7.83.14-9.59,2.15-3.3,3.78-6.92,9-6.82,13.56s3.93,9.65,7.27,13.5C734.7,966.85,738.43,966.73,741.86,967.37Zm-33,18.21a4.05,4.05,0,0,0,1.59,0c3.45-.67,7.43-.58,9.14-2.51,3.19-3.57,6-8.43,6.66-13.07,1-7.09-9-16.27-16.43-15.93-3.35.16-7.83.53-9.71,2.66-3.34,3.78-6.93,9-7,13.58,0,4.26,3.8,9.15,7.11,12.66C702.05,984.87,705.79,984.92,708.89,985.58Zm34.87-12.42a4,4,0,0,0-1.73,0c-3.55.71-7.38.66-9.29,2.55-3.42,3.39-7.55,8.33-7.41,12.47.18,4.88,3.95,10.17,7.44,14.16,1.82,2.08,6.39,2.26,9.74,2.32,3.09,0,7.37-.18,9.06-2.11,3.33-3.81,7-8.81,7.21-13.44.16-4.33-3.39-9.39-6.56-13C750.52,974.07,746.78,973.89,743.76,973.16Zm-30.69,18.72a4.38,4.38,0,0,1-.81.1c-6.57,0-6.59.25-4.31,6.21.52,1.36,1.45,2.9,1.22,4.18-1.22,6.68,3.2,11.28,5.65,16.62,1.36,3,2.92,3,5.14,1,5.71-5.13,7.09-12.27,3.62-19.16a27,27,0,0,0-2.07-4C719.28,993.8,716.77,991.14,713.07,991.88Zm60.43-6.53c-1.53-.13.94.32,2.88.32s2.09-.3,3.91-.9c1.09-.36,2.62-2.87,2.28-3.5-2.13-3.91-4.12-8.26-7.36-11.1-3.08-2.72-7-6.5-9.59-7.56-1.89-.68-3.19-.83-3.41-.67-3.53,2.52-4.92,6-3.8,9.18,1,4.63,4,9.2,7.26,12.8C767.2,985.6,770.56,985,773.5,985.35Zm-63.94-36.91c7.68.09,16.15-7.75,17-15.67.38-3.38-1.26-4.62-4.58-2.84-6.37,3.41-12.57,7.15-18.75,10.9l-.3.19a3.77,3.77,0,0,0,.25,6.37,14.68,14.68,0,0,0,1.85,1C706.33,948.89,708,948.44,709.56,948.44Zm-15.6,4.9a3.43,3.43,0,0,0,.53-2.22c-.33-2.55-2.41-3.64-4.93-2.49a44.36,44.36,0,0,0-8.27,5c-1,.76-2.09,3-1.67,3.83a49.68,49.68,0,0,0,5.39,7.6c.18.22,1.68-.11,2-.56C689.46,960.68,691.82,956.8,694,953.34Zm47-24.75a4.86,4.86,0,0,0,.93.14,42.15,42.15,0,0,0,6.26-.09,4.75,4.75,0,0,0,2.47-1.87c-1.41-2.89-2.68-6-4.85-8.27-.78-.81-4.22.1-5.84,1.16-2.73,1.77-8.26,1.66-7.46,6.11C733.41,930.9,738.27,928,741,928.59Z"/><path class="cls-2" d="M563.12,101.11c3.41-.31,5.84,1.1,8,3.58,5.51,6.44,9.39,14.07,12.48,21.62,4.56,11.17,7.09,23.18,10.28,34.89,1.3,4.77-4.84,7.15-11.25,8.17-5.46.87-9.17,1.95-13.17,2.6-6.11,1.3-5.9-.29-6.6-2.31-1.6-4.62-.79-10.77-4.83-13.72s-9.48.32-14.35.34c-7.1,0-13.9-1.81-20.95-2-6.23-.14-11.5-9.12-9.39-15.15,3.72-10.64,10.55-19.66,15.92-29.44,1.46-2.66,4.37-4.88,7.26-4.93C545.55,104.64,554.44,103.82,563.12,101.11Zm4,14.65c-.12-3.85-2-6.59-5.2-6.54-3,0-6.68,1-7,5.24-.29,3.85,1.86,6.23,5.58,6.6C564.41,121.45,566.27,118.9,567.11,115.76ZM554,145.9a6.51,6.51,0,0,0-.78-6.84,5.73,5.73,0,0,0-5.3-2.54c-3.67.31-5.34,3.16-5.2,6.95.18,4.57,3.51,5,6.77,4.95A4.79,4.79,0,0,0,554,145.9Zm-12.66-34c-4.62,0-7.44,1.84-7.48,5.49,0,3.24,2.57,5,6,5.32,4,.43,5.59-2,5.73-5.1S544.52,111.68,541.29,111.91Zm-15.15,35c3.76.13,5.63-2,5.73-5,.1-3.29-2.21-5.46-5.71-5.55s-6,1.95-6,5.22C520.06,145,522.13,147.1,526.14,146.94ZM574,136.7c-.53-2.17-1.12-3.81-3.59-3.34-2,.37-3.47,1.51-3,3.48a3.35,3.35,0,0,0,4.09,2.45C573.05,139,574,138.2,574,136.7Zm5.23,22.47c0-1.54-.12-3-2.23-3s-3.5,1-3.53,2.92,1.5,2.91,3.44,3C579,162.19,579.17,160.74,579.19,159.17Z"/><path class="cls-2" d="M845.28,873.21c-4.81,2.7-7.33,4.89-.4,8.26-5.91-1.21-11,.28-16.16-1.28-5.84-1.76-8.33-5.33-8.4-10.83a40.54,40.54,0,0,0-4-17.34c-3.07-6.38-1.64-11.64,3.34-16.77,5.73-5.91,10.4-12.85,16.09-18.79,8.24-8.59,17.63-7.09,22.87,3.75,3.88,8,7.66,16.34,9.79,24.95,1.57,6.33,4.68,6.49,9.14,5a22.14,22.14,0,0,1,7.45-.79c4.25,0,6.52,2.34,6.56,6.58A76.49,76.49,0,0,0,893,872.41c1,4.34-.51,8.14-5.81,8.72-9.94,1.07-19.87,2.17-29.83,3C847.05,885.06,847,884.88,845.28,873.21Zm-12.81-13.37c-2.68,1.41-4.9,3.25-4.76,7.25s2.22,5.06,5.83,5.09c4.41,0,5.93-3.26,6-6.27C839.62,862.41,836.54,860.5,832.47,859.84Zm28.18-14.12c-.55-3.45-1.76-6.63-5.55-6.88s-5.78,2.33-6,6.1c-.24,3.47.73,5.69,4.83,6S859.67,848.81,860.65,845.72Zm-26.73-.25c-1.13-1.53-.38-5.27-4.84-5.36-3.78-.09-6.81,1.39-7.11,5s2.59,5.58,6.37,5.71C831.5,851,833.8,850.11,833.92,845.47Zm18.23-21.16c-.74-2.63-1.12-5.6-5.29-5.5-3.78.09-6.61,1.79-6.67,5.42-.06,3.15,2.42,5,5.94,5.38C850.06,830,851.28,827.65,852.15,824.31ZM882.51,866c0-1.57-.2-3-2.32-2.91-1.94.11-3.48,1.06-3.44,3s1.59,2.89,3.55,2.91S882.5,867.5,882.51,866Zm-22.94,1.43a2.83,2.83,0,0,0-3.1-2.58c-1.87.19-2.86,1.75-2.75,3.71s1.71,2,3.2,2C858.61,870.59,859.81,870.07,859.57,867.39Z"/><path class="cls-2" d="M80.59,635.58c.17-5.22-2.3-6.43-7-6.36-12.41.19-24.83.35-37.23-.06-6.39-.2-8.56,2.93-8.95,8.43-.17,2.27,0,4.56-.05,6.83,0,15.11,0,15.11-14.81,15.27-9,.09-11,2.09-11,11.15q0,30.78,0,61.55c0,21,.1,42.05-.06,63.07,0,6.12,2.42,8.84,8.57,8.6,5.31-.22,10.63,0,16,0,8.84,0,9.34-.08,8.76-8.84-.62-9.37,2.62-16.46,9.46-22.64,6.57-5.93,12.51-12.56,18.92-18.69a15.92,15.92,0,0,0,5.28-12.7c-.27-10.38.11-20.77-.15-31.15-.19-8.17.74-15.91,5.21-23,2-3.23.52-4.54-2.93-4.51-5.06,0-10.14-.18-15.19,0-3.81.18-5.6-.92-5.33-5.07.24-3.71-.07-7.33,5.27-7.24s10.64,0,16,0c7-.07,9-1.79,9.19-8.81C80.68,652.81,80.33,644.19,80.59,635.58ZM59.32,692.7a2.14,2.14,0,1,1-2.14,2.14A2.14,2.14,0,0,1,59.32,692.7Zm0,35a2.14,2.14,0,1,1-2.14,2.14A2.14,2.14,0,0,1,59.32,727.71ZM39.44,641.54c2.47-.24,3.16.82,3.11,2.58,0,1.45.14,3.08-2,3.27s-3.53-.82-3.79-2.65A2.86,2.86,0,0,1,39.44,641.54ZM12.5,670.4c1.48-.14,2.36.43,2.49,1,.23,2.5-.48,3.35-2,3.38a2,2,0,0,1-2.22-2.32C10.81,671.35,11.22,670.52,12.5,670.4ZM9.94,694.84A2.14,2.14,0,1,1,12.08,697,2.14,2.14,0,0,1,9.94,694.84ZM13.28,731c-1.77.07-2.56-.71-2.54-2.22s.92-2.22,2.43-2.11a1.84,1.84,0,0,1,1.92,1.85C14.69,730,14.2,730.73,13.28,731Zm6.5,61.69a2.78,2.78,0,0,1-3-2.91c-.05-2,.92-3.5,2.83-3.62a2.84,2.84,0,0,1,3,2.64C22.87,791.56,21.41,792.67,19.78,792.66Zm.06-23.86c-2,.07-3-1.49-3.06-3.43s1-3.51,2.91-3.58,2.89,1.52,3.09,3.37C22.7,767.17,21.77,768.74,19.84,768.8Zm33.32-50.56c-.48,9.14-6.85,16.71-16.82,15.94C24.22,734,21,727.6,20,718c-.94-8.76,7.59-16,17-15.86C45.84,702.26,53.61,709.66,53.16,718.24Zm8.68-73.07a1.84,1.84,0,1,1,1.83-1.83A1.83,1.83,0,0,1,61.84,645.17Z"/><path class="cls-2" d="M558.34,62.9c-3.54-4.38-5.88-9.89-11.89-12.08-4-1.47-6.86-4.87-9.05-8.52C530.73,31.18,524.21,20,517.6,8.83c-4.72-8-10.5-10.8-19.34-7.44A140.24,140.24,0,0,0,462.75,21.7c-7.19,5.53-7.75,12.21-3.42,20.4,3.14,5.94,6.89,11.58,9.92,17.57,4.43,8.79,12.27,16.22,11.74,27-.34,6.88,2.23,12.71,5.22,18.51.87,1.68,1.52,4.1,4.27,3.12,2.23-.78,2.5-2.73,2.69-4.88C494,94,495.48,92.37,505,90.19a.06.06,0,0,1,.07,0c1,2.83-.44,6,1.36,9.32a.07.07,0,0,0,.08,0l16.83-9.48a.06.06,0,0,0,0-.1c-2.44-1.7-5-2.79-4.13-5.91a3.32,3.32,0,0,1,3.23-2.72c3.1.07,4.65,1.3,3.62,4.82-.36,1.2,1.66,1.32,2.11.91,4-3.67,10.48-4,13.84-9.56a.05.05,0,0,0,0-.08l-10.37-3a.05.05,0,0,1,0-.09c6.48-5.54,12.41-9.8,20.35-4,2.27,1.66,4.66,1,6.73-.76C561.36,67.26,559.77,64.67,558.34,62.9ZM462.16,36.25c-2.19.06-3.57-1-3.6-3.27s1.64-3.44,3.83-3.38a3.32,3.32,0,0,1,3.37,2.29v0C465.92,34.2,464.57,36.19,462.16,36.25ZM503.88,6c.72-2.53,2.52-3.17,3.45-3,1.84.3,4.14,1.16,4.13,3.79a3.81,3.81,0,0,1-4.73,3.64A3.5,3.5,0,0,1,503.88,6Zm-15.43,89a2.23,2.23,0,1,1,2.23-2.23A2.23,2.23,0,0,1,488.45,95.06Zm30-33.46a28.44,28.44,0,0,1-30.09,6.56C477,63.7,470.54,54.83,470.32,41c-1.11-5,2.15-8.3,6.45-10.85,6.86-4.05,13.87-7.83,20.71-11.91a13.67,13.67,0,0,1,12.78-1.08c4.67,1.72,7.12,7.32,13,6.88.82-.06,2.74,2.78,2.64,4.18C525.12,39.69,527.93,51.79,518.47,61.6Zm29.32.27A2.24,2.24,0,1,1,550,59.63,2.23,2.23,0,0,1,547.79,61.87Z"/><path class="cls-1" d="M500.4,1154.23c-7.55-4.39-15.17-8.67-22.74-13-3.61-2.07-6.15-4.48-6.43-9.3-.73-12.92.68-25.81,2.14-38.44,1.67-14.46,3.58-17.12-11-24.18-.68-.33-5.44-2.82-6.26-3.36-5.41-3.57-5.79-4.9-9.52-4.49-4.32.47-4.82,7.49-7.6,11.34-5.66,7.8-5,11.23,3.16,16.29,4.19,2.59,4.75,5.66,5.06,9.93.57,7.89-1.63,15.5-1.76,24.93-.89,5.1,1.58,9.9,7.62,13.28q21.54,12.06,42.83,24.59c3.42,2,5.38,1.65,7.57-1.8C506.26,1155.67,502.5,1155.45,500.4,1154.23Zm-37.52-68.69a1.19,1.19,0,1,1-1.19,1.19A1.18,1.18,0,0,1,462.88,1085.54Zm-11.72,27.86a1.19,1.19,0,1,1,1.18-1.18A1.18,1.18,0,0,1,451.16,1113.4Zm.76-19.82a1.19,1.19,0,1,1,1.19-1.18A1.18,1.18,0,0,1,451.92,1093.58Zm-.38-8.92c-1.56.21-5.17-3-6.68-5.05-.47-.64.6-2.48,2.55-3.8,1.55-1,8.45,3.28,8.73,5.22A5.82,5.82,0,0,1,451.54,1084.66ZM457,1109.1c-2.55,0-2.51-2.13-2.31-3.83.39-3.34.73-6.88.91-10.13a2.5,2.5,0,0,1,2.06-2.33c8.07-1.41,6.15,2.79,6.14,4.9,0,1,0,2,0,3l.22,0c-.24,2.46.13,5.22-.88,7.3C462.05,1110.33,459.15,1109.13,457,1109.1Zm8.22,5.48a1.18,1.18,0,1,1,1.18-1.18A1.18,1.18,0,0,1,465.24,1114.58Z"/></g></g></svg>