<svg xmlns="http://www.w3.org/2000/svg" viewBox="0 0 861.6 988.55"><defs><style>.cls-1{fill:#d61e39;}.cls-2{fill:#231f20;}</style></defs><g id="Layer_2" data-name="Layer 2"><g id="Layer_2-2" data-name="Layer 2"><path class="cls-1" d="M66.41,729.47l-5-18.63a12.6,12.6,0,0,0-5.88-7.65l-13.3-7.68a18.66,18.66,0,0,0-25.5,6.83c-.15.26-.29.53-.43.8L4.78,725.57A12.94,12.94,0,0,0,10.37,743l.15.07,39,19.41,11.82-3.16-.12-.44L54.55,734l11-2.94a1.26,1.26,0,0,0,.7-.5l.14-.24.07-.28,0-.27Zm-50.94-11a2.21,2.21,0,1,1-2.21,2.21A2.2,2.2,0,0,1,15.47,718.45Zm5.14,17.35-5.91,1.59-4.33-4.33L12,727.15l5.91-1.58,4.33,4.33Zm12.3-9.24a14.89,14.89,0,1,1,14.88-14.89A14.89,14.89,0,0,1,32.91,726.56Zm17.71,27.21a2.21,2.21,0,1,1,2.2-2.21A2.21,2.21,0,0,1,50.62,753.77Zm2.84-38.59A2.21,2.21,0,1,1,55.67,713,2.2,2.2,0,0,1,53.46,715.18Z"/><path class="cls-2" d="M81.82,672.28l-6.6-27.14a3.78,3.78,0,0,0-1.71-2.33l-5.12-3.12a3.78,3.78,0,0,0-5.2,1.26l-22.3,36.63a3.78,3.78,0,0,0,1.26,5.2l23.71,14.43a2.52,2.52,0,0,0,3.46-.84l11.76-19.32A6.28,6.28,0,0,0,81.82,672.28Zm-6-3.29a1.25,1.25,0,0,1-1-.15L69,665.29a1.26,1.26,0,0,1-.42-1.73l3.55-5.83a1.26,1.26,0,0,1,1.73-.43,1.28,1.28,0,0,1,.57.78l2.29,9.39A1.26,1.26,0,0,1,75.83,669Z"/><path class="cls-2" d="M302.63,564.45,289.75,557a97.31,97.31,0,0,0-22.6-9.5,50.54,50.54,0,0,1-11.68-4.9l-51.92-30a35.18,35.18,0,0,0-24.51-4l-48.27,9.67a12.62,12.62,0,0,0-8.45,6.06L80.11,597.44a12.62,12.62,0,0,0-1,10.34l15.76,46.64a35.14,35.14,0,0,0,15.74,19.21l51.92,30a50.57,50.57,0,0,1,10.09,7.66,98.19,98.19,0,0,0,19.52,14.83L205,733.54A5,5,0,0,0,211.7,732h0l93-161h0A5,5,0,0,0,302.63,564.45ZM92,588.31l-.08.45-.14.44-.18.42-.23.39-.28.36-.31.33-.36.29-.39.23-.21.09-.22.07-.22,0-.23,0h-.22l-.23,0A1.42,1.42,0,0,1,88,591l-.15-.18-.12-.19-.09-.21-.07-.21,0-.23,0-.22v-.46l.07-.45.12-.44.18-.42.23-.39.27-.37.31-.34.35-.29.39-.24.2-.09.22-.08.22-.05.23,0h.22l.23,0,.22.07.2.09.19.13.17.16.14.18.11.2.09.21.07.22,0,.22,0,.23Zm63-30.09.07-.45.13-.43.18-.42.22-.4.27-.37.31-.33.35-.3.39-.23.21-.1.21-.07.22-.06.23,0H158l.22,0,.22.06.21.1.19.13.16.15.14.18.12.2.09.21.06.22,0,.22,0,.23v.46l-.08.45-.13.43-.18.42-.24.39-.27.37-.32.33-.35.28-.39.23-.21.1-.22.07-.22,0-.23,0h-.23l-.22,0a1.47,1.47,0,0,1-.68-.4l-.15-.17-.12-.2-.1-.2-.07-.22-.05-.22,0-.23Zm-37.14-21.44.06-.45.13-.44.18-.42.23-.4.27-.37.31-.33.35-.29.38-.24.21-.1.22-.07.22,0,.23,0h.22l.23,0,.22.06.2.1.19.13.17.16.14.18.11.2.09.21.06.21,0,.23,0,.23v.45l-.08.45-.14.44-.18.41-.23.4-.28.36-.31.33-.36.29-.39.23-.21.09-.22.07-.22,0-.23,0h-.22l-.23,0a1.5,1.5,0,0,1-.68-.39l-.15-.18-.12-.19-.09-.21-.07-.22,0-.22,0-.22Zm-5.66,66.74-.59-.14-.59-.15-.58-.17-.58-.19-.56-.21-.53-.43-.51-.46-.49-.47-.47-.49-.45-.52-.43-.52-.41-.55-.39-.56-.37-.58-.35-.59-.33-.6-.31-.61-.3-.62-.27-.63-.48-1.28-.22-.65-.19-.65-.32-1.33-.25-1.34-.2-1.35-.15-1.36-.13-1.36-.12-1.36-.14-1.36,19.45-33.69,1.25-.56,1.23-.58,1.25-.57,1.26-.54,1.27-.51,1.28-.45,1.31-.38.66-.17.67-.14,1.35-.22.68-.08.69-.05.68,0h1.37l.68,0,.69.06.67.08.68.11.66.13.67.16.65.19.65.21.64.25.46.38.46.4.44.42.42.44.41.44.4.47.74,1,.67,1,.62,1,.54,1.08.49,1.11.43,1.14.36,1.16.31,1.17.26,1.19.2,1.19.15,1.21.1,1.21.05,1.21v1.21l0,1.22-.08,1.21-.11,1.2-.16,1.21-.2,1.19-.23,1.19-.27,1.19-.31,1.17-.33,1.17-.37,1.15-.41,1.15-.43,1.13L146,580l-.5,1.11-.52,1.1a46.93,46.93,0,0,1-3,5.19l-.69,1-.71,1-.74,1-.76,1-.79.92-.82.9-.84.87-.86.85-.89.83-.92.79-.94.77-1,.74-1,.71-1,.67-1,.64-1,.6-1.08.56-1.1.52-1.11.47-1.14.42-1.15.38-1.18.31-1.18.27-1.2.19-1.2.14-1.21.06h-1.22l-1.21-.08-1.2-.16Zm17,5.78v.46l-.08.45-.13.44-.18.41-.24.4-.27.36-.32.33-.35.29-.39.23-.21.09-.22.07-.22,0-.23,0H126l-.22,0a1.39,1.39,0,0,1-.68-.4l-.15-.17-.12-.19-.1-.21-.07-.22,0-.22,0-.23v-.45l.07-.45.13-.44.18-.42.22-.4.27-.37.31-.33.35-.29.39-.24.21-.1.21-.07.23-.06.22,0h.23l.23,0,.21.06.21.1.19.13.16.16.14.18.12.19.09.21.06.22,0,.23ZM186,699.45a3.47,3.47,0,0,1-6.93,0h0a3.47,3.47,0,1,1,6.93,0ZM197.36,720a3,3,0,1,1,3-3A3,3,0,0,1,197.36,720Zm51.25-77.79a6.56,6.56,0,0,1-13.12,0h0a6.56,6.56,0,0,1,13.12,0ZM257.86,570,187.39,692a3.79,3.79,0,0,1-3.91,1.84,5.65,5.65,0,0,0-5.82,2.69,3.78,3.78,0,0,1-5.15,1.34l-54.62-31.54c-.42-.24-.82-.49-1.22-.75a6.31,6.31,0,0,1-2-8.43l76.66-132.77a6.32,6.32,0,0,1,8.3-2.48c.43.22.85.45,1.26.68l54.63,31.54a3.79,3.79,0,0,1,1.41,5.13,5.66,5.66,0,0,0,.58,6.39A3.79,3.79,0,0,1,257.86,570Zm7.48-7.92a3.47,3.47,0,1,1-6.94,0h0a3.47,3.47,0,0,1,6.94,0Zm19.17,7a3,3,0,1,1,3-3A3,3,0,0,1,284.51,569Z"/><path class="cls-2" d="M110.13,516.13l-7.66-4.42a5.57,5.57,0,0,0-4.21-.55L91,513.09a5.55,5.55,0,0,0-3.37,2.59L76.94,534.27a5.54,5.54,0,0,0-.56,4.21l1.94,7.22a5.54,5.54,0,0,0,2.58,3.37l7.66,4.42a4.55,4.55,0,0,0,6.21-1.66l17-29.49A4.55,4.55,0,0,0,110.13,516.13ZM96.58,531A3.79,3.79,0,1,1,89,531h0a3.79,3.79,0,0,1,7.57,0Z"/><path class="cls-2" d="M39.69,495.45H1.85v13.37h-1v7.57h1v8.83H9.33a6.3,6.3,0,0,0,4.46-1.85l.6-.59a6.26,6.26,0,0,1,4.46-1.85H39.69a3.79,3.79,0,0,0,3.79-3.79V499.23A3.79,3.79,0,0,0,39.69,495.45Zm-8.57,12.61a3.41,3.41,0,1,1-6.81,0v-1a3.41,3.41,0,0,1,6.81,0Z"/><path class="cls-2" d="M95,473.45a12.59,12.59,0,0,0-3.5-.49h-.23a.76.76,0,0,1-.75-.76.77.77,0,0,1,.14-.44,4.8,4.8,0,0,0-1.11-6.69,4.85,4.85,0,0,0-2.46-.88,2.52,2.52,0,0,1-2.35-2.52V435.28a2.52,2.52,0,0,1,2.35-2.52,4.8,4.8,0,0,0,3.57-7.57.76.76,0,0,1,.17-1.06.77.77,0,0,1,.44-.14h.23a13,13,0,0,0,3.5-.49l11.11-3.22a17.16,17.16,0,0,0-15.6-10H67.62a114.45,114.45,0,0,0-15.81,1.1,55.19,55.19,0,0,0-18.29,5.95v22.2l-.39.47-.42.48-.9,1-.46.45-.44.41-.47.4-.46.36-.17.16-.11.17-.07.16,0,.14v9.58l0,.15.07.16.11.17.17.15.46.37.47.4.44.41.46.44.9,1,.42.48.39.47v24q2.38.81,4.83,1.45a113.88,113.88,0,0,0,29.27,3.83H90.5a17.16,17.16,0,0,0,15.6-10Zm-.11-57.09a3,3,0,1,1-3,3A3,3,0,0,1,94.88,416.36Zm-49.7,50.56-.4-.31h0l-.44-.34h0l-.26-.2-.84-.75.09.08-.18-.16-.08-.08-.31-.3c.09.08.16.17.25.25l-.92-.92-.17-.18.08.07-.55-.61.07.09-.34-.39-.37-.47a2.09,2.09,0,0,1,.14.17l-.54-.68,0,.05-.12-.15L39.57,461l0,0c.15.22.3.42.45.63l-.37-.53-.49-.79.23.39-.52-.85-.15-.28.12.2-.45-.84a1,1,0,0,0,.07.15l-.23-.44-.3-.64c.06.13.13.26.2.39l-.4-.86-.5-1.25c.16.43.32.86.51,1.29l-.08-.18-.5-1.27,0-.07.09.23-.33-1c0,.16.09.32.15.48l-.31-1-.09-.35c0,.11.07.22.1.33l-.27-1a1.36,1.36,0,0,1,0,.17l-.12-.46-.14-.72c0,.2.09.4.13.6l-.2-1L36,451.07c0,.39.09.79.16,1.19l0-.16-.18-1.36v-.07c0,.1,0,.2,0,.3l-.09-1.13c0,.13,0,.26,0,.39l-.06-.85V449c0,.14,0,.28,0,.42l0-1.13s0,.07,0,.11V448l0-.78c0,.31,0,.63,0,.95l0-1.25.1-1c0,.29-.07.57-.09.85v-.1l.14-1.36,0-.15c0,.12,0,.23,0,.35l.16-1a1.55,1.55,0,0,0,0,.21l.12-.73.11-.51c0,.15,0,.3-.08.45l.2-.95.13-.47-.13.46.07-.32.38-1.32c0,.1,0,.19-.07.29l.41-1.22.51-1.26.58-1.22.65-1.18.72-1.15.78-1.1.85-1.05.91-1c.35-.36.72-.72,1.1-1.06l-.22.23a24.06,24.06,0,0,0,.6,34,24.6,24.6,0,0,0,2.34,2c-.45-.3-.88-.62-1.3-.95Zm5.39,4.28c-2.32-1-4-2.29-4.25-5-.21-2.42.28-4,3.13-4.49,1.53-.25,2-2,2-3.62q-.07-9.64,0-19.3a4.08,4.08,0,0,0-2.21-3.59c-4.1-2.81-3.78-6.5.88-8.53,9.36-4.07,24.43,1.69,27.69,9.16,1.88,4.32,3.92,8.46,3.45,13.16C82.7,466.17,62.67,476.45,50.57,471.2ZM83,428a3.78,3.78,0,1,1,7.56,0h0A3.78,3.78,0,1,1,83,428Zm3.77,44.8A3.77,3.77,0,0,1,83,469h0a3.78,3.78,0,1,1,7.56,0h0A3.78,3.78,0,0,1,86.74,472.76Zm8.14,7.83a3,3,0,1,1,3-3A3,3,0,0,1,94.88,480.59Z"/><path class="cls-2" d="M70.87,281a3.77,3.77,0,0,0-4.1-3.44L46,279.4A6.26,6.26,0,0,1,41.4,278l-.64-.54A6.32,6.32,0,0,0,36.15,276l-7.45.65.77,8.8-1,.08.66,7.54,1-.08,1.17,13.31L69,303a3.78,3.78,0,0,0,3.44-4.1ZM56.34,295.84a3.41,3.41,0,0,1-3.69-3.09l-.09-1a3.41,3.41,0,0,1,6.79-.59l.09,1A3.41,3.41,0,0,1,56.34,295.84Z"/><path class="cls-1" d="M101.38,231.1l-.06-.28-.08-.28-.11-.27L101,230,87.81,207.17a3.5,3.5,0,0,0,.29-.49l.11-.3,0-.31,0-.32-.12-.29-3-5.16-.19-.25-.25-.2-.29-.13-.31-.05a4.79,4.79,0,0,0-4.69,3.09l-9.77,5.65-.3.15-.31.14-.64.21-.65.15-.66.08a4.86,4.86,0,0,0-2,.63,4.83,4.83,0,0,0-2.4,4.37v.37l0,.37-.05.36-.07.35-.1.33-.12.32-.15.31-.18.29a13.74,13.74,0,0,1-4.37,4L33.77,234.63a4,4,0,0,0-2,3.43v13.11l0,.34.06.34.07.33.1.33.12.32.14.31.17.3,3.44,6,.15.25.18.22.2.21.22.19.23.16.25.15.26.12.28.09.53.13.56.06h.59l.61-.06.62-.13.61-.19.61-.25.58-.31L79.54,238.6a3.77,3.77,0,0,1,4.81.87l.29.32.31.32.33.28.36.26.31.18.32.14.23.08.23,0,.24,0h.24l.24,0,.24-.06.22-.08.22-.11,11.78-6.8.25-.15.23-.19.21-.2.19-.22.17-.24.15-.25.11-.27.09-.28.06-.28,0-.29v-.3Zm-36-17.19a2.15,2.15,0,0,1,4.29,0h0a2.15,2.15,0,0,1-4.29,0Zm15.42,16.7L52.3,247a5,5,0,0,1-6.89-1.85L44.14,243A5,5,0,0,1,46,236.12l28.46-16.43a5,5,0,0,1,6.89,1.85l1.26,2.18A5,5,0,0,1,80.75,230.61ZM86,204.47a2.15,2.15,0,1,1-4.29,0h0a2.15,2.15,0,0,1,4.29,0Z"/><path class="cls-1" d="M120,253.55l-8.2-14.2a1.26,1.26,0,0,0-1.72-.46l-6.56,3.78a6.32,6.32,0,0,0-2.31,8.62l3.16,5.46a6.31,6.31,0,0,0,8.61,2.31l6.56-3.79A1.26,1.26,0,0,0,120,253.55Zm-7.1-3.31a3.56,3.56,0,1,1-7.11,0h0a3.56,3.56,0,0,1,7.11,0Z"/><path class="cls-2" d="M142.63,276.6h2.66a1.26,1.26,0,0,0,1.26-1.26v-8.83a1.27,1.27,0,0,0-1.26-1.26H142a5.06,5.06,0,0,0-2.52.67,37.83,37.83,0,0,1-36.06.87A14.15,14.15,0,0,0,97,265.25H83.74a1.27,1.27,0,0,0-1.27,1.26v1a1.26,1.26,0,0,0,1.27,1.26h2.52a2.15,2.15,0,0,1,0,4.29H83.74a1.27,1.27,0,0,0-1.27,1.26v.44A5.07,5.07,0,0,0,83.65,278l2.81,3.34.28.36-.09.09-.49.57-.52.58-.54.55-.53.52-.33.36-.32.35-.29.33-.29.32-.16.23-.11.25-.07.28,0,.28v8.11l0,.28.07.28.11.25.16.24.29.31.29.34.32.34.33.37.53.51.54.56.52.57.49.57.09.09c-.09.13-.18.24-.28.36l-2.81,3.34a5.07,5.07,0,0,0-1.18,3.25v.43a1.26,1.26,0,0,0,1.27,1.26h2.52a2.15,2.15,0,0,1,0,4.29H83.74a1.27,1.27,0,0,0-1.27,1.26v1a1.26,1.26,0,0,0,.51,1,1.28,1.28,0,0,0,.76.25H97a14.15,14.15,0,0,0,6.41-1.54,37.83,37.83,0,0,1,36.06.87,5.06,5.06,0,0,0,2.52.67h3.3a1.26,1.26,0,0,0,1.26-1.26v-8.83a1.27,1.27,0,0,0-1.26-1.26h-2.66a3.78,3.78,0,0,1-3.78-3.78V280.39A3.79,3.79,0,0,1,142.63,276.6ZM95.31,308.7a2.21,2.21,0,1,1,2.2-2.2A2.21,2.21,0,0,1,95.31,308.7Zm0-32a2.21,2.21,0,1,1,2.2-2.21A2.21,2.21,0,0,1,95.31,276.67Zm38.56,25.16a2.52,2.52,0,0,1-2.52,2.52H102.78a2.51,2.51,0,0,1-2-1,1.28,1.28,0,0,1,.76-.25h2a1.26,1.26,0,0,0,1.27-1.26v-22.7a1.27,1.27,0,0,0-1.27-1.27h-2a1.22,1.22,0,0,1-.76-.25,2.54,2.54,0,0,1,2-1h28.57a2.52,2.52,0,0,1,2.52,2.53Zm7,6.94a2.21,2.21,0,1,1-2.2,2.2A2.2,2.2,0,0,1,140.87,308.77ZM138.67,270a2.21,2.21,0,1,1,2.2,2.21A2.2,2.2,0,0,1,138.67,270Z"/><path class="cls-2" d="M200.93,302.58v-.2l-.09-.18-.15-.13-4.37-2.52-.69.19-.07.11L192.28,298,200,284.58a1,1,0,0,0-.37-1.38L180.19,272a1.26,1.26,0,0,0-1.72.47l-7.6,13.16a1.26,1.26,0,0,0,.46,1.72l12.45,7.19a.64.64,0,0,1,.23.87l-3.15,5.45.9.52-4,7-.89-.52-2.27,3.93.89.52-4,7-.9-.52-3.16,5.47a.62.62,0,0,1-.86.23l-15.73-9.08a1.26,1.26,0,0,0-1.72.46l-12.47,21.61a6.3,6.3,0,0,0,.85,7.46,50.57,50.57,0,0,0,11.64,9.25l17.69,10.21a1.27,1.27,0,0,0,1.73-.46l.9-1.57a3.74,3.74,0,0,0,.38-2.87l-.11-.41-1-.56,32.16-55.71Zm-50.37,40.78a3.79,3.79,0,1,1-7.57,0v0a3.79,3.79,0,0,1,7.57,0Zm21.38-4.12-1.86,3.22a3.78,3.78,0,0,1-5.17,1.38l-7.42-4.29a3.79,3.79,0,0,1-1.39-5.17l1.86-3.22a3.78,3.78,0,0,1,5.17-1.38l7.43,4.29A3.78,3.78,0,0,1,171.94,339.24Zm12.8-55a3.79,3.79,0,1,1,3.78-3.78A3.79,3.79,0,0,1,184.74,284.28Z"/><path class="cls-2" d="M153.69,378.22l-29.49-17a4.54,4.54,0,0,0-6.21,1.66l-4.42,7.66a5.53,5.53,0,0,0-.55,4.21l8.85,33.06a5.59,5.59,0,0,0,2.59,3.37l7.66,4.42a4.53,4.53,0,0,0,6.2-1.66l17-29.49A4.54,4.54,0,0,0,153.69,378.22Zm-30.09.4a3.79,3.79,0,0,1-3.78-3.79v0a3.79,3.79,0,0,1,7.57,0h0A3.79,3.79,0,0,1,123.6,378.62Zm11.17,23.79a3.78,3.78,0,1,1-7.56,0h0a3.78,3.78,0,1,1,7.56,0Z"/><path class="cls-2" d="M237.22,140.86l-8.82-15.29a6.31,6.31,0,0,0-8.62-2.31l-93.61,54a6.31,6.31,0,0,0-2.31,8.62L131.43,199a1.26,1.26,0,0,1-.46,1.72l-18,10.39a3.78,3.78,0,0,0-1.38,5.17l17.66,30.58a3.79,3.79,0,0,0,5.17,1.39h0L155,236.37l.05,0,.38-.26.34-.3.31-.35.26-.37,0,0a29.06,29.06,0,0,1,10.46-10.35l.49-.28a4.62,4.62,0,0,0,1.9-2.13,25.2,25.2,0,0,1,10.54-11.83l28.79-16.63a12.62,12.62,0,0,0,5.88-7.66l8.13-30.33a6.29,6.29,0,0,1,2.93-3.83l10.33-6A3.78,3.78,0,0,0,237.22,140.86ZM126.3,220a3.41,3.41,0,1,1,3.4-3.41A3.4,3.4,0,0,1,126.3,220Zm6.15-34.88-.23-.35-.18-.37-.13-.39-.07-.41v-.42l0-.41.11-.4.16-.38.21-.36.26-.32.31-.28.34-.23.37-.19.39-.13.41-.07.41,0,.42.05a2.93,2.93,0,0,1,2.36,3.39,2.85,2.85,0,0,1-.13.48l-.17.37-.22.36-.27.31-.3.28-.35.23-.37.17-.4.13-.41.06h-.41l-.42-.05-.4-.11-.38-.16-.35-.22-.32-.27Zm3.94,52.36a3.41,3.41,0,1,1,3.4-3.41A3.41,3.41,0,0,1,136.39,237.44Zm14.41-61.23A2.21,2.21,0,1,1,153,174,2.2,2.2,0,0,1,150.8,176.21Zm21.51-16.79.1-.4.17-.38.21-.36.26-.32.31-.28.34-.23.37-.19.39-.13.41-.07.41,0,.42.05a2.52,2.52,0,0,1,.47.13,2.92,2.92,0,0,1,1.76,3.74l-.17.38-.22.35-.27.31-.31.28-.34.23-.37.18-.4.12-.41.06H175l-.42,0-.4-.11-.38-.16-.35-.22-.32-.26-.28-.31-.23-.35-.18-.37-.13-.39-.07-.41v-.41Zm.25,48.45a2.21,2.21,0,1,1-4.41,0h0a2.21,2.21,0,0,1,4.41,0ZM191.89,183a14.5,14.5,0,1,1-19.33-15.51,2.6,2.6,0,0,1,1.3-.12,7.48,7.48,0,0,0,4.23-.46,2.51,2.51,0,0,1,1.3-.17A14.49,14.49,0,0,1,191.89,183Zm14.53,5.28a2.21,2.21,0,1,1-4.41,0h0a2.21,2.21,0,0,1,4.41,0Zm-1.74-35.46a3.41,3.41,0,1,1,3.41-3.41A3.41,3.41,0,0,1,204.68,152.86Zm17.48-10.09a3.41,3.41,0,1,1,3.41-3.41A3.41,3.41,0,0,1,222.16,142.77Z"/><path class="cls-2" d="M246.89,225.81l-28.52-16.46a12.59,12.59,0,0,0-7.4-1.65l-3.71.33a5.06,5.06,0,0,1-3-.66l-2.67-1.54a5,5,0,0,0-6.89,1.85L192,212.35a1.26,1.26,0,0,0,.46,1.72l6.55,3.78a1.26,1.26,0,0,1,.46,1.73L183.12,248l-1.73.46-4.77-2.76-.24-.11-.26-.08-.26,0h-.28l-.25.07-.24.12-.2.17-.17.21-3,5.28-.09.19-.06.21v.21l0,.22.07.2.12.18.14.16.18.12,3.89,2.34,3.88,2.32,2,1.19,2,1.2,4,2.41.57.33.58.3.59.28.59.26.61.24.62.21.63.2.63.16.44.09.44,0H194l.45-.05.51-.1.51-.14.49-.16.5-.2.48-.23.48-.25.47-.29.45-.31.45-.34.42-.37.41-.39.39-.41.37-.43.34-.45.32-.46.3-.48,2.56-4.45a2.53,2.53,0,0,1,3.45-.92L224.82,264a3.78,3.78,0,0,0,5.17-1.38L248.27,231A3.78,3.78,0,0,0,246.89,225.81Zm-41,12-6.31,10.93a3.28,3.28,0,0,1-5.68-3.28l6.31-10.92a3.28,3.28,0,0,1,5.68,3.27Zm17.28,14.84a3.41,3.41,0,1,1,3.41-3.4A3.4,3.4,0,0,1,223.16,252.65Zm10.09-17.47a3.41,3.41,0,1,1,3.41-3.41A3.41,3.41,0,0,1,233.25,235.18Z"/><path class="cls-2" d="M281.65,185.69H238.77a3.79,3.79,0,0,0-3.79,3.78v6a3.78,3.78,0,0,0,1.11,2.67l19.75,19.75a6.32,6.32,0,0,0,4.46,1.85h22.61a2.52,2.52,0,0,0,2.52-2.53h0V189.47A3.78,3.78,0,0,0,281.65,185.69Zm-25.14,24.49a1.26,1.26,0,0,1-2.15.89l-6.83-6.83a1.26,1.26,0,0,1,.89-2.15h6.83a1.25,1.25,0,0,1,1.26,1.26Z"/><path class="cls-2" d="M295.07,107,285,89.47a2.52,2.52,0,0,0-3.45-.92l-39.87,23a2.51,2.51,0,0,0-.92,3.44l11.75,20.36a10.12,10.12,0,0,1,1.35,5.38,17,17,0,0,0,34,1.14,17.2,17.2,0,0,0-.48-4.63,38,38,0,0,1,.2-18.79l.28-1a10.14,10.14,0,0,1,4.7-6.13l1.57-.91A2.52,2.52,0,0,0,295.07,107ZM257,120.69a3.41,3.41,0,1,1,3.4-3.4A3.41,3.41,0,0,1,257,120.69Zm21.72,20.64a7.85,7.85,0,1,1-15.69,0v0a7.85,7.85,0,1,1,15.69,0Zm.67-33.57a3.41,3.41,0,1,1,3.41-3.4A3.4,3.4,0,0,1,279.37,107.76Z"/><path class="cls-2" d="M420.2,117.19l-.13-.53-.18-.52-.25-.49-16.74-29a1.26,1.26,0,0,0-1.72-.46L380.86,97.93a.51.51,0,0,1-.69-.18L367.94,76.56a.5.5,0,0,1,.18-.69h0l20.32-11.73a1.27,1.27,0,0,0,.46-1.73l-16.73-29-.31-.46-.35-.43-.4-.37-.44-.32-.47-.26-.49-.2-.5-.13-.51-.06h-.51l-.49.08-.48.15-.44.22-28,16.17-.55.36-.5.42-.45.47-.39.52-.33.56-.26.61L329.88,68.2l-.26.6-.33.56-.39.52-.44.48-.5.41-.55.36L300.67,86.57l-.55.36-.5.42-.45.47-.39.53-.33.56-.26.6-.48,1.32-.19.6-.11.6-.05.62,0,.61.08.61.16.59.21.58.29.56,30.65,53.09.34.53.39.48.44.43.49.37.52.33.55.26.59.2.61.14,1.38.24.65.08h.66l.64-.07.63-.15.62-.23.58-.29,26.74-15.44.59-.3.61-.22.63-.15.65-.08h.65l.65.08,18.31,3.16.65.07H388l.65-.07.63-.15.61-.23.59-.29,28-16.18.41-.27.36-.34.32-.39.26-.43.2-.47.14-.51.08-.52v-.54ZM348.55,75.52a3.79,3.79,0,1,1-3.78,3.78A3.79,3.79,0,0,1,348.55,75.52Zm-33.86,27.12a3.79,3.79,0,1,1,3.78-3.79A3.79,3.79,0,0,1,314.69,102.64Zm19.55,33.86a3.79,3.79,0,1,1,3.78-3.79A3.79,3.79,0,0,1,334.24,136.5ZM357.79,106A16.4,16.4,0,1,1,325,106h0a16.4,16.4,0,0,1,32.79,0Zm4.49-53.57h0a6.31,6.31,0,0,1,12.61,0h0a6.31,6.31,0,0,1-12.61,0ZM368.1,117a3.79,3.79,0,1,1,3.79-3.79A3.79,3.79,0,0,1,368.1,117Zm39.58-7.7a6.31,6.31,0,0,1-12.61,0h0a6.31,6.31,0,1,1,12.61,0Z"/><path class="cls-1" d="M351.7,162.79l-5.1-1.86-.43,1.19-6.56,18a1.25,1.25,0,0,1-1.61.76l-33.67-12.25a1.27,1.27,0,0,1-.75-1.62l6.56-18,.43-1.18-5.1-1.86a3.79,3.79,0,0,0-4.85,2.27l-6.9,19a7.57,7.57,0,0,0,4.52,9.7l39.12,14.23a7.57,7.57,0,0,0,9.7-4.52l6.9-19A3.79,3.79,0,0,0,351.7,162.79Zm-30,16.48a2.21,2.21,0,1,1-4.41,0h0a2.21,2.21,0,1,1,4.41,0Z"/><path class="cls-2" d="M355.48,206.25H300.16a1.26,1.26,0,0,0-1.26,1.26V217.6a1.25,1.25,0,0,0,1.26,1.26h55.32a1.26,1.26,0,0,0,1.26-1.26V207.51A1.27,1.27,0,0,0,355.48,206.25ZM330,215.09a2.15,2.15,0,0,1-4.29,0h0a2.15,2.15,0,1,1,4.29,0Z"/><path class="cls-2" d="M418.64,154.2H385.71a12.63,12.63,0,0,0-7.23,2.28l-3.06,2.14a5,5,0,0,1-2.89.91h-3.08a5,5,0,0,0-5.05,5.05V170a1.27,1.27,0,0,0,1.26,1.26h7.57a1.25,1.25,0,0,1,1.26,1.26v32.79l-1.26,1.26h-5.51l-.27,0-.26.06-.24.1-.23.15-.19.19-.15.22-.09.25,0,.27v6.08l0,.22.05.21.1.19.13.17.16.14.19.1.21.06.21,0,4.55.08,4.52.07,2.3,0,2.35,0,4.68.07h.65l.66,0,.65-.05.65-.07.64-.1.65-.12.63-.15.63-.17.43-.14.41-.19.38-.23.36-.26.4-.35.37-.37.35-.39.32-.42.31-.44.29-.46.26-.48.24-.5.21-.52.19-.53.16-.54.13-.55.1-.55.08-.56,0-.57v-5.69a2.52,2.52,0,0,1,2.53-2.52h20.18a3.79,3.79,0,0,0,3.78-3.79V158A3.78,3.78,0,0,0,418.64,154.2Zm-29.52,43.52a3.28,3.28,0,0,1-6.55,0V185.1a3.28,3.28,0,0,1,6.55,0Zm20.69-7.95a3.41,3.41,0,1,1,3.4-3.41A3.41,3.41,0,0,1,409.81,189.77Zm0-20.18a3.41,3.41,0,1,1,3.4-3.41A3.41,3.41,0,0,1,409.81,169.59Z"/><path class="cls-2" d="M519.55,48.58l-.33-1.22L517,46.05l-4.21-2.43L483.1,26.5l-4.21-2.43-2.81-1.62-1.22.33a1.25,1.25,0,0,0-.77.58l-2,3.43a2.52,2.52,0,0,0,.92,3.45l6.69,3.86a6.3,6.3,0,0,1,2.94,3.83l3.26,12.18a6.31,6.31,0,0,1-.63,4.79l-1.09,1.88A3.79,3.79,0,0,0,485.6,62l2.18,1.26a1.25,1.25,0,0,0,1.72-.46l9.72-16.82a.49.49,0,0,1,.68-.18L514,53.89a2.53,2.53,0,0,0,3.45-.93l2-3.42A1.24,1.24,0,0,0,519.55,48.58ZM479.54,30a2.21,2.21,0,1,1,2.21-2.21A2.21,2.21,0,0,1,479.54,30Zm36.07,17.34a2.21,2.21,0,1,1-4.41,0h0a2.21,2.21,0,1,1,4.41,0Z"/><path class="cls-2" d="M685.05,143.24,529.49,53.43a5,5,0,0,0-6.15.86A97.35,97.35,0,0,0,509,73.34l-7.45,12.88a5.06,5.06,0,0,0,1.85,6.9l10,5.8,140.25,81,10.05,5.81a5,5,0,0,0,6.89-1.85L678.07,171a97.88,97.88,0,0,0,9.31-22A5,5,0,0,0,685.05,143.24Zm-57.69-21.51a1.29,1.29,0,0,1,1.26,0l18.49,10.68a1.26,1.26,0,0,1-.63,2.35h-11.6a2.52,2.52,0,0,1-2.18-1.26l-5.8-10A1.27,1.27,0,0,1,627.36,121.73Zm-23.59-13.62a1.29,1.29,0,0,1,1.26,0l18.49,10.67a1.27,1.27,0,0,1-.63,2.36h-11.6a2.53,2.53,0,0,1-2.19-1.26l-5.8-10A1.26,1.26,0,0,1,603.77,108.11Zm-23.6-13.62a1.24,1.24,0,0,1,1.26,0l18.49,10.67a1.27,1.27,0,0,1-.63,2.36h-11.6a2.52,2.52,0,0,1-2.18-1.26l-5.8-10.05A1.26,1.26,0,0,1,580.17,94.49ZM556.58,80.87a1.24,1.24,0,0,1,1.26,0l18.49,10.67a1.26,1.26,0,0,1-.63,2.35H564.1a2.52,2.52,0,0,1-2.18-1.26l-5.8-10A1.26,1.26,0,0,1,556.58,80.87ZM533,67.24a1.3,1.3,0,0,1,1.27,0l18.48,10.68a1.26,1.26,0,0,1,.47,1.72,1.28,1.28,0,0,1-1.1.63H540.51A2.53,2.53,0,0,1,538.32,79l-5.8-10A1.27,1.27,0,0,1,533,67.24ZM515.9,78.57a2.15,2.15,0,1,1,4.29,0h0a2.15,2.15,0,1,1-4.29,0Zm.28,11.54,10.93-18.92a2.53,2.53,0,0,1,4.37,0L536.57,80a2.52,2.52,0,0,1,0,2.52l-5.82,10.09a2.52,2.52,0,0,1-2.19,1.26H518.37a2.53,2.53,0,0,1-2.19-3.78Zm19.91,18.83a1.26,1.26,0,0,1-1.27,0L516.34,98.27a1.26,1.26,0,0,1,.63-2.36h11.59a2.52,2.52,0,0,1,2.19,1.26l5.8,10A1.26,1.26,0,0,1,536.09,108.94Zm2.23-2.68-5.82-10.1a2.52,2.52,0,0,1,0-2.52l5.82-10.09a2.53,2.53,0,0,1,2.19-1.26h11.65a2.52,2.52,0,0,1,2.18,1.26l5.83,10.09a2.52,2.52,0,0,1,0,2.52l-5.83,10.1a2.52,2.52,0,0,1-2.18,1.26H540.51A2.53,2.53,0,0,1,538.32,106.26Zm21.36,16.3a1.24,1.24,0,0,1-1.26,0l-18.49-10.67a1.27,1.27,0,0,1,.63-2.36h11.6a2.53,2.53,0,0,1,2.18,1.27l5.8,10A1.26,1.26,0,0,1,559.68,122.56Zm2.24-2.68-5.83-10.09a2.54,2.54,0,0,1,0-2.53l5.83-10.09a2.52,2.52,0,0,1,2.18-1.26h11.65a2.53,2.53,0,0,1,2.19,1.26l5.82,10.09a2.54,2.54,0,0,1,0,2.53l-5.82,10.09a2.53,2.53,0,0,1-2.19,1.26H564.1A2.52,2.52,0,0,1,561.92,119.88Zm21.35,16.3a1.24,1.24,0,0,1-1.26,0l-18.49-10.67a1.26,1.26,0,0,1,.63-2.35h11.6a2.53,2.53,0,0,1,2.19,1.26l5.8,10A1.26,1.26,0,0,1,583.27,136.18Zm2.24-2.68-5.83-10.09a2.52,2.52,0,0,1,0-2.52l5.83-10.09a2.53,2.53,0,0,1,2.18-1.27h11.66a2.53,2.53,0,0,1,2.18,1.27l5.83,10.09a2.52,2.52,0,0,1,0,2.52l-5.83,10.09a2.52,2.52,0,0,1-2.18,1.26H587.69A2.52,2.52,0,0,1,585.51,133.5Zm21.36,16.31a1.29,1.29,0,0,1-1.26,0l-18.49-10.68a1.26,1.26,0,0,1,.63-2.35h11.6a2.52,2.52,0,0,1,2.18,1.26l5.8,10A1.27,1.27,0,0,1,606.87,149.81Zm2.23-2.69L603.28,137a2.52,2.52,0,0,1,0-2.52l5.82-10.09a2.53,2.53,0,0,1,2.19-1.26h11.65a2.52,2.52,0,0,1,2.18,1.26L631,134.51a2.52,2.52,0,0,1,0,2.52l-5.83,10.09a2.52,2.52,0,0,1-2.18,1.26H611.29A2.53,2.53,0,0,1,609.1,147.12Zm21.36,16.31a1.29,1.29,0,0,1-1.26,0l-18.49-10.68a1.26,1.26,0,0,1,.63-2.35h11.6a2.52,2.52,0,0,1,2.18,1.26l5.8,10.05A1.26,1.26,0,0,1,630.46,163.43Zm2.24-2.69-5.83-10.09a2.52,2.52,0,0,1,0-2.52L632.7,138a2.52,2.52,0,0,1,2.18-1.26h11.65a2.53,2.53,0,0,1,2.19,1.26l5.82,10.09a2.52,2.52,0,0,1,0,2.52l-5.82,10.09a2.53,2.53,0,0,1-2.19,1.26H634.88A2.52,2.52,0,0,1,632.7,160.74Zm21.36,16.31a1.26,1.26,0,0,1-1.27,0l-18.48-10.67a1.26,1.26,0,0,1,.63-2.36h11.59a2.53,2.53,0,0,1,2.19,1.26l5.8,10.05A1.26,1.26,0,0,1,654.06,177.05ZM669,167.87a2.15,2.15,0,1,1,2.14-2.14A2.14,2.14,0,0,1,669,167.87Zm1.86-13.69L659.93,173.1a2.52,2.52,0,0,1-3.44.93,2.44,2.44,0,0,1-.93-.93l-5.09-8.83a2.52,2.52,0,0,1,0-2.52l5.82-10.09a2.53,2.53,0,0,1,2.19-1.26h10.19a2.52,2.52,0,0,1,2.52,2.52A2.5,2.5,0,0,1,670.86,154.18Zm.31-6.43a1.28,1.28,0,0,1-1.1.63H658.48a2.52,2.52,0,0,1-2.19-1.26l-5.8-10a1.27,1.27,0,0,1,.46-1.73,1.3,1.3,0,0,1,1.27,0L670.7,146A1.26,1.26,0,0,1,671.17,147.75Z"/><path class="cls-2" d="M624.4,175.75,611,171.59a24.94,24.94,0,0,1-5.16-2.26l-63.91-36.89a25.64,25.64,0,0,1-4.53-3.35L527,119.53a3.85,3.85,0,1,0-5.23,5.64L528.1,131A12.63,12.63,0,0,1,532,141.82a7.58,7.58,0,0,0,3.73,7.48l58.47,33.76a7.56,7.56,0,0,0,8.34-.52,12.62,12.62,0,0,1,11.33-2l8.21,2.54a3.85,3.85,0,1,0,2.28-7.35Zm-100-51.57a1.83,1.83,0,1,1,1.83-1.83A1.83,1.83,0,0,1,524.41,124.18Zm18.5,18.18a1.51,1.51,0,0,1-3,0h0a1.51,1.51,0,1,1,3,0Zm29.62,18a2.52,2.52,0,0,1-3.44.92l-23.32-13.46a2.52,2.52,0,0,1,2.52-4.37l23.32,13.46A2.53,2.53,0,0,1,572.53,160.33Zm4.79,1.89a1.51,1.51,0,1,1-3,0h0a1.51,1.51,0,1,1,3,0ZM594,172.72a2.51,2.51,0,0,1-3.44.92L580,167.56a2.52,2.52,0,0,1,2.52-4.37l10.54,6.08A2.52,2.52,0,0,1,594,172.72Zm29.27,8.53a1.83,1.83,0,1,1,1.83-1.83A1.83,1.83,0,0,1,623.26,181.25Z"/><path class="cls-2" d="M643.4,201.86a3.85,3.85,0,0,0-4.6-2.91h0l-13.72,3.13a25.77,25.77,0,0,1-5.6.62h-73.8a25.61,25.61,0,0,1-5.59-.62L526.34,199a3.85,3.85,0,0,0-1.72,7.5h0l8.38,1.91a12.64,12.64,0,0,1,8.82,7.38,7.56,7.56,0,0,0,7,4.62h67.51a7.57,7.57,0,0,0,7-4.62,12.62,12.62,0,0,1,8.81-7.38l8.39-1.91A3.85,3.85,0,0,0,643.4,201.86Zm-117.91,2.67a1.83,1.83,0,1,1,1.83-1.83A1.83,1.83,0,0,1,525.49,204.53Zm43.39,9.53H556.71a2.53,2.53,0,1,1,0-5.05h12.17a2.53,2.53,0,0,1,0,5.05Zm7.82-2.52a1.52,1.52,0,0,1-3,0h0a1.52,1.52,0,0,1,3,0Zm31.72,2.52H581.49a2.53,2.53,0,0,1,0-5.05h26.93a2.53,2.53,0,0,1,0,5.05Zm8-2.52a1.52,1.52,0,1,1-3,0h0a1.52,1.52,0,0,1,3,0Zm23.21-7a1.83,1.83,0,1,1,1.82-1.83A1.83,1.83,0,0,1,639.64,204.53Z"/><path class="cls-1" d="M546.18,174h-6.31a6.31,6.31,0,0,0-6.31,6.3v7.57a1.26,1.26,0,0,0,1.26,1.26h16.4a1.25,1.25,0,0,0,1.26-1.26v-7.57A6.3,6.3,0,0,0,546.18,174ZM543,185.09a3.56,3.56,0,1,1,3.56-3.56A3.55,3.55,0,0,1,543,185.09Z"/><path class="cls-2" d="M486.1,256.72l-2.19-1.27-.27-.11-.28-.05-.3,0-.27.08a2.63,2.63,0,0,0-1.06-1.2l-61.17-35.31-2.18-1.26a2.52,2.52,0,0,0-3.45.92l-8.51,14.75a1,1,0,0,0-1.38.37l-42.51,73.62a1,1,0,0,0,.37,1.38L353.44,325a2.53,2.53,0,0,0,.93,3.45l2.18,1.26,4.29,2.47a3.8,3.8,0,0,1,1.89,3.28v11.65a7.56,7.56,0,0,0,3.78,6.55l10.09,5.83a7.58,7.58,0,0,0,7.57,0l10.09-5.83a3.81,3.81,0,0,1,3.78,0l19.68,11.36a2.44,2.44,0,0,0,1.56.32l.07.28.13.27.19.22.23.17,2.19,1.27a2.52,2.52,0,0,0,3.44-.93L487,260.16h0A2.51,2.51,0,0,0,486.1,256.72Zm-56.52-26.08a1.25,1.25,0,0,1,1.89-1.09l20.18,11.65a1.26,1.26,0,0,1,0,2.18L445.34,247a3.76,3.76,0,0,1-3.78,0l-10.09-5.82a3.8,3.8,0,0,1-1.89-3.28Zm0,13.83,10.09,5.83a3.78,3.78,0,0,1,1.89,3.28v11.65a3.77,3.77,0,0,1-1.89,3.27l-10.09,5.83a3.78,3.78,0,0,1-3.79,0L415.7,268.5a3.77,3.77,0,0,1-1.89-3.27V253.58a3.78,3.78,0,0,1,1.89-3.28l10.09-5.83A3.82,3.82,0,0,1,429.58,244.47Zm-3.79,36.41v11.66a3.77,3.77,0,0,1-1.89,3.27l-10.09,5.83a3.81,3.81,0,0,1-3.78,0l-10.09-5.83a3.76,3.76,0,0,1-1.9-3.27V280.88a3.76,3.76,0,0,1,1.9-3.27L410,271.78a3.81,3.81,0,0,1,3.78,0l10.09,5.83A3.77,3.77,0,0,1,425.79,280.88ZM408,243.1l.06-.11,10.41-18,.07-.11a2.52,2.52,0,0,1,3.38-.81l1.95,1.13a3.77,3.77,0,0,1,1.89,3.27v9.47a3.8,3.8,0,0,1-1.89,3.28L413.81,247a3.76,3.76,0,0,1-3.78,0l-1-.58A2.53,2.53,0,0,1,408,243.1Zm-15.76,27.31.06-.11,11.35-19.66.06-.11a2.52,2.52,0,0,1,3.39-.81l1,.58a3.79,3.79,0,0,1,1.9,3.28v11.65a3.78,3.78,0,0,1-1.9,3.27L398,274.33a3.76,3.76,0,0,1-3.78,0l-1-.58A2.52,2.52,0,0,1,392.27,270.41ZM376.5,297.72l.06-.11L387.91,278l.07-.11a2.52,2.52,0,0,1,3.38-.82l1,.59a3.77,3.77,0,0,1,1.89,3.27v11.66a3.77,3.77,0,0,1-1.89,3.27l-10.09,5.83a3.82,3.82,0,0,1-3.79,0l-1-.58A2.54,2.54,0,0,1,376.5,297.72ZM362.73,329l-1-.59a2.5,2.5,0,0,1-1-3.33.24.24,0,0,1,.06-.11l11.35-19.66.06-.11a2.53,2.53,0,0,1,3.38-.82l1,.58a3.8,3.8,0,0,1,1.89,3.28v11.65a3.8,3.8,0,0,1-1.89,3.28L366.51,329A3.81,3.81,0,0,1,362.73,329Zm12,22.07-5.32-10.58,2.38-4.12,5.32,10.58Zm9.7,3-10.64-21.16,2.38-4.12,10.64,21.16Zm4.38-7.59-5.32-10.58,2.38-4.12,5.32,10.58ZM394.26,329l-10.09-5.83a3.8,3.8,0,0,1-1.89-3.28V308.19a3.8,3.8,0,0,1,1.89-3.28l10.09-5.82a3.76,3.76,0,0,1,3.78,0l10.09,5.82a3.81,3.81,0,0,1,1.9,3.28v11.65a3.81,3.81,0,0,1-1.9,3.28L398,329A3.81,3.81,0,0,1,394.26,329Zm31.53,18.2a3.8,3.8,0,0,1-1.89,3.28l-10.09,5.82a3.76,3.76,0,0,1-3.78,0l-10.09-5.82a3.78,3.78,0,0,1-1.9-3.28V335.5a3.78,3.78,0,0,1,1.9-3.28L410,326.4a3.76,3.76,0,0,1,3.78,0l10.09,5.82a3.8,3.8,0,0,1,1.89,3.28Zm15.77-27.31a3.8,3.8,0,0,1-1.89,3.28L429.58,329a3.82,3.82,0,0,1-3.79,0l-10.09-5.83a3.8,3.8,0,0,1-1.89-3.28V308.19a3.8,3.8,0,0,1,1.89-3.28l10.09-5.82a3.78,3.78,0,0,1,3.79,0l10.09,5.82a3.8,3.8,0,0,1,1.89,3.28Zm15.76-27.3a3.77,3.77,0,0,1-1.89,3.27l-10.09,5.83a3.81,3.81,0,0,1-3.78,0l-10.09-5.83a3.77,3.77,0,0,1-1.89-3.27V280.88a3.77,3.77,0,0,1,1.89-3.27l10.09-5.83a3.81,3.81,0,0,1,3.78,0l10.09,5.83a3.77,3.77,0,0,1,1.89,3.27Zm15.77-27.31a3.77,3.77,0,0,1-1.89,3.27l-10.09,5.83a3.78,3.78,0,0,1-3.79,0l-10.09-5.83a3.77,3.77,0,0,1-1.89-3.27V253.58a3.78,3.78,0,0,1,1.89-3.28l8.2-4.73a3.78,3.78,0,0,1,3.79,0l12,6.91a3.8,3.8,0,0,1,1.89,3.28Z"/><path class="cls-1" d="M402.28,386.5l-55.71-32.16a5.67,5.67,0,0,0-7.75,2.08l-32.16,55.7a5.68,5.68,0,0,0,2.08,7.76L364.44,452A5.68,5.68,0,0,0,372.2,450l32.16-55.7A5.68,5.68,0,0,0,402.28,386.5Zm-26.82-13.59-3.7-2.14A35.88,35.88,0,0,1,375.46,372.91Zm-18.06-1.7a3.79,3.79,0,0,1,3.79-3.78,3.68,3.68,0,0,1,.66.06,35.23,35.23,0,0,1,6.68,1.86l1,.4,7.93,4.58c.28.21.57.43.85.66a36.09,36.09,0,0,1,4.95,4.86,3.78,3.78,0,0,1-.46,5.33,4,4,0,0,1-.54.38l-9.09,5.25a3.78,3.78,0,0,1-3.79,0L359.29,385a3.8,3.8,0,0,1-1.89-3.28Zm-7.73,24.32,2.12-3.68,9.51,18.92-2.13,3.68Zm3,12.56-2.13,3.68-4.75-9.45,2.13-3.68Zm5.7-9.88,2.13-3.68,4.75,9.46-2.12,3.68Zm-30.57-18.36a36.26,36.26,0,0,1,21.41-12.36,3.68,3.68,0,0,1,.66-.06,3.79,3.79,0,0,1,3.79,3.78v10.5a3.8,3.8,0,0,1-1.89,3.28l-10.09,5.82a3.78,3.78,0,0,1-3.79,0l-9.09-5.25a4,4,0,0,1-.54-.38A3.78,3.78,0,0,1,327.76,379.85Zm-1.49,38a3.78,3.78,0,0,1-4.85-2.27,36.21,36.21,0,0,1,0-24.72,4.78,4.78,0,0,1,.28-.61,3.78,3.78,0,0,1,5.17-1.38l9.09,5.25a3.77,3.77,0,0,1,1.89,3.27V409a3.77,3.77,0,0,1-1.89,3.27l-9.09,5.25A3.28,3.28,0,0,1,326.27,417.82Zm9.29,15.65,3.7,2.14A35.88,35.88,0,0,1,335.56,433.47Zm18.06,1.7a3.79,3.79,0,0,1-3.79,3.78,3.68,3.68,0,0,1-.66-.06,35.53,35.53,0,0,1-6.69-1.86l-1-.4-7.93-4.57-.85-.67a36.09,36.09,0,0,1-4.95-4.86,3.78,3.78,0,0,1,.46-5.33,4,4,0,0,1,.54-.38l9.09-5.25a3.78,3.78,0,0,1,3.79,0l10.09,5.83a3.77,3.77,0,0,1,1.89,3.27Zm29.64-8.64a36.26,36.26,0,0,1-21.41,12.36,3.68,3.68,0,0,1-.66.06,3.79,3.79,0,0,1-3.79-3.78v-10.5a3.77,3.77,0,0,1,1.89-3.27l10.09-5.83a3.78,3.78,0,0,1,3.79,0l9.09,5.25a4,4,0,0,1,.54.38A3.78,3.78,0,0,1,383.26,426.53Zm6.34-11a4.78,4.78,0,0,1-.28.61,3.78,3.78,0,0,1-5.17,1.38l-9.09-5.25a3.77,3.77,0,0,1-1.89-3.27V397.36a3.77,3.77,0,0,1,1.89-3.27l9.09-5.25a3.28,3.28,0,0,1,.6-.28,3.78,3.78,0,0,1,4.85,2.27A36.21,36.21,0,0,1,389.6,415.55Z"/><path class="cls-2" d="M359.9,477.7l-2.19-1.26-1.26,2.18a2.52,2.52,0,0,0-.92-3.45l-19.68-11.36a3.77,3.77,0,0,1-1.89-3.27V448.89a7.57,7.57,0,0,0-3.78-6.56l-10.09-5.82a7.53,7.53,0,0,0-7.57,0l-10.09,5.82a3.78,3.78,0,0,1-3.79,0l-6.47-3.73a2.51,2.51,0,0,0-3.44.92l-3.79,6.55a1,1,0,0,0-1.37.37h0l-16.65,28.84a1,1,0,0,0,.37,1.38l-3.79,6.55a1,1,0,0,0-1.38.37l-12.11,21a1,1,0,0,0,.37,1.38l-3.78,6.56a1.26,1.26,0,0,0,1.39,1.85,6.94,6.94,0,0,1,5.12.73l9.75,5.63.16.09a6.79,6.79,0,0,0,5.83.47,3.79,3.79,0,0,1,3.25.26L293.75,534a3.76,3.76,0,0,1,1.84,2.67,6.82,6.82,0,0,0,3.32,4.82l.16.09,9.75,5.63a6.92,6.92,0,0,1,3.19,4.08,1.27,1.27,0,0,0,2.31.28l-.75,1.3,2.18,1.26a2.54,2.54,0,0,0,3.45-.92l41.62-72.1A2.52,2.52,0,0,0,359.9,477.7Zm-57.47-28.81a3.78,3.78,0,0,1,1.89-3.28l10.09-5.83a3.81,3.81,0,0,1,3.78,0l10.1,5.83a3.78,3.78,0,0,1,1.89,3.28v11.65a3.77,3.77,0,0,1-1.89,3.27l-10.1,5.83a3.76,3.76,0,0,1-3.78,0l-10.09-5.83a3.77,3.77,0,0,1-1.89-3.27Zm0,18.2,10.09,5.83a3.77,3.77,0,0,1,1.89,3.27v11.66a3.77,3.77,0,0,1-1.89,3.27L302.43,497a3.82,3.82,0,0,1-3.79,0l-10.09-5.83a3.77,3.77,0,0,1-1.89-3.27V476.19a3.77,3.77,0,0,1,1.89-3.27l10.09-5.83A3.82,3.82,0,0,1,302.43,467.09ZM281,465.61,292.3,446a2.51,2.51,0,0,1,3.44-.92h0l1,.58a3.78,3.78,0,0,1,1.89,3.28v11.65a3.77,3.77,0,0,1-1.89,3.27l-10.09,5.83a3.76,3.76,0,0,1-3.78,0l-1-.58A2.52,2.52,0,0,1,281,465.61ZM267.11,515.3a2.52,2.52,0,0,1-3.78,2.18l-7.06-4.07a2.53,2.53,0,0,1-.93-3.45l5.43-9.39a2.52,2.52,0,0,1,3.44-.93h0l1,.58a3.8,3.8,0,0,1,1.89,3.28Zm0-18.35-1-.58a2.53,2.53,0,0,1-.92-3.45l11.35-19.66a2.53,2.53,0,0,1,3.45-.93l1,.59a3.77,3.77,0,0,1,1.89,3.27v11.66a3.77,3.77,0,0,1-1.89,3.27L270.9,497A3.82,3.82,0,0,1,267.11,497Zm15.77,27.31-10.09-5.83a3.8,3.8,0,0,1-1.89-3.28V503.5a3.8,3.8,0,0,1,1.89-3.28l10.09-5.82a3.76,3.76,0,0,1,3.78,0l10.09,5.82a3.8,3.8,0,0,1,1.89,3.28v11.65a3.8,3.8,0,0,1-1.89,3.28l-10.09,5.83A3.81,3.81,0,0,1,282.88,524.26Zm31.53,18.35a2.52,2.52,0,0,1-3.78,2.18l-10.2-5.89a3.77,3.77,0,0,1-1.85-2.68,6.77,6.77,0,0,0-3.32-4.81l-2.92-1.69a2.53,2.53,0,0,1-.93-3.45,2.56,2.56,0,0,1,.93-.92l6.3-3.64a3.78,3.78,0,0,1,3.79,0l10.09,5.82a3.8,3.8,0,0,1,1.89,3.28Zm15.77-27.46a3.8,3.8,0,0,1-1.89,3.28l-10.1,5.83a3.81,3.81,0,0,1-3.78,0l-10.09-5.83a3.8,3.8,0,0,1-1.89-3.28V503.5a3.8,3.8,0,0,1,1.89-3.28l10.09-5.82a3.76,3.76,0,0,1,3.78,0l10.1,5.82a3.8,3.8,0,0,1,1.89,3.28Zm15.76-27.3a3.77,3.77,0,0,1-1.89,3.27L334,497a3.81,3.81,0,0,1-3.78,0l-10.09-5.83a3.78,3.78,0,0,1-1.9-3.27V476.19a3.78,3.78,0,0,1,1.9-3.27l10.09-5.83a3.81,3.81,0,0,1,3.78,0l10.09,5.83a3.77,3.77,0,0,1,1.89,3.27Z"/><path class="cls-2" d="M236.61,565.83l-.09-.23-.13-.21-.18-.18-.2-.15L207,548.3l-.23-.11-.24-.06h-.25l-.25,0-.23.09-.22.13-.18.16-.14.21-3.16,5.46-.1.23-.06.24v.25l0,.24.09.24.14.21.17.18.2.14,1.12.64.2.14.2.16.19.17.16.19.14.2.12.22.11.23.08.23.05.24,0,.25v.26l0,.25,0,.24-.07.24-.09.24-.11.22-44.78,77.55-.13.21-.16.2-.18.18-.19.15-.2.14-.23.12-.23.1-.24.07-.24.05-.25,0h-.26l-.24,0-.24,0-.25-.08-.23-.09-.22-.11-10.3-6a1.26,1.26,0,0,0-1.72.46h0l-5.05,8.74-3.78,6.56A1.26,1.26,0,0,0,136,650l7.86,4.54a1.27,1.27,0,0,0,1.73-.46l1.89-3.28a2.51,2.51,0,0,1,3.44-.92L176,664.42a2.53,2.53,0,0,1,.92,3.45h0l-1.89,3.28a1.26,1.26,0,0,0,.46,1.72l7.86,4.54a1.27,1.27,0,0,0,1.73-.46l3.78-6.56,5-8.74a1.26,1.26,0,0,0-.47-1.72L183.19,654l-.21-.14-.2-.16-.18-.17-.17-.19-.14-.2-.12-.22-.11-.23-.08-.23,0-.24,0-.25v-.5l0-.24L182,651l.1-.24.11-.22L227,573l.14-.21.16-.19.17-.19.19-.15.21-.14.22-.12.24-.1.23-.07.24,0,.26,0h.25l.24,0,.24,0,.25.07.24.09.21.11,1.12.65.23.1.24.06h.25l.24,0,.24-.09.21-.12.18-.17.15-.21,3.15-5.46.1-.22.06-.25v-.25ZM189,626.78l-10.09,17.47a3.79,3.79,0,0,1-5.17,1.39l-1.09-.63-3.28-1.89-1.09-.63a3.78,3.78,0,0,1-1.38-5.17L177,619.84a3.79,3.79,0,0,1,5.17-1.39l5.46,3.16A3.78,3.78,0,0,1,189,626.78Zm16.15-28-8.83,15.3a3.78,3.78,0,0,1-5.17,1.38l-5.46-3.15a3.79,3.79,0,0,1-1.39-5.17l8.83-15.29a3.79,3.79,0,0,1,5.17-1.39l5.46,3.16A3.78,3.78,0,0,1,205.18,598.81Zm16-27.74-8.83,15.29a3.79,3.79,0,0,1-5.17,1.39l-5.46-3.16a3.79,3.79,0,0,1-1.39-5.17l8.83-15.29a3.78,3.78,0,0,1,5.17-1.38l5.46,3.15A3.79,3.79,0,0,1,221.2,571.07Z"/><path class="cls-1" d="M123.56,580.26l4.09.72a2.54,2.54,0,0,0,2.14-.63,52.56,52.56,0,0,0,8.88-10.57,1.27,1.27,0,0,0-.38-1.74l0,0-9.6-5.54a1.26,1.26,0,0,0-1.68.41c-.45.68-.91,1.34-1.4,2a1.27,1.27,0,0,0-.13,1.3,7.19,7.19,0,0,1-1.71,8.45,45.1,45.1,0,0,1-7.45,5.36,1.26,1.26,0,0,0-.49,1.69l2.75,5.11a1.26,1.26,0,0,0,1.71.52l0,0c.6-.33,1.18-.68,1.76-1a.75.75,0,0,0,.24-1v0l-1-1.39a2.28,2.28,0,0,1,.59-3.16A2.31,2.31,0,0,1,123.56,580.26Z"/><path class="cls-2" d="M152.51,708.71,104.6,681.05a1.26,1.26,0,0,0-1.72.46h0l-5,8.74a1.26,1.26,0,0,0,.46,1.72l9.8,5.66,3.27,1.89,9.25,5.34,3.28,1.89,9.24,5.34,3.28,1.89,9.79,5.65a1.26,1.26,0,0,0,1.72-.46l5.05-8.74A1.26,1.26,0,0,0,152.51,708.71Zm-26.23-6.18a2.14,2.14,0,1,1-4.28,0h0a2.14,2.14,0,0,1,4.28,0Z"/><path class="cls-2" d="M211.71,790.12,205.88,780a3.78,3.78,0,0,1,0-3.79l3.74-6.47a2.52,2.52,0,0,0-.93-3.44l-106.5-61.49a2.52,2.52,0,0,0-3.44.92L62.17,769.12a2.52,2.52,0,0,0,.92,3.44h0l106.5,61.49a2.53,2.53,0,0,0,3.45-.92l11.36-19.68a3.77,3.77,0,0,1,3.27-1.89h11.66a7.55,7.55,0,0,0,6.55-3.79l5.83-10.09A7.56,7.56,0,0,0,211.71,790.12ZM99.2,764.26l-5.83,10.09a3.77,3.77,0,0,1-3.28,1.89H78.44a3.77,3.77,0,0,1-3.27-1.89l-4.74-8.2a3.81,3.81,0,0,1,0-3.78l6.92-12a3.81,3.81,0,0,1,3.28-1.9h9.46a3.78,3.78,0,0,1,3.28,1.9l5.83,10.09A3.81,3.81,0,0,1,99.2,764.26Zm0-31.53-5.83,10.09a3.77,3.77,0,0,1-3.28,1.89H82.81a1.26,1.26,0,0,1-1.09-1.89l11.65-20.18a1.25,1.25,0,0,1,1.72-.46,1.22,1.22,0,0,1,.47.46l3.64,6.3A3.82,3.82,0,0,1,99.2,732.73Zm3.27-5.68-4.73-8.2a3.81,3.81,0,0,1,0-3.78l1.13-2a2.53,2.53,0,0,1,3.45-.93l18,10.41a2.51,2.51,0,0,1,.92,3.44l-.58,1a3.8,3.8,0,0,1-3.28,1.89H105.75A3.8,3.8,0,0,1,102.47,727.05Zm9.35,29.7a3,3,0,1,1-3-3A3,3,0,0,1,111.82,756.75Zm18.48,36.63-24.58-14.19a4.29,4.29,0,0,1-1.56-5.86l16.71-29h0a4.28,4.28,0,0,1,5.86-1.56L151.3,757a4.29,4.29,0,0,1,1.57,5.86l-16.71,28.95A4.29,4.29,0,0,1,130.3,793.38Zm17.88-16.9a3,3,0,1,1-3,3A3,3,0,0,1,148.18,776.48Zm21.18,40.32-24-13.87,21.75-37.69,24,13.88Z"/><path class="cls-1" d="M183.22,728.87l-5.46-3.15a6.31,6.31,0,0,0-8.62,2.3l-3.78,6.56a1.26,1.26,0,0,0,.46,1.72l14.2,8.2a1.26,1.26,0,0,0,1.72-.46l3.79-6.56A6.3,6.3,0,0,0,183.22,728.87Zm-3,5a3.56,3.56,0,0,1-7.11,0h0a3.56,3.56,0,1,1,7.11,0Z"/><path class="cls-1" d="M235.39,856.26v.18l0,.18-.05.18-.07.19-.1.18L232.94,861l-.1.17-.12.14-.13.12-.14.1-.15.08-.16.06-.17,0h-.38l-.2,0-.22-.05-.23-.07-.24-.08-.25-.11-.26-.13-.27-.15-.27-.16-.24-.16-.22-.17-.2-.16-.17-.17-.15-.16-.13-.17-.1-.17-.08-.17-.05-.16,0-.17v-.17l0-.18,0-.17.06-.17.09-.17,2.21-3.83.12-.19.14-.17.14-.14.15-.12.16-.09.17-.06.17,0h.39l.21,0,.21,0,.23.07.23.09.25.11.26.12.26.15.27.16.24.16.22.17.19.16.17.17.15.17.12.17.1.18.07.17.05.18Zm-16.28-9.56-.05-.17-.07-.18-.1-.17-.12-.17-.15-.17-.17-.17-.19-.16-.22-.17-.24-.16-.27-.16-.26-.15-.26-.13-.24-.1-.24-.09-.23-.07-.21-.05-.21,0h-.38l-.18,0-.17.06-.16.09-.15.12-.14.14-.14.16-.12.2-2.21,3.83-.09.17-.06.17,0,.17,0,.17v.17l0,.17.05.17.08.17.1.17.13.16.15.17.17.17.2.16.22.16.24.17.27.16.27.15.26.13.25.11.24.08.23.07.22,0,.2,0h.38l.17,0,.16-.06.15-.08.14-.1.13-.12.12-.15.1-.16,2.21-3.83.1-.18.07-.19.05-.18,0-.18v-.18Zm7.53,4.06-.17-.23-.22-.22-.3-.23-.35-.23-1.69-1-1.75,3,1.58.9.42.23.38.16.32.1.29,0,.24,0,.23-.11.19-.17.18-.25.64-1.12.1-.23,0-.22,0-.23Zm25.21,5.64c-2.7,4.82-2.66,8.88-.26,13.4,2.81,5.29,1.73,7.79-4.33,9.63-1.07.33-2.33.48-2.63,1.5-1.27,4.37-3.9,2.46-6.18,1.35-2.47-1.2-4.79-2.7-7.19-4-6.78-3.82-7-3.92-3.89-10.65,1.17-2.51.61-3.21-1.45-4.33-4.09-2.22-8.12-4.57-12-7.16-3.34-2.25-5.09.16-6,2.3-2,4.72-4.75,3.67-7.92,1.69-1.43-.89-2.83-1.84-4.3-2.67-8.55-4.82-9.36-6.56-7.25-16,.64-2.85,2.41-4.57,5.4-4.43,7.14.33,11.24-3.46,14.37-9.45,4.83-9.29,11-17.84,15.4-27.39,1.46-3.17,4.51-3.36,8.4-3.21,2.94,1.06,6.87,1.26,10.44,3.75a149,149,0,0,0,17.76,10.27c4.43,2.25,7.13,5.83,9.55,9.87a5.08,5.08,0,0,1-.12,5.39C263,835.85,257.56,846.18,251.85,856.4Zm-54.39-14.24c-.6-1.36-1.29-2.58-3.08-2.69-2-.14-4.21,0-4.46,2.47-.19,1.84,1.62,3.31,3.13,3.65C195.27,846.09,196.18,843.86,197.46,842.16Zm16.06-.33-1.19-.69-6.56,5.41-.11-.06,1.41-8.39-1.26-.72-1.52,9.84,1.39.8Zm4.33,10.48,2.2-3.82.15-.29.11-.28.07-.28,0-.28v-.27l0-.27-.07-.27-.11-.27-.15-.27-.19-.26-.22-.26-.26-.26-.3-.25-.33-.25-.37-.25-.41-.25-.41-.23-.4-.19-.38-.16-.37-.13-.35-.09-.33-.06-.32,0h-.3l-.29,0-.27.08-.25.1-.24.14-.22.17-.21.21-.19.24-.17.27-2.2,3.8-.14.27-.1.27-.07.27,0,.27v.26l0,.27.08.26.11.26.15.25.19.26.22.25.26.25.29.25.33.25.37.25.4.24.38.21.37.18.36.15.34.13.35.1.33.08.32,0,.31,0h.3l.28,0,.27-.09.25-.12.23-.16.21-.2.19-.23Zm9,1.63.13-.15.11-.17.8-1.39.16-.31.1-.3,0-.27v-.26l-.08-.25-.12-.24-.18-.24-.24-.24-.29-.25-.37-.26-.43-.29L226,849l-2.82-1.64-4.65,8.05,1.2.69,2-3.43,1.16.67.32,4.77,1.48.85-.51-5.07.45.22.43.16.43.08h.41l.2,0,.18,0,.17-.06.16-.09.15-.11Zm7.23,7.75,2.2-3.82.15-.28.11-.29.07-.28,0-.28v-.27l0-.27-.07-.27-.12-.27-.14-.27-.19-.26-.22-.26-.26-.26-.3-.25-.33-.25-.37-.25-.41-.25-.41-.23-.4-.19L233,853l-.37-.13-.35-.09-.33-.06-.32,0h-.3l-.29,0-.27.07-.25.1-.24.14-.22.17-.21.21-.19.24-.17.27-2.2,3.8-.14.28-.1.27-.07.26,0,.27v.26l.05.27.07.26.12.26.15.25.18.26.23.25.26.25.29.25.33.25.37.25.4.24.38.21.37.18.35.15.35.13.34.1.34.08.32,0,.31,0h.3l.28,0,.27-.08.25-.13.23-.16.21-.19.19-.24Zm12.19-.94-1-.61-3.84,6.64-.54-9.17-1.45-.83-4.64,8,1,.61,3.9-6.76.48,9.28,1.45.84Zm1,9.73c-1.9.14-3.55,1.09-3,3.1.44,1.6,1.06,3.91,3.69,3.32,2.78.18,3.34-2.15,3.41-3.74C251.47,870.73,249.29,870.32,247.25,870.48Zm12.22-43.38c0-11.53-10.23-22-21.61-21.16-12.22.89-20.64,8.55-21,21.78-.36,11.9,8.88,20.8,21,20.81C250.73,848.55,259.48,839.9,259.47,827.1Z"/><path class="cls-1" d="M265.16,779.52a5.23,5.23,0,0,0-2.22-9.35l-3.73-.66a6.29,6.29,0,0,0-2.73.12l-10.05,2.69a18.88,18.88,0,0,1-13.6-1.48l-7.78-4a1.89,1.89,0,0,0-1.74,3.36l1.3.68a2.53,2.53,0,0,1,1.28,1.58l2.1,7.84a2.54,2.54,0,0,1-.39,2.12c-.39.55-.75,1.11-1.09,1.68a5,5,0,0,0-.56,3.68,1.26,1.26,0,0,0,1.51,1,1.14,1.14,0,0,0,.36-.15q2.1-1.26,4.31-2.32a.94.94,0,0,0,.44-1.26.91.91,0,0,0-.33-.37,1.9,1.9,0,0,1-.52-2.63,1.37,1.37,0,0,1,.25-.29l.18-.18a5,5,0,0,1,2.19-1.24l15.37-4.12.7-.15.71-.09.71,0,.71,0,.71.1.7.15.68.22.66.27.63.33.61.38.57.44.52.48.49.53.43.57.39.6.33.63,2.63,5.64a1.89,1.89,0,0,0,3.43-1.6l-.94-2A2.52,2.52,0,0,1,265.16,779.52Zm-.92-4.19a2.21,2.21,0,0,1-4.42,0h0a2.21,2.21,0,0,1,4.42,0Z"/><path class="cls-1" d="M339.08,766.84H282.82a3.79,3.79,0,0,0-3.79,3.79v2.77a.51.51,0,0,0,.51.51h17.91v-.38a2.15,2.15,0,1,1,3,0h0v.38h14.38a4.29,4.29,0,0,1,4.29,4.29v11.35a2.52,2.52,0,0,0,2.52,2.52h17.41a5,5,0,0,0,5.05-5V771.89A5,5,0,0,0,339.08,766.84Zm-7.56,16.09a3.47,3.47,0,1,1,3.46-3.47A3.47,3.47,0,0,1,331.52,782.93Z"/><path class="cls-2" d="M310.41,791H276.35a4.54,4.54,0,0,0-4.54,4.54v8.85a5.55,5.55,0,0,0,1.63,3.92l5.28,5.28a5.51,5.51,0,0,0,3.92,1.63h21.48a5.51,5.51,0,0,0,3.92-1.63l5.28-5.28a5.55,5.55,0,0,0,1.63-3.92v-8.85A4.54,4.54,0,0,0,310.41,791Zm-17,15.9a3.79,3.79,0,1,1,3.78-3.79A3.79,3.79,0,0,1,293.38,806.89Z"/><path class="cls-2" d="M364.77,883.47,345,872.06a1.27,1.27,0,0,1-.46-1.73L356,850.56a1.26,1.26,0,0,0-.47-1.72l-48.1-27.77-.49-.25-.52-.19-.53-.12-.54-.06h-.54l-.52.07-.5.14-.48.21-.43.26-.39.31-.33.37-.28.41L264,887.86a3.89,3.89,0,0,0-.26,3.36l1.05,2.67a3.84,3.84,0,0,0,1.68,2l66.22,38.23.44.22.48.15.49.08h.51l.51-.06.51-.13.49-.2.46-.26.44-.32.4-.37.36-.43.3-.46,27.2-47.12A1.25,1.25,0,0,0,364.77,883.47ZM335,845.26a6.31,6.31,0,1,1-6.31,6.3A6.3,6.3,0,0,1,335,845.26Zm-5.89,29.12a3.79,3.79,0,1,1,3.78,3.78A3.78,3.78,0,0,1,329.1,874.38Zm6.88,34.3-1.9,3.3-4.26-8.47,1.9-3.3Zm-29.72-80A6.31,6.31,0,1,1,300,835,6.32,6.32,0,0,1,306.26,828.67ZM299,851.05a3.78,3.78,0,1,1-3.78,3.78A3.79,3.79,0,0,1,299,851.05Zm-19.55,41.43a3.79,3.79,0,1,1,3.79-3.79A3.79,3.79,0,0,1,279.47,892.48ZM313.33,912a3.79,3.79,0,1,1,3.79-3.79A3.79,3.79,0,0,1,313.33,912Zm9.24-30.49a16.4,16.4,0,1,1-32.79,0h0a16.4,16.4,0,1,1,32.79,0Zm7.52,45.6a6.31,6.31,0,1,1,6.31-6.31A6.3,6.3,0,0,1,330.09,927.14Zm11.75-12.77-8.51-16.93,1.9-3.3,8.51,16.94Zm3.5-6.07-4.25-8.47,1.9-3.29,4.25,8.46Zm3.3-13.27a6.31,6.31,0,1,1,6.3-6.31A6.31,6.31,0,0,1,348.64,895Z"/><path class="cls-2" d="M781.43,201l-72.09-41.62a2.51,2.51,0,0,0-3.44.92h0l-1.27,2.19,2.19,1.26a2.52,2.52,0,0,0-3.45.92L692,184.33a3.77,3.77,0,0,1-3.27,1.89H677.09a7.57,7.57,0,0,0-6.56,3.78l-5.82,10.09a7.53,7.53,0,0,0,0,7.57l5.82,10.09a3.76,3.76,0,0,1,0,3.78L666.8,228a2.52,2.52,0,0,0,.92,3.45l6.55,3.78a1,1,0,0,0,.37,1.38l28.84,16.65a1,1,0,0,0,1.38-.37l6.55,3.79a1,1,0,0,0,.37,1.37l21,12.12a1,1,0,0,0,1.38-.37l6.56,3.78a1.26,1.26,0,0,0,1.85-1.39,6.89,6.89,0,0,1,.73-5.12l5.63-9.75.09-.16a6.81,6.81,0,0,0,.47-5.84,3.77,3.77,0,0,1,.25-3.24l12.51-21.65a3.76,3.76,0,0,1,2.67-1.84,6.82,6.82,0,0,0,4.82-3.32l.09-.16,5.63-9.75a7,7,0,0,1,4.08-3.2,1.26,1.26,0,0,0,.28-2.3l1.3.75,1.26-2.18A2.53,2.53,0,0,0,781.43,201ZM731.7,190h11.65a3.8,3.8,0,0,1,3.28,1.89L752.45,202a3.78,3.78,0,0,1,0,3.79l-5.82,10.09a3.8,3.8,0,0,1-3.28,1.89H731.7a3.8,3.8,0,0,1-3.28-1.89l-5.82-10.09a3.78,3.78,0,0,1,0-3.79l5.82-10.09A3.8,3.8,0,0,1,731.7,190Zm-6.55,31.53-5.83,10.09a3.76,3.76,0,0,1-3.28,1.9H704.39a3.76,3.76,0,0,1-3.27-1.9l-5.83-10.09a3.76,3.76,0,0,1,0-3.78l5.83-10.09a3.77,3.77,0,0,1,3.27-1.89H716a3.77,3.77,0,0,1,3.28,1.89l5.83,10.09A3.81,3.81,0,0,1,725.15,221.53Zm-29.86-35.31,5.83-10.09a3.77,3.77,0,0,1,3.27-1.89H716a3.77,3.77,0,0,1,3.28,1.89l5.83,10.09a3.81,3.81,0,0,1,0,3.78l-5.83,10.09A3.77,3.77,0,0,1,716,202H704.39a3.77,3.77,0,0,1-3.27-1.89L695.29,190A3.76,3.76,0,0,1,695.29,186.22ZM668,205.77a3.82,3.82,0,0,1,0-3.79l5.83-10.09a3.77,3.77,0,0,1,3.28-1.89h11.65a3.77,3.77,0,0,1,3.27,1.89L697.84,202a3.82,3.82,0,0,1,0,3.79L692,215.86a3.77,3.77,0,0,1-3.27,1.89H677.09a3.77,3.77,0,0,1-3.28-1.89Zm29.86,31.53-.58,1a2.52,2.52,0,0,1-3.45.92l-19.66-11.35a2.52,2.52,0,0,1-.92-3.45h0l.58-1a3.78,3.78,0,0,1,3.28-1.9h11.65a3.78,3.78,0,0,1,3.27,1.9l5.83,10.09A3.81,3.81,0,0,1,697.84,237.3Zm27.31,15.77-.59,1a2.52,2.52,0,0,1-3.44.92l-19.66-11.35a2.53,2.53,0,0,1-.93-3.45l.59-1a3.77,3.77,0,0,1,3.27-1.89H716a3.77,3.77,0,0,1,3.28,1.89l5.83,10.09A3.82,3.82,0,0,1,725.15,253.07Zm20.53,3.78-4.08,7.06a2.52,2.52,0,0,1-3.44.93l-9.4-5.43a2.52,2.52,0,0,1-.92-3.44l.58-1a3.8,3.8,0,0,1,3.28-1.89h11.8a2.52,2.52,0,0,1,2.18,3.78Zm6.77-19.55-5.82,10.09a3.8,3.8,0,0,1-3.28,1.89H731.7a3.8,3.8,0,0,1-3.28-1.89L722.6,237.3a3.76,3.76,0,0,1,0-3.78l5.82-10.09a3.81,3.81,0,0,1,3.28-1.9h11.65a3.81,3.81,0,0,1,3.28,1.9l5.82,10.09A3.76,3.76,0,0,1,752.45,237.3ZM773,209.55l-5.89,10.2a3.77,3.77,0,0,1-2.68,1.85,6.8,6.8,0,0,0-4.82,3.32l-1.68,2.92a2.52,2.52,0,0,1-4.37,0l-3.64-6.31a3.76,3.76,0,0,1,0-3.78l5.82-10.09a3.8,3.8,0,0,1,3.28-1.89h11.8a2.52,2.52,0,0,1,2.18,3.78Z"/><path class="cls-1" d="M852.41,240l-55.7-32.17a5.69,5.69,0,0,0-7.76,2.08l-32.16,55.71a5.67,5.67,0,0,0,2.08,7.75l55.71,32.16a5.67,5.67,0,0,0,7.75-2.07l32.16-55.71A5.66,5.66,0,0,0,852.41,240Zm-59.13-17.41a36.32,36.32,0,0,1,24.72,0,4.78,4.78,0,0,1,.61.28,3.78,3.78,0,0,1,1.38,5.17l-5.25,9.09a3.78,3.78,0,0,1-3.27,1.9H799.81a3.78,3.78,0,0,1-3.27-1.9l-5.25-9.09a4.11,4.11,0,0,1-.28-.6A3.79,3.79,0,0,1,793.28,222.61Zm4.78,39.88-3.68-2.12,18.92-9.51L817,253Zm16.24-.84-9.45,4.76-3.69-2.13,9.46-4.75Zm-17.24-9.95,9.45-4.75,3.68,2.12-9.45,4.75Zm-21.7-14.95-2.14,3.71A36.81,36.81,0,0,1,775.36,236.75Zm-5.42,13.62a35.87,35.87,0,0,1,1.86-6.69c.13-.34.26-.67.4-1l4.58-7.93q.32-.42.66-.84a36.17,36.17,0,0,1,4.86-5,3.79,3.79,0,0,1,5.33.46,3.58,3.58,0,0,1,.38.55l5.25,9.09a3.76,3.76,0,0,1,0,3.78l-5.82,10.09a3.8,3.8,0,0,1-3.28,1.89h-10.5a3.78,3.78,0,0,1-3.78-3.78A3.6,3.6,0,0,1,769.94,250.37ZM787.63,284a3.79,3.79,0,0,1-5.33.46A36.25,36.25,0,0,1,769.94,263a3.68,3.68,0,0,1-.06-.66,3.78,3.78,0,0,1,3.78-3.78h10.5a3.8,3.8,0,0,1,3.28,1.89l5.82,10.09a3.76,3.76,0,0,1,0,3.78L788,283.45A4.14,4.14,0,0,1,787.63,284ZM818,290.79a36.21,36.21,0,0,1-24.72,0,3.71,3.71,0,0,1-.61-.28,3.79,3.79,0,0,1-1.38-5.17l5.25-9.09a3.77,3.77,0,0,1,3.27-1.89h11.66a3.77,3.77,0,0,1,3.27,1.89l5.25,9.09a3.71,3.71,0,0,1,.28.61A3.78,3.78,0,0,1,818,290.79Zm17.92-14.14,2.14-3.7A34.85,34.85,0,0,1,835.92,276.65ZM841.34,263a35.53,35.53,0,0,1-1.86,6.69c-.13.33-.26.67-.4,1l-4.57,7.92c-.22.29-.44.57-.67.85a36.74,36.74,0,0,1-4.86,5,3.79,3.79,0,0,1-5.33-.46,4.14,4.14,0,0,1-.38-.55L818,274.36a3.76,3.76,0,0,1,0-3.78l5.83-10.09a3.77,3.77,0,0,1,3.27-1.89h10.5a3.78,3.78,0,0,1,3.78,3.78A3.68,3.68,0,0,1,841.34,263Zm-3.72-8.23h-10.5a3.77,3.77,0,0,1-3.27-1.89L818,242.83a3.76,3.76,0,0,1,0-3.78l5.25-9.09a3.58,3.58,0,0,1,.38-.55A3.79,3.79,0,0,1,829,229a36.25,36.25,0,0,1,12.36,21.42,3.6,3.6,0,0,1,.06.66A3.78,3.78,0,0,1,837.62,254.81Z"/><path class="cls-2" d="M717.73,279.38a4.89,4.89,0,0,0-2.29-3l-12.94-7.48a1,1,0,0,1,0-.17l13,7.51-31.34-18.1a21.51,21.51,0,0,1-8.27-8.57,5.87,5.87,0,0,1-.54-1.41,5,5,0,0,0-2.34-3.1,5.9,5.9,0,0,1-.87-.61c-1.14-1-2.31-1.85-3.51-2.72l-.07.13c-1.59-1.15-3.23-2.24-4.91-3.25a1.09,1.09,0,0,0-1.51.37v0l-1.37,2.35-.11-.12-10.35,17.92-1.09,1.89-.15.29-.13.31-.23.65-.2.65-.17.63,0,.25.06.24.11.22.08.1.1.07,3.55,2.05-4.68,8.11L644,272.57l-.12-.05-.12,0h-.24l-.24.08-.23.1-.46.46-.47.5-.44.52-.2.27-.18.28-1.09,1.89-.79,1.36.1-.14.12-.14.12-.12.14-.1-2.86,5-.21,0,1.49-2.57-7.48,12.95h.18l-2.35,4.08a1.1,1.1,0,0,0,.4,1.5h0a67.56,67.56,0,0,0,9.36,4.29,5.59,5.59,0,0,1,1,.46,4.86,4.86,0,0,0,3.73.46,6.19,6.19,0,0,1,1.54-.25,21.74,21.74,0,0,1,11.63,2.9l31.35,18.1a4.91,4.91,0,0,0,3.73.48A21.24,21.24,0,0,0,704.27,315l11.3-19.57A21.28,21.28,0,0,0,717.73,279.38ZM645,299a3.13,3.13,0,1,1-6.25,0h0a3.13,3.13,0,1,1,6.25,0Zm5.9-40.54,0-.17,0-.17L651,258l.08-.15,3.49-6,.09.16Zm7.65,5.73a3.79,3.79,0,1,1,3.79,3.78A3.79,3.79,0,0,1,658.56,264.19Zm7.59,27.6a5.53,5.53,0,1,1,5.52-5.53A5.53,5.53,0,0,1,666.15,291.79Zm4.38-39.45a3,3,0,1,1,3-3A3,3,0,0,1,670.53,252.34Zm13.4,42.4L682,291l.84-1.46,1.89,3.76Zm-.34-6.45.85-1.46,3.77,7.51-.84,1.46Zm4.29-.4,1.89,3.76-.84,1.46L687,289.35Zm9.67,32.74a3.79,3.79,0,0,1-5.17,1.39l-.76-.44A3.79,3.79,0,0,1,695.4,315l.77.45A3.77,3.77,0,0,1,697.55,320.63Zm1.4-6.2a3.79,3.79,0,1,1,3.79-3.78A3.78,3.78,0,0,1,699,314.43Zm18.15-27.66a3.78,3.78,0,0,1-5.16,1.39l-.77-.44a3.79,3.79,0,0,1,3.78-6.56l.77.44A3.79,3.79,0,0,1,717.1,286.77Z"/><path class="cls-2" d="M770.86,293.58l-.5-.49H730l-.49.49v30.51l.23.25.26.27h40.39l.25-.27.24-.25Zm-30,23.62a3.79,3.79,0,0,1-7.57,0h0a3.79,3.79,0,1,1,7.57,0Zm26.23,0a3.78,3.78,0,0,1-7.56,0h0a3.78,3.78,0,1,1,7.56,0Z"/><path class="cls-2" d="M855.61,322.93H841.74a11.94,11.94,0,0,1-5.56-1.37,10.19,10.19,0,0,0-4.69-1.15H817.64a10.22,10.22,0,0,1-3.71-.7,17,17,0,0,0-12.49,31.68l.76.28a52.66,52.66,0,0,0,16.92,2.8h36.49a3.79,3.79,0,0,0,3.79-3.79v-24A3.79,3.79,0,0,0,855.61,322.93Zm-39.88,12.64a8,8,0,0,1-16.09,0v0a8,8,0,1,1,16.09,0ZM830.39,339a3.41,3.41,0,1,1,3.4-3.4A3.41,3.41,0,0,1,830.39,339Zm20.18,0a3.41,3.41,0,1,1,3.4-3.4A3.41,3.41,0,0,1,850.57,339Z"/><path class="cls-2" d="M661.06,346.78l-17.48-10.09a2.51,2.51,0,0,1-.92-3.44l2.56-4.45.26-.48.24-.5.21-.5.19-.52.16-.53.13-.53.11-.54.08-.55,0-.54V323l0-.55-.07-.54-.11-.54-.14-.53-.17-.52-.18-.41-.22-.39-.26-.37-.3-.33-.46-.47-.48-.44-.49-.43-.51-.41-.53-.38-.54-.37-.55-.35-.57-.33-4.09-2.28-2.05-1.14-2-1.12-7.92-4.4-.19-.09-.21-.05h-.22l-.21,0-.2.08-.18.12-.15.15-.12.18-3.05,5.27-.1.25,0,.26v.27l.07.25.12.25.16.21.2.18.22.15,4.77,2.76.46,1.72L609.9,347.1a1.27,1.27,0,0,1-1.73.47l-6.55-3.79a1.26,1.26,0,0,0-1.72.46l-2.7,4.67a5,5,0,0,0,1.85,6.89l2.67,1.55a5.08,5.08,0,0,1,2,2.23l1.57,3.38a12.62,12.62,0,0,0,5.13,5.59L639,385a3.79,3.79,0,0,0,5.17-1.39L662.44,352A3.78,3.78,0,0,0,661.06,346.78Zm-36.67-2.09a3.28,3.28,0,0,1-1.2-4.47l6.31-10.93a3.28,3.28,0,1,1,5.68,3.28l-6.31,10.93A3.28,3.28,0,0,1,624.39,344.69Zm12.94,28.94a3.41,3.41,0,1,1,3.4-3.41A3.41,3.41,0,0,1,637.33,373.63Zm10.09-17.48a3.41,3.41,0,1,1,3.4-3.4A3.41,3.41,0,0,1,647.42,356.15Z"/><path class="cls-2" d="M655.93,408.41l-.43-2.83a3.9,3.9,0,0,0-1.91-2.79L588,364.9l-.45-.21-.48-.15-.49-.08H586l-.51.06-.5.13-.49.19-.47.26-.44.33-.4.37-.35.42-.31.46-27.77,48.1a1.27,1.27,0,0,0,.46,1.73L575,427.91a1.26,1.26,0,0,1,.47,1.72l-11.42,19.78a1.26,1.26,0,0,0,.46,1.72l47.12,27.2.5.25.51.19.54.12.54.06h.53l.53-.07.5-.14.47-.2.43-.27.39-.31.34-.37.28-.41L655.45,411A4,4,0,0,0,655.93,408.41ZM606.7,387.94a3.79,3.79,0,1,1-3.78,3.79A3.79,3.79,0,0,1,606.7,387.94Zm-16.19-16.09a6.31,6.31,0,1,1-6.31,6.3A6.31,6.31,0,0,1,590.51,371.85ZM598,445.6l3.29,1.9-8.46,4.26-3.3-1.91Zm-24.11-32.41a6.31,6.31,0,1,1,6.31-6.31A6.31,6.31,0,0,1,573.92,413.19Zm6.76,39a6.31,6.31,0,1,1,6.31-6.31A6.32,6.32,0,0,1,580.68,452.19Zm2.69-26.6a3.79,3.79,0,1,1,3.78,3.78A3.79,3.79,0,0,1,583.37,425.59Zm3.8,32,16.93-8.51,3.29,1.91-16.93,8.51Zm9.36,5.41-3.29-1.9,8.46-4.26,3.3,1.91Zm16.26,7.71a6.31,6.31,0,1,1,6.31-6.31A6.31,6.31,0,0,1,612.79,470.73ZM621,448.92a3.79,3.79,0,1,1,3.78-3.78A3.79,3.79,0,0,1,621,448.92Zm-7.16-14.09a16.4,16.4,0,0,1-16.4-16.4v0a16.4,16.4,0,1,1,16.4,16.42Zm26.71-19.77a3.79,3.79,0,1,1,3.78-3.78A3.79,3.79,0,0,1,640.57,415.06Z"/><path class="cls-2" d="M587.73,479.09l-39.87-23a2.53,2.53,0,0,0-3.45.93l-10.09,17.47a2.53,2.53,0,0,0,.93,3.45l1.56.91a10.1,10.1,0,0,1,4.71,6.12l.27,1a37.88,37.88,0,0,1,.21,18.8,17,17,0,1,0,33.55,3.48,10.14,10.14,0,0,1,1.35-5.38l11.75-20.35A2.53,2.53,0,0,0,587.73,479.09Zm-41.12-7.21h0a3.41,3.41,0,0,1,6.81,0h0a3.41,3.41,0,0,1-6.81,0Zm19.77,37a7.85,7.85,0,1,1-15.69,0h0a7.85,7.85,0,1,1,15.69,0Zm6-20.63a3.41,3.41,0,1,1,3.4-3.41A3.41,3.41,0,0,1,572.41,488.22Z"/><path class="cls-2" d="M562.21,546.06,543.3,535.15a10.14,10.14,0,0,1-3.5-3.39l-.4-.62-.4-.58-.39-.55-.4-.52a27.81,27.81,0,0,0-7.91-7,5.5,5.5,0,0,1-1.84-1.78.51.51,0,0,0-.7-.15.5.5,0,0,0-.15.69,6.38,6.38,0,0,0,2.24,2.14,1,1,0,0,1,.36.37,1,1,0,0,1-.37,1.38l-1.67,1-1.07.62a1.24,1.24,0,0,1-1.26,0l-2.26-1.31a1.26,1.26,0,0,1-.46-1.72l3.17-5.49.09-.2.06-.2,0-.21,0-.21-.05-.21-.08-.2-.12-.18-.14-.15a4.72,4.72,0,0,0-.89-.65l-10.07-5.82-.16-.09-.71-.41-.42-.2-.45-.13-.46-.05-.46,0-.44.1-.41.18-.37.25-.32.31-.25.35-16.8,29.09-.52,1-.49,1-.46,1-.43,1-.39,1.06-.35,1.08-.32,1.1L490.6,548l-.63,2.73-.14.61-1.14,4.93a10.34,10.34,0,0,0-.17,3.88,3.75,3.75,0,0,0,1.85,2.74L537,589.75a5,5,0,0,0,6.89-1.84l20.18-35A5,5,0,0,0,562.21,546.06Zm-24.79,4.4a2.15,2.15,0,1,1,4.29,0h0a2.15,2.15,0,0,1-4.29,0Zm-12.37-19.81h6.11l3.06,5.3-3.06,5.3h-6.11L522,536Zm-18.75,15h-6.12l-3.06-5.3,3.06-5.3h6.12l3.05,5.3ZM513,526.93a3.4,3.4,0,0,1-3.4-3.4h0a3.41,3.41,0,1,1,6.81,0h0A3.4,3.4,0,0,1,513,526.93Zm5.79,31-3.06-5.3,3.06-5.29h6.12l3.06,5.29-3.06,5.3Zm8.59,10h0a2.15,2.15,0,0,1,4.29,0h0a2.15,2.15,0,0,1-4.29,0ZM539,579.25a2.52,2.52,0,0,1-3.45.92l-3.27-1.89a2.52,2.52,0,0,1-.93-3.44l15.14-26.22a2.51,2.51,0,0,1,3.44-.92l3.28,1.89a2.51,2.51,0,0,1,.92,3.44Zm9-1.84a2.14,2.14,0,1,1-4.28,0h0a2.14,2.14,0,0,1,4.28,0Zm10.09-17.48a2.14,2.14,0,0,1-4.28,0h0a2.14,2.14,0,1,1,4.28,0Z"/><path class="cls-1" d="M522.36,595.12l-35.61-20.56a7.56,7.56,0,0,0-10.33,2.77l-.21.36-2,3.43-56.8,98.38-2,3.42-.21.36A7.57,7.57,0,0,0,418,693.62l35.61,20.56A7.57,7.57,0,0,0,464,711.41l.29-.49,1.82-3.17L523,609.11l1.83-3.16.28-.49A7.57,7.57,0,0,0,522.36,595.12ZM437,701.82l-2.13-4.23.95-1.65,2.13,4.24Zm3.88,1.2-4.26-8.46.95-1.65,4.26,8.46Zm1.75-3-2.13-4.24.95-1.64,2.13,4.23Zm59.66-60.08-14.44,25L480.32,678l-14.44,25a1.27,1.27,0,0,1-1.73.46L422,679.17a1.26,1.26,0,0,1-.46-1.72L458,614.31a1.26,1.26,0,0,1,1.72-.46l.27.16,35,20.18,6.94,4A1.26,1.26,0,0,1,502.33,639.91Zm9.34-24.75a3.15,3.15,0,0,1-4.3,1.16h0L502,613.23l-2-1.17a2.52,2.52,0,0,0-3.45.92l-1.89,3.28a1.26,1.26,0,0,1-1.72.46l-17.48-10.09a1.26,1.26,0,0,1-.46-1.72l9.46-16.39a1.26,1.26,0,0,1,1.72-.46l17.48,10.09a1.26,1.26,0,0,1,.46,1.72l-1.89,3.28a2.53,2.53,0,0,0,.92,3.45l2,1.16,5.35,3.09A3.16,3.16,0,0,1,511.67,615.16Z"/><path class="cls-2" d="M401.57,831.69A12.77,12.77,0,0,0,414,818.6a.86.86,0,0,0,0-.16l-1-25.2a18.51,18.51,0,0,0-19.21-17.78l-.9,0-15.29,1.34a12.49,12.49,0,0,0-8.46,4.4L356.79,796a1.11,1.11,0,0,0,.13,1.55l8.82,7.4-16.86,20.09,9.2,7.73Zm4.5-8.71-5.92,2.15-4.83-4,1.1-6.21,5.92-2.15,4.83,4Zm.49-15.51a2,2,0,1,1-2,2A2,2,0,0,1,406.56,807.47Zm-21.81-21.73a2.53,2.53,0,0,1,3.56-.32l2.06,1.73a.61.61,0,0,0,.69.08,7.13,7.13,0,0,1,1.25-.51l-.15-.12a7.65,7.65,0,0,1,3.46-.3l-.13.14a7.11,7.11,0,0,1,1.31.29.65.65,0,0,0,.68-.2l1.72-2.06a2.52,2.52,0,0,1,3.87,3.24l-1.73,2.06a.66.66,0,0,0-.08.7,7,7,0,0,1,.51,1.24l.13-.14a7.75,7.75,0,0,1,.3,3.45l-.15-.12a7.46,7.46,0,0,1-.28,1.31.63.63,0,0,0,.19.67l2.06,1.73a2.52,2.52,0,0,1-3.24,3.87l-2.06-1.73a.62.62,0,0,0-.7-.08,6.73,6.73,0,0,1-1.24.51l.15.12a7.66,7.66,0,0,1-3.46.3l.13-.14a7.4,7.4,0,0,1-1.32-.29.64.64,0,0,0-.67.2l-1.73,2.06a2.52,2.52,0,0,1-3.86-3.24l1.73-2.06a.64.64,0,0,0,.07-.7,9,9,0,0,1-.51-1.24l-.12.14a7.75,7.75,0,0,1-.3-3.45l.15.12a7.46,7.46,0,0,1,.28-1.31.63.63,0,0,0-.19-.67l-2.06-1.73A2.52,2.52,0,0,1,384.75,785.74Zm-9.38-1.29a2,2,0,1,1-2,2A2,2,0,0,1,375.37,784.45Zm-13.73,36.17a2,2,0,1,1-2,2A2,2,0,0,1,361.64,820.62Z"/><path class="cls-2" d="M454.41,740.68l-3-1.73a1.39,1.39,0,0,1-.6-1.7,30.3,30.3,0,0,1,4.74-8.21,2.51,2.51,0,0,0,.54-1.82,4.77,4.77,0,0,0-2.34-3.52l-2.63-1.52-.86-.5-.25-.12-.36-.08h-.35l-.33.06-.28.13-.11.07a13,13,0,0,1-20.16-11.64V710l0-.31-.11-.32-.18-.3-.26-.27-.23-.16-.85-.49-20.52-11.85a5.1,5.1,0,0,0-3.86-.5,21.47,21.47,0,0,0-12.9,10l-11.3,19.57A21.38,21.38,0,0,0,376,741.46a5.05,5.05,0,0,0,2.35,3.09L425.88,772a4.77,4.77,0,0,0,4.22.26,2.56,2.56,0,0,0,1.3-1.37,30,30,0,0,1,4.75-8.22,1.38,1.38,0,0,1,1.77-.32l3,1.73h0l.45.25a1.26,1.26,0,0,0,1.72-.46l1.7-3,8.83-15.29,1.7-3a1.26,1.26,0,0,0-.46-1.72l-.44-.26Zm-71.66-3.22a2.21,2.21,0,0,1-3,.81l-.76-.44a2.2,2.2,0,1,1,2.2-3.82l.77.44A2.21,2.21,0,0,1,382.75,737.46Zm15-36.51a2.2,2.2,0,0,1,3-.8l.77.44a2.21,2.21,0,1,1-2.21,3.82l-.76-.44A2.21,2.21,0,0,1,397.71,701Zm-5.79,9.2a3,3,0,0,1,6.05,0h0a3,3,0,0,1-6.05,0ZM416.61,757a2.21,2.21,0,0,1-3,.81l-.76-.44a2.21,2.21,0,1,1,2.21-3.82l.76.44A2.22,2.22,0,0,1,416.61,757Zm3.27-20.69a14.26,14.26,0,0,1-19.47,5.23l-.76-.44a14.25,14.25,0,0,1,14.25-24.69l.77.44A14.26,14.26,0,0,1,419.88,736.32Zm2.7-1.79a5.17,5.17,0,1,1,5.17,5.18A5.17,5.17,0,0,1,422.58,734.53Zm5.6,33.21a3,3,0,1,1,3-3A3,3,0,0,1,428.18,767.74Zm3.37-8.75a2.38,2.38,0,1,1,2.38-2.38A2.38,2.38,0,0,1,431.55,759Zm17.06-27.46a2.21,2.21,0,1,1,2.21-2.21A2.2,2.2,0,0,1,448.61,731.53Z"/><path class="cls-2" d="M459.25,868.54l-46.61-26.91a3.78,3.78,0,0,0-3.31-.23,10.4,10.4,0,0,0-3.27,2.08l-3.7,3.45-.46.43-2,1.92-.82.79-.79.82-.76.85-.72.87-.69.89-.64.9-.61.92-.56.92-16.79,29.09-.19.4-.1.43,0,.45.05.44.13.44.21.41.27.37.34.32.38.27.71.41.16.09,10.07,5.82a5.13,5.13,0,0,0,2.65.67q1.1,0,2.19-.15a5.48,5.48,0,0,1,3.36.68A28,28,0,0,0,410.43,900a10.06,10.06,0,0,1,4.69,1.35L434,912.23a5,5,0,0,0,6.89-1.85l20.18-35A5,5,0,0,0,459.25,868.54Zm-24.79,4.4a2.15,2.15,0,0,1,4.29,0h0a2.15,2.15,0,1,1-4.29,0Zm-41.18,7.91a3.41,3.41,0,0,1-6.81,0h0a3.41,3.41,0,0,1,6.81,0Zm3.26-11.54-3.06-5.3,3.06-5.3h6.12l3.06,5.3-3.06,5.3Zm14.73,23.74h-6.12l-3.06-5.3,3.06-5.29h6.12l3.06,5.29Zm5.21-13.81-3.06-5.3,3.06-5.3h6.11l3.06,5.3-3.06,5.3Zm7.89,11.18h0a2.15,2.15,0,0,1,4.29,0h0a2.15,2.15,0,0,1-4.29,0ZM436,901.73a2.53,2.53,0,0,1-3.45.92l-3.28-1.89a2.53,2.53,0,0,1-.92-3.45L443.5,871.1a2.52,2.52,0,0,1,3.44-.93l3.28,1.9a2.51,2.51,0,0,1,.92,3.44Zm9-1.85a2.14,2.14,0,0,1-4.28,0h0a2.14,2.14,0,0,1,4.28,0Zm10.09-17.48a2.14,2.14,0,1,1-4.28,0h0a2.14,2.14,0,1,1,4.28,0Z"/><path class="cls-1" d="M452.15,784.81l-4.94-1.8a5.93,5.93,0,0,0-7.6,3.54,5.87,5.87,0,0,0-.36,2v1a4.13,4.13,0,0,1-1.11,2.83,5.07,5.07,0,0,0-1.35,3.43v4.84l.57.57h1a1.89,1.89,0,0,1,1,3.65,1.78,1.78,0,0,1-1,0h-1l-.57.57v7.84a4.06,4.06,0,0,0,1.75,3.32l3.92,2.7a6.32,6.32,0,0,1,2.72,5.19v15.36a1.27,1.27,0,0,0,1.26,1.26h0a50.68,50.68,0,0,0,6.15-.52V785.49Zm-7,5.79a2,2,0,0,1-2-2h0a2,2,0,1,1,2,2Z"/><path class="cls-2" d="M515.46,799.19H490.24l-.43,0-.43,0L489,799l-.43-.13-.4-.09-1.15-.2-.11-.32-.18-.32-.22-.27-.25-.26-.44-.41-.42-.45-.2-.26L485,796l-.17-.36-.15-.41-.13-.44-.09-.47-.05-.48,0-.5v-4.08l0-.49.05-.49.09-.47.13-.44.15-.41.17-.36.2-.32.2-.26.42-.45.44-.41.25-.25.21-.28.18-.31L487,784l1.15-.2.4-.09.19-.06.39-.1.47-.07.54,0,.59,0h1.61l1.84,0H514.2a2.5,2.5,0,0,0,2.5-2.5V770.18a2.5,2.5,0,0,0-2.5-2.5H475a3.77,3.77,0,0,0-2.09.63L468,771.59a3.78,3.78,0,0,0-1.68,3.14v42.61a3.74,3.74,0,0,0,1.68,3.13l4.93,3.29a3.77,3.77,0,0,0,2.09.63H514.2a2.5,2.5,0,0,0,2.5-2.5V800.45A1.25,1.25,0,0,0,515.46,799.19ZM501.9,775.53a2.21,2.21,0,0,1,4.42,0h0a2.21,2.21,0,1,1-4.42,0Zm4.27,42a2.21,2.21,0,1,1-4.41,0h0a2.21,2.21,0,1,1,4.41,0Z"/><path class="cls-2" d="M577,768.2H534.12a3.79,3.79,0,0,0-3.79,3.79v27.75a2.52,2.52,0,0,0,2.53,2.52h22.61a6.32,6.32,0,0,0,4.46-1.85l19.75-19.75a3.78,3.78,0,0,0,1.11-2.67v-6A3.79,3.79,0,0,0,577,768.2Zm-8.76,18.55-6.83,6.83a1.27,1.27,0,0,1-2.16-.89v-6.83a1.27,1.27,0,0,1,1.27-1.26h6.82a1.26,1.26,0,0,1,.9,2.15Z"/><path class="cls-2" d="M552,870.52l-30.59-17.65a3.78,3.78,0,0,0-5.17,1.38l-10.39,18a1.26,1.26,0,0,1-1.72.47L491,865.14a6.3,6.3,0,0,0-8.61,2.31l-54.05,93.61a6.31,6.31,0,0,0,2.31,8.61l15.29,8.83a3.78,3.78,0,0,0,5.17-1.38l6-10.33a6.36,6.36,0,0,1,3.83-2.94l30.34-8.12a12.65,12.65,0,0,0,7.66-5.88l16.62-28.8a25.25,25.25,0,0,1,11.83-10.54,4.53,4.53,0,0,0,2.11-1.85,29,29,0,0,1,10.2-10.21,3.85,3.85,0,0,0,1.35-1.37l12.35-21.39A3.78,3.78,0,0,0,552,870.52ZM447.84,963.44a3.41,3.41,0,1,1-3.4-3.41,3.4,3.4,0,0,1,3.4,3.41Zm6.69-14.07a3.41,3.41,0,1,1,3.4-3.41A3.41,3.41,0,0,1,454.53,949.37ZM484.94,876a3.41,3.41,0,1,1,6.81,0h0a3.41,3.41,0,1,1-6.81,0Zm-5.86,13.85a2.21,2.21,0,1,1-2.21,2.21A2.21,2.21,0,0,1,479.08,889.87Zm-14,30a3.41,3.41,0,1,1,3.4-3.4A3.41,3.41,0,0,1,465,919.86Zm28.35,27.84a2.21,2.21,0,1,1,2.21-2.21A2.21,2.21,0,0,1,493.39,947.7Zm6.48-24a14.51,14.51,0,0,1-28-3.08,2.48,2.48,0,0,1,.18-1.29,7.66,7.66,0,0,0,.46-4.23,2.54,2.54,0,0,1,.11-1.31,14.51,14.51,0,1,1,27.27,9.91Zm15.28-12.1a2.21,2.21,0,0,1-4.42,0h0a2.21,2.21,0,1,1,4.42,0ZM525,867.58a3.41,3.41,0,0,1-6.82,0h0a3.41,3.41,0,1,1,6.82,0Zm17.47,10.09a3.41,3.41,0,0,1-6.81,0h0a3.41,3.41,0,0,1,6.81,0Z"/><path class="cls-2" d="M599.13,870.67l-2.45-4.24A1.26,1.26,0,0,0,595,866l-.31.18-.2.07h-.21l-.1,0-.1,0-.08-.07-.06-.08.83-.48.39-.22a1.26,1.26,0,0,0,.46-1.72l-14.88-25.78a1.25,1.25,0,0,0-1.72-.46l-.4.22-.82.48h0l0-.09,0-.11v-.1l0-.1.11-.19.16-.13.31-.18a1.27,1.27,0,0,0,.49-1.68l-2.46-4.25a2.52,2.52,0,0,0-3.41-.87L554.9,840.8a6.27,6.27,0,0,0-2.94,3.82l-1.42,5.3a6.29,6.29,0,0,0,.63,4.78l15.05,26.06a6.27,6.27,0,0,0,3.83,2.94l5.29,1.42a6.34,6.34,0,0,0,4.78-.63l18.06-10.43A2.52,2.52,0,0,0,599.13,870.67Zm-7.91-2.74,0,.1-.11.18-.17.14-6.75,3.9a2.53,2.53,0,0,1-3.45-.92l-6-10.41a4.68,4.68,0,0,1-2.11-3.66l-6-10.4a2.52,2.52,0,0,1,.92-3.45l6.76-3.9.19-.07h.22l.1,0,.09,0,.08.06.07.09h0l-.88.52-6,3.44a2.51,2.51,0,0,0-1.12,3l6.1,10.57.29-.17a3.8,3.8,0,1,1,1.9,3.28l-.29.17,6.1,10.57a2.52,2.52,0,0,0,3.17.53l6-3.44.89-.51,0,.09,0,.1Z"/><path class="cls-1" d="M630,741.46a16.4,16.4,0,1,1,16.41,16.41A16.39,16.39,0,0,1,630,741.46v0Zm19.73-5.52,5.18,10.31,2.23-3.86L652,732.08Zm-9.7-3,10.5,20.89,2.23-3.86-10.5-20.89Zm.8,17.9,2.23-3.86-5.18-10.31-2.23,3.86Z"/><path class="cls-2" d="M726.82,796.7l-.05-.21-.09-.19-2.2-4-2.2-4-1.12-2L720,784.31l-2.28-4.1-.33-.56-.35-.55-.36-.54-.39-.53-.41-.51-.43-.49-.44-.48-.47-.46-.33-.3-.37-.26-.39-.22-.41-.18-.49-.17-.51-.13-.51-.11-.53-.07-.53,0-.55,0-.54,0-.56,0-.55.07-.55.11-.55.13-.54.16-.54.19-.52.22-.51.24-.49.27-4.45,2.56a2.51,2.51,0,0,1-3.44-.92l-10.09-17.48a3.78,3.78,0,0,0-5.17-1.38L649.76,777.1a3.79,3.79,0,0,0-1.39,5.17l16.47,28.51a12.67,12.67,0,0,0,5.59,5.13l3.38,1.57a5,5,0,0,1,2.23,2l1.55,2.67a5,5,0,0,0,6.89,1.85l4.67-2.7a1.26,1.26,0,0,0,.46-1.72l-3.79-6.55a1.27,1.27,0,0,1,.47-1.73L714.69,795l1.72.46,2.76,4.77.15.22.18.2.22.16.24.12.25.07h.27l.26,0,.25-.1,5.27-3.05.18-.12.15-.15.12-.18.08-.2,0-.21Zm-63.65-9.37a3.41,3.41,0,1,1,3.4-3.41A3.41,3.41,0,0,1,663.17,787.33Zm17.47-10.09a3.41,3.41,0,1,1,3.41-3.41A3.41,3.41,0,0,1,680.64,777.24Zm23.46,14.51-10.93,6.31a3.28,3.28,0,0,1-3.28-5.68l10.93-6.31a3.28,3.28,0,0,1,3.28,5.68Z"/><path class="cls-2" d="M786.43,778.36l-5.36-9.3-9.59-16.6a5,5,0,0,0-6.89-1.85l-24,13.88a5,5,0,0,0-1.85,6.89L748.3,788l5.37,9.3a5,5,0,0,0,5.18,2.46,5.23,5.23,0,0,0,1.71-.61l24-13.88a5.14,5.14,0,0,0,1.38-1.17A5,5,0,0,0,786.43,778.36Zm-16.51,2.69a3.79,3.79,0,1,1-7.57,0v0a3.79,3.79,0,0,1,7.57,0Z"/><path class="cls-1" d="M852.62,733.34a1.09,1.09,0,0,1-.08-.15L840,711.29a18.66,18.66,0,0,0-25.46-7l-.78.47L800.85,713a12.65,12.65,0,0,0-5.54,7.91l-4.17,18.83,0,.26,0,.27.09.27.14.24a1.26,1.26,0,0,0,.73.46l11.08,2.46-5.58,25.17-.1.44,12,2.65,38.12-21.09A12.94,12.94,0,0,0,852.62,733.34Zm-11-6.8a2.21,2.21,0,1,1-2.21,2.21A2.2,2.2,0,0,1,841.65,726.54Zm-38.3-1.6a2.21,2.21,0,1,1,2.21-2.21A2.21,2.21,0,0,1,803.35,724.94Zm4.53,38.42a2.21,2.21,0,1,1,2.21-2.21A2.21,2.21,0,0,1,807.88,763.36Zm16-27.94a14.89,14.89,0,1,1,14.88-14.88A14.88,14.88,0,0,1,823.83,735.42Zm19.32,10-6-1.33-1.84-5.83,4.14-4.51,6,1.32,1.84,5.84Z"/><path class="cls-2" d="M700.81,673.28h0l-24-13.88a1.26,1.26,0,0,0-1.72.46l-25.9,44.86-1.17,2-1.62,2.8a1.26,1.26,0,0,0,.46,1.73l24,13.87a1.26,1.26,0,0,0,1.72-.46l1.62-2.81,1.18-2L701.28,675A1.26,1.26,0,0,0,700.81,673.28Zm-15.89,20-8.76,15.18A3.79,3.79,0,0,1,671,709.8l-10.92-6.31a3.79,3.79,0,0,1-1.39-5.17l8.77-15.18a3.79,3.79,0,0,1,5.17-1.39l10.92,6.31A3.78,3.78,0,0,1,684.92,693.23Zm2-21.47a2.15,2.15,0,1,1,2.14-2.14A2.14,2.14,0,0,1,686.91,671.76Z"/><path class="cls-2" d="M728.24,622.11l-1.42-5.3a6.27,6.27,0,0,0-2.94-3.82l-18-10.43a2.53,2.53,0,0,0-3.42.87L700,607.68a1.26,1.26,0,0,0,.49,1.68l.31.18.16.13.11.19,0,.1v.21l0,.09-.83-.48-.39-.23a1.26,1.26,0,0,0-1.72.46l-14.89,25.78a1.27,1.27,0,0,0,.46,1.73l.4.22.83.48h0l-.06.08-.08.07-.1,0-.1,0h-.21l-.2-.07-.31-.18a1.26,1.26,0,0,0-1.7.42l-2.45,4.24a2.52,2.52,0,0,0,1,3.39l18.06,10.43a6.33,6.33,0,0,0,4.78.63l5.29-1.42a6.27,6.27,0,0,0,3.83-2.94l15.05-26.06A6.34,6.34,0,0,0,728.24,622.11Zm-16.06-3.06-6,10.4a4.65,4.65,0,0,1-2.11,3.66l-6,10.41a2.53,2.53,0,0,1-3.45.92l-6.76-3.9-.16-.14-.11-.18,0-.1v-.21l.05-.1h0l.89.51,6,3.44a2.51,2.51,0,0,0,3.17-.54l6.1-10.56-.29-.17a3.79,3.79,0,1,1,1.38-5.17,3.7,3.7,0,0,1,.51,1.89l.29.17,6.1-10.57a2.51,2.51,0,0,0-1.12-3l-6-3.45-.89-.51.06-.08.09-.06.09-.05.1,0h.21l.2.07,6.76,3.9A2.52,2.52,0,0,1,712.18,619.05Z"/><path class="cls-2" d="M759.11,643.59l-1.93-7.22a5.55,5.55,0,0,0-2.59-3.37l-7.66-4.42a4.54,4.54,0,0,0-6.2,1.66l-17,29.49a4.55,4.55,0,0,0,1.66,6.21l7.66,4.42a5.49,5.49,0,0,0,4.21.55l7.22-1.93a5.55,5.55,0,0,0,3.37-2.59l10.74-18.59A5.58,5.58,0,0,0,759.11,643.59Zm-12.62,7.47a3.79,3.79,0,0,1-7.57,0h0a3.79,3.79,0,1,1,7.57,0Z"/><path class="cls-2" d="M792.38,668.73H791l0-.11,0-.1.06-.09.08-.07.18-.1.21,0h.36a1.26,1.26,0,0,0,1.26-1.21V662.1a2.52,2.52,0,0,0-2.52-2.46H769.8a6.32,6.32,0,0,0-4.46,1.85l-3.87,3.88a6.3,6.3,0,0,0-1.85,4.45v30.1a6.34,6.34,0,0,0,1.85,4.46l3.87,3.87a6.32,6.32,0,0,0,4.46,1.85h20.85a2.52,2.52,0,0,0,2.52-2.46v-4.9a1.26,1.26,0,0,0-1.26-1.22h-.36l-.21,0-.18-.1-.08-.07-.06-.09,0-.1,0-.1h1.41a1.25,1.25,0,0,0,1.26-1.26V670A1.26,1.26,0,0,0,792.38,668.73Zm-4.59,32.39,0,.1-.06.09-.07.07-.19.1-.2,0h-7.81A2.52,2.52,0,0,1,776.9,699V687a4.68,4.68,0,0,1,0-4.22v-12a2.52,2.52,0,0,1,2.52-2.52h7.81l.2,0,.19.1.07.07.06.09,0,.1v.11h-7.91a2.51,2.51,0,0,0-2.47,2V683h.33a3.79,3.79,0,1,1,1.39,5.16,3.83,3.83,0,0,1-1.39-1.38h-.33V699a2.51,2.51,0,0,0,2.47,2h7.91Z"/><path class="cls-2" d="M760.26,576.53l-8.82-32.9a4.54,4.54,0,0,0-5.56-3.21l-8.54,2.29a5.57,5.57,0,0,0-3.37,2.58l-17.11,29.65a5.53,5.53,0,0,0-.56,4.21l2.29,8.54a4.54,4.54,0,0,0,5.56,3.21l32.9-8.81A4.54,4.54,0,0,0,760.26,576.53Zm-29.37,1.06a3.78,3.78,0,1,1-7.56,0h0a3.78,3.78,0,1,1,7.56,0Zm14.27-24.72a3.78,3.78,0,1,1-7.56,0v0a3.78,3.78,0,0,1,7.56,0Z"/><path class="cls-1" d="M855.69,656.31h-5.43v20.43A1.25,1.25,0,0,1,849,678H813.18a1.26,1.26,0,0,1-1.26-1.26V656.31H806.5a3.79,3.79,0,0,0-3.79,3.78v20.18a7.57,7.57,0,0,0,7.57,7.57H851.9a7.57,7.57,0,0,0,7.57-7.57V660.09A3.78,3.78,0,0,0,855.69,656.31ZM831.09,685a2.21,2.21,0,1,1,2.21-2.21A2.2,2.2,0,0,1,831.09,685Z"/><path class="cls-1" d="M845.24,481.12H780.69a3.79,3.79,0,0,0-3.78,3.79V627.18a3.79,3.79,0,0,0,3.78,3.79h64.55a3.79,3.79,0,0,0,3.79-3.79h0V484.91A3.79,3.79,0,0,0,845.24,481.12ZM812.9,572.19l-14.28-9.38V556l14.28,9.38Zm14.28-3.26-28.56-18.77V543.3l28.56,18.77Zm0-12.64-14.28-9.38V540l14.28,9.39Z"/><path class="cls-1" d="M859.08,475l-.12-.54-.2-.53-.28-.5-.35-.46-.41-.44-.48-.38-.53-.34-.57-.29-.62-.22-.64-.16-.66-.1-.67,0H778.23a27.5,27.5,0,0,0-6,.67l-.5.13-.49.16-.48.19-.47.22-.45.24-.44.28-.41.3-.39.34-.37.36-.34.39-.3.41-.26.44-.22.46-.16.49-.11.49,0,.51V635l0,.46.09.46.14.45.18.43.22.4.27.4.3.38.35.37.38.36.43.34.46.31.48.28.5.24.52.21.53.18.54.14a27.5,27.5,0,0,0,6,.67h75.32l.67,0,.66-.1.64-.16.62-.22.57-.29.53-.34.48-.38.41-.43.35-.47.28-.5.2-.53.12-.54,0-.54V475.57ZM845.24,633.49H780.69a6.3,6.3,0,0,1-6.3-6.31V484.91a6.31,6.31,0,0,1,6.3-6.31h64.55a6.31,6.31,0,0,1,6.31,6.31V627.18A6.3,6.3,0,0,1,845.24,633.49Zm8.2,4.1a2.21,2.21,0,1,1,2.21-2.21A2.2,2.2,0,0,1,853.44,637.59Zm0-158.67a2.21,2.21,0,1,1,2.21-2.21A2.2,2.2,0,0,1,853.44,478.92Z"/><path class="cls-2" d="M684.14,441.83H661.52a6.3,6.3,0,0,0-4.46,1.85l-19.74,19.74a3.8,3.8,0,0,0-1.11,2.68v6a3.78,3.78,0,0,0,3.78,3.78h42.89a3.78,3.78,0,0,0,3.78-3.78V444.35A2.52,2.52,0,0,0,684.14,441.83Zm-26.4,16.4a1.26,1.26,0,0,1-1.26,1.26h-6.83a1.27,1.27,0,0,1-.89-2.16l6.83-6.82a1.24,1.24,0,0,1,1.78,0,1.22,1.22,0,0,1,.37.89Z"/><path class="cls-2" d="M750.3,433.69h-8.85a5.55,5.55,0,0,0-3.92,1.63l-24.2,24.2a5.55,5.55,0,0,0-1.63,3.92v8.85a4.54,4.54,0,0,0,4.54,4.54H750.3a4.54,4.54,0,0,0,4.54-4.54V438.23A4.54,4.54,0,0,0,750.3,433.69Zm-24,31a3.78,3.78,0,1,1-7.56,0h0a3.78,3.78,0,1,1,7.56,0Zm20.18-20.18a3.78,3.78,0,1,1-7.56,0v0a3.78,3.78,0,0,1,7.56,0Z"/><path class="cls-1" d="M779.12,412.86a16.4,16.4,0,1,1,32.79,0v0a16.4,16.4,0,1,1-32.79,0Zm19.73-5.53L804,417.65l2.22-3.86-5.18-10.32Zm-9.7-3,10.5,20.89,2.23-3.85-10.5-20.9Zm.8,17.9,2.23-3.86L787,408.07l-2.23,3.86Z"/><path class="cls-2" d="M858.45,448.48h-12a10.09,10.09,0,0,1-10.09-10.09V391.73a10.09,10.09,0,0,1,10.09-10.09h12a3.16,3.16,0,0,0,0-6.31h-61.8a3.16,3.16,0,1,0,0,6.31h12a10.09,10.09,0,0,1,10.09,10.09v46.66a10.09,10.09,0,0,1-10.09,10.09h-12a3.16,3.16,0,1,0,0,6.31h61.81a3.16,3.16,0,0,0,0-6.31Zm-1.2-70a1.2,1.2,0,1,1,2.4,0h0a1.2,1.2,0,0,1-2.4,0Zm-59.41,0a1.2,1.2,0,1,1-2.39,0h0a1.2,1.2,0,1,1,2.39,0Zm0,73.15a1.2,1.2,0,1,1-2.39,0h0a1.2,1.2,0,1,1,2.39,0Zm29.71-70.45a1.52,1.52,0,1,1-1.52,1.52A1.52,1.52,0,0,1,827.55,381.19Zm2.52,59.73a2.52,2.52,0,1,1-5,0V428.74a2.52,2.52,0,0,1,5,0Zm-4-18.48a1.52,1.52,0,1,1,1.52,1.51A1.52,1.52,0,0,1,826,422.44Zm4-6.31a2.52,2.52,0,1,1-5,0V389.2a2.52,2.52,0,0,1,5,0Zm29.58,35.51a1.2,1.2,0,1,1-2.4,0h0a1.19,1.19,0,0,1,1.2-1.19,1.2,1.2,0,0,1,1.2,1.2Z"/><path class="cls-2" d="M772.47,422.6a1.36,1.36,0,0,0,1.34-1.39,1.41,1.41,0,0,0-.37-1,7.76,7.76,0,0,1-2.06-5.28V402.39a7.6,7.6,0,0,0-2.68-5.81,4.21,4.21,0,0,1-1.49-3.23V365.86a4.23,4.23,0,0,1,1.49-3.23,7.59,7.59,0,0,0,2.68-5.81V344.24a7.76,7.76,0,0,1,2.06-5.28,1.42,1.42,0,0,0,0-2,1.33,1.33,0,0,0-.93-.39H764.4a1.09,1.09,0,0,0-1.08-1.11H737.48a1.09,1.09,0,0,0-1.07,1.11h-8.08a1.09,1.09,0,0,0-1.07-1.11H691.75a1.09,1.09,0,0,0-1.08,1.11H682.6a2.74,2.74,0,0,0-2.69,2.78v8.21a4.2,4.2,0,0,1-2,3.61l-10.76,6.4a8.37,8.37,0,0,0-4,7.21v12.81a8.38,8.38,0,0,0,4,7.21l10.76,6.4a4.18,4.18,0,0,1,2,3.6v25a2.73,2.73,0,0,0,2.69,2.77h-2.69v2.77a2.74,2.74,0,0,0,2.69,2.78h88.78a2.74,2.74,0,0,0,2.69-2.78V422.6ZM751.2,346.32a2.73,2.73,0,0,1,2.69-2.77h11.57a2.73,2.73,0,0,1,2.69,2.77v9a2.73,2.73,0,0,1-2.69,2.77,2.69,2.69,0,0,1-1.35-.37l-10.89-6.48a4.2,4.2,0,0,1-2-3.61Zm-33.63,0a2.73,2.73,0,0,1,2.69-2.77h24.22a2.73,2.73,0,0,1,2.69,2.77v1.28a4.2,4.2,0,0,1-2,3.61l-10.76,6.4a4,4,0,0,1-4,0l-10.76-6.4a4.2,4.2,0,0,1-2-3.61Zm-33.63,0a2.73,2.73,0,0,1,2.69-2.77h24.22a2.73,2.73,0,0,1,2.69,2.77v1.28a4.2,4.2,0,0,1-2,3.61l-10.76,6.4a4,4,0,0,1-4,0L686,351.21a4.2,4.2,0,0,1-2-3.61Zm-4,41.32-10.76-6.41a4.17,4.17,0,0,1-2-3.6V364.82a4.2,4.2,0,0,1,2-3.61l10.76-6.4a3.94,3.94,0,0,1,4,0l10.77,6.4a4.21,4.21,0,0,1,2,3.61v12.81a4.18,4.18,0,0,1-2,3.6l-10.77,6.41A3.94,3.94,0,0,1,679.91,387.64Zm33.63,20a4.18,4.18,0,0,1-2,3.6l-10.76,6.4a3.91,3.91,0,0,1-4,0L686,411.26a4.18,4.18,0,0,1-2-3.6V394.84a4.18,4.18,0,0,1,2-3.6l10.76-6.4a3.91,3.91,0,0,1,4,0l10.76,6.4a4.18,4.18,0,0,1,2,3.6Zm0-20-10.76-6.41a4.17,4.17,0,0,1-2-3.6V364.82a4.2,4.2,0,0,1,2-3.61l10.76-6.4a3.94,3.94,0,0,1,4,0l10.76,6.4a4.2,4.2,0,0,1,2,3.61v12.81a4.17,4.17,0,0,1-2,3.6l-10.76,6.41A3.94,3.94,0,0,1,713.54,387.64Zm33.63,20a4.18,4.18,0,0,1-2,3.6l-10.76,6.4a3.91,3.91,0,0,1-4,0l-10.76-6.4a4.18,4.18,0,0,1-2-3.6V394.84a4.18,4.18,0,0,1,2-3.6l10.76-6.4a3.91,3.91,0,0,1,4,0l10.76,6.4a4.18,4.18,0,0,1,2,3.6Zm0-20-10.76-6.41a4.17,4.17,0,0,1-2-3.6V364.82a4.2,4.2,0,0,1,2-3.61l10.76-6.4a3.94,3.94,0,0,1,4,0l10.76,6.4a4.2,4.2,0,0,1,2,3.61v12.81a4.17,4.17,0,0,1-2,3.6l-10.76,6.41A3.94,3.94,0,0,1,747.17,387.64Zm21,27.7a2.74,2.74,0,0,1-2.69,2.78,2.6,2.6,0,0,1-1.35-.38l-10.89-6.48a4.18,4.18,0,0,1-2-3.6V394.84a4.18,4.18,0,0,1,2-3.6l6.72-4a2.65,2.65,0,0,1,3.68,1,2.8,2.8,0,0,1,.36,1.39v3.71a7.59,7.59,0,0,0,2.68,5.81,4.23,4.23,0,0,1,1.49,3.23Z"/><path class="cls-2" d="M13.77,438.12q0,15.81,0,31.64c0,2.35.37,4.84-3.36,4.83-3.5,0-5-1.4-5.17-4.95-.28-7.68-.64-15.37-1.3-23C2.82,433.72,1.43,420.84.2,408c-.07-.73-.1-1.47-.1-2.21,0-24.89-.3-49.79.11-74.68C.42,318.49,1.81,306,2.63,293.4,3.12,286,3.51,278.48,4,271c.41-6.39.8-12.78,1.34-19.15.28-3.23,2.86-5.7,5.3-5.27,3.15.56,3.15,3,3.15,5.47V315a16.3,16.3,0,0,0,.22,2.7c.66,3.67,2.36,4.9,6.47,5,3.23.08,6.46-.07,9.68.07,1.44.06,3.42.12,4.16,1,2.83,3.38,6.51,2.8,10.12,2.81,5.16,0,10.33-.05,15.49,0,3.67.05,7.08-.05,10.33-2.46,1.67-1.24,4.42-1.07,6.7-1.42,4.13-.65,8.59,1.38,12.53-1.57.32-.24,2.8,1.21,2.89,2,1.2,11.64,2.88,23.29.63,35a20.14,20.14,0,0,0-.32,4.1c.38,7,1.08,13.92,1.12,20.89,0,5.08-.83,10.18-1.25,15.27-.19,2.42-1.8,3-3.56,2.19-5.47-2.64-11.25-2.18-17-2.24a4.72,4.72,0,0,1-2.51-.38c-8.56-6.39-18.35-2.42-27.54-3.34a1.4,1.4,0,0,0-1,.29c-5.94,4.59-13.13,2.79-19.81,3.76-6.06.89-7.32,2.88-7.34,9.11C13.75,417.89,13.77,428,13.77,438.12ZM33.3,347.57l-.22,0c-3,0-6.29,0-7.82,1.54a24.34,24.34,0,0,0-6.34,9.33,9.33,9.33,0,0,0,1.72,8.88c1.31,2.29,6.41,7.79,12.87,7.17,6.28-.61,14.07-7.7,12.85-13.71-.84-4.15-3.36-8.22-6-11.6C39.15,347.71,35.76,348,33.3,347.57Zm26.1,43,.25,0c3.12,0,6.84-.81,8.69-2.66,2.86-2.87,6.29-7.26,6-10.69-.4-4.4-3.9-8.76-6.83-12.55-1-1.3-4.29-1.11-6.54-1.15-7.76-.13-15.32,6-14.58,12.87.44,4.12,3,8.34,5.56,11.75C53.07,389.61,56.38,390.06,59.4,390.55ZM58.9,358c3.81.26,7.7.19,9.11-1.34,2.93-3.18,6.26-7.49,6.31-11.38s-3.3-8.11-6-11.45c-1.16-1.42-4.62-1.36-7-1.26-3.27.13-7.5-.15-9.54,1.71-2.75,2.51-5.16,6.86-5.23,10.46s2.29,7.83,4.83,10.67C53.07,357.35,57,358,58.9,358ZM25.62,394.05h.19c2.69-.33,5.84,0,7.9-1.26,2.59-1.64,4.77-3.28,8-3.09.7.05,2.07-1.41,2.13-2.25.2-2.86-3.78-7-6.68-7.13-2.12-.12-4.3.22-6.39-.09-5-.74-7.64,1.73-9.75,6C17.25,393.79,17.06,393.73,25.62,394.05Zm1.31-65.47a9.67,9.67,0,0,0-2.53,0l-2.89.24a2.09,2.09,0,0,0-1.74,2.91c.75,1.72,1.45,3.45,2.16,5.21,1.83,4.55,5.27,5.75,9.79,5.18,1.49-.19,3,0,4.52,0,3.34-.11,7.78-4.61,7.61-7.76,0-.53-.43-1.38-.84-1.51A153.61,153.61,0,0,0,26.93,328.58ZM84,361.29h0c0-3.63.15-7.27,0-10.9-.13-2.32-2.26-3.12-4-1.73-.15.12-.19.36-.3.54-2.1,3.67-4.44,7.22-6.2,11.05-1,2.2,5.54,13.05,8.08,13.68a3,3,0,0,0,2.34-1.75C84.16,368.56,84,364.92,84,361.29Zm0,26a13.47,13.47,0,0,0,0-3.18,13.62,13.62,0,0,0-.93-2.41,1.4,1.4,0,0,0-1.83-.69,7.7,7.7,0,0,0-2.77,1.69c-1.2,1.39-1.82,3.3-2.66,5-.55,1.11-1.07,2.23-1.6,3.35a1.4,1.4,0,0,0,1,2,19.6,19.6,0,0,0,4.19.69C84.06,393.72,84.06,393.6,84.08,387.26ZM84.56,336l0-.49c0-.42.22-1.39.06-1.43.06-1.61,1.23-4-.55-4.72-1.06-.43-.81-.94-3-.74-1,.09-2,.2-3,.34a3.41,3.41,0,0,0-2.68,4.64c.29.73.56,1.12,1,2.08.27.58.25.59.81,1.71s2.08,5.64,5.31,4.24C83.79,341.1,84,338.08,84.56,336Z"/><path class="cls-2" d="M469.81,145.63c4.79-.14,6.92,2.54,5.79,7.29-2.73,11.47-2.79,11.57,6.95,17.64,4.87,3,10.06,5.53,15,8.45,4,2.36,7.31,1.37,10.38-1.62,1.23-1.2,2.41-2.46,3.68-3.62,3.51-3.21,5.66-3,8.28.93,2.92,4.38,4,8.83.39,13.47a19.65,19.65,0,0,0-2.52,4.44c-1.06,2.5-2.52,3.68-5.4,4.54s-5.66,3.68-7.56,6.3A103.68,103.68,0,0,0,496,218.2c-1.52,3.07-1.76,6.76-2.94,10a29.59,29.59,0,0,1-4.18,8.53c-.79,1-3.95,1-5.57.28a93,93,0,0,1-11.22-6c-2.44-1.46-4-1.8-5.4,1.42-1.26,2.9-3.76,2.79-6.31,1.18q-5.92-3.74-12-7.29c-2.25-1.33-3-2.81-1.35-5.2,1.53-2.24,1.65-4.12-1.57-5.35-2.34-.89-4.34-2.65-6.59-3.83-8.33-4.38-9.19-10.09-1.4-15.28,3.69-2.46,5.58-5.46,7.49-9,2.43-4.48,5.07-8.86,7.83-13.14a14.34,14.34,0,0,0,2-10.47C453.47,156,461.65,145.86,469.81,145.63Zm3.08,76.2c13.16,1.72,24-11.13,23.55-23.49-.54-14.12-10.33-23.59-23.54-23.35s-22.87,9.28-23.55,23.69C448.75,211.25,460.18,223.17,472.89,221.83Z"/><path class="cls-2" d="M741.18,806.88c-.58.54-1,1.17-1.36,1.38-11,7.61-22.11,15.12-33,23-21.56,15.64-44.74,28.62-67.93,41.56q-26.48,14.76-53.49,28.54c-11.73,6-23.87,11.19-35.8,16.79-2.48,1.16-4.57,2.21-6.26-1.3s.56-4.47,2.88-5.81q27-15.64,54-31.36c4.71-2.75,5.56-5.62,3.16-10.63-1-2.1-2.63-3.92-3.56-6-1.21-2.75-3.83-5.14-1.9-8.84.58-1.11-.33-3.34-1.11-4.75-3.07-5.59-6.17-11.18-9.65-16.52-1.51-2.32-2.67-5-6.29-5.87-2-.46-3.46-3.52-5-5.54-2.52-3.34-4.69-7-7.4-10.14-2.21-2.59-.58-4.08,1.13-5.27,5.69-4,11.4-7.92,17.37-11.43,4-2.33,8.48-3.7,12.55-5.87,2.14-1.15,3.69-3.37,5.81-4.6,6.78-3.95,13.69-7.7,20.59-11.45,1.29-.71,2.79-1,4.14-1.64,5.1-2.35,5-2.34,6.51,2.85.52,1.79,1.8,3.35,2.7,5,2.41,4.47,5.43,8.69,5,14.23a8.23,8.23,0,0,0,1.23,4.21c2.8,5.26,5.56,10.56,8.68,15.63a18.09,18.09,0,0,0,7.1,6.84c3.32,1.8,5.24,6.43,7.44,10,3.69,6,6.09,6.6,12.2,3.07,16-9.24,32.11-18.35,48.17-27.53a71.56,71.56,0,0,1,6.6-3.83,4.39,4.39,0,0,1,5.93,3.2c0,.13-.14.87-.08,1ZM630.57,822.25a3.4,3.4,0,0,0,1.42,0c2.49-.59,5.69-.73,7.09-2.38,2.77-3.28,5.87-7.68,5.79-11.55s-3.33-8.22-6.2-11.46c-1.37-1.55-5.09-1.44-7.73-1.35-2.81.1-6.65.11-8.15,1.83-2.81,3.21-5.88,7.65-5.8,11.52s3.35,8.2,6.19,11.48C624.49,821.81,627.66,821.71,630.57,822.25Zm-28,15.48a3.23,3.23,0,0,0,1.35,0c2.93-.56,6.31-.49,7.77-2.13,2.71-3,5.12-7.16,5.66-11.1.82-6-7.69-13.84-14-13.54-2.85.13-6.66.45-8.26,2.25-2.84,3.22-5.89,7.61-5.94,11.54,0,3.63,3.23,7.79,6.05,10.77C596.73,837.13,599.91,837.17,602.55,837.73Zm29.63-10.56a3.43,3.43,0,0,0-1.46,0c-3,.6-6.28.56-7.9,2.17-2.9,2.88-6.42,7.07-6.3,10.6.15,4.14,3.35,8.64,6.32,12,1.55,1.76,5.44,1.92,8.28,2,2.63.05,6.27-.15,7.7-1.79,2.84-3.24,6-7.48,6.13-11.42.14-3.68-2.88-8-5.57-11.08C637.93,827.94,634.75,827.79,632.18,827.17ZM606.1,843.09a3.94,3.94,0,0,1-.69.08c-5.58,0-5.6.21-3.66,5.27.44,1.17,1.23,2.48,1,3.56-1,5.68,2.72,9.59,4.81,14.13,1.15,2.5,2.48,2.54,4.36.85A13,13,0,0,0,615,850.69a23.69,23.69,0,0,0-1.75-3.4C611.38,844.72,609.24,842.46,606.1,843.09Zm51.36-5.55c-1.3-.11.8.27,2.45.26s1.78-.25,3.33-.76c.92-.3,2.23-2.44,1.93-3-1.81-3.32-3.5-7-6.25-9.43s-5.95-5.52-8.15-6.42a5.82,5.82,0,0,0-2.9-.57c-3,2.14-4.19,5.14-3.23,7.8.87,3.93,3.4,7.82,6.17,10.88C652.11,837.75,655,837.19,657.46,837.54Zm-54.35-31.37c6.54.07,13.74-6.6,14.48-13.33.31-2.87-1.08-3.93-3.9-2.42-5.41,2.9-10.69,6.08-15.94,9.27l-.25.16a3.21,3.21,0,0,0,.21,5.42,13.71,13.71,0,0,0,1.57.81C600.37,806.54,601.82,806.17,603.11,806.17Zm-13.26,4.15a2.91,2.91,0,0,0,.46-1.88c-.28-2.17-2-3.09-4.19-2.12a38.72,38.72,0,0,0-7,4.24c-.86.65-1.77,2.57-1.41,3.26a41.61,41.61,0,0,0,4.58,6.46c.15.19,1.43-.09,1.68-.48C586,816.56,588,813.26,589.85,810.32Zm40-21a5.32,5.32,0,0,0,.8.12,36.35,36.35,0,0,0,5.31-.08,3.93,3.93,0,0,0,2.1-1.59c-1.19-2.46-2.27-5.13-4.12-7-.66-.68-3.58.09-5,1-2.32,1.51-7,1.41-6.34,5.19C623.39,791.25,627.52,788.82,629.82,789.29Z"/><path class="cls-2" d="M478.64,85.94c2.9-.26,5,.93,6.78,3,4.68,5.47,8,12,10.61,18.38,3.87,9.49,6,19.7,8.74,29.65,1.1,4-4.12,6.07-9.57,6.94-4.63.74-7.79,1.66-11.19,2.21-5.2,1.1-5-.25-5.61-2-1.37-3.93-.68-9.16-4.11-11.66s-8.05.27-12.2.29c-6,0-11.81-1.54-17.8-1.68-5.3-.12-9.78-7.75-8-12.88,3.16-9,9-16.7,13.53-25,1.24-2.26,3.71-4.15,6.17-4.19C463.71,88.94,471.27,88.25,478.64,85.94ZM482,98.39c-.11-3.27-1.66-5.59-4.42-5.55-2.53,0-5.68.88-5.95,4.45-.24,3.28,1.58,5.29,4.75,5.61S481.32,101.06,482,98.39ZM470.85,124a5.5,5.5,0,0,0-.67-5.81,4.85,4.85,0,0,0-4.49-2.16c-3.13.27-4.55,2.68-4.43,5.91.15,3.88,3,4.22,5.76,4.2A4.07,4.07,0,0,0,470.85,124ZM460.09,95.13c-3.93,0-6.32,1.55-6.36,4.66,0,2.75,2.19,4.21,5.11,4.52,3.4.37,4.75-1.72,4.87-4.34S462.84,94.93,460.09,95.13ZM447.21,124.9c3.2.11,4.79-1.73,4.87-4.28.09-2.8-1.88-4.64-4.85-4.72s-5.09,1.67-5.13,4.44S443.8,125,447.21,124.9Zm40.65-8.7c-.45-1.86-.95-3.25-3.05-2.85-1.66.32-2.95,1.29-2.58,3a2.86,2.86,0,0,0,3.48,2.09C487.08,118.17,487.92,117.47,487.86,116.2Zm4.44,19.09c0-1.3-.1-2.58-1.89-2.55s-3,.84-3,2.49,1.28,2.47,2.93,2.55S492.28,136.63,492.3,135.29Z"/><path class="cls-2" d="M718.47,742.21c-4.08,2.3-6.22,4.16-.33,7-5-1-9.32.25-13.74-1.08-5-1.5-7.08-4.53-7.14-9.21a34.38,34.38,0,0,0-3.4-14.73c-2.61-5.43-1.39-9.9,2.84-14.26,4.87-5,8.84-10.92,13.68-16,7-7.3,15-6,19.43,3.19,3.3,6.83,6.52,13.89,8.33,21.21,1.33,5.38,4,5.51,7.77,4.26a19,19,0,0,1,6.32-.67c3.62,0,5.55,2,5.58,5.59a65.18,65.18,0,0,0,1.2,14c.83,3.68-.43,6.92-4.94,7.4-8.44.92-16.89,1.85-25.35,2.59C720,752.29,719.91,752.14,718.47,742.21Zm-10.88-11.36c-2.28,1.2-4.17,2.77-4.05,6.16s1.89,4.31,5,4.33c3.75,0,5-2.77,5.1-5.33C713.66,733,711.05,731.41,707.59,730.85Zm23.95-12c-.47-2.93-1.5-5.64-4.72-5.85s-4.91,2-5.13,5.19c-.2,2.95.62,4.83,4.11,5.08S730.71,721.48,731.54,718.85Zm-22.72-.21c-1-1.3-.32-4.48-4.11-4.56-3.21-.07-5.79,1.18-6.05,4.27s2.21,4.75,5.42,4.86C706.76,723.3,708.72,722.58,708.82,718.64Zm15.49-18c-.62-2.24-.95-4.76-4.49-4.67-3.22.08-5.62,1.52-5.67,4.6,0,2.68,2.06,4.3,5.05,4.58C722.54,705.47,723.58,703.49,724.31,700.65Zm25.81,35.4c0-1.33-.17-2.57-2-2.47-1.65.09-3,.9-2.92,2.57s1.35,2.46,3,2.47S750.11,737.36,750.12,736.05Zm-19.49,1.22a2.43,2.43,0,0,0-2.65-2.2c-1.58.17-2.42,1.49-2.33,3.16s1.46,1.71,2.72,1.73C729.8,740,730.83,739.55,730.63,737.27Z"/><path class="cls-2" d="M68.5,540.24c.14-4.44-2-5.47-5.91-5.41-10.54.16-21.1.29-31.64-.05-5.43-.18-7.28,2.49-7.61,7.16-.14,1.93,0,3.87,0,5.81,0,12.84,0,12.84-12.59,13-7.62.08-9.35,1.79-9.37,9.49q0,26.16,0,52.32c0,17.87.08,35.74-.06,53.6,0,5.2,2.06,7.52,7.29,7.31,4.51-.19,9,0,13.56,0,7.51,0,7.93-.07,7.44-7.52-.53-8,2.23-14,8-19.24,5.59-5,10.64-10.68,16.08-15.88A13.54,13.54,0,0,0,58.18,630c-.23-8.82.09-17.66-.12-26.48-.17-6.94.62-13.52,4.43-19.54,1.73-2.74.44-3.86-2.49-3.83-4.31,0-8.62-.16-12.92,0-3.24.15-4.76-.78-4.53-4.31.2-3.15-.06-6.23,4.48-6.15s9,0,13.56,0c6-.06,7.66-1.53,7.81-7.49C68.58,554.88,68.28,547.55,68.5,540.24ZM50.42,588.78a1.82,1.82,0,1,1-1.82,1.82A1.82,1.82,0,0,1,50.42,588.78Zm0,29.76a1.82,1.82,0,1,1-1.82,1.82A1.82,1.82,0,0,1,50.42,618.54ZM33.52,545.3c2.1-.2,2.69.7,2.65,2.19,0,1.24.11,2.62-1.67,2.78A2.72,2.72,0,0,1,31.28,548,2.43,2.43,0,0,1,33.52,545.3Zm-22.9,24.53c1.26-.11,2,.37,2.12.82.2,2.12-.41,2.84-1.71,2.87a1.66,1.66,0,0,1-1.89-2C9.19,570.64,9.54,569.94,10.62,569.83ZM8.45,590.6a1.82,1.82,0,1,1,1.82,1.82A1.82,1.82,0,0,1,8.45,590.6Zm2.84,30.72c-1.51,0-2.18-.61-2.16-1.89s.78-1.89,2.07-1.79a1.55,1.55,0,0,1,1.62,1.57C12.49,620.52,12.07,621.11,11.29,621.32Zm5.53,52.43a2.36,2.36,0,0,1-2.54-2.47c0-1.67.78-3,2.41-3.08a2.41,2.41,0,0,1,2.57,2.24C19.44,672.81,18.19,673.76,16.82,673.75Zm0-20.28c-1.68.06-2.55-1.27-2.59-2.92s.83-3,2.47-3,2.46,1.29,2.63,2.86C19.3,652.08,18.5,653.42,16.86,653.47Zm28.33-43c-.41,7.76-5.83,14.2-14.3,13.54-10.3-.13-13.06-5.59-13.94-13.73-.79-7.45,6.46-13.58,14.48-13.49C39,596.91,45.57,603.2,45.19,610.5Zm7.37-62.11a1.56,1.56,0,1,1,1.56-1.56A1.56,1.56,0,0,1,52.56,548.39Z"/><path class="cls-2" d="M474.58,53.46c-3-3.72-5-8.4-10.1-10.26C461,42,458.64,39.06,456.78,36,451.11,26.51,445.57,17,440,7.51c-4-6.78-8.92-9.18-16.43-6.33a119.11,119.11,0,0,0-30.19,17.27c-6.11,4.7-6.59,10.38-2.91,17.33,2.67,5.06,5.86,9.84,8.43,14.94,3.77,7.47,10.43,13.79,10,23-.28,5.84,1.9,10.8,4.44,15.73.74,1.43,1.29,3.48,3.64,2.65,1.88-.67,2.12-2.32,2.28-4.15.7-8.07,2-9.42,10-11.27,0,0,0,0,.06,0,.83,2.41-.38,5.08,1.15,7.93a.07.07,0,0,0,.07,0l14.3-8a.05.05,0,0,0,0-.09c-2.08-1.45-4.24-2.38-3.51-5a2.81,2.81,0,0,1,2.74-2.3c2.64,0,4,1.1,3.08,4.09-.31,1,1.41,1.12,1.79.77,3.43-3.11,8.91-3.42,11.77-8.12,0,0,0-.07,0-.07l-8.83-2.55a.05.05,0,0,1,0-.08c5.51-4.7,10.55-8.33,17.3-3.41,1.93,1.41,4,.87,5.72-.64C477.15,57.17,475.79,55,474.58,53.46ZM392.83,30.81c-1.86.05-3-.89-3.06-2.78s1.39-2.92,3.26-2.87a2.82,2.82,0,0,1,2.86,1.95v0A3.19,3.19,0,0,1,392.83,30.81ZM428.29,5.13c.61-2.15,2.14-2.69,2.93-2.56,1.56.25,3.52,1,3.52,3.22a3.24,3.24,0,0,1-4,3.09A3,3,0,0,1,428.29,5.13ZM415.18,80.8a1.9,1.9,0,1,1,1.89-1.9A1.9,1.9,0,0,1,415.18,80.8Zm25.51-28.44a24.15,24.15,0,0,1-25.57,5.57c-9.69-3.79-15.17-11.32-15.35-23.07-.95-4.24,1.82-7,5.48-9.21C411.08,22.2,417,19,422.85,15.52a11.63,11.63,0,0,1,10.86-.92c4,1.46,6.06,6.23,11.06,5.85.7-.05,2.33,2.37,2.25,3.55C446.34,33.74,448.73,44,440.69,52.36Zm24.93.22a1.9,1.9,0,1,1,1.9-1.89A1.89,1.89,0,0,1,465.62,52.58Z"/><path class="cls-1" d="M425.33,981.08c-6.42-3.74-12.89-7.37-19.33-11.07-3.06-1.75-5.23-3.81-5.46-7.9-.62-11,.57-21.94,1.82-32.68,1.42-12.28,3-14.55-9.32-20.55-.57-.28-4.62-2.4-5.32-2.86-4.6-3-4.92-4.16-8.09-3.81-3.68.4-4.09,6.36-6.46,9.64-4.81,6.63-4.28,9.54,2.69,13.84,3.55,2.2,4,4.82,4.29,8.44.49,6.71-1.38,13.18-1.49,21.2-.76,4.33,1.35,8.41,6.48,11.28q18.32,10.26,36.41,20.9c2.9,1.71,4.57,1.41,6.43-1.52C430.31,982.31,427.12,982.12,425.33,981.08ZM393.44,922.7a1,1,0,1,1-1,1A1,1,0,0,1,393.44,922.7Zm-10,23.68a1,1,0,1,1,1-1A1,1,0,0,1,383.48,946.38Zm.65-16.85a1,1,0,1,1,1-1A1,1,0,0,1,384.13,929.53Zm-.32-7.59c-1.34.19-4.4-2.53-5.69-4.28-.4-.55.51-2.11,2.17-3.23,1.32-.9,7.19,2.78,7.43,4.43A5,5,0,0,1,383.81,921.94Zm4.65,20.78c-2.16,0-2.13-1.81-2-3.25.33-2.85.62-5.85.77-8.61a2.13,2.13,0,0,1,1.75-2c6.86-1.2,5.23,2.37,5.22,4.17,0,.84,0,1.69,0,2.54l.18,0c-.2,2.09.12,4.43-.74,6.2C392.74,943.77,390.27,942.75,388.46,942.72Zm7,4.66a1,1,0,1,1,1-1A1,1,0,0,1,395.45,947.38Z"/></g></g></svg>