<svg xmlns="http://www.w3.org/2000/svg" viewBox="0 0 1016.89 1166.72"><defs><style>.cls-1{fill:#d61e39;}.cls-2{fill:#231f20;}</style></defs><g id="Layer_2" data-name="Layer 2"><g id="Layer_2-2" data-name="Layer 2"><path class="cls-1" d="M78.38,861l-5.9-22a14.9,14.9,0,0,0-6.93-9l-15.69-9.06a22,22,0,0,0-30.1,8.07c-.18.31-.35.62-.52.94L5.64,856.34a15.27,15.27,0,0,0,6.6,20.55l.18.08,46,22.91,14-3.73-.14-.52-7.88-29.39,12.94-3.47a1.52,1.52,0,0,0,.84-.58l.15-.3.09-.32,0-.32Zm-60.13-13a2.61,2.61,0,1,1-2.6,2.6A2.6,2.6,0,0,1,18.25,847.94Zm6.07,20.48-7,1.87-5.11-5.11,1.87-7,7-1.87,5.11,5.11Zm14.52-10.91a17.57,17.57,0,1,1,17.57-17.57A17.57,17.57,0,0,1,38.84,857.51Zm20.9,32.11a2.61,2.61,0,1,1,2.6-2.61A2.61,2.61,0,0,1,59.74,889.62Zm3.36-45.54a2.61,2.61,0,1,1,2.6-2.6A2.61,2.61,0,0,1,63.1,844.08Z"/><path class="cls-2" d="M96.57,793.45l-7.79-32a4.49,4.49,0,0,0-2-2.76L80.71,755a4.47,4.47,0,0,0-6.14,1.49L48.26,799.7a4.46,4.46,0,0,0,1.49,6.14l28,17a3,3,0,0,0,4.1-1l13.87-22.79A7.47,7.47,0,0,0,96.57,793.45Zm-7.08-3.89a1.47,1.47,0,0,1-1.12-.17l-6.89-4.19a1.49,1.49,0,0,1-.49-2.05l4.19-6.88a1.48,1.48,0,0,1,2-.5,1.54,1.54,0,0,1,.68.92l2.69,11.08A1.48,1.48,0,0,1,89.49,789.56Z"/><path class="cls-2" d="M357.18,666.18,342,657.4a115.48,115.48,0,0,0-26.67-11.21,59.38,59.38,0,0,1-13.78-5.79L240.23,605a41.47,41.47,0,0,0-28.92-4.75l-57,11.41a14.9,14.9,0,0,0-10,7.15L94.55,705.12a14.88,14.88,0,0,0-1.21,12.21l18.6,55a41.54,41.54,0,0,0,18.58,22.68l61.28,35.38a59.28,59.28,0,0,1,11.91,9,115.14,115.14,0,0,0,23,17.49L242,865.74a6,6,0,0,0,7.9-1.8h0l109.71-190h0A6,6,0,0,0,357.18,666.18ZM108.53,694.35l-.09.53-.16.51-.22.49-.27.47-.32.43-.38.39-.42.33-.46.28-.25.1-.25.09-.27,0-.27,0h-.26l-.27,0a1.74,1.74,0,0,1-.8-.46l-.18-.21-.14-.23-.11-.24-.08-.26-.06-.26,0-.27v-.54l.08-.53.15-.52.21-.49.27-.47.32-.43.36-.4.42-.34.46-.29.24-.11.26-.09.26-.06.26,0h.27l.27,0,.26.07.24.12.22.15.2.19.16.21.14.23.1.25.08.26,0,.26,0,.27Zm74.35-35.52.08-.53.15-.51.21-.5.27-.47.31-.43.37-.4.41-.34.46-.28.25-.12.25-.08.26-.07.27,0h.27l.27,0,.25.07.25.12.22.15.19.19.17.21.13.23.11.25.08.26,0,.26,0,.27v.54l-.1.53-.15.51-.22.5-.27.46-.33.43-.37.39-.42.34-.46.27-.25.11-.26.08-.26.05-.27,0h-.27l-.26-.05a1.69,1.69,0,0,1-.81-.46l-.17-.21-.14-.23-.11-.24-.09-.26-.05-.26,0-.27ZM139,633.52l.08-.53.15-.52.21-.49.27-.47.31-.43.37-.4.41-.34.46-.29.25-.11.25-.09.26-.06.27,0h.27l.27,0,.25.07.25.12.22.15.19.18.17.22.13.23.11.25.08.26,0,.26,0,.27v.54l-.1.53-.15.51-.22.49-.27.47-.33.43-.37.39-.42.33-.46.28-.25.1-.26.09-.26,0-.27,0h-.27l-.26,0a1.77,1.77,0,0,1-.81-.46l-.17-.21-.14-.23-.12-.24-.08-.26-.06-.26,0-.27Zm-6.67,78.77-.7-.16L131,712l-.68-.21-.68-.22-.67-.26-.63-.5-.6-.54-.58-.56-.55-.58-.53-.6-.51-.63-.48-.64-.47-.66-.43-.68-.42-.7-.39-.71-.36-.72-.35-.73-.32-.74-.57-1.51-.25-.77-.23-.77-.38-1.57-.29-1.58-.24-1.6-.18-1.6-.15-1.61-.14-1.61-.17-1.6,22.95-39.76,1.48-.66,1.46-.68,1.47-.67,1.48-.64,1.5-.6,1.52-.53,1.54-.46.78-.19.79-.17,1.6-.26.8-.09.81-.07.81,0,.81,0h.8l.81,0,.8.07.8.1.8.12.79.16.78.19.77.22.76.26.76.28.55.46.54.47.52.5.5.51.48.53.47.54.87,1.14.8,1.19.72,1.23.65,1.28.57,1.31.5,1.34.44,1.37.36,1.38.3,1.4.24,1.41.18,1.42.12,1.43.06,1.43v1.43l-.05,1.44-.09,1.42-.14,1.43-.19,1.42-.23,1.41L175.3,675l-.32,1.39-.36,1.39-.4,1.38-.44,1.36-.47,1.35-.51,1.34-.55,1.32-.58,1.31-.62,1.29a53.28,53.28,0,0,1-3.54,6.13l-.81,1.18-.84,1.16-.87,1.14-.91,1.11-.93,1.09-1,1.06-1,1-1,1-1.05,1-1.08.94-1.11.9-1.14.88-1.16.83-1.19.8-1.22.75-1.25.71-1.27.66-1.29.61-1.32.56-1.34.5-1.36.44-1.39.37-1.39.31-1.42.24-1.42.15-1.43.08h-1.43l-1.43-.09-1.42-.19Zm20,6.83,0,.54-.09.53-.16.51-.22.5-.27.46-.32.43-.38.39-.42.34-.46.27-.25.11-.25.08-.27.05-.26,0h-.27l-.27-.05a1.7,1.7,0,0,1-.8-.46l-.18-.21-.14-.23-.11-.24-.08-.26-.06-.26,0-.27v-.54l.08-.53.15-.51.22-.5.26-.47.32-.43.37-.4.41-.34.46-.28.24-.12.26-.08.26-.07.27,0h.26l.27,0,.26.07.24.12.22.15.2.19.16.21.14.23.1.25.08.26.05.26Zm67.14,106.39a4.1,4.1,0,1,1-8.19,0h0a4.1,4.1,0,0,1,8.19,0Zm13.4,24.25a3.5,3.5,0,1,1,3.49-3.5A3.5,3.5,0,0,1,232.93,849.76Zm60.48-91.82a7.74,7.74,0,0,1-15.48,0h0a7.74,7.74,0,1,1,15.48,0Zm10.92-85.27L221.16,816.73a4.47,4.47,0,0,1-4.61,2.17,6.69,6.69,0,0,0-6.87,3.18,4.47,4.47,0,0,1-6.07,1.58l-64.47-37.22c-.49-.28-1-.58-1.44-.89a7.44,7.44,0,0,1-2.37-9.94L225.8,618.9a7.45,7.45,0,0,1,9.8-2.92c.5.25,1,.52,1.49.8L301.56,654a4.48,4.48,0,0,1,1.66,6,6.7,6.7,0,0,0,.68,7.54A4.47,4.47,0,0,1,304.33,672.67Zm8.83-9.34a4.1,4.1,0,1,1-8.19,0h0a4.1,4.1,0,0,1,8.19,0Zm22.63,8.26a3.5,3.5,0,1,1,3.5-3.49A3.5,3.5,0,0,1,335.79,671.59Z"/><path class="cls-2" d="M130,609.16l-9-5.22a6.54,6.54,0,0,0-5-.65l-8.52,2.28a6.57,6.57,0,0,0-4,3l-12.67,22a6.58,6.58,0,0,0-.65,5l2.28,8.51a6.57,6.57,0,0,0,3,4l9,5.22a5.36,5.36,0,0,0,7.32-2l20.1-34.81A5.36,5.36,0,0,0,130,609.16Zm-16,17.6a4.47,4.47,0,0,1-8.93,0v0a4.47,4.47,0,1,1,8.93,0Z"/><path class="cls-2" d="M46.85,584.75H2.19v15.78H1v8.93H2.19v10.42H11a7.48,7.48,0,0,0,5.27-2.18l.7-.7a7.42,7.42,0,0,1,5.26-2.18H46.85a4.47,4.47,0,0,0,4.46-4.47V589.21A4.46,4.46,0,0,0,46.85,584.75ZM36.72,599.63a4,4,0,1,1-8,0v-1.19a4,4,0,1,1,8,0Z"/><path class="cls-2" d="M112.11,558.78a15.14,15.14,0,0,0-4.13-.58h-.27a.89.89,0,0,1-.89-.89.87.87,0,0,1,.17-.52,5.66,5.66,0,0,0-4.22-8.94,3,3,0,0,1-2.77-3V513.73a3,3,0,0,1,2.77-3,5.66,5.66,0,0,0,4.22-8.94.9.9,0,0,1,.2-1.25.94.94,0,0,1,.52-.16H108a14.78,14.78,0,0,0,4.13-.59L125.22,496a20.25,20.25,0,0,0-18.41-11.82h-27a135.56,135.56,0,0,0-18.66,1.3,65.27,65.27,0,0,0-21.58,7v26.2l-.46.56-.5.57L37.54,521l-.54.53-.52.48-.55.47-.55.44-.19.18-.14.2-.08.19,0,.17V535l0,.17.08.19.14.2.19.18.55.43.55.47.52.49.54.52,1.06,1.14.5.57.46.55v28.29q2.82,1,5.7,1.72a134.26,134.26,0,0,0,34.54,4.51h27a20.24,20.24,0,0,0,18.41-11.82ZM112,491.4a3.5,3.5,0,1,1-3.5,3.5A3.5,3.5,0,0,1,112,491.4ZM53.33,551.08l-.48-.38h0l-.52-.41h0l-.3-.23-1-.89.12.1L51,549.1l-.1-.09-.36-.36.29.3-1.08-1.08-.2-.22.09.08-.65-.72.09.11-.41-.46-.43-.55.16.2-.63-.81,0,.07-.14-.18-.92-1.33,0,0,.53.75-.44-.63-.57-.93.26.45-.61-1-.17-.33c0,.08.09.16.14.24l-.54-1,.09.18-.28-.52-.34-.75c.07.16.15.31.22.46l-.47-1-.59-1.48c.19.51.39,1,.6,1.52l-.09-.21-.59-1.5,0-.08c0,.09.07.17.1.26l-.38-1.16c.06.19.11.38.17.56l-.36-1.12-.11-.41.12.38L43,535.52c0,.07,0,.14,0,.2l-.14-.55-.17-.85c0,.24.11.48.16.72l-.25-1.2-.21-1.48c.06.47.11.94.19,1.41l0-.18L42.41,532v-.09c0,.12,0,.24.05.36l-.12-1.33,0,.46-.08-1v-.43c0,.17,0,.33,0,.5l0-1.35v-.34l0-.92c0,.38,0,.75,0,1.12l0-1.47.12-1.22c0,.33-.09.66-.11,1v-.11l.17-1.61,0-.17c0,.13,0,.27,0,.4l.18-1.21c0,.08,0,.17,0,.25l.14-.87.14-.59c0,.17-.07.35-.1.52l.23-1.11.16-.56c-.05.19-.11.37-.16.55l.09-.38.45-1.55-.09.33L44,519.7l.6-1.48.68-1.44.77-1.4.85-1.35.93-1.3,1-1.25,1.07-1.18c.42-.43.85-.85,1.29-1.25l-.26.26a28.4,28.4,0,0,0,3.48,42.52c-.54-.36-1-.73-1.54-1.12Zm6.35,5c-2.73-1.19-4.73-2.71-5-5.91-.25-2.86.33-4.72,3.7-5.29,1.8-.3,2.4-2.32,2.38-4.28q-.07-11.39,0-22.78c0-2-1-3.17-2.61-4.24-4.85-3.31-4.46-7.67,1-10.06,11-4.81,28.82,2,32.67,10.81,2.23,5.1,4.63,10,4.07,15.53C97.6,550.18,74,562.32,59.68,556.13Zm38.24-51a4.47,4.47,0,1,1,8.93,0v0a4.47,4.47,0,1,1-8.93,0ZM102.38,558a4.47,4.47,0,0,1-4.46-4.48h0a4.47,4.47,0,1,1,8.93,0v0A4.47,4.47,0,0,1,102.38,558ZM112,567.2a3.5,3.5,0,1,1,3.49-3.5A3.49,3.49,0,0,1,112,567.2Z"/><path class="cls-2" d="M83.65,331.67a4.47,4.47,0,0,0-4.84-4.05L54.3,329.76a7.45,7.45,0,0,1-5.44-1.71l-.76-.64a7.39,7.39,0,0,0-5.43-1.71l-8.79.77.91,10.38-1.19.1.78,8.9,1.18-.11,1.38,15.72,44.49-3.89a4.46,4.46,0,0,0,4.06-4.84ZM66.49,349.16a4,4,0,0,1-4.35-3.65l-.1-1.19a4,4,0,0,1,8-.7l.1,1.19A4,4,0,0,1,66.49,349.16Z"/><path class="cls-1" d="M119.65,272.76l-.06-.34-.1-.33-.13-.32-.16-.31-15.56-26.95c.12-.19.24-.38.34-.58l.13-.35,0-.37-.05-.37-.15-.35-3.52-6.09-.22-.3-.29-.23-.35-.15-.36-.06a5.65,5.65,0,0,0-5.53,3.65L82.14,246l-.34.18-.37.16-.77.25-.76.17-.78.11a5.63,5.63,0,0,0-2.32.73A5.7,5.7,0,0,0,74,252.74v.44l0,.43-.06.42-.08.41-.11.39-.15.38-.17.37-.21.34A16.17,16.17,0,0,1,68,260.66L39.85,276.92A4.69,4.69,0,0,0,37.51,281V296l0,.4,0,.4.06.4.09.39.12.39.14.38.17.36.19.36,4.06,7,.19.28.21.27L43,307l.26.23.28.19.29.17.31.14.32.12.63.14.66.07h.7l.72-.08.73-.15.72-.23.72-.29.69-.36,43.81-25.3a4.46,4.46,0,0,1,5.68,1l.34.38.37.37.4.34.41.3.37.21.38.17.27.09.27.07.29,0h.28l.28,0,.28-.06.27-.1.25-.12,13.91-8,.29-.19.27-.21.25-.24.23-.26.2-.28.17-.3.14-.32.1-.33.07-.33,0-.35v-.34ZM77.1,252.46a2.53,2.53,0,0,1,5.06,0h0a2.53,2.53,0,1,1-5.06,0Zm18.21,19.72L61.72,291.57a6,6,0,0,1-8.13-2.18l-1.49-2.58a6,6,0,0,1,2.18-8.14l33.58-19.39A6,6,0,0,1,96,261.46L97.49,264A6,6,0,0,1,95.31,272.18Zm6.19-30.86a2.53,2.53,0,0,1-5.06,0h0a2.53,2.53,0,1,1,5.06,0Z"/><path class="cls-1" d="M141.65,299.25,132,282.49a1.49,1.49,0,0,0-2-.55l-7.74,4.47a7.44,7.44,0,0,0-2.72,10.17L123.2,303a7.45,7.45,0,0,0,10.17,2.73l7.73-4.47A1.48,1.48,0,0,0,141.65,299.25Zm-8.38-3.9a4.2,4.2,0,1,1-8.39,0h0a4.2,4.2,0,0,1,8.39,0Z"/><path class="cls-2" d="M168.34,326.46h3.13A1.49,1.49,0,0,0,173,325V314.55a1.48,1.48,0,0,0-1.49-1.49h-3.89a6,6,0,0,0-3,.79,44.66,44.66,0,0,1-42.57,1,16.56,16.56,0,0,0-7.56-1.82H98.83a1.48,1.48,0,0,0-.9.3,1.49,1.49,0,0,0-.59,1.19v1.19a1.49,1.49,0,0,0,1.49,1.49h3a2.53,2.53,0,0,1,0,5.06h-3a1.49,1.49,0,0,0-1.49,1.49v.51a6,6,0,0,0,1.39,3.83l3.31,3.94a4.46,4.46,0,0,1,.33.43l-.1.1-.58.67-.61.68-.64.66-.63.61-.39.42-.37.41-.35.4-.33.37-.2.28-.13.3-.08.32,0,.33v9.58l0,.33.08.33.13.29.2.28.33.37.35.4.37.41.39.43.63.6.64.66.61.68.58.67.1.1a4.46,4.46,0,0,1-.33.43l-3.31,3.95a5.93,5.93,0,0,0-1.39,3.82v.51a1.49,1.49,0,0,0,1.49,1.49h3a2.53,2.53,0,0,1,0,5.06h-3a1.49,1.49,0,0,0-1.49,1.49v1.19a1.47,1.47,0,0,0,1.49,1.49h15.65a16.56,16.56,0,0,0,7.56-1.82,44.66,44.66,0,0,1,42.57,1,6,6,0,0,0,3,.79h3.89a1.48,1.48,0,0,0,1.49-1.49V360.69a1.48,1.48,0,0,0-1.49-1.48h-3.13a4.46,4.46,0,0,1-4.46-4.47V330.92A4.46,4.46,0,0,1,168.34,326.46Zm-55.86,37.88a2.61,2.61,0,1,1,2.61-2.6A2.6,2.6,0,0,1,112.48,364.34Zm0-37.81a2.61,2.61,0,1,1,2.61-2.6A2.6,2.6,0,0,1,112.48,326.53ZM158,356.23a3,3,0,0,1-3,3H121.3a3,3,0,0,1-2.38-1.2,1.5,1.5,0,0,1,.89-.29h2.38a1.49,1.49,0,0,0,1.49-1.49v-26.8a1.49,1.49,0,0,0-1.49-1.49h-2.38a1.5,1.5,0,0,1-.89-.29,3,3,0,0,1,2.38-1.19H155a3,3,0,0,1,3,3Zm8.26,8.19a2.61,2.61,0,1,1-2.6,2.6A2.6,2.6,0,0,1,166.26,364.42Zm-2.6-45.78a2.61,2.61,0,1,1,2.6,2.61A2.59,2.59,0,0,1,163.66,318.64Z"/><path class="cls-2" d="M237.14,357.12v-.24l-.1-.21-.18-.15-5.16-3-.81.22-.08.14-3.87-2.24,9.12-15.79a1.19,1.19,0,0,0-.43-1.63l-23-13.25a1.5,1.5,0,0,0-2,.55l-9,15.54a1.49,1.49,0,0,0,.55,2l14.7,8.48a.76.76,0,0,1,.27,1l-3.72,6.44,1.06.61-4.77,8.25-1.05-.61L206,367.94l1,.61-4.76,8.25-1.06-.61-3.72,6.46a.76.76,0,0,1-1,.27L178,372.2a1.5,1.5,0,0,0-2,.54l-14.72,25.5a7.44,7.44,0,0,0,1,8.81A59.62,59.62,0,0,0,175.93,418L196.82,430a1.49,1.49,0,0,0,2-.54l1.07-1.86a4.42,4.42,0,0,0,.45-3.39l-.13-.48-1.14-.66,38-65.75ZM177.7,405.25a4.47,4.47,0,0,1-8.94,0v0a4.47,4.47,0,0,1,8.94,0Zm25.23-4.87-2.19,3.8a4.47,4.47,0,0,1-6.1,1.63l-8.77-5.06a4.46,4.46,0,0,1-1.63-6.1l2.19-3.8a4.46,4.46,0,0,1,6.1-1.63l8.77,5.06A4.46,4.46,0,0,1,202.93,400.38ZM218,335.52a4.47,4.47,0,1,1,4.47-4.47A4.47,4.47,0,0,1,218,335.52Z"/><path class="cls-2" d="M181.39,446.38l-34.81-20.09a5.35,5.35,0,0,0-7.32,2l-5.22,9a6.54,6.54,0,0,0-.65,5l10.45,39a6.55,6.55,0,0,0,3,4l9,5.22a5.36,5.36,0,0,0,7.32-2l20.1-34.81A5.36,5.36,0,0,0,181.39,446.38Zm-35.52.48a4.48,4.48,0,0,1-4.46-4.48h0a4.47,4.47,0,0,1,8.94,0v0A4.47,4.47,0,0,1,145.87,446.86Zm13.19,28.08a4.47,4.47,0,0,1-8.93,0v0a4.47,4.47,0,1,1,8.93,0Z"/><path class="cls-2" d="M280,166.25,269.56,148.2a7.45,7.45,0,0,0-10.17-2.73L148.91,209.26a7.45,7.45,0,0,0-2.73,10.17l8.94,15.47a1.49,1.49,0,0,1-.55,2l-21.24,12.26a4.47,4.47,0,0,0-1.63,6.1l20.84,36.1a4.46,4.46,0,0,0,6.1,1.63h0L183,279l.06,0,.45-.3.4-.36.36-.4.31-.44,0-.06a34.33,34.33,0,0,1,12.35-12.21l.57-.33a5.31,5.31,0,0,0,2.24-2.51,29.8,29.8,0,0,1,12.44-14l34-19.62a14.86,14.86,0,0,0,6.94-9l9.59-35.8a7.44,7.44,0,0,1,3.47-4.52l12.19-7A4.47,4.47,0,0,0,280,166.25ZM149.06,259.6a4,4,0,1,1,4-4A4,4,0,0,1,149.06,259.6Zm7.27-41.17-.28-.4-.21-.44-.15-.47-.08-.48,0-.49.06-.48.12-.48.19-.45.26-.42.3-.38.36-.33.41-.28.43-.21.47-.16.48-.09h.49l.48,0a3.44,3.44,0,0,1,2.79,4,3,3,0,0,1-.15.57l-.2.44-.26.42-.31.37-.37.33-.41.27-.44.21-.46.14-.49.08h-.49l-.48-.06-.47-.13-.45-.2-.42-.25-.38-.31Zm4.64,61.8a4,4,0,1,1,4-4A4,4,0,0,1,161,280.23ZM178,208a2.61,2.61,0,1,1,2.61-2.6A2.6,2.6,0,0,1,178,208Zm25.39-19.81.12-.48.19-.45.25-.42.31-.38.36-.33.4-.28.44-.21.46-.16.49-.09h.48l.49.05a3,3,0,0,1,.57.15A3.45,3.45,0,0,1,210,190l-.2.44-.26.42-.31.37-.37.33-.41.27L208,192l-.47.14-.48.08h-.49l-.49-.06-.47-.13-.45-.2-.41-.25-.38-.31-.33-.37-.27-.4-.22-.44-.15-.47-.08-.48v-.49Zm.29,57.18a2.61,2.61,0,0,1-5.21,0h0a2.61,2.61,0,0,1,5.21,0ZM226.48,216a17.12,17.12,0,1,1-22.82-18.31,3,3,0,0,1,1.53-.13,8.91,8.91,0,0,0,5-.55,3,3,0,0,1,1.53-.2A17.12,17.12,0,0,1,226.48,216Zm17.15,6.23a2.61,2.61,0,0,1-5.21,0h0a2.61,2.61,0,1,1,5.21,0Zm-2.06-41.85a4,4,0,1,1,4-4A4,4,0,0,1,241.57,180.41ZM262.2,168.5a4,4,0,1,1,4-4A4,4,0,0,1,262.2,168.5Z"/><path class="cls-2" d="M291.39,266.51l-33.66-19.43a14.84,14.84,0,0,0-8.74-1.94l-4.38.38a5.94,5.94,0,0,1-3.5-.77L238,242.93a5.94,5.94,0,0,0-8.13,2.18l-3.18,5.51a1.49,1.49,0,0,0,.54,2l7.74,4.47a1.49,1.49,0,0,1,.54,2l-19.35,33.52-2,.54L208.45,290l-.28-.13-.31-.1-.31,0-.32,0-.3.08-.29.14-.23.2-.19.25-3.6,6.22-.11.23-.06.25,0,.25,0,.25.09.24.14.21.17.19.21.15,4.6,2.75,4.57,2.75,2.34,1.4L217,306.7l4.75,2.84.67.38.68.36.69.33.71.31.72.28.73.26.73.22.75.2.52.1.53,0H229l.53-.06.61-.12.59-.16.59-.19.58-.24.58-.26.56-.31.55-.33.54-.37.52-.41.51-.43.48-.46.46-.48.43-.51.41-.53.38-.55.34-.56,3-5.25a3,3,0,0,1,4.07-1.09l20.63,11.91a4.47,4.47,0,0,0,6.1-1.64L293,272.61A4.47,4.47,0,0,0,291.39,266.51ZM243,280.68l-7.44,12.89a3.87,3.87,0,0,1-6.7-3.87l7.44-12.89a3.87,3.87,0,0,1,6.7,3.87Zm20.4,17.51a4,4,0,1,1,4-4A4,4,0,0,1,263.38,298.19Zm11.91-20.63a4,4,0,1,1,4-4A4,4,0,0,1,275.29,277.56Z"/><path class="cls-2" d="M332.41,219.16H281.8a4.47,4.47,0,0,0-4.47,4.46v7.09a4.48,4.48,0,0,0,1.31,3.15L302,257.17a7.43,7.43,0,0,0,5.26,2.18H333.9a3,3,0,0,0,3-3h0V223.62A4.47,4.47,0,0,0,332.41,219.16Zm-29.66,28.9a1.49,1.49,0,0,1-1.49,1.49,1.46,1.46,0,0,1-1.05-.44l-8.06-8.06a1.49,1.49,0,0,1,1.05-2.54h8.06a1.49,1.49,0,0,1,1.49,1.49Z"/><path class="cls-2" d="M348.25,126.22,336.34,105.6a3,3,0,0,0-4.07-1.09l-47,27.16a3,3,0,0,0-1.09,4.07l13.87,24a11.89,11.89,0,0,1,1.58,6.36,20.1,20.1,0,0,0,40.17,1.34,19.69,19.69,0,0,0-.56-5.46,44.55,44.55,0,0,1,.24-22.18l.33-1.23a11.87,11.87,0,0,1,5.55-7.23l1.85-1.07A3,3,0,0,0,348.25,126.22ZM303.3,142.44a4,4,0,1,1,4-4A4,4,0,0,1,303.3,142.44Zm25.63,24.37a9.26,9.26,0,1,1-18.52,0v0a9.26,9.26,0,0,1,18.52,0Zm.79-39.62a4,4,0,1,1,4-4A4,4,0,0,1,329.72,127.19Z"/><path class="cls-2" d="M495.93,138.32l-.15-.63-.22-.61-.29-.59-19.75-34.21a1.49,1.49,0,0,0-2-.54l-24,13.84a.59.59,0,0,1-.82-.22l-14.44-25a.6.6,0,0,1,.22-.81h0l24-13.84a1.5,1.5,0,0,0,.55-2L439.24,39.45l-.35-.54-.42-.5L438,38l-.52-.38-.55-.31-.58-.23-.6-.15-.6-.07h-.6l-.58.09-.56.18-.53.25L399.82,56.45l-.64.42-.6.5-.52.55-.46.62-.39.67-.31.71-7.56,20.57-.31.71-.39.66-.46.62-.52.56-.6.49-.64.43-31.56,18.22-.65.42-.59.5-.53.55-.46.62-.38.66-.31.71-.58,1.56-.21.7-.14.72-.06.73,0,.72.1.72.19.7.25.68.34.66L388,175.49l.4.62.46.57.52.5.57.45.62.38.65.31.69.24.72.16,1.63.29.77.09h.77l.77-.09.74-.17.72-.27.7-.35L430.32,160l.69-.35.72-.26.75-.18.76-.09H434l.77.09,21.6,3.73.77.09h.77l.76-.09.75-.18.72-.27.69-.34,33.06-19.09.48-.33.44-.4.37-.45.31-.52.24-.55.16-.6.09-.61V139ZM411.37,89.13a4.47,4.47,0,1,1-4.46,4.46A4.47,4.47,0,0,1,411.37,89.13Zm-40,32a4.47,4.47,0,1,1,4.46-4.46A4.47,4.47,0,0,1,371.41,121.13Zm23.07,40a4.47,4.47,0,1,1,4.47-4.47A4.47,4.47,0,0,1,394.48,161.1Zm27.8-36a19.35,19.35,0,1,1-38.7,0h0a19.35,19.35,0,1,1,38.7,0Zm5.29-63.22h0a7.45,7.45,0,0,1,14.89,0h0a7.45,7.45,0,0,1-14.89,0ZM434.45,138a4.47,4.47,0,1,1,4.46-4.47A4.47,4.47,0,0,1,434.45,138Zm46.71-9.09a7.45,7.45,0,1,1-14.89,0h0a7.45,7.45,0,0,1,14.89,0Z"/><path class="cls-1" d="M415.08,192.13l-6-2.19-.51,1.4-7.74,21.26a1.49,1.49,0,0,1-1.91.89L359.19,199a1.48,1.48,0,0,1-.89-1.91L366,175.86l.51-1.4-6-2.19a4.48,4.48,0,0,0-5.73,2.67l-8.14,22.38A8.93,8.93,0,0,0,352,208.77l46.16,16.8a8.93,8.93,0,0,0,11.45-5.34l8.14-22.38A4.45,4.45,0,0,0,415.08,192.13Zm-35.36,19.45a2.61,2.61,0,0,1-5.21,0h0a2.61,2.61,0,1,1,5.21,0Z"/><path class="cls-2" d="M419.55,243.42H354.26a1.49,1.49,0,0,0-1.49,1.49v11.91a1.49,1.49,0,0,0,1.49,1.49h65.29a1.49,1.49,0,0,0,1.48-1.49V244.91A1.49,1.49,0,0,0,419.55,243.42Zm-30.12,10.43a2.53,2.53,0,0,1-5.06,0h0a2.53,2.53,0,1,1,5.06,0Z"/><path class="cls-2" d="M494.09,182H455.23a14.89,14.89,0,0,0-8.54,2.69l-3.6,2.53a6,6,0,0,1-3.42,1.07H436a6,6,0,0,0-5.95,6v6.36a1.49,1.49,0,0,0,1.49,1.49h8.93a1.49,1.49,0,0,1,1.49,1.49v38.7l-1.49,1.49H434l-.31,0-.31.07-.29.12-.27.18-.22.22-.17.26-.11.3,0,.31v7.18l0,.26.07.24.11.23.15.2.2.16.22.12.25.07.25,0,5.36.09,5.34.09,2.72,0,2.76.05,5.53.08H456l.77,0,.77-.06.77-.09.76-.11.76-.15.75-.17.74-.2.51-.17.48-.22.45-.27.43-.31.46-.41.44-.44.41-.46.39-.49.36-.52.34-.54.31-.57.28-.59.25-.61.22-.63.19-.64.16-.65.12-.65.08-.66.06-.67,0-.66v-6.06a3,3,0,0,1,3-3h23.82a4.47,4.47,0,0,0,4.47-4.46V186.46A4.47,4.47,0,0,0,494.09,182Zm-34.83,51.36a3.87,3.87,0,1,1-7.74,0V218.46a3.87,3.87,0,0,1,7.74,0ZM483.67,224a4,4,0,1,1,4-4A4,4,0,0,1,483.67,224Zm0-23.82a4,4,0,1,1,4-4A4,4,0,0,1,483.67,200.15Z"/><path class="cls-2" d="M613.19,57.33l-.39-1.43-2.67-1.55-5-2.87-35-20.2-5-2.87-3.32-1.91-1.44.38a1.47,1.47,0,0,0-.9.7l-2.33,4a3,3,0,0,0,1.09,4.07l7.89,4.55a7.47,7.47,0,0,1,3.47,4.52l3.85,14.38a7.44,7.44,0,0,1-.74,5.65L571.48,67a4.47,4.47,0,0,0,1.64,6.1l2.57,1.49a1.49,1.49,0,0,0,2-.55l11.46-19.85A.6.6,0,0,1,590,54l16.64,9.61a3,3,0,0,0,4.07-1.09l2.33-4A1.48,1.48,0,0,0,613.19,57.33ZM566,35.41a2.61,2.61,0,1,1,2.61-2.6A2.59,2.59,0,0,1,566,35.41Zm42.57,20.48a2.61,2.61,0,1,1-5.21,0h0a2.61,2.61,0,1,1,5.21,0Z"/><path class="cls-2" d="M808.52,169.06l-183.6-106a6,6,0,0,0-7.26,1,115.61,115.61,0,0,0-16.95,22.48l-8.78,15.22a5.94,5.94,0,0,0,2.18,8.13L606,116.75,771.5,212.32l11.86,6.84a5.94,5.94,0,0,0,8.13-2.18l8.78-15.21a115.18,115.18,0,0,0,11-25.92A6,6,0,0,0,808.52,169.06Zm-68.09-25.39a1.52,1.52,0,0,1,1.49,0l21.82,12.6a1.49,1.49,0,0,1-.74,2.78H749.31a3,3,0,0,1-2.58-1.49l-6.84-11.85A1.49,1.49,0,0,1,740.43,143.67ZM712.58,127.6a1.47,1.47,0,0,1,1.49,0l21.82,12.59a1.49,1.49,0,0,1-.74,2.78H721.46a3,3,0,0,1-2.58-1.49L712,129.63A1.49,1.49,0,0,1,712.58,127.6Zm-27.84-16.08a1.47,1.47,0,0,1,1.49,0l21.82,12.6a1.49,1.49,0,0,1,.54,2,1.47,1.47,0,0,1-1.29.74H693.62a3,3,0,0,1-2.58-1.48l-6.85-11.86A1.49,1.49,0,0,1,684.74,111.52ZM656.89,95.44a1.52,1.52,0,0,1,1.49,0L680.2,108a1.49,1.49,0,0,1-.74,2.78H665.77a3,3,0,0,1-2.58-1.49l-6.84-11.86A1.49,1.49,0,0,1,656.89,95.44ZM629.05,79.36a1.5,1.5,0,0,1,1.48,0L652.36,92a1.49,1.49,0,0,1-.75,2.78H637.92a3,3,0,0,1-2.58-1.49L628.5,81.4A1.49,1.49,0,0,1,629.05,79.36ZM608.88,92.73a2.53,2.53,0,0,1,5.06,0h0a2.53,2.53,0,0,1-5.06,0Zm.34,13.62L622.11,84a3,3,0,0,1,4.07-1.09A3.08,3.08,0,0,1,627.27,84l6,10.42a3,3,0,0,1,0,3l-6.87,11.91a3,3,0,0,1-2.58,1.49h-12a3,3,0,0,1-2.58-4.47Zm23.49,22.23a1.52,1.52,0,0,1-1.49,0L609.4,116a1.49,1.49,0,0,1,.74-2.78h13.69a3,3,0,0,1,2.58,1.49l6.84,11.85A1.5,1.5,0,0,1,632.71,128.58Zm2.63-3.17-6.87-11.91a3,3,0,0,1,0-3l6.87-11.91a3,3,0,0,1,2.58-1.49h13.75a3,3,0,0,1,2.58,1.49l6.88,11.91a3,3,0,0,1,0,3l-6.88,11.91a3,3,0,0,1-2.58,1.48H637.92A3,3,0,0,1,635.34,125.41Zm25.21,19.24a1.47,1.47,0,0,1-1.49,0l-21.82-12.6a1.49,1.49,0,0,1-.54-2,1.47,1.47,0,0,1,1.29-.74h13.68a3,3,0,0,1,2.58,1.48l6.85,11.86A1.49,1.49,0,0,1,660.55,144.65Zm2.64-3.17-6.87-11.91a2.93,2.93,0,0,1,0-3l6.87-11.91a3,3,0,0,1,2.58-1.49h13.75a3,3,0,0,1,2.58,1.49L689,126.6a2.93,2.93,0,0,1,0,3l-6.87,11.91a3,3,0,0,1-2.58,1.49H665.77A3,3,0,0,1,663.19,141.48Zm25.21,19.25a1.47,1.47,0,0,1-1.49,0l-21.82-12.6a1.49,1.49,0,0,1,.74-2.78h13.69a3,3,0,0,1,2.58,1.49l6.84,11.86A1.49,1.49,0,0,1,688.4,160.73Zm2.64-3.17-6.88-11.91a3,3,0,0,1,0-3L691,130.76a3,3,0,0,1,2.58-1.48h13.75a3,3,0,0,1,2.58,1.48l6.87,11.91a3,3,0,0,1,0,3L710,157.56a3,3,0,0,1-2.58,1.49H693.62A3,3,0,0,1,691,157.56Zm25.2,19.25a1.5,1.5,0,0,1-1.48,0l-21.83-12.6a1.49,1.49,0,0,1,.75-2.78h13.69a3,3,0,0,1,2.58,1.49l6.84,11.85A1.49,1.49,0,0,1,716.24,176.81Zm2.64-3.17L712,161.73a3,3,0,0,1,0-3l6.87-11.91a3,3,0,0,1,2.58-1.49h13.75a3,3,0,0,1,2.58,1.49l6.88,11.91a3,3,0,0,1,0,3l-6.88,11.91a3,3,0,0,1-2.58,1.49H721.46A3,3,0,0,1,718.88,173.64Zm25.21,19.24a1.47,1.47,0,0,1-1.49,0l-21.82-12.59a1.5,1.5,0,0,1-.54-2,1.47,1.47,0,0,1,1.29-.74h13.68a3,3,0,0,1,2.58,1.49l6.85,11.85A1.49,1.49,0,0,1,744.09,192.88Zm2.64-3.17-6.88-11.9a3,3,0,0,1,0-3l6.88-11.91a3,3,0,0,1,2.58-1.49h13.75a3,3,0,0,1,2.58,1.49l6.87,11.91a2.94,2.94,0,0,1,0,3l-6.87,11.9a3,3,0,0,1-2.58,1.49H749.31A3,3,0,0,1,746.73,189.71ZM771.94,209a1.47,1.47,0,0,1-1.49,0l-21.82-12.6a1.49,1.49,0,0,1,.74-2.78h13.69a3,3,0,0,1,2.58,1.49l6.84,11.86A1.49,1.49,0,0,1,771.94,209Zm17.63-10.84a2.53,2.53,0,1,1,2.53-2.53A2.53,2.53,0,0,1,789.57,198.12Zm2.2-16.15-12.9,22.33a3,3,0,0,1-4.06,1.09,2.85,2.85,0,0,1-1.09-1.09l-6-10.42a3,3,0,0,1,0-3l6.88-11.9a3,3,0,0,1,2.57-1.49h12a3,3,0,0,1,2.58,4.46Zm.36-7.59a1.49,1.49,0,0,1-1.29.75H777.15a3,3,0,0,1-2.57-1.49l-6.85-11.86a1.49,1.49,0,0,1,.55-2,1.47,1.47,0,0,1,1.49,0l21.82,12.6A1.49,1.49,0,0,1,792.13,174.38Z"/><path class="cls-2" d="M736.93,207.42l-15.87-4.91a29.44,29.44,0,0,1-6.09-2.66l-75.43-43.54a30.42,30.42,0,0,1-5.35-3.95L622,141.07a4.54,4.54,0,1,0-6.17,6.66l7.44,6.9a14.91,14.91,0,0,1,4.66,12.75,8.92,8.92,0,0,0,4.39,8.83l69,39.84a9,9,0,0,0,9.85-.61,14.87,14.87,0,0,1,13.36-2.34l9.7,3a4.54,4.54,0,1,0,2.68-8.68Zm-118-60.86a2.16,2.16,0,1,1,2.16-2.16A2.16,2.16,0,0,1,618.92,146.56ZM640.77,168a1.79,1.79,0,0,1-3.58,0h0a1.79,1.79,0,0,1,3.58,0Zm35,21.21a3,3,0,0,1-4.07,1.08l-27.52-15.89a3,3,0,1,1,3-5.15l27.52,15.89A3,3,0,0,1,675.72,189.23Zm5.65,2.23a1.79,1.79,0,1,1-3.57,0h0a1.79,1.79,0,0,1,3.57,0Zm19.68,12.39a3,3,0,0,1-4.06,1.09l-12.44-7.18a3,3,0,0,1,3-5.16L700,199.78A3,3,0,0,1,701.05,203.85Zm34.54,10.07a2.16,2.16,0,1,1,2.16-2.16A2.16,2.16,0,0,1,735.59,213.92Z"/><path class="cls-2" d="M759.36,238.24a4.55,4.55,0,0,0-5.43-3.44h0l-16.2,3.69a29.94,29.94,0,0,1-6.6.74H644a29.88,29.88,0,0,1-6.6-.74l-16.2-3.69a4.54,4.54,0,1,0-2,8.85h0l9.9,2.26a14.87,14.87,0,0,1,10.4,8.71,8.94,8.94,0,0,0,8.23,5.45H727.4a8.93,8.93,0,0,0,8.22-5.45A14.88,14.88,0,0,1,746,245.92l9.9-2.26A4.54,4.54,0,0,0,759.36,238.24ZM620.2,241.4a2.16,2.16,0,1,1,2.16-2.16A2.16,2.16,0,0,1,620.2,241.4Zm51.21,11.23H657a3,3,0,1,1,0-5.95h14.37a3,3,0,0,1,0,5.95Zm9.23-3a1.79,1.79,0,1,1-3.58,0h0a1.79,1.79,0,0,1,3.58,0Zm37.43,3H686.29a3,3,0,0,1,0-5.95h31.78a3,3,0,1,1,0,5.95Zm9.46-3a1.79,1.79,0,1,1-3.57,0h0a1.79,1.79,0,0,1,3.57,0Zm27.39-8.26a2.16,2.16,0,1,1,2.16-2.16A2.16,2.16,0,0,1,754.92,241.4Z"/><path class="cls-1" d="M644.61,205.32h-7.44a7.44,7.44,0,0,0-7.44,7.44v8.94a1.49,1.49,0,0,0,1.49,1.49h19.35a1.49,1.49,0,0,0,1.49-1.49v-8.94A7.45,7.45,0,0,0,644.61,205.32Zm-3.72,13.13a4.2,4.2,0,1,1,4.2-4.2A4.2,4.2,0,0,1,640.89,218.45Z"/><path class="cls-2" d="M573.71,303l-2.58-1.49-.32-.14-.33-.06-.35,0-.33.1a2.91,2.91,0,0,0-1.25-1.41l-72.19-41.68-2.58-1.49a3,3,0,0,0-4.07,1.09l-10,17.4a1.19,1.19,0,0,0-1.63.44l-50.17,86.89a1.19,1.19,0,0,0,.44,1.63l-11.17,19.33a3,3,0,0,0,1.09,4.07l2.58,1.49,5.06,2.92A4.47,4.47,0,0,1,428.1,396v13.75a8.91,8.91,0,0,0,4.47,7.73l11.91,6.88a9,9,0,0,0,8.93,0l11.91-6.88a4.49,4.49,0,0,1,4.46,0L493,430.86a3,3,0,0,0,1.84.38l.08.33.16.31.21.26.28.21,2.58,1.49a3,3,0,0,0,4.07-1.09l72.57-125.7h0A3,3,0,0,0,573.71,303ZM507,272.21a1.5,1.5,0,0,1,.2-.75,1.49,1.49,0,0,1,2-.54l23.82,13.75a1.47,1.47,0,0,1,.54.54,1.49,1.49,0,0,1-.54,2l-7.44,4.29a4.46,4.46,0,0,1-4.47,0l-11.91-6.87A4.47,4.47,0,0,1,507,280.8Zm0,16.33,11.91,6.87a4.47,4.47,0,0,1,2.23,3.87V313a4.47,4.47,0,0,1-2.23,3.87L507,323.77a4.46,4.46,0,0,1-4.47,0l-11.91-6.87a4.47,4.47,0,0,1-2.23-3.87V299.28a4.47,4.47,0,0,1,2.23-3.87l11.91-6.87A4.46,4.46,0,0,1,507,288.54Zm-4.47,43v13.75a4.48,4.48,0,0,1-2.23,3.87L488.39,356a4.44,4.44,0,0,1-4.46,0L472,349.13a4.47,4.47,0,0,1-2.24-3.87V331.51a4.46,4.46,0,0,1,2.24-3.87l11.91-6.87a4.44,4.44,0,0,1,4.46,0l11.91,6.87A4.47,4.47,0,0,1,502.53,331.51Zm-21-44.59.08-.13,12.28-21.27s.05-.09.07-.13a3,3,0,0,1,4-1l2.31,1.33a4.47,4.47,0,0,1,2.23,3.87V280.8a4.47,4.47,0,0,1-2.23,3.87l-11.91,6.87a4.44,4.44,0,0,1-4.46,0l-1.19-.68A3,3,0,0,1,481.57,286.92ZM463,319.15A.83.83,0,0,1,463,319l13.4-23.21.07-.12a3,3,0,0,1,4-1l1.19.69a4.48,4.48,0,0,1,2.24,3.87V313a4.48,4.48,0,0,1-2.24,3.87l-11.91,6.87a4.44,4.44,0,0,1-4.46,0l-1.19-.68A3,3,0,0,1,463,319.15Zm-18.61,32.23c0-.05.05-.09.07-.13L457.83,328l.07-.12a3,3,0,0,1,4-1l1.19.69a4.46,4.46,0,0,1,2.24,3.87v13.75a4.48,4.48,0,0,1-2.23,3.87L451.18,356a4.46,4.46,0,0,1-4.47,0l-1.19-.68A3,3,0,0,1,444.36,351.38ZM428.1,388.23l-1.19-.69a3,3,0,0,1-1.16-3.93c0-.05.05-.09.07-.13l13.4-23.21.08-.12a3,3,0,0,1,4-1l1.19.69a4.47,4.47,0,0,1,2.23,3.87v13.75a4.48,4.48,0,0,1-2.23,3.87l-11.91,6.87A4.46,4.46,0,0,1,428.1,388.23Zm14.14,26L436,401.79l2.8-4.86,6.28,12.49Zm11.45,3.54-12.55-25,2.8-4.87,12.56,25Zm5.17-9-6.27-12.49,2.8-4.86L461.67,404Zm6.46-20.63-11.91-6.87a4.48,4.48,0,0,1-2.23-3.87V363.74a4.47,4.47,0,0,1,2.23-3.87L465.32,353a4.49,4.49,0,0,1,4.46,0l11.91,6.88a4.48,4.48,0,0,1,2.24,3.87v13.75a4.49,4.49,0,0,1-2.24,3.87l-11.91,6.87A4.44,4.44,0,0,1,465.32,388.23Zm37.21,21.49a4.48,4.48,0,0,1-2.23,3.87l-11.91,6.87a4.44,4.44,0,0,1-4.46,0L472,413.59a4.47,4.47,0,0,1-2.24-3.87V396A4.46,4.46,0,0,1,472,392.1l11.91-6.88a4.49,4.49,0,0,1,4.46,0l11.91,6.88a4.47,4.47,0,0,1,2.23,3.87Zm18.61-32.23a4.48,4.48,0,0,1-2.23,3.87L507,388.23a4.46,4.46,0,0,1-4.47,0l-11.91-6.87a4.48,4.48,0,0,1-2.23-3.87V363.74a4.47,4.47,0,0,1,2.23-3.87L502.53,353a4.51,4.51,0,0,1,4.47,0l11.91,6.88a4.47,4.47,0,0,1,2.23,3.87Zm18.61-32.23a4.48,4.48,0,0,1-2.23,3.87L525.61,356a4.46,4.46,0,0,1-4.47,0l-11.91-6.87a4.48,4.48,0,0,1-2.23-3.87V331.51a4.47,4.47,0,0,1,2.23-3.87l11.91-6.87a4.46,4.46,0,0,1,4.47,0l11.91,6.87a4.47,4.47,0,0,1,2.23,3.87ZM558.36,313a4.46,4.46,0,0,1-2.24,3.87l-11.91,6.87a4.44,4.44,0,0,1-4.46,0l-11.91-6.87a4.47,4.47,0,0,1-2.23-3.87V299.28a4.47,4.47,0,0,1,2.23-3.87l9.68-5.59a4.49,4.49,0,0,1,4.46,0L556.12,298a4.46,4.46,0,0,1,2.24,3.87Z"/><path class="cls-1" d="M474.79,456.16,409,418.2a6.7,6.7,0,0,0-9.15,2.45l-38,65.75a6.7,6.7,0,0,0,2.45,9.15l65.75,38a6.69,6.69,0,0,0,9.15-2.45l38-65.75A6.7,6.7,0,0,0,474.79,456.16Zm-31.66-16-4.37-2.52A41.24,41.24,0,0,1,443.13,440.12Zm-21.31-2a4.47,4.47,0,0,1,4.46-4.47,4,4,0,0,1,.78.07,42.49,42.49,0,0,1,7.9,2.2l1.17.47,9.36,5.4,1,.78a42.89,42.89,0,0,1,5.85,5.74,4.46,4.46,0,0,1-.55,6.29,4.09,4.09,0,0,1-.64.45l-10.73,6.2a4.49,4.49,0,0,1-4.46,0l-11.91-6.88a4.47,4.47,0,0,1-2.23-3.87Zm-9.13,28.7,2.51-4.34,11.21,22.32-2.5,4.35Zm3.49,14.82-2.5,4.35-5.61-11.16,2.5-4.35ZM422.92,470l2.51-4.35L431,476.8l-2.51,4.34Zm-36.09-21.67a42.79,42.79,0,0,1,25.27-14.59,4.11,4.11,0,0,1,.78-.07,4.47,4.47,0,0,1,4.47,4.47V450.5a4.47,4.47,0,0,1-2.23,3.87l-11.91,6.88a4.51,4.51,0,0,1-4.47,0L388,455.05a4.62,4.62,0,0,1-.64-.45A4.47,4.47,0,0,1,386.83,448.31Zm-1.76,44.82a4.47,4.47,0,0,1-5.72-2.68,42.78,42.78,0,0,1,0-29.18,4.19,4.19,0,0,1,.33-.71,4.47,4.47,0,0,1,6.1-1.64l10.73,6.19a4.48,4.48,0,0,1,2.23,3.87v13.75a4.47,4.47,0,0,1-2.23,3.87l-10.73,6.2A4.58,4.58,0,0,1,385.07,493.13Zm11,18.47,4.37,2.52A43.86,43.86,0,0,1,396,511.6Zm21.31,2a4.47,4.47,0,0,1-4.47,4.47,5.14,5.14,0,0,1-.78-.07,43.39,43.39,0,0,1-7.89-2.2l-1.18-.47-9.35-5.4-1-.79a42.32,42.32,0,0,1-5.85-5.74,4.47,4.47,0,0,1,.54-6.29,4.62,4.62,0,0,1,.64-.45l10.73-6.19a4.46,4.46,0,0,1,4.47,0l11.91,6.87a4.48,4.48,0,0,1,2.23,3.87Zm35-10.2A42.83,42.83,0,0,1,427.06,518a5,5,0,0,1-.78.07,4.47,4.47,0,0,1-4.46-4.47V501.21a4.48,4.48,0,0,1,2.23-3.87L436,490.47a4.44,4.44,0,0,1,4.46,0l10.73,6.19a4.09,4.09,0,0,1,.64.45A4.46,4.46,0,0,1,452.34,503.4Zm7.48-12.95a4.58,4.58,0,0,1-.33.71,4.47,4.47,0,0,1-6.1,1.64l-10.73-6.2a4.48,4.48,0,0,1-2.24-3.87V469a4.49,4.49,0,0,1,2.24-3.87l10.73-6.19a4.19,4.19,0,0,1,.71-.33,4.47,4.47,0,0,1,5.72,2.68A42.78,42.78,0,0,1,459.82,490.45Z"/><path class="cls-2" d="M424.76,563.79l-2.58-1.49-1.48,2.58a3,3,0,0,0-1.09-4.06l-23.23-13.41a4.47,4.47,0,0,1-2.23-3.87V529.79a9,9,0,0,0-4.46-7.74l-11.91-6.87a8.93,8.93,0,0,0-8.94,0l-11.9,6.87a4.46,4.46,0,0,1-4.47,0l-7.64-4.4a3,3,0,0,0-4.06,1.09l-4.47,7.73a1.19,1.19,0,0,0-1.63.44h0l-19.65,34a1.2,1.2,0,0,0,.44,1.63L311,570.3a1.18,1.18,0,0,0-1.62.44l-14.3,24.76a1.19,1.19,0,0,0,.44,1.63L291,604.86a1.5,1.5,0,0,0,.54,2,1.46,1.46,0,0,0,1.1.15,8.24,8.24,0,0,1,6.05.86l11.51,6.65.19.11a8,8,0,0,0,6.88.55,4.48,4.48,0,0,1,3.83.3l25.55,14.76a4.44,4.44,0,0,1,2.18,3.16,8,8,0,0,0,3.92,5.68l.18.11,11.51,6.64a8.2,8.2,0,0,1,3.77,4.81,1.49,1.49,0,0,0,1.84,1A1.52,1.52,0,0,0,371,651l-.89,1.54,2.58,1.49a3,3,0,0,0,4.07-1.09l49.12-85.09A3,3,0,0,0,424.76,563.79Zm-67.82-34a4.47,4.47,0,0,1,2.23-3.87l11.91-6.87a4.44,4.44,0,0,1,4.46,0l11.91,6.87a4.48,4.48,0,0,1,2.24,3.87v13.75a4.48,4.48,0,0,1-2.24,3.87l-11.91,6.87a4.44,4.44,0,0,1-4.46,0l-11.91-6.87a4.47,4.47,0,0,1-2.23-3.87Zm0,21.49,11.9,6.87a4.46,4.46,0,0,1,2.24,3.87v13.75a4.46,4.46,0,0,1-2.24,3.87l-11.9,6.87a4.46,4.46,0,0,1-4.47,0l-11.91-6.87a4.47,4.47,0,0,1-2.23-3.87V562a4.47,4.47,0,0,1,2.23-3.87l11.91-6.87A4.46,4.46,0,0,1,356.94,551.28Zm-25.36-1.75L345,526.32a3,3,0,0,1,4.07-1.09h0l1.19.69a4.47,4.47,0,0,1,2.23,3.87v13.75a4.47,4.47,0,0,1-2.23,3.87l-11.91,6.87a4.46,4.46,0,0,1-4.47,0l-1.19-.68A3,3,0,0,1,331.58,549.53Zm-16.33,58.64a3,3,0,0,1-4.46,2.58l-8.34-4.81a3,3,0,0,1-1.09-4.07l6.4-11.09a3,3,0,0,1,4.07-1.09h0l1.19.69a4.47,4.47,0,0,1,2.23,3.87Zm0-21.66-1.19-.68a3,3,0,0,1-1.09-4.07l13.4-23.21a3,3,0,0,1,4.07-1.09l1.19.69a4.47,4.47,0,0,1,2.23,3.87v13.75a4.47,4.47,0,0,1-2.23,3.87l-11.91,6.87A4.46,4.46,0,0,1,315.25,586.51Zm18.61,32.23L322,611.87a4.47,4.47,0,0,1-2.23-3.87V594.25a4.47,4.47,0,0,1,2.23-3.87l11.91-6.87a4.46,4.46,0,0,1,4.47,0l11.91,6.87a4.47,4.47,0,0,1,2.23,3.87V608a4.47,4.47,0,0,1-2.23,3.87l-11.91,6.87A4.46,4.46,0,0,1,333.86,618.74Zm37.22,21.66a3,3,0,0,1-4.47,2.58l-12-7a4.45,4.45,0,0,1-2.17-3.16,8.08,8.08,0,0,0-3.92-5.69l-3.45-2a3,3,0,0,1-1.09-4.07A2.92,2.92,0,0,1,345,620l7.44-4.3a4.51,4.51,0,0,1,4.47,0l11.9,6.88a4.46,4.46,0,0,1,2.24,3.87ZM389.69,608a4.48,4.48,0,0,1-2.24,3.87l-11.91,6.87a4.44,4.44,0,0,1-4.46,0l-11.91-6.87a4.47,4.47,0,0,1-2.23-3.87V594.25a4.47,4.47,0,0,1,2.23-3.87l11.91-6.87a4.44,4.44,0,0,1,4.46,0l11.91,6.87a4.48,4.48,0,0,1,2.24,3.87Zm18.6-32.23a4.47,4.47,0,0,1-2.23,3.87l-11.91,6.87a4.44,4.44,0,0,1-4.46,0l-11.91-6.87a4.46,4.46,0,0,1-2.24-3.87V562a4.46,4.46,0,0,1,2.24-3.87l11.91-6.87a4.44,4.44,0,0,1,4.46,0l11.91,6.87a4.47,4.47,0,0,1,2.23,3.87Z"/><path class="cls-2" d="M279.26,667.81l-.11-.28-.16-.24-.2-.22-.24-.17-34.27-19.78L244,647l-.28-.08h-.3l-.29.05-.27.1-.26.15-.21.2-.18.24-3.72,6.44-.12.27-.06.29v.29l.05.29.11.28.16.25.2.21.24.17,1.31.76.25.16.23.18.22.21.19.22.17.23.15.27.12.27.1.28.06.28,0,.29v.31l0,.29-.05.28-.08.29-.11.28-.13.26-52.85,91.53-.15.24-.19.24-.21.21-.22.19-.25.16-.26.14-.28.12-.27.08-.29.06-.3,0H186l-.29,0-.28-.06-.29-.08-.28-.11-.26-.13-12.15-7a1.5,1.5,0,0,0-2,.54h0l-6,10.32L160,765.16a1.5,1.5,0,0,0,.55,2l9.28,5.36a1.49,1.49,0,0,0,2-.55l2.24-3.87a3,3,0,0,1,4.06-1.09l29.65,17.12a3,3,0,0,1,1.09,4.07h0l-2.23,3.87a1.48,1.48,0,0,0,.55,2l9.28,5.36a1.48,1.48,0,0,0,2-.55l4.47-7.73,6-10.31a1.5,1.5,0,0,0-.54-2l-12.16-7-.24-.16-.24-.19-.21-.21-.2-.22-.16-.23-.15-.26-.12-.28-.1-.27-.06-.28,0-.3v-.3l0-.29.05-.29.08-.28.11-.29.13-.25,52.84-91.54.16-.24.19-.23.21-.22.22-.18.24-.16.27-.14.28-.12.27-.09.29-.05.3,0h.3l.28,0,.29.06.29.09.28.11.26.13,1.31.76.27.12.28.07h.3l.29,0,.27-.1.26-.15.21-.2.18-.24,3.72-6.44.12-.27.06-.29v-.29ZM223.1,739.74l-11.91,20.63a4.45,4.45,0,0,1-6.1,1.63l-1.29-.74L199.94,759l-1.29-.75a4.46,4.46,0,0,1-1.64-6.1l11.91-20.63a4.47,4.47,0,0,1,6.1-1.63l6.45,3.72A4.47,4.47,0,0,1,223.1,739.74Zm19.06-33-10.42,18a4.47,4.47,0,0,1-6.1,1.63l-6.45-3.72a4.45,4.45,0,0,1-1.63-6.1L228,698.55a4.46,4.46,0,0,1,6.1-1.63l6.44,3.72A4.46,4.46,0,0,1,242.16,706.74ZM261.06,674l-10.42,18a4.46,4.46,0,0,1-6.1,1.64L238.1,690a4.48,4.48,0,0,1-1.64-6.11l10.42-18a4.47,4.47,0,0,1,6.1-1.64l6.45,3.72A4.47,4.47,0,0,1,261.06,674Z"/><path class="cls-1" d="M145.83,684.84l4.83.85a3,3,0,0,0,2.52-.74,61.94,61.94,0,0,0,10.48-12.47,1.49,1.49,0,0,0-.45-2.06l-.06,0-11.32-6.54a1.49,1.49,0,0,0-2,.47c-.52.81-1.07,1.59-1.65,2.36a1.48,1.48,0,0,0-.15,1.53,8.47,8.47,0,0,1-2,10,52.14,52.14,0,0,1-8.79,6.33,1.49,1.49,0,0,0-.57,2l3.24,6a1.49,1.49,0,0,0,2,.61l0,0q1-.6,2.07-1.23a.89.89,0,0,0,.29-1.23l0,0L143.15,689a2.68,2.68,0,0,1,2.68-4.15Z"/><path class="cls-2" d="M180,836.44,123.45,803.8a1.48,1.48,0,0,0-2,.54h0l-6,10.31a1.49,1.49,0,0,0,.54,2l11.56,6.67,3.87,2.23,10.91,6.3,3.86,2.24,10.92,6.3,3.86,2.23,11.56,6.67a1.49,1.49,0,0,0,2-.54l6-10.32A1.48,1.48,0,0,0,180,836.44Zm-31-7.29a2.53,2.53,0,1,1-5.06,0h0a2.53,2.53,0,0,1,5.06,0Z"/><path class="cls-2" d="M249.86,932.52,243,920.61a4.44,4.44,0,0,1,0-4.46l4.4-7.64a3,3,0,0,0-1.08-4.07l-125.7-72.57a3,3,0,0,0-4.07,1.09L73.37,907.73a3,3,0,0,0,1.09,4.07h0l125.7,72.57a3,3,0,0,0,4.06-1.09l13.41-23.22a4.47,4.47,0,0,1,3.87-2.23h13.75a9,9,0,0,0,7.74-4.47l6.87-11.91A8.91,8.91,0,0,0,249.86,932.52ZM117.08,902l-6.88,11.91a4.48,4.48,0,0,1-3.87,2.24H92.58a4.49,4.49,0,0,1-3.87-2.24l-5.58-9.67a4.46,4.46,0,0,1,0-4.47l8.16-14.14a4.47,4.47,0,0,1,3.87-2.23h11.17a4.47,4.47,0,0,1,3.87,2.23l6.88,11.91A4.49,4.49,0,0,1,117.08,902Zm0-37.21L110.2,876.7a4.47,4.47,0,0,1-3.87,2.23H97.74a1.49,1.49,0,0,1-1.49-1.49,1.47,1.47,0,0,1,.2-.74l13.75-23.82a1.49,1.49,0,0,1,2-.55,1.53,1.53,0,0,1,.55.55l4.3,7.44A4.51,4.51,0,0,1,117.08,864.79Zm3.86-6.7-5.58-9.68a4.44,4.44,0,0,1,0-4.46l1.33-2.31a3,3,0,0,1,4.07-1.09L142,852.83a3,3,0,0,1,1.09,4.07l-.69,1.19a4.47,4.47,0,0,1-3.87,2.23H124.81A4.48,4.48,0,0,1,120.94,858.09Zm11,35a3.5,3.5,0,1,1-3.5-3.49A3.5,3.5,0,0,1,132,893.13Zm21.82,43.24-29-16.75a5.05,5.05,0,0,1-1.85-6.91l19.72-34.16h0a5.08,5.08,0,0,1,6.92-1.86l29,16.75a5.06,5.06,0,0,1,1.85,6.91L160.7,934.52A5.06,5.06,0,0,1,153.79,936.37Zm21.09-19.94a3.5,3.5,0,1,1-3.5,3.5A3.5,3.5,0,0,1,174.88,916.43Zm25,47.58-28.36-16.37,25.68-44.48,28.36,16.38Z"/><path class="cls-1" d="M216.24,860.23l-6.44-3.72a7.45,7.45,0,0,0-10.17,2.73L195.16,867a1.5,1.5,0,0,0,.55,2l16.76,9.67a1.49,1.49,0,0,0,2-.54L219,870.4A7.45,7.45,0,0,0,216.24,860.23Zm-3.49,5.89a4.2,4.2,0,1,1-8.39,0h0a4.2,4.2,0,1,1,8.39,0Z"/><path class="cls-1" d="M277.81,1010.59v.21l0,.21-.06.22-.08.21-.12.22-2.61,4.52-.12.2-.14.16-.15.15-.16.12-.18.09-.19.07-.2,0-.22,0h-.23l-.24,0-.26,0-.26-.08-.29-.1-.29-.13-.31-.15-.32-.18-.32-.19-.29-.19-.26-.2-.23-.19-.2-.2-.18-.19-.15-.2-.12-.2-.09-.19-.07-.2,0-.2v-.2l0-.21.05-.2.07-.2.11-.21,2.61-4.52.14-.22.16-.2.17-.17.17-.13.19-.11.2-.07.21-.05H274l.24,0,.26.06.26.08.28.1.29.13.3.15.31.17.32.19.29.19.25.2.23.19.2.2.18.2.14.2.12.21.08.2.06.21ZM258.6,999.31l-.05-.21-.09-.21-.12-.2-.14-.2-.17-.2-.2-.2-.23-.2-.26-.19-.29-.19-.31-.19-.32-.18-.3-.15-.29-.12-.27-.1-.27-.08-.26-.06-.24,0h-.23l-.22,0-.22,0-.2.08-.18.11-.18.13-.17.17-.15.19-.15.23-2.61,4.52-.1.21-.08.2-.05.2,0,.2v.2l0,.2.06.2.09.2.12.2.15.2.18.19.2.2.24.19.26.19.29.2.31.19.32.17.31.16.3.12.28.11.27.08.25,0,.24,0h.23l.22,0,.2,0,.19-.07.18-.1.16-.12.15-.14.14-.17.13-.19,2.61-4.52.11-.22.08-.21.06-.22,0-.21v-.21Zm8.88,4.78-.19-.27-.27-.26-.34-.27-.42-.26-2-1.15-2.07,3.57,1.86,1.07.5.27.44.19.39.11.33,0,.3,0,.26-.12.23-.21.21-.3.76-1.31.12-.27,0-.27,0-.26Zm29.76,6.66c-3.18,5.69-3.13,10.48-.3,15.82,3.31,6.23,2,9.19-5.12,11.37-1.25.38-2.74.56-3.1,1.76-1.5,5.16-4.6,2.9-7.29,1.6-2.92-1.42-5.66-3.19-8.49-4.79-8-4.5-8.27-4.62-4.58-12.57,1.37-3,.71-3.78-1.73-5.11-4.81-2.62-9.57-5.39-14.12-8.45-3.95-2.65-6,.19-7.09,2.72-2.4,5.58-5.61,4.33-9.35,2-1.69-1.05-3.34-2.17-5.07-3.15-10.1-5.69-11.06-7.73-8.56-18.92.75-3.36,2.85-5.39,6.38-5.23,8.41.39,13.26-4.08,17-11.15,5.7-11,13-21,18.18-32.32,1.72-3.74,5.31-4,9.91-3.79,3.47,1.25,8.11,1.48,12.33,4.43a174.06,174.06,0,0,0,20.95,12.11c5.23,2.66,8.41,6.88,11.28,11.65a6,6,0,0,1-.14,6.36C310.42,986.49,304,998.68,297.24,1010.75Zm-64.19-16.81c-.71-1.6-1.52-3-3.64-3.18-2.41-.15-5,0-5.26,2.92-.23,2.18,1.91,3.91,3.7,4.31C230.46,998.59,231.54,996,233.05,993.94Zm19-.39-1.41-.81-7.74,6.39-.14-.08,1.67-9.9-1.48-.85-1.8,11.62,1.64,1Zm5.1,12.37,2.61-4.51.17-.33.13-.34.08-.33,0-.32v-.33l0-.32-.09-.32-.13-.32-.17-.31-.22-.31-.27-.31-.3-.3-.35-.3-.4-.3-.43-.29-.49-.29-.48-.27-.47-.23-.45-.19-.43-.15-.42-.11-.39-.07-.38,0h-.35l-.34,0-.32.08-.3.13-.28.16-.26.21-.24.24-.23.28-.2.32-2.6,4.49-.16.32-.12.32-.08.32,0,.31v.31l.05.31.09.31.13.31.18.3.22.3.26.3.31.3.34.29.4.29.43.29.47.29.45.25.43.21.43.18.41.15.4.12.39.09.38.06.37,0h.36l.33,0,.31-.11.29-.14.28-.19.25-.23.23-.28Zm10.65,1.92.15-.17.13-.2.95-1.64.18-.37.12-.35,0-.32,0-.31-.08-.29-.15-.29-.21-.28-.28-.28-.35-.3-.43-.31-.51-.33-.59-.35-3.33-1.93-5.48,9.49,1.42.82,2.33-4,1.38.8.38,5.62,1.74,1-.6-6,.53.27.51.18.5.09.49,0,.23,0,.22-.05.2-.08.19-.1.18-.13Zm8.53,9.15,2.6-4.5.18-.34.13-.33.08-.34,0-.32v-.33l0-.32-.09-.32-.13-.31-.18-.32-.22-.31-.26-.3-.31-.31-.35-.3-.39-.3-.44-.29-.48-.29-.49-.27-.46-.23-.46-.19-.43-.15-.41-.11-.39-.07-.38,0h-.35l-.34.05-.32.09-.3.12-.28.16-.26.21-.25.24-.22.28-.21.32-2.59,4.49-.16.32-.13.32-.08.32,0,.31v.31l.05.31.1.31.13.31.18.3.22.3.26.3.3.3.35.29.39.3.44.29.47.28.45.25.43.21.42.18.42.15.4.12.39.09.38.06.37,0h.35l.34,0,.31-.1.29-.15.27-.19.25-.23.23-.28Zm14.39-1.11-1.24-.72-4.53,7.84-.63-10.82-1.72-1-5.48,9.5,1.25.71,4.6-8,.56,11,1.71,1Zm1.13,11.48c-2.24.17-4.19,1.29-3.53,3.67.52,1.88,1.26,4.61,4.35,3.91,3.28.22,3.95-2.54,4-4.41C296.79,1027.67,294.22,1027.18,291.81,1027.36Zm14.43-51.19c0-13.61-12.08-25.94-25.51-25-14.42,1-24.36,10.08-24.83,25.71-.43,14,10.48,24.54,24.73,24.56C295.92,1001.48,306.25,991.28,306.24,976.17Z"/><path class="cls-1" d="M313,920a6.18,6.18,0,0,0-2.62-11l-4.41-.78a7.4,7.4,0,0,0-3.21.14l-11.87,3.18a22.3,22.3,0,0,1-16-1.75L265.61,905a2.24,2.24,0,0,0-2.06,4l1.54.8a3,3,0,0,1,1.51,1.87l2.48,9.25a3,3,0,0,1-.46,2.51q-.69,1-1.29,2a6,6,0,0,0-.66,4.33,1.47,1.47,0,0,0,1.78,1.12,1.33,1.33,0,0,0,.43-.17c1.65-1,3.35-1.9,5.08-2.73a1.12,1.12,0,0,0,.53-1.49,1.2,1.2,0,0,0-.39-.45,2.22,2.22,0,0,1-.61-3.09,2,2,0,0,1,.28-.35l.22-.21a5.94,5.94,0,0,1,2.58-1.46L294.71,916l.83-.18.83-.11.85,0,.84,0,.84.11.82.18.8.25.78.32.75.39.71.46.67.51.63.57.57.62.51.67.45.71.4.75,3.1,6.65a2.23,2.23,0,0,0,4.05-1.89L312,923.66A3,3,0,0,1,313,920Zm-1.09-4.95a2.61,2.61,0,0,1-5.21,0h0a2.61,2.61,0,0,1,5.21,0Z"/><path class="cls-1" d="M400.2,905.05H333.79a4.47,4.47,0,0,0-4.47,4.47v3.27a.6.6,0,0,0,.6.6h21.14V913a2.53,2.53,0,1,1,3.58,0h0v.44h17a5.06,5.06,0,0,1,5.06,5.06v13.4a3,3,0,0,0,3,3H400.2a6,6,0,0,0,5.95-6V911A6,6,0,0,0,400.2,905.05Zm-8.94,19a4.1,4.1,0,1,1,4.1-4.1A4.1,4.1,0,0,1,391.26,924Z"/><path class="cls-2" d="M366.35,933.55H326.16a5.36,5.36,0,0,0-5.36,5.36v10.44a6.52,6.52,0,0,0,1.92,4.63l6.23,6.24a6.56,6.56,0,0,0,4.64,1.92h25.34a6.56,6.56,0,0,0,4.63-1.92l6.23-6.24a6.52,6.52,0,0,0,1.92-4.63V938.91A5.36,5.36,0,0,0,366.35,933.55Zm-20.09,18.76a4.47,4.47,0,1,1,4.46-4.46A4.47,4.47,0,0,1,346.26,952.31Z"/><path class="cls-2" d="M430.52,1042.7l-23.34-13.47a1.49,1.49,0,0,1-.54-2l13.47-23.34a1.48,1.48,0,0,0-.55-2l-56.77-32.78-.58-.29-.61-.22-.63-.15-.64-.07h-.63l-.62.09-.59.16-.56.24-.51.31-.46.38-.39.43-.33.48-44.72,77.46a4.58,4.58,0,0,0-.3,4l1.23,3.15a4.62,4.62,0,0,0,2,2.31l78.16,45.13.53.25.56.18.58.09h.6l.6-.07.6-.15.58-.23.55-.31.52-.38.47-.44.42-.5.36-.55,32.1-55.61A1.49,1.49,0,0,0,430.52,1042.7Zm-35.16-45.1a7.45,7.45,0,1,1-7.44,7.44A7.45,7.45,0,0,1,395.36,997.6ZM388.41,1032a4.47,4.47,0,1,1,4.47,4.47A4.47,4.47,0,0,1,388.41,1032Zm8.12,40.48-2.24,3.89-5-10,2.24-3.89ZM361.46,978a7.44,7.44,0,1,1-7.45,7.44A7.44,7.44,0,0,1,361.46,978Zm-8.55,26.4a4.47,4.47,0,1,1-4.46,4.47A4.47,4.47,0,0,1,352.91,1004.43Zm-23.07,48.9a4.47,4.47,0,1,1,4.47-4.47A4.47,4.47,0,0,1,329.84,1053.33Zm40,23.07a4.47,4.47,0,1,1,4.46-4.46A4.47,4.47,0,0,1,369.81,1076.4Zm10.9-36a19.35,19.35,0,1,1-38.7,0h0a19.35,19.35,0,1,1,38.7,0Zm8.88,53.82a7.45,7.45,0,1,1,7.44-7.44A7.44,7.44,0,0,1,389.59,1094.24Zm13.86-15.07-10.05-20,2.25-3.88,10,20Zm4.13-7.17-5-10,2.25-3.89,5,10Zm3.89-15.66a7.45,7.45,0,1,1,7.44-7.45A7.45,7.45,0,0,1,411.47,1056.34Z"/><path class="cls-2" d="M922.27,237.2l-85.08-49.12a3,3,0,0,0-4.07,1.09h0l-1.49,2.58,2.58,1.49a3,3,0,0,0-4.07,1.09l-13.4,23.22a4.48,4.48,0,0,1-3.87,2.23H799.12a8.94,8.94,0,0,0-7.74,4.47l-6.87,11.91a8.91,8.91,0,0,0,0,8.93L791.38,257a4.44,4.44,0,0,1,0,4.46L787,269.1a3,3,0,0,0,1.09,4.06l7.74,4.47a1.19,1.19,0,0,0,.43,1.63l34,19.65a1.19,1.19,0,0,0,1.63-.44l7.73,4.47a1.18,1.18,0,0,0,.44,1.62l24.76,14.3a1.19,1.19,0,0,0,1.63-.43l7.73,4.46a1.48,1.48,0,0,0,2.19-1.64,8.24,8.24,0,0,1,.86-6.05l6.65-11.51.1-.19a8,8,0,0,0,.55-6.88,4.46,4.46,0,0,1,.31-3.82l14.75-25.56a4.5,4.5,0,0,1,3.16-2.18,8,8,0,0,0,5.69-3.92l.11-.18,6.64-11.51a8.2,8.2,0,0,1,4.81-3.77,1.49,1.49,0,0,0,1-1.84,1.52,1.52,0,0,0-.69-.88l1.53.89,1.49-2.58A3,3,0,0,0,922.27,237.2Zm-58.69-12.95h13.75a4.48,4.48,0,0,1,3.87,2.23l6.87,11.91a4.44,4.44,0,0,1,0,4.46l-6.87,11.91a4.49,4.49,0,0,1-3.87,2.24H863.58a4.48,4.48,0,0,1-3.87-2.24l-6.88-11.91a4.49,4.49,0,0,1,0-4.46l6.88-11.91A4.47,4.47,0,0,1,863.58,224.25Zm-7.74,37.21L849,273.37a4.48,4.48,0,0,1-3.87,2.23H831.35a4.47,4.47,0,0,1-3.87-2.23l-6.88-11.91a4.49,4.49,0,0,1,0-4.46l6.88-11.91a4.46,4.46,0,0,1,3.87-2.24H845.1a4.47,4.47,0,0,1,3.87,2.24L855.84,257A4.44,4.44,0,0,1,855.84,261.46ZM820.6,219.78l6.88-11.91a4.47,4.47,0,0,1,3.87-2.23H845.1a4.48,4.48,0,0,1,3.87,2.23l6.87,11.91a4.46,4.46,0,0,1,0,4.47L849,236.16a4.48,4.48,0,0,1-3.87,2.23H831.35a4.47,4.47,0,0,1-3.87-2.23l-6.88-11.91A4.51,4.51,0,0,1,820.6,219.78Zm-32.23,23.07a4.49,4.49,0,0,1,0-4.46l6.88-11.91a4.47,4.47,0,0,1,3.87-2.23h13.75a4.48,4.48,0,0,1,3.87,2.23l6.87,11.91a4.44,4.44,0,0,1,0,4.46l-6.87,11.91a4.49,4.49,0,0,1-3.87,2.24H799.12a4.48,4.48,0,0,1-3.87-2.24Zm35.24,37.22-.69,1.19a3,3,0,0,1-4.06,1.09L795.65,269a3,3,0,0,1-1.09-4.06h0l.69-1.19a4.47,4.47,0,0,1,3.87-2.23h13.75a4.48,4.48,0,0,1,3.87,2.23l6.87,11.91A4.46,4.46,0,0,1,823.61,280.07Zm32.23,18.61-.69,1.19a3,3,0,0,1-4.06,1.09l-23.21-13.4a3,3,0,0,1-1.09-4.07l.69-1.19a4.47,4.47,0,0,1,3.87-2.23H845.1A4.48,4.48,0,0,1,849,282.3l6.87,11.91A4.46,4.46,0,0,1,855.84,298.68Zm24.24,4.46-4.81,8.34a3,3,0,0,1-4.07,1.09l-11.09-6.4A3,3,0,0,1,859,302.1l.69-1.19a4.47,4.47,0,0,1,3.87-2.23H877.5a3,3,0,0,1,2.58,4.46Zm8-23.07L881.2,292a4.48,4.48,0,0,1-3.87,2.23H863.58a4.47,4.47,0,0,1-3.87-2.23l-6.88-11.91a4.51,4.51,0,0,1,0-4.47l6.88-11.91a4.47,4.47,0,0,1,3.87-2.23h13.75a4.48,4.48,0,0,1,3.87,2.23l6.87,11.91A4.46,4.46,0,0,1,888.07,280.07Zm24.24-32.75-6.95,12a4.49,4.49,0,0,1-3.16,2.17,8.08,8.08,0,0,0-5.69,3.92l-2,3.45a3,3,0,0,1-4.07,1.09,2.92,2.92,0,0,1-1.09-1.09l-4.3-7.44a4.44,4.44,0,0,1,0-4.46l6.88-11.91a4.46,4.46,0,0,1,3.87-2.24h13.92a3,3,0,0,1,2.58,4.47Z"/><path class="cls-1" d="M1006.05,283.27l-65.75-38a6.69,6.69,0,0,0-9.15,2.46l-38,65.74a6.71,6.71,0,0,0,2.45,9.16l65.75,38a6.7,6.7,0,0,0,9.15-2.46l38-65.75A6.7,6.7,0,0,0,1006.05,283.27Zm-69.8-20.53a42.81,42.81,0,0,1,29.19,0,5.05,5.05,0,0,1,.71.33,4.47,4.47,0,0,1,1.63,6.1l-6.19,10.73a4.48,4.48,0,0,1-3.87,2.23H944a4.47,4.47,0,0,1-3.87-2.23l-6.19-10.73a4.19,4.19,0,0,1-.34-.71A4.47,4.47,0,0,1,936.25,262.74Zm5.65,47.06-4.34-2.51,22.32-11.22,4.34,2.51Zm19.17-1-11.17,5.61-4.34-2.51,11.16-5.61Zm-20.36-11.75,11.16-5.61,4.35,2.51-11.16,5.61ZM915.1,279.42l-2.52,4.37A46.24,46.24,0,0,1,915.1,279.42Zm-6.4,16.07a43.17,43.17,0,0,1,2.2-7.89c.15-.4.31-.79.47-1.18l5.41-9.36c.25-.33.51-.67.78-1a42.32,42.32,0,0,1,5.74-5.85,4.46,4.46,0,0,1,6.29.54,4.09,4.09,0,0,1,.45.64l6.19,10.73a4.46,4.46,0,0,1,0,4.47l-6.87,11.9a4.47,4.47,0,0,1-3.87,2.24H913.1a4.47,4.47,0,0,1-4.47-4.47A5.14,5.14,0,0,1,908.7,295.49Zm20.89,39.69a4.46,4.46,0,0,1-6.29.54,42.81,42.81,0,0,1-14.6-25.27,5.14,5.14,0,0,1-.07-.78,4.47,4.47,0,0,1,4.47-4.47h12.39a4.47,4.47,0,0,1,3.87,2.24l6.87,11.9a4.46,4.46,0,0,1,0,4.47L930,334.54A4.09,4.09,0,0,1,929.59,335.18Zm35.85,8a42.81,42.81,0,0,1-29.19,0,4.58,4.58,0,0,1-.71-.33,4.45,4.45,0,0,1-1.63-6.1L940.1,326a4.47,4.47,0,0,1,3.87-2.23h13.75a4.48,4.48,0,0,1,3.87,2.23l6.19,10.73a5.05,5.05,0,0,1,.33.71A4.47,4.47,0,0,1,965.44,343.2Zm21.14-16.68,2.52-4.37A42.26,42.26,0,0,1,986.58,326.52Zm6.4-16.07a42.39,42.39,0,0,1-2.2,7.89c-.15.4-.31.79-.47,1.18l-5.4,9.35-.78,1a42.89,42.89,0,0,1-5.74,5.85,4.46,4.46,0,0,1-6.29-.54,4.09,4.09,0,0,1-.45-.64l-6.2-10.73a4.51,4.51,0,0,1,0-4.47l6.88-11.9a4.46,4.46,0,0,1,3.87-2.24h12.38a4.47,4.47,0,0,1,4.47,4.47A4.11,4.11,0,0,1,993,310.45Zm-4.4-9.71H976.2a4.46,4.46,0,0,1-3.87-2.24l-6.88-11.9a4.51,4.51,0,0,1,0-4.47l6.2-10.73a4.09,4.09,0,0,1,.45-.64,4.46,4.46,0,0,1,6.29-.54A42.79,42.79,0,0,1,993,295.49a4.11,4.11,0,0,1,.07.78A4.47,4.47,0,0,1,988.58,300.74Z"/><path class="cls-2" d="M847.08,329.73a5.77,5.77,0,0,0-2.69-3.53l-15.28-8.82c0-.07,0-.14,0-.21L844.48,326l-37-21.36a25.45,25.45,0,0,1-9.76-10.11,7.57,7.57,0,0,1-.64-1.68,5.85,5.85,0,0,0-2.76-3.65,7.94,7.94,0,0,1-1-.72c-1.34-1.12-2.72-2.18-4.14-3.21l-.09.16q-2.8-2.06-5.79-3.85a1.3,1.3,0,0,0-1.78.44l0,0-1.6,2.79-.13-.16-12.22,21.16-1.28,2.23-.18.34-.16.37-.27.76-.23.78-.2.74,0,.29.07.29.13.26.09.11.12.09,4.19,2.42-5.52,9.56-4.19-2.42-.14-.06-.14,0-.29,0-.29.08-.26.13-.54.54-.56.59-.52.62-.24.31-.21.33-1.28,2.23-.93,1.61.11-.17.14-.16.14-.14.17-.12-3.38,5.85-.24,0,1.75-3-8.83,15.29h.22L742,350.44a1.3,1.3,0,0,0,.48,1.77h0a81.05,81.05,0,0,0,11.05,5.06,7.71,7.71,0,0,1,1.17.54,5.66,5.66,0,0,0,4.39.54,7.57,7.57,0,0,1,1.82-.28,25.57,25.57,0,0,1,13.73,3.41l37,21.36a5.76,5.76,0,0,0,4.41.57,25.11,25.11,0,0,0,15.11-11.67l13.34-23.09A25.1,25.1,0,0,0,847.08,329.73Zm-85.82,23.16a3.69,3.69,0,1,1-7.37,0h0a3.69,3.69,0,0,1,7.37,0Zm7-47.85,0-.2,0-.2.07-.2.09-.18,4.12-7.13.11.19Zm9,6.77a4.47,4.47,0,1,1,4.46,4.46A4.47,4.47,0,0,1,777.26,311.81Zm9,32.56a6.52,6.52,0,1,1,6.52-6.51A6.51,6.51,0,0,1,786.21,344.37Zm5.18-46.55a3.5,3.5,0,1,1,3.49-3.49A3.49,3.49,0,0,1,791.39,297.82Zm15.8,50L805,343.43l1-1.73,2.23,4.44Zm-.39-7.61,1-1.73,4.45,8.87-1,1.73Zm5.06-.47,2.23,4.43-1,1.73-2.23-4.44Zm11.42,38.64a4.48,4.48,0,0,1-6.11,1.64l-.9-.52a4.47,4.47,0,0,1,4.47-7.74l.9.52A4.47,4.47,0,0,1,823.28,378.42Zm1.64-7.32a4.47,4.47,0,1,1,4.47-4.47A4.47,4.47,0,0,1,824.92,371.1Zm21.42-32.64a4.46,4.46,0,0,1-6.09,1.63l-.9-.52a4.46,4.46,0,0,1,4.46-7.73l.9.52A4.46,4.46,0,0,1,846.34,338.46Z"/><path class="cls-2" d="M909.79,346.5l-.58-.58H861.54l-.58.58v36l.28.3.3.31h47.67l.3-.31.28-.3Zm-35.43,27.87a4.47,4.47,0,0,1-8.93,0v0a4.47,4.47,0,0,1,8.93,0Zm31,0a4.47,4.47,0,0,1-8.93,0v0a4.47,4.47,0,1,1,8.93,0Z"/><path class="cls-2" d="M1009.82,381.14H993.45a14.19,14.19,0,0,1-6.57-1.62,11.93,11.93,0,0,0-5.53-1.36H965a11.86,11.86,0,0,1-4.37-.83,20.1,20.1,0,0,0-14.75,37.39l.91.33a61.9,61.9,0,0,0,20,3.3h43.06a4.47,4.47,0,0,0,4.47-4.46V385.6A4.47,4.47,0,0,0,1009.82,381.14Zm-47.07,14.91a9.5,9.5,0,0,1-19,0v0a9.5,9.5,0,1,1,19,0Zm17.3,4a4,4,0,1,1,4-4A4,4,0,0,1,980.05,400Zm23.82,0a4,4,0,1,1,4-4A4,4,0,0,1,1003.87,400Z"/><path class="cls-2" d="M780.2,409.29l-20.63-11.91a3,3,0,0,1-1.09-4.07l3-5.24.31-.57.28-.59.25-.6.22-.61.19-.62.16-.63.12-.64.09-.64.06-.65,0-.65v-.65l-.05-.64-.08-.64-.13-.64-.17-.62-.2-.62-.21-.48-.27-.46-.3-.43-.35-.4-.55-.55-.56-.52-.58-.51-.61-.48-.62-.46-.63-.43-.65-.41-.67-.39-4.83-2.69-2.42-1.34-2.38-1.33L737.59,362l-.23-.11-.25-.06h-.25l-.25.05-.24.09-.21.15-.18.18-.14.2-3.6,6.23-.12.29,0,.3,0,.32.08.3.14.29.19.25.23.22.26.18,5.64,3.25.54,2-19.35,33.51a1.48,1.48,0,0,1-2,.55l-7.74-4.47a1.49,1.49,0,0,0-2,.55l-3.18,5.51a5.94,5.94,0,0,0,2.18,8.13l3.15,1.82a6,6,0,0,1,2.42,2.64l1.85,4a15,15,0,0,0,6,6.6l33.66,19.43a4.47,4.47,0,0,0,6.1-1.64l21.58-37.38A4.45,4.45,0,0,0,780.2,409.29Zm-43.27-2.47a3.87,3.87,0,0,1-1.42-5.28l7.45-12.9a3.87,3.87,0,0,1,6.7,3.87l-7.44,12.9A3.87,3.87,0,0,1,736.93,406.82ZM752.19,441a4,4,0,1,1,4-4A4,4,0,0,1,752.19,441Zm11.91-20.63a4,4,0,1,1,4-4A4,4,0,0,1,764.1,420.34Z"/><path class="cls-2" d="M774.15,482l-.51-3.34a4.61,4.61,0,0,0-2.25-3.29l-77.46-44.72-.52-.26-.56-.17-.59-.1h-.59l-.61.07-.59.16-.58.23-.55.31-.52.37-.47.45-.42.49-.36.55-32.78,56.77a1.49,1.49,0,0,0,.55,2L678.67,505a1.49,1.49,0,0,1,.55,2L665.75,530.4a1.5,1.5,0,0,0,.54,2l55.61,32.1.58.29.62.23.63.14.63.07H725l.61-.09.6-.16.55-.24.51-.31.46-.37.4-.44.33-.48L773.58,485A4.65,4.65,0,0,0,774.15,482Zm-58.1-24.16a4.47,4.47,0,1,1-4.47,4.47A4.47,4.47,0,0,1,716.05,457.86Zm-19.11-19a7.45,7.45,0,1,1-7.45,7.45A7.45,7.45,0,0,1,696.94,438.86Zm8.87,87,3.89,2.25-10,5-3.89-2.25Zm-28.45-38.25a7.45,7.45,0,1,1,7.45-7.45A7.45,7.45,0,0,1,677.36,487.66Zm8,46a7.45,7.45,0,1,1,7.44-7.45A7.46,7.46,0,0,1,685.34,533.69Zm3.17-31.4a4.47,4.47,0,1,1,4.47,4.47A4.47,4.47,0,0,1,688.51,502.29Zm4.48,37.8,20-10,3.89,2.24-20,10.05Zm11.06,6.38-3.89-2.24,10-5,3.89,2.24Zm19.19,9.1a7.45,7.45,0,1,1,7.44-7.44A7.44,7.44,0,0,1,723.24,555.57Zm9.7-25.74a4.47,4.47,0,1,1,4.47-4.46A4.46,4.46,0,0,1,732.94,529.83ZM724.5,513.2a19.36,19.36,0,0,1-19.36-19.35v0A19.36,19.36,0,1,1,724.5,513.2ZM756,489.87a4.47,4.47,0,1,1,4.46-4.47A4.47,4.47,0,0,1,756,489.87Z"/><path class="cls-2" d="M693.65,565.44l-47-27.17a3,3,0,0,0-4.07,1.09L630.62,560a3,3,0,0,0,1.09,4.07l1.85,1.06a11.89,11.89,0,0,1,5.55,7.24l.33,1.23a44.55,44.55,0,0,1,.24,22.18,20.1,20.1,0,1,0,39.61,4.11,11.88,11.88,0,0,1,1.58-6.35l13.87-24A3,3,0,0,0,693.65,565.44Zm-48.52-8.51h0a4,4,0,0,1,8,0h0a4,4,0,0,1-8,0Zm23.33,43.63a9.26,9.26,0,1,1-18.52,0h0a9.26,9.26,0,0,1,18.52,0Zm7.12-24.35a4,4,0,1,1,4-4A4,4,0,0,1,675.58,576.21Z"/><path class="cls-2" d="M663.53,644.48l-22.3-12.88a11.83,11.83,0,0,1-4.14-4l-.48-.73-.47-.69-.46-.65-.46-.61a33.17,33.17,0,0,0-9.34-8.24,6.53,6.53,0,0,1-2.18-2.1.61.61,0,0,0-.82-.18.59.59,0,0,0-.18.82,7.79,7.79,0,0,0,2.64,2.53,1.18,1.18,0,0,1,0,2.06l-2,1.14-1.27.73a1.5,1.5,0,0,1-1.48,0l-2.68-1.55a1.49,1.49,0,0,1-.54-2l3.74-6.48.11-.23.07-.24,0-.25,0-.25-.05-.25-.1-.23L621,610l-.17-.19a6.45,6.45,0,0,0-1-.76l-11.9-6.87-.18-.1-.84-.49-.5-.23-.53-.15-.54-.06-.54,0-.52.12-.49.21-.44.29-.37.36-.3.43-19.82,34.33-.62,1.12-.58,1.16-.54,1.19-.5,1.23-.47,1.25-.41,1.27-.38,1.3-.33,1.31-.74,3.22-.17.72-1.35,5.82a12.6,12.6,0,0,0-.2,4.58,4.51,4.51,0,0,0,2.19,3.24l55,31.76a6,6,0,0,0,8.14-2.18l23.81-41.26A5.94,5.94,0,0,0,663.53,644.48Zm-29.25,5.19a2.53,2.53,0,1,1,5.06,0h0a2.53,2.53,0,0,1-5.06,0Zm-14.6-23.38h7.21l3.61,6.25-3.61,6.26h-7.21l-3.61-6.26ZM597.55,644h-7.22l-3.61-6.25,3.61-6.25h7.22l3.61,6.25Zm7.86-22.1a4,4,0,0,1-4-4h0a4,4,0,0,1,8,0h0A4,4,0,0,1,605.41,621.9Zm6.83,36.62-3.61-6.25,3.61-6.25h7.22l3.61,6.25-3.61,6.25Zm10.13,11.78h0a2.53,2.53,0,1,1,5.06,0h0a2.53,2.53,0,1,1-5.06,0Zm13.74,13.35a3,3,0,0,1-4.07,1.09l-3.87-2.23a3,3,0,0,1-1.09-4.07L645,647.5a3,3,0,0,1,4.06-1.09l3.87,2.23a3,3,0,0,1,1.09,4.07Zm10.66-2.18a2.53,2.53,0,0,1-5.06,0h0a2.53,2.53,0,0,1,5.06,0Zm11.91-20.62a2.53,2.53,0,1,1-5.06,0h0a2.53,2.53,0,1,1,5.06,0Z"/><path class="cls-1" d="M616.51,702.38l-42-24.27a8.94,8.94,0,0,0-12.2,3.27l-.24.43-2.34,4.05-67,116.1-2.34,4-.25.42a8.93,8.93,0,0,0,3.27,12.2l42,24.27a8.93,8.93,0,0,0,12.2-3.27l.34-.58,2.15-3.74L617.29,718.9l2.15-3.74.34-.58A8.93,8.93,0,0,0,616.51,702.38ZM515.8,828.32l-2.51-5,1.13-1.94,2.51,5Zm4.58,1.41-5-10,1.12-2,5,10Zm2.07-3.58-2.51-5,1.12-1.95,2.51,5Zm70.41-70.9-17,29.52-8.93,15.47-17,29.52a1.49,1.49,0,0,1-2,.55l-49.76-28.73a1.49,1.49,0,0,1-.55-2l43-74.51a1.5,1.5,0,0,1,2-.55l.32.19,41.25,23.82,8.19,4.72A1.5,1.5,0,0,1,592.86,755.25Zm11-29.22a3.72,3.72,0,0,1-5.08,1.37h0l-6.32-3.65-2.39-1.38a3,3,0,0,0-4.06,1.09l-2.24,3.87a1.49,1.49,0,0,1-2,.54L561.14,716a1.49,1.49,0,0,1-.54-2l11.16-19.34a1.5,1.5,0,0,1,2-.54L594.42,706a1.48,1.48,0,0,1,.55,2l-2.23,3.87a3,3,0,0,0,1.09,4.06l2.38,1.38,6.32,3.65A3.72,3.72,0,0,1,603.89,726Z"/><path class="cls-2" d="M474,981.59a15.08,15.08,0,0,0,14.68-15.45,1.34,1.34,0,0,1,0-.2l-1.14-29.73a21.84,21.84,0,0,0-22.66-21c-.36,0-.72,0-1.07.07l-18.05,1.58a14.7,14.7,0,0,0-10,5.19L421.09,939.5a1.3,1.3,0,0,0,.16,1.83l10.41,8.73-19.9,23.72,10.86,9.11Zm5.31-10.29-7,2.55-5.7-4.78,1.29-7.33,7-2.54,5.7,4.78Zm.57-18.3a2.35,2.35,0,1,1-2.35,2.35A2.35,2.35,0,0,1,479.83,953ZM454.1,927.35a3,3,0,0,1,4.19-.37l2.44,2a.73.73,0,0,0,.82.09,9.74,9.74,0,0,1,1.46-.6l-.17-.14a9.09,9.09,0,0,1,4.08-.36l-.15.17a8.91,8.91,0,0,1,1.55.34.74.74,0,0,0,.79-.23l2-2.43a3,3,0,0,1,4.57,3.83l-2,2.43a.75.75,0,0,0-.1.82,8.84,8.84,0,0,1,.61,1.46l.14-.17a9.11,9.11,0,0,1,.36,4.08l-.18-.15a8.06,8.06,0,0,1-.33,1.55.76.76,0,0,0,.23.8l2.43,2a3,3,0,1,1-3.83,4.56l-2.43-2a.73.73,0,0,0-.82-.09,9.74,9.74,0,0,1-1.46.6l.17.14a9.11,9.11,0,0,1-4.08.36l.14-.17a9,9,0,0,1-1.54-.34.76.76,0,0,0-.8.23l-2,2.43a3,3,0,1,1-4.56-3.83l2-2.43a.74.74,0,0,0,.09-.82,9.74,9.74,0,0,1-.6-1.46l-.14.17a9.11,9.11,0,0,1-.36-4.08l.17.15a8.91,8.91,0,0,1,.34-1.55.76.76,0,0,0-.23-.8l-2.43-2A3,3,0,0,1,454.1,927.35ZM443,925.84a2.35,2.35,0,1,1-2.35,2.34A2.35,2.35,0,0,1,443,925.84Zm-16.2,42.69a2.35,2.35,0,1,1-2.35,2.35A2.35,2.35,0,0,1,426.82,968.53Z"/><path class="cls-2" d="M536.31,874.17l-3.54-2a1.65,1.65,0,0,1-.71-2,35.45,35.45,0,0,1,5.6-9.7,3,3,0,0,0,.63-2.14,5.61,5.61,0,0,0-2.76-4.16l-3.11-1.79-1-.59-.31-.14-.42-.1h-.41l-.39.08-.33.15-.13.08a15.41,15.41,0,0,1-23.8-13.74v-.15l0-.36-.13-.38-.21-.35-.3-.31-.28-.2-1-.58-24.22-14a6,6,0,0,0-4.55-.59,25.35,25.35,0,0,0-15.24,11.76L446.35,856a25.31,25.31,0,0,0-2.56,19.07,5.92,5.92,0,0,0,2.78,3.64l56.07,32.37a5.59,5.59,0,0,0,5,.31,2.93,2.93,0,0,0,1.53-1.62,35.28,35.28,0,0,1,5.61-9.69,1.63,1.63,0,0,1,2.09-.39l3.53,2h0l.53.31a1.49,1.49,0,0,0,2-.55l2-3.48,10.42-18,2-3.48a1.48,1.48,0,0,0-.55-2l-.52-.3Zm-84.58-3.79a2.61,2.61,0,0,1-3.56,1l-.9-.52a2.6,2.6,0,0,1,2.6-4.51l.91.52A2.61,2.61,0,0,1,451.73,870.38Zm17.66-43.09a2.6,2.6,0,0,1,3.56-1l.9.52a2.61,2.61,0,0,1-2.61,4.52l-.9-.52A2.61,2.61,0,0,1,469.39,827.29Zm-6.84,10.86a3.58,3.58,0,0,1,7.15,0h0a3.58,3.58,0,0,1-7.15,0Zm29.14,55.3a2.61,2.61,0,0,1-3.56.95l-.9-.52a2.61,2.61,0,0,1,2.61-4.51l.9.52A2.61,2.61,0,0,1,491.69,893.45ZM495.56,869a16.83,16.83,0,0,1-23,6.18l-.9-.52a16.82,16.82,0,0,1,16.82-29.14l.9.52A16.82,16.82,0,0,1,495.56,869Zm3.18-2.1a6.11,6.11,0,1,1,6.1,6.1A6.1,6.1,0,0,1,498.74,866.92Zm6.61,39.19a3.57,3.57,0,1,1,3.57-3.57A3.57,3.57,0,0,1,505.35,906.11Zm4-10.32a2.82,2.82,0,1,1,2.81-2.82A2.82,2.82,0,0,1,509.33,895.79Zm20.14-32.41a2.61,2.61,0,1,1,2.6-2.61A2.61,2.61,0,0,1,529.47,863.38Z"/><path class="cls-2" d="M542,1025.08l-55-31.76a4.46,4.46,0,0,0-3.9-.28,12.68,12.68,0,0,0-3.87,2.46l-4.36,4.08-.54.51-2.42,2.25-1,.94-.94,1-.89,1-.85,1-.81,1-.77,1.07-.71,1.08-.66,1.1L445.5,1044.9l-.22.47-.12.51,0,.52.06.53.16.51.24.48.33.44.39.39.45.31.84.48.19.11,11.89,6.87a6,6,0,0,0,3.13.79c.86,0,1.72-.08,2.57-.18a6.57,6.57,0,0,1,4,.8,33,33,0,0,0,15.06,4.25,12,12,0,0,1,5.53,1.58l22.31,12.88a5.94,5.94,0,0,0,8.13-2.18l23.82-41.25A6,6,0,0,0,542,1025.08Zm-29.26,5.2a2.54,2.54,0,1,1,5.07,0h0a2.54,2.54,0,0,1-5.07,0Zm-48.59,9.33a4,4,0,1,1-8,0h0a4,4,0,0,1,8,0ZM468,1026l-3.61-6.26,3.61-6.25h7.22l3.61,6.25-3.61,6.26Zm17.38,28h-7.22l-3.61-6.25,3.61-6.26h7.22l3.61,6.26Zm6.15-16.31-3.61-6.25,3.61-6.25h7.22l3.61,6.25-3.61,6.25Zm9.32,13.2h0a2.53,2.53,0,1,1,5.06,0h0a2.53,2.53,0,0,1-5.06,0Zm13.73,13.35a3,3,0,0,1-4.07,1.09l-3.86-2.24a3,3,0,0,1-1.09-4.06l17.86-30.94a3,3,0,0,1,4.07-1.09l3.86,2.23a3,3,0,0,1,1.09,4.07Zm10.66-2.18a2.53,2.53,0,0,1-5.06,0h0a2.53,2.53,0,0,1,5.06,0Zm11.91-20.63a2.53,2.53,0,0,1-5.06,0h0a2.53,2.53,0,0,1,5.06,0Z"/><path class="cls-1" d="M533.64,926.26l-5.83-2.13a7,7,0,0,0-9,4.19,6.91,6.91,0,0,0-.42,2.39v1.13a4.92,4.92,0,0,1-1.31,3.34,6,6,0,0,0-1.59,4.05v5.71l.67.67h1.14a2.23,2.23,0,0,1,1.14,4.32,2.2,2.2,0,0,1-1.14,0h-1.14l-.67.67v9.24a4.76,4.76,0,0,0,2.06,3.92L522.2,967a7.46,7.46,0,0,1,3.22,6.13V991.2a1.49,1.49,0,0,0,1.49,1.49h0a60.93,60.93,0,0,0,7.26-.61v-65Zm-8.22,6.83a2.39,2.39,0,0,1-2.39-2.38h0a2.39,2.39,0,1,1,2.39,2.38Z"/><path class="cls-2" d="M608.37,943.23H578.6l-.51,0-.51-.07-.5-.1-.51-.15-.47-.11-1.36-.23-.14-.39-.21-.37-.25-.32-.31-.3-.51-.49-.49-.53-.24-.31-.23-.37-.21-.43-.18-.48-.15-.52-.1-.55-.07-.58,0-.58v-4.82l0-.58.07-.58.1-.55.15-.52.18-.48.21-.43.23-.37.24-.31.49-.53.51-.49.31-.3.25-.32.21-.37.14-.38,1.36-.23.47-.12.22-.07.47-.11.55-.08.63-.05.7,0H581l2.17,0h23.67a3,3,0,0,0,3-3V909a3,3,0,0,0-3-3H560.59a4.42,4.42,0,0,0-2.46.75l-5.82,3.88a4.45,4.45,0,0,0-2,3.7v50.29a4.45,4.45,0,0,0,2,3.7l5.82,3.88a4.49,4.49,0,0,0,2.46.74h46.29a3,3,0,0,0,3-3V944.71A1.48,1.48,0,0,0,608.37,943.23Zm-16-27.92a2.61,2.61,0,0,1,5.21,0h0a2.61,2.61,0,0,1-5.21,0Zm5,49.51a2.61,2.61,0,0,1-5.21,0h0a2.61,2.61,0,0,1,5.21,0Z"/><path class="cls-2" d="M681,906.66H630.38a4.46,4.46,0,0,0-4.46,4.46v32.75a3,3,0,0,0,3,3h26.69a7.44,7.44,0,0,0,5.27-2.18l23.3-23.31a4.43,4.43,0,0,0,1.31-3.15v-7.09A4.46,4.46,0,0,0,681,906.66Zm-10.35,21.89-8.06,8.06a1.49,1.49,0,0,1-2.54-1.05V927.5a1.49,1.49,0,0,1,1.49-1.49h8.06a1.48,1.48,0,0,1,1,2.54Z"/><path class="cls-2" d="M651.45,1027.42l-36.1-20.84a4.47,4.47,0,0,0-6.1,1.63L597,1029.45a1.49,1.49,0,0,1-2,.55l-15.47-8.94a7.45,7.45,0,0,0-10.17,2.73l-63.79,110.48a7.45,7.45,0,0,0,2.73,10.17l18,10.42a4.47,4.47,0,0,0,6.1-1.64l7-12.18a7.44,7.44,0,0,1,4.52-3.47l35.8-9.59a14.86,14.86,0,0,0,9-6.94l19.62-34a29.8,29.8,0,0,1,14-12.44,5.38,5.38,0,0,0,2.49-2.2,34.23,34.23,0,0,1,12-12.05,4.38,4.38,0,0,0,1.59-1.61l14.57-25.24A4.45,4.45,0,0,0,651.45,1027.42ZM528.56,1137.08a4,4,0,1,1-4-4,4,4,0,0,1,4,4Zm7.89-16.61a4,4,0,1,1,4-4A4,4,0,0,1,536.45,1120.47Zm35.89-86.56a4,4,0,0,1,8,0h0a4,4,0,0,1-8,0Zm-6.91,16.35a2.61,2.61,0,1,1-2.61,2.6A2.6,2.6,0,0,1,565.43,1050.26Zm-16.58,35.39a4,4,0,1,1,4-4A4,4,0,0,1,548.85,1085.65Zm33.47,32.86a2.61,2.61,0,1,1,2.6-2.61A2.61,2.61,0,0,1,582.32,1118.51Zm7.64-28.28a17.12,17.12,0,0,1-33.06-3.63,3,3,0,0,1,.2-1.53,8.91,8.91,0,0,0,.55-5,3,3,0,0,1,.13-1.54,17.12,17.12,0,0,1,32.18,11.7Zm18-14.29a2.61,2.61,0,0,1-5.21,0h0a2.61,2.61,0,1,1,5.21,0Zm11.67-52a4,4,0,0,1-8,0h0a4,4,0,1,1,8,0Zm20.63,11.91a4,4,0,0,1-8,0h0a4,4,0,1,1,8,0Z"/><path class="cls-2" d="M707.12,1027.6l-2.9-5a1.48,1.48,0,0,0-2-.5l-.37.21-.24.09h-.25l-.12,0-.11-.06-.09-.08-.08-.09,1-.56.46-.27a1.48,1.48,0,0,0,.55-2l-17.57-30.43a1.49,1.49,0,0,0-2-.54l-.46.26-1,.57h0l0-.11,0-.12v-.13l0-.12.12-.21.2-.16.37-.22a1.49,1.49,0,0,0,.57-2l-2.9-5a3,3,0,0,0-4-1l-21.31,12.3a7.47,7.47,0,0,0-3.47,4.52l-1.67,6.25a7.4,7.4,0,0,0,.74,5.65l17.76,30.75a7.41,7.41,0,0,0,4.52,3.47l6.24,1.67a7.39,7.39,0,0,0,5.65-.74L706,1031.6A3,3,0,0,0,707.12,1027.6Zm-9.34-3.24,0,.12-.13.21-.19.16-8,4.61a3,3,0,0,1-4.06-1.09l-7.09-12.29a5.49,5.49,0,0,1-2.5-4.31l-7.09-12.28a3,3,0,0,1,1.09-4.07l8-4.6.23-.09h.25l.12,0,.12,0,.09.08.08.1h0l-1,.6-7,4.07a3,3,0,0,0-1.33,3.55l7.21,12.48.34-.2a4.44,4.44,0,1,1,2.23,3.87l-.34.19,7.2,12.48a3,3,0,0,0,3.74.63l7-4.06,1-.61,0,.11,0,.12Z"/><path class="cls-1" d="M743.57,875.1a19.35,19.35,0,1,1,19.36,19.37,19.35,19.35,0,0,1-19.36-19.37v0Zm23.29-6.52L773,880.75l2.63-4.55L769.49,864Zm-11.45-3.53,12.39,24.66,2.63-4.55L758,860.49Zm.94,21.12,2.63-4.55-6.11-12.17L750.24,874Z"/><path class="cls-2" d="M857.82,940.29l-.06-.24-.11-.23-2.6-4.69-2.59-4.67-1.33-2.38-1.34-2.41-2.69-4.84-.39-.66-.41-.65-.43-.64-.46-.62-.48-.6-.51-.59-.52-.56-.55-.55-.4-.34-.43-.31-.46-.26-.48-.21-.59-.2-.59-.16-.61-.13-.62-.09-.63,0-.64,0h-.65l-.65.06-.65.08-.66.12-.64.16-.64.19-.63.22-.62.26-.6.29-.59.31-5.24,3a3,3,0,0,1-4.07-1.09L810.35,897.2a4.47,4.47,0,0,0-6.1-1.63l-37.38,21.58a4.48,4.48,0,0,0-1.64,6.11l19.43,33.65a14.92,14.92,0,0,0,6.6,6.05l4,1.86a5.89,5.89,0,0,1,2.64,2.42l1.82,3.15a6,6,0,0,0,8.13,2.18l5.51-3.18a1.5,1.5,0,0,0,.55-2l-4.47-7.73a1.49,1.49,0,0,1,.55-2l33.52-19.35,2,.55,3.25,5.63.18.26.22.24.25.18.29.14.3.09.32,0,.3-.06.29-.12,6.23-3.59.21-.15.18-.18.14-.21.09-.23.05-.25Zm-75.13-11.06a4,4,0,1,1,4-4A4,4,0,0,1,782.69,929.23Zm20.63-11.91a4,4,0,1,1,4-4A4,4,0,0,1,803.32,917.32ZM831,934.45l-12.9,7.44a3.87,3.87,0,0,1-3.87-6.7l12.9-7.45a3.87,3.87,0,0,1,3.87,6.71Z"/><path class="cls-2" d="M928.18,918.65l-6.34-11-11.31-19.59a6,6,0,0,0-8.14-2.18L874,902.27a6,6,0,0,0-2.18,8.14L883.16,930l6.34,11a5.95,5.95,0,0,0,8.13,2.18L926,926.78a5.8,5.8,0,0,0,1.62-1.38A6,6,0,0,0,928.18,918.65Zm-19.5,3.17a4.47,4.47,0,1,1-8.93,0h0a4.47,4.47,0,1,1,8.93,0Z"/><path class="cls-1" d="M1006.29,865.51a1.62,1.62,0,0,1-.1-.18l-14.74-25.85a22,22,0,0,0-30.06-8.22c-.31.18-.62.36-.92.56l-15.28,9.73a14.91,14.91,0,0,0-6.54,9.34l-4.92,22.22,0,.3,0,.33.1.31.17.29a1.44,1.44,0,0,0,.86.54l13.08,2.9-6.59,29.71-.11.52,14.09,3.13,45-24.9A15.25,15.25,0,0,0,1006.29,865.51Zm-12.95-8a2.61,2.61,0,1,1-2.61,2.6A2.59,2.59,0,0,1,993.34,857.49Zm-45.2-1.9a2.61,2.61,0,1,1,2.61-2.6A2.59,2.59,0,0,1,948.14,855.59Zm5.34,45.35a2.61,2.61,0,1,1,2.61-2.6A2.59,2.59,0,0,1,953.48,900.94Zm18.83-33a17.57,17.57,0,1,1,17.56-17.56A17.57,17.57,0,0,1,972.31,868Zm22.8,11.82-7.05-1.56-2.17-6.89,4.87-5.32,7,1.56,2.17,6.89Z"/><path class="cls-2" d="M827.12,794.62h0l-28.36-16.37a1.49,1.49,0,0,0-2,.54l-30.57,53-1.39,2.4-1.91,3.31a1.48,1.48,0,0,0,.55,2l28.36,16.38a1.49,1.49,0,0,0,2-.55l1.91-3.31,1.39-2.4,30.57-52.94A1.5,1.5,0,0,0,827.12,794.62Zm-18.75,23.55L798,836.09a4.46,4.46,0,0,1-6.1,1.64L779,830.28a4.45,4.45,0,0,1-1.63-6.1l10.34-17.92a4.47,4.47,0,0,1,6.1-1.63l12.89,7.44A4.47,4.47,0,0,1,808.37,818.17Zm2.34-25.34a2.53,2.53,0,1,1,2.53-2.53A2.53,2.53,0,0,1,810.71,792.83Z"/><path class="cls-2" d="M859.49,734.23,857.82,728a7.51,7.51,0,0,0-3.47-4.52L833,711.16a3,3,0,0,0-4,1l-2.89,5a1.47,1.47,0,0,0,.57,2l.37.22.19.16.13.21,0,.12V720l0,.12,0,.11-1-.57-.46-.27a1.49,1.49,0,0,0-2,.55l-17.57,30.42a1.5,1.5,0,0,0,.55,2l.46.26,1,.57h0l-.08.1-.1.07-.11.06-.12,0h-.25l-.23-.09-.37-.21a1.49,1.49,0,0,0-2,.5l-2.89,5a3,3,0,0,0,1.13,4L824.58,775a7.41,7.41,0,0,0,5.64.75l6.25-1.68a7.47,7.47,0,0,0,4.52-3.47l17.76-30.75A7.48,7.48,0,0,0,859.49,734.23Zm-19-3.61-7.09,12.28a5.54,5.54,0,0,1-2.49,4.32l-7.09,12.28a3,3,0,0,1-4.07,1.09l-8-4.61-.2-.16-.12-.21,0-.12v-.13l0-.12,0-.11h0l1,.6,7,4.07a3,3,0,0,0,3.74-.64l7.2-12.47-.34-.2a4.48,4.48,0,1,1,2.23-3.87l.35.2,7.2-12.47a3,3,0,0,0-1.32-3.56l-7-4.06-1-.6.07-.1.1-.07.11-.06.12,0h.25l.24.09,8,4.6A3,3,0,0,1,840.54,730.62Z"/><path class="cls-2" d="M895.93,759.58l-2.29-8.51a6.53,6.53,0,0,0-3-4l-9-5.22a5.36,5.36,0,0,0-7.32,2l-20.1,34.81a5.36,5.36,0,0,0,2,7.32l9,5.22a6.54,6.54,0,0,0,5,.65l8.51-2.28a6.57,6.57,0,0,0,4-3l12.67-22A6.54,6.54,0,0,0,895.93,759.58ZM881,768.4a4.47,4.47,0,0,1-8.94,0v0a4.47,4.47,0,0,1,8.94,0Z"/><path class="cls-2" d="M935.19,789.26h-1.66l0-.12,0-.12.07-.1.09-.09.21-.12.25,0h.43a1.48,1.48,0,0,0,1.48-1.44v-5.79a3,3,0,0,0-3-2.9H908.54a7.47,7.47,0,0,0-5.26,2.18l-4.57,4.58a7.4,7.4,0,0,0-2.18,5.26v35.51a7.44,7.44,0,0,0,2.18,5.27l4.57,4.57a7.47,7.47,0,0,0,5.26,2.18h24.61a3,3,0,0,0,3-2.9v-5.79a1.47,1.47,0,0,0-1.48-1.43h-.43l-.25-.05-.21-.12-.09-.09-.07-.1,0-.12,0-.11h1.66a1.49,1.49,0,0,0,1.49-1.49V790.75A1.49,1.49,0,0,0,935.19,789.26Zm-5.42,38.22,0,.12-.07.1-.09.09-.21.12-.25.05H919.9a3,3,0,0,1-3-3V810.8a5.53,5.53,0,0,1,0-5V791.63a3,3,0,0,1,3-3h9.21l.25,0,.21.12.09.09.07.1,0,.12,0,.12h-9.33a3,3,0,0,0-2.93,2.42v14.4h.4a4.46,4.46,0,1,1,1.63,6.1,4.4,4.4,0,0,1-1.63-1.63h-.4V825a3,3,0,0,0,2.93,2.42h9.33Z"/><path class="cls-2" d="M897.28,680.43l-10.4-38.82a5.36,5.36,0,0,0-6.57-3.79l-10.08,2.7a6.57,6.57,0,0,0-4,3.05l-20.19,35a6.54,6.54,0,0,0-.66,5l2.7,10.08a5.36,5.36,0,0,0,6.57,3.79L893.49,687A5.36,5.36,0,0,0,897.28,680.43Zm-34.66,1.26a4.47,4.47,0,0,1-8.93,0v0a4.47,4.47,0,0,1,8.93,0Zm16.85-29.17a4.47,4.47,0,0,1-8.94,0v0a4.47,4.47,0,1,1,8.94,0Z"/><path class="cls-1" d="M1009.91,774.6h-6.4v24.11a1.49,1.49,0,0,1-1.49,1.49H959.74a1.49,1.49,0,0,1-1.48-1.49V774.6h-6.41a4.46,4.46,0,0,0-4.46,4.46v23.82a8.93,8.93,0,0,0,8.93,8.93h49.12a8.93,8.93,0,0,0,8.94-8.93V779.06A4.46,4.46,0,0,0,1009.91,774.6Zm-29,33.86a2.61,2.61,0,1,1,2.61-2.6A2.6,2.6,0,0,1,980.88,808.46Z"/><path class="cls-1" d="M997.58,567.84H921.4a4.47,4.47,0,0,0-4.47,4.46V740.22a4.47,4.47,0,0,0,4.47,4.47h76.18a4.47,4.47,0,0,0,4.47-4.47h0V572.3A4.47,4.47,0,0,0,997.58,567.84ZM959.41,675.32l-16.85-11.08v-8.1l16.85,11.08Zm16.85-3.85-33.7-22.15v-8.1l33.7,22.16Zm0-14.92-16.85-11.07v-8.1l16.85,11.07Z"/><path class="cls-1" d="M1013.91,560.64l-.14-.63-.24-.62-.32-.59-.42-.56-.49-.51-.56-.45-.62-.4-.68-.34-.73-.26-.75-.19-.78-.12-.8,0H918.5a31.82,31.82,0,0,0-7.08.79l-.59.15-.58.19-.56.22-.56.26-.53.29-.51.33-.49.36-.47.39-.43.42-.4.46-.35.49-.31.52-.26.54-.19.57-.12.59-.05.6V749.42l0,.55.1.54.17.53.21.5.27.49.31.46.36.45.41.44.45.42.5.4.55.37.57.33.59.28.61.25.63.21.63.17a32.42,32.42,0,0,0,7.08.79h88.88l.8,0,.78-.12.75-.19.73-.27.68-.33.62-.4.56-.46.49-.51.42-.55.32-.59.24-.62.14-.64.05-.64v-190Zm-16.33,187H921.4a7.45,7.45,0,0,1-7.45-7.44V572.3a7.45,7.45,0,0,1,7.45-7.44h76.18a7.45,7.45,0,0,1,7.45,7.44V740.22A7.45,7.45,0,0,1,997.58,747.66Zm9.68,4.84a2.61,2.61,0,1,1,2.61-2.6A2.6,2.6,0,0,1,1007.26,752.5Zm0-187.27a2.61,2.61,0,1,1,2.61-2.6A2.6,2.6,0,0,1,1007.26,565.23Z"/><path class="cls-2" d="M807.44,521.46H780.75a7.46,7.46,0,0,0-5.26,2.18L752.18,547a4.46,4.46,0,0,0-1.31,3.16v7.08a4.47,4.47,0,0,0,4.47,4.46H806a4.47,4.47,0,0,0,4.47-4.46V524.44A3,3,0,0,0,807.44,521.46Zm-31.15,19.35a1.49,1.49,0,0,1-1.49,1.49h-8.06a1.48,1.48,0,0,1-1-2.54l8-8.06a1.5,1.5,0,0,1,2.55,1Z"/><path class="cls-2" d="M885.53,511.86H875.09a6.52,6.52,0,0,0-4.63,1.92l-28.57,28.56A6.54,6.54,0,0,0,840,547v10.44a5.36,5.36,0,0,0,5.36,5.36h40.2a5.36,5.36,0,0,0,5.36-5.36V517.22A5.36,5.36,0,0,0,885.53,511.86Zm-28.29,36.63a4.47,4.47,0,0,1-8.93,0v0a4.47,4.47,0,1,1,8.93,0Zm23.82-23.81a4.47,4.47,0,0,1-8.93,0v0a4.47,4.47,0,0,1,8.93,0Z"/><path class="cls-1" d="M919.54,487.27a19.36,19.36,0,0,1,38.71,0v0a19.36,19.36,0,0,1-38.71,0Zm23.29-6.52L949,492.92l2.63-4.56-6.12-12.17Zm-11.45-3.54,12.4,24.67,2.62-4.56L934,472.66Zm1,21.13,2.63-4.55-6.12-12.17-2.63,4.55Z"/><path class="cls-2" d="M1013.17,529.32H999a11.91,11.91,0,0,1-11.91-11.91V462.33A11.91,11.91,0,0,1,999,450.42h14.14a3.72,3.72,0,1,0,0-7.44H940.23a3.72,3.72,0,0,0,0,7.44h14.14a11.91,11.91,0,0,1,11.91,11.91v55.08a11.91,11.91,0,0,1-11.91,11.91H940.23a3.72,3.72,0,1,0,0,7.44h72.95a3.72,3.72,0,1,0,0-7.44Zm-1.41-82.63a1.41,1.41,0,1,1,2.82,0h0a1.41,1.41,0,0,1-2.82,0Zm-70.12,0a1.42,1.42,0,0,1-2.83,0h0a1.42,1.42,0,1,1,2.83,0Zm0,86.34a1.42,1.42,0,0,1-2.83,0h0a1.42,1.42,0,0,1,2.83,0ZM976.7,449.9a1.79,1.79,0,1,1-1.79,1.78A1.79,1.79,0,0,1,976.7,449.9Zm3,70.48a3,3,0,0,1-6,0V506a3,3,0,1,1,6,0Zm-4.77-21.8a1.79,1.79,0,1,1,1.79,1.78A1.79,1.79,0,0,1,974.91,498.58Zm4.77-7.45a3,3,0,0,1-6,0V459.35a3,3,0,1,1,6,0Zm34.9,41.91a1.41,1.41,0,0,1-2.82,0h0a1.41,1.41,0,1,1,2.82,0Z"/><path class="cls-2" d="M911.69,498.76a1.61,1.61,0,0,0,1.59-1.63,1.71,1.71,0,0,0-.44-1.14,9.12,9.12,0,0,1-2.43-6.23V474.91a9,9,0,0,0-3.17-6.85,5,5,0,0,1-1.76-3.81V431.8a5,5,0,0,1,1.76-3.81,9,9,0,0,0,3.17-6.86V406.28a9.16,9.16,0,0,1,2.43-6.23,1.68,1.68,0,0,0-.05-2.31,1.59,1.59,0,0,0-1.1-.46h-9.52A1.29,1.29,0,0,0,900.9,396H870.4a1.29,1.29,0,0,0-1.27,1.31H859.6a1.29,1.29,0,0,0-1.27-1.31H816.42a1.29,1.29,0,0,0-1.27,1.31h-9.52a3.23,3.23,0,0,0-3.18,3.28v9.69a4.93,4.93,0,0,1-2.38,4.25l-12.7,7.56a9.89,9.89,0,0,0-4.76,8.51v15.12a9.86,9.86,0,0,0,4.76,8.5l12.7,7.56a5,5,0,0,1,2.38,4.26v29.48a3.22,3.22,0,0,0,3.18,3.27h-3.18V502a3.22,3.22,0,0,0,3.18,3.27H910.41a3.22,3.22,0,0,0,3.17-3.27v-3.28Zm-25.1-90a3.22,3.22,0,0,1,3.18-3.27h13.65a3.23,3.23,0,0,1,3.18,3.27v10.58a3.24,3.24,0,0,1-3.18,3.28,3.1,3.1,0,0,1-1.59-.44L889,414.5a4.93,4.93,0,0,1-2.38-4.25Zm-39.69,0a3.22,3.22,0,0,1,3.18-3.27h28.57a3.22,3.22,0,0,1,3.18,3.27v1.51a4.93,4.93,0,0,1-2.38,4.25l-12.7,7.56a4.64,4.64,0,0,1-4.77,0l-12.7-7.56a4.93,4.93,0,0,1-2.38-4.25Zm-39.69,0a3.22,3.22,0,0,1,3.18-3.27H839a3.22,3.22,0,0,1,3.18,3.27v1.51a4.93,4.93,0,0,1-2.38,4.25l-12.7,7.56a4.62,4.62,0,0,1-4.76,0l-12.71-7.56a4.93,4.93,0,0,1-2.38-4.25Zm-4.76,48.76-12.7-7.56a5,5,0,0,1-2.38-4.25V430.57a4.93,4.93,0,0,1,2.38-4.25l12.7-7.56a4.62,4.62,0,0,1,4.76,0l12.7,7.56a4.91,4.91,0,0,1,2.39,4.25v15.12a4.94,4.94,0,0,1-2.39,4.25l-12.7,7.56A4.62,4.62,0,0,1,802.45,457.5Zm39.69,23.63a5,5,0,0,1-2.38,4.25l-12.7,7.56a4.62,4.62,0,0,1-4.76,0l-12.71-7.56a5,5,0,0,1-2.38-4.25V466a5,5,0,0,1,2.38-4.26l12.71-7.56a4.67,4.67,0,0,1,4.76,0l12.7,7.56a5,5,0,0,1,2.38,4.26Zm0-23.63-12.7-7.56a5,5,0,0,1-2.38-4.25V430.57a4.93,4.93,0,0,1,2.38-4.25l12.7-7.56a4.62,4.62,0,0,1,4.76,0l12.7,7.56a4.91,4.91,0,0,1,2.38,4.25v15.12a4.93,4.93,0,0,1-2.38,4.25l-12.7,7.56A4.62,4.62,0,0,1,842.14,457.5Zm39.69,23.63a5,5,0,0,1-2.38,4.25l-12.7,7.56a4.64,4.64,0,0,1-4.77,0l-12.7-7.56a5,5,0,0,1-2.38-4.25V466a5,5,0,0,1,2.38-4.26l12.7-7.56a4.69,4.69,0,0,1,4.77,0l12.7,7.56a5,5,0,0,1,2.38,4.26Zm0-23.63-12.7-7.56a5,5,0,0,1-2.38-4.25V430.57a4.93,4.93,0,0,1,2.38-4.25l12.7-7.56a4.62,4.62,0,0,1,4.76,0l12.7,7.56a4.91,4.91,0,0,1,2.38,4.25v15.12a4.93,4.93,0,0,1-2.38,4.25l-12.7,7.56A4.62,4.62,0,0,1,881.83,457.5Zm24.77,32.7a3.23,3.23,0,0,1-3.18,3.27,3.1,3.1,0,0,1-1.59-.44L889,485.38a5,5,0,0,1-2.38-4.25V466a5,5,0,0,1,2.38-4.26l7.94-4.72a3.13,3.13,0,0,1,4.34,1.2,3.33,3.33,0,0,1,.42,1.63v4.39a8.93,8.93,0,0,0,3.17,6.85,5,5,0,0,1,1.76,3.81Z"/><path class="cls-2" d="M16.25,517.08q0,18.67,0,37.34c0,2.77.44,5.71-4,5.71-4.14,0-5.95-1.65-6.1-5.85-.34-9.06-.76-18.13-1.54-27.17-1.32-15.22-2.95-30.42-4.4-45.63q-.12-1.31-.12-2.61c0-29.38-.35-58.77.13-88.15.24-14.82,1.89-29.62,2.86-44.44.57-8.8,1-17.61,1.59-26.41.48-7.53.94-15.07,1.58-22.59.33-3.81,3.37-6.73,6.26-6.22,3.71.65,3.71,3.57,3.71,6.45q0,37.1,0,74.2a17.72,17.72,0,0,0,.25,3.18c.78,4.34,2.78,5.8,7.64,5.92,3.8.09,7.62-.09,11.43.07,1.69.08,4,.15,4.91,1.2,3.34,4,7.67,3.3,11.93,3.32,6.1,0,12.2-.07,18.29,0,4.33.07,8.36-.05,12.19-2.89,2-1.46,5.22-1.26,7.91-1.69,4.87-.76,10.13,1.64,14.78-1.85.38-.28,3.32,1.43,3.41,2.39,1.42,13.73,3.41,27.49.75,41.29a23.73,23.73,0,0,0-.38,4.83c.45,8.22,1.27,16.44,1.32,24.66,0,6-1,12-1.47,18-.23,2.86-2.13,3.59-4.2,2.58-6.46-3.11-13.29-2.57-20.08-2.64-1,0-2.25.08-3-.45-10.11-7.54-21.66-2.85-32.51-3.94a1.66,1.66,0,0,0-1.16.34c-7,5.43-15.5,3.29-23.38,4.44-7.16,1.05-8.65,3.41-8.67,10.75C16.23,493.2,16.26,505.14,16.25,517.08Zm23-106.86a1.15,1.15,0,0,0-.26,0c-3.6,0-7.42,0-9.23,1.81-3.6,3.62-5.61,6.25-7.48,11-1.24,3.08-.44,7.59,2,10.48,1.54,2.7,7.56,9.19,15.19,8.46,7.41-.72,16.6-9.08,15.16-16.18-1-4.89-4-9.71-7.13-13.69C46.21,410.38,42.2,410.75,39.3,410.22Zm30.8,50.72.3,0c3.69,0,8.07-.95,10.26-3.14,3.38-3.39,7.42-8.57,7-12.62-.47-5.18-4.61-10.33-8.07-14.8-1.19-1.54-5.06-1.31-7.72-1.36-9.16-.16-18.08,7.08-17.21,15.19.53,4.86,3.5,9.84,6.57,13.86C62.63,459.83,66.54,460.36,70.1,460.94Zm-.58-38.41c4.5.3,9.08.21,10.75-1.59,3.45-3.75,7.39-8.84,7.45-13.43s-3.9-9.57-7.14-13.52c-1.37-1.67-5.45-1.6-8.27-1.48-3.86.15-8.85-.17-11.25,2-3.26,3-6.1,8.09-6.18,12.34s2.71,9.24,5.7,12.6C62.63,421.76,67.23,422.53,69.52,422.53ZM30.24,465.07a.91.91,0,0,0,.23,0c3.17-.4,6.88.06,9.32-1.49,3.05-1.94,5.62-3.87,9.46-3.64.83.05,2.44-1.68,2.51-2.67.24-3.37-4.45-8.22-7.88-8.41-2.51-.14-5.08.26-7.54-.1-5.92-.87-9,2-11.5,7C20.36,464.76,20.13,464.69,30.24,465.07Zm1.54-77.27s-2.87-.31-3-.05l-3.41.29a2.46,2.46,0,0,0-2.06,3.43c.89,2,1.72,4.07,2.55,6.15,2.17,5.37,6.22,6.79,11.56,6.11,1.75-.22,3.55,0,5.33-.05,3.95-.13,9.19-5.43,9-9.15,0-.63-.52-1.63-1-1.78A180,180,0,0,0,31.78,387.8Zm67.4,38.6h0c0-4.28.17-8.58-.06-12.85-.16-2.74-2.67-3.69-4.72-2.05-.17.14-.23.43-.35.64-2.48,4.33-5.25,8.52-7.33,13-1.2,2.61,6.54,15.42,9.55,16.16.75.18,2.7-1.28,2.75-2.08C99.32,435,99.18,430.69,99.18,426.4Zm0,30.65a16.16,16.16,0,0,0-.06-3.75,15.83,15.83,0,0,0-1.09-2.84,1.66,1.66,0,0,0-2.17-.82,9.12,9.12,0,0,0-3.26,2c-1.42,1.64-2.15,3.89-3.14,5.9q-1,2-1.89,4a1.65,1.65,0,0,0,1.12,2.31,22.93,22.93,0,0,0,5,.81C99.21,464.68,99.21,464.54,99.23,457.05Zm.57-60.48,0-.58c0-.49.25-1.64.07-1.69.07-1.89,1.44-4.72-.65-5.56-1.26-.51-1-1.12-3.56-.88-1.24.11-2.41.23-3.55.4A4,4,0,0,0,89,393.74c.34.86.67,1.31,1.2,2.46.32.68.3.69,1,2s2.45,6.65,6.26,5C98.89,402.58,99.1,399,99.8,396.57Z"/><path class="cls-2" d="M554.49,171.88c5.64-.17,8.16,3,6.83,8.6-3.23,13.54-3.3,13.66,8.2,20.82,5.75,3.58,11.88,6.53,17.72,10,4.72,2.78,8.62,1.62,12.25-1.91,1.45-1.41,2.84-2.9,4.34-4.27,4.15-3.79,6.68-3.53,9.77,1.1,3.45,5.16,4.75,10.41.46,15.9a23.57,23.57,0,0,0-3,5.24c-1.25,2.94-3,4.33-6.37,5.35s-6.68,4.34-8.92,7.44a122,122,0,0,0-10.42,17.41c-1.8,3.63-2.07,8-3.47,11.85-1.26,3.52-2.65,7.21-4.93,10.07-.94,1.17-4.67,1.12-6.58.32a108.47,108.47,0,0,1-13.23-7.07c-2.89-1.72-4.72-2.12-6.38,1.68-1.48,3.42-4.43,3.3-7.45,1.39q-7-4.41-14.14-8.6c-2.65-1.57-3.5-3.31-1.59-6.14,1.8-2.65,1.95-4.86-1.85-6.31-2.77-1.05-5.13-3.13-7.78-4.52-9.84-5.17-10.85-11.91-1.65-18,4.35-2.9,6.58-6.44,8.84-10.61,2.86-5.29,6-10.45,9.24-15.5a16.93,16.93,0,0,0,2.33-12.36C535.19,184.11,544.86,172.15,554.49,171.88Zm3.63,89.93c15.53,2,28.37-13.13,27.8-27.73-.65-16.65-12.2-27.83-27.79-27.55s-27,10.95-27.79,28C529.63,249.33,543.11,263.39,558.12,261.81Z"/><path class="cls-2" d="M874.77,952.31c-.7.63-1.23,1.37-1.61,1.63-13,9-26.1,17.84-38.9,27.12-25.45,18.45-52.8,33.77-80.17,49q-31.25,17.43-63.14,33.69c-13.84,7.08-28.17,13.2-42.25,19.81-2.93,1.38-5.39,2.61-7.38-1.53s.65-5.28,3.39-6.86q31.92-18.45,63.76-37c5.56-3.24,6.56-6.63,3.73-12.54-1.19-2.48-3.1-4.62-4.2-7.13-1.43-3.24-4.52-6.07-2.25-10.43.68-1.31-.39-3.94-1.31-5.62-3.62-6.59-7.28-13.19-11.38-19.49-1.79-2.74-3.16-6-7.43-6.93-2.34-.54-4.08-4.15-5.88-6.53-3-3.94-5.54-8.23-8.74-12-2.61-3.06-.68-4.81,1.33-6.22,6.71-4.67,13.46-9.35,20.5-13.49,4.68-2.75,10-4.37,14.81-6.94,2.53-1.35,4.36-4,6.86-5.42,8-4.67,16.16-9.09,24.3-13.52,1.53-.83,3.3-1.2,4.89-1.93,6-2.78,5.87-2.76,7.68,3.37.62,2.1,2.12,4,3.19,5.93,2.84,5.28,6.41,10.25,5.88,16.79a9.86,9.86,0,0,0,1.46,5c3.3,6.22,6.56,12.47,10.25,18.45a21.19,21.19,0,0,0,8.37,8.08c3.93,2.11,6.19,7.58,8.79,11.82,4.35,7.1,7.19,7.79,14.39,3.63,18.91-10.92,37.9-21.67,56.85-32.49,2.61-1.5,5.06-3.33,7.8-4.52a5.19,5.19,0,0,1,7,3.76c0,.17-.17,1-.1,1.19ZM744.22,970.44a3.92,3.92,0,0,0,1.67,0c3-.7,6.72-.86,8.38-2.82,3.26-3.86,6.92-9.06,6.83-13.62s-3.93-9.71-7.32-13.53c-1.62-1.83-6-1.69-9.12-1.59-3.32.11-7.86.13-9.62,2.15-3.31,3.8-6.94,9-6.85,13.6s3.95,9.68,7.3,13.55C737,969.93,740.78,969.81,744.22,970.44Zm-33.07,18.28a3.87,3.87,0,0,0,1.59,0c3.46-.67,7.45-.58,9.17-2.51,3.2-3.59,6-8.46,6.68-13.11,1-7.12-9.07-16.33-16.48-16-3.36.16-7.86.53-9.74,2.66-3.36,3.8-7,9-7,13.62-.05,4.28,3.81,9.19,7.13,12.7C704.28,988,708,988.05,711.15,988.72Zm35-12.47a4,4,0,0,0-1.73,0c-3.57.7-7.41.66-9.31,2.55-3.44,3.41-7.59,8.36-7.44,12.51.18,4.9,4,10.21,7.46,14.21,1.82,2.08,6.41,2.27,9.77,2.32,3.1.05,7.4-.18,9.09-2.11,3.34-3.82,7-8.83,7.23-13.48.17-4.35-3.39-9.43-6.58-13.08C752.9,977.17,749.15,977,746.12,976.25ZM715.34,995a4.48,4.48,0,0,1-.82.09c-6.58,0-6.6.25-4.32,6.23.53,1.37,1.46,2.92,1.22,4.2-1.22,6.7,3.21,11.31,5.68,16.67,1.35,3,2.92,3,5.15,1,5.73-5.15,7.11-12.32,3.63-19.23a27.11,27.11,0,0,0-2.07-4C721.57,997,719.05,994.29,715.34,995ZM776,988.49c-1.54-.13.94.32,2.89.31s2.1-.3,3.93-.9c1.09-.36,2.62-2.88,2.28-3.51-2.14-3.92-4.14-8.28-7.38-11.14-3.09-2.72-7-6.52-9.62-7.57-1.9-.69-3.2-.84-3.43-.68-3.53,2.53-4.93,6.07-3.8,9.21,1,4.64,4,9.23,7.28,12.84C769.64,988.74,773,988.08,776,988.49Zm-64.15-37c7.71.09,16.21-7.78,17.09-15.72.37-3.4-1.27-4.64-4.6-2.86-6.39,3.43-12.61,7.18-18.82,10.94l-.3.19a3.79,3.79,0,0,0,.25,6.39,15.6,15.6,0,0,0,1.86,1C708.58,951.91,710.29,951.46,711.81,951.46Zm-15.65,4.91a3.37,3.37,0,0,0,.54-2.22c-.33-2.57-2.42-3.65-4.94-2.5a44.94,44.94,0,0,0-8.31,5c-1,.77-2.09,3-1.67,3.84a49.57,49.57,0,0,0,5.41,7.63c.18.22,1.68-.11,2-.57C691.65,963.73,694,959.84,696.16,956.37Zm47.17-24.83a4.36,4.36,0,0,0,.94.14,42.43,42.43,0,0,0,6.28-.09,4.65,4.65,0,0,0,2.47-1.87c-1.4-2.9-2.68-6.06-4.86-8.3-.78-.81-4.23.1-5.85,1.16-2.74,1.78-8.29,1.67-7.49,6.14C735.74,933.86,740.62,931,743.33,931.54Z"/><path class="cls-2" d="M564.91,101.43c3.42-.31,5.86,1.1,8,3.6,5.53,6.45,9.42,14.11,12.52,21.69,4.57,11.2,7.11,23.25,10.31,35,1.31,4.79-4.86,7.17-11.29,8.2-5.47.87-9.2,2-13.21,2.61-6.13,1.3-5.92-.3-6.62-2.32-1.61-4.64-.8-10.81-4.85-13.76s-9.5.32-14.39.34c-7.12,0-13.94-1.82-21-2-6.25-.14-11.53-9.15-9.42-15.2,3.74-10.67,10.59-19.72,16-29.53,1.47-2.67,4.39-4.9,7.29-4.95C547.28,105,556.21,104.15,564.91,101.43Zm4,14.7c-.12-3.86-1.95-6.61-5.21-6.56-3,.05-6.7,1-7,5.25-.29,3.87,1.87,6.25,5.61,6.62C566.2,121.83,568.07,119.27,568.91,116.13Zm-13.2,30.23a6.51,6.51,0,0,0-.78-6.85,5.73,5.73,0,0,0-5.31-2.55c-3.69.31-5.37,3.16-5.22,7,.17,4.58,3.52,5,6.79,5A4.78,4.78,0,0,0,555.71,146.36ZM543,112.27c-4.63,0-7.46,1.84-7.5,5.51,0,3.24,2.58,5,6,5.34,4,.42,5.6-2,5.75-5.13S546.25,112,543,112.27Zm-15.2,35.14c3.78.13,5.66-2,5.75-5,.1-3.3-2.22-5.48-5.73-5.57s-6,2-6.06,5.24C521.72,145.47,523.79,147.57,527.81,147.41Zm48-10.27c-.54-2.19-1.12-3.83-3.61-3.36-1.95.37-3.48,1.52-3,3.49a3.36,3.36,0,0,0,4.1,2.47C574.87,139.47,575.86,138.64,575.79,137.14ZM581,159.68c0-1.54-.11-3.05-2.24-3-2,0-3.5,1-3.54,2.93s1.51,2.92,3.46,3C580.83,162.71,581,161.25,581,159.68Z"/><path class="cls-2" d="M848,876c-4.83,2.72-7.35,4.91-.4,8.29-5.93-1.21-11,.29-16.21-1.28-5.86-1.77-8.36-5.35-8.43-10.87a40.65,40.65,0,0,0-4-17.39c-3.08-6.4-1.65-11.67,3.35-16.82C828,832,832.7,825,838.41,819.05c8.27-8.61,17.69-7.11,22.94,3.77,3.89,8.07,7.69,16.4,9.82,25,1.58,6.35,4.7,6.51,9.18,5a22.44,22.44,0,0,1,7.46-.8c4.27,0,6.54,2.35,6.59,6.6.05,5.54.16,11,1.41,16.5,1,4.35-.51,8.16-5.83,8.74C880,885,870,886.11,860.06,887,849.74,887.87,849.66,887.7,848,876Zm-12.85-13.4c-2.69,1.41-4.92,3.26-4.78,7.27s2.23,5.08,5.85,5.1c4.43,0,6-3.26,6-6.29C842.29,865.15,839.2,863.24,835.12,862.58Zm28.27-14.16c-.56-3.47-1.77-6.66-5.57-6.91s-5.79,2.34-6.06,6.12c-.24,3.48.74,5.7,4.85,6S862.4,851.51,863.39,848.42Zm-26.82-.26c-1.14-1.54-.38-5.28-4.85-5.38-3.79-.09-6.84,1.39-7.14,5s2.6,5.61,6.39,5.74C834.14,853.67,836.46,852.81,836.57,848.16Zm18.29-21.22c-.74-2.65-1.13-5.63-5.31-5.52-3.79.09-6.63,1.79-6.69,5.43-.05,3.16,2.43,5.07,6,5.4C852.77,832.62,854,830.28,854.86,826.94Zm30.46,41.77c0-1.57-.2-3-2.33-2.91-2,.1-3.5,1.06-3.45,3s1.6,2.91,3.56,2.93S885.31,870.26,885.32,868.71Zm-23,1.44a2.85,2.85,0,0,0-3.12-2.59c-1.88.19-2.86,1.76-2.75,3.72s1.72,2,3.2,2.05C861.34,873.36,862.55,872.84,862.31,870.15Z"/><path class="cls-2" d="M80.85,637.6c.16-5.24-2.31-6.45-7-6.38-12.45.19-24.91.35-37.35-.06-6.41-.2-8.59,2.94-9,8.46-.16,2.27,0,4.57,0,6.85,0,15.16,0,15.16-14.86,15.31-9,.1-11,2.11-11,11.2q-.06,30.87,0,61.74c0,21.09.09,42.19-.06,63.28-.05,6.13,2.42,8.86,8.59,8.61,5.33-.21,10.67,0,16,0,8.86,0,9.36-.08,8.78-8.87-.63-9.4,2.63-16.52,9.49-22.71,6.59-6,12.55-12.6,19-18.75a15.92,15.92,0,0,0,5.29-12.74c-.27-10.41.11-20.84-.14-31.25-.2-8.19.74-16,5.23-23.06,2-3.25.52-4.56-2.94-4.53-5.08.05-10.17-.18-15.24.05-3.83.18-5.63-.92-5.35-5.08.24-3.73-.07-7.35,5.28-7.27s10.67,0,16,0c7-.06,9-1.8,9.22-8.83C80.94,654.88,80.58,646.23,80.85,637.6ZM59.51,694.9a2.15,2.15,0,1,1-2.15,2.15A2.15,2.15,0,0,1,59.51,694.9Zm0,35.13a2.15,2.15,0,1,1-2.15,2.14A2.15,2.15,0,0,1,59.51,730ZM39.56,643.58c2.49-.24,3.17.82,3.13,2.59,0,1.46.13,3.09-2,3.28s-3.55-.82-3.8-2.66A2.87,2.87,0,0,1,39.56,643.58Zm-27,29c1.48-.14,2.36.43,2.49,1,.24,2.5-.48,3.35-2,3.39a2,2,0,0,1-2.23-2.33C10.85,673.49,11.26,672.66,12.54,672.54ZM10,697.05a2.15,2.15,0,1,1,2.15,2.15A2.15,2.15,0,0,1,10,697.05Zm3.35,36.25c-1.77.06-2.57-.71-2.54-2.23s.92-2.23,2.44-2.12a1.84,1.84,0,0,1,1.91,1.86C14.74,732.36,14.25,733.06,13.32,733.3Zm6.53,61.89a2.79,2.79,0,0,1-3-2.93c-.06-2,.92-3.5,2.83-3.63a2.85,2.85,0,0,1,3,2.65C23,794.07,21.47,795.19,19.85,795.19Zm0-23.94c-2,.07-3-1.5-3.06-3.45s1-3.52,2.92-3.59,2.9,1.53,3.1,3.38C22.78,769.61,21.84,771.18,19.9,771.25Zm33.43-50.72c-.48,9.16-6.87,16.76-16.87,16C24.3,736.36,21,729.92,20,720.3c-.94-8.79,7.62-16,17.08-15.91C46,704.5,53.78,711.92,53.33,720.53ZM62,647.22a1.84,1.84,0,1,1,1.84-1.84A1.84,1.84,0,0,1,62,647.22Z"/><path class="cls-2" d="M560.11,63.1c-3.54-4.4-5.89-9.92-11.92-12.11-4.05-1.48-6.89-4.89-9.09-8.56-6.68-11.15-13.23-22.38-19.85-33.57-4.74-8-10.53-10.83-19.4-7.47a140.62,140.62,0,0,0-35.62,20.38C457,27.32,456.44,34,460.79,42.23c3.15,6,6.91,11.62,9.95,17.63,4.45,8.81,12.31,16.28,11.78,27.12-.34,6.89,2.23,12.74,5.23,18.56.88,1.69,1.53,4.12,4.29,3.14,2.23-.79,2.51-2.74,2.7-4.91.83-9.52,2.32-11.11,11.84-13.3a.07.07,0,0,1,.07,0c1,2.84-.45,6,1.36,9.36a.07.07,0,0,0,.08,0L525,90.39a.06.06,0,0,0,0-.1c-2.45-1.71-5-2.81-4.15-5.93a3.33,3.33,0,0,1,3.24-2.73c3.11.07,4.67,1.31,3.63,4.83-.36,1.21,1.66,1.33,2.12.91,4-3.67,10.51-4,13.88-9.58a.07.07,0,0,0,0-.09l-10.41-3a.06.06,0,0,1,0-.1c6.5-5.55,12.45-9.82,20.42-4,2.28,1.67,4.67,1,6.75-.76C563.14,67.47,561.55,64.88,560.11,63.1ZM463.63,36.37c-2.19.05-3.58-1.06-3.61-3.29s1.64-3.45,3.84-3.38A3.32,3.32,0,0,1,467.24,32v0C467.4,34.31,466.05,36.31,463.63,36.37ZM505.49,6.06c.71-2.54,2.52-3.18,3.45-3,1.85.3,4.16,1.17,4.15,3.8a3.82,3.82,0,0,1-4.75,3.65A3.5,3.5,0,0,1,505.49,6.06ZM490,95.36a2.24,2.24,0,1,1,2.24-2.23A2.24,2.24,0,0,1,490,95.36ZM520.12,61.8a28.53,28.53,0,0,1-30.19,6.57C478.5,63.9,472,55,471.82,41.15c-1.12-5,2.15-8.33,6.47-10.88,6.87-4.07,13.91-7.86,20.77-12a13.75,13.75,0,0,1,12.82-1.08c4.68,1.73,7.15,7.35,13,6.9.82-.06,2.75,2.8,2.65,4.2C526.79,39.82,529.61,52,520.12,61.8Zm29.42.26a2.24,2.24,0,1,1,2.24-2.24A2.24,2.24,0,0,1,549.54,62.06Z"/><path class="cls-1" d="M502,1157.9c-7.57-4.41-15.21-8.7-22.81-13.06-3.62-2.07-6.17-4.49-6.45-9.33-.74-13,.68-25.89,2.14-38.56,1.68-14.51,3.6-17.18-11-24.26-.68-.33-5.46-2.83-6.28-3.37-5.42-3.58-5.81-4.92-9.55-4.51-4.34.47-4.83,7.52-7.63,11.38-5.67,7.83-5,11.27,3.18,16.34,4.2,2.6,4.76,5.68,5.07,10,.58,7.92-1.64,15.55-1.76,25-.9,5.11,1.59,9.93,7.64,13.32q21.61,12.09,43,24.66c3.43,2,5.4,1.66,7.59-1.8C507.87,1159.35,504.1,1159.13,502,1157.9ZM464.35,1089a1.19,1.19,0,1,1-1.19,1.18A1.18,1.18,0,0,1,464.35,1089Zm-11.75,27.94a1.19,1.19,0,1,1,1.18-1.18A1.18,1.18,0,0,1,452.6,1116.94Zm.76-19.88a1.19,1.19,0,1,1,1.19-1.19A1.18,1.18,0,0,1,453.36,1097.06Zm-.38-9c-1.57.22-5.19-3-6.71-5.06-.47-.64.61-2.49,2.56-3.81,1.56-1.06,8.48,3.28,8.76,5.23A5.85,5.85,0,0,1,453,1088.11Zm5.49,24.52c-2.55,0-2.51-2.14-2.31-3.84.39-3.36.73-6.9.91-10.16a2.51,2.51,0,0,1,2.07-2.35c8.1-1.41,6.16,2.8,6.15,4.92,0,1,0,2,0,3l.21,0c-.23,2.47.14,5.24-.88,7.32C463.52,1113.86,460.61,1112.66,458.47,1112.63Zm8.25,5.5a1.19,1.19,0,1,1,1.19-1.19A1.19,1.19,0,0,1,466.72,1118.13Z"/></g></g></svg>