%TF.GenerationSoftware,KiCad,Pcbnew,(6.0.6)*%
%TF.CreationDate,2022-08-12T20:52:17+02:00*%
%TF.ProjectId,breakbox_pcb,62726561-6b62-46f7-985f-7063622e6b69,rev?*%
%TF.SameCoordinates,Original*%
%TF.FileFunction,Legend,Bot*%
%TF.FilePolarity,Positive*%
%FSLAX46Y46*%
G04 Gerber Fmt 4.6, Leading zero omitted, Abs format (unit mm)*
G04 Created by KiCad (PCBNEW (6.0.6)) date 2022-08-12 20:52:17*
%MOMM*%
%LPD*%
G01*
G04 APERTURE LIST*
%ADD10C,0.300000*%
%ADD11C,0.100000*%
%ADD12C,0.200000*%
G04 APERTURE END LIST*
D10*
X52000000Y-79000000D02*
X67000000Y-79000000D01*
X92500000Y-52000000D02*
X92500000Y-98000000D01*
X67000000Y-89000000D02*
X52000000Y-89000000D01*
X67000000Y-79000000D02*
X67000000Y-89000000D01*
D11*
X97857142Y-67371428D02*
X97514285Y-67371428D01*
X97685714Y-67971428D02*
X97685714Y-67371428D01*
X97314285Y-67971428D02*
X97314285Y-67371428D01*
X97314285Y-67657142D02*
X96971428Y-67657142D01*
X96971428Y-67971428D02*
X96971428Y-67371428D01*
X96371428Y-67971428D02*
X96714285Y-67971428D01*
X96542857Y-67971428D02*
X96542857Y-67371428D01*
X96600000Y-67457142D01*
X96657142Y-67514285D01*
X96714285Y-67542857D01*
X95742857Y-67371428D02*
X95542857Y-67971428D01*
X95342857Y-67371428D01*
X94800000Y-67914285D02*
X94828571Y-67942857D01*
X94914285Y-67971428D01*
X94971428Y-67971428D01*
X95057142Y-67942857D01*
X95114285Y-67885714D01*
X95142857Y-67828571D01*
X95171428Y-67714285D01*
X95171428Y-67628571D01*
X95142857Y-67514285D01*
X95114285Y-67457142D01*
X95057142Y-67400000D01*
X94971428Y-67371428D01*
X94914285Y-67371428D01*
X94828571Y-67400000D01*
X94800000Y-67428571D01*
X94200000Y-67914285D02*
X94228571Y-67942857D01*
X94314285Y-67971428D01*
X94371428Y-67971428D01*
X94457142Y-67942857D01*
X94514285Y-67885714D01*
X94542857Y-67828571D01*
X94571428Y-67714285D01*
X94571428Y-67628571D01*
X94542857Y-67514285D01*
X94514285Y-67457142D01*
X94457142Y-67400000D01*
X94371428Y-67371428D01*
X94314285Y-67371428D01*
X94228571Y-67400000D01*
X94200000Y-67428571D01*
X60452000Y-85329714D02*
X60452000Y-85615428D01*
X60652000Y-85015428D02*
X60452000Y-85329714D01*
X60252000Y-85015428D01*
X103685714Y-73971428D02*
X103685714Y-73371428D01*
X103457142Y-73371428D01*
X103400000Y-73400000D01*
X103371428Y-73428571D01*
X103342857Y-73485714D01*
X103342857Y-73571428D01*
X103371428Y-73628571D01*
X103400000Y-73657142D01*
X103457142Y-73685714D01*
X103685714Y-73685714D01*
X103085714Y-73971428D02*
X103085714Y-73571428D01*
X103085714Y-73685714D02*
X103057142Y-73628571D01*
X103028571Y-73600000D01*
X102971428Y-73571428D01*
X102914285Y-73571428D01*
X102628571Y-73971428D02*
X102685714Y-73942857D01*
X102714285Y-73914285D01*
X102742857Y-73857142D01*
X102742857Y-73685714D01*
X102714285Y-73628571D01*
X102685714Y-73600000D01*
X102628571Y-73571428D01*
X102542857Y-73571428D01*
X102485714Y-73600000D01*
X102457142Y-73628571D01*
X102428571Y-73685714D01*
X102428571Y-73857142D01*
X102457142Y-73914285D01*
X102485714Y-73942857D01*
X102542857Y-73971428D01*
X102628571Y-73971428D01*
X102171428Y-73971428D02*
X102171428Y-73371428D01*
X102171428Y-73600000D02*
X102114285Y-73571428D01*
X102000000Y-73571428D01*
X101942857Y-73600000D01*
X101914285Y-73628571D01*
X101885714Y-73685714D01*
X101885714Y-73857142D01*
X101914285Y-73914285D01*
X101942857Y-73942857D01*
X102000000Y-73971428D01*
X102114285Y-73971428D01*
X102171428Y-73942857D01*
X101400000Y-73942857D02*
X101457142Y-73971428D01*
X101571428Y-73971428D01*
X101628571Y-73942857D01*
X101657142Y-73885714D01*
X101657142Y-73657142D01*
X101628571Y-73600000D01*
X101571428Y-73571428D01*
X101457142Y-73571428D01*
X101400000Y-73600000D01*
X101371428Y-73657142D01*
X101371428Y-73714285D01*
X101657142Y-73771428D01*
X100342857Y-73400000D02*
X100400000Y-73371428D01*
X100485714Y-73371428D01*
X100571428Y-73400000D01*
X100628571Y-73457142D01*
X100657142Y-73514285D01*
X100685714Y-73628571D01*
X100685714Y-73714285D01*
X100657142Y-73828571D01*
X100628571Y-73885714D01*
X100571428Y-73942857D01*
X100485714Y-73971428D01*
X100428571Y-73971428D01*
X100342857Y-73942857D01*
X100314285Y-73914285D01*
X100314285Y-73714285D01*
X100428571Y-73714285D01*
X100057142Y-73971428D02*
X100057142Y-73371428D01*
X99714285Y-73971428D01*
X99714285Y-73371428D01*
X99428571Y-73971428D02*
X99428571Y-73371428D01*
X99285714Y-73371428D01*
X99200000Y-73400000D01*
X99142857Y-73457142D01*
X99114285Y-73514285D01*
X99085714Y-73628571D01*
X99085714Y-73714285D01*
X99114285Y-73828571D01*
X99142857Y-73885714D01*
X99200000Y-73942857D01*
X99285714Y-73971428D01*
X99428571Y-73971428D01*
X97542857Y-70657142D02*
X97742857Y-70657142D01*
X97742857Y-70971428D02*
X97742857Y-70371428D01*
X97457142Y-70371428D01*
X96971428Y-70971428D02*
X96971428Y-70657142D01*
X97000000Y-70600000D01*
X97057142Y-70571428D01*
X97171428Y-70571428D01*
X97228571Y-70600000D01*
X96971428Y-70942857D02*
X97028571Y-70971428D01*
X97171428Y-70971428D01*
X97228571Y-70942857D01*
X97257142Y-70885714D01*
X97257142Y-70828571D01*
X97228571Y-70771428D01*
X97171428Y-70742857D01*
X97028571Y-70742857D01*
X96971428Y-70714285D01*
X96685714Y-70571428D02*
X96685714Y-70971428D01*
X96685714Y-70628571D02*
X96657142Y-70600000D01*
X96600000Y-70571428D01*
X96514285Y-70571428D01*
X96457142Y-70600000D01*
X96428571Y-70657142D01*
X96428571Y-70971428D01*
X95771428Y-70371428D02*
X95571428Y-70971428D01*
X95371428Y-70371428D01*
X94828571Y-70914285D02*
X94857142Y-70942857D01*
X94942857Y-70971428D01*
X95000000Y-70971428D01*
X95085714Y-70942857D01*
X95142857Y-70885714D01*
X95171428Y-70828571D01*
X95200000Y-70714285D01*
X95200000Y-70628571D01*
X95171428Y-70514285D01*
X95142857Y-70457142D01*
X95085714Y-70400000D01*
X95000000Y-70371428D01*
X94942857Y-70371428D01*
X94857142Y-70400000D01*
X94828571Y-70428571D01*
X94228571Y-70914285D02*
X94257142Y-70942857D01*
X94342857Y-70971428D01*
X94400000Y-70971428D01*
X94485714Y-70942857D01*
X94542857Y-70885714D01*
X94571428Y-70828571D01*
X94600000Y-70714285D01*
X94600000Y-70628571D01*
X94571428Y-70514285D01*
X94542857Y-70457142D01*
X94485714Y-70400000D01*
X94400000Y-70371428D01*
X94342857Y-70371428D01*
X94257142Y-70400000D01*
X94228571Y-70428571D01*
X97728571Y-73971428D02*
X97728571Y-73371428D01*
X97500000Y-73371428D01*
X97442857Y-73400000D01*
X97414285Y-73428571D01*
X97385714Y-73485714D01*
X97385714Y-73571428D01*
X97414285Y-73628571D01*
X97442857Y-73657142D01*
X97500000Y-73685714D01*
X97728571Y-73685714D01*
X97128571Y-73971428D02*
X97128571Y-73571428D01*
X97128571Y-73685714D02*
X97100000Y-73628571D01*
X97071428Y-73600000D01*
X97014285Y-73571428D01*
X96957142Y-73571428D01*
X96671428Y-73971428D02*
X96728571Y-73942857D01*
X96757142Y-73914285D01*
X96785714Y-73857142D01*
X96785714Y-73685714D01*
X96757142Y-73628571D01*
X96728571Y-73600000D01*
X96671428Y-73571428D01*
X96585714Y-73571428D01*
X96528571Y-73600000D01*
X96500000Y-73628571D01*
X96471428Y-73685714D01*
X96471428Y-73857142D01*
X96500000Y-73914285D01*
X96528571Y-73942857D01*
X96585714Y-73971428D01*
X96671428Y-73971428D01*
X96214285Y-73971428D02*
X96214285Y-73371428D01*
X96214285Y-73600000D02*
X96157142Y-73571428D01*
X96042857Y-73571428D01*
X95985714Y-73600000D01*
X95957142Y-73628571D01*
X95928571Y-73685714D01*
X95928571Y-73857142D01*
X95957142Y-73914285D01*
X95985714Y-73942857D01*
X96042857Y-73971428D01*
X96157142Y-73971428D01*
X96214285Y-73942857D01*
X95442857Y-73942857D02*
X95500000Y-73971428D01*
X95614285Y-73971428D01*
X95671428Y-73942857D01*
X95700000Y-73885714D01*
X95700000Y-73657142D01*
X95671428Y-73600000D01*
X95614285Y-73571428D01*
X95500000Y-73571428D01*
X95442857Y-73600000D01*
X95414285Y-73657142D01*
X95414285Y-73714285D01*
X95700000Y-73771428D01*
X94785714Y-73371428D02*
X94585714Y-73971428D01*
X94385714Y-73371428D01*
X93842857Y-73914285D02*
X93871428Y-73942857D01*
X93957142Y-73971428D01*
X94014285Y-73971428D01*
X94100000Y-73942857D01*
X94157142Y-73885714D01*
X94185714Y-73828571D01*
X94214285Y-73714285D01*
X94214285Y-73628571D01*
X94185714Y-73514285D01*
X94157142Y-73457142D01*
X94100000Y-73400000D01*
X94014285Y-73371428D01*
X93957142Y-73371428D01*
X93871428Y-73400000D01*
X93842857Y-73428571D01*
X93242857Y-73914285D02*
X93271428Y-73942857D01*
X93357142Y-73971428D01*
X93414285Y-73971428D01*
X93500000Y-73942857D01*
X93557142Y-73885714D01*
X93585714Y-73828571D01*
X93614285Y-73714285D01*
X93614285Y-73628571D01*
X93585714Y-73514285D01*
X93557142Y-73457142D01*
X93500000Y-73400000D01*
X93414285Y-73371428D01*
X93357142Y-73371428D01*
X93271428Y-73400000D01*
X93242857Y-73428571D01*
X102842857Y-76971428D02*
X102842857Y-76371428D01*
X102500000Y-76971428D01*
X102500000Y-76371428D01*
X101985714Y-76942857D02*
X102042857Y-76971428D01*
X102157142Y-76971428D01*
X102214285Y-76942857D01*
X102242857Y-76885714D01*
X102242857Y-76657142D01*
X102214285Y-76600000D01*
X102157142Y-76571428D01*
X102042857Y-76571428D01*
X101985714Y-76600000D01*
X101957142Y-76657142D01*
X101957142Y-76714285D01*
X102242857Y-76771428D01*
X101614285Y-76971428D02*
X101671428Y-76942857D01*
X101700000Y-76914285D01*
X101728571Y-76857142D01*
X101728571Y-76685714D01*
X101700000Y-76628571D01*
X101671428Y-76600000D01*
X101614285Y-76571428D01*
X101528571Y-76571428D01*
X101471428Y-76600000D01*
X101442857Y-76628571D01*
X101414285Y-76685714D01*
X101414285Y-76857142D01*
X101442857Y-76914285D01*
X101471428Y-76942857D01*
X101528571Y-76971428D01*
X101614285Y-76971428D01*
X100385714Y-76400000D02*
X100442857Y-76371428D01*
X100528571Y-76371428D01*
X100614285Y-76400000D01*
X100671428Y-76457142D01*
X100700000Y-76514285D01*
X100728571Y-76628571D01*
X100728571Y-76714285D01*
X100700000Y-76828571D01*
X100671428Y-76885714D01*
X100614285Y-76942857D01*
X100528571Y-76971428D01*
X100471428Y-76971428D01*
X100385714Y-76942857D01*
X100357142Y-76914285D01*
X100357142Y-76714285D01*
X100471428Y-76714285D01*
X100100000Y-76971428D02*
X100100000Y-76371428D01*
X99757142Y-76971428D01*
X99757142Y-76371428D01*
X99471428Y-76971428D02*
X99471428Y-76371428D01*
X99328571Y-76371428D01*
X99242857Y-76400000D01*
X99185714Y-76457142D01*
X99157142Y-76514285D01*
X99128571Y-76628571D01*
X99128571Y-76714285D01*
X99157142Y-76828571D01*
X99185714Y-76885714D01*
X99242857Y-76942857D01*
X99328571Y-76971428D01*
X99471428Y-76971428D01*
X102128571Y-64371428D02*
X101785714Y-64371428D01*
X101957142Y-64971428D02*
X101957142Y-64371428D01*
X101585714Y-64971428D02*
X101585714Y-64371428D01*
X101585714Y-64657142D02*
X101242857Y-64657142D01*
X101242857Y-64971428D02*
X101242857Y-64371428D01*
X100185714Y-64400000D02*
X100242857Y-64371428D01*
X100328571Y-64371428D01*
X100414285Y-64400000D01*
X100471428Y-64457142D01*
X100500000Y-64514285D01*
X100528571Y-64628571D01*
X100528571Y-64714285D01*
X100500000Y-64828571D01*
X100471428Y-64885714D01*
X100414285Y-64942857D01*
X100328571Y-64971428D01*
X100271428Y-64971428D01*
X100185714Y-64942857D01*
X100157142Y-64914285D01*
X100157142Y-64714285D01*
X100271428Y-64714285D01*
X99900000Y-64971428D02*
X99900000Y-64371428D01*
X99557142Y-64971428D01*
X99557142Y-64371428D01*
X99271428Y-64971428D02*
X99271428Y-64371428D01*
X99128571Y-64371428D01*
X99042857Y-64400000D01*
X98985714Y-64457142D01*
X98957142Y-64514285D01*
X98928571Y-64628571D01*
X98928571Y-64714285D01*
X98957142Y-64828571D01*
X98985714Y-64885714D01*
X99042857Y-64942857D01*
X99128571Y-64971428D01*
X99271428Y-64971428D01*
X97714285Y-85942857D02*
X97628571Y-85971428D01*
X97485714Y-85971428D01*
X97428571Y-85942857D01*
X97400000Y-85914285D01*
X97371428Y-85857142D01*
X97371428Y-85800000D01*
X97400000Y-85742857D01*
X97428571Y-85714285D01*
X97485714Y-85685714D01*
X97600000Y-85657142D01*
X97657142Y-85628571D01*
X97685714Y-85600000D01*
X97714285Y-85542857D01*
X97714285Y-85485714D01*
X97685714Y-85428571D01*
X97657142Y-85400000D01*
X97600000Y-85371428D01*
X97457142Y-85371428D01*
X97371428Y-85400000D01*
X97142857Y-85428571D02*
X97114285Y-85400000D01*
X97057142Y-85371428D01*
X96914285Y-85371428D01*
X96857142Y-85400000D01*
X96828571Y-85428571D01*
X96800000Y-85485714D01*
X96800000Y-85542857D01*
X96828571Y-85628571D01*
X97171428Y-85971428D01*
X96800000Y-85971428D01*
X96571428Y-85800000D02*
X96285714Y-85800000D01*
X96628571Y-85971428D02*
X96428571Y-85371428D01*
X96228571Y-85971428D01*
X97857142Y-64371428D02*
X97514285Y-64371428D01*
X97685714Y-64971428D02*
X97685714Y-64371428D01*
X97314285Y-64971428D02*
X97314285Y-64371428D01*
X97314285Y-64657142D02*
X96971428Y-64657142D01*
X96971428Y-64971428D02*
X96971428Y-64371428D01*
X96571428Y-64371428D02*
X96514285Y-64371428D01*
X96457142Y-64400000D01*
X96428571Y-64428571D01*
X96400000Y-64485714D01*
X96371428Y-64600000D01*
X96371428Y-64742857D01*
X96400000Y-64857142D01*
X96428571Y-64914285D01*
X96457142Y-64942857D01*
X96514285Y-64971428D01*
X96571428Y-64971428D01*
X96628571Y-64942857D01*
X96657142Y-64914285D01*
X96685714Y-64857142D01*
X96714285Y-64742857D01*
X96714285Y-64600000D01*
X96685714Y-64485714D01*
X96657142Y-64428571D01*
X96628571Y-64400000D01*
X96571428Y-64371428D01*
X95742857Y-64371428D02*
X95542857Y-64971428D01*
X95342857Y-64371428D01*
X94800000Y-64914285D02*
X94828571Y-64942857D01*
X94914285Y-64971428D01*
X94971428Y-64971428D01*
X95057142Y-64942857D01*
X95114285Y-64885714D01*
X95142857Y-64828571D01*
X95171428Y-64714285D01*
X95171428Y-64628571D01*
X95142857Y-64514285D01*
X95114285Y-64457142D01*
X95057142Y-64400000D01*
X94971428Y-64371428D01*
X94914285Y-64371428D01*
X94828571Y-64400000D01*
X94800000Y-64428571D01*
X94200000Y-64914285D02*
X94228571Y-64942857D01*
X94314285Y-64971428D01*
X94371428Y-64971428D01*
X94457142Y-64942857D01*
X94514285Y-64885714D01*
X94542857Y-64828571D01*
X94571428Y-64714285D01*
X94571428Y-64628571D01*
X94542857Y-64514285D01*
X94514285Y-64457142D01*
X94457142Y-64400000D01*
X94371428Y-64371428D01*
X94314285Y-64371428D01*
X94228571Y-64400000D01*
X94200000Y-64428571D01*
X103085714Y-70657142D02*
X103285714Y-70657142D01*
X103285714Y-70971428D02*
X103285714Y-70371428D01*
X103000000Y-70371428D01*
X102514285Y-70971428D02*
X102514285Y-70657142D01*
X102542857Y-70600000D01*
X102600000Y-70571428D01*
X102714285Y-70571428D01*
X102771428Y-70600000D01*
X102514285Y-70942857D02*
X102571428Y-70971428D01*
X102714285Y-70971428D01*
X102771428Y-70942857D01*
X102800000Y-70885714D01*
X102800000Y-70828571D01*
X102771428Y-70771428D01*
X102714285Y-70742857D01*
X102571428Y-70742857D01*
X102514285Y-70714285D01*
X102228571Y-70571428D02*
X102228571Y-70971428D01*
X102228571Y-70628571D02*
X102200000Y-70600000D01*
X102142857Y-70571428D01*
X102057142Y-70571428D01*
X102000000Y-70600000D01*
X101971428Y-70657142D01*
X101971428Y-70971428D01*
X101371428Y-70971428D02*
X101714285Y-70971428D01*
X101542857Y-70971428D02*
X101542857Y-70371428D01*
X101600000Y-70457142D01*
X101657142Y-70514285D01*
X101714285Y-70542857D01*
X100342857Y-70400000D02*
X100400000Y-70371428D01*
X100485714Y-70371428D01*
X100571428Y-70400000D01*
X100628571Y-70457142D01*
X100657142Y-70514285D01*
X100685714Y-70628571D01*
X100685714Y-70714285D01*
X100657142Y-70828571D01*
X100628571Y-70885714D01*
X100571428Y-70942857D01*
X100485714Y-70971428D01*
X100428571Y-70971428D01*
X100342857Y-70942857D01*
X100314285Y-70914285D01*
X100314285Y-70714285D01*
X100428571Y-70714285D01*
X100057142Y-70971428D02*
X100057142Y-70371428D01*
X99714285Y-70971428D01*
X99714285Y-70371428D01*
X99428571Y-70971428D02*
X99428571Y-70371428D01*
X99285714Y-70371428D01*
X99200000Y-70400000D01*
X99142857Y-70457142D01*
X99114285Y-70514285D01*
X99085714Y-70628571D01*
X99085714Y-70714285D01*
X99114285Y-70828571D01*
X99142857Y-70885714D01*
X99200000Y-70942857D01*
X99285714Y-70971428D01*
X99428571Y-70971428D01*
X55857142Y-85100000D02*
X55914285Y-85071428D01*
X56000000Y-85071428D01*
X56085714Y-85100000D01*
X56142857Y-85157142D01*
X56171428Y-85214285D01*
X56200000Y-85328571D01*
X56200000Y-85414285D01*
X56171428Y-85528571D01*
X56142857Y-85585714D01*
X56085714Y-85642857D01*
X56000000Y-85671428D01*
X55942857Y-85671428D01*
X55857142Y-85642857D01*
X55828571Y-85614285D01*
X55828571Y-85414285D01*
X55942857Y-85414285D01*
X55571428Y-85671428D02*
X55571428Y-85071428D01*
X55228571Y-85671428D01*
X55228571Y-85071428D01*
X54942857Y-85671428D02*
X54942857Y-85071428D01*
X54800000Y-85071428D01*
X54714285Y-85100000D01*
X54657142Y-85157142D01*
X54628571Y-85214285D01*
X54600000Y-85328571D01*
X54600000Y-85414285D01*
X54628571Y-85528571D01*
X54657142Y-85585714D01*
X54714285Y-85642857D01*
X54800000Y-85671428D01*
X54942857Y-85671428D01*
D12*
X115978000Y-69171333D02*
X116044666Y-69371333D01*
X116111333Y-69438000D01*
X116244666Y-69504666D01*
X116444666Y-69504666D01*
X116578000Y-69438000D01*
X116644666Y-69371333D01*
X116711333Y-69238000D01*
X116711333Y-68704666D01*
X115311333Y-68704666D01*
X115311333Y-69171333D01*
X115378000Y-69304666D01*
X115444666Y-69371333D01*
X115578000Y-69438000D01*
X115711333Y-69438000D01*
X115844666Y-69371333D01*
X115911333Y-69304666D01*
X115978000Y-69171333D01*
X115978000Y-68704666D01*
X116711333Y-70104666D02*
X115778000Y-70104666D01*
X116044666Y-70104666D02*
X115911333Y-70171333D01*
X115844666Y-70238000D01*
X115778000Y-70371333D01*
X115778000Y-70504666D01*
X116644666Y-71504666D02*
X116711333Y-71371333D01*
X116711333Y-71104666D01*
X116644666Y-70971333D01*
X116511333Y-70904666D01*
X115978000Y-70904666D01*
X115844666Y-70971333D01*
X115778000Y-71104666D01*
X115778000Y-71371333D01*
X115844666Y-71504666D01*
X115978000Y-71571333D01*
X116111333Y-71571333D01*
X116244666Y-70904666D01*
X116711333Y-72771333D02*
X115978000Y-72771333D01*
X115844666Y-72704666D01*
X115778000Y-72571333D01*
X115778000Y-72304666D01*
X115844666Y-72171333D01*
X116644666Y-72771333D02*
X116711333Y-72638000D01*
X116711333Y-72304666D01*
X116644666Y-72171333D01*
X116511333Y-72104666D01*
X116378000Y-72104666D01*
X116244666Y-72171333D01*
X116178000Y-72304666D01*
X116178000Y-72638000D01*
X116111333Y-72771333D01*
X116711333Y-73438000D02*
X115311333Y-73438000D01*
X116178000Y-73571333D02*
X116711333Y-73971333D01*
X115778000Y-73971333D02*
X116311333Y-73438000D01*
X116711333Y-74571333D02*
X115311333Y-74571333D01*
X115844666Y-74571333D02*
X115778000Y-74704666D01*
X115778000Y-74971333D01*
X115844666Y-75104666D01*
X115911333Y-75171333D01*
X116044666Y-75238000D01*
X116444666Y-75238000D01*
X116578000Y-75171333D01*
X116644666Y-75104666D01*
X116711333Y-74971333D01*
X116711333Y-74704666D01*
X116644666Y-74571333D01*
X116711333Y-76038000D02*
X116644666Y-75904666D01*
X116578000Y-75838000D01*
X116444666Y-75771333D01*
X116044666Y-75771333D01*
X115911333Y-75838000D01*
X115844666Y-75904666D01*
X115778000Y-76038000D01*
X115778000Y-76238000D01*
X115844666Y-76371333D01*
X115911333Y-76438000D01*
X116044666Y-76504666D01*
X116444666Y-76504666D01*
X116578000Y-76438000D01*
X116644666Y-76371333D01*
X116711333Y-76238000D01*
X116711333Y-76038000D01*
X116711333Y-76971333D02*
X115778000Y-77704666D01*
X115778000Y-76971333D02*
X116711333Y-77704666D01*
X115311333Y-79571333D02*
X115311333Y-79838000D01*
X115378000Y-79971333D01*
X115511333Y-80104666D01*
X115778000Y-80171333D01*
X116244666Y-80171333D01*
X116511333Y-80104666D01*
X116644666Y-79971333D01*
X116711333Y-79838000D01*
X116711333Y-79571333D01*
X116644666Y-79438000D01*
X116511333Y-79304666D01*
X116244666Y-79238000D01*
X115778000Y-79238000D01*
X115511333Y-79304666D01*
X115378000Y-79438000D01*
X115311333Y-79571333D01*
X115778000Y-81371333D02*
X116711333Y-81371333D01*
X115778000Y-80771333D02*
X116511333Y-80771333D01*
X116644666Y-80838000D01*
X116711333Y-80971333D01*
X116711333Y-81171333D01*
X116644666Y-81304666D01*
X116578000Y-81371333D01*
X115778000Y-81838000D02*
X115778000Y-82371333D01*
X115311333Y-82038000D02*
X116511333Y-82038000D01*
X116644666Y-82104666D01*
X116711333Y-82238000D01*
X116711333Y-82371333D01*
D11*
X97700000Y-76871428D02*
X97700000Y-76271428D01*
X97471428Y-76271428D01*
X97414285Y-76300000D01*
X97385714Y-76328571D01*
X97357142Y-76385714D01*
X97357142Y-76471428D01*
X97385714Y-76528571D01*
X97414285Y-76557142D01*
X97471428Y-76585714D01*
X97700000Y-76585714D01*
X97100000Y-76871428D02*
X97100000Y-76471428D01*
X97100000Y-76585714D02*
X97071428Y-76528571D01*
X97042857Y-76500000D01*
X96985714Y-76471428D01*
X96928571Y-76471428D01*
X96642857Y-76871428D02*
X96700000Y-76842857D01*
X96728571Y-76814285D01*
X96757142Y-76757142D01*
X96757142Y-76585714D01*
X96728571Y-76528571D01*
X96700000Y-76500000D01*
X96642857Y-76471428D01*
X96557142Y-76471428D01*
X96500000Y-76500000D01*
X96471428Y-76528571D01*
X96442857Y-76585714D01*
X96442857Y-76757142D01*
X96471428Y-76814285D01*
X96500000Y-76842857D01*
X96557142Y-76871428D01*
X96642857Y-76871428D01*
X96185714Y-76871428D02*
X96185714Y-76271428D01*
X96185714Y-76500000D02*
X96128571Y-76471428D01*
X96014285Y-76471428D01*
X95957142Y-76500000D01*
X95928571Y-76528571D01*
X95900000Y-76585714D01*
X95900000Y-76757142D01*
X95928571Y-76814285D01*
X95957142Y-76842857D01*
X96014285Y-76871428D01*
X96128571Y-76871428D01*
X96185714Y-76842857D01*
X95414285Y-76842857D02*
X95471428Y-76871428D01*
X95585714Y-76871428D01*
X95642857Y-76842857D01*
X95671428Y-76785714D01*
X95671428Y-76557142D01*
X95642857Y-76500000D01*
X95585714Y-76471428D01*
X95471428Y-76471428D01*
X95414285Y-76500000D01*
X95385714Y-76557142D01*
X95385714Y-76614285D01*
X95671428Y-76671428D01*
X94700000Y-76842857D02*
X94614285Y-76871428D01*
X94471428Y-76871428D01*
X94414285Y-76842857D01*
X94385714Y-76814285D01*
X94357142Y-76757142D01*
X94357142Y-76700000D01*
X94385714Y-76642857D01*
X94414285Y-76614285D01*
X94471428Y-76585714D01*
X94585714Y-76557142D01*
X94642857Y-76528571D01*
X94671428Y-76500000D01*
X94700000Y-76442857D01*
X94700000Y-76385714D01*
X94671428Y-76328571D01*
X94642857Y-76300000D01*
X94585714Y-76271428D01*
X94442857Y-76271428D01*
X94357142Y-76300000D01*
X94100000Y-76871428D02*
X94100000Y-76271428D01*
X93500000Y-76300000D02*
X93557142Y-76271428D01*
X93642857Y-76271428D01*
X93728571Y-76300000D01*
X93785714Y-76357142D01*
X93814285Y-76414285D01*
X93842857Y-76528571D01*
X93842857Y-76614285D01*
X93814285Y-76728571D01*
X93785714Y-76785714D01*
X93728571Y-76842857D01*
X93642857Y-76871428D01*
X93585714Y-76871428D01*
X93500000Y-76842857D01*
X93471428Y-76814285D01*
X93471428Y-76614285D01*
X93585714Y-76614285D01*
X100657142Y-82942857D02*
X100571428Y-82971428D01*
X100428571Y-82971428D01*
X100371428Y-82942857D01*
X100342857Y-82914285D01*
X100314285Y-82857142D01*
X100314285Y-82800000D01*
X100342857Y-82742857D01*
X100371428Y-82714285D01*
X100428571Y-82685714D01*
X100542857Y-82657142D01*
X100600000Y-82628571D01*
X100628571Y-82600000D01*
X100657142Y-82542857D01*
X100657142Y-82485714D01*
X100628571Y-82428571D01*
X100600000Y-82400000D01*
X100542857Y-82371428D01*
X100400000Y-82371428D01*
X100314285Y-82400000D01*
X99742857Y-82971428D02*
X100085714Y-82971428D01*
X99914285Y-82971428D02*
X99914285Y-82371428D01*
X99971428Y-82457142D01*
X100028571Y-82514285D01*
X100085714Y-82542857D01*
X99285714Y-82657142D02*
X99200000Y-82685714D01*
X99171428Y-82714285D01*
X99142857Y-82771428D01*
X99142857Y-82857142D01*
X99171428Y-82914285D01*
X99200000Y-82942857D01*
X99257142Y-82971428D01*
X99485714Y-82971428D01*
X99485714Y-82371428D01*
X99285714Y-82371428D01*
X99228571Y-82400000D01*
X99200000Y-82428571D01*
X99171428Y-82485714D01*
X99171428Y-82542857D01*
X99200000Y-82600000D01*
X99228571Y-82628571D01*
X99285714Y-82657142D01*
X99485714Y-82657142D01*
X100614285Y-85942857D02*
X100528571Y-85971428D01*
X100385714Y-85971428D01*
X100328571Y-85942857D01*
X100300000Y-85914285D01*
X100271428Y-85857142D01*
X100271428Y-85800000D01*
X100300000Y-85742857D01*
X100328571Y-85714285D01*
X100385714Y-85685714D01*
X100500000Y-85657142D01*
X100557142Y-85628571D01*
X100585714Y-85600000D01*
X100614285Y-85542857D01*
X100614285Y-85485714D01*
X100585714Y-85428571D01*
X100557142Y-85400000D01*
X100500000Y-85371428D01*
X100357142Y-85371428D01*
X100271428Y-85400000D01*
X99700000Y-85971428D02*
X100042857Y-85971428D01*
X99871428Y-85971428D02*
X99871428Y-85371428D01*
X99928571Y-85457142D01*
X99985714Y-85514285D01*
X100042857Y-85542857D01*
X99471428Y-85800000D02*
X99185714Y-85800000D01*
X99528571Y-85971428D02*
X99328571Y-85371428D01*
X99128571Y-85971428D01*
X58112000Y-85015428D02*
X57712000Y-85615428D01*
X57712000Y-85015428D02*
X58112000Y-85615428D01*
X66500000Y-88057142D02*
X66300000Y-88057142D01*
X66214285Y-88371428D02*
X66500000Y-88371428D01*
X66500000Y-87771428D01*
X66214285Y-87771428D01*
X65957142Y-87971428D02*
X65957142Y-88371428D01*
X65957142Y-88028571D02*
X65928571Y-88000000D01*
X65871428Y-87971428D01*
X65785714Y-87971428D01*
X65728571Y-88000000D01*
X65700000Y-88057142D01*
X65700000Y-88371428D01*
X65157142Y-88371428D02*
X65157142Y-87771428D01*
X65157142Y-88342857D02*
X65214285Y-88371428D01*
X65328571Y-88371428D01*
X65385714Y-88342857D01*
X65414285Y-88314285D01*
X65442857Y-88257142D01*
X65442857Y-88085714D01*
X65414285Y-88028571D01*
X65385714Y-88000000D01*
X65328571Y-87971428D01*
X65214285Y-87971428D01*
X65157142Y-88000000D01*
X64900000Y-88342857D02*
X64842857Y-88371428D01*
X64728571Y-88371428D01*
X64671428Y-88342857D01*
X64642857Y-88285714D01*
X64642857Y-88257142D01*
X64671428Y-88200000D01*
X64728571Y-88171428D01*
X64814285Y-88171428D01*
X64871428Y-88142857D01*
X64900000Y-88085714D01*
X64900000Y-88057142D01*
X64871428Y-88000000D01*
X64814285Y-87971428D01*
X64728571Y-87971428D01*
X64671428Y-88000000D01*
X64471428Y-87971428D02*
X64242857Y-87971428D01*
X64385714Y-87771428D02*
X64385714Y-88285714D01*
X64357142Y-88342857D01*
X64300000Y-88371428D01*
X64242857Y-88371428D01*
X63957142Y-88371428D02*
X64014285Y-88342857D01*
X64042857Y-88314285D01*
X64071428Y-88257142D01*
X64071428Y-88085714D01*
X64042857Y-88028571D01*
X64014285Y-88000000D01*
X63957142Y-87971428D01*
X63871428Y-87971428D01*
X63814285Y-88000000D01*
X63785714Y-88028571D01*
X63757142Y-88085714D01*
X63757142Y-88257142D01*
X63785714Y-88314285D01*
X63814285Y-88342857D01*
X63871428Y-88371428D01*
X63957142Y-88371428D01*
X63500000Y-87971428D02*
X63500000Y-88571428D01*
X63500000Y-88000000D02*
X63442857Y-87971428D01*
X63328571Y-87971428D01*
X63271428Y-88000000D01*
X63242857Y-88028571D01*
X63214285Y-88085714D01*
X63214285Y-88257142D01*
X63242857Y-88314285D01*
X63271428Y-88342857D01*
X63328571Y-88371428D01*
X63442857Y-88371428D01*
X63500000Y-88342857D01*
X62557142Y-87771428D02*
X62157142Y-88371428D01*
X62157142Y-87771428D02*
X62557142Y-88371428D01*
X61500000Y-87742857D02*
X62014285Y-88514285D01*
X61185714Y-88085714D02*
X61185714Y-88371428D01*
X61385714Y-87771428D02*
X61185714Y-88085714D01*
X60985714Y-87771428D01*
X60214285Y-87771428D02*
X60100000Y-87771428D01*
X60042857Y-87800000D01*
X59985714Y-87857142D01*
X59957142Y-87971428D01*
X59957142Y-88171428D01*
X59985714Y-88285714D01*
X60042857Y-88342857D01*
X60100000Y-88371428D01*
X60214285Y-88371428D01*
X60271428Y-88342857D01*
X60328571Y-88285714D01*
X60357142Y-88171428D01*
X60357142Y-87971428D01*
X60328571Y-87857142D01*
X60271428Y-87800000D01*
X60214285Y-87771428D01*
X59442857Y-87971428D02*
X59442857Y-88371428D01*
X59700000Y-87971428D02*
X59700000Y-88285714D01*
X59671428Y-88342857D01*
X59614285Y-88371428D01*
X59528571Y-88371428D01*
X59471428Y-88342857D01*
X59442857Y-88314285D01*
X59242857Y-87971428D02*
X59014285Y-87971428D01*
X59157142Y-87771428D02*
X59157142Y-88285714D01*
X59128571Y-88342857D01*
X59071428Y-88371428D01*
X59014285Y-88371428D01*
X97728571Y-61971428D02*
X97728571Y-61371428D01*
X97728571Y-61657142D02*
X97385714Y-61657142D01*
X97385714Y-61971428D02*
X97385714Y-61371428D01*
X97100000Y-61657142D02*
X96900000Y-61657142D01*
X96814285Y-61971428D02*
X97100000Y-61971428D01*
X97100000Y-61371428D01*
X96814285Y-61371428D01*
X96185714Y-61371428D02*
X95985714Y-61971428D01*
X95785714Y-61371428D01*
X95242857Y-61914285D02*
X95271428Y-61942857D01*
X95357142Y-61971428D01*
X95414285Y-61971428D01*
X95500000Y-61942857D01*
X95557142Y-61885714D01*
X95585714Y-61828571D01*
X95614285Y-61714285D01*
X95614285Y-61628571D01*
X95585714Y-61514285D01*
X95557142Y-61457142D01*
X95500000Y-61400000D01*
X95414285Y-61371428D01*
X95357142Y-61371428D01*
X95271428Y-61400000D01*
X95242857Y-61428571D01*
X94642857Y-61914285D02*
X94671428Y-61942857D01*
X94757142Y-61971428D01*
X94814285Y-61971428D01*
X94900000Y-61942857D01*
X94957142Y-61885714D01*
X94985714Y-61828571D01*
X95014285Y-61714285D01*
X95014285Y-61628571D01*
X94985714Y-61514285D01*
X94957142Y-61457142D01*
X94900000Y-61400000D01*
X94814285Y-61371428D01*
X94757142Y-61371428D01*
X94671428Y-61400000D01*
X94642857Y-61428571D01*
X97657142Y-82942857D02*
X97571428Y-82971428D01*
X97428571Y-82971428D01*
X97371428Y-82942857D01*
X97342857Y-82914285D01*
X97314285Y-82857142D01*
X97314285Y-82800000D01*
X97342857Y-82742857D01*
X97371428Y-82714285D01*
X97428571Y-82685714D01*
X97542857Y-82657142D01*
X97600000Y-82628571D01*
X97628571Y-82600000D01*
X97657142Y-82542857D01*
X97657142Y-82485714D01*
X97628571Y-82428571D01*
X97600000Y-82400000D01*
X97542857Y-82371428D01*
X97400000Y-82371428D01*
X97314285Y-82400000D01*
X97085714Y-82428571D02*
X97057142Y-82400000D01*
X97000000Y-82371428D01*
X96857142Y-82371428D01*
X96800000Y-82400000D01*
X96771428Y-82428571D01*
X96742857Y-82485714D01*
X96742857Y-82542857D01*
X96771428Y-82628571D01*
X97114285Y-82971428D01*
X96742857Y-82971428D01*
X96285714Y-82657142D02*
X96200000Y-82685714D01*
X96171428Y-82714285D01*
X96142857Y-82771428D01*
X96142857Y-82857142D01*
X96171428Y-82914285D01*
X96200000Y-82942857D01*
X96257142Y-82971428D01*
X96485714Y-82971428D01*
X96485714Y-82371428D01*
X96285714Y-82371428D01*
X96228571Y-82400000D01*
X96200000Y-82428571D01*
X96171428Y-82485714D01*
X96171428Y-82542857D01*
X96200000Y-82600000D01*
X96228571Y-82628571D01*
X96285714Y-82657142D01*
X96485714Y-82657142D01*
X102557142Y-79971428D02*
X102557142Y-79371428D01*
X102214285Y-79971428D01*
X102214285Y-79371428D01*
X101700000Y-79942857D02*
X101757142Y-79971428D01*
X101871428Y-79971428D01*
X101928571Y-79942857D01*
X101957142Y-79885714D01*
X101957142Y-79657142D01*
X101928571Y-79600000D01*
X101871428Y-79571428D01*
X101757142Y-79571428D01*
X101700000Y-79600000D01*
X101671428Y-79657142D01*
X101671428Y-79714285D01*
X101957142Y-79771428D01*
X101328571Y-79971428D02*
X101385714Y-79942857D01*
X101414285Y-79914285D01*
X101442857Y-79857142D01*
X101442857Y-79685714D01*
X101414285Y-79628571D01*
X101385714Y-79600000D01*
X101328571Y-79571428D01*
X101242857Y-79571428D01*
X101185714Y-79600000D01*
X101157142Y-79628571D01*
X101128571Y-79685714D01*
X101128571Y-79857142D01*
X101157142Y-79914285D01*
X101185714Y-79942857D01*
X101242857Y-79971428D01*
X101328571Y-79971428D01*
X100442857Y-79942857D02*
X100357142Y-79971428D01*
X100214285Y-79971428D01*
X100157142Y-79942857D01*
X100128571Y-79914285D01*
X100100000Y-79857142D01*
X100100000Y-79800000D01*
X100128571Y-79742857D01*
X100157142Y-79714285D01*
X100214285Y-79685714D01*
X100328571Y-79657142D01*
X100385714Y-79628571D01*
X100414285Y-79600000D01*
X100442857Y-79542857D01*
X100442857Y-79485714D01*
X100414285Y-79428571D01*
X100385714Y-79400000D01*
X100328571Y-79371428D01*
X100185714Y-79371428D01*
X100100000Y-79400000D01*
X99842857Y-79971428D02*
X99842857Y-79371428D01*
X99242857Y-79400000D02*
X99300000Y-79371428D01*
X99385714Y-79371428D01*
X99471428Y-79400000D01*
X99528571Y-79457142D01*
X99557142Y-79514285D01*
X99585714Y-79628571D01*
X99585714Y-79714285D01*
X99557142Y-79828571D01*
X99528571Y-79885714D01*
X99471428Y-79942857D01*
X99385714Y-79971428D01*
X99328571Y-79971428D01*
X99242857Y-79942857D01*
X99214285Y-79914285D01*
X99214285Y-79714285D01*
X99328571Y-79714285D01*
X97685714Y-79971428D02*
X97685714Y-79371428D01*
X97342857Y-79971428D01*
X97342857Y-79371428D01*
X96828571Y-79942857D02*
X96885714Y-79971428D01*
X97000000Y-79971428D01*
X97057142Y-79942857D01*
X97085714Y-79885714D01*
X97085714Y-79657142D01*
X97057142Y-79600000D01*
X97000000Y-79571428D01*
X96885714Y-79571428D01*
X96828571Y-79600000D01*
X96800000Y-79657142D01*
X96800000Y-79714285D01*
X97085714Y-79771428D01*
X96457142Y-79971428D02*
X96514285Y-79942857D01*
X96542857Y-79914285D01*
X96571428Y-79857142D01*
X96571428Y-79685714D01*
X96542857Y-79628571D01*
X96514285Y-79600000D01*
X96457142Y-79571428D01*
X96371428Y-79571428D01*
X96314285Y-79600000D01*
X96285714Y-79628571D01*
X96257142Y-79685714D01*
X96257142Y-79857142D01*
X96285714Y-79914285D01*
X96314285Y-79942857D01*
X96371428Y-79971428D01*
X96457142Y-79971428D01*
X95628571Y-79371428D02*
X95428571Y-79971428D01*
X95228571Y-79371428D01*
X94685714Y-79914285D02*
X94714285Y-79942857D01*
X94800000Y-79971428D01*
X94857142Y-79971428D01*
X94942857Y-79942857D01*
X95000000Y-79885714D01*
X95028571Y-79828571D01*
X95057142Y-79714285D01*
X95057142Y-79628571D01*
X95028571Y-79514285D01*
X95000000Y-79457142D01*
X94942857Y-79400000D01*
X94857142Y-79371428D01*
X94800000Y-79371428D01*
X94714285Y-79400000D01*
X94685714Y-79428571D01*
X94085714Y-79914285D02*
X94114285Y-79942857D01*
X94200000Y-79971428D01*
X94257142Y-79971428D01*
X94342857Y-79942857D01*
X94400000Y-79885714D01*
X94428571Y-79828571D01*
X94457142Y-79714285D01*
X94457142Y-79628571D01*
X94428571Y-79514285D01*
X94400000Y-79457142D01*
X94342857Y-79400000D01*
X94257142Y-79371428D01*
X94200000Y-79371428D01*
X94114285Y-79400000D01*
X94085714Y-79428571D01*
X102085714Y-61971428D02*
X102085714Y-61371428D01*
X102085714Y-61657142D02*
X101742857Y-61657142D01*
X101742857Y-61971428D02*
X101742857Y-61371428D01*
X101457142Y-61657142D02*
X101257142Y-61657142D01*
X101171428Y-61971428D02*
X101457142Y-61971428D01*
X101457142Y-61371428D01*
X101171428Y-61371428D01*
X100142857Y-61400000D02*
X100200000Y-61371428D01*
X100285714Y-61371428D01*
X100371428Y-61400000D01*
X100428571Y-61457142D01*
X100457142Y-61514285D01*
X100485714Y-61628571D01*
X100485714Y-61714285D01*
X100457142Y-61828571D01*
X100428571Y-61885714D01*
X100371428Y-61942857D01*
X100285714Y-61971428D01*
X100228571Y-61971428D01*
X100142857Y-61942857D01*
X100114285Y-61914285D01*
X100114285Y-61714285D01*
X100228571Y-61714285D01*
X99857142Y-61971428D02*
X99857142Y-61371428D01*
X99514285Y-61971428D01*
X99514285Y-61371428D01*
X99228571Y-61971428D02*
X99228571Y-61371428D01*
X99085714Y-61371428D01*
X99000000Y-61400000D01*
X98942857Y-61457142D01*
X98914285Y-61514285D01*
X98885714Y-61628571D01*
X98885714Y-61714285D01*
X98914285Y-61828571D01*
X98942857Y-61885714D01*
X99000000Y-61942857D01*
X99085714Y-61971428D01*
X99228571Y-61971428D01*
X102985714Y-67657142D02*
X103185714Y-67657142D01*
X103185714Y-67971428D02*
X103185714Y-67371428D01*
X102900000Y-67371428D01*
X102414285Y-67971428D02*
X102414285Y-67657142D01*
X102442857Y-67600000D01*
X102500000Y-67571428D01*
X102614285Y-67571428D01*
X102671428Y-67600000D01*
X102414285Y-67942857D02*
X102471428Y-67971428D01*
X102614285Y-67971428D01*
X102671428Y-67942857D01*
X102700000Y-67885714D01*
X102700000Y-67828571D01*
X102671428Y-67771428D01*
X102614285Y-67742857D01*
X102471428Y-67742857D01*
X102414285Y-67714285D01*
X102128571Y-67571428D02*
X102128571Y-67971428D01*
X102128571Y-67628571D02*
X102100000Y-67600000D01*
X102042857Y-67571428D01*
X101957142Y-67571428D01*
X101900000Y-67600000D01*
X101871428Y-67657142D01*
X101871428Y-67971428D01*
X101471428Y-67371428D02*
X101414285Y-67371428D01*
X101357142Y-67400000D01*
X101328571Y-67428571D01*
X101300000Y-67485714D01*
X101271428Y-67600000D01*
X101271428Y-67742857D01*
X101300000Y-67857142D01*
X101328571Y-67914285D01*
X101357142Y-67942857D01*
X101414285Y-67971428D01*
X101471428Y-67971428D01*
X101528571Y-67942857D01*
X101557142Y-67914285D01*
X101585714Y-67857142D01*
X101614285Y-67742857D01*
X101614285Y-67600000D01*
X101585714Y-67485714D01*
X101557142Y-67428571D01*
X101528571Y-67400000D01*
X101471428Y-67371428D01*
X100242857Y-67400000D02*
X100300000Y-67371428D01*
X100385714Y-67371428D01*
X100471428Y-67400000D01*
X100528571Y-67457142D01*
X100557142Y-67514285D01*
X100585714Y-67628571D01*
X100585714Y-67714285D01*
X100557142Y-67828571D01*
X100528571Y-67885714D01*
X100471428Y-67942857D01*
X100385714Y-67971428D01*
X100328571Y-67971428D01*
X100242857Y-67942857D01*
X100214285Y-67914285D01*
X100214285Y-67714285D01*
X100328571Y-67714285D01*
X99957142Y-67971428D02*
X99957142Y-67371428D01*
X99614285Y-67971428D01*
X99614285Y-67371428D01*
X99328571Y-67971428D02*
X99328571Y-67371428D01*
X99185714Y-67371428D01*
X99100000Y-67400000D01*
X99042857Y-67457142D01*
X99014285Y-67514285D01*
X98985714Y-67628571D01*
X98985714Y-67714285D01*
X99014285Y-67828571D01*
X99042857Y-67885714D01*
X99100000Y-67942857D01*
X99185714Y-67971428D01*
X99328571Y-67971428D01*
%TO.C,G\u002A\u002A\u002A*%
G36*
X79883323Y-64141929D02*
G01*
X79921187Y-64173656D01*
X79938985Y-64212234D01*
X79926079Y-64260747D01*
X79876378Y-64314407D01*
X79789104Y-64374394D01*
X79711934Y-64422569D01*
X79624019Y-64481027D01*
X79550243Y-64533545D01*
X79492807Y-64572535D01*
X79444852Y-64597662D01*
X79416760Y-64603486D01*
X79405318Y-64599536D01*
X79375231Y-64593230D01*
X79361895Y-64586076D01*
X79342669Y-64553498D01*
X79330868Y-64509847D01*
X79332516Y-64472195D01*
X79346672Y-64450791D01*
X79390111Y-64407779D01*
X79454492Y-64354530D01*
X79532454Y-64296704D01*
X79616631Y-64239961D01*
X79699661Y-64189962D01*
X79776010Y-64151701D01*
X79837356Y-64134432D01*
X79883323Y-64141929D01*
G37*
G36*
X85400847Y-66783062D02*
G01*
X85313140Y-66885510D01*
X85265165Y-66924815D01*
X85203287Y-66966785D01*
X85153706Y-66991206D01*
X85137831Y-66995984D01*
X85008960Y-67013471D01*
X84884281Y-66995098D01*
X84770201Y-66943626D01*
X84673128Y-66861814D01*
X84599469Y-66752423D01*
X84565067Y-66658994D01*
X84551305Y-66542515D01*
X84746770Y-66542515D01*
X84760621Y-66616928D01*
X84799653Y-66696675D01*
X84854498Y-66758719D01*
X84898605Y-66782579D01*
X84978517Y-66799458D01*
X85064364Y-66796128D01*
X85139624Y-66771829D01*
X85179364Y-66743268D01*
X85231383Y-66673581D01*
X85258729Y-66588777D01*
X85258466Y-66500573D01*
X85227657Y-66420684D01*
X85220622Y-66410620D01*
X85160118Y-66351597D01*
X85084720Y-66309349D01*
X85010234Y-66293150D01*
X84962121Y-66298915D01*
X84881507Y-66333214D01*
X84812698Y-66390968D01*
X84764763Y-66463596D01*
X84746770Y-66542515D01*
X84551305Y-66542515D01*
X84550399Y-66534844D01*
X84569253Y-66415268D01*
X84621216Y-66308678D01*
X84657337Y-66261395D01*
X84749076Y-66175218D01*
X84853996Y-66122958D01*
X84977978Y-66101194D01*
X85010580Y-66100146D01*
X85145042Y-66115756D01*
X85258895Y-66164508D01*
X85351807Y-66246208D01*
X85423448Y-66360663D01*
X85446031Y-66417878D01*
X85468242Y-66544730D01*
X85462746Y-66588777D01*
X85452865Y-66667963D01*
X85400847Y-66783062D01*
G37*
G36*
X82984391Y-67797549D02*
G01*
X83031500Y-67815158D01*
X83070040Y-67856258D01*
X83086000Y-67906049D01*
X83085077Y-67913175D01*
X83063853Y-67956195D01*
X83016897Y-68019367D01*
X82947301Y-68098405D01*
X82916632Y-68130703D01*
X82848059Y-68196984D01*
X82797630Y-68234867D01*
X82762136Y-68246923D01*
X82727272Y-68237369D01*
X82688938Y-68204996D01*
X82666289Y-68162315D01*
X82669249Y-68122609D01*
X82672521Y-68117134D01*
X82703493Y-68075162D01*
X82750428Y-68020067D01*
X82806431Y-67958987D01*
X82864610Y-67899058D01*
X82918071Y-67847416D01*
X82959919Y-67811197D01*
X82983262Y-67797538D01*
X82984391Y-67797549D01*
G37*
G36*
X82714431Y-66200092D02*
G01*
X82713119Y-66252512D01*
X82707238Y-66286414D01*
X82695950Y-66309490D01*
X82678418Y-66329429D01*
X82642511Y-66358407D01*
X82612193Y-66371082D01*
X82600525Y-66366973D01*
X82556345Y-66346769D01*
X82482743Y-66311118D01*
X82382779Y-66261599D01*
X82259511Y-66199793D01*
X82116000Y-66127277D01*
X81955304Y-66045633D01*
X81780483Y-65956440D01*
X81594597Y-65861277D01*
X81400705Y-65761724D01*
X81201866Y-65659360D01*
X81001140Y-65555766D01*
X80801586Y-65452520D01*
X80606265Y-65351202D01*
X80418234Y-65253393D01*
X80240554Y-65160671D01*
X80076283Y-65074616D01*
X79928483Y-64996808D01*
X79800211Y-64928826D01*
X79694527Y-64872251D01*
X79614492Y-64828660D01*
X79563163Y-64799635D01*
X79543601Y-64786755D01*
X79534891Y-64768298D01*
X79536533Y-64722847D01*
X79817878Y-64722847D01*
X81157815Y-65410269D01*
X81199839Y-65431826D01*
X81410753Y-65539946D01*
X81610981Y-65642470D01*
X81797848Y-65738035D01*
X81968680Y-65825279D01*
X82120802Y-65902839D01*
X82251540Y-65969353D01*
X82358219Y-66023457D01*
X82438164Y-66063790D01*
X82488702Y-66088989D01*
X82507157Y-66097692D01*
X82512007Y-66083152D01*
X82510956Y-66037860D01*
X82504117Y-65969803D01*
X82492505Y-65887157D01*
X82477139Y-65798098D01*
X82459034Y-65710804D01*
X82420824Y-65572661D01*
X82327376Y-65345872D01*
X82201700Y-65136315D01*
X82046846Y-64947029D01*
X81865865Y-64781051D01*
X81661806Y-64641420D01*
X81437720Y-64531175D01*
X81196657Y-64453354D01*
X81011803Y-64421672D01*
X80804246Y-64410536D01*
X80595638Y-64421352D01*
X80401865Y-64454106D01*
X80347868Y-64468545D01*
X80237568Y-64504548D01*
X80123727Y-64548564D01*
X80016694Y-64596161D01*
X79926816Y-64642905D01*
X79864439Y-64684364D01*
X79817878Y-64722847D01*
X79536533Y-64722847D01*
X79536888Y-64713023D01*
X79577268Y-64651453D01*
X79656103Y-64583461D01*
X79671209Y-64572591D01*
X79905737Y-64428135D01*
X80151139Y-64319673D01*
X80404123Y-64247016D01*
X80661400Y-64209974D01*
X80919676Y-64208357D01*
X81175662Y-64241975D01*
X81426066Y-64310640D01*
X81667597Y-64414160D01*
X81896964Y-64552346D01*
X82110875Y-64725009D01*
X82257079Y-64877083D01*
X82397975Y-65067421D01*
X82520611Y-65286846D01*
X82588770Y-65441664D01*
X82649861Y-65630395D01*
X82688805Y-65829241D01*
X82708756Y-66051006D01*
X82710242Y-66083152D01*
X82712012Y-66121462D01*
X82714431Y-66200092D01*
G37*
G36*
X82922489Y-63796994D02*
G01*
X82948514Y-63809637D01*
X82983844Y-63838547D01*
X83034267Y-63887822D01*
X83105573Y-63961559D01*
X83185362Y-64048914D01*
X83366608Y-64279258D01*
X83530551Y-64532755D01*
X83670708Y-64798792D01*
X83780596Y-65066755D01*
X83798936Y-65120107D01*
X83816166Y-65176915D01*
X83821592Y-65213666D01*
X83816240Y-65240367D01*
X83801137Y-65267024D01*
X83771668Y-65299412D01*
X83721752Y-65314747D01*
X83666981Y-65291730D01*
X83663462Y-65288513D01*
X83640145Y-65253035D01*
X83611474Y-65193463D01*
X83582851Y-65120769D01*
X83580211Y-65113353D01*
X83470568Y-64847836D01*
X83335303Y-64596511D01*
X83170144Y-64352308D01*
X82970818Y-64108154D01*
X82946060Y-64080042D01*
X82881634Y-64005054D01*
X82839410Y-63951438D01*
X82815843Y-63913816D01*
X82807385Y-63886809D01*
X82810488Y-63865036D01*
X82835317Y-63830749D01*
X82880473Y-63802201D01*
X82899981Y-63796520D01*
X82922489Y-63796994D01*
G37*
G36*
X79152140Y-64826417D02*
G01*
X79166617Y-64835836D01*
X79216006Y-64884821D01*
X79229735Y-64936100D01*
X79206349Y-64985400D01*
X79161848Y-65016181D01*
X79101380Y-65017369D01*
X79026229Y-64983815D01*
X79007650Y-64971920D01*
X78961344Y-64930043D01*
X78950121Y-64887426D01*
X78971456Y-64837310D01*
X78973314Y-64834541D01*
X79018377Y-64796359D01*
X79077562Y-64793677D01*
X79152140Y-64826417D01*
G37*
G36*
X83818000Y-65396697D02*
G01*
X83856438Y-65414991D01*
X83883219Y-65457579D01*
X83904624Y-65531846D01*
X83912718Y-65574923D01*
X83912550Y-65623808D01*
X83895428Y-65662961D01*
X83868743Y-65689925D01*
X83818693Y-65706923D01*
X83817735Y-65706917D01*
X83766717Y-65687800D01*
X83727103Y-65633753D01*
X83701119Y-65547788D01*
X83697812Y-65524886D01*
X83702779Y-65454642D01*
X83733384Y-65409966D01*
X83787680Y-65394307D01*
X83818000Y-65396697D01*
G37*
G36*
X81103346Y-63923058D02*
G01*
X81382196Y-63980369D01*
X81651126Y-64072810D01*
X81906840Y-64199476D01*
X82146038Y-64359463D01*
X82365425Y-64551865D01*
X82417992Y-64606854D01*
X82509172Y-64712861D01*
X82597150Y-64827252D01*
X82677992Y-64943890D01*
X82747766Y-65056637D01*
X82802538Y-65159355D01*
X82838376Y-65245909D01*
X82851348Y-65310161D01*
X82840891Y-65345531D01*
X82808114Y-65383430D01*
X82777058Y-65403946D01*
X82757984Y-65413846D01*
X82745883Y-65411922D01*
X82704527Y-65382316D01*
X82655656Y-65316308D01*
X82598608Y-65213067D01*
X82559023Y-65138454D01*
X82409886Y-64910549D01*
X82230530Y-64703872D01*
X82024968Y-64522119D01*
X81797208Y-64368983D01*
X81551262Y-64248162D01*
X81314005Y-64168807D01*
X81045276Y-64118064D01*
X80768023Y-64105230D01*
X80482841Y-64130328D01*
X80190326Y-64193384D01*
X80156422Y-64202706D01*
X80099952Y-64216574D01*
X80065515Y-64219659D01*
X80042266Y-64211968D01*
X80019365Y-64193509D01*
X80011856Y-64186386D01*
X79980983Y-64137480D01*
X79988943Y-64091237D01*
X80035590Y-64047799D01*
X80120780Y-64007311D01*
X80244369Y-63969917D01*
X80529080Y-63917444D01*
X80817875Y-63901781D01*
X81103346Y-63923058D01*
G37*
G36*
X83440570Y-67701303D02*
G01*
X83490398Y-67717543D01*
X83559282Y-67747845D01*
X83638072Y-67787274D01*
X83717617Y-67830893D01*
X83788765Y-67873768D01*
X83842367Y-67910963D01*
X83869270Y-67937542D01*
X83878677Y-67977693D01*
X83858708Y-68023541D01*
X83827939Y-68054794D01*
X83784050Y-68070608D01*
X83763808Y-68067283D01*
X83709176Y-68047884D01*
X83637971Y-68015340D01*
X83558914Y-67974472D01*
X83480725Y-67930104D01*
X83412122Y-67887057D01*
X83361825Y-67850154D01*
X83338554Y-67824218D01*
X83334689Y-67808694D01*
X83343441Y-67757213D01*
X83377981Y-67716435D01*
X83428550Y-67699846D01*
X83440570Y-67701303D01*
G37*
G36*
X79610949Y-66913321D02*
G01*
X79669943Y-66962269D01*
X79703360Y-66999179D01*
X79760802Y-67075027D01*
X79786675Y-67135586D01*
X79782108Y-67184656D01*
X79748228Y-67226038D01*
X79720259Y-67243328D01*
X79677837Y-67246221D01*
X79629904Y-67218977D01*
X79570293Y-67159282D01*
X79517892Y-67094125D01*
X79483028Y-67030882D01*
X79478039Y-66980161D01*
X79501405Y-66937059D01*
X79511424Y-66926850D01*
X79559107Y-66901664D01*
X79610949Y-66913321D01*
G37*
G36*
X84652931Y-67789256D02*
G01*
X84841138Y-67921131D01*
X85059385Y-68071287D01*
X85223393Y-68183671D01*
X85371257Y-68285581D01*
X85491859Y-68369592D01*
X85587885Y-68437720D01*
X85662023Y-68491980D01*
X85716956Y-68534387D01*
X85755372Y-68566957D01*
X85779956Y-68591706D01*
X85793395Y-68610648D01*
X85798374Y-68625800D01*
X85795410Y-68675368D01*
X85767161Y-68719196D01*
X85716416Y-68734984D01*
X85693645Y-68726600D01*
X85638750Y-68701631D01*
X85554705Y-68661474D01*
X85444323Y-68607530D01*
X85310418Y-68541201D01*
X85155804Y-68463887D01*
X84983295Y-68376988D01*
X84795704Y-68281908D01*
X84595845Y-68180045D01*
X84386532Y-68072802D01*
X83831649Y-67787769D01*
X84277846Y-67787769D01*
X84287616Y-67797538D01*
X84297385Y-67787769D01*
X84287616Y-67778000D01*
X84277846Y-67787769D01*
X83831649Y-67787769D01*
X83098218Y-67411019D01*
X82984580Y-67583513D01*
X82946686Y-67639347D01*
X82754687Y-67880637D01*
X82534723Y-68096762D01*
X82289848Y-68285835D01*
X82023121Y-68445967D01*
X81737597Y-68575271D01*
X81436333Y-68671858D01*
X81122385Y-68733840D01*
X81046327Y-68741681D01*
X80901869Y-68747424D01*
X80740040Y-68745342D01*
X80573574Y-68735982D01*
X80415204Y-68719889D01*
X80277666Y-68697610D01*
X80208017Y-68682370D01*
X79904657Y-68592521D01*
X79619050Y-68469515D01*
X79353143Y-68315620D01*
X79108885Y-68133103D01*
X78888226Y-67924230D01*
X78693113Y-67691269D01*
X78525496Y-67436486D01*
X78387324Y-67162150D01*
X78280544Y-66870525D01*
X78207105Y-66563880D01*
X78168958Y-66244482D01*
X78166393Y-66068483D01*
X78184203Y-65828706D01*
X78223469Y-65584152D01*
X78281871Y-65348508D01*
X78357084Y-65135466D01*
X78413007Y-65002367D01*
X78273003Y-64932094D01*
X78237357Y-64914140D01*
X78150703Y-64870217D01*
X78040191Y-64813949D01*
X77909271Y-64747109D01*
X77761392Y-64671472D01*
X77600004Y-64588810D01*
X77428557Y-64500899D01*
X77250498Y-64409511D01*
X77069279Y-64316420D01*
X76980397Y-64270724D01*
X77449154Y-64270724D01*
X77454519Y-64275076D01*
X77490339Y-64295195D01*
X77554033Y-64329532D01*
X77641992Y-64376173D01*
X77750605Y-64433205D01*
X77876263Y-64498715D01*
X78015357Y-64570791D01*
X78181696Y-64657464D01*
X78339468Y-64741521D01*
X78464761Y-64810582D01*
X78556854Y-64864239D01*
X78615026Y-64902084D01*
X78638557Y-64923709D01*
X78642672Y-64937475D01*
X78640662Y-64975420D01*
X78622875Y-65032329D01*
X78587339Y-65115589D01*
X78497575Y-65339970D01*
X78429330Y-65585282D01*
X78389909Y-65841061D01*
X78377231Y-66117230D01*
X78377282Y-66134917D01*
X78394495Y-66429181D01*
X78443764Y-66706237D01*
X78526791Y-66973192D01*
X78645278Y-67237156D01*
X78709280Y-67352953D01*
X78877659Y-67601139D01*
X79074761Y-67825651D01*
X79297346Y-68024106D01*
X79542171Y-68194125D01*
X79805997Y-68333327D01*
X80085581Y-68439330D01*
X80377684Y-68509755D01*
X80488237Y-68524121D01*
X80637387Y-68534128D01*
X80799879Y-68537562D01*
X80962744Y-68534443D01*
X81113013Y-68524786D01*
X81237719Y-68508609D01*
X81255001Y-68505392D01*
X81457686Y-68455230D01*
X81669066Y-68382628D01*
X81877211Y-68292693D01*
X82070192Y-68190531D01*
X82236077Y-68081249D01*
X82361725Y-67979915D01*
X82563258Y-67785855D01*
X82744682Y-67571011D01*
X82896512Y-67345940D01*
X82908283Y-67326370D01*
X82950929Y-67260790D01*
X82988717Y-67210063D01*
X83014606Y-67183854D01*
X83016867Y-67182695D01*
X83033655Y-67180978D01*
X83061991Y-67187143D01*
X83105167Y-67202663D01*
X83166473Y-67229010D01*
X83249200Y-67267657D01*
X83356639Y-67320077D01*
X83492081Y-67387742D01*
X83658817Y-67472124D01*
X83787434Y-67537190D01*
X83915821Y-67601501D01*
X84027854Y-67656940D01*
X84119849Y-67701717D01*
X84188122Y-67734041D01*
X84228991Y-67752119D01*
X84238770Y-67754160D01*
X84234557Y-67750278D01*
X84200654Y-67720369D01*
X84148438Y-67675350D01*
X84087346Y-67623372D01*
X84018487Y-67560262D01*
X83884338Y-67409421D01*
X83759433Y-67233278D01*
X83649318Y-67041006D01*
X83559540Y-66841778D01*
X83495645Y-66644769D01*
X83479554Y-66571805D01*
X83461430Y-66453774D01*
X83447201Y-66309240D01*
X83436139Y-66131956D01*
X83435239Y-66114447D01*
X83425213Y-65964480D01*
X83411728Y-65819527D01*
X83395978Y-65690944D01*
X83379157Y-65590083D01*
X83377205Y-65580593D01*
X83294529Y-65275605D01*
X83177694Y-64987032D01*
X83028875Y-64717006D01*
X82850245Y-64467661D01*
X82643979Y-64241128D01*
X82412250Y-64039540D01*
X82157234Y-63865029D01*
X81881103Y-63719730D01*
X81586033Y-63605773D01*
X81274197Y-63525292D01*
X81166474Y-63508637D01*
X80997435Y-63494733D01*
X80813137Y-63490574D01*
X80626520Y-63496030D01*
X80450523Y-63510968D01*
X80298088Y-63535256D01*
X80125974Y-63576250D01*
X79905343Y-63645171D01*
X79694905Y-63732530D01*
X79483927Y-63842945D01*
X79261674Y-63981033D01*
X79196222Y-64023638D01*
X79009348Y-64134605D01*
X78834008Y-64219999D01*
X78748552Y-64251307D01*
X78660530Y-64283555D01*
X78479240Y-64329012D01*
X78280463Y-64360107D01*
X78111941Y-64370584D01*
X77889982Y-64360594D01*
X77664436Y-64326811D01*
X77449154Y-64270724D01*
X76980397Y-64270724D01*
X76942629Y-64251307D01*
X77380770Y-64251307D01*
X77390539Y-64261077D01*
X77400308Y-64251307D01*
X77390539Y-64241538D01*
X77380770Y-64251307D01*
X76942629Y-64251307D01*
X76888349Y-64223401D01*
X76711156Y-64132226D01*
X76541151Y-64044670D01*
X76381783Y-63962506D01*
X76236501Y-63887509D01*
X76108754Y-63821451D01*
X76001993Y-63766107D01*
X75919667Y-63723250D01*
X75865225Y-63694655D01*
X75842116Y-63682094D01*
X75812997Y-63653549D01*
X75796948Y-63604369D01*
X75804971Y-63554052D01*
X75834362Y-63514865D01*
X75882420Y-63499077D01*
X75899837Y-63503154D01*
X75951752Y-63519275D01*
X76033449Y-63546398D01*
X76141062Y-63583184D01*
X76270722Y-63628296D01*
X76418563Y-63680397D01*
X76580716Y-63738150D01*
X76753314Y-63800217D01*
X76873673Y-63843464D01*
X77047631Y-63905141D01*
X77212328Y-63962588D01*
X77363195Y-64014262D01*
X77495663Y-64058620D01*
X77605162Y-64094119D01*
X77687123Y-64119217D01*
X77736978Y-64132371D01*
X77766240Y-64137789D01*
X77865673Y-64150868D01*
X77978026Y-64159970D01*
X78084154Y-64163384D01*
X78295746Y-64152474D01*
X78503945Y-64116077D01*
X78705887Y-64051708D01*
X78909208Y-63956907D01*
X79121545Y-63829215D01*
X79328490Y-63699341D01*
X79551937Y-63577542D01*
X79771168Y-63479780D01*
X79995867Y-63401796D01*
X80235720Y-63339334D01*
X80305727Y-63324552D01*
X80382359Y-63311526D01*
X80460787Y-63302701D01*
X80550325Y-63297327D01*
X80660292Y-63294653D01*
X80800000Y-63293931D01*
X80838516Y-63294006D01*
X81006798Y-63296899D01*
X81149281Y-63305177D01*
X81276865Y-63320461D01*
X81400451Y-63344368D01*
X81530940Y-63378520D01*
X81679231Y-63424533D01*
X81748159Y-63448020D01*
X82048923Y-63574924D01*
X82331141Y-63734269D01*
X82592304Y-63923558D01*
X82829906Y-64140297D01*
X83041440Y-64381988D01*
X83224399Y-64646137D01*
X83376276Y-64930248D01*
X83494565Y-65231824D01*
X83507659Y-65272906D01*
X83548425Y-65416478D01*
X83579753Y-65558710D01*
X83603298Y-65709680D01*
X83620717Y-65879468D01*
X83633668Y-66078154D01*
X83634447Y-66092932D01*
X83645648Y-66266301D01*
X83659846Y-66409422D01*
X83678577Y-66530469D01*
X83703377Y-66637622D01*
X83735782Y-66739057D01*
X83777327Y-66842952D01*
X83788101Y-66867672D01*
X83834643Y-66968810D01*
X83882366Y-67060580D01*
X83934154Y-67145745D01*
X83992894Y-67227072D01*
X84061472Y-67307325D01*
X84142773Y-67389269D01*
X84239683Y-67475669D01*
X84355089Y-67569290D01*
X84491876Y-67672897D01*
X84604354Y-67754160D01*
X84650873Y-67787769D01*
X84652931Y-67789256D01*
G37*
G36*
X78988478Y-68190227D02*
G01*
X79033565Y-68209669D01*
X79095332Y-68245595D01*
X79163843Y-68292459D01*
X79178517Y-68303198D01*
X79456298Y-68482855D01*
X79745621Y-68625583D01*
X80048990Y-68732448D01*
X80368907Y-68804510D01*
X80483064Y-68818270D01*
X80626327Y-68826690D01*
X80784233Y-68829331D01*
X80946095Y-68826394D01*
X81101230Y-68818079D01*
X81238950Y-68804587D01*
X81348572Y-68786118D01*
X81459565Y-68758770D01*
X81772059Y-68657452D01*
X82065598Y-68525279D01*
X82335439Y-68364279D01*
X82340425Y-68360893D01*
X82433110Y-68303611D01*
X82503400Y-68273494D01*
X82555503Y-68269330D01*
X82593631Y-68289907D01*
X82613076Y-68317157D01*
X82616507Y-68362144D01*
X82588484Y-68414063D01*
X82527668Y-68474463D01*
X82432723Y-68544891D01*
X82302308Y-68626896D01*
X82196643Y-68686155D01*
X81943456Y-68805018D01*
X81672786Y-68904186D01*
X81397514Y-68979275D01*
X81130521Y-69025898D01*
X80911251Y-69040971D01*
X80650909Y-69035496D01*
X80384091Y-69008051D01*
X80123374Y-68959976D01*
X79881336Y-68892616D01*
X79752914Y-68845416D01*
X79571092Y-68766354D01*
X79390076Y-68675014D01*
X79219213Y-68576530D01*
X79067850Y-68476033D01*
X78945336Y-68378657D01*
X78914308Y-68344492D01*
X78888438Y-68288406D01*
X78891217Y-68238238D01*
X78921278Y-68202150D01*
X78977251Y-68188307D01*
X78988478Y-68190227D01*
G37*
G36*
X81601747Y-66102751D02*
G01*
X81649913Y-66123227D01*
X81723195Y-66156916D01*
X81816169Y-66201114D01*
X81923409Y-66253117D01*
X82039492Y-66310220D01*
X82158991Y-66369718D01*
X82276482Y-66428906D01*
X82386540Y-66485080D01*
X82483740Y-66535535D01*
X82562657Y-66577566D01*
X82617866Y-66608468D01*
X82643943Y-66625537D01*
X82653615Y-66639843D01*
X82660914Y-66686513D01*
X82650767Y-66738065D01*
X82625554Y-66775130D01*
X82600928Y-66790584D01*
X82572440Y-66801077D01*
X82572016Y-66801063D01*
X82544130Y-66791433D01*
X82487845Y-66765825D01*
X82408430Y-66727044D01*
X82311158Y-66677895D01*
X82201299Y-66621180D01*
X82084125Y-66559704D01*
X81964906Y-66496271D01*
X81848914Y-66433685D01*
X81741420Y-66374749D01*
X81647696Y-66322267D01*
X81573011Y-66279044D01*
X81522638Y-66247883D01*
X81501847Y-66231588D01*
X81494444Y-66203306D01*
X81506241Y-66154361D01*
X81539534Y-66114292D01*
X81585235Y-66097692D01*
X81601747Y-66102751D01*
G37*
G36*
X80158694Y-67379607D02*
G01*
X80255868Y-67416210D01*
X80381237Y-67465688D01*
X80531731Y-67502468D01*
X80698665Y-67519478D01*
X80891473Y-67518231D01*
X80982627Y-67514492D01*
X81059765Y-67513424D01*
X81110668Y-67516406D01*
X81142212Y-67523902D01*
X81161274Y-67536372D01*
X81180348Y-67562817D01*
X81188181Y-67617330D01*
X81160834Y-67668375D01*
X81155188Y-67673673D01*
X81131165Y-67689228D01*
X81094127Y-67701752D01*
X81035457Y-67713609D01*
X80946539Y-67727162D01*
X80876346Y-67733270D01*
X80735796Y-67730263D01*
X80579881Y-67712057D01*
X80420625Y-67680741D01*
X80270056Y-67638403D01*
X80140200Y-67587132D01*
X80109365Y-67571984D01*
X80058186Y-67541600D01*
X80031867Y-67513143D01*
X80021935Y-67478857D01*
X80021178Y-67439942D01*
X80040765Y-67391629D01*
X80086798Y-67371465D01*
X80158694Y-67379607D01*
G37*
G36*
X79373866Y-65655101D02*
G01*
X79413145Y-65678068D01*
X79424293Y-65700257D01*
X79427981Y-65736567D01*
X79424105Y-65794998D01*
X79412643Y-65883654D01*
X79408990Y-65911220D01*
X79397087Y-66074265D01*
X79399814Y-66233789D01*
X79400899Y-66249408D01*
X79405092Y-66331411D01*
X79403664Y-66384644D01*
X79395807Y-66417799D01*
X79380714Y-66439572D01*
X79364246Y-66452679D01*
X79311870Y-66466263D01*
X79259631Y-66449248D01*
X79220941Y-66404573D01*
X79213447Y-66384409D01*
X79200595Y-66315081D01*
X79194087Y-66222313D01*
X79193436Y-66115021D01*
X79198155Y-66002120D01*
X79207755Y-65892526D01*
X79221750Y-65795152D01*
X79239651Y-65718916D01*
X79260972Y-65672730D01*
X79274462Y-65661588D01*
X79321120Y-65649379D01*
X79373866Y-65655101D01*
G37*
G36*
X81910299Y-67085087D02*
G01*
X81952645Y-67112261D01*
X81977671Y-67151629D01*
X81978222Y-67176999D01*
X81951298Y-67234128D01*
X81888667Y-67305261D01*
X81790662Y-67389973D01*
X81723862Y-67438381D01*
X81674721Y-67460717D01*
X81635494Y-67458310D01*
X81597731Y-67433048D01*
X81589351Y-67424917D01*
X81567272Y-67389297D01*
X81568285Y-67349318D01*
X81594552Y-67301961D01*
X81648231Y-67244208D01*
X81731483Y-67173041D01*
X81846467Y-67085441D01*
X81866110Y-67077915D01*
X81910299Y-67085087D01*
G37*
G36*
X82885126Y-65531782D02*
G01*
X82929684Y-65562893D01*
X82956429Y-65603825D01*
X82963811Y-65631526D01*
X82981561Y-65722928D01*
X82995139Y-65829662D01*
X83004332Y-65944015D01*
X83008931Y-66058272D01*
X83008722Y-66164720D01*
X83003496Y-66255645D01*
X82993040Y-66323331D01*
X82977143Y-66360066D01*
X82936451Y-66384023D01*
X82881417Y-66388543D01*
X82835908Y-66367323D01*
X82834090Y-66365156D01*
X82822258Y-66326862D01*
X82814957Y-66252668D01*
X82812462Y-66145190D01*
X82812066Y-66110492D01*
X82806723Y-65994973D01*
X82796448Y-65876887D01*
X82782910Y-65777039D01*
X82774285Y-65723788D01*
X82765769Y-65638611D01*
X82770584Y-65581093D01*
X82789789Y-65544766D01*
X82824441Y-65523163D01*
X82838899Y-65520361D01*
X82885126Y-65531782D01*
G37*
G36*
X82784863Y-67056475D02*
G01*
X82812255Y-67080141D01*
X82828438Y-67099677D01*
X82835182Y-67116120D01*
X82834261Y-67130507D01*
X82827447Y-67143878D01*
X82816511Y-67157268D01*
X82803228Y-67171716D01*
X82787121Y-67188142D01*
X82758500Y-67205737D01*
X82723447Y-67206268D01*
X82672836Y-67188892D01*
X82597539Y-67152769D01*
X82538270Y-67123985D01*
X82489275Y-67102404D01*
X82464093Y-67094154D01*
X82446448Y-67107946D01*
X82414463Y-67146486D01*
X82375760Y-67201093D01*
X82239391Y-67378837D01*
X82058567Y-67557596D01*
X81852402Y-67712513D01*
X81625894Y-67840368D01*
X81384040Y-67937943D01*
X81131840Y-68002022D01*
X81013384Y-68019546D01*
X80751088Y-68031133D01*
X80493454Y-68006427D01*
X80243723Y-67947348D01*
X80005138Y-67855817D01*
X79780941Y-67733754D01*
X79574374Y-67583080D01*
X79388679Y-67405717D01*
X79227098Y-67203584D01*
X79092874Y-66978602D01*
X78989248Y-66732692D01*
X78939707Y-66563126D01*
X78895015Y-66298189D01*
X78890875Y-66105037D01*
X79092383Y-66105037D01*
X79108561Y-66356249D01*
X79159880Y-66600856D01*
X79246108Y-66833151D01*
X79268955Y-66880557D01*
X79396777Y-67093621D01*
X79554195Y-67285891D01*
X79736985Y-67453896D01*
X79940927Y-67594166D01*
X80161797Y-67703231D01*
X80395373Y-67777622D01*
X80638193Y-67817739D01*
X80892723Y-67823961D01*
X81140997Y-67793688D01*
X81379763Y-67727833D01*
X81605765Y-67627309D01*
X81815752Y-67493028D01*
X82006469Y-67325902D01*
X82048626Y-67281484D01*
X82111675Y-67210248D01*
X82170495Y-67138851D01*
X82219466Y-67074464D01*
X82252969Y-67024261D01*
X82265385Y-66995412D01*
X82258567Y-66990889D01*
X82221272Y-66970172D01*
X82154166Y-66934219D01*
X82060298Y-66884601D01*
X81942716Y-66822892D01*
X81804468Y-66750664D01*
X81648603Y-66669491D01*
X81478170Y-66580946D01*
X81296215Y-66486601D01*
X81105789Y-66388029D01*
X80909939Y-66286803D01*
X80711714Y-66184496D01*
X80514162Y-66082681D01*
X80320331Y-65982931D01*
X80133270Y-65886819D01*
X79956027Y-65795917D01*
X79791650Y-65711799D01*
X79643189Y-65636037D01*
X79513690Y-65570204D01*
X79406203Y-65515874D01*
X79323776Y-65474618D01*
X79269458Y-65448011D01*
X79246296Y-65437624D01*
X79236393Y-65442129D01*
X79214970Y-65473470D01*
X79192510Y-65525547D01*
X79166391Y-65605631D01*
X79111582Y-65852928D01*
X79092383Y-66105037D01*
X78890875Y-66105037D01*
X78889276Y-66030426D01*
X78922493Y-65759751D01*
X78994664Y-65486081D01*
X79002692Y-65461631D01*
X79023290Y-65394931D01*
X79036119Y-65347033D01*
X79038671Y-65326999D01*
X79038466Y-65326829D01*
X79017459Y-65314942D01*
X78971447Y-65290915D01*
X78910000Y-65259747D01*
X78842332Y-65222270D01*
X78796102Y-65185352D01*
X78775799Y-65149182D01*
X78773487Y-65132961D01*
X78785403Y-65081222D01*
X78818852Y-65039987D01*
X78863836Y-65023527D01*
X78866671Y-65024356D01*
X78897893Y-65038361D01*
X78960935Y-65068795D01*
X79053557Y-65114525D01*
X79173521Y-65174417D01*
X79318588Y-65247340D01*
X79486518Y-65332162D01*
X79675072Y-65427749D01*
X79882012Y-65532969D01*
X80105099Y-65646689D01*
X80342093Y-65767778D01*
X80590755Y-65895103D01*
X80848846Y-66027530D01*
X80936610Y-66072607D01*
X81236771Y-66226774D01*
X81504453Y-66364359D01*
X81741428Y-66486399D01*
X81949470Y-66593933D01*
X82130350Y-66687997D01*
X82285840Y-66769631D01*
X82417714Y-66839870D01*
X82527743Y-66899753D01*
X82617701Y-66950317D01*
X82689358Y-66992600D01*
X82693782Y-66995412D01*
X82744488Y-67027640D01*
X82784863Y-67056475D01*
G37*
G36*
X76943328Y-67772243D02*
G01*
X76885532Y-67892229D01*
X76794534Y-68000877D01*
X76765133Y-68027666D01*
X76693702Y-68083270D01*
X76621452Y-68121004D01*
X76530846Y-68150842D01*
X76455915Y-68161379D01*
X76351838Y-68156755D01*
X76245090Y-68136110D01*
X76152248Y-68101601D01*
X76101201Y-68072437D01*
X75993738Y-67983072D01*
X75914450Y-67874407D01*
X75863899Y-67752380D01*
X75845384Y-67639590D01*
X76044778Y-67639590D01*
X76076220Y-67744522D01*
X76135949Y-67836979D01*
X76219738Y-67906916D01*
X76264763Y-67928391D01*
X76371429Y-67952146D01*
X76483020Y-67947242D01*
X76584625Y-67913414D01*
X76634960Y-67879784D01*
X76705658Y-67800396D01*
X76752156Y-67702914D01*
X76770228Y-67597676D01*
X76755647Y-67495020D01*
X76738832Y-67454786D01*
X76686027Y-67373384D01*
X76617923Y-67303051D01*
X76546433Y-67257320D01*
X76474850Y-67236614D01*
X76366722Y-67235378D01*
X76262620Y-67265681D01*
X76170245Y-67323639D01*
X76097296Y-67405369D01*
X76051475Y-67506985D01*
X76045848Y-67532227D01*
X76044778Y-67639590D01*
X75845384Y-67639590D01*
X75842649Y-67622926D01*
X75851263Y-67491984D01*
X75890304Y-67365491D01*
X75960337Y-67249382D01*
X76061923Y-67149596D01*
X76102434Y-67120783D01*
X76208772Y-67066609D01*
X76324572Y-67040721D01*
X76461245Y-67039986D01*
X76572298Y-67058946D01*
X76695567Y-67110275D01*
X76798471Y-67187271D01*
X76879175Y-67284649D01*
X76935847Y-67397122D01*
X76966652Y-67519403D01*
X76968569Y-67597676D01*
X76969757Y-67646205D01*
X76943328Y-67772243D01*
G37*
G36*
X78152648Y-65264971D02*
G01*
X78167555Y-65277592D01*
X78176186Y-65293838D01*
X78178201Y-65320610D01*
X78173318Y-65364854D01*
X78161254Y-65433512D01*
X78141728Y-65533527D01*
X78128179Y-65598577D01*
X78103177Y-65700667D01*
X78079944Y-65772348D01*
X78059731Y-65809403D01*
X78059680Y-65809454D01*
X78025316Y-65837647D01*
X77994857Y-65838723D01*
X77951732Y-65813276D01*
X77925047Y-65784767D01*
X77911292Y-65741624D01*
X77910742Y-65678466D01*
X77923353Y-65589690D01*
X77949084Y-65469692D01*
X77952756Y-65454331D01*
X77984028Y-65346982D01*
X78017618Y-65276418D01*
X78055561Y-65240593D01*
X78099892Y-65237459D01*
X78152648Y-65264971D01*
G37*
G36*
X77995280Y-65942706D02*
G01*
X78028965Y-65957361D01*
X78053600Y-65992054D01*
X78070837Y-66051526D01*
X78082330Y-66140517D01*
X78089730Y-66263769D01*
X78104168Y-66448225D01*
X78158010Y-66755181D01*
X78247293Y-67054389D01*
X78370098Y-67340912D01*
X78524506Y-67609813D01*
X78708599Y-67856154D01*
X78758156Y-67915581D01*
X78808880Y-67978470D01*
X78845479Y-68026092D01*
X78855302Y-68039684D01*
X78877407Y-68076541D01*
X78877796Y-68103881D01*
X78858391Y-68138438D01*
X78842595Y-68159418D01*
X78803340Y-68185984D01*
X78756968Y-68181360D01*
X78699656Y-68144486D01*
X78627581Y-68074299D01*
X78460804Y-67873801D01*
X78288922Y-67614581D01*
X78143547Y-67332955D01*
X78027001Y-67034179D01*
X77941610Y-66723507D01*
X77889697Y-66406193D01*
X77884931Y-66360243D01*
X77873699Y-66217874D01*
X77872252Y-66109132D01*
X77881243Y-66030564D01*
X77901322Y-65978718D01*
X77933141Y-65950142D01*
X77977350Y-65941384D01*
X77995280Y-65942706D01*
G37*
G36*
X77339541Y-64564431D02*
G01*
X77380179Y-64578372D01*
X77438357Y-64604292D01*
X77519746Y-64644282D01*
X77630016Y-64700434D01*
X77702802Y-64738572D01*
X77799052Y-64791745D01*
X77878321Y-64838844D01*
X77934544Y-64876217D01*
X77961660Y-64900212D01*
X77975628Y-64924030D01*
X77979509Y-64954788D01*
X77958951Y-64993769D01*
X77927675Y-65026008D01*
X77883435Y-65042071D01*
X77860845Y-65036095D01*
X77807012Y-65014131D01*
X77730737Y-64978907D01*
X77638575Y-64933472D01*
X77537077Y-64880878D01*
X77439342Y-64828785D01*
X77356609Y-64783451D01*
X77299386Y-64749502D01*
X77262799Y-64723403D01*
X77241975Y-64701621D01*
X77232039Y-64680621D01*
X77228119Y-64656871D01*
X77226786Y-64629864D01*
X77237805Y-64593800D01*
X77274838Y-64569440D01*
X77288203Y-64564121D01*
X77310772Y-64560378D01*
X77339541Y-64564431D01*
G37*
G36*
X77027897Y-64394120D02*
G01*
X77104300Y-64437045D01*
X77147969Y-64471219D01*
X77178339Y-64508274D01*
X77179599Y-64544280D01*
X77154969Y-64588883D01*
X77141940Y-64604906D01*
X77100924Y-64628448D01*
X77045467Y-64624249D01*
X76968902Y-64592435D01*
X76948282Y-64581104D01*
X76887000Y-64531142D01*
X76860719Y-64476207D01*
X76871447Y-64419856D01*
X76902557Y-64388785D01*
X76958274Y-64377858D01*
X77027897Y-64394120D01*
G37*
G36*
X78624635Y-64566591D02*
G01*
X78666418Y-64582170D01*
X78732113Y-64614152D01*
X78734670Y-64615441D01*
X78797913Y-64649356D01*
X78846564Y-64679086D01*
X78870278Y-64698327D01*
X78877100Y-64710959D01*
X78882284Y-64765714D01*
X78854528Y-64816527D01*
X78830311Y-64833926D01*
X78785365Y-64847230D01*
X78775488Y-64846373D01*
X78724730Y-64831460D01*
X78660292Y-64803256D01*
X78596628Y-64768633D01*
X78548193Y-64734464D01*
X78543911Y-64730490D01*
X78516699Y-64680785D01*
X78522819Y-64627175D01*
X78561152Y-64582775D01*
X78570443Y-64576865D01*
X78596173Y-64565470D01*
X78624635Y-64566591D01*
G37*
G36*
X76323767Y-64039712D02*
G01*
X76384865Y-64065762D01*
X76472231Y-64110324D01*
X76496212Y-64123062D01*
X76564316Y-64161663D01*
X76605556Y-64191433D01*
X76626780Y-64218152D01*
X76634835Y-64247604D01*
X76633094Y-64291184D01*
X76617789Y-64330643D01*
X76603199Y-64344574D01*
X76570355Y-64356154D01*
X76523407Y-64349812D01*
X76456222Y-64324291D01*
X76362668Y-64278334D01*
X76301650Y-64244644D01*
X76231319Y-64195660D01*
X76195478Y-64151434D01*
X76192046Y-64108878D01*
X76218944Y-64064905D01*
X76224092Y-64059362D01*
X76250779Y-64037839D01*
X76281538Y-64030847D01*
X76323767Y-64039712D01*
G37*
G36*
X82863804Y-66745912D02*
G01*
X82915296Y-66764692D01*
X82983098Y-66795136D01*
X83056732Y-66831915D01*
X83125716Y-66869698D01*
X83179571Y-66903155D01*
X83207817Y-66926956D01*
X83219333Y-66955404D01*
X83219371Y-67008430D01*
X83199323Y-67051169D01*
X83197915Y-67052542D01*
X83159009Y-67071491D01*
X83102440Y-67068028D01*
X83024111Y-67041258D01*
X82919923Y-66990289D01*
X82901002Y-66980105D01*
X82830820Y-66939994D01*
X82787988Y-66909204D01*
X82765741Y-66882015D01*
X82757319Y-66852704D01*
X82760435Y-66801528D01*
X82790191Y-66758049D01*
X82845082Y-66742461D01*
X82863804Y-66745912D01*
G37*
G36*
X79380846Y-64964472D02*
G01*
X79408235Y-64973876D01*
X79466190Y-64999528D01*
X79550875Y-65039459D01*
X79658452Y-65091696D01*
X79785086Y-65154270D01*
X79926939Y-65225211D01*
X80080173Y-65302546D01*
X80240953Y-65384307D01*
X80405442Y-65468522D01*
X80569802Y-65553220D01*
X80730196Y-65636432D01*
X80882789Y-65716186D01*
X81023742Y-65790512D01*
X81149220Y-65857439D01*
X81255384Y-65914997D01*
X81338399Y-65961215D01*
X81394428Y-65994123D01*
X81419633Y-66011750D01*
X81446177Y-66052286D01*
X81447062Y-66103410D01*
X81408997Y-66151423D01*
X81389297Y-66164589D01*
X81357997Y-66175590D01*
X81343350Y-66169645D01*
X81296405Y-66147388D01*
X81220441Y-66110122D01*
X81118596Y-66059423D01*
X80994011Y-65996871D01*
X80849826Y-65924042D01*
X80689182Y-65842514D01*
X80515219Y-65753865D01*
X80331077Y-65659672D01*
X80250373Y-65618303D01*
X80038580Y-65509525D01*
X79858491Y-65416456D01*
X79707780Y-65337611D01*
X79584117Y-65271507D01*
X79485173Y-65216657D01*
X79408620Y-65171577D01*
X79352130Y-65134783D01*
X79313373Y-65104790D01*
X79290022Y-65080113D01*
X79279748Y-65059268D01*
X79280222Y-65040769D01*
X79289115Y-65023132D01*
X79304100Y-65004873D01*
X79338026Y-64978303D01*
X79380496Y-64964461D01*
X79380846Y-64964472D01*
G37*
G36*
X81123596Y-62975650D02*
G01*
X81456754Y-63027067D01*
X81782602Y-63113638D01*
X82097586Y-63235209D01*
X82398151Y-63391630D01*
X82436902Y-63414879D01*
X82545210Y-63483300D01*
X82621675Y-63539066D01*
X82668986Y-63585289D01*
X82689833Y-63625080D01*
X82686906Y-63661549D01*
X82662895Y-63697807D01*
X82653578Y-63707436D01*
X82625585Y-63726028D01*
X82591650Y-63728782D01*
X82545315Y-63713973D01*
X82480121Y-63679874D01*
X82389608Y-63624758D01*
X82272812Y-63554572D01*
X81998862Y-63415441D01*
X81712403Y-63305990D01*
X81403358Y-63222103D01*
X81369588Y-63214712D01*
X81296467Y-63200499D01*
X81225656Y-63190268D01*
X81148879Y-63183394D01*
X81057861Y-63179255D01*
X80944327Y-63177229D01*
X80800000Y-63176692D01*
X80734424Y-63176778D01*
X80604183Y-63177871D01*
X80501221Y-63180719D01*
X80417261Y-63185943D01*
X80344028Y-63194166D01*
X80273247Y-63206012D01*
X80196643Y-63222103D01*
X80177508Y-63226453D01*
X79850320Y-63321131D01*
X79527500Y-63452489D01*
X79214594Y-63618288D01*
X79159013Y-63642430D01*
X79096983Y-63646876D01*
X79050250Y-63625858D01*
X79025812Y-63583039D01*
X79030670Y-63522079D01*
X79031821Y-63519145D01*
X79060669Y-63486647D01*
X79120591Y-63442255D01*
X79207116Y-63388756D01*
X79315768Y-63328941D01*
X79442077Y-63265597D01*
X79472570Y-63251162D01*
X79788959Y-63124542D01*
X80115810Y-63033832D01*
X80449570Y-62978881D01*
X80786684Y-62959538D01*
X81123596Y-62975650D01*
G37*
G36*
X84058940Y-68026875D02*
G01*
X84091568Y-68035250D01*
X84139235Y-68053416D01*
X84205852Y-68083048D01*
X84295331Y-68125820D01*
X84411585Y-68183408D01*
X84558525Y-68257486D01*
X84573424Y-68265041D01*
X84701559Y-68330481D01*
X84818906Y-68391219D01*
X84920634Y-68444695D01*
X85001913Y-68488349D01*
X85057915Y-68519620D01*
X85083808Y-68535947D01*
X85110525Y-68571305D01*
X85112786Y-68623612D01*
X85077924Y-68677768D01*
X85044848Y-68701443D01*
X85002350Y-68706578D01*
X84992089Y-68702889D01*
X84942853Y-68681324D01*
X84869356Y-68645994D01*
X84776972Y-68599756D01*
X84671075Y-68545467D01*
X84557039Y-68485985D01*
X84440239Y-68424167D01*
X84326049Y-68362872D01*
X84219843Y-68304956D01*
X84126995Y-68253277D01*
X84052880Y-68210692D01*
X84002871Y-68180060D01*
X83982344Y-68164236D01*
X83971624Y-68125960D01*
X83984796Y-68071347D01*
X84027425Y-68030085D01*
X84037438Y-68026615D01*
X84058940Y-68026875D01*
G37*
%TD*%
M02*
