%TF.GenerationSoftware,KiCad,Pcbnew,(6.0.6)*%
%TF.CreationDate,2022-07-26T01:13:25+02:00*%
%TF.ProjectId,breakbox_pcb,62726561-6b62-46f7-985f-7063622e6b69,rev?*%
%TF.SameCoordinates,Original*%
%TF.FileFunction,Copper,L2,Bot*%
%TF.FilePolarity,Positive*%
%FSLAX46Y46*%
G04 Gerber Fmt 4.6, Leading zero omitted, Abs format (unit mm)*
G04 Created by KiCad (PCBNEW (6.0.6)) date 2022-07-26 01:13:25*
%MOMM*%
%LPD*%
G01*
G04 APERTURE LIST*
G04 Aperture macros list*
%AMRoundRect*
0 Rectangle with rounded corners*
0 $1 Rounding radius*
0 $2 $3 $4 $5 $6 $7 $8 $9 X,Y pos of 4 corners*
0 Add a 4 corners polygon primitive as box body*
4,1,4,$2,$3,$4,$5,$6,$7,$8,$9,$2,$3,0*
0 Add four circle primitives for the rounded corners*
1,1,$1+$1,$2,$3*
1,1,$1+$1,$4,$5*
1,1,$1+$1,$6,$7*
1,1,$1+$1,$8,$9*
0 Add four rect primitives between the rounded corners*
20,1,$1+$1,$2,$3,$4,$5,0*
20,1,$1+$1,$4,$5,$6,$7,0*
20,1,$1+$1,$6,$7,$8,$9,0*
20,1,$1+$1,$8,$9,$2,$3,0*%
G04 Aperture macros list end*
%TA.AperFunction,ComponentPad*%
%ADD10C,5.600000*%
%TD*%
%TA.AperFunction,ComponentPad*%
%ADD11RoundRect,0.250001X-0.499999X0.499999X-0.499999X-0.499999X0.499999X-0.499999X0.499999X0.499999X0*%
%TD*%
%TA.AperFunction,ComponentPad*%
%ADD12C,1.500000*%
%TD*%
%TA.AperFunction,ComponentPad*%
%ADD13RoundRect,0.250000X0.600000X0.725000X-0.600000X0.725000X-0.600000X-0.725000X0.600000X-0.725000X0*%
%TD*%
%TA.AperFunction,ComponentPad*%
%ADD14O,1.700000X1.950000*%
%TD*%
%TA.AperFunction,ComponentPad*%
%ADD15RoundRect,0.250000X0.600000X0.750000X-0.600000X0.750000X-0.600000X-0.750000X0.600000X-0.750000X0*%
%TD*%
%TA.AperFunction,ComponentPad*%
%ADD16O,1.700000X2.000000*%
%TD*%
%TA.AperFunction,ComponentPad*%
%ADD17RoundRect,0.250001X-0.499999X-0.759999X0.499999X-0.759999X0.499999X0.759999X-0.499999X0.759999X0*%
%TD*%
%TA.AperFunction,ComponentPad*%
%ADD18O,1.500000X2.020000*%
%TD*%
%TA.AperFunction,Conductor*%
%ADD19C,0.508000*%
%TD*%
%TA.AperFunction,Conductor*%
%ADD20C,0.762000*%
%TD*%
%TA.AperFunction,Conductor*%
%ADD21C,1.524000*%
%TD*%
G04 APERTURE END LIST*
D10*
%TO.P,REF\u002A\u002A,1*%
%TO.N,N/C*%
X54700000Y-95400000D03*
%TD*%
%TO.P,REF\u002A\u002A,1*%
%TO.N,N/C*%
X105500000Y-54600000D03*
%TD*%
D11*
%TO.P,Breakbox Out,1*%
%TO.N,N/C*%
X100000000Y-63000000D03*
D12*
%TO.P,Breakbox Out,2*%
X100000000Y-66000000D03*
%TO.P,Breakbox Out,3*%
X100000000Y-69000000D03*
%TO.P,Breakbox Out,4*%
X100000000Y-72000000D03*
%TO.P,Breakbox Out,5*%
X100000000Y-75000000D03*
%TO.P,Breakbox Out,6*%
X100000000Y-78000000D03*
%TO.P,Breakbox Out,7*%
X100000000Y-81000000D03*
%TO.P,Breakbox Out,8*%
X100000000Y-84000000D03*
%TO.P,Breakbox Out,9*%
X100000000Y-87000000D03*
%TO.P,Breakbox Out,10*%
X97000000Y-63000000D03*
%TO.P,Breakbox Out,11*%
X97000000Y-66000000D03*
%TO.P,Breakbox Out,12*%
X97000000Y-69000000D03*
%TO.P,Breakbox Out,13*%
X97000000Y-72000000D03*
%TO.P,Breakbox Out,14*%
X97000000Y-75000000D03*
%TO.P,Breakbox Out,15*%
X97000000Y-78000000D03*
%TO.P,Breakbox Out,16*%
X97000000Y-81000000D03*
%TO.P,Breakbox Out,17*%
X97000000Y-84000000D03*
%TO.P,Breakbox Out,18*%
X97000000Y-87000000D03*
%TD*%
D13*
%TO.P,Neo Pixel,1*%
%TO.N,N/C*%
X70700000Y-93800000D03*
D14*
%TO.P,Neo Pixel,2*%
X68200000Y-93800000D03*
%TO.P,Neo Pixel,3*%
X65700000Y-93800000D03*
%TD*%
D15*
%TO.P,Fan 1,1*%
%TO.N,N/C*%
X82150000Y-72300000D03*
D16*
%TO.P,Fan 1,2*%
X79650000Y-72300000D03*
%TD*%
D10*
%TO.P,REF\u002A\u002A,1*%
%TO.N,N/C*%
X54700000Y-54600000D03*
%TD*%
D17*
%TO.P,Therm 0 In,1*%
%TO.N,N/C*%
X74100000Y-59970000D03*
D18*
%TO.P,Therm 0 In,2*%
X77100000Y-59970000D03*
%TD*%
D13*
%TO.P,Probe,1*%
%TO.N,N/C*%
X61800000Y-72325000D03*
D14*
%TO.P,Probe,2*%
X59300000Y-72325000D03*
%TO.P,Probe,3*%
X56800000Y-72325000D03*
%TD*%
D15*
%TO.P,Endstop Y,1*%
%TO.N,N/C*%
X82100000Y-83150000D03*
D16*
%TO.P,Endstop Y,2*%
X79600000Y-83150000D03*
%TD*%
D17*
%TO.P,Therm 1 In,1*%
%TO.N,N/C*%
X62700000Y-59970000D03*
D18*
%TO.P,Therm 1 In,2*%
X65700000Y-59970000D03*
%TD*%
D13*
%TO.P,E-Motor,1*%
%TO.N,N/C*%
X88900000Y-93800000D03*
D14*
%TO.P,E-Motor,2*%
X86400000Y-93800000D03*
%TO.P,E-Motor,3*%
X83900000Y-93800000D03*
%TO.P,E-Motor,4*%
X81400000Y-93800000D03*
%TD*%
D17*
%TO.P,HE In,1*%
%TO.N,N/C*%
X85500000Y-59970000D03*
D18*
%TO.P,HE In,2*%
X88500000Y-59970000D03*
%TD*%
D10*
%TO.P,REF\u002A\u002A,1*%
%TO.N,N/C*%
X105500000Y-95400000D03*
%TD*%
D13*
%TO.P,Endstops X/Y,1*%
%TO.N,N/C*%
X63000000Y-83225000D03*
D14*
%TO.P,Endstops X/Y,2*%
X60500000Y-83225000D03*
%TO.P,Endstops X/Y,3*%
X58000000Y-83225000D03*
%TO.P,Endstops X/Y,4*%
X55500000Y-83225000D03*
%TD*%
D15*
%TO.P,Fan 0,1*%
%TO.N,N/C*%
X73350000Y-72300000D03*
D16*
%TO.P,Fan 0,2*%
X70850000Y-72300000D03*
%TD*%
D15*
%TO.P,Endstop X,1*%
%TO.N,N/C*%
X73300000Y-83125000D03*
D16*
%TO.P,Endstop X,2*%
X70800000Y-83125000D03*
%TD*%
D19*
%TO.N,*%
X95400000Y-79500000D02*
X98500000Y-79500000D01*
D20*
X97500000Y-93800000D02*
X102000000Y-89300000D01*
D19*
X80300000Y-70500000D02*
X98500000Y-70500000D01*
X98500000Y-79500000D02*
X100000000Y-78000000D01*
X62500000Y-74500000D02*
X91200000Y-74500000D01*
X70850000Y-72300000D02*
X70850000Y-70750000D01*
D21*
X94200000Y-60400000D02*
X98400000Y-60400000D01*
D19*
X98500000Y-70500000D02*
X100000000Y-72000000D01*
X61800000Y-73800000D02*
X62500000Y-74500000D01*
D21*
X85500000Y-59970000D02*
X85500000Y-61300000D01*
D20*
X102000000Y-89300000D02*
X102000000Y-86000000D01*
D19*
X87000000Y-87900000D02*
X95400000Y-79500000D01*
D20*
X102000000Y-86000000D02*
X100000000Y-84000000D01*
D19*
X74100000Y-67500000D02*
X98500000Y-67500000D01*
X73800000Y-87900000D02*
X87000000Y-87900000D01*
X98500000Y-67500000D02*
X100000000Y-69000000D01*
D21*
X87200000Y-63000000D02*
X91600000Y-63000000D01*
X98400000Y-60400000D02*
X100000000Y-62000000D01*
D19*
X70700000Y-93800000D02*
X70700000Y-91000000D01*
D20*
X88900000Y-93800000D02*
X97500000Y-93800000D01*
D19*
X70850000Y-70750000D02*
X74100000Y-67500000D01*
X79650000Y-72300000D02*
X79650000Y-71150000D01*
D21*
X85500000Y-61300000D02*
X87200000Y-63000000D01*
X91600000Y-63000000D02*
X94200000Y-60400000D01*
X100000000Y-62000000D02*
X100000000Y-63000000D01*
D19*
X91200000Y-74500000D02*
X94700000Y-78000000D01*
X79650000Y-71150000D02*
X80300000Y-70500000D01*
X70700000Y-91000000D02*
X73800000Y-87900000D01*
X94700000Y-78000000D02*
X97000000Y-78000000D01*
X61800000Y-72325000D02*
X61800000Y-73800000D01*
%TD*%
M02*
