%TF.GenerationSoftware,KiCad,Pcbnew,(6.0.6)*%
%TF.CreationDate,2022-08-12T20:52:17+02:00*%
%TF.ProjectId,breakbox_pcb,62726561-6b62-46f7-985f-7063622e6b69,rev?*%
%TF.SameCoordinates,Original*%
%TF.FileFunction,Soldermask,Top*%
%TF.FilePolarity,Negative*%
%FSLAX46Y46*%
G04 Gerber Fmt 4.6, Leading zero omitted, Abs format (unit mm)*
G04 Created by KiCad (PCBNEW (6.0.6)) date 2022-08-12 20:52:17*
%MOMM*%
%LPD*%
G01*
G04 APERTURE LIST*
G04 Aperture macros list*
%AMRoundRect*
0 Rectangle with rounded corners*
0 $1 Rounding radius*
0 $2 $3 $4 $5 $6 $7 $8 $9 X,Y pos of 4 corners*
0 Add a 4 corners polygon primitive as box body*
4,1,4,$2,$3,$4,$5,$6,$7,$8,$9,$2,$3,0*
0 Add four circle primitives for the rounded corners*
1,1,$1+$1,$2,$3*
1,1,$1+$1,$4,$5*
1,1,$1+$1,$6,$7*
1,1,$1+$1,$8,$9*
0 Add four rect primitives between the rounded corners*
20,1,$1+$1,$2,$3,$4,$5,0*
20,1,$1+$1,$4,$5,$6,$7,0*
20,1,$1+$1,$6,$7,$8,$9,0*
20,1,$1+$1,$8,$9,$2,$3,0*%
G04 Aperture macros list end*
%ADD10R,1.200000X1.200000*%
%ADD11C,5.600000*%
%ADD12C,3.000000*%
%ADD13RoundRect,0.250001X-0.499999X0.499999X-0.499999X-0.499999X0.499999X-0.499999X0.499999X0.499999X0*%
%ADD14C,1.500000*%
%ADD15RoundRect,0.250000X0.600000X0.725000X-0.600000X0.725000X-0.600000X-0.725000X0.600000X-0.725000X0*%
%ADD16O,1.700000X1.950000*%
%ADD17RoundRect,0.250000X0.600000X0.750000X-0.600000X0.750000X-0.600000X-0.750000X0.600000X-0.750000X0*%
%ADD18O,1.700000X2.000000*%
%ADD19RoundRect,0.250001X-0.499999X-0.759999X0.499999X-0.759999X0.499999X0.759999X-0.499999X0.759999X0*%
%ADD20O,1.500000X2.020000*%
G04 APERTURE END LIST*
D10*
%TO.C,REF\u002A\u002A*%
X74100000Y-95600000D03*
X76500000Y-95600000D03*
%TD*%
%TO.C,REF\u002A\u002A*%
X74100000Y-92100000D03*
X76500000Y-92100000D03*
%TD*%
D11*
%TO.C,REF\u002A\u002A*%
X54700000Y-95400000D03*
%TD*%
%TO.C,REF\u002A\u002A*%
X105500000Y-54600000D03*
%TD*%
D12*
%TO.C,Breakbox Out*%
X104320000Y-84860000D03*
X104320000Y-65160000D03*
D13*
X100000000Y-63000000D03*
D14*
X100000000Y-66000000D03*
X100000000Y-69000000D03*
X100000000Y-72000000D03*
X100000000Y-75000000D03*
X100000000Y-78000000D03*
X100000000Y-81000000D03*
X100000000Y-84000000D03*
X100000000Y-87000000D03*
X97000000Y-63000000D03*
X97000000Y-66000000D03*
X97000000Y-69000000D03*
X97000000Y-72000000D03*
X97000000Y-75000000D03*
X97000000Y-78000000D03*
X97000000Y-81000000D03*
X97000000Y-84000000D03*
X97000000Y-87000000D03*
%TD*%
D15*
%TO.C,Neo Pixel*%
X68100000Y-93800000D03*
D16*
X65600000Y-93800000D03*
X63100000Y-93800000D03*
%TD*%
D17*
%TO.C,Fan 1*%
X82150000Y-72300000D03*
D18*
X79650000Y-72300000D03*
%TD*%
D11*
%TO.C,REF\u002A\u002A*%
X54700000Y-54600000D03*
%TD*%
D12*
%TO.C,Therm 0 In*%
X75600000Y-55650000D03*
D19*
X74100000Y-59970000D03*
D20*
X77100000Y-59970000D03*
%TD*%
D15*
%TO.C,Probe*%
X61800000Y-72325000D03*
D16*
X59300000Y-72325000D03*
X56800000Y-72325000D03*
%TD*%
D17*
%TO.C,Endstop Y*%
X82100000Y-83150000D03*
D18*
X79600000Y-83150000D03*
%TD*%
D12*
%TO.C,Therm 1 In*%
X64200000Y-55650000D03*
D19*
X62700000Y-59970000D03*
D20*
X65700000Y-59970000D03*
%TD*%
D15*
%TO.C,E-Motor*%
X88900000Y-93800000D03*
D16*
X86400000Y-93800000D03*
X83900000Y-93800000D03*
X81400000Y-93800000D03*
%TD*%
D12*
%TO.C,HE In*%
X87000000Y-55650000D03*
D19*
X85500000Y-59970000D03*
D20*
X88500000Y-59970000D03*
%TD*%
D11*
%TO.C,REF\u002A\u002A*%
X105500000Y-95400000D03*
%TD*%
D15*
%TO.C,Endstops X/Y*%
X63000000Y-83225000D03*
D16*
X60500000Y-83225000D03*
X58000000Y-83225000D03*
X55500000Y-83225000D03*
%TD*%
D17*
%TO.C,Fan 0*%
X73350000Y-72300000D03*
D18*
X70850000Y-72300000D03*
%TD*%
D17*
%TO.C,Endstop X*%
X73300000Y-83125000D03*
D18*
X70800000Y-83125000D03*
%TD*%
M02*
