0
SECTION
2
HEADER
9
$INSUNITS
70
4
9
$ACADVER
1
AC1014
9
$HANDSEED
5
FFFF
0
ENDSEC
0
SECTION
2
TABLES
0
TABLE
2
VPORT
5
8
100
AcDbSymbolTable
0
ENDTAB
0
TABLE
2
LTYPE
5
5
100
AcDbSymbolTable
0
LTYPE
5
14
100
AcDbSymbolTableRecord
100
AcDbLinetypeTableRecord
2
BYBLOCK
70
0
0
LTYPE
5
15
100
AcDbSymbolTableRecord
100
AcDbLinetypeTableRecord
2
BYLAYER
70
0
0
ENDTAB
0
TABLE
2
LAYER
5
2
100
AcDbSymbolTable
70
2
0
LAYER
5
50
100
AcDbSymbolTableRecord
100
AcDbLayerTableRecord
2
0
70
0
6
CONTINUOUS
0
ENDTAB
0
TABLE
2
STYLE
5
3
100
AcDbSymbolTable
70
1
0
STYLE
5
11
100
AcDbSymbolTableRecord
100
AcDbTextStyleTableRecord
2
STANDARD
70
0
0
ENDTAB
0
TABLE
2
VIEW
5
6
100
AcDbSymbolTable
70
0
0
ENDTAB
0
TABLE
2
UCS
5
7
100
AcDbSymbolTable
70
0
0
ENDTAB
0
TABLE
2
APPID
5
9
100
AcDbSymbolTable
70
2
0
APPID
5
12
100
AcDbSymbolTableRecord
100
AcDbRegAppTableRecord
2
ACAD
70
0
0
ENDTAB
0
TABLE
2
DIMSTYLE
5
A
100
AcDbSymbolTable
70
1
0
ENDTAB
0
TABLE
2
BLOCK_RECORD
5
1
100
AcDbSymbolTable
70
1
0
BLOCK_RECORD
5
1F
100
AcDbSymbolTableRecord
100
AcDbBlockTableRecord
2
*MODEL_SPACE
0
BLOCK_RECORD
5
1B
100
AcDbSymbolTableRecord
100
AcDbBlockTableRecord
2
*PAPER_SPACE
0
ENDTAB
0
ENDSEC
0
SECTION
2
BLOCKS
0
BLOCK
5
20
100
AcDbEntity
100
AcDbBlockBegin
2
*MODEL_SPACE
0
ENDBLK
5
21
100
AcDbEntity
100
AcDbBlockEnd
0
BLOCK
5
1C
100
AcDbEntity
100
AcDbBlockBegin
2
*PAPER_SPACE
0
ENDBLK
5
1D
100
AcDbEntity
100
AcDbBlockEnd
0
ENDSEC
0
SECTION
2
ENTITIES
0
LWPOLYLINE
5
100
100
AcDbEntity
8
0
100
AcDbPolyline
90
4
70
1
43
0.0
10
-9.2595419945014701
20
14.231235290659637
42
-0.028368443938473261
10
-40.869696388364709
20
26.793159892629959
42
1.590035038829539
10
-40.167318512712775
20
-27.281862311740088
42
-0.030966855155511126
10
-9.0382345648851885
20
-14.15559549319233
42
0.71500989528537284
0
LWPOLYLINE
5
101
100
AcDbEntity
8
0
100
AcDbPolyline
90
4
70
1
43
0.0
10
-39.847792525740083
20
-109.4846313671658
42
-0.99999999999999989
10
-39.847792525740083
20
-119.4846313671658
10
-49.847792525740104
20
-119.4846313671658
42
-0.99999999999999989
10
-49.847792525740104
20
-109.4846313671658
0
LWPOLYLINE
5
102
100
AcDbEntity
8
0
100
AcDbPolyline
90
8
70
1
43
0.0
10
61.152207474259896
20
-152.48463136716583
42
-0.41421356237309509
10
59.15220747425991
20
-154.48463136716583
10
-148.84779252574009
20
-154.4846313671658
42
-0.4142135623730977
10
-150.84779252574012
20
-152.48463136716575
10
-150.84779252574009
20
91.515368632834239
42
-0.41421356237309509
10
-148.84779252574006
20
93.515368632834267
10
59.152207474259953
20
93.515368632834168
42
-0.4142135623730977
10
61.152207474259967
20
91.515368632834139
0
LWPOLYLINE
5
103
100
AcDbEntity
8
0
100
AcDbPolyline
90
4
70
1
43
0.0
10
-9.2595419945018307
20
14.23123529065977
42
-0.028368443938473261
10
-40.869696388364702
20
26.793159892629959
42
1.5900350388295421
10
-40.167318512712598
20
-27.281862311739971
42
-0.030966855155510013
10
-9.0382345648851903
20
-14.15559549319233
42
0.71500989528538328
0
LWPOLYLINE
5
104
100
AcDbEntity
8
0
100
AcDbPolyline
90
4
70
1
43
0.0
10
-39.847792525740083
20
-109.4846313671658
42
-0.99999999999999989
10
-39.847792525740083
20
-119.4846313671658
10
-49.847792525740104
20
-119.4846313671658
42
-0.99999999999999989
10
-49.847792525740104
20
-109.4846313671658
0
LWPOLYLINE
5
105
100
AcDbEntity
8
0
100
AcDbPolyline
90
8
70
1
43
0.0
10
61.15220747425991
20
-152.48463136716583
42
-0.41421356237309243
10
59.15220747425991
20
-154.48463136716583
10
-148.84779252574009
20
-154.4846313671658
42
-0.4142135623730977
10
-150.84779252574012
20
-152.48463136716575
10
-150.84779252574006
20
91.515368632834239
42
-0.4142135623730977
10
-148.84779252574006
20
93.515368632834267
10
59.152207474259953
20
93.515368632834168
42
-0.4142135623730977
10
61.152207474259967
20
91.515368632834139
0
ENDSEC
0
SECTION
2
OBJECTS
0
DICTIONARY
5
C
100
AcDbDictionary
3
ACAD_GROUP
350
D
3
ACAD_MLINESTYLE
350
17
0
DICTIONARY
5
D
100
AcDbDictionary
0
DICTIONARY
5
1A
330
C
100
AcDbDictionary
0
DICTIONARY
5
17
100
AcDbDictionary
0
ENDSEC
0
EOF
