<svg xmlns="http://www.w3.org/2000/svg" viewBox="0 0 747.15 862.74"><defs><style>.cls-1{fill:#d61e39;}.cls-2{fill:#231f20;}.cls-3{fill:#323534;}</style></defs><g id="Layer_2" data-name="Layer 2"><g id="_0" data-name="0"><g id="Layer_2-2" data-name="Layer 2"><path class="cls-1" d="M70.84,627.19l-4.16-15.56a10.52,10.52,0,0,0-4.91-6.39l-11.11-6.42a15.59,15.59,0,0,0-21.29,5.71c-.13.22-.25.44-.37.67l-9.62,18.73a10.79,10.79,0,0,0,4.67,14.54l.12.06,32.57,16.21,9.87-2.64-.09-.37-5.58-20.8,9.16-2.45a1.08,1.08,0,0,0,.59-.41l.11-.21.06-.23,0-.23ZM28.3,618a1.85,1.85,0,1,1-1.84,1.85A1.85,1.85,0,0,1,28.3,618Zm4.29,14.5-4.93,1.32-3.61-3.61,1.32-4.94,4.93-1.32,3.62,3.61Zm10.28-7.73A12.43,12.43,0,1,1,55.3,612.33,12.42,12.42,0,0,1,42.87,624.75Zm14.79,22.73a1.85,1.85,0,1,1,1.84-1.85A1.85,1.85,0,0,1,57.66,647.48ZM60,615.25a1.84,1.84,0,1,1,1.85-1.84A1.84,1.84,0,0,1,60,615.25Z"/><path class="cls-2" d="M83.72,579.43,78.2,556.76a3.16,3.16,0,0,0-1.42-2L72.5,552.2a3.18,3.18,0,0,0-4.35,1.06L49.53,583.85a3.17,3.17,0,0,0,1.06,4.35l19.79,12a2.11,2.11,0,0,0,2.9-.7l9.82-16.13A5.29,5.29,0,0,0,83.72,579.43Zm-5-2.75a1,1,0,0,1-.79-.13l-4.88-3a1.06,1.06,0,0,1-.35-1.45l3-4.87a1,1,0,0,1,1.44-.35,1.06,1.06,0,0,1,.48.65l1.91,7.84A1.06,1.06,0,0,1,78.71,576.68Z"/><path class="cls-2" d="M268.13,489.37l-10.77-6.21a81.26,81.26,0,0,0-18.87-7.93,42,42,0,0,1-9.75-4.1l-43.36-25a29.43,29.43,0,0,0-20.47-3.36l-40.32,8.08a10.53,10.53,0,0,0-7,5.06l-35.25,61a10.55,10.55,0,0,0-.86,8.64l13.17,39a29.41,29.41,0,0,0,13.14,16l43.37,25a42.25,42.25,0,0,1,8.42,6.4,81.89,81.89,0,0,0,16.3,12.38l10.77,6.21a4.2,4.2,0,0,0,5.58-1.27h0l77.64-134.46h0A4.22,4.22,0,0,0,268.13,489.37ZM92.18,509.3l-.06.38L92,510l-.15.35-.19.33-.23.3-.27.28-.29.24-.33.19-.18.08-.18.05-.18,0-.19,0h-.19l-.19,0a1.18,1.18,0,0,1-.57-.33l-.12-.14-.1-.16-.08-.18-.06-.18,0-.19,0-.18v-.39l.06-.37.1-.37.15-.35.19-.33.23-.31.25-.28.3-.24.32-.2.18-.08.18-.06.18-.05.19,0H91l.19,0,.18.05.17.08.16.11.14.13.11.15.1.17.07.17.06.18,0,.19,0,.19Zm52.61-25.13.06-.37.1-.37.15-.35.19-.33.23-.31.26-.28.29-.24.32-.2.18-.08.18-.06.18-.05.19,0h.19l.19,0,.18,0,.17.08.16.11.14.13.12.15.09.17.08.17.05.18,0,.19,0,.19v.38l-.06.38-.11.36-.16.35-.19.33-.23.3-.26.28-.3.24-.33.19-.17.07-.19.06-.18,0-.19,0H146l-.19,0a1.18,1.18,0,0,1-.57-.33l-.12-.14-.1-.17-.08-.17-.06-.18,0-.19,0-.19Zm-31-17.91.06-.37.1-.37.15-.35.19-.33.22-.31.26-.28.3-.24.32-.2.17-.08.18-.06.19-.05.19,0h.19l.19,0,.18.06.17.08.16.11.14.13.11.15.1.16.07.18.06.18,0,.19,0,.19v.38l-.06.38-.12.36-.15.35-.19.33-.23.3-.27.28-.29.24-.33.19-.18.07-.18.06-.18,0-.19,0H115l-.19,0a1.26,1.26,0,0,1-.57-.33l-.12-.15-.1-.16-.08-.17-.06-.18,0-.19,0-.19ZM109.05,522l-.5-.11-.49-.13-.48-.14-.48-.16-.48-.18-.44-.36-.43-.38-.41-.39-.39-.42-.37-.42-.36-.44-.35-.46-.32-.47-.31-.48L103,517l-.28-.5-.26-.51-.24-.52-.23-.53-.41-1.07-.17-.54-.16-.54-.27-1.11-.21-1.12-.16-1.13-.14-1.14-.1-1.13-.1-1.14-.12-1.14,16.24-28.13,1-.47,1-.48,1-.47,1.05-.46,1.06-.42,1.07-.38,1.1-.32.55-.14.56-.11,1.13-.19.56-.06.57-.05.58,0h1.14l.57,0,.57,0,.57.07.56.09.56.11.55.13.55.16.54.18.53.2.39.33.38.33.37.35.35.36.34.38.33.38.62.8.57.85.51.87.46.9.4.93.36.95.3,1,.26,1,.21,1,.17,1,.13,1,.08,1,.05,1v1l0,1-.06,1-.1,1-.14,1-.16,1-.19,1-.23,1-.25,1-.29,1-.3,1-.34.95-.36.95-.39.94-.41.92-.44.92a40.51,40.51,0,0,1-2.5,4.33l-.58.84-.59.82-.62.8-.64.79-.66.77-.68.75-.7.73-.72.71-.75.69-.76.66-.78.65-.81.61-.82.59-.84.57-.87.53-.88.5-.9.47-.91.43-.94.39-1,.36-1,.31-1,.27-1,.21-1,.17-1,.11-1,.06h-1l-1-.07-1-.13Zm14.16,4.83v.38l-.06.38L123,528l-.16.35-.19.33-.23.3-.26.28-.3.24-.33.19-.17.08-.19,0-.18,0-.19,0h-.19l-.19,0a1.18,1.18,0,0,1-.57-.33l-.12-.14-.1-.16-.08-.18-.06-.18,0-.18,0-.19v-.38l.06-.38.11-.37.14-.35.19-.33.23-.31.26-.28.29-.24.32-.2.18-.08.18-.06.18-.05.19,0H122l.19,0,.18.05.17.08.16.11.14.13.12.15.09.17.08.17,0,.18,0,.19Zm47.51,75.28a2.9,2.9,0,1,1-5.79,0h0a2.9,2.9,0,0,1,5.79,0Zm9.48,17.16a2.48,2.48,0,1,1,2.48-2.47A2.48,2.48,0,0,1,180.2,619.27Zm42.81-65a5.48,5.48,0,0,1-11,0h0a5.48,5.48,0,0,1,11,0ZM230.73,494,171.88,595.9a3.16,3.16,0,0,1-3.26,1.54,4.74,4.74,0,0,0-4.87,2.24,3.15,3.15,0,0,1-4.29,1.12l-45.62-26.33q-.53-.3-1-.63a5.26,5.26,0,0,1-1.67-7l64-110.88a5.27,5.27,0,0,1,6.94-2.07q.53.27,1.05.57l45.62,26.34A3.17,3.17,0,0,1,230,485a4.72,4.72,0,0,0,.48,5.33A3.17,3.17,0,0,1,230.73,494Zm6.25-6.62a2.9,2.9,0,1,1-5.8,0h0a2.9,2.9,0,1,1,5.8,0Zm16,5.85a2.48,2.48,0,1,1,2.48-2.47A2.47,2.47,0,0,1,253,493.2Z"/><path class="cls-2" d="M107.36,449l-6.4-3.69a4.59,4.59,0,0,0-3.51-.46l-6,1.61a4.68,4.68,0,0,0-2.82,2.16l-9,15.53a4.61,4.61,0,0,0-.46,3.52l1.61,6A4.68,4.68,0,0,0,83,476.53l6.4,3.69a3.79,3.79,0,0,0,5.18-1.39l14.22-24.63A3.8,3.8,0,0,0,107.36,449ZM96,461.47a3.16,3.16,0,1,1-6.32,0h0a3.16,3.16,0,0,1,6.32,0Z"/><path class="cls-2" d="M48.53,431.75H16.93v11.16h-.84v6.32h.84v7.38h6.25a5.24,5.24,0,0,0,3.72-1.55l.5-.49A5.26,5.26,0,0,1,31.12,453H48.53a3.16,3.16,0,0,0,3.16-3.16v-15A3.15,3.15,0,0,0,48.53,431.75Zm-7.16,10.53a2.85,2.85,0,1,1-5.69,0v-.84a2.85,2.85,0,0,1,5.69,0Z"/><path class="cls-2" d="M94.72,413.38a10.38,10.38,0,0,0-2.93-.42H91.6a.63.63,0,0,1-.51-1,4,4,0,0,0-3-6.32,2.11,2.11,0,0,1-2-2.1V381.49a2.12,2.12,0,0,1,2-2.1,4,4,0,0,0,3-6.32.63.63,0,0,1,.51-1h.19a10.8,10.8,0,0,0,2.93-.41L104,369a14.33,14.33,0,0,0-13-8.36H71.85a95.59,95.59,0,0,0-13.2.92,46,46,0,0,0-15.27,5V385l-.33.39-.35.4-.75.81-.38.37-.37.34-.39.33-.39.31-.14.13-.09.14-.06.14,0,.12v8l0,.12.06.13.09.15.14.12.39.31.39.33.37.35.38.37.75.8.35.4.33.4v20c1.33.45,2.67.86,4,1.22a95.15,95.15,0,0,0,24.44,3.19H91a14.33,14.33,0,0,0,13-8.36Zm-.09-47.68a2.48,2.48,0,1,1-2.48,2.47A2.48,2.48,0,0,1,94.63,365.7ZM53.12,407.92l-.34-.26h0l-.37-.28h0l-.21-.16-.71-.63.08.07-.15-.14-.07-.06-.26-.25.21.21-.77-.77-.14-.15.06.06-.45-.51.06.07-.29-.32-.3-.39a1.34,1.34,0,0,0,.11.14l-.45-.57,0,0-.1-.13-.65-.94v0l.37.53-.31-.44-.4-.66.18.32-.43-.71-.12-.23.1.17-.38-.71.06.13-.2-.37-.24-.53.16.33-.34-.72L46.46,399q.2.54.42,1.08l-.06-.15-.42-1.06,0-.06c0,.06,0,.13.08.19l-.27-.82c0,.13.07.26.12.39l-.26-.79-.07-.29a2.76,2.76,0,0,0,.08.27l-.22-.84,0,.14-.1-.39-.12-.6c0,.17.07.34.11.51l-.17-.85-.15-1.05c0,.33.08.67.13,1l0-.13-.15-1.14v-.06c0,.08,0,.17,0,.25l-.08-.94c0,.11,0,.22,0,.32l-.06-.71V393c0,.11,0,.23,0,.35l0-.95v-.24l0-.65c0,.26,0,.52,0,.79l0-1,.08-.87c0,.24-.06.47-.07.7V391l.12-1.13,0-.12,0,.28.13-.86c0,.06,0,.12,0,.18l.11-.61.09-.43c0,.13,0,.25-.07.38l.17-.79.11-.4c0,.13-.08.26-.11.39l.06-.27.32-1.1c0,.08,0,.16-.07.24l.35-1,.42-1.05.49-1,.54-1,.6-1,.66-.92.71-.88.76-.84c.29-.3.6-.6.91-.89l-.18.19a20.11,20.11,0,0,0,.5,28.43,22.31,22.31,0,0,0,2,1.66c-.38-.25-.74-.52-1.09-.8Zm4.5,3.58c-1.94-.84-3.35-1.92-3.55-4.18-.18-2,.23-3.35,2.62-3.75,1.27-.21,1.69-1.63,1.68-3q0-8.07,0-16.12a3.41,3.41,0,0,0-1.84-3c-3.43-2.35-3.16-5.43.73-7.12,7.82-3.4,20.4,1.41,23.12,7.65,1.58,3.6,3.28,7.06,2.88,11C84.45,407.29,67.72,415.88,57.62,411.5Zm27.05-36.11a3.16,3.16,0,1,1,6.32,0h0a3.16,3.16,0,1,1-6.32,0Zm3.16,37.41a3.16,3.16,0,0,1-3.16-3.17h0a3.16,3.16,0,0,1,6.32,0v0A3.16,3.16,0,0,1,87.83,412.8Zm6.8,6.53a2.48,2.48,0,1,1,2.47-2.47A2.47,2.47,0,0,1,94.63,419.33Z"/><path class="cls-2" d="M74.57,252.67a3.16,3.16,0,0,0-3.42-2.87L53.8,251.32A5.3,5.3,0,0,1,50,250.11l-.54-.45a5.26,5.26,0,0,0-3.84-1.22l-6.22.55.64,7.34-.84.08.55,6.29.84-.07,1,11.12L73,271a3.17,3.17,0,0,0,2.88-3.43ZM62.44,265.05a2.84,2.84,0,0,1-3.08-2.59l-.08-.84a2.85,2.85,0,1,1,5.67-.49L65,262A2.84,2.84,0,0,1,62.44,265.05Z"/><path class="cls-1" d="M100.05,211l0-.24-.06-.23-.1-.23-.11-.22L88.72,191a3.38,3.38,0,0,0,.24-.41l.1-.24,0-.27,0-.26-.11-.24-2.49-4.31-.16-.21-.2-.17-.25-.11-.26,0a4,4,0,0,0-3.91,2.58L73.51,192l-.25.13-.26.11-.54.18-.54.12-.55.07a4.1,4.1,0,0,0-1.64.52,4.06,4.06,0,0,0-1.84,2.34,3.92,3.92,0,0,0-.15,1.32v.31l0,.3,0,.3-.06.29-.08.28-.1.27-.12.26-.15.24a11.39,11.39,0,0,1-3.66,3.35L43.58,213.93a3.3,3.3,0,0,0-1.65,2.86v11l0,.29,0,.28.07.28.08.27.1.27.12.26.13.25,2.88,5,.13.2.15.19.16.17.19.16.19.14.21.12.22.1.23.08.44.1.47.05h.49l.51-.06.52-.11.51-.16.51-.21.48-.25,31-17.9a3.17,3.17,0,0,1,4,.73l.24.27.26.26.28.24.29.21.27.15.26.12.19.07.2,0,.2,0h.2l.2,0,.2-.05.18-.07.18-.09,9.84-5.68.21-.13.19-.15.18-.17.16-.18.14-.2.12-.21.1-.23L100,212l0-.24,0-.24v-.24ZM69.94,196.62a1.79,1.79,0,1,1,3.58,0h0a1.79,1.79,0,0,1-3.58,0Zm12.88,13.95L59.06,224.29a4.2,4.2,0,0,1-5.75-1.54l-1.06-1.82a4.22,4.22,0,0,1,1.54-5.76l23.77-13.72A4.21,4.21,0,0,1,83.31,203l1.06,1.83A4.21,4.21,0,0,1,82.82,210.57Zm4.39-21.83a1.79,1.79,0,0,1-3.58,0h0a1.79,1.79,0,1,1,3.58,0Z"/><path class="cls-1" d="M115.62,229.73l-6.85-11.86a1.06,1.06,0,0,0-1.44-.39l-5.47,3.16a5.27,5.27,0,0,0-1.93,7.2l2.63,4.56a5.28,5.28,0,0,0,7.2,1.93l5.47-3.16A1.06,1.06,0,0,0,115.62,229.73ZM109.69,227a3,3,0,0,1-5.94,0h0a3,3,0,1,1,5.94,0Z"/><path class="cls-2" d="M134.5,249h2.22a1,1,0,0,0,1.05-1v-7.38a1,1,0,0,0-1.05-1.05H134a4.21,4.21,0,0,0-2.1.56,31.6,31.6,0,0,1-30.12.73,11.69,11.69,0,0,0-5.35-1.29H85.32a1.05,1.05,0,0,0-1.06,1.05v.85a1.05,1.05,0,0,0,1.06,1h2.1a1.79,1.79,0,0,1,0,3.58h-2.1a1.05,1.05,0,0,0-1.06,1.05v.37a4.21,4.21,0,0,0,1,2.71L87.59,253a2.37,2.37,0,0,1,.23.3l-.07.07-.41.48-.43.48-.45.46-.45.43-.27.31-.27.29-.25.27-.23.27-.14.19-.09.21-.06.24,0,.23V264l0,.23.06.23.09.21.14.2.23.26.25.28.27.29.27.3.45.43.45.47.43.48.41.47.07.08-.23.3L85.25,271a4.21,4.21,0,0,0-1,2.71v.36a1.05,1.05,0,0,0,1.06,1.05h2.1a1.8,1.8,0,0,1,0,3.59h-2.1a1.05,1.05,0,0,0-1.06,1.05v.84a1.05,1.05,0,0,0,1.06,1.05H96.39a11.81,11.81,0,0,0,5.35-1.28,31.57,31.57,0,0,1,30.12.73,4.3,4.3,0,0,0,2.1.55h2.76a1,1,0,0,0,1.05-1.05v-7.37a1.06,1.06,0,0,0-1.05-1.06H134.5a3.16,3.16,0,0,1-3.16-3.16V252.14A3.17,3.17,0,0,1,134.5,249ZM95,275.79a1.85,1.85,0,1,1,1.84-1.85A1.85,1.85,0,0,1,95,275.79ZM95,249a1.84,1.84,0,1,1,1.84-1.84A1.84,1.84,0,0,1,95,249Zm32.2,21a2.1,2.1,0,0,1-2.1,2.1H101.22a2.11,2.11,0,0,1-1.69-.84,1,1,0,0,1,.63-.21h1.69a1,1,0,0,0,1.05-1.05v-19a1.06,1.06,0,0,0-1.05-1.06h-1.69a1,1,0,0,1-.63-.21,2.11,2.11,0,0,1,1.69-.84h23.86a2.1,2.1,0,0,1,2.1,2.11Zm5.85,5.79a1.85,1.85,0,1,1-1.84,1.84A1.85,1.85,0,0,1,133,275.84Zm-1.84-32.39a1.85,1.85,0,1,1,1.84,1.84A1.84,1.84,0,0,1,131.19,243.45Z"/><path class="cls-2" d="M183.19,270.68v-.17l-.07-.15-.13-.11-3.65-2.11-.58.16-.05.1L176,266.82l6.46-11.18a.85.85,0,0,0-.31-1.15l-16.24-9.38a1.06,1.06,0,0,0-1.44.39l-6.35,11a1,1,0,0,0,.39,1.43l10.4,6a.52.52,0,0,1,.19.72l-2.63,4.55.75.44-3.37,5.83-.75-.43-1.9,3.29.75.43-3.37,5.84-.75-.44-2.63,4.57a.53.53,0,0,1-.72.19l-13.14-7.58a1.06,1.06,0,0,0-1.44.38l-10.42,18a5.29,5.29,0,0,0,.72,6.23,42,42,0,0,0,9.72,7.72l14.78,8.53a1,1,0,0,0,1.43-.38l.76-1.32a3.12,3.12,0,0,0,.32-2.39l-.09-.35-.81-.46,26.86-46.53Zm-42.07,34.05a3.16,3.16,0,1,1-6.32,0h0a3.16,3.16,0,0,1,6.32,0ZM159,301.29,157.43,304a3.16,3.16,0,0,1-4.32,1.15l-6.2-3.58a3.16,3.16,0,0,1-1.16-4.31l1.55-2.69a3.16,3.16,0,0,1,4.32-1.16l6.2,3.58A3.16,3.16,0,0,1,159,301.29Zm10.69-45.9a3.16,3.16,0,1,1,3.16-3.16A3.15,3.15,0,0,1,169.67,255.39Z"/><path class="cls-2" d="M143.74,333.84l-24.63-14.22a3.78,3.78,0,0,0-5.18,1.39l-3.7,6.39a4.66,4.66,0,0,0-.46,3.52l7.4,27.61a4.64,4.64,0,0,0,2.16,2.82l6.39,3.69a3.78,3.78,0,0,0,5.18-1.39L145.12,339A3.79,3.79,0,0,0,143.74,333.84Zm-25.14.34a3.17,3.17,0,0,1-3.15-3.17h0a3.16,3.16,0,0,1,6.32,0h0A3.16,3.16,0,0,1,118.6,334.18Zm9.34,19.87a3.16,3.16,0,1,1-6.32,0h0a3.16,3.16,0,0,1,6.32,0Z"/><path class="cls-2" d="M213.5,135.62l-7.37-12.78a5.27,5.27,0,0,0-7.2-1.92l-78.18,45.13a5.27,5.27,0,0,0-1.92,7.2l6.32,10.94a1.06,1.06,0,0,1-.39,1.44l-15,8.68a3.15,3.15,0,0,0-1.15,4.32l14.74,25.54a3.16,3.16,0,0,0,4.32,1.15h0l17.22-9.94,0,0,.31-.22.29-.25.26-.28.21-.32,0,0a24.18,24.18,0,0,1,8.73-8.64l.41-.24a3.75,3.75,0,0,0,1.58-1.78,21.08,21.08,0,0,1,8.8-9.88l24-13.88a10.54,10.54,0,0,0,4.91-6.4l6.79-25.33a5.26,5.26,0,0,1,2.45-3.2l8.62-5A3.16,3.16,0,0,0,213.5,135.62Zm-92.64,66.06a2.85,2.85,0,1,1,2.84-2.85A2.86,2.86,0,0,1,120.86,201.68ZM126,172.54l-.19-.28-.15-.31-.11-.33-.06-.35v-.34l0-.35.09-.33.13-.32.18-.3.22-.26.26-.24.28-.2.31-.15.33-.11.34-.06H128l.34,0a2.44,2.44,0,0,1,2,2.84,2.92,2.92,0,0,1-.1.4l-.14.31-.19.3-.22.26-.26.23-.29.19-.31.15-.33.1-.34.06h-.35l-.34,0-.34-.09-.31-.14-.3-.18-.27-.22Zm3.29,43.73a2.85,2.85,0,1,1,2.84-2.84A2.84,2.84,0,0,1,129.29,216.27Zm12-51.13a1.85,1.85,0,1,1,1.84-1.84A1.85,1.85,0,0,1,141.33,165.14Zm18-14,.09-.34.13-.31.18-.3.22-.27.25-.23.29-.2.31-.16.32-.1.34-.07h.35l.35,0a1.9,1.9,0,0,1,.39.11A2.43,2.43,0,0,1,164,152.4l-.14.32-.18.29-.23.26-.26.23-.28.2-.32.14-.33.11-.34.05h-.34l-.35,0-.33-.09-.32-.13-.3-.18-.26-.23-.23-.25-.2-.29-.15-.31-.11-.33-.05-.34v-.35Zm.21,40.46a1.85,1.85,0,0,1-3.69,0h0a1.85,1.85,0,0,1,3.69,0Zm16.14-20.74a12.11,12.11,0,1,1-16.15-13,2.14,2.14,0,0,1,1.09-.1,6.35,6.35,0,0,0,3.53-.38,2,2,0,0,1,1.09-.15A12.12,12.12,0,0,1,175.64,170.84Zm12.14,4.41a1.85,1.85,0,0,1-3.69,0h0a1.85,1.85,0,1,1,3.69,0Zm-1.46-29.61a2.85,2.85,0,1,1,2.85-2.85A2.85,2.85,0,0,1,186.32,145.64Zm14.6-8.43a2.85,2.85,0,1,1,2.84-2.84A2.85,2.85,0,0,1,200.92,137.21Z"/><path class="cls-2" d="M221.57,206.56l-23.81-13.75a10.55,10.55,0,0,0-6.19-1.37l-3.1.27a4.12,4.12,0,0,1-2.47-.55l-2.23-1.28a4.21,4.21,0,0,0-5.76,1.54l-2.25,3.9a1.05,1.05,0,0,0,.39,1.44l5.47,3.16a1.06,1.06,0,0,1,.39,1.44l-13.7,23.71-1.44.39-4-2.3-.2-.1-.21-.06-.22,0H162l-.21.06-.2.1-.17.14-.14.18-2.54,4.4-.08.17,0,.17v.18l0,.18.06.16.1.16.12.13.15.1,3.25,1.95,3.24,1.94,1.65,1,1.68,1,3.36,2,.47.27.48.26.5.23.5.22.51.2.51.18.52.16.53.14.37.07.37,0h.37l.38,0,.42-.08.43-.12.41-.13.41-.17.41-.19.4-.21.39-.24.38-.26.37-.29.36-.3.34-.33.32-.34.31-.36.29-.37.27-.39.24-.4,2.14-3.72a2.12,2.12,0,0,1,2.88-.77l14.6,8.43a3.16,3.16,0,0,0,4.31-1.16l15.28-26.45A3.17,3.17,0,0,0,221.57,206.56Zm-34.25,10-5.27,9.12a2.74,2.74,0,1,1-4.74-2.74l5.27-9.12a2.74,2.74,0,0,1,4.74,2.74ZM201.76,229a2.85,2.85,0,1,1,2.84-2.84A2.84,2.84,0,0,1,201.76,229Zm8.42-14.59a2.85,2.85,0,1,1,2.85-2.85A2.85,2.85,0,0,1,210.18,214.39Z"/><path class="cls-2" d="M250.6,173.06H214.79a3.15,3.15,0,0,0-3.16,3.16v5a3.15,3.15,0,0,0,.92,2.23L229.05,200a5.24,5.24,0,0,0,3.72,1.55h18.89a2.11,2.11,0,0,0,2.1-2.11h0V176.22A3.15,3.15,0,0,0,250.6,173.06Zm-21,20.45a1.05,1.05,0,0,1-1.8.74l-5.7-5.7a1.06,1.06,0,0,1,0-1.49,1,1,0,0,1,.74-.31h5.71a1,1,0,0,1,1.05,1.05Z"/><path class="cls-2" d="M261.81,107.29,253.38,92.7a2.11,2.11,0,0,0-2.88-.77l-33.29,19.22a2.11,2.11,0,0,0-.78,2.88l9.82,17a8.32,8.32,0,0,1,1.12,4.49,14.22,14.22,0,1,0,28-2.91,31.46,31.46,0,0,1,.17-15.69l.23-.87a8.45,8.45,0,0,1,3.92-5.12l1.32-.76A2.12,2.12,0,0,0,261.81,107.29ZM230,118.77a2.85,2.85,0,1,1,2.84-2.84A2.85,2.85,0,0,1,230,118.77ZM248.14,136A6.56,6.56,0,0,1,235,136v0a6.56,6.56,0,0,1,13.11,0Zm.56-28a2.85,2.85,0,1,1,2.84-2.85A2.86,2.86,0,0,1,248.7,108Z"/><path class="cls-2" d="M366.31,115.85l-.11-.44-.15-.44-.21-.41-14-24.21a1,1,0,0,0-1.43-.38l-17,9.8a.44.44,0,0,1-.58-.16l-10.21-17.7a.41.41,0,0,1,.15-.57h0l17-9.8a1.06,1.06,0,0,0,.38-1.44l-14-24.2-.26-.39-.29-.35-.34-.31-.36-.27-.39-.22-.41-.16-.43-.11L323.3,44h-.42l-.42.06-.39.13-.38.18L298.3,57.92l-.46.3-.41.35-.38.4-.32.43-.28.47-.21.51-5.36,14.55-.22.51-.27.47-.33.43-.37.4-.42.35-.45.3L266.48,90.28l-.45.3-.42.35-.38.39-.32.44-.27.47-.22.5-.41,1.1-.15.5-.1.51,0,.51v.51l.08.51.13.5.18.48.23.47L290,142.16l.29.44.33.4.36.35.41.32.43.27.47.22.48.17.51.12,1.16.2.54.06h.55l.54-.07.53-.12.51-.19.49-.25,22.33-12.89.49-.25.51-.18.53-.13.54-.06h.54l.55.07,15.28,2.64.54.06h.55l.54-.06.53-.13L341,133l.49-.24,23.39-13.51.34-.23.31-.28.26-.33L366,118l.17-.39.12-.42.06-.44v-.45Zm-59.84-34.8a3.16,3.16,0,1,1-3.16,3.16A3.15,3.15,0,0,1,306.47,81.05ZM278.2,103.69a3.16,3.16,0,1,1,3.16-3.16A3.15,3.15,0,0,1,278.2,103.69ZM294.52,132a3.16,3.16,0,1,1,3.16-3.16A3.16,3.16,0,0,1,294.52,132Zm19.67-25.46a13.7,13.7,0,1,1-27.39,0h0a13.7,13.7,0,1,1,27.39,0Zm3.75-44.73h0a5.27,5.27,0,0,1,10.53,0h0a5.27,5.27,0,1,1-10.53,0Zm4.86,53.87a3.16,3.16,0,1,1,3.16-3.16A3.17,3.17,0,0,1,322.8,115.65Zm33.06-6.43a5.27,5.27,0,0,1-10.54,0h0a5.27,5.27,0,0,1,10.54,0Z"/><path class="cls-1" d="M309.1,153.93l-4.26-1.55-.36,1-5.47,15a1.07,1.07,0,0,1-1.35.63l-28.11-10.24a1,1,0,0,1-.63-1.35l5.47-15,.36-1-4.25-1.55a3.16,3.16,0,0,0-4.05,1.89l-5.77,15.83a6.34,6.34,0,0,0,3.78,8.11l32.66,11.88a6.31,6.31,0,0,0,8.1-3.77L311,158A3.16,3.16,0,0,0,309.1,153.93Zm-25,13.76a1.85,1.85,0,1,1-3.69,0h0a1.85,1.85,0,0,1,3.69,0Z"/><path class="cls-2" d="M312.26,190.23h-46.2a1,1,0,0,0-1.05,1.05v8.43a1,1,0,0,0,1.05,1h46.2a1,1,0,0,0,1.05-1v-8.43A1,1,0,0,0,312.26,190.23ZM291,197.6a1.79,1.79,0,1,1-3.58,0h0a1.79,1.79,0,1,1,3.58,0Z"/><path class="cls-2" d="M365,146.76h-27.5a10.56,10.56,0,0,0-6.05,1.9l-2.54,1.79a4.28,4.28,0,0,1-2.42.76h-2.58a4.22,4.22,0,0,0-4.21,4.21v4.5a1.05,1.05,0,0,0,1.05,1.06h6.32a1.05,1.05,0,0,1,1.06,1.05v27.39l-1.06,1.05h-4.6l-.22,0-.22,0-.2.09-.19.12-.16.16-.12.19-.08.2,0,.23v5.08l0,.18,0,.17.08.16.11.15.14.11.16.08.17.06h.18l3.79.07,3.78.06,1.93,0,1.95,0,3.91.06h.55l.54,0,.55,0,.54-.06.54-.09.54-.1.53-.12.52-.14.36-.12.34-.16.32-.19.3-.22.33-.29.31-.31.29-.32.28-.35.25-.37.24-.38.22-.41.2-.41.18-.43.15-.45.14-.45.11-.46.08-.46L346,191l0-.47,0-.47v-4.29a2.11,2.11,0,0,1,2.1-2.11H365a3.16,3.16,0,0,0,3.16-3.16V149.92A3.16,3.16,0,0,0,365,146.76ZM340.36,183.1a2.74,2.74,0,0,1-5.48,0V172.56a2.74,2.74,0,0,1,5.48,0Zm17.27-6.64a2.85,2.85,0,1,1,2.85-2.84A2.84,2.84,0,0,1,357.63,176.46Zm0-16.85a2.85,2.85,0,1,1,2.85-2.85A2.84,2.84,0,0,1,357.63,159.61Z"/><path class="cls-2" d="M449.28,58.55l-.27-1-1.89-1.09-3.52-2-24.76-14.3-3.52-2L413,36.73,412,37a1.05,1.05,0,0,0-.64.49l-1.65,2.86a2.1,2.1,0,0,0,.77,2.88L416,46.46a5.23,5.23,0,0,1,2.46,3.19l2.72,10.18a5.2,5.2,0,0,1-.52,4l-.91,1.58a3.17,3.17,0,0,0,1.15,4.32l1.83,1a1.06,1.06,0,0,0,1.44-.38l8.11-14a.42.42,0,0,1,.57-.16L444.65,63a2.1,2.1,0,0,0,2.87-.77l1.66-2.86A1.06,1.06,0,0,0,449.28,58.55ZM415.87,43a1.85,1.85,0,1,1,1.84-1.85A1.84,1.84,0,0,1,415.87,43ZM446,57.53a1.84,1.84,0,1,1-3.68,0h0a1.84,1.84,0,0,1,3.68,0Z"/><path class="cls-2" d="M587.5,137.61l-129.92-75a4.21,4.21,0,0,0-5.14.72,81.5,81.5,0,0,0-12,15.9L434.23,90a4.21,4.21,0,0,0,1.55,5.75l8.39,4.85L561.3,168.21l8.39,4.85a4.23,4.23,0,0,0,5.76-1.54l6.21-10.77a81,81,0,0,0,7.78-18.34A4.21,4.21,0,0,0,587.5,137.61Zm-48.18-18a1,1,0,0,1,1,0l15.44,8.92a1.06,1.06,0,0,1,.39,1.44,1.07,1.07,0,0,1-.92.52H545.6a2.12,2.12,0,0,1-1.83-1.05l-4.84-8.39A1.05,1.05,0,0,1,539.32,119.64Zm-19.71-11.37a1.06,1.06,0,0,1,1.06,0l15.44,8.91a1.06,1.06,0,0,1,.38,1.44,1,1,0,0,1-.91.53h-9.69a2.12,2.12,0,0,1-1.82-1.06l-4.84-8.38A1.06,1.06,0,0,1,519.61,108.27Zm-19.7-11.38a1,1,0,0,1,1,0l15.44,8.91a1.05,1.05,0,0,1-.52,2h-9.69a2.1,2.1,0,0,1-1.82-1l-4.85-8.39A1.06,1.06,0,0,1,499.91,96.89ZM480.2,85.51a1.11,1.11,0,0,1,1.06,0l15.44,8.92a1.05,1.05,0,0,1-.53,2h-9.68a2.11,2.11,0,0,1-1.83-1L479.82,87A1.06,1.06,0,0,1,480.2,85.51ZM460.5,74.14a1,1,0,0,1,1.05,0L477,83.05a1.05,1.05,0,0,1-.52,2h-9.69A2.08,2.08,0,0,1,465,84l-4.85-8.38A1.06,1.06,0,0,1,460.5,74.14Zm-14.27,9.45a1.79,1.79,0,1,1,3.58,0h0a1.79,1.79,0,0,1-3.58,0Zm.24,9.64,9.12-15.8a2.11,2.11,0,0,1,3.65,0l4.26,7.38a2.13,2.13,0,0,1,0,2.1l-4.87,8.43a2.1,2.1,0,0,1-1.82,1h-8.52a2.1,2.1,0,0,1-2.1-2.1A2.08,2.08,0,0,1,446.47,93.23ZM463.09,109a1,1,0,0,1-1,0L446.6,100a1,1,0,0,1-.39-1.43,1.05,1.05,0,0,1,.91-.53h9.69a2.1,2.1,0,0,1,1.82,1l4.85,8.39A1.06,1.06,0,0,1,463.09,109Zm1.87-2.24-4.87-8.43a2.14,2.14,0,0,1,0-2.11L465,87.76a2.08,2.08,0,0,1,1.82-1.06h9.73a2.1,2.1,0,0,1,1.83,1.06l4.86,8.42a2.1,2.1,0,0,1,0,2.11l-4.86,8.43a2.11,2.11,0,0,1-1.83,1h-9.73A2.1,2.1,0,0,1,465,106.72Zm17.83,13.62a1.09,1.09,0,0,1-1.05,0l-15.44-8.92a1.06,1.06,0,0,1-.39-1.44,1.07,1.07,0,0,1,.92-.52h9.68a2.11,2.11,0,0,1,1.83,1.05l4.84,8.39A1.05,1.05,0,0,1,482.79,120.34Zm1.87-2.25-4.86-8.42a2.1,2.1,0,0,1,0-2.11l4.86-8.43a2.11,2.11,0,0,1,1.83-1h9.73a2.11,2.11,0,0,1,1.82,1l4.87,8.43a2.14,2.14,0,0,1,0,2.11L498,118.09a2.12,2.12,0,0,1-1.82,1.06h-9.73A2.12,2.12,0,0,1,484.66,118.09Zm17.84,13.62a1,1,0,0,1-1.05,0L486,122.8a1.06,1.06,0,0,1-.38-1.44,1,1,0,0,1,.91-.53h9.69a2.1,2.1,0,0,1,1.82,1.06l4.84,8.38A1.06,1.06,0,0,1,502.5,131.71Zm1.87-2.24L499.5,121a2.08,2.08,0,0,1,0-2.1l4.87-8.43a2.1,2.1,0,0,1,1.82-1.05h9.73a2.12,2.12,0,0,1,1.83,1.05l4.86,8.43a2.08,2.08,0,0,1,0,2.1l-4.86,8.43a2.12,2.12,0,0,1-1.83,1.05h-9.73A2.1,2.1,0,0,1,504.37,129.47Zm17.83,13.62a1,1,0,0,1-1.05,0l-15.44-8.92a1.06,1.06,0,0,1-.39-1.44,1.07,1.07,0,0,1,.92-.52h9.68a2.12,2.12,0,0,1,1.83,1l4.84,8.39A1.05,1.05,0,0,1,522.2,143.09Zm1.87-2.24-4.86-8.43a2.1,2.1,0,0,1,0-2.11l4.86-8.42a2.1,2.1,0,0,1,1.82-1.06h9.74a2.11,2.11,0,0,1,1.82,1l4.86,8.43a2.1,2.1,0,0,1,0,2.11l-4.86,8.43a2.11,2.11,0,0,1-1.82,1.05h-9.74A2.11,2.11,0,0,1,524.07,140.85Zm17.84,13.61a1.06,1.06,0,0,1-1.06,0l-15.44-8.91a1.06,1.06,0,0,1-.38-1.44,1,1,0,0,1,.91-.53h9.69a2.12,2.12,0,0,1,1.82,1.06l4.84,8.39A1,1,0,0,1,541.91,154.46Zm1.86-2.24-4.86-8.43a2.08,2.08,0,0,1,0-2.1l4.86-8.43a2.12,2.12,0,0,1,1.83-1h9.73a2.1,2.1,0,0,1,1.82,1l4.87,8.43a2.08,2.08,0,0,1,0,2.1l-4.87,8.43a2.1,2.1,0,0,1-1.82,1.05H545.6A2.12,2.12,0,0,1,543.77,152.22Zm17.84,13.62a1,1,0,0,1-1.05,0l-15.44-8.91a1.05,1.05,0,0,1,.52-2h9.69a2.1,2.1,0,0,1,1.82,1L562,164.4A1.06,1.06,0,0,1,561.61,165.84Zm12.48-7.67a1.79,1.79,0,1,1,1.79-1.79A1.79,1.79,0,0,1,574.09,158.17Zm1.55-11.43-9.12,15.8a2.11,2.11,0,0,1-2.88.78,2.21,2.21,0,0,1-.77-.78l-4.26-7.37a2.14,2.14,0,0,1,0-2.11l4.87-8.42a2.11,2.11,0,0,1,1.82-1.06h8.52a2.11,2.11,0,0,1,2.1,2.11A2,2,0,0,1,575.64,146.74Zm.26-5.37a1.05,1.05,0,0,1-.91.53H565.3a2.1,2.1,0,0,1-1.82-1.05l-4.84-8.39a1,1,0,0,1,1.43-1.44l15.45,8.91A1.06,1.06,0,0,1,575.9,141.37Z"/><path class="cls-2" d="M536.84,164.75l-11.23-3.47a21.73,21.73,0,0,1-4.31-1.88l-53.37-30.82a21,21,0,0,1-3.79-2.79l-8.62-8a3.21,3.21,0,0,0-4.37,4.71l5.27,4.88a10.55,10.55,0,0,1,3.3,9,6.29,6.29,0,0,0,3.11,6.25l48.83,28.2a6.32,6.32,0,0,0,7-.43,10.52,10.52,0,0,1,9.46-1.66l6.86,2.12a3.21,3.21,0,0,0,1.9-6.14Zm-83.5-43.07a1.53,1.53,0,1,1,1.52-1.52A1.52,1.52,0,0,1,453.34,121.68Zm15.45,15.19a1.26,1.26,0,1,1-2.52,0h0a1.26,1.26,0,1,1,2.52,0Zm24.73,15a2.1,2.1,0,0,1-2.87.77L471.17,141.4a2.11,2.11,0,0,1,2.11-3.65L492.76,149A2.1,2.1,0,0,1,493.52,151.88Zm4,1.58a1.27,1.27,0,0,1-2.53,0h0a1.27,1.27,0,1,1,2.53,0Zm13.92,8.77a2.11,2.11,0,0,1-2.87.77l-8.81-5.09a2.11,2.11,0,0,1,2.11-3.65l8.8,5.09A2.11,2.11,0,0,1,511.45,162.23Zm24.44,7.12a1.53,1.53,0,1,1,1.53-1.53A1.53,1.53,0,0,1,535.89,169.35Z"/><path class="cls-2" d="M552.71,186.56a3.21,3.21,0,0,0-3.84-2.43h0l-11.47,2.61a21,21,0,0,1-4.67.52H471.09a21,21,0,0,1-4.67-.52L455,184.13a3.21,3.21,0,0,0-1.44,6.26h0l7,1.59a10.54,10.54,0,0,1,7.36,6.16,6.33,6.33,0,0,0,5.82,3.86H530.1a6.33,6.33,0,0,0,5.82-3.86,10.54,10.54,0,0,1,7.36-6.16l7-1.59A3.21,3.21,0,0,0,552.71,186.56Zm-98.47,2.23a1.53,1.53,0,1,1,1.53-1.53A1.53,1.53,0,0,1,454.24,188.79Zm36.24,8H480.31a2.11,2.11,0,1,1,0-4.21h10.17a2.11,2.11,0,0,1,0,4.21Zm6.53-2.1a1.27,1.27,0,0,1-2.53,0h0a1.27,1.27,0,0,1,2.53,0Zm26.49,2.1H501a2.11,2.11,0,1,1,0-4.21H523.5a2.11,2.11,0,0,1,0,4.21Zm6.69-2.1a1.27,1.27,0,0,1-2.53,0h0a1.27,1.27,0,1,1,2.53,0Zm19.38-5.85a1.53,1.53,0,1,1,1.53-1.53A1.53,1.53,0,0,1,549.57,188.79Z"/><path class="cls-1" d="M471.52,163.27h-5.27a5.26,5.26,0,0,0-5.27,5.26v6.32a1.06,1.06,0,0,0,1.06,1.06h13.69a1.06,1.06,0,0,0,1-1.06v-6.32A5.25,5.25,0,0,0,471.52,163.27Zm-2.64,9.29a3,3,0,1,1,3-3A3,3,0,0,1,468.88,172.56Z"/><path class="cls-2" d="M421.34,232.37l-1.82-1.05-.23-.1-.23,0h-.25l-.23.07a2.07,2.07,0,0,0-.88-1l-51.09-29.5-1.82-1.05a2.11,2.11,0,0,0-2.88.77l-7.11,12.32a.84.84,0,0,0-1.15.3l-35.5,61.49a.84.84,0,0,0,.31,1.15l-7.9,13.68a2.11,2.11,0,0,0,.77,2.88l1.83,1.06,3.57,2.06a3.17,3.17,0,0,1,1.58,2.74v9.73a6.32,6.32,0,0,0,3.16,5.47l8.43,4.87a6.31,6.31,0,0,0,6.32,0l8.43-4.87a3.18,3.18,0,0,1,3.16,0l16.43,9.49a2.11,2.11,0,0,0,1.3.27l.06.23.11.22.15.18.2.15,1.83,1a2.09,2.09,0,0,0,2.87-.77l51.36-88.94h0A2.11,2.11,0,0,0,421.34,232.37Zm-47.2-21.78a1.07,1.07,0,0,1,.14-.52,1.05,1.05,0,0,1,1.44-.39l16.85,9.73a1,1,0,0,1,.39.39,1.05,1.05,0,0,1-.39,1.44l-5.26,3a3.18,3.18,0,0,1-3.16,0l-8.43-4.87a3.15,3.15,0,0,1-1.58-2.74Zm0,11.56,8.43,4.86a3.19,3.19,0,0,1,1.58,2.74v9.73a3.19,3.19,0,0,1-1.58,2.74l-8.43,4.86a3.13,3.13,0,0,1-3.16,0l-8.43-4.86a3.19,3.19,0,0,1-1.58-2.74v-9.73a3.19,3.19,0,0,1,1.58-2.74l8.43-4.86A3.13,3.13,0,0,1,374.14,222.15ZM371,252.56v9.73A3.14,3.14,0,0,1,369.4,265L361,269.89a3.18,3.18,0,0,1-3.16,0L349.39,265a3.14,3.14,0,0,1-1.58-2.73v-9.73a3.15,3.15,0,0,1,1.58-2.74l8.42-4.87a3.18,3.18,0,0,1,3.16,0l8.43,4.87A3.15,3.15,0,0,1,371,252.56ZM356.15,221l.05-.09,8.69-15a.41.41,0,0,0,.05-.09,2.12,2.12,0,0,1,2.83-.68l1.63.94a3.17,3.17,0,0,1,1.58,2.74v7.9a3.15,3.15,0,0,1-1.58,2.74L361,224.28a3.18,3.18,0,0,1-3.16,0l-.84-.49A2.12,2.12,0,0,1,356.15,221ZM343,243.81l0-.09,9.48-16.42.06-.09a2.11,2.11,0,0,1,2.82-.68l.84.48a3.17,3.17,0,0,1,1.58,2.74v9.73a3.17,3.17,0,0,1-1.58,2.74l-8.42,4.86a3.13,3.13,0,0,1-3.16,0l-.85-.48A2.12,2.12,0,0,1,343,243.81Zm-13.16,22.81a.47.47,0,0,1,.05-.1l9.48-16.42a.41.41,0,0,1,0-.09,2.11,2.11,0,0,1,2.82-.68l.85.49a3.17,3.17,0,0,1,1.58,2.74v9.73a3.16,3.16,0,0,1-1.58,2.73l-8.43,4.87a3.18,3.18,0,0,1-3.16,0l-.84-.49A2.08,2.08,0,0,1,329.82,266.62Zm-11.51,26.07-.84-.48a2.12,2.12,0,0,1-.82-2.79.41.41,0,0,1,.05-.09l9.48-16.42.05-.09a2.12,2.12,0,0,1,2.83-.68l.84.48a3.17,3.17,0,0,1,1.58,2.74v9.73a3.17,3.17,0,0,1-1.58,2.74l-8.43,4.86A3.13,3.13,0,0,1,318.31,292.69Zm10,18.44-4.44-8.84,2-3.44,4.44,8.84Zm8.1,2.5L327.54,296l2-3.44,8.88,17.68Zm3.66-6.34-4.44-8.84,2-3.44,4.44,8.84Zm4.57-14.6-8.43-4.86a3.17,3.17,0,0,1-1.58-2.74v-9.73a3.17,3.17,0,0,1,1.58-2.74l8.43-4.86a3.18,3.18,0,0,1,3.16,0l8.42,4.86a3.17,3.17,0,0,1,1.58,2.74v9.73a3.17,3.17,0,0,1-1.58,2.74l-8.42,4.86A3.13,3.13,0,0,1,344.65,292.69ZM371,307.9a3.14,3.14,0,0,1-1.58,2.73L361,315.5a3.18,3.18,0,0,1-3.16,0l-8.42-4.87a3.14,3.14,0,0,1-1.58-2.73v-9.73a3.17,3.17,0,0,1,1.58-2.74l8.42-4.86a3.13,3.13,0,0,1,3.16,0l8.43,4.86a3.17,3.17,0,0,1,1.58,2.74Zm13.17-22.81a3.19,3.19,0,0,1-1.58,2.74l-8.43,4.86a3.13,3.13,0,0,1-3.16,0l-8.43-4.86a3.19,3.19,0,0,1-1.58-2.74v-9.73a3.19,3.19,0,0,1,1.58-2.74l8.43-4.86a3.18,3.18,0,0,1,3.16,0l8.43,4.86a3.19,3.19,0,0,1,1.58,2.74Zm13.16-22.8a3.14,3.14,0,0,1-1.58,2.73l-8.42,4.87a3.18,3.18,0,0,1-3.16,0L375.72,265a3.14,3.14,0,0,1-1.58-2.73v-9.73a3.15,3.15,0,0,1,1.58-2.74l8.43-4.87a3.18,3.18,0,0,1,3.16,0l8.42,4.87a3.15,3.15,0,0,1,1.58,2.74Zm13.17-22.81a3.17,3.17,0,0,1-1.58,2.74l-8.43,4.86a3.13,3.13,0,0,1-3.16,0l-8.42-4.86a3.17,3.17,0,0,1-1.58-2.74v-9.73a3.17,3.17,0,0,1,1.58-2.74l6.84-3.95a3.18,3.18,0,0,1,3.16,0l10,5.78a3.15,3.15,0,0,1,1.58,2.73Z"/><path class="cls-1" d="M351.35,340.76,304.82,313.9a4.73,4.73,0,0,0-6.47,1.74l-26.86,46.52a4.73,4.73,0,0,0,1.73,6.47l46.53,26.87a4.74,4.74,0,0,0,6.47-1.74l26.86-46.52A4.75,4.75,0,0,0,351.35,340.76ZM329,329.41l-3.1-1.79A30.77,30.77,0,0,1,329,329.41ZM313.86,328a3.17,3.17,0,0,1,3.16-3.16,3.53,3.53,0,0,1,.56.05,30.24,30.24,0,0,1,5.58,1.56l.84.33,6.61,3.82.71.56a29.41,29.41,0,0,1,4.14,4.06,3.17,3.17,0,0,1-.38,4.45,4.73,4.73,0,0,1-.46.32L327,344.36a3.18,3.18,0,0,1-3.16,0l-8.43-4.87a3.16,3.16,0,0,1-1.58-2.73Zm-6.45,20.31,1.77-3.07,7.94,15.8-1.78,3.07Zm2.47,10.49-1.78,3.08-4-7.9,1.78-3.07Zm4.76-8.25,1.78-3.08,4,7.9-1.78,3.08Zm-25.53-15.33A30.25,30.25,0,0,1,307,324.88a3.41,3.41,0,0,1,.55-.05A3.16,3.16,0,0,1,310.7,328v8.77a3.14,3.14,0,0,1-1.58,2.73l-8.42,4.87a3.18,3.18,0,0,1-3.16,0L290,340a3.76,3.76,0,0,1-.46-.32A3.16,3.16,0,0,1,289.11,335.21Zm-1.25,31.71a3.17,3.17,0,0,1-4.05-1.9,30.39,30.39,0,0,1,0-20.65,4.59,4.59,0,0,1,.24-.5,3.17,3.17,0,0,1,4.32-1.16L296,347.1a3.16,3.16,0,0,1,1.58,2.73v9.73A3.17,3.17,0,0,1,296,362.3l-7.59,4.38A3,3,0,0,1,287.86,366.92ZM295.62,380l3.09,1.78A31.67,31.67,0,0,1,295.62,380Zm15.08,1.41a3.15,3.15,0,0,1-3.16,3.16,3.39,3.39,0,0,1-.55,0,29.81,29.81,0,0,1-5.58-1.56l-.84-.33L294,378.8l-.7-.55a30,30,0,0,1-4.14-4.06,3.16,3.16,0,0,1,.38-4.45,2.91,2.91,0,0,1,.46-.32l7.59-4.38a3.13,3.13,0,0,1,3.16,0l8.42,4.86a3.17,3.17,0,0,1,1.58,2.74Zm24.76-7.21a30.31,30.31,0,0,1-17.88,10.33,3.52,3.52,0,0,1-.56,0,3.16,3.16,0,0,1-3.16-3.16v-8.76a3.19,3.19,0,0,1,1.58-2.74l8.43-4.86a3.13,3.13,0,0,1,3.16,0l7.59,4.38a3.46,3.46,0,0,1,.46.32A3.16,3.16,0,0,1,335.46,374.19Zm5.29-9.17a2.94,2.94,0,0,1-.23.51,3.16,3.16,0,0,1-4.32,1.15l-7.59-4.38a3.15,3.15,0,0,1-1.58-2.74v-9.73a3.14,3.14,0,0,1,1.58-2.73l7.59-4.39a2.94,2.94,0,0,1,.51-.23,3.14,3.14,0,0,1,4,1.89A30.28,30.28,0,0,1,340.75,365Z"/><path class="cls-2" d="M316,416.92l-1.83-1.05-1.05,1.82a2.11,2.11,0,0,0-.77-2.88l-16.43-9.48a3.17,3.17,0,0,1-1.58-2.74v-9.73a6.32,6.32,0,0,0-3.16-5.47l-8.43-4.87a6.31,6.31,0,0,0-6.32,0L268,387.39a3.18,3.18,0,0,1-3.16,0l-5.4-3.12a2.11,2.11,0,0,0-2.88.77l-3.16,5.47a.85.85,0,0,0-1.15.31h0L238.3,414.9a.83.83,0,0,0,.31,1.15l-3.16,5.48a.84.84,0,0,0-1.16.31l-10.11,17.52a.83.83,0,0,0,.31,1.15L221.33,446a1,1,0,0,0,.38,1.44,1,1,0,0,0,.78.11,5.82,5.82,0,0,1,4.28.61l8.14,4.7.13.08a5.7,5.7,0,0,0,4.88.39,3.16,3.16,0,0,1,2.7.21L260.71,464a3.14,3.14,0,0,1,1.54,2.23,5.71,5.71,0,0,0,2.77,4l.13.07,8.14,4.7a5.8,5.8,0,0,1,2.67,3.41,1.05,1.05,0,0,0,1.31.71,1,1,0,0,0,.61-.48l-.62,1.08,1.82,1.06A2.12,2.12,0,0,0,282,480l34.76-60.21A2.11,2.11,0,0,0,316,416.92Zm-48-24.06a3.19,3.19,0,0,1,1.58-2.74l8.43-4.86a3.13,3.13,0,0,1,3.16,0l8.43,4.86a3.17,3.17,0,0,1,1.58,2.74v9.73a3.17,3.17,0,0,1-1.58,2.74l-8.43,4.86a3.13,3.13,0,0,1-3.16,0l-8.43-4.86a3.19,3.19,0,0,1-1.58-2.74Zm0,15.2,8.43,4.87a3.15,3.15,0,0,1,1.58,2.74v9.73a3.14,3.14,0,0,1-1.58,2.73L268,433a3.18,3.18,0,0,1-3.16,0l-8.42-4.87a3.14,3.14,0,0,1-1.58-2.73v-9.73a3.15,3.15,0,0,1,1.58-2.74l8.42-4.87A3.18,3.18,0,0,1,268,408.06ZM250,406.83l9.48-16.42a2.11,2.11,0,0,1,2.88-.77h0l.84.48a3.17,3.17,0,0,1,1.58,2.74v9.73a3.17,3.17,0,0,1-1.58,2.74l-8.42,4.86a3.13,3.13,0,0,1-3.16,0l-.85-.48A2.12,2.12,0,0,1,250,406.83Zm-11.55,41.49a2.1,2.1,0,0,1-2.11,2.11,2.14,2.14,0,0,1-1-.28l-5.9-3.41a2.1,2.1,0,0,1-.77-2.87l4.53-7.85a2.11,2.11,0,0,1,2.88-.77h0l.84.49a3.14,3.14,0,0,1,1.58,2.73Zm0-15.32-.84-.49a2.11,2.11,0,0,1-.77-2.88l9.48-16.42a2.11,2.11,0,0,1,2.87-.77l.85.49a3.15,3.15,0,0,1,1.58,2.74v9.73a3.14,3.14,0,0,1-1.58,2.73L241.62,433A3.18,3.18,0,0,1,238.46,433Zm13.17,22.8-8.43-4.86a3.17,3.17,0,0,1-1.58-2.74v-9.73a3.14,3.14,0,0,1,1.58-2.73l8.43-4.87a3.18,3.18,0,0,1,3.16,0l8.42,4.87a3.14,3.14,0,0,1,1.58,2.73v9.73a3.17,3.17,0,0,1-1.58,2.74l-8.42,4.86A3.13,3.13,0,0,1,251.63,455.8ZM278,471.13a2.11,2.11,0,0,1-2.11,2.11,2.05,2.05,0,0,1-1.05-.29L266.28,468a3.18,3.18,0,0,1-1.54-2.24,5.67,5.67,0,0,0-2.77-4l-2.44-1.41a2.1,2.1,0,0,1-.77-2.88,2,2,0,0,1,.77-.77l5.26-3a3.13,3.13,0,0,1,3.16,0l8.43,4.86a3.17,3.17,0,0,1,1.58,2.74Zm13.17-22.93a3.17,3.17,0,0,1-1.58,2.74l-8.43,4.86a3.13,3.13,0,0,1-3.16,0l-8.43-4.86A3.19,3.19,0,0,1,268,448.2v-9.73a3.16,3.16,0,0,1,1.58-2.73l8.43-4.87a3.18,3.18,0,0,1,3.16,0l8.43,4.87a3.14,3.14,0,0,1,1.58,2.73Zm13.16-22.8a3.14,3.14,0,0,1-1.58,2.73L294.29,433a3.18,3.18,0,0,1-3.16,0l-8.43-4.87a3.14,3.14,0,0,1-1.58-2.73v-9.73a3.15,3.15,0,0,1,1.58-2.74l8.43-4.87a3.18,3.18,0,0,1,3.16,0l8.42,4.87a3.15,3.15,0,0,1,1.58,2.74Z"/><path class="cls-2" d="M213,490.52l-.08-.19-.11-.18-.14-.15-.17-.12-24.25-14-.19-.08-.2-.05h-.21l-.21,0-.19.07-.18.11-.15.14-.13.17-2.63,4.56-.08.19,0,.2v.21l0,.2.08.2.11.17.14.16.17.12.93.53.17.11.17.14.16.14.13.16.12.17.1.18.09.2.07.19,0,.2,0,.21v.21l0,.21,0,.2-.06.2-.07.2-.1.18L148.9,550.47l-.11.17-.14.17-.15.15-.15.13-.17.12-.19.1-.2.08-.19.06-.2,0-.22,0H147l-.2,0-.2,0-.21-.06-.2-.08-.18-.09-8.6-5a1,1,0,0,0-1.44.38h0l-4.21,7.3-3.16,5.47a1.06,1.06,0,0,0,.38,1.44l6.57,3.79a1.06,1.06,0,0,0,1.44-.38l1.58-2.74a2.11,2.11,0,0,1,2.88-.77l21,12.11a2.11,2.11,0,0,1,.77,2.88h0l-1.58,2.74a1.05,1.05,0,0,0,.39,1.44l6.56,3.79a1,1,0,0,0,1.44-.39l3.16-5.47,4.22-7.3a1.05,1.05,0,0,0-.39-1.44l-8.6-5-.17-.11-.17-.14-.15-.14-.14-.16-.11-.16-.11-.19-.09-.19-.07-.2,0-.2,0-.21V562l0-.2.06-.2.08-.2.09-.18L205,496.48l.12-.17.13-.17.15-.15.15-.13.18-.12.18-.1.2-.08.19-.06.21,0,.21,0h.21l.21,0,.2,0,.2.06.2.08.18.09.93.54.19.08.2,0h.21l.21,0,.19-.07.18-.11.15-.14.13-.17,2.63-4.56.08-.19.05-.2v-.21Zm-39.74,50.9L164.83,556a3.17,3.17,0,0,1-4.32,1.16l-.91-.53-2.74-1.58-.91-.53a3.16,3.16,0,0,1-1.16-4.31l8.43-14.6a3.17,3.17,0,0,1,4.32-1.16l4.56,2.64A3.14,3.14,0,0,1,173.25,541.42Zm13.49-23.35-7.38,12.77a3.16,3.16,0,0,1-4.31,1.16l-4.57-2.63a3.17,3.17,0,0,1-1.15-4.32l7.37-12.77a3.17,3.17,0,0,1,4.32-1.16l4.56,2.63A3.17,3.17,0,0,1,186.74,518.07Zm13.37-23.17-7.37,12.77a3.17,3.17,0,0,1-4.32,1.16l-4.56-2.64a3.14,3.14,0,0,1-1.15-4.31l7.37-12.77A3.17,3.17,0,0,1,194.4,488l4.56,2.63A3.16,3.16,0,0,1,200.11,494.9Z"/><path class="cls-1" d="M118.57,502.57l3.42.6a2.08,2.08,0,0,0,1.79-.52,44.09,44.09,0,0,0,7.41-8.82,1.05,1.05,0,0,0-.32-1.46l0,0-8-4.63a1.06,1.06,0,0,0-1.41.34c-.37.56-.76,1.12-1.16,1.66a1,1,0,0,0-.11,1.09,6,6,0,0,1-1.43,7.06,37.07,37.07,0,0,1-6.23,4.47,1.06,1.06,0,0,0-.4,1.41l2.29,4.27a1,1,0,0,0,1.43.43h0q.75-.42,1.47-.87a.63.63,0,0,0,.2-.87v0l-.8-1.16a1.89,1.89,0,0,1,.49-2.63A1.93,1.93,0,0,1,118.57,502.57Z"/><path class="cls-2" d="M142.75,609.85l-40-23.1a1.06,1.06,0,0,0-1.44.38h0l-4.21,7.3a1.06,1.06,0,0,0,.38,1.44l8.18,4.72,2.74,1.58,7.72,4.46,2.74,1.58,7.72,4.46,2.74,1.58,8.17,4.72a1,1,0,0,0,1.44-.39l4.22-7.29A1.06,1.06,0,0,0,142.75,609.85Zm-21.9-5.16a1.79,1.79,0,1,1-3.58,0h0a1.79,1.79,0,1,1,3.58,0Z"/><path class="cls-2" d="M192.19,677.84l-4.87-8.43a3.18,3.18,0,0,1,0-3.16l3.12-5.41a2.1,2.1,0,0,0-.77-2.87l-88.94-51.35a2.1,2.1,0,0,0-2.88.77L67.3,660.3a2.1,2.1,0,0,0,.78,2.87h0L157,714.53a2.11,2.11,0,0,0,2.88-.78l9.48-16.43a3.17,3.17,0,0,1,2.74-1.58h9.73a6.3,6.3,0,0,0,5.47-3.16l4.87-8.42A6.31,6.31,0,0,0,192.19,677.84Zm-94-21.6-4.87,8.43a3.14,3.14,0,0,1-2.73,1.58H80.9a3.15,3.15,0,0,1-2.74-1.58l-4-6.85a3.13,3.13,0,0,1,0-3.16l5.77-10a3.19,3.19,0,0,1,2.74-1.58h7.91a3.16,3.16,0,0,1,2.73,1.58l4.87,8.43A3.18,3.18,0,0,1,98.23,656.24Zm0-26.33-4.87,8.42a3.14,3.14,0,0,1-2.73,1.58H84.54a1,1,0,0,1-1.05-1,1.1,1.1,0,0,1,.14-.53l9.73-16.85a1,1,0,0,1,1.44-.38,1,1,0,0,1,.39.38l3,5.27A3.18,3.18,0,0,1,98.23,629.91Zm2.74-4.74-4-6.85a3.18,3.18,0,0,1,0-3.16l.94-1.63a2.11,2.11,0,0,1,2.88-.77l15,8.69a2.1,2.1,0,0,1,.78,2.87l-.49.85a3.17,3.17,0,0,1-2.74,1.58H103.7A3.14,3.14,0,0,1,101,625.17Zm7.8,24.8a2.48,2.48,0,1,1-2.48-2.48A2.48,2.48,0,0,1,108.77,650Zm15.43,30.59-20.52-11.85a3.58,3.58,0,0,1-1.31-4.89l14-24.18h0a3.58,3.58,0,0,1,4.89-1.31l20.52,11.85a3.57,3.57,0,0,1,1.31,4.89l-14,24.18A3.59,3.59,0,0,1,124.2,680.56Zm14.93-14.11a2.48,2.48,0,1,1-2.47,2.48A2.48,2.48,0,0,1,139.13,666.45Zm17.69,33.67-20.07-11.59,18.17-31.47L175,668.65Z"/><path class="cls-1" d="M168.4,626.68l-4.56-2.63a5.28,5.28,0,0,0-7.2,1.93l-3.16,5.47a1.06,1.06,0,0,0,.39,1.44l11.86,6.85a1.05,1.05,0,0,0,1.44-.39l3.16-5.47A5.28,5.28,0,0,0,168.4,626.68Zm-2.47,4.17a3,3,0,1,1-5.94,0h0a3,3,0,0,1,5.94,0Z"/><path class="cls-1" d="M212,733.08v.15l0,.15,0,.15-.06.15-.08.16L209.92,737l-.09.14-.09.12-.11.1-.12.09-.12.06-.14.05-.14,0-.15,0h-.16l-.18,0-.18,0-.19-.06-.2-.07-.2-.09-.22-.11-.23-.13-.22-.13-.21-.14-.18-.13-.17-.14-.14-.14-.13-.14-.1-.14-.09-.14-.06-.14,0-.14,0-.14v-.28l0-.15.05-.14.08-.15,1.84-3.19.11-.16.11-.14.11-.12.13-.1.13-.07.14-.06.15,0h.32l.18,0,.18,0,.19.06.19.07.21.09.21.11.22.12.23.13.2.14.18.14.16.14.15.14.12.14.1.14.08.15.06.14,0,.15Zm-13.6-8,0-.14-.06-.15-.08-.14-.1-.15-.12-.14-.15-.14-.16-.14-.18-.13-.2-.14-.23-.14-.22-.12-.21-.1-.21-.09-.19-.08-.19,0-.18,0-.17,0h-.33l-.15,0-.14,0-.13.08-.13.09-.11.12-.11.14-.11.16-1.84,3.2-.08.14-.05.15,0,.14,0,.14v.15l0,.14.05.14.06.14.09.14.1.14.13.14.14.13.17.14.18.14.21.13.22.14.23.12.22.11.2.09.2.08.19,0,.18,0,.18,0h.31l.14,0,.14,0,.12-.07.12-.08.11-.1.09-.12.09-.14,1.85-3.2.08-.15.06-.16,0-.15,0-.15v-.15Zm6.29,3.39-.14-.19-.19-.19-.24-.19-.3-.19-1.41-.81-1.46,2.53,1.32.76.35.18.31.14.28.08.23,0,.21,0,.18-.09.17-.15.15-.21.54-.93.08-.19,0-.18,0-.19Zm21.05,4.71c-2.25,4-2.21,7.42-.21,11.19,2.34,4.42,1.44,6.51-3.62,8-.89.27-1.94.39-2.19,1.25-1.07,3.65-3.26,2.05-5.17,1.12-2.06-1-4-2.25-6-3.38-5.66-3.19-5.85-3.27-3.25-8.9,1-2.09.51-2.67-1.21-3.61-3.41-1.85-6.78-3.82-10-6-2.79-1.88-4.25.14-5,1.92-1.69,3.95-4,3.06-6.61,1.41-1.2-.74-2.37-1.53-3.59-2.22-7.15-4-7.82-5.48-6.06-13.4.53-2.37,2-3.81,4.52-3.69,5.95.27,9.38-2.89,12-7.9,4-7.75,9.19-14.89,12.87-22.87,1.22-2.64,3.76-2.8,7-2.68,2.46.89,5.74,1,8.72,3.13a124,124,0,0,0,14.83,8.58c3.7,1.88,5.95,4.86,8,8.24a4.25,4.25,0,0,1-.1,4.5C235,716,230.48,724.65,225.71,733.19Zm-45.42-11.9c-.5-1.13-1.07-2.14-2.57-2.24-1.71-.11-3.52,0-3.73,2.06-.16,1.54,1.35,2.77,2.62,3C178.46,724.58,179.22,722.72,180.29,721.29Zm13.42-.27-1-.57L187.23,725l-.09-.06,1.17-7-1-.61L186,725.53l1.16.67Zm3.61,8.75,1.84-3.19.12-.23.1-.24.06-.23,0-.24v-.23l0-.22-.06-.23-.09-.22-.13-.22-.15-.22-.19-.22-.21-.22-.25-.21-.28-.21-.31-.21-.34-.2-.35-.19-.33-.16-.32-.14-.3-.1-.29-.08-.28-.05-.27,0H195l-.24,0-.22.06-.22.09-.19.12-.19.14-.17.17-.16.2-.15.23-1.83,3.17-.12.23-.08.23-.06.22,0,.22v.22l0,.22.07.22.09.22.13.21.15.21.19.22.22.21.24.2.28.21.3.21.34.2.32.17.3.15.3.13.29.11.29.08.28.07.26,0,.27,0H196l.23,0,.22-.07.21-.11.19-.13.18-.16.16-.2Zm7.54,1.36.1-.12.09-.14.67-1.16.13-.26.09-.25,0-.23v-.21l-.06-.21-.1-.2-.15-.21-.2-.2-.25-.2-.3-.22-.36-.24-.42-.25-2.36-1.36-3.88,6.72,1,.58,1.66-2.87,1,.56.27,4,1.23.71-.42-4.23.37.19.37.12.35.07H204l.17,0,.15,0,.15-.05.13-.07.12-.09Zm6,6.48,1.84-3.19.12-.24.1-.24.06-.23,0-.23v-.23l0-.23-.06-.22-.09-.23-.13-.22-.15-.22-.19-.22-.21-.21-.25-.21-.28-.21-.31-.21-.34-.21-.35-.19-.33-.16-.32-.13-.3-.11-.29-.08-.28-.05-.27,0h-.25l-.24,0-.22.06-.22.08-.2.12-.18.14-.17.17-.16.2-.15.23-1.83,3.18-.12.23-.08.22L205,735l0,.23v.22l0,.22.07.21.09.22.13.22.15.21.19.21.22.21.24.21.28.21.3.2.34.21.32.17.3.15.3.13.29.1.29.09.28.06.26,0,.27,0h.25l.23,0,.22-.07.21-.1.19-.13.18-.17.16-.2Zm10.18-.79-.88-.51-3.2,5.55-.45-7.66-1.21-.7-3.88,6.72.88.51,3.26-5.64.39,7.75,1.22.7Zm.8,8.13c-1.59.11-3,.91-2.5,2.59.37,1.33.89,3.26,3.08,2.77,2.32.15,2.8-1.8,2.86-3.12C225.4,745.16,223.58,744.82,221.87,745Zm10.21-36.23c0-9.63-8.55-18.36-18.05-17.67-10.2.74-17.24,7.14-17.57,18.19-.3,9.94,7.41,17.37,17.5,17.38C224.78,726.63,232.09,719.41,232.08,708.72Z"/><path class="cls-1" d="M236.83,669a4.38,4.38,0,0,0-1.85-7.82l-3.12-.54a5.31,5.31,0,0,0-2.28.09L221.19,663a15.82,15.82,0,0,1-11.36-1.23l-6.5-3.37a1.58,1.58,0,0,0-1.45,2.81l1.09.56a2.09,2.09,0,0,1,1.06,1.33l1.76,6.54a2.13,2.13,0,0,1-.33,1.78c-.32.45-.63.92-.91,1.4a4.21,4.21,0,0,0-.47,3.07,1.06,1.06,0,0,0,1.26.79,1.2,1.2,0,0,0,.31-.13c1.17-.69,2.37-1.34,3.59-1.93a.78.78,0,0,0,.37-1.05.76.76,0,0,0-.27-.32,1.58,1.58,0,0,1-.44-2.19,1.21,1.21,0,0,1,.21-.24l.15-.15a4.24,4.24,0,0,1,1.83-1l12.84-3.43.58-.13.59-.08.6,0,.59,0,.6.08.58.12.57.18.55.23.53.28.5.32.48.36.44.4.4.44.36.48.33.5.27.53,2.2,4.71a1.58,1.58,0,0,0,2.86-1.34l-.78-1.68A2.09,2.09,0,0,1,236.83,669Zm-.77-3.51a1.85,1.85,0,1,1-3.69,0h0a1.85,1.85,0,1,1,3.69,0Z"/><path class="cls-1" d="M298.57,658.4h-47a3.16,3.16,0,0,0-3.17,3.16v2.32a.42.42,0,0,0,.43.42h15V664a1.79,1.79,0,1,1,2.53-2.54,1.79,1.79,0,0,1,0,2.53h0v.31h12a3.58,3.58,0,0,1,3.58,3.58v9.48a2.1,2.1,0,0,0,2.11,2.11h14.54a4.21,4.21,0,0,0,4.21-4.21V662.61A4.2,4.2,0,0,0,298.57,658.4Zm-6.32,13.43a2.9,2.9,0,1,1,2.89-2.9A2.9,2.9,0,0,1,292.25,671.83Z"/><path class="cls-2" d="M274.62,678.57H246.18a3.79,3.79,0,0,0-3.8,3.79v7.38a4.64,4.64,0,0,0,1.36,3.28l4.41,4.41a4.64,4.64,0,0,0,3.28,1.36h17.93a4.64,4.64,0,0,0,3.28-1.36l4.41-4.41a4.64,4.64,0,0,0,1.36-3.28v-7.38A3.79,3.79,0,0,0,274.62,678.57ZM260.4,691.84a3.16,3.16,0,1,1,3.16-3.16A3.16,3.16,0,0,1,260.4,691.84Z"/><path class="cls-2" d="M320,755.8l-16.51-9.53a1.06,1.06,0,0,1-.39-1.44l9.54-16.51a1.06,1.06,0,0,0-.39-1.44l-40.17-23.2-.41-.2-.44-.16-.44-.1-.45-.05h-.45l-.44.07-.42.11-.39.17-.36.22L268,704l-.28.3-.23.34-31.64,54.81a3.23,3.23,0,0,0-.22,2.81l.88,2.23a3.21,3.21,0,0,0,1.4,1.64l55.3,31.93.38.18.39.12.42.07h.42l.43-.05.42-.11.41-.17.39-.21.36-.27.34-.31.29-.36.26-.38,22.72-39.35A1.06,1.06,0,0,0,320,755.8Zm-24.87-31.91a5.27,5.27,0,1,1-5.27,5.26A5.26,5.26,0,0,1,295.15,723.89Zm-4.92,24.32a3.16,3.16,0,1,1,3.16,3.16A3.15,3.15,0,0,1,290.23,748.21ZM296,776.85l-1.58,2.75-3.56-7.07,1.59-2.75ZM271.15,710a5.27,5.27,0,1,1-5.26,5.27A5.27,5.27,0,0,1,271.15,710Zm-6,18.69a3.16,3.16,0,1,1-3.16,3.16A3.17,3.17,0,0,1,265.11,728.72Zm-16.33,34.6a3.16,3.16,0,1,1,3.16-3.16A3.17,3.17,0,0,1,248.78,763.32Zm28.28,16.33a3.16,3.16,0,1,1,3.16-3.16A3.17,3.17,0,0,1,277.06,779.65Zm7.72-25.46a13.7,13.7,0,1,1-27.39,0h0a13.7,13.7,0,0,1,27.39,0Zm6.28,38.08a5.27,5.27,0,1,1,5.27-5.27A5.27,5.27,0,0,1,291.06,792.27Zm9.81-10.67-7.11-14.14,1.59-2.75,7.1,14.14Zm2.92-5.07-3.55-7.07,1.59-2.75,3.55,7.07Zm2.75-11.08a5.27,5.27,0,1,1,5.27-5.27A5.26,5.26,0,0,1,306.54,765.45Z"/><path class="cls-2" d="M668,185.83l-60.21-34.77a2.12,2.12,0,0,0-2.88.78h0l-1,1.82,1.83,1.05a2.12,2.12,0,0,0-2.88.77l-9.49,16.44a3.17,3.17,0,0,1-2.74,1.58h-9.73a6.32,6.32,0,0,0-5.47,3.16l-4.86,8.42a6.31,6.31,0,0,0,0,6.32l4.86,8.43a3.13,3.13,0,0,1,0,3.16l-3.12,5.4a2.11,2.11,0,0,0,.77,2.88l5.48,3.16a.84.84,0,0,0,.3,1.15l24.09,13.91a.85.85,0,0,0,1.15-.31l5.47,3.16a.85.85,0,0,0,.31,1.15l17.52,10.12a.84.84,0,0,0,1.15-.31l5.48,3.16a1.05,1.05,0,0,0,1.44-.39,1.08,1.08,0,0,0,.11-.77,5.76,5.76,0,0,1,.61-4.28l4.7-8.15.07-.13a5.67,5.67,0,0,0,.39-4.87,3.15,3.15,0,0,1,.22-2.71L652,207.08a3.14,3.14,0,0,1,2.23-1.54,5.71,5.71,0,0,0,4-2.77l.08-.14,4.7-8.14a5.79,5.79,0,0,1,3.4-2.67,1,1,0,0,0,.72-1.3,1.08,1.08,0,0,0-.49-.62l1.09.63,1-1.83A2.1,2.1,0,0,0,668,185.83Zm-41.53-9.17h9.73a3.14,3.14,0,0,1,2.73,1.58l4.87,8.42a3.18,3.18,0,0,1,0,3.16l-4.87,8.43a3.14,3.14,0,0,1-2.73,1.58h-9.73a3.15,3.15,0,0,1-2.74-1.58l-4.87-8.43a3.18,3.18,0,0,1,0-3.16l4.87-8.42A3.15,3.15,0,0,1,626.46,176.66ZM621,203l-4.86,8.43a3.19,3.19,0,0,1-2.74,1.58h-9.73a3.19,3.19,0,0,1-2.74-1.58L596.05,203a3.13,3.13,0,0,1,0-3.16l4.86-8.43a3.19,3.19,0,0,1,2.74-1.58h9.73a3.19,3.19,0,0,1,2.74,1.58l4.86,8.43A3.13,3.13,0,0,1,621,203ZM596.05,173.5l4.86-8.43a3.17,3.17,0,0,1,2.74-1.58h9.73a3.17,3.17,0,0,1,2.74,1.58L621,173.5a3.13,3.13,0,0,1,0,3.16l-4.86,8.42a3.17,3.17,0,0,1-2.74,1.58h-9.73a3.17,3.17,0,0,1-2.74-1.58l-4.86-8.42A3.13,3.13,0,0,1,596.05,173.5Zm-22.81,16.32a3.18,3.18,0,0,1,0-3.16l4.87-8.42a3.15,3.15,0,0,1,2.73-1.58h9.73a3.15,3.15,0,0,1,2.74,1.58l4.87,8.42a3.18,3.18,0,0,1,0,3.16l-4.87,8.43a3.15,3.15,0,0,1-2.74,1.58h-9.73a3.15,3.15,0,0,1-2.73-1.58Zm24.94,26.34-.49.84a2.11,2.11,0,0,1-2.88.77l-16.42-9.48a2.11,2.11,0,0,1-.77-2.88h0l.49-.84a3.15,3.15,0,0,1,2.73-1.58h9.73a3.15,3.15,0,0,1,2.74,1.58l4.87,8.43A3.18,3.18,0,0,1,598.18,216.16ZM621,229.32l-.48.85a2.12,2.12,0,0,1-2.88.77l-16.42-9.48a2.11,2.11,0,0,1-.77-2.88l.48-.84a3.17,3.17,0,0,1,2.74-1.58h9.73a3.17,3.17,0,0,1,2.74,1.58l4.86,8.42A3.13,3.13,0,0,1,621,229.32Zm17.15,3.16-3.4,5.9a2.1,2.1,0,0,1-2.88.77L624,234.62a2.11,2.11,0,0,1-.77-2.87l.49-.85a3.17,3.17,0,0,1,2.74-1.58h9.85a2.11,2.11,0,0,1,2.1,2.11A2,2,0,0,1,638.13,232.48Zm5.66-16.32-4.87,8.42a3.14,3.14,0,0,1-2.73,1.58h-9.73a3.15,3.15,0,0,1-2.74-1.58l-4.87-8.42a3.18,3.18,0,0,1,0-3.16l4.87-8.43a3.15,3.15,0,0,1,2.74-1.58h9.73a3.14,3.14,0,0,1,2.73,1.58l4.87,8.43A3.18,3.18,0,0,1,643.79,216.16ZM660.94,193,656,201.5a3.15,3.15,0,0,1-2.24,1.54,5.69,5.69,0,0,0-4,2.77l-1.41,2.45a2.12,2.12,0,0,1-2.88.77,2.18,2.18,0,0,1-.77-.77l-3-5.27a3.13,3.13,0,0,1,0-3.16l4.86-8.43a3.19,3.19,0,0,1,2.74-1.58h9.85a2.11,2.11,0,0,1,2.11,2.11A2.14,2.14,0,0,1,660.94,193Z"/><path class="cls-1" d="M727.27,218.43l-46.53-26.87a4.74,4.74,0,0,0-6.47,1.74l-26.86,46.52a4.75,4.75,0,0,0,1.73,6.48l46.53,26.86a4.73,4.73,0,0,0,6.47-1.74L729,224.9A4.74,4.74,0,0,0,727.27,218.43Zm-49.39-14.54a30.28,30.28,0,0,1,20.65,0,2.88,2.88,0,0,1,.5.24,3.15,3.15,0,0,1,1.16,4.31L695.81,216a3.17,3.17,0,0,1-2.74,1.58h-9.73A3.17,3.17,0,0,1,680.6,216l-4.38-7.59a3.22,3.22,0,0,1-.23-.5A3.16,3.16,0,0,1,677.88,203.89Zm4,33.3-3.08-1.77,15.8-7.94,3.07,1.78Zm13.56-.69-7.9,4-3.07-1.78,7.9-4ZM681,228.18l7.89-4L692,226l-7.9,4ZM662.92,215.7l-1.79,3.09A30.62,30.62,0,0,1,662.92,215.7Zm-4.53,11.37a30.88,30.88,0,0,1,1.55-5.59c.11-.28.22-.55.34-.83L664.1,214l.55-.71a31.14,31.14,0,0,1,4.06-4.14,3.17,3.17,0,0,1,4.46.39,3.58,3.58,0,0,1,.31.45l4.39,7.59a3.18,3.18,0,0,1,0,3.16L673,229.2a3.15,3.15,0,0,1-2.73,1.58H661.5a3.15,3.15,0,0,1-3.16-3.16A3.41,3.41,0,0,1,658.39,227.07Zm14.78,28.08a3.17,3.17,0,0,1-4.46.39,30.29,30.29,0,0,1-10.32-17.89,3.31,3.31,0,0,1,0-.55,3.16,3.16,0,0,1,3.16-3.16h8.77a3.15,3.15,0,0,1,2.73,1.58l4.87,8.43a3.18,3.18,0,0,1,0,3.16l-4.39,7.59A3.58,3.58,0,0,1,673.17,255.15Zm25.36,5.68a30.28,30.28,0,0,1-20.65,0,3.22,3.22,0,0,1-.5-.23,3.17,3.17,0,0,1-1.16-4.32l4.38-7.59a3.17,3.17,0,0,1,2.74-1.58h9.73a3.17,3.17,0,0,1,2.74,1.58l4.38,7.59a3.22,3.22,0,0,1,.23.5A3.16,3.16,0,0,1,698.53,260.83Zm15-11.81,1.79-3.09A27.89,27.89,0,0,1,713.49,249ZM718,237.65a30.88,30.88,0,0,1-1.55,5.59c-.11.28-.22.56-.34.83l-3.82,6.62c-.18.24-.36.48-.55.71a30.55,30.55,0,0,1-4.06,4.14,3.16,3.16,0,0,1-4.45-.39,2.83,2.83,0,0,1-.32-.45l-4.39-7.59a3.18,3.18,0,0,1,0-3.16l4.87-8.43a3.15,3.15,0,0,1,2.74-1.58h8.76a3.16,3.16,0,0,1,3.16,3.16A2.5,2.5,0,0,1,718,237.65Zm-3.11-6.87h-8.76a3.15,3.15,0,0,1-2.74-1.58l-4.87-8.43a3.18,3.18,0,0,1,0-3.16l4.39-7.59a2.83,2.83,0,0,1,.32-.45,3.16,3.16,0,0,1,4.45-.39A30.29,30.29,0,0,1,718,227.07a2.56,2.56,0,0,1,.05.55A3.15,3.15,0,0,1,714.91,230.78Z"/><path class="cls-2" d="M614.78,251.3a4,4,0,0,0-1.9-2.5l-10.81-6.24v-.15L613,248.68l-26.18-15.11a18.07,18.07,0,0,1-6.91-7.15,5.71,5.71,0,0,1-.45-1.19,4.14,4.14,0,0,0-1.95-2.58,5.3,5.3,0,0,1-.73-.51c-1-.79-1.93-1.55-2.93-2.27l-.06.11q-2-1.46-4.1-2.72a.9.9,0,0,0-1.26.31h0l-1.14,2-.09-.11-8.65,15-.91,1.57-.12.24-.12.26-.19.54-.16.55-.14.52,0,.21,0,.21.09.18.07.08.08.06,3,1.71-3.91,6.77-3-1.71-.1,0-.1,0h-.2l-.21.07-.18.08-.39.39-.39.41-.37.44-.17.23-.15.23-.91,1.57-.65,1.14.08-.12.09-.11.11-.1.11-.09-2.39,4.14-.17,0,1.24-2.15-6.25,10.82h.16l-2,3.41a.92.92,0,0,0,.34,1.25h0a56.83,56.83,0,0,0,7.82,3.58,4.19,4.19,0,0,1,.83.39,4,4,0,0,0,3.11.38,5.61,5.61,0,0,1,1.29-.21,18.13,18.13,0,0,1,9.71,2.42l26.18,15.12a4.1,4.1,0,0,0,3.12.4,17.78,17.78,0,0,0,10.7-8.26L613,264.69A17.75,17.75,0,0,0,614.78,251.3Zm-60.72,16.39a2.61,2.61,0,0,1-5.22,0h0a2.61,2.61,0,1,1,5.22,0ZM559,233.83v-.14l0-.14.05-.14.06-.13,2.92-5.05.07.13Zm6.39,4.78a3.16,3.16,0,1,1,3.16,3.16A3.16,3.16,0,0,1,565.38,238.61Zm6.33,23.05a4.61,4.61,0,1,1,4.61-4.61A4.6,4.6,0,0,1,571.71,261.66Zm3.66-32.94a2.48,2.48,0,1,1,2.48-2.47A2.48,2.48,0,0,1,575.37,228.72Zm11.19,35.41L585,261l.71-1.22,1.57,3.14Zm-.28-5.39.7-1.22,3.16,6.27-.71,1.23Zm3.58-.33,1.58,3.13-.71,1.23-1.57-3.14Zm8.08,27.34a3.17,3.17,0,0,1-4.32,1.16l-.64-.37a3.16,3.16,0,0,1,3.16-5.47l.64.37A3.16,3.16,0,0,1,597.94,285.75Zm1.17-5.18a3.16,3.16,0,1,1,3.16-3.16A3.15,3.15,0,0,1,599.11,280.57Zm15.15-23.09a3.16,3.16,0,0,1-4.31,1.15l-.64-.37a3.16,3.16,0,0,1,3.16-5.47l.64.37A3.16,3.16,0,0,1,614.26,257.48Z"/><path class="cls-2" d="M659.16,263.16l-.41-.41H625l-.41.41v25.48l.19.21.22.22h33.73l.21-.22.2-.21Zm-25.07,19.72a3.16,3.16,0,1,1-6.32,0h0a3.16,3.16,0,1,1,6.32,0Zm21.91,0a3.16,3.16,0,1,1-6.32,0h0a3.16,3.16,0,1,1,6.32,0Z"/><path class="cls-2" d="M729.94,287.67H718.35a10,10,0,0,1-4.64-1.14,8.46,8.46,0,0,0-3.91-1H698.22a8.44,8.44,0,0,1-3.09-.59,14.22,14.22,0,1,0-10.44,26.45l.64.24A43.91,43.91,0,0,0,699.47,314h30.47a3.16,3.16,0,0,0,3.16-3.16v-20A3.16,3.16,0,0,0,729.94,287.67Zm-33.31,10.56a6.72,6.72,0,0,1-13.43,0v0a6.72,6.72,0,1,1,13.43,0Zm12.24,2.82a2.85,2.85,0,1,1,2.85-2.84A2.84,2.84,0,0,1,708.87,301.05Zm16.86,0a2.85,2.85,0,1,1,2.84-2.84A2.85,2.85,0,0,1,725.73,301.05Z"/><path class="cls-2" d="M567.46,307.59l-14.6-8.42a2.11,2.11,0,0,1-.77-2.88l2.14-3.71.22-.41.2-.41.18-.43.15-.43.14-.44.11-.45.09-.45.06-.45,0-.46,0-.46v-.46l0-.45-.06-.46-.09-.45-.11-.44-.15-.43-.15-.34-.18-.33-.22-.3-.25-.29-.38-.38-.4-.37-.42-.36-.42-.34-.44-.33-.45-.31-.46-.29-.47-.27-3.42-1.9-1.71-.95-1.69-.94-6.61-3.68-.17-.07-.17,0h-.18l-.18,0-.17.07-.14.1-.13.13-.1.14-2.55,4.41-.08.2,0,.22v.23l.06.21.1.2.13.18.17.15.18.13,4,2.3.39,1.44-13.7,23.72a1,1,0,0,1-1.44.38l-5.47-3.16a1.06,1.06,0,0,0-1.44.39l-2.25,3.9a4.21,4.21,0,0,0,1.54,5.75l2.23,1.29a4.18,4.18,0,0,1,1.71,1.87l1.32,2.82a10.52,10.52,0,0,0,4.28,4.67L549,339.52a3.17,3.17,0,0,0,4.32-1.16l15.27-26.45A3.16,3.16,0,0,0,567.46,307.59Zm-30.62-1.75a2.72,2.72,0,0,1-1-3.73L541.1,293a2.74,2.74,0,1,1,4.75,2.73l-5.27,9.13A2.73,2.73,0,0,1,536.84,305.84ZM547.64,330a2.85,2.85,0,1,1,2.85-2.84A2.84,2.84,0,0,1,547.64,330Zm8.43-14.59a2.85,2.85,0,1,1,2.84-2.85A2.86,2.86,0,0,1,556.07,315.42Z"/><path class="cls-2" d="M563.17,359.06l-.36-2.37a3.25,3.25,0,0,0-1.59-2.33l-54.8-31.64-.38-.18-.39-.12-.42-.07h-.42l-.42.05-.43.11-.41.17-.39.21-.36.27-.34.31-.29.36-.26.38-23.19,40.17a1,1,0,0,0,.39,1.44l16.51,9.53a1.06,1.06,0,0,1,.38,1.44l-9.53,16.51a1,1,0,0,0,.39,1.44l39.35,22.72.41.21.43.16.45.1.45.05h.44l.44-.06.42-.12.4-.17.36-.22.32-.26.28-.31.24-.34,31.93-55.3A3.2,3.2,0,0,0,563.17,359.06ZM522.07,342a3.16,3.16,0,1,1-3.16,3.16A3.17,3.17,0,0,1,522.07,342Zm-13.53-13.44a5.27,5.27,0,1,1-5.27,5.27A5.27,5.27,0,0,1,508.54,328.52Zm6.28,61.6,2.75,1.58-7.07,3.56-2.75-1.59Zm-20.13-27.07a5.27,5.27,0,1,1,5.27-5.27A5.27,5.27,0,0,1,494.69,363.05Zm5.64,32.57a5.27,5.27,0,1,1,5.27-5.27A5.26,5.26,0,0,1,500.33,395.62Zm2.25-22.22a3.16,3.16,0,1,1,3.16,3.16A3.16,3.16,0,0,1,502.58,373.4Zm3.17,26.75L519.89,393l2.75,1.59-14.14,7.11Zm7.82,4.52-2.75-1.59,7.07-3.56,2.75,1.59Zm13.58,6.43a5.27,5.27,0,1,1,5.27-5.26A5.26,5.26,0,0,1,527.15,411.1ZM534,392.89a3.16,3.16,0,1,1,3.16-3.16A3.15,3.15,0,0,1,534,392.89Zm-6-11.77a13.69,13.69,0,0,1-13.69-13.69v0A13.7,13.7,0,1,1,528,381.12Zm22.3-16.51a3.16,3.16,0,1,1,3.16-3.16A3.16,3.16,0,0,1,550.34,364.61Z"/><path class="cls-2" d="M506.22,418.09l-33.3-19.23a2.12,2.12,0,0,0-2.88.77l-8.42,14.6a2.11,2.11,0,0,0,.77,2.88l1.31.75a8.42,8.42,0,0,1,3.92,5.12l.24.87a31.74,31.74,0,0,1,.17,15.7,14.22,14.22,0,0,0,27.62,6.77,14.36,14.36,0,0,0,.4-3.86,8.45,8.45,0,0,1,1.13-4.5L507,421A2.1,2.1,0,0,0,506.22,418.09Zm-34.34-6h0a2.85,2.85,0,1,1,5.69,0h0a2.85,2.85,0,0,1-5.69,0Zm16.51,30.87a6.55,6.55,0,1,1-13.1,0h0a6.55,6.55,0,0,1,13.1,0Zm5-17.23a2.85,2.85,0,1,1,2.84-2.85A2.85,2.85,0,0,1,493.43,425.71Z"/><path class="cls-2" d="M484.91,474l-15.79-9.12a8.44,8.44,0,0,1-2.93-2.83l-.34-.52-.33-.48-.33-.46-.32-.43a23.32,23.32,0,0,0-6.61-5.83,4.67,4.67,0,0,1-1.54-1.49.43.43,0,0,0-.58-.13.41.41,0,0,0-.13.58,5.43,5.43,0,0,0,1.87,1.79.84.84,0,0,1,.31.31.85.85,0,0,1-.31,1.15l-1.4.8-.89.52a1,1,0,0,1-1,0l-1.89-1.09a1.05,1.05,0,0,1-.39-1.44l2.65-4.59.07-.16,0-.17,0-.18v-.17l0-.18-.08-.16-.09-.15-.12-.13a4.24,4.24,0,0,0-.74-.54l-8.42-4.86-.13-.08-.59-.34-.35-.17-.38-.1-.38,0-.38,0-.37.08-.35.15-.31.21-.26.26-.21.3-14,24.29-.44.79-.41.82-.38.84-.36.87-.32.89-.3.9-.26.91-.23.93-.53,2.28-.12.51-1,4.12a9.05,9.05,0,0,0-.14,3.24,3.16,3.16,0,0,0,1.55,2.29l38.93,22.47a4.2,4.2,0,0,0,5.75-1.54l16.86-29.19A4.21,4.21,0,0,0,484.91,474Zm-20.7,3.67a1.79,1.79,0,1,1,3.58,0h0a1.79,1.79,0,1,1-3.58,0Zm-10.34-16.54H459l2.55,4.42L459,470h-5.11l-2.55-4.42Zm-15.66,12.53H433.1l-2.55-4.43,2.55-4.42h5.11l2.56,4.42ZM443.77,458a2.84,2.84,0,0,1-2.84-2.85h0a2.85,2.85,0,0,1,5.69,0h0A2.85,2.85,0,0,1,443.77,458ZM448.61,484l-2.56-4.42,2.56-4.43h5.1l2.56,4.43L453.71,484Zm7.17,8.34h0a1.79,1.79,0,0,1,3.58,0h0a1.79,1.79,0,1,1-3.58,0Zm9.72,9.44a2.11,2.11,0,0,1-2.88.77l-2.74-1.58a2.11,2.11,0,0,1-.77-2.87l12.64-21.9a2.11,2.11,0,0,1,2.88-.77l2.74,1.58a2.12,2.12,0,0,1,.77,2.88Zm7.54-1.54a1.79,1.79,0,1,1-3.58,0h0a1.79,1.79,0,1,1,3.58,0Zm8.43-14.59a1.79,1.79,0,1,1-3.58,0h0a1.79,1.79,0,0,1,3.58,0Z"/><path class="cls-1" d="M451.63,515l-29.74-17.17a6.31,6.31,0,0,0-8.63,2.31l-.18.3-1.65,2.86L364,585.45l-1.65,2.86-.18.31a6.32,6.32,0,0,0,2.31,8.63l29.74,17.17a6.33,6.33,0,0,0,8.64-2.32l.23-.41,1.53-2.64,47.56-82.38,1.53-2.64.23-.41A6.31,6.31,0,0,0,451.63,515ZM380.37,604.1l-1.78-3.54.8-1.37,1.77,3.53Zm3.24,1L380.06,598l.79-1.38,3.55,7.07Zm1.46-2.54L383.3,599l.79-1.38,1.78,3.54ZM434.9,552.4l-12.06,20.89-6.32,10.94-12.06,20.89a1.05,1.05,0,0,1-1.44.39L367.8,585.18a1.06,1.06,0,0,1-.38-1.44L397.86,531a1.06,1.06,0,0,1,1.44-.38l.23.13,29.19,16.85,5.79,3.35A1,1,0,0,1,434.9,552.4Zm7.8-20.68a2.64,2.64,0,0,1-3.6,1h0l-4.47-2.58-1.68-1a2.12,2.12,0,0,0-2.88.77l-1.58,2.74a1,1,0,0,1-1.44.38l-14.6-8.42a1.06,1.06,0,0,1-.38-1.44l7.9-13.68a1,1,0,0,1,1.44-.39L436,517.52a1,1,0,0,1,.39,1.44l-1.58,2.73a2.11,2.11,0,0,0,.77,2.88l1.69,1,4.47,2.58A2.62,2.62,0,0,1,442.7,531.72Z"/><path class="cls-2" d="M350.75,712.55a10.66,10.66,0,0,0,10.39-10.93.57.57,0,0,0,0-.13l-.8-21a15.46,15.46,0,0,0-16-14.85l-.75,0-12.78,1.12a10.43,10.43,0,0,0-7.06,3.67l-10.35,12.34a.92.92,0,0,0,.11,1.3l7.37,6.18L306.75,707l7.68,6.45Zm3.76-7.27-4.94,1.8-4-3.39.92-5.18,4.94-1.8,4,3.38Zm.41-12.95a1.66,1.66,0,1,1-1.67,1.66A1.66,1.66,0,0,1,354.92,692.33Zm-18.21-18.15a2.11,2.11,0,0,1,3-.26l1.72,1.44a.51.51,0,0,0,.58.06,6.55,6.55,0,0,1,1-.42l-.12-.1a6.58,6.58,0,0,1,2.89-.26l-.1.13a5.88,5.88,0,0,1,1.09.23.52.52,0,0,0,.56-.16l1.45-1.72a2.1,2.1,0,1,1,3.22,2.71l-1.44,1.72a.51.51,0,0,0-.06.58,6.28,6.28,0,0,1,.42,1l.1-.12a6.54,6.54,0,0,1,.26,2.88l-.13-.1a5.71,5.71,0,0,1-.23,1.09.53.53,0,0,0,.16.57l1.72,1.44a2.11,2.11,0,1,1-2.71,3.23l-1.72-1.45a.53.53,0,0,0-.58-.06,6.28,6.28,0,0,1-1,.42l.12.11a6.53,6.53,0,0,1-2.88.25l.1-.12a6.61,6.61,0,0,1-1.09-.24.53.53,0,0,0-.57.16L341,689a2.11,2.11,0,1,1-3.23-2.71l1.45-1.72a.53.53,0,0,0,.06-.58,6.55,6.55,0,0,1-.42-1l-.11.12a6.58,6.58,0,0,1-.25-2.89l.12.1a6.85,6.85,0,0,1,.24-1.09.52.52,0,0,0-.16-.56L337,677.14A2.1,2.1,0,0,1,336.71,674.18Zm-7.84-1.08a1.67,1.67,0,1,1-1.66,1.67A1.66,1.66,0,0,1,328.87,673.1ZM317.4,703.31a1.67,1.67,0,1,1-1.66,1.67A1.67,1.67,0,0,1,317.4,703.31Z"/><path class="cls-2" d="M394.88,636.55l-2.5-1.45a1.16,1.16,0,0,1-.51-1.41,25.3,25.3,0,0,1,4-6.87,2.06,2.06,0,0,0,.45-1.51,4,4,0,0,0-1.95-2.94l-2.2-1.27-.71-.42-.22-.1-.3-.07h-.29l-.27.06-.24.11-.09.05A10.9,10.9,0,0,1,373.17,611v-.1l0-.26-.09-.27-.15-.25-.21-.22-.19-.13-.71-.41-17.14-9.9a4.22,4.22,0,0,0-3.22-.41,17.89,17.89,0,0,0-10.78,8.31l-9.44,16.35a17.91,17.91,0,0,0-1.81,13.49,4.17,4.17,0,0,0,2,2.58l39.67,22.91a4,4,0,0,0,3.53.22,2.1,2.1,0,0,0,1.08-1.15,25,25,0,0,1,4-6.86,1.15,1.15,0,0,1,1.48-.27l2.5,1.44h0l.37.21a1.06,1.06,0,0,0,1.44-.38l1.42-2.46,7.38-12.78,1.42-2.46a1.05,1.05,0,0,0-.39-1.44l-.37-.21ZM335,633.86a1.85,1.85,0,0,1-2.52.68l-.64-.37a1.84,1.84,0,0,1,1.85-3.19l.64.36A1.85,1.85,0,0,1,335,633.86Zm12.5-30.49a1.83,1.83,0,0,1,2.51-.67l.64.37a1.84,1.84,0,1,1-1.84,3.19l-.64-.37A1.85,1.85,0,0,1,347.53,603.37Zm-4.84,7.68a2.53,2.53,0,0,1,5.06,0h0a2.53,2.53,0,0,1-5.06,0Zm20.62,39.14a1.85,1.85,0,0,1-2.52.67l-.64-.36a1.85,1.85,0,0,1,1.85-3.2l.63.37A1.85,1.85,0,0,1,363.31,650.19ZM366,632.9a11.89,11.89,0,0,1-16.25,4.37l-.64-.37a11.9,11.9,0,0,1,11.9-20.61l.64.37A11.89,11.89,0,0,1,366,632.9Zm2.26-1.48a4.32,4.32,0,1,1,4.31,4.31A4.31,4.31,0,0,1,368.3,631.42ZM373,659.15a2.53,2.53,0,1,1,2.53-2.53A2.52,2.52,0,0,1,373,659.15Zm2.82-7.31a2,2,0,1,1,2-2A2,2,0,0,1,375.79,651.84ZM390,628.91a1.85,1.85,0,1,1,1.84-1.85A1.85,1.85,0,0,1,390,628.91Z"/><path class="cls-2" d="M398.92,743.33,360,720.85a3.19,3.19,0,0,0-2.76-.19,8.88,8.88,0,0,0-2.73,1.74l-3.09,2.88-.38.36-1.71,1.6-.69.67-.66.68-.63.71-.61.73-.57.74-.54.75-.5.77-.47.77-14,24.29-.15.34-.09.36,0,.37,0,.37.11.36.17.34.23.32.28.27.32.22.59.34.13.08,8.42,4.86a4.28,4.28,0,0,0,2.21.56c.61,0,1.22-.06,1.83-.13a4.68,4.68,0,0,1,2.81.57,23.31,23.31,0,0,0,10.65,3,8.46,8.46,0,0,1,3.92,1.12l15.78,9.12a4.23,4.23,0,0,0,5.76-1.54l16.85-29.2A4.21,4.21,0,0,0,398.92,743.33ZM378.22,747a1.79,1.79,0,0,1,3.58,0h0a1.79,1.79,0,1,1-3.58,0Zm-34.39,6.6a2.85,2.85,0,0,1-5.69,0h0a2.85,2.85,0,1,1,5.69,0Zm2.72-9.64L344,739.55l2.55-4.43h5.11l2.55,4.43L351.66,744Zm12.3,19.83h-5.11l-2.55-4.42,2.55-4.43h5.11l2.56,4.43Zm4.35-11.54-2.55-4.42,2.55-4.43h5.11l2.55,4.43-2.55,4.42Zm6.59,9.34h0a1.79,1.79,0,1,1,3.58,0h0a1.79,1.79,0,1,1-3.58,0Zm9.72,9.44a2.11,2.11,0,0,1-2.88.78l-2.73-1.58a2.1,2.1,0,0,1-.77-2.88l12.64-21.9a2.11,2.11,0,0,1,2.87-.77l2.74,1.58a2.11,2.11,0,0,1,.77,2.88Zm7.55-1.54a1.79,1.79,0,1,1-3.58,0h0a1.79,1.79,0,0,1,3.58,0Zm8.42-14.59a1.79,1.79,0,0,1-3.58,0h0a1.79,1.79,0,0,1,3.58,0Z"/><path class="cls-1" d="M393,673.4l-4.12-1.5a5,5,0,0,0-6.35,3,4.9,4.9,0,0,0-.3,1.69v.8a3.48,3.48,0,0,1-.93,2.37,4.2,4.2,0,0,0-1.12,2.86v4l.47.48h.81a1.58,1.58,0,1,1,0,3h-.81l-.47.48v6.54a3.36,3.36,0,0,0,1.45,2.77l3.28,2.26a5.26,5.26,0,0,1,2.27,4.33v12.83a1.05,1.05,0,0,0,1.06,1h0a42.08,42.08,0,0,0,5.14-.43V674Zm-5.82,4.84a1.69,1.69,0,0,1-1.68-1.69h0a1.69,1.69,0,0,1,3.37,0A1.69,1.69,0,0,1,387.17,678.24Z"/><path class="cls-2" d="M445.87,685.41H424.45l-.36,0-.36-.07-.36-.11-.33-.08-1-.16-.1-.27-.15-.27-.18-.22-.22-.22-.36-.34-.35-.38-.17-.22-.16-.26-.15-.3-.13-.34-.1-.37-.08-.39,0-.41,0-.41v-3.41l0-.41,0-.41.08-.39.1-.37.13-.34.15-.3.16-.27.17-.21.35-.38.36-.34.22-.22.17-.22L422,673l.09-.28,1-.16.33-.08.16-.05.32-.08.39-.06.45,0,.5,0h19.62a2.09,2.09,0,0,0,2.09-2.09v-9a2.09,2.09,0,0,0-2.09-2.09H412.06a3.18,3.18,0,0,0-1.74.53l-4.12,2.75a3.14,3.14,0,0,0-1.4,2.61v35.59a3.17,3.17,0,0,0,1.4,2.62l4.12,2.74a3.1,3.1,0,0,0,1.74.53h32.75a2.09,2.09,0,0,0,2.09-2.09V686.46A1,1,0,0,0,445.87,685.41Zm-11.33-19.75a1.85,1.85,0,1,1,3.69,0h0a1.85,1.85,0,1,1-3.69,0Zm3.57,35a1.85,1.85,0,0,1-3.69,0h0a1.85,1.85,0,0,1,3.69,0Z"/><path class="cls-2" d="M497.26,659.53H461.45a3.16,3.16,0,0,0-3.16,3.17v23.17a2.11,2.11,0,0,0,2.1,2.11h18.89a5.24,5.24,0,0,0,3.72-1.55l16.5-16.49a3.16,3.16,0,0,0,.92-2.23v-5A3.16,3.16,0,0,0,497.26,659.53ZM489.94,675l-5.7,5.7a1.06,1.06,0,0,1-1.8-.74v-5.71a1,1,0,0,1,1.05-1h5.71a1.05,1.05,0,0,1,.74,1.8Z"/><path class="cls-2" d="M476.35,745l-25.54-14.75a3.16,3.16,0,0,0-4.32,1.16l-8.67,15a1.05,1.05,0,0,1-1.44.39l-10.95-6.32a5.26,5.26,0,0,0-7.19,1.93L373.1,820.59a5.28,5.28,0,0,0,1.93,7.2l12.77,7.37a3.16,3.16,0,0,0,4.32-1.15l5-8.63a5.21,5.21,0,0,1,3.19-2.45l25.34-6.79a10.49,10.49,0,0,0,6.39-4.91l13.89-24a21.1,21.1,0,0,1,9.88-8.81,3.79,3.79,0,0,0,1.76-1.55,24.34,24.34,0,0,1,8.52-8.53,3.09,3.09,0,0,0,1.13-1.14l10.31-17.86A3.16,3.16,0,0,0,476.35,745Zm-87,77.59a2.84,2.84,0,1,1-2.84-2.84,2.85,2.85,0,0,1,2.84,2.84ZM395,810.83a2.85,2.85,0,1,1,2.84-2.84A2.85,2.85,0,0,1,395,810.83Zm25.4-61.25a2.85,2.85,0,0,1,5.69,0h0a2.85,2.85,0,0,1-5.69,0Zm-4.9,11.57a1.84,1.84,0,1,1-1.84,1.84A1.84,1.84,0,0,1,415.48,761.15Zm-11.72,25a2.85,2.85,0,1,1,2.84-2.84A2.85,2.85,0,0,1,403.76,786.19Zm23.67,23.25a1.85,1.85,0,1,1,1.85-1.84A1.85,1.85,0,0,1,427.43,809.44Zm5.41-20a12.11,12.11,0,0,1-23.39-2.57,2.09,2.09,0,0,1,.14-1.08,6.31,6.31,0,0,0,.39-3.54,2.09,2.09,0,0,1,.09-1.08,12.11,12.11,0,1,1,22.77,8.27Zm12.76-10.11a1.84,1.84,0,1,1-3.68,0h0a1.84,1.84,0,1,1,3.68,0Zm8.26-36.79a2.85,2.85,0,0,1-5.69,0h0a2.85,2.85,0,0,1,5.69,0Zm14.6,8.42a2.85,2.85,0,0,1-5.69,0h0a2.85,2.85,0,1,1,5.69,0Z"/><path class="cls-2" d="M515.74,745.11l-2-3.54a1.06,1.06,0,0,0-1.42-.36l-.26.15-.17.06h-.18l-.08,0-.08,0-.07-.06-.05-.07.69-.4.33-.18a1.06,1.06,0,0,0,.39-1.44l-12.43-21.53a1.05,1.05,0,0,0-1.44-.39l-.33.19-.69.4h0l0-.09v-.17l0-.08.09-.16.14-.11.26-.15a1.06,1.06,0,0,0,.41-1.41l-2-3.54a2.1,2.1,0,0,0-2.85-.73l-15.08,8.71a5.26,5.26,0,0,0-2.45,3.2l-1.19,4.42a5.26,5.26,0,0,0,.53,4l12.56,21.77a5.26,5.26,0,0,0,3.2,2.45l4.42,1.18a5.23,5.23,0,0,0,4-.52L515,747.94A2.11,2.11,0,0,0,515.74,745.11Zm-6.6-2.29,0,.08-.09.16-.13.11-5.64,3.26a2.12,2.12,0,0,1-2.88-.77l-5-8.7a3.86,3.86,0,0,1-1.76-3.05l-5-8.69a2.11,2.11,0,0,1,.77-2.88l5.64-3.25.17-.07h.18l.08,0,.08,0,.07.06.05.07h0l-.74.43-5,2.88A2.1,2.1,0,0,0,489,725l5.09,8.83.25-.14a3.16,3.16,0,1,1,3.16,3.16,3.22,3.22,0,0,1-1.58-.42l-.24.14,5.09,8.82a2.1,2.1,0,0,0,2.65.45l5-2.88.74-.42,0,.07v.18Z"/><path class="cls-1" d="M541.54,637.2a13.69,13.69,0,1,1,13.7,13.71,13.69,13.69,0,0,1-13.7-13.71v0ZM558,632.59l4.32,8.61L564.2,638l-4.32-8.61Zm-8.1-2.5,8.77,17.45,1.86-3.22-8.77-17.45Zm.66,14.95,1.86-3.22-4.32-8.61-1.86,3.22Z"/><path class="cls-2" d="M622.38,683.34l0-.18-.08-.16-1.84-3.32-1.83-3.3-.94-1.69L616.7,673l-1.9-3.41-.28-.48-.29-.46-.31-.45-.32-.44-.34-.42-.36-.42-.37-.39-.39-.39-.28-.25-.3-.21-.33-.19-.34-.15-.42-.14-.42-.11-.43-.09-.44-.06-.44,0-.45,0h-.46l-.46,0-.47.06-.46.09-.46.11-.45.13-.44.16-.44.18-.42.2-.42.23-3.71,2.14a2.11,2.11,0,0,1-2.88-.77l-8.42-14.59a3.16,3.16,0,0,0-4.32-1.16L558,667a3.16,3.16,0,0,0-1.15,4.32l13.75,23.81a10.46,10.46,0,0,0,4.67,4.28l2.82,1.32A4.16,4.16,0,0,1,580,702.4l1.29,2.23a4.21,4.21,0,0,0,5.76,1.54l3.9-2.25a1.06,1.06,0,0,0,.38-1.44L588.14,697a1.05,1.05,0,0,1,.39-1.44l23.72-13.69,1.43.38,2.31,4,.13.18.15.17.18.13.2.1.21.06h.23l.21,0,.21-.08,4.4-2.54.15-.11.13-.12.1-.15.07-.17,0-.18Zm-53.16-7.84a2.84,2.84,0,1,1,2.84-2.84A2.84,2.84,0,0,1,569.22,675.5Zm14.6-8.42a2.85,2.85,0,1,1,2.84-2.85A2.85,2.85,0,0,1,583.82,667.08ZM603.4,679.2l-9.12,5.26a2.74,2.74,0,1,1-2.74-4.74l9.12-5.27a2.74,2.74,0,0,1,2.74,4.75Z"/><path class="cls-2" d="M672.17,668l-4.49-7.77-8-13.86a4.21,4.21,0,0,0-5.76-1.54l-20.07,11.58a4.23,4.23,0,0,0-1.54,5.76l8,13.86,4.48,7.77a4.22,4.22,0,0,0,4.33,2,4,4,0,0,0,1.42-.51l20.07-11.59a4.32,4.32,0,0,0,1.16-1A4.23,4.23,0,0,0,672.17,668Zm-13.8,2.24a3.16,3.16,0,1,1-6.32,0h0a3.16,3.16,0,0,1,6.32,0Z"/><path class="cls-1" d="M727.44,630.41l-.07-.12L716.94,612a15.6,15.6,0,0,0-21.27-5.82c-.22.13-.44.26-.65.4l-10.82,6.89a10.55,10.55,0,0,0-4.62,6.6l-3.49,15.72,0,.22,0,.23.07.22.12.21a1,1,0,0,0,.61.38l9.25,2.05-4.66,21-.08.37,10,2.21,31.84-17.61A10.81,10.81,0,0,0,727.44,630.41Zm-9.16-5.67a1.85,1.85,0,1,1-1.85,1.84A1.85,1.85,0,0,1,718.28,624.74Zm-32-1.34a1.84,1.84,0,1,1,1.85-1.84A1.84,1.84,0,0,1,686.29,623.4Zm3.78,32.09a1.85,1.85,0,1,1,1.85-1.84A1.84,1.84,0,0,1,690.07,655.49Zm13.33-23.34a12.43,12.43,0,1,1,12.42-12.42A12.42,12.42,0,0,1,703.4,632.15Zm16.13,8.36-5-1.1L713,634.54l3.45-3.77,5,1.11,1.54,4.87Z"/><path class="cls-2" d="M600.66,580.26h0l-20.07-11.59a1.05,1.05,0,0,0-1.44.39l-21.63,37.46-1,1.7-1.35,2.34a1.06,1.06,0,0,0,.38,1.44l20.07,11.59a1,1,0,0,0,1.44-.39l1.36-2.34,1-1.7,21.63-37.46A1.06,1.06,0,0,0,600.66,580.26Zm-13.27,16.66-7.32,12.68a3.17,3.17,0,0,1-4.32,1.16l-9.12-5.27a3.17,3.17,0,0,1-1.16-4.32l7.32-12.68a3.17,3.17,0,0,1,4.32-1.15l9.12,5.26A3.16,3.16,0,0,1,587.39,596.92ZM589.05,579a1.79,1.79,0,1,1,1.79-1.79A1.79,1.79,0,0,1,589.05,579Z"/><path class="cls-2" d="M623.56,537.52l-1.18-4.42a5.25,5.25,0,0,0-2.45-3.19l-15.08-8.71a2.1,2.1,0,0,0-2.85.73l-2,3.54a1.06,1.06,0,0,0,.4,1.41l.26.15.14.11.09.15,0,.09v.17l0,.08-.69-.4-.33-.19a1,1,0,0,0-1.43.39L585.94,549a1.06,1.06,0,0,0,.38,1.44l.33.19.69.4h0l-.06.07-.06.05-.08,0-.09,0h-.17l-.17-.06-.26-.15a1.06,1.06,0,0,0-1.42.35l-2,3.55a2.11,2.11,0,0,0,.8,2.83l15.08,8.7a5.26,5.26,0,0,0,4,.53l4.42-1.18a5.28,5.28,0,0,0,3.2-2.46L623,541.52A5.27,5.27,0,0,0,623.56,537.52ZM610.16,535l-5,8.69a3.9,3.9,0,0,1-1.76,3.05l-5,8.69a2.1,2.1,0,0,1-2.88.77l-5.64-3.25-.14-.12-.09-.15,0-.08v-.09l0-.09,0-.08h0l.74.43,5,2.88a2.12,2.12,0,0,0,2.65-.45l5.1-8.83-.25-.14a3.16,3.16,0,1,1,1.58-2.73l.25.14,5.09-8.83a2.12,2.12,0,0,0-.93-2.52l-5-2.87-.74-.43,0-.06.06-.06.08,0,.09,0h.18l.16.06,5.64,3.26A2.11,2.11,0,0,1,610.16,535Z"/><path class="cls-2" d="M649.35,555.46l-1.62-6a4.64,4.64,0,0,0-2.16-2.82l-6.39-3.69a3.8,3.8,0,0,0-5.19,1.39L619.77,569a3.8,3.8,0,0,0,1.39,5.18l6.4,3.69a4.6,4.6,0,0,0,3.52.46l6-1.61a4.68,4.68,0,0,0,2.82-2.16l9-15.53A4.65,4.65,0,0,0,649.35,555.46ZM638.8,561.7a3.16,3.16,0,1,1-6.32,0h0a3.16,3.16,0,1,1,6.32,0Z"/><path class="cls-2" d="M677.13,576.46H676l0-.09,0-.08,0-.08.06-.06.15-.08.18,0h.3a1.05,1.05,0,0,0,1-1v-4.09a2.1,2.1,0,0,0-2.1-2.06H658.27a5.27,5.27,0,0,0-3.72,1.55l-3.23,3.23a5.27,5.27,0,0,0-1.55,3.72v25.14a5.27,5.27,0,0,0,1.55,3.72l3.23,3.23a5.27,5.27,0,0,0,3.72,1.55h17.42a2.1,2.1,0,0,0,2.1-2.06v-4.09a1.05,1.05,0,0,0-1-1h-.3l-.18,0-.15-.08-.06-.06,0-.08,0-.08v-.08h1.17a1.06,1.06,0,0,0,1.06-1V577.52A1.06,1.06,0,0,0,677.13,576.46Zm-3.83,27,0,.08,0,.08-.06.06-.16.08-.17,0h-6.52a2.11,2.11,0,0,1-2.11-2.1v-10a3.9,3.9,0,0,1,0-3.52v-10a2.11,2.11,0,0,1,2.11-2.1h6.52l.17,0,.16.08.06.06,0,.08,0,.08v.09H666.7a2.09,2.09,0,0,0-2.06,1.71v10.2h.28a3.16,3.16,0,1,1,1.15,4.31,3,3,0,0,1-1.15-1.15h-.28v10.19a2.09,2.09,0,0,0,2.06,1.71h6.61Z"/><path class="cls-2" d="M650.3,499.46,642.94,472a3.79,3.79,0,0,0-4.64-2.69l-7.14,1.92a4.61,4.61,0,0,0-2.81,2.15l-14.29,24.76a4.65,4.65,0,0,0-.47,3.52l1.92,7.13a3.79,3.79,0,0,0,4.64,2.68l27.47-7.36A3.78,3.78,0,0,0,650.3,499.46Zm-24.52.88a3.16,3.16,0,1,1-6.32,0h0a3.16,3.16,0,0,1,6.32,0ZM637.7,479.7a3.16,3.16,0,1,1-6.32,0h0a3.16,3.16,0,1,1,6.32,0Z"/><path class="cls-1" d="M730,566.09h-4.53v17.06a1,1,0,0,1-1.05,1.05H694.5a1,1,0,0,1-1-1.05V566.09h-4.53a3.16,3.16,0,0,0-3.16,3.16V586.1a6.32,6.32,0,0,0,6.32,6.32h34.76a6.32,6.32,0,0,0,6.32-6.32V569.25A3.15,3.15,0,0,0,730,566.09Zm-20.54,24a1.85,1.85,0,1,1,1.85-1.84A1.84,1.84,0,0,1,709.46,590.05Z"/><path class="cls-1" d="M721.28,419.78H667.37a3.16,3.16,0,0,0-3.16,3.16V541.76a3.15,3.15,0,0,0,3.16,3.16h53.91a3.15,3.15,0,0,0,3.16-3.16h0V422.94A3.16,3.16,0,0,0,721.28,419.78Zm-27,76.06L682.35,488v-5.73l11.92,7.84Zm11.92-2.72-23.84-15.68v-5.73l23.84,15.68Zm0-10.56-11.92-7.84V469l11.92,7.84Z"/><path class="cls-1" d="M732.83,414.69l-.1-.45-.17-.44-.23-.41L732,413l-.34-.37-.4-.32-.44-.28-.48-.24-.52-.19-.53-.13-.56-.09-.56,0H665.32a22.76,22.76,0,0,0-5,.55l-.42.11-.41.14-.4.15-.39.19-.38.2-.36.23-.35.26-.32.28-.31.3-.28.32-.25.35-.22.36-.18.39-.14.4-.09.42,0,.42V548.28l0,.38.07.38.12.38.15.35.19.35.22.32.25.32.29.31.32.3.36.28.38.26.41.24.42.2.43.18.44.14.45.12a22.76,22.76,0,0,0,5,.56h62.89l.56,0,.56-.08.53-.14.52-.19.48-.23.44-.28.4-.33.34-.36.29-.39.23-.42.17-.44.1-.45,0-.45V415.15ZM721.28,547H667.37a5.27,5.27,0,0,1-5.27-5.27V422.94a5.27,5.27,0,0,1,5.27-5.26h53.91a5.27,5.27,0,0,1,5.27,5.26V541.76A5.27,5.27,0,0,1,721.28,547Zm6.85,3.42a1.84,1.84,0,1,1,1.84-1.84A1.84,1.84,0,0,1,728.13,550.45Zm0-132.51A1.85,1.85,0,1,1,730,416.1,1.84,1.84,0,0,1,728.13,417.94Z"/><path class="cls-2" d="M586.73,387H567.85a5.27,5.27,0,0,0-3.73,1.54L547.63,405a3.19,3.19,0,0,0-.92,2.24v5a3.16,3.16,0,0,0,3.16,3.16h35.81a3.16,3.16,0,0,0,3.16-3.16V389.07A2.1,2.1,0,0,0,586.73,387Zm-22,13.69a1,1,0,0,1-1.05,1h-5.71a1,1,0,0,1-1-1,1,1,0,0,1,.31-.74l5.7-5.71a1.06,1.06,0,0,1,1.8.75Z"/><path class="cls-2" d="M642,380.17H634.6a4.64,4.64,0,0,0-3.28,1.36l-20.21,20.21a4.64,4.64,0,0,0-1.36,3.28v7.38a3.8,3.8,0,0,0,3.8,3.8H642a3.8,3.8,0,0,0,3.79-3.8V384A3.79,3.79,0,0,0,642,380.17ZM622,406.1a3.16,3.16,0,0,1-6.32,0h0a3.16,3.16,0,0,1,6.32,0Zm16.86-16.86a3.16,3.16,0,1,1-6.32,0h0a3.16,3.16,0,1,1,6.32,0Z"/><path class="cls-1" d="M666.06,362.77a13.69,13.69,0,0,1,27.38,0v0a13.69,13.69,0,1,1-27.38,0Zm16.48-4.61,4.32,8.61,1.87-3.22-4.33-8.61Zm-8.1-2.5,8.77,17.45,1.86-3.22-8.77-17.45Zm.66,14.95,1.86-3.22-4.32-8.62L670.78,362Z"/><path class="cls-2" d="M732.31,392.52h-10a8.43,8.43,0,0,1-8.43-8.42v-39a8.43,8.43,0,0,1,8.43-8.42h10a2.64,2.64,0,0,0,0-5.27H680.69a2.64,2.64,0,0,0,0,5.27h10a8.42,8.42,0,0,1,8.43,8.42v39a8.42,8.42,0,0,1-8.43,8.42h-10a2.64,2.64,0,0,0,0,5.27h51.62a2.64,2.64,0,0,0,0-5.27Zm-1-58.46a1,1,0,1,1,2,0h0a1,1,0,1,1-2,0Zm-49.61,0a1,1,0,0,1-1,1,1,1,0,0,1-1-1h0a1,1,0,0,1,2,0Zm0,61.09a1,1,0,0,1-2,0h0a1,1,0,0,1,1-1,1,1,0,0,1,1,1Zm24.8-58.83a1.27,1.27,0,1,1-1.26,1.26A1.26,1.26,0,0,1,706.5,336.33Zm2.11,49.87a2.11,2.11,0,0,1-4.22,0V376a2.11,2.11,0,0,1,4.22,0Zm-3.37-15.43a1.27,1.27,0,0,1,2.53,0,1.27,1.27,0,1,1-2.53,0Zm3.37-5.26a2.11,2.11,0,0,1-4.22,0V343a2.11,2.11,0,0,1,4.22,0Zm24.7,29.65a1,1,0,1,1-2,0h0a1,1,0,0,1,1-1,1,1,0,0,1,1,1Z"/><path class="cls-2" d="M660.5,370.91a1.15,1.15,0,0,0,1.13-1.16,1.17,1.17,0,0,0-.32-.8,6.51,6.51,0,0,1-1.72-4.41V354a6.32,6.32,0,0,0-2.24-4.85,3.54,3.54,0,0,1-1.24-2.7v-23a3.53,3.53,0,0,1,1.24-2.69,6.33,6.33,0,0,0,2.24-4.86v-10.5a6.47,6.47,0,0,1,1.72-4.41,1.18,1.18,0,0,0,0-1.64,1.1,1.1,0,0,0-.78-.32h-6.74a.92.92,0,0,0-.9-.93H631.28a.92.92,0,0,0-.9.93h-6.74a.91.91,0,0,0-.89-.93H593.09a.92.92,0,0,0-.9.93h-6.74a2.28,2.28,0,0,0-2.25,2.31v6.86a3.49,3.49,0,0,1-1.68,3l-9,5.35a7,7,0,0,0-3.37,6v10.7a7,7,0,0,0,3.37,6l9,5.35a3.5,3.5,0,0,1,1.68,3v20.86a2.29,2.29,0,0,0,2.25,2.32H583.2v2.31a2.29,2.29,0,0,0,2.25,2.32h74.14a2.29,2.29,0,0,0,2.25-2.32v-2.31Zm-17.76-63.7a2.29,2.29,0,0,1,2.25-2.32h9.66a2.29,2.29,0,0,1,2.25,2.32v7.48a2.29,2.29,0,0,1-2.25,2.32,2.2,2.2,0,0,1-1.12-.31l-9.1-5.42a3.47,3.47,0,0,1-1.69-3Zm-28.08,0a2.28,2.28,0,0,1,2.24-2.32h20.22a2.28,2.28,0,0,1,2.25,2.32v1.06a3.49,3.49,0,0,1-1.68,3l-9,5.35a3.29,3.29,0,0,1-3.37,0l-9-5.35a3.49,3.49,0,0,1-1.68-3Zm-28.09,0a2.29,2.29,0,0,1,2.25-2.32H609a2.29,2.29,0,0,1,2.25,2.32v1.06a3.5,3.5,0,0,1-1.69,3l-9,5.35a3.29,3.29,0,0,1-3.37,0l-9-5.35a3.5,3.5,0,0,1-1.69-3Zm-3.37,34.5-9-5.35a3.49,3.49,0,0,1-1.69-3v-10.7a3.49,3.49,0,0,1,1.69-3l9-5.35a3.29,3.29,0,0,1,3.37,0l9,5.35a3.5,3.5,0,0,1,1.68,3v10.7a3.5,3.5,0,0,1-1.68,3l-9,5.35A3.29,3.29,0,0,1,583.2,341.71Zm28.09,16.72a3.51,3.51,0,0,1-1.69,3l-9,5.35a3.29,3.29,0,0,1-3.37,0l-9-5.35a3.51,3.51,0,0,1-1.69-3v-10.7a3.51,3.51,0,0,1,1.69-3l9-5.35a3.29,3.29,0,0,1,3.37,0l9,5.35a3.51,3.51,0,0,1,1.69,3Zm0-16.72-9-5.35a3.51,3.51,0,0,1-1.69-3v-10.7a3.51,3.51,0,0,1,1.69-3l9-5.35a3.29,3.29,0,0,1,3.37,0l9,5.35a3.49,3.49,0,0,1,1.69,3v10.7a3.49,3.49,0,0,1-1.69,3l-9,5.35A3.29,3.29,0,0,1,611.29,341.71Zm28.08,16.72a3.5,3.5,0,0,1-1.68,3l-9,5.35a3.29,3.29,0,0,1-3.37,0l-9-5.35a3.5,3.5,0,0,1-1.68-3v-10.7a3.5,3.5,0,0,1,1.68-3l9-5.35a3.29,3.29,0,0,1,3.37,0l9,5.35a3.5,3.5,0,0,1,1.68,3Zm0-16.72-9-5.35a3.5,3.5,0,0,1-1.68-3v-10.7a3.5,3.5,0,0,1,1.68-3l9-5.35a3.29,3.29,0,0,1,3.37,0l9,5.35a3.5,3.5,0,0,1,1.68,3v10.7a3.5,3.5,0,0,1-1.68,3l-9,5.35A3.29,3.29,0,0,1,639.37,341.71Zm17.53,23.14a2.28,2.28,0,0,1-2.25,2.31,2.1,2.1,0,0,1-1.12-.31l-9.1-5.41a3.49,3.49,0,0,1-1.69-3v-10.7a3.49,3.49,0,0,1,1.69-3l5.61-3.34a2.21,2.21,0,0,1,3.07.84,2.36,2.36,0,0,1,.3,1.16v3.1a6.33,6.33,0,0,0,2.24,4.85,3.52,3.52,0,0,1,1.25,2.7Z"/><path class="cls-2" d="M26.88,383.87q0,13.2,0,26.42c0,2,.3,4-2.81,4-2.92,0-4.2-1.17-4.31-4.14-.24-6.41-.54-12.83-1.09-19.22-.93-10.78-2.09-21.53-3.12-32.29-.05-.62-.08-1.23-.08-1.85,0-20.79-.25-41.59.09-62.37.17-10.49,1.34-21,2-31.45.41-6.23.73-12.46,1.13-18.69.34-5.33.67-10.66,1.12-16,.23-2.69,2.38-4.76,4.43-4.4,2.62.47,2.62,2.53,2.62,4.57q0,26.25,0,52.5a12.23,12.23,0,0,0,.18,2.26c.55,3.07,2,4.1,5.4,4.18,2.7.06,5.4-.06,8.09.05,1.19.06,2.85.11,3.47.85,2.37,2.82,5.44,2.34,8.45,2.35,4.31,0,8.63-.05,12.94,0,3.06,0,5.91,0,8.63-2,1.39-1,3.69-.9,5.59-1.19,3.45-.55,7.17,1.15,10.46-1.31.27-.21,2.35,1,2.42,1.68,1,9.72,2.41,19.45.53,29.22a17.1,17.1,0,0,0-.28,3.42c.32,5.82.91,11.63.94,17.45,0,4.24-.69,8.5-1,12.75-.16,2-1.51,2.54-3,1.83-4.56-2.21-9.39-1.82-14.2-1.87a3.94,3.94,0,0,1-2.1-.32c-7.15-5.34-15.32-2-23-2.79a1.1,1.1,0,0,0-.82.25c-5,3.83-11,2.32-16.54,3.14-5.07.74-6.12,2.4-6.14,7.6C26.87,367,26.89,375.42,26.88,383.87Zm16.31-75.62-.18,0c-2.55,0-5.25,0-6.53,1.28a20.38,20.38,0,0,0-5.29,7.8,7.78,7.78,0,0,0,1.43,7.42c1.1,1.9,5.35,6.5,10.75,6s11.75-6.43,10.73-11.45c-.7-3.46-2.8-6.86-5.05-9.68C48.08,308.36,45.25,308.63,43.19,308.25ZM65,344.14l.21,0c2.61,0,5.71-.67,7.26-2.22,2.39-2.4,5.25-6.07,5-8.93-.34-3.67-3.27-7.31-5.71-10.48-.84-1.09-3.58-.93-5.46-1-6.48-.11-12.8,5-12.18,10.75.37,3.43,2.48,7,4.65,9.81C59.7,343.36,62.47,343.73,65,344.14ZM64.58,317c3.18.22,6.42.16,7.6-1.12,2.45-2.65,5.23-6.26,5.27-9.5s-2.75-6.77-5-9.57c-1-1.18-3.86-1.13-5.85-1-2.73.11-6.26-.12-8,1.43-2.3,2.1-4.31,5.72-4.37,8.74s1.91,6.53,4,8.9C59.7,316.42,63,317,64.58,317Zm-27.8,30.11h.16c2.25-.28,4.87,0,6.6-1.06,2.16-1.37,4-2.74,6.7-2.57.58,0,1.72-1.19,1.77-1.89.17-2.39-3.15-5.82-5.57-6-1.78-.1-3.6.18-5.34-.07-4.19-.62-6.38,1.44-8.14,5C29.79,346.84,29.63,346.8,36.78,347.07Zm1.09-54.68a8.14,8.14,0,0,0-2.1,0l-2.42.21A1.73,1.73,0,0,0,31.9,295c.62,1.43,1.21,2.87,1.8,4.34,1.53,3.8,4.4,4.81,8.18,4.33,1.24-.15,2.51,0,3.77,0,2.79-.1,6.5-3.85,6.36-6.48,0-.45-.37-1.15-.71-1.26A127.15,127.15,0,0,0,37.87,292.39ZM85.56,319.7h0c0-3,.12-6.07,0-9.09a1.93,1.93,0,0,0-3.33-1.45c-.13.1-.17.3-.25.45-1.76,3.06-3.71,6-5.19,9.22-.85,1.85,4.63,10.91,6.76,11.43a2.5,2.5,0,0,0,2-1.46C85.67,325.78,85.56,322.74,85.56,319.7Zm0,21.69a11.14,11.14,0,0,0,0-2.65,11.5,11.5,0,0,0-.77-2,1.18,1.18,0,0,0-1.54-.57,6.38,6.38,0,0,0-2.31,1.41,19.37,19.37,0,0,0-2.22,4.18c-.45.93-.89,1.86-1.33,2.8a1.16,1.16,0,0,0,.79,1.63,15.68,15.68,0,0,0,3.5.57C85.59,346.79,85.59,346.69,85.6,341.39Zm.4-42.8,0-.41c0-.35.18-1.16,0-1.19,0-1.34,1-3.35-.46-3.94-.89-.36-.68-.79-2.52-.62-.87.08-1.7.16-2.51.28a2.85,2.85,0,0,0-2.24,3.88c.25.61.48.93.86,1.74.22.48.21.49.67,1.42s1.74,4.71,4.44,3.55C85.36,302.85,85.51,300.32,86,298.59Z"/><path class="cls-2" d="M407.74,139.6c4-.12,5.78,2.12,4.84,6.09-2.29,9.58-2.34,9.66,5.8,14.73,4.07,2.53,8.41,4.62,12.54,7.06,3.34,2,6.1,1.14,8.67-1.35,1-1,2-2.06,3.07-3,2.93-2.68,4.72-2.5,6.91.78,2.44,3.65,3.36,7.37.33,11.25a16.18,16.18,0,0,0-2.11,3.71c-.88,2.08-2.1,3.06-4.51,3.79s-4.73,3.07-6.31,5.26a85.2,85.2,0,0,0-7.37,12.32c-1.28,2.56-1.47,5.64-2.46,8.38a24.52,24.52,0,0,1-3.49,7.13c-.66.83-3.3.79-4.65.23a77.29,77.29,0,0,1-9.37-5c-2-1.22-3.34-1.51-4.51,1.18-1.05,2.42-3.14,2.33-5.27,1-3.3-2.09-6.64-4.11-10-6.09-1.88-1.11-2.49-2.34-1.13-4.34s1.38-3.45-1.31-4.47c-2-.74-3.63-2.21-5.51-3.2-7-3.66-7.68-8.42-1.16-12.76,3.08-2,4.65-4.56,6.25-7.51,2-3.74,4.23-7.4,6.54-11a12,12,0,0,0,1.65-8.74C394.09,148.26,400.93,139.8,407.74,139.6Zm2.57,63.64c11,1.44,20.08-9.29,19.67-19.62-.45-11.79-8.62-19.7-19.66-19.5s-19.09,7.75-19.67,19.78C390.15,194.4,399.7,204.35,410.31,203.24Z"/><path class="cls-2" d="M634.38,691.84c-.5.44-.88,1-1.14,1.15-9.21,6.35-18.47,12.62-27.53,19.19-18,13.06-37.36,23.9-56.73,34.71q-22.11,12.33-44.67,23.83c-9.8,5-19.94,9.34-29.9,14-2.07,1-3.82,1.85-5.22-1.08s.46-3.74,2.39-4.86q22.59-13,45.12-26.19c3.93-2.29,4.64-4.69,2.64-8.87-.84-1.76-2.2-3.27-3-5-1-2.29-3.2-4.29-1.59-7.38.48-.92-.28-2.79-.93-4-2.56-4.67-5.15-9.33-8.05-13.79-1.27-1.94-2.24-4.21-5.26-4.91-1.66-.38-2.89-2.93-4.16-4.62-2.11-2.79-3.92-5.82-6.19-8.47-1.84-2.16-.48-3.4.95-4.4,4.75-3.3,9.52-6.61,14.51-9.54,3.3-2,7.07-3.1,10.47-4.91,1.79-1,3.09-2.81,4.86-3.84,5.66-3.3,11.43-6.43,17.19-9.57,1.08-.58,2.34-.85,3.46-1.36,4.26-2,4.16-2,5.43,2.38a24.08,24.08,0,0,0,2.26,4.2c2,3.73,4.54,7.25,4.16,11.88a7,7,0,0,0,1,3.52c2.33,4.4,4.64,8.82,7.25,13.05a15.05,15.05,0,0,0,5.92,5.72c2.78,1.49,4.38,5.36,6.22,8.36,3.08,5,5.09,5.51,10.19,2.57,13.37-7.72,26.81-15.33,40.22-23a57.67,57.67,0,0,1,5.52-3.2,3.66,3.66,0,0,1,4.95,2.67c0,.11-.12.73-.07.83ZM542,704.67a2.93,2.93,0,0,0,1.18,0c2.09-.5,4.76-.61,5.93-2,2.31-2.74,4.9-6.42,4.83-9.65s-2.78-6.86-5.18-9.57c-1.15-1.29-4.25-1.2-6.45-1.12s-5.56.09-6.81,1.52c-2.34,2.68-4.91,6.39-4.84,9.62s2.79,6.85,5.16,9.59C536.92,704.3,539.56,704.22,542,704.67ZM518.6,717.6a2.86,2.86,0,0,0,1.13,0c2.44-.47,5.27-.41,6.48-1.78a18.84,18.84,0,0,0,4.73-9.28c.69-5-6.42-11.55-11.66-11.3-2.38.11-5.56.37-6.89,1.88-2.38,2.69-4.93,6.35-5,9.64,0,3,2.7,6.5,5.05,9C513.74,717.1,516.39,717.13,518.6,717.6Zm24.74-8.82a2.79,2.79,0,0,0-1.22,0c-2.52.5-5.24.46-6.59,1.81-2.43,2.41-5.37,5.91-5.26,8.85.12,3.46,2.79,7.22,5.28,10.05,1.29,1.47,4.53,1.61,6.91,1.64,2.19,0,5.23-.12,6.43-1.49,2.37-2.71,5-6.25,5.12-9.54.11-3.08-2.41-6.67-4.66-9.26C548.14,709.43,545.49,709.3,543.34,708.78Zm-21.78,13.29a2.69,2.69,0,0,1-.57.07c-4.66,0-4.68.18-3.06,4.41.37,1,1,2.06.86,3-.87,4.74,2.27,8,4,11.8,1,2.09,2.06,2.12,3.64.71A10.86,10.86,0,0,0,529,728.42a18.48,18.48,0,0,0-1.47-2.83C526,723.43,524.19,721.55,521.56,722.07Zm42.9-4.63c-1.09-.09.66.23,2,.22a6.11,6.11,0,0,0,2.78-.64c.77-.25,1.86-2,1.62-2.48-1.51-2.78-2.93-5.86-5.22-7.88s-5-4.62-6.81-5.36a4.81,4.81,0,0,0-2.43-.48c-2.5,1.79-3.49,4.29-2.69,6.51a21.14,21.14,0,0,0,5.15,9.09C560,717.61,562.37,717.15,564.46,717.44Zm-45.39-26.2c5.45.06,11.47-5.51,12.08-11.13.27-2.4-.89-3.28-3.25-2-4.52,2.42-8.92,5.08-13.31,7.74l-.21.14a2.67,2.67,0,0,0,.17,4.52,13.72,13.72,0,0,0,1.32.68C516.78,691.55,518,691.24,519.07,691.24ZM508,694.71a2.43,2.43,0,0,0,.38-1.57c-.23-1.82-1.71-2.58-3.49-1.77a31.88,31.88,0,0,0-5.88,3.54c-.72.54-1.48,2.14-1.18,2.72a34.4,34.4,0,0,0,3.83,5.4,1.72,1.72,0,0,0,1.4-.4C504.8,699.92,506.48,697.17,508,694.71Zm33.38-17.57a3,3,0,0,0,.67.1,29,29,0,0,0,4.44-.06,3.37,3.37,0,0,0,1.75-1.33c-1-2.05-1.9-4.28-3.44-5.87-.56-.57-3,.07-4.15.82-1.93,1.26-5.86,1.18-5.29,4.34C536,678.79,539.45,676.75,541.37,677.14Z"/><path class="cls-2" d="M415.12,89.75a6.28,6.28,0,0,1,5.66,2.55,55.68,55.68,0,0,1,8.85,15.34c3.24,7.93,5,16.46,7.3,24.77.93,3.39-3.43,5.07-8,5.8-3.88.62-6.51,1.38-9.35,1.84-4.34.92-4.19-.21-4.69-1.64-1.14-3.28-.56-7.64-3.43-9.73s-6.72.22-10.18.24c-5,0-9.87-1.29-14.87-1.4-4.42-.1-8.17-6.48-6.67-10.76,2.64-7.55,7.49-14,11.3-20.89a6.54,6.54,0,0,1,5.16-3.51A66,66,0,0,0,415.12,89.75Zm2.83,10.4c-.08-2.73-1.38-4.67-3.69-4.64-2.11,0-4.74.73-5,3.72a4,4,0,0,0,4,4.68C416,104.19,417.35,102.38,418,100.15Zm-9.34,21.39a4.62,4.62,0,0,0-.56-4.85,4,4,0,0,0-3.75-1.8c-2.61.22-3.8,2.24-3.7,4.93.13,3.25,2.49,3.53,4.81,3.51A3.38,3.38,0,0,0,408.61,121.54Zm-9-24.12c-3.28,0-5.28,1.3-5.31,3.9,0,2.29,1.83,3.51,4.27,3.78,2.84.3,4-1.45,4.07-3.63S401.92,97.26,399.62,97.42Zm-10.75,24.86c2.67.1,4-1.44,4.06-3.57.08-2.33-1.56-3.87-4.05-3.93s-4.25,1.38-4.28,3.7S386,122.4,388.87,122.28ZM422.81,115c-.37-1.55-.79-2.71-2.55-2.38-1.38.27-2.46,1.08-2.14,2.47a2.38,2.38,0,0,0,2.9,1.75C422.17,116.67,422.86,116.08,422.81,115Zm3.71,16c0-1.09-.08-2.16-1.58-2.13s-2.48.7-2.5,2.07,1.07,2.07,2.44,2.13S426.51,132.08,426.52,131Z"/><path class="cls-2" d="M615.41,637.83c-3.42,1.92-5.2,3.47-.28,5.86-4.2-.86-7.79.21-11.47-.91-4.15-1.25-5.91-3.78-6-7.68a28.59,28.59,0,0,0-2.84-12.31c-2.18-4.53-1.16-8.26,2.38-11.9,4.07-4.2,7.37-9.13,11.42-13.34,5.85-6.1,12.51-5,16.23,2.66,2.75,5.71,5.44,11.6,7,17.71,1.11,4.5,3.32,4.61,6.49,3.57a15.72,15.72,0,0,1,5.28-.57c3,0,4.63,1.67,4.66,4.67a54.72,54.72,0,0,0,1,11.68c.7,3.07-.36,5.77-4.12,6.18-7,.77-14.11,1.55-21.17,2.16C616.67,646.24,616.61,646.12,615.41,637.83Zm-9.09-9.49c-1.9,1-3.48,2.31-3.38,5.15s1.58,3.59,4.14,3.61c3.13,0,4.21-2.31,4.26-4.45C611.39,630.16,609.21,628.81,606.32,628.34Zm20-10c-.39-2.45-1.25-4.71-3.94-4.88s-4.1,1.65-4.28,4.32c-.17,2.47.51,4,3.43,4.25S625.62,620.51,626.32,618.32Zm-19-.18c-.81-1.09-.27-3.74-3.44-3.81-2.68-.06-4.83,1-5,3.57s1.84,4,4.52,4.06C605.63,622,607.26,621.43,607.35,618.14Zm12.93-15c-.52-1.87-.79-4-3.75-3.9-2.68.06-4.69,1.27-4.73,3.84,0,2.24,1.72,3.59,4.22,3.82C618.81,607.14,619.67,605.49,620.28,603.12Zm21.56,29.57c0-1.12-.14-2.15-1.65-2.07s-2.47.75-2.44,2.14,1.13,2.06,2.52,2.07S641.83,633.78,641.84,632.69Zm-16.28,1a2,2,0,0,0-2.21-1.83,2.24,2.24,0,0,0-1.94,2.63c.08,1.48,1.21,1.43,2.26,1.45C624.87,636,625.73,635.61,625.56,633.7Z"/><path class="cls-2" d="M72.6,469.15c.11-3.71-1.64-4.57-4.94-4.52-8.81.14-17.63.25-26.43,0-4.53-.14-6.07,2.08-6.36,6-.11,1.61,0,3.24,0,4.86,0,10.72,0,10.72-10.52,10.83-6.36.07-7.81,1.49-7.82,7.92q0,21.84,0,43.69c0,14.93.07,29.85,0,44.77,0,4.34,1.72,6.28,6.08,6.1,3.77-.15,7.55,0,11.32,0,6.28,0,6.63-.05,6.22-6.28-.44-6.65,1.86-11.68,6.72-16.07,4.66-4.21,8.88-8.91,13.42-13.26a11.25,11.25,0,0,0,3.75-9c-.19-7.37.08-14.74-.1-22.11-.14-5.8.52-11.29,3.7-16.32,1.45-2.29.37-3.22-2.08-3.2-3.6,0-7.2-.13-10.79,0-2.7.12-4-.66-3.78-3.6.17-2.64-.05-5.21,3.74-5.14s7.55,0,11.33,0c5-.05,6.39-1.28,6.52-6.25C72.66,481.38,72.41,475.26,72.6,469.15ZM57.49,509.7A1.52,1.52,0,1,1,56,511.21,1.52,1.52,0,0,1,57.49,509.7Zm0,24.85A1.52,1.52,0,1,1,56,536.07,1.52,1.52,0,0,1,57.49,534.55ZM43.38,473.38c1.76-.17,2.24.58,2.21,1.83,0,1,.1,2.19-1.39,2.32a2.26,2.26,0,0,1-2.69-1.88A2,2,0,0,1,43.38,473.38ZM24.26,493.87c1-.1,1.67.3,1.76.68.17,1.77-.34,2.37-1.43,2.4A1.39,1.39,0,0,1,23,495.3C23.06,494.54,23.35,494,24.26,493.87Zm-1.82,17.34A1.52,1.52,0,1,1,24,512.73,1.52,1.52,0,0,1,22.44,511.21Zm2.37,25.65c-1.25,0-1.82-.5-1.8-1.58s.65-1.57,1.73-1.49a1.29,1.29,0,0,1,1.35,1.31C25.81,536.2,25.47,536.69,24.81,536.86Zm4.62,43.8a2,2,0,0,1-2.12-2.07,2.24,2.24,0,0,1,2-2.58,2,2,0,0,1,2.15,1.88C31.62,579.87,30.58,580.66,29.43,580.66Zm0-16.94c-1.41,0-2.14-1.06-2.17-2.44a2.2,2.2,0,0,1,2.06-2.54c1.42-.06,2.06,1.08,2.2,2.39C31.5,562.56,30.84,563.67,29.47,563.72Zm23.65-35.89c-.34,6.48-4.86,11.86-11.94,11.31-8.6-.11-10.91-4.67-11.64-11.47-.66-6.22,5.39-11.34,12.09-11.26C47.92,516.48,53.44,521.74,53.12,527.83ZM59.28,476a1.31,1.31,0,1,1,1.3-1.3A1.3,1.3,0,0,1,59.28,476Z"/><path class="cls-2" d="M411.72,62.63c-2.51-3.11-4.17-7-8.43-8.57-2.87-1.05-4.88-3.46-6.43-6.05-4.73-7.9-9.36-15.84-14.05-23.76-3.35-5.66-7.45-7.67-13.73-5.29a99.86,99.86,0,0,0-25.21,14.42c-5.1,3.93-5.5,8.67-2.43,14.48,2.23,4.22,4.89,8.22,7,12.48,3.15,6.23,8.71,11.51,8.34,19.19-.24,4.88,1.58,9,3.7,13.13.62,1.2,1.08,2.91,3,2.22,1.57-.56,1.77-1.94,1.91-3.47.58-6.74,1.63-7.86,8.37-9.41a0,0,0,0,1,.05,0c.7,2-.31,4.24,1,6.62a0,0,0,0,0,.05,0l11.95-6.73s0,0,0-.07c-1.73-1.21-3.54-2-2.93-4.2a2.37,2.37,0,0,1,2.29-1.93c2.2.05,3.3.93,2.57,3.42-.26.86,1.18.94,1.5.64,2.86-2.6,7.44-2.85,9.82-6.78,0,0,0,0,0-.06l-7.37-2.12a0,0,0,0,1,0-.07c4.6-3.93,8.81-6.95,14.45-2.85,1.61,1.18,3.3.73,4.78-.53C413.87,65.72,412.74,63.89,411.72,62.63ZM343.45,43.71a2.2,2.2,0,0,1-2.55-2.32c0-1.63,1.16-2.44,2.72-2.4A2.35,2.35,0,0,1,346,40.62h0A2.67,2.67,0,0,1,343.45,43.71Zm29.62-21.45c.51-1.79,1.78-2.25,2.44-2.14,1.31.22,2.94.83,2.94,2.69a2.7,2.7,0,0,1-3.36,2.58A2.47,2.47,0,0,1,373.07,22.26Zm-11,63.2a1.59,1.59,0,1,1,1.59-1.58A1.58,1.58,0,0,1,362.11,85.46Zm21.31-23.75a20.19,20.19,0,0,1-21.36,4.65C354,63.2,349.4,56.9,349.25,47.09c-.8-3.54,1.52-5.88,4.57-7.69,4.87-2.88,9.85-5.56,14.7-8.46a9.71,9.71,0,0,1,9.07-.77c3.32,1.22,5.06,5.2,9.24,4.89.58-.05,1.94,2,1.88,3C388.14,46.15,390.14,54.74,383.42,61.71Zm20.82.18a1.58,1.58,0,1,1,1.58-1.58A1.59,1.59,0,0,1,404.24,61.89Z"/><path class="cls-1" d="M370.59,837.31c-5.35-3.11-10.76-6.15-16.14-9.24-2.56-1.46-4.36-3.18-4.56-6.6-.52-9.17.48-18.32,1.52-27.29C352.6,783.92,354,782,343.63,777c-.48-.23-3.86-2-4.45-2.39-3.83-2.53-4.1-3.47-6.76-3.18-3.06.33-3.41,5.31-5.39,8-4,5.54-3.57,8,2.25,11.56,3,1.84,3.37,4,3.59,7.05.4,5.6-1.16,11-1.25,17.7-.64,3.62,1.12,7,5.41,9.42q15.29,8.57,30.4,17.46c2.43,1.42,3.82,1.17,5.37-1.28C374.76,838.34,372.09,838.18,370.59,837.31ZM344,788.56a.84.84,0,1,1-.84.84A.84.84,0,0,1,344,788.56Zm-8.32,19.77a.84.84,0,1,1,.84-.84A.84.84,0,0,1,335.64,808.33Zm.55-14.07a.84.84,0,1,1,0-1.68.84.84,0,1,1,0,1.68Zm-.27-6.33c-1.12.15-3.68-2.12-4.75-3.58-.34-.46.43-1.76,1.81-2.7,1.1-.75,6,2.33,6.2,3.71A4.17,4.17,0,0,1,335.92,787.93Zm3.88,17.35c-1.8,0-1.78-1.51-1.64-2.72.28-2.37.52-4.88.65-7.19a1.79,1.79,0,0,1,1.46-1.66c5.73-1,4.36,2,4.36,3.48,0,.7,0,1.42,0,2.13h.15c-.17,1.75.1,3.71-.62,5.18C343.37,806.15,341.31,805.3,339.8,805.28Zm5.84,3.89a.84.84,0,1,1,.84-.84A.84.84,0,0,1,345.64,809.17Z"/><path class="cls-3" d="M527.69,424.26,395,654.16H516.85l132.73-229.9ZM512.75,647.05H407.27L531.8,431.37H637.28Z"/><path class="cls-3" d="M441.26,208.58,184,654.16H305.89L563.15,208.58ZM301.79,647.05H196.31L445.36,215.68H550.84Z"/><path class="cls-3" d="M230.3,208.58,97.57,438.47H219.46L352.19,208.58ZM215.36,431.37H109.88L234.4,215.68H339.88Z"/><path class="cls-2" d="M373.58,0,0,215.68V647.05L373.58,862.74,747.15,647.05V215.68ZM740.05,643,373.58,854.53,7.1,643V219.79L373.58,8.2,740.05,219.79Z"/></g></g></g></svg>