<svg xmlns="http://www.w3.org/2000/svg" viewBox="0 0 988.57 1141.5"><defs><style>.cls-1{fill:#d61e39;}.cls-2{fill:#231f20;}.cls-3{fill:#323534;}</style></defs><g id="Layer_2" data-name="Layer 2"><g id="_0" data-name="0"><g id="Layer_2-2" data-name="Layer 2"><path class="cls-1" d="M93.74,829.84l-5.52-20.58a14,14,0,0,0-6.49-8.46L67,792.31a20.63,20.63,0,0,0-28.17,7.55l-.49.89L25.64,825.53a14.29,14.29,0,0,0,6.18,19.24l.16.08,43.1,21.45,13.06-3.5-.13-.48L80.63,834.8l12.12-3.25a1.39,1.39,0,0,0,.78-.54l.15-.28.08-.3,0-.3ZM37.45,817.66A2.44,2.44,0,1,1,35,820.1,2.45,2.45,0,0,1,37.45,817.66Zm5.67,19.18-6.52,1.75-4.78-4.78,1.75-6.53,6.52-1.75,4.78,4.78Zm13.6-10.22a16.45,16.45,0,1,1,16.45-16.44A16.45,16.45,0,0,1,56.72,826.62Zm19.57,30.07a2.44,2.44,0,1,1,2.44-2.44A2.44,2.44,0,0,1,76.29,856.69Zm3.14-42.64a2.44,2.44,0,1,1,2.44-2.44A2.44,2.44,0,0,1,79.43,814.05Z"/><path class="cls-2" d="M110.77,766.65l-7.3-30a4.16,4.16,0,0,0-1.89-2.58l-5.66-3.45a4.18,4.18,0,0,0-5.74,1.4L65.54,772.51a4.18,4.18,0,0,0,1.39,5.74l26.19,15.94a2.8,2.8,0,0,0,3.84-.93l13-21.34A7,7,0,0,0,110.77,766.65ZM104.14,763a1.39,1.39,0,0,1-1-.16l-6.44-3.92a1.4,1.4,0,0,1-.47-1.92l3.92-6.45a1.4,1.4,0,0,1,2.55.4l2.52,10.37A1.39,1.39,0,0,1,104.14,763Z"/><path class="cls-2" d="M354.76,647.49l-14.24-8.22a107.81,107.81,0,0,0-25-10.49,55.82,55.82,0,0,1-12.9-5.42l-57.38-33.13a38.94,38.94,0,0,0-27.08-4.45l-53.34,10.69a13.94,13.94,0,0,0-9.33,6.7L108.88,684a13.92,13.92,0,0,0-1.13,11.43l17.41,51.54a38.87,38.87,0,0,0,17.4,21.22l57.37,33.13a56,56,0,0,1,11.15,8.46,107.49,107.49,0,0,0,21.57,16.38l14.24,8.22a5.57,5.57,0,0,0,7.39-1.68h0L357,654.75h0A5.58,5.58,0,0,0,354.76,647.49ZM122,673.87l-.09.49-.15.48-.2.47-.26.43-.3.4-.35.37-.39.31-.44.26-.23.1-.24.08-.24,0-.25,0h-.26l-.24,0a1.54,1.54,0,0,1-.76-.44l-.16-.19-.13-.21-.11-.23-.08-.24,0-.25,0-.25V675l.07-.5.14-.48.2-.47.25-.44.3-.4.34-.37.39-.33.43-.26.23-.1.23-.09.25-.06.25,0h.25l.25,0,.24.07.23.11.21.14.18.17.15.2.13.22.1.23.07.24,0,.25,0,.25Zm69.6-33.25.08-.5.14-.48.2-.47.25-.44.3-.4.34-.37.39-.33.43-.26.22-.1.24-.09.25-.06.25,0h.25l.25,0,.24.07.23.11.21.14.18.17.15.2.13.22.1.23.07.24.05.25,0,.25v.51l-.09.49-.15.48-.2.47-.26.43-.3.4-.35.37-.39.31-.44.26-.23.1-.24.08-.24.05-.26,0h-.25l-.25,0a1.56,1.56,0,0,1-.75-.44l-.16-.19-.13-.21-.11-.23-.08-.24-.05-.25,0-.25Zm-41-23.7.08-.5.14-.48.19-.47.25-.43.3-.41.34-.37.39-.32.43-.27.23-.1.24-.09.24-.05.25,0h.25l.25,0,.25.07.22.11.21.14.18.18.16.19.12.22.1.23.07.25.05.24,0,.25v.51l-.09.5-.14.48-.21.46-.25.43-.31.41-.35.36-.39.32-.43.25-.23.1-.24.08-.25,0-.25,0h-.25l-.25,0a1.53,1.53,0,0,1-.75-.43l-.17-.2-.13-.21-.1-.23-.08-.24-.06-.25,0-.25Zm-6.25,73.74-.65-.14-.65-.17-.64-.19-.64-.21-.63-.24-.58-.47-.57-.5-.54-.53-.52-.54-.49-.57-.48-.58-.45-.6-.43-.62-.41-.64-.39-.65-.37-.66-.34-.68-.32-.68-.3-.7-.54-1.41-.23-.72-.21-.73-.36-1.46-.28-1.48-.21-1.5-.18-1.5-.14-1.5-.13-1.51-.16-1.5,21.49-37.23,1.38-.61,1.37-.64,1.38-.63,1.39-.6,1.4-.56,1.42-.5,1.45-.42.73-.18.74-.16,1.49-.24.75-.09.76-.06.75,0,.76,0h.76l.75,0,.76.06.74.09.75.12.74.15.73.18.72.2.72.24.7.27.52.43.5.44.49.46.47.48.45.5.43.51.82,1.06.75,1.11.68,1.16.6,1.19.54,1.23.47,1.26.41,1.28.34,1.29.28,1.31.22,1.33.17,1.33.11,1.33.06,1.34v1.34l0,1.34-.08,1.34-.13,1.33-.18,1.33-.22,1.33-.25,1.31-.3,1.31-.34,1.3-.37,1.29-.41,1.27-.44,1.27-.48,1.25-.52,1.24-.54,1.22-.58,1.21a50.26,50.26,0,0,1-3.31,5.74l-.76,1.11-.79,1.08-.82,1.07-.84,1-.87,1-.91,1-.92,1-1,.94-1,.91-1,.89-1,.85-1.06.81-1.09.78L164,686l-1.14.7-1.17.67-1.18.61-1.22.58-1.23.52-1.26.47-1.27.41-1.3.35-1.31.29-1.32.22-1.33.15-1.34.07h-1.34l-1.34-.09-1.33-.17Zm18.75,6.4,0,.5-.08.5-.15.48-.21.46-.25.44-.3.4-.35.36-.4.32-.43.26-.23.1-.24.07-.25,0-.25,0h-.25l-.25,0a1.63,1.63,0,0,1-.75-.44l-.16-.19-.14-.22-.1-.22-.08-.24,0-.25,0-.25v-.5l.08-.5.14-.49.2-.46.24-.44.3-.41.35-.37.38-.32.43-.26.23-.11.24-.08.24-.06.25,0h.26l.25,0,.24.08.22.1.21.15.18.17.16.2.13.22.09.23.08.24,0,.25Zm62.86,99.61a3.84,3.84,0,0,1-7.67,0h0a3.84,3.84,0,1,1,7.67,0Zm12.54,22.7a3.28,3.28,0,1,1,3.28-3.28A3.27,3.27,0,0,1,238.43,819.37Zm56.63-86a7.25,7.25,0,1,1-14.49,0h0a7.25,7.25,0,1,1,14.49,0Zm10.22-79.84L227.42,788.44a4.19,4.19,0,0,1-4.32,2,6.28,6.28,0,0,0-6.44,3,4.17,4.17,0,0,1-5.68,1.48l-60.36-34.84c-.46-.27-.91-.54-1.35-.83a7,7,0,0,1-2.21-9.32l84.7-146.71a7,7,0,0,1,9.17-2.74c.48.24.94.49,1.4.76l60.36,34.85a4.17,4.17,0,0,1,1.55,5.66,6.28,6.28,0,0,0,.64,7.06A4.15,4.15,0,0,1,305.28,653.57Zm8.27-8.74a3.84,3.84,0,0,1-7.67,0h0a3.84,3.84,0,0,1,7.67,0Zm21.19,7.73a3.28,3.28,0,1,1,3.27-3.27A3.27,3.27,0,0,1,334.74,652.56Z"/><path class="cls-2" d="M142.05,594.11l-8.46-4.89a6.17,6.17,0,0,0-4.66-.61l-8,2.14a6.18,6.18,0,0,0-3.73,2.85l-11.86,20.55a6.16,6.16,0,0,0-.61,4.66l2.13,8a6.15,6.15,0,0,0,2.86,3.72l8.47,4.89a5,5,0,0,0,6.85-1.84L143.89,601A5,5,0,0,0,142.05,594.11Zm-15,16.47a4.18,4.18,0,1,1-8.36,0v0a4.18,4.18,0,1,1,8.36,0Z"/><path class="cls-2" d="M64.22,571.25H22.41V586H21.29v8.36h1.12v9.75h8.26a7,7,0,0,0,4.93-2l.65-.65a7,7,0,0,1,4.93-2h23a4.18,4.18,0,0,0,4.18-4.18v-19.8A4.18,4.18,0,0,0,64.22,571.25Zm-9.48,13.94a3.77,3.77,0,0,1-7.53,0v-1.11a3.77,3.77,0,1,1,7.53,0Z"/><path class="cls-2" d="M125.32,547a13.71,13.71,0,0,0-3.87-.55h-.25a.83.83,0,0,1-.68-1.32,5.3,5.3,0,0,0-3.94-8.37,2.79,2.79,0,0,1-2.6-2.78V504.76a2.79,2.79,0,0,1,2.6-2.78,5.3,5.3,0,0,0,4.92-5.64,5.38,5.38,0,0,0-1-2.73.83.83,0,0,1,.19-1.16.89.89,0,0,1,.49-.16h.25a13.71,13.71,0,0,0,3.87-.55l12.27-3.54a19,19,0,0,0-17.23-11.07H95.07a126.13,126.13,0,0,0-17.47,1.22,60.88,60.88,0,0,0-20.21,6.57v24.53L57,510l-.46.53-1,1.07-.5.49-.49.45L54,513l-.51.41-.18.17-.13.18-.07.18,0,.16v10.59l0,.16.07.18.13.18.18.18.51.4.52.44.49.45.5.49,1,1.07.46.53.43.52v26.49c1.77.59,3.55,1.13,5.34,1.6a125.64,125.64,0,0,0,32.34,4.23h25.29a19,19,0,0,0,17.23-11.07Zm-.12-63.09a3.28,3.28,0,1,1-3.27,3.28A3.28,3.28,0,0,1,125.2,483.86ZM70.28,539.73l-.45-.35h0l-.48-.38h0l-.28-.22-.94-.83.11.09-.2-.18L68,537.8l-.34-.34.27.27-1-1-.19-.2.08.08-.6-.68.08.1-.38-.43-.4-.51c0,.06.1.12.15.18l-.6-.75,0,.06-.13-.17-.86-1.24,0,0c.16.24.33.47.5.7l-.41-.59-.54-.87c.08.14.16.29.25.43l-.57-.94-.17-.31c0,.08.09.15.14.23l-.51-.94.08.16-.26-.48-.32-.7.21.43-.44-1-.55-1.38c.18.48.36,1,.56,1.42l-.09-.19-.54-1.41,0-.08c0,.09.07.17.1.25l-.36-1.08c.06.17.1.35.16.52l-.34-1.05-.1-.39c0,.12.08.24.11.36l-.29-1.11a1.16,1.16,0,0,0,0,.18l-.14-.51-.15-.8c0,.23.1.45.15.68l-.23-1.13-.2-1.38c.05.44.1.88.18,1.32l0-.18-.2-1.5v-.08c0,.11,0,.22,0,.33l-.1-1.24c0,.14,0,.28,0,.43l-.07-.95v-.4c0,.16,0,.31,0,.47l0-1.26v-.32l0-.86c0,.35,0,.7,0,1l0-1.38.11-1.15c0,.31-.08.62-.1.93v-.1l.16-1.51,0-.16c0,.13,0,.26,0,.38l.17-1.14a2,2,0,0,1,0,.24l.14-.81.13-.56c0,.16-.06.33-.1.49l.22-1,.15-.52-.15.51.09-.36.42-1.45c0,.1-.06.21-.09.31l.46-1.35L62.1,509l.64-1.35.72-1.31.79-1.27.87-1.21.94-1.17,1-1.1c.39-.41.8-.8,1.21-1.18l-.24.25a26.6,26.6,0,0,0,.67,37.61,26.89,26.89,0,0,0,2.58,2.19c-.49-.33-1-.68-1.44-1Zm6,4.73c-2.56-1.11-4.42-2.53-4.69-5.53-.24-2.68.31-4.42,3.46-5,1.69-.28,2.25-2.16,2.24-4-.06-7.11,0-14.22,0-21.33,0-1.88-1-3-2.44-4-4.54-3.1-4.18-7.18,1-9.42,10.34-4.5,27,1.87,30.59,10.13,2.09,4.77,4.33,9.35,3.81,14.54C111.73,538.89,89.6,550.26,76.23,544.46ZM112,496.68a4.18,4.18,0,0,1,8.36,0h0a4.18,4.18,0,1,1-8.36,0Zm4.18,49.5A4.19,4.19,0,0,1,112,542h0a4.18,4.18,0,1,1,8.36,0v0A4.17,4.17,0,0,1,116.21,546.18Zm9,8.65a3.28,3.28,0,1,1,3.28-3.28A3.27,3.27,0,0,1,125.2,554.83Z"/><path class="cls-2" d="M98.67,334.32a4.17,4.17,0,0,0-4.53-3.8l-23,2a7,7,0,0,1-5.09-1.6l-.71-.6a7,7,0,0,0-5.08-1.6l-8.24.72.85,9.72-1.11.1.73,8.33,1.11-.1,1.29,14.72,41.65-3.65a4.18,4.18,0,0,0,3.8-4.53ZM82.61,350.69a3.76,3.76,0,0,1-4.07-3.42l-.1-1.11a3.76,3.76,0,1,1,7.5-.66l.09,1.11A3.77,3.77,0,0,1,82.61,350.69Z"/><path class="cls-1" d="M132.38,279.15l-.06-.31-.09-.31-.13-.3-.14-.29L117.39,252.7c.11-.17.22-.35.32-.53l.12-.33,0-.35-.05-.35-.14-.32-3.29-5.7-.21-.28-.28-.22-.32-.14-.34-.06a5.3,5.3,0,0,0-5.18,3.42l-10.8,6.23-.32.17-.35.15-.71.24-.72.16-.73.1a5.26,5.26,0,0,0-2.17.69,5.3,5.3,0,0,0-2.64,4.83v.41l0,.41,0,.39-.08.39-.11.36-.13.36-.16.34-.2.32A15.12,15.12,0,0,1,84,267.83L57.67,283.05a4.37,4.37,0,0,0-2.19,3.79v14.49l0,.38.06.37.09.37.11.36.13.35.15.34.18.34,3.81,6.59.17.26.2.25.21.23.25.21.26.18.27.16.29.13.3.11.59.14.62.06h.65l.68-.07.68-.15.68-.21.66-.28.65-.33,41-23.69a4.19,4.19,0,0,1,5.32,1l.32.37.34.34.37.32.4.28.34.2.35.16.25.08.26.06.27,0h.27l.26,0,.26-.06.25-.09.24-.12,13-7.52.28-.17.25-.2.24-.22.21-.25.19-.26.16-.28.13-.3.1-.31.06-.31,0-.32v-.32Zm-39.84-19a2.37,2.37,0,0,1,4.74,0h0a2.37,2.37,0,1,1-4.74,0Zm17,18.46L78.14,296.76a5.57,5.57,0,0,1-7.61-2l-1.39-2.41a5.58,5.58,0,0,1,2-7.62l31.44-18.15a5.58,5.58,0,0,1,7.61,2l1.4,2.42A5.58,5.58,0,0,1,109.59,278.61Zm5.8-28.89a2.37,2.37,0,1,1-4.74,0h0a2.37,2.37,0,0,1,4.74,0Z"/><path class="cls-1" d="M153,304l-9.06-15.69a1.38,1.38,0,0,0-1.9-.51l-7.24,4.18a7,7,0,0,0-2.55,9.52l3.48,6a7,7,0,0,0,9.52,2.55l7.24-4.18A1.38,1.38,0,0,0,153,304Zm-7.84-3.66a3.93,3.93,0,1,1-7.86,0h0a3.93,3.93,0,0,1,7.86,0Z"/><path class="cls-2" d="M178,329.43h2.94a1.39,1.39,0,0,0,1.39-1.39v-9.76a1.39,1.39,0,0,0-1.39-1.39h-3.65a5.54,5.54,0,0,0-2.78.74,41.81,41.81,0,0,1-39.85,1,15.56,15.56,0,0,0-7.08-1.7H112.88a1.32,1.32,0,0,0-.83.28,1.38,1.38,0,0,0-.56,1.11v1.12a1.39,1.39,0,0,0,1.39,1.39h2.79a2.37,2.37,0,0,1,0,4.74h-2.79a1.39,1.39,0,0,0-1.39,1.39v.48a5.57,5.57,0,0,0,1.3,3.58l3.1,3.7c.11.13.21.26.31.4l-.1.1-.53.62-.58.64-.59.61-.59.57-.37.4-.35.39-.33.36-.31.36-.18.25-.13.28-.07.31,0,.31v9l0,.31.07.31.13.28.18.26.31.35.33.36.35.39.37.4.59.57.59.61.58.64.53.63.1.1-.31.39-3.1,3.7a5.57,5.57,0,0,0-1.3,3.58v.48a1.39,1.39,0,0,0,1.39,1.39h2.79a2.37,2.37,0,0,1,0,4.74h-2.79a1.4,1.4,0,0,0-1.39,1.4v1.11a1.42,1.42,0,0,0,.56,1.12,1.38,1.38,0,0,0,.83.28h14.66a15.57,15.57,0,0,0,7.08-1.71,41.78,41.78,0,0,1,39.85,1,5.64,5.64,0,0,0,2.78.74h3.65a1.4,1.4,0,0,0,1.39-1.4v-9.75a1.4,1.4,0,0,0-1.39-1.4H178a4.18,4.18,0,0,1-4.18-4.18v-22.3A4.18,4.18,0,0,1,178,329.43ZM125.67,364.9a2.44,2.44,0,1,1,2.44-2.44A2.44,2.44,0,0,1,125.67,364.9Zm0-35.4a2.44,2.44,0,1,1,2.44-2.44A2.44,2.44,0,0,1,125.67,329.5Zm42.61,27.8a2.79,2.79,0,0,1-2.79,2.79H133.92a2.8,2.8,0,0,1-2.23-1.11,1.41,1.41,0,0,1,.84-.28h2.23a1.4,1.4,0,0,0,1.39-1.4V332.22a1.4,1.4,0,0,0-1.39-1.4h-2.23a1.4,1.4,0,0,1-.84-.27,2.78,2.78,0,0,1,2.23-1.12h31.57a2.79,2.79,0,0,1,2.79,2.79ZM176,365a2.44,2.44,0,1,1-2.44,2.44A2.44,2.44,0,0,1,176,365Zm-2.44-42.86a2.44,2.44,0,1,1,2.44,2.44A2.44,2.44,0,0,1,173.58,322.11Z"/><path class="cls-2" d="M242.38,358.14l0-.22-.09-.2-.16-.15-4.83-2.78-.77.21-.07.12L232.82,353l8.54-14.79a1.11,1.11,0,0,0-.41-1.52l-21.48-12.4a1.39,1.39,0,0,0-1.91.51l-8.4,14.54a1.41,1.41,0,0,0,.51,1.91l13.76,7.94a.69.69,0,0,1,.26.95l-3.48,6,1,.57-4.46,7.73-1-.57-2.51,4.34,1,.57-4.46,7.73-1-.57-3.49,6a.69.69,0,0,1-.95.25l-17.38-10a1.39,1.39,0,0,0-1.91.51l-13.78,23.87a7,7,0,0,0,.94,8.24,55.47,55.47,0,0,0,12.86,10.22l19.56,11.29a1.38,1.38,0,0,0,1.9-.51l1-1.74A4.14,4.14,0,0,0,208,421l-.12-.45-1.07-.62,35.55-61.56ZM186.72,403.2a4.18,4.18,0,0,1-8.36,0h0a4.18,4.18,0,1,1,8.36,0Zm23.63-4.56-2,3.56a4.2,4.2,0,0,1-5.72,1.53l-8.2-4.74a4.18,4.18,0,0,1-1.53-5.71l2.05-3.56a4.18,4.18,0,0,1,5.71-1.53l8.21,4.74A4.17,4.17,0,0,1,210.35,398.64Zm14.14-60.73a4.18,4.18,0,1,1,4.18-4.18A4.18,4.18,0,0,1,224.49,337.91Z"/><path class="cls-2" d="M190.18,441.71,157.59,422.9a5,5,0,0,0-6.85,1.83l-4.89,8.46a6.17,6.17,0,0,0-.61,4.66L155,474.38a6.1,6.1,0,0,0,2.85,3.72l8.47,4.89a5,5,0,0,0,6.85-1.84L192,448.56A5,5,0,0,0,190.18,441.71Zm-33.25.45a4.19,4.19,0,0,1-4.18-4.19v0a4.19,4.19,0,0,1,8.37,0h0A4.19,4.19,0,0,1,156.93,442.16Zm12.35,26.28a4.18,4.18,0,1,1-8.36,0v0a4.18,4.18,0,0,1,8.36,0Z"/><path class="cls-2" d="M282.49,179.44l-9.76-16.9a7,7,0,0,0-9.52-2.55L159.77,219.71a7,7,0,0,0-2.55,9.52l8.36,14.48a1.38,1.38,0,0,1-.51,1.9l-19.88,11.48a4.18,4.18,0,0,0-1.53,5.71l19.51,33.8a4.18,4.18,0,0,0,5.71,1.53h0L191.66,285l.06,0,.41-.29.38-.33.34-.38.29-.41,0-.05a32.06,32.06,0,0,1,11.56-11.43l.53-.31a5,5,0,0,0,2.1-2.36A27.87,27.87,0,0,1,219,256.32L250.82,238a14,14,0,0,0,6.5-8.47l9-33.52a7,7,0,0,1,3.25-4.23L281,185.15A4.2,4.2,0,0,0,282.49,179.44Zm-122.58,87.4a3.77,3.77,0,1,1,3.76-3.76A3.76,3.76,0,0,1,159.91,266.84Zm6.8-38.54-.25-.38-.2-.42-.14-.43-.08-.45v-.46l.05-.46.12-.44.18-.42.23-.39.29-.36.34-.31.37-.26.41-.2.44-.15.45-.08.46,0,.45.05a3.22,3.22,0,0,1,2.61,3.75,3.18,3.18,0,0,1-.14.53l-.18.42-.25.39-.29.35-.34.3-.39.25-.41.2-.44.14-.45.07h-.46l-.45-.06-.44-.12-.42-.18-.4-.24-.35-.3Zm4.35,57.85a3.76,3.76,0,1,1,3.76-3.76A3.76,3.76,0,0,1,171.06,286.15ZM187,218.5a2.44,2.44,0,1,1,2.44-2.44A2.44,2.44,0,0,1,187,218.5ZM210.76,200l.11-.44.18-.43.24-.39.28-.35.34-.32.38-.26.41-.2.43-.14.45-.09H214l.46.05a3.46,3.46,0,0,1,.53.14,3.24,3.24,0,0,1,1.94,4.13l-.19.42-.24.39-.3.35-.34.3-.38.26-.42.19-.43.14-.46.07h-.45l-.46-.06-.44-.12-.42-.18-.39-.24-.35-.29-.31-.34-.26-.38-.2-.41-.14-.44-.07-.45,0-.46Zm.27,53.53a2.44,2.44,0,1,1-4.87,0h0a2.44,2.44,0,0,1,4.87,0ZM232.39,226A16,16,0,1,1,211,208.9a2.81,2.81,0,0,1,1.44-.12,8.38,8.38,0,0,0,4.67-.51,2.85,2.85,0,0,1,1.44-.2A16,16,0,0,1,232.39,226Zm16.06,5.84a2.44,2.44,0,1,1-4.88,0h0a2.44,2.44,0,0,1,4.88,0Zm-1.92-39.19a3.76,3.76,0,1,1,3.76-3.76A3.76,3.76,0,0,1,246.53,192.69Zm19.31-11.15a3.76,3.76,0,1,1,3.76-3.76A3.76,3.76,0,0,1,265.84,181.54Z"/><path class="cls-2" d="M293.16,273.3l-31.51-18.19a13.91,13.91,0,0,0-8.18-1.81l-4.1.36a5.58,5.58,0,0,1-3.27-.73l-2.95-1.7a5.58,5.58,0,0,0-7.62,2l-3,5.16a1.4,1.4,0,0,0,.51,1.9l7.25,4.18a1.41,1.41,0,0,1,.51,1.91L222.7,297.8l-1.91.51-5.27-3.05-.27-.12-.29-.09-.29,0h-.3l-.28.08-.26.13-.23.19-.18.23-3.36,5.83-.1.21-.06.23,0,.24,0,.24.08.22.13.2.16.17.2.14,4.3,2.58,4.29,2.57,2.19,1.31,2.22,1.33,4.44,2.66.62.36.64.34.65.31.67.29.67.26.68.24.69.21.7.19.48.09.5.05h.49l.49-.05.57-.11.56-.15.55-.19.55-.21L238,315l.53-.29.52-.31.5-.35.49-.38.47-.4.46-.43.43-.45.4-.48.38-.49.35-.52.33-.53,2.84-4.91a2.78,2.78,0,0,1,3.8-1l19.31,11.15a4.2,4.2,0,0,0,5.72-1.53l20.21-35A4.2,4.2,0,0,0,293.16,273.3Zm-45.31,13.27-7,12.07A3.62,3.62,0,0,1,234.6,295l7-12.07a3.62,3.62,0,0,1,6.28,3.62ZM267,303a3.77,3.77,0,1,1,3.76-3.76A3.77,3.77,0,0,1,267,303Zm11.15-19.31a3.77,3.77,0,1,1,3.76-3.77A3.77,3.77,0,0,1,278.1,283.66Z"/><path class="cls-2" d="M331.58,229H284.19a4.18,4.18,0,0,0-4.18,4.18v6.64a4.19,4.19,0,0,0,1.22,3l21.82,21.82a7,7,0,0,0,4.93,2h25a2.78,2.78,0,0,0,2.79-2.78h0V233.15A4.18,4.18,0,0,0,331.58,229ZM303.8,256a1.39,1.39,0,0,1-2.38,1l-7.54-7.55a1.4,1.4,0,0,1,1-2.38h7.55a1.4,1.4,0,0,1,1.39,1.4Z"/><path class="cls-2" d="M346.4,142l-11.15-19.31a2.79,2.79,0,0,0-3.81-1l-44.05,25.44a2.77,2.77,0,0,0-1,3.8l13,22.5a11.13,11.13,0,0,1,1.49,5.94,18.82,18.82,0,1,0,37.08-3.85,41.86,41.86,0,0,1,.22-20.77l.31-1.15a11.2,11.2,0,0,1,5.2-6.77l1.73-1A2.79,2.79,0,0,0,346.4,142Zm-42.09,15.19a3.77,3.77,0,1,1,3.77-3.76A3.76,3.76,0,0,1,304.31,157.15Zm24,22.81a8.68,8.68,0,0,1-17.35,0v0a8.68,8.68,0,0,1,17.35,0Zm.74-37.1a3.76,3.76,0,1,1,3.76-3.76A3.76,3.76,0,0,1,329.06,142.86Z"/><path class="cls-2" d="M484.67,153.29l-.14-.59-.21-.58-.27-.54-18.49-32a1.39,1.39,0,0,0-1.91-.51L441.2,132a.56.56,0,0,1-.76-.2l-13.52-23.42a.56.56,0,0,1,.21-.76h0l22.45-13a1.41,1.41,0,0,0,.51-1.91l-18.49-32-.34-.51-.39-.47-.44-.41-.49-.36-.52-.29-.54-.21-.55-.15-.57-.06h-.56l-.55.09-.52.16-.49.24L394.69,76.64l-.61.4-.55.46L393,78l-.43.58-.36.62-.29.66-7.08,19.27-.29.66-.36.62-.43.58-.49.52-.56.46-.6.4-29.55,17.06-.61.4-.55.46-.49.52-.43.58-.37.62-.28.67-.54,1.45-.2.66-.13.67-.06.68,0,.68.1.67.17.66.24.64.31.61,33.87,58.67.38.58.43.53.49.48.53.41.58.36.61.29.65.22.67.16,1.53.26.72.09H391l.72-.08.69-.17L393,191l.65-.32,29.55-17.06.64-.33.68-.24.7-.17.71-.09h.72l.72.09,20.23,3.49.72.08h.72l.71-.08.7-.17.68-.25.65-.32,30.95-17.87.45-.31.4-.37.35-.43.29-.48.23-.52.15-.56.08-.58v-.59ZM405.5,107.23a4.19,4.19,0,1,1-4.18,4.19A4.19,4.19,0,0,1,405.5,107.23Zm-37.42,30a4.18,4.18,0,1,1,4.19-4.18A4.18,4.18,0,0,1,368.08,137.2Zm21.61,37.42a4.19,4.19,0,1,1,4.18-4.19A4.19,4.19,0,0,1,389.69,174.62Zm26-33.69a18.12,18.12,0,1,1-36.23,0h0a18.12,18.12,0,1,1,36.23,0Zm5-59.19h0a7,7,0,0,1,13.93,0h0a7,7,0,1,1-13.93,0ZM427.1,153a4.18,4.18,0,1,1,4.18-4.18A4.18,4.18,0,0,1,427.1,153Zm43.74-8.5a7,7,0,0,1-13.94,0h0a7,7,0,1,1,13.94,0Z"/><path class="cls-1" d="M409,203.67l-5.64-2-.47,1.31-7.25,19.9a1.39,1.39,0,0,1-1.78.84l-37.2-13.54a1.39,1.39,0,0,1-.83-1.79l7.24-19.9.48-1.31-5.63-2a4.18,4.18,0,0,0-5.36,2.5l-7.63,20.95a8.37,8.37,0,0,0,5,10.72L393.13,235a8.37,8.37,0,0,0,10.72-5L411.47,209A4.18,4.18,0,0,0,409,203.67Zm-33.11,18.21a2.44,2.44,0,1,1-4.88,0h0a2.44,2.44,0,1,1,4.88,0Z"/><path class="cls-2" d="M413.15,251.69H352a1.4,1.4,0,0,0-1.4,1.4v11.15a1.4,1.4,0,0,0,1.4,1.39h61.12a1.4,1.4,0,0,0,1.4-1.39V253.09A1.4,1.4,0,0,0,413.15,251.69ZM385,261.45a2.37,2.37,0,0,1-4.74,0h0a2.37,2.37,0,0,1,4.74,0Z"/><path class="cls-2" d="M482.94,194.18H446.56a13.92,13.92,0,0,0-8,2.52l-3.38,2.36a5.59,5.59,0,0,1-3.19,1h-3.41a5.57,5.57,0,0,0-5.57,5.57v6a1.39,1.39,0,0,0,1.39,1.39h8.36a1.4,1.4,0,0,1,1.39,1.4v36.23l-1.39,1.4h-6.09l-.3,0-.29.07-.26.12-.26.16-.2.2-.17.25-.1.28,0,.29v6.73l0,.24.06.23.1.21.15.19.18.15.21.11.23.07.23,0,5,.08,5,.09,2.55,0,2.59,0,5.17.08h.73l.72,0,.72-.06.71-.08.72-.11.71-.13.7-.16.7-.19.47-.16.45-.21.42-.25.4-.29.44-.38.41-.41.38-.43.36-.47.34-.48.32-.51.29-.53.26-.55.24-.57.21-.59.17-.6.15-.61.11-.61.08-.62,0-.62,0-.62v-5.68a2.79,2.79,0,0,1,2.79-2.78h22.29a4.19,4.19,0,0,0,4.19-4.18V198.36A4.19,4.19,0,0,0,482.94,194.18Zm-32.61,48.08a3.63,3.63,0,0,1-7.25,0V228.32a3.63,3.63,0,0,1,7.25,0Zm22.86-8.78a3.77,3.77,0,1,1,3.76-3.76A3.76,3.76,0,0,1,473.19,233.48Zm0-22.3a3.77,3.77,0,1,1,3.76-3.76A3.76,3.76,0,0,1,473.19,211.18Z"/><path class="cls-2" d="M594.45,77.47l-.36-1.35-2.5-1.44L586.94,72,554.17,53.08l-4.65-2.69-3.11-1.79-1.34.36a1.39,1.39,0,0,0-.85.65L542,53.39a2.78,2.78,0,0,0,1,3.81l7.39,4.27a7,7,0,0,1,3.25,4.23l3.6,13.46a7,7,0,0,1-.69,5.29l-1.21,2.08a4.2,4.2,0,0,0,1.53,5.72l2.42,1.39a1.39,1.39,0,0,0,1.9-.51L572,74.54a.56.56,0,0,1,.76-.2l15.58,9a2.79,2.79,0,0,0,3.81-1l2.18-3.78A1.36,1.36,0,0,0,594.45,77.47ZM550.24,56.94a2.44,2.44,0,1,1,2.44-2.43A2.43,2.43,0,0,1,550.24,56.94ZM590.1,76.11a2.44,2.44,0,0,1-4.88,0h0a2.44,2.44,0,0,1,4.88,0Z"/><path class="cls-2" d="M777.33,182.07,605.43,82.83a5.58,5.58,0,0,0-6.8,1,107.64,107.64,0,0,0-15.86,21l-8.23,14.25a5.58,5.58,0,0,0,2,7.61l11.11,6.41,155,89.48L753.77,229a5.57,5.57,0,0,0,7.61-2l8.23-14.24a108.1,108.1,0,0,0,10.29-24.27A5.58,5.58,0,0,0,777.33,182.07ZM713.58,158.3a1.38,1.38,0,0,1,1.39,0l20.43,11.8a1.38,1.38,0,0,1,.51,1.9,1.4,1.4,0,0,1-1.2.7H721.89a2.77,2.77,0,0,1-2.41-1.4l-6.41-11.1A1.38,1.38,0,0,1,713.58,158.3Zm-26.07-15.05a1.38,1.38,0,0,1,1.39,0L709.33,155a1.39,1.39,0,0,1-.69,2.6H695.82a2.77,2.77,0,0,1-2.41-1.39L687,145.15A1.38,1.38,0,0,1,687.51,143.25ZM661.44,128.2a1.38,1.38,0,0,1,1.39,0L683.26,140a1.39,1.39,0,0,1-.7,2.6H669.75a2.77,2.77,0,0,1-2.41-1.39l-6.41-11.1A1.38,1.38,0,0,1,661.44,128.2Zm-26.07-15.06a1.43,1.43,0,0,1,1.39,0l20.43,11.8a1.38,1.38,0,0,1,.51,1.9,1.4,1.4,0,0,1-1.21.7H643.68a2.8,2.8,0,0,1-2.42-1.39l-6.4-11.1A1.39,1.39,0,0,1,635.37,113.14Zm-26.07-15a1.38,1.38,0,0,1,1.39,0l20.43,11.8a1.39,1.39,0,0,1,.51,1.9,1.4,1.4,0,0,1-1.21.7H617.61a2.78,2.78,0,0,1-2.42-1.4L608.79,100A1.39,1.39,0,0,1,609.3,98.09ZM590.41,110.6a2.37,2.37,0,0,1,4.74,0h0a2.37,2.37,0,1,1-4.74,0Zm.32,12.76,12.07-20.91a2.79,2.79,0,0,1,3.81-1,2.93,2.93,0,0,1,1,1l5.63,9.76a2.78,2.78,0,0,1,0,2.79l-6.44,11.15a2.77,2.77,0,0,1-2.41,1.39H593.15a2.79,2.79,0,0,1-2.42-4.18Zm22,20.81a1.38,1.38,0,0,1-1.39,0l-20.43-11.8a1.38,1.38,0,0,1-.51-1.9,1.4,1.4,0,0,1,1.21-.7h12.81a2.77,2.77,0,0,1,2.41,1.39l6.41,11.1A1.39,1.39,0,0,1,612.72,144.17Zm2.47-3-6.43-11.15a2.78,2.78,0,0,1,0-2.79l6.43-11.15a2.8,2.8,0,0,1,2.42-1.39h12.87a2.8,2.8,0,0,1,2.42,1.39l6.43,11.15a2.78,2.78,0,0,1,0,2.79L632.9,141.2a2.8,2.8,0,0,1-2.42,1.39H617.61A2.8,2.8,0,0,1,615.19,141.2Zm23.6,18a1.38,1.38,0,0,1-1.39,0L617,147.42a1.38,1.38,0,0,1-.51-1.9,1.4,1.4,0,0,1,1.21-.7h12.81a2.78,2.78,0,0,1,2.42,1.4l6.4,11.09A1.39,1.39,0,0,1,638.79,159.22Zm2.47-3-6.43-11.15a2.78,2.78,0,0,1,0-2.79l6.43-11.15a2.8,2.8,0,0,1,2.42-1.39h12.87a2.8,2.8,0,0,1,2.42,1.39l6.43,11.15a2.78,2.78,0,0,1,0,2.79L659,156.25a2.8,2.8,0,0,1-2.42,1.39H643.68A2.8,2.8,0,0,1,641.26,156.25Zm23.6,18a1.38,1.38,0,0,1-1.39,0L643,162.48a1.4,1.4,0,0,1,.7-2.61h12.81a2.81,2.81,0,0,1,2.42,1.4l6.4,11.1A1.38,1.38,0,0,1,664.86,174.27Zm2.48-3-6.44-11.15a2.76,2.76,0,0,1,0-2.78l6.44-11.15a2.76,2.76,0,0,1,2.41-1.4h12.87a2.78,2.78,0,0,1,2.42,1.4l6.43,11.15a2.76,2.76,0,0,1,0,2.78L685,171.3a2.78,2.78,0,0,1-2.42,1.4H669.75A2.76,2.76,0,0,1,667.34,171.3Zm23.6,18a1.4,1.4,0,0,1-1.4,0l-20.43-11.79a1.41,1.41,0,0,1-.51-1.91,1.39,1.39,0,0,1,1.21-.69h12.81a2.8,2.8,0,0,1,2.42,1.39l6.41,11.1A1.4,1.4,0,0,1,690.94,189.32Zm2.47-3L687,175.21a2.78,2.78,0,0,1,0-2.79l6.44-11.15a2.78,2.78,0,0,1,2.41-1.4h12.87a2.81,2.81,0,0,1,2.42,1.4l6.44,11.15a2.83,2.83,0,0,1,0,2.79l-6.44,11.14a2.78,2.78,0,0,1-2.42,1.4H695.82A2.76,2.76,0,0,1,693.41,186.35Zm23.6,18a1.4,1.4,0,0,1-1.4,0l-20.43-11.79a1.4,1.4,0,0,1-.51-1.9,1.38,1.38,0,0,1,1.21-.7h12.81a2.8,2.8,0,0,1,2.42,1.39l6.41,11.1A1.4,1.4,0,0,1,717,204.37Zm2.47-3L713,190.26a2.78,2.78,0,0,1,0-2.79l6.44-11.15a2.78,2.78,0,0,1,2.41-1.39h12.88a2.79,2.79,0,0,1,2.41,1.39l6.44,11.15a2.83,2.83,0,0,1,0,2.79l-6.44,11.15a2.79,2.79,0,0,1-2.41,1.39H721.89A2.78,2.78,0,0,1,719.48,201.41Zm23.6,18a1.4,1.4,0,0,1-1.4,0l-20.43-11.8a1.39,1.39,0,0,1,.7-2.6h12.82a2.79,2.79,0,0,1,2.41,1.39l6.41,11.1A1.41,1.41,0,0,1,743.08,219.43Zm16.51-10.15a2.37,2.37,0,1,1,2.37-2.37A2.37,2.37,0,0,1,759.59,209.28Zm2-15.12-12.07,20.91a2.79,2.79,0,0,1-3.81,1,2.93,2.93,0,0,1-1-1l-5.63-9.76a2.78,2.78,0,0,1,0-2.79l6.44-11.15A2.79,2.79,0,0,1,748,190h11.27a2.78,2.78,0,0,1,2.78,2.79A2.71,2.71,0,0,1,761.64,194.16Zm.34-7.11a1.4,1.4,0,0,1-1.2.7H748a2.78,2.78,0,0,1-2.41-1.4l-6.41-11.09a1.4,1.4,0,0,1,.51-1.91,1.38,1.38,0,0,1,1.39,0l20.43,11.8A1.38,1.38,0,0,1,762,187.05Z"/><path class="cls-2" d="M710.3,218l-14.86-4.6a27.76,27.76,0,0,1-5.7-2.49l-70.62-40.77a27.83,27.83,0,0,1-5-3.69l-11.41-10.58a4.25,4.25,0,1,0-5.78,6.24l7,6.46a13.91,13.91,0,0,1,4.36,11.93,8.35,8.35,0,0,0,4.11,8.27L677,226.06a8.35,8.35,0,0,0,9.22-.57,14,14,0,0,1,12.52-2.19l9.07,2.81A4.25,4.25,0,1,0,710.3,218ZM599.82,161a2,2,0,1,1,2-2A2,2,0,0,1,599.82,161Zm20.45,20.09a1.68,1.68,0,0,1-3.35,0h0a1.68,1.68,0,1,1,3.35,0ZM653,201a2.78,2.78,0,0,1-3.8,1l-25.77-14.88a2.79,2.79,0,1,1,2.79-4.83L652,197.14A2.78,2.78,0,0,1,653,201Zm5.3,2.09a1.68,1.68,0,0,1-3.35,0h0a1.68,1.68,0,1,1,3.35,0Zm18.42,11.6a2.79,2.79,0,0,1-3.81,1l-11.64-6.72a2.79,2.79,0,0,1,2.78-4.83l11.65,6.72A2.8,2.8,0,0,1,676.71,214.64Zm32.34,9.43a2,2,0,1,1,2-2A2,2,0,0,1,709.05,224.07Z"/><path class="cls-2" d="M731.3,246.84a4.26,4.26,0,0,0-5.08-3.22h0L711,247.08a27.94,27.94,0,0,1-6.18.69H623.31a28,28,0,0,1-6.19-.69L602,243.63a4.25,4.25,0,1,0-1.91,8.28h0l9.26,2.11a13.93,13.93,0,0,1,9.75,8.15,8.35,8.35,0,0,0,7.7,5.1h74.6a8.35,8.35,0,0,0,7.7-5.1,13.91,13.91,0,0,1,9.74-8.15l9.27-2.11A4.25,4.25,0,0,0,731.3,246.84ZM601,249.79a2,2,0,1,1,2-2A2,2,0,0,1,601,249.79Zm48,10.53H635.51a2.79,2.79,0,1,1,0-5.58H649a2.79,2.79,0,0,1,0,5.58Zm8.64-2.79a1.68,1.68,0,0,1-3.35,0h0a1.68,1.68,0,1,1,3.35,0Zm35,2.79H662.89a2.79,2.79,0,0,1,0-5.58h29.76a2.79,2.79,0,1,1,0,5.58Zm8.85-2.79a1.68,1.68,0,0,1-3.35,0h0a1.68,1.68,0,1,1,3.35,0Zm25.64-7.74a2,2,0,1,1,2-2A2,2,0,0,1,727.14,249.79Z"/><path class="cls-1" d="M623.87,216h-7a7,7,0,0,0-7,7v8.36a1.4,1.4,0,0,0,1.4,1.39h18.12a1.39,1.39,0,0,0,1.39-1.39V223A7,7,0,0,0,623.87,216Zm-3.48,12.29a3.93,3.93,0,1,1,3.93-3.93A3.93,3.93,0,0,1,620.39,228.31Z"/><path class="cls-2" d="M557.49,307.46l-2.42-1.4-.3-.12-.31-.06-.33,0-.3.09a2.79,2.79,0,0,0-1.17-1.32l-67.59-39-2.42-1.4a2.78,2.78,0,0,0-3.8,1l-9.41,16.3a1.11,1.11,0,0,0-1.52.4l-47,81.36a1.11,1.11,0,0,0,.41,1.52L410.9,383a2.79,2.79,0,0,0,1,3.81l2.42,1.4,4.73,2.73a4.17,4.17,0,0,1,2.09,3.62v12.87a8.38,8.38,0,0,0,4.19,7.25l11.14,6.43a8.35,8.35,0,0,0,8.37,0L456,414.63a4.16,4.16,0,0,1,4.18,0l21.74,12.55a2.8,2.8,0,0,0,1.72.35l.08.31.15.29.2.25.26.19,2.42,1.4a2.78,2.78,0,0,0,3.8-1l67.95-117.69h0A2.78,2.78,0,0,0,557.49,307.46ZM495,278.64a1.41,1.41,0,0,1,.19-.7,1.4,1.4,0,0,1,1.9-.51l22.3,12.88a1.39,1.39,0,0,1,0,2.41l-7,4a4.16,4.16,0,0,1-4.18,0l-11.15-6.43a4.2,4.2,0,0,1-2.09-3.62Zm0,15.29,11.15,6.44a4.17,4.17,0,0,1,2.09,3.62v12.87a4.2,4.2,0,0,1-2.09,3.62L495,326.92a4.16,4.16,0,0,1-4.18,0l-11.15-6.44a4.2,4.2,0,0,1-2.09-3.62V304a4.17,4.17,0,0,1,2.09-3.62l11.15-6.44A4.16,4.16,0,0,1,495,293.93Zm-4.18,40.23V347a4.2,4.2,0,0,1-2.09,3.62l-11.15,6.43a4.16,4.16,0,0,1-4.18,0l-11.15-6.43a4.17,4.17,0,0,1-2.09-3.62V334.16a4.17,4.17,0,0,1,2.09-3.62l11.15-6.44a4.21,4.21,0,0,1,4.18,0l11.15,6.44A4.2,4.2,0,0,1,490.85,334.16Zm-19.62-41.74.06-.13,11.5-19.91.07-.12a2.78,2.78,0,0,1,3.74-.9l2.16,1.24a4.2,4.2,0,0,1,2.09,3.63v10.46a4.2,4.2,0,0,1-2.09,3.62l-11.15,6.43a4.16,4.16,0,0,1-4.18,0l-1.12-.64A2.78,2.78,0,0,1,471.23,292.42Zm-17.42,30.17.06-.12,12.55-21.73a.75.75,0,0,1,.07-.12,2.79,2.79,0,0,1,3.73-.9l1.12.65a4.17,4.17,0,0,1,2.09,3.62v12.87a4.2,4.2,0,0,1-2.09,3.62l-11.15,6.44a4.16,4.16,0,0,1-4.18,0l-1.12-.64A2.8,2.8,0,0,1,453.81,322.59Zm-17.43,30.17a.75.75,0,0,0,.07-.12L449,330.92l.08-.12a2.77,2.77,0,0,1,3.73-.9l1.12.64a4.2,4.2,0,0,1,2.09,3.62V347a4.2,4.2,0,0,1-2.09,3.62l-11.15,6.43a4.16,4.16,0,0,1-4.18,0l-1.12-.64A2.79,2.79,0,0,1,436.38,352.76Zm-15.22,34.51-1.11-.65a2.79,2.79,0,0,1-1.09-3.68l.07-.12,12.54-21.73.08-.12a2.78,2.78,0,0,1,3.73-.9l1.11.64a4.19,4.19,0,0,1,2.1,3.63v12.87a4.18,4.18,0,0,1-2.1,3.62l-11.14,6.44A4.23,4.23,0,0,1,421.16,387.27Zm13.24,24.39L428.53,400l2.62-4.55,5.88,11.7ZM445.12,415l-11.75-23.39L436,387l11.75,23.38Zm4.84-8.39-5.87-11.69,2.62-4.56,5.88,11.7ZM456,387.27l-11.15-6.44a4.17,4.17,0,0,1-2.09-3.62V364.34a4.18,4.18,0,0,1,2.09-3.63L456,354.28a4.16,4.16,0,0,1,4.18,0l11.15,6.43a4.2,4.2,0,0,1,2.09,3.63v12.87a4.2,4.2,0,0,1-2.09,3.62l-11.15,6.44A4.16,4.16,0,0,1,456,387.27Zm34.84,20.11a4.2,4.2,0,0,1-2.09,3.63l-11.15,6.43a4.16,4.16,0,0,1-4.18,0L462.28,411a4.18,4.18,0,0,1-2.09-3.63V394.51a4.17,4.17,0,0,1,2.09-3.62l11.15-6.44a4.16,4.16,0,0,1,4.18,0l11.15,6.44a4.2,4.2,0,0,1,2.09,3.62Zm17.42-30.17a4.2,4.2,0,0,1-2.09,3.62L495,387.27a4.21,4.21,0,0,1-4.18,0l-11.15-6.44a4.2,4.2,0,0,1-2.09-3.62V364.34a4.2,4.2,0,0,1,2.09-3.63l11.15-6.43a4.16,4.16,0,0,1,4.18,0l11.15,6.43a4.2,4.2,0,0,1,2.09,3.63ZM525.69,347a4.17,4.17,0,0,1-2.09,3.62l-11.15,6.43a4.16,4.16,0,0,1-4.18,0l-11.15-6.43A4.2,4.2,0,0,1,495,347V334.16a4.2,4.2,0,0,1,2.09-3.62l11.15-6.44a4.21,4.21,0,0,1,4.18,0l11.15,6.44a4.17,4.17,0,0,1,2.09,3.62Zm17.42-30.18a4.17,4.17,0,0,1-2.09,3.62l-11.15,6.44a4.16,4.16,0,0,1-4.18,0l-11.15-6.44a4.2,4.2,0,0,1-2.09-3.62V304a4.17,4.17,0,0,1,2.09-3.62l9.06-5.24a4.21,4.21,0,0,1,4.18,0L541,302.78a4.17,4.17,0,0,1,2.09,3.62Z"/><path class="cls-1" d="M464.87,450.87l-61.55-35.54a6.27,6.27,0,0,0-8.57,2.29l-35.54,61.56a6.27,6.27,0,0,0,2.29,8.57l61.56,35.54a6.28,6.28,0,0,0,8.57-2.3l35.54-61.56A6.27,6.27,0,0,0,464.87,450.87Zm-29.64-15-4.09-2.36A37.72,37.72,0,0,1,435.23,435.85Zm-20-1.88a4.18,4.18,0,0,1,4.18-4.18,4.49,4.49,0,0,1,.73.06,40.32,40.32,0,0,1,7.39,2.06c.37.14.74.29,1.1.45l8.76,5.05c.32.24.63.49.94.74a40.23,40.23,0,0,1,5.47,5.37,4.18,4.18,0,0,1-.5,5.89,3.67,3.67,0,0,1-.61.42l-10,5.8a4.21,4.21,0,0,1-4.18,0l-11.15-6.44a4.2,4.2,0,0,1-2.09-3.62Zm-8.55,26.88,2.35-4.07,10.5,20.9-2.35,4.07ZM410,474.72l-2.35,4.07-5.25-10.45,2.34-4.06Zm6.3-10.92,2.35-4.06,5.25,10.45-2.35,4.06Zm-33.79-20.28a40.13,40.13,0,0,1,23.67-13.67,4.4,4.4,0,0,1,.73-.06A4.18,4.18,0,0,1,411.1,434v11.6a4.2,4.2,0,0,1-2.09,3.62l-11.15,6.44a4.21,4.21,0,0,1-4.18,0l-10.05-5.8a4,4,0,0,1-.6-.42A4.18,4.18,0,0,1,382.52,443.52Zm-1.64,42a4.18,4.18,0,0,1-5.36-2.5,40.07,40.07,0,0,1,0-27.32,3.72,3.72,0,0,1,.31-.67,4.18,4.18,0,0,1,5.71-1.53l10,5.8a4.2,4.2,0,0,1,2.09,3.62v12.87a4.2,4.2,0,0,1-2.09,3.63l-10,5.79A3.31,3.31,0,0,1,380.88,485.47Zm10.26,17.3,4.09,2.36A43.78,43.78,0,0,1,391.14,502.77Zm20,1.87a4.18,4.18,0,0,1-4.18,4.18,4.4,4.4,0,0,1-.73-.06,40.1,40.1,0,0,1-7.39-2.06l-1.11-.44-8.76-5.06-.93-.73a40.31,40.31,0,0,1-5.48-5.37,4.18,4.18,0,0,1,.51-5.89,4,4,0,0,1,.6-.42l10.05-5.8a4.16,4.16,0,0,1,4.18,0L409,489.42A4.2,4.2,0,0,1,411.1,493Zm32.75-9.54a40.06,40.06,0,0,1-23.66,13.66,4.49,4.49,0,0,1-.73.06,4.18,4.18,0,0,1-4.18-4.18V493a4.2,4.2,0,0,1,2.09-3.62L428.52,483a4.16,4.16,0,0,1,4.18,0l10,5.8a3.67,3.67,0,0,1,.61.42A4.18,4.18,0,0,1,443.85,495.1Zm7-12.13a5,5,0,0,1-.31.66,4.18,4.18,0,0,1-5.71,1.53l-10-5.79a4.2,4.2,0,0,1-2.09-3.63V462.87a4.2,4.2,0,0,1,2.09-3.62l10-5.8a4,4,0,0,1,.66-.31,4.18,4.18,0,0,1,5.36,2.51A40.07,40.07,0,0,1,450.86,483Z"/><path class="cls-2" d="M418,551.64l-2.42-1.4-1.39,2.42a2.79,2.79,0,0,0-1-3.81L391.47,536.3a4.18,4.18,0,0,1-2.09-3.63V519.8a8.37,8.37,0,0,0-4.18-7.24l-11.15-6.44a8.4,8.4,0,0,0-8.37,0l-11.15,6.44a4.16,4.16,0,0,1-4.18,0l-7.15-4.13a2.78,2.78,0,0,0-3.8,1l-4.18,7.24a1.12,1.12,0,0,0-1.53.41h0L315.3,549a1.11,1.11,0,0,0,.4,1.52l-4.18,7.24a1.11,1.11,0,0,0-1.52.41l-13.39,23.18a1.12,1.12,0,0,0,.41,1.53l-4.18,7.24a1.4,1.4,0,0,0,1.54,2,7.71,7.71,0,0,1,5.66.8l10.78,6.22.17.11a7.53,7.53,0,0,0,6.45.51,4.17,4.17,0,0,1,3.58.29l23.92,13.81a4.19,4.19,0,0,1,2,3,7.54,7.54,0,0,0,3.67,5.32l.18.1,10.77,6.22a7.69,7.69,0,0,1,3.53,4.51,1.39,1.39,0,0,0,1.72,1,1.36,1.36,0,0,0,.82-.65l-.83,1.44,2.42,1.39a2.78,2.78,0,0,0,3.81-1l46-79.66A2.78,2.78,0,0,0,418,551.64ZM354.53,519.8a4.18,4.18,0,0,1,2.1-3.62l11.15-6.44a4.21,4.21,0,0,1,4.18,0l11.15,6.44a4.2,4.2,0,0,1,2.09,3.62v12.87a4.2,4.2,0,0,1-2.09,3.63L372,542.73a4.16,4.16,0,0,1-4.18,0l-11.15-6.43a4.19,4.19,0,0,1-2.1-3.63Zm0,20.12,11.15,6.43a4.18,4.18,0,0,1,2.1,3.62v12.88a4.18,4.18,0,0,1-2.1,3.62l-11.15,6.44a4.21,4.21,0,0,1-4.18,0l-11.15-6.44a4.2,4.2,0,0,1-2.09-3.62V550a4.2,4.2,0,0,1,2.09-3.62l11.15-6.43A4.16,4.16,0,0,1,354.53,539.92Zm-23.73-1.64,12.54-21.72a2.78,2.78,0,0,1,3.81-1h0l1.11.64a4.17,4.17,0,0,1,2.09,3.62v12.87a4.18,4.18,0,0,1-2.09,3.63l-11.15,6.43a4.16,4.16,0,0,1-4.18,0l-1.11-.64A2.78,2.78,0,0,1,330.8,538.28Zm-15.29,54.91a2.79,2.79,0,0,1-4.18,2.41l-7.8-4.51a2.77,2.77,0,0,1-1-3.8l6-10.38a2.78,2.78,0,0,1,3.81-1h0l1.11.64a4.2,4.2,0,0,1,2.09,3.62Zm0-20.28-1.11-.65a2.77,2.77,0,0,1-1-3.8l12.54-21.73a2.79,2.79,0,0,1,3.81-1l1.11.64a4.17,4.17,0,0,1,2.09,3.62v12.88a4.17,4.17,0,0,1-2.09,3.62l-11.15,6.44A4.21,4.21,0,0,1,315.51,572.91Zm17.42,30.17-11.15-6.43a4.2,4.2,0,0,1-2.09-3.63V580.15a4.2,4.2,0,0,1,2.09-3.62l11.15-6.44a4.16,4.16,0,0,1,4.18,0l11.15,6.44a4.17,4.17,0,0,1,2.09,3.62V593a4.18,4.18,0,0,1-2.09,3.63l-11.15,6.43A4.16,4.16,0,0,1,332.93,603.08Zm34.85,20.28a2.79,2.79,0,0,1-4.19,2.41l-11.27-6.5a4.19,4.19,0,0,1-2-3,7.51,7.51,0,0,0-3.66-5.33l-3.23-1.86a2.78,2.78,0,0,1,0-4.83l7-4a4.16,4.16,0,0,1,4.18,0l11.15,6.43a4.18,4.18,0,0,1,2.1,3.62ZM385.2,593a4.2,4.2,0,0,1-2.09,3.63L372,603.08a4.16,4.16,0,0,1-4.18,0l-11.15-6.43a4.19,4.19,0,0,1-2.1-3.63V580.15a4.18,4.18,0,0,1,2.1-3.62l11.15-6.44a4.16,4.16,0,0,1,4.18,0l11.15,6.44a4.2,4.2,0,0,1,2.09,3.62Zm17.42-30.17a4.2,4.2,0,0,1-2.09,3.62l-11.15,6.44a4.21,4.21,0,0,1-4.18,0l-11.15-6.44a4.17,4.17,0,0,1-2.09-3.62V550a4.17,4.17,0,0,1,2.09-3.62l11.15-6.43a4.16,4.16,0,0,1,4.18,0l11.15,6.43a4.2,4.2,0,0,1,2.09,3.62Z"/><path class="cls-2" d="M281.81,649l-.1-.26-.15-.23-.19-.2-.22-.16-32.09-18.52-.25-.12-.27-.06h-.27l-.27,0-.26.09-.24.14-.2.19-.16.22-3.49,6-.11.25-.06.27V637l0,.27.1.25.15.24.19.19.22.17,1.23.71.23.14.22.18.21.19.18.21.15.22.14.24.12.26.09.26.06.26,0,.28v.28l0,.27,0,.27-.08.27-.1.26-.12.24L197,728.34l-.15.23-.18.22-.19.2-.21.17-.22.15-.25.13-.26.11-.26.08-.27,0-.28,0h-.28l-.27,0-.27-.05-.27-.08-.26-.11-.24-.12-11.38-6.57a1.38,1.38,0,0,0-1.9.51h0l-5.58,9.66-4.18,7.24a1.39,1.39,0,0,0,.51,1.9l8.69,5a1.4,1.4,0,0,0,1.9-.51l2.1-3.62a2.77,2.77,0,0,1,3.8-1l27.76,16a2.78,2.78,0,0,1,1,3.81h0l-2.09,3.62a1.41,1.41,0,0,0,.51,1.91l8.69,5a1.39,1.39,0,0,0,1.91-.51l4.18-7.24,5.57-9.65a1.39,1.39,0,0,0-.51-1.91l-11.38-6.57-.22-.14-.22-.18-.21-.19-.18-.21-.15-.22-.14-.24-.12-.26-.09-.26-.06-.26,0-.28v-.55l.05-.27.08-.27.1-.26.12-.25,49.48-85.69.15-.23.17-.22.2-.2.21-.17.22-.15.25-.14.26-.1.26-.08.27-.06.28,0h.28l.27,0,.26.05.27.08.27.11.24.12,1.23.71.25.11.27.07h.27l.28,0,.25-.1.24-.14.2-.19.16-.22,3.49-6,.11-.26.06-.26v-.28Zm-52.58,67.35-11.14,19.31a4.2,4.2,0,0,1-5.72,1.53l-1.2-.7-3.62-2.09-1.21-.7a4.17,4.17,0,0,1-1.53-5.71L216,708.7a4.18,4.18,0,0,1,5.71-1.53l6,3.49A4.17,4.17,0,0,1,229.23,716.37Zm17.84-30.9-9.75,16.9a4.18,4.18,0,0,1-5.71,1.53l-6-3.49A4.18,4.18,0,0,1,224,694.7l9.76-16.9a4.18,4.18,0,0,1,5.71-1.53l6,3.49A4.17,4.17,0,0,1,247.07,685.47Zm17.7-30.66L255,671.71a4.18,4.18,0,0,1-5.71,1.53l-6-3.49a4.18,4.18,0,0,1-1.53-5.71l9.76-16.89a4.19,4.19,0,0,1,5.71-1.54l6,3.49A4.17,4.17,0,0,1,264.77,654.81Z"/><path class="cls-1" d="M156.89,665l4.52.8a2.8,2.8,0,0,0,2.36-.69,58,58,0,0,0,9.81-11.68,1.38,1.38,0,0,0-.42-1.92l0,0-10.6-6.12a1.4,1.4,0,0,0-1.87.45c-.49.75-1,1.48-1.54,2.2a1.39,1.39,0,0,0-.14,1.43,7.94,7.94,0,0,1-1.9,9.34,49,49,0,0,1-8.23,5.93,1.4,1.4,0,0,0-.54,1.87l3,5.65a1.39,1.39,0,0,0,1.88.56h0c.66-.37,1.31-.76,1.95-1.16a.84.84,0,0,0,.27-1.15l0,0-1.06-1.54a2.51,2.51,0,0,1,2.51-3.89Z"/><path class="cls-2" d="M188.87,806.9l-52.93-30.56a1.38,1.38,0,0,0-1.9.51h0l-5.58,9.65a1.4,1.4,0,0,0,.51,1.91l10.82,6.24,3.62,2.09,10.22,5.9,3.62,2.09,10.22,5.9,3.62,2.09L181.91,819a1.39,1.39,0,0,0,1.9-.51l5.57-9.66A1.38,1.38,0,0,0,188.87,806.9Zm-29-6.82a2.37,2.37,0,0,1-4.74,0h0a2.37,2.37,0,1,1,4.74,0Z"/><path class="cls-2" d="M254.29,896.85l-6.44-11.14a4.18,4.18,0,0,1,0-4.19l4.13-7.15a2.78,2.78,0,0,0-1-3.8l-117.68-68a2.79,2.79,0,0,0-3.81,1l-40.42,70a2.79,2.79,0,0,0,1,3.81h0L207.75,945.4a2.79,2.79,0,0,0,3.81-1l12.55-21.74a4.17,4.17,0,0,1,3.62-2.09h12.88a8.37,8.37,0,0,0,7.24-4.18l6.44-11.15A8.4,8.4,0,0,0,254.29,896.85ZM130,868.28l-6.44,11.15a4.17,4.17,0,0,1-3.62,2.09H107a4.17,4.17,0,0,1-3.62-2.09l-5.23-9.06a4.21,4.21,0,0,1,0-4.18L105.83,853a4.18,4.18,0,0,1,3.62-2.09h10.46a4.2,4.2,0,0,1,3.62,2.09L130,864.1A4.21,4.21,0,0,1,130,868.28Zm0-34.84-6.44,11.15a4.2,4.2,0,0,1-3.62,2.09h-8a1.39,1.39,0,0,1-1.39-1.39,1.32,1.32,0,0,1,.19-.7l12.87-22.3a1.39,1.39,0,0,1,1.9-.51,1.32,1.32,0,0,1,.51.51l4,7A4.21,4.21,0,0,1,130,833.44Zm3.62-6.27-5.23-9.06a4.16,4.16,0,0,1,0-4.18l1.25-2.16a2.78,2.78,0,0,1,3.8-1l19.92,11.5a2.78,2.78,0,0,1,1,3.8l-.64,1.12a4.2,4.2,0,0,1-3.63,2.09H137.21A4.2,4.2,0,0,1,133.59,827.17ZM143.91,860a3.28,3.28,0,1,1-3.27-3.28A3.28,3.28,0,0,1,143.91,860Zm20.43,40.48-27.16-15.68a4.73,4.73,0,0,1-1.73-6.47l18.46-32h0a4.75,4.75,0,0,1,6.48-1.73l27.15,15.68a4.73,4.73,0,0,1,1.74,6.47l-18.47,32A4.73,4.73,0,0,1,164.34,900.46Zm19.75-18.67a3.28,3.28,0,1,1-3.28,3.28A3.27,3.27,0,0,1,184.09,881.79Zm23.4,44.55L180.94,911l24-41.64,26.55,15.33Z"/><path class="cls-1" d="M222.81,829.18l-6-3.49a7,7,0,0,0-9.52,2.55l-4.18,7.25a1.38,1.38,0,0,0,.51,1.9l15.69,9.06a1.4,1.4,0,0,0,1.9-.51l4.18-7.24A7,7,0,0,0,222.81,829.18Zm-3.27,5.51a3.93,3.93,0,0,1-7.86,0h0a3.93,3.93,0,1,1,7.86,0Z"/><path class="cls-1" d="M280.46,970v.19l0,.2-.05.2-.08.21-.1.2-2.45,4.23-.11.18-.13.16-.14.13-.16.12-.16.08-.18.07-.19,0-.2,0h-.22l-.23,0-.24-.05-.25-.08-.26-.09-.28-.12-.28-.14-.3-.17-.3-.18-.27-.18-.25-.18-.21-.18-.2-.18-.16-.19-.14-.18-.11-.19-.09-.18-.06-.19,0-.18v-.19l0-.19,0-.19.07-.19.1-.19,2.45-4.24.13-.21.15-.18.15-.16.17-.12.18-.1.18-.07.2,0h.43l.22,0,.24,0,.25.08.26.1.27.11.29.14.29.16.29.18.27.18.24.19.22.18.19.19.16.18.13.19.11.19.08.2.06.19Zm-18-10.57-.05-.19-.08-.19-.11-.19-.14-.19-.16-.19-.19-.19-.21-.18-.24-.18-.27-.18-.3-.18-.29-.16-.28-.14-.27-.12-.26-.1-.25-.07-.24-.06-.23,0h-.22l-.2,0-.2,0-.19.07-.18.1-.16.13-.16.15-.14.19-.14.21L254.87,962l-.1.19-.07.19,0,.19v.38l0,.19.06.18.08.19.12.18.13.19.17.18.19.18.22.19.24.18.27.18.3.18.3.16.29.14.28.12.26.1.25.07.24.05.23,0h.21l.2,0,.19,0,.18-.06.17-.09.15-.11.14-.14.13-.15.12-.18,2.44-4.23.11-.21.07-.2.06-.2,0-.2v-.2Zm8.32,4.48-.18-.25-.26-.25-.32-.25-.39-.25-1.87-1.07-1.93,3.34,1.74,1,.47.25.42.18.36.11.31,0,.27,0,.25-.12.22-.19.19-.28.71-1.23.11-.25,0-.25,0-.25Zm27.85,6.23c-3,5.33-2.93,9.82-.28,14.82,3.1,5.83,1.91,8.6-4.78,10.64-1.18.36-2.58.52-2.91,1.65-1.41,4.83-4.31,2.72-6.83,1.49-2.73-1.32-5.3-3-7.95-4.47-7.49-4.22-7.74-4.33-4.29-11.77,1.28-2.77.67-3.55-1.61-4.79-4.51-2.45-9-5-13.22-7.91-3.7-2.48-5.63.18-6.64,2.55-2.25,5.22-5.25,4.05-8.76,1.86-1.58-1-3.12-2-4.75-2.95-9.45-5.33-10.34-7.24-8-17.71.7-3.15,2.67-5,6-4.9,7.88.37,12.42-3.82,15.87-10.44,5.35-10.26,12.17-19.71,17-30.26,1.61-3.5,5-3.71,9.27-3.55,3.26,1.17,7.6,1.39,11.55,4.15a163,163,0,0,0,19.61,11.34c4.9,2.49,7.88,6.44,10.56,10.9a5.63,5.63,0,0,1-.13,6C311,947.38,305,958.8,298.64,970.09Zm-60.09-15.73c-.67-1.5-1.43-2.84-3.41-3-2.26-.15-4.65,0-4.93,2.73-.21,2,1.79,3.65,3.47,4C236.12,958.71,237.13,956.24,238.55,954.36ZM256.3,954l-1.32-.76-7.25,6-.13-.07,1.56-9.28-1.38-.79L246.1,960l1.53.88Zm4.78,11.58,2.43-4.21.17-.32.12-.31.08-.31,0-.31v-.3l-.05-.3-.08-.3-.12-.3-.17-.29-.2-.29-.25-.29-.28-.28-.33-.28-.37-.28-.41-.28-.45-.27-.46-.25-.44-.22-.42-.17-.4-.14-.39-.11-.37-.06-.35,0h-.33l-.32,0-.3.08-.28.12-.26.15-.25.19-.22.23-.21.26-.2.3-2.42,4.21-.16.3-.11.3-.08.29,0,.3v.29l0,.29.09.29.12.28.17.29.21.28.24.28.29.28.32.27.37.28.4.27.45.27.42.23.4.2.4.17.38.14.38.11.37.08.35.06.35,0h.33l.31,0,.3-.1.27-.13.25-.18.24-.22.21-.25Zm10,1.8.13-.16.13-.19.88-1.53.18-.35.11-.32,0-.31v-.28l-.08-.27-.14-.27-.2-.27-.26-.26-.33-.28-.4-.29-.48-.31-.55-.33-3.12-1.8L261.82,969l1.33.77,2.19-3.79,1.29.74L267,972l1.63,1-.56-5.61.49.25.48.17.47.09H270l.22,0,.2-.05.19-.07.18-.1.16-.11Zm8,8.57,2.44-4.22.16-.31.12-.32.08-.31,0-.3v-.31l0-.3-.08-.3-.13-.29-.16-.29-.21-.29-.24-.29-.29-.29-.33-.28-.37-.28-.41-.27-.45-.28-.45-.25-.44-.21-.42-.18-.41-.14-.38-.1-.37-.07-.35,0H276l-.31,0-.3.08-.28.12-.27.15-.24.19-.23.23-.21.26-.19.3-2.43,4.2-.15.31-.12.29-.07.3,0,.29v.3l.05.29.08.28.13.29.16.28.21.29.25.28.28.27.33.28.36.27.41.28.44.27.42.22.41.2.39.17.39.15.37.11.37.08.36,0,.34,0h.34l.31-.06.29-.09.27-.13.26-.18.23-.22.22-.26Zm13.48-1-1.17-.67-4.24,7.34-.59-10.13-1.6-.93-5.14,8.89,1.17.67,4.31-7.46.52,10.25,1.6.93Zm1.05,10.75c-2.1.15-3.92,1.21-3.3,3.44.48,1.76,1.17,4.31,4.07,3.66,3.07.2,3.7-2.38,3.78-4.14C298.23,985.93,295.82,985.48,293.56,985.65Zm13.51-47.93c0-12.74-11.31-24.29-23.88-23.38-13.51,1-22.81,9.44-23.25,24.07-.4,13.15,9.81,23,23.16,23C297.41,961.42,307.08,951.87,307.07,937.72Z"/><path class="cls-1" d="M313.35,885.15a5.78,5.78,0,0,0-2.45-10.34l-4.12-.73a7,7,0,0,0-3,.14l-11.1,3a20.94,20.94,0,0,1-15-1.63L269,871.1a2.09,2.09,0,0,0-1.92,3.71l1.44.75a2.84,2.84,0,0,1,1.41,1.75l2.32,8.66a2.81,2.81,0,0,1-.43,2.35c-.43.6-.83,1.22-1.21,1.86a5.63,5.63,0,0,0-.62,4.06,1.38,1.38,0,0,0,1.67,1,1.29,1.29,0,0,0,.41-.16c1.54-.92,3.13-1.78,4.75-2.56a1,1,0,0,0,.13-1.81,2.08,2.08,0,0,1-.57-2.9,1.92,1.92,0,0,1,.26-.32l.21-.2A5.55,5.55,0,0,1,279.3,886l17-4.56.77-.17.78-.1.79,0,.79,0,.79.1.77.17.75.24.73.3.7.37.67.42.62.48.59.53.53.59.48.62.43.67.36.7,2.91,6.23a2.09,2.09,0,0,0,3.79-1.77l-1-2.23A2.78,2.78,0,0,1,313.35,885.15Zm-1-4.64a2.44,2.44,0,1,1-4.88,0h0a2.44,2.44,0,0,1,4.88,0Z"/><path class="cls-1" d="M395,871.14H332.86a4.18,4.18,0,0,0-4.18,4.18v3.07a.56.56,0,0,0,.56.55H349v-.41a2.37,2.37,0,1,1,3.35,0h0v.41h15.89a4.74,4.74,0,0,1,4.74,4.74v12.55A2.79,2.79,0,0,0,375.8,899H395a5.58,5.58,0,0,0,5.58-5.58V876.71A5.57,5.57,0,0,0,395,871.14Zm-8.36,17.77a3.84,3.84,0,1,1,3.83-3.83A3.84,3.84,0,0,1,386.68,888.91Z"/><path class="cls-2" d="M363.35,897.82H325.72a5,5,0,0,0-5,5v9.77a6.14,6.14,0,0,0,1.8,4.34l5.84,5.84a6.12,6.12,0,0,0,4.33,1.79H356.4a6.13,6.13,0,0,0,4.34-1.79l5.83-5.84a6.14,6.14,0,0,0,1.8-4.34v-9.77A5,5,0,0,0,363.35,897.82Zm-18.81,17.56a4.18,4.18,0,1,1,4.18-4.18A4.18,4.18,0,0,1,344.54,915.38Z"/><path class="cls-2" d="M423.42,1000,401.58,987.4a1.39,1.39,0,0,1-.51-1.91l12.61-21.84a1.39,1.39,0,0,0-.51-1.91L360,931.06l-.55-.28-.57-.2-.59-.14-.59-.07h-.6l-.57.08-.56.16-.52.22-.48.29-.43.35-.37.41-.31.45L312,1004.86a4.34,4.34,0,0,0-.28,3.72l1.15,2.95a4.37,4.37,0,0,0,1.86,2.16l73.18,42.25.49.23.52.17.55.09H390l.56-.07.56-.14.54-.22.52-.29.48-.35.45-.41.39-.47.34-.51,30.05-52.07A1.38,1.38,0,0,0,423.42,1000Zm-32.91-42.22a7,7,0,1,1-7,7A7,7,0,0,1,390.51,957.79ZM384,990a4.18,4.18,0,1,1,4.18,4.18A4.19,4.19,0,0,1,384,990Zm7.6,37.9-2.1,3.64-4.71-9.36,2.11-3.64Zm-32.84-88.41a7,7,0,1,1-7,7A7,7,0,0,1,358.77,939.46Zm-8,24.72a4.18,4.18,0,1,1-4.18,4.18A4.18,4.18,0,0,1,350.77,964.18ZM329.17,1010a4.18,4.18,0,1,1,4.18-4.18A4.18,4.18,0,0,1,329.17,1010Zm37.41,21.6a4.18,4.18,0,1,1,4.18-4.18A4.18,4.18,0,0,1,366.58,1031.56Zm10.21-33.68a18.12,18.12,0,0,1-36.23,0h0a18.12,18.12,0,1,1,36.23,0Zm8.32,50.38a7,7,0,1,1,7-7A7,7,0,0,1,385.11,1048.26Zm13-14.11-9.4-18.71,2.1-3.64,9.4,18.71Zm3.87-6.71-4.7-9.35,2.1-3.64,4.71,9.35Zm3.64-14.66a7,7,0,1,1,7-7A7,7,0,0,1,405.59,1012.78Z"/><path class="cls-2" d="M883.83,245.87l-79.66-46a2.78,2.78,0,0,0-3.81,1h0L799,203.31l2.41,1.39a2.79,2.79,0,0,0-3.81,1L785,227.47a4.2,4.2,0,0,1-3.62,2.09H768.52a8.37,8.37,0,0,0-7.24,4.18l-6.43,11.15a8.33,8.33,0,0,0,0,8.36l6.43,11.15a4.16,4.16,0,0,1,0,4.18l-4.13,7.15a2.79,2.79,0,0,0,1,3.81l7.25,4.18a1.11,1.11,0,0,0,.4,1.52l31.87,18.4a1.11,1.11,0,0,0,1.52-.41l7.24,4.18a1.12,1.12,0,0,0,.41,1.52l23.19,13.39a1.11,1.11,0,0,0,1.52-.41l7.24,4.18a1.39,1.39,0,0,0,1.91-.51,1.37,1.37,0,0,0,.14-1,7.66,7.66,0,0,1,.81-5.66l6.22-10.77.1-.18a7.51,7.51,0,0,0,.51-6.44,4.21,4.21,0,0,1,.29-3.58L862.6,274a4.19,4.19,0,0,1,3-2,7.52,7.52,0,0,0,5.33-3.67l.1-.17,6.22-10.78a7.66,7.66,0,0,1,4.5-3.52,1.4,1.4,0,0,0,.95-1.73,1.39,1.39,0,0,0-.64-.82l1.44.83,1.39-2.41A2.79,2.79,0,0,0,883.83,245.87Zm-55-12.13h12.88a4.17,4.17,0,0,1,3.62,2.09L851.81,247a4.21,4.21,0,0,1,0,4.18l-6.44,11.15a4.2,4.2,0,0,1-3.62,2.09H828.87a4.2,4.2,0,0,1-3.62-2.09l-6.43-11.15a4.16,4.16,0,0,1,0-4.18l6.43-11.15A4.17,4.17,0,0,1,828.87,233.74Zm-7.24,34.84-6.44,11.15a4.17,4.17,0,0,1-3.62,2.09H798.7a4.18,4.18,0,0,1-3.62-2.09l-6.44-11.15a4.16,4.16,0,0,1,0-4.18l6.44-11.15a4.2,4.2,0,0,1,3.62-2.09h12.87a4.17,4.17,0,0,1,3.62,2.09l6.44,11.15A4.16,4.16,0,0,1,821.63,268.58Zm-33-39,6.44-11.15a4.17,4.17,0,0,1,3.62-2.09h12.87a4.15,4.15,0,0,1,3.62,2.09l6.44,11.15a4.16,4.16,0,0,1,0,4.18l-6.44,11.15a4.17,4.17,0,0,1-3.62,2.09H798.7a4.2,4.2,0,0,1-3.62-2.09l-6.44-11.15A4.16,4.16,0,0,1,788.64,229.56Zm-30.17,21.6a4.16,4.16,0,0,1,0-4.18l6.43-11.15a4.17,4.17,0,0,1,3.62-2.09H781.4a4.17,4.17,0,0,1,3.62,2.09L791.46,247a4.21,4.21,0,0,1,0,4.18L785,262.31a4.2,4.2,0,0,1-3.62,2.09H768.52a4.2,4.2,0,0,1-3.62-2.09Zm33,34.84-.65,1.12a2.78,2.78,0,0,1-3.8,1l-21.73-12.55a2.78,2.78,0,0,1-1-3.8h0l.64-1.12a4.2,4.2,0,0,1,3.62-2.09H781.4a4.2,4.2,0,0,1,3.62,2.09l6.44,11.15A4.21,4.21,0,0,1,791.46,286Zm30.17,17.42-.64,1.12a2.79,2.79,0,0,1-3.81,1L795.45,293a2.78,2.78,0,0,1-1-3.8l.65-1.12A4.18,4.18,0,0,1,798.7,286h12.87a4.17,4.17,0,0,1,3.62,2.09l6.44,11.15A4.16,4.16,0,0,1,821.63,303.42Zm22.69,4.18-4.5,7.81a2.79,2.79,0,0,1-3.81,1l-10.38-6a2.79,2.79,0,0,1-1-3.81l.64-1.12a4.2,4.2,0,0,1,3.62-2.09h13a2.79,2.79,0,0,1,2.79,2.79A2.71,2.71,0,0,1,844.32,307.6Zm7.49-21.6-6.44,11.15a4.2,4.2,0,0,1-3.62,2.09H828.87a4.2,4.2,0,0,1-3.62-2.09L818.82,286a4.16,4.16,0,0,1,0-4.18l6.43-11.15a4.2,4.2,0,0,1,3.62-2.09h12.88a4.2,4.2,0,0,1,3.62,2.09l6.44,11.15A4.21,4.21,0,0,1,851.81,286Zm22.69-30.66L868,266.61a4.19,4.19,0,0,1-3,2,7.51,7.51,0,0,0-5.32,3.67l-1.87,3.23a2.79,2.79,0,0,1-3.81,1,2.93,2.93,0,0,1-1-1l-4-7a4.16,4.16,0,0,1,0-4.18l6.44-11.15a4.17,4.17,0,0,1,3.62-2.09h13a2.79,2.79,0,0,1,2.42,4.18Z"/><path class="cls-1" d="M962.26,289,900.7,253.46a6.27,6.27,0,0,0-8.56,2.3L856.6,317.31a6.27,6.27,0,0,0,2.29,8.57l61.56,35.54a6.28,6.28,0,0,0,8.57-2.29l35.54-61.56A6.28,6.28,0,0,0,962.26,289Zm-65.35-19.23a40.1,40.1,0,0,1,27.33,0,5,5,0,0,1,.66.31,4.18,4.18,0,0,1,1.53,5.71l-5.8,10a4.17,4.17,0,0,1-3.62,2.09H904.14a4.18,4.18,0,0,1-3.62-2.09l-5.8-10a4,4,0,0,1-.31-.66A4.18,4.18,0,0,1,896.91,269.77Zm5.29,44.07-4.06-2.35L919,301l4.06,2.34Zm17.95-.93-10.45,5.25-4.07-2.34,10.45-5.26Zm-19.06-11,10.45-5.25,4.07,2.35-10.45,5.25Zm-24-16.51-2.37,4.09A39.53,39.53,0,0,1,877.12,285.4Zm-6,15a40.32,40.32,0,0,1,2.06-7.39c.14-.37.29-.74.44-1.1l5.06-8.76c.24-.32.49-.63.73-.94a40.3,40.3,0,0,1,5.38-5.47,4.18,4.18,0,0,1,5.89.5,4.39,4.39,0,0,1,.42.61l5.8,10a4.21,4.21,0,0,1,0,4.18l-6.44,11.15a4.2,4.2,0,0,1-3.62,2.09h-11.6a4.18,4.18,0,0,1-4.18-4.18A4.49,4.49,0,0,1,871.12,300.44Zm19.56,37.16a4.18,4.18,0,0,1-5.89.51,40.08,40.08,0,0,1-13.67-23.67,4.4,4.4,0,0,1-.06-.73,4.18,4.18,0,0,1,4.18-4.18h11.6a4.2,4.2,0,0,1,3.62,2.09l6.44,11.15a4.21,4.21,0,0,1,0,4.18L891.1,337A5,5,0,0,1,890.68,337.6Zm33.56,7.51a40.1,40.1,0,0,1-27.33,0,4,4,0,0,1-.66-.31,4.17,4.17,0,0,1-1.53-5.71l5.8-10a4.18,4.18,0,0,1,3.62-2.09H917a4.17,4.17,0,0,1,3.62,2.09l5.8,10a3.31,3.31,0,0,1,.31.66A4.18,4.18,0,0,1,924.24,345.11ZM944,329.49l2.36-4.09A43.78,43.78,0,0,1,944,329.49Zm6-15.05a40.1,40.1,0,0,1-2.06,7.39c-.14.37-.29.74-.44,1.11l-5.06,8.76-.73.93a40.31,40.31,0,0,1-5.37,5.48,4.18,4.18,0,0,1-5.89-.51,5,5,0,0,1-.43-.6L924.26,327a4.16,4.16,0,0,1,0-4.18l6.43-11.15a4.2,4.2,0,0,1,3.62-2.09h11.6a4.18,4.18,0,0,1,4.18,4.18A4.4,4.4,0,0,1,950,314.44Zm-4.12-9.09h-11.6a4.2,4.2,0,0,1-3.62-2.09l-6.43-11.15a4.16,4.16,0,0,1,0-4.18l5.79-10a4.45,4.45,0,0,1,.43-.61,4.18,4.18,0,0,1,5.89-.5A40.06,40.06,0,0,1,950,300.44a4.49,4.49,0,0,1,.06.73A4.18,4.18,0,0,1,945.91,305.35Z"/><path class="cls-2" d="M813.43,332.5a5.36,5.36,0,0,0-2.52-3.31l-14.31-8.26a1.23,1.23,0,0,0,0-.19L811,329l-34.64-20a23.87,23.87,0,0,1-9.13-9.46,7,7,0,0,1-.6-1.57,5.54,5.54,0,0,0-2.58-3.42,7.33,7.33,0,0,1-1-.68q-1.89-1.56-3.87-3l-.09.14q-2.62-1.91-5.42-3.6a1.22,1.22,0,0,0-1.67.42v0l-1.51,2.6-.12-.14L739,310.16l-1.2,2.08-.17.33-.15.34-.25.71-.22.73-.18.69,0,.27.06.28.12.24.09.1.11.09,3.92,2.26-5.17,9L732,325l-.13-.05-.13,0-.27,0-.27.08-.25.12-.5.51-.52.54-.5.58-.22.3-.19.31-1.21,2.08-.87,1.51.11-.16.13-.15.14-.13.15-.11-3.16,5.47-.23,0,1.64-2.84-8.26,14.31h.2l-2.6,4.5a1.21,1.21,0,0,0,.44,1.66h0a76.08,76.08,0,0,0,10.35,4.74,6.36,6.36,0,0,1,1.09.51,5.35,5.35,0,0,0,4.12.5,7,7,0,0,1,1.7-.27,24,24,0,0,1,12.86,3.2l34.64,20a5.39,5.39,0,0,0,4.12.53,23.48,23.48,0,0,0,14.15-10.92l12.49-21.62A23.5,23.5,0,0,0,813.43,332.5Zm-80.35,21.68a3.45,3.45,0,0,1-6.9,0h0a3.45,3.45,0,1,1,6.9,0Zm6.53-44.8,0-.18,0-.19.07-.19.08-.17,3.86-6.68.1.18Zm8.45,6.33a4.18,4.18,0,1,1,4.18,4.18A4.18,4.18,0,0,1,748.06,315.71Zm8.38,30.5a6.1,6.1,0,1,1,6.1-6.1A6.1,6.1,0,0,1,756.44,346.21Zm4.85-43.59a3.28,3.28,0,1,1,3.27-3.27A3.27,3.27,0,0,1,761.29,302.62Zm14.79,46.85L774,345.32l.93-1.62,2.09,4.16Zm-.36-7.13.93-1.61,4.17,8.3-.93,1.62Zm4.73-.44,2.09,4.15-.93,1.62-2.09-4.15Zm10.69,36.18a4.17,4.17,0,0,1-5.71,1.53l-.84-.48a4.18,4.18,0,0,1,4.18-7.25l.84.49A4.18,4.18,0,0,1,791.14,378.08Zm1.55-6.85a4.18,4.18,0,1,1,4.18-4.18A4.18,4.18,0,0,1,792.69,371.23Zm20-30.56A4.19,4.19,0,0,1,807,342.2l-.84-.49a4.18,4.18,0,0,1,4.18-7.24l.84.49A4.18,4.18,0,0,1,812.74,340.67Z"/><path class="cls-2" d="M872.14,348.19l-.54-.54H827l-.54.54v33.72l.26.27.28.29H871.6l.28-.29.26-.28ZM839,374.29a4.18,4.18,0,1,1-8.36,0v0a4.18,4.18,0,1,1,8.36,0Zm29,0a4.18,4.18,0,1,1-8.36,0v0a4.18,4.18,0,1,1,8.36,0Z"/><path class="cls-2" d="M965.8,380.62H950.47a13.28,13.28,0,0,1-6.15-1.51,11.11,11.11,0,0,0-5.18-1.27H923.83a11.22,11.22,0,0,1-4.09-.78,18.81,18.81,0,1,0-13.81,35c.28.11.56.22.85.31a58,58,0,0,0,18.7,3.1H965.8a4.18,4.18,0,0,0,4.18-4.18V384.81A4.19,4.19,0,0,0,965.8,380.62Zm-44.08,14a8.89,8.89,0,1,1-17.77,0v0a8.89,8.89,0,1,1,17.77,0Zm16.2,3.73a3.76,3.76,0,1,1,3.77-3.76A3.76,3.76,0,0,1,937.92,398.32Zm22.3,0a3.76,3.76,0,1,1,3.76-3.76A3.76,3.76,0,0,1,960.22,398.32Z"/><path class="cls-2" d="M750.81,407,731.5,395.83a2.79,2.79,0,0,1-1-3.81l2.84-4.91.29-.53.26-.55.23-.56.21-.57.18-.59.14-.59.12-.59.08-.6.06-.61,0-.61v-.6l0-.61-.08-.6-.12-.59-.15-.59-.2-.57-.19-.46-.25-.43-.29-.4-.32-.37-.51-.51-.53-.5-.55-.47-.56-.45-.58-.43-.6-.41-.61-.38-.62-.36-4.53-2.52-2.26-1.26-2.23-1.24-8.75-4.86-.22-.1-.23-.06h-.24l-.23.05-.22.08-.2.14-.17.17-.13.19L705.91,369l-.11.27,0,.29,0,.3.07.28.14.26.17.24.22.2.24.17,5.28,3.05.51,1.9-18.12,31.38a1.38,1.38,0,0,1-1.9.51l-7.24-4.18a1.41,1.41,0,0,0-1.91.51l-3,5.16a5.58,5.58,0,0,0,2,7.62l3,1.7a5.57,5.57,0,0,1,2.26,2.47l1.74,3.73a14,14,0,0,0,5.66,6.18l31.51,18.19a4.17,4.17,0,0,0,5.71-1.53l20.21-35A4.17,4.17,0,0,0,750.81,407Zm-40.51-2.31a3.63,3.63,0,0,1-1.32-4.95l7-12.07a3.63,3.63,0,0,1,6.28,3.63l-7,12.07A3.63,3.63,0,0,1,710.3,404.67Zm14.29,32a3.76,3.76,0,1,1,3.77-3.76A3.76,3.76,0,0,1,724.59,436.64Zm11.15-19.31a3.76,3.76,0,1,1,3.77-3.76A3.76,3.76,0,0,1,735.74,417.33Z"/><path class="cls-2" d="M745.15,475.08l-.48-3.13a4.28,4.28,0,0,0-2.11-3.08L670.05,427l-.49-.24-.53-.16-.55-.09h-.56l-.56.06-.56.15-.54.21-.52.29-.48.36-.44.41-.39.47-.34.51L633.4,482.11a1.4,1.4,0,0,0,.51,1.9l21.85,12.61a1.4,1.4,0,0,1,.51,1.91l-12.61,21.84a1.39,1.39,0,0,0,.51,1.91l52.06,30.06.55.27.57.21.59.14.6.06h.59l.58-.08.55-.16.52-.22.48-.29.43-.35.37-.4.31-.46,42.25-73.17A4.35,4.35,0,0,0,745.15,475.08Zm-54.4-22.62a4.18,4.18,0,1,1-4.18,4.18A4.18,4.18,0,0,1,690.75,452.46Zm-17.89-17.79a7,7,0,1,1-7,7A7,7,0,0,1,672.86,434.67Zm8.31,81.5,3.64,2.1-9.36,4.7-3.64-2.1Zm-26.64-35.82a7,7,0,1,1,7-7A7,7,0,0,1,654.53,480.35Zm7.47,43.1a7,7,0,1,1,7-7A7,7,0,0,1,662,523.45Zm3-29.39a4.18,4.18,0,1,1,4.18,4.18A4.19,4.19,0,0,1,665,494.06Zm4.2,35.38,18.71-9.4,3.64,2.1-18.71,9.41Zm10.35,6-3.64-2.1,9.35-4.7,3.64,2.1Zm18,8.52a7,7,0,1,1,7-7A7,7,0,0,1,697.48,543.94Zm9.09-24.1a4.18,4.18,0,1,1,4.18-4.18A4.18,4.18,0,0,1,706.57,519.84Zm-7.91-15.57a18.12,18.12,0,0,1-18.12-18.12v0a18.12,18.12,0,1,1,18.12,18.15Zm29.51-21.85a4.18,4.18,0,1,1,4.18-4.18A4.18,4.18,0,0,1,728.17,482.42Z"/><path class="cls-2" d="M669.79,553.18l-44.06-25.44a2.79,2.79,0,0,0-3.81,1l-11.15,19.31a2.79,2.79,0,0,0,1,3.81l1.74,1a11.15,11.15,0,0,1,5.19,6.77l.31,1.15a41.74,41.74,0,0,1,.22,20.77,18.82,18.82,0,1,0,37.08,3.85,11.13,11.13,0,0,1,1.49-5.94l13-22.5A2.78,2.78,0,0,0,669.79,553.18Zm-45.44-8h0a3.77,3.77,0,0,1,7.53,0h0a3.77,3.77,0,1,1-7.53,0Zm21.85,40.85a8.67,8.67,0,1,1-17.34,0h0a8.67,8.67,0,0,1,17.34,0Zm6.66-22.8a3.76,3.76,0,1,1,3.76-3.76A3.76,3.76,0,0,1,652.86,563.26Z"/><path class="cls-2" d="M641.59,627.18,620.7,615.12a11.2,11.2,0,0,1-3.88-3.74l-.44-.69-.44-.64-.43-.61-.44-.57a31,31,0,0,0-8.74-7.72,6.16,6.16,0,0,1-2-2,.55.55,0,0,0-.77-.17.56.56,0,0,0-.17.77,7.37,7.37,0,0,0,2.48,2.36,1.05,1.05,0,0,1,.4.41,1.11,1.11,0,0,1-.4,1.52L604,605.15l-1.18.68a1.4,1.4,0,0,1-1.4,0l-2.5-1.45a1.4,1.4,0,0,1-.51-1.9l3.51-6.07.1-.21.06-.23,0-.23v-.24l-.06-.23-.09-.21-.13-.2-.16-.17a5.26,5.26,0,0,0-1-.72l-11.13-6.43-.17-.1-.79-.45-.46-.22-.5-.14-.51-.06-.5,0-.49.12-.46.19-.41.27-.35.34-.28.4L566,620.06l-.57,1.05-.55,1.09-.51,1.11-.47,1.15-.43,1.17-.39,1.19-.35,1.22-.31,1.22-.7,3-.15.68-1.26,5.44a11.69,11.69,0,0,0-.19,4.29,4.18,4.18,0,0,0,2.05,3l51.5,29.74a5.58,5.58,0,0,0,7.62-2l22.3-38.63A5.58,5.58,0,0,0,641.59,627.18ZM614.2,632a2.37,2.37,0,0,1,4.74,0h0a2.37,2.37,0,1,1-4.74,0Zm-13.68-21.89h6.76l3.38,5.85-3.38,5.86h-6.76L597.14,616ZM579.8,626.73h-6.75l-3.38-5.85,3.38-5.86h6.75l3.38,5.86ZM587.16,606a3.76,3.76,0,0,1-3.76-3.76h0a3.77,3.77,0,0,1,7.53,0h0A3.76,3.76,0,0,1,587.16,606Zm6.4,34.29-3.38-5.86,3.38-5.85h6.76l3.38,5.85-3.38,5.86Zm9.49,11h0a2.37,2.37,0,0,1,4.74,0h0a2.37,2.37,0,0,1-4.74,0Zm12.86,12.49a2.79,2.79,0,0,1-3.81,1l-3.62-2.09a2.79,2.79,0,0,1-1-3.81l16.72-29a2.79,2.79,0,0,1,3.81-1l3.62,2.09a2.79,2.79,0,0,1,1,3.81Zm10-2a2.37,2.37,0,0,1-4.74,0h0a2.37,2.37,0,0,1,4.74,0ZM637,642.5a2.37,2.37,0,0,1-4.74,0h0a2.37,2.37,0,0,1,4.74,0Z"/><path class="cls-1" d="M597.56,681.39l-39.35-22.72a8.36,8.36,0,0,0-11.42,3.06l-.23.4-2.19,3.79-62.76,108.7-2.19,3.79-.23.4a8.38,8.38,0,0,0,3.06,11.42L521.6,813A8.37,8.37,0,0,0,533,809.89l.31-.55,2-3.5,62.93-109,2-3.5.31-.54A8.36,8.36,0,0,0,597.56,681.39Zm-94.29,117.9-2.35-4.67L502,792.8l2.35,4.67Zm4.29,1.33-4.7-9.36,1.05-1.82,4.7,9.36Zm1.94-3.36-2.35-4.68,1.05-1.82,2.35,4.68Zm65.92-66.38-16,27.64L551.1,773l-16,27.64a1.4,1.4,0,0,1-1.9.51l-46.59-26.9a1.39,1.39,0,0,1-.51-1.91l40.28-69.76a1.39,1.39,0,0,1,1.9-.51l.3.17,38.62,22.3,7.67,4.43A1.39,1.39,0,0,1,575.42,730.88Zm10.33-27.35a3.49,3.49,0,0,1-4.76,1.28h0l-5.92-3.42-2.23-1.29a2.79,2.79,0,0,0-3.81,1l-2.09,3.62a1.38,1.38,0,0,1-1.9.51L545.72,694.1a1.4,1.4,0,0,1-.51-1.9l10.46-18.1a1.38,1.38,0,0,1,1.9-.51l19.31,11.15a1.38,1.38,0,0,1,.51,1.9l-2.09,3.62a2.79,2.79,0,0,0,1,3.81l2.24,1.29,5.91,3.41A3.49,3.49,0,0,1,585.75,703.53Z"/><path class="cls-2" d="M464.09,942.79a14.11,14.11,0,0,0,13.74-14.46,1.09,1.09,0,0,0,0-.18l-1.06-27.84a20.45,20.45,0,0,0-21.22-19.65c-.34,0-.67,0-1,.06l-16.9,1.48a13.76,13.76,0,0,0-9.34,4.86l-13.7,16.33a1.21,1.21,0,0,0,.15,1.71l9.74,8.18-18.63,22.2L416,944Zm5-9.63-6.54,2.39-5.34-4.48,1.21-6.86,6.55-2.38,5.33,4.48Zm.53-17.13a2.2,2.2,0,1,1-2.19,2.2A2.2,2.2,0,0,1,469.59,916ZM445.5,892a2.79,2.79,0,0,1,3.93-.34l2.28,1.91a.72.72,0,0,0,.77.09,8.24,8.24,0,0,1,1.37-.57l-.16-.13a8.49,8.49,0,0,1,3.81-.34l-.13.16a8.93,8.93,0,0,1,1.45.32.69.69,0,0,0,.74-.22l1.91-2.27a2.79,2.79,0,1,1,4.27,3.58l-1.91,2.28a.68.68,0,0,0-.08.76,9.27,9.27,0,0,1,.56,1.38l.13-.16a8.49,8.49,0,0,1,.34,3.81l-.16-.13a8,8,0,0,1-.32,1.45.69.69,0,0,0,.22.74l2.27,1.91a2.79,2.79,0,1,1-3.58,4.27l-2.27-1.91a.7.7,0,0,0-.77-.08,9.27,9.27,0,0,1-1.38.56l.17.13a8.54,8.54,0,0,1-3.82.34l.13-.16a9.17,9.17,0,0,1-1.45-.32.69.69,0,0,0-.74.22l-1.91,2.27A2.79,2.79,0,1,1,446.9,908l1.91-2.28a.7.7,0,0,0,.09-.76,8.35,8.35,0,0,1-.57-1.38l-.13.17a8.54,8.54,0,0,1-.34-3.82l.16.13a9.17,9.17,0,0,1,.32-1.45.69.69,0,0,0-.22-.74l-2.27-1.91A2.79,2.79,0,0,1,445.5,892Zm-10.37-1.41a2.2,2.2,0,1,1-2.2,2.19A2.2,2.2,0,0,1,435.13,890.6Zm-15.17,40a2.2,2.2,0,1,1-2.2,2.19A2.19,2.19,0,0,1,420,930.57Z"/><path class="cls-2" d="M522.47,842.23l-3.31-1.91a1.54,1.54,0,0,1-.66-1.88,33.29,33.29,0,0,1,5.23-9.08,2.77,2.77,0,0,0,.6-2,5.29,5.29,0,0,0-2.58-3.9l-2.92-1.68-.94-.54-.29-.14-.39-.09h-.38l-.37.07-.31.15-.12.07a14.42,14.42,0,0,1-22.28-12.86v-.14l0-.34-.12-.36-.2-.32-.28-.3-.26-.18-.94-.54-22.68-13.09a5.52,5.52,0,0,0-4.26-.55,23.72,23.72,0,0,0-14.26,11l-12.48,21.63a23.69,23.69,0,0,0-2.4,17.85,5.57,5.57,0,0,0,2.6,3.42l52.5,30.3a5.23,5.23,0,0,0,4.66.29,2.79,2.79,0,0,0,1.44-1.52,33,33,0,0,1,5.24-9.07,1.53,1.53,0,0,1,2-.36l3.31,1.91h0l.49.28a1.38,1.38,0,0,0,1.9-.51l1.88-3.25,9.76-16.91,1.88-3.25a1.39,1.39,0,0,0-.51-1.91l-.49-.28Zm-79.19-3.56a2.44,2.44,0,0,1-3.33.9l-.84-.49a2.44,2.44,0,0,1,2.44-4.23l.84.49A2.43,2.43,0,0,1,443.28,838.67Zm16.54-40.34a2.43,2.43,0,0,1,3.33-.89l.84.49a2.43,2.43,0,1,1-2.43,4.22l-.85-.49A2.43,2.43,0,0,1,459.82,798.33Zm-6.4,10.17a3.35,3.35,0,0,1,6.69,0h0a3.35,3.35,0,0,1-6.69,0Zm27.28,51.77a2.44,2.44,0,0,1-3.33.9l-.85-.49a2.44,2.44,0,0,1,2.44-4.22l.85.48A2.45,2.45,0,0,1,480.7,860.27Zm3.62-22.86a15.76,15.76,0,0,1-21.51,5.78l-.85-.49a15.75,15.75,0,0,1,15.75-27.28l.85.49A15.76,15.76,0,0,1,484.32,837.41Zm3-2a5.72,5.72,0,1,1,5.71,5.71A5.72,5.72,0,0,1,487.3,835.44Zm6.19,36.69a3.35,3.35,0,1,1,3.34-3.35A3.35,3.35,0,0,1,493.49,872.13Zm3.72-9.67a2.63,2.63,0,1,1,2.63-2.63A2.63,2.63,0,0,1,497.21,862.46Zm18.86-30.34a2.44,2.44,0,1,1,2.43-2.44A2.44,2.44,0,0,1,516.07,832.12Z"/><path class="cls-2" d="M527.82,983.51l-51.51-29.74a4.18,4.18,0,0,0-3.65-.25,11.85,11.85,0,0,0-3.62,2.3L465,959.64l-.51.47-2.26,2.12-.91.87-.88.91-.83.94-.8,1-.76,1-.71,1-.67,1-.62,1-18.56,32.15-.2.44-.12.47,0,.49.06.5.14.48.23.45.3.41.37.36.43.29.78.46.17.1,11.14,6.43a5.55,5.55,0,0,0,2.92.74c.81,0,1.62-.08,2.42-.17a6.11,6.11,0,0,1,3.72.75,30.89,30.89,0,0,0,14.1,4,11.25,11.25,0,0,1,5.18,1.49l20.88,12.06a5.58,5.58,0,0,0,7.62-2l22.3-38.62A5.58,5.58,0,0,0,527.82,983.51Zm-27.39,4.87a2.37,2.37,0,1,1,4.74,0h0a2.37,2.37,0,1,1-4.74,0Zm-45.5,8.74a3.77,3.77,0,1,1-7.53,0h0a3.77,3.77,0,1,1,7.53,0Zm3.6-12.76-3.38-5.85,3.38-5.86h6.76l3.38,5.86-3.38,5.85Zm16.27,26.24H468l-3.38-5.86,3.38-5.85h6.76l3.38,5.85Zm5.76-15.27-3.38-5.85,3.38-5.86h6.75l3.38,5.86-3.38,5.85Zm8.72,12.36h0a2.37,2.37,0,0,1,4.74,0h0a2.37,2.37,0,0,1-4.74,0Zm12.86,12.49a2.78,2.78,0,0,1-3.81,1l-3.62-2.09a2.79,2.79,0,0,1-1-3.81l16.72-29a2.78,2.78,0,0,1,3.81-1l3.62,2.09a2.77,2.77,0,0,1,1,3.8Zm10-2a2.37,2.37,0,1,1-4.74,0h0a2.37,2.37,0,1,1,4.74,0Zm11.15-19.31a2.37,2.37,0,0,1-4.74,0h0a2.37,2.37,0,0,1,4.74,0Z"/><path class="cls-1" d="M520,891l-5.46-2a6.57,6.57,0,0,0-8.79,6.16v1.05a4.6,4.6,0,0,1-1.23,3.13,5.61,5.61,0,0,0-1.48,3.8v5.34l.62.63h1.07a2.09,2.09,0,1,1,1.07,4,2.15,2.15,0,0,1-1.07,0h-1.07l-.62.63v8.65a4.46,4.46,0,0,0,1.92,3.67l4.33,3a7,7,0,0,1,3,5.74v17a1.4,1.4,0,0,0,1.4,1.4h0a59.38,59.38,0,0,0,6.8-.57V891.74Zm-7.7,6.4a2.23,2.23,0,0,1-2.23-2.23h0a2.23,2.23,0,1,1,2.23,2.23Z"/><path class="cls-2" d="M589.93,906.88H562.07l-.48,0-.47-.06-.48-.1-.47-.14-.45-.1-1.26-.22-.14-.36-.19-.35-.24-.3-.28-.28-.48-.45-.47-.5-.22-.29-.22-.35L556,903l-.17-.45-.14-.49-.1-.52-.06-.53,0-.55v-4.51l0-.55.06-.54.1-.51.14-.49.17-.45.19-.4.22-.35.22-.29.47-.5.48-.45.28-.28.23-.3.2-.35.13-.36,1.27-.21.45-.11.2-.06.44-.11.52-.08.59,0h2.43l2,0h22.16a2.75,2.75,0,0,0,2.76-2.76V874.82a2.76,2.76,0,0,0-2.76-2.76H545.21a4.13,4.13,0,0,0-2.31.7l-5.45,3.63a4.17,4.17,0,0,0-1.85,3.46v47.09a4.17,4.17,0,0,0,1.85,3.46L542.9,934a4.13,4.13,0,0,0,2.31.7h43.33A2.76,2.76,0,0,0,591.3,932V927.7l0-1.17V908.27A1.4,1.4,0,0,0,589.93,906.88Zm-15-26.14a2.44,2.44,0,1,1,4.88,0h0a2.44,2.44,0,0,1-4.88,0Zm4.72,46.35a2.44,2.44,0,1,1-4.88,0h0a2.44,2.44,0,1,1,4.88,0Z"/><path class="cls-2" d="M657.93,872.64H610.55a4.18,4.18,0,0,0-4.18,4.18v30.66a2.78,2.78,0,0,0,2.78,2.79h25a7,7,0,0,0,4.93-2l21.82-21.82a4.2,4.2,0,0,0,1.23-3v-6.63A4.19,4.19,0,0,0,657.93,872.64Zm-9.68,20.5-7.55,7.54a1.4,1.4,0,0,1-2.38-1v-7.55a1.4,1.4,0,0,1,1.4-1.39h7.54a1.39,1.39,0,0,1,1,2.38Z"/><path class="cls-2" d="M630.27,985.7l-33.79-19.51a4.2,4.2,0,0,0-5.72,1.53L579.28,987.6a1.38,1.38,0,0,1-1.9.51l-14.48-8.36a7,7,0,0,0-9.52,2.55l-59.72,103.44a7,7,0,0,0,2.55,9.52l16.9,9.76a4.18,4.18,0,0,0,5.71-1.53l6.58-11.41a7,7,0,0,1,4.24-3.25l33.52-9a14,14,0,0,0,8.46-6.49L590,1041.54a27.87,27.87,0,0,1,13.07-11.65,5,5,0,0,0,2.33-2.05,32.07,32.07,0,0,1,11.28-11.28,4.31,4.31,0,0,0,1.49-1.51l13.64-23.64A4.18,4.18,0,0,0,630.27,985.7ZM515.21,1088.37a3.76,3.76,0,1,1-3.76-3.76,3.76,3.76,0,0,1,3.76,3.76Zm7.39-15.55a3.76,3.76,0,1,1,3.76-3.76A3.76,3.76,0,0,1,522.6,1072.82Zm33.61-81a3.77,3.77,0,0,1,7.53,0h0a3.77,3.77,0,0,1-7.53,0Zm-6.48,15.31a2.44,2.44,0,1,1-2.44,2.43A2.43,2.43,0,0,1,549.73,1007.09Zm-15.51,33.13a3.76,3.76,0,1,1,3.76-3.76A3.76,3.76,0,0,1,534.22,1040.22ZM565.55,1071a2.44,2.44,0,1,1,2.43-2.44A2.44,2.44,0,0,1,565.55,1071Zm7.15-26.47a16,16,0,0,1-31-3.4,2.69,2.69,0,0,1,.19-1.43,8.43,8.43,0,0,0,.51-4.68,2.82,2.82,0,0,1,.12-1.44,16,16,0,0,1,30.13,11Zm16.89-13.38a2.44,2.44,0,1,1-4.88,0h0a2.44,2.44,0,1,1,4.88,0Zm10.92-48.68a3.76,3.76,0,1,1-7.52,0h0a3.76,3.76,0,1,1,7.52,0Zm19.31,11.15a3.76,3.76,0,1,1-7.52,0h0a3.76,3.76,0,0,1,7.52,0Z"/><path class="cls-2" d="M682.39,985.87l-2.71-4.69a1.4,1.4,0,0,0-1.88-.47l-.34.2-.22.08H677l-.11,0-.11-.05-.08-.07-.07-.09.91-.53L678,980a1.4,1.4,0,0,0,.51-1.9L662,949.59a1.39,1.39,0,0,0-1.9-.52l-.43.25-.92.53h0l0-.11,0-.11v-.12l0-.11.12-.2.18-.15.34-.2a1.4,1.4,0,0,0,.54-1.86l-2.71-4.7a2.79,2.79,0,0,0-3.77-.95l-20,11.51a7,7,0,0,0-3.25,4.24l-1.57,5.84a7,7,0,0,0,.7,5.29L646,997a6.94,6.94,0,0,0,4.23,3.24l5.84,1.57a6.94,6.94,0,0,0,5.29-.7l20-11.52A2.78,2.78,0,0,0,682.39,985.87Zm-8.74-3,0,.11-.12.2-.18.15-7.47,4.31a2.79,2.79,0,0,1-3.81-1l-6.63-11.5a5.16,5.16,0,0,1-2.34-4l-6.64-11.5a2.78,2.78,0,0,1,1-3.8l7.47-4.32.22-.08h.23l.12,0,.1,0,.09.08.07.09h0l-1,.57-6.59,3.8A2.79,2.79,0,0,0,647,959.3L653.69,971l.32-.18A4.19,4.19,0,1,1,658.2,975a4.28,4.28,0,0,1-2.1-.56l-.32.18,6.74,11.68a2.8,2.8,0,0,0,3.51.59l6.59-3.8,1-.57,0,.1,0,.12Z"/><path class="cls-1" d="M716.52,843.1a18.12,18.12,0,1,1,18.13,18.13,18.11,18.11,0,0,1-18.13-18.13v0Zm21.8-6.11,5.73,11.39,2.46-4.26-5.73-11.39Zm-10.72-3.31,11.61,23.09,2.46-4.26-11.61-23.09Zm.89,19.78L731,849.2l-5.73-11.39-2.46,4.26Z"/><path class="cls-2" d="M823.48,904.13l-.06-.23-.09-.22-2.44-4.38-2.43-4.37-1.24-2.23L816,890.44l-2.52-4.53-.36-.62-.39-.61-.41-.6-.43-.58-.45-.56-.47-.55-.49-.53-.51-.51-.38-.32-.4-.29-.43-.24-.45-.2-.55-.19-.56-.15-.57-.12-.58-.08-.59,0-.6,0-.6,0-.61,0-.61.09-.62.11-.6.15-.6.17-.59.21-.58.24-.56.27-.55.3L794,884.12a2.78,2.78,0,0,1-3.81-1L779,863.79a4.18,4.18,0,0,0-5.71-1.53l-35,20.21a4.18,4.18,0,0,0-1.53,5.71L755,919.69a13.93,13.93,0,0,0,6.18,5.66l3.73,1.74a5.6,5.6,0,0,1,2.47,2.27l1.71,2.95a5.58,5.58,0,0,0,7.61,2l5.16-3a1.38,1.38,0,0,0,.51-1.9l-4.18-7.25a1.39,1.39,0,0,1,.51-1.9l31.38-18.12,1.91.51,3,5.28.17.24.21.22.23.17.27.14.28.07.3,0,.28-.05.28-.11,5.82-3.37.2-.13.17-.17.13-.2.09-.22,0-.23Zm-70.34-10.36a3.76,3.76,0,1,1,3.77-3.76A3.76,3.76,0,0,1,753.14,893.77Zm19.32-11.15a3.76,3.76,0,1,1,3.76-3.76A3.76,3.76,0,0,1,772.46,882.62Zm25.91,16-12.07,7a3.62,3.62,0,0,1-3.62-6.28l12.07-7a3.62,3.62,0,0,1,3.62,6.28Z"/><path class="cls-2" d="M889.35,883.87l-5.93-10.28-10.59-18.34a5.58,5.58,0,0,0-7.62-2l-26.55,15.33a5.57,5.57,0,0,0-2,7.61l10.59,18.35,5.93,10.27a5.6,5.6,0,0,0,5.74,2.72,5.52,5.52,0,0,0,1.88-.68l26.55-15.33a5.55,5.55,0,0,0,2-7.61Zm-18.25,3a4.18,4.18,0,0,1-8.36,0v0a4.18,4.18,0,1,1,8.36,0Z"/><path class="cls-1" d="M962.49,834.11a1.4,1.4,0,0,0-.1-.16l-13.8-24.2a20.63,20.63,0,0,0-28.14-7.7c-.29.17-.58.34-.86.52l-14.31,9.12a14,14,0,0,0-6.12,8.74l-4.61,20.8,0,.29,0,.3.1.29.16.27a1.38,1.38,0,0,0,.8.51l12.25,2.72-6.17,27.81-.11.49,13.2,2.93,42.12-23.31A14.29,14.29,0,0,0,962.49,834.11Zm-12.13-7.51a2.44,2.44,0,1,1-2.44,2.44A2.44,2.44,0,0,1,950.36,826.6Zm-42.31-1.77a2.44,2.44,0,1,1,2.44-2.44A2.44,2.44,0,0,1,908.05,824.83Zm5,42.46a2.44,2.44,0,1,1,2.44-2.44A2.44,2.44,0,0,1,913.05,867.29Zm17.62-30.88A16.45,16.45,0,1,1,947.12,820,16.44,16.44,0,0,1,930.67,836.41ZM952,847.47l-6.6-1.46-2-6.44,4.56-5,6.6,1.47,2,6.44Z"/><path class="cls-2" d="M794.74,767.75h0l-26.55-15.33a1.38,1.38,0,0,0-1.9.51L737.67,802.5l-1.3,2.24-1.79,3.1a1.39,1.39,0,0,0,.51,1.91l26.55,15.33a1.4,1.4,0,0,0,1.91-.51l1.79-3.1,1.29-2.25,28.62-49.57A1.38,1.38,0,0,0,794.74,767.75Zm-17.55,22-9.69,16.77a4.17,4.17,0,0,1-5.71,1.53l-12.07-7a4.19,4.19,0,0,1-1.53-5.72l9.68-16.77a4.19,4.19,0,0,1,5.72-1.53l12.07,7A4.18,4.18,0,0,1,777.19,789.8Zm2.19-23.73a2.37,2.37,0,1,1,2.37-2.37A2.37,2.37,0,0,1,779.38,766.07Z"/><path class="cls-2" d="M825.05,711.21l-1.57-5.85a7,7,0,0,0-3.25-4.23l-20-11.52a2.78,2.78,0,0,0-3.77,1l-2.71,4.69a1.4,1.4,0,0,0,.54,1.86l.34.2.18.15.12.2,0,.11v.12l0,.11,0,.1-.92-.53-.43-.25a1.39,1.39,0,0,0-1.9.52l-16.45,28.48a1.4,1.4,0,0,0,.51,1.9l.43.25.92.53h0l-.07.09-.09.08-.11,0-.11,0h-.23l-.22-.08-.35-.2a1.41,1.41,0,0,0-1.88.47l-2.71,4.69a2.8,2.8,0,0,0,1.06,3.75l20,11.52a7,7,0,0,0,5.29.69l5.84-1.56a7,7,0,0,0,4.24-3.25l16.62-28.8A7,7,0,0,0,825.05,711.21Zm-17.74-3.38-6.64,11.49a5.15,5.15,0,0,1-2.33,4l-6.64,11.5a2.78,2.78,0,0,1-3.81,1l-7.47-4.31-.18-.15-.12-.2,0-.11v-.23l0-.11h0l1,.57,6.59,3.8a2.78,2.78,0,0,0,3.5-.59L798,722.86l-.33-.18a4.17,4.17,0,1,1,2.1-3.62l.32.18,6.74-11.68a2.79,2.79,0,0,0-1.24-3.33l-6.59-3.8-1-.57.07-.08.09-.07.11-.06.11,0h.23l.22.08,7.47,4.31A2.79,2.79,0,0,1,807.31,707.83Z"/><path class="cls-2" d="M859.16,734.94,857,727a6.1,6.1,0,0,0-2.85-3.72l-8.47-4.89a5,5,0,0,0-6.85,1.84L820,752.78a5,5,0,0,0,1.84,6.86l8.46,4.89a6.17,6.17,0,0,0,4.66.61l8-2.14a6.16,6.16,0,0,0,3.73-2.86l11.86-20.54A6.17,6.17,0,0,0,859.16,734.94Zm-13.95,8.26a4.18,4.18,0,1,1-8.36,0v0a4.18,4.18,0,1,1,8.36,0Z"/><path class="cls-2" d="M895.93,762.73h-1.56v-.12l0-.1.07-.1.08-.08.2-.12.24,0h.39a1.4,1.4,0,0,0,1.4-1.34V755.4a2.79,2.79,0,0,0-2.79-2.71H871a6.94,6.94,0,0,0-4.92,2L861.77,759a6.94,6.94,0,0,0-2,4.92v33.25a7,7,0,0,0,2,4.93l4.28,4.28a6.94,6.94,0,0,0,4.92,2h23a2.79,2.79,0,0,0,2.79-2.71V800.3a1.4,1.4,0,0,0-1.4-1.34H895l-.24,0-.2-.12-.08-.08-.07-.1,0-.1v-.11h1.56a1.4,1.4,0,0,0,1.39-1.4V764.12A1.39,1.39,0,0,0,895.93,762.73Zm-5.08,35.79,0,.1-.07.1-.08.08-.2.12-.23,0h-8.62a2.79,2.79,0,0,1-2.79-2.79V782.89a5.17,5.17,0,0,1,0-4.66V765a2.79,2.79,0,0,1,2.79-2.79h8.62l.23,0,.2.12.08.08.07.1,0,.1,0,.12h-8.74a2.79,2.79,0,0,0-2.74,2.26v13.49h.37a4.18,4.18,0,1,1,1.53,5.71,4.31,4.31,0,0,1-1.53-1.53h-.37v13.48a2.79,2.79,0,0,0,2.74,2.27h8.74Z"/><path class="cls-2" d="M860.43,660.84l-9.74-36.35a5,5,0,0,0-6.15-3.55l-9.44,2.53a6.11,6.11,0,0,0-3.72,2.86l-18.91,32.75a6.17,6.17,0,0,0-.61,4.66l2.53,9.44a5,5,0,0,0,6.14,3.54L856.88,667A5,5,0,0,0,860.43,660.84ZM828,662a4.18,4.18,0,1,1-8.36,0v0a4.18,4.18,0,1,1,8.36,0Zm15.77-27.31a4.18,4.18,0,1,1-8.36,0v0a4.18,4.18,0,0,1,8.36,0Z"/><path class="cls-1" d="M965.88,749h-6v22.58a1.39,1.39,0,0,1-1.39,1.39H918.91a1.39,1.39,0,0,1-1.39-1.39V749h-6a4.18,4.18,0,0,0-4.18,4.18v22.3a8.36,8.36,0,0,0,8.36,8.36h46a8.36,8.36,0,0,0,8.36-8.36v-22.3A4.18,4.18,0,0,0,965.88,749ZM938.7,780.7a2.44,2.44,0,1,1,2.44-2.43A2.43,2.43,0,0,1,938.7,780.7Z"/><path class="cls-1" d="M954.34,555.42H883a4.18,4.18,0,0,0-4.18,4.18V716.81A4.19,4.19,0,0,0,883,721h71.33a4.19,4.19,0,0,0,4.18-4.19h0V559.6A4.18,4.18,0,0,0,954.34,555.42ZM918.6,656.05l-15.78-10.37V638.1l15.78,10.37Zm15.78-3.6-31.56-20.74v-7.58l31.56,20.74Zm0-14L918.6,628.11v-7.58l15.78,10.37Z"/><path class="cls-1" d="M969.62,548.69l-.13-.6-.22-.58L969,547l-.38-.52-.46-.48-.53-.42-.58-.38-.64-.31-.68-.25-.71-.18-.73-.11-.74,0H880.29a30.06,30.06,0,0,0-6.62.74l-.55.14-.55.18-.53.21-.51.24-.5.27-.48.31-.46.33-.44.37-.4.4-.37.43-.34.46-.29.48-.24.51-.18.54-.11.55,0,.56V725.43l0,.51.1.51.15.49.21.47.24.46.29.43.34.43.38.41.43.39.47.37.51.35.53.3.56.27.57.24.58.19.6.16a30.06,30.06,0,0,0,6.62.74h83.22l.74,0L965,732l.71-.18.68-.25.64-.31.58-.38.53-.42.46-.48.38-.52.31-.55.22-.58.13-.6,0-.6V549.29ZM954.34,723.78H883a7,7,0,0,1-7-7V559.6a7,7,0,0,1,7-7h71.33a7,7,0,0,1,7,7V716.81A7,7,0,0,1,954.34,723.78Zm9.06,4.53a2.44,2.44,0,1,1,2.44-2.44A2.44,2.44,0,0,1,963.4,728.31Zm0-175.33a2.44,2.44,0,1,1,2.44-2.43A2.43,2.43,0,0,1,963.4,553Z"/><path class="cls-2" d="M776.32,512h-25a7,7,0,0,0-4.93,2l-21.82,21.83a4.17,4.17,0,0,0-1.22,3v6.63a4.18,4.18,0,0,0,4.18,4.18h47.38a4.18,4.18,0,0,0,4.18-4.18V514.79A2.78,2.78,0,0,0,776.32,512Zm-29.17,18.12a1.4,1.4,0,0,1-1.39,1.4h-7.55a1.4,1.4,0,0,1-1.39-1.4,1.38,1.38,0,0,1,.4-1l7.55-7.55a1.4,1.4,0,0,1,2.38,1Z"/><path class="cls-2" d="M849.42,503h-9.77a6.14,6.14,0,0,0-4.34,1.8l-26.74,26.74a6.13,6.13,0,0,0-1.79,4.34v9.77a5,5,0,0,0,5,5h37.63a5,5,0,0,0,5-5V508A5,5,0,0,0,849.42,503Zm-26.48,34.3a4.18,4.18,0,1,1-8.36,0v0a4.18,4.18,0,1,1,8.36,0Zm22.3-22.3a4.18,4.18,0,1,1-8.36,0v0a4.18,4.18,0,0,1,8.36,0Z"/><path class="cls-1" d="M881.27,480a18.12,18.12,0,0,1,36.24,0v0a18.12,18.12,0,0,1-36.24,0Zm21.81-6.11,5.72,11.4,2.46-4.26-5.72-11.4Zm-10.72-3.3L904,493.67l2.46-4.27-11.6-23.09Zm.88,19.78,2.46-4.26L890,474.7,887.52,479Z"/><path class="cls-2" d="M968.93,519.36H955.69a11.15,11.15,0,0,1-11.15-11.15V456.64a11.15,11.15,0,0,1,11.15-11.15h13.24a3.49,3.49,0,0,0,0-7H900.64a3.49,3.49,0,1,0,0,7h13.24A11.15,11.15,0,0,1,925,456.64v51.57a11.15,11.15,0,0,1-11.15,11.15H900.64a3.48,3.48,0,1,0,0,7h68.3a3.48,3.48,0,0,0,0-7ZM967.61,442a1.32,1.32,0,1,1,2.64,0h0a1.32,1.32,0,0,1-2.64,0ZM902,442a1.33,1.33,0,0,1-2.65,0h0a1.33,1.33,0,1,1,2.65,0Zm0,80.84a1.33,1.33,0,1,1-2.65,0h0a1.33,1.33,0,1,1,2.65,0ZM934.78,445a1.68,1.68,0,1,1-1.67,1.67A1.68,1.68,0,0,1,934.78,445Zm2.79,66a2.79,2.79,0,1,1-5.57,0V497.54a2.79,2.79,0,0,1,5.57,0Zm-4.46-20.41a1.68,1.68,0,1,1,1.67,1.67A1.68,1.68,0,0,1,933.11,490.58Zm4.46-7a2.79,2.79,0,0,1-5.57,0V453.85a2.79,2.79,0,1,1,5.57,0Zm32.68,39.24a1.32,1.32,0,1,1-2.64,0h0a1.32,1.32,0,1,1,2.64,0Z"/><path class="cls-2" d="M873.92,490.75a1.51,1.51,0,0,0,1.49-1.53,1.56,1.56,0,0,0-.42-1.06,8.57,8.57,0,0,1-2.27-5.84v-13.9a8.4,8.4,0,0,0-3-6.42,4.62,4.62,0,0,1-1.65-3.56V428.06a4.62,4.62,0,0,1,1.65-3.57,8.39,8.39,0,0,0,3-6.42v-13.9a8.57,8.57,0,0,1,2.27-5.84,1.56,1.56,0,0,0,0-2.16,1.45,1.45,0,0,0-1-.43H865a1.2,1.2,0,0,0-1.19-1.22H835.26a1.2,1.2,0,0,0-1.19,1.22h-8.92a1.2,1.2,0,0,0-1.19-1.22H784.72a1.2,1.2,0,0,0-1.18,1.22h-8.92a3,3,0,0,0-3,3.07v9.07a4.6,4.6,0,0,1-2.22,4l-11.9,7.08a9.28,9.28,0,0,0-4.45,8v14.15a9.25,9.25,0,0,0,4.45,8l11.9,7.08a4.61,4.61,0,0,1,2.22,4v27.61a3,3,0,0,0,3,3.06h-3v3.07a3,3,0,0,0,3,3.06h98.1a3,3,0,0,0,3-3.06v-3.07Zm-23.5-84.28a3,3,0,0,1,3-3.07h12.79a3,3,0,0,1,3,3.07v9.91a3,3,0,0,1-3,3.06,2.91,2.91,0,0,1-1.49-.41l-12-7.17a4.61,4.61,0,0,1-2.23-4Zm-37.16,0a3,3,0,0,1,3-3.07H843a3,3,0,0,1,3,3.07v1.41a4.61,4.61,0,0,1-2.23,4l-11.89,7.08a4.35,4.35,0,0,1-4.46,0l-11.89-7.08a4.61,4.61,0,0,1-2.23-4Zm-37.16,0a3,3,0,0,1,3-3.07h26.75a3,3,0,0,1,3,3.07v1.41a4.61,4.61,0,0,1-2.23,4l-11.89,7.08a4.35,4.35,0,0,1-4.46,0l-11.89-7.08a4.61,4.61,0,0,1-2.23-4Zm-4.46,45.65L759.75,445a4.62,4.62,0,0,1-2.23-4V426.91a4.64,4.64,0,0,1,2.23-4l11.89-7.07a4.35,4.35,0,0,1,4.46,0L788,422.92a4.64,4.64,0,0,1,2.23,4v14.15a4.62,4.62,0,0,1-2.23,4l-11.89,7.08A4.35,4.35,0,0,1,771.64,452.12Zm37.16,22.12a4.62,4.62,0,0,1-2.23,4l-11.89,7.08a4.35,4.35,0,0,1-4.46,0l-11.89-7.08a4.62,4.62,0,0,1-2.23-4V460.08a4.62,4.62,0,0,1,2.23-4L790.22,449a4.35,4.35,0,0,1,4.46,0l11.89,7.08a4.62,4.62,0,0,1,2.23,4Zm0-22.12L796.91,445a4.62,4.62,0,0,1-2.23-4V426.91a4.64,4.64,0,0,1,2.23-4l11.89-7.07a4.35,4.35,0,0,1,4.46,0l11.89,7.07a4.64,4.64,0,0,1,2.23,4v14.15a4.62,4.62,0,0,1-2.23,4l-11.89,7.08A4.35,4.35,0,0,1,808.8,452.12ZM846,474.24a4.62,4.62,0,0,1-2.23,4l-11.89,7.08a4.35,4.35,0,0,1-4.46,0l-11.89-7.08a4.62,4.62,0,0,1-2.23-4V460.08a4.62,4.62,0,0,1,2.23-4L827.38,449a4.35,4.35,0,0,1,4.46,0l11.89,7.08a4.62,4.62,0,0,1,2.23,4Zm0-22.12L834.07,445a4.62,4.62,0,0,1-2.23-4V426.91a4.64,4.64,0,0,1,2.23-4L846,415.85a4.35,4.35,0,0,1,4.46,0l11.89,7.07a4.64,4.64,0,0,1,2.23,4v14.15a4.62,4.62,0,0,1-2.23,4l-11.89,7.08A4.35,4.35,0,0,1,846,452.12Zm23.19,30.61a3,3,0,0,1-3,3.07,2.91,2.91,0,0,1-1.49-.41l-12-7.17a4.62,4.62,0,0,1-2.23-4V460.08a4.62,4.62,0,0,1,2.23-4l7.43-4.42a2.92,2.92,0,0,1,4.06,1.12,3.18,3.18,0,0,1,.4,1.53v4.11a8.39,8.39,0,0,0,3,6.42,4.62,4.62,0,0,1,1.65,3.56Z"/><path class="cls-2" d="M35.57,507.9q0,17.48,0,35c0,2.6.41,5.35-3.71,5.35-3.87,0-5.57-1.55-5.71-5.48-.32-8.49-.71-17-1.44-25.44-1.23-14.25-2.76-28.48-4.12-42.72a22.13,22.13,0,0,1-.11-2.44c0-27.51-.33-55,.12-82.53.22-13.88,1.77-27.74,2.67-41.61.54-8.24,1-16.48,1.49-24.72.45-7.06.89-14.11,1.49-21.16.3-3.56,3.15-6.3,5.86-5.82,3.47.61,3.47,3.35,3.47,6q0,34.74,0,69.47a17.44,17.44,0,0,0,.23,3c.74,4.06,2.61,5.42,7.15,5.54,3.57.08,7.14-.09,10.7.07,1.59.07,3.78.13,4.6,1.12,3.13,3.73,7.19,3.09,11.17,3.1,5.71,0,11.42-.06,17.13,0,4,.06,7.82-.05,11.41-2.71,1.85-1.37,4.89-1.18,7.41-1.58,4.56-.72,9.48,1.53,13.83-1.73.36-.27,3.11,1.34,3.2,2.23,1.33,12.86,3.19,25.74.7,38.66a22.22,22.22,0,0,0-.36,4.53c.42,7.69,1.2,15.38,1.24,23.08,0,5.62-.91,11.24-1.37,16.87-.22,2.68-2,3.36-3.94,2.42-6-2.92-12.44-2.41-18.8-2.48a5.05,5.05,0,0,1-2.77-.42c-9.47-7.06-20.28-2.67-30.44-3.68a1.53,1.53,0,0,0-1.09.32c-6.56,5.07-14.5,3.08-21.88,4.15-6.7,1-8.1,3.19-8.12,10.07C35.55,485.55,35.57,496.72,35.57,507.9Zm21.58-100-.25,0c-3.36,0-6.94,0-8.63,1.69a26.88,26.88,0,0,0-7,10.32,10.26,10.26,0,0,0,1.9,9.81c1.44,2.53,7.07,8.6,14.22,7.92,6.93-.67,15.54-8.5,14.19-15.15-.92-4.58-3.71-9.08-6.68-12.81C63.62,408,59.87,408.35,57.15,407.85ZM86,455.34l.28,0c3.45,0,7.56-.89,9.6-2.94,3.16-3.17,6.95-8,6.6-11.81-.44-4.86-4.32-9.68-7.55-13.86-1.11-1.44-4.74-1.23-7.23-1.27-8.57-.16-16.93,6.62-16.11,14.21.49,4.55,3.28,9.22,6.15,13C79,454.3,82.65,454.8,86,455.34Zm-.55-36c4.21.28,8.51.2,10.07-1.49,3.23-3.51,6.92-8.28,7-12.57s-3.65-9-6.68-12.66c-1.29-1.56-5.11-1.5-7.74-1.39-3.62.14-8.29-.16-10.54,1.89-3,2.78-5.71,7.58-5.78,11.56s2.53,8.65,5.34,11.79C79,418.66,83.3,419.38,85.44,419.38ZM48.66,459.21h.22c3-.37,6.44.05,8.73-1.4,2.85-1.81,5.26-3.62,8.86-3.41.77.05,2.28-1.56,2.35-2.49.22-3.16-4.17-7.7-7.38-7.88-2.35-.13-4.75.25-7.06-.09-5.54-.82-8.44,1.9-10.77,6.58C39.42,458.92,39.2,458.85,48.66,459.21Zm1.45-72.34s-2.69-.3-2.79-.05l-3.19.26a2.32,2.32,0,0,0-1.93,3.22c.83,1.9,1.61,3.81,2.39,5.75,2,5,5.82,6.36,10.82,5.73,1.64-.21,3.33,0,5,0,3.69-.13,8.6-5.09,8.41-8.58,0-.59-.48-1.52-.93-1.66A166.77,166.77,0,0,0,50.11,386.87ZM113.21,423h0c0-4,.16-8-.06-12-.14-2.56-2.5-3.46-4.41-1.92-.17.13-.22.4-.34.6-2.31,4.05-4.9,8-6.85,12.2-1.13,2.44,6.12,14.43,8.94,15.13.7.17,2.53-1.2,2.58-1.94C113.35,431,113.21,427,113.21,423Zm.05,28.69a15.22,15.22,0,0,0-.05-3.51,14.62,14.62,0,0,0-1-2.66,1.54,1.54,0,0,0-2-.77,8.41,8.41,0,0,0-3.05,1.87c-1.33,1.54-2,3.65-2.94,5.53-.6,1.23-1.19,2.46-1.77,3.7a1.55,1.55,0,0,0,1,2.17,21.19,21.19,0,0,0,4.63.75C113.24,458.85,113.24,458.71,113.26,451.7Zm.53-56.63,0-.54c0-.46.23-1.53.06-1.58.07-1.77,1.36-4.42-.6-5.21-1.18-.47-.9-1.05-3.33-.82-1.16.1-2.26.22-3.33.37a3.78,3.78,0,0,0-3,5.13c.32.81.63,1.23,1.13,2.31.3.63.28.64.89,1.88s2.3,6.23,5.87,4.69C112.94,400.7,113.14,397.36,113.79,395.07Z"/><path class="cls-2" d="M539.49,184.71c5.29-.16,7.64,2.81,6.4,8-3,12.68-3.09,12.79,7.68,19.49,5.38,3.35,11.12,6.12,16.58,9.34,4.42,2.6,8.08,1.52,11.47-1.79,1.36-1.32,2.66-2.72,4.07-4,3.88-3.54,6.25-3.3,9.14,1,3.23,4.84,4.45,9.75.44,14.89a21.78,21.78,0,0,0-2.79,4.9c-1.17,2.76-2.78,4.06-6,5s-6.26,4.07-8.36,7a114.65,114.65,0,0,0-9.76,16.3c-1.68,3.39-1.94,7.47-3.24,11.09-1.19,3.3-2.48,6.75-4.62,9.43-.88,1.1-4.37,1.05-6.16.3A101.62,101.62,0,0,1,542,279.11c-2.71-1.61-4.42-2-6,1.56-1.39,3.21-4.15,3.09-7,1.31-4.36-2.76-8.78-5.43-13.23-8.06-2.48-1.46-3.28-3.1-1.49-5.74,1.68-2.48,1.82-4.56-1.74-5.91-2.59-1-4.79-2.93-7.28-4.24-9.21-4.83-10.16-11.14-1.54-16.88,4.07-2.72,6.16-6,8.27-9.94,2.68-5,5.6-9.78,8.65-14.51a15.82,15.82,0,0,0,2.19-11.57C521.43,196.16,530.47,185,539.49,184.71Zm3.4,84.2c14.54,1.9,26.56-12.3,26-26-.61-15.6-11.42-26.06-26-25.8s-25.26,10.25-26,26.17C516.22,257.22,528.84,270.38,542.89,268.91Z"/><path class="cls-2" d="M839.35,915.38c-.65.59-1.15,1.29-1.5,1.53-12.18,8.4-24.44,16.7-36.42,25.39-23.83,17.27-49.44,31.62-75.07,45.92q-29.25,16.32-59.1,31.53c-13,6.63-26.38,12.37-39.56,18.56-2.74,1.28-5.05,2.44-6.91-1.44s.61-4.94,3.17-6.42q29.88-17.28,59.7-34.66c5.2-3,6.14-6.2,3.49-11.74-1.11-2.32-2.91-4.32-3.94-6.67-1.33-3-4.23-5.68-2.1-9.77.64-1.22-.36-3.69-1.22-5.25-3.39-6.18-6.82-12.35-10.66-18.25-1.68-2.57-3-5.57-7-6.49-2.19-.51-3.82-3.88-5.5-6.12-2.79-3.69-5.19-7.7-8.19-11.21-2.44-2.86-.64-4.5,1.25-5.81,6.29-4.38,12.6-8.76,19.2-12.64,4.37-2.57,9.36-4.09,13.86-6.49,2.37-1.26,4.09-3.72,6.42-5.08,7.5-4.37,15.13-8.5,22.76-12.65,1.43-.78,3.08-1.13,4.57-1.82,5.64-2.59,5.5-2.58,7.19,3.16.58,2,2,3.7,3,5.56,2.66,4.94,6,9.59,5.5,15.72a9.24,9.24,0,0,0,1.37,4.65c3.09,5.82,6.14,11.67,9.59,17.27a19.86,19.86,0,0,0,7.84,7.56c3.68,2,5.8,7.1,8.23,11.07,4.07,6.65,6.73,7.29,13.48,3.4,17.7-10.22,35.48-20.28,53.22-30.42a76.33,76.33,0,0,1,7.3-4.23,4.86,4.86,0,0,1,6.56,3.52,10.89,10.89,0,0,0-.1,1.11Zm-122.22,17a3.73,3.73,0,0,0,1.56,0c2.76-.65,6.3-.81,7.84-2.64,3.06-3.61,6.49-8.48,6.4-12.75s-3.68-9.09-6.85-12.67c-1.52-1.71-5.63-1.59-8.54-1.49-3.11.11-7.36.13-9,2-3.1,3.55-6.49,8.46-6.41,12.73s3.7,9.06,6.84,12.68C710.41,931.87,713.91,931.77,717.13,932.36Zm-31,17.11a3.79,3.79,0,0,0,1.5,0c3.23-.62,7-.54,8.58-2.35,3-3.36,5.66-7.92,6.25-12.28.92-6.66-8.49-15.28-15.42-15-3.15.15-7.36.5-9.12,2.49-3.15,3.56-6.52,8.41-6.57,12.76,0,4,3.57,8.6,6.68,11.89C679.74,948.8,683.25,948.84,686.16,949.47Zm32.75-11.67a3.69,3.69,0,0,0-1.62,0c-3.34.66-6.94.61-8.72,2.39-3.22,3.19-7.1,7.82-7,11.71.17,4.58,3.71,9.56,7,13.3,1.71,2,6,2.12,9.14,2.18,2.91,0,6.93-.17,8.51-2,3.14-3.58,6.61-8.27,6.77-12.63.16-4.06-3.17-8.82-6.15-12.24C725.26,938.65,721.74,938.48,718.91,937.8Zm-28.82,17.59a3.94,3.94,0,0,1-.77.08c-6.16,0-6.18.24-4,5.84.49,1.28,1.36,2.73,1.14,3.93-1.15,6.27,3,10.59,5.31,15.61,1.27,2.77,2.74,2.81,4.82.94a14.38,14.38,0,0,0,3.41-18A26.54,26.54,0,0,0,698,960C695.92,957.19,693.56,954.69,690.09,955.39Zm56.75-6.14c-1.44-.12.88.3,2.71.3s2-.28,3.67-.85c1-.33,2.47-2.69,2.14-3.28-2-3.68-3.87-7.76-6.91-10.43s-6.57-6.1-9-7.09c-1.78-.65-3-.79-3.21-.64-3.31,2.37-4.62,5.68-3.56,8.62,1,4.35,3.75,8.65,6.81,12C740.92,949.49,744.08,948.87,746.84,949.25Zm-60.05-34.66c7.21.08,15.17-7.29,16-14.72.35-3.18-1.19-4.34-4.3-2.67-6,3.2-11.81,6.71-17.62,10.23l-.28.18a3.55,3.55,0,0,0,.23,6,15,15,0,0,0,1.74.89C683.76,915,685.36,914.59,686.79,914.59Zm-14.65,4.59a3.25,3.25,0,0,0,.5-2.08c-.31-2.4-2.27-3.41-4.63-2.34a42,42,0,0,0-7.77,4.69c-1,.72-2,2.83-1.57,3.59a45.62,45.62,0,0,0,5.07,7.14c.16.21,1.57-.1,1.85-.53C667.91,926.08,670.13,922.43,672.14,919.18Zm44.16-23.24a4.35,4.35,0,0,0,.88.13,38.32,38.32,0,0,0,5.87-.09,4.42,4.42,0,0,0,2.32-1.75c-1.32-2.72-2.51-5.67-4.55-7.77-.74-.76-4,.1-5.48,1.09-2.57,1.67-7.76,1.56-7,5.74C709.19,898.11,713.75,895.42,716.3,895.94Z"/><path class="cls-2" d="M549.25,118.75c3.2-.29,5.49,1,7.49,3.37,5.17,6,8.82,13.21,11.72,20.31,4.28,10.48,6.66,21.77,9.66,32.76,1.22,4.48-4.56,6.71-10.57,7.67-5.13.82-8.62,1.84-12.37,2.44-5.74,1.22-5.54-.27-6.2-2.16-1.51-4.35-.75-10.12-4.54-12.89s-8.9.3-13.48.32c-6.66,0-13.05-1.7-19.67-1.85-5.85-.13-10.8-8.57-8.82-14.23,3.49-10,9.91-18.46,14.95-27.65,1.38-2.5,4.1-4.59,6.82-4.63C532.74,122.07,541.1,121.3,549.25,118.75ZM553,132.51c-.11-3.61-1.83-6.18-4.89-6.14-2.78,0-6.27,1-6.57,4.92-.27,3.62,1.75,5.85,5.25,6.2C550.46,137.85,552.21,135.46,553,132.51Zm-12.36,28.31a6.09,6.09,0,0,0-.74-6.42,5.35,5.35,0,0,0-5-2.38c-3.45.29-5,3-4.88,6.52.16,4.29,3.29,4.66,6.36,4.65A4.52,4.52,0,0,0,540.64,160.82Zm-11.9-31.92c-4.33,0-7,1.72-7,5.15,0,3,2.42,4.66,5.65,5,3.76.41,5.24-1.9,5.38-4.79S531.78,128.68,528.74,128.9Zm-14.22,32.9c3.53.12,5.29-1.91,5.38-4.73.09-3.09-2.08-5.13-5.36-5.21s-5.63,1.84-5.68,4.9C508.81,160,510.75,162,514.52,161.8Zm44.91-9.62c-.5-2-1-3.58-3.37-3.14-1.83.35-3.26,1.42-2.84,3.27a3.15,3.15,0,0,0,3.84,2.31C558.57,154.36,559.5,153.59,559.43,152.18Zm4.91,21.1c0-1.44-.11-2.85-2.09-2.81s-3.28.92-3.32,2.74,1.42,2.74,3.24,2.82C564.15,176.12,564.32,174.76,564.34,173.28Z"/><path class="cls-2" d="M814.26,843.92c-4.52,2.54-6.88,4.6-.37,7.76-5.56-1.14-10.3.27-15.18-1.2-5.48-1.66-7.82-5-7.89-10.17A38,38,0,0,0,787.06,824c-2.88-6-1.54-10.94,3.14-15.76,5.38-5.54,9.76-12.07,15.12-17.65,7.73-8.07,16.55-6.66,21.47,3.53,3.64,7.55,7.2,15.35,9.2,23.43,1.47,5.95,4.39,6.09,8.58,4.72a21,21,0,0,1,7-.75c4,0,6.13,2.21,6.17,6.18a71.81,71.81,0,0,0,1.32,15.45c.92,4.07-.48,7.64-5.46,8.18-9.33,1-18.66,2-28,2.86C815.92,855.06,815.85,854.89,814.26,843.92Zm-12-12.55c-2.52,1.33-4.6,3-4.48,6.81s2.1,4.75,5.49,4.78c4.14,0,5.57-3.06,5.63-5.89C808.94,833.78,806.06,832,802.23,831.37Zm26.47-13.26c-.52-3.24-1.66-6.23-5.22-6.46s-5.42,2.19-5.67,5.72c-.22,3.27.69,5.35,4.54,5.62S827.77,821,828.7,818.11Zm-25.11-.24c-1.06-1.44-.35-4.94-4.54-5-3.55-.07-6.4,1.31-6.68,4.73s2.43,5.25,6,5.37C801.32,823,803.48,822.23,803.59,817.87ZM820.71,798c-.69-2.48-1.05-5.26-5-5.17-3.55.09-6.21,1.69-6.26,5.09-.05,3,2.27,4.75,5.58,5.06C818.75,803.32,819.9,801.14,820.71,798Zm28.52,39.12c0-1.48-.19-2.84-2.18-2.73-1.82.1-3.27,1-3.23,2.83s1.5,2.72,3.33,2.73C849.13,840,849.22,838.56,849.23,837.12Zm-21.54,1.34a2.68,2.68,0,0,0-2.92-2.43c-1.76.18-2.68,1.65-2.58,3.49s1.61,1.89,3,1.92C826.78,841.46,827.91,841,827.69,838.46Z"/><path class="cls-2" d="M96.05,620.74c.15-4.91-2.17-6-6.53-6-11.65.18-23.32.33-35,0-6-.19-8,2.75-8.41,7.91-.15,2.13,0,4.29,0,6.43,0,14.19,0,14.19-13.91,14.33-8.42.09-10.33,2-10.35,10.48q0,28.9,0,57.81c0,19.74.09,39.49,0,59.24-.05,5.74,2.27,8.3,8,8.06,5-.2,10,0,15,0,8.3,0,8.76-.07,8.22-8.3-.59-8.8,2.46-15.46,8.89-21.26,6.17-5.58,11.75-11.8,17.76-17.56a14.87,14.87,0,0,0,5-11.93c-.25-9.74.11-19.51-.13-29.26-.19-7.66.69-14.94,4.89-21.59,1.92-3,.49-4.26-2.75-4.23-4.76,0-9.52-.17-14.27.05-3.58.16-5.26-.86-5-4.77.23-3.48-.06-6.88,4.95-6.8s10,0,15,0c6.6-.07,8.46-1.69,8.62-8.28C96.13,636.92,95.8,628.82,96.05,620.74Zm-20,53.65a2,2,0,1,1-2,2A2,2,0,0,1,76.07,674.39Zm0,32.88a2,2,0,1,1-2,2A2,2,0,0,1,76.07,707.27ZM57.4,626.33c2.32-.22,3,.78,2.92,2.43,0,1.36.13,2.89-1.84,3.07s-3.32-.77-3.56-2.49A2.7,2.7,0,0,1,57.4,626.33ZM32.09,653.45c1.4-.14,2.22.4,2.34.9.22,2.34-.45,3.14-1.89,3.17a1.83,1.83,0,0,1-2.08-2.18C30.51,654.34,30.89,653.56,32.09,653.45Zm-2.4,22.95a2,2,0,1,1,2,2A2,2,0,0,1,29.69,676.4Zm3.14,33.93c-1.66.06-2.41-.66-2.38-2.09s.86-2.08,2.28-2a1.72,1.72,0,0,1,1.8,1.74C34.15,709.46,33.7,710.11,32.83,710.33Zm6.11,57.95a2.61,2.61,0,0,1-2.8-2.74c0-1.84.86-3.28,2.65-3.41a2.68,2.68,0,0,1,2.85,2.49C41.84,767.24,40.46,768.28,38.94,768.28ZM39,745.87c-1.86.06-2.82-1.41-2.87-3.23s.92-3.3,2.73-3.36,2.72,1.43,2.91,3.16C41.68,744.33,40.8,745.8,39,745.87Zm31.29-47.49c-.45,8.58-6.43,15.69-15.79,15-11.38-.14-14.44-6.17-15.4-15.17-.88-8.23,7.13-15,16-14.9C63.41,683.37,70.71,690.32,70.28,698.38Zm8.15-68.63A1.73,1.73,0,1,1,80.15,628,1.73,1.73,0,0,1,78.43,629.75Z"/><path class="cls-2" d="M544.76,82.86c-3.32-4.11-5.52-9.28-11.17-11.34-3.79-1.38-6.44-4.57-8.5-8-6.26-10.44-12.39-21-18.59-31.43-4.44-7.49-9.86-10.15-18.17-7A132,132,0,0,0,455,44.17c-6.75,5.2-7.28,11.47-3.22,19.16,3,5.58,6.48,10.87,9.32,16.51,4.17,8.24,11.53,15.23,11,25.38-.31,6.46,2.09,11.93,4.9,17.38.82,1.59,1.43,3.85,4,2.94,2.09-.74,2.35-2.57,2.52-4.59.78-8.92,2.17-10.41,11.09-12.46a.06.06,0,0,1,.06,0c.92,2.66-.42,5.62,1.28,8.76a0,0,0,0,0,.07,0l15.81-8.9a.06.06,0,0,0,0-.09c-2.29-1.6-4.68-2.63-3.88-5.55a3.11,3.11,0,0,1,3-2.55c2.91.06,4.37,1.22,3.39,4.52-.33,1.13,1.56,1.24,2,.85,3.79-3.44,9.84-3.78,13-9a.05.05,0,0,0,0-.08l-9.75-2.81a.06.06,0,0,1,0-.1c6.08-5.19,11.66-9.19,19.11-3.76,2.14,1.56,4.38,1,6.33-.71C547.59,87,546.1,84.53,544.76,82.86Zm-90.34-25c-2.05,0-3.34-1-3.38-3.08s1.54-3.23,3.61-3.17a3.11,3.11,0,0,1,3.15,2.15v0C458,55.91,456.69,57.78,454.42,57.84Zm39.2-28.38c.66-2.37,2.36-3,3.23-2.84,1.73.29,3.89,1.1,3.88,3.56a3.56,3.56,0,0,1-4.44,3.42A3.27,3.27,0,0,1,493.62,29.46Zm-14.5,83.61a2.1,2.1,0,1,1,2.1-2.09A2.1,2.1,0,0,1,479.12,113.07Zm28.19-31.42a26.71,26.71,0,0,1-28.26,6.15c-10.7-4.18-16.75-12.51-17-25.49-1-4.69,2-7.79,6.06-10.18,6.44-3.81,13-7.36,19.45-11.2a12.87,12.87,0,0,1,12-1c4.39,1.62,6.7,6.88,12.22,6.46.77-.05,2.57,2.62,2.48,3.93C513.56,61.07,516.2,72.43,507.31,81.65Zm27.55.24A2.1,2.1,0,1,1,537,79.8,2.1,2.1,0,0,1,534.86,81.89Z"/><path class="cls-1" d="M490.34,1107.86c-7.09-4.12-14.24-8.14-21.36-12.22-3.38-1.94-5.77-4.21-6-8.74-.69-12.13.63-24.24,2-36.1,1.57-13.58,3.37-16.08-10.29-22.71-.63-.31-5.11-2.65-5.88-3.16-5.08-3.35-5.43-4.6-8.94-4.22-4.06.44-4.52,7-7.14,10.66-5.31,7.32-4.72,10.54,3,15.3,3.93,2.42,4.46,5.31,4.75,9.32.54,7.41-1.53,14.56-1.65,23.42-.84,4.79,1.49,9.3,7.16,12.47q20.24,11.32,40.23,23.09c3.21,1.89,5,1.56,7.1-1.68C495.85,1109.22,492.32,1109,490.34,1107.86Zm-35.24-64.5a1.11,1.11,0,1,1-1.11,1.11A1.11,1.11,0,0,1,455.1,1043.36Zm-11,26.16a1.11,1.11,0,1,1,1.11-1.11A1.12,1.12,0,0,1,444.1,1069.52Zm.71-18.62a1.11,1.11,0,1,1,1.11-1.11A1.11,1.11,0,0,1,444.81,1050.9Zm-.35-8.38c-1.48.21-4.86-2.8-6.29-4.74-.44-.6.57-2.32,2.4-3.56,1.46-1,7.94,3.07,8.21,4.9A5.48,5.48,0,0,1,444.46,1042.52Zm5.13,23c-2.38,0-2.35-2-2.16-3.6.37-3.14.69-6.46.85-9.51a2.35,2.35,0,0,1,1.94-2.19c7.58-1.33,5.77,2.62,5.76,4.6,0,.93,0,1.87,0,2.81l.2,0c-.22,2.31.13,4.9-.83,6.85C454.32,1066.64,451.6,1065.51,449.59,1065.48Zm7.73,5.15a1.11,1.11,0,1,1,1.11-1.11A1.11,1.11,0,0,1,457.32,1070.63Z"/><path class="cls-3" d="M698.2,561.35,522.58,865.53H683.86L859.47,561.35ZM678.43,856.12H538.87L703.63,570.75H843.19Z"/><path class="cls-3" d="M583.84,276,243.46,865.53H404.73L745.11,276ZM399.3,856.12H259.74L589.26,285.37H728.83Z"/><path class="cls-3" d="M304.71,276,129.1,580.15H290.37L466,276ZM284.94,570.75H145.38L310.14,285.37H449.7Z"/><path class="cls-3" d="M494.28,0,0,285.37V856.12L494.28,1141.5,988.57,856.12V285.37ZM979.17,850.7,494.28,1130.64,9.4,850.7V290.8L494.28,10.85l484.89,280Z"/></g></g></g></svg>