G04 EAGLE Gerber RS-274X export*
G75*
%MOMM*%
%FSLAX34Y34*%
%LPD*%
%INCopper Layer 2*%
%IPPOS*%
%AMOC8*
5,1,8,0,0,1.08239X$1,22.5*%
G01*
%ADD10C,1.508000*%
%ADD11C,1.524000*%
%ADD12C,1.800000*%
%ADD13C,0.906400*%

G36*
X255046Y4007D02*
X255046Y4007D01*
X255087Y4005D01*
X256824Y4157D01*
X256918Y4178D01*
X256995Y4187D01*
X258679Y4638D01*
X258768Y4676D01*
X258843Y4697D01*
X260422Y5434D01*
X260503Y5487D01*
X260573Y5521D01*
X262001Y6521D01*
X262072Y6587D01*
X262134Y6633D01*
X263367Y7866D01*
X263425Y7943D01*
X263479Y7999D01*
X264479Y9427D01*
X264518Y9505D01*
X264563Y9572D01*
X264563Y9573D01*
X264566Y9578D01*
X265029Y10571D01*
X265029Y10572D01*
X265303Y11158D01*
X265331Y11250D01*
X265362Y11321D01*
X265813Y13005D01*
X265825Y13101D01*
X265844Y13176D01*
X265995Y14913D01*
X265993Y14959D01*
X265999Y15000D01*
X265999Y250000D01*
X265993Y250046D01*
X265995Y250087D01*
X265844Y251824D01*
X265822Y251918D01*
X265813Y251995D01*
X265362Y253679D01*
X265324Y253768D01*
X265303Y253843D01*
X264566Y255422D01*
X264513Y255503D01*
X264479Y255573D01*
X263479Y257001D01*
X263413Y257072D01*
X263367Y257134D01*
X262134Y258367D01*
X262057Y258425D01*
X262001Y258479D01*
X260573Y259479D01*
X260487Y259523D01*
X260422Y259566D01*
X258843Y260303D01*
X258750Y260331D01*
X258679Y260362D01*
X256995Y260813D01*
X256899Y260825D01*
X256824Y260844D01*
X255087Y260995D01*
X255041Y260993D01*
X255000Y260999D01*
X165044Y260999D01*
X163438Y261140D01*
X161923Y261546D01*
X160502Y262208D01*
X159217Y263108D01*
X158108Y264217D01*
X157208Y265502D01*
X156546Y266923D01*
X156140Y268438D01*
X155999Y270044D01*
X155999Y277500D01*
X155993Y277546D01*
X155995Y277587D01*
X155844Y279324D01*
X155822Y279418D01*
X155813Y279495D01*
X155362Y281179D01*
X155324Y281268D01*
X155303Y281343D01*
X154566Y282922D01*
X154513Y283003D01*
X154479Y283073D01*
X153479Y284501D01*
X153413Y284572D01*
X153367Y284634D01*
X152134Y285867D01*
X152057Y285925D01*
X152001Y285979D01*
X150573Y286979D01*
X150487Y287023D01*
X150422Y287066D01*
X148843Y287803D01*
X148750Y287831D01*
X148679Y287862D01*
X146995Y288313D01*
X146899Y288325D01*
X146824Y288344D01*
X145087Y288495D01*
X145041Y288493D01*
X145000Y288499D01*
X-145000Y288499D01*
X-145046Y288493D01*
X-145087Y288495D01*
X-146824Y288344D01*
X-146918Y288322D01*
X-146995Y288313D01*
X-148679Y287862D01*
X-148768Y287824D01*
X-148843Y287803D01*
X-150422Y287066D01*
X-150503Y287013D01*
X-150573Y286979D01*
X-152001Y285979D01*
X-152072Y285913D01*
X-152134Y285867D01*
X-153367Y284634D01*
X-153425Y284557D01*
X-153479Y284501D01*
X-154479Y283073D01*
X-154523Y282987D01*
X-154566Y282922D01*
X-154895Y282216D01*
X-155303Y281343D01*
X-155331Y281250D01*
X-155362Y281179D01*
X-155813Y279495D01*
X-155825Y279399D01*
X-155844Y279324D01*
X-155995Y277587D01*
X-155993Y277541D01*
X-155999Y277500D01*
X-155999Y270044D01*
X-156140Y268438D01*
X-156546Y266923D01*
X-156870Y266228D01*
X-157208Y265502D01*
X-158108Y264217D01*
X-159217Y263108D01*
X-160502Y262208D01*
X-161923Y261546D01*
X-163438Y261140D01*
X-165044Y260999D01*
X-255000Y260999D01*
X-255046Y260993D01*
X-255087Y260995D01*
X-256824Y260844D01*
X-256918Y260822D01*
X-256995Y260813D01*
X-258679Y260362D01*
X-258768Y260324D01*
X-258843Y260303D01*
X-260422Y259566D01*
X-260503Y259513D01*
X-260573Y259479D01*
X-262001Y258479D01*
X-262072Y258413D01*
X-262134Y258367D01*
X-263367Y257134D01*
X-263425Y257057D01*
X-263479Y257001D01*
X-264479Y255573D01*
X-264523Y255487D01*
X-264566Y255422D01*
X-264653Y255237D01*
X-264653Y255236D01*
X-265118Y254237D01*
X-265119Y254237D01*
X-265303Y253843D01*
X-265331Y253750D01*
X-265362Y253679D01*
X-265813Y251995D01*
X-265825Y251899D01*
X-265844Y251824D01*
X-265995Y250087D01*
X-265993Y250041D01*
X-265999Y250000D01*
X-265999Y15000D01*
X-265993Y14954D01*
X-265995Y14913D01*
X-265844Y13176D01*
X-265822Y13082D01*
X-265813Y13005D01*
X-265362Y11321D01*
X-265324Y11232D01*
X-265303Y11158D01*
X-264566Y9578D01*
X-264513Y9497D01*
X-264479Y9427D01*
X-263479Y7999D01*
X-263413Y7928D01*
X-263367Y7866D01*
X-262134Y6633D01*
X-262057Y6575D01*
X-262001Y6521D01*
X-260573Y5521D01*
X-260487Y5477D01*
X-260422Y5434D01*
X-258843Y4697D01*
X-258750Y4669D01*
X-258679Y4638D01*
X-256995Y4187D01*
X-256899Y4175D01*
X-256824Y4157D01*
X-255087Y4005D01*
X-255041Y4007D01*
X-255000Y4001D01*
X255000Y4001D01*
X255046Y4007D01*
G37*
%LPC*%
G36*
X-233779Y125999D02*
X-233779Y125999D01*
X-240763Y128892D01*
X-246108Y134237D01*
X-249001Y141220D01*
X-249001Y148779D01*
X-246108Y155763D01*
X-240763Y161108D01*
X-233779Y164001D01*
X-226221Y164001D01*
X-219237Y161108D01*
X-213892Y155763D01*
X-210999Y148779D01*
X-210999Y141220D01*
X-213892Y134237D01*
X-219237Y128892D01*
X-226221Y125999D01*
X-233779Y125999D01*
G37*
%LPD*%
%LPC*%
G36*
X226221Y125999D02*
X226221Y125999D01*
X219237Y128892D01*
X213892Y134237D01*
X210999Y141220D01*
X210999Y148779D01*
X213892Y155763D01*
X219237Y161108D01*
X226221Y164001D01*
X233779Y164001D01*
X240763Y161108D01*
X246108Y155763D01*
X249001Y148779D01*
X249001Y141220D01*
X246108Y134237D01*
X240763Y128892D01*
X233779Y125999D01*
X226221Y125999D01*
G37*
%LPD*%
%LPC*%
G36*
X-139688Y31499D02*
X-139688Y31499D01*
X-143731Y33174D01*
X-146826Y36269D01*
X-148501Y40312D01*
X-148501Y44688D01*
X-146826Y48731D01*
X-143731Y51826D01*
X-139688Y53501D01*
X-135312Y53501D01*
X-131269Y51826D01*
X-128174Y48731D01*
X-126499Y44688D01*
X-126499Y40312D01*
X-128174Y36269D01*
X-131269Y33174D01*
X-135312Y31499D01*
X-139688Y31499D01*
G37*
%LPD*%
%LPC*%
G36*
X-89688Y31499D02*
X-89688Y31499D01*
X-93731Y33174D01*
X-96826Y36269D01*
X-98501Y40312D01*
X-98501Y44688D01*
X-96826Y48731D01*
X-93731Y51826D01*
X-89688Y53501D01*
X-85312Y53501D01*
X-81269Y51826D01*
X-78174Y48731D01*
X-76499Y44688D01*
X-76499Y40312D01*
X-78174Y36269D01*
X-81269Y33174D01*
X-85312Y31499D01*
X-89688Y31499D01*
G37*
%LPD*%
%LPC*%
G36*
X153286Y132879D02*
X153286Y132879D01*
X149750Y134344D01*
X147044Y137050D01*
X145579Y140586D01*
X145579Y144414D01*
X147044Y147950D01*
X149750Y150656D01*
X153286Y152121D01*
X157114Y152121D01*
X160650Y150656D01*
X163356Y147950D01*
X164821Y144414D01*
X164821Y140586D01*
X163356Y137050D01*
X160650Y134344D01*
X157114Y132879D01*
X153286Y132879D01*
G37*
%LPD*%
%LPC*%
G36*
X127886Y132879D02*
X127886Y132879D01*
X124350Y134344D01*
X121644Y137050D01*
X120179Y140586D01*
X120179Y144414D01*
X121644Y147950D01*
X124350Y150656D01*
X127886Y152121D01*
X131714Y152121D01*
X135250Y150656D01*
X137956Y147950D01*
X139421Y144414D01*
X139421Y140586D01*
X137956Y137050D01*
X135250Y134344D01*
X131714Y132879D01*
X127886Y132879D01*
G37*
%LPD*%
%LPC*%
G36*
X-44214Y132879D02*
X-44214Y132879D01*
X-47750Y134344D01*
X-50456Y137050D01*
X-51921Y140586D01*
X-51921Y144414D01*
X-50456Y147950D01*
X-47750Y150656D01*
X-44214Y152121D01*
X-40386Y152121D01*
X-36850Y150656D01*
X-34144Y147950D01*
X-32679Y144414D01*
X-32679Y140586D01*
X-34144Y137050D01*
X-36850Y134344D01*
X-40386Y132879D01*
X-44214Y132879D01*
G37*
%LPD*%
%LPC*%
G36*
X-69614Y107479D02*
X-69614Y107479D01*
X-73150Y108944D01*
X-75856Y111650D01*
X-77321Y115186D01*
X-77321Y119014D01*
X-75856Y122550D01*
X-73150Y125256D01*
X-69614Y126721D01*
X-65786Y126721D01*
X-62250Y125256D01*
X-59544Y122550D01*
X-58079Y119014D01*
X-58079Y115186D01*
X-59544Y111650D01*
X-62250Y108944D01*
X-65786Y107479D01*
X-69614Y107479D01*
G37*
%LPD*%
%LPC*%
G36*
X-69614Y132879D02*
X-69614Y132879D01*
X-73150Y134344D01*
X-75856Y137050D01*
X-77321Y140586D01*
X-77321Y144414D01*
X-75856Y147950D01*
X-73150Y150656D01*
X-69614Y152121D01*
X-65786Y152121D01*
X-62250Y150656D01*
X-59544Y147950D01*
X-58079Y144414D01*
X-58079Y140586D01*
X-59544Y137050D01*
X-62250Y134344D01*
X-65786Y132879D01*
X-69614Y132879D01*
G37*
%LPD*%
%LPC*%
G36*
X127886Y107479D02*
X127886Y107479D01*
X124350Y108944D01*
X121644Y111650D01*
X120179Y115186D01*
X120179Y119014D01*
X121644Y122550D01*
X124350Y125256D01*
X127886Y126721D01*
X131714Y126721D01*
X135250Y125256D01*
X137956Y122550D01*
X139421Y119014D01*
X139421Y115186D01*
X137956Y111650D01*
X135250Y108944D01*
X131714Y107479D01*
X127886Y107479D01*
G37*
%LPD*%
%LPC*%
G36*
X153286Y158279D02*
X153286Y158279D01*
X149750Y159744D01*
X147044Y162450D01*
X145579Y165986D01*
X145579Y169814D01*
X147044Y173350D01*
X149750Y176056D01*
X153286Y177521D01*
X157114Y177521D01*
X160650Y176056D01*
X163356Y173350D01*
X164821Y169814D01*
X164821Y165986D01*
X163356Y162450D01*
X160650Y159744D01*
X157114Y158279D01*
X153286Y158279D01*
G37*
%LPD*%
%LPC*%
G36*
X127886Y158279D02*
X127886Y158279D01*
X124350Y159744D01*
X121644Y162450D01*
X120179Y165986D01*
X120179Y169814D01*
X121644Y173350D01*
X124350Y176056D01*
X127886Y177521D01*
X131714Y177521D01*
X135250Y176056D01*
X137956Y173350D01*
X139421Y169814D01*
X139421Y165986D01*
X137956Y162450D01*
X135250Y159744D01*
X131714Y158279D01*
X127886Y158279D01*
G37*
%LPD*%
%LPC*%
G36*
X-44214Y158279D02*
X-44214Y158279D01*
X-47750Y159744D01*
X-50456Y162450D01*
X-51921Y165986D01*
X-51921Y169814D01*
X-50456Y173350D01*
X-47750Y176056D01*
X-44214Y177521D01*
X-40386Y177521D01*
X-36850Y176056D01*
X-34144Y173350D01*
X-32679Y169814D01*
X-32679Y165986D01*
X-34144Y162450D01*
X-36850Y159744D01*
X-40386Y158279D01*
X-44214Y158279D01*
G37*
%LPD*%
%LPC*%
G36*
X-69614Y158279D02*
X-69614Y158279D01*
X-73150Y159744D01*
X-75856Y162450D01*
X-77321Y165986D01*
X-77321Y169814D01*
X-75856Y173350D01*
X-73150Y176056D01*
X-69614Y177521D01*
X-65786Y177521D01*
X-62250Y176056D01*
X-59544Y173350D01*
X-58079Y169814D01*
X-58079Y165986D01*
X-59544Y162450D01*
X-62250Y159744D01*
X-65786Y158279D01*
X-69614Y158279D01*
G37*
%LPD*%
%LPC*%
G36*
X-134398Y250459D02*
X-134398Y250459D01*
X-137904Y251912D01*
X-140588Y254596D01*
X-142041Y258102D01*
X-142041Y261898D01*
X-140588Y265404D01*
X-137904Y268088D01*
X-134398Y269541D01*
X-130602Y269541D01*
X-127096Y268088D01*
X-124412Y265404D01*
X-122959Y261898D01*
X-122959Y258102D01*
X-124412Y254596D01*
X-127096Y251912D01*
X-130602Y250459D01*
X-134398Y250459D01*
G37*
%LPD*%
%LPC*%
G36*
X130602Y220459D02*
X130602Y220459D01*
X127096Y221912D01*
X124412Y224596D01*
X122959Y228102D01*
X122959Y231898D01*
X124412Y235404D01*
X127096Y238088D01*
X130602Y239541D01*
X134398Y239541D01*
X137904Y238088D01*
X140588Y235404D01*
X142041Y231898D01*
X142041Y228102D01*
X140588Y224596D01*
X137904Y221912D01*
X134398Y220459D01*
X130602Y220459D01*
G37*
%LPD*%
%LPC*%
G36*
X105602Y220459D02*
X105602Y220459D01*
X102096Y221912D01*
X99412Y224596D01*
X97959Y228102D01*
X97959Y231898D01*
X99412Y235404D01*
X102096Y238088D01*
X105602Y239541D01*
X109398Y239541D01*
X112904Y238088D01*
X115588Y235404D01*
X117041Y231898D01*
X117041Y228102D01*
X115588Y224596D01*
X112904Y221912D01*
X109398Y220459D01*
X105602Y220459D01*
G37*
%LPD*%
%LPC*%
G36*
X48102Y220459D02*
X48102Y220459D01*
X44596Y221912D01*
X41912Y224596D01*
X40459Y228102D01*
X40459Y231898D01*
X41912Y235404D01*
X44596Y238088D01*
X48102Y239541D01*
X51898Y239541D01*
X55404Y238088D01*
X58088Y235404D01*
X59541Y231898D01*
X59541Y228102D01*
X58088Y224596D01*
X55404Y221912D01*
X51898Y220459D01*
X48102Y220459D01*
G37*
%LPD*%
%LPC*%
G36*
X23102Y220459D02*
X23102Y220459D01*
X19596Y221912D01*
X16912Y224596D01*
X15459Y228102D01*
X15459Y231898D01*
X16912Y235404D01*
X19596Y238088D01*
X23102Y239541D01*
X26898Y239541D01*
X30404Y238088D01*
X33088Y235404D01*
X34541Y231898D01*
X34541Y228102D01*
X33088Y224596D01*
X30404Y221912D01*
X26898Y220459D01*
X23102Y220459D01*
G37*
%LPD*%
%LPC*%
G36*
X-26898Y220459D02*
X-26898Y220459D01*
X-30404Y221912D01*
X-33088Y224596D01*
X-34541Y228102D01*
X-34541Y231898D01*
X-33088Y235404D01*
X-30404Y238088D01*
X-26898Y239541D01*
X-23102Y239541D01*
X-19596Y238088D01*
X-16912Y235404D01*
X-15459Y231898D01*
X-15459Y228102D01*
X-16912Y224596D01*
X-19596Y221912D01*
X-23102Y220459D01*
X-26898Y220459D01*
G37*
%LPD*%
%LPC*%
G36*
X-51898Y220459D02*
X-51898Y220459D01*
X-55404Y221912D01*
X-58088Y224596D01*
X-59541Y228102D01*
X-59541Y231898D01*
X-58088Y235404D01*
X-55404Y238088D01*
X-51898Y239541D01*
X-48102Y239541D01*
X-44596Y238088D01*
X-41912Y235404D01*
X-40459Y231898D01*
X-40459Y228102D01*
X-41912Y224596D01*
X-44596Y221912D01*
X-48102Y220459D01*
X-51898Y220459D01*
G37*
%LPD*%
%LPC*%
G36*
X243102Y197959D02*
X243102Y197959D01*
X239596Y199412D01*
X236912Y202096D01*
X235459Y205602D01*
X235459Y209398D01*
X236912Y212904D01*
X239596Y215588D01*
X243102Y217041D01*
X246898Y217041D01*
X250404Y215588D01*
X253088Y212904D01*
X254541Y209398D01*
X254541Y205602D01*
X253088Y202096D01*
X250404Y199412D01*
X246898Y197959D01*
X243102Y197959D01*
G37*
%LPD*%
%LPC*%
G36*
X218102Y197959D02*
X218102Y197959D01*
X214596Y199412D01*
X211912Y202096D01*
X210459Y205602D01*
X210459Y209398D01*
X211912Y212904D01*
X214596Y215588D01*
X218102Y217041D01*
X221898Y217041D01*
X225404Y215588D01*
X228088Y212904D01*
X229541Y209398D01*
X229541Y205602D01*
X228088Y202096D01*
X225404Y199412D01*
X221898Y197959D01*
X218102Y197959D01*
G37*
%LPD*%
%LPC*%
G36*
X193102Y197959D02*
X193102Y197959D01*
X189596Y199412D01*
X186912Y202096D01*
X185459Y205602D01*
X185459Y209398D01*
X186912Y212904D01*
X189596Y215588D01*
X193102Y217041D01*
X196898Y217041D01*
X200404Y215588D01*
X203088Y212904D01*
X204541Y209398D01*
X204541Y205602D01*
X203088Y202096D01*
X200404Y199412D01*
X196898Y197959D01*
X193102Y197959D01*
G37*
%LPD*%
%LPC*%
G36*
X168102Y197959D02*
X168102Y197959D01*
X164596Y199412D01*
X161912Y202096D01*
X160459Y205602D01*
X160459Y209398D01*
X161912Y212904D01*
X164596Y215588D01*
X168102Y217041D01*
X171898Y217041D01*
X175404Y215588D01*
X178088Y212904D01*
X179541Y209398D01*
X179541Y205602D01*
X178088Y202096D01*
X175404Y199412D01*
X171898Y197959D01*
X168102Y197959D01*
G37*
%LPD*%
%LPC*%
G36*
X130602Y195459D02*
X130602Y195459D01*
X127096Y196912D01*
X124412Y199596D01*
X122959Y203102D01*
X122959Y206898D01*
X124412Y210404D01*
X127096Y213088D01*
X130602Y214541D01*
X134398Y214541D01*
X137904Y213088D01*
X140588Y210404D01*
X142041Y206898D01*
X142041Y203102D01*
X140588Y199596D01*
X137904Y196912D01*
X134398Y195459D01*
X130602Y195459D01*
G37*
%LPD*%
%LPC*%
G36*
X105602Y195459D02*
X105602Y195459D01*
X102096Y196912D01*
X99412Y199596D01*
X97959Y203102D01*
X97959Y206898D01*
X99412Y210404D01*
X102096Y213088D01*
X105602Y214541D01*
X109398Y214541D01*
X112904Y213088D01*
X115588Y210404D01*
X117041Y206898D01*
X117041Y203102D01*
X115588Y199596D01*
X112904Y196912D01*
X109398Y195459D01*
X105602Y195459D01*
G37*
%LPD*%
%LPC*%
G36*
X48102Y195459D02*
X48102Y195459D01*
X44596Y196912D01*
X41912Y199596D01*
X40459Y203102D01*
X40459Y206898D01*
X41912Y210404D01*
X44596Y213088D01*
X48102Y214541D01*
X51898Y214541D01*
X55404Y213088D01*
X58088Y210404D01*
X59541Y206898D01*
X59541Y203102D01*
X58088Y199596D01*
X55404Y196912D01*
X51898Y195459D01*
X48102Y195459D01*
G37*
%LPD*%
%LPC*%
G36*
X23102Y195459D02*
X23102Y195459D01*
X19596Y196912D01*
X16912Y199596D01*
X15459Y203102D01*
X15459Y206898D01*
X16912Y210404D01*
X19596Y213088D01*
X23102Y214541D01*
X26898Y214541D01*
X30404Y213088D01*
X33088Y210404D01*
X34541Y206898D01*
X34541Y203102D01*
X33088Y199596D01*
X30404Y196912D01*
X26898Y195459D01*
X23102Y195459D01*
G37*
%LPD*%
%LPC*%
G36*
X-26898Y195459D02*
X-26898Y195459D01*
X-30404Y196912D01*
X-33088Y199596D01*
X-34541Y203102D01*
X-34541Y206898D01*
X-33088Y210404D01*
X-30404Y213088D01*
X-26898Y214541D01*
X-23102Y214541D01*
X-19596Y213088D01*
X-16912Y210404D01*
X-15459Y206898D01*
X-15459Y203102D01*
X-16912Y199596D01*
X-19596Y196912D01*
X-23102Y195459D01*
X-26898Y195459D01*
G37*
%LPD*%
%LPC*%
G36*
X-51898Y195459D02*
X-51898Y195459D01*
X-55404Y196912D01*
X-58088Y199596D01*
X-59541Y203102D01*
X-59541Y206898D01*
X-58088Y210404D01*
X-55404Y213088D01*
X-51898Y214541D01*
X-48102Y214541D01*
X-44596Y213088D01*
X-41912Y210404D01*
X-40459Y206898D01*
X-40459Y203102D01*
X-41912Y199596D01*
X-44596Y196912D01*
X-48102Y195459D01*
X-51898Y195459D01*
G37*
%LPD*%
%LPC*%
G36*
X-221898Y67959D02*
X-221898Y67959D01*
X-225404Y69412D01*
X-228088Y72096D01*
X-229541Y75602D01*
X-229541Y79398D01*
X-228088Y82904D01*
X-225404Y85588D01*
X-221898Y87041D01*
X-218102Y87041D01*
X-214596Y85588D01*
X-211912Y82904D01*
X-210459Y79398D01*
X-210459Y75602D01*
X-211912Y72096D01*
X-214596Y69412D01*
X-218102Y67959D01*
X-221898Y67959D01*
G37*
%LPD*%
%LPC*%
G36*
X220602Y67959D02*
X220602Y67959D01*
X217096Y69412D01*
X214412Y72096D01*
X212959Y75602D01*
X212959Y79398D01*
X214412Y82904D01*
X217096Y85588D01*
X220602Y87041D01*
X224398Y87041D01*
X227904Y85588D01*
X230588Y82904D01*
X232041Y79398D01*
X232041Y75602D01*
X230588Y72096D01*
X227904Y69412D01*
X224398Y67959D01*
X220602Y67959D01*
G37*
%LPD*%
%LPC*%
G36*
X143102Y67959D02*
X143102Y67959D01*
X139596Y69412D01*
X136912Y72096D01*
X135459Y75602D01*
X135459Y79398D01*
X136912Y82904D01*
X139596Y85588D01*
X143102Y87041D01*
X146898Y87041D01*
X150404Y85588D01*
X153088Y82904D01*
X154541Y79398D01*
X154541Y75602D01*
X153088Y72096D01*
X150404Y69412D01*
X146898Y67959D01*
X143102Y67959D01*
G37*
%LPD*%
%LPC*%
G36*
X118102Y67959D02*
X118102Y67959D01*
X114596Y69412D01*
X111912Y72096D01*
X110459Y75602D01*
X110459Y79398D01*
X111912Y82904D01*
X114596Y85588D01*
X118102Y87041D01*
X121898Y87041D01*
X125404Y85588D01*
X128088Y82904D01*
X129541Y79398D01*
X129541Y75602D01*
X128088Y72096D01*
X125404Y69412D01*
X121898Y67959D01*
X118102Y67959D01*
G37*
%LPD*%
%LPC*%
G36*
X65602Y67959D02*
X65602Y67959D01*
X62096Y69412D01*
X59412Y72096D01*
X57959Y75602D01*
X57959Y79398D01*
X59412Y82904D01*
X62096Y85588D01*
X65602Y87041D01*
X69398Y87041D01*
X72904Y85588D01*
X75588Y82904D01*
X77041Y79398D01*
X77041Y75602D01*
X75588Y72096D01*
X72904Y69412D01*
X69398Y67959D01*
X65602Y67959D01*
G37*
%LPD*%
%LPC*%
G36*
X40602Y67959D02*
X40602Y67959D01*
X37096Y69412D01*
X34412Y72096D01*
X32959Y75602D01*
X32959Y79398D01*
X34412Y82904D01*
X37096Y85588D01*
X40602Y87041D01*
X44398Y87041D01*
X47904Y85588D01*
X50588Y82904D01*
X52041Y79398D01*
X52041Y75602D01*
X50588Y72096D01*
X47904Y69412D01*
X44398Y67959D01*
X40602Y67959D01*
G37*
%LPD*%
%LPC*%
G36*
X-196898Y67959D02*
X-196898Y67959D01*
X-200404Y69412D01*
X-203088Y72096D01*
X-204541Y75602D01*
X-204541Y79398D01*
X-203088Y82904D01*
X-200404Y85588D01*
X-196898Y87041D01*
X-193102Y87041D01*
X-189596Y85588D01*
X-186912Y82904D01*
X-185459Y79398D01*
X-185459Y75602D01*
X-186912Y72096D01*
X-189596Y69412D01*
X-193102Y67959D01*
X-196898Y67959D01*
G37*
%LPD*%
%LPC*%
G36*
X-109398Y250459D02*
X-109398Y250459D01*
X-112904Y251912D01*
X-115588Y254596D01*
X-117041Y258102D01*
X-117041Y261898D01*
X-115588Y265404D01*
X-112904Y268088D01*
X-109398Y269541D01*
X-105602Y269541D01*
X-102096Y268088D01*
X-99412Y265404D01*
X-97959Y261898D01*
X-97959Y258102D01*
X-99412Y254596D01*
X-102096Y251912D01*
X-105602Y250459D01*
X-109398Y250459D01*
G37*
%LPD*%
%LPC*%
G36*
X-11898Y67959D02*
X-11898Y67959D01*
X-15404Y69412D01*
X-18088Y72096D01*
X-19541Y75602D01*
X-19541Y79398D01*
X-18088Y82904D01*
X-15404Y85588D01*
X-11898Y87041D01*
X-8102Y87041D01*
X-4596Y85588D01*
X-1912Y82904D01*
X-459Y79398D01*
X-459Y75602D01*
X-1912Y72096D01*
X-4596Y69412D01*
X-8102Y67959D01*
X-11898Y67959D01*
G37*
%LPD*%
%LPC*%
G36*
X-1898Y220459D02*
X-1898Y220459D01*
X-5404Y221912D01*
X-8088Y224596D01*
X-9541Y228102D01*
X-9541Y231898D01*
X-8088Y235404D01*
X-5404Y238088D01*
X-1898Y239541D01*
X1898Y239541D01*
X5404Y238088D01*
X8088Y235404D01*
X9541Y231898D01*
X9541Y228102D01*
X8088Y224596D01*
X5404Y221912D01*
X1898Y220459D01*
X-1898Y220459D01*
G37*
%LPD*%
%LPC*%
G36*
X-1898Y195459D02*
X-1898Y195459D01*
X-5404Y196912D01*
X-8088Y199596D01*
X-9541Y203102D01*
X-9541Y206898D01*
X-8088Y210404D01*
X-5404Y213088D01*
X-1898Y214541D01*
X1898Y214541D01*
X5404Y213088D01*
X8088Y210404D01*
X9541Y206898D01*
X9541Y203102D01*
X8088Y199596D01*
X5404Y196912D01*
X1898Y195459D01*
X-1898Y195459D01*
G37*
%LPD*%
%LPC*%
G36*
X-96299Y108467D02*
X-96299Y108467D01*
X-98701Y109462D01*
X-100538Y111299D01*
X-101533Y113701D01*
X-101533Y116299D01*
X-100538Y118701D01*
X-98701Y120538D01*
X-96299Y121533D01*
X-93701Y121533D01*
X-91299Y120538D01*
X-89462Y118701D01*
X-88467Y116299D01*
X-88467Y113701D01*
X-89462Y111299D01*
X-91299Y109462D01*
X-93701Y108467D01*
X-96299Y108467D01*
G37*
%LPD*%
%LPC*%
G36*
X-52271Y119099D02*
X-52271Y119099D01*
X-52211Y119479D01*
X-51716Y121000D01*
X-50990Y122425D01*
X-50050Y123719D01*
X-48919Y124850D01*
X-47625Y125790D01*
X-46200Y126516D01*
X-44679Y127011D01*
X-44299Y127071D01*
X-44299Y119099D01*
X-52271Y119099D01*
G37*
%LPD*%
%LPC*%
G36*
X157199Y119099D02*
X157199Y119099D01*
X157199Y127071D01*
X157579Y127011D01*
X159100Y126516D01*
X160525Y125790D01*
X161819Y124850D01*
X162950Y123719D01*
X163890Y122425D01*
X164616Y121000D01*
X165111Y119479D01*
X165171Y119099D01*
X157199Y119099D01*
G37*
%LPD*%
%LPC*%
G36*
X157199Y115101D02*
X157199Y115101D01*
X165171Y115101D01*
X165111Y114721D01*
X164616Y113200D01*
X163890Y111775D01*
X162950Y110481D01*
X161819Y109350D01*
X160525Y108410D01*
X159100Y107684D01*
X157579Y107189D01*
X157199Y107129D01*
X157199Y115101D01*
G37*
%LPD*%
%LPC*%
G36*
X-44679Y107189D02*
X-44679Y107189D01*
X-46200Y107684D01*
X-47625Y108410D01*
X-48919Y109350D01*
X-50050Y110481D01*
X-50990Y111775D01*
X-51716Y113200D01*
X-52211Y114721D01*
X-52271Y115101D01*
X-44299Y115101D01*
X-44299Y107129D01*
X-44679Y107189D01*
G37*
%LPD*%
%LPC*%
G36*
X145229Y119099D02*
X145229Y119099D01*
X145289Y119479D01*
X145784Y121000D01*
X146510Y122425D01*
X147450Y123719D01*
X148581Y124850D01*
X149875Y125790D01*
X151300Y126516D01*
X152821Y127011D01*
X153201Y127071D01*
X153201Y119099D01*
X145229Y119099D01*
G37*
%LPD*%
%LPC*%
G36*
X-40301Y119099D02*
X-40301Y119099D01*
X-40301Y127071D01*
X-39921Y127011D01*
X-38400Y126516D01*
X-36975Y125790D01*
X-35681Y124850D01*
X-34550Y123719D01*
X-33610Y122425D01*
X-32884Y121000D01*
X-32389Y119479D01*
X-32329Y119099D01*
X-40301Y119099D01*
G37*
%LPD*%
%LPC*%
G36*
X152821Y107189D02*
X152821Y107189D01*
X151300Y107684D01*
X149875Y108410D01*
X148581Y109350D01*
X147450Y110481D01*
X146510Y111775D01*
X145784Y113200D01*
X145289Y114721D01*
X145229Y115101D01*
X153201Y115101D01*
X153201Y107129D01*
X152821Y107189D01*
G37*
%LPD*%
%LPC*%
G36*
X-40301Y115101D02*
X-40301Y115101D01*
X-32329Y115101D01*
X-32389Y114721D01*
X-32884Y113200D01*
X-33610Y111775D01*
X-34550Y110481D01*
X-35681Y109350D01*
X-36975Y108410D01*
X-38400Y107684D01*
X-39921Y107189D01*
X-40301Y107129D01*
X-40301Y115101D01*
G37*
%LPD*%
%LPC*%
G36*
X-44890Y79499D02*
X-44890Y79499D01*
X-44833Y79861D01*
X-44342Y81370D01*
X-43622Y82784D01*
X-42689Y84067D01*
X-41567Y85189D01*
X-40284Y86122D01*
X-38870Y86842D01*
X-37361Y87333D01*
X-36999Y87390D01*
X-36999Y79499D01*
X-44890Y79499D01*
G37*
%LPD*%
%LPC*%
G36*
X199499Y79499D02*
X199499Y79499D01*
X199499Y87390D01*
X199861Y87333D01*
X201370Y86842D01*
X202784Y86122D01*
X204067Y85189D01*
X205189Y84067D01*
X206122Y82784D01*
X206842Y81370D01*
X207333Y79861D01*
X207390Y79499D01*
X199499Y79499D01*
G37*
%LPD*%
%LPC*%
G36*
X-33001Y79499D02*
X-33001Y79499D01*
X-33001Y87390D01*
X-32639Y87333D01*
X-31130Y86842D01*
X-29716Y86122D01*
X-28433Y85189D01*
X-27311Y84067D01*
X-26378Y82784D01*
X-25658Y81370D01*
X-25167Y79861D01*
X-25110Y79499D01*
X-33001Y79499D01*
G37*
%LPD*%
%LPC*%
G36*
X187610Y79499D02*
X187610Y79499D01*
X187667Y79861D01*
X188158Y81370D01*
X188878Y82784D01*
X189811Y84067D01*
X190933Y85189D01*
X192216Y86122D01*
X193630Y86842D01*
X195139Y87333D01*
X195501Y87390D01*
X195501Y79499D01*
X187610Y79499D01*
G37*
%LPD*%
%LPC*%
G36*
X199499Y75501D02*
X199499Y75501D01*
X207390Y75501D01*
X207333Y75139D01*
X206842Y73630D01*
X206122Y72216D01*
X205189Y70933D01*
X204067Y69811D01*
X202784Y68878D01*
X201370Y68158D01*
X199861Y67667D01*
X199499Y67610D01*
X199499Y75501D01*
G37*
%LPD*%
%LPC*%
G36*
X-37361Y67667D02*
X-37361Y67667D01*
X-38870Y68158D01*
X-40284Y68878D01*
X-41567Y69811D01*
X-42689Y70933D01*
X-43622Y72216D01*
X-44342Y73630D01*
X-44833Y75139D01*
X-44890Y75501D01*
X-36999Y75501D01*
X-36999Y67610D01*
X-37361Y67667D01*
G37*
%LPD*%
%LPC*%
G36*
X195139Y67667D02*
X195139Y67667D01*
X193630Y68158D01*
X192216Y68878D01*
X190933Y69811D01*
X189811Y70933D01*
X188878Y72216D01*
X188158Y73630D01*
X187667Y75139D01*
X187610Y75501D01*
X195501Y75501D01*
X195501Y67610D01*
X195139Y67667D01*
G37*
%LPD*%
%LPC*%
G36*
X-33001Y75501D02*
X-33001Y75501D01*
X-25110Y75501D01*
X-25167Y75139D01*
X-25658Y73630D01*
X-26378Y72216D01*
X-27311Y70933D01*
X-28433Y69811D01*
X-29716Y68878D01*
X-31130Y68158D01*
X-32639Y67667D01*
X-33001Y67610D01*
X-33001Y75501D01*
G37*
%LPD*%
%LPC*%
G36*
X155199Y117099D02*
X155199Y117099D01*
X155199Y117101D01*
X155201Y117101D01*
X155201Y117099D01*
X155199Y117099D01*
G37*
%LPD*%
%LPC*%
G36*
X197499Y77499D02*
X197499Y77499D01*
X197499Y77501D01*
X197501Y77501D01*
X197501Y77499D01*
X197499Y77499D01*
G37*
%LPD*%
%LPC*%
G36*
X-35001Y77499D02*
X-35001Y77499D01*
X-35001Y77501D01*
X-34999Y77501D01*
X-34999Y77499D01*
X-35001Y77499D01*
G37*
%LPD*%
%LPC*%
G36*
X-42301Y117099D02*
X-42301Y117099D01*
X-42301Y117101D01*
X-42299Y117101D01*
X-42299Y117099D01*
X-42301Y117099D01*
G37*
%LPD*%
D10*
X50000Y205000D03*
X25000Y205000D03*
X0Y205000D03*
X-25000Y205000D03*
X-50000Y205000D03*
X50000Y230000D03*
X25000Y230000D03*
X0Y230000D03*
X-25000Y230000D03*
X-50000Y230000D03*
X-35000Y77500D03*
X-10000Y77500D03*
X120000Y77500D03*
X145000Y77500D03*
X42500Y77500D03*
X67500Y77500D03*
X197500Y77500D03*
X222500Y77500D03*
D11*
X-67700Y167900D03*
X-42300Y167900D03*
X-67700Y142500D03*
X-42300Y142500D03*
X-67700Y117100D03*
X-42300Y117100D03*
X129800Y167900D03*
X155200Y167900D03*
X129800Y142500D03*
X155200Y142500D03*
X129800Y117100D03*
X155200Y117100D03*
D10*
X245000Y207500D03*
X220000Y207500D03*
X195000Y207500D03*
X170000Y207500D03*
X132500Y205000D03*
X107500Y205000D03*
X132500Y230000D03*
X107500Y230000D03*
X-132500Y260000D03*
X-107500Y260000D03*
X-220000Y77500D03*
X-195000Y77500D03*
D12*
X-87500Y42500D03*
X-137500Y42500D03*
D13*
X-95000Y115000D03*
X12500Y115000D03*
X-185000Y115000D03*
M02*
