G04 EAGLE Gerber RS-274X export*
G75*
%MOMM*%
%FSLAX34Y34*%
%LPD*%
%INBottom Copper*%
%IPPOS*%
%AMOC8*
5,1,8,0,0,1.08239X$1,22.5*%
G01*
%ADD10R,1.508000X1.508000*%
%ADD11C,1.508000*%
%ADD12P,1.649562X8X292.500000*%
%ADD13C,1.800000*%
%ADD14C,0.906400*%
%ADD15C,0.500000*%
%ADD16C,1.500000*%
%ADD17C,1.000000*%

G36*
X255046Y4007D02*
X255046Y4007D01*
X255087Y4005D01*
X256824Y4157D01*
X256918Y4178D01*
X256995Y4187D01*
X258679Y4638D01*
X258768Y4676D01*
X258843Y4697D01*
X260422Y5434D01*
X260503Y5487D01*
X260573Y5521D01*
X262001Y6521D01*
X262072Y6587D01*
X262134Y6633D01*
X263367Y7866D01*
X263425Y7943D01*
X263479Y7999D01*
X264479Y9427D01*
X264518Y9505D01*
X264563Y9572D01*
X264563Y9573D01*
X264566Y9578D01*
X265029Y10571D01*
X265029Y10572D01*
X265303Y11158D01*
X265331Y11250D01*
X265362Y11321D01*
X265813Y13005D01*
X265825Y13101D01*
X265844Y13176D01*
X265995Y14913D01*
X265993Y14959D01*
X265999Y15000D01*
X265999Y250000D01*
X265993Y250046D01*
X265995Y250087D01*
X265844Y251824D01*
X265822Y251918D01*
X265813Y251995D01*
X265362Y253679D01*
X265324Y253768D01*
X265303Y253843D01*
X264566Y255422D01*
X264513Y255503D01*
X264479Y255573D01*
X263479Y257001D01*
X263413Y257072D01*
X263367Y257134D01*
X262134Y258367D01*
X262057Y258425D01*
X262001Y258479D01*
X260573Y259479D01*
X260487Y259523D01*
X260422Y259566D01*
X258843Y260303D01*
X258750Y260331D01*
X258679Y260362D01*
X256995Y260813D01*
X256899Y260825D01*
X256824Y260844D01*
X255087Y260995D01*
X255041Y260993D01*
X255000Y260999D01*
X165044Y260999D01*
X163438Y261140D01*
X161923Y261546D01*
X160502Y262208D01*
X159217Y263108D01*
X158108Y264217D01*
X157208Y265502D01*
X156546Y266923D01*
X156140Y268438D01*
X155999Y270044D01*
X155999Y277500D01*
X155993Y277546D01*
X155995Y277587D01*
X155844Y279324D01*
X155822Y279418D01*
X155813Y279495D01*
X155362Y281179D01*
X155324Y281268D01*
X155303Y281343D01*
X154566Y282922D01*
X154513Y283003D01*
X154479Y283073D01*
X153479Y284501D01*
X153413Y284572D01*
X153367Y284634D01*
X152134Y285867D01*
X152057Y285925D01*
X152001Y285979D01*
X150573Y286979D01*
X150487Y287023D01*
X150422Y287066D01*
X148843Y287803D01*
X148750Y287831D01*
X148679Y287862D01*
X146995Y288313D01*
X146899Y288325D01*
X146824Y288344D01*
X145087Y288495D01*
X145041Y288493D01*
X145000Y288499D01*
X-145000Y288499D01*
X-145046Y288493D01*
X-145087Y288495D01*
X-146824Y288344D01*
X-146918Y288322D01*
X-146995Y288313D01*
X-148679Y287862D01*
X-148768Y287824D01*
X-148843Y287803D01*
X-150422Y287066D01*
X-150503Y287013D01*
X-150573Y286979D01*
X-152001Y285979D01*
X-152072Y285913D01*
X-152134Y285867D01*
X-153367Y284634D01*
X-153425Y284557D01*
X-153479Y284501D01*
X-154479Y283073D01*
X-154523Y282987D01*
X-154566Y282922D01*
X-154895Y282216D01*
X-155303Y281343D01*
X-155331Y281250D01*
X-155362Y281179D01*
X-155813Y279495D01*
X-155825Y279399D01*
X-155844Y279324D01*
X-155995Y277587D01*
X-155993Y277541D01*
X-155999Y277500D01*
X-155999Y270044D01*
X-156140Y268438D01*
X-156546Y266923D01*
X-156870Y266228D01*
X-157208Y265502D01*
X-158108Y264217D01*
X-159217Y263108D01*
X-160502Y262208D01*
X-161923Y261546D01*
X-163438Y261140D01*
X-165044Y260999D01*
X-255000Y260999D01*
X-255046Y260993D01*
X-255087Y260995D01*
X-256824Y260844D01*
X-256918Y260822D01*
X-256995Y260813D01*
X-258679Y260362D01*
X-258768Y260324D01*
X-258843Y260303D01*
X-260422Y259566D01*
X-260503Y259513D01*
X-260573Y259479D01*
X-262001Y258479D01*
X-262072Y258413D01*
X-262134Y258367D01*
X-263367Y257134D01*
X-263425Y257057D01*
X-263479Y257001D01*
X-264479Y255573D01*
X-264523Y255487D01*
X-264566Y255422D01*
X-264653Y255237D01*
X-264653Y255236D01*
X-265118Y254237D01*
X-265119Y254237D01*
X-265303Y253843D01*
X-265331Y253750D01*
X-265362Y253679D01*
X-265813Y251995D01*
X-265825Y251899D01*
X-265844Y251824D01*
X-265995Y250087D01*
X-265993Y250041D01*
X-265999Y250000D01*
X-265999Y15000D01*
X-265993Y14954D01*
X-265995Y14913D01*
X-265844Y13176D01*
X-265822Y13082D01*
X-265813Y13005D01*
X-265362Y11321D01*
X-265324Y11232D01*
X-265303Y11158D01*
X-264566Y9578D01*
X-264513Y9497D01*
X-264479Y9427D01*
X-263479Y7999D01*
X-263413Y7928D01*
X-263367Y7866D01*
X-262134Y6633D01*
X-262057Y6575D01*
X-262001Y6521D01*
X-260573Y5521D01*
X-260487Y5477D01*
X-260422Y5434D01*
X-258843Y4697D01*
X-258750Y4669D01*
X-258679Y4638D01*
X-256995Y4187D01*
X-256899Y4175D01*
X-256824Y4157D01*
X-255087Y4005D01*
X-255041Y4007D01*
X-255000Y4001D01*
X255000Y4001D01*
X255046Y4007D01*
G37*
%LPC*%
G36*
X34131Y67959D02*
X34131Y67959D01*
X32959Y69131D01*
X32959Y85869D01*
X34131Y87041D01*
X37000Y87041D01*
X37064Y87050D01*
X37128Y87049D01*
X37203Y87070D01*
X37279Y87081D01*
X37338Y87107D01*
X37400Y87124D01*
X37466Y87165D01*
X37536Y87197D01*
X37585Y87239D01*
X37640Y87272D01*
X37692Y87330D01*
X37750Y87380D01*
X37786Y87434D01*
X37829Y87482D01*
X37862Y87551D01*
X37905Y87616D01*
X37924Y87678D01*
X37952Y87735D01*
X37963Y87805D01*
X37987Y87886D01*
X37988Y87971D01*
X37999Y88040D01*
X37999Y150222D01*
X37986Y150317D01*
X37981Y150413D01*
X37966Y150456D01*
X37959Y150501D01*
X37920Y150589D01*
X37888Y150679D01*
X37863Y150714D01*
X37843Y150758D01*
X37760Y150855D01*
X37707Y150928D01*
X7999Y180636D01*
X7999Y196390D01*
X7986Y196484D01*
X7981Y196579D01*
X7966Y196623D01*
X7959Y196669D01*
X7920Y196756D01*
X7889Y196846D01*
X7862Y196884D01*
X7843Y196926D01*
X7781Y196998D01*
X7727Y197076D01*
X7690Y197105D01*
X7660Y197141D01*
X7580Y197193D01*
X7506Y197252D01*
X7463Y197270D01*
X7424Y197295D01*
X7333Y197323D01*
X7245Y197359D01*
X7199Y197364D01*
X7154Y197377D01*
X7059Y197379D01*
X6965Y197389D01*
X6919Y197381D01*
X6872Y197381D01*
X6781Y197356D01*
X6687Y197339D01*
X6648Y197319D01*
X6600Y197306D01*
X6493Y197240D01*
X6413Y197199D01*
X5284Y196378D01*
X3870Y195658D01*
X2361Y195167D01*
X1999Y195110D01*
X1999Y204000D01*
X1990Y204063D01*
X1991Y204128D01*
X1970Y204202D01*
X1959Y204279D01*
X1933Y204338D01*
X1916Y204400D01*
X1875Y204466D01*
X1843Y204536D01*
X1801Y204585D01*
X1768Y204640D01*
X1710Y204691D01*
X1660Y204750D01*
X1606Y204786D01*
X1558Y204829D01*
X1489Y204862D01*
X1424Y204905D01*
X1362Y204924D01*
X1305Y204952D01*
X1235Y204962D01*
X1154Y204987D01*
X1069Y204988D01*
X1000Y204999D01*
X-1Y204999D01*
X-1Y205001D01*
X1000Y205001D01*
X1064Y205010D01*
X1128Y205009D01*
X1203Y205030D01*
X1279Y205041D01*
X1338Y205067D01*
X1400Y205084D01*
X1466Y205125D01*
X1536Y205157D01*
X1585Y205199D01*
X1640Y205232D01*
X1692Y205290D01*
X1750Y205340D01*
X1786Y205394D01*
X1829Y205442D01*
X1862Y205511D01*
X1905Y205576D01*
X1924Y205638D01*
X1952Y205696D01*
X1962Y205765D01*
X1987Y205846D01*
X1988Y205931D01*
X1999Y206000D01*
X1999Y214890D01*
X2361Y214833D01*
X3870Y214342D01*
X5284Y213622D01*
X6413Y212801D01*
X6496Y212757D01*
X6576Y212705D01*
X6621Y212691D01*
X6662Y212669D01*
X6755Y212650D01*
X6846Y212623D01*
X6892Y212622D01*
X6938Y212612D01*
X7033Y212620D01*
X7128Y212619D01*
X7173Y212631D01*
X7219Y212635D01*
X7308Y212669D01*
X7400Y212694D01*
X7439Y212718D01*
X7483Y212735D01*
X7559Y212792D01*
X7640Y212842D01*
X7671Y212877D01*
X7708Y212905D01*
X7765Y212981D01*
X7829Y213051D01*
X7849Y213093D01*
X7877Y213131D01*
X7910Y213220D01*
X7952Y213305D01*
X7958Y213348D01*
X7976Y213395D01*
X7985Y213521D01*
X7999Y213610D01*
X7999Y215222D01*
X7986Y215317D01*
X7981Y215413D01*
X7966Y215456D01*
X7959Y215501D01*
X7920Y215589D01*
X7888Y215679D01*
X7863Y215714D01*
X7843Y215758D01*
X7760Y215855D01*
X7707Y215928D01*
X3274Y220361D01*
X3266Y220367D01*
X3260Y220375D01*
X3154Y220452D01*
X3048Y220531D01*
X3039Y220534D01*
X3031Y220540D01*
X2908Y220584D01*
X2784Y220630D01*
X2775Y220631D01*
X2766Y220634D01*
X2634Y220642D01*
X2503Y220652D01*
X2494Y220650D01*
X2484Y220651D01*
X2409Y220632D01*
X2227Y220594D01*
X2206Y220583D01*
X2185Y220578D01*
X1898Y220459D01*
X-1898Y220459D01*
X-5404Y221912D01*
X-8088Y224596D01*
X-9541Y228102D01*
X-9541Y231898D01*
X-8088Y235404D01*
X-5404Y238088D01*
X-1898Y239541D01*
X1898Y239541D01*
X5404Y238088D01*
X8088Y235404D01*
X9541Y231898D01*
X9541Y228102D01*
X9422Y227815D01*
X9420Y227806D01*
X9415Y227798D01*
X9384Y227669D01*
X9352Y227542D01*
X9352Y227533D01*
X9350Y227524D01*
X9357Y227391D01*
X9361Y227260D01*
X9364Y227251D01*
X9364Y227242D01*
X9408Y227117D01*
X9448Y226992D01*
X9454Y226984D01*
X9457Y226975D01*
X9502Y226913D01*
X9607Y226759D01*
X9626Y226744D01*
X9639Y226726D01*
X17001Y219364D01*
X17001Y212906D01*
X17005Y212874D01*
X17003Y212842D01*
X17025Y212735D01*
X17041Y212627D01*
X17054Y212597D01*
X17060Y212566D01*
X17112Y212469D01*
X17157Y212370D01*
X17178Y212345D01*
X17193Y212317D01*
X17269Y212238D01*
X17340Y212155D01*
X17367Y212138D01*
X17390Y212115D01*
X17485Y212061D01*
X17576Y212001D01*
X17607Y211991D01*
X17635Y211976D01*
X17741Y211950D01*
X17846Y211918D01*
X17878Y211918D01*
X17909Y211911D01*
X18019Y211916D01*
X18128Y211915D01*
X18159Y211923D01*
X18191Y211925D01*
X18294Y211961D01*
X18400Y211990D01*
X18427Y212007D01*
X18458Y212017D01*
X18531Y212071D01*
X18640Y212138D01*
X18672Y212174D01*
X18707Y212199D01*
X19596Y213088D01*
X23102Y214541D01*
X26898Y214541D01*
X30404Y213088D01*
X31293Y212199D01*
X31319Y212180D01*
X31340Y212155D01*
X31432Y212095D01*
X31519Y212030D01*
X31549Y212019D01*
X31576Y212001D01*
X31681Y211969D01*
X31783Y211930D01*
X31815Y211928D01*
X31846Y211918D01*
X31955Y211917D01*
X32064Y211909D01*
X32096Y211915D01*
X32128Y211915D01*
X32233Y211944D01*
X32340Y211966D01*
X32369Y211981D01*
X32400Y211990D01*
X32493Y212047D01*
X32589Y212099D01*
X32612Y212121D01*
X32640Y212138D01*
X32713Y212219D01*
X32791Y212295D01*
X32807Y212323D01*
X32829Y212347D01*
X32876Y212445D01*
X32930Y212541D01*
X32938Y212572D01*
X32952Y212601D01*
X32966Y212691D01*
X32995Y212815D01*
X32993Y212864D01*
X32999Y212906D01*
X32999Y215222D01*
X32986Y215317D01*
X32981Y215413D01*
X32966Y215456D01*
X32959Y215501D01*
X32920Y215589D01*
X32888Y215679D01*
X32863Y215714D01*
X32843Y215758D01*
X32760Y215855D01*
X32707Y215928D01*
X28274Y220361D01*
X28266Y220367D01*
X28260Y220375D01*
X28154Y220452D01*
X28048Y220531D01*
X28039Y220534D01*
X28031Y220540D01*
X27908Y220584D01*
X27784Y220630D01*
X27775Y220631D01*
X27766Y220634D01*
X27634Y220642D01*
X27503Y220652D01*
X27494Y220650D01*
X27484Y220651D01*
X27409Y220632D01*
X27227Y220594D01*
X27206Y220583D01*
X27185Y220578D01*
X26898Y220459D01*
X23102Y220459D01*
X19596Y221912D01*
X16912Y224596D01*
X15459Y228102D01*
X15459Y231898D01*
X16912Y235404D01*
X19596Y238088D01*
X23102Y239541D01*
X26898Y239541D01*
X30404Y238088D01*
X33088Y235404D01*
X34541Y231898D01*
X34541Y228102D01*
X34422Y227815D01*
X34420Y227806D01*
X34415Y227798D01*
X34384Y227669D01*
X34352Y227542D01*
X34352Y227533D01*
X34350Y227524D01*
X34357Y227391D01*
X34361Y227260D01*
X34364Y227251D01*
X34364Y227242D01*
X34408Y227117D01*
X34448Y226992D01*
X34454Y226984D01*
X34457Y226975D01*
X34502Y226913D01*
X34607Y226759D01*
X34626Y226744D01*
X34639Y226726D01*
X42001Y219364D01*
X42001Y215540D01*
X42010Y215476D01*
X42009Y215412D01*
X42030Y215337D01*
X42041Y215261D01*
X42067Y215202D01*
X42084Y215140D01*
X42125Y215074D01*
X42157Y215004D01*
X42199Y214955D01*
X42232Y214900D01*
X42290Y214848D01*
X42340Y214790D01*
X42394Y214754D01*
X42442Y214711D01*
X42511Y214678D01*
X42576Y214635D01*
X42638Y214616D01*
X42695Y214588D01*
X42765Y214577D01*
X42846Y214553D01*
X42931Y214552D01*
X43000Y214541D01*
X58369Y214541D01*
X59541Y213369D01*
X59541Y202238D01*
X59554Y202143D01*
X59559Y202047D01*
X59574Y202004D01*
X59581Y201959D01*
X59620Y201871D01*
X59652Y201781D01*
X59677Y201746D01*
X59697Y201702D01*
X59780Y201605D01*
X59833Y201532D01*
X86572Y174793D01*
X89501Y171864D01*
X89501Y129778D01*
X89514Y129683D01*
X89519Y129587D01*
X89534Y129544D01*
X89541Y129499D01*
X89580Y129411D01*
X89612Y129321D01*
X89637Y129286D01*
X89657Y129242D01*
X89740Y129145D01*
X89793Y129072D01*
X111572Y107293D01*
X111648Y107236D01*
X111720Y107171D01*
X111761Y107151D01*
X111797Y107124D01*
X111887Y107090D01*
X111974Y107048D01*
X112016Y107042D01*
X112061Y107025D01*
X112189Y107015D01*
X112278Y107001D01*
X123881Y107001D01*
X123913Y107005D01*
X123945Y107003D01*
X124052Y107025D01*
X124160Y107041D01*
X124190Y107054D01*
X124221Y107060D01*
X124318Y107112D01*
X124417Y107157D01*
X124442Y107178D01*
X124470Y107193D01*
X124548Y107269D01*
X124632Y107340D01*
X124649Y107367D01*
X124672Y107390D01*
X124726Y107485D01*
X124786Y107576D01*
X124795Y107607D01*
X124811Y107635D01*
X124837Y107742D01*
X124868Y107846D01*
X124869Y107878D01*
X124876Y107909D01*
X124871Y108019D01*
X124872Y108128D01*
X124864Y108159D01*
X124862Y108191D01*
X124826Y108294D01*
X124797Y108400D01*
X124780Y108427D01*
X124769Y108458D01*
X124716Y108531D01*
X124649Y108640D01*
X124613Y108672D01*
X124588Y108707D01*
X120179Y113115D01*
X120179Y121085D01*
X125007Y125912D01*
X125064Y125989D01*
X125129Y126061D01*
X125149Y126102D01*
X125176Y126138D01*
X125210Y126228D01*
X125252Y126314D01*
X125258Y126356D01*
X125275Y126402D01*
X125285Y126529D01*
X125299Y126619D01*
X125299Y132981D01*
X125286Y133076D01*
X125281Y133172D01*
X125266Y133215D01*
X125259Y133260D01*
X125220Y133348D01*
X125188Y133439D01*
X125163Y133473D01*
X125143Y133517D01*
X125060Y133615D01*
X125007Y133688D01*
X120179Y138515D01*
X120179Y146485D01*
X125007Y151312D01*
X125064Y151389D01*
X125129Y151461D01*
X125149Y151502D01*
X125176Y151538D01*
X125210Y151628D01*
X125252Y151714D01*
X125258Y151756D01*
X125275Y151802D01*
X125285Y151929D01*
X125299Y152019D01*
X125299Y158381D01*
X125286Y158476D01*
X125281Y158572D01*
X125266Y158615D01*
X125259Y158660D01*
X125220Y158748D01*
X125188Y158839D01*
X125163Y158873D01*
X125143Y158917D01*
X125060Y159015D01*
X125007Y159088D01*
X120988Y163107D01*
X120911Y163164D01*
X120839Y163229D01*
X120798Y163249D01*
X120762Y163276D01*
X120672Y163310D01*
X120586Y163352D01*
X120544Y163358D01*
X120498Y163375D01*
X120371Y163385D01*
X120281Y163399D01*
X105236Y163399D01*
X70499Y198136D01*
X70499Y215222D01*
X70486Y215317D01*
X70481Y215413D01*
X70466Y215456D01*
X70459Y215501D01*
X70420Y215589D01*
X70388Y215679D01*
X70363Y215714D01*
X70343Y215758D01*
X70260Y215855D01*
X70207Y215928D01*
X60928Y225207D01*
X60852Y225264D01*
X60780Y225329D01*
X60739Y225349D01*
X60703Y225376D01*
X60613Y225410D01*
X60526Y225452D01*
X60484Y225458D01*
X60439Y225475D01*
X60311Y225485D01*
X60222Y225499D01*
X59130Y225499D01*
X59121Y225498D01*
X59111Y225499D01*
X58981Y225478D01*
X58851Y225459D01*
X58842Y225456D01*
X58833Y225454D01*
X58714Y225397D01*
X58594Y225343D01*
X58587Y225337D01*
X58578Y225333D01*
X58480Y225245D01*
X58380Y225160D01*
X58375Y225152D01*
X58367Y225146D01*
X58327Y225080D01*
X58225Y224924D01*
X58218Y224901D01*
X58207Y224882D01*
X58088Y224596D01*
X55404Y221912D01*
X51898Y220459D01*
X48102Y220459D01*
X44596Y221912D01*
X41912Y224596D01*
X40459Y228102D01*
X40459Y231898D01*
X41912Y235404D01*
X44596Y238088D01*
X48102Y239541D01*
X51898Y239541D01*
X55404Y238088D01*
X58088Y235404D01*
X58207Y235118D01*
X58212Y235109D01*
X58214Y235100D01*
X58284Y234988D01*
X58351Y234875D01*
X58358Y234868D01*
X58363Y234860D01*
X58460Y234772D01*
X58556Y234682D01*
X58565Y234678D01*
X58572Y234671D01*
X58691Y234614D01*
X58808Y234554D01*
X58817Y234552D01*
X58826Y234548D01*
X58902Y234536D01*
X59085Y234502D01*
X59109Y234504D01*
X59130Y234501D01*
X64364Y234501D01*
X79501Y219364D01*
X79501Y202278D01*
X79514Y202183D01*
X79519Y202087D01*
X79534Y202044D01*
X79541Y201999D01*
X79580Y201911D01*
X79612Y201821D01*
X79637Y201786D01*
X79657Y201742D01*
X79740Y201645D01*
X79793Y201572D01*
X108672Y172693D01*
X108748Y172636D01*
X108820Y172571D01*
X108861Y172551D01*
X108897Y172524D01*
X108987Y172490D01*
X109074Y172448D01*
X109116Y172442D01*
X109161Y172425D01*
X109289Y172415D01*
X109378Y172401D01*
X120281Y172401D01*
X120376Y172414D01*
X120472Y172419D01*
X120515Y172434D01*
X120560Y172441D01*
X120648Y172480D01*
X120739Y172512D01*
X120773Y172537D01*
X120817Y172557D01*
X120914Y172640D01*
X120988Y172693D01*
X124588Y176293D01*
X124607Y176319D01*
X124632Y176340D01*
X124691Y176432D01*
X124757Y176519D01*
X124768Y176549D01*
X124786Y176576D01*
X124818Y176681D01*
X124857Y176783D01*
X124859Y176815D01*
X124868Y176846D01*
X124870Y176955D01*
X124878Y177064D01*
X124872Y177096D01*
X124872Y177128D01*
X124843Y177233D01*
X124821Y177340D01*
X124806Y177369D01*
X124797Y177400D01*
X124740Y177493D01*
X124688Y177589D01*
X124666Y177612D01*
X124649Y177640D01*
X124568Y177713D01*
X124491Y177791D01*
X124463Y177807D01*
X124440Y177829D01*
X124341Y177876D01*
X124246Y177930D01*
X124215Y177938D01*
X124186Y177952D01*
X124096Y177966D01*
X123972Y177995D01*
X123923Y177993D01*
X123881Y177999D01*
X113607Y177999D01*
X111034Y179065D01*
X101565Y188534D01*
X100499Y191107D01*
X100499Y198094D01*
X100486Y198189D01*
X100481Y198285D01*
X100466Y198328D01*
X100459Y198373D01*
X100420Y198461D01*
X100388Y198552D01*
X100363Y198586D01*
X100343Y198630D01*
X100260Y198728D01*
X100207Y198801D01*
X99412Y199596D01*
X97959Y203102D01*
X97959Y206898D01*
X99412Y210404D01*
X102096Y213088D01*
X105602Y214541D01*
X109398Y214541D01*
X112904Y213088D01*
X115588Y210404D01*
X117041Y206898D01*
X117041Y203102D01*
X115588Y199596D01*
X114793Y198801D01*
X114736Y198724D01*
X114671Y198653D01*
X114651Y198612D01*
X114624Y198575D01*
X114590Y198485D01*
X114548Y198399D01*
X114542Y198357D01*
X114525Y198311D01*
X114515Y198184D01*
X114501Y198094D01*
X114501Y195814D01*
X114509Y195754D01*
X114509Y195729D01*
X114515Y195708D01*
X114519Y195623D01*
X114534Y195579D01*
X114541Y195534D01*
X114580Y195447D01*
X114612Y195356D01*
X114637Y195322D01*
X114657Y195278D01*
X114740Y195180D01*
X114793Y195107D01*
X117607Y192293D01*
X117684Y192236D01*
X117755Y192171D01*
X117796Y192151D01*
X117833Y192124D01*
X117923Y192090D01*
X118009Y192048D01*
X118051Y192042D01*
X118097Y192025D01*
X118224Y192015D01*
X118314Y192001D01*
X171686Y192001D01*
X171781Y192014D01*
X171877Y192019D01*
X171921Y192034D01*
X171966Y192041D01*
X172053Y192080D01*
X172144Y192112D01*
X172178Y192137D01*
X172222Y192157D01*
X172320Y192240D01*
X172393Y192293D01*
X185167Y205067D01*
X185224Y205144D01*
X185289Y205215D01*
X185309Y205256D01*
X185336Y205293D01*
X185370Y205383D01*
X185412Y205469D01*
X185418Y205511D01*
X185435Y205557D01*
X185445Y205684D01*
X185447Y205693D01*
X185447Y205695D01*
X185447Y205697D01*
X185459Y205774D01*
X185459Y209398D01*
X186912Y212904D01*
X189596Y215588D01*
X193102Y217041D01*
X196898Y217041D01*
X200404Y215588D01*
X203088Y212904D01*
X204541Y209398D01*
X204541Y205602D01*
X203088Y202096D01*
X200404Y199412D01*
X198724Y198716D01*
X198688Y198694D01*
X198648Y198681D01*
X198579Y198630D01*
X198481Y198572D01*
X198441Y198529D01*
X198399Y198499D01*
X178966Y179065D01*
X176393Y177999D01*
X161119Y177999D01*
X161087Y177995D01*
X161055Y177997D01*
X160948Y177975D01*
X160840Y177959D01*
X160810Y177946D01*
X160779Y177940D01*
X160682Y177888D01*
X160583Y177843D01*
X160558Y177822D01*
X160530Y177807D01*
X160452Y177731D01*
X160368Y177660D01*
X160351Y177633D01*
X160328Y177610D01*
X160274Y177515D01*
X160214Y177424D01*
X160205Y177393D01*
X160189Y177365D01*
X160163Y177258D01*
X160132Y177154D01*
X160131Y177122D01*
X160124Y177091D01*
X160129Y176981D01*
X160128Y176872D01*
X160136Y176841D01*
X160138Y176809D01*
X160174Y176706D01*
X160203Y176600D01*
X160220Y176573D01*
X160231Y176542D01*
X160284Y176469D01*
X160351Y176360D01*
X160387Y176328D01*
X160412Y176293D01*
X164821Y171885D01*
X164821Y163915D01*
X159185Y158279D01*
X151215Y158279D01*
X145579Y163915D01*
X145579Y171885D01*
X149988Y176293D01*
X150007Y176319D01*
X150032Y176340D01*
X150091Y176432D01*
X150157Y176519D01*
X150168Y176549D01*
X150186Y176576D01*
X150218Y176681D01*
X150257Y176783D01*
X150259Y176815D01*
X150268Y176846D01*
X150270Y176955D01*
X150278Y177064D01*
X150272Y177096D01*
X150272Y177128D01*
X150243Y177233D01*
X150221Y177340D01*
X150206Y177369D01*
X150197Y177400D01*
X150140Y177493D01*
X150088Y177589D01*
X150066Y177612D01*
X150049Y177640D01*
X149968Y177713D01*
X149891Y177791D01*
X149863Y177807D01*
X149840Y177829D01*
X149741Y177876D01*
X149646Y177930D01*
X149615Y177938D01*
X149586Y177952D01*
X149496Y177966D01*
X149372Y177995D01*
X149323Y177993D01*
X149281Y177999D01*
X135719Y177999D01*
X135687Y177995D01*
X135655Y177997D01*
X135548Y177975D01*
X135440Y177959D01*
X135410Y177946D01*
X135379Y177940D01*
X135282Y177888D01*
X135183Y177843D01*
X135158Y177822D01*
X135130Y177807D01*
X135052Y177731D01*
X134968Y177660D01*
X134951Y177633D01*
X134928Y177610D01*
X134874Y177515D01*
X134814Y177424D01*
X134805Y177393D01*
X134789Y177365D01*
X134763Y177258D01*
X134732Y177154D01*
X134731Y177122D01*
X134724Y177091D01*
X134729Y176981D01*
X134728Y176872D01*
X134736Y176841D01*
X134738Y176809D01*
X134774Y176706D01*
X134803Y176600D01*
X134820Y176573D01*
X134831Y176542D01*
X134884Y176469D01*
X134951Y176360D01*
X134987Y176328D01*
X135012Y176293D01*
X139421Y171885D01*
X139421Y163915D01*
X134593Y159088D01*
X134536Y159011D01*
X134471Y158939D01*
X134451Y158898D01*
X134424Y158862D01*
X134390Y158772D01*
X134348Y158686D01*
X134342Y158644D01*
X134325Y158598D01*
X134315Y158471D01*
X134301Y158381D01*
X134301Y152019D01*
X134314Y151924D01*
X134319Y151828D01*
X134334Y151785D01*
X134341Y151740D01*
X134380Y151652D01*
X134412Y151561D01*
X134437Y151527D01*
X134457Y151483D01*
X134540Y151385D01*
X134593Y151312D01*
X139421Y146485D01*
X139421Y138515D01*
X134593Y133688D01*
X134536Y133611D01*
X134471Y133539D01*
X134451Y133498D01*
X134424Y133462D01*
X134390Y133372D01*
X134348Y133286D01*
X134342Y133244D01*
X134325Y133198D01*
X134315Y133071D01*
X134313Y133059D01*
X134313Y133058D01*
X134301Y132981D01*
X134301Y126619D01*
X134314Y126524D01*
X134319Y126428D01*
X134334Y126385D01*
X134341Y126340D01*
X134380Y126252D01*
X134412Y126161D01*
X134437Y126127D01*
X134457Y126083D01*
X134540Y125985D01*
X134593Y125912D01*
X139421Y121085D01*
X139421Y113115D01*
X135012Y108707D01*
X134993Y108681D01*
X134968Y108660D01*
X134909Y108568D01*
X134843Y108481D01*
X134832Y108451D01*
X134814Y108424D01*
X134782Y108319D01*
X134743Y108217D01*
X134741Y108185D01*
X134732Y108154D01*
X134730Y108045D01*
X134722Y107936D01*
X134728Y107904D01*
X134728Y107872D01*
X134757Y107767D01*
X134779Y107660D01*
X134794Y107631D01*
X134803Y107600D01*
X134860Y107507D01*
X134912Y107411D01*
X134934Y107388D01*
X134951Y107360D01*
X135032Y107287D01*
X135109Y107209D01*
X135137Y107193D01*
X135160Y107171D01*
X135259Y107124D01*
X135354Y107070D01*
X135385Y107062D01*
X135414Y107048D01*
X135504Y107034D01*
X135628Y107005D01*
X135677Y107007D01*
X135719Y107001D01*
X139364Y107001D01*
X146572Y99793D01*
X146648Y99736D01*
X146720Y99671D01*
X146761Y99651D01*
X146797Y99624D01*
X146887Y99590D01*
X146974Y99548D01*
X147016Y99542D01*
X147061Y99525D01*
X147189Y99515D01*
X147278Y99501D01*
X214364Y99501D01*
X227001Y86864D01*
X227001Y86630D01*
X227002Y86621D01*
X227001Y86611D01*
X227022Y86481D01*
X227041Y86351D01*
X227044Y86342D01*
X227046Y86333D01*
X227103Y86214D01*
X227157Y86094D01*
X227163Y86087D01*
X227167Y86078D01*
X227255Y85979D01*
X227340Y85880D01*
X227348Y85875D01*
X227354Y85867D01*
X227420Y85827D01*
X227576Y85725D01*
X227599Y85718D01*
X227618Y85707D01*
X227904Y85588D01*
X230588Y82904D01*
X232041Y79398D01*
X232041Y75602D01*
X230588Y72096D01*
X227904Y69412D01*
X224398Y67959D01*
X220602Y67959D01*
X217096Y69412D01*
X214412Y72096D01*
X212959Y75602D01*
X212959Y79398D01*
X214412Y82904D01*
X215615Y84107D01*
X215653Y84159D01*
X215699Y84203D01*
X215737Y84271D01*
X215784Y84333D01*
X215807Y84393D01*
X215838Y84449D01*
X215856Y84524D01*
X215883Y84597D01*
X215888Y84661D01*
X215903Y84723D01*
X215899Y84801D01*
X215905Y84878D01*
X215892Y84941D01*
X215889Y85005D01*
X215863Y85078D01*
X215848Y85154D01*
X215817Y85211D01*
X215796Y85271D01*
X215755Y85328D01*
X215715Y85403D01*
X215656Y85464D01*
X215615Y85520D01*
X210928Y90207D01*
X210851Y90264D01*
X210780Y90329D01*
X210739Y90349D01*
X210703Y90376D01*
X210613Y90410D01*
X210526Y90452D01*
X210484Y90458D01*
X210439Y90475D01*
X210311Y90485D01*
X210222Y90499D01*
X143136Y90499D01*
X135928Y97707D01*
X135852Y97764D01*
X135780Y97829D01*
X135739Y97849D01*
X135703Y97876D01*
X135613Y97910D01*
X135526Y97952D01*
X135484Y97958D01*
X135439Y97975D01*
X135311Y97985D01*
X135222Y97999D01*
X133278Y97999D01*
X133246Y97995D01*
X133214Y97997D01*
X133107Y97975D01*
X132999Y97959D01*
X132970Y97946D01*
X132938Y97940D01*
X132842Y97888D01*
X132742Y97843D01*
X132717Y97822D01*
X132689Y97807D01*
X132611Y97731D01*
X132528Y97660D01*
X132510Y97633D01*
X132487Y97610D01*
X132433Y97515D01*
X132373Y97424D01*
X132364Y97393D01*
X132348Y97365D01*
X132323Y97259D01*
X132291Y97154D01*
X132290Y97122D01*
X132283Y97091D01*
X132289Y96981D01*
X132287Y96872D01*
X132296Y96841D01*
X132297Y96809D01*
X132333Y96706D01*
X132362Y96600D01*
X132379Y96573D01*
X132390Y96542D01*
X132443Y96469D01*
X132510Y96360D01*
X132546Y96328D01*
X132572Y96293D01*
X134793Y94072D01*
X134794Y94071D01*
X141726Y87139D01*
X141734Y87133D01*
X141740Y87125D01*
X141847Y87048D01*
X141952Y86969D01*
X141961Y86966D01*
X141969Y86960D01*
X142092Y86916D01*
X142216Y86870D01*
X142225Y86869D01*
X142234Y86866D01*
X142366Y86858D01*
X142497Y86848D01*
X142506Y86850D01*
X142516Y86849D01*
X142591Y86868D01*
X142773Y86906D01*
X142794Y86917D01*
X142815Y86922D01*
X143102Y87041D01*
X146898Y87041D01*
X150404Y85588D01*
X153088Y82904D01*
X154541Y79398D01*
X154541Y75602D01*
X153088Y72096D01*
X150404Y69412D01*
X146898Y67959D01*
X143102Y67959D01*
X139596Y69412D01*
X136912Y72096D01*
X135459Y75602D01*
X135459Y79398D01*
X135578Y79685D01*
X135580Y79694D01*
X135585Y79702D01*
X135616Y79831D01*
X135648Y79958D01*
X135648Y79967D01*
X135650Y79976D01*
X135643Y80109D01*
X135639Y80240D01*
X135636Y80249D01*
X135636Y80258D01*
X135592Y80383D01*
X135552Y80508D01*
X135546Y80516D01*
X135543Y80525D01*
X135498Y80587D01*
X135393Y80741D01*
X135374Y80756D01*
X135361Y80774D01*
X131247Y84888D01*
X131221Y84908D01*
X131200Y84932D01*
X131108Y84992D01*
X131021Y85058D01*
X130991Y85069D01*
X130964Y85087D01*
X130859Y85119D01*
X130757Y85157D01*
X130725Y85160D01*
X130694Y85169D01*
X130585Y85171D01*
X130476Y85179D01*
X130444Y85172D01*
X130412Y85173D01*
X130307Y85144D01*
X130200Y85121D01*
X130171Y85106D01*
X130140Y85098D01*
X130047Y85040D01*
X129951Y84989D01*
X129928Y84967D01*
X129900Y84950D01*
X129827Y84868D01*
X129749Y84792D01*
X129733Y84764D01*
X129711Y84740D01*
X129664Y84642D01*
X129610Y84547D01*
X129602Y84515D01*
X129588Y84486D01*
X129574Y84397D01*
X129545Y84272D01*
X129547Y84224D01*
X129541Y84182D01*
X129541Y69131D01*
X128369Y67959D01*
X111631Y67959D01*
X110459Y69131D01*
X110459Y72000D01*
X110451Y72059D01*
X110451Y72078D01*
X110450Y72080D01*
X110451Y72128D01*
X110430Y72203D01*
X110419Y72279D01*
X110393Y72338D01*
X110376Y72400D01*
X110335Y72466D01*
X110303Y72536D01*
X110261Y72585D01*
X110228Y72640D01*
X110170Y72692D01*
X110120Y72750D01*
X110066Y72786D01*
X110018Y72829D01*
X109949Y72862D01*
X109884Y72905D01*
X109822Y72924D01*
X109765Y72952D01*
X109695Y72963D01*
X109614Y72987D01*
X109529Y72988D01*
X109460Y72999D01*
X98136Y72999D01*
X50499Y120636D01*
X50499Y157722D01*
X50486Y157817D01*
X50481Y157913D01*
X50466Y157956D01*
X50459Y158001D01*
X50420Y158089D01*
X50388Y158179D01*
X50363Y158214D01*
X50343Y158258D01*
X50260Y158355D01*
X50207Y158428D01*
X20499Y188136D01*
X20499Y195870D01*
X20498Y195879D01*
X20499Y195889D01*
X20490Y195942D01*
X20491Y195985D01*
X20474Y196045D01*
X20459Y196149D01*
X20456Y196158D01*
X20454Y196167D01*
X20422Y196235D01*
X20416Y196256D01*
X20397Y196287D01*
X20343Y196406D01*
X20337Y196413D01*
X20333Y196422D01*
X20270Y196492D01*
X20268Y196496D01*
X20262Y196501D01*
X20245Y196520D01*
X20160Y196620D01*
X20152Y196625D01*
X20146Y196633D01*
X20080Y196673D01*
X19924Y196775D01*
X19901Y196782D01*
X19882Y196793D01*
X19596Y196912D01*
X18707Y197801D01*
X18681Y197820D01*
X18660Y197845D01*
X18568Y197905D01*
X18481Y197970D01*
X18451Y197981D01*
X18424Y197999D01*
X18319Y198031D01*
X18217Y198070D01*
X18185Y198072D01*
X18154Y198082D01*
X18045Y198083D01*
X17936Y198091D01*
X17904Y198085D01*
X17872Y198085D01*
X17767Y198056D01*
X17660Y198034D01*
X17631Y198019D01*
X17600Y198010D01*
X17507Y197953D01*
X17411Y197901D01*
X17388Y197879D01*
X17360Y197862D01*
X17287Y197781D01*
X17209Y197705D01*
X17193Y197677D01*
X17171Y197653D01*
X17124Y197555D01*
X17070Y197459D01*
X17062Y197428D01*
X17048Y197399D01*
X17034Y197309D01*
X17005Y197185D01*
X17007Y197136D01*
X17001Y197094D01*
X17001Y184778D01*
X17014Y184683D01*
X17019Y184587D01*
X17034Y184544D01*
X17041Y184499D01*
X17080Y184411D01*
X17112Y184321D01*
X17137Y184286D01*
X17157Y184242D01*
X17240Y184145D01*
X17293Y184072D01*
X47001Y154364D01*
X47001Y88040D01*
X47010Y87976D01*
X47009Y87912D01*
X47030Y87837D01*
X47041Y87761D01*
X47067Y87702D01*
X47084Y87640D01*
X47125Y87574D01*
X47157Y87504D01*
X47199Y87455D01*
X47232Y87400D01*
X47290Y87348D01*
X47340Y87290D01*
X47394Y87254D01*
X47442Y87211D01*
X47511Y87178D01*
X47576Y87135D01*
X47638Y87116D01*
X47695Y87088D01*
X47765Y87077D01*
X47846Y87053D01*
X47931Y87052D01*
X48000Y87041D01*
X50869Y87041D01*
X52041Y85869D01*
X52041Y69131D01*
X50869Y67959D01*
X34131Y67959D01*
G37*
%LPD*%
%LPC*%
G36*
X-89688Y31499D02*
X-89688Y31499D01*
X-93731Y33174D01*
X-96826Y36269D01*
X-98250Y39706D01*
X-98271Y39742D01*
X-98285Y39782D01*
X-98336Y39851D01*
X-98394Y39949D01*
X-98436Y39989D01*
X-98467Y40030D01*
X-120241Y61805D01*
X-123054Y64618D01*
X-124501Y68110D01*
X-124501Y174390D01*
X-123054Y177882D01*
X-120241Y180695D01*
X-90695Y210241D01*
X-87882Y213054D01*
X-84390Y214501D01*
X-52193Y214501D01*
X-52152Y214507D01*
X-52110Y214504D01*
X-52026Y214524D01*
X-51914Y214541D01*
X-51913Y214541D01*
X-48102Y214541D01*
X-44596Y213088D01*
X-43707Y212199D01*
X-43681Y212180D01*
X-43660Y212155D01*
X-43568Y212095D01*
X-43481Y212030D01*
X-43451Y212019D01*
X-43424Y212001D01*
X-43319Y211969D01*
X-43217Y211930D01*
X-43185Y211928D01*
X-43154Y211918D01*
X-43045Y211917D01*
X-42936Y211909D01*
X-42904Y211915D01*
X-42872Y211915D01*
X-42767Y211944D01*
X-42660Y211966D01*
X-42631Y211981D01*
X-42600Y211990D01*
X-42507Y212047D01*
X-42411Y212099D01*
X-42388Y212121D01*
X-42360Y212138D01*
X-42287Y212219D01*
X-42209Y212295D01*
X-42193Y212323D01*
X-42171Y212347D01*
X-42124Y212445D01*
X-42070Y212541D01*
X-42062Y212572D01*
X-42048Y212601D01*
X-42034Y212691D01*
X-42005Y212815D01*
X-42007Y212864D01*
X-42001Y212906D01*
X-42001Y219364D01*
X-34639Y226726D01*
X-34633Y226734D01*
X-34625Y226740D01*
X-34548Y226847D01*
X-34469Y226952D01*
X-34466Y226961D01*
X-34460Y226969D01*
X-34416Y227092D01*
X-34370Y227216D01*
X-34369Y227225D01*
X-34366Y227234D01*
X-34358Y227366D01*
X-34348Y227497D01*
X-34350Y227506D01*
X-34349Y227516D01*
X-34368Y227591D01*
X-34406Y227773D01*
X-34417Y227794D01*
X-34422Y227815D01*
X-34541Y228102D01*
X-34541Y231898D01*
X-33088Y235404D01*
X-30404Y238088D01*
X-26898Y239541D01*
X-23102Y239541D01*
X-19596Y238088D01*
X-16912Y235404D01*
X-15459Y231898D01*
X-15459Y228102D01*
X-16912Y224596D01*
X-19596Y221912D01*
X-23102Y220459D01*
X-26898Y220459D01*
X-27185Y220578D01*
X-27194Y220580D01*
X-27202Y220585D01*
X-27331Y220616D01*
X-27458Y220648D01*
X-27467Y220648D01*
X-27476Y220650D01*
X-27609Y220643D01*
X-27740Y220639D01*
X-27749Y220636D01*
X-27758Y220636D01*
X-27883Y220592D01*
X-28008Y220552D01*
X-28016Y220546D01*
X-28025Y220543D01*
X-28087Y220498D01*
X-28241Y220393D01*
X-28256Y220374D01*
X-28274Y220361D01*
X-32707Y215928D01*
X-32764Y215851D01*
X-32829Y215780D01*
X-32849Y215739D01*
X-32876Y215703D01*
X-32910Y215613D01*
X-32952Y215526D01*
X-32958Y215484D01*
X-32975Y215439D01*
X-32985Y215311D01*
X-32999Y215222D01*
X-32999Y212906D01*
X-32995Y212874D01*
X-32997Y212842D01*
X-32975Y212735D01*
X-32959Y212627D01*
X-32946Y212597D01*
X-32940Y212566D01*
X-32888Y212469D01*
X-32843Y212370D01*
X-32822Y212345D01*
X-32807Y212317D01*
X-32731Y212238D01*
X-32660Y212155D01*
X-32633Y212138D01*
X-32610Y212115D01*
X-32515Y212061D01*
X-32424Y212001D01*
X-32393Y211991D01*
X-32365Y211976D01*
X-32259Y211950D01*
X-32154Y211918D01*
X-32122Y211918D01*
X-32091Y211911D01*
X-31981Y211916D01*
X-31872Y211915D01*
X-31841Y211923D01*
X-31809Y211925D01*
X-31706Y211961D01*
X-31600Y211990D01*
X-31573Y212007D01*
X-31542Y212017D01*
X-31469Y212071D01*
X-31360Y212138D01*
X-31328Y212174D01*
X-31293Y212199D01*
X-30404Y213088D01*
X-26898Y214541D01*
X-23102Y214541D01*
X-19596Y213088D01*
X-16912Y210404D01*
X-15459Y206898D01*
X-15459Y203102D01*
X-15578Y202815D01*
X-15580Y202806D01*
X-15585Y202798D01*
X-15616Y202669D01*
X-15648Y202542D01*
X-15648Y202533D01*
X-15650Y202524D01*
X-15643Y202391D01*
X-15639Y202260D01*
X-15636Y202251D01*
X-15636Y202242D01*
X-15592Y202117D01*
X-15552Y201992D01*
X-15546Y201984D01*
X-15543Y201975D01*
X-15498Y201913D01*
X-15393Y201759D01*
X-15374Y201744D01*
X-15361Y201726D01*
X-5499Y191864D01*
X-5499Y86630D01*
X-5498Y86621D01*
X-5499Y86611D01*
X-5478Y86481D01*
X-5459Y86351D01*
X-5456Y86342D01*
X-5454Y86333D01*
X-5397Y86214D01*
X-5343Y86094D01*
X-5337Y86087D01*
X-5333Y86078D01*
X-5245Y85979D01*
X-5160Y85880D01*
X-5152Y85875D01*
X-5146Y85867D01*
X-5080Y85827D01*
X-4924Y85725D01*
X-4901Y85718D01*
X-4882Y85707D01*
X-4596Y85588D01*
X-1912Y82904D01*
X-459Y79398D01*
X-459Y75602D01*
X-1912Y72096D01*
X-4596Y69412D01*
X-8102Y67959D01*
X-11898Y67959D01*
X-15404Y69412D01*
X-18088Y72096D01*
X-19541Y75602D01*
X-19541Y79398D01*
X-18088Y82904D01*
X-15404Y85588D01*
X-15118Y85707D01*
X-15109Y85712D01*
X-15100Y85714D01*
X-14988Y85784D01*
X-14875Y85851D01*
X-14868Y85858D01*
X-14860Y85863D01*
X-14772Y85960D01*
X-14682Y86056D01*
X-14678Y86065D01*
X-14671Y86072D01*
X-14614Y86191D01*
X-14554Y86308D01*
X-14552Y86317D01*
X-14548Y86326D01*
X-14536Y86402D01*
X-14502Y86585D01*
X-14504Y86609D01*
X-14501Y86630D01*
X-14501Y187722D01*
X-14514Y187817D01*
X-14519Y187913D01*
X-14534Y187956D01*
X-14541Y188001D01*
X-14580Y188089D01*
X-14612Y188179D01*
X-14637Y188214D01*
X-14657Y188258D01*
X-14740Y188355D01*
X-14793Y188428D01*
X-21726Y195361D01*
X-21734Y195367D01*
X-21740Y195375D01*
X-21847Y195452D01*
X-21952Y195531D01*
X-21961Y195534D01*
X-21969Y195540D01*
X-22092Y195584D01*
X-22216Y195630D01*
X-22225Y195631D01*
X-22234Y195634D01*
X-22366Y195642D01*
X-22497Y195652D01*
X-22506Y195650D01*
X-22516Y195651D01*
X-22591Y195632D01*
X-22773Y195594D01*
X-22794Y195583D01*
X-22815Y195578D01*
X-23102Y195459D01*
X-26898Y195459D01*
X-30404Y196912D01*
X-31293Y197801D01*
X-31319Y197820D01*
X-31340Y197845D01*
X-31432Y197905D01*
X-31519Y197970D01*
X-31549Y197981D01*
X-31576Y197999D01*
X-31681Y198031D01*
X-31783Y198070D01*
X-31815Y198072D01*
X-31846Y198082D01*
X-31955Y198083D01*
X-32064Y198091D01*
X-32096Y198085D01*
X-32128Y198085D01*
X-32233Y198056D01*
X-32340Y198034D01*
X-32369Y198019D01*
X-32400Y198010D01*
X-32493Y197953D01*
X-32589Y197901D01*
X-32612Y197879D01*
X-32640Y197862D01*
X-32713Y197781D01*
X-32791Y197705D01*
X-32807Y197677D01*
X-32829Y197653D01*
X-32876Y197555D01*
X-32930Y197459D01*
X-32938Y197428D01*
X-32952Y197399D01*
X-32966Y197309D01*
X-32995Y197185D01*
X-32993Y197136D01*
X-32999Y197094D01*
X-32999Y196236D01*
X-57787Y171448D01*
X-57844Y171372D01*
X-57909Y171300D01*
X-57929Y171259D01*
X-57956Y171223D01*
X-57990Y171133D01*
X-58032Y171046D01*
X-58038Y171004D01*
X-58055Y170959D01*
X-58065Y170831D01*
X-58079Y170742D01*
X-58079Y163915D01*
X-62907Y159088D01*
X-62964Y159011D01*
X-63029Y158939D01*
X-63049Y158898D01*
X-63076Y158862D01*
X-63110Y158772D01*
X-63152Y158686D01*
X-63158Y158644D01*
X-63175Y158598D01*
X-63185Y158471D01*
X-63199Y158381D01*
X-63199Y152019D01*
X-63186Y151924D01*
X-63181Y151828D01*
X-63166Y151785D01*
X-63159Y151740D01*
X-63120Y151652D01*
X-63088Y151561D01*
X-63063Y151527D01*
X-63043Y151483D01*
X-62960Y151385D01*
X-62907Y151312D01*
X-58079Y146485D01*
X-58079Y138515D01*
X-62907Y133688D01*
X-62964Y133611D01*
X-63029Y133539D01*
X-63049Y133498D01*
X-63076Y133462D01*
X-63110Y133372D01*
X-63152Y133286D01*
X-63158Y133244D01*
X-63175Y133198D01*
X-63185Y133071D01*
X-63187Y133059D01*
X-63187Y133058D01*
X-63199Y132981D01*
X-63199Y126619D01*
X-63186Y126524D01*
X-63181Y126428D01*
X-63166Y126385D01*
X-63159Y126340D01*
X-63120Y126252D01*
X-63088Y126161D01*
X-63063Y126127D01*
X-63043Y126083D01*
X-62960Y125985D01*
X-62907Y125912D01*
X-58079Y121085D01*
X-58079Y113115D01*
X-63715Y107479D01*
X-71685Y107479D01*
X-77321Y113115D01*
X-77321Y121085D01*
X-72493Y125912D01*
X-72436Y125989D01*
X-72371Y126061D01*
X-72351Y126102D01*
X-72324Y126138D01*
X-72290Y126228D01*
X-72248Y126314D01*
X-72242Y126356D01*
X-72225Y126402D01*
X-72215Y126529D01*
X-72201Y126619D01*
X-72201Y132981D01*
X-72214Y133076D01*
X-72219Y133172D01*
X-72234Y133215D01*
X-72241Y133260D01*
X-72280Y133348D01*
X-72312Y133439D01*
X-72337Y133473D01*
X-72357Y133517D01*
X-72440Y133615D01*
X-72493Y133688D01*
X-77321Y138515D01*
X-77321Y146485D01*
X-72493Y151312D01*
X-72436Y151389D01*
X-72371Y151461D01*
X-72351Y151502D01*
X-72324Y151538D01*
X-72290Y151628D01*
X-72248Y151714D01*
X-72242Y151756D01*
X-72225Y151802D01*
X-72215Y151929D01*
X-72201Y152019D01*
X-72201Y158381D01*
X-72214Y158476D01*
X-72219Y158572D01*
X-72234Y158615D01*
X-72241Y158660D01*
X-72280Y158748D01*
X-72312Y158839D01*
X-72337Y158873D01*
X-72357Y158917D01*
X-72440Y159015D01*
X-72493Y159088D01*
X-77321Y163915D01*
X-77321Y171885D01*
X-71685Y177521D01*
X-64858Y177521D01*
X-64763Y177534D01*
X-64667Y177539D01*
X-64624Y177554D01*
X-64579Y177561D01*
X-64491Y177600D01*
X-64401Y177632D01*
X-64366Y177657D01*
X-64322Y177677D01*
X-64225Y177760D01*
X-64152Y177813D01*
X-48212Y193753D01*
X-48192Y193779D01*
X-48168Y193800D01*
X-48108Y193892D01*
X-48042Y193979D01*
X-48031Y194009D01*
X-48013Y194036D01*
X-47981Y194141D01*
X-47943Y194243D01*
X-47940Y194275D01*
X-47931Y194306D01*
X-47929Y194415D01*
X-47921Y194524D01*
X-47928Y194556D01*
X-47927Y194588D01*
X-47956Y194693D01*
X-47979Y194800D01*
X-47994Y194829D01*
X-48002Y194860D01*
X-48060Y194953D01*
X-48111Y195049D01*
X-48133Y195072D01*
X-48150Y195100D01*
X-48232Y195173D01*
X-48308Y195251D01*
X-48336Y195267D01*
X-48360Y195289D01*
X-48458Y195336D01*
X-48553Y195390D01*
X-48585Y195398D01*
X-48614Y195412D01*
X-48703Y195426D01*
X-48828Y195455D01*
X-48876Y195453D01*
X-48918Y195459D01*
X-51937Y195459D01*
X-51974Y195465D01*
X-52084Y195493D01*
X-52143Y195491D01*
X-52193Y195499D01*
X-78151Y195499D01*
X-78246Y195486D01*
X-78342Y195481D01*
X-78385Y195466D01*
X-78430Y195459D01*
X-78517Y195420D01*
X-78608Y195388D01*
X-78643Y195363D01*
X-78687Y195343D01*
X-78784Y195260D01*
X-78857Y195207D01*
X-105207Y168857D01*
X-105264Y168781D01*
X-105329Y168709D01*
X-105349Y168668D01*
X-105376Y168632D01*
X-105410Y168542D01*
X-105452Y168455D01*
X-105458Y168413D01*
X-105475Y168368D01*
X-105485Y168240D01*
X-105499Y168151D01*
X-105499Y74349D01*
X-105486Y74254D01*
X-105481Y74158D01*
X-105466Y74115D01*
X-105459Y74070D01*
X-105420Y73983D01*
X-105388Y73892D01*
X-105363Y73857D01*
X-105343Y73813D01*
X-105260Y73716D01*
X-105207Y73643D01*
X-85030Y53467D01*
X-84997Y53442D01*
X-84970Y53410D01*
X-84896Y53366D01*
X-84805Y53297D01*
X-84750Y53276D01*
X-84706Y53250D01*
X-81269Y51826D01*
X-78174Y48731D01*
X-76499Y44688D01*
X-76499Y40312D01*
X-78174Y36269D01*
X-81269Y33174D01*
X-85312Y31499D01*
X-89688Y31499D01*
G37*
%LPD*%
%LPC*%
G36*
X-139688Y31499D02*
X-139688Y31499D01*
X-143731Y33174D01*
X-146826Y36269D01*
X-148501Y40312D01*
X-148501Y44688D01*
X-147077Y48126D01*
X-147066Y48166D01*
X-147048Y48204D01*
X-147035Y48289D01*
X-147007Y48399D01*
X-147009Y48458D01*
X-147001Y48508D01*
X-147001Y184390D01*
X-145554Y187882D01*
X-142741Y190695D01*
X-98195Y235241D01*
X-95382Y238054D01*
X-91890Y239501D01*
X-52193Y239501D01*
X-52152Y239507D01*
X-52110Y239504D01*
X-52026Y239524D01*
X-51914Y239541D01*
X-51913Y239541D01*
X-48102Y239541D01*
X-44596Y238088D01*
X-41912Y235404D01*
X-40459Y231898D01*
X-40459Y228102D01*
X-41912Y224596D01*
X-44596Y221912D01*
X-48102Y220459D01*
X-51937Y220459D01*
X-51974Y220465D01*
X-52084Y220493D01*
X-52143Y220491D01*
X-52193Y220499D01*
X-85651Y220499D01*
X-85746Y220486D01*
X-85842Y220481D01*
X-85885Y220466D01*
X-85930Y220459D01*
X-86017Y220420D01*
X-86108Y220388D01*
X-86143Y220363D01*
X-86187Y220343D01*
X-86284Y220260D01*
X-86357Y220207D01*
X-127707Y178857D01*
X-127764Y178781D01*
X-127829Y178709D01*
X-127849Y178668D01*
X-127876Y178632D01*
X-127910Y178542D01*
X-127952Y178455D01*
X-127958Y178413D01*
X-127975Y178368D01*
X-127985Y178240D01*
X-127999Y178151D01*
X-127999Y48508D01*
X-127993Y48467D01*
X-127996Y48425D01*
X-127976Y48342D01*
X-127959Y48229D01*
X-127935Y48176D01*
X-127923Y48126D01*
X-126499Y44688D01*
X-126499Y40312D01*
X-128174Y36269D01*
X-131269Y33174D01*
X-135312Y31499D01*
X-139688Y31499D01*
G37*
%LPD*%
%LPC*%
G36*
X236631Y197959D02*
X236631Y197959D01*
X235459Y199131D01*
X235459Y215869D01*
X236631Y217041D01*
X237000Y217041D01*
X237064Y217050D01*
X237128Y217049D01*
X237203Y217070D01*
X237279Y217081D01*
X237338Y217107D01*
X237400Y217124D01*
X237466Y217165D01*
X237536Y217197D01*
X237585Y217239D01*
X237640Y217272D01*
X237692Y217330D01*
X237750Y217380D01*
X237786Y217434D01*
X237829Y217482D01*
X237862Y217551D01*
X237905Y217616D01*
X237924Y217678D01*
X237952Y217735D01*
X237963Y217805D01*
X237987Y217886D01*
X237988Y217971D01*
X237999Y218040D01*
X237999Y234186D01*
X237986Y234281D01*
X237981Y234377D01*
X237966Y234421D01*
X237959Y234466D01*
X237920Y234553D01*
X237888Y234644D01*
X237863Y234678D01*
X237843Y234722D01*
X237760Y234820D01*
X237707Y234893D01*
X229893Y242707D01*
X229816Y242764D01*
X229745Y242829D01*
X229704Y242849D01*
X229667Y242876D01*
X229577Y242910D01*
X229491Y242952D01*
X229449Y242958D01*
X229403Y242975D01*
X229276Y242985D01*
X229186Y242999D01*
X123314Y242999D01*
X123219Y242986D01*
X123123Y242981D01*
X123079Y242966D01*
X123034Y242959D01*
X122947Y242920D01*
X122856Y242888D01*
X122822Y242863D01*
X122778Y242843D01*
X122680Y242760D01*
X122607Y242707D01*
X115977Y236077D01*
X115972Y236069D01*
X115964Y236063D01*
X115887Y235956D01*
X115808Y235851D01*
X115805Y235842D01*
X115799Y235835D01*
X115755Y235711D01*
X115709Y235587D01*
X115708Y235578D01*
X115705Y235569D01*
X115697Y235437D01*
X115687Y235306D01*
X115689Y235297D01*
X115688Y235287D01*
X115706Y235212D01*
X115744Y235030D01*
X115756Y235009D01*
X115761Y234988D01*
X117041Y231898D01*
X117041Y228102D01*
X115588Y224596D01*
X112904Y221912D01*
X109398Y220459D01*
X105602Y220459D01*
X102096Y221912D01*
X99412Y224596D01*
X97959Y228102D01*
X97959Y231898D01*
X99412Y235404D01*
X100207Y236199D01*
X100264Y236276D01*
X100329Y236347D01*
X100349Y236388D01*
X100376Y236425D01*
X100410Y236515D01*
X100452Y236601D01*
X100458Y236643D01*
X100475Y236689D01*
X100485Y236816D01*
X100499Y236906D01*
X100499Y238893D01*
X101565Y241466D01*
X116034Y255935D01*
X118607Y257001D01*
X233893Y257001D01*
X236466Y255935D01*
X250935Y241466D01*
X252001Y238893D01*
X252001Y218040D01*
X252010Y217976D01*
X252009Y217912D01*
X252030Y217837D01*
X252041Y217761D01*
X252067Y217702D01*
X252084Y217640D01*
X252125Y217574D01*
X252157Y217504D01*
X252199Y217455D01*
X252232Y217400D01*
X252290Y217348D01*
X252340Y217290D01*
X252394Y217254D01*
X252442Y217211D01*
X252511Y217178D01*
X252576Y217135D01*
X252638Y217116D01*
X252695Y217088D01*
X252765Y217077D01*
X252846Y217053D01*
X252931Y217052D01*
X253000Y217041D01*
X253369Y217041D01*
X254541Y215869D01*
X254541Y199131D01*
X253369Y197959D01*
X236631Y197959D01*
G37*
%LPD*%
%LPC*%
G36*
X224706Y114978D02*
X224706Y114978D01*
X214757Y118599D01*
X206647Y125404D01*
X201353Y134573D01*
X199515Y145000D01*
X201353Y155427D01*
X206647Y164596D01*
X214757Y171401D01*
X224706Y175022D01*
X235294Y175022D01*
X245243Y171401D01*
X253353Y164596D01*
X258647Y155427D01*
X260485Y145000D01*
X258647Y134573D01*
X253353Y125404D01*
X245243Y118599D01*
X235294Y114978D01*
X224706Y114978D01*
G37*
%LPD*%
%LPC*%
G36*
X-235294Y114978D02*
X-235294Y114978D01*
X-245243Y118599D01*
X-253353Y125404D01*
X-258647Y134573D01*
X-260485Y145000D01*
X-258647Y155427D01*
X-253353Y164596D01*
X-245243Y171401D01*
X-235294Y175022D01*
X-224706Y175022D01*
X-214757Y171401D01*
X-206647Y164596D01*
X-201353Y155427D01*
X-199515Y145000D01*
X-201353Y134573D01*
X-206647Y125404D01*
X-214757Y118599D01*
X-224706Y114978D01*
X-235294Y114978D01*
G37*
%LPD*%
%LPC*%
G36*
X-228369Y67959D02*
X-228369Y67959D01*
X-229541Y69131D01*
X-229541Y85869D01*
X-228369Y87041D01*
X-217238Y87041D01*
X-217143Y87054D01*
X-217047Y87059D01*
X-217004Y87074D01*
X-216959Y87081D01*
X-216871Y87120D01*
X-216781Y87152D01*
X-216746Y87177D01*
X-216702Y87197D01*
X-216605Y87280D01*
X-216532Y87333D01*
X-201864Y102001D01*
X-179778Y102001D01*
X-179683Y102014D01*
X-179587Y102019D01*
X-179544Y102034D01*
X-179499Y102041D01*
X-179411Y102080D01*
X-179321Y102112D01*
X-179286Y102137D01*
X-179242Y102157D01*
X-179145Y102240D01*
X-179072Y102293D01*
X-164793Y116572D01*
X-164736Y116648D01*
X-164671Y116720D01*
X-164651Y116761D01*
X-164624Y116797D01*
X-164590Y116887D01*
X-164548Y116974D01*
X-164542Y117016D01*
X-164525Y117061D01*
X-164515Y117189D01*
X-164501Y117278D01*
X-164501Y196864D01*
X-137293Y224072D01*
X-137236Y224148D01*
X-137171Y224220D01*
X-137151Y224261D01*
X-137124Y224297D01*
X-137090Y224387D01*
X-137048Y224474D01*
X-137042Y224516D01*
X-137025Y224561D01*
X-137016Y224669D01*
X-137013Y224681D01*
X-137012Y224703D01*
X-137001Y224778D01*
X-137001Y249460D01*
X-137010Y249524D01*
X-137009Y249588D01*
X-137030Y249663D01*
X-137041Y249739D01*
X-137067Y249798D01*
X-137084Y249860D01*
X-137125Y249926D01*
X-137157Y249996D01*
X-137199Y250045D01*
X-137232Y250100D01*
X-137290Y250152D01*
X-137340Y250210D01*
X-137394Y250246D01*
X-137442Y250289D01*
X-137511Y250322D01*
X-137576Y250365D01*
X-137638Y250384D01*
X-137695Y250412D01*
X-137765Y250423D01*
X-137846Y250447D01*
X-137931Y250448D01*
X-138000Y250459D01*
X-140869Y250459D01*
X-142041Y251631D01*
X-142041Y268369D01*
X-140869Y269541D01*
X-124131Y269541D01*
X-122959Y268369D01*
X-122959Y251631D01*
X-124131Y250459D01*
X-127000Y250459D01*
X-127064Y250450D01*
X-127128Y250451D01*
X-127203Y250430D01*
X-127279Y250419D01*
X-127338Y250393D01*
X-127400Y250376D01*
X-127466Y250335D01*
X-127536Y250303D01*
X-127585Y250261D01*
X-127640Y250228D01*
X-127692Y250170D01*
X-127750Y250120D01*
X-127786Y250066D01*
X-127829Y250018D01*
X-127862Y249949D01*
X-127905Y249884D01*
X-127924Y249822D01*
X-127952Y249765D01*
X-127963Y249695D01*
X-127987Y249614D01*
X-127988Y249529D01*
X-127999Y249460D01*
X-127999Y220636D01*
X-155207Y193428D01*
X-155264Y193352D01*
X-155329Y193280D01*
X-155349Y193239D01*
X-155376Y193203D01*
X-155410Y193113D01*
X-155452Y193026D01*
X-155458Y192984D01*
X-155475Y192939D01*
X-155485Y192811D01*
X-155499Y192722D01*
X-155499Y113136D01*
X-175636Y92999D01*
X-197722Y92999D01*
X-197817Y92986D01*
X-197913Y92981D01*
X-197956Y92966D01*
X-198001Y92959D01*
X-198089Y92920D01*
X-198179Y92888D01*
X-198214Y92863D01*
X-198258Y92843D01*
X-198355Y92760D01*
X-198428Y92707D01*
X-210167Y80968D01*
X-210224Y80892D01*
X-210289Y80820D01*
X-210309Y80779D01*
X-210336Y80743D01*
X-210370Y80653D01*
X-210412Y80566D01*
X-210418Y80524D01*
X-210435Y80479D01*
X-210445Y80351D01*
X-210459Y80262D01*
X-210459Y69131D01*
X-211631Y67959D01*
X-228369Y67959D01*
G37*
%LPD*%
%LPC*%
G36*
X218102Y197959D02*
X218102Y197959D01*
X214596Y199412D01*
X211912Y202096D01*
X210459Y205602D01*
X210459Y209398D01*
X211912Y212904D01*
X212707Y213699D01*
X212764Y213776D01*
X212829Y213847D01*
X212849Y213888D01*
X212876Y213925D01*
X212910Y214015D01*
X212952Y214101D01*
X212958Y214143D01*
X212975Y214189D01*
X212985Y214316D01*
X212999Y214406D01*
X212999Y216686D01*
X212986Y216781D01*
X212981Y216877D01*
X212966Y216921D01*
X212959Y216966D01*
X212920Y217053D01*
X212888Y217144D01*
X212863Y217178D01*
X212843Y217222D01*
X212760Y217320D01*
X212707Y217393D01*
X207393Y222707D01*
X207316Y222764D01*
X207245Y222829D01*
X207204Y222849D01*
X207167Y222876D01*
X207077Y222910D01*
X206991Y222952D01*
X206949Y222958D01*
X206903Y222975D01*
X206776Y222985D01*
X206686Y222999D01*
X139406Y222999D01*
X139311Y222986D01*
X139215Y222981D01*
X139172Y222966D01*
X139127Y222959D01*
X139039Y222920D01*
X138948Y222888D01*
X138914Y222863D01*
X138870Y222843D01*
X138772Y222760D01*
X138699Y222707D01*
X137904Y221912D01*
X134398Y220459D01*
X130602Y220459D01*
X127096Y221912D01*
X124412Y224596D01*
X122959Y228102D01*
X122959Y231898D01*
X124412Y235404D01*
X127096Y238088D01*
X130602Y239541D01*
X134398Y239541D01*
X137904Y238088D01*
X138699Y237293D01*
X138776Y237236D01*
X138847Y237171D01*
X138888Y237151D01*
X138925Y237124D01*
X139015Y237090D01*
X139101Y237048D01*
X139143Y237042D01*
X139189Y237025D01*
X139316Y237015D01*
X139406Y237001D01*
X211393Y237001D01*
X213966Y235935D01*
X216075Y233825D01*
X225935Y223966D01*
X227001Y221393D01*
X227001Y214406D01*
X227014Y214311D01*
X227019Y214215D01*
X227034Y214172D01*
X227041Y214127D01*
X227080Y214039D01*
X227112Y213948D01*
X227137Y213914D01*
X227157Y213870D01*
X227240Y213772D01*
X227293Y213699D01*
X228088Y212904D01*
X229541Y209398D01*
X229541Y205602D01*
X228088Y202096D01*
X225404Y199412D01*
X221898Y197959D01*
X218102Y197959D01*
G37*
%LPD*%
%LPC*%
G36*
X124131Y195459D02*
X124131Y195459D01*
X122959Y196631D01*
X122959Y213369D01*
X124131Y214541D01*
X140869Y214541D01*
X142041Y213369D01*
X142041Y213000D01*
X142050Y212936D01*
X142049Y212872D01*
X142070Y212797D01*
X142081Y212721D01*
X142107Y212662D01*
X142124Y212600D01*
X142165Y212534D01*
X142197Y212464D01*
X142239Y212415D01*
X142272Y212360D01*
X142330Y212308D01*
X142380Y212250D01*
X142434Y212214D01*
X142482Y212171D01*
X142551Y212138D01*
X142616Y212095D01*
X142678Y212076D01*
X142735Y212048D01*
X142805Y212037D01*
X142886Y212013D01*
X142971Y212012D01*
X143040Y212001D01*
X160870Y212001D01*
X160879Y212002D01*
X160889Y212001D01*
X161019Y212022D01*
X161149Y212041D01*
X161158Y212044D01*
X161167Y212046D01*
X161286Y212103D01*
X161406Y212157D01*
X161413Y212163D01*
X161422Y212167D01*
X161520Y212255D01*
X161620Y212340D01*
X161625Y212348D01*
X161633Y212354D01*
X161673Y212420D01*
X161775Y212576D01*
X161782Y212599D01*
X161793Y212618D01*
X161912Y212904D01*
X164596Y215588D01*
X168102Y217041D01*
X171898Y217041D01*
X175404Y215588D01*
X178088Y212904D01*
X179541Y209398D01*
X179541Y205602D01*
X178088Y202096D01*
X175404Y199412D01*
X171898Y197959D01*
X168063Y197959D01*
X168026Y197965D01*
X167916Y197993D01*
X167857Y197991D01*
X167807Y197999D01*
X143040Y197999D01*
X142976Y197990D01*
X142912Y197991D01*
X142837Y197970D01*
X142761Y197959D01*
X142702Y197933D01*
X142640Y197916D01*
X142574Y197875D01*
X142504Y197843D01*
X142455Y197801D01*
X142400Y197768D01*
X142348Y197710D01*
X142290Y197660D01*
X142254Y197606D01*
X142211Y197558D01*
X142178Y197489D01*
X142135Y197424D01*
X142116Y197362D01*
X142088Y197305D01*
X142077Y197235D01*
X142053Y197154D01*
X142052Y197069D01*
X142041Y197000D01*
X142041Y196631D01*
X140869Y195459D01*
X124131Y195459D01*
G37*
%LPD*%
%LPC*%
G36*
X-43369Y67959D02*
X-43369Y67959D01*
X-44541Y69131D01*
X-44541Y85869D01*
X-43369Y87041D01*
X-26631Y87041D01*
X-25459Y85869D01*
X-25459Y69131D01*
X-26631Y67959D01*
X-43369Y67959D01*
G37*
%LPD*%
%LPC*%
G36*
X189131Y67959D02*
X189131Y67959D01*
X187959Y69131D01*
X187959Y85869D01*
X189131Y87041D01*
X205869Y87041D01*
X207041Y85869D01*
X207041Y69131D01*
X205869Y67959D01*
X189131Y67959D01*
G37*
%LPD*%
%LPC*%
G36*
X-46285Y158279D02*
X-46285Y158279D01*
X-51921Y163915D01*
X-51921Y171885D01*
X-46285Y177521D01*
X-38315Y177521D01*
X-32679Y171885D01*
X-32679Y163915D01*
X-38315Y158279D01*
X-46285Y158279D01*
G37*
%LPD*%
%LPC*%
G36*
X-46285Y132879D02*
X-46285Y132879D01*
X-51921Y138515D01*
X-51921Y146485D01*
X-46285Y152121D01*
X-38315Y152121D01*
X-32679Y146485D01*
X-32679Y138515D01*
X-38315Y132879D01*
X-46285Y132879D01*
G37*
%LPD*%
%LPC*%
G36*
X151215Y132879D02*
X151215Y132879D01*
X145579Y138515D01*
X145579Y146485D01*
X151215Y152121D01*
X159185Y152121D01*
X164821Y146485D01*
X164821Y138515D01*
X159185Y132879D01*
X151215Y132879D01*
G37*
%LPD*%
%LPC*%
G36*
X151215Y107479D02*
X151215Y107479D01*
X145579Y113115D01*
X145579Y121085D01*
X151215Y126721D01*
X159185Y126721D01*
X164821Y121085D01*
X164821Y113115D01*
X159185Y107479D01*
X151215Y107479D01*
G37*
%LPD*%
%LPC*%
G36*
X-46285Y107479D02*
X-46285Y107479D01*
X-51921Y113115D01*
X-51921Y121085D01*
X-46285Y126721D01*
X-38315Y126721D01*
X-32679Y121085D01*
X-32679Y113115D01*
X-38315Y107479D01*
X-46285Y107479D01*
G37*
%LPD*%
%LPC*%
G36*
X11201Y108467D02*
X11201Y108467D01*
X8799Y109462D01*
X6962Y111299D01*
X5967Y113701D01*
X5967Y116299D01*
X6962Y118701D01*
X8799Y120538D01*
X11201Y121533D01*
X13799Y121533D01*
X16201Y120538D01*
X18038Y118701D01*
X19033Y116299D01*
X19033Y113701D01*
X18038Y111299D01*
X16201Y109462D01*
X13799Y108467D01*
X11201Y108467D01*
G37*
%LPD*%
%LPC*%
G36*
X-96299Y108467D02*
X-96299Y108467D01*
X-98701Y109462D01*
X-100538Y111299D01*
X-101533Y113701D01*
X-101533Y116299D01*
X-100538Y118701D01*
X-98701Y120538D01*
X-96299Y121533D01*
X-93701Y121533D01*
X-91299Y120538D01*
X-89462Y118701D01*
X-88467Y116299D01*
X-88467Y113701D01*
X-89462Y111299D01*
X-91299Y109462D01*
X-93701Y108467D01*
X-96299Y108467D01*
G37*
%LPD*%
%LPC*%
G36*
X-186299Y108467D02*
X-186299Y108467D01*
X-188701Y109462D01*
X-190538Y111299D01*
X-191533Y113701D01*
X-191533Y116299D01*
X-190538Y118701D01*
X-188701Y120538D01*
X-186299Y121533D01*
X-183701Y121533D01*
X-181299Y120538D01*
X-179462Y118701D01*
X-178467Y116299D01*
X-178467Y113701D01*
X-179462Y111299D01*
X-181299Y109462D01*
X-183701Y108467D01*
X-186299Y108467D01*
G37*
%LPD*%
%LPC*%
G36*
X-117390Y261999D02*
X-117390Y261999D01*
X-117333Y262361D01*
X-116842Y263870D01*
X-116122Y265284D01*
X-115189Y266567D01*
X-114067Y267689D01*
X-112784Y268622D01*
X-111370Y269342D01*
X-109861Y269833D01*
X-109499Y269890D01*
X-109499Y261999D01*
X-117390Y261999D01*
G37*
%LPD*%
%LPC*%
G36*
X-204890Y79499D02*
X-204890Y79499D01*
X-204833Y79861D01*
X-204342Y81370D01*
X-203622Y82784D01*
X-202689Y84067D01*
X-201567Y85189D01*
X-200284Y86122D01*
X-198870Y86842D01*
X-197361Y87333D01*
X-196999Y87390D01*
X-196999Y79499D01*
X-204890Y79499D01*
G37*
%LPD*%
%LPC*%
G36*
X69499Y79499D02*
X69499Y79499D01*
X69499Y87390D01*
X69861Y87333D01*
X71370Y86842D01*
X72784Y86122D01*
X74067Y85189D01*
X75189Y84067D01*
X76122Y82784D01*
X76842Y81370D01*
X77333Y79861D01*
X77390Y79499D01*
X69499Y79499D01*
G37*
%LPD*%
%LPC*%
G36*
X-9890Y206999D02*
X-9890Y206999D01*
X-9833Y207361D01*
X-9342Y208870D01*
X-8622Y210284D01*
X-7689Y211567D01*
X-6567Y212689D01*
X-5284Y213622D01*
X-3870Y214342D01*
X-2361Y214833D01*
X-1999Y214890D01*
X-1999Y206999D01*
X-9890Y206999D01*
G37*
%LPD*%
%LPC*%
G36*
X-105501Y261999D02*
X-105501Y261999D01*
X-105501Y269890D01*
X-105139Y269833D01*
X-103630Y269342D01*
X-102216Y268622D01*
X-100933Y267689D01*
X-99811Y266567D01*
X-98878Y265284D01*
X-98158Y263870D01*
X-97667Y262361D01*
X-97610Y261999D01*
X-105501Y261999D01*
G37*
%LPD*%
%LPC*%
G36*
X-109861Y250167D02*
X-109861Y250167D01*
X-111370Y250658D01*
X-112784Y251378D01*
X-114067Y252311D01*
X-115189Y253433D01*
X-116122Y254716D01*
X-116842Y256130D01*
X-117333Y257639D01*
X-117390Y258001D01*
X-109499Y258001D01*
X-109499Y250110D01*
X-109861Y250167D01*
G37*
%LPD*%
%LPC*%
G36*
X-193001Y79499D02*
X-193001Y79499D01*
X-193001Y87390D01*
X-192639Y87333D01*
X-191130Y86842D01*
X-189716Y86122D01*
X-188433Y85189D01*
X-187311Y84067D01*
X-186378Y82784D01*
X-185658Y81370D01*
X-185167Y79861D01*
X-185110Y79499D01*
X-193001Y79499D01*
G37*
%LPD*%
%LPC*%
G36*
X57610Y79499D02*
X57610Y79499D01*
X57667Y79861D01*
X58158Y81370D01*
X58878Y82784D01*
X59811Y84067D01*
X60933Y85189D01*
X62216Y86122D01*
X63630Y86842D01*
X65139Y87333D01*
X65501Y87390D01*
X65501Y79499D01*
X57610Y79499D01*
G37*
%LPD*%
%LPC*%
G36*
X-2361Y195167D02*
X-2361Y195167D01*
X-3870Y195658D01*
X-5284Y196378D01*
X-6567Y197311D01*
X-7689Y198433D01*
X-8622Y199716D01*
X-9342Y201130D01*
X-9833Y202639D01*
X-9890Y203001D01*
X-1999Y203001D01*
X-1999Y195110D01*
X-2361Y195167D01*
G37*
%LPD*%
%LPC*%
G36*
X-197361Y67667D02*
X-197361Y67667D01*
X-198870Y68158D01*
X-200284Y68878D01*
X-201567Y69811D01*
X-202689Y70933D01*
X-203622Y72216D01*
X-204342Y73630D01*
X-204833Y75139D01*
X-204890Y75501D01*
X-196999Y75501D01*
X-196999Y67610D01*
X-197361Y67667D01*
G37*
%LPD*%
%LPC*%
G36*
X69499Y75501D02*
X69499Y75501D01*
X77390Y75501D01*
X77333Y75139D01*
X76842Y73630D01*
X76122Y72216D01*
X75189Y70933D01*
X74067Y69811D01*
X72784Y68878D01*
X71370Y68158D01*
X69861Y67667D01*
X69499Y67610D01*
X69499Y75501D01*
G37*
%LPD*%
%LPC*%
G36*
X-105501Y258001D02*
X-105501Y258001D01*
X-97610Y258001D01*
X-97616Y257964D01*
X-97667Y257639D01*
X-98158Y256130D01*
X-98878Y254716D01*
X-99811Y253433D01*
X-100933Y252311D01*
X-102216Y251378D01*
X-103630Y250658D01*
X-105139Y250167D01*
X-105501Y250110D01*
X-105501Y258001D01*
G37*
%LPD*%
%LPC*%
G36*
X65139Y67667D02*
X65139Y67667D01*
X63630Y68158D01*
X62216Y68878D01*
X60933Y69811D01*
X59811Y70933D01*
X58878Y72216D01*
X58158Y73630D01*
X57667Y75139D01*
X57610Y75501D01*
X65501Y75501D01*
X65501Y67610D01*
X65139Y67667D01*
G37*
%LPD*%
%LPC*%
G36*
X-193001Y75501D02*
X-193001Y75501D01*
X-185110Y75501D01*
X-185167Y75139D01*
X-185658Y73630D01*
X-186378Y72216D01*
X-187311Y70933D01*
X-188433Y69811D01*
X-189716Y68878D01*
X-191130Y68158D01*
X-192639Y67667D01*
X-193001Y67610D01*
X-193001Y75501D01*
G37*
%LPD*%
%LPC*%
G36*
X-107501Y259999D02*
X-107501Y259999D01*
X-107501Y260001D01*
X-107499Y260001D01*
X-107499Y259999D01*
X-107501Y259999D01*
G37*
%LPD*%
%LPC*%
G36*
X67499Y77499D02*
X67499Y77499D01*
X67499Y77501D01*
X67501Y77501D01*
X67501Y77499D01*
X67499Y77499D01*
G37*
%LPD*%
%LPC*%
G36*
X-195001Y77499D02*
X-195001Y77499D01*
X-195001Y77501D01*
X-194999Y77501D01*
X-194999Y77499D01*
X-195001Y77499D01*
G37*
%LPD*%
D10*
X50000Y205000D03*
D11*
X25000Y205000D03*
X0Y205000D03*
X-25000Y205000D03*
X-50000Y205000D03*
X50000Y230000D03*
X25000Y230000D03*
X0Y230000D03*
X-25000Y230000D03*
X-50000Y230000D03*
D10*
X-35000Y77500D03*
D11*
X-10000Y77500D03*
D10*
X120000Y77500D03*
D11*
X145000Y77500D03*
D10*
X42500Y77500D03*
D11*
X67500Y77500D03*
D10*
X197500Y77500D03*
D11*
X222500Y77500D03*
D12*
X-67700Y167900D03*
X-42300Y167900D03*
X-67700Y142500D03*
X-42300Y142500D03*
X-67700Y117100D03*
X-42300Y117100D03*
X129800Y167900D03*
X155200Y167900D03*
X129800Y142500D03*
X155200Y142500D03*
X129800Y117100D03*
X155200Y117100D03*
D10*
X245000Y207500D03*
D11*
X220000Y207500D03*
X195000Y207500D03*
X170000Y207500D03*
D10*
X132500Y205000D03*
D11*
X107500Y205000D03*
X132500Y230000D03*
X107500Y230000D03*
D10*
X-132500Y260000D03*
D11*
X-107500Y260000D03*
D10*
X-220000Y77500D03*
D11*
X-195000Y77500D03*
D13*
X-87500Y42500D03*
X-137500Y42500D03*
D14*
X-95000Y115000D03*
X12500Y115000D03*
X-185000Y115000D03*
D15*
X-67700Y142500D02*
X-67700Y167900D01*
X-67700Y142500D02*
X-67700Y117100D01*
X-67700Y167900D02*
X-37500Y198100D01*
X-37500Y217500D01*
X-25000Y230000D01*
X129800Y142500D02*
X129800Y117100D01*
X129800Y142500D02*
X129800Y167900D01*
X107100Y167900D01*
X75000Y200000D01*
X75000Y217500D01*
X62500Y230000D01*
X50000Y230000D01*
D16*
X-90000Y230000D02*
X-137500Y182500D01*
X-90000Y230000D02*
X-50000Y230000D01*
X-137500Y182500D02*
X-137500Y42500D01*
X-115000Y172500D02*
X-82500Y205000D01*
X-50000Y205000D01*
X-115000Y70000D02*
X-87500Y42500D01*
X-115000Y70000D02*
X-115000Y172500D01*
D15*
X42500Y152500D02*
X42500Y77500D01*
X42500Y152500D02*
X12500Y182500D01*
X12500Y217500D01*
X0Y230000D01*
X100000Y77500D02*
X120000Y77500D01*
X100000Y77500D02*
X55000Y122500D01*
X55000Y160000D01*
X25000Y190000D01*
X25000Y205000D01*
X130000Y92500D02*
X145000Y77500D01*
X130000Y92500D02*
X97500Y92500D01*
X65000Y125000D01*
X65000Y162500D01*
X37500Y190000D01*
X37500Y217500D01*
X25000Y230000D01*
X-10000Y190000D02*
X-10000Y77500D01*
X-10000Y190000D02*
X-25000Y205000D01*
X-200000Y97500D02*
X-220000Y77500D01*
X-200000Y97500D02*
X-177500Y97500D01*
X-160000Y115000D01*
X-160000Y195000D01*
X-132500Y222500D01*
X-132500Y260000D01*
D17*
X245000Y237500D02*
X245000Y207500D01*
X245000Y237500D02*
X232500Y250000D01*
X120000Y250000D01*
X107500Y237500D01*
X107500Y230000D01*
X220000Y220000D02*
X220000Y207500D01*
X220000Y220000D02*
X210000Y230000D01*
X132500Y230000D01*
X167500Y205000D02*
X170000Y207500D01*
X167500Y205000D02*
X132500Y205000D01*
X107500Y205000D02*
X107500Y192500D01*
X115000Y185000D01*
X175000Y185000D01*
X195000Y205000D02*
X195000Y207500D01*
X195000Y205000D02*
X175000Y185000D01*
D15*
X222500Y85000D02*
X222500Y77500D01*
X222500Y85000D02*
X212500Y95000D01*
X145000Y95000D01*
X85000Y170000D02*
X50000Y205000D01*
X137500Y102500D02*
X145000Y95000D01*
X137500Y102500D02*
X110000Y102500D01*
X85000Y127500D01*
X85000Y170000D01*
M02*
