G04 EAGLE Gerber RS-274X export*
G75*
%MOMM*%
%FSLAX34Y34*%
%LPD*%
%INSilkscreen Top*%
%IPPOS*%
%AMOC8*
5,1,8,0,0,1.08239X$1,22.5*%
G01*
%ADD10C,0.100000*%
%ADD11C,0.076200*%
%ADD12C,0.101600*%
%ADD13C,0.127000*%
%ADD14C,0.200000*%
%ADD15C,0.152400*%


D10*
X-257500Y145000D02*
X-257492Y145675D01*
X-257467Y146349D01*
X-257425Y147023D01*
X-257368Y147695D01*
X-257293Y148366D01*
X-257202Y149035D01*
X-257095Y149701D01*
X-256972Y150365D01*
X-256832Y151025D01*
X-256676Y151682D01*
X-256504Y152335D01*
X-256316Y152983D01*
X-256112Y153626D01*
X-255892Y154264D01*
X-255657Y154897D01*
X-255407Y155524D01*
X-255141Y156144D01*
X-254860Y156758D01*
X-254564Y157364D01*
X-254253Y157963D01*
X-253927Y158555D01*
X-253588Y159138D01*
X-253233Y159712D01*
X-252865Y160278D01*
X-252484Y160835D01*
X-252088Y161382D01*
X-251680Y161919D01*
X-251258Y162446D01*
X-250823Y162962D01*
X-250376Y163468D01*
X-249917Y163962D01*
X-249445Y164445D01*
X-248962Y164917D01*
X-248468Y165376D01*
X-247962Y165823D01*
X-247446Y166258D01*
X-246919Y166680D01*
X-246382Y167088D01*
X-245835Y167484D01*
X-245278Y167865D01*
X-244712Y168233D01*
X-244138Y168588D01*
X-243555Y168927D01*
X-242963Y169253D01*
X-242364Y169564D01*
X-241758Y169860D01*
X-241144Y170141D01*
X-240524Y170407D01*
X-239897Y170657D01*
X-239264Y170892D01*
X-238626Y171112D01*
X-237983Y171316D01*
X-237335Y171504D01*
X-236682Y171676D01*
X-236025Y171832D01*
X-235365Y171972D01*
X-234701Y172095D01*
X-234035Y172202D01*
X-233366Y172293D01*
X-232695Y172368D01*
X-232023Y172425D01*
X-231349Y172467D01*
X-230675Y172492D01*
X-230000Y172500D01*
X-229325Y172492D01*
X-228651Y172467D01*
X-227977Y172425D01*
X-227305Y172368D01*
X-226634Y172293D01*
X-225965Y172202D01*
X-225299Y172095D01*
X-224635Y171972D01*
X-223975Y171832D01*
X-223318Y171676D01*
X-222665Y171504D01*
X-222017Y171316D01*
X-221374Y171112D01*
X-220736Y170892D01*
X-220103Y170657D01*
X-219476Y170407D01*
X-218856Y170141D01*
X-218242Y169860D01*
X-217636Y169564D01*
X-217037Y169253D01*
X-216445Y168927D01*
X-215862Y168588D01*
X-215288Y168233D01*
X-214722Y167865D01*
X-214165Y167484D01*
X-213618Y167088D01*
X-213081Y166680D01*
X-212554Y166258D01*
X-212038Y165823D01*
X-211532Y165376D01*
X-211038Y164917D01*
X-210555Y164445D01*
X-210083Y163962D01*
X-209624Y163468D01*
X-209177Y162962D01*
X-208742Y162446D01*
X-208320Y161919D01*
X-207912Y161382D01*
X-207516Y160835D01*
X-207135Y160278D01*
X-206767Y159712D01*
X-206412Y159138D01*
X-206073Y158555D01*
X-205747Y157963D01*
X-205436Y157364D01*
X-205140Y156758D01*
X-204859Y156144D01*
X-204593Y155524D01*
X-204343Y154897D01*
X-204108Y154264D01*
X-203888Y153626D01*
X-203684Y152983D01*
X-203496Y152335D01*
X-203324Y151682D01*
X-203168Y151025D01*
X-203028Y150365D01*
X-202905Y149701D01*
X-202798Y149035D01*
X-202707Y148366D01*
X-202632Y147695D01*
X-202575Y147023D01*
X-202533Y146349D01*
X-202508Y145675D01*
X-202500Y145000D01*
X-202508Y144325D01*
X-202533Y143651D01*
X-202575Y142977D01*
X-202632Y142305D01*
X-202707Y141634D01*
X-202798Y140965D01*
X-202905Y140299D01*
X-203028Y139635D01*
X-203168Y138975D01*
X-203324Y138318D01*
X-203496Y137665D01*
X-203684Y137017D01*
X-203888Y136374D01*
X-204108Y135736D01*
X-204343Y135103D01*
X-204593Y134476D01*
X-204859Y133856D01*
X-205140Y133242D01*
X-205436Y132636D01*
X-205747Y132037D01*
X-206073Y131445D01*
X-206412Y130862D01*
X-206767Y130288D01*
X-207135Y129722D01*
X-207516Y129165D01*
X-207912Y128618D01*
X-208320Y128081D01*
X-208742Y127554D01*
X-209177Y127038D01*
X-209624Y126532D01*
X-210083Y126038D01*
X-210555Y125555D01*
X-211038Y125083D01*
X-211532Y124624D01*
X-212038Y124177D01*
X-212554Y123742D01*
X-213081Y123320D01*
X-213618Y122912D01*
X-214165Y122516D01*
X-214722Y122135D01*
X-215288Y121767D01*
X-215862Y121412D01*
X-216445Y121073D01*
X-217037Y120747D01*
X-217636Y120436D01*
X-218242Y120140D01*
X-218856Y119859D01*
X-219476Y119593D01*
X-220103Y119343D01*
X-220736Y119108D01*
X-221374Y118888D01*
X-222017Y118684D01*
X-222665Y118496D01*
X-223318Y118324D01*
X-223975Y118168D01*
X-224635Y118028D01*
X-225299Y117905D01*
X-225965Y117798D01*
X-226634Y117707D01*
X-227305Y117632D01*
X-227977Y117575D01*
X-228651Y117533D01*
X-229325Y117508D01*
X-230000Y117500D01*
X-230675Y117508D01*
X-231349Y117533D01*
X-232023Y117575D01*
X-232695Y117632D01*
X-233366Y117707D01*
X-234035Y117798D01*
X-234701Y117905D01*
X-235365Y118028D01*
X-236025Y118168D01*
X-236682Y118324D01*
X-237335Y118496D01*
X-237983Y118684D01*
X-238626Y118888D01*
X-239264Y119108D01*
X-239897Y119343D01*
X-240524Y119593D01*
X-241144Y119859D01*
X-241758Y120140D01*
X-242364Y120436D01*
X-242963Y120747D01*
X-243555Y121073D01*
X-244138Y121412D01*
X-244712Y121767D01*
X-245278Y122135D01*
X-245835Y122516D01*
X-246382Y122912D01*
X-246919Y123320D01*
X-247446Y123742D01*
X-247962Y124177D01*
X-248468Y124624D01*
X-248962Y125083D01*
X-249445Y125555D01*
X-249917Y126038D01*
X-250376Y126532D01*
X-250823Y127038D01*
X-251258Y127554D01*
X-251680Y128081D01*
X-252088Y128618D01*
X-252484Y129165D01*
X-252865Y129722D01*
X-253233Y130288D01*
X-253588Y130862D01*
X-253927Y131445D01*
X-254253Y132037D01*
X-254564Y132636D01*
X-254860Y133242D01*
X-255141Y133856D01*
X-255407Y134476D01*
X-255657Y135103D01*
X-255892Y135736D01*
X-256112Y136374D01*
X-256316Y137017D01*
X-256504Y137665D01*
X-256676Y138318D01*
X-256832Y138975D01*
X-256972Y139635D01*
X-257095Y140299D01*
X-257202Y140965D01*
X-257293Y141634D01*
X-257368Y142305D01*
X-257425Y142977D01*
X-257467Y143651D01*
X-257492Y144325D01*
X-257500Y145000D01*
X202500Y145000D02*
X202508Y145675D01*
X202533Y146349D01*
X202575Y147023D01*
X202632Y147695D01*
X202707Y148366D01*
X202798Y149035D01*
X202905Y149701D01*
X203028Y150365D01*
X203168Y151025D01*
X203324Y151682D01*
X203496Y152335D01*
X203684Y152983D01*
X203888Y153626D01*
X204108Y154264D01*
X204343Y154897D01*
X204593Y155524D01*
X204859Y156144D01*
X205140Y156758D01*
X205436Y157364D01*
X205747Y157963D01*
X206073Y158555D01*
X206412Y159138D01*
X206767Y159712D01*
X207135Y160278D01*
X207516Y160835D01*
X207912Y161382D01*
X208320Y161919D01*
X208742Y162446D01*
X209177Y162962D01*
X209624Y163468D01*
X210083Y163962D01*
X210555Y164445D01*
X211038Y164917D01*
X211532Y165376D01*
X212038Y165823D01*
X212554Y166258D01*
X213081Y166680D01*
X213618Y167088D01*
X214165Y167484D01*
X214722Y167865D01*
X215288Y168233D01*
X215862Y168588D01*
X216445Y168927D01*
X217037Y169253D01*
X217636Y169564D01*
X218242Y169860D01*
X218856Y170141D01*
X219476Y170407D01*
X220103Y170657D01*
X220736Y170892D01*
X221374Y171112D01*
X222017Y171316D01*
X222665Y171504D01*
X223318Y171676D01*
X223975Y171832D01*
X224635Y171972D01*
X225299Y172095D01*
X225965Y172202D01*
X226634Y172293D01*
X227305Y172368D01*
X227977Y172425D01*
X228651Y172467D01*
X229325Y172492D01*
X230000Y172500D01*
X230675Y172492D01*
X231349Y172467D01*
X232023Y172425D01*
X232695Y172368D01*
X233366Y172293D01*
X234035Y172202D01*
X234701Y172095D01*
X235365Y171972D01*
X236025Y171832D01*
X236682Y171676D01*
X237335Y171504D01*
X237983Y171316D01*
X238626Y171112D01*
X239264Y170892D01*
X239897Y170657D01*
X240524Y170407D01*
X241144Y170141D01*
X241758Y169860D01*
X242364Y169564D01*
X242963Y169253D01*
X243555Y168927D01*
X244138Y168588D01*
X244712Y168233D01*
X245278Y167865D01*
X245835Y167484D01*
X246382Y167088D01*
X246919Y166680D01*
X247446Y166258D01*
X247962Y165823D01*
X248468Y165376D01*
X248962Y164917D01*
X249445Y164445D01*
X249917Y163962D01*
X250376Y163468D01*
X250823Y162962D01*
X251258Y162446D01*
X251680Y161919D01*
X252088Y161382D01*
X252484Y160835D01*
X252865Y160278D01*
X253233Y159712D01*
X253588Y159138D01*
X253927Y158555D01*
X254253Y157963D01*
X254564Y157364D01*
X254860Y156758D01*
X255141Y156144D01*
X255407Y155524D01*
X255657Y154897D01*
X255892Y154264D01*
X256112Y153626D01*
X256316Y152983D01*
X256504Y152335D01*
X256676Y151682D01*
X256832Y151025D01*
X256972Y150365D01*
X257095Y149701D01*
X257202Y149035D01*
X257293Y148366D01*
X257368Y147695D01*
X257425Y147023D01*
X257467Y146349D01*
X257492Y145675D01*
X257500Y145000D01*
X257492Y144325D01*
X257467Y143651D01*
X257425Y142977D01*
X257368Y142305D01*
X257293Y141634D01*
X257202Y140965D01*
X257095Y140299D01*
X256972Y139635D01*
X256832Y138975D01*
X256676Y138318D01*
X256504Y137665D01*
X256316Y137017D01*
X256112Y136374D01*
X255892Y135736D01*
X255657Y135103D01*
X255407Y134476D01*
X255141Y133856D01*
X254860Y133242D01*
X254564Y132636D01*
X254253Y132037D01*
X253927Y131445D01*
X253588Y130862D01*
X253233Y130288D01*
X252865Y129722D01*
X252484Y129165D01*
X252088Y128618D01*
X251680Y128081D01*
X251258Y127554D01*
X250823Y127038D01*
X250376Y126532D01*
X249917Y126038D01*
X249445Y125555D01*
X248962Y125083D01*
X248468Y124624D01*
X247962Y124177D01*
X247446Y123742D01*
X246919Y123320D01*
X246382Y122912D01*
X245835Y122516D01*
X245278Y122135D01*
X244712Y121767D01*
X244138Y121412D01*
X243555Y121073D01*
X242963Y120747D01*
X242364Y120436D01*
X241758Y120140D01*
X241144Y119859D01*
X240524Y119593D01*
X239897Y119343D01*
X239264Y119108D01*
X238626Y118888D01*
X237983Y118684D01*
X237335Y118496D01*
X236682Y118324D01*
X236025Y118168D01*
X235365Y118028D01*
X234701Y117905D01*
X234035Y117798D01*
X233366Y117707D01*
X232695Y117632D01*
X232023Y117575D01*
X231349Y117533D01*
X230675Y117508D01*
X230000Y117500D01*
X229325Y117508D01*
X228651Y117533D01*
X227977Y117575D01*
X227305Y117632D01*
X226634Y117707D01*
X225965Y117798D01*
X225299Y117905D01*
X224635Y118028D01*
X223975Y118168D01*
X223318Y118324D01*
X222665Y118496D01*
X222017Y118684D01*
X221374Y118888D01*
X220736Y119108D01*
X220103Y119343D01*
X219476Y119593D01*
X218856Y119859D01*
X218242Y120140D01*
X217636Y120436D01*
X217037Y120747D01*
X216445Y121073D01*
X215862Y121412D01*
X215288Y121767D01*
X214722Y122135D01*
X214165Y122516D01*
X213618Y122912D01*
X213081Y123320D01*
X212554Y123742D01*
X212038Y124177D01*
X211532Y124624D01*
X211038Y125083D01*
X210555Y125555D01*
X210083Y126038D01*
X209624Y126532D01*
X209177Y127038D01*
X208742Y127554D01*
X208320Y128081D01*
X207912Y128618D01*
X207516Y129165D01*
X207135Y129722D01*
X206767Y130288D01*
X206412Y130862D01*
X206073Y131445D01*
X205747Y132037D01*
X205436Y132636D01*
X205140Y133242D01*
X204859Y133856D01*
X204593Y134476D01*
X204343Y135103D01*
X204108Y135736D01*
X203888Y136374D01*
X203684Y137017D01*
X203496Y137665D01*
X203324Y138318D01*
X203168Y138975D01*
X203028Y139635D01*
X202905Y140299D01*
X202798Y140965D01*
X202707Y141634D01*
X202632Y142305D01*
X202575Y142977D01*
X202533Y143651D01*
X202508Y144325D01*
X202500Y145000D01*
D11*
X-105855Y200381D02*
X-105855Y209619D01*
X-105855Y205513D02*
X-100722Y205513D01*
X-100722Y209619D02*
X-100722Y200381D01*
X-96641Y202434D02*
X-96641Y204487D01*
X-96642Y204487D02*
X-96640Y204577D01*
X-96634Y204666D01*
X-96624Y204755D01*
X-96611Y204843D01*
X-96593Y204931D01*
X-96572Y205018D01*
X-96547Y205104D01*
X-96518Y205189D01*
X-96486Y205273D01*
X-96450Y205355D01*
X-96410Y205435D01*
X-96367Y205514D01*
X-96320Y205590D01*
X-96271Y205665D01*
X-96218Y205737D01*
X-96162Y205807D01*
X-96103Y205874D01*
X-96041Y205939D01*
X-95976Y206001D01*
X-95909Y206060D01*
X-95839Y206116D01*
X-95767Y206169D01*
X-95692Y206218D01*
X-95616Y206265D01*
X-95537Y206308D01*
X-95457Y206348D01*
X-95375Y206384D01*
X-95291Y206416D01*
X-95206Y206445D01*
X-95120Y206470D01*
X-95033Y206491D01*
X-94945Y206509D01*
X-94857Y206522D01*
X-94768Y206532D01*
X-94679Y206538D01*
X-94589Y206540D01*
X-94499Y206538D01*
X-94410Y206532D01*
X-94321Y206522D01*
X-94233Y206509D01*
X-94145Y206491D01*
X-94058Y206470D01*
X-93972Y206445D01*
X-93887Y206416D01*
X-93803Y206384D01*
X-93721Y206348D01*
X-93641Y206308D01*
X-93563Y206265D01*
X-93486Y206218D01*
X-93411Y206169D01*
X-93339Y206116D01*
X-93269Y206060D01*
X-93202Y206001D01*
X-93137Y205939D01*
X-93075Y205874D01*
X-93016Y205807D01*
X-92960Y205737D01*
X-92907Y205665D01*
X-92858Y205590D01*
X-92811Y205514D01*
X-92768Y205435D01*
X-92728Y205355D01*
X-92692Y205273D01*
X-92660Y205189D01*
X-92631Y205104D01*
X-92606Y205018D01*
X-92585Y204931D01*
X-92567Y204843D01*
X-92554Y204755D01*
X-92544Y204666D01*
X-92538Y204577D01*
X-92536Y204487D01*
X-92536Y202434D01*
X-92538Y202344D01*
X-92544Y202255D01*
X-92554Y202166D01*
X-92567Y202078D01*
X-92585Y201990D01*
X-92606Y201903D01*
X-92631Y201817D01*
X-92660Y201732D01*
X-92692Y201648D01*
X-92728Y201566D01*
X-92768Y201486D01*
X-92811Y201408D01*
X-92858Y201331D01*
X-92907Y201256D01*
X-92960Y201184D01*
X-93016Y201114D01*
X-93075Y201047D01*
X-93137Y200982D01*
X-93202Y200920D01*
X-93269Y200861D01*
X-93339Y200805D01*
X-93411Y200752D01*
X-93486Y200703D01*
X-93563Y200656D01*
X-93641Y200613D01*
X-93721Y200573D01*
X-93803Y200537D01*
X-93887Y200505D01*
X-93972Y200476D01*
X-94058Y200451D01*
X-94145Y200430D01*
X-94233Y200412D01*
X-94321Y200399D01*
X-94410Y200389D01*
X-94499Y200383D01*
X-94589Y200381D01*
X-94679Y200383D01*
X-94768Y200389D01*
X-94857Y200399D01*
X-94945Y200412D01*
X-95033Y200430D01*
X-95120Y200451D01*
X-95206Y200476D01*
X-95291Y200505D01*
X-95375Y200537D01*
X-95457Y200573D01*
X-95537Y200613D01*
X-95616Y200656D01*
X-95692Y200703D01*
X-95767Y200752D01*
X-95839Y200805D01*
X-95909Y200861D01*
X-95976Y200920D01*
X-96041Y200982D01*
X-96103Y201047D01*
X-96162Y201114D01*
X-96218Y201184D01*
X-96271Y201256D01*
X-96320Y201331D01*
X-96367Y201408D01*
X-96410Y201486D01*
X-96450Y201566D01*
X-96486Y201648D01*
X-96518Y201732D01*
X-96547Y201817D01*
X-96572Y201903D01*
X-96593Y201990D01*
X-96611Y202078D01*
X-96624Y202166D01*
X-96634Y202255D01*
X-96640Y202344D01*
X-96642Y202434D01*
X-89599Y206540D02*
X-86520Y206540D01*
X-88573Y209619D02*
X-88573Y201921D01*
X-88571Y201843D01*
X-88565Y201765D01*
X-88555Y201688D01*
X-88541Y201611D01*
X-88524Y201535D01*
X-88502Y201460D01*
X-88477Y201386D01*
X-88448Y201314D01*
X-88416Y201243D01*
X-88379Y201174D01*
X-88340Y201106D01*
X-88297Y201041D01*
X-88251Y200978D01*
X-88201Y200918D01*
X-88149Y200860D01*
X-88094Y200805D01*
X-88036Y200753D01*
X-87976Y200703D01*
X-87913Y200657D01*
X-87848Y200614D01*
X-87780Y200575D01*
X-87711Y200538D01*
X-87640Y200506D01*
X-87568Y200477D01*
X-87494Y200452D01*
X-87419Y200430D01*
X-87343Y200413D01*
X-87266Y200399D01*
X-87189Y200389D01*
X-87111Y200383D01*
X-87033Y200381D01*
X-86520Y200381D01*
X-81602Y200381D02*
X-79036Y200381D01*
X-81602Y200381D02*
X-81678Y200383D01*
X-81753Y200388D01*
X-81828Y200398D01*
X-81902Y200411D01*
X-81976Y200427D01*
X-82049Y200447D01*
X-82121Y200471D01*
X-82191Y200498D01*
X-82260Y200529D01*
X-82328Y200563D01*
X-82394Y200600D01*
X-82458Y200641D01*
X-82519Y200684D01*
X-82579Y200731D01*
X-82636Y200780D01*
X-82691Y200832D01*
X-82743Y200887D01*
X-82792Y200944D01*
X-82839Y201004D01*
X-82882Y201065D01*
X-82923Y201129D01*
X-82960Y201195D01*
X-82994Y201263D01*
X-83025Y201332D01*
X-83052Y201402D01*
X-83076Y201474D01*
X-83096Y201547D01*
X-83112Y201621D01*
X-83125Y201695D01*
X-83135Y201770D01*
X-83140Y201845D01*
X-83142Y201921D01*
X-83141Y201921D02*
X-83141Y204487D01*
X-83142Y204487D02*
X-83140Y204577D01*
X-83134Y204666D01*
X-83124Y204755D01*
X-83111Y204843D01*
X-83093Y204931D01*
X-83072Y205018D01*
X-83047Y205104D01*
X-83018Y205189D01*
X-82986Y205273D01*
X-82950Y205355D01*
X-82910Y205435D01*
X-82867Y205514D01*
X-82820Y205590D01*
X-82771Y205665D01*
X-82718Y205737D01*
X-82662Y205807D01*
X-82603Y205874D01*
X-82541Y205939D01*
X-82476Y206001D01*
X-82409Y206060D01*
X-82339Y206116D01*
X-82267Y206169D01*
X-82192Y206218D01*
X-82116Y206265D01*
X-82037Y206308D01*
X-81957Y206348D01*
X-81875Y206384D01*
X-81791Y206416D01*
X-81706Y206445D01*
X-81620Y206470D01*
X-81533Y206491D01*
X-81445Y206509D01*
X-81357Y206522D01*
X-81268Y206532D01*
X-81179Y206538D01*
X-81089Y206540D01*
X-80999Y206538D01*
X-80910Y206532D01*
X-80821Y206522D01*
X-80733Y206509D01*
X-80645Y206491D01*
X-80558Y206470D01*
X-80472Y206445D01*
X-80387Y206416D01*
X-80303Y206384D01*
X-80221Y206348D01*
X-80141Y206308D01*
X-80063Y206265D01*
X-79986Y206218D01*
X-79911Y206169D01*
X-79839Y206116D01*
X-79769Y206060D01*
X-79702Y206001D01*
X-79637Y205939D01*
X-79575Y205874D01*
X-79516Y205807D01*
X-79460Y205737D01*
X-79407Y205665D01*
X-79358Y205590D01*
X-79311Y205514D01*
X-79268Y205435D01*
X-79228Y205355D01*
X-79192Y205273D01*
X-79160Y205189D01*
X-79131Y205104D01*
X-79106Y205018D01*
X-79085Y204931D01*
X-79067Y204843D01*
X-79054Y204755D01*
X-79044Y204666D01*
X-79038Y204577D01*
X-79036Y204487D01*
X-79036Y203460D01*
X-83141Y203460D01*
X-75041Y200381D02*
X-75041Y206540D01*
X-72475Y206540D01*
X-72397Y206538D01*
X-72319Y206532D01*
X-72242Y206522D01*
X-72165Y206508D01*
X-72089Y206491D01*
X-72014Y206469D01*
X-71940Y206444D01*
X-71868Y206415D01*
X-71797Y206383D01*
X-71728Y206346D01*
X-71660Y206307D01*
X-71595Y206264D01*
X-71532Y206218D01*
X-71472Y206168D01*
X-71414Y206116D01*
X-71359Y206061D01*
X-71307Y206003D01*
X-71257Y205943D01*
X-71211Y205880D01*
X-71168Y205815D01*
X-71129Y205747D01*
X-71092Y205678D01*
X-71060Y205607D01*
X-71031Y205535D01*
X-71006Y205461D01*
X-70984Y205386D01*
X-70967Y205310D01*
X-70953Y205233D01*
X-70943Y205156D01*
X-70937Y205078D01*
X-70935Y205000D01*
X-70936Y205000D02*
X-70936Y200381D01*
X-62881Y200381D02*
X-62881Y209619D01*
X-62881Y200381D02*
X-65447Y200381D01*
X-65523Y200383D01*
X-65598Y200388D01*
X-65673Y200398D01*
X-65747Y200411D01*
X-65821Y200427D01*
X-65894Y200447D01*
X-65966Y200471D01*
X-66036Y200498D01*
X-66105Y200529D01*
X-66173Y200563D01*
X-66239Y200600D01*
X-66303Y200641D01*
X-66364Y200684D01*
X-66424Y200731D01*
X-66481Y200780D01*
X-66536Y200832D01*
X-66588Y200887D01*
X-66637Y200944D01*
X-66684Y201004D01*
X-66727Y201065D01*
X-66768Y201129D01*
X-66805Y201195D01*
X-66839Y201263D01*
X-66870Y201332D01*
X-66897Y201402D01*
X-66921Y201474D01*
X-66941Y201547D01*
X-66957Y201621D01*
X-66970Y201695D01*
X-66980Y201770D01*
X-66985Y201845D01*
X-66987Y201921D01*
X-66987Y205000D01*
X-66985Y205076D01*
X-66980Y205151D01*
X-66970Y205226D01*
X-66957Y205300D01*
X-66941Y205374D01*
X-66921Y205447D01*
X-66897Y205519D01*
X-66870Y205589D01*
X-66839Y205658D01*
X-66805Y205726D01*
X-66768Y205792D01*
X-66727Y205856D01*
X-66684Y205917D01*
X-66637Y205977D01*
X-66588Y206034D01*
X-66536Y206089D01*
X-66481Y206141D01*
X-66424Y206190D01*
X-66364Y206237D01*
X-66303Y206280D01*
X-66239Y206321D01*
X-66173Y206358D01*
X-66105Y206392D01*
X-66036Y206423D01*
X-65966Y206450D01*
X-65894Y206474D01*
X-65821Y206494D01*
X-65747Y206510D01*
X-65673Y206523D01*
X-65598Y206533D01*
X-65523Y206538D01*
X-65447Y206540D01*
X-62881Y206540D01*
X-24619Y162881D02*
X-21540Y162881D01*
X-21450Y162883D01*
X-21361Y162889D01*
X-21272Y162899D01*
X-21184Y162912D01*
X-21096Y162930D01*
X-21009Y162951D01*
X-20923Y162976D01*
X-20838Y163005D01*
X-20754Y163037D01*
X-20672Y163073D01*
X-20592Y163113D01*
X-20514Y163156D01*
X-20437Y163203D01*
X-20362Y163252D01*
X-20290Y163305D01*
X-20220Y163361D01*
X-20153Y163420D01*
X-20088Y163482D01*
X-20026Y163547D01*
X-19967Y163614D01*
X-19911Y163684D01*
X-19858Y163756D01*
X-19809Y163831D01*
X-19762Y163907D01*
X-19719Y163986D01*
X-19679Y164066D01*
X-19643Y164148D01*
X-19611Y164232D01*
X-19582Y164317D01*
X-19557Y164403D01*
X-19536Y164490D01*
X-19518Y164577D01*
X-19505Y164666D01*
X-19495Y164755D01*
X-19489Y164844D01*
X-19487Y164934D01*
X-19487Y165960D01*
X-19489Y166050D01*
X-19495Y166139D01*
X-19505Y166228D01*
X-19518Y166317D01*
X-19536Y166404D01*
X-19557Y166491D01*
X-19582Y166577D01*
X-19611Y166662D01*
X-19643Y166746D01*
X-19679Y166828D01*
X-19719Y166908D01*
X-19762Y166987D01*
X-19809Y167063D01*
X-19858Y167138D01*
X-19911Y167210D01*
X-19967Y167280D01*
X-20026Y167347D01*
X-20088Y167412D01*
X-20153Y167474D01*
X-20220Y167533D01*
X-20290Y167589D01*
X-20362Y167642D01*
X-20437Y167691D01*
X-20514Y167738D01*
X-20592Y167781D01*
X-20672Y167821D01*
X-20754Y167857D01*
X-20838Y167889D01*
X-20923Y167918D01*
X-21009Y167943D01*
X-21096Y167964D01*
X-21184Y167982D01*
X-21272Y167995D01*
X-21361Y168005D01*
X-21450Y168011D01*
X-21540Y168013D01*
X-24619Y168013D01*
X-24619Y172119D01*
X-19487Y172119D01*
X-16132Y172119D02*
X-13053Y162881D01*
X-9974Y172119D01*
X-22053Y147119D02*
X-24619Y145066D01*
X-22053Y147119D02*
X-22053Y137881D01*
X-24619Y137881D02*
X-19487Y137881D01*
X-10486Y144809D02*
X-10488Y144904D01*
X-10494Y145000D01*
X-10504Y145095D01*
X-10518Y145189D01*
X-10535Y145283D01*
X-10557Y145376D01*
X-10582Y145468D01*
X-10611Y145559D01*
X-10644Y145649D01*
X-10681Y145737D01*
X-10721Y145824D01*
X-10764Y145908D01*
X-10812Y145991D01*
X-10862Y146072D01*
X-10916Y146151D01*
X-10973Y146228D01*
X-11033Y146302D01*
X-11096Y146374D01*
X-11163Y146442D01*
X-11231Y146509D01*
X-11303Y146572D01*
X-11377Y146632D01*
X-11454Y146689D01*
X-11533Y146743D01*
X-11614Y146793D01*
X-11697Y146841D01*
X-11781Y146884D01*
X-11868Y146924D01*
X-11956Y146961D01*
X-12046Y146994D01*
X-12137Y147023D01*
X-12229Y147048D01*
X-12322Y147070D01*
X-12416Y147087D01*
X-12510Y147101D01*
X-12605Y147111D01*
X-12701Y147117D01*
X-12796Y147119D01*
X-12903Y147117D01*
X-13009Y147111D01*
X-13115Y147102D01*
X-13221Y147088D01*
X-13326Y147071D01*
X-13431Y147050D01*
X-13534Y147026D01*
X-13637Y146997D01*
X-13739Y146965D01*
X-13839Y146930D01*
X-13938Y146890D01*
X-14036Y146847D01*
X-14132Y146801D01*
X-14226Y146751D01*
X-14319Y146698D01*
X-14409Y146642D01*
X-14498Y146582D01*
X-14584Y146520D01*
X-14668Y146454D01*
X-14749Y146385D01*
X-14828Y146314D01*
X-14905Y146239D01*
X-14978Y146162D01*
X-15049Y146082D01*
X-15117Y146000D01*
X-15182Y145916D01*
X-15244Y145829D01*
X-15302Y145740D01*
X-15358Y145649D01*
X-15410Y145556D01*
X-15459Y145461D01*
X-15504Y145364D01*
X-15546Y145266D01*
X-15584Y145167D01*
X-15619Y145066D01*
X-11257Y143013D02*
X-11189Y143080D01*
X-11123Y143150D01*
X-11061Y143223D01*
X-11001Y143297D01*
X-10944Y143374D01*
X-10890Y143453D01*
X-10840Y143534D01*
X-10792Y143617D01*
X-10748Y143702D01*
X-10707Y143788D01*
X-10669Y143876D01*
X-10635Y143965D01*
X-10604Y144056D01*
X-10577Y144148D01*
X-10553Y144240D01*
X-10533Y144334D01*
X-10516Y144428D01*
X-10504Y144523D01*
X-10494Y144618D01*
X-10489Y144713D01*
X-10487Y144809D01*
X-11257Y143013D02*
X-15619Y137881D01*
X-10487Y137881D01*
X-4053Y137881D02*
X-7132Y147119D01*
X-974Y147119D02*
X-4053Y137881D01*
X-21796Y122119D02*
X-21703Y122117D01*
X-21610Y122112D01*
X-21518Y122102D01*
X-21425Y122089D01*
X-21334Y122072D01*
X-21243Y122052D01*
X-21153Y122028D01*
X-21064Y122000D01*
X-20977Y121969D01*
X-20891Y121934D01*
X-20806Y121896D01*
X-20722Y121854D01*
X-20641Y121810D01*
X-20561Y121761D01*
X-20484Y121710D01*
X-20408Y121656D01*
X-20335Y121598D01*
X-20264Y121538D01*
X-20196Y121475D01*
X-20130Y121409D01*
X-20067Y121341D01*
X-20007Y121270D01*
X-19949Y121197D01*
X-19895Y121121D01*
X-19844Y121044D01*
X-19795Y120964D01*
X-19751Y120883D01*
X-19709Y120799D01*
X-19671Y120714D01*
X-19636Y120628D01*
X-19605Y120541D01*
X-19577Y120452D01*
X-19553Y120362D01*
X-19533Y120271D01*
X-19516Y120180D01*
X-19503Y120087D01*
X-19493Y119995D01*
X-19488Y119902D01*
X-19486Y119809D01*
X-21796Y122119D02*
X-21903Y122117D01*
X-22009Y122111D01*
X-22115Y122102D01*
X-22221Y122088D01*
X-22326Y122071D01*
X-22431Y122050D01*
X-22534Y122026D01*
X-22637Y121997D01*
X-22739Y121965D01*
X-22839Y121930D01*
X-22938Y121890D01*
X-23036Y121847D01*
X-23132Y121801D01*
X-23226Y121751D01*
X-23319Y121698D01*
X-23409Y121642D01*
X-23498Y121582D01*
X-23584Y121520D01*
X-23668Y121454D01*
X-23749Y121385D01*
X-23828Y121314D01*
X-23905Y121239D01*
X-23978Y121162D01*
X-24049Y121082D01*
X-24117Y121000D01*
X-24182Y120916D01*
X-24244Y120829D01*
X-24302Y120740D01*
X-24358Y120649D01*
X-24410Y120556D01*
X-24459Y120461D01*
X-24504Y120365D01*
X-24546Y120266D01*
X-24584Y120167D01*
X-24619Y120066D01*
X-20257Y118013D02*
X-20189Y118080D01*
X-20123Y118150D01*
X-20061Y118223D01*
X-20001Y118297D01*
X-19944Y118374D01*
X-19890Y118453D01*
X-19840Y118534D01*
X-19792Y118617D01*
X-19748Y118702D01*
X-19707Y118788D01*
X-19669Y118876D01*
X-19635Y118965D01*
X-19604Y119056D01*
X-19577Y119148D01*
X-19553Y119240D01*
X-19533Y119334D01*
X-19516Y119428D01*
X-19504Y119523D01*
X-19494Y119618D01*
X-19489Y119713D01*
X-19487Y119809D01*
X-20257Y118013D02*
X-24619Y112881D01*
X-19487Y112881D01*
X-15619Y114934D02*
X-13566Y122119D01*
X-15619Y114934D02*
X-10487Y114934D01*
X-12027Y116987D02*
X-12027Y112881D01*
X-4053Y112881D02*
X-7132Y122119D01*
X-974Y122119D02*
X-4053Y112881D01*
X172881Y162881D02*
X175960Y162881D01*
X176050Y162883D01*
X176139Y162889D01*
X176228Y162899D01*
X176316Y162912D01*
X176404Y162930D01*
X176491Y162951D01*
X176577Y162976D01*
X176662Y163005D01*
X176746Y163037D01*
X176828Y163073D01*
X176908Y163113D01*
X176986Y163156D01*
X177063Y163203D01*
X177138Y163252D01*
X177210Y163305D01*
X177280Y163361D01*
X177347Y163420D01*
X177412Y163482D01*
X177474Y163547D01*
X177533Y163614D01*
X177589Y163684D01*
X177642Y163756D01*
X177691Y163831D01*
X177738Y163907D01*
X177781Y163986D01*
X177821Y164066D01*
X177857Y164148D01*
X177889Y164232D01*
X177918Y164317D01*
X177943Y164403D01*
X177964Y164490D01*
X177982Y164577D01*
X177995Y164666D01*
X178005Y164755D01*
X178011Y164844D01*
X178013Y164934D01*
X178013Y165960D01*
X178011Y166050D01*
X178005Y166139D01*
X177995Y166228D01*
X177982Y166316D01*
X177964Y166404D01*
X177943Y166491D01*
X177918Y166577D01*
X177889Y166662D01*
X177857Y166746D01*
X177821Y166828D01*
X177781Y166908D01*
X177738Y166987D01*
X177691Y167063D01*
X177642Y167138D01*
X177589Y167210D01*
X177533Y167280D01*
X177474Y167347D01*
X177412Y167412D01*
X177347Y167474D01*
X177280Y167533D01*
X177210Y167589D01*
X177138Y167642D01*
X177063Y167691D01*
X176987Y167738D01*
X176908Y167781D01*
X176828Y167821D01*
X176746Y167857D01*
X176662Y167889D01*
X176577Y167918D01*
X176491Y167943D01*
X176404Y167964D01*
X176316Y167982D01*
X176228Y167995D01*
X176139Y168005D01*
X176050Y168011D01*
X175960Y168013D01*
X172881Y168013D01*
X172881Y172119D01*
X178013Y172119D01*
X181368Y172119D02*
X184447Y162881D01*
X187526Y172119D01*
X175447Y147119D02*
X172881Y145066D01*
X175447Y147119D02*
X175447Y137881D01*
X172881Y137881D02*
X178013Y137881D01*
X187014Y144809D02*
X187012Y144902D01*
X187007Y144995D01*
X186997Y145087D01*
X186984Y145180D01*
X186967Y145271D01*
X186947Y145362D01*
X186923Y145452D01*
X186895Y145541D01*
X186864Y145628D01*
X186829Y145714D01*
X186791Y145799D01*
X186749Y145883D01*
X186705Y145964D01*
X186656Y146044D01*
X186605Y146121D01*
X186551Y146197D01*
X186493Y146270D01*
X186433Y146341D01*
X186370Y146409D01*
X186304Y146475D01*
X186236Y146538D01*
X186165Y146598D01*
X186092Y146656D01*
X186016Y146710D01*
X185939Y146761D01*
X185859Y146810D01*
X185778Y146854D01*
X185694Y146896D01*
X185609Y146934D01*
X185523Y146969D01*
X185436Y147000D01*
X185347Y147028D01*
X185257Y147052D01*
X185166Y147072D01*
X185075Y147089D01*
X184982Y147102D01*
X184890Y147112D01*
X184797Y147117D01*
X184704Y147119D01*
X184597Y147117D01*
X184491Y147111D01*
X184385Y147102D01*
X184279Y147088D01*
X184174Y147071D01*
X184069Y147050D01*
X183966Y147026D01*
X183863Y146997D01*
X183761Y146965D01*
X183661Y146930D01*
X183562Y146890D01*
X183464Y146847D01*
X183368Y146801D01*
X183274Y146751D01*
X183181Y146698D01*
X183091Y146642D01*
X183002Y146582D01*
X182916Y146520D01*
X182832Y146454D01*
X182751Y146385D01*
X182672Y146314D01*
X182595Y146239D01*
X182522Y146162D01*
X182451Y146083D01*
X182383Y146000D01*
X182318Y145916D01*
X182256Y145829D01*
X182198Y145740D01*
X182142Y145649D01*
X182090Y145556D01*
X182041Y145461D01*
X181996Y145365D01*
X181954Y145266D01*
X181916Y145167D01*
X181881Y145066D01*
X186244Y143012D02*
X186312Y143080D01*
X186377Y143150D01*
X186440Y143222D01*
X186500Y143297D01*
X186557Y143374D01*
X186610Y143453D01*
X186661Y143534D01*
X186709Y143617D01*
X186753Y143701D01*
X186794Y143788D01*
X186832Y143876D01*
X186866Y143965D01*
X186897Y144056D01*
X186924Y144147D01*
X186948Y144240D01*
X186968Y144334D01*
X186985Y144428D01*
X186997Y144523D01*
X187007Y144618D01*
X187012Y144713D01*
X187014Y144809D01*
X186243Y143013D02*
X181881Y137881D01*
X187013Y137881D01*
X193447Y137881D02*
X190368Y147119D01*
X196526Y147119D02*
X193447Y137881D01*
X175704Y122119D02*
X175797Y122117D01*
X175890Y122112D01*
X175982Y122102D01*
X176075Y122089D01*
X176166Y122072D01*
X176257Y122052D01*
X176347Y122028D01*
X176436Y122000D01*
X176523Y121969D01*
X176609Y121934D01*
X176694Y121896D01*
X176778Y121854D01*
X176859Y121810D01*
X176939Y121761D01*
X177016Y121710D01*
X177092Y121656D01*
X177165Y121598D01*
X177236Y121538D01*
X177304Y121475D01*
X177370Y121409D01*
X177433Y121341D01*
X177493Y121270D01*
X177551Y121197D01*
X177605Y121121D01*
X177656Y121044D01*
X177705Y120964D01*
X177749Y120883D01*
X177791Y120799D01*
X177829Y120714D01*
X177864Y120628D01*
X177895Y120541D01*
X177923Y120452D01*
X177947Y120362D01*
X177967Y120271D01*
X177984Y120180D01*
X177997Y120087D01*
X178007Y119995D01*
X178012Y119902D01*
X178014Y119809D01*
X175704Y122119D02*
X175597Y122117D01*
X175491Y122111D01*
X175385Y122102D01*
X175279Y122088D01*
X175174Y122071D01*
X175069Y122050D01*
X174966Y122026D01*
X174863Y121997D01*
X174761Y121965D01*
X174661Y121930D01*
X174562Y121890D01*
X174464Y121847D01*
X174368Y121801D01*
X174274Y121751D01*
X174181Y121698D01*
X174091Y121642D01*
X174002Y121582D01*
X173916Y121520D01*
X173832Y121454D01*
X173751Y121385D01*
X173672Y121314D01*
X173595Y121239D01*
X173522Y121162D01*
X173451Y121083D01*
X173383Y121000D01*
X173318Y120916D01*
X173256Y120829D01*
X173198Y120740D01*
X173142Y120649D01*
X173090Y120556D01*
X173041Y120461D01*
X172996Y120365D01*
X172954Y120266D01*
X172916Y120167D01*
X172881Y120066D01*
X177244Y118012D02*
X177312Y118080D01*
X177377Y118150D01*
X177440Y118222D01*
X177500Y118297D01*
X177557Y118374D01*
X177610Y118453D01*
X177661Y118534D01*
X177709Y118617D01*
X177753Y118701D01*
X177794Y118788D01*
X177832Y118876D01*
X177866Y118965D01*
X177897Y119056D01*
X177924Y119147D01*
X177948Y119240D01*
X177968Y119334D01*
X177985Y119428D01*
X177997Y119523D01*
X178007Y119618D01*
X178012Y119713D01*
X178014Y119809D01*
X177243Y118013D02*
X172881Y112881D01*
X178013Y112881D01*
X181881Y114934D02*
X183934Y122119D01*
X181881Y114934D02*
X187013Y114934D01*
X185474Y116987D02*
X185474Y112881D01*
X193447Y112881D02*
X190368Y122119D01*
X196526Y122119D02*
X193447Y112881D01*
X-180669Y77902D02*
X-181876Y77902D01*
X-180669Y77902D02*
X-180669Y73881D01*
X-183082Y73881D01*
X-183161Y73883D01*
X-183240Y73889D01*
X-183318Y73898D01*
X-183396Y73912D01*
X-183473Y73929D01*
X-183549Y73950D01*
X-183624Y73975D01*
X-183697Y74003D01*
X-183770Y74035D01*
X-183840Y74071D01*
X-183909Y74110D01*
X-183975Y74152D01*
X-184040Y74197D01*
X-184102Y74246D01*
X-184162Y74298D01*
X-184219Y74352D01*
X-184273Y74409D01*
X-184325Y74469D01*
X-184374Y74531D01*
X-184419Y74596D01*
X-184461Y74662D01*
X-184500Y74731D01*
X-184536Y74801D01*
X-184568Y74874D01*
X-184596Y74947D01*
X-184621Y75022D01*
X-184642Y75098D01*
X-184659Y75175D01*
X-184673Y75253D01*
X-184682Y75331D01*
X-184688Y75410D01*
X-184690Y75489D01*
X-184691Y75489D02*
X-184691Y79511D01*
X-184690Y79511D02*
X-184688Y79590D01*
X-184682Y79669D01*
X-184673Y79747D01*
X-184659Y79825D01*
X-184642Y79902D01*
X-184621Y79978D01*
X-184596Y80053D01*
X-184568Y80126D01*
X-184536Y80199D01*
X-184500Y80269D01*
X-184461Y80338D01*
X-184419Y80404D01*
X-184374Y80469D01*
X-184325Y80531D01*
X-184273Y80591D01*
X-184219Y80648D01*
X-184162Y80702D01*
X-184102Y80754D01*
X-184040Y80803D01*
X-183975Y80848D01*
X-183909Y80890D01*
X-183840Y80929D01*
X-183770Y80965D01*
X-183697Y80997D01*
X-183624Y81025D01*
X-183549Y81050D01*
X-183473Y81071D01*
X-183396Y81088D01*
X-183318Y81102D01*
X-183240Y81111D01*
X-183161Y81117D01*
X-183082Y81119D01*
X-180669Y81119D01*
X-177011Y81119D02*
X-177011Y73881D01*
X-172989Y73881D02*
X-177011Y81119D01*
X-172989Y81119D02*
X-172989Y73881D01*
X-169331Y73881D02*
X-169331Y81119D01*
X-167320Y81119D01*
X-167232Y81117D01*
X-167145Y81111D01*
X-167058Y81102D01*
X-166971Y81088D01*
X-166885Y81071D01*
X-166800Y81050D01*
X-166715Y81026D01*
X-166632Y80998D01*
X-166550Y80966D01*
X-166470Y80931D01*
X-166391Y80892D01*
X-166315Y80850D01*
X-166239Y80804D01*
X-166167Y80755D01*
X-166096Y80703D01*
X-166027Y80649D01*
X-165961Y80591D01*
X-165898Y80530D01*
X-165837Y80467D01*
X-165779Y80401D01*
X-165725Y80332D01*
X-165673Y80261D01*
X-165624Y80189D01*
X-165578Y80114D01*
X-165536Y80037D01*
X-165497Y79958D01*
X-165462Y79878D01*
X-165430Y79796D01*
X-165402Y79713D01*
X-165378Y79628D01*
X-165357Y79543D01*
X-165340Y79457D01*
X-165326Y79370D01*
X-165317Y79283D01*
X-165311Y79196D01*
X-165309Y79108D01*
X-165309Y75892D01*
X-165311Y75804D01*
X-165317Y75717D01*
X-165326Y75630D01*
X-165340Y75543D01*
X-165357Y75457D01*
X-165378Y75372D01*
X-165402Y75287D01*
X-165430Y75204D01*
X-165462Y75122D01*
X-165497Y75042D01*
X-165536Y74963D01*
X-165578Y74887D01*
X-165624Y74811D01*
X-165673Y74739D01*
X-165725Y74668D01*
X-165779Y74599D01*
X-165837Y74533D01*
X-165898Y74470D01*
X-165961Y74409D01*
X-166027Y74351D01*
X-166096Y74297D01*
X-166167Y74245D01*
X-166239Y74196D01*
X-166315Y74150D01*
X-166391Y74108D01*
X-166470Y74069D01*
X-166550Y74034D01*
X-166632Y74002D01*
X-166715Y73974D01*
X-166800Y73950D01*
X-166885Y73929D01*
X-166971Y73912D01*
X-167058Y73898D01*
X-167145Y73889D01*
X-167232Y73883D01*
X-167320Y73881D01*
X-169331Y73881D01*
X-53620Y70300D02*
X-53618Y70384D01*
X-53612Y70467D01*
X-53603Y70550D01*
X-53589Y70633D01*
X-53572Y70714D01*
X-53551Y70795D01*
X-53526Y70875D01*
X-53498Y70954D01*
X-53466Y71031D01*
X-53430Y71107D01*
X-53391Y71181D01*
X-53349Y71253D01*
X-53303Y71323D01*
X-53254Y71391D01*
X-53202Y71456D01*
X-53148Y71519D01*
X-53090Y71580D01*
X-53029Y71638D01*
X-52966Y71692D01*
X-52901Y71744D01*
X-52833Y71793D01*
X-52763Y71839D01*
X-52691Y71881D01*
X-52617Y71920D01*
X-52541Y71956D01*
X-52464Y71988D01*
X-52385Y72016D01*
X-52305Y72041D01*
X-52224Y72062D01*
X-52143Y72079D01*
X-52060Y72093D01*
X-51977Y72102D01*
X-51894Y72108D01*
X-51810Y72110D01*
X-53619Y70300D02*
X-53617Y70206D01*
X-53611Y70112D01*
X-53602Y70018D01*
X-53588Y69924D01*
X-53571Y69832D01*
X-53550Y69740D01*
X-53526Y69649D01*
X-53498Y69559D01*
X-53466Y69470D01*
X-53430Y69382D01*
X-53391Y69297D01*
X-53349Y69212D01*
X-53303Y69130D01*
X-53254Y69049D01*
X-53202Y68971D01*
X-53146Y68895D01*
X-53088Y68821D01*
X-53026Y68749D01*
X-52962Y68680D01*
X-52895Y68614D01*
X-52825Y68550D01*
X-52753Y68490D01*
X-52678Y68432D01*
X-52601Y68377D01*
X-52522Y68326D01*
X-52441Y68278D01*
X-52358Y68233D01*
X-52274Y68191D01*
X-52187Y68153D01*
X-52099Y68119D01*
X-52010Y68088D01*
X-50402Y71507D02*
X-50464Y71569D01*
X-50528Y71628D01*
X-50596Y71684D01*
X-50665Y71737D01*
X-50737Y71787D01*
X-50811Y71834D01*
X-50887Y71877D01*
X-50965Y71917D01*
X-51044Y71953D01*
X-51125Y71985D01*
X-51208Y72014D01*
X-51292Y72040D01*
X-51376Y72061D01*
X-51462Y72079D01*
X-51548Y72092D01*
X-51635Y72102D01*
X-51723Y72108D01*
X-51810Y72110D01*
X-50402Y71506D02*
X-46381Y68088D01*
X-46381Y72110D01*
X-47989Y75288D02*
X-53619Y76897D01*
X-47989Y75288D02*
X-47989Y79310D01*
X-46381Y78103D02*
X-49598Y78103D01*
X-53619Y82086D02*
X-46381Y84499D01*
X-53619Y86912D01*
X178881Y70300D02*
X178883Y70384D01*
X178889Y70467D01*
X178898Y70550D01*
X178912Y70633D01*
X178929Y70714D01*
X178950Y70795D01*
X178975Y70875D01*
X179003Y70954D01*
X179035Y71031D01*
X179071Y71107D01*
X179110Y71181D01*
X179152Y71253D01*
X179198Y71323D01*
X179247Y71391D01*
X179299Y71456D01*
X179353Y71519D01*
X179411Y71580D01*
X179472Y71638D01*
X179535Y71692D01*
X179600Y71744D01*
X179668Y71793D01*
X179738Y71839D01*
X179810Y71881D01*
X179884Y71920D01*
X179960Y71956D01*
X180037Y71988D01*
X180116Y72016D01*
X180196Y72041D01*
X180277Y72062D01*
X180358Y72079D01*
X180441Y72093D01*
X180524Y72102D01*
X180607Y72108D01*
X180691Y72110D01*
X178881Y70300D02*
X178883Y70206D01*
X178889Y70112D01*
X178898Y70018D01*
X178912Y69924D01*
X178929Y69832D01*
X178950Y69740D01*
X178974Y69649D01*
X179002Y69559D01*
X179034Y69470D01*
X179070Y69382D01*
X179109Y69297D01*
X179151Y69212D01*
X179197Y69130D01*
X179246Y69049D01*
X179298Y68971D01*
X179354Y68895D01*
X179412Y68821D01*
X179474Y68749D01*
X179538Y68680D01*
X179605Y68614D01*
X179675Y68550D01*
X179747Y68490D01*
X179822Y68432D01*
X179899Y68377D01*
X179978Y68326D01*
X180059Y68278D01*
X180142Y68233D01*
X180226Y68191D01*
X180313Y68153D01*
X180401Y68119D01*
X180490Y68088D01*
X182099Y71507D02*
X182037Y71569D01*
X181973Y71628D01*
X181906Y71684D01*
X181836Y71737D01*
X181764Y71787D01*
X181690Y71834D01*
X181614Y71877D01*
X181536Y71917D01*
X181457Y71953D01*
X181376Y71985D01*
X181293Y72014D01*
X181209Y72040D01*
X181125Y72061D01*
X181039Y72079D01*
X180953Y72092D01*
X180866Y72102D01*
X180778Y72108D01*
X180691Y72110D01*
X182098Y71506D02*
X186119Y68088D01*
X186119Y72110D01*
X184511Y75288D02*
X178881Y76897D01*
X184511Y75288D02*
X184511Y79310D01*
X186119Y78103D02*
X182902Y78103D01*
X178881Y82086D02*
X186119Y84499D01*
X178881Y86912D01*
X81831Y77902D02*
X80624Y77902D01*
X81831Y77902D02*
X81831Y73881D01*
X79418Y73881D01*
X79339Y73883D01*
X79260Y73889D01*
X79182Y73898D01*
X79104Y73912D01*
X79027Y73929D01*
X78951Y73950D01*
X78876Y73975D01*
X78803Y74003D01*
X78730Y74035D01*
X78660Y74071D01*
X78591Y74110D01*
X78525Y74152D01*
X78460Y74197D01*
X78398Y74246D01*
X78338Y74298D01*
X78281Y74352D01*
X78227Y74409D01*
X78175Y74469D01*
X78126Y74531D01*
X78081Y74596D01*
X78039Y74662D01*
X78000Y74731D01*
X77964Y74801D01*
X77932Y74874D01*
X77904Y74947D01*
X77879Y75022D01*
X77858Y75098D01*
X77841Y75175D01*
X77827Y75253D01*
X77818Y75331D01*
X77812Y75410D01*
X77810Y75489D01*
X77810Y79511D01*
X77812Y79590D01*
X77818Y79669D01*
X77827Y79747D01*
X77841Y79825D01*
X77858Y79902D01*
X77879Y79978D01*
X77904Y80053D01*
X77932Y80126D01*
X77964Y80199D01*
X78000Y80269D01*
X78039Y80338D01*
X78081Y80404D01*
X78126Y80469D01*
X78175Y80531D01*
X78227Y80591D01*
X78281Y80648D01*
X78338Y80702D01*
X78398Y80754D01*
X78460Y80803D01*
X78525Y80848D01*
X78591Y80890D01*
X78660Y80929D01*
X78730Y80965D01*
X78803Y80997D01*
X78876Y81025D01*
X78951Y81050D01*
X79027Y81071D01*
X79104Y81088D01*
X79182Y81102D01*
X79260Y81111D01*
X79339Y81117D01*
X79418Y81119D01*
X81831Y81119D01*
X85489Y81119D02*
X85489Y73881D01*
X89511Y73881D02*
X85489Y81119D01*
X89511Y81119D02*
X89511Y73881D01*
X93169Y73881D02*
X93169Y81119D01*
X95180Y81119D01*
X95268Y81117D01*
X95355Y81111D01*
X95442Y81102D01*
X95529Y81088D01*
X95615Y81071D01*
X95700Y81050D01*
X95785Y81026D01*
X95868Y80998D01*
X95950Y80966D01*
X96030Y80931D01*
X96109Y80892D01*
X96186Y80850D01*
X96261Y80804D01*
X96333Y80755D01*
X96404Y80703D01*
X96473Y80649D01*
X96539Y80591D01*
X96602Y80530D01*
X96663Y80467D01*
X96721Y80401D01*
X96775Y80332D01*
X96827Y80261D01*
X96876Y80189D01*
X96922Y80114D01*
X96964Y80037D01*
X97003Y79958D01*
X97038Y79878D01*
X97070Y79796D01*
X97098Y79713D01*
X97122Y79628D01*
X97143Y79543D01*
X97160Y79457D01*
X97174Y79370D01*
X97183Y79283D01*
X97189Y79196D01*
X97191Y79108D01*
X97191Y75892D01*
X97189Y75804D01*
X97183Y75717D01*
X97174Y75630D01*
X97160Y75543D01*
X97143Y75457D01*
X97122Y75372D01*
X97098Y75287D01*
X97070Y75204D01*
X97038Y75122D01*
X97003Y75042D01*
X96964Y74963D01*
X96922Y74886D01*
X96876Y74811D01*
X96827Y74739D01*
X96775Y74668D01*
X96721Y74599D01*
X96663Y74533D01*
X96602Y74470D01*
X96539Y74409D01*
X96473Y74351D01*
X96404Y74297D01*
X96333Y74245D01*
X96260Y74196D01*
X96185Y74150D01*
X96109Y74108D01*
X96030Y74069D01*
X95950Y74034D01*
X95868Y74002D01*
X95785Y73974D01*
X95700Y73950D01*
X95615Y73929D01*
X95529Y73912D01*
X95442Y73898D01*
X95355Y73889D01*
X95268Y73883D01*
X95180Y73881D01*
X93169Y73881D01*
D12*
X-254353Y245008D02*
X-254353Y255992D01*
X-254353Y251110D02*
X-248251Y251110D01*
X-248251Y255992D02*
X-248251Y245008D01*
X-243303Y247449D02*
X-243303Y249890D01*
X-243301Y249987D01*
X-243295Y250084D01*
X-243286Y250181D01*
X-243272Y250277D01*
X-243255Y250372D01*
X-243234Y250467D01*
X-243209Y250561D01*
X-243181Y250654D01*
X-243148Y250745D01*
X-243113Y250835D01*
X-243073Y250924D01*
X-243030Y251011D01*
X-242984Y251096D01*
X-242934Y251180D01*
X-242881Y251261D01*
X-242825Y251340D01*
X-242766Y251417D01*
X-242704Y251492D01*
X-242639Y251564D01*
X-242571Y251633D01*
X-242500Y251700D01*
X-242427Y251763D01*
X-242351Y251824D01*
X-242273Y251882D01*
X-242193Y251936D01*
X-242110Y251988D01*
X-242026Y252036D01*
X-241940Y252080D01*
X-241852Y252121D01*
X-241762Y252159D01*
X-241671Y252193D01*
X-241579Y252223D01*
X-241486Y252250D01*
X-241392Y252273D01*
X-241296Y252292D01*
X-241201Y252307D01*
X-241104Y252319D01*
X-241008Y252327D01*
X-240911Y252331D01*
X-240813Y252331D01*
X-240716Y252327D01*
X-240620Y252319D01*
X-240523Y252307D01*
X-240428Y252292D01*
X-240332Y252273D01*
X-240238Y252250D01*
X-240145Y252223D01*
X-240053Y252193D01*
X-239962Y252159D01*
X-239872Y252121D01*
X-239784Y252080D01*
X-239698Y252036D01*
X-239614Y251988D01*
X-239531Y251936D01*
X-239451Y251882D01*
X-239373Y251824D01*
X-239297Y251763D01*
X-239224Y251700D01*
X-239153Y251633D01*
X-239085Y251564D01*
X-239020Y251492D01*
X-238958Y251417D01*
X-238899Y251340D01*
X-238843Y251261D01*
X-238790Y251180D01*
X-238740Y251096D01*
X-238694Y251011D01*
X-238651Y250924D01*
X-238611Y250835D01*
X-238576Y250745D01*
X-238543Y250654D01*
X-238515Y250561D01*
X-238490Y250467D01*
X-238469Y250372D01*
X-238452Y250277D01*
X-238438Y250181D01*
X-238429Y250084D01*
X-238423Y249987D01*
X-238421Y249890D01*
X-238421Y247449D01*
X-238423Y247352D01*
X-238429Y247255D01*
X-238438Y247158D01*
X-238452Y247062D01*
X-238469Y246967D01*
X-238490Y246872D01*
X-238515Y246778D01*
X-238543Y246685D01*
X-238576Y246594D01*
X-238611Y246504D01*
X-238651Y246415D01*
X-238694Y246328D01*
X-238740Y246243D01*
X-238790Y246159D01*
X-238843Y246078D01*
X-238899Y245999D01*
X-238958Y245922D01*
X-239020Y245847D01*
X-239085Y245775D01*
X-239153Y245706D01*
X-239224Y245639D01*
X-239297Y245576D01*
X-239373Y245515D01*
X-239451Y245457D01*
X-239531Y245403D01*
X-239614Y245351D01*
X-239698Y245303D01*
X-239784Y245259D01*
X-239872Y245218D01*
X-239962Y245180D01*
X-240053Y245146D01*
X-240145Y245116D01*
X-240238Y245089D01*
X-240332Y245066D01*
X-240428Y245047D01*
X-240523Y245032D01*
X-240620Y245020D01*
X-240716Y245012D01*
X-240813Y245008D01*
X-240911Y245008D01*
X-241008Y245012D01*
X-241104Y245020D01*
X-241201Y245032D01*
X-241296Y245047D01*
X-241392Y245066D01*
X-241486Y245089D01*
X-241579Y245116D01*
X-241671Y245146D01*
X-241762Y245180D01*
X-241852Y245218D01*
X-241940Y245259D01*
X-242026Y245303D01*
X-242110Y245351D01*
X-242193Y245403D01*
X-242273Y245457D01*
X-242351Y245515D01*
X-242427Y245576D01*
X-242500Y245639D01*
X-242571Y245706D01*
X-242639Y245775D01*
X-242704Y245847D01*
X-242766Y245922D01*
X-242825Y245999D01*
X-242881Y246078D01*
X-242934Y246159D01*
X-242984Y246243D01*
X-243030Y246328D01*
X-243073Y246415D01*
X-243113Y246504D01*
X-243148Y246594D01*
X-243181Y246685D01*
X-243209Y246778D01*
X-243234Y246872D01*
X-243255Y246967D01*
X-243272Y247062D01*
X-243286Y247158D01*
X-243295Y247255D01*
X-243301Y247352D01*
X-243303Y247449D01*
X-234863Y252331D02*
X-231201Y252331D01*
X-233642Y255992D02*
X-233642Y246839D01*
X-233643Y246839D02*
X-233641Y246754D01*
X-233635Y246670D01*
X-233625Y246586D01*
X-233612Y246503D01*
X-233594Y246420D01*
X-233573Y246338D01*
X-233548Y246257D01*
X-233519Y246178D01*
X-233487Y246099D01*
X-233451Y246023D01*
X-233412Y245948D01*
X-233369Y245875D01*
X-233323Y245804D01*
X-233273Y245736D01*
X-233221Y245669D01*
X-233165Y245605D01*
X-233107Y245544D01*
X-233046Y245486D01*
X-232982Y245430D01*
X-232915Y245378D01*
X-232847Y245328D01*
X-232776Y245282D01*
X-232703Y245239D01*
X-232628Y245200D01*
X-232552Y245164D01*
X-232473Y245132D01*
X-232394Y245103D01*
X-232313Y245078D01*
X-232231Y245057D01*
X-232148Y245039D01*
X-232065Y245026D01*
X-231981Y245016D01*
X-231897Y245010D01*
X-231812Y245008D01*
X-231201Y245008D01*
X-225273Y245008D02*
X-222221Y245008D01*
X-225273Y245008D02*
X-225358Y245010D01*
X-225442Y245016D01*
X-225526Y245026D01*
X-225609Y245039D01*
X-225692Y245057D01*
X-225774Y245078D01*
X-225855Y245103D01*
X-225934Y245132D01*
X-226013Y245164D01*
X-226089Y245200D01*
X-226164Y245239D01*
X-226237Y245282D01*
X-226308Y245328D01*
X-226376Y245378D01*
X-226443Y245430D01*
X-226507Y245486D01*
X-226568Y245544D01*
X-226626Y245605D01*
X-226682Y245669D01*
X-226734Y245736D01*
X-226784Y245804D01*
X-226830Y245875D01*
X-226873Y245948D01*
X-226912Y246023D01*
X-226948Y246099D01*
X-226980Y246178D01*
X-227009Y246257D01*
X-227034Y246338D01*
X-227055Y246420D01*
X-227073Y246503D01*
X-227086Y246586D01*
X-227096Y246670D01*
X-227102Y246754D01*
X-227104Y246839D01*
X-227103Y246839D02*
X-227103Y249890D01*
X-227101Y249987D01*
X-227095Y250084D01*
X-227086Y250181D01*
X-227072Y250277D01*
X-227055Y250372D01*
X-227034Y250467D01*
X-227009Y250561D01*
X-226981Y250654D01*
X-226948Y250745D01*
X-226913Y250835D01*
X-226873Y250924D01*
X-226830Y251011D01*
X-226784Y251096D01*
X-226734Y251180D01*
X-226681Y251261D01*
X-226625Y251340D01*
X-226566Y251417D01*
X-226504Y251492D01*
X-226439Y251564D01*
X-226371Y251633D01*
X-226300Y251700D01*
X-226227Y251763D01*
X-226151Y251824D01*
X-226073Y251882D01*
X-225993Y251936D01*
X-225910Y251988D01*
X-225826Y252036D01*
X-225740Y252080D01*
X-225652Y252121D01*
X-225562Y252159D01*
X-225471Y252193D01*
X-225379Y252223D01*
X-225286Y252250D01*
X-225192Y252273D01*
X-225096Y252292D01*
X-225001Y252307D01*
X-224904Y252319D01*
X-224808Y252327D01*
X-224711Y252331D01*
X-224613Y252331D01*
X-224516Y252327D01*
X-224420Y252319D01*
X-224323Y252307D01*
X-224228Y252292D01*
X-224132Y252273D01*
X-224038Y252250D01*
X-223945Y252223D01*
X-223853Y252193D01*
X-223762Y252159D01*
X-223672Y252121D01*
X-223584Y252080D01*
X-223498Y252036D01*
X-223414Y251988D01*
X-223331Y251936D01*
X-223251Y251882D01*
X-223173Y251824D01*
X-223097Y251763D01*
X-223024Y251700D01*
X-222953Y251633D01*
X-222885Y251564D01*
X-222820Y251492D01*
X-222758Y251417D01*
X-222699Y251340D01*
X-222643Y251261D01*
X-222590Y251180D01*
X-222540Y251096D01*
X-222494Y251011D01*
X-222451Y250924D01*
X-222411Y250835D01*
X-222376Y250745D01*
X-222343Y250654D01*
X-222315Y250561D01*
X-222290Y250467D01*
X-222269Y250372D01*
X-222252Y250277D01*
X-222238Y250181D01*
X-222229Y250084D01*
X-222223Y249987D01*
X-222221Y249890D01*
X-222221Y248669D01*
X-227103Y248669D01*
X-217383Y245008D02*
X-217383Y252331D01*
X-214332Y252331D01*
X-214247Y252329D01*
X-214163Y252323D01*
X-214079Y252313D01*
X-213996Y252300D01*
X-213913Y252282D01*
X-213831Y252261D01*
X-213750Y252236D01*
X-213671Y252207D01*
X-213592Y252175D01*
X-213516Y252139D01*
X-213441Y252100D01*
X-213368Y252057D01*
X-213297Y252011D01*
X-213229Y251961D01*
X-213162Y251909D01*
X-213098Y251853D01*
X-213037Y251795D01*
X-212979Y251734D01*
X-212923Y251670D01*
X-212871Y251603D01*
X-212821Y251535D01*
X-212775Y251464D01*
X-212732Y251391D01*
X-212693Y251316D01*
X-212657Y251240D01*
X-212625Y251161D01*
X-212596Y251082D01*
X-212571Y251001D01*
X-212550Y250919D01*
X-212532Y250836D01*
X-212519Y250753D01*
X-212509Y250669D01*
X-212503Y250585D01*
X-212501Y250500D01*
X-212501Y245008D01*
X-202839Y245008D02*
X-202839Y255992D01*
X-202839Y245008D02*
X-205890Y245008D01*
X-205975Y245010D01*
X-206059Y245016D01*
X-206143Y245026D01*
X-206226Y245039D01*
X-206309Y245057D01*
X-206391Y245078D01*
X-206472Y245103D01*
X-206551Y245132D01*
X-206630Y245164D01*
X-206706Y245200D01*
X-206781Y245239D01*
X-206854Y245282D01*
X-206925Y245328D01*
X-206993Y245378D01*
X-207060Y245430D01*
X-207124Y245486D01*
X-207185Y245544D01*
X-207243Y245605D01*
X-207299Y245669D01*
X-207351Y245736D01*
X-207401Y245804D01*
X-207447Y245875D01*
X-207490Y245948D01*
X-207529Y246023D01*
X-207565Y246099D01*
X-207597Y246178D01*
X-207626Y246257D01*
X-207651Y246338D01*
X-207672Y246420D01*
X-207690Y246503D01*
X-207703Y246586D01*
X-207713Y246670D01*
X-207719Y246754D01*
X-207721Y246839D01*
X-207720Y246839D02*
X-207720Y250500D01*
X-207721Y250500D02*
X-207719Y250585D01*
X-207713Y250669D01*
X-207703Y250753D01*
X-207690Y250836D01*
X-207672Y250919D01*
X-207651Y251001D01*
X-207626Y251082D01*
X-207597Y251161D01*
X-207565Y251240D01*
X-207529Y251316D01*
X-207490Y251391D01*
X-207447Y251464D01*
X-207401Y251535D01*
X-207351Y251603D01*
X-207299Y251670D01*
X-207243Y251734D01*
X-207185Y251795D01*
X-207124Y251853D01*
X-207060Y251909D01*
X-206993Y251961D01*
X-206925Y252011D01*
X-206854Y252057D01*
X-206781Y252100D01*
X-206706Y252139D01*
X-206630Y252175D01*
X-206551Y252207D01*
X-206472Y252236D01*
X-206391Y252261D01*
X-206309Y252282D01*
X-206226Y252300D01*
X-206143Y252313D01*
X-206059Y252323D01*
X-205975Y252329D01*
X-205890Y252331D01*
X-202839Y252331D01*
X-191549Y255992D02*
X-191549Y245008D01*
X-191549Y255992D02*
X-188498Y255992D01*
X-188389Y255990D01*
X-188280Y255984D01*
X-188172Y255975D01*
X-188064Y255961D01*
X-187956Y255944D01*
X-187849Y255922D01*
X-187743Y255897D01*
X-187638Y255868D01*
X-187534Y255836D01*
X-187432Y255800D01*
X-187330Y255760D01*
X-187231Y255716D01*
X-187132Y255669D01*
X-187036Y255619D01*
X-186941Y255565D01*
X-186849Y255508D01*
X-186758Y255447D01*
X-186670Y255383D01*
X-186584Y255317D01*
X-186500Y255247D01*
X-186419Y255174D01*
X-186341Y255098D01*
X-186265Y255020D01*
X-186192Y254939D01*
X-186122Y254855D01*
X-186056Y254769D01*
X-185992Y254681D01*
X-185931Y254590D01*
X-185874Y254498D01*
X-185820Y254403D01*
X-185770Y254307D01*
X-185723Y254208D01*
X-185679Y254109D01*
X-185639Y254007D01*
X-185603Y253905D01*
X-185571Y253801D01*
X-185542Y253696D01*
X-185517Y253590D01*
X-185495Y253483D01*
X-185478Y253375D01*
X-185464Y253267D01*
X-185455Y253159D01*
X-185449Y253050D01*
X-185447Y252941D01*
X-185449Y252832D01*
X-185455Y252723D01*
X-185464Y252615D01*
X-185478Y252507D01*
X-185495Y252399D01*
X-185517Y252292D01*
X-185542Y252186D01*
X-185571Y252081D01*
X-185603Y251977D01*
X-185639Y251875D01*
X-185679Y251773D01*
X-185723Y251674D01*
X-185770Y251575D01*
X-185820Y251479D01*
X-185874Y251384D01*
X-185931Y251292D01*
X-185992Y251201D01*
X-186056Y251113D01*
X-186122Y251027D01*
X-186192Y250943D01*
X-186265Y250862D01*
X-186341Y250784D01*
X-186419Y250708D01*
X-186500Y250635D01*
X-186584Y250565D01*
X-186670Y250499D01*
X-186758Y250435D01*
X-186849Y250374D01*
X-186941Y250317D01*
X-187036Y250263D01*
X-187132Y250213D01*
X-187231Y250166D01*
X-187330Y250122D01*
X-187432Y250082D01*
X-187534Y250046D01*
X-187638Y250014D01*
X-187743Y249985D01*
X-187849Y249960D01*
X-187956Y249938D01*
X-188064Y249921D01*
X-188172Y249907D01*
X-188280Y249898D01*
X-188389Y249892D01*
X-188498Y249890D01*
X-191549Y249890D01*
X-178865Y245008D02*
X-176424Y245008D01*
X-178865Y245008D02*
X-178961Y245010D01*
X-179057Y245016D01*
X-179152Y245025D01*
X-179247Y245038D01*
X-179341Y245055D01*
X-179435Y245075D01*
X-179528Y245100D01*
X-179619Y245127D01*
X-179710Y245159D01*
X-179799Y245194D01*
X-179887Y245232D01*
X-179973Y245274D01*
X-180058Y245319D01*
X-180140Y245368D01*
X-180221Y245419D01*
X-180300Y245474D01*
X-180376Y245532D01*
X-180450Y245593D01*
X-180522Y245657D01*
X-180591Y245723D01*
X-180657Y245792D01*
X-180721Y245864D01*
X-180782Y245938D01*
X-180840Y246014D01*
X-180895Y246093D01*
X-180946Y246174D01*
X-180995Y246256D01*
X-181040Y246341D01*
X-181082Y246427D01*
X-181120Y246515D01*
X-181155Y246604D01*
X-181187Y246695D01*
X-181214Y246786D01*
X-181239Y246879D01*
X-181259Y246973D01*
X-181276Y247067D01*
X-181289Y247162D01*
X-181298Y247257D01*
X-181304Y247353D01*
X-181306Y247449D01*
X-181306Y253551D01*
X-181304Y253647D01*
X-181298Y253743D01*
X-181289Y253838D01*
X-181276Y253933D01*
X-181259Y254027D01*
X-181239Y254121D01*
X-181214Y254214D01*
X-181187Y254305D01*
X-181155Y254396D01*
X-181120Y254485D01*
X-181082Y254573D01*
X-181040Y254659D01*
X-180995Y254744D01*
X-180946Y254826D01*
X-180895Y254907D01*
X-180840Y254986D01*
X-180782Y255062D01*
X-180721Y255136D01*
X-180657Y255208D01*
X-180591Y255277D01*
X-180522Y255343D01*
X-180450Y255407D01*
X-180376Y255468D01*
X-180300Y255526D01*
X-180221Y255581D01*
X-180140Y255632D01*
X-180058Y255681D01*
X-179973Y255726D01*
X-179887Y255768D01*
X-179799Y255806D01*
X-179710Y255841D01*
X-179619Y255873D01*
X-179528Y255900D01*
X-179435Y255925D01*
X-179341Y255945D01*
X-179247Y255962D01*
X-179152Y255975D01*
X-179057Y255984D01*
X-178961Y255990D01*
X-178865Y255992D01*
X-176424Y255992D01*
X-171749Y251110D02*
X-168698Y251110D01*
X-168589Y251108D01*
X-168480Y251102D01*
X-168372Y251093D01*
X-168264Y251079D01*
X-168156Y251062D01*
X-168049Y251040D01*
X-167943Y251015D01*
X-167838Y250986D01*
X-167734Y250954D01*
X-167632Y250918D01*
X-167530Y250878D01*
X-167431Y250834D01*
X-167332Y250787D01*
X-167236Y250737D01*
X-167141Y250683D01*
X-167049Y250626D01*
X-166958Y250565D01*
X-166870Y250501D01*
X-166784Y250435D01*
X-166700Y250365D01*
X-166619Y250292D01*
X-166541Y250216D01*
X-166465Y250138D01*
X-166392Y250057D01*
X-166322Y249973D01*
X-166256Y249887D01*
X-166192Y249799D01*
X-166131Y249708D01*
X-166074Y249616D01*
X-166020Y249521D01*
X-165970Y249425D01*
X-165923Y249326D01*
X-165879Y249227D01*
X-165839Y249125D01*
X-165803Y249023D01*
X-165771Y248919D01*
X-165742Y248814D01*
X-165717Y248708D01*
X-165695Y248601D01*
X-165678Y248493D01*
X-165664Y248385D01*
X-165655Y248277D01*
X-165649Y248168D01*
X-165647Y248059D01*
X-165649Y247950D01*
X-165655Y247841D01*
X-165664Y247733D01*
X-165678Y247625D01*
X-165695Y247517D01*
X-165717Y247410D01*
X-165742Y247304D01*
X-165771Y247199D01*
X-165803Y247095D01*
X-165839Y246993D01*
X-165879Y246891D01*
X-165923Y246792D01*
X-165970Y246693D01*
X-166020Y246597D01*
X-166074Y246502D01*
X-166131Y246410D01*
X-166192Y246319D01*
X-166256Y246231D01*
X-166322Y246145D01*
X-166392Y246061D01*
X-166465Y245980D01*
X-166541Y245902D01*
X-166619Y245826D01*
X-166700Y245753D01*
X-166784Y245683D01*
X-166870Y245617D01*
X-166958Y245553D01*
X-167049Y245492D01*
X-167141Y245435D01*
X-167236Y245381D01*
X-167332Y245331D01*
X-167431Y245284D01*
X-167530Y245240D01*
X-167632Y245200D01*
X-167734Y245164D01*
X-167838Y245132D01*
X-167943Y245103D01*
X-168049Y245078D01*
X-168156Y245056D01*
X-168264Y245039D01*
X-168372Y245025D01*
X-168480Y245016D01*
X-168589Y245010D01*
X-168698Y245008D01*
X-171749Y245008D01*
X-171749Y255992D01*
X-168698Y255992D01*
X-168601Y255990D01*
X-168504Y255984D01*
X-168407Y255975D01*
X-168311Y255961D01*
X-168216Y255944D01*
X-168121Y255923D01*
X-168027Y255898D01*
X-167934Y255870D01*
X-167843Y255837D01*
X-167753Y255802D01*
X-167664Y255762D01*
X-167577Y255719D01*
X-167492Y255673D01*
X-167408Y255623D01*
X-167327Y255570D01*
X-167248Y255514D01*
X-167171Y255455D01*
X-167096Y255393D01*
X-167024Y255328D01*
X-166955Y255260D01*
X-166888Y255189D01*
X-166825Y255116D01*
X-166764Y255040D01*
X-166706Y254962D01*
X-166652Y254882D01*
X-166600Y254799D01*
X-166552Y254715D01*
X-166508Y254629D01*
X-166467Y254541D01*
X-166429Y254451D01*
X-166395Y254360D01*
X-166365Y254268D01*
X-166338Y254175D01*
X-166315Y254081D01*
X-166296Y253985D01*
X-166281Y253890D01*
X-166269Y253793D01*
X-166261Y253697D01*
X-166257Y253600D01*
X-166257Y253502D01*
X-166261Y253405D01*
X-166269Y253309D01*
X-166281Y253212D01*
X-166296Y253117D01*
X-166315Y253021D01*
X-166338Y252927D01*
X-166365Y252834D01*
X-166395Y252742D01*
X-166429Y252651D01*
X-166467Y252561D01*
X-166508Y252473D01*
X-166552Y252387D01*
X-166600Y252303D01*
X-166652Y252220D01*
X-166706Y252140D01*
X-166764Y252062D01*
X-166825Y251986D01*
X-166888Y251913D01*
X-166955Y251842D01*
X-167024Y251774D01*
X-167096Y251709D01*
X-167171Y251647D01*
X-167248Y251588D01*
X-167327Y251532D01*
X-167408Y251479D01*
X-167492Y251429D01*
X-167577Y251383D01*
X-167664Y251340D01*
X-167753Y251300D01*
X-167843Y251265D01*
X-167934Y251232D01*
X-168027Y251204D01*
X-168121Y251179D01*
X-168216Y251158D01*
X-168311Y251141D01*
X-168407Y251127D01*
X-168504Y251118D01*
X-168601Y251112D01*
X-168698Y251110D01*
X-250182Y236161D02*
X-250182Y227008D01*
X-250182Y236161D02*
X-250180Y236246D01*
X-250174Y236330D01*
X-250164Y236414D01*
X-250151Y236497D01*
X-250133Y236580D01*
X-250112Y236662D01*
X-250087Y236743D01*
X-250058Y236822D01*
X-250026Y236901D01*
X-249990Y236977D01*
X-249951Y237052D01*
X-249908Y237125D01*
X-249862Y237196D01*
X-249812Y237264D01*
X-249760Y237331D01*
X-249704Y237395D01*
X-249646Y237456D01*
X-249585Y237514D01*
X-249521Y237570D01*
X-249454Y237622D01*
X-249386Y237672D01*
X-249315Y237718D01*
X-249242Y237761D01*
X-249167Y237800D01*
X-249091Y237836D01*
X-249012Y237868D01*
X-248933Y237897D01*
X-248852Y237922D01*
X-248770Y237943D01*
X-248687Y237961D01*
X-248604Y237974D01*
X-248520Y237984D01*
X-248436Y237990D01*
X-248351Y237992D01*
X-247741Y237992D01*
X-247741Y234331D02*
X-251402Y234331D01*
X-244650Y231890D02*
X-244650Y229449D01*
X-244650Y231890D02*
X-244648Y231987D01*
X-244642Y232084D01*
X-244633Y232181D01*
X-244619Y232277D01*
X-244602Y232372D01*
X-244581Y232467D01*
X-244556Y232561D01*
X-244528Y232654D01*
X-244495Y232745D01*
X-244460Y232835D01*
X-244420Y232924D01*
X-244377Y233011D01*
X-244331Y233096D01*
X-244281Y233180D01*
X-244228Y233261D01*
X-244172Y233340D01*
X-244113Y233417D01*
X-244051Y233492D01*
X-243986Y233564D01*
X-243918Y233633D01*
X-243847Y233700D01*
X-243774Y233763D01*
X-243698Y233824D01*
X-243620Y233882D01*
X-243540Y233936D01*
X-243457Y233988D01*
X-243373Y234036D01*
X-243287Y234080D01*
X-243199Y234121D01*
X-243109Y234159D01*
X-243018Y234193D01*
X-242926Y234223D01*
X-242833Y234250D01*
X-242739Y234273D01*
X-242643Y234292D01*
X-242548Y234307D01*
X-242451Y234319D01*
X-242355Y234327D01*
X-242258Y234331D01*
X-242160Y234331D01*
X-242063Y234327D01*
X-241967Y234319D01*
X-241870Y234307D01*
X-241775Y234292D01*
X-241679Y234273D01*
X-241585Y234250D01*
X-241492Y234223D01*
X-241400Y234193D01*
X-241309Y234159D01*
X-241219Y234121D01*
X-241131Y234080D01*
X-241045Y234036D01*
X-240961Y233988D01*
X-240878Y233936D01*
X-240798Y233882D01*
X-240720Y233824D01*
X-240644Y233763D01*
X-240571Y233700D01*
X-240500Y233633D01*
X-240432Y233564D01*
X-240367Y233492D01*
X-240305Y233417D01*
X-240246Y233340D01*
X-240190Y233261D01*
X-240137Y233180D01*
X-240087Y233096D01*
X-240041Y233011D01*
X-239998Y232924D01*
X-239958Y232835D01*
X-239923Y232745D01*
X-239890Y232654D01*
X-239862Y232561D01*
X-239837Y232467D01*
X-239816Y232372D01*
X-239799Y232277D01*
X-239785Y232181D01*
X-239776Y232084D01*
X-239770Y231987D01*
X-239768Y231890D01*
X-239768Y229449D01*
X-239770Y229352D01*
X-239776Y229255D01*
X-239785Y229158D01*
X-239799Y229062D01*
X-239816Y228967D01*
X-239837Y228872D01*
X-239862Y228778D01*
X-239890Y228685D01*
X-239923Y228594D01*
X-239958Y228504D01*
X-239998Y228415D01*
X-240041Y228328D01*
X-240087Y228243D01*
X-240137Y228159D01*
X-240190Y228078D01*
X-240246Y227999D01*
X-240305Y227922D01*
X-240367Y227847D01*
X-240432Y227775D01*
X-240500Y227706D01*
X-240571Y227639D01*
X-240644Y227576D01*
X-240720Y227515D01*
X-240798Y227457D01*
X-240878Y227403D01*
X-240961Y227351D01*
X-241045Y227303D01*
X-241131Y227259D01*
X-241219Y227218D01*
X-241309Y227180D01*
X-241400Y227146D01*
X-241492Y227116D01*
X-241585Y227089D01*
X-241679Y227066D01*
X-241775Y227047D01*
X-241870Y227032D01*
X-241967Y227020D01*
X-242063Y227012D01*
X-242160Y227008D01*
X-242258Y227008D01*
X-242355Y227012D01*
X-242451Y227020D01*
X-242548Y227032D01*
X-242643Y227047D01*
X-242739Y227066D01*
X-242833Y227089D01*
X-242926Y227116D01*
X-243018Y227146D01*
X-243109Y227180D01*
X-243199Y227218D01*
X-243287Y227259D01*
X-243373Y227303D01*
X-243457Y227351D01*
X-243540Y227403D01*
X-243620Y227457D01*
X-243698Y227515D01*
X-243774Y227576D01*
X-243847Y227639D01*
X-243918Y227706D01*
X-243986Y227775D01*
X-244051Y227847D01*
X-244113Y227922D01*
X-244172Y227999D01*
X-244228Y228078D01*
X-244281Y228159D01*
X-244331Y228243D01*
X-244377Y228328D01*
X-244420Y228415D01*
X-244460Y228504D01*
X-244495Y228594D01*
X-244528Y228685D01*
X-244556Y228778D01*
X-244581Y228872D01*
X-244602Y228967D01*
X-244619Y229062D01*
X-244633Y229158D01*
X-244642Y229255D01*
X-244648Y229352D01*
X-244650Y229449D01*
X-234865Y227008D02*
X-234865Y234331D01*
X-231204Y234331D01*
X-231204Y233110D01*
X-222470Y237992D02*
X-218809Y227008D01*
X-215148Y237992D01*
X-211170Y231890D02*
X-211170Y229449D01*
X-211170Y231890D02*
X-211168Y231987D01*
X-211162Y232084D01*
X-211153Y232181D01*
X-211139Y232277D01*
X-211122Y232372D01*
X-211101Y232467D01*
X-211076Y232561D01*
X-211048Y232654D01*
X-211015Y232745D01*
X-210980Y232835D01*
X-210940Y232924D01*
X-210897Y233011D01*
X-210851Y233096D01*
X-210801Y233180D01*
X-210748Y233261D01*
X-210692Y233340D01*
X-210633Y233417D01*
X-210571Y233492D01*
X-210506Y233564D01*
X-210438Y233633D01*
X-210367Y233700D01*
X-210294Y233763D01*
X-210218Y233824D01*
X-210140Y233882D01*
X-210060Y233936D01*
X-209977Y233988D01*
X-209893Y234036D01*
X-209807Y234080D01*
X-209719Y234121D01*
X-209629Y234159D01*
X-209538Y234193D01*
X-209446Y234223D01*
X-209353Y234250D01*
X-209259Y234273D01*
X-209163Y234292D01*
X-209068Y234307D01*
X-208971Y234319D01*
X-208875Y234327D01*
X-208778Y234331D01*
X-208680Y234331D01*
X-208583Y234327D01*
X-208487Y234319D01*
X-208390Y234307D01*
X-208295Y234292D01*
X-208199Y234273D01*
X-208105Y234250D01*
X-208012Y234223D01*
X-207920Y234193D01*
X-207829Y234159D01*
X-207739Y234121D01*
X-207651Y234080D01*
X-207565Y234036D01*
X-207481Y233988D01*
X-207398Y233936D01*
X-207318Y233882D01*
X-207240Y233824D01*
X-207164Y233763D01*
X-207091Y233700D01*
X-207020Y233633D01*
X-206952Y233564D01*
X-206887Y233492D01*
X-206825Y233417D01*
X-206766Y233340D01*
X-206710Y233261D01*
X-206657Y233180D01*
X-206607Y233096D01*
X-206561Y233011D01*
X-206518Y232924D01*
X-206478Y232835D01*
X-206443Y232745D01*
X-206410Y232654D01*
X-206382Y232561D01*
X-206357Y232467D01*
X-206336Y232372D01*
X-206319Y232277D01*
X-206305Y232181D01*
X-206296Y232084D01*
X-206290Y231987D01*
X-206288Y231890D01*
X-206288Y229449D01*
X-206290Y229352D01*
X-206296Y229255D01*
X-206305Y229158D01*
X-206319Y229062D01*
X-206336Y228967D01*
X-206357Y228872D01*
X-206382Y228778D01*
X-206410Y228685D01*
X-206443Y228594D01*
X-206478Y228504D01*
X-206518Y228415D01*
X-206561Y228328D01*
X-206607Y228243D01*
X-206657Y228159D01*
X-206710Y228078D01*
X-206766Y227999D01*
X-206825Y227922D01*
X-206887Y227847D01*
X-206952Y227775D01*
X-207020Y227706D01*
X-207091Y227639D01*
X-207164Y227576D01*
X-207240Y227515D01*
X-207318Y227457D01*
X-207398Y227403D01*
X-207481Y227351D01*
X-207565Y227303D01*
X-207651Y227259D01*
X-207739Y227218D01*
X-207829Y227180D01*
X-207920Y227146D01*
X-208012Y227116D01*
X-208105Y227089D01*
X-208199Y227066D01*
X-208295Y227047D01*
X-208390Y227032D01*
X-208487Y227020D01*
X-208583Y227012D01*
X-208680Y227008D01*
X-208778Y227008D01*
X-208875Y227012D01*
X-208971Y227020D01*
X-209068Y227032D01*
X-209163Y227047D01*
X-209259Y227066D01*
X-209353Y227089D01*
X-209446Y227116D01*
X-209538Y227146D01*
X-209629Y227180D01*
X-209719Y227218D01*
X-209807Y227259D01*
X-209893Y227303D01*
X-209977Y227351D01*
X-210060Y227403D01*
X-210140Y227457D01*
X-210218Y227515D01*
X-210294Y227576D01*
X-210367Y227639D01*
X-210438Y227706D01*
X-210506Y227775D01*
X-210571Y227847D01*
X-210633Y227922D01*
X-210692Y227999D01*
X-210748Y228078D01*
X-210801Y228159D01*
X-210851Y228243D01*
X-210897Y228328D01*
X-210940Y228415D01*
X-210980Y228504D01*
X-211015Y228594D01*
X-211048Y228685D01*
X-211076Y228778D01*
X-211101Y228872D01*
X-211122Y228967D01*
X-211139Y229062D01*
X-211153Y229158D01*
X-211162Y229255D01*
X-211168Y229352D01*
X-211170Y229449D01*
X-201385Y227008D02*
X-201385Y234331D01*
X-197724Y234331D01*
X-197724Y233110D01*
X-194250Y231890D02*
X-194250Y229449D01*
X-194250Y231890D02*
X-194248Y231987D01*
X-194242Y232084D01*
X-194233Y232181D01*
X-194219Y232277D01*
X-194202Y232372D01*
X-194181Y232467D01*
X-194156Y232561D01*
X-194128Y232654D01*
X-194095Y232745D01*
X-194060Y232835D01*
X-194020Y232924D01*
X-193977Y233011D01*
X-193931Y233096D01*
X-193881Y233180D01*
X-193828Y233261D01*
X-193772Y233340D01*
X-193713Y233417D01*
X-193651Y233492D01*
X-193586Y233564D01*
X-193518Y233633D01*
X-193447Y233700D01*
X-193374Y233763D01*
X-193298Y233824D01*
X-193220Y233882D01*
X-193140Y233936D01*
X-193057Y233988D01*
X-192973Y234036D01*
X-192887Y234080D01*
X-192799Y234121D01*
X-192709Y234159D01*
X-192618Y234193D01*
X-192526Y234223D01*
X-192433Y234250D01*
X-192339Y234273D01*
X-192243Y234292D01*
X-192148Y234307D01*
X-192051Y234319D01*
X-191955Y234327D01*
X-191858Y234331D01*
X-191760Y234331D01*
X-191663Y234327D01*
X-191567Y234319D01*
X-191470Y234307D01*
X-191375Y234292D01*
X-191279Y234273D01*
X-191185Y234250D01*
X-191092Y234223D01*
X-191000Y234193D01*
X-190909Y234159D01*
X-190819Y234121D01*
X-190731Y234080D01*
X-190645Y234036D01*
X-190561Y233988D01*
X-190478Y233936D01*
X-190398Y233882D01*
X-190320Y233824D01*
X-190244Y233763D01*
X-190171Y233700D01*
X-190100Y233633D01*
X-190032Y233564D01*
X-189967Y233492D01*
X-189905Y233417D01*
X-189846Y233340D01*
X-189790Y233261D01*
X-189737Y233180D01*
X-189687Y233096D01*
X-189641Y233011D01*
X-189598Y232924D01*
X-189558Y232835D01*
X-189523Y232745D01*
X-189490Y232654D01*
X-189462Y232561D01*
X-189437Y232467D01*
X-189416Y232372D01*
X-189399Y232277D01*
X-189385Y232181D01*
X-189376Y232084D01*
X-189370Y231987D01*
X-189368Y231890D01*
X-189368Y229449D01*
X-189370Y229352D01*
X-189376Y229255D01*
X-189385Y229158D01*
X-189399Y229062D01*
X-189416Y228967D01*
X-189437Y228872D01*
X-189462Y228778D01*
X-189490Y228685D01*
X-189523Y228594D01*
X-189558Y228504D01*
X-189598Y228415D01*
X-189641Y228328D01*
X-189687Y228243D01*
X-189737Y228159D01*
X-189790Y228078D01*
X-189846Y227999D01*
X-189905Y227922D01*
X-189967Y227847D01*
X-190032Y227775D01*
X-190100Y227706D01*
X-190171Y227639D01*
X-190244Y227576D01*
X-190320Y227515D01*
X-190398Y227457D01*
X-190478Y227403D01*
X-190561Y227351D01*
X-190645Y227303D01*
X-190731Y227259D01*
X-190819Y227218D01*
X-190909Y227180D01*
X-191000Y227146D01*
X-191092Y227116D01*
X-191185Y227089D01*
X-191279Y227066D01*
X-191375Y227047D01*
X-191470Y227032D01*
X-191567Y227020D01*
X-191663Y227012D01*
X-191760Y227008D01*
X-191858Y227008D01*
X-191955Y227012D01*
X-192051Y227020D01*
X-192148Y227032D01*
X-192243Y227047D01*
X-192339Y227066D01*
X-192433Y227089D01*
X-192526Y227116D01*
X-192618Y227146D01*
X-192709Y227180D01*
X-192799Y227218D01*
X-192887Y227259D01*
X-192973Y227303D01*
X-193057Y227351D01*
X-193140Y227403D01*
X-193220Y227457D01*
X-193298Y227515D01*
X-193374Y227576D01*
X-193447Y227639D01*
X-193518Y227706D01*
X-193586Y227775D01*
X-193651Y227847D01*
X-193713Y227922D01*
X-193772Y227999D01*
X-193828Y228078D01*
X-193881Y228159D01*
X-193931Y228243D01*
X-193977Y228328D01*
X-194020Y228415D01*
X-194060Y228504D01*
X-194095Y228594D01*
X-194128Y228685D01*
X-194156Y228778D01*
X-194181Y228872D01*
X-194202Y228967D01*
X-194219Y229062D01*
X-194233Y229158D01*
X-194242Y229255D01*
X-194248Y229352D01*
X-194250Y229449D01*
X-184530Y227008D02*
X-184530Y234331D01*
X-181479Y234331D01*
X-181394Y234329D01*
X-181310Y234323D01*
X-181226Y234313D01*
X-181143Y234300D01*
X-181060Y234282D01*
X-180978Y234261D01*
X-180897Y234236D01*
X-180818Y234207D01*
X-180739Y234175D01*
X-180663Y234139D01*
X-180588Y234100D01*
X-180515Y234057D01*
X-180444Y234011D01*
X-180376Y233961D01*
X-180309Y233909D01*
X-180245Y233853D01*
X-180184Y233795D01*
X-180126Y233734D01*
X-180070Y233670D01*
X-180018Y233603D01*
X-179968Y233535D01*
X-179922Y233464D01*
X-179879Y233391D01*
X-179840Y233316D01*
X-179804Y233240D01*
X-179772Y233161D01*
X-179743Y233082D01*
X-179718Y233001D01*
X-179697Y232919D01*
X-179679Y232836D01*
X-179666Y232753D01*
X-179656Y232669D01*
X-179650Y232585D01*
X-179648Y232500D01*
X-179648Y227008D01*
X-174700Y232500D02*
X-174697Y232716D01*
X-174690Y232932D01*
X-174677Y233148D01*
X-174659Y233363D01*
X-174636Y233578D01*
X-174607Y233792D01*
X-174574Y234006D01*
X-174535Y234218D01*
X-174492Y234430D01*
X-174443Y234641D01*
X-174390Y234850D01*
X-174331Y235058D01*
X-174268Y235264D01*
X-174199Y235469D01*
X-174126Y235673D01*
X-174048Y235874D01*
X-173965Y236074D01*
X-173877Y236271D01*
X-173785Y236467D01*
X-173785Y236466D02*
X-173753Y236554D01*
X-173717Y236640D01*
X-173678Y236725D01*
X-173635Y236808D01*
X-173589Y236889D01*
X-173540Y236968D01*
X-173487Y237046D01*
X-173431Y237120D01*
X-173372Y237193D01*
X-173311Y237263D01*
X-173246Y237330D01*
X-173179Y237395D01*
X-173109Y237457D01*
X-173036Y237516D01*
X-172961Y237571D01*
X-172884Y237624D01*
X-172805Y237674D01*
X-172724Y237720D01*
X-172641Y237762D01*
X-172556Y237802D01*
X-172470Y237837D01*
X-172382Y237870D01*
X-172293Y237898D01*
X-172203Y237923D01*
X-172113Y237944D01*
X-172021Y237961D01*
X-171928Y237975D01*
X-171836Y237984D01*
X-171742Y237990D01*
X-171649Y237992D01*
X-171556Y237990D01*
X-171462Y237984D01*
X-171370Y237975D01*
X-171277Y237961D01*
X-171185Y237944D01*
X-171095Y237923D01*
X-171005Y237898D01*
X-170916Y237870D01*
X-170828Y237837D01*
X-170742Y237802D01*
X-170657Y237762D01*
X-170574Y237720D01*
X-170493Y237674D01*
X-170414Y237624D01*
X-170337Y237571D01*
X-170262Y237516D01*
X-170189Y237457D01*
X-170119Y237395D01*
X-170052Y237330D01*
X-169987Y237263D01*
X-169926Y237193D01*
X-169867Y237120D01*
X-169811Y237046D01*
X-169758Y236968D01*
X-169709Y236889D01*
X-169663Y236808D01*
X-169620Y236725D01*
X-169581Y236640D01*
X-169545Y236554D01*
X-169513Y236466D01*
X-169512Y236467D02*
X-169420Y236271D01*
X-169332Y236074D01*
X-169249Y235874D01*
X-169171Y235673D01*
X-169098Y235469D01*
X-169029Y235264D01*
X-168966Y235058D01*
X-168907Y234850D01*
X-168854Y234641D01*
X-168805Y234430D01*
X-168762Y234218D01*
X-168723Y234006D01*
X-168690Y233792D01*
X-168661Y233578D01*
X-168638Y233363D01*
X-168620Y233148D01*
X-168607Y232932D01*
X-168600Y232716D01*
X-168597Y232500D01*
X-174700Y232500D02*
X-174697Y232284D01*
X-174690Y232068D01*
X-174677Y231852D01*
X-174659Y231637D01*
X-174636Y231422D01*
X-174607Y231208D01*
X-174574Y230994D01*
X-174535Y230782D01*
X-174492Y230570D01*
X-174443Y230360D01*
X-174390Y230150D01*
X-174331Y229942D01*
X-174268Y229736D01*
X-174199Y229531D01*
X-174126Y229327D01*
X-174048Y229126D01*
X-173965Y228926D01*
X-173877Y228729D01*
X-173785Y228534D01*
X-173753Y228446D01*
X-173717Y228360D01*
X-173678Y228275D01*
X-173635Y228192D01*
X-173589Y228111D01*
X-173540Y228032D01*
X-173487Y227954D01*
X-173431Y227880D01*
X-173372Y227807D01*
X-173311Y227737D01*
X-173246Y227670D01*
X-173179Y227605D01*
X-173109Y227543D01*
X-173036Y227484D01*
X-172961Y227429D01*
X-172884Y227376D01*
X-172805Y227326D01*
X-172724Y227280D01*
X-172641Y227238D01*
X-172556Y227198D01*
X-172470Y227163D01*
X-172382Y227130D01*
X-172293Y227102D01*
X-172203Y227077D01*
X-172113Y227056D01*
X-172021Y227039D01*
X-171928Y227025D01*
X-171836Y227016D01*
X-171742Y227010D01*
X-171649Y227008D01*
X-169513Y228533D02*
X-169421Y228729D01*
X-169333Y228926D01*
X-169250Y229126D01*
X-169172Y229327D01*
X-169099Y229531D01*
X-169030Y229736D01*
X-168967Y229942D01*
X-168908Y230150D01*
X-168855Y230359D01*
X-168806Y230570D01*
X-168763Y230782D01*
X-168724Y230994D01*
X-168691Y231208D01*
X-168662Y231422D01*
X-168639Y231637D01*
X-168621Y231852D01*
X-168608Y232068D01*
X-168601Y232284D01*
X-168598Y232500D01*
X-169513Y228534D02*
X-169545Y228446D01*
X-169581Y228360D01*
X-169620Y228275D01*
X-169663Y228192D01*
X-169709Y228111D01*
X-169758Y228032D01*
X-169811Y227954D01*
X-169867Y227880D01*
X-169926Y227807D01*
X-169987Y227737D01*
X-170052Y227670D01*
X-170119Y227605D01*
X-170189Y227543D01*
X-170262Y227484D01*
X-170337Y227429D01*
X-170414Y227376D01*
X-170493Y227326D01*
X-170574Y227280D01*
X-170657Y227238D01*
X-170742Y227198D01*
X-170828Y227163D01*
X-170916Y227130D01*
X-171005Y227102D01*
X-171095Y227077D01*
X-171185Y227056D01*
X-171277Y227039D01*
X-171370Y227025D01*
X-171462Y227016D01*
X-171556Y227010D01*
X-171649Y227008D01*
X-174090Y229449D02*
X-169208Y235551D01*
X-226316Y219992D02*
X-222655Y209008D01*
X-218994Y219992D01*
X-214906Y217551D02*
X-211855Y219992D01*
X-211855Y209008D01*
X-214906Y209008D02*
X-208804Y209008D01*
X-204600Y209008D02*
X-204600Y209618D01*
X-203990Y209618D01*
X-203990Y209008D01*
X-204600Y209008D01*
X-199786Y214500D02*
X-199783Y214716D01*
X-199776Y214932D01*
X-199763Y215148D01*
X-199745Y215363D01*
X-199722Y215578D01*
X-199693Y215792D01*
X-199660Y216006D01*
X-199621Y216218D01*
X-199578Y216430D01*
X-199529Y216641D01*
X-199476Y216850D01*
X-199417Y217058D01*
X-199354Y217264D01*
X-199285Y217469D01*
X-199212Y217673D01*
X-199134Y217874D01*
X-199051Y218074D01*
X-198963Y218271D01*
X-198871Y218467D01*
X-198871Y218466D02*
X-198839Y218554D01*
X-198803Y218640D01*
X-198764Y218725D01*
X-198721Y218808D01*
X-198675Y218889D01*
X-198626Y218968D01*
X-198573Y219046D01*
X-198517Y219120D01*
X-198458Y219193D01*
X-198397Y219263D01*
X-198332Y219330D01*
X-198265Y219395D01*
X-198195Y219457D01*
X-198122Y219516D01*
X-198047Y219571D01*
X-197970Y219624D01*
X-197891Y219674D01*
X-197810Y219720D01*
X-197727Y219762D01*
X-197642Y219802D01*
X-197556Y219837D01*
X-197468Y219870D01*
X-197379Y219898D01*
X-197289Y219923D01*
X-197199Y219944D01*
X-197107Y219961D01*
X-197014Y219975D01*
X-196922Y219984D01*
X-196828Y219990D01*
X-196735Y219992D01*
X-196642Y219990D01*
X-196548Y219984D01*
X-196456Y219975D01*
X-196363Y219961D01*
X-196271Y219944D01*
X-196181Y219923D01*
X-196091Y219898D01*
X-196002Y219870D01*
X-195914Y219837D01*
X-195828Y219802D01*
X-195743Y219762D01*
X-195660Y219720D01*
X-195579Y219674D01*
X-195500Y219624D01*
X-195423Y219571D01*
X-195348Y219516D01*
X-195275Y219457D01*
X-195205Y219395D01*
X-195138Y219330D01*
X-195073Y219263D01*
X-195012Y219193D01*
X-194953Y219120D01*
X-194897Y219046D01*
X-194844Y218968D01*
X-194795Y218889D01*
X-194749Y218808D01*
X-194706Y218725D01*
X-194667Y218640D01*
X-194631Y218554D01*
X-194599Y218466D01*
X-194598Y218467D02*
X-194506Y218271D01*
X-194418Y218074D01*
X-194335Y217874D01*
X-194257Y217673D01*
X-194184Y217469D01*
X-194115Y217264D01*
X-194052Y217058D01*
X-193993Y216850D01*
X-193940Y216641D01*
X-193891Y216430D01*
X-193848Y216218D01*
X-193809Y216006D01*
X-193776Y215792D01*
X-193747Y215578D01*
X-193724Y215363D01*
X-193706Y215148D01*
X-193693Y214932D01*
X-193686Y214716D01*
X-193683Y214500D01*
X-199786Y214500D02*
X-199783Y214284D01*
X-199776Y214068D01*
X-199763Y213852D01*
X-199745Y213637D01*
X-199722Y213422D01*
X-199693Y213208D01*
X-199660Y212994D01*
X-199621Y212782D01*
X-199578Y212570D01*
X-199529Y212360D01*
X-199476Y212150D01*
X-199417Y211942D01*
X-199354Y211736D01*
X-199285Y211531D01*
X-199212Y211327D01*
X-199134Y211126D01*
X-199051Y210926D01*
X-198963Y210729D01*
X-198871Y210534D01*
X-198839Y210446D01*
X-198803Y210360D01*
X-198764Y210275D01*
X-198721Y210192D01*
X-198675Y210111D01*
X-198626Y210032D01*
X-198573Y209954D01*
X-198517Y209880D01*
X-198458Y209807D01*
X-198397Y209737D01*
X-198332Y209670D01*
X-198265Y209605D01*
X-198195Y209543D01*
X-198122Y209484D01*
X-198047Y209429D01*
X-197970Y209376D01*
X-197891Y209326D01*
X-197810Y209280D01*
X-197727Y209238D01*
X-197642Y209198D01*
X-197556Y209163D01*
X-197468Y209130D01*
X-197379Y209102D01*
X-197289Y209077D01*
X-197199Y209056D01*
X-197107Y209039D01*
X-197014Y209025D01*
X-196922Y209016D01*
X-196828Y209010D01*
X-196735Y209008D01*
X-194599Y210533D02*
X-194507Y210729D01*
X-194419Y210926D01*
X-194336Y211126D01*
X-194258Y211327D01*
X-194185Y211531D01*
X-194116Y211736D01*
X-194053Y211942D01*
X-193994Y212150D01*
X-193941Y212359D01*
X-193892Y212570D01*
X-193849Y212782D01*
X-193810Y212994D01*
X-193777Y213208D01*
X-193748Y213422D01*
X-193725Y213637D01*
X-193707Y213852D01*
X-193694Y214068D01*
X-193687Y214284D01*
X-193684Y214500D01*
X-194599Y210534D02*
X-194631Y210446D01*
X-194667Y210360D01*
X-194706Y210275D01*
X-194749Y210192D01*
X-194795Y210111D01*
X-194844Y210032D01*
X-194897Y209954D01*
X-194953Y209880D01*
X-195012Y209807D01*
X-195073Y209737D01*
X-195138Y209670D01*
X-195205Y209605D01*
X-195275Y209543D01*
X-195348Y209484D01*
X-195423Y209429D01*
X-195500Y209376D01*
X-195579Y209326D01*
X-195660Y209280D01*
X-195743Y209238D01*
X-195828Y209198D01*
X-195914Y209163D01*
X-196002Y209130D01*
X-196091Y209102D01*
X-196181Y209077D01*
X-196271Y209056D01*
X-196363Y209039D01*
X-196456Y209025D01*
X-196548Y209016D01*
X-196642Y209010D01*
X-196735Y209008D01*
X-199176Y211449D02*
X-194294Y217551D01*
X-241473Y197992D02*
X-241473Y189449D01*
X-241475Y189353D01*
X-241481Y189257D01*
X-241490Y189162D01*
X-241503Y189067D01*
X-241520Y188973D01*
X-241540Y188879D01*
X-241565Y188786D01*
X-241592Y188695D01*
X-241624Y188604D01*
X-241659Y188515D01*
X-241697Y188427D01*
X-241739Y188341D01*
X-241784Y188256D01*
X-241833Y188174D01*
X-241884Y188093D01*
X-241939Y188014D01*
X-241997Y187938D01*
X-242058Y187864D01*
X-242122Y187792D01*
X-242188Y187723D01*
X-242257Y187657D01*
X-242329Y187593D01*
X-242403Y187532D01*
X-242479Y187474D01*
X-242558Y187419D01*
X-242639Y187368D01*
X-242721Y187319D01*
X-242806Y187274D01*
X-242892Y187232D01*
X-242980Y187194D01*
X-243069Y187159D01*
X-243160Y187127D01*
X-243251Y187100D01*
X-243344Y187075D01*
X-243438Y187055D01*
X-243532Y187038D01*
X-243627Y187025D01*
X-243722Y187016D01*
X-243818Y187010D01*
X-243914Y187008D01*
X-245134Y187008D01*
X-236100Y187008D02*
X-236100Y197992D01*
X-229998Y187008D01*
X-229998Y197992D01*
X-224416Y197992D02*
X-224416Y187008D01*
X-224416Y197992D02*
X-221365Y197992D01*
X-221256Y197990D01*
X-221147Y197984D01*
X-221039Y197975D01*
X-220931Y197961D01*
X-220823Y197944D01*
X-220716Y197922D01*
X-220610Y197897D01*
X-220505Y197868D01*
X-220401Y197836D01*
X-220299Y197800D01*
X-220197Y197760D01*
X-220098Y197716D01*
X-219999Y197669D01*
X-219903Y197619D01*
X-219808Y197565D01*
X-219716Y197508D01*
X-219625Y197447D01*
X-219537Y197383D01*
X-219451Y197317D01*
X-219367Y197247D01*
X-219286Y197174D01*
X-219208Y197098D01*
X-219132Y197020D01*
X-219059Y196939D01*
X-218989Y196855D01*
X-218923Y196769D01*
X-218859Y196681D01*
X-218798Y196590D01*
X-218741Y196498D01*
X-218687Y196403D01*
X-218637Y196307D01*
X-218590Y196208D01*
X-218546Y196109D01*
X-218506Y196007D01*
X-218470Y195905D01*
X-218438Y195801D01*
X-218409Y195696D01*
X-218384Y195590D01*
X-218362Y195483D01*
X-218345Y195375D01*
X-218331Y195267D01*
X-218322Y195159D01*
X-218316Y195050D01*
X-218314Y194941D01*
X-218316Y194832D01*
X-218322Y194723D01*
X-218331Y194615D01*
X-218345Y194507D01*
X-218362Y194399D01*
X-218384Y194292D01*
X-218409Y194186D01*
X-218438Y194081D01*
X-218470Y193977D01*
X-218506Y193875D01*
X-218546Y193773D01*
X-218590Y193674D01*
X-218637Y193575D01*
X-218687Y193479D01*
X-218741Y193384D01*
X-218798Y193292D01*
X-218859Y193201D01*
X-218923Y193113D01*
X-218989Y193027D01*
X-219059Y192943D01*
X-219132Y192862D01*
X-219208Y192784D01*
X-219286Y192708D01*
X-219367Y192635D01*
X-219451Y192565D01*
X-219537Y192499D01*
X-219625Y192435D01*
X-219716Y192374D01*
X-219808Y192317D01*
X-219903Y192263D01*
X-219999Y192213D01*
X-220098Y192166D01*
X-220197Y192122D01*
X-220299Y192082D01*
X-220401Y192046D01*
X-220505Y192014D01*
X-220610Y191985D01*
X-220716Y191960D01*
X-220823Y191938D01*
X-220931Y191921D01*
X-221039Y191907D01*
X-221147Y191898D01*
X-221256Y191892D01*
X-221365Y191890D01*
X-224416Y191890D01*
X-214031Y191280D02*
X-206708Y191280D01*
X-201431Y187008D02*
X-201431Y197992D01*
X-197769Y191890D01*
X-194108Y197992D01*
X-194108Y187008D01*
X-189050Y189449D02*
X-189050Y191890D01*
X-189048Y191987D01*
X-189042Y192084D01*
X-189033Y192181D01*
X-189019Y192277D01*
X-189002Y192372D01*
X-188981Y192467D01*
X-188956Y192561D01*
X-188928Y192654D01*
X-188895Y192745D01*
X-188860Y192835D01*
X-188820Y192924D01*
X-188777Y193011D01*
X-188731Y193096D01*
X-188681Y193180D01*
X-188628Y193261D01*
X-188572Y193340D01*
X-188513Y193417D01*
X-188451Y193492D01*
X-188386Y193564D01*
X-188318Y193633D01*
X-188247Y193700D01*
X-188174Y193763D01*
X-188098Y193824D01*
X-188020Y193882D01*
X-187940Y193936D01*
X-187857Y193988D01*
X-187773Y194036D01*
X-187687Y194080D01*
X-187599Y194121D01*
X-187509Y194159D01*
X-187418Y194193D01*
X-187326Y194223D01*
X-187233Y194250D01*
X-187139Y194273D01*
X-187043Y194292D01*
X-186948Y194307D01*
X-186851Y194319D01*
X-186755Y194327D01*
X-186658Y194331D01*
X-186560Y194331D01*
X-186463Y194327D01*
X-186367Y194319D01*
X-186270Y194307D01*
X-186175Y194292D01*
X-186079Y194273D01*
X-185985Y194250D01*
X-185892Y194223D01*
X-185800Y194193D01*
X-185709Y194159D01*
X-185619Y194121D01*
X-185531Y194080D01*
X-185445Y194036D01*
X-185361Y193988D01*
X-185278Y193936D01*
X-185198Y193882D01*
X-185120Y193824D01*
X-185044Y193763D01*
X-184971Y193700D01*
X-184900Y193633D01*
X-184832Y193564D01*
X-184767Y193492D01*
X-184705Y193417D01*
X-184646Y193340D01*
X-184590Y193261D01*
X-184537Y193180D01*
X-184487Y193096D01*
X-184441Y193011D01*
X-184398Y192924D01*
X-184358Y192835D01*
X-184323Y192745D01*
X-184290Y192654D01*
X-184262Y192561D01*
X-184237Y192467D01*
X-184216Y192372D01*
X-184199Y192277D01*
X-184185Y192181D01*
X-184176Y192084D01*
X-184170Y191987D01*
X-184168Y191890D01*
X-184168Y189449D01*
X-184170Y189352D01*
X-184176Y189255D01*
X-184185Y189158D01*
X-184199Y189062D01*
X-184216Y188967D01*
X-184237Y188872D01*
X-184262Y188778D01*
X-184290Y188685D01*
X-184323Y188594D01*
X-184358Y188504D01*
X-184398Y188415D01*
X-184441Y188328D01*
X-184487Y188243D01*
X-184537Y188159D01*
X-184590Y188078D01*
X-184646Y187999D01*
X-184705Y187922D01*
X-184767Y187847D01*
X-184832Y187775D01*
X-184900Y187706D01*
X-184971Y187639D01*
X-185044Y187576D01*
X-185120Y187515D01*
X-185198Y187457D01*
X-185278Y187403D01*
X-185361Y187351D01*
X-185445Y187303D01*
X-185531Y187259D01*
X-185619Y187218D01*
X-185709Y187180D01*
X-185800Y187146D01*
X-185892Y187116D01*
X-185985Y187089D01*
X-186079Y187066D01*
X-186175Y187047D01*
X-186270Y187032D01*
X-186367Y187020D01*
X-186463Y187012D01*
X-186560Y187008D01*
X-186658Y187008D01*
X-186755Y187012D01*
X-186851Y187020D01*
X-186948Y187032D01*
X-187043Y187047D01*
X-187139Y187066D01*
X-187233Y187089D01*
X-187326Y187116D01*
X-187418Y187146D01*
X-187509Y187180D01*
X-187599Y187218D01*
X-187687Y187259D01*
X-187773Y187303D01*
X-187857Y187351D01*
X-187940Y187403D01*
X-188020Y187457D01*
X-188098Y187515D01*
X-188174Y187576D01*
X-188247Y187639D01*
X-188318Y187706D01*
X-188386Y187775D01*
X-188451Y187847D01*
X-188513Y187922D01*
X-188572Y187999D01*
X-188628Y188078D01*
X-188681Y188159D01*
X-188731Y188243D01*
X-188777Y188328D01*
X-188820Y188415D01*
X-188860Y188504D01*
X-188895Y188594D01*
X-188928Y188685D01*
X-188956Y188778D01*
X-188981Y188872D01*
X-189002Y188967D01*
X-189019Y189062D01*
X-189033Y189158D01*
X-189042Y189255D01*
X-189048Y189352D01*
X-189050Y189449D01*
X-174866Y187008D02*
X-174866Y197992D01*
X-174866Y187008D02*
X-177917Y187008D01*
X-178002Y187010D01*
X-178086Y187016D01*
X-178170Y187026D01*
X-178253Y187039D01*
X-178336Y187057D01*
X-178418Y187078D01*
X-178499Y187103D01*
X-178578Y187132D01*
X-178657Y187164D01*
X-178733Y187200D01*
X-178808Y187239D01*
X-178881Y187282D01*
X-178952Y187328D01*
X-179020Y187378D01*
X-179087Y187430D01*
X-179151Y187486D01*
X-179212Y187544D01*
X-179270Y187605D01*
X-179326Y187669D01*
X-179378Y187736D01*
X-179428Y187804D01*
X-179474Y187875D01*
X-179517Y187948D01*
X-179556Y188023D01*
X-179592Y188099D01*
X-179624Y188178D01*
X-179653Y188257D01*
X-179678Y188338D01*
X-179699Y188420D01*
X-179717Y188503D01*
X-179730Y188586D01*
X-179740Y188670D01*
X-179746Y188754D01*
X-179748Y188839D01*
X-179748Y192500D01*
X-179746Y192585D01*
X-179740Y192669D01*
X-179730Y192753D01*
X-179717Y192836D01*
X-179699Y192919D01*
X-179678Y193001D01*
X-179653Y193082D01*
X-179624Y193161D01*
X-179592Y193240D01*
X-179556Y193316D01*
X-179517Y193391D01*
X-179474Y193464D01*
X-179428Y193535D01*
X-179378Y193603D01*
X-179326Y193670D01*
X-179270Y193734D01*
X-179212Y193795D01*
X-179151Y193853D01*
X-179087Y193909D01*
X-179020Y193961D01*
X-178952Y194011D01*
X-178881Y194057D01*
X-178808Y194100D01*
X-178733Y194139D01*
X-178657Y194175D01*
X-178578Y194207D01*
X-178499Y194236D01*
X-178418Y194261D01*
X-178336Y194282D01*
X-178253Y194300D01*
X-178170Y194313D01*
X-178086Y194323D01*
X-178002Y194329D01*
X-177917Y194331D01*
X-174866Y194331D01*
D11*
X-77526Y225381D02*
X-71368Y234619D01*
X-77526Y234619D02*
X-71368Y225381D01*
X-68013Y230513D02*
X-64934Y230513D01*
X-64844Y230511D01*
X-64755Y230505D01*
X-64666Y230495D01*
X-64578Y230482D01*
X-64490Y230464D01*
X-64403Y230443D01*
X-64317Y230418D01*
X-64232Y230389D01*
X-64148Y230357D01*
X-64066Y230321D01*
X-63986Y230281D01*
X-63908Y230238D01*
X-63831Y230191D01*
X-63756Y230142D01*
X-63684Y230089D01*
X-63614Y230033D01*
X-63547Y229974D01*
X-63482Y229912D01*
X-63420Y229847D01*
X-63361Y229780D01*
X-63305Y229710D01*
X-63252Y229638D01*
X-63203Y229563D01*
X-63156Y229487D01*
X-63113Y229408D01*
X-63073Y229328D01*
X-63037Y229246D01*
X-63005Y229162D01*
X-62976Y229077D01*
X-62951Y228991D01*
X-62930Y228904D01*
X-62912Y228817D01*
X-62899Y228728D01*
X-62889Y228639D01*
X-62883Y228550D01*
X-62881Y228460D01*
X-62881Y227947D01*
X-62883Y227848D01*
X-62889Y227748D01*
X-62898Y227649D01*
X-62912Y227551D01*
X-62929Y227453D01*
X-62950Y227355D01*
X-62975Y227259D01*
X-63004Y227164D01*
X-63036Y227069D01*
X-63072Y226977D01*
X-63111Y226885D01*
X-63154Y226795D01*
X-63200Y226707D01*
X-63250Y226621D01*
X-63303Y226537D01*
X-63359Y226455D01*
X-63419Y226375D01*
X-63481Y226298D01*
X-63547Y226223D01*
X-63615Y226150D01*
X-63686Y226081D01*
X-63760Y226014D01*
X-63836Y225950D01*
X-63915Y225889D01*
X-63996Y225831D01*
X-64079Y225776D01*
X-64164Y225725D01*
X-64251Y225677D01*
X-64340Y225632D01*
X-64431Y225591D01*
X-64523Y225553D01*
X-64616Y225519D01*
X-64711Y225489D01*
X-64807Y225462D01*
X-64904Y225439D01*
X-65001Y225420D01*
X-65100Y225405D01*
X-65199Y225393D01*
X-65298Y225385D01*
X-65397Y225381D01*
X-65497Y225381D01*
X-65596Y225385D01*
X-65695Y225393D01*
X-65794Y225405D01*
X-65893Y225420D01*
X-65990Y225439D01*
X-66087Y225462D01*
X-66183Y225489D01*
X-66278Y225519D01*
X-66371Y225553D01*
X-66463Y225591D01*
X-66554Y225632D01*
X-66643Y225677D01*
X-66730Y225725D01*
X-66815Y225776D01*
X-66898Y225831D01*
X-66979Y225889D01*
X-67058Y225950D01*
X-67134Y226014D01*
X-67208Y226081D01*
X-67279Y226150D01*
X-67347Y226223D01*
X-67413Y226298D01*
X-67475Y226375D01*
X-67535Y226455D01*
X-67591Y226537D01*
X-67644Y226621D01*
X-67694Y226707D01*
X-67740Y226795D01*
X-67783Y226885D01*
X-67822Y226977D01*
X-67858Y227069D01*
X-67890Y227164D01*
X-67919Y227259D01*
X-67944Y227355D01*
X-67965Y227453D01*
X-67982Y227551D01*
X-67996Y227649D01*
X-68005Y227748D01*
X-68011Y227848D01*
X-68013Y227947D01*
X-68013Y230513D01*
X-68011Y230639D01*
X-68005Y230766D01*
X-67995Y230892D01*
X-67982Y231018D01*
X-67964Y231143D01*
X-67943Y231267D01*
X-67918Y231391D01*
X-67889Y231515D01*
X-67856Y231637D01*
X-67820Y231758D01*
X-67780Y231878D01*
X-67736Y231996D01*
X-67688Y232113D01*
X-67637Y232229D01*
X-67583Y232343D01*
X-67524Y232456D01*
X-67463Y232566D01*
X-67398Y232675D01*
X-67330Y232781D01*
X-67258Y232885D01*
X-67184Y232987D01*
X-67106Y233087D01*
X-67025Y233184D01*
X-66941Y233279D01*
X-66855Y233371D01*
X-66765Y233461D01*
X-66673Y233547D01*
X-66578Y233631D01*
X-66481Y233712D01*
X-66381Y233790D01*
X-66279Y233864D01*
X-66175Y233936D01*
X-66069Y234004D01*
X-65960Y234069D01*
X-65850Y234130D01*
X-65737Y234189D01*
X-65623Y234243D01*
X-65507Y234294D01*
X-65390Y234342D01*
X-65272Y234386D01*
X-65152Y234426D01*
X-65031Y234462D01*
X-64909Y234495D01*
X-64785Y234524D01*
X-64661Y234549D01*
X-64537Y234570D01*
X-64412Y234588D01*
X-64286Y234601D01*
X-64160Y234611D01*
X-64033Y234617D01*
X-63907Y234619D01*
D10*
X-9800Y3500D02*
X14750Y3500D01*
X-9800Y3500D02*
X-35200Y3500D01*
X-59750Y3500D01*
X-59750Y64800D01*
X14750Y64800D01*
X14750Y3500D01*
X-9800Y3500D02*
X-9800Y26700D01*
X-35200Y26700D01*
X-35200Y3500D01*
D11*
X933Y72881D02*
X6425Y81119D01*
X933Y81119D02*
X6425Y72881D01*
X9491Y74712D02*
X11321Y81119D01*
X9491Y74712D02*
X14067Y74712D01*
X12694Y76542D02*
X12694Y72881D01*
X-43811Y90381D02*
X-43811Y97619D01*
X-41800Y97619D01*
X-41711Y97617D01*
X-41622Y97611D01*
X-41534Y97601D01*
X-41446Y97588D01*
X-41359Y97570D01*
X-41272Y97549D01*
X-41187Y97523D01*
X-41103Y97494D01*
X-41020Y97462D01*
X-40939Y97425D01*
X-40859Y97385D01*
X-40782Y97342D01*
X-40706Y97295D01*
X-40632Y97245D01*
X-40561Y97192D01*
X-40492Y97136D01*
X-40426Y97076D01*
X-40362Y97014D01*
X-40302Y96949D01*
X-40244Y96882D01*
X-40189Y96812D01*
X-40137Y96739D01*
X-40089Y96664D01*
X-40044Y96588D01*
X-40002Y96509D01*
X-39964Y96429D01*
X-39930Y96347D01*
X-39899Y96263D01*
X-39872Y96178D01*
X-39848Y96093D01*
X-39829Y96006D01*
X-39813Y95918D01*
X-39801Y95830D01*
X-39793Y95741D01*
X-39789Y95652D01*
X-39789Y95564D01*
X-39793Y95475D01*
X-39801Y95386D01*
X-39813Y95298D01*
X-39829Y95210D01*
X-39848Y95123D01*
X-39872Y95038D01*
X-39899Y94953D01*
X-39930Y94869D01*
X-39964Y94787D01*
X-40002Y94707D01*
X-40044Y94628D01*
X-40089Y94552D01*
X-40137Y94477D01*
X-40189Y94404D01*
X-40244Y94334D01*
X-40302Y94267D01*
X-40362Y94202D01*
X-40426Y94140D01*
X-40492Y94080D01*
X-40561Y94024D01*
X-40632Y93971D01*
X-40706Y93921D01*
X-40782Y93874D01*
X-40859Y93831D01*
X-40939Y93791D01*
X-41020Y93754D01*
X-41103Y93722D01*
X-41187Y93693D01*
X-41272Y93667D01*
X-41359Y93646D01*
X-41446Y93628D01*
X-41534Y93615D01*
X-41622Y93605D01*
X-41711Y93599D01*
X-41800Y93597D01*
X-41800Y93598D02*
X-43811Y93598D01*
X-35679Y93196D02*
X-33870Y93196D01*
X-35679Y93195D02*
X-35753Y93193D01*
X-35826Y93187D01*
X-35899Y93178D01*
X-35972Y93164D01*
X-36043Y93147D01*
X-36114Y93126D01*
X-36183Y93102D01*
X-36251Y93073D01*
X-36318Y93042D01*
X-36383Y93006D01*
X-36445Y92968D01*
X-36506Y92926D01*
X-36564Y92881D01*
X-36620Y92834D01*
X-36674Y92783D01*
X-36725Y92729D01*
X-36772Y92673D01*
X-36817Y92615D01*
X-36859Y92554D01*
X-36897Y92492D01*
X-36933Y92427D01*
X-36964Y92360D01*
X-36993Y92292D01*
X-37017Y92223D01*
X-37038Y92152D01*
X-37055Y92081D01*
X-37069Y92008D01*
X-37078Y91935D01*
X-37084Y91862D01*
X-37086Y91788D01*
X-37084Y91714D01*
X-37078Y91641D01*
X-37069Y91568D01*
X-37055Y91495D01*
X-37038Y91424D01*
X-37017Y91353D01*
X-36993Y91284D01*
X-36964Y91216D01*
X-36933Y91149D01*
X-36897Y91085D01*
X-36859Y91022D01*
X-36817Y90961D01*
X-36772Y90903D01*
X-36725Y90847D01*
X-36674Y90793D01*
X-36620Y90742D01*
X-36564Y90695D01*
X-36506Y90650D01*
X-36445Y90608D01*
X-36383Y90570D01*
X-36318Y90534D01*
X-36251Y90503D01*
X-36183Y90474D01*
X-36114Y90450D01*
X-36043Y90429D01*
X-35972Y90412D01*
X-35899Y90398D01*
X-35826Y90389D01*
X-35753Y90383D01*
X-35679Y90381D01*
X-33870Y90381D01*
X-33870Y94000D01*
X-33872Y94068D01*
X-33878Y94135D01*
X-33887Y94202D01*
X-33900Y94268D01*
X-33917Y94334D01*
X-33938Y94398D01*
X-33962Y94462D01*
X-33989Y94523D01*
X-34020Y94583D01*
X-34055Y94642D01*
X-34092Y94698D01*
X-34133Y94752D01*
X-34177Y94804D01*
X-34223Y94853D01*
X-34272Y94899D01*
X-34324Y94943D01*
X-34378Y94984D01*
X-34434Y95021D01*
X-34493Y95056D01*
X-34553Y95087D01*
X-34615Y95114D01*
X-34678Y95138D01*
X-34742Y95159D01*
X-34808Y95176D01*
X-34874Y95189D01*
X-34941Y95198D01*
X-35008Y95204D01*
X-35076Y95206D01*
X-36684Y95206D01*
X-30280Y95206D02*
X-30280Y90381D01*
X-30280Y95206D02*
X-27867Y95206D01*
X-27867Y94402D01*
X-26147Y95206D02*
X-23735Y95206D01*
X-25343Y97619D02*
X-25343Y91587D01*
X-25341Y91519D01*
X-25335Y91452D01*
X-25326Y91385D01*
X-25313Y91319D01*
X-25296Y91253D01*
X-25275Y91189D01*
X-25251Y91125D01*
X-25224Y91064D01*
X-25193Y91004D01*
X-25158Y90945D01*
X-25121Y90889D01*
X-25080Y90835D01*
X-25036Y90783D01*
X-24990Y90734D01*
X-24941Y90688D01*
X-24889Y90644D01*
X-24835Y90603D01*
X-24779Y90566D01*
X-24720Y90531D01*
X-24660Y90500D01*
X-24599Y90473D01*
X-24535Y90449D01*
X-24471Y90428D01*
X-24405Y90411D01*
X-24339Y90398D01*
X-24272Y90389D01*
X-24205Y90383D01*
X-24137Y90381D01*
X-23735Y90381D01*
X-21206Y89577D02*
X-17989Y89577D01*
X-14819Y90381D02*
X-14819Y96413D01*
X-14817Y96481D01*
X-14811Y96548D01*
X-14802Y96615D01*
X-14789Y96681D01*
X-14772Y96747D01*
X-14751Y96811D01*
X-14727Y96875D01*
X-14700Y96936D01*
X-14669Y96996D01*
X-14634Y97055D01*
X-14597Y97111D01*
X-14556Y97165D01*
X-14512Y97217D01*
X-14466Y97266D01*
X-14417Y97312D01*
X-14365Y97356D01*
X-14311Y97397D01*
X-14255Y97434D01*
X-14196Y97469D01*
X-14136Y97500D01*
X-14075Y97527D01*
X-14011Y97551D01*
X-13947Y97572D01*
X-13881Y97589D01*
X-13815Y97602D01*
X-13748Y97611D01*
X-13681Y97617D01*
X-13613Y97619D01*
X-13211Y97619D01*
X-13211Y95206D02*
X-15624Y95206D01*
X-9759Y93196D02*
X-7950Y93196D01*
X-9759Y93195D02*
X-9833Y93193D01*
X-9906Y93187D01*
X-9979Y93178D01*
X-10052Y93164D01*
X-10123Y93147D01*
X-10194Y93126D01*
X-10263Y93102D01*
X-10331Y93073D01*
X-10398Y93042D01*
X-10463Y93006D01*
X-10525Y92968D01*
X-10586Y92926D01*
X-10644Y92881D01*
X-10700Y92834D01*
X-10754Y92783D01*
X-10805Y92729D01*
X-10852Y92673D01*
X-10897Y92615D01*
X-10939Y92554D01*
X-10977Y92492D01*
X-11013Y92427D01*
X-11044Y92360D01*
X-11073Y92292D01*
X-11097Y92223D01*
X-11118Y92152D01*
X-11135Y92081D01*
X-11149Y92008D01*
X-11158Y91935D01*
X-11164Y91862D01*
X-11166Y91788D01*
X-11164Y91714D01*
X-11158Y91641D01*
X-11149Y91568D01*
X-11135Y91495D01*
X-11118Y91424D01*
X-11097Y91353D01*
X-11073Y91284D01*
X-11044Y91216D01*
X-11013Y91149D01*
X-10977Y91085D01*
X-10939Y91022D01*
X-10897Y90961D01*
X-10852Y90903D01*
X-10805Y90847D01*
X-10754Y90793D01*
X-10700Y90742D01*
X-10644Y90695D01*
X-10586Y90650D01*
X-10525Y90608D01*
X-10463Y90570D01*
X-10398Y90534D01*
X-10331Y90503D01*
X-10263Y90474D01*
X-10194Y90450D01*
X-10123Y90429D01*
X-10052Y90412D01*
X-9979Y90398D01*
X-9906Y90389D01*
X-9833Y90383D01*
X-9759Y90381D01*
X-7950Y90381D01*
X-7950Y94000D01*
X-7952Y94068D01*
X-7958Y94135D01*
X-7967Y94202D01*
X-7980Y94268D01*
X-7997Y94334D01*
X-8018Y94398D01*
X-8042Y94462D01*
X-8069Y94523D01*
X-8100Y94583D01*
X-8135Y94642D01*
X-8172Y94698D01*
X-8213Y94752D01*
X-8257Y94804D01*
X-8303Y94853D01*
X-8352Y94899D01*
X-8404Y94943D01*
X-8458Y94984D01*
X-8514Y95021D01*
X-8573Y95056D01*
X-8633Y95087D01*
X-8695Y95114D01*
X-8758Y95138D01*
X-8822Y95159D01*
X-8888Y95176D01*
X-8954Y95189D01*
X-9021Y95198D01*
X-9088Y95204D01*
X-9156Y95206D01*
X-10764Y95206D01*
X-4406Y95206D02*
X-4406Y90381D01*
X-4406Y95206D02*
X-2395Y95206D01*
X-2327Y95204D01*
X-2260Y95198D01*
X-2193Y95189D01*
X-2127Y95176D01*
X-2061Y95159D01*
X-1997Y95138D01*
X-1933Y95114D01*
X-1872Y95087D01*
X-1812Y95056D01*
X-1753Y95021D01*
X-1697Y94984D01*
X-1643Y94943D01*
X-1591Y94899D01*
X-1542Y94853D01*
X-1496Y94804D01*
X-1452Y94752D01*
X-1411Y94698D01*
X-1374Y94642D01*
X-1340Y94583D01*
X-1308Y94523D01*
X-1281Y94462D01*
X-1257Y94398D01*
X-1236Y94334D01*
X-1219Y94268D01*
X-1206Y94202D01*
X-1197Y94135D01*
X-1191Y94068D01*
X-1189Y94000D01*
X-1189Y90381D01*
D10*
X145200Y3500D02*
X169750Y3500D01*
X145200Y3500D02*
X119800Y3500D01*
X95250Y3500D01*
X95250Y64800D01*
X169750Y64800D01*
X169750Y3500D01*
X145200Y3500D02*
X145200Y26700D01*
X119800Y26700D01*
X119800Y3500D01*
D11*
X155933Y72881D02*
X161425Y81119D01*
X155933Y81119D02*
X161425Y72881D01*
X169068Y79060D02*
X169066Y79150D01*
X169060Y79240D01*
X169050Y79329D01*
X169037Y79418D01*
X169019Y79506D01*
X168998Y79593D01*
X168973Y79679D01*
X168944Y79765D01*
X168911Y79848D01*
X168875Y79931D01*
X168835Y80011D01*
X168792Y80090D01*
X168745Y80167D01*
X168695Y80242D01*
X168642Y80314D01*
X168586Y80384D01*
X168527Y80452D01*
X168465Y80517D01*
X168400Y80579D01*
X168332Y80638D01*
X168262Y80694D01*
X168190Y80747D01*
X168115Y80797D01*
X168038Y80844D01*
X167959Y80887D01*
X167879Y80927D01*
X167796Y80963D01*
X167713Y80996D01*
X167627Y81025D01*
X167541Y81050D01*
X167454Y81071D01*
X167366Y81089D01*
X167277Y81102D01*
X167188Y81112D01*
X167098Y81118D01*
X167008Y81120D01*
X167008Y81119D02*
X166907Y81117D01*
X166807Y81111D01*
X166706Y81102D01*
X166606Y81088D01*
X166507Y81071D01*
X166408Y81050D01*
X166310Y81025D01*
X166214Y80997D01*
X166118Y80965D01*
X166024Y80929D01*
X165931Y80890D01*
X165840Y80847D01*
X165750Y80801D01*
X165662Y80751D01*
X165576Y80698D01*
X165493Y80642D01*
X165411Y80583D01*
X165332Y80520D01*
X165255Y80455D01*
X165181Y80387D01*
X165109Y80316D01*
X165040Y80242D01*
X164975Y80166D01*
X164911Y80087D01*
X164852Y80006D01*
X164795Y79923D01*
X164741Y79838D01*
X164691Y79750D01*
X164644Y79661D01*
X164600Y79570D01*
X164560Y79478D01*
X164524Y79384D01*
X164491Y79288D01*
X168381Y77458D02*
X168444Y77521D01*
X168505Y77587D01*
X168563Y77655D01*
X168619Y77725D01*
X168671Y77798D01*
X168721Y77872D01*
X168768Y77949D01*
X168811Y78027D01*
X168851Y78107D01*
X168888Y78189D01*
X168922Y78272D01*
X168952Y78356D01*
X168979Y78441D01*
X169002Y78528D01*
X169022Y78615D01*
X169038Y78703D01*
X169051Y78792D01*
X169060Y78881D01*
X169065Y78970D01*
X169067Y79060D01*
X168381Y77458D02*
X164491Y72881D01*
X169067Y72881D01*
X106560Y90381D02*
X106560Y97619D01*
X104550Y97619D02*
X108571Y97619D01*
X111432Y97619D02*
X111432Y90381D01*
X111432Y95206D02*
X113442Y95206D01*
X113510Y95204D01*
X113577Y95198D01*
X113644Y95189D01*
X113710Y95176D01*
X113776Y95159D01*
X113840Y95138D01*
X113904Y95114D01*
X113965Y95087D01*
X114025Y95056D01*
X114084Y95021D01*
X114140Y94984D01*
X114194Y94943D01*
X114246Y94899D01*
X114295Y94853D01*
X114341Y94804D01*
X114385Y94752D01*
X114426Y94698D01*
X114463Y94642D01*
X114498Y94583D01*
X114529Y94523D01*
X114556Y94462D01*
X114580Y94398D01*
X114601Y94334D01*
X114618Y94268D01*
X114631Y94202D01*
X114640Y94135D01*
X114646Y94068D01*
X114648Y94000D01*
X114649Y94000D02*
X114649Y90381D01*
X119118Y90381D02*
X121129Y90381D01*
X119118Y90381D02*
X119050Y90383D01*
X118983Y90389D01*
X118916Y90398D01*
X118850Y90411D01*
X118784Y90428D01*
X118720Y90449D01*
X118656Y90473D01*
X118595Y90500D01*
X118535Y90531D01*
X118476Y90566D01*
X118420Y90603D01*
X118366Y90644D01*
X118314Y90688D01*
X118265Y90734D01*
X118219Y90783D01*
X118175Y90835D01*
X118134Y90889D01*
X118097Y90945D01*
X118062Y91004D01*
X118031Y91064D01*
X118004Y91125D01*
X117980Y91189D01*
X117959Y91253D01*
X117942Y91319D01*
X117929Y91385D01*
X117920Y91452D01*
X117914Y91519D01*
X117912Y91587D01*
X117912Y93598D01*
X117914Y93677D01*
X117920Y93756D01*
X117929Y93834D01*
X117943Y93912D01*
X117960Y93989D01*
X117981Y94065D01*
X118006Y94140D01*
X118034Y94213D01*
X118066Y94286D01*
X118102Y94356D01*
X118141Y94425D01*
X118183Y94491D01*
X118228Y94556D01*
X118277Y94618D01*
X118329Y94678D01*
X118383Y94735D01*
X118440Y94789D01*
X118500Y94841D01*
X118562Y94890D01*
X118627Y94935D01*
X118693Y94977D01*
X118762Y95016D01*
X118832Y95052D01*
X118905Y95084D01*
X118978Y95112D01*
X119053Y95137D01*
X119129Y95158D01*
X119206Y95175D01*
X119284Y95189D01*
X119362Y95198D01*
X119441Y95204D01*
X119520Y95206D01*
X119599Y95204D01*
X119678Y95198D01*
X119756Y95189D01*
X119834Y95175D01*
X119911Y95158D01*
X119987Y95137D01*
X120062Y95112D01*
X120135Y95084D01*
X120208Y95052D01*
X120278Y95016D01*
X120347Y94977D01*
X120413Y94935D01*
X120478Y94890D01*
X120540Y94841D01*
X120600Y94789D01*
X120657Y94735D01*
X120711Y94678D01*
X120763Y94618D01*
X120812Y94556D01*
X120857Y94491D01*
X120899Y94425D01*
X120938Y94356D01*
X120974Y94286D01*
X121006Y94213D01*
X121034Y94140D01*
X121059Y94065D01*
X121080Y93989D01*
X121097Y93912D01*
X121111Y93834D01*
X121120Y93756D01*
X121126Y93677D01*
X121128Y93598D01*
X121129Y93598D02*
X121129Y92794D01*
X117912Y92794D01*
X124438Y90381D02*
X124438Y95206D01*
X126850Y95206D01*
X126850Y94402D01*
X129588Y95206D02*
X129588Y90381D01*
X129588Y95206D02*
X133207Y95206D01*
X133275Y95204D01*
X133342Y95198D01*
X133409Y95189D01*
X133475Y95176D01*
X133541Y95159D01*
X133605Y95138D01*
X133669Y95114D01*
X133730Y95087D01*
X133790Y95056D01*
X133849Y95021D01*
X133905Y94984D01*
X133959Y94943D01*
X134011Y94899D01*
X134060Y94853D01*
X134106Y94804D01*
X134150Y94752D01*
X134191Y94698D01*
X134228Y94642D01*
X134263Y94583D01*
X134294Y94523D01*
X134321Y94462D01*
X134345Y94398D01*
X134366Y94334D01*
X134383Y94268D01*
X134396Y94202D01*
X134405Y94135D01*
X134411Y94068D01*
X134413Y94000D01*
X134413Y90381D01*
X132000Y90381D02*
X132000Y95206D01*
X137760Y95206D02*
X137760Y90381D01*
X137559Y97217D02*
X137559Y97619D01*
X137961Y97619D01*
X137961Y97217D01*
X137559Y97217D01*
X141315Y93196D02*
X143326Y92392D01*
X141315Y93196D02*
X141257Y93221D01*
X141201Y93249D01*
X141147Y93281D01*
X141094Y93316D01*
X141044Y93354D01*
X140997Y93396D01*
X140952Y93439D01*
X140909Y93486D01*
X140870Y93535D01*
X140834Y93586D01*
X140800Y93640D01*
X140770Y93695D01*
X140744Y93752D01*
X140721Y93811D01*
X140701Y93870D01*
X140685Y93931D01*
X140673Y93993D01*
X140665Y94055D01*
X140660Y94118D01*
X140659Y94181D01*
X140662Y94244D01*
X140669Y94307D01*
X140679Y94369D01*
X140693Y94430D01*
X140711Y94490D01*
X140733Y94549D01*
X140758Y94607D01*
X140786Y94663D01*
X140818Y94717D01*
X140853Y94770D01*
X140891Y94820D01*
X140932Y94868D01*
X140976Y94913D01*
X141022Y94955D01*
X141071Y94995D01*
X141123Y95031D01*
X141176Y95065D01*
X141231Y95095D01*
X141288Y95121D01*
X141347Y95145D01*
X141406Y95164D01*
X141467Y95180D01*
X141529Y95193D01*
X141591Y95201D01*
X141654Y95206D01*
X141717Y95207D01*
X141850Y95203D01*
X141984Y95195D01*
X142116Y95183D01*
X142249Y95168D01*
X142381Y95148D01*
X142512Y95125D01*
X142642Y95098D01*
X142772Y95067D01*
X142901Y95033D01*
X143029Y94995D01*
X143155Y94952D01*
X143280Y94907D01*
X143404Y94857D01*
X143527Y94804D01*
X143325Y92391D02*
X143383Y92366D01*
X143439Y92338D01*
X143493Y92306D01*
X143546Y92271D01*
X143596Y92233D01*
X143643Y92191D01*
X143688Y92148D01*
X143731Y92101D01*
X143770Y92052D01*
X143806Y92001D01*
X143840Y91947D01*
X143870Y91892D01*
X143896Y91835D01*
X143919Y91776D01*
X143939Y91717D01*
X143955Y91656D01*
X143967Y91594D01*
X143975Y91532D01*
X143980Y91469D01*
X143981Y91406D01*
X143978Y91343D01*
X143971Y91281D01*
X143961Y91218D01*
X143947Y91157D01*
X143929Y91097D01*
X143907Y91038D01*
X143882Y90980D01*
X143854Y90924D01*
X143822Y90870D01*
X143787Y90817D01*
X143749Y90767D01*
X143708Y90719D01*
X143664Y90674D01*
X143618Y90632D01*
X143569Y90592D01*
X143517Y90556D01*
X143464Y90522D01*
X143409Y90492D01*
X143352Y90466D01*
X143293Y90442D01*
X143234Y90423D01*
X143173Y90407D01*
X143111Y90394D01*
X143049Y90386D01*
X142986Y90381D01*
X142923Y90380D01*
X142924Y90381D02*
X142762Y90385D01*
X142601Y90393D01*
X142441Y90405D01*
X142280Y90420D01*
X142120Y90440D01*
X141960Y90463D01*
X141801Y90490D01*
X141643Y90521D01*
X141485Y90555D01*
X141329Y90593D01*
X141173Y90635D01*
X141018Y90681D01*
X140865Y90730D01*
X140712Y90783D01*
X146330Y95206D02*
X148743Y95206D01*
X147134Y97619D02*
X147134Y91587D01*
X147135Y91587D02*
X147137Y91519D01*
X147143Y91452D01*
X147152Y91385D01*
X147165Y91319D01*
X147182Y91253D01*
X147203Y91189D01*
X147227Y91125D01*
X147254Y91064D01*
X147285Y91004D01*
X147320Y90945D01*
X147357Y90889D01*
X147398Y90835D01*
X147442Y90783D01*
X147488Y90734D01*
X147537Y90688D01*
X147589Y90644D01*
X147643Y90603D01*
X147699Y90566D01*
X147758Y90531D01*
X147818Y90500D01*
X147879Y90473D01*
X147943Y90449D01*
X148007Y90428D01*
X148073Y90411D01*
X148139Y90398D01*
X148206Y90389D01*
X148273Y90383D01*
X148341Y90381D01*
X148743Y90381D01*
X151512Y91989D02*
X151512Y93598D01*
X151514Y93677D01*
X151520Y93756D01*
X151529Y93834D01*
X151543Y93912D01*
X151560Y93989D01*
X151581Y94065D01*
X151606Y94140D01*
X151634Y94213D01*
X151666Y94286D01*
X151702Y94356D01*
X151741Y94425D01*
X151783Y94491D01*
X151828Y94556D01*
X151877Y94618D01*
X151929Y94678D01*
X151983Y94735D01*
X152040Y94789D01*
X152100Y94841D01*
X152162Y94890D01*
X152227Y94935D01*
X152293Y94977D01*
X152362Y95016D01*
X152432Y95052D01*
X152505Y95084D01*
X152578Y95112D01*
X152653Y95137D01*
X152729Y95158D01*
X152806Y95175D01*
X152884Y95189D01*
X152962Y95198D01*
X153041Y95204D01*
X153120Y95206D01*
X153199Y95204D01*
X153278Y95198D01*
X153356Y95189D01*
X153434Y95175D01*
X153511Y95158D01*
X153587Y95137D01*
X153662Y95112D01*
X153735Y95084D01*
X153808Y95052D01*
X153878Y95016D01*
X153947Y94977D01*
X154013Y94935D01*
X154078Y94890D01*
X154140Y94841D01*
X154200Y94789D01*
X154257Y94735D01*
X154311Y94678D01*
X154363Y94618D01*
X154412Y94556D01*
X154457Y94491D01*
X154499Y94425D01*
X154538Y94356D01*
X154574Y94286D01*
X154606Y94213D01*
X154634Y94140D01*
X154659Y94065D01*
X154680Y93989D01*
X154697Y93912D01*
X154711Y93834D01*
X154720Y93756D01*
X154726Y93677D01*
X154728Y93598D01*
X154729Y93598D02*
X154729Y91989D01*
X154728Y91989D02*
X154726Y91910D01*
X154720Y91831D01*
X154711Y91753D01*
X154697Y91675D01*
X154680Y91598D01*
X154659Y91522D01*
X154634Y91447D01*
X154606Y91374D01*
X154574Y91301D01*
X154538Y91231D01*
X154499Y91162D01*
X154457Y91096D01*
X154412Y91031D01*
X154363Y90969D01*
X154311Y90909D01*
X154257Y90852D01*
X154200Y90798D01*
X154140Y90746D01*
X154078Y90697D01*
X154013Y90652D01*
X153947Y90610D01*
X153878Y90571D01*
X153808Y90535D01*
X153735Y90503D01*
X153662Y90475D01*
X153587Y90450D01*
X153511Y90429D01*
X153434Y90412D01*
X153356Y90398D01*
X153278Y90389D01*
X153199Y90383D01*
X153120Y90381D01*
X153041Y90383D01*
X152962Y90389D01*
X152884Y90398D01*
X152806Y90412D01*
X152729Y90429D01*
X152653Y90450D01*
X152578Y90475D01*
X152505Y90503D01*
X152432Y90535D01*
X152362Y90571D01*
X152293Y90610D01*
X152227Y90652D01*
X152162Y90697D01*
X152100Y90746D01*
X152040Y90798D01*
X151983Y90852D01*
X151929Y90909D01*
X151877Y90969D01*
X151828Y91031D01*
X151783Y91096D01*
X151741Y91162D01*
X151702Y91231D01*
X151666Y91301D01*
X151634Y91374D01*
X151606Y91447D01*
X151581Y91522D01*
X151560Y91598D01*
X151543Y91675D01*
X151529Y91753D01*
X151520Y91831D01*
X151514Y91910D01*
X151512Y91989D01*
X158038Y90381D02*
X158038Y95206D01*
X160450Y95206D01*
X160450Y94402D01*
D10*
X92250Y3500D02*
X67700Y3500D01*
X42300Y3500D01*
X17750Y3500D01*
X17750Y64800D01*
X92250Y64800D01*
X92250Y3500D01*
X67700Y3500D02*
X67700Y26700D01*
X42300Y26700D01*
X42300Y3500D01*
D11*
X18433Y72881D02*
X23925Y81119D01*
X18433Y81119D02*
X23925Y72881D01*
X26991Y72881D02*
X29737Y72881D01*
X29822Y72883D01*
X29906Y72889D01*
X29990Y72899D01*
X30073Y72912D01*
X30156Y72930D01*
X30238Y72951D01*
X30319Y72976D01*
X30398Y73005D01*
X30477Y73037D01*
X30553Y73073D01*
X30628Y73112D01*
X30701Y73155D01*
X30772Y73201D01*
X30840Y73251D01*
X30907Y73303D01*
X30971Y73359D01*
X31032Y73417D01*
X31090Y73478D01*
X31146Y73542D01*
X31198Y73609D01*
X31248Y73677D01*
X31294Y73748D01*
X31337Y73821D01*
X31376Y73896D01*
X31412Y73972D01*
X31444Y74051D01*
X31473Y74130D01*
X31498Y74211D01*
X31519Y74293D01*
X31537Y74376D01*
X31550Y74459D01*
X31560Y74543D01*
X31566Y74627D01*
X31568Y74712D01*
X31567Y74712D02*
X31567Y75627D01*
X31568Y75627D02*
X31566Y75712D01*
X31560Y75796D01*
X31550Y75880D01*
X31537Y75963D01*
X31519Y76046D01*
X31498Y76128D01*
X31473Y76209D01*
X31444Y76288D01*
X31412Y76367D01*
X31376Y76443D01*
X31337Y76518D01*
X31294Y76591D01*
X31248Y76662D01*
X31198Y76730D01*
X31146Y76797D01*
X31090Y76861D01*
X31032Y76922D01*
X30971Y76980D01*
X30907Y77036D01*
X30840Y77088D01*
X30772Y77138D01*
X30701Y77184D01*
X30628Y77227D01*
X30553Y77266D01*
X30477Y77302D01*
X30398Y77334D01*
X30319Y77363D01*
X30238Y77388D01*
X30156Y77409D01*
X30073Y77427D01*
X29990Y77440D01*
X29906Y77450D01*
X29822Y77456D01*
X29737Y77458D01*
X26991Y77458D01*
X26991Y81119D01*
X31567Y81119D01*
X28369Y90381D02*
X33195Y97619D01*
X28369Y97619D02*
X33195Y90381D01*
X35653Y89577D02*
X38870Y89577D01*
X41987Y90381D02*
X45204Y90381D01*
X41987Y90381D02*
X41987Y97619D01*
X45204Y97619D01*
X44400Y94402D02*
X41987Y94402D01*
X48133Y95206D02*
X48133Y90381D01*
X48133Y95206D02*
X50144Y95206D01*
X50212Y95204D01*
X50279Y95198D01*
X50346Y95189D01*
X50412Y95176D01*
X50478Y95159D01*
X50542Y95138D01*
X50606Y95114D01*
X50667Y95087D01*
X50727Y95056D01*
X50786Y95021D01*
X50842Y94984D01*
X50896Y94943D01*
X50948Y94899D01*
X50997Y94853D01*
X51043Y94804D01*
X51087Y94752D01*
X51128Y94698D01*
X51165Y94642D01*
X51200Y94583D01*
X51231Y94523D01*
X51258Y94462D01*
X51282Y94398D01*
X51303Y94334D01*
X51320Y94268D01*
X51333Y94202D01*
X51342Y94135D01*
X51348Y94068D01*
X51350Y94000D01*
X51350Y90381D01*
X57790Y90381D02*
X57790Y97619D01*
X57790Y90381D02*
X55779Y90381D01*
X55711Y90383D01*
X55644Y90389D01*
X55577Y90398D01*
X55511Y90411D01*
X55445Y90428D01*
X55381Y90449D01*
X55317Y90473D01*
X55256Y90500D01*
X55196Y90531D01*
X55137Y90566D01*
X55081Y90603D01*
X55027Y90644D01*
X54975Y90688D01*
X54926Y90734D01*
X54880Y90783D01*
X54836Y90835D01*
X54795Y90889D01*
X54758Y90945D01*
X54723Y91004D01*
X54692Y91064D01*
X54665Y91125D01*
X54641Y91189D01*
X54620Y91253D01*
X54603Y91319D01*
X54590Y91385D01*
X54581Y91452D01*
X54575Y91519D01*
X54573Y91587D01*
X54573Y94000D01*
X54575Y94068D01*
X54581Y94135D01*
X54590Y94202D01*
X54603Y94268D01*
X54620Y94334D01*
X54641Y94398D01*
X54665Y94462D01*
X54692Y94523D01*
X54723Y94583D01*
X54758Y94642D01*
X54795Y94698D01*
X54836Y94752D01*
X54880Y94804D01*
X54926Y94853D01*
X54975Y94899D01*
X55027Y94943D01*
X55081Y94984D01*
X55137Y95021D01*
X55196Y95056D01*
X55256Y95087D01*
X55317Y95114D01*
X55381Y95138D01*
X55445Y95159D01*
X55511Y95176D01*
X55577Y95189D01*
X55644Y95198D01*
X55711Y95204D01*
X55779Y95206D01*
X57790Y95206D01*
X61697Y93196D02*
X63707Y92392D01*
X61697Y93196D02*
X61639Y93221D01*
X61583Y93249D01*
X61529Y93281D01*
X61476Y93316D01*
X61426Y93354D01*
X61379Y93396D01*
X61334Y93439D01*
X61291Y93486D01*
X61252Y93535D01*
X61216Y93586D01*
X61182Y93640D01*
X61152Y93695D01*
X61126Y93752D01*
X61103Y93811D01*
X61083Y93870D01*
X61067Y93931D01*
X61055Y93993D01*
X61047Y94055D01*
X61042Y94118D01*
X61041Y94181D01*
X61044Y94244D01*
X61051Y94307D01*
X61061Y94369D01*
X61075Y94430D01*
X61093Y94490D01*
X61115Y94549D01*
X61140Y94607D01*
X61168Y94663D01*
X61200Y94717D01*
X61235Y94770D01*
X61273Y94820D01*
X61314Y94868D01*
X61358Y94913D01*
X61404Y94955D01*
X61453Y94995D01*
X61505Y95031D01*
X61558Y95065D01*
X61613Y95095D01*
X61670Y95121D01*
X61729Y95145D01*
X61788Y95164D01*
X61849Y95180D01*
X61911Y95193D01*
X61973Y95201D01*
X62036Y95206D01*
X62099Y95207D01*
X62098Y95207D02*
X62231Y95203D01*
X62365Y95195D01*
X62497Y95183D01*
X62630Y95168D01*
X62762Y95148D01*
X62893Y95125D01*
X63023Y95098D01*
X63153Y95067D01*
X63282Y95033D01*
X63410Y94995D01*
X63536Y94952D01*
X63661Y94907D01*
X63785Y94857D01*
X63908Y94804D01*
X63707Y92391D02*
X63765Y92366D01*
X63821Y92338D01*
X63875Y92306D01*
X63928Y92271D01*
X63978Y92233D01*
X64025Y92191D01*
X64070Y92148D01*
X64113Y92101D01*
X64152Y92052D01*
X64188Y92001D01*
X64222Y91947D01*
X64252Y91892D01*
X64278Y91835D01*
X64301Y91776D01*
X64321Y91717D01*
X64337Y91656D01*
X64349Y91594D01*
X64357Y91532D01*
X64362Y91469D01*
X64363Y91406D01*
X64360Y91343D01*
X64353Y91281D01*
X64343Y91218D01*
X64329Y91157D01*
X64311Y91097D01*
X64289Y91038D01*
X64264Y90980D01*
X64236Y90924D01*
X64204Y90870D01*
X64169Y90817D01*
X64131Y90767D01*
X64090Y90719D01*
X64046Y90674D01*
X64000Y90632D01*
X63951Y90592D01*
X63899Y90556D01*
X63846Y90522D01*
X63791Y90492D01*
X63734Y90466D01*
X63675Y90442D01*
X63616Y90423D01*
X63555Y90407D01*
X63493Y90394D01*
X63431Y90386D01*
X63368Y90381D01*
X63305Y90380D01*
X63305Y90381D02*
X63143Y90385D01*
X62982Y90393D01*
X62822Y90405D01*
X62661Y90420D01*
X62501Y90440D01*
X62341Y90463D01*
X62182Y90490D01*
X62024Y90521D01*
X61866Y90555D01*
X61710Y90593D01*
X61554Y90635D01*
X61399Y90681D01*
X61246Y90730D01*
X61093Y90783D01*
X66712Y95206D02*
X69124Y95206D01*
X67516Y97619D02*
X67516Y91587D01*
X67518Y91519D01*
X67524Y91452D01*
X67533Y91385D01*
X67546Y91319D01*
X67563Y91253D01*
X67584Y91189D01*
X67608Y91125D01*
X67635Y91064D01*
X67666Y91004D01*
X67701Y90945D01*
X67738Y90889D01*
X67779Y90835D01*
X67823Y90783D01*
X67869Y90734D01*
X67918Y90688D01*
X67970Y90644D01*
X68024Y90603D01*
X68080Y90566D01*
X68139Y90531D01*
X68199Y90500D01*
X68260Y90473D01*
X68324Y90449D01*
X68388Y90428D01*
X68454Y90411D01*
X68520Y90398D01*
X68587Y90389D01*
X68654Y90383D01*
X68722Y90381D01*
X69124Y90381D01*
X71893Y91989D02*
X71893Y93598D01*
X71894Y93598D02*
X71896Y93677D01*
X71902Y93756D01*
X71911Y93834D01*
X71925Y93912D01*
X71942Y93989D01*
X71963Y94065D01*
X71988Y94140D01*
X72016Y94213D01*
X72048Y94286D01*
X72084Y94356D01*
X72123Y94425D01*
X72165Y94491D01*
X72210Y94556D01*
X72259Y94618D01*
X72311Y94678D01*
X72365Y94735D01*
X72422Y94789D01*
X72482Y94841D01*
X72544Y94890D01*
X72609Y94935D01*
X72675Y94977D01*
X72744Y95016D01*
X72814Y95052D01*
X72887Y95084D01*
X72960Y95112D01*
X73035Y95137D01*
X73111Y95158D01*
X73188Y95175D01*
X73266Y95189D01*
X73344Y95198D01*
X73423Y95204D01*
X73502Y95206D01*
X73581Y95204D01*
X73660Y95198D01*
X73738Y95189D01*
X73816Y95175D01*
X73893Y95158D01*
X73969Y95137D01*
X74044Y95112D01*
X74117Y95084D01*
X74190Y95052D01*
X74260Y95016D01*
X74329Y94977D01*
X74395Y94935D01*
X74460Y94890D01*
X74522Y94841D01*
X74582Y94789D01*
X74639Y94735D01*
X74693Y94678D01*
X74745Y94618D01*
X74794Y94556D01*
X74839Y94491D01*
X74881Y94425D01*
X74920Y94356D01*
X74956Y94286D01*
X74988Y94213D01*
X75016Y94140D01*
X75041Y94065D01*
X75062Y93989D01*
X75079Y93912D01*
X75093Y93834D01*
X75102Y93756D01*
X75108Y93677D01*
X75110Y93598D01*
X75110Y91989D01*
X75108Y91910D01*
X75102Y91831D01*
X75093Y91753D01*
X75079Y91675D01*
X75062Y91598D01*
X75041Y91522D01*
X75016Y91447D01*
X74988Y91374D01*
X74956Y91301D01*
X74920Y91231D01*
X74881Y91162D01*
X74839Y91096D01*
X74794Y91031D01*
X74745Y90969D01*
X74693Y90909D01*
X74639Y90852D01*
X74582Y90798D01*
X74522Y90746D01*
X74460Y90697D01*
X74395Y90652D01*
X74329Y90610D01*
X74260Y90571D01*
X74190Y90535D01*
X74117Y90503D01*
X74044Y90475D01*
X73969Y90450D01*
X73893Y90429D01*
X73816Y90412D01*
X73738Y90398D01*
X73660Y90389D01*
X73581Y90383D01*
X73502Y90381D01*
X73423Y90383D01*
X73344Y90389D01*
X73266Y90398D01*
X73188Y90412D01*
X73111Y90429D01*
X73035Y90450D01*
X72960Y90475D01*
X72887Y90503D01*
X72814Y90535D01*
X72744Y90571D01*
X72675Y90610D01*
X72609Y90652D01*
X72544Y90697D01*
X72482Y90746D01*
X72422Y90798D01*
X72365Y90852D01*
X72311Y90909D01*
X72259Y90969D01*
X72210Y91031D01*
X72165Y91096D01*
X72123Y91162D01*
X72084Y91231D01*
X72048Y91301D01*
X72016Y91374D01*
X71988Y91447D01*
X71963Y91522D01*
X71942Y91598D01*
X71925Y91675D01*
X71911Y91753D01*
X71902Y91831D01*
X71896Y91910D01*
X71894Y91989D01*
X78414Y95206D02*
X78414Y87968D01*
X78414Y95206D02*
X80425Y95206D01*
X80493Y95204D01*
X80560Y95198D01*
X80627Y95189D01*
X80693Y95176D01*
X80759Y95159D01*
X80823Y95138D01*
X80887Y95114D01*
X80948Y95087D01*
X81008Y95056D01*
X81067Y95021D01*
X81123Y94984D01*
X81177Y94943D01*
X81229Y94899D01*
X81278Y94853D01*
X81324Y94804D01*
X81368Y94752D01*
X81409Y94698D01*
X81446Y94642D01*
X81481Y94583D01*
X81512Y94523D01*
X81539Y94462D01*
X81563Y94398D01*
X81584Y94334D01*
X81601Y94268D01*
X81614Y94202D01*
X81623Y94135D01*
X81629Y94068D01*
X81631Y94000D01*
X81631Y91587D01*
X81629Y91519D01*
X81623Y91452D01*
X81614Y91385D01*
X81601Y91319D01*
X81584Y91253D01*
X81563Y91189D01*
X81539Y91125D01*
X81512Y91064D01*
X81481Y91004D01*
X81446Y90945D01*
X81409Y90889D01*
X81368Y90835D01*
X81324Y90783D01*
X81278Y90734D01*
X81229Y90688D01*
X81177Y90644D01*
X81123Y90603D01*
X81067Y90566D01*
X81008Y90531D01*
X80948Y90500D01*
X80887Y90473D01*
X80823Y90449D01*
X80759Y90428D01*
X80693Y90411D01*
X80627Y90398D01*
X80560Y90389D01*
X80493Y90383D01*
X80425Y90381D01*
X78414Y90381D01*
D10*
X222700Y3500D02*
X247250Y3500D01*
X222700Y3500D02*
X197300Y3500D01*
X172750Y3500D01*
X172750Y64800D01*
X247250Y64800D01*
X247250Y3500D01*
X222700Y3500D02*
X222700Y26700D01*
X197300Y26700D01*
X197300Y3500D01*
D11*
X233433Y72881D02*
X238925Y81119D01*
X233433Y81119D02*
X238925Y72881D01*
X241991Y72881D02*
X244279Y72881D01*
X244374Y72883D01*
X244468Y72889D01*
X244562Y72899D01*
X244656Y72912D01*
X244749Y72930D01*
X244841Y72951D01*
X244932Y72976D01*
X245022Y73005D01*
X245111Y73038D01*
X245198Y73074D01*
X245284Y73113D01*
X245368Y73157D01*
X245450Y73203D01*
X245530Y73254D01*
X245609Y73307D01*
X245684Y73363D01*
X245758Y73423D01*
X245829Y73486D01*
X245897Y73551D01*
X245962Y73619D01*
X246025Y73690D01*
X246085Y73764D01*
X246141Y73839D01*
X246194Y73918D01*
X246245Y73998D01*
X246291Y74080D01*
X246335Y74164D01*
X246374Y74250D01*
X246410Y74337D01*
X246443Y74426D01*
X246472Y74516D01*
X246497Y74607D01*
X246518Y74699D01*
X246536Y74792D01*
X246549Y74886D01*
X246559Y74980D01*
X246565Y75074D01*
X246567Y75169D01*
X246565Y75264D01*
X246559Y75358D01*
X246549Y75452D01*
X246536Y75546D01*
X246518Y75639D01*
X246497Y75731D01*
X246472Y75822D01*
X246443Y75912D01*
X246410Y76001D01*
X246374Y76088D01*
X246335Y76174D01*
X246291Y76258D01*
X246245Y76340D01*
X246194Y76420D01*
X246141Y76499D01*
X246085Y76574D01*
X246025Y76648D01*
X245962Y76719D01*
X245897Y76787D01*
X245829Y76852D01*
X245758Y76915D01*
X245684Y76975D01*
X245609Y77031D01*
X245530Y77084D01*
X245450Y77135D01*
X245368Y77181D01*
X245284Y77225D01*
X245198Y77264D01*
X245111Y77300D01*
X245022Y77333D01*
X244932Y77362D01*
X244841Y77387D01*
X244749Y77408D01*
X244656Y77426D01*
X244562Y77439D01*
X244468Y77449D01*
X244374Y77455D01*
X244279Y77457D01*
X244737Y81119D02*
X241991Y81119D01*
X244737Y81119D02*
X244822Y81117D01*
X244906Y81111D01*
X244990Y81101D01*
X245073Y81088D01*
X245156Y81070D01*
X245238Y81049D01*
X245319Y81024D01*
X245398Y80995D01*
X245477Y80963D01*
X245553Y80927D01*
X245628Y80888D01*
X245701Y80845D01*
X245772Y80799D01*
X245840Y80749D01*
X245907Y80697D01*
X245971Y80641D01*
X246032Y80583D01*
X246090Y80522D01*
X246146Y80458D01*
X246198Y80391D01*
X246248Y80323D01*
X246294Y80252D01*
X246337Y80179D01*
X246376Y80104D01*
X246412Y80028D01*
X246444Y79949D01*
X246473Y79870D01*
X246498Y79789D01*
X246519Y79707D01*
X246537Y79624D01*
X246550Y79541D01*
X246560Y79457D01*
X246566Y79373D01*
X246568Y79288D01*
X246566Y79203D01*
X246560Y79119D01*
X246550Y79035D01*
X246537Y78952D01*
X246519Y78869D01*
X246498Y78787D01*
X246473Y78706D01*
X246444Y78627D01*
X246412Y78548D01*
X246376Y78472D01*
X246337Y78397D01*
X246294Y78324D01*
X246248Y78253D01*
X246198Y78185D01*
X246146Y78118D01*
X246090Y78054D01*
X246032Y77993D01*
X245971Y77935D01*
X245907Y77879D01*
X245840Y77827D01*
X245772Y77777D01*
X245701Y77731D01*
X245628Y77688D01*
X245553Y77649D01*
X245477Y77613D01*
X245398Y77581D01*
X245319Y77552D01*
X245238Y77527D01*
X245156Y77506D01*
X245073Y77488D01*
X244990Y77475D01*
X244906Y77465D01*
X244822Y77459D01*
X244737Y77457D01*
X244737Y77458D02*
X242906Y77458D01*
X180231Y90381D02*
X180231Y97619D01*
X180231Y94402D02*
X184252Y94402D01*
X184252Y97619D02*
X184252Y90381D01*
X187593Y91989D02*
X187593Y93598D01*
X187595Y93677D01*
X187601Y93756D01*
X187610Y93834D01*
X187624Y93912D01*
X187641Y93989D01*
X187662Y94065D01*
X187687Y94140D01*
X187715Y94213D01*
X187747Y94286D01*
X187783Y94356D01*
X187822Y94425D01*
X187864Y94491D01*
X187909Y94556D01*
X187958Y94618D01*
X188010Y94678D01*
X188064Y94735D01*
X188121Y94789D01*
X188181Y94841D01*
X188243Y94890D01*
X188308Y94935D01*
X188374Y94977D01*
X188443Y95016D01*
X188513Y95052D01*
X188586Y95084D01*
X188659Y95112D01*
X188734Y95137D01*
X188810Y95158D01*
X188887Y95175D01*
X188965Y95189D01*
X189043Y95198D01*
X189122Y95204D01*
X189201Y95206D01*
X189280Y95204D01*
X189359Y95198D01*
X189437Y95189D01*
X189515Y95175D01*
X189592Y95158D01*
X189668Y95137D01*
X189743Y95112D01*
X189816Y95084D01*
X189889Y95052D01*
X189959Y95016D01*
X190028Y94977D01*
X190094Y94935D01*
X190159Y94890D01*
X190221Y94841D01*
X190281Y94789D01*
X190338Y94735D01*
X190392Y94678D01*
X190444Y94618D01*
X190493Y94556D01*
X190538Y94491D01*
X190580Y94425D01*
X190619Y94356D01*
X190655Y94286D01*
X190687Y94213D01*
X190715Y94140D01*
X190740Y94065D01*
X190761Y93989D01*
X190778Y93912D01*
X190792Y93834D01*
X190801Y93756D01*
X190807Y93677D01*
X190809Y93598D01*
X190810Y93598D02*
X190810Y91989D01*
X190809Y91989D02*
X190807Y91910D01*
X190801Y91831D01*
X190792Y91753D01*
X190778Y91675D01*
X190761Y91598D01*
X190740Y91522D01*
X190715Y91447D01*
X190687Y91374D01*
X190655Y91301D01*
X190619Y91231D01*
X190580Y91162D01*
X190538Y91096D01*
X190493Y91031D01*
X190444Y90969D01*
X190392Y90909D01*
X190338Y90852D01*
X190281Y90798D01*
X190221Y90746D01*
X190159Y90697D01*
X190094Y90652D01*
X190028Y90610D01*
X189959Y90571D01*
X189889Y90535D01*
X189816Y90503D01*
X189743Y90475D01*
X189668Y90450D01*
X189592Y90429D01*
X189515Y90412D01*
X189437Y90398D01*
X189359Y90389D01*
X189280Y90383D01*
X189201Y90381D01*
X189122Y90383D01*
X189043Y90389D01*
X188965Y90398D01*
X188887Y90412D01*
X188810Y90429D01*
X188734Y90450D01*
X188659Y90475D01*
X188586Y90503D01*
X188513Y90535D01*
X188443Y90571D01*
X188374Y90610D01*
X188308Y90652D01*
X188243Y90697D01*
X188181Y90746D01*
X188121Y90798D01*
X188064Y90852D01*
X188010Y90909D01*
X187958Y90969D01*
X187909Y91031D01*
X187864Y91096D01*
X187822Y91162D01*
X187783Y91231D01*
X187747Y91301D01*
X187715Y91374D01*
X187687Y91447D01*
X187662Y91522D01*
X187641Y91598D01*
X187624Y91675D01*
X187610Y91753D01*
X187601Y91831D01*
X187595Y91910D01*
X187593Y91989D01*
X193211Y95206D02*
X195624Y95206D01*
X194015Y97619D02*
X194015Y91587D01*
X194016Y91587D02*
X194018Y91519D01*
X194024Y91452D01*
X194033Y91385D01*
X194046Y91319D01*
X194063Y91253D01*
X194084Y91189D01*
X194108Y91125D01*
X194135Y91064D01*
X194166Y91004D01*
X194201Y90945D01*
X194238Y90889D01*
X194279Y90835D01*
X194323Y90783D01*
X194369Y90734D01*
X194418Y90688D01*
X194470Y90644D01*
X194524Y90603D01*
X194580Y90566D01*
X194639Y90531D01*
X194699Y90500D01*
X194760Y90473D01*
X194824Y90449D01*
X194888Y90428D01*
X194954Y90411D01*
X195020Y90398D01*
X195087Y90389D01*
X195154Y90383D01*
X195222Y90381D01*
X195624Y90381D01*
X199599Y90381D02*
X201610Y90381D01*
X199599Y90381D02*
X199531Y90383D01*
X199464Y90389D01*
X199397Y90398D01*
X199331Y90411D01*
X199265Y90428D01*
X199201Y90449D01*
X199137Y90473D01*
X199076Y90500D01*
X199016Y90531D01*
X198957Y90566D01*
X198901Y90603D01*
X198847Y90644D01*
X198795Y90688D01*
X198746Y90734D01*
X198700Y90783D01*
X198656Y90835D01*
X198615Y90889D01*
X198578Y90945D01*
X198543Y91004D01*
X198512Y91064D01*
X198485Y91125D01*
X198461Y91189D01*
X198440Y91253D01*
X198423Y91319D01*
X198410Y91385D01*
X198401Y91452D01*
X198395Y91519D01*
X198393Y91587D01*
X198393Y93598D01*
X198395Y93677D01*
X198401Y93756D01*
X198410Y93834D01*
X198424Y93912D01*
X198441Y93989D01*
X198462Y94065D01*
X198487Y94140D01*
X198515Y94213D01*
X198547Y94286D01*
X198583Y94356D01*
X198622Y94425D01*
X198664Y94491D01*
X198709Y94556D01*
X198758Y94618D01*
X198810Y94678D01*
X198864Y94735D01*
X198921Y94789D01*
X198981Y94841D01*
X199043Y94890D01*
X199108Y94935D01*
X199174Y94977D01*
X199243Y95016D01*
X199313Y95052D01*
X199386Y95084D01*
X199459Y95112D01*
X199534Y95137D01*
X199610Y95158D01*
X199687Y95175D01*
X199765Y95189D01*
X199843Y95198D01*
X199922Y95204D01*
X200001Y95206D01*
X200080Y95204D01*
X200159Y95198D01*
X200237Y95189D01*
X200315Y95175D01*
X200392Y95158D01*
X200468Y95137D01*
X200543Y95112D01*
X200616Y95084D01*
X200689Y95052D01*
X200759Y95016D01*
X200828Y94977D01*
X200894Y94935D01*
X200959Y94890D01*
X201021Y94841D01*
X201081Y94789D01*
X201138Y94735D01*
X201192Y94678D01*
X201244Y94618D01*
X201293Y94556D01*
X201338Y94491D01*
X201380Y94425D01*
X201419Y94356D01*
X201455Y94286D01*
X201487Y94213D01*
X201515Y94140D01*
X201540Y94065D01*
X201561Y93989D01*
X201578Y93912D01*
X201592Y93834D01*
X201601Y93756D01*
X201607Y93677D01*
X201609Y93598D01*
X201610Y93598D02*
X201610Y92794D01*
X198393Y92794D01*
X204873Y90381D02*
X204873Y95206D01*
X206883Y95206D01*
X206951Y95204D01*
X207018Y95198D01*
X207085Y95189D01*
X207151Y95176D01*
X207217Y95159D01*
X207281Y95138D01*
X207345Y95114D01*
X207406Y95087D01*
X207466Y95056D01*
X207525Y95021D01*
X207581Y94984D01*
X207635Y94943D01*
X207687Y94899D01*
X207736Y94853D01*
X207782Y94804D01*
X207826Y94752D01*
X207867Y94698D01*
X207904Y94642D01*
X207939Y94583D01*
X207970Y94523D01*
X207997Y94462D01*
X208021Y94398D01*
X208042Y94334D01*
X208059Y94268D01*
X208072Y94202D01*
X208081Y94135D01*
X208087Y94068D01*
X208089Y94000D01*
X208090Y94000D02*
X208090Y90381D01*
X214529Y90381D02*
X214529Y97619D01*
X214529Y90381D02*
X212518Y90381D01*
X212450Y90383D01*
X212383Y90389D01*
X212316Y90398D01*
X212250Y90411D01*
X212184Y90428D01*
X212120Y90449D01*
X212056Y90473D01*
X211995Y90500D01*
X211935Y90531D01*
X211876Y90566D01*
X211820Y90603D01*
X211766Y90644D01*
X211714Y90688D01*
X211665Y90734D01*
X211619Y90783D01*
X211575Y90835D01*
X211534Y90889D01*
X211497Y90945D01*
X211462Y91004D01*
X211431Y91064D01*
X211404Y91125D01*
X211380Y91189D01*
X211359Y91253D01*
X211342Y91319D01*
X211329Y91385D01*
X211320Y91452D01*
X211314Y91519D01*
X211312Y91587D01*
X211312Y94000D01*
X211314Y94068D01*
X211320Y94135D01*
X211329Y94202D01*
X211342Y94268D01*
X211359Y94334D01*
X211380Y94398D01*
X211404Y94462D01*
X211431Y94523D01*
X211462Y94583D01*
X211497Y94642D01*
X211534Y94698D01*
X211575Y94752D01*
X211619Y94804D01*
X211665Y94853D01*
X211714Y94899D01*
X211766Y94943D01*
X211820Y94984D01*
X211876Y95021D01*
X211935Y95056D01*
X211995Y95087D01*
X212056Y95114D01*
X212120Y95138D01*
X212184Y95159D01*
X212250Y95176D01*
X212316Y95189D01*
X212383Y95198D01*
X212450Y95204D01*
X212518Y95206D01*
X214529Y95206D01*
X217593Y89577D02*
X220809Y89577D01*
X223926Y90381D02*
X223926Y97619D01*
X227143Y97619D01*
X227143Y94402D02*
X223926Y94402D01*
X231199Y93196D02*
X233009Y93196D01*
X231199Y93195D02*
X231125Y93193D01*
X231052Y93187D01*
X230979Y93178D01*
X230906Y93164D01*
X230835Y93147D01*
X230764Y93126D01*
X230695Y93102D01*
X230627Y93073D01*
X230560Y93042D01*
X230496Y93006D01*
X230433Y92968D01*
X230372Y92926D01*
X230314Y92881D01*
X230258Y92834D01*
X230204Y92783D01*
X230153Y92729D01*
X230106Y92673D01*
X230061Y92615D01*
X230019Y92554D01*
X229981Y92492D01*
X229945Y92427D01*
X229914Y92360D01*
X229885Y92292D01*
X229861Y92223D01*
X229840Y92152D01*
X229823Y92081D01*
X229809Y92008D01*
X229800Y91935D01*
X229794Y91862D01*
X229792Y91788D01*
X229794Y91714D01*
X229800Y91641D01*
X229809Y91568D01*
X229823Y91495D01*
X229840Y91424D01*
X229861Y91353D01*
X229885Y91284D01*
X229914Y91216D01*
X229945Y91149D01*
X229981Y91085D01*
X230019Y91022D01*
X230061Y90961D01*
X230106Y90903D01*
X230153Y90847D01*
X230204Y90793D01*
X230258Y90742D01*
X230314Y90695D01*
X230372Y90650D01*
X230433Y90608D01*
X230496Y90570D01*
X230560Y90534D01*
X230627Y90503D01*
X230695Y90474D01*
X230764Y90450D01*
X230835Y90429D01*
X230906Y90412D01*
X230979Y90398D01*
X231052Y90389D01*
X231125Y90383D01*
X231199Y90381D01*
X233009Y90381D01*
X233009Y94000D01*
X233008Y94000D02*
X233006Y94068D01*
X233000Y94135D01*
X232991Y94202D01*
X232978Y94268D01*
X232961Y94334D01*
X232940Y94398D01*
X232916Y94462D01*
X232889Y94523D01*
X232858Y94583D01*
X232823Y94642D01*
X232786Y94698D01*
X232745Y94752D01*
X232701Y94804D01*
X232655Y94853D01*
X232606Y94899D01*
X232554Y94943D01*
X232500Y94984D01*
X232444Y95021D01*
X232385Y95056D01*
X232325Y95087D01*
X232264Y95114D01*
X232200Y95138D01*
X232136Y95159D01*
X232070Y95176D01*
X232004Y95189D01*
X231937Y95198D01*
X231870Y95204D01*
X231802Y95206D01*
X230194Y95206D01*
X236553Y95206D02*
X236553Y90381D01*
X236553Y95206D02*
X238563Y95206D01*
X238631Y95204D01*
X238698Y95198D01*
X238765Y95189D01*
X238831Y95176D01*
X238897Y95159D01*
X238961Y95138D01*
X239025Y95114D01*
X239086Y95087D01*
X239146Y95056D01*
X239205Y95021D01*
X239261Y94984D01*
X239315Y94943D01*
X239367Y94899D01*
X239416Y94853D01*
X239462Y94804D01*
X239506Y94752D01*
X239547Y94698D01*
X239584Y94642D01*
X239619Y94583D01*
X239650Y94523D01*
X239677Y94462D01*
X239701Y94398D01*
X239722Y94334D01*
X239739Y94268D01*
X239752Y94202D01*
X239761Y94135D01*
X239767Y94068D01*
X239769Y94000D01*
X239769Y90381D01*
D13*
X-107500Y127500D02*
X-110250Y127500D01*
X-107500Y127500D02*
X-107500Y162500D01*
X-121950Y162500D01*
X-169750Y127500D02*
X-172500Y127500D01*
X-172500Y162500D01*
X-158050Y162500D01*
D14*
X-165000Y100000D02*
X-164998Y100063D01*
X-164992Y100125D01*
X-164982Y100187D01*
X-164969Y100249D01*
X-164951Y100309D01*
X-164930Y100368D01*
X-164905Y100426D01*
X-164876Y100482D01*
X-164844Y100536D01*
X-164809Y100588D01*
X-164771Y100637D01*
X-164729Y100685D01*
X-164685Y100729D01*
X-164637Y100771D01*
X-164588Y100809D01*
X-164536Y100844D01*
X-164482Y100876D01*
X-164426Y100905D01*
X-164368Y100930D01*
X-164309Y100951D01*
X-164249Y100969D01*
X-164187Y100982D01*
X-164125Y100992D01*
X-164063Y100998D01*
X-164000Y101000D01*
X-163937Y100998D01*
X-163875Y100992D01*
X-163813Y100982D01*
X-163751Y100969D01*
X-163691Y100951D01*
X-163632Y100930D01*
X-163574Y100905D01*
X-163518Y100876D01*
X-163464Y100844D01*
X-163412Y100809D01*
X-163363Y100771D01*
X-163315Y100729D01*
X-163271Y100685D01*
X-163229Y100637D01*
X-163191Y100588D01*
X-163156Y100536D01*
X-163124Y100482D01*
X-163095Y100426D01*
X-163070Y100368D01*
X-163049Y100309D01*
X-163031Y100249D01*
X-163018Y100187D01*
X-163008Y100125D01*
X-163002Y100063D01*
X-163000Y100000D01*
X-163002Y99937D01*
X-163008Y99875D01*
X-163018Y99813D01*
X-163031Y99751D01*
X-163049Y99691D01*
X-163070Y99632D01*
X-163095Y99574D01*
X-163124Y99518D01*
X-163156Y99464D01*
X-163191Y99412D01*
X-163229Y99363D01*
X-163271Y99315D01*
X-163315Y99271D01*
X-163363Y99229D01*
X-163412Y99191D01*
X-163464Y99156D01*
X-163518Y99124D01*
X-163574Y99095D01*
X-163632Y99070D01*
X-163691Y99049D01*
X-163751Y99031D01*
X-163813Y99018D01*
X-163875Y99008D01*
X-163937Y99002D01*
X-164000Y99000D01*
X-164063Y99002D01*
X-164125Y99008D01*
X-164187Y99018D01*
X-164249Y99031D01*
X-164309Y99049D01*
X-164368Y99070D01*
X-164426Y99095D01*
X-164482Y99124D01*
X-164536Y99156D01*
X-164588Y99191D01*
X-164637Y99229D01*
X-164685Y99271D01*
X-164729Y99315D01*
X-164771Y99363D01*
X-164809Y99412D01*
X-164844Y99464D01*
X-164876Y99518D01*
X-164905Y99574D01*
X-164930Y99632D01*
X-164951Y99691D01*
X-164969Y99751D01*
X-164982Y99813D01*
X-164992Y99875D01*
X-164998Y99937D01*
X-165000Y100000D01*
D11*
X-174619Y175447D02*
X-174619Y182119D01*
X-174619Y175447D02*
X-174617Y175348D01*
X-174611Y175248D01*
X-174602Y175149D01*
X-174588Y175051D01*
X-174571Y174953D01*
X-174550Y174855D01*
X-174525Y174759D01*
X-174496Y174664D01*
X-174464Y174569D01*
X-174428Y174477D01*
X-174389Y174385D01*
X-174346Y174295D01*
X-174300Y174207D01*
X-174250Y174121D01*
X-174197Y174037D01*
X-174141Y173955D01*
X-174081Y173875D01*
X-174019Y173798D01*
X-173953Y173723D01*
X-173885Y173650D01*
X-173814Y173581D01*
X-173740Y173514D01*
X-173664Y173450D01*
X-173585Y173389D01*
X-173504Y173331D01*
X-173421Y173276D01*
X-173336Y173225D01*
X-173249Y173177D01*
X-173160Y173132D01*
X-173069Y173091D01*
X-172977Y173053D01*
X-172884Y173019D01*
X-172789Y172989D01*
X-172693Y172962D01*
X-172596Y172939D01*
X-172499Y172920D01*
X-172400Y172905D01*
X-172301Y172893D01*
X-172202Y172885D01*
X-172103Y172881D01*
X-172003Y172881D01*
X-171904Y172885D01*
X-171805Y172893D01*
X-171706Y172905D01*
X-171607Y172920D01*
X-171510Y172939D01*
X-171413Y172962D01*
X-171317Y172989D01*
X-171222Y173019D01*
X-171129Y173053D01*
X-171037Y173091D01*
X-170946Y173132D01*
X-170857Y173177D01*
X-170770Y173225D01*
X-170685Y173276D01*
X-170602Y173331D01*
X-170521Y173389D01*
X-170442Y173450D01*
X-170366Y173514D01*
X-170292Y173581D01*
X-170221Y173650D01*
X-170153Y173723D01*
X-170087Y173798D01*
X-170025Y173875D01*
X-169965Y173955D01*
X-169909Y174037D01*
X-169856Y174121D01*
X-169806Y174207D01*
X-169760Y174295D01*
X-169717Y174385D01*
X-169678Y174477D01*
X-169642Y174569D01*
X-169610Y174664D01*
X-169581Y174759D01*
X-169556Y174855D01*
X-169535Y174953D01*
X-169518Y175051D01*
X-169504Y175149D01*
X-169495Y175248D01*
X-169489Y175348D01*
X-169487Y175447D01*
X-169487Y182119D01*
X-165319Y180066D02*
X-162753Y182119D01*
X-162753Y172881D01*
X-165319Y172881D02*
X-160187Y172881D01*
D13*
X87250Y127500D02*
X90000Y127500D01*
X90000Y162500D01*
X75550Y162500D01*
X27750Y127500D02*
X25000Y127500D01*
X25000Y162500D01*
X39450Y162500D01*
D14*
X32500Y100000D02*
X32502Y100063D01*
X32508Y100125D01*
X32518Y100187D01*
X32531Y100249D01*
X32549Y100309D01*
X32570Y100368D01*
X32595Y100426D01*
X32624Y100482D01*
X32656Y100536D01*
X32691Y100588D01*
X32729Y100637D01*
X32771Y100685D01*
X32815Y100729D01*
X32863Y100771D01*
X32912Y100809D01*
X32964Y100844D01*
X33018Y100876D01*
X33074Y100905D01*
X33132Y100930D01*
X33191Y100951D01*
X33251Y100969D01*
X33313Y100982D01*
X33375Y100992D01*
X33437Y100998D01*
X33500Y101000D01*
X33563Y100998D01*
X33625Y100992D01*
X33687Y100982D01*
X33749Y100969D01*
X33809Y100951D01*
X33868Y100930D01*
X33926Y100905D01*
X33982Y100876D01*
X34036Y100844D01*
X34088Y100809D01*
X34137Y100771D01*
X34185Y100729D01*
X34229Y100685D01*
X34271Y100637D01*
X34309Y100588D01*
X34344Y100536D01*
X34376Y100482D01*
X34405Y100426D01*
X34430Y100368D01*
X34451Y100309D01*
X34469Y100249D01*
X34482Y100187D01*
X34492Y100125D01*
X34498Y100063D01*
X34500Y100000D01*
X34498Y99937D01*
X34492Y99875D01*
X34482Y99813D01*
X34469Y99751D01*
X34451Y99691D01*
X34430Y99632D01*
X34405Y99574D01*
X34376Y99518D01*
X34344Y99464D01*
X34309Y99412D01*
X34271Y99363D01*
X34229Y99315D01*
X34185Y99271D01*
X34137Y99229D01*
X34088Y99191D01*
X34036Y99156D01*
X33982Y99124D01*
X33926Y99095D01*
X33868Y99070D01*
X33809Y99049D01*
X33749Y99031D01*
X33687Y99018D01*
X33625Y99008D01*
X33563Y99002D01*
X33500Y99000D01*
X33437Y99002D01*
X33375Y99008D01*
X33313Y99018D01*
X33251Y99031D01*
X33191Y99049D01*
X33132Y99070D01*
X33074Y99095D01*
X33018Y99124D01*
X32964Y99156D01*
X32912Y99191D01*
X32863Y99229D01*
X32815Y99271D01*
X32771Y99315D01*
X32729Y99363D01*
X32691Y99412D01*
X32656Y99464D01*
X32624Y99518D01*
X32595Y99574D01*
X32570Y99632D01*
X32549Y99691D01*
X32531Y99751D01*
X32518Y99813D01*
X32508Y99875D01*
X32502Y99937D01*
X32500Y100000D01*
D11*
X22881Y175447D02*
X22881Y182119D01*
X22881Y175447D02*
X22883Y175348D01*
X22889Y175248D01*
X22898Y175149D01*
X22912Y175051D01*
X22929Y174953D01*
X22950Y174855D01*
X22975Y174759D01*
X23004Y174664D01*
X23036Y174569D01*
X23072Y174477D01*
X23111Y174385D01*
X23154Y174295D01*
X23200Y174207D01*
X23250Y174121D01*
X23303Y174037D01*
X23359Y173955D01*
X23419Y173875D01*
X23481Y173798D01*
X23547Y173723D01*
X23615Y173650D01*
X23686Y173581D01*
X23760Y173514D01*
X23836Y173450D01*
X23915Y173389D01*
X23996Y173331D01*
X24079Y173276D01*
X24164Y173225D01*
X24251Y173177D01*
X24340Y173132D01*
X24431Y173091D01*
X24523Y173053D01*
X24616Y173019D01*
X24711Y172989D01*
X24807Y172962D01*
X24904Y172939D01*
X25001Y172920D01*
X25100Y172905D01*
X25199Y172893D01*
X25298Y172885D01*
X25397Y172881D01*
X25497Y172881D01*
X25596Y172885D01*
X25695Y172893D01*
X25794Y172905D01*
X25893Y172920D01*
X25990Y172939D01*
X26087Y172962D01*
X26183Y172989D01*
X26278Y173019D01*
X26371Y173053D01*
X26463Y173091D01*
X26554Y173132D01*
X26643Y173177D01*
X26730Y173225D01*
X26815Y173276D01*
X26898Y173331D01*
X26979Y173389D01*
X27058Y173450D01*
X27134Y173514D01*
X27208Y173581D01*
X27279Y173650D01*
X27347Y173723D01*
X27413Y173798D01*
X27475Y173875D01*
X27535Y173955D01*
X27591Y174037D01*
X27644Y174121D01*
X27694Y174207D01*
X27740Y174295D01*
X27783Y174385D01*
X27822Y174477D01*
X27858Y174569D01*
X27890Y174664D01*
X27919Y174759D01*
X27944Y174855D01*
X27965Y174953D01*
X27982Y175051D01*
X27996Y175149D01*
X28005Y175248D01*
X28011Y175348D01*
X28013Y175447D01*
X28013Y182119D01*
X35004Y182119D02*
X35097Y182117D01*
X35190Y182112D01*
X35282Y182102D01*
X35375Y182089D01*
X35466Y182072D01*
X35557Y182052D01*
X35647Y182028D01*
X35736Y182000D01*
X35823Y181969D01*
X35909Y181934D01*
X35994Y181896D01*
X36078Y181854D01*
X36159Y181810D01*
X36239Y181761D01*
X36316Y181710D01*
X36392Y181656D01*
X36465Y181598D01*
X36536Y181538D01*
X36604Y181475D01*
X36670Y181409D01*
X36733Y181341D01*
X36793Y181270D01*
X36851Y181197D01*
X36905Y181121D01*
X36956Y181044D01*
X37005Y180964D01*
X37049Y180883D01*
X37091Y180799D01*
X37129Y180714D01*
X37164Y180628D01*
X37195Y180541D01*
X37223Y180452D01*
X37247Y180362D01*
X37267Y180271D01*
X37284Y180180D01*
X37297Y180087D01*
X37307Y179995D01*
X37312Y179902D01*
X37314Y179809D01*
X35004Y182119D02*
X34897Y182117D01*
X34791Y182111D01*
X34685Y182102D01*
X34579Y182088D01*
X34474Y182071D01*
X34369Y182050D01*
X34266Y182026D01*
X34163Y181997D01*
X34061Y181965D01*
X33961Y181930D01*
X33862Y181890D01*
X33764Y181847D01*
X33668Y181801D01*
X33574Y181751D01*
X33481Y181698D01*
X33391Y181642D01*
X33302Y181582D01*
X33216Y181520D01*
X33132Y181454D01*
X33051Y181385D01*
X32972Y181314D01*
X32895Y181239D01*
X32822Y181162D01*
X32751Y181083D01*
X32683Y181000D01*
X32618Y180916D01*
X32556Y180829D01*
X32498Y180740D01*
X32442Y180649D01*
X32390Y180556D01*
X32341Y180461D01*
X32296Y180365D01*
X32254Y180266D01*
X32216Y180167D01*
X32181Y180066D01*
X36544Y178012D02*
X36612Y178080D01*
X36677Y178150D01*
X36740Y178222D01*
X36800Y178297D01*
X36857Y178374D01*
X36910Y178453D01*
X36961Y178534D01*
X37009Y178617D01*
X37053Y178701D01*
X37094Y178788D01*
X37132Y178876D01*
X37166Y178965D01*
X37197Y179056D01*
X37224Y179147D01*
X37248Y179240D01*
X37268Y179334D01*
X37285Y179428D01*
X37297Y179523D01*
X37307Y179618D01*
X37312Y179713D01*
X37314Y179809D01*
X36543Y178013D02*
X32181Y172881D01*
X37313Y172881D01*
X-98013Y172881D02*
X-100066Y172881D01*
X-100156Y172883D01*
X-100245Y172889D01*
X-100334Y172899D01*
X-100422Y172912D01*
X-100510Y172930D01*
X-100597Y172951D01*
X-100683Y172976D01*
X-100768Y173005D01*
X-100852Y173037D01*
X-100934Y173073D01*
X-101014Y173113D01*
X-101093Y173156D01*
X-101169Y173203D01*
X-101244Y173252D01*
X-101316Y173305D01*
X-101386Y173361D01*
X-101453Y173420D01*
X-101518Y173482D01*
X-101580Y173547D01*
X-101639Y173614D01*
X-101695Y173684D01*
X-101748Y173756D01*
X-101797Y173831D01*
X-101844Y173908D01*
X-101887Y173986D01*
X-101927Y174066D01*
X-101963Y174148D01*
X-101995Y174232D01*
X-102024Y174317D01*
X-102049Y174403D01*
X-102070Y174490D01*
X-102088Y174578D01*
X-102101Y174666D01*
X-102111Y174755D01*
X-102117Y174844D01*
X-102119Y174934D01*
X-102119Y180066D01*
X-102117Y180156D01*
X-102111Y180245D01*
X-102101Y180334D01*
X-102088Y180422D01*
X-102070Y180510D01*
X-102049Y180597D01*
X-102024Y180683D01*
X-101995Y180768D01*
X-101963Y180852D01*
X-101927Y180934D01*
X-101887Y181014D01*
X-101844Y181093D01*
X-101797Y181169D01*
X-101748Y181244D01*
X-101695Y181316D01*
X-101639Y181386D01*
X-101580Y181453D01*
X-101518Y181518D01*
X-101453Y181580D01*
X-101386Y181639D01*
X-101316Y181695D01*
X-101244Y181748D01*
X-101169Y181797D01*
X-101093Y181844D01*
X-101014Y181887D01*
X-100934Y181927D01*
X-100852Y181963D01*
X-100768Y181995D01*
X-100683Y182024D01*
X-100597Y182049D01*
X-100510Y182070D01*
X-100422Y182088D01*
X-100334Y182101D01*
X-100245Y182111D01*
X-100156Y182117D01*
X-100066Y182119D01*
X-98013Y182119D01*
X-94594Y180066D02*
X-92027Y182119D01*
X-92027Y172881D01*
X-89461Y172881D02*
X-94594Y172881D01*
X97434Y172881D02*
X99487Y172881D01*
X97434Y172881D02*
X97344Y172883D01*
X97255Y172889D01*
X97166Y172899D01*
X97078Y172912D01*
X96990Y172930D01*
X96903Y172951D01*
X96817Y172976D01*
X96732Y173005D01*
X96648Y173037D01*
X96566Y173073D01*
X96486Y173113D01*
X96408Y173156D01*
X96331Y173203D01*
X96256Y173252D01*
X96184Y173305D01*
X96114Y173361D01*
X96047Y173420D01*
X95982Y173482D01*
X95920Y173547D01*
X95861Y173614D01*
X95805Y173684D01*
X95752Y173756D01*
X95703Y173831D01*
X95656Y173908D01*
X95613Y173986D01*
X95573Y174066D01*
X95537Y174148D01*
X95505Y174232D01*
X95476Y174317D01*
X95451Y174403D01*
X95430Y174490D01*
X95412Y174578D01*
X95399Y174666D01*
X95389Y174755D01*
X95383Y174844D01*
X95381Y174934D01*
X95381Y180066D01*
X95383Y180156D01*
X95389Y180245D01*
X95399Y180334D01*
X95412Y180422D01*
X95430Y180510D01*
X95451Y180597D01*
X95476Y180683D01*
X95505Y180768D01*
X95537Y180852D01*
X95573Y180934D01*
X95613Y181014D01*
X95656Y181092D01*
X95703Y181169D01*
X95752Y181244D01*
X95805Y181316D01*
X95861Y181386D01*
X95920Y181453D01*
X95982Y181518D01*
X96047Y181580D01*
X96114Y181639D01*
X96184Y181695D01*
X96256Y181748D01*
X96331Y181797D01*
X96407Y181844D01*
X96486Y181887D01*
X96566Y181927D01*
X96648Y181963D01*
X96732Y181995D01*
X96817Y182024D01*
X96903Y182049D01*
X96990Y182070D01*
X97077Y182088D01*
X97166Y182101D01*
X97255Y182111D01*
X97344Y182117D01*
X97434Y182119D01*
X99487Y182119D01*
X105729Y182119D02*
X105822Y182117D01*
X105915Y182112D01*
X106007Y182102D01*
X106100Y182089D01*
X106191Y182072D01*
X106282Y182052D01*
X106372Y182028D01*
X106461Y182000D01*
X106548Y181969D01*
X106634Y181934D01*
X106719Y181896D01*
X106803Y181854D01*
X106884Y181810D01*
X106964Y181761D01*
X107041Y181710D01*
X107117Y181656D01*
X107190Y181598D01*
X107261Y181538D01*
X107329Y181475D01*
X107395Y181409D01*
X107458Y181341D01*
X107518Y181270D01*
X107576Y181197D01*
X107630Y181121D01*
X107681Y181044D01*
X107730Y180964D01*
X107774Y180883D01*
X107816Y180799D01*
X107854Y180714D01*
X107889Y180628D01*
X107920Y180541D01*
X107948Y180452D01*
X107972Y180362D01*
X107992Y180271D01*
X108009Y180180D01*
X108022Y180087D01*
X108032Y179995D01*
X108037Y179902D01*
X108039Y179809D01*
X105729Y182119D02*
X105622Y182117D01*
X105516Y182111D01*
X105410Y182102D01*
X105304Y182088D01*
X105199Y182071D01*
X105094Y182050D01*
X104991Y182026D01*
X104888Y181997D01*
X104786Y181965D01*
X104686Y181930D01*
X104587Y181890D01*
X104489Y181847D01*
X104393Y181801D01*
X104299Y181751D01*
X104206Y181698D01*
X104116Y181642D01*
X104027Y181582D01*
X103941Y181520D01*
X103857Y181454D01*
X103776Y181385D01*
X103697Y181314D01*
X103620Y181239D01*
X103547Y181162D01*
X103476Y181083D01*
X103408Y181000D01*
X103343Y180916D01*
X103281Y180829D01*
X103223Y180740D01*
X103167Y180649D01*
X103115Y180556D01*
X103066Y180461D01*
X103021Y180365D01*
X102979Y180266D01*
X102941Y180167D01*
X102906Y180066D01*
X107269Y178012D02*
X107337Y178080D01*
X107402Y178150D01*
X107465Y178222D01*
X107525Y178297D01*
X107582Y178374D01*
X107635Y178453D01*
X107686Y178534D01*
X107734Y178617D01*
X107778Y178701D01*
X107819Y178788D01*
X107857Y178876D01*
X107891Y178965D01*
X107922Y179056D01*
X107949Y179147D01*
X107973Y179240D01*
X107993Y179334D01*
X108010Y179428D01*
X108022Y179523D01*
X108032Y179618D01*
X108037Y179713D01*
X108039Y179809D01*
X107269Y178013D02*
X102906Y172881D01*
X108039Y172881D01*
X-188013Y172881D02*
X-190066Y172881D01*
X-190156Y172883D01*
X-190245Y172889D01*
X-190334Y172899D01*
X-190422Y172912D01*
X-190510Y172930D01*
X-190597Y172951D01*
X-190683Y172976D01*
X-190768Y173005D01*
X-190852Y173037D01*
X-190934Y173073D01*
X-191014Y173113D01*
X-191093Y173156D01*
X-191169Y173203D01*
X-191244Y173252D01*
X-191316Y173305D01*
X-191386Y173361D01*
X-191453Y173420D01*
X-191518Y173482D01*
X-191580Y173547D01*
X-191639Y173614D01*
X-191695Y173684D01*
X-191748Y173756D01*
X-191797Y173831D01*
X-191844Y173908D01*
X-191887Y173986D01*
X-191927Y174066D01*
X-191963Y174148D01*
X-191995Y174232D01*
X-192024Y174317D01*
X-192049Y174403D01*
X-192070Y174490D01*
X-192088Y174578D01*
X-192101Y174666D01*
X-192111Y174755D01*
X-192117Y174844D01*
X-192119Y174934D01*
X-192119Y180066D01*
X-192117Y180156D01*
X-192111Y180245D01*
X-192101Y180334D01*
X-192088Y180422D01*
X-192070Y180510D01*
X-192049Y180597D01*
X-192024Y180683D01*
X-191995Y180768D01*
X-191963Y180852D01*
X-191927Y180934D01*
X-191887Y181014D01*
X-191844Y181093D01*
X-191797Y181169D01*
X-191748Y181244D01*
X-191695Y181316D01*
X-191639Y181386D01*
X-191580Y181453D01*
X-191518Y181518D01*
X-191453Y181580D01*
X-191386Y181639D01*
X-191316Y181695D01*
X-191244Y181748D01*
X-191169Y181797D01*
X-191093Y181844D01*
X-191014Y181887D01*
X-190934Y181927D01*
X-190852Y181963D01*
X-190768Y181995D01*
X-190683Y182024D01*
X-190597Y182049D01*
X-190510Y182070D01*
X-190422Y182088D01*
X-190334Y182101D01*
X-190245Y182111D01*
X-190156Y182117D01*
X-190066Y182119D01*
X-188013Y182119D01*
X-184594Y172881D02*
X-182027Y172881D01*
X-181928Y172883D01*
X-181828Y172889D01*
X-181729Y172898D01*
X-181631Y172912D01*
X-181533Y172929D01*
X-181435Y172950D01*
X-181339Y172975D01*
X-181244Y173004D01*
X-181149Y173036D01*
X-181057Y173072D01*
X-180965Y173111D01*
X-180875Y173154D01*
X-180787Y173200D01*
X-180701Y173250D01*
X-180617Y173303D01*
X-180535Y173359D01*
X-180455Y173419D01*
X-180378Y173481D01*
X-180303Y173547D01*
X-180230Y173615D01*
X-180161Y173686D01*
X-180094Y173760D01*
X-180030Y173836D01*
X-179969Y173915D01*
X-179911Y173996D01*
X-179856Y174079D01*
X-179805Y174164D01*
X-179757Y174251D01*
X-179712Y174340D01*
X-179671Y174431D01*
X-179633Y174523D01*
X-179599Y174616D01*
X-179569Y174711D01*
X-179542Y174807D01*
X-179519Y174904D01*
X-179500Y175001D01*
X-179485Y175100D01*
X-179473Y175199D01*
X-179465Y175298D01*
X-179461Y175397D01*
X-179461Y175497D01*
X-179465Y175596D01*
X-179473Y175695D01*
X-179485Y175794D01*
X-179500Y175893D01*
X-179519Y175990D01*
X-179542Y176087D01*
X-179569Y176183D01*
X-179599Y176278D01*
X-179633Y176371D01*
X-179671Y176463D01*
X-179712Y176554D01*
X-179757Y176643D01*
X-179805Y176730D01*
X-179856Y176815D01*
X-179911Y176898D01*
X-179969Y176979D01*
X-180030Y177058D01*
X-180094Y177134D01*
X-180161Y177208D01*
X-180230Y177279D01*
X-180303Y177347D01*
X-180378Y177413D01*
X-180455Y177475D01*
X-180535Y177535D01*
X-180617Y177591D01*
X-180701Y177644D01*
X-180787Y177694D01*
X-180875Y177740D01*
X-180965Y177783D01*
X-181057Y177822D01*
X-181149Y177858D01*
X-181244Y177890D01*
X-181339Y177919D01*
X-181435Y177944D01*
X-181533Y177965D01*
X-181631Y177982D01*
X-181729Y177996D01*
X-181828Y178005D01*
X-181928Y178011D01*
X-182027Y178013D01*
X-181514Y182119D02*
X-184594Y182119D01*
X-181514Y182119D02*
X-181424Y182117D01*
X-181335Y182111D01*
X-181246Y182101D01*
X-181158Y182088D01*
X-181070Y182070D01*
X-180983Y182049D01*
X-180897Y182024D01*
X-180812Y181995D01*
X-180728Y181963D01*
X-180646Y181927D01*
X-180566Y181887D01*
X-180488Y181844D01*
X-180411Y181797D01*
X-180336Y181748D01*
X-180264Y181695D01*
X-180194Y181639D01*
X-180127Y181580D01*
X-180062Y181518D01*
X-180000Y181453D01*
X-179941Y181386D01*
X-179885Y181316D01*
X-179832Y181244D01*
X-179783Y181169D01*
X-179736Y181093D01*
X-179693Y181014D01*
X-179653Y180934D01*
X-179617Y180852D01*
X-179585Y180768D01*
X-179556Y180683D01*
X-179531Y180597D01*
X-179510Y180510D01*
X-179492Y180422D01*
X-179479Y180334D01*
X-179469Y180245D01*
X-179463Y180156D01*
X-179461Y180066D01*
X-179463Y179976D01*
X-179469Y179887D01*
X-179479Y179798D01*
X-179492Y179710D01*
X-179510Y179622D01*
X-179531Y179535D01*
X-179556Y179449D01*
X-179585Y179364D01*
X-179617Y179280D01*
X-179653Y179198D01*
X-179693Y179118D01*
X-179736Y179040D01*
X-179783Y178963D01*
X-179832Y178888D01*
X-179885Y178816D01*
X-179941Y178746D01*
X-180000Y178679D01*
X-180062Y178614D01*
X-180127Y178552D01*
X-180194Y178493D01*
X-180264Y178437D01*
X-180336Y178384D01*
X-180411Y178335D01*
X-180488Y178288D01*
X-180566Y178245D01*
X-180646Y178205D01*
X-180728Y178169D01*
X-180812Y178137D01*
X-180897Y178108D01*
X-180983Y178083D01*
X-181070Y178062D01*
X-181158Y178044D01*
X-181246Y178031D01*
X-181335Y178021D01*
X-181424Y178015D01*
X-181514Y178013D01*
X-183567Y178013D01*
X7434Y172881D02*
X9487Y172881D01*
X7434Y172881D02*
X7344Y172883D01*
X7255Y172889D01*
X7166Y172899D01*
X7078Y172912D01*
X6990Y172930D01*
X6903Y172951D01*
X6817Y172976D01*
X6732Y173005D01*
X6648Y173037D01*
X6566Y173073D01*
X6486Y173113D01*
X6407Y173156D01*
X6331Y173203D01*
X6256Y173252D01*
X6184Y173305D01*
X6114Y173361D01*
X6047Y173420D01*
X5982Y173482D01*
X5920Y173547D01*
X5861Y173614D01*
X5805Y173684D01*
X5752Y173756D01*
X5703Y173831D01*
X5656Y173908D01*
X5613Y173986D01*
X5573Y174066D01*
X5537Y174148D01*
X5505Y174232D01*
X5476Y174317D01*
X5451Y174403D01*
X5430Y174490D01*
X5412Y174578D01*
X5399Y174666D01*
X5389Y174755D01*
X5383Y174844D01*
X5381Y174934D01*
X5381Y180066D01*
X5383Y180156D01*
X5389Y180245D01*
X5399Y180334D01*
X5412Y180422D01*
X5430Y180510D01*
X5451Y180597D01*
X5476Y180683D01*
X5505Y180768D01*
X5537Y180852D01*
X5573Y180934D01*
X5613Y181014D01*
X5656Y181092D01*
X5703Y181169D01*
X5752Y181244D01*
X5805Y181316D01*
X5861Y181386D01*
X5920Y181453D01*
X5982Y181518D01*
X6047Y181580D01*
X6114Y181639D01*
X6184Y181695D01*
X6256Y181748D01*
X6331Y181797D01*
X6407Y181844D01*
X6486Y181887D01*
X6566Y181927D01*
X6648Y181963D01*
X6732Y181995D01*
X6817Y182024D01*
X6903Y182049D01*
X6990Y182070D01*
X7077Y182088D01*
X7166Y182101D01*
X7255Y182111D01*
X7344Y182117D01*
X7434Y182119D01*
X9487Y182119D01*
X14959Y182119D02*
X12906Y174934D01*
X18039Y174934D01*
X16499Y176987D02*
X16499Y172881D01*
D15*
X-74050Y180600D02*
X-80400Y174250D01*
X-80400Y161550D02*
X-74050Y155200D01*
X-80400Y148850D01*
X-80400Y136150D02*
X-74050Y129800D01*
X-74050Y180600D02*
X-35950Y180600D01*
X-29600Y174250D01*
X-29600Y161550D01*
X-35950Y155200D01*
X-29600Y148850D01*
X-29600Y136150D01*
X-35950Y129800D01*
X-35950Y155200D02*
X-74050Y155200D01*
X-74050Y129800D02*
X-35950Y129800D01*
X-80400Y136150D02*
X-80400Y148850D01*
X-80400Y161550D02*
X-80400Y174250D01*
X-74050Y129800D02*
X-80400Y123450D01*
X-80400Y110750D02*
X-74050Y104400D01*
X-35950Y129800D02*
X-29600Y123450D01*
X-29600Y110750D01*
X-35950Y104400D01*
X-74050Y104400D01*
X-80400Y110750D02*
X-80400Y123450D01*
D11*
X-61540Y184934D02*
X-61540Y192119D01*
X-61540Y184934D02*
X-61542Y184844D01*
X-61548Y184755D01*
X-61558Y184666D01*
X-61571Y184578D01*
X-61589Y184490D01*
X-61610Y184403D01*
X-61635Y184317D01*
X-61664Y184232D01*
X-61696Y184148D01*
X-61732Y184066D01*
X-61772Y183986D01*
X-61815Y183908D01*
X-61862Y183831D01*
X-61911Y183756D01*
X-61964Y183684D01*
X-62020Y183614D01*
X-62079Y183547D01*
X-62141Y183482D01*
X-62206Y183420D01*
X-62273Y183361D01*
X-62343Y183305D01*
X-62415Y183252D01*
X-62490Y183203D01*
X-62567Y183156D01*
X-62645Y183113D01*
X-62725Y183073D01*
X-62807Y183037D01*
X-62891Y183005D01*
X-62976Y182976D01*
X-63062Y182951D01*
X-63149Y182930D01*
X-63237Y182912D01*
X-63325Y182899D01*
X-63414Y182889D01*
X-63503Y182883D01*
X-63593Y182881D01*
X-64619Y182881D01*
X-56978Y182881D02*
X-56978Y192119D01*
X-54411Y192119D01*
X-54312Y192117D01*
X-54212Y192111D01*
X-54113Y192102D01*
X-54015Y192088D01*
X-53917Y192071D01*
X-53819Y192050D01*
X-53723Y192025D01*
X-53628Y191996D01*
X-53533Y191964D01*
X-53441Y191928D01*
X-53349Y191889D01*
X-53259Y191846D01*
X-53171Y191800D01*
X-53085Y191750D01*
X-53001Y191697D01*
X-52919Y191641D01*
X-52839Y191581D01*
X-52762Y191519D01*
X-52687Y191453D01*
X-52614Y191385D01*
X-52545Y191314D01*
X-52478Y191240D01*
X-52414Y191164D01*
X-52353Y191085D01*
X-52295Y191004D01*
X-52240Y190921D01*
X-52189Y190836D01*
X-52141Y190749D01*
X-52096Y190660D01*
X-52055Y190569D01*
X-52017Y190477D01*
X-51983Y190384D01*
X-51953Y190289D01*
X-51926Y190193D01*
X-51903Y190096D01*
X-51884Y189999D01*
X-51869Y189900D01*
X-51857Y189801D01*
X-51849Y189702D01*
X-51845Y189603D01*
X-51845Y189503D01*
X-51849Y189404D01*
X-51857Y189305D01*
X-51869Y189206D01*
X-51884Y189107D01*
X-51903Y189010D01*
X-51926Y188913D01*
X-51953Y188817D01*
X-51983Y188722D01*
X-52017Y188629D01*
X-52055Y188537D01*
X-52096Y188446D01*
X-52141Y188357D01*
X-52189Y188270D01*
X-52240Y188185D01*
X-52295Y188102D01*
X-52353Y188021D01*
X-52414Y187942D01*
X-52478Y187866D01*
X-52545Y187792D01*
X-52614Y187721D01*
X-52687Y187653D01*
X-52762Y187587D01*
X-52839Y187525D01*
X-52919Y187465D01*
X-53001Y187409D01*
X-53085Y187356D01*
X-53171Y187306D01*
X-53259Y187260D01*
X-53349Y187217D01*
X-53441Y187178D01*
X-53533Y187142D01*
X-53628Y187110D01*
X-53723Y187081D01*
X-53819Y187056D01*
X-53917Y187035D01*
X-54015Y187018D01*
X-54113Y187004D01*
X-54212Y186995D01*
X-54312Y186989D01*
X-54411Y186987D01*
X-56978Y186987D01*
X-48408Y190066D02*
X-45842Y192119D01*
X-45842Y182881D01*
X-48408Y182881D02*
X-43275Y182881D01*
D15*
X117100Y174250D02*
X123450Y180600D01*
X117100Y161550D02*
X123450Y155200D01*
X117100Y148850D01*
X117100Y136150D02*
X123450Y129800D01*
X123450Y180600D02*
X161550Y180600D01*
X167900Y174250D01*
X167900Y161550D01*
X161550Y155200D01*
X167900Y148850D01*
X167900Y136150D01*
X161550Y129800D01*
X161550Y155200D02*
X123450Y155200D01*
X123450Y129800D02*
X161550Y129800D01*
X117100Y136150D02*
X117100Y148850D01*
X117100Y161550D02*
X117100Y174250D01*
X123450Y129800D02*
X117100Y123450D01*
X117100Y110750D02*
X123450Y104400D01*
X161550Y129800D02*
X167900Y123450D01*
X167900Y110750D01*
X161550Y104400D01*
X123450Y104400D01*
X117100Y110750D02*
X117100Y123450D01*
D11*
X93460Y117119D02*
X93460Y109934D01*
X93458Y109844D01*
X93452Y109755D01*
X93442Y109666D01*
X93429Y109578D01*
X93411Y109490D01*
X93390Y109403D01*
X93365Y109317D01*
X93336Y109232D01*
X93304Y109148D01*
X93268Y109066D01*
X93228Y108986D01*
X93185Y108908D01*
X93138Y108831D01*
X93089Y108756D01*
X93036Y108684D01*
X92980Y108614D01*
X92921Y108547D01*
X92859Y108482D01*
X92794Y108420D01*
X92727Y108361D01*
X92657Y108305D01*
X92585Y108252D01*
X92510Y108203D01*
X92434Y108156D01*
X92355Y108113D01*
X92275Y108073D01*
X92193Y108037D01*
X92109Y108005D01*
X92024Y107976D01*
X91938Y107951D01*
X91851Y107930D01*
X91763Y107912D01*
X91675Y107899D01*
X91586Y107889D01*
X91497Y107883D01*
X91407Y107881D01*
X90381Y107881D01*
X98023Y107881D02*
X98023Y117119D01*
X100589Y117119D01*
X100688Y117117D01*
X100788Y117111D01*
X100887Y117102D01*
X100985Y117088D01*
X101083Y117071D01*
X101181Y117050D01*
X101277Y117025D01*
X101372Y116996D01*
X101467Y116964D01*
X101559Y116928D01*
X101651Y116889D01*
X101741Y116846D01*
X101829Y116800D01*
X101915Y116750D01*
X101999Y116697D01*
X102081Y116641D01*
X102161Y116581D01*
X102238Y116519D01*
X102313Y116453D01*
X102386Y116385D01*
X102455Y116314D01*
X102522Y116240D01*
X102586Y116164D01*
X102647Y116085D01*
X102705Y116004D01*
X102760Y115921D01*
X102811Y115836D01*
X102859Y115749D01*
X102904Y115660D01*
X102945Y115569D01*
X102983Y115477D01*
X103017Y115384D01*
X103047Y115289D01*
X103074Y115193D01*
X103097Y115096D01*
X103116Y114999D01*
X103131Y114900D01*
X103143Y114801D01*
X103151Y114702D01*
X103155Y114603D01*
X103155Y114503D01*
X103151Y114404D01*
X103143Y114305D01*
X103131Y114206D01*
X103116Y114107D01*
X103097Y114010D01*
X103074Y113913D01*
X103047Y113817D01*
X103017Y113722D01*
X102983Y113629D01*
X102945Y113537D01*
X102904Y113446D01*
X102859Y113357D01*
X102811Y113270D01*
X102760Y113185D01*
X102705Y113102D01*
X102647Y113021D01*
X102586Y112942D01*
X102522Y112866D01*
X102455Y112792D01*
X102386Y112721D01*
X102313Y112653D01*
X102238Y112587D01*
X102161Y112525D01*
X102081Y112465D01*
X101999Y112409D01*
X101915Y112356D01*
X101829Y112306D01*
X101741Y112260D01*
X101651Y112217D01*
X101559Y112178D01*
X101467Y112142D01*
X101372Y112110D01*
X101277Y112081D01*
X101181Y112056D01*
X101083Y112035D01*
X100985Y112018D01*
X100887Y112004D01*
X100788Y111995D01*
X100688Y111989D01*
X100589Y111987D01*
X98023Y111987D01*
X109415Y117119D02*
X109508Y117117D01*
X109601Y117112D01*
X109693Y117102D01*
X109786Y117089D01*
X109877Y117072D01*
X109968Y117052D01*
X110058Y117028D01*
X110147Y117000D01*
X110234Y116969D01*
X110320Y116934D01*
X110405Y116896D01*
X110489Y116854D01*
X110570Y116810D01*
X110650Y116761D01*
X110727Y116710D01*
X110803Y116656D01*
X110876Y116598D01*
X110947Y116538D01*
X111015Y116475D01*
X111081Y116409D01*
X111144Y116341D01*
X111204Y116270D01*
X111262Y116197D01*
X111316Y116121D01*
X111367Y116044D01*
X111416Y115964D01*
X111460Y115883D01*
X111502Y115799D01*
X111540Y115714D01*
X111575Y115628D01*
X111606Y115541D01*
X111634Y115452D01*
X111658Y115362D01*
X111678Y115271D01*
X111695Y115180D01*
X111708Y115087D01*
X111718Y114995D01*
X111723Y114902D01*
X111725Y114809D01*
X109415Y117119D02*
X109308Y117117D01*
X109202Y117111D01*
X109096Y117102D01*
X108990Y117088D01*
X108885Y117071D01*
X108780Y117050D01*
X108677Y117026D01*
X108574Y116997D01*
X108472Y116965D01*
X108372Y116930D01*
X108273Y116890D01*
X108175Y116847D01*
X108079Y116801D01*
X107985Y116751D01*
X107892Y116698D01*
X107802Y116642D01*
X107713Y116582D01*
X107627Y116520D01*
X107543Y116454D01*
X107462Y116385D01*
X107383Y116314D01*
X107306Y116239D01*
X107233Y116162D01*
X107162Y116083D01*
X107094Y116000D01*
X107029Y115916D01*
X106967Y115829D01*
X106909Y115740D01*
X106853Y115649D01*
X106801Y115556D01*
X106752Y115461D01*
X106707Y115365D01*
X106665Y115266D01*
X106627Y115167D01*
X106592Y115066D01*
X110955Y113012D02*
X111023Y113080D01*
X111088Y113150D01*
X111151Y113222D01*
X111211Y113297D01*
X111268Y113374D01*
X111321Y113453D01*
X111372Y113534D01*
X111420Y113617D01*
X111464Y113701D01*
X111505Y113788D01*
X111543Y113876D01*
X111577Y113965D01*
X111608Y114056D01*
X111635Y114147D01*
X111659Y114240D01*
X111679Y114334D01*
X111696Y114428D01*
X111708Y114523D01*
X111718Y114618D01*
X111723Y114713D01*
X111725Y114809D01*
X110955Y113013D02*
X106592Y107881D01*
X111725Y107881D01*
D10*
X145500Y241500D02*
X269500Y241500D01*
X269500Y184000D01*
X245000Y184000D01*
X170000Y184000D02*
X145500Y184000D01*
X145500Y241500D01*
X182500Y184000D02*
X232500Y184000D01*
D11*
X247881Y172881D02*
X253373Y181119D01*
X247881Y181119D02*
X253373Y172881D01*
X256439Y180204D02*
X256439Y181119D01*
X261015Y181119D01*
X258727Y172881D01*
X88373Y221119D02*
X82881Y212881D01*
X88373Y212881D02*
X82881Y221119D01*
X91439Y215169D02*
X91441Y215264D01*
X91447Y215358D01*
X91457Y215452D01*
X91470Y215546D01*
X91488Y215639D01*
X91509Y215731D01*
X91534Y215822D01*
X91563Y215912D01*
X91596Y216001D01*
X91632Y216088D01*
X91671Y216174D01*
X91715Y216258D01*
X91761Y216340D01*
X91812Y216420D01*
X91865Y216499D01*
X91921Y216574D01*
X91981Y216648D01*
X92044Y216719D01*
X92109Y216787D01*
X92177Y216852D01*
X92248Y216915D01*
X92322Y216975D01*
X92397Y217031D01*
X92476Y217084D01*
X92556Y217135D01*
X92638Y217181D01*
X92722Y217225D01*
X92808Y217264D01*
X92895Y217300D01*
X92984Y217333D01*
X93074Y217362D01*
X93165Y217387D01*
X93257Y217408D01*
X93350Y217426D01*
X93444Y217439D01*
X93538Y217449D01*
X93632Y217455D01*
X93727Y217457D01*
X93822Y217455D01*
X93916Y217449D01*
X94010Y217439D01*
X94104Y217426D01*
X94197Y217408D01*
X94289Y217387D01*
X94380Y217362D01*
X94470Y217333D01*
X94559Y217300D01*
X94646Y217264D01*
X94732Y217225D01*
X94816Y217181D01*
X94898Y217135D01*
X94978Y217084D01*
X95057Y217031D01*
X95132Y216975D01*
X95206Y216915D01*
X95277Y216852D01*
X95345Y216787D01*
X95410Y216719D01*
X95473Y216648D01*
X95533Y216574D01*
X95589Y216499D01*
X95642Y216420D01*
X95693Y216340D01*
X95739Y216258D01*
X95783Y216174D01*
X95822Y216088D01*
X95858Y216001D01*
X95891Y215912D01*
X95920Y215822D01*
X95945Y215731D01*
X95966Y215639D01*
X95984Y215546D01*
X95997Y215452D01*
X96007Y215358D01*
X96013Y215264D01*
X96015Y215169D01*
X96013Y215074D01*
X96007Y214980D01*
X95997Y214886D01*
X95984Y214792D01*
X95966Y214699D01*
X95945Y214607D01*
X95920Y214516D01*
X95891Y214426D01*
X95858Y214337D01*
X95822Y214250D01*
X95783Y214164D01*
X95739Y214080D01*
X95693Y213998D01*
X95642Y213918D01*
X95589Y213839D01*
X95533Y213764D01*
X95473Y213690D01*
X95410Y213619D01*
X95345Y213551D01*
X95277Y213486D01*
X95206Y213423D01*
X95132Y213363D01*
X95057Y213307D01*
X94978Y213254D01*
X94898Y213203D01*
X94816Y213157D01*
X94732Y213113D01*
X94646Y213074D01*
X94559Y213038D01*
X94470Y213005D01*
X94380Y212976D01*
X94289Y212951D01*
X94197Y212930D01*
X94104Y212912D01*
X94010Y212899D01*
X93916Y212889D01*
X93822Y212883D01*
X93727Y212881D01*
X93632Y212883D01*
X93538Y212889D01*
X93444Y212899D01*
X93350Y212912D01*
X93257Y212930D01*
X93165Y212951D01*
X93074Y212976D01*
X92984Y213005D01*
X92895Y213038D01*
X92808Y213074D01*
X92722Y213113D01*
X92638Y213157D01*
X92556Y213203D01*
X92476Y213254D01*
X92397Y213307D01*
X92322Y213363D01*
X92248Y213423D01*
X92177Y213486D01*
X92109Y213551D01*
X92044Y213619D01*
X91981Y213690D01*
X91921Y213764D01*
X91865Y213839D01*
X91812Y213918D01*
X91761Y213998D01*
X91715Y214080D01*
X91671Y214164D01*
X91632Y214250D01*
X91596Y214337D01*
X91563Y214426D01*
X91534Y214516D01*
X91509Y214607D01*
X91488Y214699D01*
X91470Y214792D01*
X91457Y214886D01*
X91447Y214980D01*
X91441Y215074D01*
X91439Y215169D01*
X91896Y219288D02*
X91898Y219373D01*
X91904Y219457D01*
X91914Y219541D01*
X91927Y219624D01*
X91945Y219707D01*
X91966Y219789D01*
X91991Y219870D01*
X92020Y219949D01*
X92052Y220028D01*
X92088Y220104D01*
X92127Y220179D01*
X92170Y220252D01*
X92216Y220323D01*
X92266Y220391D01*
X92318Y220458D01*
X92374Y220522D01*
X92432Y220583D01*
X92493Y220641D01*
X92557Y220697D01*
X92624Y220749D01*
X92692Y220799D01*
X92763Y220845D01*
X92836Y220888D01*
X92911Y220927D01*
X92987Y220963D01*
X93066Y220995D01*
X93145Y221024D01*
X93226Y221049D01*
X93308Y221070D01*
X93391Y221088D01*
X93474Y221101D01*
X93558Y221111D01*
X93642Y221117D01*
X93727Y221119D01*
X93812Y221117D01*
X93896Y221111D01*
X93980Y221101D01*
X94063Y221088D01*
X94146Y221070D01*
X94228Y221049D01*
X94309Y221024D01*
X94388Y220995D01*
X94467Y220963D01*
X94543Y220927D01*
X94618Y220888D01*
X94691Y220845D01*
X94762Y220799D01*
X94830Y220749D01*
X94897Y220697D01*
X94961Y220641D01*
X95022Y220583D01*
X95080Y220522D01*
X95136Y220458D01*
X95188Y220391D01*
X95238Y220323D01*
X95284Y220252D01*
X95327Y220179D01*
X95366Y220104D01*
X95402Y220028D01*
X95434Y219949D01*
X95463Y219870D01*
X95488Y219789D01*
X95509Y219707D01*
X95527Y219624D01*
X95540Y219541D01*
X95550Y219457D01*
X95556Y219373D01*
X95558Y219288D01*
X95556Y219203D01*
X95550Y219119D01*
X95540Y219035D01*
X95527Y218952D01*
X95509Y218869D01*
X95488Y218787D01*
X95463Y218706D01*
X95434Y218627D01*
X95402Y218548D01*
X95366Y218472D01*
X95327Y218397D01*
X95284Y218324D01*
X95238Y218253D01*
X95188Y218185D01*
X95136Y218118D01*
X95080Y218054D01*
X95022Y217993D01*
X94961Y217935D01*
X94897Y217879D01*
X94830Y217827D01*
X94762Y217777D01*
X94691Y217731D01*
X94618Y217688D01*
X94543Y217649D01*
X94467Y217613D01*
X94388Y217581D01*
X94309Y217552D01*
X94228Y217527D01*
X94146Y217506D01*
X94063Y217488D01*
X93980Y217475D01*
X93896Y217465D01*
X93812Y217459D01*
X93727Y217457D01*
X93642Y217459D01*
X93558Y217465D01*
X93474Y217475D01*
X93391Y217488D01*
X93308Y217506D01*
X93226Y217527D01*
X93145Y217552D01*
X93066Y217581D01*
X92987Y217613D01*
X92911Y217649D01*
X92836Y217688D01*
X92763Y217731D01*
X92692Y217777D01*
X92624Y217827D01*
X92557Y217879D01*
X92493Y217935D01*
X92432Y217993D01*
X92374Y218054D01*
X92318Y218118D01*
X92266Y218185D01*
X92216Y218253D01*
X92170Y218324D01*
X92127Y218397D01*
X92088Y218472D01*
X92052Y218548D01*
X92020Y218627D01*
X91991Y218706D01*
X91966Y218787D01*
X91945Y218869D01*
X91927Y218952D01*
X91914Y219035D01*
X91904Y219119D01*
X91898Y219203D01*
X91896Y219288D01*
X95381Y185381D02*
X99042Y185381D01*
X95381Y185381D02*
X95381Y193619D01*
X99042Y193619D01*
X98127Y189958D02*
X95381Y189958D01*
X101762Y185381D02*
X105424Y190873D01*
X101762Y190873D02*
X105424Y185381D01*
X107822Y190873D02*
X110568Y190873D01*
X108738Y193619D02*
X108738Y186754D01*
X108740Y186682D01*
X108746Y186610D01*
X108755Y186539D01*
X108768Y186469D01*
X108785Y186399D01*
X108805Y186330D01*
X108829Y186262D01*
X108857Y186196D01*
X108888Y186131D01*
X108922Y186068D01*
X108960Y186006D01*
X109000Y185947D01*
X109044Y185890D01*
X109091Y185835D01*
X109140Y185783D01*
X109192Y185734D01*
X109247Y185687D01*
X109304Y185643D01*
X109363Y185603D01*
X109425Y185565D01*
X109488Y185531D01*
X109553Y185500D01*
X109619Y185472D01*
X109687Y185448D01*
X109756Y185428D01*
X109826Y185411D01*
X109896Y185398D01*
X109967Y185389D01*
X110039Y185383D01*
X110111Y185381D01*
X110568Y185381D01*
X113961Y185381D02*
X113961Y190873D01*
X116707Y190873D01*
X116707Y189958D01*
X119582Y190873D02*
X119582Y186754D01*
X119584Y186682D01*
X119590Y186610D01*
X119599Y186539D01*
X119612Y186469D01*
X119629Y186399D01*
X119649Y186330D01*
X119673Y186262D01*
X119701Y186196D01*
X119732Y186131D01*
X119766Y186068D01*
X119804Y186006D01*
X119844Y185947D01*
X119888Y185890D01*
X119935Y185835D01*
X119984Y185783D01*
X120036Y185734D01*
X120091Y185687D01*
X120148Y185643D01*
X120207Y185603D01*
X120269Y185565D01*
X120332Y185531D01*
X120397Y185500D01*
X120463Y185472D01*
X120531Y185448D01*
X120600Y185428D01*
X120670Y185411D01*
X120740Y185398D01*
X120811Y185389D01*
X120883Y185383D01*
X120955Y185381D01*
X123243Y185381D01*
X123243Y190873D01*
X130490Y193619D02*
X130490Y185381D01*
X128202Y185381D01*
X128130Y185383D01*
X128058Y185389D01*
X127987Y185398D01*
X127917Y185411D01*
X127847Y185428D01*
X127778Y185448D01*
X127710Y185472D01*
X127644Y185500D01*
X127579Y185531D01*
X127516Y185565D01*
X127454Y185603D01*
X127395Y185643D01*
X127338Y185687D01*
X127283Y185734D01*
X127231Y185783D01*
X127182Y185835D01*
X127135Y185890D01*
X127091Y185947D01*
X127051Y186006D01*
X127013Y186068D01*
X126979Y186131D01*
X126948Y186196D01*
X126920Y186262D01*
X126896Y186330D01*
X126876Y186399D01*
X126859Y186469D01*
X126846Y186539D01*
X126837Y186610D01*
X126831Y186682D01*
X126829Y186754D01*
X126829Y189500D01*
X126831Y189572D01*
X126837Y189644D01*
X126846Y189715D01*
X126859Y189785D01*
X126876Y189855D01*
X126896Y189924D01*
X126920Y189992D01*
X126948Y190058D01*
X126979Y190123D01*
X127013Y190187D01*
X127051Y190248D01*
X127091Y190307D01*
X127135Y190364D01*
X127182Y190419D01*
X127231Y190471D01*
X127283Y190520D01*
X127338Y190567D01*
X127395Y190611D01*
X127454Y190651D01*
X127516Y190689D01*
X127579Y190723D01*
X127644Y190754D01*
X127710Y190782D01*
X127778Y190806D01*
X127847Y190826D01*
X127917Y190843D01*
X127987Y190856D01*
X128058Y190865D01*
X128130Y190871D01*
X128202Y190873D01*
X130490Y190873D01*
X135535Y185381D02*
X137823Y185381D01*
X135535Y185381D02*
X135463Y185383D01*
X135391Y185389D01*
X135320Y185398D01*
X135250Y185411D01*
X135180Y185428D01*
X135111Y185448D01*
X135043Y185472D01*
X134977Y185500D01*
X134912Y185531D01*
X134849Y185565D01*
X134787Y185603D01*
X134728Y185643D01*
X134671Y185687D01*
X134616Y185734D01*
X134564Y185783D01*
X134515Y185835D01*
X134468Y185890D01*
X134424Y185947D01*
X134384Y186006D01*
X134346Y186068D01*
X134312Y186131D01*
X134281Y186196D01*
X134253Y186262D01*
X134229Y186330D01*
X134209Y186399D01*
X134192Y186469D01*
X134179Y186539D01*
X134170Y186610D01*
X134164Y186682D01*
X134162Y186754D01*
X134162Y189042D01*
X134164Y189127D01*
X134170Y189211D01*
X134180Y189295D01*
X134193Y189378D01*
X134211Y189461D01*
X134232Y189543D01*
X134257Y189624D01*
X134286Y189703D01*
X134318Y189782D01*
X134354Y189858D01*
X134393Y189933D01*
X134436Y190006D01*
X134482Y190077D01*
X134532Y190145D01*
X134584Y190212D01*
X134640Y190276D01*
X134698Y190337D01*
X134759Y190395D01*
X134823Y190451D01*
X134890Y190503D01*
X134958Y190553D01*
X135029Y190599D01*
X135102Y190642D01*
X135177Y190681D01*
X135253Y190717D01*
X135332Y190749D01*
X135411Y190778D01*
X135492Y190803D01*
X135574Y190824D01*
X135657Y190842D01*
X135740Y190855D01*
X135824Y190865D01*
X135908Y190871D01*
X135993Y190873D01*
X136078Y190871D01*
X136162Y190865D01*
X136246Y190855D01*
X136329Y190842D01*
X136412Y190824D01*
X136494Y190803D01*
X136575Y190778D01*
X136654Y190749D01*
X136733Y190717D01*
X136809Y190681D01*
X136884Y190642D01*
X136957Y190599D01*
X137028Y190553D01*
X137096Y190503D01*
X137163Y190451D01*
X137227Y190395D01*
X137288Y190337D01*
X137346Y190276D01*
X137402Y190212D01*
X137454Y190145D01*
X137504Y190077D01*
X137550Y190006D01*
X137593Y189933D01*
X137632Y189858D01*
X137668Y189782D01*
X137700Y189703D01*
X137729Y189624D01*
X137754Y189543D01*
X137775Y189461D01*
X137793Y189378D01*
X137806Y189295D01*
X137816Y189211D01*
X137822Y189127D01*
X137824Y189042D01*
X137823Y189042D02*
X137823Y188127D01*
X134162Y188127D01*
X141501Y185381D02*
X141501Y190873D01*
X144247Y190873D01*
X144247Y189958D01*
X-124127Y246919D02*
X-129619Y238681D01*
X-124127Y238681D02*
X-129619Y246919D01*
X-121061Y245088D02*
X-118773Y246919D01*
X-118773Y238681D01*
X-121061Y238681D02*
X-116485Y238681D01*
X-112962Y242800D02*
X-112960Y242962D01*
X-112954Y243124D01*
X-112945Y243286D01*
X-112931Y243447D01*
X-112914Y243608D01*
X-112892Y243769D01*
X-112867Y243929D01*
X-112839Y244089D01*
X-112806Y244248D01*
X-112769Y244405D01*
X-112729Y244562D01*
X-112685Y244718D01*
X-112638Y244873D01*
X-112586Y245027D01*
X-112531Y245180D01*
X-112473Y245331D01*
X-112411Y245480D01*
X-112345Y245628D01*
X-112275Y245775D01*
X-112246Y245851D01*
X-112215Y245925D01*
X-112180Y245998D01*
X-112141Y246069D01*
X-112099Y246138D01*
X-112054Y246205D01*
X-112006Y246270D01*
X-111955Y246332D01*
X-111901Y246392D01*
X-111844Y246449D01*
X-111784Y246504D01*
X-111722Y246555D01*
X-111657Y246604D01*
X-111590Y246649D01*
X-111521Y246691D01*
X-111450Y246730D01*
X-111378Y246765D01*
X-111304Y246797D01*
X-111228Y246825D01*
X-111151Y246850D01*
X-111073Y246871D01*
X-110994Y246888D01*
X-110915Y246902D01*
X-110834Y246911D01*
X-110754Y246917D01*
X-110673Y246919D01*
X-110592Y246917D01*
X-110512Y246911D01*
X-110432Y246902D01*
X-110352Y246888D01*
X-110273Y246871D01*
X-110195Y246850D01*
X-110118Y246825D01*
X-110042Y246797D01*
X-109968Y246765D01*
X-109896Y246730D01*
X-109825Y246691D01*
X-109756Y246649D01*
X-109689Y246604D01*
X-109624Y246555D01*
X-109562Y246504D01*
X-109503Y246449D01*
X-109446Y246392D01*
X-109391Y246332D01*
X-109340Y246270D01*
X-109292Y246205D01*
X-109247Y246138D01*
X-109205Y246069D01*
X-109166Y245998D01*
X-109131Y245925D01*
X-109100Y245851D01*
X-109072Y245775D01*
X-109071Y245775D02*
X-109001Y245628D01*
X-108935Y245480D01*
X-108873Y245331D01*
X-108815Y245180D01*
X-108760Y245027D01*
X-108708Y244873D01*
X-108661Y244718D01*
X-108617Y244562D01*
X-108577Y244405D01*
X-108540Y244248D01*
X-108507Y244089D01*
X-108479Y243929D01*
X-108454Y243769D01*
X-108432Y243608D01*
X-108415Y243447D01*
X-108401Y243286D01*
X-108392Y243124D01*
X-108386Y242962D01*
X-108384Y242800D01*
X-112962Y242800D02*
X-112960Y242638D01*
X-112954Y242476D01*
X-112945Y242314D01*
X-112931Y242153D01*
X-112914Y241992D01*
X-112892Y241831D01*
X-112867Y241671D01*
X-112839Y241511D01*
X-112806Y241353D01*
X-112769Y241195D01*
X-112729Y241038D01*
X-112685Y240882D01*
X-112638Y240727D01*
X-112586Y240573D01*
X-112531Y240420D01*
X-112473Y240269D01*
X-112411Y240120D01*
X-112345Y239972D01*
X-112275Y239825D01*
X-112274Y239825D02*
X-112246Y239749D01*
X-112215Y239675D01*
X-112180Y239602D01*
X-112141Y239531D01*
X-112099Y239462D01*
X-112054Y239395D01*
X-112006Y239330D01*
X-111955Y239268D01*
X-111901Y239208D01*
X-111844Y239151D01*
X-111784Y239096D01*
X-111722Y239045D01*
X-111657Y238996D01*
X-111590Y238951D01*
X-111521Y238909D01*
X-111450Y238870D01*
X-111378Y238835D01*
X-111304Y238803D01*
X-111228Y238775D01*
X-111151Y238750D01*
X-111073Y238729D01*
X-110994Y238712D01*
X-110915Y238698D01*
X-110834Y238689D01*
X-110754Y238683D01*
X-110673Y238681D01*
X-109072Y239825D02*
X-109002Y239972D01*
X-108936Y240120D01*
X-108874Y240269D01*
X-108816Y240420D01*
X-108761Y240573D01*
X-108709Y240727D01*
X-108662Y240882D01*
X-108618Y241038D01*
X-108578Y241195D01*
X-108541Y241353D01*
X-108508Y241511D01*
X-108480Y241671D01*
X-108455Y241831D01*
X-108433Y241992D01*
X-108416Y242153D01*
X-108402Y242314D01*
X-108393Y242476D01*
X-108387Y242638D01*
X-108385Y242800D01*
X-109072Y239825D02*
X-109100Y239749D01*
X-109131Y239675D01*
X-109166Y239602D01*
X-109205Y239531D01*
X-109247Y239462D01*
X-109292Y239395D01*
X-109340Y239330D01*
X-109391Y239268D01*
X-109446Y239208D01*
X-109503Y239151D01*
X-109562Y239096D01*
X-109624Y239045D01*
X-109689Y238996D01*
X-109756Y238951D01*
X-109825Y238909D01*
X-109896Y238870D01*
X-109968Y238835D01*
X-110042Y238803D01*
X-110118Y238775D01*
X-110195Y238750D01*
X-110273Y238729D01*
X-110352Y238712D01*
X-110432Y238698D01*
X-110512Y238689D01*
X-110592Y238683D01*
X-110673Y238681D01*
X-112504Y240512D02*
X-108842Y245088D01*
X-149373Y229729D02*
X-152119Y233619D01*
X-149373Y229729D02*
X-146627Y233619D01*
X-149373Y229729D02*
X-149373Y225381D01*
X-143914Y224466D02*
X-140252Y224466D01*
X-136795Y225381D02*
X-133134Y225381D01*
X-136795Y225381D02*
X-136795Y233619D01*
X-133134Y233619D01*
X-134049Y229958D02*
X-136795Y229958D01*
X-129874Y230873D02*
X-129874Y225381D01*
X-129874Y230873D02*
X-127585Y230873D01*
X-127513Y230871D01*
X-127441Y230865D01*
X-127370Y230856D01*
X-127300Y230843D01*
X-127230Y230826D01*
X-127161Y230806D01*
X-127093Y230782D01*
X-127027Y230754D01*
X-126962Y230723D01*
X-126899Y230689D01*
X-126837Y230651D01*
X-126778Y230611D01*
X-126721Y230567D01*
X-126666Y230520D01*
X-126614Y230471D01*
X-126565Y230419D01*
X-126518Y230364D01*
X-126474Y230307D01*
X-126434Y230248D01*
X-126396Y230187D01*
X-126362Y230123D01*
X-126331Y230058D01*
X-126303Y229992D01*
X-126279Y229924D01*
X-126259Y229855D01*
X-126242Y229785D01*
X-126229Y229715D01*
X-126220Y229644D01*
X-126214Y229572D01*
X-126212Y229500D01*
X-126212Y225381D01*
X-118965Y225381D02*
X-118965Y233619D01*
X-118965Y225381D02*
X-121254Y225381D01*
X-121326Y225383D01*
X-121398Y225389D01*
X-121469Y225398D01*
X-121539Y225411D01*
X-121609Y225428D01*
X-121678Y225448D01*
X-121746Y225472D01*
X-121812Y225500D01*
X-121877Y225531D01*
X-121941Y225565D01*
X-122002Y225603D01*
X-122061Y225643D01*
X-122118Y225687D01*
X-122173Y225734D01*
X-122225Y225783D01*
X-122274Y225835D01*
X-122321Y225890D01*
X-122365Y225947D01*
X-122405Y226006D01*
X-122443Y226068D01*
X-122477Y226131D01*
X-122508Y226196D01*
X-122536Y226262D01*
X-122560Y226330D01*
X-122580Y226399D01*
X-122597Y226469D01*
X-122610Y226539D01*
X-122619Y226610D01*
X-122625Y226682D01*
X-122627Y226754D01*
X-122627Y229500D01*
X-122625Y229572D01*
X-122619Y229644D01*
X-122610Y229715D01*
X-122597Y229785D01*
X-122580Y229855D01*
X-122560Y229924D01*
X-122536Y229992D01*
X-122508Y230058D01*
X-122477Y230123D01*
X-122443Y230187D01*
X-122405Y230248D01*
X-122365Y230307D01*
X-122321Y230364D01*
X-122274Y230419D01*
X-122225Y230471D01*
X-122173Y230520D01*
X-122118Y230567D01*
X-122061Y230611D01*
X-122002Y230651D01*
X-121941Y230689D01*
X-121877Y230723D01*
X-121812Y230754D01*
X-121746Y230782D01*
X-121678Y230806D01*
X-121609Y230826D01*
X-121539Y230843D01*
X-121469Y230856D01*
X-121398Y230865D01*
X-121326Y230871D01*
X-121254Y230873D01*
X-118965Y230873D01*
X-114607Y228585D02*
X-112319Y227669D01*
X-114608Y228584D02*
X-114670Y228611D01*
X-114730Y228641D01*
X-114788Y228674D01*
X-114844Y228711D01*
X-114898Y228751D01*
X-114950Y228794D01*
X-114999Y228840D01*
X-115046Y228888D01*
X-115090Y228939D01*
X-115130Y228993D01*
X-115168Y229048D01*
X-115203Y229106D01*
X-115234Y229165D01*
X-115262Y229227D01*
X-115286Y229289D01*
X-115306Y229353D01*
X-115323Y229418D01*
X-115337Y229484D01*
X-115346Y229551D01*
X-115352Y229618D01*
X-115354Y229685D01*
X-115352Y229752D01*
X-115347Y229819D01*
X-115337Y229886D01*
X-115324Y229952D01*
X-115307Y230017D01*
X-115286Y230081D01*
X-115262Y230143D01*
X-115235Y230205D01*
X-115204Y230264D01*
X-115169Y230322D01*
X-115132Y230378D01*
X-115091Y230431D01*
X-115047Y230482D01*
X-115001Y230531D01*
X-114951Y230577D01*
X-114900Y230620D01*
X-114846Y230660D01*
X-114790Y230697D01*
X-114731Y230730D01*
X-114671Y230761D01*
X-114610Y230787D01*
X-114547Y230811D01*
X-114482Y230830D01*
X-114417Y230846D01*
X-114351Y230859D01*
X-114284Y230867D01*
X-114217Y230872D01*
X-114150Y230873D01*
X-114150Y230872D02*
X-114008Y230869D01*
X-113867Y230861D01*
X-113726Y230849D01*
X-113585Y230834D01*
X-113445Y230814D01*
X-113305Y230791D01*
X-113166Y230764D01*
X-113028Y230733D01*
X-112890Y230699D01*
X-112754Y230661D01*
X-112619Y230619D01*
X-112484Y230573D01*
X-112352Y230524D01*
X-112220Y230471D01*
X-112090Y230415D01*
X-112319Y227670D02*
X-112257Y227643D01*
X-112197Y227613D01*
X-112139Y227580D01*
X-112083Y227543D01*
X-112029Y227503D01*
X-111977Y227460D01*
X-111928Y227414D01*
X-111881Y227366D01*
X-111837Y227315D01*
X-111797Y227261D01*
X-111759Y227206D01*
X-111724Y227148D01*
X-111693Y227089D01*
X-111665Y227027D01*
X-111641Y226965D01*
X-111621Y226901D01*
X-111604Y226836D01*
X-111590Y226770D01*
X-111581Y226703D01*
X-111575Y226636D01*
X-111573Y226569D01*
X-111575Y226502D01*
X-111580Y226435D01*
X-111590Y226368D01*
X-111603Y226302D01*
X-111620Y226237D01*
X-111641Y226173D01*
X-111665Y226111D01*
X-111692Y226049D01*
X-111723Y225990D01*
X-111758Y225932D01*
X-111795Y225876D01*
X-111836Y225823D01*
X-111880Y225772D01*
X-111926Y225723D01*
X-111975Y225677D01*
X-112027Y225634D01*
X-112081Y225594D01*
X-112137Y225557D01*
X-112196Y225524D01*
X-112256Y225493D01*
X-112317Y225467D01*
X-112380Y225443D01*
X-112445Y225424D01*
X-112510Y225408D01*
X-112576Y225395D01*
X-112643Y225387D01*
X-112710Y225382D01*
X-112777Y225381D01*
X-112777Y225382D02*
X-112960Y225387D01*
X-113144Y225396D01*
X-113327Y225409D01*
X-113509Y225427D01*
X-113692Y225449D01*
X-113873Y225475D01*
X-114054Y225506D01*
X-114235Y225541D01*
X-114414Y225580D01*
X-114592Y225624D01*
X-114769Y225671D01*
X-114946Y225723D01*
X-115120Y225779D01*
X-115294Y225839D01*
X-108963Y230873D02*
X-106217Y230873D01*
X-108048Y233619D02*
X-108048Y226754D01*
X-108046Y226682D01*
X-108040Y226610D01*
X-108031Y226539D01*
X-108018Y226469D01*
X-108001Y226399D01*
X-107981Y226330D01*
X-107957Y226262D01*
X-107929Y226196D01*
X-107898Y226131D01*
X-107864Y226068D01*
X-107826Y226006D01*
X-107786Y225947D01*
X-107742Y225890D01*
X-107695Y225835D01*
X-107646Y225783D01*
X-107594Y225734D01*
X-107539Y225687D01*
X-107482Y225643D01*
X-107423Y225603D01*
X-107362Y225565D01*
X-107298Y225531D01*
X-107233Y225500D01*
X-107167Y225472D01*
X-107099Y225448D01*
X-107030Y225428D01*
X-106960Y225411D01*
X-106890Y225398D01*
X-106819Y225389D01*
X-106747Y225383D01*
X-106675Y225381D01*
X-106217Y225381D01*
X-103144Y227212D02*
X-103144Y229042D01*
X-103142Y229127D01*
X-103136Y229211D01*
X-103126Y229295D01*
X-103113Y229378D01*
X-103095Y229461D01*
X-103074Y229543D01*
X-103049Y229624D01*
X-103020Y229703D01*
X-102988Y229782D01*
X-102952Y229858D01*
X-102913Y229933D01*
X-102870Y230006D01*
X-102824Y230077D01*
X-102774Y230145D01*
X-102722Y230212D01*
X-102666Y230276D01*
X-102608Y230337D01*
X-102547Y230395D01*
X-102483Y230451D01*
X-102416Y230503D01*
X-102348Y230553D01*
X-102277Y230599D01*
X-102204Y230642D01*
X-102129Y230681D01*
X-102053Y230717D01*
X-101974Y230749D01*
X-101895Y230778D01*
X-101814Y230803D01*
X-101732Y230824D01*
X-101649Y230842D01*
X-101566Y230855D01*
X-101482Y230865D01*
X-101398Y230871D01*
X-101313Y230873D01*
X-101228Y230871D01*
X-101144Y230865D01*
X-101060Y230855D01*
X-100977Y230842D01*
X-100894Y230824D01*
X-100812Y230803D01*
X-100731Y230778D01*
X-100652Y230749D01*
X-100573Y230717D01*
X-100497Y230681D01*
X-100422Y230642D01*
X-100349Y230599D01*
X-100278Y230553D01*
X-100210Y230503D01*
X-100143Y230451D01*
X-100079Y230395D01*
X-100018Y230337D01*
X-99960Y230276D01*
X-99904Y230212D01*
X-99852Y230145D01*
X-99802Y230077D01*
X-99756Y230006D01*
X-99713Y229933D01*
X-99674Y229858D01*
X-99638Y229782D01*
X-99606Y229703D01*
X-99577Y229624D01*
X-99552Y229543D01*
X-99531Y229461D01*
X-99513Y229378D01*
X-99500Y229295D01*
X-99490Y229211D01*
X-99484Y229127D01*
X-99482Y229042D01*
X-99482Y227212D01*
X-99484Y227127D01*
X-99490Y227043D01*
X-99500Y226959D01*
X-99513Y226876D01*
X-99531Y226793D01*
X-99552Y226711D01*
X-99577Y226630D01*
X-99606Y226551D01*
X-99638Y226472D01*
X-99674Y226396D01*
X-99713Y226321D01*
X-99756Y226248D01*
X-99802Y226177D01*
X-99852Y226109D01*
X-99904Y226042D01*
X-99960Y225978D01*
X-100018Y225917D01*
X-100079Y225859D01*
X-100143Y225803D01*
X-100210Y225751D01*
X-100278Y225701D01*
X-100349Y225655D01*
X-100422Y225612D01*
X-100497Y225573D01*
X-100573Y225537D01*
X-100652Y225505D01*
X-100731Y225476D01*
X-100812Y225451D01*
X-100894Y225430D01*
X-100977Y225412D01*
X-101060Y225399D01*
X-101144Y225389D01*
X-101228Y225383D01*
X-101313Y225381D01*
X-101398Y225383D01*
X-101482Y225389D01*
X-101566Y225399D01*
X-101649Y225412D01*
X-101732Y225430D01*
X-101814Y225451D01*
X-101895Y225476D01*
X-101974Y225505D01*
X-102053Y225537D01*
X-102129Y225573D01*
X-102204Y225612D01*
X-102277Y225655D01*
X-102348Y225701D01*
X-102416Y225751D01*
X-102483Y225803D01*
X-102547Y225859D01*
X-102608Y225917D01*
X-102666Y225978D01*
X-102722Y226042D01*
X-102774Y226109D01*
X-102824Y226177D01*
X-102870Y226248D01*
X-102913Y226321D01*
X-102952Y226396D01*
X-102988Y226472D01*
X-103020Y226551D01*
X-103049Y226630D01*
X-103074Y226711D01*
X-103095Y226793D01*
X-103113Y226876D01*
X-103126Y226959D01*
X-103136Y227043D01*
X-103142Y227127D01*
X-103144Y227212D01*
X-95811Y230873D02*
X-95811Y222635D01*
X-95811Y230873D02*
X-93523Y230873D01*
X-93451Y230871D01*
X-93379Y230865D01*
X-93308Y230856D01*
X-93238Y230843D01*
X-93168Y230826D01*
X-93099Y230806D01*
X-93031Y230782D01*
X-92965Y230754D01*
X-92900Y230723D01*
X-92837Y230689D01*
X-92775Y230651D01*
X-92716Y230611D01*
X-92659Y230567D01*
X-92604Y230520D01*
X-92552Y230471D01*
X-92503Y230419D01*
X-92456Y230364D01*
X-92412Y230307D01*
X-92372Y230248D01*
X-92334Y230187D01*
X-92300Y230123D01*
X-92269Y230058D01*
X-92241Y229992D01*
X-92217Y229924D01*
X-92197Y229855D01*
X-92180Y229785D01*
X-92167Y229715D01*
X-92158Y229644D01*
X-92152Y229572D01*
X-92150Y229500D01*
X-92150Y226754D01*
X-92152Y226682D01*
X-92158Y226610D01*
X-92167Y226539D01*
X-92180Y226469D01*
X-92197Y226399D01*
X-92217Y226330D01*
X-92241Y226262D01*
X-92269Y226196D01*
X-92300Y226131D01*
X-92334Y226068D01*
X-92372Y226006D01*
X-92412Y225947D01*
X-92456Y225890D01*
X-92503Y225835D01*
X-92552Y225783D01*
X-92604Y225734D01*
X-92659Y225687D01*
X-92716Y225643D01*
X-92775Y225603D01*
X-92837Y225565D01*
X-92900Y225531D01*
X-92965Y225500D01*
X-93031Y225472D01*
X-93099Y225448D01*
X-93168Y225428D01*
X-93238Y225411D01*
X-93308Y225398D01*
X-93379Y225389D01*
X-93451Y225383D01*
X-93523Y225381D01*
X-95811Y225381D01*
D10*
X-170250Y3500D02*
X-194800Y3500D01*
X-220200Y3500D01*
X-244750Y3500D01*
X-244750Y64800D01*
X-170250Y64800D01*
X-170250Y3500D01*
X-194800Y3500D02*
X-194800Y26700D01*
X-220200Y26700D01*
X-220200Y3500D01*
D11*
X-244067Y72881D02*
X-238575Y81119D01*
X-244067Y81119D02*
X-238575Y72881D01*
X-233679Y76542D02*
X-230933Y76542D01*
X-233679Y76542D02*
X-233764Y76544D01*
X-233848Y76550D01*
X-233932Y76560D01*
X-234015Y76573D01*
X-234098Y76591D01*
X-234180Y76612D01*
X-234261Y76637D01*
X-234340Y76666D01*
X-234419Y76698D01*
X-234495Y76734D01*
X-234570Y76773D01*
X-234643Y76816D01*
X-234714Y76862D01*
X-234782Y76912D01*
X-234849Y76964D01*
X-234913Y77020D01*
X-234974Y77078D01*
X-235032Y77139D01*
X-235088Y77203D01*
X-235140Y77270D01*
X-235190Y77338D01*
X-235236Y77409D01*
X-235279Y77482D01*
X-235318Y77557D01*
X-235354Y77633D01*
X-235386Y77712D01*
X-235415Y77791D01*
X-235440Y77872D01*
X-235461Y77954D01*
X-235479Y78037D01*
X-235492Y78120D01*
X-235502Y78204D01*
X-235508Y78288D01*
X-235510Y78373D01*
X-235510Y78831D01*
X-235509Y78831D02*
X-235507Y78926D01*
X-235501Y79020D01*
X-235491Y79114D01*
X-235478Y79208D01*
X-235460Y79301D01*
X-235439Y79393D01*
X-235414Y79484D01*
X-235385Y79574D01*
X-235352Y79663D01*
X-235316Y79750D01*
X-235277Y79836D01*
X-235233Y79920D01*
X-235187Y80002D01*
X-235136Y80082D01*
X-235083Y80161D01*
X-235027Y80236D01*
X-234967Y80310D01*
X-234904Y80381D01*
X-234839Y80449D01*
X-234771Y80514D01*
X-234700Y80577D01*
X-234626Y80637D01*
X-234551Y80693D01*
X-234472Y80746D01*
X-234392Y80797D01*
X-234310Y80843D01*
X-234226Y80887D01*
X-234140Y80926D01*
X-234053Y80962D01*
X-233964Y80995D01*
X-233874Y81024D01*
X-233783Y81049D01*
X-233691Y81070D01*
X-233598Y81088D01*
X-233504Y81101D01*
X-233410Y81111D01*
X-233316Y81117D01*
X-233221Y81119D01*
X-233126Y81117D01*
X-233032Y81111D01*
X-232938Y81101D01*
X-232844Y81088D01*
X-232751Y81070D01*
X-232659Y81049D01*
X-232568Y81024D01*
X-232478Y80995D01*
X-232389Y80962D01*
X-232302Y80926D01*
X-232216Y80887D01*
X-232132Y80843D01*
X-232050Y80797D01*
X-231970Y80746D01*
X-231891Y80693D01*
X-231816Y80637D01*
X-231742Y80577D01*
X-231671Y80514D01*
X-231603Y80449D01*
X-231538Y80381D01*
X-231475Y80310D01*
X-231415Y80236D01*
X-231359Y80161D01*
X-231306Y80082D01*
X-231255Y80002D01*
X-231209Y79920D01*
X-231165Y79836D01*
X-231126Y79750D01*
X-231090Y79663D01*
X-231057Y79574D01*
X-231028Y79484D01*
X-231003Y79393D01*
X-230982Y79301D01*
X-230964Y79208D01*
X-230951Y79114D01*
X-230941Y79020D01*
X-230935Y78926D01*
X-230933Y78831D01*
X-230933Y76542D01*
X-230935Y76422D01*
X-230941Y76303D01*
X-230951Y76183D01*
X-230964Y76064D01*
X-230982Y75946D01*
X-231003Y75828D01*
X-231029Y75711D01*
X-231058Y75594D01*
X-231091Y75479D01*
X-231127Y75365D01*
X-231168Y75252D01*
X-231212Y75141D01*
X-231259Y75031D01*
X-231311Y74923D01*
X-231365Y74816D01*
X-231423Y74711D01*
X-231485Y74609D01*
X-231550Y74508D01*
X-231618Y74410D01*
X-231690Y74313D01*
X-231764Y74219D01*
X-231842Y74128D01*
X-231922Y74039D01*
X-232005Y73953D01*
X-232091Y73870D01*
X-232180Y73790D01*
X-232271Y73712D01*
X-232365Y73638D01*
X-232462Y73566D01*
X-232560Y73498D01*
X-232661Y73433D01*
X-232764Y73371D01*
X-232868Y73313D01*
X-232975Y73259D01*
X-233083Y73207D01*
X-233193Y73160D01*
X-233304Y73116D01*
X-233417Y73075D01*
X-233531Y73039D01*
X-233646Y73006D01*
X-233763Y72977D01*
X-233880Y72951D01*
X-233998Y72930D01*
X-234116Y72912D01*
X-234235Y72899D01*
X-234355Y72889D01*
X-234474Y72883D01*
X-234594Y72881D01*
X-234739Y94729D02*
X-237485Y98619D01*
X-234739Y94729D02*
X-231993Y98619D01*
X-234739Y94729D02*
X-234739Y90381D01*
X-229279Y89466D02*
X-225618Y89466D01*
X-222161Y90381D02*
X-218499Y90381D01*
X-222161Y90381D02*
X-222161Y98619D01*
X-218499Y98619D01*
X-219415Y94958D02*
X-222161Y94958D01*
X-215239Y95873D02*
X-215239Y90381D01*
X-215239Y95873D02*
X-212951Y95873D01*
X-212879Y95871D01*
X-212807Y95865D01*
X-212736Y95856D01*
X-212666Y95843D01*
X-212596Y95826D01*
X-212527Y95806D01*
X-212459Y95782D01*
X-212393Y95754D01*
X-212328Y95723D01*
X-212265Y95689D01*
X-212203Y95651D01*
X-212144Y95611D01*
X-212087Y95567D01*
X-212032Y95520D01*
X-211980Y95471D01*
X-211931Y95419D01*
X-211884Y95364D01*
X-211840Y95307D01*
X-211800Y95248D01*
X-211762Y95187D01*
X-211728Y95123D01*
X-211697Y95058D01*
X-211669Y94992D01*
X-211645Y94924D01*
X-211625Y94855D01*
X-211608Y94785D01*
X-211595Y94715D01*
X-211586Y94644D01*
X-211580Y94572D01*
X-211578Y94500D01*
X-211578Y90381D01*
X-204331Y90381D02*
X-204331Y98619D01*
X-204331Y90381D02*
X-206619Y90381D01*
X-206691Y90383D01*
X-206763Y90389D01*
X-206834Y90398D01*
X-206904Y90411D01*
X-206974Y90428D01*
X-207043Y90448D01*
X-207111Y90472D01*
X-207177Y90500D01*
X-207242Y90531D01*
X-207306Y90565D01*
X-207367Y90603D01*
X-207426Y90643D01*
X-207483Y90687D01*
X-207538Y90734D01*
X-207590Y90783D01*
X-207639Y90835D01*
X-207686Y90890D01*
X-207730Y90947D01*
X-207770Y91006D01*
X-207808Y91068D01*
X-207842Y91131D01*
X-207873Y91196D01*
X-207901Y91262D01*
X-207925Y91330D01*
X-207945Y91399D01*
X-207962Y91469D01*
X-207975Y91539D01*
X-207984Y91610D01*
X-207990Y91682D01*
X-207992Y91754D01*
X-207992Y94500D01*
X-207990Y94572D01*
X-207984Y94644D01*
X-207975Y94715D01*
X-207962Y94785D01*
X-207945Y94855D01*
X-207925Y94924D01*
X-207901Y94992D01*
X-207873Y95058D01*
X-207842Y95123D01*
X-207808Y95187D01*
X-207770Y95248D01*
X-207730Y95307D01*
X-207686Y95364D01*
X-207639Y95419D01*
X-207590Y95471D01*
X-207538Y95520D01*
X-207483Y95567D01*
X-207426Y95611D01*
X-207367Y95651D01*
X-207306Y95689D01*
X-207242Y95723D01*
X-207177Y95754D01*
X-207111Y95782D01*
X-207043Y95806D01*
X-206974Y95826D01*
X-206904Y95843D01*
X-206834Y95856D01*
X-206763Y95865D01*
X-206691Y95871D01*
X-206619Y95873D01*
X-204331Y95873D01*
X-199973Y93585D02*
X-197685Y92669D01*
X-199973Y93584D02*
X-200035Y93611D01*
X-200095Y93641D01*
X-200153Y93674D01*
X-200209Y93711D01*
X-200263Y93751D01*
X-200315Y93794D01*
X-200364Y93840D01*
X-200411Y93888D01*
X-200455Y93939D01*
X-200495Y93993D01*
X-200533Y94048D01*
X-200568Y94106D01*
X-200599Y94165D01*
X-200627Y94227D01*
X-200651Y94289D01*
X-200671Y94353D01*
X-200688Y94418D01*
X-200702Y94484D01*
X-200711Y94551D01*
X-200717Y94618D01*
X-200719Y94685D01*
X-200717Y94752D01*
X-200712Y94819D01*
X-200702Y94886D01*
X-200689Y94952D01*
X-200672Y95017D01*
X-200651Y95081D01*
X-200627Y95143D01*
X-200600Y95205D01*
X-200569Y95264D01*
X-200534Y95322D01*
X-200497Y95378D01*
X-200456Y95431D01*
X-200412Y95482D01*
X-200366Y95531D01*
X-200316Y95577D01*
X-200265Y95620D01*
X-200211Y95660D01*
X-200155Y95697D01*
X-200096Y95730D01*
X-200036Y95761D01*
X-199975Y95787D01*
X-199912Y95811D01*
X-199847Y95830D01*
X-199782Y95846D01*
X-199716Y95859D01*
X-199649Y95867D01*
X-199582Y95872D01*
X-199515Y95873D01*
X-199516Y95872D02*
X-199374Y95869D01*
X-199233Y95861D01*
X-199092Y95849D01*
X-198951Y95834D01*
X-198811Y95814D01*
X-198671Y95791D01*
X-198532Y95764D01*
X-198394Y95733D01*
X-198256Y95699D01*
X-198120Y95661D01*
X-197985Y95619D01*
X-197850Y95573D01*
X-197718Y95524D01*
X-197586Y95471D01*
X-197456Y95415D01*
X-197684Y92670D02*
X-197622Y92643D01*
X-197562Y92613D01*
X-197504Y92580D01*
X-197448Y92543D01*
X-197394Y92503D01*
X-197342Y92460D01*
X-197293Y92414D01*
X-197246Y92366D01*
X-197202Y92315D01*
X-197162Y92261D01*
X-197124Y92206D01*
X-197089Y92148D01*
X-197058Y92089D01*
X-197030Y92027D01*
X-197006Y91965D01*
X-196986Y91901D01*
X-196969Y91836D01*
X-196955Y91770D01*
X-196946Y91703D01*
X-196940Y91636D01*
X-196938Y91569D01*
X-196940Y91502D01*
X-196945Y91435D01*
X-196955Y91368D01*
X-196968Y91302D01*
X-196985Y91237D01*
X-197006Y91173D01*
X-197030Y91111D01*
X-197057Y91049D01*
X-197088Y90990D01*
X-197123Y90932D01*
X-197160Y90876D01*
X-197201Y90823D01*
X-197245Y90772D01*
X-197291Y90723D01*
X-197340Y90677D01*
X-197392Y90634D01*
X-197446Y90594D01*
X-197502Y90557D01*
X-197561Y90524D01*
X-197621Y90493D01*
X-197682Y90467D01*
X-197745Y90443D01*
X-197810Y90424D01*
X-197875Y90408D01*
X-197941Y90395D01*
X-198008Y90387D01*
X-198075Y90382D01*
X-198142Y90381D01*
X-198143Y90382D02*
X-198326Y90387D01*
X-198510Y90396D01*
X-198693Y90409D01*
X-198875Y90427D01*
X-199058Y90449D01*
X-199239Y90475D01*
X-199420Y90506D01*
X-199601Y90541D01*
X-199780Y90580D01*
X-199958Y90624D01*
X-200135Y90671D01*
X-200312Y90723D01*
X-200486Y90779D01*
X-200660Y90839D01*
X-194329Y95873D02*
X-191583Y95873D01*
X-193414Y98619D02*
X-193414Y91754D01*
X-193412Y91682D01*
X-193406Y91610D01*
X-193397Y91539D01*
X-193384Y91469D01*
X-193367Y91399D01*
X-193347Y91330D01*
X-193323Y91262D01*
X-193295Y91196D01*
X-193264Y91131D01*
X-193230Y91068D01*
X-193192Y91006D01*
X-193152Y90947D01*
X-193108Y90890D01*
X-193061Y90835D01*
X-193012Y90783D01*
X-192960Y90734D01*
X-192905Y90687D01*
X-192848Y90643D01*
X-192789Y90603D01*
X-192728Y90565D01*
X-192664Y90531D01*
X-192599Y90500D01*
X-192533Y90472D01*
X-192465Y90448D01*
X-192396Y90428D01*
X-192326Y90411D01*
X-192256Y90398D01*
X-192185Y90389D01*
X-192113Y90383D01*
X-192041Y90381D01*
X-191583Y90381D01*
X-188510Y92212D02*
X-188510Y94042D01*
X-188508Y94127D01*
X-188502Y94211D01*
X-188492Y94295D01*
X-188479Y94378D01*
X-188461Y94461D01*
X-188440Y94543D01*
X-188415Y94624D01*
X-188386Y94703D01*
X-188354Y94782D01*
X-188318Y94858D01*
X-188279Y94933D01*
X-188236Y95006D01*
X-188190Y95077D01*
X-188140Y95145D01*
X-188088Y95212D01*
X-188032Y95276D01*
X-187974Y95337D01*
X-187913Y95395D01*
X-187849Y95451D01*
X-187782Y95503D01*
X-187714Y95553D01*
X-187643Y95599D01*
X-187570Y95642D01*
X-187495Y95681D01*
X-187419Y95717D01*
X-187340Y95749D01*
X-187261Y95778D01*
X-187180Y95803D01*
X-187098Y95824D01*
X-187015Y95842D01*
X-186932Y95855D01*
X-186848Y95865D01*
X-186764Y95871D01*
X-186679Y95873D01*
X-186594Y95871D01*
X-186510Y95865D01*
X-186426Y95855D01*
X-186343Y95842D01*
X-186260Y95824D01*
X-186178Y95803D01*
X-186097Y95778D01*
X-186018Y95749D01*
X-185939Y95717D01*
X-185863Y95681D01*
X-185788Y95642D01*
X-185715Y95599D01*
X-185644Y95553D01*
X-185576Y95503D01*
X-185509Y95451D01*
X-185445Y95395D01*
X-185384Y95337D01*
X-185326Y95276D01*
X-185270Y95212D01*
X-185218Y95145D01*
X-185168Y95077D01*
X-185122Y95006D01*
X-185079Y94933D01*
X-185040Y94858D01*
X-185004Y94782D01*
X-184972Y94703D01*
X-184943Y94624D01*
X-184918Y94543D01*
X-184897Y94461D01*
X-184879Y94378D01*
X-184866Y94295D01*
X-184856Y94211D01*
X-184850Y94127D01*
X-184848Y94042D01*
X-184848Y92212D01*
X-184850Y92127D01*
X-184856Y92043D01*
X-184866Y91959D01*
X-184879Y91876D01*
X-184897Y91793D01*
X-184918Y91711D01*
X-184943Y91630D01*
X-184972Y91551D01*
X-185004Y91472D01*
X-185040Y91396D01*
X-185079Y91321D01*
X-185122Y91248D01*
X-185168Y91177D01*
X-185218Y91109D01*
X-185270Y91042D01*
X-185326Y90978D01*
X-185384Y90917D01*
X-185445Y90859D01*
X-185509Y90803D01*
X-185576Y90751D01*
X-185644Y90701D01*
X-185715Y90655D01*
X-185788Y90612D01*
X-185863Y90573D01*
X-185939Y90537D01*
X-186018Y90505D01*
X-186097Y90476D01*
X-186178Y90451D01*
X-186260Y90430D01*
X-186343Y90412D01*
X-186426Y90399D01*
X-186510Y90389D01*
X-186594Y90383D01*
X-186679Y90381D01*
X-186764Y90383D01*
X-186848Y90389D01*
X-186932Y90399D01*
X-187015Y90412D01*
X-187098Y90430D01*
X-187180Y90451D01*
X-187261Y90476D01*
X-187340Y90505D01*
X-187419Y90537D01*
X-187495Y90573D01*
X-187570Y90612D01*
X-187643Y90655D01*
X-187714Y90701D01*
X-187782Y90751D01*
X-187849Y90803D01*
X-187913Y90859D01*
X-187974Y90917D01*
X-188032Y90978D01*
X-188088Y91042D01*
X-188140Y91109D01*
X-188190Y91177D01*
X-188236Y91248D01*
X-188279Y91321D01*
X-188318Y91396D01*
X-188354Y91472D01*
X-188386Y91551D01*
X-188415Y91630D01*
X-188440Y91711D01*
X-188461Y91793D01*
X-188479Y91876D01*
X-188492Y91959D01*
X-188502Y92043D01*
X-188508Y92127D01*
X-188510Y92212D01*
X-181177Y95873D02*
X-181177Y87635D01*
X-181177Y95873D02*
X-178888Y95873D01*
X-178816Y95871D01*
X-178744Y95865D01*
X-178673Y95856D01*
X-178603Y95843D01*
X-178533Y95826D01*
X-178464Y95806D01*
X-178396Y95782D01*
X-178330Y95754D01*
X-178265Y95723D01*
X-178202Y95689D01*
X-178140Y95651D01*
X-178081Y95611D01*
X-178024Y95567D01*
X-177969Y95520D01*
X-177917Y95471D01*
X-177868Y95419D01*
X-177821Y95364D01*
X-177777Y95307D01*
X-177737Y95248D01*
X-177699Y95187D01*
X-177665Y95123D01*
X-177634Y95058D01*
X-177606Y94992D01*
X-177582Y94924D01*
X-177562Y94855D01*
X-177545Y94785D01*
X-177532Y94715D01*
X-177523Y94644D01*
X-177517Y94572D01*
X-177515Y94500D01*
X-177515Y91754D01*
X-177517Y91682D01*
X-177523Y91610D01*
X-177532Y91539D01*
X-177545Y91469D01*
X-177562Y91399D01*
X-177582Y91330D01*
X-177606Y91262D01*
X-177634Y91196D01*
X-177665Y91131D01*
X-177699Y91068D01*
X-177737Y91006D01*
X-177777Y90947D01*
X-177821Y90890D01*
X-177868Y90835D01*
X-177917Y90783D01*
X-177969Y90734D01*
X-178024Y90687D01*
X-178081Y90643D01*
X-178140Y90603D01*
X-178202Y90565D01*
X-178265Y90531D01*
X-178330Y90500D01*
X-178396Y90472D01*
X-178464Y90448D01*
X-178533Y90428D01*
X-178603Y90411D01*
X-178673Y90398D01*
X-178744Y90389D01*
X-178816Y90383D01*
X-178888Y90381D01*
X-181177Y90381D01*
D10*
X-162500Y2500D02*
X-62500Y2500D01*
X-56500Y73500D02*
X-56500Y85500D01*
X-62500Y92500D02*
X-162500Y92500D01*
X-162500Y31000D01*
X-162500Y24500D02*
X-162500Y2500D01*
X-62500Y83000D02*
X-62500Y92500D01*
X-62500Y76000D02*
X-62500Y2500D01*
X-62500Y83000D02*
X-56500Y85500D01*
X-62500Y76000D02*
X-56500Y73500D01*
X-168500Y33500D02*
X-168500Y21500D01*
X-162500Y31000D02*
X-168500Y33500D01*
X-162500Y24500D02*
X-168500Y21500D01*
D11*
X-154998Y96989D02*
X-154998Y102619D01*
X-154998Y96989D02*
X-155000Y96910D01*
X-155006Y96831D01*
X-155015Y96753D01*
X-155029Y96675D01*
X-155046Y96598D01*
X-155067Y96522D01*
X-155092Y96447D01*
X-155120Y96374D01*
X-155152Y96301D01*
X-155188Y96231D01*
X-155227Y96162D01*
X-155269Y96096D01*
X-155314Y96031D01*
X-155363Y95969D01*
X-155415Y95909D01*
X-155469Y95852D01*
X-155526Y95798D01*
X-155586Y95746D01*
X-155648Y95697D01*
X-155713Y95652D01*
X-155779Y95610D01*
X-155848Y95571D01*
X-155918Y95535D01*
X-155991Y95503D01*
X-156064Y95475D01*
X-156139Y95450D01*
X-156215Y95429D01*
X-156292Y95412D01*
X-156370Y95398D01*
X-156448Y95389D01*
X-156527Y95383D01*
X-156606Y95381D01*
X-157410Y95381D01*
X-151611Y101011D02*
X-149600Y102619D01*
X-149600Y95381D01*
X-147590Y95381D02*
X-151611Y95381D01*
M02*
