G04 EAGLE Gerber RS-274X export*
G75*
%MOMM*%
%FSLAX34Y34*%
%LPD*%
%INSolderpaste Top*%
%IPPOS*%
%AMOC8*
5,1,8,0,0,1.08239X$1,22.5*%
G01*
%ADD10C,0.484500*%
%ADD11C,0.645000*%
%ADD12R,1.800000X1.600000*%


D10*
X-165328Y107672D02*
X-165328Y124328D01*
X-160672Y124328D01*
X-160672Y107672D01*
X-165328Y107672D01*
X-165328Y112275D02*
X-160672Y112275D01*
X-160672Y116878D02*
X-165328Y116878D01*
X-165328Y121481D02*
X-160672Y121481D01*
X-142328Y124328D02*
X-142328Y107672D01*
X-142328Y124328D02*
X-137672Y124328D01*
X-137672Y107672D01*
X-142328Y107672D01*
X-142328Y112275D02*
X-137672Y112275D01*
X-137672Y116878D02*
X-142328Y116878D01*
X-142328Y121481D02*
X-137672Y121481D01*
X-119328Y124328D02*
X-119328Y107672D01*
X-119328Y124328D02*
X-114672Y124328D01*
X-114672Y107672D01*
X-119328Y107672D01*
X-119328Y112275D02*
X-114672Y112275D01*
X-114672Y116878D02*
X-119328Y116878D01*
X-119328Y121481D02*
X-114672Y121481D01*
D11*
X-126975Y166475D02*
X-126975Y181525D01*
X-126975Y166475D02*
X-153025Y166475D01*
X-153025Y181525D01*
X-126975Y181525D01*
X-126975Y172602D02*
X-153025Y172602D01*
X-153025Y178729D02*
X-126975Y178729D01*
D10*
X32172Y124328D02*
X32172Y107672D01*
X32172Y124328D02*
X36828Y124328D01*
X36828Y107672D01*
X32172Y107672D01*
X32172Y112275D02*
X36828Y112275D01*
X36828Y116878D02*
X32172Y116878D01*
X32172Y121481D02*
X36828Y121481D01*
X55172Y124328D02*
X55172Y107672D01*
X55172Y124328D02*
X59828Y124328D01*
X59828Y107672D01*
X55172Y107672D01*
X55172Y112275D02*
X59828Y112275D01*
X59828Y116878D02*
X55172Y116878D01*
X55172Y121481D02*
X59828Y121481D01*
X78172Y124328D02*
X78172Y107672D01*
X78172Y124328D02*
X82828Y124328D01*
X82828Y107672D01*
X78172Y107672D01*
X78172Y112275D02*
X82828Y112275D01*
X82828Y116878D02*
X78172Y116878D01*
X78172Y121481D02*
X82828Y121481D01*
D11*
X70525Y166475D02*
X70525Y181525D01*
X70525Y166475D02*
X44475Y166475D01*
X44475Y181525D01*
X70525Y181525D01*
X70525Y172602D02*
X44475Y172602D01*
X44475Y178729D02*
X70525Y178729D01*
D12*
X-95000Y131000D03*
X-95000Y159000D03*
X102500Y131000D03*
X102500Y159000D03*
X-185000Y131000D03*
X-185000Y159000D03*
X12500Y131000D03*
X12500Y159000D03*
M02*
