G04 EAGLE Gerber RS-274X export*
G75*
%MOMM*%
%FSLAX34Y34*%
%LPD*%
%INSoldermask Bottom*%
%IPPOS*%
%AMOC8*
5,1,8,0,0,1.08239X$1,22.5*%
G01*
%ADD10C,3.403200*%
%ADD11R,1.711200X1.711200*%
%ADD12C,1.711200*%
%ADD13C,1.803200*%
%ADD14P,1.869504X8X292.500000*%
%ADD15C,2.003200*%
%ADD16C,1.109600*%


D10*
X230000Y145000D03*
X-230000Y145000D03*
D11*
X50000Y205000D03*
D12*
X25000Y205000D03*
X0Y205000D03*
X-25000Y205000D03*
X-50000Y205000D03*
X50000Y230000D03*
X25000Y230000D03*
X0Y230000D03*
X-25000Y230000D03*
X-50000Y230000D03*
D13*
X-50000Y301800D03*
X50000Y301800D03*
D11*
X-35000Y77500D03*
D12*
X-10000Y77500D03*
D11*
X120000Y77500D03*
D12*
X145000Y77500D03*
D11*
X42500Y77500D03*
D12*
X67500Y77500D03*
D11*
X197500Y77500D03*
D12*
X222500Y77500D03*
D14*
X-67700Y167900D03*
X-42300Y167900D03*
X-67700Y142500D03*
X-42300Y142500D03*
X-67700Y117100D03*
X-42300Y117100D03*
X129800Y167900D03*
X155200Y167900D03*
X129800Y142500D03*
X155200Y142500D03*
X129800Y117100D03*
X155200Y117100D03*
D11*
X245000Y207500D03*
D12*
X220000Y207500D03*
X195000Y207500D03*
X170000Y207500D03*
D11*
X132500Y205000D03*
D12*
X107500Y205000D03*
X132500Y230000D03*
X107500Y230000D03*
D13*
X107500Y301800D03*
X132500Y301800D03*
D11*
X-132500Y260000D03*
D12*
X-107500Y260000D03*
D11*
X-220000Y77500D03*
D12*
X-195000Y77500D03*
D15*
X-87500Y42500D03*
X-137500Y42500D03*
D16*
X-95000Y115000D03*
X12500Y115000D03*
X-185000Y115000D03*
M02*
