G04 EAGLE Gerber RS-274X export*
G75*
%MOMM*%
%FSLAX34Y34*%
%LPD*%
%INSoldermask Top*%
%IPPOS*%
%AMOC8*
5,1,8,0,0,1.08239X$1,22.5*%
G01*
%ADD10C,3.403200*%
%ADD11R,1.711200X1.711200*%
%ADD12C,1.711200*%
%ADD13C,1.803200*%
%ADD14C,0.691919*%
%ADD15C,0.847150*%
%ADD16R,2.003200X1.803200*%
%ADD17P,1.869504X8X292.500000*%
%ADD18C,2.003200*%
%ADD19C,1.109600*%


D10*
X230000Y145000D03*
X-230000Y145000D03*
D11*
X50000Y205000D03*
D12*
X25000Y205000D03*
X0Y205000D03*
X-25000Y205000D03*
X-50000Y205000D03*
X50000Y230000D03*
X25000Y230000D03*
X0Y230000D03*
X-25000Y230000D03*
X-50000Y230000D03*
D13*
X-50000Y301800D03*
X50000Y301800D03*
D11*
X-35000Y77500D03*
D12*
X-10000Y77500D03*
D11*
X120000Y77500D03*
D12*
X145000Y77500D03*
D11*
X42500Y77500D03*
D12*
X67500Y77500D03*
D11*
X197500Y77500D03*
D12*
X222500Y77500D03*
D14*
X-165307Y107693D02*
X-165307Y124307D01*
X-160693Y124307D01*
X-160693Y107693D01*
X-165307Y107693D01*
X-165307Y114266D02*
X-160693Y114266D01*
X-160693Y120839D02*
X-165307Y120839D01*
X-142307Y124307D02*
X-142307Y107693D01*
X-142307Y124307D02*
X-137693Y124307D01*
X-137693Y107693D01*
X-142307Y107693D01*
X-142307Y114266D02*
X-137693Y114266D01*
X-137693Y120839D02*
X-142307Y120839D01*
X-119307Y124307D02*
X-119307Y107693D01*
X-119307Y124307D02*
X-114693Y124307D01*
X-114693Y107693D01*
X-119307Y107693D01*
X-119307Y114266D02*
X-114693Y114266D01*
X-114693Y120839D02*
X-119307Y120839D01*
D15*
X-126970Y166470D02*
X-126970Y181530D01*
X-126970Y166470D02*
X-153030Y166470D01*
X-153030Y181530D01*
X-126970Y181530D01*
X-126970Y174518D02*
X-153030Y174518D01*
D14*
X32193Y124307D02*
X32193Y107693D01*
X32193Y124307D02*
X36807Y124307D01*
X36807Y107693D01*
X32193Y107693D01*
X32193Y114266D02*
X36807Y114266D01*
X36807Y120839D02*
X32193Y120839D01*
X55193Y124307D02*
X55193Y107693D01*
X55193Y124307D02*
X59807Y124307D01*
X59807Y107693D01*
X55193Y107693D01*
X55193Y114266D02*
X59807Y114266D01*
X59807Y120839D02*
X55193Y120839D01*
X78193Y124307D02*
X78193Y107693D01*
X78193Y124307D02*
X82807Y124307D01*
X82807Y107693D01*
X78193Y107693D01*
X78193Y114266D02*
X82807Y114266D01*
X82807Y120839D02*
X78193Y120839D01*
D15*
X70530Y166470D02*
X70530Y181530D01*
X70530Y166470D02*
X44470Y166470D01*
X44470Y181530D01*
X70530Y181530D01*
X70530Y174518D02*
X44470Y174518D01*
D16*
X-95000Y131000D03*
X-95000Y159000D03*
X102500Y131000D03*
X102500Y159000D03*
X-185000Y131000D03*
X-185000Y159000D03*
X12500Y131000D03*
X12500Y159000D03*
D17*
X-67700Y167900D03*
X-42300Y167900D03*
X-67700Y142500D03*
X-42300Y142500D03*
X-67700Y117100D03*
X-42300Y117100D03*
X129800Y167900D03*
X155200Y167900D03*
X129800Y142500D03*
X155200Y142500D03*
X129800Y117100D03*
X155200Y117100D03*
D11*
X245000Y207500D03*
D12*
X220000Y207500D03*
X195000Y207500D03*
X170000Y207500D03*
D11*
X132500Y205000D03*
D12*
X107500Y205000D03*
X132500Y230000D03*
X107500Y230000D03*
D13*
X107500Y301800D03*
X132500Y301800D03*
D11*
X-132500Y260000D03*
D12*
X-107500Y260000D03*
D11*
X-220000Y77500D03*
D12*
X-195000Y77500D03*
D18*
X-87500Y42500D03*
X-137500Y42500D03*
D19*
X-95000Y115000D03*
X12500Y115000D03*
X-185000Y115000D03*
M02*
