0
SECTION
2
HEADER
9
$INSUNITS
70
4
9
$ACADVER
1
AC1014
9
$HANDSEED
5
FFFF
0
ENDSEC
0
SECTION
2
TABLES
0
TABLE
2
VPORT
5
8
100
AcDbSymbolTable
0
ENDTAB
0
TABLE
2
LTYPE
5
5
100
AcDbSymbolTable
0
LTYPE
5
14
100
AcDbSymbolTableRecord
100
AcDbLinetypeTableRecord
2
BYBLOCK
70
0
0
LTYPE
5
15
100
AcDbSymbolTableRecord
100
AcDbLinetypeTableRecord
2
BYLAYER
70
0
0
ENDTAB
0
TABLE
2
LAYER
5
2
100
AcDbSymbolTable
70
2
0
LAYER
5
50
100
AcDbSymbolTableRecord
100
AcDbLayerTableRecord
2
0
70
0
6
CONTINUOUS
0
ENDTAB
0
TABLE
2
STYLE
5
3
100
AcDbSymbolTable
70
1
0
STYLE
5
11
100
AcDbSymbolTableRecord
100
AcDbTextStyleTableRecord
2
STANDARD
70
0
0
ENDTAB
0
TABLE
2
VIEW
5
6
100
AcDbSymbolTable
70
0
0
ENDTAB
0
TABLE
2
UCS
5
7
100
AcDbSymbolTable
70
0
0
ENDTAB
0
TABLE
2
APPID
5
9
100
AcDbSymbolTable
70
2
0
APPID
5
12
100
AcDbSymbolTableRecord
100
AcDbRegAppTableRecord
2
ACAD
70
0
0
ENDTAB
0
TABLE
2
DIMSTYLE
5
A
100
AcDbSymbolTable
70
1
0
ENDTAB
0
TABLE
2
BLOCK_RECORD
5
1
100
AcDbSymbolTable
70
1
0
BLOCK_RECORD
5
1F
100
AcDbSymbolTableRecord
100
AcDbBlockTableRecord
2
*MODEL_SPACE
0
BLOCK_RECORD
5
1B
100
AcDbSymbolTableRecord
100
AcDbBlockTableRecord
2
*PAPER_SPACE
0
ENDTAB
0
ENDSEC
0
SECTION
2
BLOCKS
0
BLOCK
5
20
100
AcDbEntity
100
AcDbBlockBegin
2
*MODEL_SPACE
0
ENDBLK
5
21
100
AcDbEntity
100
AcDbBlockEnd
0
BLOCK
5
1C
100
AcDbEntity
100
AcDbBlockBegin
2
*PAPER_SPACE
0
ENDBLK
5
1D
100
AcDbEntity
100
AcDbBlockEnd
0
ENDSEC
0
SECTION
2
ENTITIES
0
LWPOLYLINE
5
100
100
AcDbEntity
8
0
100
AcDbPolyline
90
36
70
1
43
0.0
10
-39.599999999999682
20
-205.84999999999849
10
-39.599999999999554
20
-187.41428599999853
42
0.41421356237309243
10
-41.59999999999954
20
-185.41428599999853
10
-49.599999999999376
20
-185.41428599999847
42
-0.41421356237309892
10
-51.599999999999362
20
-183.41428599999853
10
-51.599999999999362
20
-2.2857139999984182
42
-0.41421356237309431
10
-49.599999999999355
20
-0.28571399999840952
10
-41.599999999998076
20
-0.28571399999847952
42
0.4142135623730942
10
-39.599999999998047
20
1.714286000001497
10
-39.599999999998033
20
4.1201734503060994
42
-0.1989123673796557
10
-39.014213562371118
20
5.5343870126791916
10
-38.384387012675738
20
6.1642135623745498
42
-0.19891236737965859
10
-36.970173450302639
20
6.7500000000014477
10
-34.564285999998027
20
6.7500000000014238
42
0.4142135623730947
10
-32.564285999998013
20
8.7500000000014069
10
-32.564285999997956
20
16.750000000001585
42
-0.4142135623730937
10
-30.564285999997942
20
18.750000000001563
10
150.56428600000214
20
18.750000000001595
42
-0.41421356237309959
10
152.56428600000214
20
16.750000000001553
10
152.56428600000206
20
8.75
42
0.41421356237309509
10
154.56428600000203
20
6.7499999999999885
10
156.97017345030665
20
6.7499999999999716
42
-0.19891236737965318
10
158.38438701267975
20
6.1642135623730621
10
159.01421356237512
20
5.5343870126776071
42
-0.1989123673796587
10
159.60000000000204
20
4.1201734503045362
10
159.60000000000201
20
1.7142859999999875
42
0.41421356237309759
10
161.60000000000198
20
-0.28571400000002445
10
169.60000000000224
20
-0.28571400000010239
42
-0.41421356237309126
10
171.60000000000224
20
-2.2857140000000697
10
171.60000000000221
20
-183.41428600000017
42
-0.41421356237309509
10
169.60000000000224
20
-185.41428600000015
10
161.60000000000053
20
-185.41428600000012
42
0.41421356237309509
10
159.60000000000059
20
-187.41428600000009
10
159.60000000000045
20
-205.84999999999852
42
-0.4142135623730977
10
157.60000000000045
20
-207.84999999999852
10
-37.599999999999667
20
-207.84999999999852
42
-0.41421356237310414
0
CIRCLE
5
101
100
AcDbEntity
8
0
100
AcDbCircle
10
60.000000000000455
20
-202.24999999999994
30
0
40
2.0000000000000018
210
3.944304526105059e-31
220
1.1594907205329662e-61
230
1
0
CIRCLE
5
102
100
AcDbEntity
8
0
100
AcDbCircle
10
-45.999999999999076
20
-92.84999999999846
30
0
40
2.0000000000000018
210
3.944304526105059e-31
220
1.1594907205329662e-61
230
1
0
CIRCLE
5
103
100
AcDbEntity
8
0
100
AcDbCircle
10
60.000000000001954
20
13.150000000001011
30
0
40
2.0000000000000018
210
3.944304526105059e-31
220
1.7459465425811828e-62
230
1
0
CIRCLE
5
104
100
AcDbEntity
8
0
100
AcDbCircle
10
166.00000000000151
20
-92.850000000000165
30
0
40
1.9999999999999929
210
0
220
-0
230
1
0
ENDSEC
0
SECTION
2
OBJECTS
0
DICTIONARY
5
C
100
AcDbDictionary
3
ACAD_GROUP
350
D
3
ACAD_MLINESTYLE
350
17
0
DICTIONARY
5
D
100
AcDbDictionary
0
DICTIONARY
5
1A
330
C
100
AcDbDictionary
0
DICTIONARY
5
17
100
AcDbDictionary
0
ENDSEC
0
EOF
