<svg xmlns="http://www.w3.org/2000/svg" viewBox="0 0 1014.68 1171.65"><defs><style>.cls-1{fill:#d61e39;}.cls-2{fill:#231f20;}.cls-3{fill:#323534;}</style></defs><g id="Layer_2" data-name="Layer 2"><g id="Layer_2-2" data-name="Layer 2"><path class="cls-1" d="M96.21,851.76l-5.66-21.13A14.27,14.27,0,0,0,83.88,822L68.8,813.24A21.17,21.17,0,0,0,39.88,821c-.17.3-.33.6-.49.91L26.32,847.34a14.65,14.65,0,0,0,6.34,19.74l.17.08,44.23,22,13.4-3.59-.13-.5-7.57-28.24,12.44-3.34A1.41,1.41,0,0,0,96,853l.15-.29.09-.3v-.32Zm-57.77-12.5a2.51,2.51,0,1,1-2.51,2.5A2.5,2.5,0,0,1,38.44,839.26Zm5.82,19.68-6.7,1.8-4.9-4.91,1.79-6.7,6.7-1.79,4.91,4.9Zm14-10.48A16.88,16.88,0,1,1,75.1,831.58,16.88,16.88,0,0,1,58.22,848.46ZM78.3,879.32a2.51,2.51,0,1,1,2.51-2.51A2.5,2.5,0,0,1,78.3,879.32Zm3.23-43.77a2.5,2.5,0,1,1,2.5-2.5A2.5,2.5,0,0,1,81.53,835.55Z"/><path class="cls-2" d="M113.69,786.9l-7.48-30.78a4.29,4.29,0,0,0-1.94-2.65l-5.82-3.54a4.29,4.29,0,0,0-5.89,1.43L67.27,792.91a4.3,4.3,0,0,0,1.43,5.9l26.88,16.36a2.88,2.88,0,0,0,3.94-1l13.33-21.9A7.13,7.13,0,0,0,113.69,786.9Zm-6.79-3.73a1.44,1.44,0,0,1-1.09-.17l-6.61-4a1.42,1.42,0,0,1-.48-2l4-6.62a1.42,1.42,0,0,1,2-.48,1.44,1.44,0,0,1,.65.88L108,781.44A1.44,1.44,0,0,1,106.9,783.17Z"/><path class="cls-2" d="M364.13,664.6l-14.62-8.44a110.28,110.28,0,0,0-25.62-10.77,56.92,56.92,0,0,1-13.25-5.57l-58.89-34A39.93,39.93,0,0,0,224,601.25l-54.75,11a14.3,14.3,0,0,0-9.58,6.88L111.76,702a14.34,14.34,0,0,0-1.17,11.74l17.88,52.9a39.87,39.87,0,0,0,17.85,21.78l58.89,34a57.36,57.36,0,0,1,11.44,8.69,111.08,111.08,0,0,0,22.14,16.81l14.62,8.44a5.73,5.73,0,0,0,7.59-1.73h0L366.44,672h0A5.7,5.7,0,0,0,364.13,664.6ZM125.19,691.66l-.09.51-.15.5-.21.47-.26.45-.31.41-.36.37-.41.33L123,695l-.24.1-.25.08-.25.06-.26,0h-.25l-.26,0a1.67,1.67,0,0,1-.77-.45l-.17-.2-.14-.22-.1-.23-.08-.25-.06-.25,0-.26v-.51l.08-.52.14-.49.2-.48.26-.45.3-.42.35-.38.4-.33.44-.27.24-.11.24-.08.25-.06.26,0h.26l.26,0,.24.08.24.11.21.14.19.18.16.21.13.22.1.24.07.25.05.25,0,.26Zm71.44-34.12.08-.51.15-.5.2-.48.26-.45.3-.41.35-.38.4-.33.44-.27.24-.11.24-.09.25-.06.26,0h.26l.25,0,.25.07.24.11.21.15.19.17.15.21.13.22.1.24.08.25.05.25,0,.26v.52l-.09.51-.15.49-.21.48-.27.44-.31.41-.35.38-.41.32-.44.26-.24.11-.25.08-.25.05-.26,0h-.26l-.25,0a1.59,1.59,0,0,1-.77-.45l-.17-.19-.14-.22-.1-.24-.09-.24-.05-.26,0-.25ZM154.5,633.21l.08-.51.15-.49.2-.48.26-.45.3-.42.35-.38.4-.33.44-.27.24-.11.24-.08.25-.06.26,0h.26l.25,0,.25.08.24.11.21.14.19.18.15.21.13.22.11.24.07.25.05.25,0,.26v.51l-.09.51-.15.5-.21.47-.27.45-.31.41-.35.37-.41.33-.44.26-.24.1-.25.08-.25.06-.26,0h-.26l-.25,0a1.67,1.67,0,0,1-.77-.45l-.17-.2-.14-.22-.1-.23-.08-.25-.06-.25,0-.26Zm-6.41,75.7-.67-.15-.66-.17-.66-.2-.66-.22-.64-.24-.6-.49-.58-.51-.56-.54-.53-.56-.51-.58-.49-.6-.46-.62-.44-.63-.42-.66-.4-.66-.38-.68-.35-.7-.33-.7-.31-.72-.55-1.45-.24-.73-.22-.75-.36-1.5-.29-1.52-.22-1.53-.18-1.55-.14-1.54-.14-1.55-.16-1.54L158,647.41l1.42-.63,1.4-.65,1.41-.65,1.43-.62,1.44-.57,1.46-.51,1.48-.44.75-.18.76-.16,1.53-.25.77-.09.78-.07.78,0H175l.78,0,.77.07.77.09.76.12.76.16.75.18.74.21.74.24.72.28.53.44.52.45.49.48.49.49.46.51.45.52.84,1.09.76,1.14.7,1.19.62,1.23.55,1.26.49,1.29.41,1.31.35,1.33.29,1.35.23,1.35.17,1.37.11,1.37.06,1.37v1.38l0,1.38-.09,1.37L190,669l-.18,1.36-.23,1.36-.26,1.35-.31,1.34-.34,1.34-.38,1.32-.42,1.31-.46,1.3-.49,1.28-.53,1.27-.56,1.26-.59,1.24a52.05,52.05,0,0,1-3.4,5.89l-.78,1.14-.81,1.11-.84,1.09-.87,1.07-.89,1-.93,1-.95,1-1,1-1,.94-1,.9-1.06.87-1.09.84-1.12.8-1.15.77-1.17.72-1.19.68-1.22.64-1.25.58-1.27.54-1.29.48-1.31.42-1.32.36-1.35.3-1.36.23-1.36.15-1.38.07h-1.37l-1.38-.1-1.36-.18Zm19.24,6.56V716l-.09.51-.15.49-.21.48-.26.44-.32.42-.35.37-.41.32-.44.27-.24.1-.25.08-.25,0-.26,0h-.26l-.25,0a1.59,1.59,0,0,1-.77-.45l-.17-.19-.14-.22-.1-.24-.08-.24-.06-.26,0-.25v-.52l.07-.51.15-.5.2-.48.26-.45.3-.41.35-.38.4-.33.44-.27.24-.11.24-.09.25-.06.26,0h.26l.25,0,.25.07.24.11.21.15.19.18.16.2.13.22.1.24.07.25.05.25Zm64.52,102.24a3.94,3.94,0,1,1-7.87,0h0a3.94,3.94,0,0,1,7.87,0ZM244.73,841a3.36,3.36,0,1,1,3.36-3.36A3.35,3.35,0,0,1,244.73,841Zm58.13-88.23a7.44,7.44,0,0,1-14.88,0h0a7.44,7.44,0,0,1,14.88,0Zm10.49-81.94L233.42,809.27a4.28,4.28,0,0,1-4.43,2.08,6.45,6.45,0,0,0-6.6,3.06,4.3,4.3,0,0,1-5.84,1.52l-62-35.77c-.47-.27-.93-.55-1.38-.85a7.15,7.15,0,0,1-2.28-9.56l86.94-150.58a7.17,7.17,0,0,1,9.42-2.82c.48.25,1,.51,1.43.78l62,35.77a4.29,4.29,0,0,1,1.6,5.81,6.43,6.43,0,0,0,.66,7.25A4.3,4.3,0,0,1,313.35,670.84Zm8.48-9a3.94,3.94,0,0,1-7.87,0h0a3.94,3.94,0,0,1,7.87,0Zm21.75,7.94a3.36,3.36,0,1,1,3.36-3.36A3.36,3.36,0,0,1,343.58,669.8Z"/><path class="cls-2" d="M145.8,609.8l-8.69-5a6.22,6.22,0,0,0-4.77-.63l-8.19,2.19a6.29,6.29,0,0,0-3.82,2.93l-12.18,21.09a6.29,6.29,0,0,0-.62,4.78l2.19,8.18a6.31,6.31,0,0,0,2.93,3.83l8.69,5a5.15,5.15,0,0,0,7-1.88l19.32-33.45A5.16,5.16,0,0,0,145.8,609.8Zm-15.37,16.91a4.3,4.3,0,0,1-8.59,0h0a4.3,4.3,0,1,1,8.59,0Z"/><path class="cls-2" d="M65.91,586.34H23v15.17H21.85v8.58H23v10h8.48A7.17,7.17,0,0,0,36.54,618l.67-.68a7.15,7.15,0,0,1,5.06-2.09H65.91A4.29,4.29,0,0,0,70.2,611V590.63A4.29,4.29,0,0,0,65.91,586.34Zm-9.72,14.31a3.87,3.87,0,0,1-7.73,0V599.5a3.87,3.87,0,0,1,7.73,0Z"/><path class="cls-2" d="M128.63,561.39a14.42,14.42,0,0,0-4-.56h-.26a.86.86,0,0,1-.86-.86.9.9,0,0,1,.16-.5,5.43,5.43,0,0,0-1.25-7.58,5.34,5.34,0,0,0-2.8-1A2.87,2.87,0,0,1,117,548V518.09a2.85,2.85,0,0,1,2.66-2.85,5.43,5.43,0,0,0,4-8.59.86.86,0,0,1,.2-1.19.84.84,0,0,1,.5-.17h.26a14.05,14.05,0,0,0,4-.56l12.59-3.64a19.44,19.44,0,0,0-17.69-11.36H97.58A129.56,129.56,0,0,0,79.65,491a62.61,62.61,0,0,0-20.74,6.75V522.9l-.44.54L58,524l-1,1.09-.52.5-.5.47-.53.45-.52.41-.19.18-.14.19-.07.19,0,.16V538.5l0,.16.07.19.14.19.19.17.52.42.53.45.5.46.52.51,1,1.09.48.55.44.53v27.19q2.72.9,5.48,1.64a129.16,129.16,0,0,0,33.19,4.34h26A19.44,19.44,0,0,0,141.22,565Zm-.12-64.75a3.37,3.37,0,1,1-3.36,3.36A3.37,3.37,0,0,1,128.51,496.64ZM72.14,554l-.46-.36h0l-.5-.39h0l-.28-.22-1-.86.12.1-.22-.18-.09-.09-.34-.34.27.28-1-1-.18-.21.08.08-.62-.69.08.1-.39-.44-.42-.53.16.19-.61-.77,0,.06-.13-.17-.89-1.28,0,0c.16.25.34.48.51.72l-.42-.6-.55-.89c.09.14.17.29.25.43l-.58-1-.17-.32c0,.08.09.15.14.23l-.52-1,.08.17-.26-.49-.34-.73.22.45-.45-1-.57-1.42c.18.49.37,1,.58,1.46l-.09-.2L63,541.69l0-.08c0,.09.07.17.1.26l-.36-1.12c.05.18.1.36.16.54l-.35-1.08-.1-.4c0,.13.08.25.11.37l-.3-1.14a1.29,1.29,0,0,0,0,.19l-.14-.53-.15-.81c0,.23.1.46.15.68l-.24-1.15-.2-1.42c0,.45.11.91.18,1.36l0-.18-.21-1.54v-.09c0,.11,0,.23,0,.34l-.11-1.28,0,.44-.07-1v-.42l0,.48,0-1.29s0,.09,0,.13v-.46l0-.88q0,.54,0,1.08l0-1.42.1-1.17c0,.31-.08.63-.1,1V531l.16-1.54,0-.17c0,.13,0,.26,0,.39l.17-1.17c0,.08,0,.16,0,.24l.13-.83.14-.57c0,.17-.07.34-.1.5l.23-1.06.14-.54c0,.17-.1.35-.14.53l.08-.37.43-1.49c0,.1-.05.21-.09.32l.47-1.39.58-1.42L64.4,521l.74-1.35.81-1.3.89-1.25,1-1.19,1-1.14c.4-.41.81-.81,1.24-1.2l-.25.25a27.31,27.31,0,0,0,3.34,40.86c-.51-.34-1-.71-1.48-1.08Zm6.11,4.85c-2.63-1.14-4.55-2.6-4.82-5.68-.24-2.74.32-4.54,3.55-5.08,1.74-.29,2.31-2.23,2.3-4.11-.06-7.3,0-14.6,0-21.89,0-1.94-1-3.05-2.51-4.08-4.65-3.18-4.28-7.37,1-9.67,10.61-4.62,27.7,1.92,31.4,10.4,2.14,4.89,4.45,9.59,3.91,14.92C114.69,553.13,92,564.79,78.25,558.84Zm36.74-49a4.29,4.29,0,1,1,8.58,0h0a4.29,4.29,0,1,1-8.58,0Zm4.28,50.81a4.3,4.3,0,0,1-4.28-4.3v0a4.29,4.29,0,1,1,8.58,0h0A4.29,4.29,0,0,1,119.27,560.61Zm9.24,8.87a3.36,3.36,0,1,1,3.36-3.36A3.35,3.35,0,0,1,128.51,569.48Z"/><path class="cls-2" d="M101.27,343.15a4.28,4.28,0,0,0-4.64-3.9l-23.56,2.06a7.17,7.17,0,0,1-5.22-1.65l-.73-.61a7.17,7.17,0,0,0-5.22-1.65l-8.45.74.87,10-1.14.1.75,8.55,1.14-.1,1.32,15.1L99.14,368a4.3,4.3,0,0,0,3.91-4.65ZM84.79,360a3.86,3.86,0,0,1-4.18-3.51l-.1-1.14a3.86,3.86,0,0,1,7.7-.67l.1,1.14A3.87,3.87,0,0,1,84.79,360Z"/><path class="cls-1" d="M135.88,286.53l-.07-.33-.09-.32-.13-.3-.15-.3-15-25.9a6.16,6.16,0,0,0,.33-.55l.12-.34,0-.36,0-.35-.14-.33-3.38-5.86-.22-.29-.28-.22-.33-.15-.35-.05a5.43,5.43,0,0,0-5.31,3.5l-11.09,6.4-.33.18-.36.15-.73.25-.74.16-.74.1a5.31,5.31,0,0,0-2.23.71,5.37,5.37,0,0,0-2.49,3.17,5.18,5.18,0,0,0-.22,1.79v.42l0,.42-.06.4-.08.4-.11.37-.13.37-.17.35-.21.33a15.43,15.43,0,0,1-5,4.55L59.19,290.53a4.49,4.49,0,0,0-2.25,3.89V308.9l0,.39,0,.38.06.39.09.37.11.38.14.36.16.35.18.34,3.9,6.77.18.27.2.26.23.23.24.21.27.19L63,320l.3.14.31.11.6.14.64.07h.67l.69-.08.7-.15.7-.22.68-.28.67-.34L111.1,295a4.29,4.29,0,0,1,5.46,1l.33.37.35.36.38.32.4.29.36.21.36.16.26.09.26.06.28,0h.27l.27,0,.27-.06.25-.09.25-.12,13.36-7.72.28-.18.26-.2.24-.23.22-.25.19-.27.16-.29.14-.3.1-.32.07-.32,0-.33v-.33ZM95,267a2.43,2.43,0,0,1,4.86,0h0A2.43,2.43,0,0,1,95,267Zm17.49,19L80.21,304.6a5.72,5.72,0,0,1-7.82-2.09L71,300a5.72,5.72,0,0,1,2.1-7.82l32.27-18.63a5.71,5.71,0,0,1,7.81,2.1l1.44,2.47A5.72,5.72,0,0,1,112.48,286Zm6-29.65a2.43,2.43,0,0,1-4.86,0h0a2.43,2.43,0,1,1,4.86,0Z"/><path class="cls-1" d="M157,312l-9.29-16.11a1.44,1.44,0,0,0-2-.52l-7.43,4.29a7.16,7.16,0,0,0-2.62,9.77l3.58,6.19a7.15,7.15,0,0,0,9.77,2.62l7.43-4.29A1.43,1.43,0,0,0,157,312Zm-8-3.75a4,4,0,0,1-8.07,0h0a4,4,0,0,1,8.07,0Z"/><path class="cls-2" d="M182.66,338.13h3a1.43,1.43,0,0,0,1.43-1.43v-10a1.43,1.43,0,0,0-1.43-1.43h-3.74a5.71,5.71,0,0,0-2.85.76,42.92,42.92,0,0,1-40.9,1,16,16,0,0,0-7.27-1.75h-15a1.42,1.42,0,0,0-.85.28,1.45,1.45,0,0,0-.58,1.15v1.14a1.43,1.43,0,0,0,1.43,1.43h2.87a2.44,2.44,0,0,1,0,4.87h-2.87a1.43,1.43,0,0,0-1.43,1.43v.49a5.76,5.76,0,0,0,1.34,3.68l3.19,3.79c.11.13.21.27.31.41l-.1.1-.55.64-.59.66-.61.63-.61.58-.37.41-.36.4-.34.37-.32.36-.19.27-.13.28L115,349l0,.32v9.2l0,.32.07.31.13.29.19.26.32.36.34.38.36.39.37.41.61.59.61.63.59.65.55.65.1.1c-.1.14-.2.27-.31.4l-3.19,3.8a5.74,5.74,0,0,0-1.34,3.68v.49a1.43,1.43,0,0,0,1.43,1.43h2.87a2.43,2.43,0,0,1,0,4.86h-2.87a1.43,1.43,0,0,0-1.43,1.43v1.15a1.43,1.43,0,0,0,.58,1.14,1.39,1.39,0,0,0,.85.29h15a16,16,0,0,0,7.27-1.75,42.9,42.9,0,0,1,40.9,1,5.71,5.71,0,0,0,2.85.76h3.74a1.43,1.43,0,0,0,1.43-1.43V371a1.43,1.43,0,0,0-1.43-1.43h-3a4.29,4.29,0,0,1-4.29-4.29V342.42A4.29,4.29,0,0,1,182.66,338.13ZM129,374.54a2.51,2.51,0,1,1,2.5-2.51A2.51,2.51,0,0,1,129,374.54Zm0-36.34a2.5,2.5,0,1,1,2.5-2.5A2.5,2.5,0,0,1,129,338.2Zm43.73,28.54a2.86,2.86,0,0,1-2.86,2.86h-32.4a2.86,2.86,0,0,1-2.29-1.14,1.42,1.42,0,0,1,.86-.29h2.29a1.43,1.43,0,0,0,1.43-1.43V341a1.43,1.43,0,0,0-1.43-1.43H136a1.47,1.47,0,0,1-.86-.28,2.87,2.87,0,0,1,2.29-1.15h32.4a2.86,2.86,0,0,1,2.86,2.86Zm7.95,7.87a2.51,2.51,0,1,1-2.51,2.5A2.5,2.5,0,0,1,180.67,374.61Zm-2.51-44a2.51,2.51,0,1,1,2.51,2.5A2.5,2.5,0,0,1,178.16,330.62Z"/><path class="cls-2" d="M248.78,367.6v-.23l-.1-.2-.17-.15-5-2.86-.78.21-.07.13L239,362.35l8.76-15.17a1.15,1.15,0,0,0-.42-1.57l-22.05-12.73a1.43,1.43,0,0,0-1.95.52l-8.62,14.94a1.42,1.42,0,0,0,.52,2l14.12,8.16a.71.71,0,0,1,.27,1L226,365.61l1,.59-4.58,7.92-1-.58L218.87,378l1,.58-4.58,7.93-1-.58-3.58,6.2a.71.71,0,0,1-1,.26l-17.84-10.3a1.44,1.44,0,0,0-2,.52l-14.15,24.51a7.16,7.16,0,0,0,1,8.46A57.44,57.44,0,0,0,190,426.07L210,437.65a1.44,1.44,0,0,0,2-.52l1-1.78a4.32,4.32,0,0,0,.42-3.26l-.12-.47-1.09-.63,36.48-63.18Zm-57.13,46.25a4.29,4.29,0,0,1-8.58,0v0a4.29,4.29,0,1,1,8.58,0Zm24.26-4.68-2.11,3.65a4.29,4.29,0,0,1-5.86,1.57l-8.43-4.86a4.29,4.29,0,0,1-1.57-5.86l2.11-3.66a4.29,4.29,0,0,1,5.86-1.57l8.43,4.87A4.29,4.29,0,0,1,215.91,409.17Zm14.51-62.33a4.29,4.29,0,1,1,4.29-4.29A4.29,4.29,0,0,1,230.42,346.84Z"/><path class="cls-2" d="M195.2,453.38l-33.45-19.32a5.15,5.15,0,0,0-7,1.89l-5,8.69a6.31,6.31,0,0,0-.63,4.77l10.05,37.5a6.29,6.29,0,0,0,2.93,3.82l8.69,5a5.16,5.16,0,0,0,7-1.89l19.31-33.45A5.14,5.14,0,0,0,195.2,453.38Zm-34.13.45a4.28,4.28,0,0,1-4.28-4.3h0a4.29,4.29,0,1,1,8.58,0v0A4.28,4.28,0,0,1,161.07,453.83Zm12.68,27a4.29,4.29,0,0,1-8.58,0v0a4.29,4.29,0,1,1,8.58,0Z"/><path class="cls-2" d="M290,184.17l-10-17.34a7.16,7.16,0,0,0-9.77-2.62L164,225.51a7.16,7.16,0,0,0-2.62,9.77L170,250.15a1.43,1.43,0,0,1-.53,1.95L149,263.88a4.31,4.31,0,0,0-1.57,5.87l20,34.68a4.28,4.28,0,0,0,5.86,1.57h0l23.38-13.49.06,0,.43-.29.39-.34.35-.39.29-.43,0,0a33,33,0,0,1,11.86-11.74l.55-.32a5.16,5.16,0,0,0,2.16-2.41,28.61,28.61,0,0,1,11.95-13.42l32.66-18.86a14.28,14.28,0,0,0,6.66-8.68l9.22-34.41a7.14,7.14,0,0,1,3.34-4.34L288.38,190A4.31,4.31,0,0,0,290,184.17ZM164.13,273.89A3.87,3.87,0,1,1,168,270,3.86,3.86,0,0,1,164.13,273.89Zm7-39.56-.27-.39-.2-.43-.14-.44-.08-.47,0-.47.06-.46.12-.46.18-.43.24-.41.3-.36.34-.32.39-.27.42-.21.45-.14.46-.09h.47l.47.05a3.31,3.31,0,0,1,2.68,3.84,3.06,3.06,0,0,1-.15.54l-.19.43-.25.4-.3.36-.35.31-.39.26-.43.21-.45.14-.46.07h-.47l-.47-.06-.45-.12-.43-.19-.4-.25-.37-.3Zm4.46,59.38a3.86,3.86,0,1,1,3.86-3.86A3.86,3.86,0,0,1,175.58,293.71Zm16.35-69.44a2.51,2.51,0,1,1,2.5-2.5A2.5,2.5,0,0,1,191.93,224.27Zm24.39-19,.12-.46.18-.43.25-.4.29-.37.35-.32.39-.26.42-.21.44-.15.47-.08.46,0,.47.05a2.64,2.64,0,0,1,.55.15,3.31,3.31,0,0,1,2,4.24l-.19.43-.25.4-.31.36-.35.31-.39.26-.42.2-.45.14-.47.07h-.47l-.46-.06-.46-.12-.43-.19-.4-.24-.36-.3-.32-.35-.26-.39-.21-.42-.14-.45-.08-.46v-.47Zm.29,55a2.51,2.51,0,0,1-5,0h0a2.51,2.51,0,0,1,5,0ZM238.53,232a16.45,16.45,0,1,1-21.93-17.59,3,3,0,0,1,1.48-.13,8.57,8.57,0,0,0,4.8-.52,2.84,2.84,0,0,1,1.47-.2A16.45,16.45,0,0,1,238.53,232ZM255,238a2.5,2.5,0,1,1-5,0h0a2.5,2.5,0,1,1,5,0Zm-2-40.22a3.86,3.86,0,1,1,3.86-3.86A3.86,3.86,0,0,1,253,197.78Zm19.82-11.44a3.87,3.87,0,1,1,3.86-3.86A3.86,3.86,0,0,1,272.86,186.34Z"/><path class="cls-2" d="M300.91,280.52l-32.34-18.67a14.28,14.28,0,0,0-8.4-1.86l-4.21.37a5.73,5.73,0,0,1-3.36-.75l-3-1.75a5.72,5.72,0,0,0-7.82,2.1l-3.05,5.29a1.44,1.44,0,0,0,.52,2l7.43,4.29a1.43,1.43,0,0,1,.53,1.95l-18.6,32.21-2,.53-5.42-3.13-.28-.13-.29-.09-.3,0-.3,0-.29.07-.28.14-.23.19-.18.24-3.45,6-.11.22-.06.24,0,.24,0,.24.08.23.13.21.17.18.2.14,4.42,2.65,4.39,2.64,2.25,1.34,2.28,1.37,4.56,2.73.64.36.66.35.66.32.68.29.69.27.7.25.71.21.72.2.5.09.5,0h.51l.51-.06.58-.11.57-.16.57-.18.56-.23.55-.26.54-.29.53-.32.52-.36.5-.38.49-.42.46-.44.44-.46.42-.49.39-.51.36-.53.33-.54,2.91-5a2.86,2.86,0,0,1,3.91-1.05l19.82,11.44a4.29,4.29,0,0,0,5.87-1.57l20.74-35.92A4.31,4.31,0,0,0,300.91,280.52Zm-46.52,13.62-7.15,12.39a3.72,3.72,0,0,1-6.44-3.72L248,290.42a3.72,3.72,0,0,1,6.44,3.72ZM274,311a3.86,3.86,0,1,1,3.86-3.86A3.86,3.86,0,0,1,274,311Zm11.44-19.82a3.87,3.87,0,1,1,3.86-3.86A3.86,3.86,0,0,1,285.44,291.15Z"/><path class="cls-2" d="M340.33,235H291.7a4.3,4.3,0,0,0-4.3,4.29v6.81a4.29,4.29,0,0,0,1.26,3l22.4,22.4a7.16,7.16,0,0,0,5.06,2.1h25.64a2.88,2.88,0,0,0,2.87-2.87h0V239.31A4.3,4.3,0,0,0,340.33,235Zm-28.5,27.77a1.44,1.44,0,0,1-1.44,1.43,1.47,1.47,0,0,1-1-.41l-7.74-7.75a1.43,1.43,0,0,1,1-2.44h7.74a1.44,1.44,0,0,1,1.44,1.43Z"/><path class="cls-2" d="M355.55,145.71l-11.44-19.82a2.86,2.86,0,0,0-3.91-1L295,151a2.86,2.86,0,0,0-1.05,3.91l13.33,23.08a11.49,11.49,0,0,1,1.53,6.11,19.31,19.31,0,1,0,38-4,43.11,43.11,0,0,1,.23-21.32l.32-1.18a11.47,11.47,0,0,1,5.33-6.95l1.78-1A2.86,2.86,0,0,0,355.55,145.71Zm-43.2,15.59a3.86,3.86,0,1,1,3.86-3.86A3.86,3.86,0,0,1,312.35,161.3ZM337,184.71a8.9,8.9,0,0,1-17.8,0v0a8.9,8.9,0,1,1,17.8,0Zm.76-38.07a3.87,3.87,0,1,1,3.86-3.86A3.86,3.86,0,0,1,337.75,146.64Z"/><path class="cls-2" d="M497.47,157.34l-.14-.61-.21-.59-.29-.56-19-32.87a1.43,1.43,0,0,0-2-.53l-23,13.31a.57.57,0,0,1-.78-.21l-13.88-24a.57.57,0,0,1,.21-.78h0l23-13.3a1.44,1.44,0,0,0,.53-2L443,62.33l-.35-.52-.4-.48-.46-.43-.49-.36-.53-.3-.56-.22-.57-.15-.58-.07-.58,0-.56.09-.53.17-.51.24L405.11,78.66l-.62.41-.57.47-.5.54-.45.59-.37.64-.29.68L395,101.76l-.3.69-.37.64-.44.59-.51.53-.57.48-.62.41L361.9,122.61l-.62.4-.57.48-.51.53-.44.59-.37.65-.29.68-.55,1.49-.21.68-.14.69-.05.69,0,.7.1.69.17.67.25.66.32.63,34.77,60.22.38.59.45.55.5.49.54.42.59.37.64.3.66.23.69.16,1.57.27.74.08h.74l.73-.09.72-.17.69-.25.67-.34,30.33-17.51.66-.33.69-.26.72-.17.73-.08H438l.74.08L459.46,181l.74.08h.74l.73-.09.72-.17.69-.25.67-.34,31.77-18.34.46-.31.42-.38.36-.44.29-.5.23-.53.16-.57.09-.6V158Zm-81.26-47.27a4.29,4.29,0,1,1-4.29,4.29A4.29,4.29,0,0,1,416.21,110.07Zm-38.4,30.75a4.29,4.29,0,1,1,4.29-4.29A4.29,4.29,0,0,1,377.81,140.82ZM400,179.23a4.3,4.3,0,1,1,4.29-4.29A4.29,4.29,0,0,1,400,179.23Zm26.71-34.58a18.6,18.6,0,1,1-37.19,0h0a18.6,18.6,0,1,1,37.19,0Zm5.09-60.75h0a7.15,7.15,0,1,1,14.3,0h0a7.15,7.15,0,1,1-14.3,0Zm6.6,73.15a4.29,4.29,0,1,1,4.3-4.29A4.29,4.29,0,0,1,438.38,157.05Zm44.9-8.73a7.16,7.16,0,0,1-14.31,0h0a7.16,7.16,0,1,1,14.31,0Z"/><path class="cls-1" d="M419.78,209.05,414,206.94l-.49,1.35-7.44,20.43a1.43,1.43,0,0,1-1.83.85l-38.18-13.89a1.43,1.43,0,0,1-.85-1.83l7.43-20.44.49-1.34L367.35,190a4.29,4.29,0,0,0-5.5,2.57L354,214a8.59,8.59,0,0,0,5.13,11l44.36,16.14a8.57,8.57,0,0,0,11-5.13l7.83-21.5A4.29,4.29,0,0,0,419.78,209.05Zm-34,18.69a2.5,2.5,0,1,1-5,0h0a2.5,2.5,0,1,1,5,0Z"/><path class="cls-2" d="M424.07,258.34H361.33a1.43,1.43,0,0,0-1.43,1.43v11.45a1.43,1.43,0,0,0,1.43,1.43h62.74a1.43,1.43,0,0,0,1.43-1.43V259.77A1.43,1.43,0,0,0,424.07,258.34Zm-28.94,10a2.44,2.44,0,0,1-4.87,0h0a2.44,2.44,0,0,1,4.87,0Z"/><path class="cls-2" d="M495.7,199.31H458.35a14.31,14.31,0,0,0-8.2,2.58l-3.46,2.43a5.74,5.74,0,0,1-3.28,1h-3.5a5.72,5.72,0,0,0-5.72,5.72v6.12a1.43,1.43,0,0,0,1.43,1.43h8.58a1.43,1.43,0,0,1,1.43,1.43v37.19l-1.43,1.43H438l-.3,0-.3.07-.28.12-.26.17-.21.21-.17.25-.1.28,0,.3V267l0,.24.07.24.1.22.15.19.19.16.22.11.23.07.24,0,5.15.09,5.13.08,2.62.05,2.65,0,5.32.08h.74l.74,0,.74-.06.73-.08.74-.11.73-.14.72-.17.71-.19.48-.16.47-.21.44-.26.4-.3.45-.39.42-.42.4-.45.37-.47.35-.5.32-.52.3-.55.27-.57.24-.58.21-.6.18-.62.15-.62.12-.63.08-.64.05-.64,0-.63v-5.82a2.87,2.87,0,0,1,2.86-2.87H495.7a4.29,4.29,0,0,0,4.29-4.29V203.6A4.29,4.29,0,0,0,495.7,199.31Zm-33.47,49.35a3.72,3.72,0,0,1-7.44,0V234.35a3.72,3.72,0,0,1,7.44,0Zm23.46-9a3.87,3.87,0,1,1,3.86-3.87A3.87,3.87,0,0,1,485.69,239.65Zm0-22.89a3.87,3.87,0,1,1,3.86-3.86A3.86,3.86,0,0,1,485.69,216.76Z"/><path class="cls-2" d="M610.15,79.51l-.37-1.38-2.56-1.48-4.78-2.76L568.81,54.48,564,51.72l-3.18-1.84-1.38.37a1.43,1.43,0,0,0-.87.67l-2.25,3.88a2.86,2.86,0,0,0,1,3.91L565,63.09a7.16,7.16,0,0,1,3.33,4.34L572,81.25a7.15,7.15,0,0,1-.71,5.43l-1.24,2.14a4.29,4.29,0,0,0,1.57,5.86l2.48,1.43a1.42,1.42,0,0,0,2-.52l11-19.08a.57.57,0,0,1,.78-.21l16,9.23a2.86,2.86,0,0,0,3.91-1L610,80.6A1.43,1.43,0,0,0,610.15,79.51ZM564.78,58.45a2.51,2.51,0,1,1,2.5-2.51A2.51,2.51,0,0,1,564.78,58.45Zm40.91,19.67a2.51,2.51,0,0,1-5,0h0a2.51,2.51,0,0,1,5,0Z"/><path class="cls-2" d="M797.86,186.88,621.42,85a5.72,5.72,0,0,0-7,1,110.22,110.22,0,0,0-16.29,21.6l-8.44,14.62a5.73,5.73,0,0,0,2.09,7.82l11.4,6.58,159.07,91.84,11.4,6.58a5.72,5.72,0,0,0,7.81-2.1l8.44-14.62a110.59,110.59,0,0,0,10.57-24.9A5.73,5.73,0,0,0,797.86,186.88Zm-65.43-24.4a1.46,1.46,0,0,1,1.43,0l21,12.11a1.43,1.43,0,0,1-.72,2.67H741a2.88,2.88,0,0,1-2.48-1.43l-6.58-11.39A1.44,1.44,0,0,1,732.43,162.48ZM705.67,147a1.46,1.46,0,0,1,1.43,0l21,12.11a1.43,1.43,0,0,1-.72,2.67H714.2a2.88,2.88,0,0,1-2.48-1.43L705.14,149A1.44,1.44,0,0,1,705.67,147Zm-26.76-15.45a1.46,1.46,0,0,1,1.43,0l21,12.11a1.43,1.43,0,0,1-.72,2.67H687.44a2.88,2.88,0,0,1-2.48-1.43l-6.58-11.39A1.44,1.44,0,0,1,678.91,131.58Zm-26.76-15.45a1.46,1.46,0,0,1,1.43,0l21,12.11a1.43,1.43,0,0,1-.72,2.67H660.68a2.88,2.88,0,0,1-2.48-1.43l-6.58-11.39A1.44,1.44,0,0,1,652.15,116.13Zm-26.76-15.45a1.46,1.46,0,0,1,1.43,0l21,12.11a1.43,1.43,0,0,1-.72,2.67H633.92a2.88,2.88,0,0,1-2.48-1.43l-6.57-11.39A1.43,1.43,0,0,1,625.39,100.68ZM606,113.52a2.43,2.43,0,1,1,4.86,0h0a2.43,2.43,0,1,1-4.86,0Zm.32,13.1,12.39-21.46a2.86,2.86,0,0,1,3.91-1,2.79,2.79,0,0,1,1,1l5.78,10a2.86,2.86,0,0,1,0,2.86l-6.61,11.45a2.86,2.86,0,0,1-2.48,1.43H608.81a2.86,2.86,0,0,1-2.48-4.29ZM628.91,148a1.41,1.41,0,0,1-1.43,0l-21-12.1a1.43,1.43,0,0,1,.71-2.67h13.15a2.84,2.84,0,0,1,2.48,1.43L629.43,146A1.43,1.43,0,0,1,628.91,148Zm2.53-3-6.61-11.45a2.86,2.86,0,0,1,0-2.86l6.61-11.44a2.86,2.86,0,0,1,2.48-1.43h13.21a2.84,2.84,0,0,1,2.48,1.43l6.61,11.44a2.86,2.86,0,0,1,0,2.86l-6.61,11.45a2.86,2.86,0,0,1-2.48,1.43H633.92A2.88,2.88,0,0,1,631.44,144.93Zm24.23,18.49a1.43,1.43,0,0,1-1.44,0l-21-12.1a1.43,1.43,0,0,1,.71-2.67h13.15a2.84,2.84,0,0,1,2.48,1.43l6.58,11.39A1.43,1.43,0,0,1,655.67,163.42Zm2.53-3-6.61-11.45a2.86,2.86,0,0,1,0-2.86l6.61-11.44a2.86,2.86,0,0,1,2.48-1.43h13.21a2.84,2.84,0,0,1,2.48,1.43L683,146.07a2.86,2.86,0,0,1,0,2.86l-6.61,11.45a2.86,2.86,0,0,1-2.48,1.43H660.68A2.88,2.88,0,0,1,658.2,160.38Zm24.22,18.49a1.41,1.41,0,0,1-1.43,0l-21-12.1a1.43,1.43,0,0,1,.71-2.67h13.15a2.84,2.84,0,0,1,2.48,1.43L683,176.92A1.43,1.43,0,0,1,682.42,178.87Zm2.54-3-6.61-11.45a2.86,2.86,0,0,1,0-2.86L685,150.08a2.86,2.86,0,0,1,2.48-1.43h13.21a2.84,2.84,0,0,1,2.48,1.43l6.61,11.44a2.86,2.86,0,0,1,0,2.86l-6.61,11.45a2.86,2.86,0,0,1-2.48,1.43H687.44A2.88,2.88,0,0,1,685,175.83Zm24.22,18.49a1.41,1.41,0,0,1-1.43,0l-21-12.1a1.43,1.43,0,0,1,.72-2.67h13.15a2.84,2.84,0,0,1,2.48,1.43l6.58,11.39A1.43,1.43,0,0,1,709.18,194.32Zm2.54-3-6.61-11.45a2.86,2.86,0,0,1,0-2.86l6.61-11.44a2.86,2.86,0,0,1,2.48-1.43h13.21a2.84,2.84,0,0,1,2.48,1.43L736.5,177a2.86,2.86,0,0,1,0,2.86l-6.61,11.45a2.86,2.86,0,0,1-2.48,1.43H714.2A2.88,2.88,0,0,1,711.72,191.28Zm24.22,18.49a1.41,1.41,0,0,1-1.43,0l-21-12.1a1.43,1.43,0,0,1,.72-2.67h13.15a2.84,2.84,0,0,1,2.48,1.43l6.58,11.39A1.43,1.43,0,0,1,735.94,209.77Zm2.54-3-6.61-11.45a2.86,2.86,0,0,1,0-2.86L738.48,181a2.86,2.86,0,0,1,2.48-1.43h13.21a2.86,2.86,0,0,1,2.48,1.43l6.61,11.44a2.86,2.86,0,0,1,0,2.86l-6.61,11.45a2.88,2.88,0,0,1-2.48,1.43H741A2.88,2.88,0,0,1,738.48,206.73Zm24.22,18.49a1.41,1.41,0,0,1-1.43,0l-21-12.1a1.43,1.43,0,0,1,.72-2.67h13.15a2.86,2.86,0,0,1,2.48,1.43l6.58,11.39A1.43,1.43,0,0,1,762.7,225.22Zm16.95-10.41a2.43,2.43,0,1,1,2.43-2.43A2.43,2.43,0,0,1,779.65,214.81Zm2.11-15.52-12.39,21.46a2.87,2.87,0,0,1-3.91,1,2.91,2.91,0,0,1-1.05-1l-5.78-10a2.86,2.86,0,0,1,0-2.86l6.61-11.44a2.86,2.86,0,0,1,2.48-1.43h11.56a2.86,2.86,0,0,1,2.48,4.29Zm.35-7.3a1.45,1.45,0,0,1-1.24.72H767.72a2.88,2.88,0,0,1-2.48-1.43l-6.58-11.39a1.44,1.44,0,0,1,.53-2,1.46,1.46,0,0,1,1.43,0l21,12.11A1.43,1.43,0,0,1,782.11,192Z"/><path class="cls-2" d="M729.07,223.74,713.81,219a28.45,28.45,0,0,1-5.85-2.56l-72.48-41.85a28.53,28.53,0,0,1-5.14-3.79L618.62,160a4.36,4.36,0,0,0-5.93,6.4l7.16,6.63a14.3,14.3,0,0,1,4.47,12.25,8.59,8.59,0,0,0,4.23,8.49L694.86,232a8.56,8.56,0,0,0,9.46-.58,14.32,14.32,0,0,1,12.85-2.25l9.32,2.88a4.36,4.36,0,0,0,2.58-8.34ZM615.66,165.25a2.07,2.07,0,1,1,2.07-2.07A2.06,2.06,0,0,1,615.66,165.25Zm21,20.63a1.72,1.72,0,1,1-3.43,0h0a1.72,1.72,0,1,1,3.43,0Zm33.59,20.38a2.87,2.87,0,0,1-3.91,1L639.88,192a2.86,2.86,0,0,1,2.87-4.95l26.44,15.27A2.86,2.86,0,0,1,670.24,206.26Zm5.44,2.15a1.72,1.72,0,0,1-3.44,0h0a1.72,1.72,0,1,1,3.44,0Zm18.9,11.9a2.85,2.85,0,0,1-3.9,1.05l-12-6.9a2.86,2.86,0,0,1,2.86-5l12,6.9A2.86,2.86,0,0,1,694.58,220.31Zm33.2,9.68a2.08,2.08,0,1,1,2.07-2.08A2.08,2.08,0,0,1,727.78,230Z"/><path class="cls-2" d="M750.62,253.36a4.37,4.37,0,0,0-5.22-3.3h0l-15.57,3.54a28.21,28.21,0,0,1-6.34.72h-83.7a28.3,28.3,0,0,1-6.35-.72l-15.57-3.54a4.37,4.37,0,0,0-2,8.51h0l9.51,2.16a14.33,14.33,0,0,1,10,8.38,8.58,8.58,0,0,0,7.9,5.23H719.9a8.6,8.6,0,0,0,7.91-5.23,14.31,14.31,0,0,1,10-8.38l9.51-2.16A4.36,4.36,0,0,0,750.62,253.36Zm-133.73,3a2.08,2.08,0,1,1,2.07-2.07A2.08,2.08,0,0,1,616.89,256.39Zm49.21,10.8H652.29a2.86,2.86,0,0,1,0-5.72H666.1a2.86,2.86,0,1,1,0,5.72Zm8.87-2.86a1.72,1.72,0,0,1-3.44,0h0a1.72,1.72,0,0,1,3.44,0Zm36,2.86H680.4a2.86,2.86,0,0,1,0-5.72h30.54a2.86,2.86,0,0,1,0,5.72Zm9.09-2.86a1.72,1.72,0,1,1-3.44,0h0a1.72,1.72,0,0,1,3.44,0Zm26.32-7.94a2.08,2.08,0,1,1,2.07-2.07A2.08,2.08,0,0,1,746.35,256.39Z"/><path class="cls-1" d="M640.35,221.72H633.2a7.17,7.17,0,0,0-7.16,7.16v8.58a1.43,1.43,0,0,0,1.43,1.43h18.6a1.43,1.43,0,0,0,1.43-1.43v-8.58A7.16,7.16,0,0,0,640.35,221.72Zm-3.58,12.62a4,4,0,1,1,4-4A4,4,0,0,1,636.77,234.34Z"/><path class="cls-2" d="M572.21,315.58l-2.48-1.43-.3-.13-.32-.06-.34,0-.31.09a2.92,2.92,0,0,0-1.2-1.35l-69.38-40.06-2.48-1.43a2.86,2.86,0,0,0-3.91,1L481.84,289a1.15,1.15,0,0,0-1.56.42l-48.21,83.5a1.15,1.15,0,0,0,.42,1.57l-10.73,18.58a2.87,2.87,0,0,0,1,3.91l2.48,1.43,4.86,2.8a4.3,4.3,0,0,1,2.15,3.72v13.21a8.59,8.59,0,0,0,4.29,7.44L448,432.19a8.61,8.61,0,0,0,8.59,0l11.44-6.61a4.27,4.27,0,0,1,4.29,0l22.32,12.88a2.79,2.79,0,0,0,1.77.36l.08.32.15.3.21.25.26.2,2.48,1.43a2.87,2.87,0,0,0,3.91-1l69.74-120.79h0A2.86,2.86,0,0,0,572.21,315.58ZM508.11,286a1.41,1.41,0,0,1,.19-.72,1.43,1.43,0,0,1,1.95-.52L533.14,298a1.39,1.39,0,0,1,.52.53,1.42,1.42,0,0,1-.52,1.95L526,304.58a4.27,4.27,0,0,1-4.29,0L510.25,298a4.27,4.27,0,0,1-2.14-3.71Zm0,15.69,11.44,6.61A4.29,4.29,0,0,1,521.7,312v13.21a4.3,4.3,0,0,1-2.15,3.72l-11.44,6.6a4.29,4.29,0,0,1-4.3,0L492.37,329a4.3,4.3,0,0,1-2.15-3.72V312a4.29,4.29,0,0,1,2.15-3.72l11.44-6.61A4.29,4.29,0,0,1,508.11,301.69Zm-4.3,41.3V356.2a4.3,4.3,0,0,1-2.14,3.72l-11.45,6.61a4.32,4.32,0,0,1-4.29,0l-11.44-6.61a4.3,4.3,0,0,1-2.15-3.72V343a4.29,4.29,0,0,1,2.15-3.72l11.44-6.61a4.32,4.32,0,0,1,4.29,0l11.45,6.61A4.28,4.28,0,0,1,503.81,343Zm-20.14-42.85.07-.13,11.8-20.44.08-.12a2.86,2.86,0,0,1,3.83-.93l2.22,1.28a4.3,4.3,0,0,1,2.14,3.72v10.74a4.27,4.27,0,0,1-2.14,3.71l-11.45,6.61a4.27,4.27,0,0,1-4.29,0l-1.14-.66A2.86,2.86,0,0,1,483.67,300.14Zm-17.88,31s0-.08.07-.13l12.87-22.29.08-.13a2.86,2.86,0,0,1,3.83-.92l1.15.66a4.3,4.3,0,0,1,2.14,3.72v13.21a4.32,4.32,0,0,1-2.14,3.72l-11.45,6.6a4.27,4.27,0,0,1-4.29,0l-1.14-.66A2.86,2.86,0,0,1,465.79,331.11Zm-17.88,31A.75.75,0,0,1,448,362l12.87-22.3.08-.13a2.86,2.86,0,0,1,3.83-.92l1.15.66a4.3,4.3,0,0,1,2.14,3.72V356.2a4.32,4.32,0,0,1-2.14,3.72l-11.45,6.61a4.32,4.32,0,0,1-4.29,0l-1.14-.67A2.85,2.85,0,0,1,447.91,362.08ZM432.29,397.5l-1.15-.66a2.86,2.86,0,0,1-1.11-3.79.75.75,0,0,1,.07-.12L443,370.63l.08-.12a2.86,2.86,0,0,1,3.83-.93l1.14.66a4.3,4.3,0,0,1,2.15,3.72v13.21a4.29,4.29,0,0,1-2.15,3.72l-11.44,6.61A4.32,4.32,0,0,1,432.29,397.5Zm13.59,25-6-12,2.7-4.67,6,12Zm11,3.4-12.07-24,2.7-4.67,12.06,24Zm5-8.61-6-12,2.69-4.68,6,12Zm6.2-19.82-11.44-6.61a4.29,4.29,0,0,1-2.15-3.72V374a4.3,4.3,0,0,1,2.15-3.72l11.44-6.61a4.32,4.32,0,0,1,4.29,0l11.45,6.61a4.32,4.32,0,0,1,2.14,3.72v13.21a4.3,4.3,0,0,1-2.14,3.72l-11.45,6.61A4.32,4.32,0,0,1,468.05,397.5Zm35.76,20.64a4.28,4.28,0,0,1-2.14,3.72l-11.45,6.61a4.27,4.27,0,0,1-4.29,0l-11.44-6.61a4.29,4.29,0,0,1-2.15-3.72V404.93a4.3,4.3,0,0,1,2.15-3.72l11.44-6.6a4.27,4.27,0,0,1,4.29,0l11.45,6.6a4.3,4.3,0,0,1,2.14,3.72Zm17.89-31a4.29,4.29,0,0,1-2.15,3.72l-11.44,6.61a4.34,4.34,0,0,1-4.3,0l-11.44-6.61a4.29,4.29,0,0,1-2.15-3.72V374a4.3,4.3,0,0,1,2.15-3.72l11.44-6.61a4.34,4.34,0,0,1,4.3,0l11.44,6.61A4.3,4.3,0,0,1,521.7,374Zm17.88-31a4.3,4.3,0,0,1-2.15,3.72L526,366.53a4.32,4.32,0,0,1-4.29,0l-11.45-6.61a4.3,4.3,0,0,1-2.14-3.72V343a4.28,4.28,0,0,1,2.14-3.72l11.45-6.61a4.32,4.32,0,0,1,4.29,0l11.44,6.61a4.29,4.29,0,0,1,2.15,3.72Zm17.88-31a4.3,4.3,0,0,1-2.15,3.72l-11.44,6.6a4.27,4.27,0,0,1-4.29,0L528.13,329a4.32,4.32,0,0,1-2.14-3.72V312a4.3,4.3,0,0,1,2.14-3.72l9.3-5.37a4.27,4.27,0,0,1,4.29,0l13.59,7.85a4.28,4.28,0,0,1,2.15,3.71Z"/><path class="cls-1" d="M477.15,462.78,414,426.3a6.44,6.44,0,0,0-8.8,2.35L368.7,491.84a6.43,6.43,0,0,0,2.35,8.79l63.18,36.48a6.44,6.44,0,0,0,8.8-2.36l36.48-63.18A6.44,6.44,0,0,0,477.15,462.78Zm-30.42-15.42-4.2-2.42A39.75,39.75,0,0,1,446.73,447.36Zm-20.48-1.93a4.29,4.29,0,0,1,4.29-4.29,3.81,3.81,0,0,1,.75.07,41.37,41.37,0,0,1,7.58,2.11l1.14.46,9,5.19q.48.36,1,.75a41.8,41.8,0,0,1,5.62,5.51,4.3,4.3,0,0,1-.52,6,5.27,5.27,0,0,1-.62.43l-10.31,6a4.27,4.27,0,0,1-4.29,0l-11.45-6.61a4.29,4.29,0,0,1-2.14-3.71ZM417.48,473l2.41-4.17,10.78,21.45-2.41,4.17Zm3.35,14.24-2.41,4.18L413,480.71l2.41-4.17Zm6.48-11.21,2.41-4.17,5.39,10.72-2.41,4.18Zm-34.68-20.82a41.13,41.13,0,0,1,24.28-14,3.81,3.81,0,0,1,.75-.07,4.3,4.3,0,0,1,4.3,4.29v11.91a4.28,4.28,0,0,1-2.15,3.71l-11.44,6.61a4.29,4.29,0,0,1-4.3,0l-10.31-6a5.16,5.16,0,0,1-.61-.43A4.29,4.29,0,0,1,392.63,455.23Zm-1.69,43.07a4.31,4.31,0,0,1-5.5-2.57,41.09,41.09,0,0,1,0-28.05,3.51,3.51,0,0,1,.32-.68,4.28,4.28,0,0,1,5.86-1.57l10.31,5.95a4.28,4.28,0,0,1,2.14,3.72v13.21a4.3,4.3,0,0,1-2.14,3.72l-10.31,6A6,6,0,0,1,390.94,498.3Zm10.53,17.75,4.2,2.42A40.78,40.78,0,0,1,401.47,516.05ZM422,518a4.3,4.3,0,0,1-4.3,4.29,4.74,4.74,0,0,1-.75-.06,41.37,41.37,0,0,1-7.58-2.11l-1.13-.46-9-5.19-1-.75a40.73,40.73,0,0,1-5.62-5.52,4.27,4.27,0,0,1,.52-6,4.21,4.21,0,0,1,.61-.43l10.31-6a4.34,4.34,0,0,1,4.3,0l11.44,6.61a4.29,4.29,0,0,1,2.15,3.72Zm33.62-9.8a41.17,41.17,0,0,1-24.29,14,4.74,4.74,0,0,1-.75.06,4.29,4.29,0,0,1-4.29-4.29v-11.9a4.3,4.3,0,0,1,2.14-3.72l11.45-6.61a4.32,4.32,0,0,1,4.29,0l10.31,6a4.27,4.27,0,0,1,1.14,6.47Zm7.18-12.44a4.6,4.6,0,0,1-.31.68,4.31,4.31,0,0,1-5.87,1.57l-10.31-6a4.32,4.32,0,0,1-2.14-3.72V475.1a4.3,4.3,0,0,1,2.14-3.72l10.31-5.95a3.6,3.6,0,0,1,.69-.32,4.28,4.28,0,0,1,5.49,2.57A41.09,41.09,0,0,1,462.76,495.73Z"/><path class="cls-2" d="M429.08,566.21l-2.48-1.43-1.43,2.47a2.86,2.86,0,0,0-1.05-3.91l-22.31-12.88a4.29,4.29,0,0,1-2.15-3.72V533.53a8.56,8.56,0,0,0-4.29-7.43l-11.44-6.61a8.61,8.61,0,0,0-8.59,0L363.9,526.1a4.32,4.32,0,0,1-4.29,0l-7.34-4.24a2.86,2.86,0,0,0-3.91,1l-4.29,7.43a1.13,1.13,0,0,0-1.56.42h0l-18.89,32.7A1.16,1.16,0,0,0,324,565l-4.29,7.43a1.14,1.14,0,0,0-1.56.42l-13.74,23.8a1.13,1.13,0,0,0,.42,1.56l-4.3,7.43a1.43,1.43,0,0,0,1.58,2.11,7.84,7.84,0,0,1,5.82.83L319,615l.18.1a7.68,7.68,0,0,0,6.61.53,4.32,4.32,0,0,1,3.68.29l24.56,14.18a4.36,4.36,0,0,1,2.09,3,7.75,7.75,0,0,0,3.76,5.47l.18.1,11.06,6.38a7.85,7.85,0,0,1,3.62,4.62,1.43,1.43,0,0,0,1.77,1,1.39,1.39,0,0,0,.84-.66l-.85,1.48,2.48,1.43a2.86,2.86,0,0,0,3.91-1l47.21-81.77A2.85,2.85,0,0,0,429.08,566.21ZM363.9,533.53a4.32,4.32,0,0,1,2.14-3.72l11.45-6.6a4.27,4.27,0,0,1,4.29,0l11.44,6.6a4.3,4.3,0,0,1,2.15,3.72v13.21a4.29,4.29,0,0,1-2.15,3.72l-11.44,6.61a4.32,4.32,0,0,1-4.29,0L366,550.46a4.3,4.3,0,0,1-2.14-3.72Zm0,20.65,11.44,6.6a4.3,4.3,0,0,1,2.15,3.72v13.22a4.28,4.28,0,0,1-2.15,3.71L363.9,588a4.27,4.27,0,0,1-4.29,0l-11.45-6.61a4.29,4.29,0,0,1-2.14-3.71V564.5a4.32,4.32,0,0,1,2.14-3.72l11.45-6.6A4.27,4.27,0,0,1,363.9,554.18Zm-24.37-1.68,12.88-22.3a2.86,2.86,0,0,1,3.91-1.05h0l1.14.66a4.3,4.3,0,0,1,2.15,3.72v13.21a4.29,4.29,0,0,1-2.15,3.72L346,557.07a4.32,4.32,0,0,1-4.29,0l-1.15-.66A2.86,2.86,0,0,1,339.53,552.5Zm-15.69,56.35a2.86,2.86,0,0,1-4.29,2.48l-8-4.62a2.85,2.85,0,0,1-1-3.91l6.15-10.66a2.85,2.85,0,0,1,3.9-1h0l1.15.66a4.27,4.27,0,0,1,2.14,3.71Zm0-20.81-1.14-.66a2.86,2.86,0,0,1-1.05-3.91l12.88-22.3a2.86,2.86,0,0,1,3.91-1l1.14.66a4.3,4.3,0,0,1,2.15,3.72v13.22a4.28,4.28,0,0,1-2.15,3.71L328.14,588A4.29,4.29,0,0,1,323.84,588Zm17.89,31-11.45-6.61a4.27,4.27,0,0,1-2.14-3.71V595.47a4.27,4.27,0,0,1,2.14-3.71l11.45-6.61a4.27,4.27,0,0,1,4.29,0l11.44,6.61a4.28,4.28,0,0,1,2.15,3.71v13.22a4.28,4.28,0,0,1-2.15,3.71L346,619A4.27,4.27,0,0,1,341.73,619Zm35.76,20.81a2.85,2.85,0,0,1-4.29,2.48l-11.57-6.68a4.26,4.26,0,0,1-2.09-3,7.71,7.71,0,0,0-3.77-5.47l-3.32-1.91a2.87,2.87,0,0,1-1-3.91,2.83,2.83,0,0,1,1-1l7.16-4.13a4.27,4.27,0,0,1,4.29,0l11.44,6.61a4.28,4.28,0,0,1,2.15,3.71Zm17.88-31.13a4.28,4.28,0,0,1-2.15,3.71L381.78,619a4.27,4.27,0,0,1-4.29,0L366,612.4a4.29,4.29,0,0,1-2.14-3.71V595.47a4.29,4.29,0,0,1,2.14-3.71l11.45-6.61a4.27,4.27,0,0,1,4.29,0l11.44,6.61a4.28,4.28,0,0,1,2.15,3.71Zm17.88-31a4.29,4.29,0,0,1-2.14,3.71L399.66,588a4.27,4.27,0,0,1-4.29,0l-11.44-6.61a4.28,4.28,0,0,1-2.15-3.71V564.5a4.3,4.3,0,0,1,2.15-3.72l11.44-6.6a4.27,4.27,0,0,1,4.29,0l11.45,6.6a4.32,4.32,0,0,1,2.14,3.72Z"/><path class="cls-2" d="M289.25,666.16l-.1-.26-.15-.24-.2-.2-.23-.17-32.93-19-.26-.12-.27-.07h-.28l-.28,0-.27.1-.24.15-.21.19-.16.23L250.09,653l-.12.26-.06.28v.28l0,.28.11.26.15.24.19.2.23.17,1.27.73.23.15.23.18.21.2.18.21.16.22.14.26.12.26.09.26.06.27,0,.29v.29l0,.28,0,.27-.08.28-.11.27-.12.25-50.79,88-.15.23-.18.22-.2.21-.21.18-.24.15-.25.14-.27.11-.26.08-.28.06-.29,0h-.28l-.28,0-.27-.05-.28-.08-.27-.11-.25-.13-11.68-6.74a1.42,1.42,0,0,0-1.95.52h0l-5.72,9.91-4.3,7.44a1.43,1.43,0,0,0,.53,1.95l8.92,5.15a1.42,1.42,0,0,0,1.95-.52l2.15-3.72a2.86,2.86,0,0,1,3.91-1.05L220.55,778a2.86,2.86,0,0,1,1,3.91h0l-2.15,3.72a1.43,1.43,0,0,0,.52,1.95l8.92,5.15a1.44,1.44,0,0,0,2-.52l4.29-7.43,5.72-9.91a1.44,1.44,0,0,0-.52-2l-11.68-6.74-.23-.15-.23-.18-.21-.2-.19-.21-.15-.23-.15-.25-.12-.26-.09-.27-.06-.27,0-.28v-.29l0-.28.05-.27.08-.28.1-.27.13-.25,50.78-88,.15-.23.18-.23.21-.21.21-.17.23-.16.26-.13.26-.12.27-.08.27,0,.29,0H281l.27,0,.28.06.28.08.27.11.24.12,1.27.73.25.12.28.07h.28l.28,0,.26-.1.25-.15.2-.19.17-.23,3.58-6.19.11-.26.07-.28v-.28Zm-54,69.13-11.44,19.82a4.3,4.3,0,0,1-5.87,1.57l-1.24-.71L213,753.82l-1.24-.72a4.29,4.29,0,0,1-1.57-5.86l11.44-19.82a4.29,4.29,0,0,1,5.86-1.57l6.2,3.58A4.29,4.29,0,0,1,235.29,735.29Zm18.31-31.72-10,17.35a4.31,4.31,0,0,1-5.87,1.57l-6.19-3.58a4.29,4.29,0,0,1-1.57-5.86l10-17.34a4.29,4.29,0,0,1,5.86-1.58l6.2,3.58A4.29,4.29,0,0,1,253.6,703.57Zm18.17-31.46-10,17.34a4.29,4.29,0,0,1-5.86,1.57l-6.19-3.58a4.28,4.28,0,0,1-1.57-5.86l10-17.34a4.29,4.29,0,0,1,5.86-1.57l6.2,3.57A4.31,4.31,0,0,1,271.77,672.11Z"/><path class="cls-1" d="M161,682.53l4.64.81a2.85,2.85,0,0,0,2.43-.7,60.24,60.24,0,0,0,10.07-12,1.44,1.44,0,0,0-.44-2l0,0-10.88-6.28a1.43,1.43,0,0,0-1.91.45c-.51.77-1,1.53-1.59,2.27a1.44,1.44,0,0,0-.14,1.47,8.15,8.15,0,0,1-1.95,9.58,50,50,0,0,1-8.45,6.08,1.43,1.43,0,0,0-.55,1.92l3.11,5.8a1.43,1.43,0,0,0,1.94.58h0c.67-.39,1.34-.78,2-1.19a.86.86,0,0,0,.27-1.18l0,0-1.08-1.58a2.57,2.57,0,0,1,2.57-4Z"/><path class="cls-2" d="M193.86,828.21l-54.33-31.37a1.43,1.43,0,0,0-1.95.53h0l-5.73,9.91a1.43,1.43,0,0,0,.53,2l11.1,6.41,3.72,2.15,10.49,6.05L161.4,826l10.49,6,3.72,2.15,11.1,6.41a1.43,1.43,0,0,0,1.95-.52l5.73-9.91A1.44,1.44,0,0,0,193.86,828.21Zm-29.74-7a2.43,2.43,0,1,1-4.86,0h0a2.43,2.43,0,1,1,4.86,0Z"/><path class="cls-2" d="M261,920.54l-6.6-11.44a4.27,4.27,0,0,1,0-4.29l4.23-7.34a2.87,2.87,0,0,0-1-3.91L136.8,823.82a2.86,2.86,0,0,0-3.91,1L91.4,896.72a2.86,2.86,0,0,0,1,3.91h0l120.79,69.74a2.86,2.86,0,0,0,3.91-1L230,947a4.3,4.3,0,0,1,3.72-2.15H247a8.59,8.59,0,0,0,7.44-4.29l6.6-11.44A8.56,8.56,0,0,0,261,920.54ZM133.4,891.22l-6.61,11.44a4.28,4.28,0,0,1-3.71,2.15H109.86a4.28,4.28,0,0,1-3.71-2.15l-5.37-9.3a4.27,4.27,0,0,1,0-4.29l7.84-13.59a4.3,4.3,0,0,1,3.72-2.14h10.74a4.27,4.27,0,0,1,3.71,2.14l6.61,11.45A4.27,4.27,0,0,1,133.4,891.22Zm0-35.77-6.61,11.45a4.27,4.27,0,0,1-3.71,2.14h-8.26a1.43,1.43,0,0,1-1.43-1.43,1.38,1.38,0,0,1,.19-.71L126.79,844a1.44,1.44,0,0,1,2-.52,1.37,1.37,0,0,1,.52.52l4.13,7.15A4.27,4.27,0,0,1,133.4,855.45Zm3.72-6.43-5.37-9.3a4.27,4.27,0,0,1,0-4.29l1.28-2.22a2.86,2.86,0,0,1,3.91-1.05L157.38,844a2.86,2.86,0,0,1,1.05,3.91l-.67,1.15a4.29,4.29,0,0,1-3.71,2.14H140.83A4.29,4.29,0,0,1,137.12,849Zm10.59,33.67a3.36,3.36,0,1,1-3.36-3.36A3.36,3.36,0,0,1,147.71,882.69Zm21,41.55L140.8,908.15a4.87,4.87,0,0,1-1.78-6.64l19-32.83h0a4.86,4.86,0,0,1,6.64-1.79L192.5,883a4.87,4.87,0,0,1,1.78,6.64l-19,32.83A4.85,4.85,0,0,1,168.68,924.24ZM189,905.08a3.37,3.37,0,1,1-3.36,3.36A3.36,3.36,0,0,1,189,905.08Zm24,45.73-27.25-15.74,24.67-42.74,27.26,15.74Z"/><path class="cls-1" d="M228.7,851.08l-6.2-3.58a7.16,7.16,0,0,0-9.77,2.62l-4.29,7.43a1.44,1.44,0,0,0,.52,2l16.11,9.3a1.43,1.43,0,0,0,2-.53l4.29-7.43A7.15,7.15,0,0,0,228.7,851.08Zm-3.36,5.65a4,4,0,0,1-8.07,0h0a4,4,0,1,1,8.07,0Z"/><path class="cls-1" d="M287.86,995.56v.21l0,.2,0,.21-.09.21-.1.21-2.51,4.34-.12.19-.13.16-.15.13-.16.12-.17.09-.18.07-.19,0-.21,0h-.22l-.24,0-.24-.06-.26-.07-.27-.1-.28-.12-.3-.15-.31-.17-.3-.18-.28-.19-.25-.18-.22-.19-.2-.19-.17-.18-.14-.19-.12-.19-.09-.19-.06-.2,0-.19v-.19l0-.19,0-.2.08-.2.1-.19,2.51-4.35.13-.21.15-.19.16-.16.18-.13.18-.1.19-.08.2,0,.21,0,.23,0,.23,0,.25.05.25.08.27.1.28.12.29.14.3.17.3.18.28.19.25.18.22.19.19.19.16.2.14.19.11.2.09.19.05.2Zm-18.45-10.84-.06-.2-.08-.19-.12-.2-.13-.19-.17-.2-.19-.19-.22-.19-.25-.18-.28-.19-.3-.18-.3-.17-.29-.14-.28-.12-.26-.1-.26-.08-.25-.05-.23,0h-.44l-.2,0-.19.08-.18.1-.17.13-.16.16-.15.19-.14.21-2.51,4.35-.1.19-.07.2-.05.2,0,.19v.19l0,.19.06.2.09.19.12.19.14.19.17.18.2.19.22.19.25.18.28.19.3.18.31.17.3.15.28.12.27.1.26.07.25.06.23,0h.22l.21,0,.19,0,.18-.07.17-.09.16-.12.15-.13.13-.16.12-.19,2.51-4.34.11-.21.08-.21.05-.21,0-.2v-.21Zm8.53,4.6-.19-.26-.25-.25-.34-.26-.4-.25-1.91-1.11-2,3.43,1.78,1,.48.26.43.18.37.12.32,0,.28,0,.25-.12.23-.2.2-.28.73-1.27.11-.25,0-.26,0-.25Zm28.59,6.39c-3.06,5.48-3,10.08-.29,15.21,3.19,6,2,8.84-4.91,10.92-1.21.37-2.64.54-3,1.7-1.45,5-4.43,2.79-7,1.53-2.81-1.36-5.44-3.06-8.16-4.59-7.69-4.33-7.95-4.44-4.4-12.08,1.31-2.84.69-3.64-1.66-4.92-4.63-2.51-9.2-5.18-13.57-8.11-3.79-2.55-5.77.18-6.82,2.61-2.3,5.35-5.39,4.15-9,1.91-1.63-1-3.21-2.09-4.88-3-9.7-5.47-10.62-7.44-8.22-18.19.72-3.23,2.74-5.18,6.13-5,8.09.37,12.75-3.93,16.29-10.72,5.48-10.53,12.48-20.23,17.47-31.06,1.66-3.6,5.11-3.81,9.52-3.64,3.34,1.2,7.8,1.43,11.85,4.25a168.35,168.35,0,0,0,20.14,11.65c5,2.55,8.08,6.61,10.84,11.19a5.79,5.79,0,0,1-.14,6.11C319.2,972.41,313,984.12,306.53,995.71Zm-61.68-16.15c-.68-1.53-1.46-2.91-3.5-3-2.32-.15-4.77,0-5.06,2.81-.21,2.09,1.84,3.75,3.56,4.14C242.36,984,243.39,981.5,244.85,979.56Zm18.22-.37-1.35-.78-7.45,6.14-.13-.07,1.6-9.52-1.42-.82-1.72,11.17,1.57.91Zm4.9,11.89,2.5-4.33.17-.33.12-.32.09-.31,0-.32v-.31l-.05-.31-.08-.31-.13-.3-.17-.3-.21-.3-.25-.29-.29-.3-.34-.28-.38-.29-.42-.28-.46-.28-.47-.26-.45-.22-.43-.18-.42-.15-.4-.1-.37-.07-.36,0h-.35l-.32.05-.31.08-.29.12-.27.16-.25.19-.23.23L263,982l-.19.31-2.5,4.32-.15.31-.12.3-.08.31,0,.3v.3l.05.3.09.29.13.3.17.29.21.29.25.28.3.29.33.28.38.28.41.28.46.28.43.23.41.21.41.17.4.15.38.11.38.09.36.05.36,0h.34l.32-.06.3-.09.28-.14.26-.18.24-.23.22-.26Zm10.24,1.85.14-.17.12-.19.91-1.58.18-.35.11-.34.05-.31v-.29l-.08-.28-.15-.28-.2-.27-.27-.28-.33-.28-.42-.3-.49-.32-.56-.33L274,985.51l-5.27,9.12,1.37.79,2.25-3.9,1.32.76.36,5.41,1.68,1-.58-5.75.5.26.5.17.48.1h.47l.22,0,.21,0,.2-.07.18-.1.17-.12Zm8.19,8.79,2.5-4.33.17-.33.12-.32.09-.31,0-.32v-.31l-.05-.31-.08-.31-.13-.3-.17-.3-.21-.3-.25-.29-.3-.3-.33-.28-.38-.29-.42-.28-.46-.28-.47-.26-.45-.22-.44-.18-.41-.15-.4-.1-.37-.07-.37,0h-.34l-.32.05-.31.08-.29.12-.27.16-.25.19-.23.23-.22.27-.2.31-2.49,4.32-.16.31-.11.3-.08.31,0,.3v.3l.05.3.09.29.13.3.17.29.21.29.25.28.29.29.34.28.37.28.42.28.46.28.42.23.42.21.41.17.39.15.39.11.38.09.36.05.36,0h.34l.32-.06.3-.09.28-.14.26-.18.24-.23.22-.26Zm13.83-1.07L299,1000l-4.35,7.53-.62-10.4-1.64-1-5.27,9.13,1.2.69,4.42-7.66.54,10.52,1.64.95Zm1.08,11c-2.15.16-4,1.25-3.39,3.53.5,1.81,1.21,4.43,4.19,3.76,3.15.2,3.79-2.44,3.87-4.24C306.1,1012,303.63,1011.51,301.31,1011.68Zm13.87-49.2c0-13.07-11.61-24.92-24.51-24-13.86,1-23.41,9.69-23.87,24.71-.41,13.49,10.07,23.58,23.77,23.6C305.27,986.81,315.19,977,315.18,962.48Z"/><path class="cls-1" d="M321.63,908.53a5.94,5.94,0,0,0-2.52-10.61l-4.23-.75a7.21,7.21,0,0,0-3.1.14l-11.39,3.05A21.4,21.4,0,0,1,285,898.68l-8.82-4.57a2.15,2.15,0,0,0-2,3.81l1.48.77a2.88,2.88,0,0,1,1.45,1.8l2.38,8.89a2.85,2.85,0,0,1-.44,2.4c-.44.62-.85,1.26-1.24,1.91a5.78,5.78,0,0,0-.64,4.17,1.43,1.43,0,0,0,1.72,1.07,1.23,1.23,0,0,0,.41-.17q2.39-1.43,4.88-2.62a1.08,1.08,0,0,0,.51-1.43,1.18,1.18,0,0,0-.37-.43A2.16,2.16,0,0,1,284,911l.21-.2a5.74,5.74,0,0,1,2.48-1.4l17.44-4.68.79-.17.8-.11.81,0,.81,0,.8.11.8.17.77.25.75.31.72.37.68.44.64.49.6.55.55.6.5.64.43.68.38.72,3,6.39a2.15,2.15,0,1,0,3.89-1.81L320.74,912A2.86,2.86,0,0,1,321.63,908.53Zm-1-4.76a2.51,2.51,0,1,1-5,0h0a2.51,2.51,0,0,1,5,0Z"/><path class="cls-1" d="M405.47,894.14H341.66a4.3,4.3,0,0,0-4.3,4.3v3.15a.58.58,0,0,0,.58.57h20.31v-.43a2.43,2.43,0,1,1,3.44,0h0v.43H378a4.87,4.87,0,0,1,4.87,4.86V919.9a2.86,2.86,0,0,0,2.86,2.86h19.74A5.73,5.73,0,0,0,411.2,917V899.87A5.74,5.74,0,0,0,405.47,894.14Zm-8.58,18.25a3.94,3.94,0,1,1,3.93-3.94A3.93,3.93,0,0,1,396.89,912.39Z"/><path class="cls-2" d="M373,921.54H334.32a5.15,5.15,0,0,0-5.15,5.15v10a6.3,6.3,0,0,0,1.85,4.45l6,6a6.29,6.29,0,0,0,4.45,1.84h24.35a6.29,6.29,0,0,0,4.45-1.84l6-6a6.29,6.29,0,0,0,1.84-4.45v-10A5.15,5.15,0,0,0,373,921.54Zm-19.31,18a4.29,4.29,0,1,1,4.29-4.29A4.29,4.29,0,0,1,353.64,939.56Z"/><path class="cls-2" d="M434.61,1026.42l-22.43-12.94a1.44,1.44,0,0,1-.52-2l12.95-22.42a1.43,1.43,0,0,0-.53-2l-54.55-31.5-.56-.28-.59-.22-.6-.14-.62-.06h-.6l-.6.08-.57.16-.53.23-.49.3-.45.36-.38.41-.31.47-43,74.43a4.42,4.42,0,0,0-.28,3.82l1.18,3a4.37,4.37,0,0,0,1.91,2.22l75.1,43.37.51.24.54.17.56.09h.57l.58-.07.57-.14.56-.23.53-.29.5-.37.45-.42.4-.48.35-.52,30.85-53.44A1.44,1.44,0,0,0,434.61,1026.42Zm-33.78-43.34a7.16,7.16,0,1,1-7.16,7.16A7.16,7.16,0,0,1,400.83,983.08Zm-6.68,33a4.29,4.29,0,1,1,4.29,4.29A4.29,4.29,0,0,1,394.15,1016.11ZM402,1055l-2.16,3.74-4.82-9.6,2.16-3.74Zm-33.71-90.74a7.16,7.16,0,1,1-7.15,7.15A7.16,7.16,0,0,1,368.24,964.27ZM360,989.65a4.29,4.29,0,1,1-4.29,4.29A4.3,4.3,0,0,1,360,989.65Zm-22.17,47a4.3,4.3,0,1,1,4.29-4.3A4.3,4.3,0,0,1,337.86,1036.64Zm38.41,22.17a4.29,4.29,0,1,1,4.29-4.29A4.3,4.3,0,0,1,376.27,1058.81Zm10.48-34.57a18.6,18.6,0,0,1-37.2,0h0a18.6,18.6,0,0,1,37.2,0Zm8.53,51.71a7.16,7.16,0,1,1,7.15-7.15A7.16,7.16,0,0,1,395.28,1076Zm13.31-14.48-9.65-19.21,2.16-3.73,9.65,19.2Zm4-6.89-4.83-9.6,2.16-3.74,4.83,9.6Zm3.74-15a7.16,7.16,0,1,1,7.15-7.16A7.17,7.17,0,0,1,416.31,1039.53Z"/><path class="cls-2" d="M907.17,252.36l-81.76-47.2a2.86,2.86,0,0,0-3.91,1h0l-1.43,2.48,2.48,1.43a2.86,2.86,0,0,0-3.91,1l-12.89,22.31a4.28,4.28,0,0,1-3.71,2.15H788.82a8.59,8.59,0,0,0-7.43,4.29l-6.61,11.45a8.59,8.59,0,0,0,0,8.58l6.61,11.44a4.27,4.27,0,0,1,0,4.29L777.15,283a2.86,2.86,0,0,0,1.05,3.91l7.43,4.29a1.16,1.16,0,0,0,.42,1.57l32.71,18.88a1.14,1.14,0,0,0,1.56-.42l7.43,4.29a1.15,1.15,0,0,0,.42,1.56L852,330.83a1.15,1.15,0,0,0,1.57-.41l7.43,4.29a1.43,1.43,0,0,0,1.95-.53,1.39,1.39,0,0,0,.15-1.05,7.88,7.88,0,0,1,.83-5.82l6.38-11.05.11-.18a7.78,7.78,0,0,0,.53-6.62,4.23,4.23,0,0,1,.29-3.67l14.18-24.56a4.3,4.3,0,0,1,3-2.1,7.7,7.7,0,0,0,5.47-3.76l.1-.18,6.39-11.06a7.86,7.86,0,0,1,4.62-3.62,1.42,1.42,0,0,0,1-1.77,1.39,1.39,0,0,0-.66-.84l1.48.85,1.43-2.48A2.86,2.86,0,0,0,907.17,252.36Zm-56.4-12.45H864a4.3,4.3,0,0,1,3.72,2.15l6.6,11.44a4.27,4.27,0,0,1,0,4.29l-6.6,11.45a4.32,4.32,0,0,1-3.72,2.14H850.77a4.3,4.3,0,0,1-3.72-2.14l-6.61-11.45a4.32,4.32,0,0,1,0-4.29l6.61-11.44A4.29,4.29,0,0,1,850.77,239.91Zm-7.44,35.76-6.6,11.45a4.3,4.3,0,0,1-3.72,2.14H819.79a4.27,4.27,0,0,1-3.71-2.14l-6.61-11.45a4.27,4.27,0,0,1,0-4.29l6.61-11.44a4.28,4.28,0,0,1,3.71-2.15H833a4.3,4.3,0,0,1,3.72,2.15l6.6,11.44A4.27,4.27,0,0,1,843.33,275.67Zm-33.86-40.05,6.61-11.44a4.28,4.28,0,0,1,3.71-2.15H833a4.3,4.3,0,0,1,3.72,2.15l6.6,11.44a4.27,4.27,0,0,1,0,4.29l-6.6,11.45A4.32,4.32,0,0,1,833,253.5H819.79a4.29,4.29,0,0,1-3.71-2.14l-6.61-11.45A4.27,4.27,0,0,1,809.47,235.62Zm-31,22.17a4.27,4.27,0,0,1,0-4.29l6.61-11.44a4.28,4.28,0,0,1,3.71-2.15H802a4.28,4.28,0,0,1,3.71,2.15l6.61,11.44a4.27,4.27,0,0,1,0,4.29l-6.61,11.45a4.29,4.29,0,0,1-3.71,2.14H788.82a4.29,4.29,0,0,1-3.71-2.14Zm33.86,35.77-.66,1.14a2.86,2.86,0,0,1-3.91,1.05l-22.3-12.88a2.86,2.86,0,0,1-1-3.91h0l.66-1.14a4.28,4.28,0,0,1,3.71-2.15H802a4.28,4.28,0,0,1,3.71,2.15l6.61,11.44A4.29,4.29,0,0,1,812.36,293.56Zm31,17.88-.66,1.14a2.86,2.86,0,0,1-3.91,1.05l-22.3-12.88a2.86,2.86,0,0,1-1-3.9l.66-1.15a4.27,4.27,0,0,1,3.71-2.14H833a4.3,4.3,0,0,1,3.72,2.14l6.6,11.45A4.27,4.27,0,0,1,843.33,311.44Zm23.29,4.29-4.62,8a2.86,2.86,0,0,1-3.91,1.05l-10.65-6.15a2.86,2.86,0,0,1-1.05-3.91l.66-1.15a4.28,4.28,0,0,1,3.72-2.14h13.38A2.86,2.86,0,0,1,867,314.3,2.8,2.8,0,0,1,866.62,315.73Zm7.68-22.17L867.7,305a4.3,4.3,0,0,1-3.72,2.15H850.77a4.29,4.29,0,0,1-3.72-2.15l-6.61-11.44a4.34,4.34,0,0,1,0-4.3l6.61-11.44a4.29,4.29,0,0,1,3.72-2.15H864a4.3,4.3,0,0,1,3.72,2.15l6.6,11.44A4.29,4.29,0,0,1,874.3,293.56Zm23.3-31.48-6.68,11.57a4.28,4.28,0,0,1-3,2.09,7.76,7.76,0,0,0-5.47,3.77l-1.91,3.32a2.87,2.87,0,0,1-3.91,1,2.91,2.91,0,0,1-1.05-1l-4.13-7.16a4.32,4.32,0,0,1,0-4.29L878,259.94a4.29,4.29,0,0,1,3.72-2.15h13.38a2.86,2.86,0,0,1,2.48,4.29Z"/><path class="cls-1" d="M987.68,296.64l-63.19-36.48a6.43,6.43,0,0,0-8.79,2.35L879.22,325.7a6.43,6.43,0,0,0,2.36,8.79L944.76,371a6.44,6.44,0,0,0,8.79-2.36L990,305.43A6.43,6.43,0,0,0,987.68,296.64ZM920.6,276.9a41.09,41.09,0,0,1,28,0,3.51,3.51,0,0,1,.68.32,4.29,4.29,0,0,1,1.57,5.86L945,293.39a4.28,4.28,0,0,1-3.72,2.14H928a4.3,4.3,0,0,1-3.72-2.14l-5.95-10.31a4.66,4.66,0,0,1-.32-.68A4.3,4.3,0,0,1,920.6,276.9ZM926,322.13l-4.17-2.41,21.45-10.78,4.17,2.41Zm18.42-.95-10.72,5.39-4.18-2.41,10.73-5.39Zm-19.56-11.3,10.73-5.39,4.17,2.41-10.72,5.39Zm-24.61-16.95-2.42,4.2A41.86,41.86,0,0,1,900.28,292.93Zm-6.15,15.44a41.37,41.37,0,0,1,2.11-7.58c.15-.38.3-.76.46-1.13l5.19-9q.38-.5.75-1a40.73,40.73,0,0,1,5.52-5.62,4.27,4.27,0,0,1,6,.52,3.81,3.81,0,0,1,.43.62l6,10.3a4.34,4.34,0,0,1,0,4.3L914,311.27a4.29,4.29,0,0,1-3.72,2.15h-11.9a4.3,4.3,0,0,1-4.29-4.3A4.74,4.74,0,0,1,894.13,308.37Zm20.07,38.15a4.29,4.29,0,0,1-6,.52,41.17,41.17,0,0,1-14-24.29,4.74,4.74,0,0,1-.06-.75,4.29,4.29,0,0,1,4.29-4.29h11.9a4.3,4.3,0,0,1,3.72,2.14l6.61,11.45a4.32,4.32,0,0,1,0,4.29l-6,10.31A4.3,4.3,0,0,1,914.2,346.52Zm34.45,7.71a41.21,41.21,0,0,1-28,0,6,6,0,0,1-.68-.32,4.31,4.31,0,0,1-1.57-5.87l5.95-10.3a4.3,4.3,0,0,1,3.72-2.15h13.21a4.29,4.29,0,0,1,3.72,2.15L950.9,348a3.6,3.6,0,0,1,.32.69A4.29,4.29,0,0,1,948.65,354.23Zm20.32-16,2.42-4.2A39.75,39.75,0,0,1,969,338.19Zm6.15-15.44a41.37,41.37,0,0,1-2.11,7.58c-.15.38-.3.76-.46,1.14l-5.19,9q-.36.48-.75,1A41.8,41.8,0,0,1,961.1,347a4.3,4.3,0,0,1-6.05-.52,5.27,5.27,0,0,1-.43-.62l-6-10.31a4.27,4.27,0,0,1,0-4.29l6.6-11.45a4.32,4.32,0,0,1,3.72-2.14H970.9a4.29,4.29,0,0,1,4.29,4.29A3.81,3.81,0,0,1,975.12,322.75Zm-4.22-9.33H959a4.3,4.3,0,0,1-3.72-2.15l-6.6-11.44a4.29,4.29,0,0,1,0-4.3l6-10.3a4.55,4.55,0,0,1,.43-.62,4.29,4.29,0,0,1,6.05-.52,41.13,41.13,0,0,1,14,24.28,3.81,3.81,0,0,1,.07.75A4.3,4.3,0,0,1,970.9,313.42Z"/><path class="cls-2" d="M834.92,341.28a5.56,5.56,0,0,0-2.59-3.39l-14.69-8.48,0-.2,14.75,8.52L796.87,317.2a24.41,24.41,0,0,1-9.38-9.71,7.15,7.15,0,0,1-.62-1.61,5.62,5.62,0,0,0-2.64-3.51,8.73,8.73,0,0,1-1-.69c-1.29-1.08-2.62-2.1-4-3.09l-.09.15q-2.7-2-5.57-3.69a1.24,1.24,0,0,0-1.71.42v0l-1.54,2.68-.13-.15-11.74,20.33-1.23,2.14-.18.33-.15.35-.26.74-.22.74-.19.71,0,.28.06.28.13.25.09.11.11.08,4,2.33-5.31,9.19-4-2.33-.13-.05-.13,0-.28,0-.27.09-.26.12-.52.52-.53.56-.51.59-.23.31-.2.32-1.23,2.13-.9,1.55.11-.16.13-.16.15-.13.15-.12-3.24,5.62-.23,0,1.68-2.92-8.48,14.7h.21L734,361.18a1.24,1.24,0,0,0,.45,1.7h0a77.6,77.6,0,0,0,10.62,4.86,7.71,7.71,0,0,1,1.13.52,5.42,5.42,0,0,0,4.22.52,7.34,7.34,0,0,1,1.75-.27,24.57,24.57,0,0,1,13.19,3.28l35.56,20.53a5.53,5.53,0,0,0,4.23.54,24.09,24.09,0,0,0,14.53-11.21l12.81-22.19A24.14,24.14,0,0,0,834.92,341.28Zm-82.47,22.25a3.55,3.55,0,0,1-7.09,0h0a3.55,3.55,0,0,1,7.09,0Zm6.69-46,0-.19.05-.19.07-.19.08-.18,4-6.85.11.18Zm8.68,6.5a4.29,4.29,0,1,1,4.29,4.29A4.29,4.29,0,0,1,767.82,324.05Zm8.6,31.3a6.26,6.26,0,1,1,6.26-6.26A6.26,6.26,0,0,1,776.42,355.35Zm5-44.73a3.37,3.37,0,1,1,3.37-3.36A3.37,3.37,0,0,1,781.39,310.62Zm15.19,48.08-2.14-4.26,1-1.66,2.14,4.26Zm-.37-7.31.95-1.66,4.29,8.52-1,1.66Zm4.86-.46,2.14,4.26-1,1.66-2.14-4.26Zm11,37.14a4.29,4.29,0,0,1-5.86,1.57l-.87-.5a4.29,4.29,0,0,1,4.29-7.43l.87.5A4.29,4.29,0,0,1,812,388.07Zm1.58-7a4.29,4.29,0,1,1,4.3-4.29A4.29,4.29,0,0,1,813.62,381Zm20.58-31.36a4.29,4.29,0,0,1-5.85,1.57l-.87-.5a4.29,4.29,0,0,1,4.29-7.44l.87.5A4.3,4.3,0,0,1,834.2,349.67Z"/><path class="cls-2" d="M895.18,357.39l-.56-.56H848.81l-.56.56V392l.26.28.29.31h45.81l.29-.31.27-.28Zm-34,26.78a4.29,4.29,0,1,1-8.58,0v0a4.29,4.29,0,1,1,8.58,0Zm29.75,0a4.29,4.29,0,1,1-8.58,0v0a4.29,4.29,0,1,1,8.58,0Z"/><path class="cls-2" d="M991.31,390.68H975.57a13.61,13.61,0,0,1-6.31-1.56,11.54,11.54,0,0,0-5.31-1.3H948.23a11.4,11.4,0,0,1-4.2-.8A19.31,19.31,0,1,0,929.86,423l.87.32a59.63,59.63,0,0,0,19.19,3.17h41.39a4.29,4.29,0,0,0,4.29-4.29V395A4.29,4.29,0,0,0,991.31,390.68ZM946.07,405a9.13,9.13,0,1,1-18.25,0v0a9.13,9.13,0,0,1,18.25,0Zm16.63,3.83a3.86,3.86,0,1,1,3.86-3.86A3.86,3.86,0,0,1,962.7,408.84Zm22.88,0a3.86,3.86,0,1,1,3.87-3.86A3.86,3.86,0,0,1,985.58,408.84Z"/><path class="cls-2" d="M770.64,417.73l-19.82-11.44a2.86,2.86,0,0,1-1.05-3.91l2.91-5,.3-.55.27-.56.24-.58.21-.59.19-.6.15-.6.12-.61.08-.62.06-.62,0-.63v-.62l0-.62-.08-.62-.12-.61-.16-.6-.2-.59-.2-.46-.26-.44-.29-.42-.33-.38-.53-.52-.54-.51-.56-.48-.58-.47-.6-.44-.61-.42-.62-.39-.64-.37-4.65-2.59L741,378.54l-2.29-1.27-9-5-.23-.1-.24-.06H729l-.24,0-.22.09-.21.14-.17.17-.14.2-3.45,6-.12.28-.05.3,0,.3.08.29.14.28.17.24.23.21.25.17,5.41,3.13.53,1.95-18.6,32.21a1.43,1.43,0,0,1-2,.53l-7.44-4.3a1.43,1.43,0,0,0-2,.53l-3.06,5.29a5.72,5.72,0,0,0,2.1,7.82l3,1.75a5.73,5.73,0,0,1,2.33,2.54l1.78,3.82a14.36,14.36,0,0,0,5.82,6.35l32.34,18.67a4.29,4.29,0,0,0,5.86-1.57l20.74-35.93A4.28,4.28,0,0,0,770.64,417.73Zm-41.58-2.37a3.73,3.73,0,0,1-1.36-5.08l7.15-12.39a3.72,3.72,0,0,1,6.45,3.72L734.14,414A3.72,3.72,0,0,1,729.06,415.36Zm14.67,32.82a3.87,3.87,0,1,1,3.86-3.87A3.86,3.86,0,0,1,743.73,448.18Zm11.45-19.83a3.86,3.86,0,1,1,3.86-3.86A3.86,3.86,0,0,1,755.18,428.35Z"/><path class="cls-2" d="M764.83,487.63l-.49-3.22a4.41,4.41,0,0,0-2.16-3.16l-74.43-43-.51-.25-.54-.17-.56-.09h-.57l-.58.07-.57.15-.56.22-.53.3-.5.36-.45.42-.41.48-.34.53-31.5,54.55a1.43,1.43,0,0,0,.53,2l22.42,12.95a1.44,1.44,0,0,1,.52,2l-12.94,22.42a1.42,1.42,0,0,0,.52,2l53.44,30.86.56.28.59.21.6.14.62.07h.6l.6-.09.57-.15.53-.23.49-.3.44-.36.39-.42.31-.46,43.36-75.11A4.37,4.37,0,0,0,764.83,487.63ZM709,464.41a4.29,4.29,0,1,1-4.29,4.29A4.29,4.29,0,0,1,709,464.41Zm-18.37-18.26a7.16,7.16,0,1,1-7.15,7.16A7.16,7.16,0,0,1,690.63,446.15Zm8.53,83.65L702.9,532l-9.61,4.82-3.73-2.15ZM671.82,493a7.15,7.15,0,1,1,7.15-7.15A7.15,7.15,0,0,1,671.82,493Zm7.66,44.23a7.15,7.15,0,1,1,7.16-7.15A7.15,7.15,0,0,1,679.48,537.27Zm3-30.16a4.3,4.3,0,1,1,4.3,4.29A4.3,4.3,0,0,1,682.53,507.11Zm4.31,36.32,19.2-9.65,3.74,2.16-19.2,9.65Zm10.62,6.13-3.73-2.16,9.6-4.82,3.74,2.16Zm18.45,8.74a7.15,7.15,0,1,1,7.15-7.15A7.16,7.16,0,0,1,715.91,558.3Zm9.32-24.73a4.29,4.29,0,1,1,4.29-4.29A4.29,4.29,0,0,1,725.23,533.57Zm-8.12-16A18.59,18.59,0,0,1,698.52,499v0a18.6,18.6,0,1,1,18.59,18.63Zm30.29-22.43a4.29,4.29,0,1,1,4.29-4.29A4.29,4.29,0,0,1,747.4,495.16Z"/><path class="cls-2" d="M687.48,567.79l-45.22-26.11a2.86,2.86,0,0,0-3.91,1.05l-11.44,19.82a2.86,2.86,0,0,0,1,3.91l1.78,1a11.38,11.38,0,0,1,5.33,6.94l.32,1.19a42.88,42.88,0,0,1,.23,21.32,19.31,19.31,0,1,0,38.06,3.95,11.46,11.46,0,0,1,1.53-6.11l13.32-23.08A2.87,2.87,0,0,0,687.48,567.79Zm-46.64-8.18h0a3.87,3.87,0,0,1,7.73,0h0a3.87,3.87,0,1,1-7.73,0Zm22.43,41.93a8.9,8.9,0,0,1-17.8,0h0a8.9,8.9,0,0,1,17.8,0Zm6.83-23.4a3.87,3.87,0,1,1,3.87-3.86A3.86,3.86,0,0,1,670.1,578.14Z"/><path class="cls-2" d="M658.53,643.74l-21.44-12.37a11.61,11.61,0,0,1-4-3.84l-.45-.71-.45-.66-.45-.62-.44-.59a31.91,31.91,0,0,0-9-7.92,6.24,6.24,0,0,1-2.1-2,.57.57,0,0,0-1,.62,7.36,7.36,0,0,0,2.54,2.42,1.21,1.21,0,0,1,.42.42,1.16,1.16,0,0,1-.42,1.57l-1.9,1.09-1.21.7a1.41,1.41,0,0,1-1.43,0l-2.57-1.48a1.44,1.44,0,0,1-.52-2l3.59-6.23.11-.22.06-.23,0-.24,0-.24-.06-.23-.09-.23-.13-.2-.17-.18a6,6,0,0,0-1-.73l-11.43-6.6-.18-.1-.8-.47-.48-.22-.51-.15-.52-.06-.52,0-.5.12-.47.2-.42.28-.36.35-.29.41-19,33-.59,1.08-.56,1.11-.52,1.15-.48,1.17-.44,1.21-.41,1.22-.35,1.24-.32,1.26-.72,3.1-.16.69-1.29,5.59a12.07,12.07,0,0,0-.2,4.4,4.32,4.32,0,0,0,2.11,3.12l52.86,30.52a5.72,5.72,0,0,0,7.82-2.1l22.89-39.64A5.72,5.72,0,0,0,658.53,643.74Zm-28.11,5a2.43,2.43,0,1,1,4.86,0h0a2.43,2.43,0,1,1-4.86,0Zm-14-22.47h6.94l3.47,6-3.47,6h-6.94l-3.46-6Zm-21.26,17h-6.94l-3.47-6,3.47-6h6.94l3.47,6Zm7.55-21.23a3.86,3.86,0,0,1-3.86-3.87h0a3.87,3.87,0,0,1,7.73,0h0A3.88,3.88,0,0,1,602.67,622.05Zm6.57,35.19-3.47-6,3.47-6h6.93l3.47,6-3.47,6ZM619,668.56h0a2.43,2.43,0,0,1,4.86,0h0a2.43,2.43,0,0,1-4.86,0Zm13.19,12.82a2.85,2.85,0,0,1-3.9,1l-3.72-2.14a2.86,2.86,0,0,1-1-3.91l17.17-29.74a2.87,2.87,0,0,1,3.91-1l3.71,2.14a2.86,2.86,0,0,1,1.05,3.91Zm10.25-2.09a2.43,2.43,0,0,1-4.86,0h0a2.43,2.43,0,0,1,4.86,0Zm11.45-19.82a2.44,2.44,0,0,1-4.87,0h0a2.44,2.44,0,1,1,4.87,0Z"/><path class="cls-1" d="M613.34,699.38,573,676.06a8.59,8.59,0,0,0-11.73,3.15l-.24.41-2.24,3.88L494.33,795.08,492.09,799l-.24.41A8.58,8.58,0,0,0,495,811.1l40.39,23.32a8.58,8.58,0,0,0,11.72-3.14l.33-.56,2.07-3.59,64.59-111.87,2.07-3.59.32-.56A8.58,8.58,0,0,0,613.34,699.38Zm-96.77,121-2.42-4.8,1.08-1.86,2.42,4.8Zm4.4,1.36-4.83-9.6,1.08-1.87,4.83,9.6Zm2-3.44-2.41-4.8,1.08-1.87,2.41,4.8Zm67.67-68.13-16.38,28.37-8.58,14.86-16.38,28.37a1.44,1.44,0,0,1-2,.53L499.5,794.71a1.44,1.44,0,0,1-.52-2l41.34-71.6a1.43,1.43,0,0,1,1.95-.53l.31.18,39.65,22.89,7.86,4.54A1.44,1.44,0,0,1,590.62,750.19Zm10.6-28.08a3.57,3.57,0,0,1-4.89,1.31h0l-6.07-3.5L588,718.59a2.86,2.86,0,0,0-3.91,1l-2.15,3.72a1.42,1.42,0,0,1-1.95.52l-19.82-11.44a1.44,1.44,0,0,1-.53-2l10.73-18.58a1.44,1.44,0,0,1,2-.52l19.82,11.44a1.44,1.44,0,0,1,.52,2l-2.14,3.71a2.87,2.87,0,0,0,1,3.91l2.3,1.32,6.07,3.51A3.57,3.57,0,0,1,601.22,722.11Z"/><path class="cls-2" d="M476.34,967.69a14.48,14.48,0,0,0,14.11-14.84,1.21,1.21,0,0,0,0-.19l-1.09-28.57a21,21,0,0,0-21.78-20.17l-1,.06L449.2,905.5a14.15,14.15,0,0,0-9.59,5l-14.06,16.76a1.25,1.25,0,0,0,.15,1.75l10,8.4-19.13,22.79L427,969Zm5.11-9.88-6.72,2.45-5.47-4.6,1.24-7,6.72-2.44,5.47,4.59Zm.55-17.58a2.26,2.26,0,1,1-2.26,2.25A2.25,2.25,0,0,1,482,940.23Zm-24.73-24.66a2.87,2.87,0,0,1,4-.35l2.34,2a.71.71,0,0,0,.79.09,8.7,8.7,0,0,1,1.41-.58l-.17-.14a8.81,8.81,0,0,1,3.92-.34l-.14.17a8.61,8.61,0,0,1,1.49.32.71.71,0,0,0,.76-.22l2-2.34a2.86,2.86,0,0,1,4.38,3.68l-2,2.33a.72.72,0,0,0-.08.79,9,9,0,0,1,.57,1.41l.14-.16a8.67,8.67,0,0,1,.34,3.92l-.16-.14a7.54,7.54,0,0,1-.33,1.48.75.75,0,0,0,.23.77l2.33,2a2.86,2.86,0,1,1-3.67,4.38l-2.34-2a.71.71,0,0,0-.79-.09,7.89,7.89,0,0,1-1.41.58l.17.14a8.7,8.7,0,0,1-3.92.34l.14-.16a9.43,9.43,0,0,1-1.49-.33.72.72,0,0,0-.76.22l-2,2.34A2.86,2.86,0,0,1,458.7,932l2-2.33a.72.72,0,0,0,.09-.79,9.09,9.09,0,0,1-.58-1.41l-.13.16a8.79,8.79,0,0,1-.35-3.91l.17.13a8.31,8.31,0,0,1,.32-1.48.7.7,0,0,0-.22-.76l-2.34-2A2.88,2.88,0,0,1,457.27,915.57Zm-10.65-1.45a2.26,2.26,0,1,1-2.25,2.26A2.26,2.26,0,0,1,446.62,914.12Zm-15.57,41a2.26,2.26,0,1,1-2.25,2.26A2.26,2.26,0,0,1,431.05,955.14Z"/><path class="cls-2" d="M536.27,864.47l-3.4-2a1.57,1.57,0,0,1-.68-1.92,34,34,0,0,1,5.38-9.32,2.88,2.88,0,0,0,.61-2.06,5.44,5.44,0,0,0-2.65-4l-3-1.72-1-.56-.29-.14-.41-.1h-.39l-.38.08-.32.15-.12.07a14.8,14.8,0,0,1-22.87-13.2v-.14l0-.35-.12-.37-.21-.33-.29-.3-.26-.19-1-.56-23.27-13.43a5.73,5.73,0,0,0-4.38-.57,24.3,24.3,0,0,0-14.63,11.3L449.82,847a24.35,24.35,0,0,0-2.46,18.33,5.71,5.71,0,0,0,2.67,3.5L503.91,900a5.41,5.41,0,0,0,4.79.3,2.81,2.81,0,0,0,1.47-1.56,34.29,34.29,0,0,1,5.39-9.32,1.58,1.58,0,0,1,2-.37l3.4,2h0l.51.29a1.43,1.43,0,0,0,2-.53l1.93-3.34,10-17.35,1.93-3.34a1.43,1.43,0,0,0-.53-2l-.5-.3ZM455,860.83a2.51,2.51,0,0,1-3.42.91l-.86-.5a2.5,2.5,0,0,1,2.5-4.34l.87.51A2.51,2.51,0,0,1,455,860.83Zm17-41.41a2.5,2.5,0,0,1,3.42-.92l.87.5a2.5,2.5,0,0,1-2.5,4.34l-.87-.5A2.51,2.51,0,0,1,472,819.42Zm-6.56,10.43a3.43,3.43,0,1,1,6.86,0h0a3.43,3.43,0,1,1-6.86,0Zm28,53.14a2.5,2.5,0,0,1-3.42.92l-.87-.5a2.5,2.5,0,1,1,2.5-4.33l.87.5A2.5,2.5,0,0,1,493.4,883Zm3.71-23.47A16.17,16.17,0,0,1,475,865.46l-.87-.5a16.17,16.17,0,0,1,16.17-28l.87.5A16.16,16.16,0,0,1,497.11,859.52Zm3.06-2a5.87,5.87,0,1,1,5.86,5.87A5.86,5.86,0,0,1,500.17,857.5Zm6.35,37.66a3.43,3.43,0,1,1,3.44-3.43A3.43,3.43,0,0,1,506.52,895.16Zm3.82-9.92a2.7,2.7,0,1,1,2.71-2.7A2.7,2.7,0,0,1,510.34,885.24ZM529.7,854.1a2.51,2.51,0,1,1,2.5-2.51A2.51,2.51,0,0,1,529.7,854.1Z"/><path class="cls-2" d="M541.76,1009.49,488.89,979a4.28,4.28,0,0,0-3.74-.27,11.91,11.91,0,0,0-3.72,2.37L477.24,985l-.52.49-2.33,2.17-.93.9-.9.94-.86,1-.82,1-.77,1-.74,1-.68,1-.64,1-19,33-.21.46-.12.48,0,.51.06.5.15.5.24.46.31.42.38.37.43.3.8.47.19.1,11.42,6.6a5.65,5.65,0,0,0,3,.76c.82,0,1.65-.07,2.47-.17a6.34,6.34,0,0,1,3.82.77,31.72,31.72,0,0,0,14.47,4.08,11.44,11.44,0,0,1,5.32,1.52L513.15,1059A5.72,5.72,0,0,0,521,1057l22.89-39.65A5.72,5.72,0,0,0,541.76,1009.49Zm-28.11,5a2.43,2.43,0,1,1,4.86,0h0a2.43,2.43,0,1,1-4.86,0Zm-46.71,9a3.86,3.86,0,0,1-7.72,0h0a3.86,3.86,0,1,1,7.72,0Zm3.7-13.09-3.47-6,3.47-6h6.93l3.47,6-3.47,6Zm16.7,26.93h-6.93l-3.47-6,3.47-6h6.93l3.47,6Zm5.91-15.67-3.47-6,3.47-6h6.94l3.46,6-3.46,6Zm8.95,12.68h0a2.44,2.44,0,0,1,4.87,0h0a2.44,2.44,0,1,1-4.87,0Zm13.2,12.83a2.86,2.86,0,0,1-3.91,1l-3.71-2.14a2.86,2.86,0,0,1-1-3.91l17.16-29.73a2.86,2.86,0,0,1,3.91-1l3.72,2.15a2.85,2.85,0,0,1,1.05,3.9Zm10.25-2.1a2.43,2.43,0,1,1-4.86,0h0a2.43,2.43,0,1,1,4.86,0Zm11.44-19.82a2.43,2.43,0,0,1-4.86,0h0a2.43,2.43,0,1,1,4.86,0Z"/><path class="cls-1" d="M533.71,914.52l-5.61-2a6.73,6.73,0,0,0-9,6.32v1.09a4.73,4.73,0,0,1-1.26,3.21,5.74,5.74,0,0,0-1.53,3.89v5.49l.65.64H518a2.15,2.15,0,0,1,1.1,4.15,2.27,2.27,0,0,1-1.1,0h-1.09l-.65.64v8.89a4.59,4.59,0,0,0,2,3.77l4.44,3.06a7.15,7.15,0,0,1,3.09,5.89v17.41a1.43,1.43,0,0,0,1.43,1.43h0a58.14,58.14,0,0,0,7-.58V915.29Zm-7.91,6.57a2.28,2.28,0,0,1-2.28-2.29h0a2.29,2.29,0,1,1,2.28,2.29Z"/><path class="cls-2" d="M605.52,930.83H576.91l-.49,0-.48-.06-.49-.1-.49-.14-.45-.11-1.3-.22-.14-.37-.2-.36-.25-.31-.29-.29-.49-.46-.48-.52-.23-.29-.22-.36-.2-.41-.17-.46-.14-.5-.1-.54-.07-.55,0-.56v-4.63l0-.56.07-.55.1-.53.14-.5.17-.46.2-.42.22-.35.23-.3.48-.51.49-.47.29-.29.24-.31.21-.35.13-.37,1.31-.22.45-.11.21-.07.45-.1.53-.08.61,0,.67,0h1.83l2.08,0h22.74a2.84,2.84,0,0,0,2.84-2.84V897.93a2.84,2.84,0,0,0-2.84-2.84H559.61a4.26,4.26,0,0,0-2.37.72l-5.59,3.72a4.28,4.28,0,0,0-1.9,3.56v48.33a4.25,4.25,0,0,0,1.9,3.55l5.59,3.73a4.26,4.26,0,0,0,2.37.72h44.47a2.84,2.84,0,0,0,2.84-2.84V932.26A1.43,1.43,0,0,0,605.52,930.83ZM590.14,904a2.5,2.5,0,1,1,5,0h0a2.5,2.5,0,0,1-5,0ZM595,951.58a2.51,2.51,0,1,1-5,0h0a2.51,2.51,0,0,1,5,0Z"/><path class="cls-2" d="M675.31,895.69H626.67a4.29,4.29,0,0,0-4.29,4.29v31.47a2.86,2.86,0,0,0,2.86,2.86h25.65a7.15,7.15,0,0,0,5.06-2.09l22.4-22.4a4.28,4.28,0,0,0,1.25-3V900A4.29,4.29,0,0,0,675.31,895.69Zm-9.94,21-7.75,7.74a1.42,1.42,0,0,1-2,0,1.41,1.41,0,0,1-.42-1v-7.74a1.43,1.43,0,0,1,1.43-1.43h7.75a1.43,1.43,0,0,1,1,2.44Z"/><path class="cls-2" d="M646.92,1011.74l-34.69-20a4.29,4.29,0,0,0-5.86,1.57l-11.79,20.41a1.42,1.42,0,0,1-2,.52l-14.87-8.58a7.16,7.16,0,0,0-9.77,2.62L506.7,1114.42a7.15,7.15,0,0,0,2.61,9.77l17.35,10a4.28,4.28,0,0,0,5.86-1.57l6.76-11.71a7.16,7.16,0,0,1,4.34-3.33l34.41-9.22a14.34,14.34,0,0,0,8.69-6.66l18.85-32.66a28.63,28.63,0,0,1,13.42-12,5.14,5.14,0,0,0,2.39-2.1A32.82,32.82,0,0,1,633,1043.41a4.29,4.29,0,0,0,1.53-1.55l14-24.26A4.29,4.29,0,0,0,646.92,1011.74Zm-118.1,105.38a3.86,3.86,0,1,1-3.86-3.87,3.86,3.86,0,0,1,3.86,3.87Zm7.58-16a3.87,3.87,0,1,1,3.87-3.86A3.86,3.86,0,0,1,536.4,1101.16ZM570.9,1018a3.87,3.87,0,0,1,7.73,0h0a3.87,3.87,0,1,1-7.73,0Zm-6.65,15.7a2.51,2.51,0,1,1-2.5,2.51A2.51,2.51,0,0,1,564.25,1033.68Zm-15.92,34a3.87,3.87,0,1,1,3.86-3.86A3.86,3.86,0,0,1,548.33,1067.7Zm32.15,31.57a2.51,2.51,0,1,1,2.51-2.5A2.5,2.5,0,0,1,580.48,1099.27Zm7.35-27.17a16.46,16.46,0,0,1-31.78-3.49,3,3,0,0,1,.2-1.47,8.67,8.67,0,0,0,.53-4.8,2.76,2.76,0,0,1,.13-1.48,16.45,16.45,0,1,1,30.92,11.24Zm17.33-13.73a2.51,2.51,0,1,1-5,0h0a2.51,2.51,0,1,1,5,0Zm11.21-50a3.86,3.86,0,1,1-7.72,0h0a3.86,3.86,0,0,1,7.72,0Zm19.82,11.44a3.86,3.86,0,0,1-7.72,0h0a3.86,3.86,0,1,1,7.72,0Z"/><path class="cls-2" d="M700.41,1011.91l-2.78-4.82a1.44,1.44,0,0,0-1.93-.48l-.35.21-.23.08h-.24l-.11,0-.11,0-.09-.07-.07-.09.94-.55.44-.25a1.44,1.44,0,0,0,.53-2l-16.88-29.23a1.44,1.44,0,0,0-2-.53l-.44.26-.94.54h0l0-.12,0-.11v-.12l0-.12.12-.2.19-.16.35-.2a1.43,1.43,0,0,0,.55-1.91l-2.78-4.82a2.86,2.86,0,0,0-3.87-1L650.24,978a7.16,7.16,0,0,0-3.33,4.34l-1.61,6a7.17,7.17,0,0,0,.71,5.42l17.07,29.56a7.16,7.16,0,0,0,4.34,3.33l6,1.61a7.19,7.19,0,0,0,5.43-.71l20.48-11.83A2.86,2.86,0,0,0,700.41,1011.91Zm-9-3.11,0,.11-.12.21-.19.15-7.66,4.42a2.86,2.86,0,0,1-3.91-1l-6.81-11.8a5.3,5.3,0,0,1-2.4-4.15l-6.81-11.8a2.86,2.86,0,0,1,1-3.91l7.66-4.43.23-.08h.24l.11,0,.11,0,.09.08.07.09h0l-1,.58-6.76,3.9a2.86,2.86,0,0,0-1.27,3.42l6.92,12,.33-.19a4.3,4.3,0,1,1,2.14,3.71l-.33.19,6.92,12a2.86,2.86,0,0,0,3.6.61l6.76-3.91,1-.58,0,.11,0,.11Z"/><path class="cls-1" d="M735.44,865.36A18.6,18.6,0,1,1,754.05,884a18.59,18.59,0,0,1-18.61-18.61v0Zm22.38-6.26,5.88,11.69,2.53-4.37-5.88-11.7Zm-11-3.4,11.91,23.7,2.53-4.37-11.91-23.7Zm.91,20.31,2.52-4.38-5.87-11.7-2.53,4.38Z"/><path class="cls-2" d="M845.23,928l-.06-.23-.1-.23-2.5-4.5-2.49-4.48-1.27-2.29L837.52,914l-2.59-4.65-.37-.64-.39-.62-.42-.62-.44-.59-.47-.58-.48-.56-.51-.54-.52-.53-.38-.33-.42-.3-.44-.25-.46-.2-.57-.19-.57-.16-.58-.12-.6-.08-.61,0-.61,0h-.62l-.63,0-.62.08-.63.12-.63.15-.61.18-.6.22-.6.24-.57.28-.57.3-5,2.91a2.85,2.85,0,0,1-3.9-1L799.62,886.6a4.29,4.29,0,0,0-5.86-1.57l-35.93,20.75a4.29,4.29,0,0,0-1.57,5.86L774.93,944a14.34,14.34,0,0,0,6.35,5.81l3.83,1.79a5.74,5.74,0,0,1,2.53,2.32l1.75,3a5.72,5.72,0,0,0,7.82,2.1L802.5,956a1.43,1.43,0,0,0,.53-2l-4.3-7.44a1.43,1.43,0,0,1,.53-2L831.47,926l1.95.52,3.13,5.42.17.25.21.22.24.18.28.14.29.08.3,0,.3-.05.28-.12,6-3.45.2-.14.17-.18.14-.2.09-.22,0-.24ZM773,917.38a3.87,3.87,0,1,1,3.86-3.86A3.86,3.86,0,0,1,773,917.38Zm19.82-11.45a3.86,3.86,0,1,1,3.86-3.86A3.86,3.86,0,0,1,792.86,905.93Zm26.6,16.46-12.39,7.16a3.72,3.72,0,0,1-3.72-6.45L815.74,916a3.72,3.72,0,0,1,3.72,6.44Z"/><path class="cls-2" d="M912.84,907.21l-6.08-10.54-10.88-18.83a5.72,5.72,0,0,0-7.81-2.1l-27.26,15.74a5.72,5.72,0,0,0-2.09,7.81l10.87,18.83,6.09,10.55a5.71,5.71,0,0,0,5.88,2.78,5.51,5.51,0,0,0,1.93-.69L910.75,915a5.74,5.74,0,0,0,2.09-7.82Zm-18.73,3a4.29,4.29,0,0,1-8.58,0h0a4.29,4.29,0,1,1,8.58,0Z"/><path class="cls-1" d="M987.91,856.14a1.4,1.4,0,0,0-.1-.16l-14.16-24.84a21.17,21.17,0,0,0-28.88-7.9c-.3.17-.6.34-.89.53l-14.69,9.36a14.27,14.27,0,0,0-6.28,9l-4.73,21.36,0,.29,0,.31.1.31.16.27a1.48,1.48,0,0,0,.83.53l12.57,2.78-6.33,28.55-.11.5,13.54,3,43.24-23.92A14.67,14.67,0,0,0,987.91,856.14Zm-12.45-7.7a2.5,2.5,0,1,1-2.5,2.5A2.5,2.5,0,0,1,975.46,848.44ZM932,846.62a2.51,2.51,0,1,1,2.5-2.5A2.5,2.5,0,0,1,932,846.62Zm5.13,43.58a2.51,2.51,0,1,1,2.51-2.5A2.5,2.5,0,0,1,937.16,890.2Zm18.1-31.69a16.88,16.88,0,1,1,16.88-16.88A16.88,16.88,0,0,1,955.26,858.51Zm21.9,11.35-6.77-1.5-2.09-6.62,4.69-5.11,6.77,1.5,2.09,6.61Z"/><path class="cls-2" d="M815.74,788h0l-27.26-15.74a1.43,1.43,0,0,0-2,.52l-29.38,50.88L755.82,826,754,829.18a1.44,1.44,0,0,0,.53,2l27.25,15.73a1.42,1.42,0,0,0,2-.52l1.84-3.18,1.33-2.31L816.26,790A1.43,1.43,0,0,0,815.74,788Zm-18,22.63-9.94,17.22a4.29,4.29,0,0,1-5.86,1.57l-12.39-7.15a4.3,4.3,0,0,1-1.57-5.87l9.94-17.22a4.3,4.3,0,0,1,5.86-1.57l12.39,7.15A4.29,4.29,0,0,1,797.71,810.66ZM800,786.31a2.44,2.44,0,1,1,2.43-2.44A2.43,2.43,0,0,1,800,786.31Z"/><path class="cls-2" d="M846.84,730l-1.61-6a7.13,7.13,0,0,0-3.33-4.34l-20.48-11.83a2.86,2.86,0,0,0-3.87,1l-2.78,4.81a1.43,1.43,0,0,0,.55,1.91l.35.21.19.15.12.21,0,.11v.12l0,.12,0,.1L815,716l-.45-.26a1.43,1.43,0,0,0-2,.53l-16.88,29.23a1.44,1.44,0,0,0,.52,2l.45.25.94.55h0l-.07.1-.09.08-.11,0-.12,0H797l-.23-.09-.36-.2a1.42,1.42,0,0,0-1.92.48l-2.78,4.81a2.87,2.87,0,0,0,1.08,3.85l20.48,11.82a7.09,7.09,0,0,0,5.42.71l6-1.6a7.14,7.14,0,0,0,4.34-3.34l17.06-29.55A7.16,7.16,0,0,0,846.84,730Zm-18.21-3.47-6.81,11.8a5.3,5.3,0,0,1-2.4,4.15l-6.81,11.8a2.86,2.86,0,0,1-3.91,1.05L801,750.89l-.19-.15-.12-.21,0-.11v-.12l0-.12,0-.11h0l1,.58,6.77,3.91a2.85,2.85,0,0,0,3.59-.61L819,742l-.33-.2a4.28,4.28,0,1,1,2.15-3.71l.33.19,6.92-12a2.87,2.87,0,0,0-1.27-3.42l-6.77-3.9-1-.58.07-.09.09-.07.11-.06.11,0h.24l.23.08,7.66,4.42A2.86,2.86,0,0,1,828.63,726.52Z"/><path class="cls-2" d="M881.85,754.35l-2.19-8.18a6.29,6.29,0,0,0-2.93-3.82l-8.69-5a5.14,5.14,0,0,0-7,1.89l-19.32,33.45a5.15,5.15,0,0,0,1.89,7l8.69,5a6.31,6.31,0,0,0,4.77.63l8.19-2.2a6.28,6.28,0,0,0,3.82-2.93l12.17-21.09A6.24,6.24,0,0,0,881.85,754.35Zm-14.32,8.48a4.29,4.29,0,0,1-8.58,0v0a4.29,4.29,0,1,1,8.58,0Z"/><path class="cls-2" d="M919.59,782.87H918l0-.12,0-.11.06-.11.09-.08.21-.12.23,0h.41a1.43,1.43,0,0,0,1.43-1.38v-5.56a2.86,2.86,0,0,0-2.86-2.78H894a7.15,7.15,0,0,0-5.06,2.09l-4.39,4.39a7.18,7.18,0,0,0-2.1,5.06v34.13a7.16,7.16,0,0,0,2.1,5.06l4.39,4.39a7.16,7.16,0,0,0,5.06,2.1h23.64a2.86,2.86,0,0,0,2.86-2.79v-5.56a1.43,1.43,0,0,0-1.43-1.38h-.41l-.23,0-.21-.12-.09-.08-.06-.1,0-.11,0-.12h1.6a1.43,1.43,0,0,0,1.43-1.43V784.3A1.43,1.43,0,0,0,919.59,782.87Zm-5.21,36.74,0,.11-.07.1-.08.08L914,820l-.24,0h-8.85A2.86,2.86,0,0,1,902,817.2V803.57a5.32,5.32,0,0,1,0-4.79V785.15a2.86,2.86,0,0,1,2.86-2.86h8.85l.24,0,.21.12.08.08.07.11,0,.11,0,.12h-9a2.85,2.85,0,0,0-2.81,2.33V799H903a4.29,4.29,0,1,1,0,4.29h-.38v13.84a2.84,2.84,0,0,0,2.81,2.32h9Z"/><path class="cls-2" d="M883.15,678.29l-10-37.3a5.16,5.16,0,0,0-6.31-3.65l-9.69,2.6a6.29,6.29,0,0,0-3.82,2.93l-19.41,33.62a6.29,6.29,0,0,0-.63,4.78l2.6,9.69a5.14,5.14,0,0,0,6.3,3.64l37.31-10A5.14,5.14,0,0,0,883.15,678.29Zm-33.3,1.21a4.29,4.29,0,0,1-8.58,0h0a4.29,4.29,0,1,1,8.58,0Zm16.19-28a4.3,4.3,0,0,1-8.59,0v0a4.3,4.3,0,0,1,8.59,0Z"/><path class="cls-1" d="M991.39,768.78h-6.15V792a1.43,1.43,0,0,1-1.43,1.43H943.18a1.43,1.43,0,0,1-1.43-1.43V768.78H935.6a4.29,4.29,0,0,0-4.29,4.29V796a8.58,8.58,0,0,0,8.58,8.58H987.1a8.58,8.58,0,0,0,8.58-8.58V773.07A4.29,4.29,0,0,0,991.39,768.78Zm-27.9,32.55a2.51,2.51,0,1,1,2.51-2.51A2.51,2.51,0,0,1,963.49,801.33Z"/><path class="cls-1" d="M979.54,570.09H906.33a4.29,4.29,0,0,0-4.29,4.3V735.75a4.29,4.29,0,0,0,4.29,4.29h73.21a4.3,4.3,0,0,0,4.3-4.29h0V574.39A4.3,4.3,0,0,0,979.54,570.09ZM942.86,673.38l-16.19-10.65V655l16.19,10.65Zm16.2-3.69L926.67,648.4v-7.79l32.39,21.29Zm0-14.34-16.2-10.65v-7.78l16.2,10.64Z"/><path class="cls-1" d="M995.23,563.18l-.13-.61-.23-.6-.31-.56-.4-.54-.47-.49-.54-.44-.6-.38-.65-.32-.7-.26-.73-.18-.75-.11-.76,0H903.54a30.46,30.46,0,0,0-6.79.76l-.57.14-.56.18-.54.22-.53.24-.52.29-.49.31-.47.34-.45.38-.41.41-.38.44-.35.47-.29.5-.25.52-.19.55-.11.56,0,.58V744.59l0,.53.1.52.16.5.21.49.25.46.3.45.34.43.39.42.44.41.49.38.52.35.55.32.56.28.59.24.6.2.62.16a31.05,31.05,0,0,0,6.79.75H989l.76,0,.75-.12.73-.18.7-.26.65-.32.6-.38.54-.44.47-.49.4-.53.31-.57.23-.59.13-.62,0-.62V563.8ZM979.54,742.9H906.33a7.15,7.15,0,0,1-7.15-7.15V574.39a7.15,7.15,0,0,1,7.15-7.16h73.21a7.16,7.16,0,0,1,7.16,7.16V735.75A7.16,7.16,0,0,1,979.54,742.9Zm9.3,4.65a2.51,2.51,0,1,1,2.51-2.5A2.5,2.5,0,0,1,988.84,747.55Zm0-180a2.51,2.51,0,1,1,2.51-2.5A2.5,2.5,0,0,1,988.84,567.59Z"/><path class="cls-2" d="M796.82,525.53H771.17a7.15,7.15,0,0,0-5,2.09L743.72,550a4.27,4.27,0,0,0-1.26,3v6.81a4.29,4.29,0,0,0,4.29,4.29h48.64a4.29,4.29,0,0,0,4.29-4.29V528.39A2.86,2.86,0,0,0,796.82,525.53Zm-29.94,18.59a1.43,1.43,0,0,1-1.43,1.43h-7.74a1.43,1.43,0,0,1-1-2.44l7.74-7.74a1.43,1.43,0,0,1,2.44,1Z"/><path class="cls-2" d="M871.86,516.3h-10a6.29,6.29,0,0,0-4.45,1.84l-27.45,27.45a6.3,6.3,0,0,0-1.85,4.45v10a5.15,5.15,0,0,0,5.16,5.15h38.62a5.15,5.15,0,0,0,5.15-5.15V521.45A5.15,5.15,0,0,0,871.86,516.3Zm-27.18,35.2a4.29,4.29,0,1,1-8.58,0v0a4.29,4.29,0,1,1,8.58,0Zm22.89-22.88a4.3,4.3,0,0,1-8.59,0v0a4.3,4.3,0,0,1,8.59,0Z"/><path class="cls-1" d="M904.55,492.67a18.6,18.6,0,1,1,37.19,0v0a18.6,18.6,0,1,1-37.19,0Zm22.38-6.27,5.88,11.7,2.52-4.38L929.45,482Zm-11-3.39,11.91,23.69,2.52-4.37-11.91-23.7Zm.9,20.3,2.53-4.38-5.88-11.69L911,491.61Z"/><path class="cls-2" d="M994.52,533.07H980.93a11.44,11.44,0,0,1-11.44-11.44V468.7a11.44,11.44,0,0,1,11.44-11.44h13.59a3.58,3.58,0,1,0,0-7.16H924.43a3.58,3.58,0,1,0,0,7.16H938a11.44,11.44,0,0,1,11.44,11.44v52.93A11.44,11.44,0,0,1,938,533.07H924.43a3.58,3.58,0,0,0,0,7.16h70.1a3.58,3.58,0,0,0,0-7.16Zm-1.36-79.4a1.36,1.36,0,0,1,2.72,0h0a1.36,1.36,0,0,1-2.72,0Zm-67.37,0a1.37,1.37,0,0,1-1.37,1.35,1.35,1.35,0,0,1-1.35-1.36h0a1.36,1.36,0,0,1,2.72,0Zm0,83a1.37,1.37,0,0,1-1.37,1.35,1.35,1.35,0,0,1-1.35-1.36h0a1.36,1.36,0,0,1,2.72,0Zm33.68-79.9a1.72,1.72,0,1,1-1.71,1.71A1.71,1.71,0,0,1,959.47,456.76Zm2.86,67.73a2.86,2.86,0,0,1-5.72,0v-13.8a2.86,2.86,0,1,1,5.72,0Zm-4.57-21a1.72,1.72,0,1,1,1.71,1.72A1.72,1.72,0,0,1,957.76,503.53Zm4.57-7.15a2.86,2.86,0,0,1-5.72,0V465.84a2.86,2.86,0,0,1,5.72,0Zm33.55,40.28a1.36,1.36,0,0,1-2.72,0h0a1.36,1.36,0,0,1,2.72,0Z"/><path class="cls-2" d="M897,503.72a1.55,1.55,0,0,0,1.53-1.58,1.6,1.6,0,0,0-.43-1.09,8.77,8.77,0,0,1-2.33-6V480.8a8.6,8.6,0,0,0-3-6.59,4.78,4.78,0,0,1-1.69-3.66V439.36a4.78,4.78,0,0,1,1.69-3.66,8.6,8.6,0,0,0,3-6.59V414.84a8.76,8.76,0,0,1,2.33-6,1.61,1.61,0,0,0,0-2.23,1.5,1.5,0,0,0-1.06-.44h-9.15a1.24,1.24,0,0,0-1.22-1.25H857.32a1.24,1.24,0,0,0-1.22,1.25H847a1.24,1.24,0,0,0-1.22-1.25H805.45a1.24,1.24,0,0,0-1.22,1.25h-9.15a3.1,3.1,0,0,0-3.05,3.15v9.32a4.75,4.75,0,0,1-2.29,4.08L777.53,430a9.48,9.48,0,0,0-4.57,8.17v14.53a9.48,9.48,0,0,0,4.57,8.17l12.21,7.27a4.76,4.76,0,0,1,2.29,4.09v28.33a3.1,3.1,0,0,0,3.05,3.15H792v3.14a3.1,3.1,0,0,0,3.05,3.15H895.77a3.1,3.1,0,0,0,3.05-3.15v-3.14ZM872.88,417.2a3.1,3.1,0,0,1,3-3.14h13.13a3.1,3.1,0,0,1,3.05,3.14v10.17a3.1,3.1,0,0,1-3.05,3.15,2.94,2.94,0,0,1-1.53-.42l-12.36-7.36a4.75,4.75,0,0,1-2.29-4.08Zm-38.14,0a3.1,3.1,0,0,1,3-3.14h27.47a3.1,3.1,0,0,1,3,3.14v1.46a4.75,4.75,0,0,1-2.29,4.08L853.81,430a4.46,4.46,0,0,1-4.57,0L837,422.74a4.75,4.75,0,0,1-2.29-4.08Zm-38.14,0a3.1,3.1,0,0,1,3-3.14h27.47a3.1,3.1,0,0,1,3,3.14v1.46a4.75,4.75,0,0,1-2.29,4.08L815.67,430a4.46,4.46,0,0,1-4.57,0l-12.21-7.27a4.75,4.75,0,0,1-2.29-4.08ZM792,464.06l-12.21-7.26a4.76,4.76,0,0,1-2.29-4.09V438.18a4.78,4.78,0,0,1,2.29-4.09L792,426.83a4.46,4.46,0,0,1,4.57,0l12.21,7.26a4.78,4.78,0,0,1,2.29,4.09v14.53a4.76,4.76,0,0,1-2.29,4.09l-12.21,7.26A4.41,4.41,0,0,1,792,464.06Zm38.14,22.71a4.75,4.75,0,0,1-2.29,4.08l-12.21,7.27a4.46,4.46,0,0,1-4.57,0l-12.21-7.27a4.75,4.75,0,0,1-2.29-4.08V472.24a4.76,4.76,0,0,1,2.29-4.09l12.21-7.27a4.46,4.46,0,0,1,4.57,0l12.21,7.27a4.76,4.76,0,0,1,2.29,4.09Zm0-22.71L818,456.8a4.76,4.76,0,0,1-2.29-4.09V438.18a4.78,4.78,0,0,1,2.29-4.09l12.21-7.26a4.46,4.46,0,0,1,4.57,0L847,434.09a4.78,4.78,0,0,1,2.29,4.09v14.53A4.76,4.76,0,0,1,847,456.8l-12.21,7.26A4.41,4.41,0,0,1,830.17,464.06Zm38.14,22.71a4.75,4.75,0,0,1-2.29,4.08l-12.21,7.27a4.46,4.46,0,0,1-4.57,0L837,490.85a4.75,4.75,0,0,1-2.29-4.08V472.24a4.76,4.76,0,0,1,2.29-4.09l12.21-7.27a4.46,4.46,0,0,1,4.57,0L866,468.15a4.76,4.76,0,0,1,2.29,4.09Zm0-22.71L856.1,456.8a4.76,4.76,0,0,1-2.29-4.09V438.18a4.78,4.78,0,0,1,2.29-4.09l12.21-7.26a4.46,4.46,0,0,1,4.57,0l12.21,7.26a4.78,4.78,0,0,1,2.29,4.09v14.53a4.76,4.76,0,0,1-2.29,4.09l-12.21,7.26A4.41,4.41,0,0,1,868.31,464.06Zm23.8,31.42a3.1,3.1,0,0,1-3.05,3.15,2.94,2.94,0,0,1-1.53-.42l-12.36-7.36a4.75,4.75,0,0,1-2.29-4.08V472.24a4.76,4.76,0,0,1,2.29-4.09l7.63-4.54a3,3,0,0,1,4.17,1.15,3.2,3.2,0,0,1,.41,1.57v4.22a8.6,8.6,0,0,0,3,6.59,4.76,4.76,0,0,1,1.69,3.66Z"/><path class="cls-2" d="M36.51,521.32q0,17.94,0,35.88c0,2.67.42,5.49-3.81,5.49-4,0-5.71-1.59-5.86-5.62-.32-8.72-.73-17.43-1.48-26.11-1.26-14.63-2.83-29.24-4.23-43.85-.08-.84-.11-1.67-.11-2.51,0-28.24-.34-56.48.12-84.71.23-14.25,1.82-28.47,2.75-42.71.55-8.45,1-16.92,1.53-25.37.46-7.25.91-14.49,1.52-21.72.31-3.66,3.24-6.46,6-6,3.57.63,3.57,3.43,3.57,6.2q0,35.64,0,71.3a17.46,17.46,0,0,0,.24,3.06c.75,4.17,2.67,5.57,7.34,5.68,3.66.09,7.33-.09,11,.08,1.63.07,3.88.13,4.72,1.14,3.21,3.83,7.38,3.18,11.47,3.19,5.86,0,11.72-.06,17.58,0,4.15.06,8-.05,11.71-2.79,1.9-1.4,5-1.21,7.6-1.61,4.68-.74,9.74,1.57,14.2-1.78.37-.28,3.19,1.37,3.28,2.29,1.37,13.2,3.28,26.42.72,39.68a23.41,23.41,0,0,0-.37,4.65c.44,7.89,1.23,15.79,1.28,23.69,0,5.77-.94,11.54-1.42,17.32-.22,2.74-2,3.44-4,2.48-6.2-3-12.76-2.47-19.29-2.54a5.25,5.25,0,0,1-2.85-.44C90,468.51,78.86,473,68.43,472a1.57,1.57,0,0,0-1.12.33c-6.73,5.21-14.89,3.16-22.46,4.27-6.88,1-8.31,3.27-8.33,10.33C36.49,498.37,36.51,509.84,36.51,521.32Zm22.15-102.7-.25,0c-3.46,0-7.13,0-8.87,1.74a27.59,27.59,0,0,0-7.18,10.59,10.54,10.54,0,0,0,2,10.07c1.48,2.59,7.26,8.83,14.59,8.12,7.12-.68,15.95-8.72,14.57-15.54-1-4.7-3.81-9.33-6.86-13.15C65.3,418.78,61.45,419.14,58.66,418.62Zm29.6,48.74a1.43,1.43,0,0,0,.29,0c3.54,0,7.76-.91,9.86-3,3.24-3.25,7.12-8.24,6.77-12.12-.46-5-4.43-9.93-7.75-14.23-1.15-1.48-4.87-1.26-7.42-1.31-8.8-.15-17.38,6.81-16.54,14.6.51,4.67,3.37,9.46,6.31,13.32C81.08,466.3,84.84,466.81,88.26,467.36Zm-.56-36.91c4.32.3,8.73.21,10.33-1.52,3.32-3.6,7.1-8.5,7.16-12.9s-3.75-9.2-6.86-13c-1.32-1.6-5.24-1.54-8-1.43-3.71.15-8.51-.16-10.81,1.95-3.13,2.85-5.86,7.77-5.93,11.86s2.59,8.88,5.47,12.1C81.08,429.72,85.5,430.45,87.7,430.45ZM50,471.34h.22c3-.39,6.61.05,9-1.43,2.93-1.87,5.4-3.73,9.1-3.5.79,0,2.34-1.61,2.41-2.57.23-3.24-4.28-7.89-7.57-8.08-2.42-.14-4.89.25-7.26-.1-5.68-.84-8.66,2-11.05,6.76C40.46,471,40.24,471,50,471.34Zm1.48-74.26s-2.75-.3-2.86-.05l-3.28.28a2.36,2.36,0,0,0-2,3.3c.84,1.95,1.64,3.91,2.45,5.91,2.07,5.15,6,6.52,11.1,5.87,1.69-.21,3.42,0,5.13,0,3.79-.13,8.82-5.23,8.63-8.8,0-.61-.49-1.57-1-1.71A172.64,172.64,0,0,0,51.43,397.08Zm64.77,37.1h0c0-4.12.17-8.25-.06-12.36-.15-2.63-2.56-3.54-4.53-2-.17.14-.22.42-.34.62-2.38,4.16-5,8.19-7,12.53-1.15,2.5,6.29,14.81,9.17,15.52.72.18,2.6-1.23,2.65-2C116.34,442.43,116.2,438.3,116.2,434.18Zm0,29.45a15.52,15.52,0,0,0,0-3.61,16.86,16.86,0,0,0-1-2.73,1.6,1.6,0,0,0-2.09-.78,8.49,8.49,0,0,0-3.13,1.92c-1.37,1.58-2.07,3.74-3,5.67-.62,1.26-1.22,2.53-1.82,3.8a1.6,1.6,0,0,0,1.08,2.23,22.39,22.39,0,0,0,4.76.77C116.23,471,116.23,470.83,116.25,463.63Zm.54-58.12,0-.56c0-.47.24-1.57.06-1.62.07-1.82,1.39-4.54-.62-5.35-1.21-.49-.92-1.07-3.42-.85-1.19.11-2.32.23-3.41.39a3.88,3.88,0,0,0-3,5.27c.33.82.64,1.26,1.16,2.36.3.65.28.66.92,1.93s2.35,6.4,6,4.82C115.92,411.28,116.12,407.85,116.79,405.51Z"/><path class="cls-2" d="M553.74,189.58c5.43-.15,7.84,2.89,6.56,8.27-3.09,13-3.16,13.13,7.89,20,5.52,3.44,11.41,6.28,17,9.58,4.54,2.68,8.29,1.56,11.77-1.83,1.4-1.36,2.73-2.79,4.17-4.11,4-3.64,6.42-3.39,9.39,1.06,3.32,5,4.57,10,.45,15.28a22.1,22.1,0,0,0-2.86,5c-1.2,2.83-2.85,4.17-6.12,5.15s-6.43,4.17-8.58,7.14a118.4,118.4,0,0,0-10,16.73c-1.73,3.49-2,7.67-3.33,11.39-1.22,3.39-2.55,6.93-4.74,9.68-.9,1.13-4.49,1.08-6.32.31a102.84,102.84,0,0,1-12.72-6.79c-2.78-1.66-4.54-2-6.13,1.6-1.43,3.29-4.26,3.17-7.16,1.35-4.48-2.83-9-5.58-13.58-8.27-2.56-1.51-3.38-3.18-1.53-5.9,1.72-2.54,1.87-4.67-1.79-6.06-2.66-1-4.92-3-7.48-4.35-9.45-5-10.42-11.44-1.58-17.33,4.19-2.79,6.32-6.19,8.5-10.2,2.75-5.08,5.74-10,8.88-14.89a16.3,16.3,0,0,0,2.24-11.88C535.2,201.34,544.48,189.85,553.74,189.58ZM557.23,276c14.92,1.95,27.26-12.62,26.72-26.65-.62-16-11.72-26.74-26.71-26.47s-25.93,10.52-26.71,26.86C529.85,264,542.81,277.52,557.23,276Z"/><path class="cls-2" d="M861.52,939.56c-.67.6-1.18,1.32-1.54,1.56-12.51,8.63-25.09,17.15-37.38,26.06-24.46,17.74-50.75,32.46-77.05,47.14q-30,16.74-60.67,32.36c-13.3,6.81-27.07,12.7-40.6,19-2.81,1.32-5.19,2.5-7.1-1.47s.63-5.07,3.26-6.6q30.67-17.73,61.28-35.56c5.33-3.12,6.3-6.37,3.58-12.06-1.14-2.38-3-4.44-4-6.85-1.37-3.11-4.34-5.83-2.16-10,.66-1.26-.37-3.79-1.26-5.39-3.48-6.34-7-12.68-10.94-18.73-1.72-2.64-3-5.73-7.13-6.67-2.26-.51-3.93-4-5.66-6.27-2.86-3.79-5.32-7.91-8.39-11.51-2.51-2.93-.66-4.62,1.27-6,6.46-4.49,12.94-9,19.71-13,4.49-2.64,9.61-4.2,14.22-6.66,2.44-1.3,4.2-3.82,6.6-5.22,7.69-4.48,15.53-8.72,23.35-13,1.47-.8,3.17-1.16,4.7-1.86,5.78-2.67,5.64-2.65,7.38,3.23.59,2,2,3.8,3.07,5.71,2.73,5.07,6.16,9.85,5.65,16.13a9.41,9.41,0,0,0,1.4,4.78c3.17,6,6.3,12,9.85,17.73a20.4,20.4,0,0,0,8,7.76c3.77,2,5.95,7.29,8.44,11.36,4.19,6.82,6.91,7.48,13.84,3.48,18.16-10.48,36.42-20.81,54.63-31.22,2.51-1.43,4.86-3.2,7.49-4.34a5,5,0,0,1,6.73,3.62c0,.16-.17,1-.1,1.14ZM736.07,957a3.76,3.76,0,0,0,1.6,0c2.84-.67,6.47-.82,8.05-2.7,3.14-3.72,6.66-8.71,6.57-13.1s-3.78-9.32-7-13c-1.55-1.76-5.77-1.62-8.76-1.52-3.19.1-7.55.12-9.24,2.06-3.19,3.65-6.67,8.69-6.58,13.07s3.79,9.31,7,13C729.17,956.49,732.76,956.38,736.07,957Zm-31.78,17.56a3.94,3.94,0,0,0,1.53,0c3.32-.64,7.16-.56,8.81-2.42,3.07-3.44,5.8-8.12,6.42-12.59.93-6.84-8.72-15.69-15.84-15.36-3.23.15-7.55.51-9.36,2.56-3.22,3.65-6.68,8.63-6.73,13.09,0,4.11,3.66,8.83,6.85,12.2C697.69,973.86,701.29,973.9,704.29,974.55Zm33.61-12a3.77,3.77,0,0,0-1.67,0c-3.42.67-7.12.63-9,2.45-3.3,3.27-7.29,8-7.14,12,.16,4.7,3.8,9.81,7.17,13.66,1.75,2,6.16,2.17,9.38,2.23,3,.05,7.11-.18,8.74-2,3.21-3.68,6.77-8.49,7-13,.16-4.18-3.27-9.06-6.33-12.57C744.41,963.45,740.81,963.27,737.9,962.57Zm-29.58,18a4.25,4.25,0,0,1-.79.09c-6.33,0-6.35.24-4.15,6,.5,1.32,1.4,2.8,1.17,4-1.18,6.44,3.09,10.87,5.45,16,1.31,2.84,2.81,2.88,5,1a14.77,14.77,0,0,0,3.5-18.48,26,26,0,0,0-2-3.85C714.3,982.47,711.88,979.91,708.32,980.62Zm58.25-6.3c-1.48-.12.9.31,2.77.31s2-.29,3.78-.87c1-.34,2.52-2.76,2.19-3.37-2-3.77-4-8-7.09-10.71s-6.74-6.26-9.24-7.28c-1.83-.66-3.08-.8-3.3-.64-3.39,2.43-4.74,5.83-3.65,8.84,1,4.47,3.85,8.88,7,12.34C760.49,974.56,763.73,973.93,766.57,974.32Zm-61.64-35.58c7.4.08,15.57-7.47,16.41-15.11.36-3.26-1.22-4.45-4.42-2.74-6.14,3.29-12.12,6.9-18.08,10.51l-.29.19a3.64,3.64,0,0,0,.24,6.14,15.93,15.93,0,0,0,1.79.92C701.82,939.18,703.46,938.74,704.93,938.74Zm-15,4.72a3.29,3.29,0,0,0,.51-2.13c-.32-2.47-2.32-3.51-4.75-2.41a43.73,43.73,0,0,0-8,4.81c-1,.74-2,2.91-1.6,3.69a46.23,46.23,0,0,0,5.2,7.33c.17.22,1.61-.1,1.9-.54C685.55,950.54,687.83,946.8,689.89,943.46Zm45.33-23.85a4.54,4.54,0,0,0,.9.13,40.42,40.42,0,0,0,6-.09,4.48,4.48,0,0,0,2.38-1.8c-1.36-2.79-2.58-5.82-4.67-8-.76-.78-4.07.1-5.63,1.11-2.63,1.71-8,1.6-7.2,5.9C727.92,921.83,732.61,919.07,735.22,919.61Z"/><path class="cls-2" d="M563.75,121.89c3.29-.3,5.64,1.06,7.7,3.45,5.31,6.21,9,13.57,12,20.85,4.4,10.76,6.84,22.34,9.91,33.63,1.26,4.6-4.67,6.89-10.84,7.87-5.26.85-8.85,1.89-12.7,2.51-5.89,1.25-5.69-.28-6.36-2.22-1.55-4.46-.77-10.39-4.66-13.23s-9.13.31-13.84.33c-6.84,0-13.39-1.75-20.19-1.9-6-.14-11.09-8.8-9-14.61,3.59-10.25,10.17-18.95,15.35-28.38,1.41-2.57,4.21-4.71,7-4.75C546.82,125.29,555.39,124.5,563.75,121.89ZM567.6,136c-.11-3.71-1.88-6.35-5-6.3-2.86,0-6.44,1-6.74,5-.28,3.72,1.79,6,5.38,6.36C565,141.49,566.79,139,567.6,136Zm-12.68,29.06a6.26,6.26,0,0,0-.76-6.59,5.5,5.5,0,0,0-5.1-2.45c-3.54.3-5.15,3-5,6.7.17,4.4,3.38,4.78,6.53,4.77A4.65,4.65,0,0,0,554.92,165.07Zm-12.21-32.76c-4.45,0-7.17,1.76-7.21,5.29,0,3.11,2.48,4.77,5.8,5.13,3.86.41,5.38-2,5.52-4.93S545.83,132.08,542.71,132.31Zm-14.6,33.76c3.63.13,5.43-2,5.52-4.85.1-3.17-2.13-5.26-5.5-5.35s-5.77,1.89-5.83,5C522.25,164.21,524.24,166.22,528.11,166.07Zm46.1-9.87c-.52-2.1-1.08-3.68-3.46-3.22-1.88.35-3.35,1.46-2.92,3.35a3.22,3.22,0,0,0,3.94,2.37C573.33,158.44,574.28,157.65,574.21,156.2Zm5,21.66c0-1.48-.11-2.93-2.15-2.89s-3.37.95-3.41,2.82,1.46,2.8,3.33,2.89C579.05,180.78,579.23,179.38,579.25,177.86Z"/><path class="cls-2" d="M835.76,866.21c-4.63,2.61-7,4.72-.38,8-5.7-1.16-10.57.28-15.57-1.23-5.63-1.7-8-5.13-8.1-10.44a39.05,39.05,0,0,0-3.86-16.71c-3-6.15-1.58-11.22,3.22-16.17,5.53-5.69,10-12.39,15.52-18.11,7.94-8.29,17-6.84,22,3.61,3.75,7.76,7.39,15.76,9.45,24.06,1.51,6.1,4.51,6.25,8.81,4.84a21.58,21.58,0,0,1,7.18-.77c4.1,0,6.28,2.26,6.32,6.35.06,5.32.16,10.57,1.36,15.85,1,4.18-.49,7.84-5.6,8.4-9.58,1-19.16,2.1-28.75,2.93C837.47,877.64,837.4,877.47,835.76,866.21Zm-12.34-12.88c-2.59,1.36-4.72,3.13-4.59,7s2.14,4.88,5.62,4.9c4.25,0,5.72-3.14,5.78-6C830.31,855.8,827.35,854,823.42,853.33Zm27.16-13.61c-.53-3.33-1.69-6.4-5.35-6.64s-5.56,2.25-5.82,5.88c-.23,3.35.71,5.49,4.66,5.77S849.64,842.69,850.58,839.72Zm-25.77-.25c-1.09-1.47-.36-5.07-4.66-5.17-3.64-.08-6.57,1.34-6.85,4.85s2.49,5.39,6.13,5.51C822.48,844.77,824.7,843.94,824.81,839.47Zm17.58-20.39c-.71-2.54-1.08-5.41-5.1-5.31-3.65.09-6.37,1.73-6.43,5.22-.05,3,2.33,4.88,5.73,5.2C840.38,824.54,841.55,822.3,842.39,819.08Zm29.27,40.15c0-1.51-.19-2.92-2.24-2.81-1.87.11-3.36,1-3.31,2.91s1.53,2.79,3.42,2.81S871.65,860.71,871.66,859.23Zm-22.11,1.37a2.74,2.74,0,0,0-3-2.48c-1.8.18-2.75,1.68-2.64,3.58s1.65,1.94,3.08,2C848.62,863.69,849.78,863.19,849.55,860.6Z"/><path class="cls-2" d="M98.59,637.14c.16-5-2.23-6.21-6.7-6.14-12,.18-23.94.34-35.89,0-6.16-.2-8.26,2.82-8.64,8.12-.16,2.19,0,4.39,0,6.59,0,14.57,0,14.57-14.28,14.71-8.64.09-10.61,2-10.62,10.76,0,19.78,0,39.56,0,59.34,0,20.26.09,40.53-.06,60.8,0,5.89,2.33,8.52,8.26,8.28,5.12-.21,10.25,0,15.38,0,8.52,0,9-.07,8.44-8.52-.6-9,2.53-15.87,9.12-21.82,6.34-5.72,12.06-12.11,18.24-18a15.32,15.32,0,0,0,5.09-12.24c-.26-10,.1-20-.14-30-.19-7.88.71-15.34,5-22.16,2-3.12.51-4.38-2.82-4.35-4.88,0-9.78-.18-14.65,0-3.67.17-5.4-.89-5.14-4.89.23-3.58-.06-7.06,5.08-7s10.26,0,15.38,0c6.78-.06,8.69-1.73,8.86-8.49C98.67,653.74,98.33,645.43,98.59,637.14ZM78.08,692.2A2.06,2.06,0,1,1,76,694.26,2.06,2.06,0,0,1,78.08,692.2Zm0,33.75A2.07,2.07,0,1,1,76,728,2.06,2.06,0,0,1,78.08,726ZM58.91,642.88c2.39-.23,3.05.79,3,2.49,0,1.4.13,3-1.88,3.15s-3.41-.79-3.66-2.56A2.76,2.76,0,0,1,58.91,642.88Zm-26,27.83c1.43-.14,2.28.41,2.4.92.23,2.41-.46,3.22-1.94,3.26a1.89,1.89,0,0,1-2.14-2.24C31.32,671.62,31.71,670.82,32.94,670.71Zm-2.46,23.55a2.06,2.06,0,1,1,2.06,2.06A2.06,2.06,0,0,1,30.48,694.26Zm3.21,34.84c-1.7.06-2.47-.69-2.44-2.15s.89-2.14,2.34-2a1.78,1.78,0,0,1,1.85,1.79C35.06,728.2,34.59,728.86,33.69,729.1ZM40,788.57a2.69,2.69,0,0,1-2.88-2.81c-.05-1.89.89-3.37,2.73-3.5a2.74,2.74,0,0,1,2.92,2.55C43,787.5,41.53,788.58,40,788.57Zm.05-23c-1.91.06-2.9-1.45-3-3.31s1-3.39,2.81-3.46,2.79,1.47,3,3.25C42.78,764,41.88,765.5,40,765.57Zm32.12-48.74c-.46,8.8-6.6,16.1-16.21,15.35-11.68-.14-14.82-6.33-15.81-15.57-.9-8.45,7.32-15.4,16.42-15.29C65.08,701.42,72.58,708.55,72.14,716.83Zm8.37-70.45a1.77,1.77,0,1,1,1.76-1.77A1.77,1.77,0,0,1,80.51,646.38Z"/><path class="cls-2" d="M559.15,85.05c-3.41-4.22-5.67-9.53-11.46-11.64-3.9-1.41-6.62-4.69-8.73-8.22-6.43-10.71-12.72-21.51-19.08-32.26-4.56-7.68-10.12-10.41-18.65-7.18A135.18,135.18,0,0,0,467,45.34c-6.93,5.33-7.48,11.77-3.3,19.66,3,5.73,6.64,11.16,9.56,16.94,4.28,8.47,11.83,15.64,11.32,26.06-.32,6.63,2.15,12.25,5,17.84.84,1.63,1.46,3.95,4.13,3,2.14-.76,2.4-2.63,2.59-4.71.8-9.15,2.22-10.68,11.37-12.78a.06.06,0,0,1,.07,0c.94,2.73-.43,5.76,1.31,9a.05.05,0,0,0,.08,0l16.22-9.13a.07.07,0,0,0,0-.1c-2.35-1.64-4.8-2.69-4-5.7a3.21,3.21,0,0,1,3.11-2.62c3,.07,4.49,1.26,3.49,4.64-.35,1.17,1.6,1.28,2,.88,3.89-3.53,10.1-3.88,13.34-9.21a.05.05,0,0,0,0-.08l-10-2.89a0,0,0,0,1,0-.09c6.24-5.34,12-9.44,19.61-3.86,2.19,1.59,4.49,1,6.49-.74C562.06,89.26,560.52,86.76,559.15,85.05ZM466.43,59.37c-2.11.05-3.44-1-3.47-3.16s1.58-3.32,3.69-3.25a3.19,3.19,0,0,1,3.25,2.2v0C470.05,57.39,468.76,59.31,466.43,59.37Zm40.22-29.13c.69-2.44,2.43-3.06,3.32-2.91,1.77.29,4,1.12,4,3.65a3.67,3.67,0,0,1-4.56,3.51A3.37,3.37,0,0,1,506.65,30.24Zm-14.88,85.82a2.15,2.15,0,1,1,2.16-2.15A2.15,2.15,0,0,1,491.77,116.06Zm28.94-32.25a27.42,27.42,0,0,1-29,6.31c-11-4.3-17.2-12.84-17.41-26.16-1.08-4.81,2.07-8,6.22-10.45,6.6-3.91,13.36-7.56,20-11.49A13.22,13.22,0,0,1,512.8,41c4.5,1.66,6.87,7.07,12.54,6.64.79-.06,2.64,2.68,2.55,4C527.12,62.68,529.83,74.34,520.71,83.81Zm28.27.25a2.16,2.16,0,1,1,2.16-2.16A2.16,2.16,0,0,1,549,84.06Z"/><path class="cls-1" d="M503.29,1137.12c-7.28-4.23-14.62-8.35-21.92-12.54-3.48-2-5.93-4.32-6.19-9-.71-12.45.64-24.88,2.05-37.06,1.62-13.94,3.46-16.5-10.56-23.31-.65-.32-5.25-2.72-6-3.24-5.21-3.44-5.57-4.72-9.18-4.33-4.16.46-4.63,7.22-7.32,10.94-5.45,7.52-4.85,10.82,3.05,15.7,4,2.49,4.57,5.46,4.87,9.57.56,7.61-1.57,14.95-1.69,24-.86,4.92,1.53,9.54,7.35,12.8q20.76,11.63,41.29,23.7c3.29,1.93,5.18,1.6,7.29-1.73C508.94,1138.52,505.32,1138.3,503.29,1137.12Zm-36.17-66.21a1.14,1.14,0,1,1-1.14,1.14A1.14,1.14,0,0,1,467.12,1070.91Zm-11.29,26.86a1.14,1.14,0,1,1,1.14-1.14A1.15,1.15,0,0,1,455.83,1097.77Zm.73-19.11a1.14,1.14,0,1,1,1.14-1.14A1.14,1.14,0,0,1,456.56,1078.66Zm-.37-8.6c-1.51.21-5-2.88-6.44-4.87-.46-.61.58-2.38,2.46-3.66,1.5-1,8.15,3.16,8.42,5A5.64,5.64,0,0,1,456.19,1070.06Zm5.28,23.56c-2.45,0-2.42-2-2.22-3.69.38-3.22.7-6.63.87-9.76a2.44,2.44,0,0,1,2-2.26c7.78-1.35,5.92,2.69,5.92,4.73,0,.95,0,1.92,0,2.89l.21,0c-.23,2.37.13,5-.85,7C466.32,1094.81,463.53,1093.65,461.47,1093.62Zm7.93,5.29a1.14,1.14,0,1,1,1.14-1.14A1.14,1.14,0,0,1,469.4,1098.91Z"/><path class="cls-3" d="M716.64,576.18,536.39,888.39H701.92L882.17,576.18ZM696.35,878.74H553.1L722.21,585.82H865.46Z"/><path class="cls-3" d="M599.26,283.26,249.89,888.39H415.42L764.79,283.26ZM409.85,878.74H266.6L604.83,292.91H748.08Z"/><path class="cls-3" d="M312.76,283.26,132.51,595.47H298L478.29,283.26ZM292.47,585.82H149.22L318.33,292.91H461.58Z"/><path class="cls-3" d="M507.34,0,0,292.91V878.74l507.34,292.91,507.34-292.91V292.91ZM1005,873.17,507.34,1160.51,9.65,873.17V298.48L507.34,11.14,1005,298.48Z"/></g></g></svg>