<svg xmlns="http://www.w3.org/2000/svg" viewBox="0 0 1008.87 1164.95"><defs><style>.cls-1{fill:#323534;}.cls-2{fill:#d61e39;}.cls-3{fill:#231f20;}</style></defs><g id="Layer_2" data-name="Layer 2"><g id="Layer_2-2" data-name="Layer 2"><path class="cls-1" d="M504.44,0,0,291.24V873.71L504.44,1165l504.43-291.24V291.24ZM999.28,868.17l-494.84,285.7L9.59,868.17V296.78L504.44,11.08l494.84,285.7Z"/><path class="cls-2" d="M95.66,846.89l-5.63-21a14.17,14.17,0,0,0-6.63-8.63l-15-8.66a21.07,21.07,0,0,0-28.76,7.7c-.17.3-.33.6-.49.91l-13,25.29a14.58,14.58,0,0,0,6.3,19.63l.17.08,44,21.89L90,880.52l-.14-.49L82.29,852l12.36-3.32a1.38,1.38,0,0,0,.8-.55l.15-.28.08-.31,0-.31ZM38.22,834.46A2.49,2.49,0,1,1,35.73,837,2.48,2.48,0,0,1,38.22,834.46ZM44,854l-6.66,1.78-4.88-4.87,1.79-6.67,6.66-1.78,4.88,4.88ZM57.89,843.6a16.78,16.78,0,1,1,16.78-16.78A16.79,16.79,0,0,1,57.89,843.6Zm20,30.69a2.49,2.49,0,1,1,2.49-2.49A2.5,2.5,0,0,1,77.85,874.29Zm3.21-43.51a2.49,2.49,0,1,1,2.49-2.49A2.5,2.5,0,0,1,81.06,830.78Z"/><path class="cls-3" d="M113,782.4l-7.44-30.61a4.26,4.26,0,0,0-1.93-2.63l-5.78-3.52A4.25,4.25,0,0,0,92,747.07l-25.15,41.3a4.28,4.28,0,0,0,1.43,5.87L95,810.51a2.85,2.85,0,0,0,3.91-1l13.26-21.79A7.07,7.07,0,0,0,113,782.4Zm-6.76-3.71a1.39,1.39,0,0,1-1.07-.17l-6.58-4a1.43,1.43,0,0,1-.47-2l4-6.58a1.42,1.42,0,0,1,2-.47,1.39,1.39,0,0,1,.65.88L107.33,777A1.42,1.42,0,0,1,106.28,778.69Z"/><path class="cls-3" d="M362.05,660.79l-14.53-8.39A110.35,110.35,0,0,0,322,641.7a57.3,57.3,0,0,1-13.17-5.54l-58.55-33.8a39.67,39.67,0,0,0-27.64-4.54l-54.43,10.9a14.22,14.22,0,0,0-9.53,6.84L111.12,698A14.19,14.19,0,0,0,110,709.66l17.77,52.6a39.66,39.66,0,0,0,17.76,21.66L204,817.73a56.59,56.59,0,0,1,11.37,8.64,110.22,110.22,0,0,0,22,16.71L252,851.47a5.69,5.69,0,0,0,7.55-1.72h0L364.35,668.2h0A5.7,5.7,0,0,0,362.05,660.79ZM124.47,687.71l-.09.51-.15.49-.21.47-.26.44-.31.41-.35.37-.4.33-.45.26-.23.1-.25.08-.25.05-.25,0H121l-.25,0a1.61,1.61,0,0,1-.77-.44l-.17-.2-.13-.22-.11-.23-.08-.25,0-.25,0-.25v-.52l.08-.51.14-.49.2-.47.26-.45.3-.42.35-.37.4-.33.43-.27.24-.11.24-.08.25-.06.26,0h.25l.26,0,.24.07.24.11.21.15.18.18.16.2.13.22.1.24.07.25,0,.25,0,.25Zm71-33.93.08-.51.14-.49.2-.48.26-.45.3-.41.35-.38.4-.33.43-.27.24-.1.24-.09.25-.06.26,0h.25l.26,0,.24.07.24.11.21.14.18.18.16.2.13.23.1.23.07.25.05.25,0,.26,0,.51-.09.51-.15.49-.2.47-.27.45-.3.41-.36.37-.4.32-.44.26-.24.1-.25.08-.25.06-.25,0h-.26l-.25,0a1.63,1.63,0,0,1-.77-.45l-.17-.2-.13-.21-.11-.24-.08-.24-.05-.25,0-.26Zm-41.89-24.19.08-.51.14-.49.2-.47.26-.45.3-.42.35-.37.4-.33.44-.27.23-.11.24-.08.25-.06.26,0H157l.26,0,.25.07.23.11.21.15.19.18.15.2.13.22.1.24.08.25,0,.25,0,.25,0,.52-.08.51-.16.49-.2.47-.26.44-.31.41-.36.37-.4.33-.44.26-.24.1-.24.08-.26.05-.25,0h-.26l-.25,0a1.66,1.66,0,0,1-.77-.44l-.17-.2-.13-.22-.11-.23-.08-.25,0-.25,0-.25Zm-6.37,75.26-.67-.15-.66-.17-.66-.19-.65-.22-.64-.24-.6-.48-.57-.51-.55-.54-.53-.55-.51-.58-.49-.6-.46-.61-.44-.64-.42-.65-.39-.66-.37-.68-.36-.69L138,696l-.31-.71-.55-1.44-.24-.73-.21-.74-.36-1.49-.29-1.51-.22-1.53-.18-1.53-.14-1.54-.13-1.54-.17-1.53,21.94-38,1.4-.63,1.4-.65,1.4-.64,1.42-.61,1.43-.57,1.46-.51,1.47-.44.75-.18.75-.16,1.52-.25.77-.09.77-.06.77,0,.78,0H174l.77,0,.77.06.76.1.76.12.76.15.74.18.74.21.73.24.72.28.53.43.51.46.5.47.47.49.47.5.44.52.84,1.08.76,1.14.69,1.18.62,1.22.55,1.26.48,1.28.41,1.3.35,1.32.29,1.34.22,1.35L189,657l.11,1.36.06,1.37v1.37l0,1.37-.09,1.36-.13,1.36-.18,1.36-.22,1.35-.27,1.34-.3,1.34-.34,1.32-.38,1.32-.42,1.3-.45,1.29-.49,1.28-.52,1.26-.56,1.25-.59,1.24a52.25,52.25,0,0,1-3.38,5.85l-.78,1.13-.8,1.11-.83,1.08-.87,1.07-.89,1-.92,1-1,1-1,1-1,.93-1,.9-1.05.87-1.09.83-1.11.8-1.14.76-1.16.72-1.19.68-1.22.63-1.23.58-1.27.53-1.28.48-1.3.42-1.32.36-1.34.3-1.35.22-1.36.15-1.36.08h-1.37l-1.36-.09-1.36-.19Zm19.12,6.53v.51l-.09.51-.15.49-.21.47-.26.45-.31.41-.35.37-.4.32-.45.26-.23.1-.25.08-.25,0-.26,0h-.25l-.26,0a1.54,1.54,0,0,1-.76-.44l-.17-.2-.14-.21-.1-.24-.08-.24-.06-.25,0-.26V713l.08-.51.14-.5.2-.47.26-.45.3-.41.35-.38L163,710l.44-.27.24-.1.24-.09.25-.06.25,0h.26l.26,0,.24.08.23.11.22.14.18.18.16.2.13.23.1.23.07.25,0,.25ZM230.53,813a3.92,3.92,0,1,1-7.83,0h0a3.92,3.92,0,0,1,7.83,0Zm12.8,23.17a3.34,3.34,0,1,1,3.34-3.34A3.34,3.34,0,0,1,243.33,836.2Zm57.79-87.73a7.4,7.4,0,1,1-14.79,0h0a7.4,7.4,0,0,1,14.79,0ZM311.56,667,232.09,804.64a4.27,4.27,0,0,1-4.41,2.07,6.42,6.42,0,0,0-6.57,3,4.26,4.26,0,0,1-5.8,1.51L153.72,775.7c-.47-.27-.93-.55-1.38-.85a7.11,7.11,0,0,1-2.26-9.5l86.44-149.73a7.12,7.12,0,0,1,9.36-2.79c.48.24,1,.5,1.42.77l61.6,35.56a4.26,4.26,0,0,1,1.59,5.78,6.4,6.4,0,0,0,.66,7.21A4.28,4.28,0,0,1,311.56,667Zm8.43-8.93a3.91,3.91,0,0,1-7.82,0h0a3.91,3.91,0,1,1,7.82,0Zm21.62,7.9a3.35,3.35,0,1,1,3.34-3.34A3.35,3.35,0,0,1,341.61,666Z"/><path class="cls-3" d="M145,606.31l-8.64-5a6.26,6.26,0,0,0-4.75-.63l-8.14,2.18a6.27,6.27,0,0,0-3.8,2.92l-12.1,21a6.25,6.25,0,0,0-.63,4.75l2.18,8.13a6.24,6.24,0,0,0,2.92,3.8l8.63,5a5.12,5.12,0,0,0,7-1.87l19.2-33.26A5.13,5.13,0,0,0,145,606.31Zm-15.29,16.82a4.27,4.27,0,1,1-8.53,0v0a4.27,4.27,0,1,1,8.53,0Z"/><path class="cls-3" d="M65.54,583H22.87v15.07H21.73v8.54h1.14v9.95H31.3a7.11,7.11,0,0,0,5-2.08l.67-.67a7.11,7.11,0,0,1,5-2.08H65.54a4.27,4.27,0,0,0,4.26-4.27v-20.2A4.26,4.26,0,0,0,65.54,583Zm-9.68,14.22a3.84,3.84,0,0,1-7.68,0v-1.14a3.84,3.84,0,1,1,7.68,0Z"/><path class="cls-3" d="M127.89,558.18a14.23,14.23,0,0,0-4-.56h-.25a.85.85,0,0,1-.85-.85.83.83,0,0,1,.16-.5,5.42,5.42,0,0,0-1.25-7.54,5.48,5.48,0,0,0-2.78-1,2.84,2.84,0,0,1-2.65-2.83V515.13a2.84,2.84,0,0,1,2.65-2.84,5.39,5.39,0,0,0,5-5.76,5.47,5.47,0,0,0-1-2.78.85.85,0,0,1,.19-1.19.9.9,0,0,1,.5-.16h.25a13.86,13.86,0,0,0,4-.56l12.53-3.62a19.34,19.34,0,0,0-17.59-11.29H97a129.52,129.52,0,0,0-17.82,1.24,62.56,62.56,0,0,0-20.63,6.71v25l-.44.53-.47.55-1,1.08-.51.51-.5.46-.53.45-.52.41-.18.17-.14.19-.07.19,0,.16v10.81l0,.16.07.18.14.19.18.18.52.41.53.45.5.46.51.5,1,1.09.47.54.44.53v27q2.7.92,5.45,1.64a128.14,128.14,0,0,0,33,4.32h25.81a19.35,19.35,0,0,0,17.59-11.3Zm-.12-64.38a3.35,3.35,0,1,1-3.34,3.34A3.35,3.35,0,0,1,127.77,493.8Zm-56,57-.46-.36h0l-.5-.39h0l-.28-.23-1-.84.11.09-.21-.18-.09-.09L69,548.5l.27.28-1-1-.19-.21.09.08-.62-.69.08.1-.39-.44-.41-.52c.05.07.11.13.16.19l-.61-.77,0,.06-.13-.17-.89-1.27v0c.16.25.34.48.5.72l-.42-.6-.54-.89c.08.14.16.29.25.43l-.58-1-.17-.32.13.23-.51-1c0,.06,0,.12.08.17l-.26-.49-.33-.72c.07.15.14.3.22.44l-.46-1-.56-1.41c.18.49.37,1,.58,1.45l-.09-.19-.56-1.44,0-.08c0,.09.07.17.1.26l-.36-1.11c.05.17.1.35.16.53l-.35-1.07-.1-.4c0,.13.08.25.11.37l-.3-1.13a1.06,1.06,0,0,1,0,.19l-.13-.53-.16-.81.15.68-.23-1.14-.21-1.41c.06.45.11.9.19,1.34l0-.18-.2-1.53v-.08c0,.11,0,.22.05.34l-.11-1.27c0,.14,0,.29,0,.43l-.07-1v-.41c0,.16,0,.32,0,.48l0-1.29v-.32l0-.88c0,.35,0,.71,0,1.07l0-1.41.11-1.17c0,.32-.08.64-.1.95v-.11l.17-1.53,0-.17c0,.13,0,.26,0,.39l.18-1.16c0,.08,0,.16-.05.24l.14-.83.13-.57c0,.17-.06.34-.1.51l.23-1.07.15-.53c-.05.17-.11.35-.15.52l.08-.36.43-1.49c0,.11-.05.22-.08.32l.46-1.37.57-1.42.66-1.37.73-1.34.81-1.29.89-1.24,1-1.19,1-1.13c.4-.41.81-.81,1.24-1.2l-.25.25a27.14,27.14,0,0,0,.68,38.38,25.71,25.71,0,0,0,2.64,2.25c-.51-.34-1-.71-1.47-1.07Zm6.07,4.82c-2.61-1.13-4.52-2.58-4.79-5.64-.24-2.73.32-4.52,3.53-5.06,1.73-.29,2.3-2.21,2.28-4.08q-.07-10.89,0-21.77c0-1.92-1-3-2.5-4.05-4.63-3.17-4.26-7.33,1-9.62,10.55-4.59,27.54,1.91,31.22,10.34,2.12,4.86,4.42,9.54,3.89,14.84C114,550,91.44,561.56,77.8,555.64Zm36.53-48.76a4.27,4.27,0,0,1,8.54,0v0a4.27,4.27,0,1,1-8.54,0Zm4.26,50.52a4.27,4.27,0,0,1-4.26-4.27v0a4.27,4.27,0,1,1,8.54,0h0A4.27,4.27,0,0,1,118.59,557.4Zm9.18,8.82a3.34,3.34,0,1,1,3.35-3.34A3.34,3.34,0,0,1,127.77,566.22Z"/><path class="cls-3" d="M100.7,341.18a4.27,4.27,0,0,0-4.63-3.87l-23.42,2a7.1,7.1,0,0,1-5.19-1.63l-.72-.61a7.17,7.17,0,0,0-5.2-1.64l-8.4.74.87,9.92-1.13.09.74,8.51,1.13-.1,1.32,15,42.51-3.72a4.29,4.29,0,0,0,3.88-4.63ZM84.31,357.89a3.84,3.84,0,0,1-4.16-3.49l-.1-1.13a3.84,3.84,0,1,1,7.65-.67l.1,1.13A3.84,3.84,0,0,1,84.31,357.89Z"/><path class="cls-2" d="M135.1,284.89l-.06-.33-.1-.31-.12-.31-.15-.29L119.8,257.9c.12-.18.23-.37.33-.55l.12-.34,0-.35-.05-.36-.14-.33-3.36-5.82-.22-.28-.28-.23-.32-.14-.36-.06a5.41,5.41,0,0,0-5.28,3.49l-11,6.36-.33.18-.35.15-.73.24-.74.16-.74.11a5.42,5.42,0,0,0-4.91,5.63v.42l0,.41,0,.41-.08.39-.11.37-.14.37-.16.35-.21.33a15.45,15.45,0,0,1-4.93,4.52L58.85,288.86a4.48,4.48,0,0,0-2.23,3.87v14.79l0,.38.06.38.09.38.11.37.14.36.16.35.18.34,3.88,6.72.18.28.2.25.22.23.25.22.26.18.28.16.3.14.3.11.6.14.64.07h.67l.68-.07.7-.15.69-.22.68-.28.66-.34,41.87-24.17a4.26,4.26,0,0,1,5.42,1l.33.37.35.35.38.32.4.29.35.21.36.16.26.08.26.06.27,0h.27l.27,0,.27-.06.25-.09.24-.12,13.29-7.67.28-.18.26-.21.24-.22.22-.25.19-.27.16-.29.13-.3.1-.31.07-.33,0-.32v-.33ZM94.44,265.5a2.42,2.42,0,1,1,4.84,0h0a2.42,2.42,0,0,1-4.84,0Zm17.4,18.83L79.75,302.86A5.69,5.69,0,0,1,72,300.78l-1.42-2.47a5.68,5.68,0,0,1,2.08-7.77L104.73,272a5.69,5.69,0,0,1,7.77,2.08l1.42,2.46A5.69,5.69,0,0,1,111.84,284.33Zm5.92-29.48a2.42,2.42,0,0,1-4.84,0h0a2.42,2.42,0,0,1,4.84,0Z"/><path class="cls-2" d="M156.12,310.2l-9.25-16a1.41,1.41,0,0,0-1.94-.52l-7.39,4.26a7.13,7.13,0,0,0-2.61,9.72l3.56,6.16a7.11,7.11,0,0,0,9.71,2.6l7.4-4.27A1.42,1.42,0,0,0,156.12,310.2Zm-8-3.73a4,4,0,1,1-8,0h0a4,4,0,1,1,8,0Z"/><path class="cls-3" d="M181.62,336.2h3a1.42,1.42,0,0,0,1.42-1.43v-9.95a1.41,1.41,0,0,0-1.42-1.42h-3.72a5.7,5.7,0,0,0-2.83.75,42.66,42.66,0,0,1-40.67,1,15.83,15.83,0,0,0-7.23-1.74h-15a1.42,1.42,0,0,0-1.42,1.42V326a1.43,1.43,0,0,0,1.42,1.42h2.85a2.42,2.42,0,0,1,0,4.83H115.2a1.43,1.43,0,0,0-1.42,1.43v.49a5.67,5.67,0,0,0,1.33,3.65l3.16,3.77c.11.14.22.27.32.41l-.1.1-.55.64-.59.65-.6.63-.61.58-.37.41-.36.39-.33.37-.32.36-.18.27-.13.28-.08.31,0,.32v9.15l0,.31.08.32.13.28.18.26.32.36.33.38.36.39.37.41.61.58.6.62.59.65.55.65.1.1c-.1.14-.21.27-.32.4l-3.16,3.77a5.7,5.7,0,0,0-1.33,3.66v.49a1.43,1.43,0,0,0,1.42,1.42h2.85a2.42,2.42,0,0,1,0,4.84H115.2a1.42,1.42,0,0,0-1.42,1.42v1.14a1.42,1.42,0,0,0,1.42,1.42h15a16,16,0,0,0,7.23-1.74,42.69,42.69,0,0,1,40.67,1,5.61,5.61,0,0,0,2.83.76h3.72a1.42,1.42,0,0,0,1.42-1.42v-10a1.42,1.42,0,0,0-1.42-1.42h-3a4.27,4.27,0,0,1-4.27-4.27V340.46A4.27,4.27,0,0,1,181.62,336.2Zm-53.37,36.2a2.49,2.49,0,1,1,2.49-2.49A2.49,2.49,0,0,1,128.25,372.4Zm0-36.13a2.49,2.49,0,1,1,2.49-2.49A2.49,2.49,0,0,1,128.25,336.27Zm43.49,28.37a2.85,2.85,0,0,1-2.85,2.85H136.67a2.84,2.84,0,0,1-2.27-1.14,1.42,1.42,0,0,1,.85-.28h2.28a1.43,1.43,0,0,0,1.42-1.43V339a1.43,1.43,0,0,0-1.42-1.42h-2.28a1.42,1.42,0,0,1-.85-.28,2.84,2.84,0,0,1,2.27-1.14h32.22a2.85,2.85,0,0,1,2.85,2.84Zm7.89,7.83a2.49,2.49,0,1,1-2.49,2.49A2.48,2.48,0,0,1,179.63,372.47Zm-2.49-43.74a2.49,2.49,0,1,1,2.49,2.49A2.5,2.5,0,0,1,177.14,328.73Z"/><path class="cls-3" d="M247.36,365.49l0-.22-.09-.2-.17-.15-4.93-2.85-.78.22-.07.13-3.7-2.14,8.72-15.09a1.14,1.14,0,0,0-.42-1.55L224,331a1.41,1.41,0,0,0-1.94.52l-8.57,14.84a1.43,1.43,0,0,0,.52,2l14,8.1a.72.72,0,0,1,.26,1l-3.55,6.15,1,.58L221.19,372l-1-.58-2.56,4.44,1,.58-4.55,7.88-1-.58-3.56,6.17a.72.72,0,0,1-1,.26L190.8,379.9a1.42,1.42,0,0,0-1.94.53l-14.07,24.36a7.1,7.1,0,0,0,1,8.41,57,57,0,0,0,13.12,10.43l20,11.52a1.42,1.42,0,0,0,1.94-.52l1-1.77a4.27,4.27,0,0,0,.42-3.24l-.12-.47-1.09-.62,36.27-62.83Zm-56.8,46a4.27,4.27,0,1,1-8.54,0h0a4.27,4.27,0,0,1,8.54,0Zm24.11-4.65-2.1,3.63a4.25,4.25,0,0,1-5.82,1.56l-8.38-4.84a4.25,4.25,0,0,1-1.56-5.82l2.09-3.64a4.27,4.27,0,0,1,5.83-1.56l8.38,4.84A4.27,4.27,0,0,1,214.67,406.83Zm14.43-62a4.27,4.27,0,1,1,4.27-4.27A4.27,4.27,0,0,1,229.1,344.86Z"/><path class="cls-3" d="M194.09,450.78l-33.26-19.2a5.13,5.13,0,0,0-7,1.88l-5,8.63a6.26,6.26,0,0,0-.63,4.75l10,37.28a6.26,6.26,0,0,0,2.92,3.81l8.63,5a5.12,5.12,0,0,0,7-1.87L196,457.78A5.13,5.13,0,0,0,194.09,450.78Zm-33.94.46a4.27,4.27,0,0,1-4.26-4.28h0a4.27,4.27,0,0,1,8.54,0v0A4.27,4.27,0,0,1,160.15,451.24Zm12.61,26.83a4.27,4.27,0,0,1-8.54,0v0a4.27,4.27,0,0,1,8.54,0Z"/><path class="cls-3" d="M288.29,183.12l-10-17.24a7.1,7.1,0,0,0-9.71-2.61L163.05,224.22a7.11,7.11,0,0,0-2.6,9.71L169,248.72a1.41,1.41,0,0,1-.52,1.94l-20.29,11.71a4.27,4.27,0,0,0-1.56,5.83l19.91,34.49a4.27,4.27,0,0,0,5.83,1.56h0l23.25-13.42.05,0,.43-.29.39-.34.34-.39.3-.42,0-.05a32.72,32.72,0,0,1,11.79-11.67l.55-.31a5.15,5.15,0,0,0,2.14-2.4,28.47,28.47,0,0,1,11.89-13.35L256,242.83a14.19,14.19,0,0,0,6.62-8.63L271.77,200a7.13,7.13,0,0,1,3.31-4.32L286.73,189A4.27,4.27,0,0,0,288.29,183.12ZM163.2,272.32a3.84,3.84,0,1,1,3.84-3.84A3.84,3.84,0,0,1,163.2,272.32ZM170.14,233l-.26-.39-.21-.42-.14-.45-.08-.46v-.47l.05-.46.12-.45.18-.43.24-.4.3-.37.34-.31.39-.27.42-.21.44-.14.46-.09h.47l.46.05a3.3,3.3,0,0,1,2.67,3.82,5.44,5.44,0,0,1-.15.54l-.19.43-.25.39-.3.36-.35.31-.39.26-.42.2-.45.14-.46.07h-.46l-.47-.06-.45-.12-.43-.19-.4-.24-.36-.3Zm4.43,59a3.84,3.84,0,1,1,3.84-3.84A3.84,3.84,0,0,1,174.57,292Zm16.26-69a2.49,2.49,0,1,1,2.49-2.49A2.5,2.5,0,0,1,190.83,223Zm24.25-18.93.12-.46.18-.43.25-.4.29-.36.34-.32.39-.26.42-.21.44-.15.46-.08.47,0,.46,0a2.39,2.39,0,0,1,.54.15,3.28,3.28,0,0,1,2,4.21l-.19.43-.25.4-.3.36-.35.31-.39.25-.42.2-.44.14-.47.08h-.46l-.47-.06-.45-.13-.43-.18-.4-.25-.35-.29-.32-.35-.26-.39-.2-.42-.15-.44L215,205v-.47Zm.29,54.63a2.49,2.49,0,1,1-5,0h0a2.49,2.49,0,0,1,5,0Zm21.8-28a16.36,16.36,0,1,1-21.81-17.49,2.83,2.83,0,0,1,1.47-.12,8.55,8.55,0,0,0,4.77-.53,2.85,2.85,0,0,1,1.47-.19A16.36,16.36,0,0,1,237.17,230.68Zm16.38,6a2.49,2.49,0,1,1-5,0h0a2.49,2.49,0,0,1,5,0Zm-2-40a3.84,3.84,0,1,1,3.84-3.84A3.84,3.84,0,0,1,251.59,196.65Zm19.71-11.38a3.84,3.84,0,1,1,3.84-3.84A3.84,3.84,0,0,1,271.3,185.27Z"/><path class="cls-3" d="M299.19,278.92,267,260.35a14.25,14.25,0,0,0-8.35-1.85l-4.19.37a5.73,5.73,0,0,1-3.34-.74l-3-1.74a5.69,5.69,0,0,0-7.77,2.08l-3,5.27a1.42,1.42,0,0,0,.52,1.94l7.39,4.27a1.41,1.41,0,0,1,.52,1.94l-18.49,32-1.94.52-5.39-3.11-.27-.13-.29-.09-.3,0h-.3l-.29.08-.27.14-.23.19-.18.24-3.43,5.94-.11.22-.06.24,0,.24,0,.24.09.23.13.2.16.18.2.14,4.39,2.63,4.38,2.63L225.8,316l2.27,1.36L232.6,320l.64.37.65.34.67.32.67.29.69.27.69.25.71.21.71.19.5.1.5.05h.5l.51-.05.57-.12.58-.15.56-.19.55-.22.55-.25.54-.29.53-.33.51-.35.5-.38.48-.42.46-.44.44-.46.42-.48.38-.51.37-.52.33-.54,2.89-5a2.86,2.86,0,0,1,3.89-1L274.3,322a4.25,4.25,0,0,0,5.82-1.56l20.63-35.72A4.27,4.27,0,0,0,299.19,278.92Zm-46.25,13.54-7.11,12.31a3.7,3.7,0,0,1-6.41-3.69l7.11-12.32a3.7,3.7,0,0,1,6.41,3.7Zm19.49,16.73a3.84,3.84,0,1,1,3.84-3.84A3.84,3.84,0,0,1,272.43,309.19Zm11.38-19.71a3.84,3.84,0,1,1,3.84-3.84A3.84,3.84,0,0,1,283.81,289.48Z"/><path class="cls-3" d="M338.39,233.68H290a4.27,4.27,0,0,0-4.27,4.26v6.77a4.28,4.28,0,0,0,1.25,3L309.28,270a7.11,7.11,0,0,0,5,2.08h25.5a2.84,2.84,0,0,0,2.84-2.84h0v-31.3A4.26,4.26,0,0,0,338.39,233.68ZM310,261.29a1.42,1.42,0,0,1-1.42,1.42,1.46,1.46,0,0,1-1-.41l-7.7-7.7a1.42,1.42,0,0,1,1-2.43h7.7a1.42,1.42,0,0,1,1.42,1.42Z"/><path class="cls-3" d="M353.52,144.88l-11.38-19.71a2.85,2.85,0,0,0-3.89-1l-45,26a2.83,2.83,0,0,0-1,3.88l13.25,23A11.32,11.32,0,0,1,307,183a19.2,19.2,0,1,0,37.84-3.93,42.64,42.64,0,0,1,.23-21.2l.31-1.17a11.36,11.36,0,0,1,5.31-6.91l1.76-1A2.85,2.85,0,0,0,353.52,144.88Zm-42.95,15.5a3.84,3.84,0,1,1,3.84-3.84A3.84,3.84,0,0,1,310.57,160.38Zm24.49,23.28a8.85,8.85,0,1,1-17.7,0v0a8.85,8.85,0,0,1,17.7,0Zm.76-37.86a3.84,3.84,0,1,1,3.84-3.84A3.84,3.84,0,0,1,335.82,145.8Z"/><path class="cls-3" d="M494.62,156.44l-.14-.61-.21-.58-.28-.56L475.12,122a1.42,1.42,0,0,0-1.94-.53l-22.91,13.23a.56.56,0,0,1-.78-.21l-13.8-23.89a.58.58,0,0,1,.21-.78h0L458.81,96.6a1.41,1.41,0,0,0,.52-1.94L440.46,62l-.34-.52-.4-.47-.45-.42-.5-.37-.52-.29-.56-.22-.57-.15-.57-.07H436l-.56.09-.54.17-.5.25L402.79,78.21l-.61.41-.57.47-.5.53-.44.59-.37.64-.29.67-7.23,19.66-.3.68-.37.64-.44.58-.5.54-.57.47-.61.4L359.83,121.9l-.62.41-.56.47-.51.53-.43.59-.37.64-.3.68-.55,1.48-.2.68-.13.68-.06.69,0,.7.1.68.17.67.25.65.32.63L391.52,192l.39.59.44.54.5.48.54.43.59.36.63.3.65.23.69.15,1.56.27.74.09H399l.73-.09.71-.17.7-.25.66-.34,30.15-17.41.66-.33.69-.25.72-.17.72-.09h.74l.73.09L456.83,180l.74.09h.73L459,180l.71-.17.7-.25.66-.34L492.68,161l.46-.32.42-.38.36-.43.29-.49.23-.54.16-.56.08-.59V157Zm-80.79-47a4.27,4.27,0,1,1-4.27,4.26A4.27,4.27,0,0,1,413.83,109.44ZM375.65,140a4.27,4.27,0,1,1,4.26-4.27A4.27,4.27,0,0,1,375.65,140Zm22,38.18a4.27,4.27,0,1,1,4.27-4.26A4.27,4.27,0,0,1,397.69,178.2Zm26.56-34.37a18.49,18.49,0,0,1-37,0h0a18.49,18.49,0,0,1,37,0Zm5.06-60.41h0a7.11,7.11,0,1,1,14.22,0h0a7.11,7.11,0,1,1-14.22,0Zm6.57,72.74a4.27,4.27,0,1,1,4.26-4.27A4.27,4.27,0,0,1,435.88,156.16Zm44.63-8.68a7.11,7.11,0,0,1-14.22,0h0a7.11,7.11,0,0,1,14.22,0Z"/><path class="cls-2" d="M417.38,207.85l-5.75-2.09-.49,1.33-7.39,20.32a1.42,1.42,0,0,1-1.82.85l-38-13.82a1.41,1.41,0,0,1-.85-1.82l7.39-20.31L371,191l-5.75-2.09a4.26,4.26,0,0,0-5.47,2.55L352,212.81a8.54,8.54,0,0,0,5.1,10.94l44.1,16.05a8.53,8.53,0,0,0,10.94-5.1l7.79-21.38A4.28,4.28,0,0,0,417.38,207.85Zm-33.79,18.59a2.49,2.49,0,0,1-5,0h0a2.49,2.49,0,1,1,5,0Z"/><path class="cls-3" d="M421.64,256.86H359.26a1.42,1.42,0,0,0-1.42,1.43v11.37a1.42,1.42,0,0,0,1.42,1.43h62.38a1.43,1.43,0,0,0,1.42-1.43V258.29A1.43,1.43,0,0,0,421.64,256.86Zm-28.77,10a2.42,2.42,0,0,1-4.84,0h0a2.42,2.42,0,0,1,4.84,0Z"/><path class="cls-3" d="M492.87,198.17H455.73a14.15,14.15,0,0,0-8.15,2.57l-3.45,2.41a5.66,5.66,0,0,1-3.26,1h-3.48a5.69,5.69,0,0,0-5.69,5.69V216a1.43,1.43,0,0,0,1.43,1.42h8.53a1.41,1.41,0,0,1,1.42,1.42v37l-1.42,1.42h-6.22l-.3,0-.3.07-.27.12-.25.16-.21.21-.17.26-.1.28,0,.3v6.86l0,.24.06.24.11.22.15.19.18.15.22.12.23.06.24,0,5.12.08,5.1.09,2.6,0,2.64,0,5.29.09h.73l.74,0L458,267l.74-.09.72-.11.73-.13.72-.17.71-.19.48-.16.46-.21.43-.26.41-.3.44-.39.42-.42.39-.44.37-.47.35-.49.32-.52.3-.55.27-.56.24-.58.21-.6.18-.61.15-.62.11-.63.09-.63.05-.63v-6.43a2.85,2.85,0,0,1,2.85-2.84h22.76a4.27,4.27,0,0,0,4.26-4.27V202.43A4.26,4.26,0,0,0,492.87,198.17Zm-33.29,49.07a3.7,3.7,0,0,1-7.39,0V233a3.7,3.7,0,0,1,7.39,0Zm23.33-9a3.84,3.84,0,1,1,3.84-3.84A3.84,3.84,0,0,1,482.91,238.28Zm0-22.76a3.84,3.84,0,1,1,3.84-3.84A3.84,3.84,0,0,1,482.91,215.52Z"/><path class="cls-3" d="M606.66,79.06l-.37-1.38-2.55-1.47L599,73.47l-33.43-19.3-4.75-2.75-3.17-1.83-1.38.37a1.46,1.46,0,0,0-.86.66l-2.23,3.87a2.84,2.84,0,0,0,1,3.88l7.55,4.36a7.13,7.13,0,0,1,3.31,4.32l3.68,13.74a7.1,7.1,0,0,1-.71,5.39l-1.23,2.13a4.27,4.27,0,0,0,1.56,5.83l2.47,1.42a1.41,1.41,0,0,0,1.94-.52l11-19a.58.58,0,0,1,.78-.21L600.4,85a2.85,2.85,0,0,0,3.89-1l2.23-3.86A1.41,1.41,0,0,0,606.66,79.06Zm-45.11-21A2.49,2.49,0,1,1,564,55.62,2.48,2.48,0,0,1,561.55,58.11Zm40.67,19.57a2.49,2.49,0,0,1-5,0h0a2.49,2.49,0,1,1,5,0Z"/><path class="cls-3" d="M793.29,185.81,617.87,84.53a5.68,5.68,0,0,0-6.94,1A110.13,110.13,0,0,0,594.74,107l-8.4,14.53a5.69,5.69,0,0,0,2.09,7.77l11.33,6.55,158.16,91.31,11.33,6.54A5.69,5.69,0,0,0,777,231.6l8.4-14.54a110.23,110.23,0,0,0,10.5-24.76A5.69,5.69,0,0,0,793.29,185.81Zm-65-24.26a1.44,1.44,0,0,1,1.42,0l20.85,12a1.42,1.42,0,0,1-.71,2.65H736.72a2.82,2.82,0,0,1-2.46-1.42l-6.54-11.32A1.43,1.43,0,0,1,728.24,161.55Zm-26.61-15.36a1.44,1.44,0,0,1,1.42,0l20.85,12a1.42,1.42,0,0,1-.71,2.65H710.11a2.85,2.85,0,0,1-2.46-1.42l-6.54-11.33A1.42,1.42,0,0,1,701.63,146.19ZM675,130.83a1.46,1.46,0,0,1,1.43,0l20.85,12a1.42,1.42,0,0,1,.52,1.94,1.44,1.44,0,0,1-1.23.71H683.51A2.85,2.85,0,0,1,681,144.1l-6.54-11.33A1.42,1.42,0,0,1,675,130.83Zm-26.6-15.36a1.39,1.39,0,0,1,1.42,0l20.85,12a1.42,1.42,0,0,1-.71,2.65H656.9a2.82,2.82,0,0,1-2.46-1.42l-6.54-11.33A1.41,1.41,0,0,1,648.42,115.47Zm-26.61-15.36a1.39,1.39,0,0,1,1.42,0l20.85,12a1.43,1.43,0,0,1,.52,2,1.41,1.41,0,0,1-1.23.71H630.29a2.85,2.85,0,0,1-2.46-1.42l-6.54-11.33A1.42,1.42,0,0,1,621.81,100.11Zm-19.27,12.76a2.42,2.42,0,0,1,4.84,0h0a2.42,2.42,0,1,1-4.84,0Zm.33,13,12.31-21.33a2.85,2.85,0,0,1,3.89-1,2.88,2.88,0,0,1,1,1l5.75,10a2.85,2.85,0,0,1,0,2.85l-6.57,11.38a2.85,2.85,0,0,1-2.46,1.42h-11.5a2.84,2.84,0,0,1-2.84-2.84A2.89,2.89,0,0,1,602.87,125.89Zm22.44,21.24a1.44,1.44,0,0,1-1.42,0l-20.85-12a1.42,1.42,0,0,1,.71-2.65h13.08a2.85,2.85,0,0,1,2.46,1.42l6.54,11.32A1.43,1.43,0,0,1,625.31,147.13Zm2.52-3-6.57-11.38a2.83,2.83,0,0,1,0-2.84l6.57-11.38a2.86,2.86,0,0,1,2.46-1.43h13.14a2.86,2.86,0,0,1,2.47,1.43l6.57,11.38a2.88,2.88,0,0,1,0,2.84L645.9,144.1a2.85,2.85,0,0,1-2.47,1.42H630.29A2.85,2.85,0,0,1,627.83,144.1Zm24.09,18.39a1.46,1.46,0,0,1-1.43,0l-20.85-12a1.42,1.42,0,0,1-.52-1.94,1.44,1.44,0,0,1,1.23-.71h13.08a2.85,2.85,0,0,1,2.47,1.42l6.54,11.33A1.42,1.42,0,0,1,651.92,162.49Zm2.52-3-6.57-11.38a2.83,2.83,0,0,1,0-2.84l6.57-11.38a2.82,2.82,0,0,1,2.46-1.42H670a2.83,2.83,0,0,1,2.46,1.42l6.57,11.38a2.83,2.83,0,0,1,0,2.84l-6.57,11.38a2.83,2.83,0,0,1-2.46,1.42H656.9A2.82,2.82,0,0,1,654.44,159.46Zm24.08,18.39a1.44,1.44,0,0,1-1.42,0l-20.85-12a1.42,1.42,0,0,1,.71-2.65H670a2.83,2.83,0,0,1,2.46,1.42L679,175.91A1.42,1.42,0,0,1,678.52,177.85Zm2.52-3-6.57-11.38a2.88,2.88,0,0,1,0-2.84L681,149.22a2.85,2.85,0,0,1,2.47-1.42h13.14a2.85,2.85,0,0,1,2.46,1.42l6.57,11.38a2.83,2.83,0,0,1,0,2.84l-6.57,11.38a2.85,2.85,0,0,1-2.46,1.42H683.51A2.85,2.85,0,0,1,681,174.82Zm24.09,18.39a1.39,1.39,0,0,1-1.42,0l-20.85-12a1.42,1.42,0,0,1,.71-2.65h13.08a2.85,2.85,0,0,1,2.46,1.42l6.54,11.33A1.42,1.42,0,0,1,705.13,193.21Zm2.52-3-6.57-11.38a2.83,2.83,0,0,1,0-2.84l6.57-11.38a2.85,2.85,0,0,1,2.46-1.42h13.14a2.85,2.85,0,0,1,2.47,1.42L732.29,176a2.88,2.88,0,0,1,0,2.84l-6.57,11.38a2.86,2.86,0,0,1-2.47,1.43H710.11A2.86,2.86,0,0,1,707.65,190.18Zm24.08,18.39a1.39,1.39,0,0,1-1.42,0l-20.85-12a1.43,1.43,0,0,1,.71-2.66h13.08a2.85,2.85,0,0,1,2.47,1.42l6.53,11.33A1.41,1.41,0,0,1,731.73,208.57Zm2.53-3-6.57-11.37a2.85,2.85,0,0,1,0-2.85l6.57-11.38a2.82,2.82,0,0,1,2.46-1.42h13.14a2.85,2.85,0,0,1,2.46,1.42l6.57,11.38a2.85,2.85,0,0,1,0,2.85l-6.57,11.37a2.84,2.84,0,0,1-2.46,1.43H736.72A2.83,2.83,0,0,1,734.26,205.54Zm24.08,18.39a1.39,1.39,0,0,1-1.42,0l-20.85-12a1.43,1.43,0,0,1-.52-2,1.41,1.41,0,0,1,1.23-.71h13.08a2.83,2.83,0,0,1,2.46,1.42L758.86,222A1.42,1.42,0,0,1,758.34,223.93Zm16.85-10.35a2.42,2.42,0,1,1,2.42-2.42A2.42,2.42,0,0,1,775.19,213.58Zm2.1-15.43L765,219.48a2.85,2.85,0,0,1-3.89,1,2.81,2.81,0,0,1-1-1l-5.75-9.95a2.85,2.85,0,0,1,0-2.85l6.57-11.38a2.85,2.85,0,0,1,2.47-1.42h11.49a2.85,2.85,0,0,1,2.47,4.27Zm.35-7.26a1.45,1.45,0,0,1-1.24.72H763.33a2.86,2.86,0,0,1-2.47-1.43l-6.54-11.32a1.43,1.43,0,0,1,.52-2,1.46,1.46,0,0,1,1.43,0l20.85,12A1.42,1.42,0,0,1,777.64,190.89Z"/><path class="cls-3" d="M724.9,222.46l-15.17-4.69a28.14,28.14,0,0,1-5.82-2.54l-72.07-41.61a28.09,28.09,0,0,1-5.11-3.77l-11.64-10.79a4.34,4.34,0,0,0-5.9,6.37L616.3,172a14.22,14.22,0,0,1,4.45,12.18,8.53,8.53,0,0,0,4.2,8.44l65.94,38.07a8.55,8.55,0,0,0,9.41-.58,14.21,14.21,0,0,1,12.77-2.24l9.26,2.86a4.34,4.34,0,0,0,2.57-8.29ZM612.14,164.31a2.07,2.07,0,1,1,2.06-2.06A2.06,2.06,0,0,1,612.14,164.31ZM633,184.81a1.71,1.71,0,1,1-3.41,0h0a1.71,1.71,0,0,1,3.41,0Zm33.39,20.27a2.84,2.84,0,0,1-3.88,1l-26.3-15.19a2.84,2.84,0,0,1,2.85-4.92l26.3,15.18A2.84,2.84,0,0,1,666.4,205.08Zm5.41,2.13a1.71,1.71,0,1,1-3.41,0h0a1.71,1.71,0,1,1,3.41,0Zm18.8,11.84a2.84,2.84,0,0,1-3.88,1l-11.89-6.86a2.84,2.84,0,0,1,2.84-4.93l11.89,6.87A2.83,2.83,0,0,1,690.61,219.05Zm33,9.62a2.06,2.06,0,1,1,2.07-2.06A2.06,2.06,0,0,1,723.61,228.67Z"/><path class="cls-3" d="M746.32,251.91a4.32,4.32,0,0,0-5.18-3.28h0l-15.48,3.52a28.52,28.52,0,0,1-6.31.71H636.11a28.52,28.52,0,0,1-6.31-.71l-15.48-3.52a4.34,4.34,0,0,0-2,8.46h0l9.45,2.15a14.24,14.24,0,0,1,9.94,8.33,8.56,8.56,0,0,0,7.86,5.21h76.14a8.54,8.54,0,0,0,7.85-5.21,14.27,14.27,0,0,1,10-8.33l9.45-2.15A4.32,4.32,0,0,0,746.32,251.91Zm-133,3a2.06,2.06,0,1,1,2.06-2.06A2.06,2.06,0,0,1,613.36,254.92Zm48.93,10.74H648.56a2.85,2.85,0,0,1,0-5.69h13.73a2.85,2.85,0,0,1,0,5.69Zm8.82-2.84a1.71,1.71,0,0,1-3.42,0h0a1.71,1.71,0,0,1,3.42,0Zm35.77,2.84H676.51a2.85,2.85,0,0,1,0-5.69h30.37a2.85,2.85,0,0,1,0,5.69Zm9-2.84a1.71,1.71,0,1,1-3.41,0h0a1.71,1.71,0,1,1,3.41,0Zm26.17-7.9a2.06,2.06,0,1,1,2.06-2.06A2.06,2.06,0,0,1,742.08,254.92Z"/><path class="cls-2" d="M636.69,220.46h-7.12a7.11,7.11,0,0,0-7.11,7.11v8.53a1.42,1.42,0,0,0,1.43,1.42h18.49a1.42,1.42,0,0,0,1.42-1.42v-8.53A7.11,7.11,0,0,0,636.69,220.46ZM633.13,233a4,4,0,1,1,4-4A4,4,0,0,1,633.13,233Z"/><path class="cls-3" d="M568.94,313.77l-2.47-1.42-.3-.13-.32-.06-.33,0-.32.09a2.87,2.87,0,0,0-1.19-1.34L495,271.1l-2.47-1.42a2.85,2.85,0,0,0-3.89,1l-9.6,16.63a1.13,1.13,0,0,0-1.55.42l-47.93,83a1.13,1.13,0,0,0,.41,1.55l-10.67,18.48a2.85,2.85,0,0,0,1.05,3.89l2.46,1.42,4.83,2.79a4.27,4.27,0,0,1,2.14,3.69v13.14a8.52,8.52,0,0,0,4.26,7.39l11.38,6.57a8.52,8.52,0,0,0,8.54,0l11.37-6.57a4.28,4.28,0,0,1,4.27,0L491.83,436a2.78,2.78,0,0,0,1.76.36l.08.32.15.3.21.25.26.19,2.47,1.43a2.84,2.84,0,0,0,3.88-1L570,317.66h0A2.85,2.85,0,0,0,568.94,313.77ZM505.2,284.36a1.48,1.48,0,0,1,.19-.71,1.42,1.42,0,0,1,1.94-.52l22.76,13.14a1.37,1.37,0,0,1,.52.52,1.42,1.42,0,0,1-.52,1.94L523,302.84a4.28,4.28,0,0,1-4.27,0l-11.38-6.57a4.26,4.26,0,0,1-2.13-3.7Zm0,15.61,11.38,6.57a4.26,4.26,0,0,1,2.13,3.69v13.14a4.26,4.26,0,0,1-2.13,3.69l-11.38,6.57a4.24,4.24,0,0,1-4.27,0l-11.38-6.57a4.26,4.26,0,0,1-2.13-3.69V310.23a4.26,4.26,0,0,1,2.13-3.69L500.93,300A4.24,4.24,0,0,1,505.2,300Zm-4.27,41v13.14a4.26,4.26,0,0,1-2.13,3.7l-11.38,6.57a4.28,4.28,0,0,1-4.27,0l-11.38-6.57a4.26,4.26,0,0,1-2.13-3.7V341a4.26,4.26,0,0,1,2.13-3.69l11.38-6.57a4.28,4.28,0,0,1,4.27,0l11.38,6.57A4.26,4.26,0,0,1,500.93,341Zm-20-42.6.06-.12L492.71,278l.07-.12a2.85,2.85,0,0,1,3.81-.92l2.21,1.27a4.27,4.27,0,0,1,2.13,3.7v10.67a4.26,4.26,0,0,1-2.13,3.7l-11.38,6.57a4.28,4.28,0,0,1-4.27,0l-1.13-.66A2.83,2.83,0,0,1,480.91,298.42Zm-17.78,30.8a.54.54,0,0,1,.07-.13L476,306.92a.75.75,0,0,1,.07-.12,2.83,2.83,0,0,1,3.81-.92l1.14.66a4.26,4.26,0,0,1,2.13,3.69v13.14a4.26,4.26,0,0,1-2.13,3.69l-11.38,6.57a4.24,4.24,0,0,1-4.27,0l-1.13-.65A2.84,2.84,0,0,1,463.13,329.22ZM445.35,360a.75.75,0,0,1,.07-.12l12.8-22.18.07-.12a2.84,2.84,0,0,1,3.81-.92l1.14.66a4.26,4.26,0,0,1,2.13,3.69v13.14a4.26,4.26,0,0,1-2.13,3.7l-11.38,6.57a4.28,4.28,0,0,1-4.27,0l-1.13-.66A2.84,2.84,0,0,1,445.35,360Zm-15.53,35.21-1.14-.65a2.85,2.85,0,0,1-1.11-3.76.54.54,0,0,1,.07-.13l12.8-22.17.07-.12a2.83,2.83,0,0,1,3.81-.92l1.14.65a4.27,4.27,0,0,1,2.13,3.7V385a4.26,4.26,0,0,1-2.13,3.69l-11.38,6.57A4.22,4.22,0,0,1,429.82,395.22Zm13.51,24.89-6-11.93,2.68-4.64,6,11.93Zm10.93,3.38-12-23.87L445,395l12,23.86Zm4.95-8.56-6-11.93,2.68-4.65,6,11.94Zm6.16-19.71L454,388.65a4.25,4.25,0,0,1-2.14-3.69V371.82a4.26,4.26,0,0,1,2.14-3.7l11.37-6.57a4.28,4.28,0,0,1,4.27,0L481,368.12a4.27,4.27,0,0,1,2.13,3.7V385a4.26,4.26,0,0,1-2.13,3.69l-11.38,6.57A4.24,4.24,0,0,1,465.37,395.22Zm35.56,20.53a4.26,4.26,0,0,1-2.13,3.7L487.42,426a4.28,4.28,0,0,1-4.27,0l-11.38-6.57a4.26,4.26,0,0,1-2.13-3.7V402.61a4.26,4.26,0,0,1,2.13-3.69l11.38-6.57a4.28,4.28,0,0,1,4.27,0l11.38,6.57a4.26,4.26,0,0,1,2.13,3.69ZM518.71,385a4.26,4.26,0,0,1-2.13,3.69l-11.38,6.57a4.24,4.24,0,0,1-4.27,0l-11.38-6.57a4.26,4.26,0,0,1-2.13-3.69V371.82a4.27,4.27,0,0,1,2.13-3.7l11.38-6.57a4.28,4.28,0,0,1,4.27,0l11.38,6.57a4.27,4.27,0,0,1,2.13,3.7Zm17.78-30.8a4.26,4.26,0,0,1-2.13,3.7L523,364.43a4.28,4.28,0,0,1-4.27,0l-11.38-6.57a4.26,4.26,0,0,1-2.13-3.7V341a4.26,4.26,0,0,1,2.13-3.69l11.38-6.57a4.28,4.28,0,0,1,4.27,0l11.38,6.57a4.26,4.26,0,0,1,2.13,3.69Zm17.78-30.79a4.26,4.26,0,0,1-2.13,3.69l-11.38,6.57a4.24,4.24,0,0,1-4.27,0l-11.38-6.57a4.26,4.26,0,0,1-2.13-3.69V310.23a4.26,4.26,0,0,1,2.13-3.69l9.25-5.34a4.26,4.26,0,0,1,4.26,0l13.52,7.8a4.26,4.26,0,0,1,2.13,3.69Z"/><path class="cls-2" d="M474.42,460.13,411.6,423.86a6.39,6.39,0,0,0-8.74,2.34L366.59,489a6.41,6.41,0,0,0,2.34,8.75L431.75,534a6.41,6.41,0,0,0,8.74-2.35l36.27-62.82A6.4,6.4,0,0,0,474.42,460.13ZM444.17,444.8,440,442.39A41,41,0,0,1,444.17,444.8Zm-20.36-1.91a4.27,4.27,0,0,1,4.27-4.27,4.52,4.52,0,0,1,.74.06,40.94,40.94,0,0,1,7.54,2.1l1.13.46,8.94,5.16c.32.24.64.49.95.75a40.22,40.22,0,0,1,5.59,5.48,4.26,4.26,0,0,1-.52,6,4.45,4.45,0,0,1-.61.43L441.59,465a4.28,4.28,0,0,1-4.27,0l-11.38-6.57a4.26,4.26,0,0,1-2.13-3.7Zm-8.72,27.42,2.39-4.15,10.72,21.33-2.39,4.15Zm3.34,14.17-2.4,4.15L410.67,478l2.4-4.15Zm6.43-11.15,2.4-4.15,5.36,10.66-2.4,4.16Zm-34.48-20.7a40.89,40.89,0,0,1,24.15-13.95,4.74,4.74,0,0,1,.75-.06,4.27,4.27,0,0,1,4.26,4.27v11.83a4.26,4.26,0,0,1-2.13,3.7L406,465a4.28,4.28,0,0,1-4.27,0l-10.25-5.92a5.16,5.16,0,0,1-.61-.43A4.27,4.27,0,0,1,390.38,452.63Zm-1.68,42.82a4.27,4.27,0,0,1-5.47-2.56,41,41,0,0,1,0-27.89,4.12,4.12,0,0,1,.32-.67,4.28,4.28,0,0,1,5.83-1.57l10.25,5.92a4.26,4.26,0,0,1,2.13,3.7v13.14a4.26,4.26,0,0,1-2.13,3.69l-10.25,5.92A4.22,4.22,0,0,1,388.7,495.45Zm10.48,17.64,4.17,2.41A40.26,40.26,0,0,1,399.18,513.09ZM419.54,515a4.27,4.27,0,0,1-4.26,4.27,4.76,4.76,0,0,1-.75-.07,40.94,40.94,0,0,1-7.54-2.1c-.38-.14-.75-.3-1.13-.45l-8.94-5.16-.95-.75a40.78,40.78,0,0,1-5.59-5.48,4.26,4.26,0,0,1,.52-6,3.55,3.55,0,0,1,.61-.43l10.25-5.92a4.28,4.28,0,0,1,4.27,0l11.38,6.57a4.26,4.26,0,0,1,2.13,3.69ZM453,505.27a40.88,40.88,0,0,1-24.15,13.94,4.53,4.53,0,0,1-.74.07,4.27,4.27,0,0,1-4.27-4.27V503.17a4.26,4.26,0,0,1,2.13-3.69l11.38-6.57a4.28,4.28,0,0,1,4.27,0l10.25,5.92a3.2,3.2,0,0,1,.61.43A4.25,4.25,0,0,1,453,505.27Zm7.15-12.38a4.22,4.22,0,0,1-.32.68,4.27,4.27,0,0,1-5.83,1.56l-10.25-5.92a4.26,4.26,0,0,1-2.13-3.69V472.38a4.26,4.26,0,0,1,2.13-3.7L454,462.76a4.6,4.6,0,0,1,.68-.31,4.27,4.27,0,0,1,5.47,2.55A41,41,0,0,1,460.12,492.89Z"/><path class="cls-3" d="M426.62,563l-2.46-1.43L422.74,564a2.86,2.86,0,0,0-1-3.89l-22.19-12.81a4.26,4.26,0,0,1-2.13-3.69V530.48a8.53,8.53,0,0,0-4.27-7.39l-11.38-6.57a8.5,8.5,0,0,0-8.53,0l-11.38,6.57a4.28,4.28,0,0,1-4.27,0l-7.3-4.22a2.84,2.84,0,0,0-3.88,1l-4.27,7.39a1.13,1.13,0,0,0-1.55.41h0l-18.78,32.52a1.14,1.14,0,0,0,.42,1.56l-4.27,7.39a1.13,1.13,0,0,0-1.55.41l-13.66,23.67a1.13,1.13,0,0,0,.41,1.55l-4.26,7.39a1.41,1.41,0,0,0,.52,1.94,1.37,1.37,0,0,0,1.05.15,7.88,7.88,0,0,1,5.78.82l11,6.35.18.11a7.72,7.72,0,0,0,6.58.52,4.26,4.26,0,0,1,3.65.29L352,626.49a4.26,4.26,0,0,1,2.08,3,7.68,7.68,0,0,0,3.74,5.43l.18.11,11,6.34a7.85,7.85,0,0,1,3.6,4.6,1.43,1.43,0,0,0,1.76,1,1.45,1.45,0,0,0,.84-.66l-.85,1.47,2.46,1.42a2.85,2.85,0,0,0,3.89-1l46.94-81.3A2.84,2.84,0,0,0,426.62,563Zm-64.8-32.49a4.26,4.26,0,0,1,2.13-3.7l11.38-6.57a4.28,4.28,0,0,1,4.27,0L391,526.78a4.26,4.26,0,0,1,2.13,3.7v13.14a4.26,4.26,0,0,1-2.13,3.69l-11.38,6.57a4.28,4.28,0,0,1-4.27,0L364,547.31a4.26,4.26,0,0,1-2.13-3.69Zm0,20.53,11.38,6.57a4.26,4.26,0,0,1,2.13,3.69v13.14a4.27,4.27,0,0,1-2.13,3.7l-11.38,6.57a4.28,4.28,0,0,1-4.27,0l-11.38-6.57a4.27,4.27,0,0,1-2.13-3.7V561.27a4.26,4.26,0,0,1,2.13-3.69L357.55,551A4.28,4.28,0,0,1,361.82,551Zm-24.23-1.67,12.8-22.17a2.85,2.85,0,0,1,3.89-1h0l1.14.65a4.26,4.26,0,0,1,2.13,3.7v13.14a4.26,4.26,0,0,1-2.13,3.69L344,553.88a4.28,4.28,0,0,1-4.27,0l-1.14-.66A2.84,2.84,0,0,1,337.59,549.34Zm-15.6,56a2.84,2.84,0,0,1-4.26,2.46l-8-4.59a2.85,2.85,0,0,1-1-3.89l6.12-10.59a2.84,2.84,0,0,1,3.88-1h0l1.14.66a4.26,4.26,0,0,1,2.13,3.7Zm0-20.69-1.14-.66a2.86,2.86,0,0,1-1-3.89L332.61,558a2.85,2.85,0,0,1,3.89-1l1.14.66a4.26,4.26,0,0,1,2.13,3.69v13.14a4.27,4.27,0,0,1-2.13,3.7l-11.38,6.57A4.28,4.28,0,0,1,322,584.68Zm17.78,30.79-11.38-6.57a4.26,4.26,0,0,1-2.13-3.69V592.07a4.26,4.26,0,0,1,2.13-3.7l11.38-6.57a4.28,4.28,0,0,1,4.27,0l11.38,6.57a4.26,4.26,0,0,1,2.13,3.7v13.14a4.26,4.26,0,0,1-2.13,3.69L344,615.47A4.28,4.28,0,0,1,339.77,615.47Zm35.56,20.69a2.84,2.84,0,0,1-2.84,2.85,2.89,2.89,0,0,1-1.43-.38L359.56,632a4.28,4.28,0,0,1-2.08-3,7.72,7.72,0,0,0-3.74-5.44l-3.3-1.9a2.85,2.85,0,0,1-1-3.89,2.88,2.88,0,0,1,1-1l7.11-4.1a4.24,4.24,0,0,1,4.27,0l11.38,6.57a4.26,4.26,0,0,1,2.13,3.69Zm17.78-30.95A4.26,4.26,0,0,1,391,608.9l-11.38,6.57a4.28,4.28,0,0,1-4.27,0L364,608.9a4.26,4.26,0,0,1-2.13-3.69V592.07a4.26,4.26,0,0,1,2.13-3.7l11.38-6.57a4.28,4.28,0,0,1,4.27,0L391,588.37a4.26,4.26,0,0,1,2.13,3.7Zm17.78-30.8a4.28,4.28,0,0,1-2.14,3.7l-11.37,6.57a4.28,4.28,0,0,1-4.27,0l-11.38-6.57a4.27,4.27,0,0,1-2.13-3.7V561.27a4.26,4.26,0,0,1,2.13-3.69L393.11,551a4.28,4.28,0,0,1,4.27,0l11.37,6.57a4.27,4.27,0,0,1,2.14,3.69Z"/><path class="cls-3" d="M287.6,662.35l-.11-.26-.15-.24-.19-.2-.23-.17-32.74-18.9-.26-.11-.27-.07h-.28l-.28,0-.26.09-.25.15-.2.19-.17.23-3.55,6.16-.12.25-.06.28v.28l0,.28.11.26.15.24.19.2.23.16,1.26.73.23.15.22.18.21.2.18.2.16.23.14.25.12.26.09.26.07.27,0,.29v.28l0,.28,0,.27-.08.28-.11.27-.12.24L201.06,743.3l-.15.23-.18.23-.21.2-.21.18-.23.15-.25.14-.27.11-.26.08-.27,0-.29,0h-.29l-.27,0-.27-.06-.28-.08-.27-.1-.24-.13-11.62-6.7a1.41,1.41,0,0,0-1.94.52h0L177.87,748l-4.26,7.39a1.41,1.41,0,0,0,.52,1.94l8.86,5.12a1.43,1.43,0,0,0,1.95-.52l2.13-3.69a2.85,2.85,0,0,1,3.89-1l28.33,16.35a2.86,2.86,0,0,1,1,3.89h0l-2.13,3.7a1.41,1.41,0,0,0,.52,1.94l8.86,5.12a1.43,1.43,0,0,0,1.95-.52l4.26-7.39,5.69-9.86a1.41,1.41,0,0,0-.52-1.94l-11.61-6.7-.23-.15-.23-.18-.21-.2-.18-.21-.16-.23-.14-.25-.12-.26L226,760l-.06-.27,0-.28v-.29l0-.28,0-.27.08-.28.1-.26.13-.25,50.49-87.46.15-.23.18-.22.2-.21.21-.18.23-.15.26-.13.26-.12.26-.08.28-.05.28,0h.29l.28,0,.27.05.27.08.27.11.25.12,1.25.73.26.11.27.07h.28l.28,0,.27-.1.24-.14.2-.19.17-.23,3.55-6.16.12-.26.06-.27v-.28Zm-53.66,68.73-11.38,19.71a4.25,4.25,0,0,1-5.82,1.56l-1.24-.71-3.69-2.13-1.23-.71A4.28,4.28,0,0,1,209,743l11.38-19.71a4.27,4.27,0,0,1,5.83-1.56l6.16,3.55A4.27,4.27,0,0,1,233.94,731.08Zm18.21-31.53-10,17.24a4.28,4.28,0,0,1-5.83,1.57l-6.16-3.56a4.27,4.27,0,0,1-1.56-5.83l10-17.24a4.27,4.27,0,0,1,5.83-1.57l6.16,3.56A4.27,4.27,0,0,1,252.15,699.55Zm18.06-31.29-9.95,17.25a4.27,4.27,0,0,1-5.83,1.56l-6.16-3.56a4.27,4.27,0,0,1-1.56-5.83l10-17.24a4.27,4.27,0,0,1,5.83-1.56l6.16,3.55A4.27,4.27,0,0,1,270.21,668.26Z"/><path class="cls-2" d="M160.11,678.62l4.61.81a2.8,2.8,0,0,0,2.41-.7,59.26,59.26,0,0,0,10-11.92,1.42,1.42,0,0,0-.43-2l-.06,0-10.82-6.25a1.42,1.42,0,0,0-1.9.45c-.5.77-1,1.52-1.57,2.25a1.43,1.43,0,0,0-.15,1.46,8.11,8.11,0,0,1-1.93,9.54,51,51,0,0,1-8.4,6,1.43,1.43,0,0,0-.55,1.91l3.1,5.76a1.4,1.4,0,0,0,1.92.58h0c.67-.38,1.33-.78,2-1.18a.85.85,0,0,0,.28-1.18l0,0-1.08-1.57a2.56,2.56,0,0,1,2.56-4Z"/><path class="cls-3" d="M192.75,823.47l-54-31.19a1.42,1.42,0,0,0-1.94.52h0l-5.69,9.86a1.42,1.42,0,0,0,.52,1.94l11,6.38,3.7,2.13,10.42,6,3.7,2.13,10.43,6,3.69,2.14,11,6.37a1.43,1.43,0,0,0,2-.52l5.69-9.85A1.44,1.44,0,0,0,192.75,823.47Zm-29.57-7a2.42,2.42,0,1,1-4.83,0h0a2.42,2.42,0,0,1,4.83,0Z"/><path class="cls-3" d="M259.51,915.28l-6.57-11.38a4.28,4.28,0,0,1,0-4.27l4.21-7.29a2.84,2.84,0,0,0-1-3.89L136,819.11a2.83,2.83,0,0,0-3.88,1L90.88,891.6a2.83,2.83,0,0,0,1,3.88h0L212,964.82a2.85,2.85,0,0,0,3.89-1l12.81-22.19a4.26,4.26,0,0,1,3.69-2.13h13.14a8.53,8.53,0,0,0,7.39-4.27l6.57-11.38A8.5,8.5,0,0,0,259.51,915.28ZM132.64,886.12l-6.57,11.38a4.26,4.26,0,0,1-3.7,2.13H109.23a4.26,4.26,0,0,1-3.69-2.13l-5.34-9.25a4.26,4.26,0,0,1,0-4.26l7.8-13.52a4.26,4.26,0,0,1,3.7-2.13h10.67a4.26,4.26,0,0,1,3.7,2.13l6.57,11.38A4.28,4.28,0,0,1,132.64,886.12Zm0-35.56-6.57,11.38a4.26,4.26,0,0,1-3.7,2.13h-8.21a1.42,1.42,0,0,1-1.42-1.42,1.38,1.38,0,0,1,.19-.71l13.14-22.76a1.42,1.42,0,0,1,1.94-.52,1.44,1.44,0,0,1,.52.52l4.11,7.11A4.28,4.28,0,0,1,132.64,850.56Zm3.69-6.4L131,834.92a4.28,4.28,0,0,1,0-4.27l1.28-2.21a2.84,2.84,0,0,1,3.88-1l20.33,11.74a2.84,2.84,0,0,1,1,3.88l-.66,1.14a4.26,4.26,0,0,1-3.69,2.13H140A4.26,4.26,0,0,1,136.33,844.16Zm10.54,33.49a3.35,3.35,0,1,1-3.35-3.35A3.35,3.35,0,0,1,146.87,877.65ZM167.71,919,140,903a4.83,4.83,0,0,1-1.77-6.6l18.84-32.64h0a4.83,4.83,0,0,1,6.61-1.77l27.72,16a4.84,4.84,0,0,1,1.77,6.6l-18.85,32.65A4.85,4.85,0,0,1,167.71,919Zm20.16-19.06a3.35,3.35,0,1,1-3.34,3.35A3.35,3.35,0,0,1,187.87,899.9Zm23.88,45.47-27.1-15.65,24.54-42.49,27.1,15.64Z"/><path class="cls-2" d="M227.39,846.21l-6.16-3.56a7.13,7.13,0,0,0-9.72,2.61l-4.26,7.39a1.42,1.42,0,0,0,.52,1.94l16,9.25a1.42,1.42,0,0,0,1.94-.52l4.27-7.4A7.1,7.1,0,0,0,227.39,846.21Zm-3.34,5.62a4,4,0,1,1-8,0h0a4,4,0,0,1,8,0Z"/><path class="cls-2" d="M286.22,989.87v.2l0,.2-.05.21-.08.21-.11.21-2.49,4.31-.12.19-.13.16-.15.14-.15.11-.17.09-.18.07-.2,0-.21,0h-.21l-.24,0-.24-.06-.26-.07-.27-.1-.28-.12-.29-.15-.31-.16-.3-.19-.28-.18-.25-.19-.22-.18-.19-.19-.17-.18-.14-.19-.12-.19-.09-.19-.06-.19,0-.19v-.19l0-.2,0-.19.08-.19.1-.2,2.49-4.32.14-.22.15-.18.16-.16.17-.13.18-.1.19-.07.2,0h.43l.24,0,.24,0,.25.08.27.1.28.12.29.14.29.17.3.18.28.18.24.19.22.19.2.19.16.19.14.19.11.19.08.2.06.2Zm-18.36-10.78-.05-.2-.08-.19-.12-.2-.13-.19-.17-.19-.19-.19-.22-.19-.24-.19-.28-.18-.3-.18-.3-.17-.29-.14-.27-.12-.27-.1-.25-.08-.25-.05-.23,0h-.43l-.21,0-.19.07-.18.1-.17.13-.16.16-.15.19-.13.21-2.5,4.32-.1.2-.07.19-.05.19v.39l0,.19.06.19.09.19.11.19.14.19.17.18.2.19.22.19.25.18.28.18.3.19.31.17.29.14.28.12.27.1.26.08.24,0,.23,0h.22l.21,0,.19,0,.18-.07.17-.09.16-.11.14-.14.14-.16.11-.18,2.5-4.32.11-.21.08-.21.05-.2,0-.21v-.2Zm8.49,4.57-.19-.25-.25-.26-.33-.25-.41-.26-1.9-1.09-2,3.41,1.78,1,.48.26.42.18.37.11.32,0,.28,0,.25-.11.22-.2.2-.28.73-1.26.11-.26,0-.25,0-.26ZM304.78,990c-3,5.44-3,10-.29,15.12,3.17,6,1.95,8.78-4.88,10.86-1.21.36-2.63.53-3,1.69-1.44,4.93-4.4,2.77-7,1.52-2.79-1.35-5.41-3.05-8.11-4.57-7.64-4.3-7.9-4.42-4.38-12,1.31-2.83.69-3.62-1.64-4.88-4.61-2.51-9.15-5.16-13.5-8.08-3.77-2.53-5.74.19-6.78,2.6-2.28,5.33-5.35,4.13-8.93,1.9-1.61-1-3.19-2.07-4.84-3-9.65-5.44-10.56-7.39-8.18-18.08.72-3.21,2.72-5.15,6.09-5,8,.37,12.68-3.9,16.2-10.66C261.05,947,268,937.32,273,926.55c1.65-3.58,5.08-3.79,9.47-3.62,3.32,1.19,7.75,1.42,11.78,4.23a167.7,167.7,0,0,0,20,11.58c5,2.54,8,6.57,10.78,11.12a5.75,5.75,0,0,1-.14,6.08C317.38,966.84,311.22,978.5,304.78,990ZM243.45,974c-.68-1.53-1.46-2.9-3.48-3-2.31-.15-4.74,0-5,2.79-.21,2.07,1.83,3.73,3.54,4.12C241,978.4,242,975.88,243.45,974Zm18.11-.37-1.34-.77-7.4,6.1-.13-.07,1.59-9.46-1.41-.82-1.72,11.11,1.57.9Zm4.88,11.82,2.49-4.31.16-.32.13-.32.08-.31,0-.32v-.31l0-.3-.08-.31-.13-.3-.16-.3-.21-.3-.25-.29-.3-.29-.33-.29-.38-.28-.42-.28-.46-.28-.46-.26-.45-.22-.43-.18-.41-.14-.4-.1-.37-.07-.36,0h-.34l-.32.05-.31.08-.28.12-.27.15-.25.2-.24.23-.21.27-.2.3L258.79,981l-.15.31-.12.31-.07.3,0,.3v.3l0,.29.09.3.13.29.17.29.21.29.25.28.29.29.33.28.38.28.41.27.46.28.42.23.42.21.4.17.39.14.39.12.37.08.37.06.35,0h.34l.32,0,.29-.1.28-.14.26-.18L266,986l.22-.26Zm10.18,1.84.13-.17.13-.19.9-1.57L278,985l.11-.33.05-.31V984l-.08-.28-.14-.28-.21-.27-.26-.27-.34-.28-.41-.3-.49-.31-.56-.34-3.19-1.84-5.23,9.07,1.35.78,2.24-3.87,1.31.76.37,5.37,1.66,1-.58-5.72.51.26.49.17.48.09.46,0,.23,0,.2-.05.2-.07.18-.1.16-.12Zm8.14,8.74,2.49-4.31.16-.32.13-.32.08-.31,0-.32v-.31l0-.31-.09-.3-.12-.3-.17-.3-.21-.3-.25-.29-.29-.29-.34-.29-.37-.28-.42-.28-.46-.28-.47-.26-.45-.22-.43-.18-.41-.14-.39-.11-.38-.06-.36,0h-.34l-.32,0L281,986l-.28.12-.27.15-.25.2-.23.23-.22.27-.19.3-2.48,4.29-.16.31-.12.3-.07.31,0,.3v.29l.05.3.09.29.12.3.17.29.21.28.25.29.3.28.33.29.37.28.42.27.45.28.42.23.42.2.4.18.4.14.38.12.38.08.36.06.35,0H283l.32,0,.3-.1.28-.14.26-.18.23-.22.22-.27Zm13.75-1.06-1.18-.69-4.33,7.49-.61-10.34-1.63-.94-5.24,9.07,1.19.68,4.4-7.61.53,10.46,1.64,1Zm1.08,11c-2.14.15-4,1.23-3.37,3.5.5,1.8,1.2,4.4,4.16,3.74,3.13.21,3.77-2.43,3.85-4.22C304.35,1006.19,301.89,1005.73,299.59,1005.9ZM313.37,957c0-13-11.53-24.79-24.36-23.85-13.79,1-23.28,9.63-23.73,24.56-.41,13.41,10,23.45,23.63,23.46C303.52,981.17,313.39,971.42,313.37,957Z"/><path class="cls-2" d="M319.79,903.33a5.9,5.9,0,0,0-2.5-10.55l-4.21-.74a7.11,7.11,0,0,0-3.08.13l-11.33,3a21.32,21.32,0,0,1-15.34-1.67L274.56,889a2.13,2.13,0,0,0-2,3.78l1.47.77a2.79,2.79,0,0,1,1.44,1.79l2.37,8.83a2.84,2.84,0,0,1-.44,2.4q-.66.91-1.23,1.89a5.72,5.72,0,0,0-.63,4.15,1.41,1.41,0,0,0,1.7,1.06,1.26,1.26,0,0,0,.42-.16q2.35-1.43,4.85-2.61a1.07,1.07,0,0,0,.5-1.42,1,1,0,0,0-.37-.43,2.14,2.14,0,0,1-.59-3,1.75,1.75,0,0,1,.28-.33l.21-.2a5.67,5.67,0,0,1,2.46-1.4l17.34-4.64.78-.17.8-.11.81,0,.8,0,.8.1.79.18.77.24.74.31.72.37.68.43.64.49.59.55.55.59.49.64.43.68.38.72,3,6.35a2.13,2.13,0,0,0,3.87-1.8l-1.06-2.28A2.83,2.83,0,0,1,319.79,903.33Zm-1-4.73a2.49,2.49,0,1,1-5,0h0a2.49,2.49,0,1,1,5,0Z"/><path class="cls-2" d="M403.15,889H339.7a4.27,4.27,0,0,0-4.27,4.27v3.13a.58.58,0,0,0,.57.57h20.2v-.42a2.42,2.42,0,1,1,3.43,0h0V897h16.22a4.84,4.84,0,0,1,4.84,4.83v12.81a2.84,2.84,0,0,0,2.84,2.84h19.63a5.69,5.69,0,0,0,5.7-5.69V894.72A5.7,5.7,0,0,0,403.15,889Zm-8.53,18.14a3.92,3.92,0,1,1,3.91-3.91A3.91,3.91,0,0,1,394.62,907.17Z"/><path class="cls-3" d="M370.82,916.27H332.41a5.12,5.12,0,0,0-5.12,5.12v10a6.29,6.29,0,0,0,1.83,4.43l6,6a6.26,6.26,0,0,0,4.43,1.84h24.21a6.26,6.26,0,0,0,4.43-1.84l6-6a6.22,6.22,0,0,0,1.84-4.42v-10A5.12,5.12,0,0,0,370.82,916.27Zm-19.21,17.92a4.27,4.27,0,1,1,4.27-4.27A4.27,4.27,0,0,1,351.61,934.19Z"/><path class="cls-3" d="M432.12,1020.55l-22.29-12.87a1.41,1.41,0,0,1-.52-1.94l12.87-22.3a1.42,1.42,0,0,0-.52-1.94l-54.24-31.32-.56-.28-.59-.21-.6-.14-.61-.07h-.6l-.59.09-.57.16-.53.22-.49.3-.44.36-.38.41-.31.46-42.73,74a4.39,4.39,0,0,0-.28,3.79l1.17,3a4.39,4.39,0,0,0,1.9,2.2l74.68,43.12.5.24.53.17.56.09h.57l.58-.07.57-.14.55-.23.53-.29.49-.36.45-.42.4-.48.35-.52,30.67-53.13A1.42,1.42,0,0,0,432.12,1020.55Zm-33.59-43.09a7.11,7.11,0,1,1-7.11,7.11A7.11,7.11,0,0,1,398.53,977.46Zm-6.64,32.84a4.27,4.27,0,1,1,4.27,4.27A4.27,4.27,0,0,1,391.89,1010.3Zm7.76,38.68-2.14,3.72-4.8-9.55,2.14-3.72Zm-33.51-90.22a7.11,7.11,0,1,1-7.11,7.11A7.11,7.11,0,0,1,366.14,958.76ZM358,984a4.27,4.27,0,1,1-4.27,4.26A4.26,4.26,0,0,1,358,984Zm-22.05,46.72a4.27,4.27,0,1,1,4.27-4.27A4.27,4.27,0,0,1,335.93,1030.71Zm38.18,22a4.27,4.27,0,1,1,4.27-4.26A4.26,4.26,0,0,1,374.11,1052.75Zm10.42-34.37a18.49,18.49,0,0,1-37,0h0a18.49,18.49,0,0,1,37,0ZM393,1069.8a7.12,7.12,0,1,1,7.11-7.12A7.12,7.12,0,0,1,393,1069.8Zm13.24-14.4-9.6-19.1,2.15-3.71,9.59,19.09Zm3.95-6.85-4.8-9.55,2.15-3.71,4.8,9.54Zm3.71-15a7.11,7.11,0,1,1,7.12-7.11A7.11,7.11,0,0,1,413.92,1033.58Z"/><path class="cls-3" d="M902,250.92,820.69,204a2.86,2.86,0,0,0-3.89,1h0l-1.42,2.47,2.46,1.42a2.83,2.83,0,0,0-3.88,1l-12.81,22.19a4.29,4.29,0,0,1-3.7,2.13H784.31a8.53,8.53,0,0,0-7.39,4.27l-6.57,11.38a8.55,8.55,0,0,0,0,8.53l6.57,11.38a4.28,4.28,0,0,1,0,4.27l-4.21,7.29a2.85,2.85,0,0,0,1,3.89l7.39,4.27a1.13,1.13,0,0,0,.42,1.55l32.52,18.78a1.14,1.14,0,0,0,1.55-.42l7.39,4.27a1.13,1.13,0,0,0,.42,1.55l23.66,13.66a1.13,1.13,0,0,0,1.55-.41l7.39,4.26a1.43,1.43,0,0,0,2-.52,1.47,1.47,0,0,0,.15-1,7.78,7.78,0,0,1,.82-5.78l6.35-11,.1-.18a7.68,7.68,0,0,0,.52-6.58,4.26,4.26,0,0,1,.3-3.65l14.09-24.42a4.28,4.28,0,0,1,3-2.08,7.7,7.7,0,0,0,5.44-3.75l.1-.17,6.35-11a7.79,7.79,0,0,1,4.59-3.6,1.42,1.42,0,0,0,1-1.76,1.44,1.44,0,0,0-.65-.84l1.46.85L903,254.8A2.83,2.83,0,0,0,902,250.92ZM845.9,238.54H859a4.26,4.26,0,0,1,3.69,2.13l6.57,11.38a4.24,4.24,0,0,1,0,4.27l-6.57,11.38a4.26,4.26,0,0,1-3.69,2.13H845.9a4.29,4.29,0,0,1-3.7-2.13l-6.56-11.38a4.24,4.24,0,0,1,0-4.27l6.56-11.38A4.29,4.29,0,0,1,845.9,238.54Zm-7.39,35.56-6.57,11.38a4.26,4.26,0,0,1-3.7,2.13H815.11a4.26,4.26,0,0,1-3.7-2.13l-6.57-11.38a4.28,4.28,0,0,1,0-4.27l6.57-11.38a4.26,4.26,0,0,1,3.7-2.13h13.13a4.26,4.26,0,0,1,3.7,2.13l6.57,11.38A4.28,4.28,0,0,1,838.51,274.1Zm-33.67-39.83,6.57-11.38a4.26,4.26,0,0,1,3.7-2.13h13.13a4.26,4.26,0,0,1,3.7,2.13l6.57,11.38a4.28,4.28,0,0,1,0,4.27l-6.57,11.38a4.26,4.26,0,0,1-3.7,2.13H815.11a4.26,4.26,0,0,1-3.7-2.13l-6.57-11.38A4.28,4.28,0,0,1,804.84,234.27Zm-30.79,22a4.24,4.24,0,0,1,0-4.27l6.57-11.38a4.26,4.26,0,0,1,3.69-2.13h13.14a4.29,4.29,0,0,1,3.7,2.13l6.56,11.38a4.24,4.24,0,0,1,0,4.27l-6.56,11.38a4.29,4.29,0,0,1-3.7,2.13H784.31a4.26,4.26,0,0,1-3.69-2.13Zm33.66,35.56-.65,1.13a2.85,2.85,0,0,1-3.89,1L781,281.25a2.83,2.83,0,0,1-1-3.88h0l.66-1.14a4.26,4.26,0,0,1,3.69-2.13h13.14a4.29,4.29,0,0,1,3.7,2.13l6.56,11.38A4.24,4.24,0,0,1,807.71,291.88Zm30.8,17.78-.66,1.13a2.83,2.83,0,0,1-3.88,1L811.79,299a2.84,2.84,0,0,1-1-3.88l.66-1.14a4.26,4.26,0,0,1,3.7-2.13h13.13a4.26,4.26,0,0,1,3.7,2.13l6.57,11.38A4.28,4.28,0,0,1,838.51,309.66Zm23.16,4.26-4.6,8a2.86,2.86,0,0,1-3.89,1l-10.59-6.12a2.83,2.83,0,0,1-1-3.88l.65-1.14a4.29,4.29,0,0,1,3.7-2.13h13.3a2.84,2.84,0,0,1,2.47,4.26Zm7.63-22-6.57,11.37a4.25,4.25,0,0,1-3.69,2.14H845.9a4.27,4.27,0,0,1-3.7-2.14l-6.56-11.37a4.24,4.24,0,0,1,0-4.27l6.56-11.38a4.29,4.29,0,0,1,3.7-2.13H859a4.26,4.26,0,0,1,3.69,2.13l6.57,11.38A4.24,4.24,0,0,1,869.3,291.88Zm23.16-31.3-6.64,11.51a4.29,4.29,0,0,1-3,2.08,7.65,7.65,0,0,0-5.43,3.74l-1.91,3.3a2.84,2.84,0,0,1-4.92,0l-4.11-7.11a4.28,4.28,0,0,1,0-4.27L873,258.45a4.26,4.26,0,0,1,3.69-2.13H890a2.84,2.84,0,0,1,2.46,4.26Z"/><path class="cls-2" d="M982,294.94l-62.82-36.27a6.4,6.4,0,0,0-8.75,2.34l-36.27,62.82a6.41,6.41,0,0,0,2.35,8.75l62.82,36.27a6.41,6.41,0,0,0,8.74-2.35l36.27-62.82A6.4,6.4,0,0,0,982,294.94Zm-66.69-19.62a40.84,40.84,0,0,1,27.88,0,3.82,3.82,0,0,1,.68.31,4.27,4.27,0,0,1,1.56,5.83l-5.91,10.25a4.29,4.29,0,0,1-3.7,2.13H922.71a4.26,4.26,0,0,1-3.69-2.13l-5.92-10.25a4.22,4.22,0,0,1-.32-.68A4.26,4.26,0,0,1,915.34,275.32Zm5.4,45-4.16-2.39,21.33-10.72,4.15,2.39Zm18.31-.94-10.67,5.36-4.15-2.4,10.67-5.36ZM919.6,308.11l10.67-5.36,4.15,2.4-10.67,5.36Zm-24.47-16.85-2.41,4.17A42.16,42.16,0,0,1,895.13,291.26ZM889,306.61a40.38,40.38,0,0,1,2.1-7.54c.14-.38.29-.75.45-1.13l5.16-8.93c.25-.33.49-.64.75-1a41.35,41.35,0,0,1,5.48-5.59,4.26,4.26,0,0,1,6,.52,4.21,4.21,0,0,1,.43.61l5.92,10.25a4.28,4.28,0,0,1,0,4.27l-6.57,11.38a4.26,4.26,0,0,1-3.69,2.13H893.22a4.27,4.27,0,0,1-4.27-4.26A3.81,3.81,0,0,1,889,306.61Zm20,37.92a4.26,4.26,0,0,1-6,.52A40.85,40.85,0,0,1,889,320.9a3.64,3.64,0,0,1-.07-.74,4.27,4.27,0,0,1,4.27-4.27h11.84a4.26,4.26,0,0,1,3.69,2.13l6.57,11.38a4.28,4.28,0,0,1,0,4.27l-5.92,10.25A3.72,3.72,0,0,1,909,344.53Zm34.25,7.67a40.84,40.84,0,0,1-27.88,0,4.22,4.22,0,0,1-.68-.32,4.27,4.27,0,0,1-1.56-5.83L919,335.8a4.26,4.26,0,0,1,3.69-2.13h13.14a4.29,4.29,0,0,1,3.7,2.13l5.91,10.25a4.66,4.66,0,0,1,.32.68A4.27,4.27,0,0,1,943.22,352.2Zm20.21-15.94,2.41-4.18A42.31,42.31,0,0,1,963.43,336.26Zm6.11-15.36a40.48,40.48,0,0,1-2.1,7.55c-.14.37-.29.75-.45,1.12l-5.16,8.94c-.24.32-.49.64-.75.95a40.22,40.22,0,0,1-5.48,5.59,4.26,4.26,0,0,1-6-.52,3.72,3.72,0,0,1-.43-.61l-5.92-10.25a4.28,4.28,0,0,1,0-4.27L949.81,318a4.26,4.26,0,0,1,3.7-2.13h11.83a4.27,4.27,0,0,1,4.27,4.27A3.64,3.64,0,0,1,969.54,320.9Zm-4.2-9.28H953.51a4.26,4.26,0,0,1-3.7-2.13l-6.57-11.38a4.28,4.28,0,0,1,0-4.27l5.92-10.25a4.21,4.21,0,0,1,.43-.61,4.27,4.27,0,0,1,6-.52,40.91,40.91,0,0,1,13.94,24.15,3.81,3.81,0,0,1,.07.75A4.27,4.27,0,0,1,965.34,311.62Z"/><path class="cls-3" d="M830.14,339.33a5.51,5.51,0,0,0-2.57-3.38L813,327.52a1.23,1.23,0,0,1,0-.19l14.67,8.47-35.35-20.41a24.33,24.33,0,0,1-9.32-9.66,7.07,7.07,0,0,1-.62-1.6,5.62,5.62,0,0,0-2.63-3.49,6.17,6.17,0,0,1-1-.69c-1.29-1.07-2.61-2.08-4-3.07l-.08.15c-1.8-1.3-3.64-2.53-5.54-3.67a1.24,1.24,0,0,0-1.7.42l0,0-1.53,2.66-.13-.15-11.67,20.22-1.23,2.13-.17.33-.15.34-.26.74-.22.73-.19.71,0,.28.06.28.12.25.09.1.11.09,4,2.31L751.05,334l-4-2.31-.13-.06-.14,0-.28,0-.27.09-.25.12-.52.51-.53.56-.5.59-.23.31-.2.31-1.23,2.13-.88,1.54.1-.16.13-.16.15-.13.15-.12-3.22,5.59-.24,0,1.68-2.9-8.44,14.61h.21l-2.65,4.6a1.24,1.24,0,0,0,.45,1.69l0,0a79.16,79.16,0,0,0,10.56,4.83,6.69,6.69,0,0,1,1.12.52,5.41,5.41,0,0,0,4.2.51,7.25,7.25,0,0,1,1.73-.27A24.55,24.55,0,0,1,761,369.68l35.34,20.4a5.49,5.49,0,0,0,4.21.55A24,24,0,0,0,815,379.48l12.74-22.07A24,24,0,0,0,830.14,339.33Zm-82,22.12a3.53,3.53,0,0,1-7,0h0a3.53,3.53,0,0,1,7,0Zm6.66-45.71,0-.19,0-.19.06-.19L755,315l3.93-6.81.11.18Zm8.63,6.46a4.27,4.27,0,1,1,4.26,4.27A4.27,4.27,0,0,1,763.43,322.2ZM772,353.32a6.23,6.23,0,1,1,6.22-6.23A6.23,6.23,0,0,1,772,353.32Zm4.94-44.48a3.34,3.34,0,1,1,3.35-3.34A3.35,3.35,0,0,1,776.92,308.84ZM792,356.65l-2.13-4.24,1-1.64L793,355Zm-.38-7.27,1-1.65,4.26,8.47-1,1.65Zm4.84-.46,2.13,4.24-1,1.65-2.13-4.24Zm10.9,36.93a4.26,4.26,0,0,1-5.83,1.56l-.86-.5a4.27,4.27,0,0,1,4.27-7.39l.86.5A4.27,4.27,0,0,1,807.39,385.85Zm1.58-7a4.27,4.27,0,1,1,4.27-4.26A4.27,4.27,0,0,1,809,378.85Zm20.46-31.18a4.27,4.27,0,0,1-5.82,1.56l-.86-.5a4.27,4.27,0,0,1,4.27-7.39l.86.5A4.26,4.26,0,0,1,829.43,347.67Z"/><path class="cls-3" d="M890.06,355.35l-.56-.56H844l-.56.56v34.4l.27.28.29.3H889.5l.29-.3.27-.28ZM856.2,382a4.27,4.27,0,0,1-8.53,0v0a4.27,4.27,0,1,1,8.53,0Zm29.59,0a4.27,4.27,0,1,1-8.53,0v0a4.27,4.27,0,1,1,8.53,0Z"/><path class="cls-3" d="M985.64,388.44H970a13.52,13.52,0,0,1-6.27-1.54,11.34,11.34,0,0,0-5.29-1.3H942.81a11.3,11.3,0,0,1-4.18-.8,19.2,19.2,0,0,0-14.09,35.73l.86.32A59.6,59.6,0,0,0,944.49,424h41.15a4.27,4.27,0,0,0,4.26-4.27v-27A4.27,4.27,0,0,0,985.64,388.44Zm-45,14.25a9.07,9.07,0,1,1-18.14,0v0a9.07,9.07,0,1,1,18.14,0Zm16.53,3.82a3.84,3.84,0,1,1,3.84-3.84A3.84,3.84,0,0,1,957.19,406.51Zm22.76,0a3.84,3.84,0,1,1,3.84-3.84A3.83,3.83,0,0,1,980,406.51Z"/><path class="cls-3" d="M766.24,415.34,746.53,404a2.83,2.83,0,0,1-1-3.88l2.89-5,.29-.54.27-.56.24-.57.21-.59.18-.59.15-.6.12-.61.09-.62.05-.62,0-.62,0-.61,0-.62-.09-.61-.12-.61-.15-.6-.2-.58-.2-.47-.25-.44-.3-.41-.33-.38-.52-.52-.54-.5-.56-.48-.57-.46-.6-.44-.6-.42-.63-.39-.63-.37L739,377.66l-2.31-1.28-2.27-1.27-8.94-5-.22-.1-.24-.06h-.24l-.24,0-.22.09-.2.14-.17.17-.14.2-3.44,5.95-.11.28,0,.29,0,.3.07.29.14.27.18.24.22.21.25.17,5.38,3.11.52,1.94-18.49,32a1.42,1.42,0,0,1-1.94.52L699.21,412a1.42,1.42,0,0,0-1.94.52l-3,5.27a5.69,5.69,0,0,0,2.08,7.77l3,1.74a5.64,5.64,0,0,1,2.31,2.52l1.78,3.81a14.18,14.18,0,0,0,5.78,6.31l32.15,18.56a4.27,4.27,0,0,0,5.83-1.56l20.63-35.72A4.27,4.27,0,0,0,766.24,415.34ZM724.89,413a3.7,3.7,0,0,1-1.35-5.05l7.11-12.31a3.7,3.7,0,0,1,6.41,3.69l-7.12,12.32A3.69,3.69,0,0,1,724.89,413Zm14.59,32.63a3.84,3.84,0,1,1,3.84-3.84A3.84,3.84,0,0,1,739.48,445.61Zm11.38-19.71a3.84,3.84,0,1,1,3.84-3.84A3.84,3.84,0,0,1,750.86,425.9Z"/><path class="cls-3" d="M760.45,484.84l-.48-3.2a4.42,4.42,0,0,0-2.15-3.14l-74-42.73-.5-.24-.54-.17-.55-.09h-.58l-.57.06-.57.15-.55.22-.53.3-.49.36-.46.42-.4.48-.34.52L646.41,492a1.42,1.42,0,0,0,.52,1.94l22.3,12.88a1.42,1.42,0,0,1,.52,1.94l-12.87,22.29a1.43,1.43,0,0,0,.52,2l53.13,30.67.56.28.59.21.6.14.6.07h.61l.59-.08.57-.16.53-.23.49-.29.44-.36.37-.41.32-.47,43.11-74.67A4.41,4.41,0,0,0,760.45,484.84Zm-55.51-23.09a4.27,4.27,0,1,1-4.26,4.27A4.27,4.27,0,0,1,704.94,461.75ZM686.68,443.6a7.11,7.11,0,1,1-7.11,7.11A7.11,7.11,0,0,1,686.68,443.6Zm8.48,83.17,3.72,2.15-9.55,4.79-3.72-2.14ZM668,490.22a7.11,7.11,0,1,1,7.11-7.11A7.11,7.11,0,0,1,668,490.22Zm7.62,44a7.11,7.11,0,1,1,7.11-7.11A7.11,7.11,0,0,1,675.6,534.2Zm3-30a4.27,4.27,0,1,1,4.27,4.27A4.27,4.27,0,0,1,678.63,504.2Zm4.28,36.12,19.1-9.6,3.71,2.15-19.09,9.59Zm10.56,6.1-3.71-2.15,9.55-4.8,3.71,2.15Zm18.34,8.69a7.11,7.11,0,1,1,7.11-7.11A7.11,7.11,0,0,1,711.81,555.11Zm9.27-24.59a4.27,4.27,0,1,1,4.27-4.27A4.27,4.27,0,0,1,721.08,530.52ZM713,514.63a18.49,18.49,0,0,1-18.49-18.5v0A18.49,18.49,0,1,1,713,514.63Zm30.12-22.3a4.27,4.27,0,1,1,4.27-4.26A4.27,4.27,0,0,1,743.13,492.33Z"/><path class="cls-3" d="M683.54,564.54l-45-26a2.84,2.84,0,0,0-3.88,1l-11.38,19.71a2.85,2.85,0,0,0,1,3.89l1.77,1a11.38,11.38,0,0,1,5.3,6.91l.32,1.17a42.75,42.75,0,0,1,.22,21.2,19.2,19.2,0,0,0,37.3,9.14,19.45,19.45,0,0,0,.55-5.21,11.31,11.31,0,0,1,1.51-6.07l13.25-23A2.85,2.85,0,0,0,683.54,564.54Zm-46.36-8.13h0a3.84,3.84,0,0,1,7.68,0h0a3.84,3.84,0,0,1-7.68,0Zm22.29,41.69a8.85,8.85,0,0,1-17.69,0h0a8.85,8.85,0,1,1,17.69,0Zm6.8-23.27a3.84,3.84,0,1,1,3.84-3.84A3.84,3.84,0,0,1,666.27,574.83Z"/><path class="cls-3" d="M654.77,640.06l-21.32-12.31a11.46,11.46,0,0,1-4-3.81l-.45-.71-.45-.65-.44-.62-.44-.59a31.83,31.83,0,0,0-8.92-7.87,6.28,6.28,0,0,1-2.09-2,.57.57,0,1,0-1,.62,7.36,7.36,0,0,0,2.52,2.41,1.18,1.18,0,0,1,.42.41,1.15,1.15,0,0,1-.42,1.56l-1.88,1.09-1.21.69a1.39,1.39,0,0,1-1.42,0l-2.56-1.47a1.42,1.42,0,0,1-.52-1.94l3.58-6.2.1-.22.07-.23,0-.24,0-.24,0-.23-.1-.22-.13-.2-.16-.18a6,6,0,0,0-1-.73l-11.36-6.56-.18-.1-.8-.46-.47-.23-.51-.14-.52-.06-.51,0-.5.12-.47.2-.42.28-.35.34-.29.41-18.94,32.8-.59,1.07-.55,1.11-.52,1.14-.48,1.17-.44,1.19-.4,1.22-.36,1.24-.31,1.25-.72,3.08-.16.69-1.28,5.55a11.74,11.74,0,0,0-.19,4.38,4.25,4.25,0,0,0,2.09,3.1l52.56,30.34a5.69,5.69,0,0,0,7.77-2.08l22.76-39.42A5.69,5.69,0,0,0,654.77,640.06Zm-28,5a2.42,2.42,0,0,1,4.84,0h0a2.42,2.42,0,1,1-4.84,0Zm-13.95-22.34h6.9l3.45,6-3.45,6h-6.9l-3.45-6Zm-21.15,16.93h-6.89l-3.45-6,3.45-6h6.89l3.45,6Zm7.51-21.12a3.83,3.83,0,0,1-3.83-3.84h0a3.84,3.84,0,1,1,7.68,0h0A3.85,3.85,0,0,1,599.22,618.49Zm6.53,35-3.45-6,3.45-6h6.9l3.45,6-3.45,6Zm9.69,11.26h0a2.42,2.42,0,0,1,4.83,0h0a2.42,2.42,0,1,1-4.83,0Zm13.12,12.75a2.86,2.86,0,0,1-3.89,1L621,676.39a2.83,2.83,0,0,1-1-3.88L637,643a2.86,2.86,0,0,1,3.89-1.05l3.7,2.14a2.84,2.84,0,0,1,1,3.88Zm10.19-2.08a2.42,2.42,0,0,1-4.84,0h0a2.42,2.42,0,0,1,4.84,0Zm11.38-19.71a2.42,2.42,0,1,1-4.84,0h0a2.42,2.42,0,0,1,4.84,0Z"/><path class="cls-2" d="M609.83,695.38,569.68,672.2A8.54,8.54,0,0,0,558,675.32l-.23.41-2.24,3.86-64,110.94-2.23,3.87-.23.4a8.53,8.53,0,0,0,3.12,11.66l40.16,23.19A8.53,8.53,0,0,0,544,826.52l.33-.55,2.06-3.57,64.22-111.24,2.06-3.56L613,707A8.54,8.54,0,0,0,609.83,695.38ZM513.61,815.71l-2.4-4.77,1.08-1.86,2.39,4.77Zm4.38,1.35-4.8-9.55,1.07-1.85,4.8,9.54Zm2-3.42-2.4-4.78,1.08-1.85,2.4,4.77Zm67.28-67.74L571,774.1l-8.53,14.79-16.29,28.2a1.41,1.41,0,0,1-1.94.52l-47.55-27.45a1.42,1.42,0,0,1-.52-1.94L537.23,717a1.42,1.42,0,0,1,1.94-.52l.31.18,39.42,22.76,7.82,4.51A1.43,1.43,0,0,1,587.24,745.9ZM597.78,718a3.56,3.56,0,0,1-4.86,1.31h0l-6-3.49-2.29-1.32a2.84,2.84,0,0,0-3.88,1l-2.13,3.69a1.43,1.43,0,0,1-2,.52l-19.71-11.38a1.42,1.42,0,0,1-.52-1.94l10.67-18.48a1.42,1.42,0,0,1,1.94-.52l19.71,11.38a1.41,1.41,0,0,1,.52,1.94l-2.13,3.7a2.83,2.83,0,0,0,1,3.88l2.28,1.32,6,3.49A3.55,3.55,0,0,1,597.78,718Z"/><path class="cls-3" d="M473.62,962.16a14.38,14.38,0,0,0,14-14.76v-.19l-1.09-28.41a20.86,20.86,0,0,0-21.66-20c-.34,0-.68,0-1,.06l-17.25,1.51a14.06,14.06,0,0,0-9.54,5l-14,16.66a1.24,1.24,0,0,0,.15,1.75l9.94,8.35-19,22.66,10.37,8.71Zm5.08-9.83L472,954.76l-5.45-4.56,1.24-7,6.68-2.43,5.44,4.56Zm.54-17.48a2.25,2.25,0,1,1-2.24,2.24A2.24,2.24,0,0,1,479.24,934.85Zm-24.58-24.51a2.83,2.83,0,0,1,4-.35l2.33,2a.71.71,0,0,0,.78.08,8.93,8.93,0,0,1,1.4-.57l-.16-.14a8.68,8.68,0,0,1,3.89-.34l-.14.16a8.14,8.14,0,0,1,1.48.33.72.72,0,0,0,.76-.23l1.95-2.32a2.85,2.85,0,1,1,4.36,3.66l-1.95,2.32a.71.71,0,0,0-.09.79,7.5,7.5,0,0,1,.58,1.4l.13-.17a8.74,8.74,0,0,1,.35,3.9l-.17-.14a8.31,8.31,0,0,1-.32,1.48.71.71,0,0,0,.22.76l2.32,2a2.84,2.84,0,1,1-3.65,4.35l-2.33-1.94a.7.7,0,0,0-.78-.09,8.93,8.93,0,0,1-1.4.57l.16.14a8.69,8.69,0,0,1-3.89.34l.13-.16a8.22,8.22,0,0,1-1.47-.33.72.72,0,0,0-.76.23l-1.95,2.32a2.85,2.85,0,0,1-4.36-3.66l1.95-2.32a.72.72,0,0,0,.09-.78,7.89,7.89,0,0,1-.58-1.41l-.14.17a8.88,8.88,0,0,1-.34-3.9l.17.14a8.31,8.31,0,0,1,.32-1.48.71.71,0,0,0-.22-.76L455,914.34A2.83,2.83,0,0,1,454.66,910.34Zm-10.59-1.45a2.25,2.25,0,1,1-2.24,2.24A2.24,2.24,0,0,1,444.07,908.89Zm-15.48,40.79a2.25,2.25,0,1,1-2.25,2.24A2.24,2.24,0,0,1,428.59,949.68Z"/><path class="cls-3" d="M533.2,859.53l-3.37-1.95a1.55,1.55,0,0,1-.68-1.91,33.72,33.72,0,0,1,5.34-9.27,2.86,2.86,0,0,0,.61-2,5.37,5.37,0,0,0-2.64-4l-3-1.72-1-.55-.29-.14-.41-.1h-.39l-.37.08-.32.14-.12.08A14.71,14.71,0,0,1,503.9,825v-.15l0-.35-.12-.36-.21-.33-.28-.3-.27-.19-1-.55-23.14-13.36a5.7,5.7,0,0,0-4.35-.56A24.17,24.17,0,0,0,460,820.12l-12.74,22.07a24.21,24.21,0,0,0-2.45,18.22,5.69,5.69,0,0,0,2.66,3.48L501,894.82a5.35,5.35,0,0,0,4.76.3,2.86,2.86,0,0,0,1.47-1.55,33.84,33.84,0,0,1,5.35-9.26,1.56,1.56,0,0,1,2-.37l3.38,1.95h0l.51.29a1.42,1.42,0,0,0,1.94-.52l1.92-3.32,10-17.25,1.92-3.33a1.42,1.42,0,0,0-.53-1.94l-.5-.29Zm-80.81-3.63a2.49,2.49,0,0,1-3.4.91l-.86-.5a2.49,2.49,0,0,1,2.49-4.31l.86.5A2.49,2.49,0,0,1,452.39,855.9Zm16.87-41.17a2.49,2.49,0,0,1,3.4-.91l.87.5a2.49,2.49,0,1,1-2.49,4.31l-.87-.5A2.5,2.5,0,0,1,469.26,814.73Zm-6.53,10.37a3.42,3.42,0,0,1,6.83,0h0a3.42,3.42,0,1,1-6.83,0Zm27.84,52.84a2.49,2.49,0,0,1-3.39.92l-.87-.5a2.49,2.49,0,0,1,2.49-4.31l.86.5A2.48,2.48,0,0,1,490.57,877.94Zm3.69-23.33a16.07,16.07,0,0,1-21.95,5.9l-.86-.5a16.07,16.07,0,0,1,16.07-27.84l.87.5A16.07,16.07,0,0,1,494.26,854.61Zm3.05-2a5.83,5.83,0,1,1,5.83,5.83A5.83,5.83,0,0,1,497.31,852.6ZM503.63,890a3.41,3.41,0,1,1,3.41-3.41A3.41,3.41,0,0,1,503.63,890Zm3.79-9.86a2.69,2.69,0,1,1,2.69-2.69A2.68,2.68,0,0,1,507.42,880.18Zm19.25-31a2.49,2.49,0,1,1,2.49-2.49A2.48,2.48,0,0,1,526.67,849.21Z"/><path class="cls-3" d="M538.66,1003.71,486.1,973.37a4.26,4.26,0,0,0-3.73-.27,11.75,11.75,0,0,0-3.69,2.36l-4.17,3.89-.52.48L471.68,982l-.93.9-.89.93-.85.95-.82,1-.77,1-.73,1-.68,1-.63,1.05-18.94,32.8-.21.45-.12.48,0,.51.06.5.14.49.24.46.31.42.37.37.44.3.8.46.17.1,11.37,6.56a5.57,5.57,0,0,0,3,.76c.83,0,1.65-.08,2.47-.17a6.26,6.26,0,0,1,3.79.77,31.65,31.65,0,0,0,14.39,4.05,11.44,11.44,0,0,1,5.29,1.52l21.31,12.3a5.69,5.69,0,0,0,7.77-2.08l22.76-39.42A5.69,5.69,0,0,0,538.66,1003.71Zm-27.95,5a2.42,2.42,0,1,1,4.83,0h0a2.42,2.42,0,1,1-4.83,0Zm-46.44,8.92a3.84,3.84,0,1,1-7.68,0h0a3.84,3.84,0,1,1,7.68,0Zm3.68-13-3.45-6,3.45-6h6.89l3.45,6-3.45,6Zm16.61,26.77h-6.9l-3.45-6,3.45-6h6.9l3.44,6Zm5.87-15.57-3.45-6,3.45-6h6.89l3.45,6-3.45,6Zm8.9,12.61h0a2.42,2.42,0,0,1,4.84,0h0a2.42,2.42,0,1,1-4.84,0Zm13.12,12.75a2.84,2.84,0,0,1-3.88,1l-3.7-2.13a2.85,2.85,0,0,1-1-3.89l17.07-29.56a2.83,2.83,0,0,1,3.88-1l3.7,2.13a2.84,2.84,0,0,1,1,3.89Zm10.19-2.08a2.42,2.42,0,0,1-4.83,0h0a2.42,2.42,0,1,1,4.83,0ZM534,1019.35a2.42,2.42,0,1,1-4.84,0h0a2.42,2.42,0,1,1,4.84,0Z"/><path class="cls-2" d="M530.65,909.29l-5.57-2a6.69,6.69,0,0,0-8.57,4,6.85,6.85,0,0,0-.4,2.29v1.07a4.73,4.73,0,0,1-1.25,3.2,5.66,5.66,0,0,0-1.52,3.87v5.45l.64.64h1.09a2.14,2.14,0,0,1,1.09,4.13,2.23,2.23,0,0,1-1.09,0H514l-.64.64v8.83a4.53,4.53,0,0,0,2,3.75l4.41,3A7.08,7.08,0,0,1,522.8,954v17.32a1.42,1.42,0,0,0,1.42,1.42h0a59.77,59.77,0,0,0,6.94-.58V910.06Zm-7.85,6.53a2.28,2.28,0,0,1-2.28-2.27h0a2.28,2.28,0,1,1,2.28,2.28Z"/><path class="cls-3" d="M602.05,925.51H573.61l-.48,0-.49-.06-.48-.1-.49-.14-.45-.11-1.29-.22-.14-.37-.2-.36-.24-.3-.29-.29-.49-.46-.47-.51-.23-.3-.22-.35-.2-.41-.17-.46-.14-.5L567,920l-.07-.55,0-.56v-4.6l0-.56.07-.54.1-.53.14-.5.17-.46.2-.41.22-.35.23-.3.47-.51.49-.46.29-.29.24-.31.2-.35.13-.37,1.3-.21.45-.11.21-.07.45-.11.53-.08.6,0h2.48l2.08,0h22.61a2.82,2.82,0,0,0,2.82-2.82V892.79a2.82,2.82,0,0,0-2.82-2.82H556.41a4.3,4.3,0,0,0-2.36.71l-5.56,3.71a4.25,4.25,0,0,0-1.89,3.53V946a4.25,4.25,0,0,0,1.89,3.53l5.56,3.71a4.3,4.3,0,0,0,2.36.71h44.22a2.82,2.82,0,0,0,2.82-2.82V926.93A1.41,1.41,0,0,0,602.05,925.51Zm-15.29-26.68a2.49,2.49,0,0,1,5,0h0a2.49,2.49,0,1,1-5,0Zm4.82,47.31a2.49,2.49,0,0,1-5,0h0a2.49,2.49,0,0,1,5,0Z"/><path class="cls-3" d="M671.45,890.57H623.09a4.27,4.27,0,0,0-4.27,4.26v31.3a2.85,2.85,0,0,0,2.85,2.84h25.5a7.15,7.15,0,0,0,5-2.08l22.27-22.27a4.28,4.28,0,0,0,1.25-3v-6.77A4.27,4.27,0,0,0,671.45,890.57Zm-9.89,20.92-7.7,7.7a1.43,1.43,0,0,1-2,0,1.41,1.41,0,0,1-.41-1v-7.7a1.41,1.41,0,0,1,1.42-1.42h7.7a1.42,1.42,0,0,1,1,2.43Z"/><path class="cls-3" d="M643.22,1006,608.73,986a4.27,4.27,0,0,0-5.83,1.56l-11.72,20.29a1.42,1.42,0,0,1-1.94.52l-14.78-8.53a7.11,7.11,0,0,0-9.72,2.6L503.8,1108a7.11,7.11,0,0,0,2.6,9.72l17.25,10a4.27,4.27,0,0,0,5.83-1.57l6.72-11.64a7.1,7.1,0,0,1,4.32-3.31l34.2-9.17a14.19,14.19,0,0,0,8.64-6.63l18.75-32.47a28.38,28.38,0,0,1,13.34-11.88,5.17,5.17,0,0,0,2.38-2.1,32.68,32.68,0,0,1,11.5-11.51,4.31,4.31,0,0,0,1.52-1.54l13.93-24.12A4.27,4.27,0,0,0,643.22,1006ZM525.8,1110.73a3.84,3.84,0,1,1-3.84-3.84,3.84,3.84,0,0,1,3.84,3.84Zm7.54-15.87a3.84,3.84,0,1,1,3.84-3.84A3.84,3.84,0,0,1,533.34,1094.86Zm34.29-82.71a3.85,3.85,0,0,1,7.69,0h0a3.85,3.85,0,0,1-7.69,0ZM561,1027.77a2.49,2.49,0,1,1-2.49,2.49A2.49,2.49,0,0,1,561,1027.77Zm-15.83,33.82a3.84,3.84,0,1,1,3.84-3.84A3.84,3.84,0,0,1,545.19,1061.59Zm32,31.39a2.49,2.49,0,1,1,2.49-2.49A2.49,2.49,0,0,1,577.16,1093Zm7.31-27a16.36,16.36,0,0,1-31.6-3.47,2.92,2.92,0,0,1,.2-1.46,8.47,8.47,0,0,0,.52-4.77,2.94,2.94,0,0,1,.13-1.47A16.36,16.36,0,1,1,584.47,1066Zm17.23-13.65a2.49,2.49,0,0,1-5,0h0a2.49,2.49,0,0,1,5,0Zm11.15-49.68a3.84,3.84,0,1,1-7.68,0h0a3.84,3.84,0,0,1,7.68,0ZM632.56,1014a3.84,3.84,0,0,1-7.68,0h0a3.84,3.84,0,1,1,7.68,0Z"/><path class="cls-3" d="M696.41,1006.12l-2.77-4.79a1.42,1.42,0,0,0-1.92-.47l-.35.2-.22.08h-.24l-.11,0-.11-.05-.09-.07-.07-.09.93-.54.44-.26a1.41,1.41,0,0,0,.52-1.94l-16.78-29.07a1.42,1.42,0,0,0-1.94-.52l-.44.26-.94.54h0l-.05-.11,0-.12V969l0-.11.12-.21.19-.15.35-.2a1.43,1.43,0,0,0,.54-1.9l-2.76-4.79a2.84,2.84,0,0,0-3.85-1l-20.36,11.76a7.1,7.1,0,0,0-3.31,4.32l-1.6,6a7.13,7.13,0,0,0,.71,5.4l17,29.39a7.11,7.11,0,0,0,4.31,3.31l6,1.6a7.13,7.13,0,0,0,5.4-.71l20.36-11.76A2.85,2.85,0,0,0,696.41,1006.12Zm-8.92-3.09,0,.11-.13.2-.18.16-7.62,4.4a2.86,2.86,0,0,1-3.89-1l-6.77-11.74a5.26,5.26,0,0,1-2.38-4.12l-6.78-11.74a2.84,2.84,0,0,1,1-3.88l7.62-4.4.23-.08h.24l.11,0,.11.06.09.07.07.1h0l-1,.58-6.73,3.88a2.84,2.84,0,0,0-1.26,3.4l6.88,11.92.33-.19a4.26,4.26,0,1,1,2.13,3.69l-.33.19,6.88,11.92a2.85,2.85,0,0,0,3.58.6l6.72-3.88,1-.57,0,.1,0,.12Z"/><path class="cls-2" d="M731.23,860.41a18.5,18.5,0,1,1,18.51,18.51,18.49,18.49,0,0,1-18.51-18.51v0Zm22.26-6.23,5.84,11.63,2.51-4.35L756,849.83Zm-10.94-3.37,11.84,23.56L756.9,870l-11.84-23.56Zm.9,20.18,2.51-4.35L740.12,855l-2.51,4.35Z"/><path class="cls-3" d="M840.4,922.7l-.06-.23-.1-.22-2.49-4.48-2.47-4.46L834,911l-1.28-2.31-2.57-4.62-.37-.64-.4-.62-.41-.61-.44-.59-.46-.57-.48-.56-.5-.54-.52-.52-.39-.33-.41-.3-.44-.25-.46-.2-.56-.19-.57-.15-.58-.12-.59-.09-.6-.05-.61,0-.62,0-.62.05-.63.08-.62.12-.62.14-.61.19-.6.21-.59.24-.58.28-.56.3-5,2.89a2.83,2.83,0,0,1-3.88-1l-11.38-19.71a4.27,4.27,0,0,0-5.83-1.56L753.5,900.6a4.27,4.27,0,0,0-1.57,5.82l18.57,32.16a14.18,14.18,0,0,0,6.31,5.78l3.8,1.78a5.71,5.71,0,0,1,2.53,2.31l1.74,3a5.69,5.69,0,0,0,7.77,2.08l5.26-3a1.41,1.41,0,0,0,.52-1.94l-4.26-7.39a1.43,1.43,0,0,1,.52-1.95l32-18.49,1.95.52,3.11,5.39.17.25.21.22.23.18.28.13.28.08.31,0,.29,0,.28-.12,5.95-3.43.2-.14.17-.17.13-.2.09-.22,0-.24Zm-71.78-10.57a3.84,3.84,0,1,1,3.84-3.84A3.84,3.84,0,0,1,768.62,912.13Zm19.7-11.38a3.84,3.84,0,1,1,3.84-3.84A3.84,3.84,0,0,1,788.32,900.75Zm26.45,16.37-12.32,7.11a3.7,3.7,0,1,1-3.69-6.41l12.31-7.11a3.7,3.7,0,0,1,3.7,6.41Z"/><path class="cls-3" d="M907.62,902l-6-10.48-10.81-18.73a5.69,5.69,0,0,0-7.77-2.08l-27.1,15.65a5.68,5.68,0,0,0-2.08,7.77l10.81,18.72,6,10.49a5.68,5.68,0,0,0,7.77,2.08l27.1-15.65a5.75,5.75,0,0,0,1.55-1.31A5.68,5.68,0,0,0,907.62,902Zm-18.63,3a4.27,4.27,0,0,1-8.53,0v0a4.27,4.27,0,1,1,8.53,0Z"/><path class="cls-2" d="M982.26,851.25l-.1-.17-14.08-24.7a21.05,21.05,0,0,0-28.72-7.85c-.3.17-.59.34-.88.53l-14.6,9.3a14.27,14.27,0,0,0-6.25,8.92l-4.7,21.23,0,.29,0,.31.1.3.16.28a1.46,1.46,0,0,0,.82.52l12.5,2.77-6.3,28.38-.11.5,13.47,3,43-23.79A14.59,14.59,0,0,0,982.26,851.25Zm-12.38-7.67a2.49,2.49,0,1,1-2.49,2.49A2.49,2.49,0,0,1,969.88,843.58Zm-43.18-1.8a2.49,2.49,0,1,1,2.49-2.49A2.49,2.49,0,0,1,926.7,841.78Zm5.1,43.33a2.49,2.49,0,1,1,2.49-2.49A2.5,2.5,0,0,1,931.8,885.11Zm18-31.51a16.79,16.79,0,1,1,16.78-16.79A16.79,16.79,0,0,1,949.79,853.6Zm21.78,11.28-6.73-1.49-2.07-6.58,4.66-5.08,6.73,1.49,2.07,6.58Z"/><path class="cls-3" d="M811.07,783.52h0L784,767.87a1.42,1.42,0,0,0-1.94.52L752.82,819l-1.32,2.29-1.83,3.17a1.42,1.42,0,0,0,.52,1.94L777.29,842a1.42,1.42,0,0,0,1.94-.52l1.83-3.17,1.32-2.29,29.21-50.59A1.42,1.42,0,0,0,811.07,783.52ZM793.15,806l-9.88,17.12a4.27,4.27,0,0,1-5.83,1.56l-12.32-7.11a4.27,4.27,0,0,1-1.56-5.83l9.88-17.12a4.27,4.27,0,0,1,5.83-1.56l12.32,7.11A4.27,4.27,0,0,1,793.15,806Zm2.24-24.21a2.42,2.42,0,1,1,2.41-2.42A2.42,2.42,0,0,1,795.39,781.81Z"/><path class="cls-3" d="M842,725.81l-1.59-6a7.1,7.1,0,0,0-3.32-4.32l-20.36-11.76a2.86,2.86,0,0,0-3.85,1l-2.76,4.79a1.42,1.42,0,0,0,.54,1.9l.36.2.18.16.12.2,0,.11v.12l0,.12,0,.1-.94-.54-.44-.25a1.42,1.42,0,0,0-1.94.52l-16.78,29.07a1.41,1.41,0,0,0,.52,1.94l.44.26.93.54h0l-.07.1-.09.07-.11.06-.12,0h-.23l-.23-.08-.35-.2a1.44,1.44,0,0,0-1.92.47l-2.76,4.79a2.85,2.85,0,0,0,1.08,3.83l20.36,11.75a7.1,7.1,0,0,0,5.39.71l6-1.6a7.15,7.15,0,0,0,4.32-3.31l17-29.39A7.07,7.07,0,0,0,842,725.81Zm-18.1-3.44-6.77,11.73a5.28,5.28,0,0,1-2.38,4.12L808,750a2.86,2.86,0,0,1-3.89,1l-7.62-4.4-.18-.15-.12-.21,0-.11V746l0-.12,0-.11h0l1,.58,6.72,3.88a2.85,2.85,0,0,0,3.58-.6l6.88-11.92-.33-.19a4.27,4.27,0,1,1,2.13-3.69l.33.19,6.88-11.92a2.84,2.84,0,0,0-1.26-3.4l-6.73-3.88-1-.58.06-.09.09-.07.11-.06.12,0H815l.23.08,7.62,4.4A2.85,2.85,0,0,1,823.89,722.37Z"/><path class="cls-3" d="M876.81,750l-2.18-8.14a6.27,6.27,0,0,0-2.92-3.8l-8.63-5a5.12,5.12,0,0,0-7,1.87l-19.2,33.26a5.11,5.11,0,0,0,1.87,7l8.64,5a6.31,6.31,0,0,0,4.75.63l8.14-2.19a6.21,6.21,0,0,0,3.8-2.91l12.1-21A6.26,6.26,0,0,0,876.81,750Zm-14.24,8.42a4.27,4.27,0,0,1-8.53,0v0a4.27,4.27,0,1,1,8.53,0Z"/><path class="cls-3" d="M914.33,778.4h-1.59v-.12l0-.11.06-.1L913,778l.2-.12.24,0h.41a1.43,1.43,0,0,0,1.42-1.37v-5.53a2.85,2.85,0,0,0-2.85-2.77H888.86a7.11,7.11,0,0,0-5,2.08l-4.37,4.37a7.07,7.07,0,0,0-2.08,5v33.93a7.07,7.07,0,0,0,2.08,5l4.37,4.37a7.11,7.11,0,0,0,5,2.08h23.51a2.85,2.85,0,0,0,2.85-2.77v-5.53a1.42,1.42,0,0,0-1.42-1.37h-.41l-.24,0-.2-.12-.09-.08-.06-.1,0-.11v-.11h1.59a1.43,1.43,0,0,0,1.42-1.43V779.82A1.42,1.42,0,0,0,914.33,778.4Zm-5.18,36.52,0,.11-.07.1-.08.08-.21.12-.24,0h-8.79a2.85,2.85,0,0,1-2.85-2.85V799a5.25,5.25,0,0,1,0-4.76V780.66a2.84,2.84,0,0,1,2.85-2.84h8.79l.24,0,.21.12.08.08.07.1,0,.11,0,.12h-8.92a2.85,2.85,0,0,0-2.8,2.31v13.76h.38a4.26,4.26,0,1,1,1.56,5.83,4.43,4.43,0,0,1-1.56-1.57h-.38V812.5a2.85,2.85,0,0,0,2.8,2.31h8.91Z"/><path class="cls-3" d="M878.1,674.41l-9.94-37.09a5.12,5.12,0,0,0-6.27-3.62l-9.63,2.58a6.27,6.27,0,0,0-3.8,2.92l-19.3,33.42a6.26,6.26,0,0,0-.63,4.75l2.59,9.63a5.12,5.12,0,0,0,6.27,3.63l37.09-9.94A5.12,5.12,0,0,0,878.1,674.41ZM845,675.61a4.27,4.27,0,1,1-8.53,0v0a4.27,4.27,0,1,1,8.53,0Zm16.09-27.87a4.27,4.27,0,1,1-8.53,0h0a4.27,4.27,0,1,1,8.53,0Z"/><path class="cls-2" d="M985.72,764.38H979.6v23a1.42,1.42,0,0,1-1.42,1.42H937.79a1.43,1.43,0,0,1-1.43-1.42v-23h-6.11a4.27,4.27,0,0,0-4.27,4.27v22.76a8.53,8.53,0,0,0,8.53,8.53h46.94a8.54,8.54,0,0,0,8.54-8.53V768.65A4.27,4.27,0,0,0,985.72,764.38ZM958,796.74a2.49,2.49,0,1,1,2.49-2.49A2.49,2.49,0,0,1,958,796.74Z"/><path class="cls-2" d="M973.94,566.83H901.15a4.27,4.27,0,0,0-4.27,4.27V731.54a4.27,4.27,0,0,0,4.27,4.27h72.79a4.27,4.27,0,0,0,4.27-4.27h0V571.1A4.27,4.27,0,0,0,973.94,566.83Zm-36.47,102.7-16.1-10.59v-7.73l16.1,10.58Zm16.1-3.68-32.2-21.16V637l32.2,21.17Zm0-14.25L937.47,641v-7.73l16.1,10.58Z"/><path class="cls-2" d="M989.54,560l-.14-.61-.22-.59-.31-.57-.4-.52-.46-.49-.54-.44-.6-.38-.65-.32-.69-.25-.72-.19-.75-.11-.76,0H898.38a30.66,30.66,0,0,0-6.76.76l-.57.14-.55.18-.54.21-.53.25-.51.28-.49.31-.47.34-.44.38-.42.41-.38.43-.34.47-.29.5-.25.52-.18.54-.12.56,0,.58v178l0,.53.09.51.16.5.21.49.25.46.3.44.34.44.39.41.44.4.48.38.52.36.54.31.57.28.58.23.6.2.61.16a30.65,30.65,0,0,0,6.76.75H983.3l.76,0,.75-.11.72-.19.69-.25.65-.32.6-.38.54-.44.46-.49.4-.53.31-.56.22-.59.14-.61.05-.62V560.57Zm-15.6,178.69H901.15a7.11,7.11,0,0,1-7.11-7.11V571.1a7.11,7.11,0,0,1,7.11-7.11h72.79a7.11,7.11,0,0,1,7.11,7.11V731.54A7.11,7.11,0,0,1,973.94,738.65Zm9.25,4.62a2.49,2.49,0,1,1,2.49-2.49A2.48,2.48,0,0,1,983.19,743.27Zm0-178.93a2.49,2.49,0,1,1,2.49-2.49A2.48,2.48,0,0,1,983.19,564.34Z"/><path class="cls-3" d="M792.26,522.52h-25.5a7.15,7.15,0,0,0-5,2.08l-22.26,22.27a4.28,4.28,0,0,0-1.25,3v6.77a4.26,4.26,0,0,0,4.26,4.26h48.36a4.27,4.27,0,0,0,4.27-4.26V525.37A2.84,2.84,0,0,0,792.26,522.52ZM762.5,541a1.42,1.42,0,0,1-1.43,1.42h-7.7A1.42,1.42,0,0,1,752,541a1.38,1.38,0,0,1,.42-1l7.7-7.71a1.43,1.43,0,0,1,2.43,1Z"/><path class="cls-3" d="M866.87,513.34h-10a6.26,6.26,0,0,0-4.43,1.84l-27.29,27.29a6.25,6.25,0,0,0-1.83,4.42v10a5.12,5.12,0,0,0,5.12,5.12h38.4a5.12,5.12,0,0,0,5.12-5.12V518.46A5.12,5.12,0,0,0,866.87,513.34Zm-27,35a4.27,4.27,0,1,1-8.54,0h0a4.27,4.27,0,0,1,8.54,0Zm22.75-22.76a4.27,4.27,0,0,1-8.53,0v0a4.27,4.27,0,1,1,8.53,0Z"/><path class="cls-2" d="M899.37,489.85a18.49,18.49,0,0,1,37,0v0a18.49,18.49,0,0,1-37,0Zm22.26-6.23,5.84,11.63L930,490.9l-5.84-11.63Zm-10.94-3.38,11.84,23.57,2.51-4.35L913.2,475.89Zm.9,20.19,2.51-4.35-5.84-11.63-2.51,4.35Z"/><path class="cls-3" d="M988.83,530H975.32a11.38,11.38,0,0,1-11.38-11.37V466a11.38,11.38,0,0,1,11.38-11.38h13.51a3.56,3.56,0,1,0,0-7.11H919.14a3.56,3.56,0,1,0,0,7.11h13.51A11.38,11.38,0,0,1,944,466v52.63A11.37,11.37,0,0,1,932.65,530H919.14a3.56,3.56,0,0,0,0,7.12h69.7a3.56,3.56,0,0,0,0-7.12Zm-1.35-78.94a1.35,1.35,0,1,1,2.7,0h0a1.35,1.35,0,1,1-2.7,0Zm-67,0a1.35,1.35,0,1,1-2.7,0h0a1.35,1.35,0,0,1,2.7,0Zm0,82.5a1.35,1.35,0,0,1-2.7,0h0a1.35,1.35,0,0,1,2.7,0ZM954,454.14a1.71,1.71,0,1,1-1.71,1.71A1.71,1.71,0,0,1,954,454.14Zm2.84,67.35a2.85,2.85,0,1,1-5.69,0V507.76a2.85,2.85,0,0,1,5.69,0Zm-4.55-20.84a1.71,1.71,0,1,1,1.71,1.71A1.7,1.7,0,0,1,952.28,500.65Zm4.55-7.11a2.85,2.85,0,1,1-5.69,0V463.17a2.85,2.85,0,0,1,5.69,0Zm33.35,40.05a1.35,1.35,0,0,1-2.7,0h0a1.35,1.35,0,0,1,2.7,0Z"/><path class="cls-3" d="M891.87,500.83a1.54,1.54,0,0,0,1.52-1.56,1.59,1.59,0,0,0-.42-1.08,8.76,8.76,0,0,1-2.33-6V478.05a8.57,8.57,0,0,0-3-6.56,4.74,4.74,0,0,1-1.68-3.64v-31a4.76,4.76,0,0,1,1.68-3.64,8.55,8.55,0,0,0,3-6.55V412.47a8.74,8.74,0,0,1,2.33-6,1.59,1.59,0,0,0-.05-2.21,1.49,1.49,0,0,0-1-.44h-9.1a1.23,1.23,0,0,0-1.21-1.25H852.42a1.23,1.23,0,0,0-1.21,1.25H842.1a1.23,1.23,0,0,0-1.21-1.25h-40a1.23,1.23,0,0,0-1.21,1.25h-9.1a3.08,3.08,0,0,0-3,3.13v9.26a4.73,4.73,0,0,1-2.28,4.07l-12.13,7.22a9.43,9.43,0,0,0-4.56,8.13v14.44a9.45,9.45,0,0,0,4.56,8.13l12.13,7.22a4.73,4.73,0,0,1,2.28,4.07v28.17a3.07,3.07,0,0,0,3,3.12h-3V504a3.08,3.08,0,0,0,3,3.13H890.64a3.08,3.08,0,0,0,3-3.13v-3.13Zm-24-86a3.08,3.08,0,0,1,3-3.13H884a3.08,3.08,0,0,1,3,3.13v10.11a3.08,3.08,0,0,1-3,3.13,3,3,0,0,1-1.52-.42l-12.28-7.31a4.73,4.73,0,0,1-2.28-4.07Zm-37.92,0a3.08,3.08,0,0,1,3-3.13h27.31a3.08,3.08,0,0,1,3,3.13v1.44a4.73,4.73,0,0,1-2.28,4.07l-12.13,7.22a4.42,4.42,0,0,1-4.55,0l-12.14-7.22a4.74,4.74,0,0,1-2.27-4.07Zm-37.92,0a3.08,3.08,0,0,1,3-3.13h27.3a3.08,3.08,0,0,1,3,3.13v1.44a4.73,4.73,0,0,1-2.28,4.07L811,427.55a4.42,4.42,0,0,1-4.55,0l-12.14-7.22a4.72,4.72,0,0,1-2.27-4.07Zm-4.55,46.59-12.14-7.22a4.72,4.72,0,0,1-2.27-4.07V435.68a4.72,4.72,0,0,1,2.27-4.07l12.14-7.22a4.42,4.42,0,0,1,4.55,0l12.13,7.22a4.73,4.73,0,0,1,2.28,4.07v14.44a4.73,4.73,0,0,1-2.28,4.07l-12.13,7.22A4.42,4.42,0,0,1,787.5,461.41ZM825.42,484a4.73,4.73,0,0,1-2.28,4.07L811,495.27a4.42,4.42,0,0,1-4.55,0l-12.14-7.22a4.72,4.72,0,0,1-2.27-4.07V469.54a4.72,4.72,0,0,1,2.27-4.07l12.14-7.22a4.42,4.42,0,0,1,4.55,0l12.13,7.22a4.73,4.73,0,0,1,2.28,4.07Zm0-22.57-12.14-7.22a4.72,4.72,0,0,1-2.27-4.07V435.68a4.72,4.72,0,0,1,2.27-4.07l12.14-7.22a4.42,4.42,0,0,1,4.55,0l12.13,7.22a4.73,4.73,0,0,1,2.28,4.07v14.44a4.73,4.73,0,0,1-2.28,4.07L830,461.41A4.42,4.42,0,0,1,825.42,461.41ZM863.34,484a4.73,4.73,0,0,1-2.28,4.07l-12.13,7.22a4.42,4.42,0,0,1-4.55,0l-12.14-7.22A4.74,4.74,0,0,1,830,484V469.54a4.74,4.74,0,0,1,2.27-4.07l12.14-7.22a4.42,4.42,0,0,1,4.55,0l12.13,7.22a4.73,4.73,0,0,1,2.28,4.07Zm0-22.57-12.13-7.22a4.73,4.73,0,0,1-2.28-4.07V435.68a4.73,4.73,0,0,1,2.28-4.07l12.13-7.22a4.42,4.42,0,0,1,4.55,0L880,431.61a4.74,4.74,0,0,1,2.27,4.07v14.44a4.74,4.74,0,0,1-2.27,4.07l-12.14,7.22A4.42,4.42,0,0,1,863.34,461.41ZM887,492.65a3.08,3.08,0,0,1-3,3.13,3,3,0,0,1-1.52-.42l-12.28-7.31a4.73,4.73,0,0,1-2.28-4.07V469.54a4.73,4.73,0,0,1,2.28-4.07l7.58-4.51a3,3,0,0,1,4.14,1.14,3.2,3.2,0,0,1,.41,1.57v4.18a8.57,8.57,0,0,0,3,6.56,4.71,4.71,0,0,1,1.68,3.64Z"/><path class="cls-3" d="M36.3,518.33q0,17.85,0,35.68c0,2.65.42,5.46-3.78,5.46-4,0-5.69-1.58-5.83-5.59-.33-8.66-.73-17.33-1.48-26-1.25-14.55-2.81-29.07-4.2-43.6a23,23,0,0,1-.11-2.49c0-28.08-.34-56.16.12-84.23.23-14.16,1.81-28.3,2.73-42.46.55-8.41,1-16.82,1.52-25.23.46-7.2.91-14.4,1.52-21.59.31-3.64,3.22-6.43,6-5.94,3.54.62,3.54,3.41,3.54,6.16q0,35.44,0,70.9a17.23,17.23,0,0,0,.24,3c.75,4.14,2.66,5.53,7.3,5.65,3.63.09,7.28-.09,10.92.07,1.61.07,3.85.14,4.69,1.14,3.19,3.81,7.33,3.16,11.4,3.17,5.83,0,11.65-.06,17.48,0,4.13.06,8-.05,11.65-2.77,1.88-1.39,5-1.2,7.55-1.61,4.66-.73,9.68,1.57,14.12-1.77.37-.27,3.17,1.37,3.26,2.28,1.36,13.13,3.26,26.27.72,39.46a23.05,23.05,0,0,0-.37,4.62c.44,7.85,1.22,15.7,1.27,23.55,0,5.74-.93,11.48-1.41,17.22-.22,2.73-2,3.43-4,2.47-6.16-3-12.69-2.46-19.18-2.53-1,0-2.15.08-2.83-.43-9.66-7.2-20.69-2.72-31.06-3.76a1.54,1.54,0,0,0-1.11.33c-6.7,5.18-14.81,3.14-22.34,4.24-6.83,1-8.26,3.25-8.28,10.27C36.28,495.52,36.31,506.93,36.3,518.33Zm22-102.1a1,1,0,0,0-.25,0c-3.43,0-7.08,0-8.81,1.72a27.68,27.68,0,0,0-7.15,10.53,10.51,10.51,0,0,0,1.94,10c1.48,2.57,7.23,8.78,14.52,8.08,7.08-.69,15.85-8.68,14.48-15.46-.94-4.68-3.78-9.27-6.82-13.08C64.92,416.38,61.1,416.74,58.32,416.23Zm29.44,48.46.28,0c3.52,0,7.71-.9,9.8-3,3.23-3.23,7.09-8.19,6.74-12-.45-5-4.41-9.87-7.71-14.15-1.14-1.47-4.84-1.25-7.37-1.29-8.76-.16-17.29,6.76-16.45,14.51.5,4.64,3.35,9.4,6.28,13.25C80.62,463.63,84.35,464.14,87.76,464.69ZM87.2,428c4.3.29,8.68.21,10.27-1.52,3.3-3.57,7.06-8.44,7.11-12.82s-3.72-9.15-6.82-12.92c-1.31-1.6-5.2-1.53-7.89-1.42-3.7.14-8.47-.17-10.76,1.93C76,404.07,73.29,409,73.21,413s2.59,8.82,5.45,12C80.62,427.26,85,428,87.2,428ZM49.66,468.64h.22c3-.38,6.58.06,8.91-1.42,2.92-1.85,5.37-3.7,9.05-3.48.78,0,2.32-1.6,2.39-2.55.23-3.22-4.25-7.85-7.53-8-2.39-.13-4.85.25-7.21-.09-5.65-.84-8.61,1.94-11,6.71C40.23,468.34,40,468.28,49.66,468.64Zm1.48-73.83s-2.74-.3-2.85-.05L45,395a2.35,2.35,0,0,0-2,3.28c.84,1.94,1.64,3.88,2.44,5.87,2.06,5.13,5.94,6.49,11,5.84,1.67-.21,3.39,0,5.09,0,3.77-.13,8.78-5.2,8.59-8.75,0-.6-.49-1.56-1-1.7A170.56,170.56,0,0,0,51.14,394.81Zm64.39,36.89h0c0-4.1.16-8.21-.06-12.29-.15-2.62-2.55-3.52-4.51-2-.17.14-.22.41-.34.62-2.36,4.13-5,8.14-7,12.45-1.14,2.49,6.25,14.73,9.13,15.43.71.18,2.58-1.22,2.63-2C115.68,439.9,115.53,435.79,115.53,431.7Zm.06,29.28a9.33,9.33,0,0,0-1.1-6.3,1.58,1.58,0,0,0-2.07-.78,8.68,8.68,0,0,0-3.12,1.9c-1.36,1.57-2.06,3.73-3,5.65-.62,1.25-1.21,2.51-1.81,3.78a1.58,1.58,0,0,0,1.07,2.21,22.22,22.22,0,0,0,4.73.77C115.57,468.27,115.57,468.13,115.59,461Zm.54-57.79,0-.56c0-.46.24-1.56.06-1.61.07-1.81,1.38-4.51-.62-5.32-1.2-.48-.91-1.06-3.4-.84-1.18.11-2.3.23-3.39.39a3.86,3.86,0,0,0-3,5.24c.33.82.64,1.25,1.15,2.34.31.65.29.66.91,1.92s2.35,6.36,6,4.79C115.26,408.93,115.46,405.52,116.13,403.19Z"/><path class="cls-3" d="M550.57,188.5c5.4-.16,7.8,2.87,6.53,8.22-3.08,12.94-3.15,13.05,7.84,19.89,5.49,3.42,11.35,6.25,16.92,9.53,4.52,2.66,8.24,1.55,11.71-1.82,1.39-1.35,2.71-2.78,4.15-4.09,4-3.61,6.38-3.37,9.33,1.05,3.3,4.94,4.54,10,.45,15.2a22.46,22.46,0,0,0-2.85,5c-1.2,2.82-2.83,4.14-6.09,5.12s-6.38,4.14-8.52,7.1a117.16,117.16,0,0,0-10,16.64c-1.72,3.46-2,7.62-3.31,11.32-1.21,3.37-2.54,6.89-4.71,9.62-.9,1.13-4.46,1.08-6.29.31a103.77,103.77,0,0,1-12.65-6.75c-2.76-1.64-4.51-2-6.09,1.6-1.42,3.27-4.24,3.15-7.12,1.33q-6.69-4.22-13.5-8.22c-2.54-1.5-3.36-3.16-1.52-5.86,1.71-2.53,1.86-4.65-1.78-6-2.64-1-4.89-3-7.43-4.33-9.4-4.93-10.37-11.37-1.57-17.23,4.16-2.77,6.28-6.15,8.44-10.14,2.73-5.05,5.71-10,8.83-14.81a16.14,16.14,0,0,0,2.23-11.8C532.14,200.19,541.37,188.76,550.57,188.5ZM554,274.43c14.84,1.94,27.11-12.55,26.57-26.49C580,232,569,221.34,554.06,221.62s-25.79,10.45-26.56,26.7C526.82,262.5,539.71,275.94,554,274.43Z"/><path class="cls-3" d="M856.59,934.18c-.66.61-1.17,1.32-1.53,1.56-12.43,8.57-24.94,17-37.17,25.91-24.31,17.63-50.45,32.27-76.61,46.87q-29.84,16.65-60.32,32.18c-13.22,6.77-26.91,12.62-40.37,18.93-2.79,1.32-5.15,2.49-7.05-1.46s.62-5,3.24-6.56q30.5-17.62,60.92-35.36c5.31-3.09,6.27-6.33,3.56-12-1.13-2.37-3-4.42-4-6.81-1.36-3.1-4.32-5.8-2.15-10,.65-1.25-.37-3.77-1.25-5.36-3.46-6.31-7-12.61-10.88-18.63-1.7-2.62-3-5.69-7.09-6.62-2.24-.52-3.9-4-5.62-6.24-2.85-3.77-5.29-7.86-8.35-11.44-2.5-2.92-.66-4.6,1.27-5.94,6.41-4.47,12.86-8.93,19.59-12.89,4.47-2.63,9.56-4.18,14.15-6.63,2.41-1.29,4.17-3.79,6.55-5.18,7.65-4.46,15.44-8.68,23.22-12.92,1.46-.79,3.15-1.14,4.67-1.84,5.75-2.66,5.61-2.64,7.34,3.21.59,2,2,3.78,3,5.68,2.71,5,6.12,9.79,5.62,16a9.42,9.42,0,0,0,1.39,4.75c3.15,5.94,6.27,11.91,9.79,17.62a20.33,20.33,0,0,0,8,7.72c3.75,2,5.91,7.25,8.4,11.3,4.15,6.78,6.87,7.44,13.75,3.46,18.06-10.42,36.21-20.7,54.32-31a78.27,78.27,0,0,1,7.45-4.32,5,5,0,0,1,6.69,3.6c0,.16-.17,1-.1,1.13ZM731.86,951.51a3.87,3.87,0,0,0,1.59,0c2.82-.67,6.43-.82,8-2.69,3.12-3.69,6.61-8.66,6.52-13s-3.75-9.27-7-12.93c-1.55-1.74-5.74-1.61-8.71-1.51-3.17.1-7.51.12-9.19,2-3.17,3.63-6.63,8.64-6.54,13s3.77,9.25,7,12.94C725,951,728.57,950.91,731.86,951.51ZM700.26,969a3.71,3.71,0,0,0,1.52,0c3.31-.64,7.12-.56,8.76-2.41,3.05-3.42,5.77-8.08,6.38-12.52.93-6.8-8.67-15.6-15.74-15.27-3.21.15-7.51.51-9.31,2.54-3.21,3.63-6.64,8.58-6.7,13,0,4.09,3.64,8.78,6.82,12.13C693.7,968.29,697.28,968.33,700.26,969Zm33.42-11.91a3.88,3.88,0,0,0-1.66,0c-3.41.67-7.08.63-8.9,2.44-3.28,3.26-7.25,8-7.1,11.95.16,4.68,3.78,9.76,7.12,13.58,1.75,2,6.13,2.16,9.34,2.22,3,0,7.07-.18,8.68-2,3.2-3.65,6.74-8.44,6.91-12.89.16-4.15-3.24-9-6.28-12.49C740.15,957.93,736.57,957.76,733.68,957.06Zm-29.42,18a4.05,4.05,0,0,1-.78.09c-6.29,0-6.31.24-4.12,5.95.5,1.31,1.38,2.79,1.16,4-1.17,6.4,3.07,10.8,5.42,15.93,1.3,2.82,2.79,2.86,4.92,1a14.69,14.69,0,0,0,3.48-18.37,26.16,26.16,0,0,0-2-3.83C710.22,976.85,707.81,974.3,704.26,975Zm57.92-6.26c-1.46-.12.9.31,2.76.3s2-.28,3.76-.86c1-.34,2.51-2.75,2.18-3.35-2-3.75-4-7.92-7-10.64s-6.71-6.23-9.19-7.24c-1.82-.66-3.06-.8-3.28-.65-3.38,2.42-4.71,5.8-3.63,8.8,1,4.44,3.83,8.82,6.95,12.27C756.14,969,759.37,968.36,762.18,968.75Zm-61.29-35.38c7.37.08,15.49-7.43,16.33-15,.35-3.24-1.22-4.43-4.4-2.73-6.1,3.27-12.05,6.86-18,10.45a2.9,2.9,0,0,0-.29.19,3.61,3.61,0,0,0,.24,6.1,13.51,13.51,0,0,0,1.77.92C697.8,933.8,699.44,933.37,700.89,933.37Zm-14.95,4.69a3.24,3.24,0,0,0,.51-2.12c-.31-2.45-2.31-3.49-4.72-2.39a42.85,42.85,0,0,0-7.93,4.78c-1,.74-2,2.89-1.6,3.67a46.36,46.36,0,0,0,5.17,7.29c.17.21,1.61-.1,1.89-.54C681.63,945.1,683.9,941.38,685.94,938.06ZM731,914.35a5.58,5.58,0,0,0,.9.13,39.9,39.9,0,0,0,6-.09,4.48,4.48,0,0,0,2.37-1.79c-1.35-2.77-2.56-5.78-4.65-7.93-.75-.77-4,.1-5.59,1.11-2.62,1.7-7.92,1.59-7.15,5.86C723.75,916.56,728.42,913.81,731,914.35Z"/><path class="cls-3" d="M560.53,121.19c3.27-.3,5.61,1,7.65,3.44,5.28,6.17,9,13.48,12,20.72,4.38,10.7,6.8,22.22,9.86,33.44,1.25,4.57-4.64,6.85-10.78,7.83-5.23.84-8.8,1.87-12.63,2.49-5.86,1.25-5.65-.28-6.32-2.21-1.54-4.43-.77-10.33-4.64-13.15s-9.08.31-13.75.32c-6.8,0-13.32-1.73-20.08-1.88-6-.14-11-8.75-9-14.53,3.57-10.19,10.12-18.84,15.26-28.21,1.4-2.56,4.19-4.68,7-4.73C543.69,124.57,552.22,123.79,560.53,121.19Zm3.83,14c-.12-3.68-1.87-6.31-5-6.26-2.84,0-6.4,1-6.7,5-.28,3.69,1.78,6,5.35,6.32C561.77,140.68,563.55,138.24,564.36,135.23Zm-12.62,28.89a6.2,6.2,0,0,0-.75-6.55,5.44,5.44,0,0,0-5.07-2.43c-3.52.29-5.12,3-5,6.65.17,4.39,3.36,4.76,6.49,4.75A4.58,4.58,0,0,0,551.74,164.12ZM539.6,131.55c-4.42,0-7.12,1.76-7.16,5.26,0,3.1,2.46,4.75,5.76,5.1,3.84.41,5.35-1.95,5.49-4.89S542.71,131.33,539.6,131.55Zm-14.52,33.57c3.62.13,5.41-1.94,5.5-4.82.09-3.15-2.12-5.24-5.48-5.32s-5.73,1.87-5.78,5C519.26,163.27,521.24,165.27,525.08,165.12Zm45.84-9.81c-.51-2.09-1.07-3.66-3.44-3.21-1.87.36-3.33,1.45-2.9,3.34a3.21,3.21,0,0,0,3.92,2.35C570.05,157.53,571,156.74,570.92,155.31Zm5,21.53c0-1.47-.11-2.91-2.13-2.87s-3.35.94-3.39,2.8,1.45,2.79,3.31,2.88C575.74,179.74,575.91,178.35,575.93,176.84Z"/><path class="cls-3" d="M831,861.26c-4.61,2.59-7,4.69-.37,7.91-5.67-1.16-10.52.28-15.49-1.22-5.6-1.69-8-5.11-8.06-10.38A38.77,38.77,0,0,0,803.23,841c-2.94-6.11-1.57-11.15,3.2-16.07,5.5-5.66,10-12.32,15.43-18,7.89-8.23,16.89-6.79,21.91,3.6,3.72,7.71,7.35,15.67,9.39,23.92,1.5,6.07,4.48,6.21,8.76,4.81a21.34,21.34,0,0,1,7.14-.76c4.08,0,6.25,2.25,6.29,6.31a73.42,73.42,0,0,0,1.35,15.76c.94,4.15-.49,7.8-5.57,8.35-9.53,1-19,2.08-28.59,2.91C832.68,872.62,832.61,872.45,831,861.26Zm-12.27-12.81c-2.57,1.35-4.7,3.12-4.57,6.94s2.14,4.86,5.6,4.88c4.22,0,5.68-3.12,5.75-6C825.56,850.91,822.61,849.08,818.71,848.45Zm27-13.53c-.53-3.31-1.69-6.36-5.32-6.6s-5.54,2.23-5.79,5.84c-.23,3.33.7,5.46,4.64,5.74S844.78,837.87,845.72,834.92Zm-25.62-.25c-1.09-1.47-.36-5-4.64-5.14-3.62-.08-6.53,1.33-6.82,4.82s2.49,5.36,6.11,5.48C817.78,839.93,820,839.12,820.1,834.67Zm17.47-20.28c-.71-2.52-1.07-5.37-5.07-5.27-3.62.09-6.34,1.72-6.4,5.19-.05,3,2.33,4.85,5.71,5.16C835.57,819.82,836.74,817.59,837.57,814.39Zm29.11,39.92c0-1.5-.2-2.9-2.23-2.78-1.86.1-3.34,1-3.29,2.89s1.52,2.77,3.39,2.79C866.57,857.23,866.66,855.79,866.68,854.31Zm-22,1.37a2.72,2.72,0,0,0-3-2.47c-1.79.18-2.74,1.68-2.63,3.56s1.64,1.93,3.06,2C843.76,858.75,844.91,858.26,844.69,855.68Z"/><path class="cls-3" d="M98,633.49c.16-5-2.21-6.16-6.66-6.1-11.89.18-23.8.34-35.68,0-6.13-.2-8.21,2.81-8.59,8.07-.16,2.18,0,4.37,0,6.56,0,14.48,0,14.48-14.2,14.63-8.59.08-10.54,2-10.56,10.69q0,29.51,0,59c0,20.15.09,40.3-.06,60.45,0,5.86,2.32,8.47,8.21,8.24,5.09-.21,10.2,0,15.3-.05,8.47,0,8.94-.07,8.39-8.47-.6-9,2.51-15.78,9.07-21.7,6.3-5.69,12-12,18.13-17.91a15.23,15.23,0,0,0,5.06-12.18c-.26-9.95.11-19.91-.13-29.86-.19-7.83.7-15.25,5-22,2-3.1.5-4.36-2.81-4.32-4.86,0-9.72-.18-14.56,0-3.66.17-5.37-.88-5.12-4.86.24-3.55-.06-7,5.06-6.94s10.19,0,15.29,0c6.74-.06,8.64-1.72,8.81-8.44C98.11,650,97.77,641.74,98,633.49ZM77.63,688.24a2,2,0,1,1-2,2A2,2,0,0,1,77.63,688.24Zm0,33.56a2,2,0,1,1-2,2.05A2,2,0,0,1,77.63,721.8Zm-19-82.6c2.37-.23,3,.79,3,2.48,0,1.39.13,2.94-1.88,3.13s-3.39-.78-3.63-2.54A2.74,2.74,0,0,1,58.58,639.2ZM32.75,666.87c1.42-.14,2.26.41,2.39.92.23,2.39-.46,3.2-1.93,3.24a1.88,1.88,0,0,1-2.13-2.23C31.14,667.78,31.53,667,32.75,666.87ZM30.3,690.29a2.05,2.05,0,1,1,2.05,2.05A2.05,2.05,0,0,1,30.3,690.29Zm3.2,34.63c-1.69.07-2.46-.67-2.43-2.13s.88-2.12,2.33-2a1.76,1.76,0,0,1,1.83,1.78C34.86,724,34.39,724.69,33.5,724.92Zm6.24,59.14a2.67,2.67,0,0,1-2.86-2.8c-.05-1.87.88-3.35,2.71-3.47a2.73,2.73,0,0,1,2.91,2.53C42.7,783,41.29,784.07,39.74,784.06Zm0-22.87c-1.9.06-2.88-1.44-2.93-3.29s.94-3.37,2.79-3.44,2.77,1.46,3,3.23C42.54,759.62,41.64,761.12,39.79,761.19Zm31.94-48.46c-.46,8.75-6.57,16-16.12,15.26-11.62-.14-14.73-6.29-15.72-15.48-.89-8.4,7.28-15.31,16.32-15.2C64.71,697.41,72.16,704.5,71.73,712.73ZM80,642.68a1.76,1.76,0,1,1,1.76-1.76A1.76,1.76,0,0,1,80,642.68Z"/><path class="cls-3" d="M556,84.57c-3.39-4.2-5.64-9.48-11.4-11.58-3.87-1.41-6.57-4.66-8.67-8.17-6.39-10.65-12.65-21.39-19-32.07-4.52-7.65-10.06-10.36-18.53-7.14a134.25,134.25,0,0,0-34,19.47c-6.89,5.3-7.44,11.7-3.29,19.55,3,5.7,6.61,11.1,9.51,16.85,4.25,8.41,11.76,15.54,11.26,25.9-.32,6.59,2.13,12.18,5,17.74.83,1.62,1.46,3.93,4.1,3,2.13-.76,2.4-2.62,2.58-4.69.79-9.1,2.21-10.62,11.31-12.71,0,0,.06,0,.07,0,.93,2.71-.43,5.73,1.3,8.94a0,0,0,0,0,.07,0l16.13-9.08a.05.05,0,0,0,0-.09c-2.34-1.64-4.78-2.69-4-5.67a3.16,3.16,0,0,1,3.09-2.6c3,.06,4.46,1.24,3.47,4.61-.34,1.15,1.59,1.27,2,.87,3.86-3.51,10-3.86,13.26-9.16a.06.06,0,0,0,0-.08l-10-2.87a0,0,0,0,1,0-.09c6.2-5.31,11.89-9.39,19.5-3.84,2.18,1.59,4.46,1,6.45-.73C558.84,88.75,557.32,86.27,556,84.57ZM463.76,59c-2.1,0-3.42-1-3.45-3.14s1.57-3.3,3.67-3.24a3.18,3.18,0,0,1,3.23,2.2v0C467.36,57.06,466.07,59,463.76,59Zm40-29c.69-2.42,2.41-3,3.3-2.89,1.77.29,4,1.12,4,3.63a3.65,3.65,0,0,1-4.54,3.49A3.36,3.36,0,0,1,503.75,30.06ZM489,115.4a2.14,2.14,0,1,1,2.14-2.14A2.14,2.14,0,0,1,489,115.4Zm28.77-32.07a27.27,27.27,0,0,1-28.84,6.28c-10.92-4.28-17.1-12.78-17.3-26-1.07-4.78,2.05-8,6.18-10.39,6.57-3.89,13.29-7.51,19.84-11.42a13.12,13.12,0,0,1,12.25-1c4.48,1.65,6.84,7,12.48,6.6.78-.06,2.62,2.67,2.53,4C524.11,62.32,526.8,73.92,517.73,83.33Zm28.11.25A2.14,2.14,0,1,1,548,81.44,2.14,2.14,0,0,1,545.84,83.58Z"/><path class="cls-2" d="M500.41,1130.62c-7.23-4.21-14.53-8.31-21.8-12.48-3.45-2-5.89-4.29-6.15-8.91-.71-12.38.64-24.74,2-36.85,1.61-13.85,3.44-16.41-10.5-23.18-.65-.31-5.22-2.7-6-3.22-5.18-3.42-5.55-4.69-9.13-4.3-4.14.45-4.61,7.18-7.28,10.87-5.42,7.48-4.82,10.77,3,15.62,4,2.47,4.55,5.42,4.85,9.51.55,7.57-1.57,14.86-1.68,23.9-.86,4.89,1.51,9.49,7.3,12.73q20.66,11.57,41.05,23.57c3.28,1.92,5.16,1.58,7.26-1.72C506,1132,502.43,1131.79,500.41,1130.62Zm-36-65.83a1.13,1.13,0,1,1-1.14,1.13A1.13,1.13,0,0,1,464.45,1064.79Zm-11.23,26.7a1.14,1.14,0,1,1,1.13-1.14A1.14,1.14,0,0,1,453.22,1091.49Zm.73-19a1.14,1.14,0,1,1,1.13-1.13A1.13,1.13,0,0,1,454,1072.49Zm-.36-8.55c-1.51.2-5-2.86-6.42-4.84-.45-.61.58-2.37,2.45-3.64,1.49-1,8.1,3.14,8.37,5A5.59,5.59,0,0,1,453.59,1063.94Zm5.24,23.42c-2.44,0-2.4-2-2.21-3.66.38-3.21.7-6.6.87-9.71a2.41,2.41,0,0,1,2-2.24c7.74-1.35,5.89,2.67,5.88,4.7,0,.94,0,1.91,0,2.87l.2,0c-.23,2.35.13,5-.84,7C463.66,1088.55,460.88,1087.39,458.83,1087.36Zm7.88,5.26a1.14,1.14,0,1,1,1.14-1.13A1.14,1.14,0,0,1,466.71,1092.62Z"/><path class="cls-1" d="M712.54,572.88,533.32,883.3H697.9L877.13,572.88ZM692.36,873.71H549.94L718.08,582.47H860.51Z"/><path class="cls-1" d="M595.83,281.64,248.46,883.3H413L760.41,281.64ZM407.51,873.71H265.08L601.37,291.24H743.8Z"/><path class="cls-1" d="M311,281.64,131.75,592.07H296.33L475.56,281.64ZM290.79,582.47H148.36L316.51,291.24H458.94Z"/></g></g></svg>